<svg width="597" height="505" viewBox="0 0 597 505" fill="none" xmlns="http://www.w3.org/2000/svg">
<path d="M440.349 447.746H390.797V448.109H440.349V447.746Z" fill="#E7E8EC"/>
<path d="M253.529 168.196L254.183 149.107L242.474 145.272C241.971 138.803 240.921 132.388 239.336 126.096L249.273 118.832L242.532 100.906L230.242 101.894C227.328 96.1178 223.926 90.6016 220.073 85.4052L226.436 74.7858L213.361 60.8251L202.379 66.4471C197.44 62.2257 192.164 58.4165 186.602 55.0578L188.374 42.8549L170.942 34.9521L162.952 44.3076C156.788 42.3359 150.471 40.8782 144.066 39.9495L141.161 27.9936L122.014 27.3398L118.237 39.0633C111.774 39.5714 105.365 40.6161 99.0757 42.1867L91.6958 32.3082L73.7692 39.0052L74.7571 51.2952C68.9844 54.2535 63.4691 57.689 58.2687 61.566L47.5767 55.0578L33.5579 68.1323L39.1799 79.173C34.9574 84.0868 31.1663 89.3555 27.8487 94.9205L15.6603 93.09L7.69943 110.523L17.1131 118.498C15.1273 124.658 13.6694 130.976 12.7549 137.384L0.653726 140.42L0 159.508L11.7671 163.344C12.2538 169.809 13.2988 176.22 14.8904 182.505L4.95378 189.769L11.7089 207.71L23.999 206.722C26.9055 212.502 30.3079 218.019 34.168 223.21L27.7906 233.83L40.8651 247.79L51.8477 242.168C56.7733 246.389 62.0405 250.194 67.5952 253.543L65.7647 265.732L83.1974 273.649L91.231 264.293C97.3947 266.283 103.711 267.765 110.116 268.724L113.022 280.68L132.169 281.334L135.946 269.61C142.413 269.096 148.826 268.052 155.122 266.487L162.385 276.365L180.312 269.668L179.382 257.378C185.144 254.401 190.658 250.967 195.871 247.108L206.432 253.471L220.451 240.396L214.829 229.355C219.052 224.443 222.844 219.174 226.16 213.608L238.348 215.438L246.309 198.006L236.895 190.016C238.915 183.86 240.397 177.541 241.326 171.13L253.529 168.196ZM124.542 230.038C109.561 229.532 95.0674 224.594 82.8935 215.85C70.7196 207.105 61.4127 194.946 56.1501 180.911C50.8874 166.876 49.9055 151.596 53.3286 137.003C56.7516 122.41 64.4258 109.16 75.3803 98.9291C86.3349 88.6983 100.078 81.9461 114.87 79.5269C129.663 77.1076 144.841 79.1299 158.484 85.338C172.127 91.546 183.622 101.661 191.516 114.403C199.409 127.145 203.346 141.942 202.829 156.923C202.14 176.999 193.505 195.979 178.824 209.69C164.143 223.401 144.618 230.72 124.542 230.038Z" fill="#E7E8EC"/>
<path d="M580.29 105.062L585.099 100.573L583.196 96.7817C584.648 95.0827 585.955 93.2653 587.104 91.3485L591.317 91.9732L594.033 85.9589L590.808 83.2133C591.503 81.0868 592.013 78.9045 592.333 76.6905L596.474 75.6591L596.677 69.0638L592.638 67.7563C592.461 65.5226 592.102 63.3071 591.563 61.1319L594.977 58.5896L592.653 52.4156L588.426 52.7497C587.406 50.7584 586.225 48.8538 584.896 47.055L587.089 43.4232L582.571 38.6002L578.794 40.5323C577.092 39.0839 575.275 37.7769 573.361 36.6245L573.971 32.4116L567.971 29.6659L565.211 32.9055C563.081 32.2421 560.899 31.7562 558.688 31.4528L557.657 27.327L551.062 27.0801L549.74 31.1477C547.515 31.3178 545.308 31.6774 543.144 32.2227L540.617 28.8088L534.428 31.1186L534.777 35.3606C532.78 36.3701 530.874 37.5512 529.082 38.8907L525.421 36.6971L520.598 41.186L522.472 44.8905C521.01 46.5845 519.697 48.4024 518.55 50.3236L514.351 49.699L511.62 55.7132L514.86 58.4734C514.188 60.5967 513.702 62.7743 513.407 64.9816L509.252 66.013L509.049 72.6084L513.102 73.9158C513.267 76.15 513.622 78.3661 514.162 80.5402L510.734 83.068L513.058 89.2421L517.3 88.9225C518.32 90.9137 519.5 92.8183 520.83 94.6171L518.637 98.2489L523.155 103.072L526.932 101.14C528.63 102.593 530.447 103.9 532.365 105.048L531.74 109.246L537.755 111.992L540.515 108.767C542.647 109.423 544.828 109.909 547.038 110.219L548.069 114.345L554.664 114.592L555.986 110.524C558.211 110.355 560.418 109.996 562.582 109.449L565.109 112.863L571.298 110.553L570.964 106.312C572.955 105.301 574.856 104.12 576.644 102.781L580.29 105.062ZM545.977 77.2716C544.708 75.9123 543.872 74.2072 543.572 72.3721C543.273 70.537 543.524 68.6544 544.295 66.9623C545.066 65.2703 546.321 63.8448 547.902 62.8664C549.484 61.8879 551.319 61.4004 553.178 61.4654C555.036 61.5305 556.833 62.1452 558.342 63.2319C559.85 64.3185 561.003 65.8282 561.654 67.57C562.304 69.3119 562.424 71.2075 561.997 73.0172C561.57 74.8268 560.615 76.4692 559.255 77.7365C558.352 78.5879 557.289 79.2517 556.128 79.6896C554.967 80.1274 553.73 80.3306 552.49 80.2874C551.25 80.2442 550.03 79.9554 548.902 79.4377C547.774 78.92 546.76 78.1838 545.919 77.2716H545.977Z" fill="#E7E8EC"/>
<path d="M404.511 301.063L389.49 290.676C388.017 285.268 385.992 280.025 383.446 275.031L387.296 259.922L365.505 236.592L350.165 239.395C345.352 236.512 340.255 234.131 334.955 232.292L325.628 216.588L293.668 215.498L283.296 230.519C277.893 231.991 272.656 234.011 267.665 236.548L252.556 232.698L229.225 254.489L232.029 269.801C229.148 274.623 226.773 279.73 224.94 285.04L209.236 294.366L208.146 326.326L223.182 336.699C224.63 342.137 226.651 347.406 229.211 352.417L225.318 367.395L247.108 390.725L262.348 387.936C267.196 390.823 272.327 393.208 277.659 395.055L286.971 410.729L318.931 411.833L329.289 396.812C334.74 395.34 340.026 393.315 345.066 390.769L360.087 394.604L383.432 372.813L380.628 357.502C383.518 352.679 385.894 347.566 387.717 342.248L403.421 332.922L404.511 301.063ZM305.072 349.57C297.977 349.327 291.113 346.986 285.349 342.843C279.584 338.7 275.177 332.941 272.685 326.293C270.194 319.645 269.729 312.408 271.35 305.497C272.971 298.585 276.605 292.309 281.793 287.463C286.981 282.617 293.489 279.417 300.494 278.27C307.5 277.122 314.689 278.077 321.152 281.014C327.615 283.952 333.062 288.74 336.804 294.773C340.546 300.806 342.415 307.813 342.175 314.908C341.841 324.424 337.745 333.418 330.786 339.917C323.827 346.416 314.574 349.887 305.058 349.57H305.072Z" fill="#E7E8EC"/>
<path d="M438.204 205H438.109L414.666 204.202C414.191 204.193 413.727 204.065 413.315 203.828C412.903 203.592 412.558 203.255 412.311 202.85L405.99 192.232C402.583 190.987 399.287 189.458 396.137 187.661L386.026 189.405C385.555 189.492 385.07 189.457 384.615 189.306C384.161 189.155 383.752 188.891 383.427 188.54L367.415 171.417C367.079 171.062 366.84 170.627 366.722 170.153C366.603 169.679 366.609 169.183 366.739 168.712L369.297 158.69C367.712 155.442 366.416 152.061 365.426 148.586L355.234 141.553C354.838 141.282 354.518 140.916 354.303 140.488C354.088 140.06 353.984 139.584 354.002 139.105L354.801 115.68C354.816 115.207 354.948 114.745 355.184 114.335C355.42 113.924 355.753 113.578 356.154 113.326L366.806 107.01C368.035 103.614 369.561 100.332 371.368 97.2043L369.5 87.0199C369.412 86.5471 369.446 86.0599 369.597 85.6035C369.749 85.1472 370.013 84.7365 370.366 84.4095L387.501 68.4227C387.856 68.0857 388.291 67.8453 388.765 67.7245C389.239 67.6037 389.736 67.6066 390.208 67.7329L400.279 70.3027C403.52 68.7182 406.894 67.4193 410.362 66.421L417.4 56.2366C417.662 55.832 418.027 55.5046 418.458 55.2883C418.889 55.0719 419.369 54.9744 419.85 55.0058L443.28 55.8173C443.756 55.8274 444.222 55.9564 444.636 56.1926C445.05 56.4289 445.398 56.7648 445.648 57.1698L451.969 67.8006C455.352 69.0415 458.621 70.571 461.741 72.3721L471.974 70.4921C472.445 70.4046 472.931 70.4382 473.385 70.5896C473.84 70.741 474.248 71.0053 474.573 71.3577L490.585 88.4806C490.919 88.8367 491.156 89.272 491.274 89.7453C491.393 90.2187 491.388 90.7144 491.261 91.1856L488.69 101.235C490.275 104.476 491.58 107.847 492.588 111.311L502.766 118.344C503.162 118.615 503.482 118.982 503.697 119.41C503.912 119.838 504.016 120.313 503.998 120.792L503.199 144.204C503.183 144.679 503.052 145.143 502.816 145.555C502.58 145.968 502.247 146.316 501.846 146.571L491.194 152.887C489.957 156.276 488.431 159.552 486.632 162.68L488.5 172.878C488.588 173.348 488.554 173.834 488.403 174.288C488.251 174.742 487.987 175.15 487.634 175.475L470.39 191.475C470.035 191.811 469.6 192.049 469.126 192.168C468.651 192.286 468.155 192.28 467.683 192.151L457.667 189.595C454.404 191.172 451.012 192.471 447.53 193.477L440.559 203.647C440.308 204.049 439.962 204.382 439.551 204.618C439.14 204.854 438.677 204.985 438.204 205ZM416.426 198.548L436.729 199.238L443.496 189.514C443.871 188.946 444.446 188.54 445.107 188.378C448.916 187.337 452.611 185.919 456.138 184.144C456.753 183.848 457.452 183.776 458.114 183.941L467.589 186.362L482.477 172.499L480.772 162.72C480.64 162.037 480.765 161.329 481.124 160.732C483.134 157.383 484.79 153.834 486.064 150.142C486.279 149.473 486.732 148.905 487.336 148.546L497.528 142.514L498.219 122.226L488.473 115.463C487.96 115.113 487.575 114.605 487.377 114.016C487.377 113.948 487.377 113.867 487.377 113.786C486.334 110.048 484.919 106.423 483.154 102.966C482.841 102.347 482.764 101.636 482.937 100.964L485.374 91.3885L471.5 76.5108L461.768 78.2961C461.089 78.4192 460.388 78.2944 459.792 77.9445C456.434 75.9316 452.879 74.2683 449.181 72.9807C448.969 72.9128 448.764 72.8221 448.572 72.7102C448.182 72.467 447.857 72.1328 447.624 71.7364L441.52 61.5249L421.217 60.8216L414.45 70.5732C414.046 71.1449 413.451 71.5529 412.771 71.7229C409.002 72.7522 405.347 74.1616 401.862 75.9292C401.248 76.2424 400.54 76.3194 399.872 76.1456L390.29 73.7111L375.401 87.5744L377.188 97.2719C377.294 97.8837 377.204 98.5132 376.93 99.0708L376.795 99.3007C374.782 102.663 373.126 106.226 371.855 109.932C371.631 110.567 371.19 111.103 370.61 111.446L360.418 117.492L359.727 137.78L369.486 144.542C370.043 144.923 370.446 145.489 370.623 146.138C371.638 149.936 373.049 153.617 374.833 157.121C374.929 157.32 375.006 157.529 375.063 157.743C375.165 158.188 375.165 158.65 375.063 159.096L372.626 168.563L386.5 183.441L396.164 181.669C396.839 181.546 397.536 181.671 398.126 182.021C401.51 184.03 405.088 185.693 408.806 186.984C409.476 187.183 410.044 187.634 410.389 188.242L416.426 198.548ZM428.973 172.891C428.472 172.891 427.971 172.891 427.471 172.891C416.219 172.693 405.501 168.062 397.649 160.007C389.798 151.951 385.448 141.122 385.547 129.878C385.646 118.633 390.186 107.882 398.178 99.966C406.17 92.0496 416.968 87.608 428.222 87.608C439.475 87.608 450.273 92.0496 458.265 99.966C466.257 107.882 470.797 118.633 470.896 129.878C470.995 141.122 466.646 151.951 458.794 160.007C450.943 168.062 440.225 172.693 428.973 172.891ZM428.973 92.9709C419.14 93.1404 409.773 97.1842 402.91 104.222C396.046 111.26 392.243 120.722 392.328 130.549C392.413 140.375 396.379 149.77 403.362 156.689C410.346 163.607 419.782 167.489 429.616 167.489C439.45 167.489 448.886 163.607 455.869 156.689C462.853 149.77 466.819 140.375 466.904 130.549C466.988 120.722 463.185 111.26 456.322 104.222C449.459 97.1842 440.091 93.1404 430.259 92.9709H428.973Z" fill="#E7E8EC"/>
<path d="M496.671 29.3753L486.24 26.5861L483.451 16.1555L487.533 12.0879L491.833 20.9931L500.753 25.3077L496.671 29.3753Z" fill="#E7E8EC"/>
<path d="M497.313 22.4021C497.764 21.9509 498.122 21.4153 498.366 20.8258C498.61 20.2363 498.736 19.6045 498.736 18.9664C498.736 18.3284 498.61 17.6965 498.366 17.107C498.122 16.5175 497.764 15.9819 497.313 15.5307C496.862 15.0796 496.326 14.7217 495.736 14.4775C495.147 14.2333 494.515 14.1076 493.877 14.1076C493.239 14.1076 492.607 14.2333 492.018 14.4775C491.428 14.7217 490.893 15.0796 490.441 15.5307L495.628 7.74414L502.572 11.2597L504.097 18.5233L497.313 22.4021Z" fill="#E7E8EC"/>
<path d="M486.705 12.9304L494.346 5.28906L504.748 8.06377L507.552 18.4798L499.91 26.1211L489.494 23.3174L486.705 12.9304ZM500.579 19.1771C501.259 18.4963 501.722 17.6291 501.909 16.6852C502.096 15.7413 502 14.7631 501.631 13.8741C501.263 12.9851 500.639 12.2254 499.839 11.6908C499.039 11.1563 498.098 10.871 497.136 10.871C496.173 10.871 495.233 11.1563 494.432 11.6908C493.632 12.2254 493.008 12.9851 492.64 13.8741C492.271 14.7631 492.175 15.7413 492.362 16.6852C492.55 17.6291 493.013 18.4963 493.693 19.1771C494.613 20.0799 495.852 20.5832 497.142 20.5778C498.431 20.5723 499.666 20.0586 500.579 19.148V19.1771Z" fill="#F0F0F0"/>
<path d="M70.7053 307.412L76.2983 305.901L77.7946 300.308L75.6155 298.129L73.3057 302.908L68.5117 305.218L70.7053 307.412Z" fill="#E7E8EC"/>
<path d="M70.385 303.664C69.9479 303.165 69.7169 302.518 69.7389 301.855C69.7609 301.192 70.0341 300.562 70.5033 300.092C70.9725 299.623 71.6026 299.35 72.2657 299.328C72.9289 299.306 73.5757 299.537 74.0749 299.974L71.3002 295.805L67.4795 297.664L66.666 301.587L70.385 303.664Z" fill="#E7E8EC"/>
<path d="M76.0486 298.563L71.952 294.467L66.359 295.92L64.9062 301.513L68.9303 305.653L74.5233 304.2L76.0486 298.563ZM68.6107 301.919C68.3414 301.683 68.1233 301.395 67.9701 301.071C67.8168 300.748 67.7316 300.396 67.7198 300.039C67.7079 299.681 67.7696 299.324 67.9011 298.991C68.0326 298.658 68.2311 298.356 68.4842 298.103C68.7374 297.85 69.0398 297.651 69.3727 297.52C69.7057 297.388 70.0621 297.327 70.4198 297.338C70.7776 297.35 71.1292 297.435 71.4527 297.589C71.7762 297.742 72.0648 297.96 72.3006 298.229C72.7377 298.729 72.9687 299.375 72.9467 300.039C72.9247 300.702 72.6515 301.332 72.1823 301.801C71.7131 302.27 71.083 302.543 70.4198 302.565C69.7567 302.587 69.1099 302.356 68.6107 301.919Z" fill="#F0F0F0"/>
<path d="M302.823 503.507C380.61 503.507 451.037 501.666 502.021 498.689C527.512 497.201 548.152 495.428 562.424 493.458C569.557 492.474 575.119 491.437 578.906 490.357C580.795 489.818 582.272 489.26 583.286 488.677C583.793 488.385 584.208 488.074 584.502 487.736C584.798 487.395 584.991 487.001 584.991 486.562C584.991 486.123 584.798 485.729 584.502 485.388C584.208 485.05 583.793 484.739 583.286 484.447C582.272 483.864 580.795 483.306 578.906 482.767C575.119 481.687 569.557 480.65 562.424 479.666C548.152 477.695 527.512 475.923 502.021 474.435C451.037 471.458 380.61 469.617 302.823 469.617C225.036 469.617 154.608 471.458 103.624 474.435C78.1336 475.923 57.4935 477.695 43.2208 479.666C36.0878 480.65 30.5262 481.687 26.7396 482.767C24.8502 483.306 23.3736 483.864 22.3593 484.447C21.8523 484.739 21.4368 485.05 21.1432 485.388C20.8468 485.729 20.6543 486.123 20.6543 486.562C20.6543 487.001 20.8468 487.395 21.1432 487.736C21.4368 488.074 21.8523 488.385 22.3593 488.677C23.3736 489.26 24.8502 489.818 26.7396 490.357C30.5262 491.437 36.0878 492.474 43.2208 493.458C57.4935 495.428 78.1336 497.201 103.624 498.689C154.608 501.666 225.036 503.507 302.823 503.507Z" fill="#F5F5F5" stroke="#182F43"/>
<path d="M61.7574 49.4368C60.3046 43.0303 60.9438 37.6552 63.704 33.268C66.4642 28.8808 70.9676 26.0044 77.3741 24.5517C83.7806 23.0989 89.3155 23.68 93.6446 26.3821C97.9737 29.0842 100.908 33.6457 102.361 39.8924C103.387 43.748 103.471 47.7934 102.608 51.6885C101.763 54.9234 99.9788 57.8353 97.4798 60.0562C94.5116 62.5551 90.9491 64.2463 87.1364 64.9664C83.399 65.9587 79.4855 66.0928 75.689 65.3586C72.3888 64.5566 69.4039 62.7859 67.1179 60.2741C64.3869 57.2109 62.5347 53.4664 61.7574 49.4368ZM73.8731 46.7347C74.7738 50.6861 76.1538 53.3591 78.0133 54.7538C78.9732 55.3938 80.0526 55.8331 81.1866 56.0453C82.3206 56.2574 83.4858 56.2381 84.6121 55.9884C85.7384 55.7387 86.8027 55.2638 87.7407 54.5923C88.6788 53.9208 89.4715 53.0665 90.0709 52.0808C91.1169 50.0615 91.1314 46.851 90.1436 42.4783C89.301 38.7883 87.9403 36.2606 86.0614 34.895C85.1155 34.2161 84.0293 33.7579 82.8829 33.5543C81.7364 33.3506 80.5589 33.4067 79.437 33.7183C78.3141 33.9286 77.2535 34.3909 76.3351 35.0703C75.4167 35.7497 74.6643 36.6285 74.1346 37.6407C73.0595 39.7762 72.9579 42.6816 73.8731 46.7347Z" fill="#FFC100"/>
<path d="M108.056 44.6423C107.54 42.6626 107.448 40.5961 107.786 38.5783C108.123 36.5606 108.884 34.6369 110.017 32.9334C111.287 31.1235 112.902 29.5823 114.769 28.3981C116.636 27.214 118.719 26.4102 120.898 26.0329C126.583 24.7449 131.251 25.4179 134.902 28.0522C137.975 30.4342 140.064 33.8634 140.771 37.6864C141.478 41.5094 140.754 45.4589 138.737 48.7826C136.471 52.24 132.781 54.545 127.667 55.6975C123.728 56.7989 119.525 56.459 115.813 54.7387C113.829 53.7688 112.095 52.3525 110.75 50.6009C109.404 48.8493 108.482 46.8098 108.056 44.6423ZM118.966 42.1291C119.259 44.1591 120.251 46.0236 121.769 47.4025C122.371 47.8581 123.065 48.1772 123.803 48.3376C124.541 48.498 125.304 48.4959 126.041 48.3314C126.778 48.1669 127.47 47.8439 128.07 47.385C128.669 46.9261 129.161 46.3421 129.512 45.6737C130.273 43.7224 130.345 41.5699 129.716 39.5723C129.41 37.5899 128.43 35.7736 126.941 34.4297C126.363 33.9612 125.685 33.6323 124.959 33.4685C124.234 33.3047 123.48 33.3105 122.757 33.4854C122.003 33.6416 121.295 33.9674 120.686 34.4381C120.077 34.9088 119.583 35.512 119.242 36.202C118.459 38.0846 118.362 40.1819 118.966 42.1291Z" fill="#FFC100"/>
<path d="M151.624 60.9423L142.719 21.7187L152.888 19.3944L153.847 23.5928C154.564 21.9184 155.606 20.4027 156.912 19.1329C158.345 17.9163 160.057 17.0729 161.895 16.6778C163.593 16.2158 165.38 16.1893 167.092 16.6006C168.803 17.0119 170.383 17.8479 171.686 19.0312C174.557 21.7152 176.505 25.2394 177.25 29.0986C178.325 33.8199 178.005 37.6842 176.32 40.7204C175.519 42.172 174.411 43.432 173.074 44.4128C171.737 45.3936 170.203 46.0719 168.577 46.4005C167.011 46.7718 165.388 46.8359 163.798 46.5894C162.272 46.3221 160.819 45.7436 159.527 44.8897L162.607 58.4436L151.624 60.9423ZM156.868 33.5439C157.135 35.3583 158.042 37.0174 159.425 38.2217C159.98 38.6463 160.623 38.9401 161.308 39.081C161.992 39.2219 162.699 39.2062 163.376 39.0352C164.006 38.9091 164.596 38.637 165.101 38.2408C165.605 37.8447 166.01 37.3355 166.282 36.7544C166.9 34.9363 166.9 32.9651 166.282 31.1469C166.016 29.3234 165.141 27.6438 163.798 26.382C163.3 25.9682 162.713 25.6745 162.083 25.5233C161.454 25.3722 160.798 25.3678 160.166 25.5104C159.498 25.6544 158.872 25.9475 158.334 26.3676C157.796 26.7877 157.359 27.324 157.057 27.9364C156.346 29.7271 156.279 31.7094 156.868 33.5439Z" fill="#FFC100"/>
<path d="M181.914 34.4012L192.49 30.9292C193.052 31.9516 193.928 32.7663 194.988 33.2535C196.129 33.584 197.337 33.6104 198.491 33.33C199.646 33.0497 200.707 32.4725 201.569 31.6555C201.81 31.3992 201.985 31.0879 202.079 30.7487C202.172 30.4095 202.182 30.0526 202.107 29.7089C202.019 29.3156 201.816 28.9574 201.524 28.6804C201.231 28.4034 200.863 28.2202 200.465 28.1545C198.824 27.9743 197.167 27.9743 195.526 28.1545C192.771 28.3888 190 28.3888 187.245 28.1545C185.632 27.9204 184.12 27.2298 182.887 26.1642C181.572 25.0257 180.663 23.4895 180.299 21.7883C179.934 20.0871 180.134 18.3135 180.868 16.7361C181.715 15.0481 183.032 13.6407 184.659 12.683C186.977 11.3665 189.494 10.439 192.112 9.93733C194.61 9.25919 197.194 8.94603 199.782 9.00759C201.408 9.11224 202.983 9.61082 204.373 10.4603C205.854 11.4592 207.11 12.7554 208.063 14.2664L197.894 17.6222C197.514 16.8653 196.882 16.2644 196.107 15.9226C195.047 15.5435 193.898 15.4928 192.809 15.7773C191.847 15.9114 190.955 16.355 190.267 17.0411C190.048 17.275 189.891 17.5588 189.807 17.8677C189.723 18.1767 189.717 18.5014 189.788 18.8135C189.866 19.157 190.047 19.4686 190.306 19.7072C190.566 19.9457 190.891 20.1001 191.24 20.15C192.864 20.3385 194.507 20.3042 196.121 20.0483C198.923 19.6423 201.765 19.6032 204.576 19.9321C206.345 20.1818 208.001 20.9445 209.341 22.1257C210.553 23.2242 211.395 24.6702 211.753 26.2659C212.125 27.977 211.988 29.7595 211.36 31.394C210.592 33.3292 209.255 34.9856 207.525 36.1444C204.977 37.8101 202.123 38.951 199.129 39.5002C193.947 40.6818 190.073 40.7835 187.507 39.8053C185.006 38.8067 182.998 36.8661 181.914 34.4012Z" fill="#FFC100"/>
<path d="M218.568 0.220703H230.495V9.37286L228.302 27.7788H220.922L218.568 9.40191V0.220703ZM219.149 30.5535H230.277V40.403H219.149V30.5535Z" fill="#FFC100"/>
<path d="M65.6187 51.6438C64.166 45.2373 64.8052 39.8622 67.5653 35.475C70.3255 31.0878 74.829 28.2114 81.2355 26.7587C87.642 25.306 93.1768 25.8871 97.5059 28.5891C101.835 31.2912 104.77 35.8527 106.222 42.0994C107.248 45.955 107.333 50.0005 106.469 53.8955C105.625 57.1304 103.84 60.0423 101.341 62.2632C98.3729 64.7622 94.8104 66.4534 90.9978 67.1734C87.2603 68.1657 83.3469 68.2998 79.5503 67.5657C76.2501 66.7636 73.2652 64.9929 70.9792 62.4811C68.2482 59.4179 66.396 55.6734 65.6187 51.6438ZM77.7344 48.9418C78.6351 52.8932 80.0152 55.5662 81.8747 56.9608C82.8345 57.6008 83.9139 58.0401 85.0479 58.2523C86.1819 58.4645 87.3471 58.4451 88.4734 58.1954C89.5998 57.9457 90.664 57.4708 91.6021 56.7993C92.5402 56.1278 93.3328 55.2735 93.9322 54.2878C94.9782 52.2685 94.9927 49.058 94.0049 44.6853C93.1623 40.9954 91.8016 38.4676 89.9227 37.1021C88.9768 36.4231 87.8906 35.965 86.7442 35.7613C85.5977 35.5577 84.4202 35.6137 83.2983 35.9254C82.1754 36.1357 81.1149 36.5979 80.1964 37.2773C79.278 37.9567 78.5256 38.8355 77.9959 39.8477C76.9209 41.9832 76.8192 44.8887 77.7344 48.9418Z" fill="#182F43"/>
<path d="M111.917 46.8513C111.401 44.8715 111.309 42.8051 111.647 40.7873C111.985 38.7695 112.745 36.8459 113.878 35.1424C115.148 33.3325 116.763 31.7913 118.63 30.6071C120.498 29.4229 122.58 28.6192 124.759 28.2419C130.444 26.9538 135.112 27.6269 138.763 30.2612C141.836 32.6432 143.925 36.0724 144.632 39.8954C145.34 43.7183 144.616 47.6679 142.598 50.9915C140.332 54.449 136.642 56.754 131.529 57.9065C127.589 59.0079 123.386 58.6679 119.674 56.9477C117.69 55.9778 115.957 54.5615 114.611 52.8099C113.265 51.0582 112.343 49.0188 111.917 46.8513ZM122.827 44.3381C123.121 46.3681 124.112 48.2326 125.631 49.6115C126.233 50.0671 126.927 50.3862 127.664 50.5466C128.402 50.707 129.166 50.7049 129.903 50.5404C130.639 50.3759 131.331 50.0529 131.931 49.594C132.53 49.135 133.023 48.5511 133.374 47.8827C134.134 45.9314 134.206 43.7789 133.577 41.7813C133.271 39.7989 132.291 37.9825 130.802 36.6387C130.225 36.1702 129.546 35.8413 128.821 35.6775C128.095 35.5137 127.342 35.5195 126.619 35.6944C125.865 35.8506 125.156 36.1764 124.547 36.6471C123.938 37.1178 123.444 37.721 123.103 38.411C122.321 40.2936 122.223 42.3909 122.827 44.3381Z" fill="#182F43"/>
<path d="M155.485 63.1512L146.58 23.9277L156.749 21.6034L157.708 25.8017C158.425 24.1274 159.467 22.6116 160.773 21.3419C162.206 20.1253 163.918 19.2819 165.756 18.8868C167.454 18.4248 169.242 18.3982 170.953 18.8096C172.664 19.2209 174.244 20.0568 175.547 21.2402C178.419 23.9242 180.366 27.4484 181.111 31.3076C182.186 36.0289 181.867 39.8932 180.182 42.9293C179.38 44.381 178.272 45.6409 176.935 46.6218C175.598 47.6026 174.064 48.2809 172.439 48.6095C170.873 48.9808 169.249 49.0449 167.659 48.7983C166.134 48.5311 164.68 47.9525 163.388 47.0986L166.468 60.6525L155.485 63.1512ZM160.73 35.7529C160.996 37.5673 161.903 39.2264 163.286 40.4307C163.841 40.8553 164.485 41.1491 165.169 41.29C165.853 41.4308 166.56 41.4152 167.238 41.2442C167.867 41.1181 168.457 40.846 168.962 40.4498C169.467 40.0537 169.871 39.5445 170.143 38.9634C170.761 37.1453 170.761 35.174 170.143 33.3559C169.878 31.5324 169.002 29.8528 167.659 28.591C167.161 28.1772 166.574 27.8834 165.945 27.7323C165.315 27.5812 164.659 27.5767 164.027 27.7193C163.36 27.8634 162.734 28.1565 162.195 28.5765C161.657 28.9966 161.22 29.5329 160.918 30.1454C160.207 31.9361 160.141 33.9184 160.73 35.7529Z" fill="#182F43"/>
<path d="M185.775 36.6102L196.351 33.1382C196.913 34.1606 197.789 34.9753 198.85 35.4625C199.991 35.793 201.198 35.8193 202.353 35.539C203.507 35.2587 204.568 34.6815 205.43 33.8645C205.672 33.6082 205.846 33.2969 205.94 32.9577C206.034 32.6185 206.043 32.2616 205.968 31.9179C205.881 31.5246 205.678 31.1664 205.385 30.8894C205.093 30.6124 204.724 30.4292 204.326 30.3635C202.685 30.1833 201.029 30.1833 199.387 30.3635C196.632 30.5978 193.862 30.5978 191.107 30.3635C189.494 30.1294 187.982 29.4388 186.748 28.3732C185.433 27.2346 184.524 25.6985 184.16 23.9973C183.796 22.2961 183.995 20.5225 184.729 18.9451C185.576 17.2571 186.893 15.8497 188.521 14.892C190.838 13.5755 193.356 12.648 195.973 12.1463C198.472 11.4682 201.055 11.155 203.644 11.2166C205.269 11.3212 206.845 11.8198 208.234 12.6693C209.715 13.6682 210.972 14.9644 211.924 16.4754L201.755 19.8312C201.375 19.0743 200.743 18.4734 199.968 18.1315C198.909 17.7525 197.759 17.7018 196.671 17.9863C195.708 18.1204 194.816 18.564 194.128 19.2501C193.91 19.484 193.752 19.7678 193.668 20.0767C193.585 20.3857 193.578 20.7103 193.649 21.0225C193.728 21.366 193.908 21.6775 194.168 21.9161C194.427 22.1547 194.753 22.3091 195.102 22.359C196.726 22.5474 198.368 22.5132 199.983 22.2573C202.784 21.8513 205.626 21.8122 208.438 22.141C210.206 22.3908 211.863 23.1535 213.202 24.3347C214.414 25.4332 215.256 26.8792 215.614 28.4749C215.986 30.186 215.85 31.9685 215.222 33.603C214.454 35.5382 213.116 37.1946 211.387 38.3534C208.839 40.0191 205.984 41.16 202.99 41.7092C197.808 42.8908 193.935 42.9924 191.368 42.0143C188.867 41.0157 186.859 39.075 185.775 36.6102Z" fill="#182F43"/>
<path d="M221.248 0.683594H233.175V9.83575L230.981 28.2417H223.601L221.248 9.8648V0.683594ZM221.829 31.0164H232.957V40.8659H221.829V31.0164Z" fill="#182F43"/>
<path d="M126.576 125.633H126.314C119.777 123.09 115.869 120.621 113.835 117.643C112.243 117.944 110.596 117.72 109.143 117.003C107.441 116.17 106.028 114.844 105.09 113.197C104.597 113.576 104.016 113.824 103.401 113.918C102.787 114.012 102.158 113.949 101.574 113.735C99.784 113.065 98.2562 111.838 97.2162 110.234C96.5656 110.718 95.7569 110.941 94.9499 110.858C90.5917 110.51 84.7809 101.91 84.3596 92.7575C84.3553 92.5644 84.4252 92.3769 84.5549 92.2337C84.6846 92.0905 84.8642 92.0024 85.0569 91.9876C85.1523 91.9837 85.2475 91.9987 85.3371 92.0316C85.4267 92.0645 85.509 92.1148 85.5792 92.1796C85.6493 92.2444 85.706 92.3223 85.746 92.409C85.786 92.4957 85.8085 92.5895 85.8123 92.6849C86.219 101.401 91.783 109.144 95.0806 109.406C95.3206 109.433 95.5635 109.412 95.7953 109.345C96.0272 109.277 96.2435 109.165 96.4317 109.013C95.2955 106.942 94.582 104.666 94.3327 102.317C94.0833 99.9677 94.303 97.5924 94.979 95.3288C96.2283 90.9707 97.3324 89.2565 98.6689 89.518C101.168 90.1426 100.833 99.687 99.5115 105.919C99.3111 107.043 98.8969 108.118 98.2912 109.086C99.1476 110.522 100.44 111.647 101.981 112.297C102.392 112.453 102.839 112.488 103.269 112.398C103.699 112.308 104.094 112.096 104.407 111.788C103.274 108.984 102.954 105.149 104.581 100.268C106.615 93.8325 107.487 93.6582 107.937 93.542C108.107 93.5064 108.282 93.5173 108.446 93.5736C108.61 93.6298 108.755 93.7294 108.867 93.8616C110.218 95.387 108.605 105.382 106.92 110.321C106.723 110.915 106.45 111.482 106.107 112.006C106.886 113.577 108.156 114.852 109.724 115.638C110.753 116.138 111.896 116.354 113.036 116.263C112.906 115.987 112.789 115.711 112.673 115.42C111.525 112.297 112.092 108.708 114.402 104.408C115.927 101.576 117.177 100.239 118.339 100.239C118.647 100.243 118.948 100.336 119.206 100.506C119.463 100.676 119.666 100.916 119.791 101.198C121.055 103.537 120.14 111.251 117.641 115.086C117.056 115.965 116.243 116.668 115.288 117.12C117.235 119.676 120.939 121.928 126.91 124.223C126.999 124.256 127.081 124.306 127.151 124.37C127.221 124.435 127.278 124.513 127.317 124.599C127.356 124.686 127.378 124.78 127.38 124.875C127.382 124.97 127.366 125.065 127.331 125.153C127.275 125.305 127.17 125.433 127.034 125.52C126.898 125.606 126.737 125.646 126.576 125.633ZM118.324 101.706C118.324 101.706 117.496 101.706 115.666 105.12C113.559 109.013 113.022 112.224 114.024 114.926C114.146 115.261 114.291 115.586 114.46 115.899C115.247 115.574 115.916 115.017 116.378 114.301C118.411 111.193 119.385 104.801 118.629 102.302C118.528 101.793 118.324 101.706 118.324 101.706ZM107.894 95.5903C107.107 97.2443 106.456 98.9593 105.947 100.718C104.833 103.767 104.641 107.077 105.395 110.234L105.526 109.856C107.051 105.251 107.864 100.441 107.937 95.5903H107.894ZM98.3347 91.0143C98.0878 91.2322 97.3759 92.1474 96.3736 95.692C95.188 99.6701 95.562 103.95 97.4195 107.662C97.7176 107.013 97.9371 106.33 98.0733 105.629C99.6277 98.4958 99.1918 92.0457 98.3783 91.0143H98.3347Z" fill="#182F43"/>
<path d="M181.808 201.784C179.485 201.806 177.199 201.209 175.183 200.055C175.017 199.955 174.897 199.794 174.848 199.607C174.799 199.42 174.826 199.221 174.922 199.052C174.97 198.97 175.033 198.899 175.109 198.842C175.185 198.785 175.272 198.744 175.364 198.721C175.456 198.698 175.551 198.694 175.645 198.708C175.739 198.723 175.829 198.756 175.91 198.805C181.096 201.842 187.793 199.721 189.173 197.498C189.273 197.359 189.343 197.201 189.381 197.033C189.418 196.866 189.422 196.693 189.391 196.525C186.739 196.677 184.113 195.93 181.938 194.404C178.234 192.094 177.943 191.397 177.972 190.845C177.98 190.686 178.029 190.532 178.116 190.399C178.203 190.266 178.324 190.159 178.466 190.089C179.919 189.363 186.471 192.37 189.202 194.171C189.529 194.389 189.832 194.642 190.103 194.927C191.176 194.683 192.143 194.103 192.863 193.271C193.268 192.795 193.561 192.233 193.72 191.629H193.429C191.105 191.861 188.781 190.859 186.297 188.564C184.582 186.995 183.929 185.905 184.147 185.048C184.213 184.807 184.346 184.59 184.531 184.423C184.717 184.256 184.946 184.145 185.193 184.104C187.197 183.595 192.166 185.716 194.185 187.939C194.635 188.422 194.955 189.012 195.115 189.653C197.018 188.767 199.022 186.748 201.39 183.45C201.445 183.372 201.515 183.305 201.597 183.253C201.678 183.202 201.768 183.167 201.862 183.151C201.957 183.135 202.054 183.138 202.147 183.159C202.241 183.18 202.329 183.22 202.407 183.276C202.563 183.389 202.668 183.559 202.701 183.749C202.733 183.939 202.69 184.134 202.582 184.293C199.836 188.128 197.541 190.307 195.245 191.193C195.126 192.267 194.686 193.28 193.981 194.099C193.144 195.071 192.045 195.782 190.815 196.147C190.884 196.494 190.883 196.851 190.814 197.197C190.744 197.544 190.606 197.873 190.408 198.166C189.187 200.244 185.672 201.784 181.808 201.784ZM180.515 191.702C181.009 192.065 181.706 192.544 182.708 193.154C184.27 194.208 186.065 194.866 187.938 195.072C185.6 193.67 183.109 192.539 180.515 191.702ZM185.585 185.528C186.002 186.313 186.581 187.002 187.284 187.547C189.434 189.537 191.396 190.452 193.284 190.22H193.749C193.646 189.769 193.425 189.353 193.11 189.014C191.076 186.719 186.602 185.295 185.585 185.528Z" fill="#182F43"/>
<path d="M207.083 238.3L185.435 242.233L184.45 242.412L184.63 243.397L190.697 276.522L148.995 284.124L142.929 250.997L142.749 250.015L141.766 250.193L51.445 266.591L44.0488 226.221L114.824 100.558L157.049 92.8889L177.425 204.086L177.605 205.068L178.587 204.89L200.238 200.957L207.083 238.3ZM85.6259 220.175L84.5635 222.037L86.6729 221.654L134.976 212.894L135.962 212.715L135.781 211.73L125.249 154.289L124.755 151.594L123.397 153.974L85.6259 220.175Z" fill="#AA4337" stroke="#182F43" stroke-width="2"/>
<path d="M382.349 84.2102L382.35 84.2174L382.351 84.2246C384.037 99.2676 383.891 114.46 381.917 129.468L381.917 129.471C377.461 164.247 368.394 188.735 354.868 203.148C341.43 217.467 320.712 222.928 292.432 219.242L292.431 219.242C276.518 217.181 264.102 212.962 255.109 206.647C245.98 200.197 238.746 191.418 234.161 181.224L234.157 181.214L234.152 181.204C230.564 173.676 228.266 163.676 227.303 151.157C226.39 137.49 226.875 123.765 228.748 110.196L228.75 110.187C233.459 73.7509 243.202 49.3733 257.759 36.7248C272.319 24.0732 292.712 19.3678 319.121 22.812L319.121 22.8121C331.853 24.4686 341.995 27.4024 349.596 31.5733L349.606 31.5786L349.615 31.5836C356.607 35.2223 362.778 40.256 367.748 46.3738C371.952 51.6414 375.327 57.5195 377.759 63.8051C380.128 70.3904 381.67 77.2446 382.349 84.2102Z" fill="#AA4337" stroke="#182F43" stroke-width="2"/>
<path d="M305.392 205.312C301.891 205.196 298.128 204.876 294.336 204.382C281.029 202.654 270.744 199.283 263.742 194.373C256.759 189.442 251.238 182.717 247.762 174.907L247.689 174.747C244.9 168.936 243.07 160.583 242.271 150.051C241.424 137.399 241.872 124.695 243.607 112.135C248.794 71.8651 259.5 55.0571 267.563 48.055C276.976 39.8907 289.688 36.2008 306.394 36.7819C309.822 36.8981 313.454 37.2032 317.188 37.6826C327.909 39.1353 336.407 41.4597 342.422 44.7428C347.618 47.4191 352.219 51.1205 355.946 55.6237C359.207 59.6908 361.828 64.2321 363.718 69.0904C365.648 74.5078 366.898 80.1439 367.437 85.8694C368.987 99.7425 368.845 113.752 367.016 127.592C362.992 158.883 355.205 180.877 343.889 192.964C335.492 201.913 322.897 206.039 305.377 205.37L305.392 205.312Z" fill="#182F43"/>
<path d="M330.722 84.535L330.911 79.0292L327.526 77.9251C327.382 76.0629 327.08 74.2162 326.625 72.4048L329.531 70.2838L327.584 65.1121L324.039 65.4026C323.206 63.7405 322.234 62.1514 321.134 60.6522L322.964 57.587L319.187 53.5629L316.02 55.19C314.603 53.9717 313.087 52.8735 311.488 51.9068L311.996 48.3913L306.97 46.1105L304.675 48.8125C302.897 48.2365 301.075 47.8089 299.227 47.5341L298.37 44.0912L292.849 43.9023L291.76 47.2727C289.898 47.4216 288.052 47.7229 286.24 48.1734L284.104 45.2679L278.932 47.2L279.223 50.7447C277.561 51.5789 275.972 52.5508 274.473 53.6501L271.422 51.8052L267.383 55.5677L269.01 58.7492C267.789 60.1653 266.695 61.6869 265.742 63.2962L262.226 62.7587L259.931 67.7851L262.647 70.0804C262.058 71.859 261.63 73.6871 261.369 75.5426L257.912 76.4143L257.723 81.9056L261.108 83.0096C261.249 84.8769 261.551 86.7286 262.008 88.5445L259.103 90.6509L261.049 95.8226L264.594 95.5321C265.419 97.1989 266.392 98.7887 267.499 100.283L265.655 103.348L269.432 107.372L272.599 105.759C274.016 106.973 275.532 108.066 277.131 109.028L276.608 112.543L281.634 114.824L283.944 112.137C285.727 112.709 287.554 113.132 289.407 113.401L290.264 116.858L295.769 117.047L296.859 113.662C298.726 113.52 300.578 113.219 302.394 112.761L304.5 115.667L309.672 113.735L309.396 110.205C311.052 109.36 312.64 108.388 314.146 107.299L317.197 109.13L321.236 105.367L319.623 102.186C320.84 100.774 321.929 99.2575 322.877 97.6531L326.393 98.176L328.688 93.1496L325.986 90.8543C326.564 89.0784 326.987 87.2556 327.25 85.4066L330.722 84.535ZM293.532 102.36C289.23 102.203 285.07 100.774 281.578 98.2551C278.086 95.7359 275.419 92.2387 273.913 88.205C272.407 84.1713 272.13 79.7819 273.117 75.5908C274.103 71.3997 276.309 67.5948 279.456 64.6563C282.603 61.7179 286.55 59.7776 290.799 59.0804C295.048 58.3831 299.408 58.9602 303.329 60.7388C307.25 62.5173 310.557 65.4177 312.831 69.0737C315.105 72.7297 316.245 76.9775 316.108 81.2809C316.016 84.1493 315.358 86.9713 314.173 89.5849C312.987 92.1985 311.297 94.5522 309.199 96.5108C307.102 98.4694 304.638 99.9944 301.949 100.998C299.261 102.002 296.4 102.465 293.532 102.36Z" fill="#FFC100"/>
<path opacity="0.3" d="M348.344 180.573L348.629 177.971L347.064 177.34C347.062 176.455 346.987 175.571 346.841 174.697L348.253 173.793L347.532 171.282H345.846C345.512 170.465 345.108 169.679 344.637 168.933L345.592 167.551L343.967 165.518L342.413 166.168C341.783 165.545 341.104 164.974 340.381 164.46L340.757 162.814L338.472 161.553L337.273 162.763C336.457 162.426 335.615 162.158 334.754 161.96L334.47 160.303L331.88 160.008L331.24 161.573C330.358 161.577 329.478 161.659 328.609 161.817L327.705 160.374L325.197 161.116V162.803C324.381 163.141 323.596 163.549 322.851 164.023L321.469 163.007L319.438 164.633L320.088 166.189C319.469 166.819 318.901 167.499 318.392 168.222L316.746 167.856L315.497 170.143L316.695 171.332C316.355 172.151 316.086 172.998 315.893 173.864L314.227 174.138L313.953 176.731L315.507 177.381C315.508 178.261 315.586 179.138 315.741 180.004L314.309 180.909L315.04 183.42H316.736C317.075 184.232 317.483 185.015 317.955 185.758L316.939 187.14L318.564 189.173L320.139 188.513C320.764 189.138 321.444 189.706 322.17 190.21L321.815 191.888L324.1 193.138L325.288 191.949C326.105 192.277 326.948 192.539 327.807 192.731L328.102 194.399L330.692 194.683L331.321 193.128C332.22 193.127 333.117 193.052 334.003 192.904L334.907 194.338L337.405 193.606V191.918C338.222 191.575 339.01 191.167 339.762 190.698L341.123 191.715L343.154 190.078L342.494 188.523C343.12 187.892 343.694 187.212 344.21 186.49L345.846 186.856L347.105 184.568L345.907 183.389C346.233 182.571 346.495 181.728 346.689 180.868L348.344 180.573ZM335.272 179.557C334.843 180.344 334.189 180.985 333.395 181.401C332.601 181.816 331.701 181.986 330.81 181.89C329.919 181.793 329.077 181.435 328.39 180.859C327.702 180.283 327.201 179.516 326.95 178.655C326.698 177.794 326.707 176.878 326.976 176.023C327.245 175.167 327.761 174.41 328.459 173.848C329.158 173.286 330.007 172.944 330.9 172.866C331.793 172.787 332.689 172.975 333.475 173.406C334.525 173.986 335.304 174.958 335.641 176.11C335.978 177.263 335.845 178.502 335.272 179.557Z" fill="#828282"/>
<path d="M363.623 121.506L360.155 119.127C359.813 117.89 359.349 116.69 358.767 115.546L359.646 112.08L354.652 106.731L351.183 107.378C350.083 106.724 348.921 106.178 347.715 105.749L345.576 102.145L338.258 101.902L335.876 105.368C334.637 105.704 333.435 106.169 332.292 106.754L328.824 105.865L323.471 110.867L324.119 114.333C323.454 115.427 322.908 116.589 322.489 117.798L318.893 119.935L318.639 127.248L322.107 129.628C322.443 130.874 322.908 132.082 323.494 133.232L322.616 136.698L327.61 142.046L331.078 141.411C332.179 142.065 333.341 142.61 334.547 143.04L336.674 146.633L344.004 146.887L346.374 143.421C347.624 143.082 348.836 142.618 349.992 142.035L353.461 142.913L358.814 137.922L358.178 134.457C358.835 133.358 359.381 132.197 359.808 130.991L363.403 128.854L363.623 121.506ZM340.813 132.62C339.186 132.564 337.612 132.027 336.29 131.077C334.968 130.128 333.958 128.808 333.387 127.284C332.816 125.761 332.71 124.102 333.082 122.518C333.454 120.935 334.288 119.497 335.479 118.387C336.669 117.276 338.162 116.544 339.768 116.282C341.375 116.02 343.024 116.239 344.506 116.913C345.987 117.587 347.236 118.685 348.093 120.068C348.951 121.451 349.378 123.057 349.322 124.683C349.244 126.862 348.304 128.921 346.709 130.409C345.114 131.896 342.994 132.691 340.813 132.62Z" fill="#FBFBFF"/>
<path d="M408.982 49.9098L409.232 49.8516L409.33 49.6149L410.02 47.9558C410.452 47.7026 410.865 47.4181 411.255 47.1046H412.762H413.026L413.175 46.8857L415.151 43.9803L415.302 43.7578L415.2 43.509L414.643 42.1555C414.838 41.7169 414.999 41.2642 415.125 40.8012L416.471 39.5637L416.672 39.3779L416.624 39.1077L416.014 35.6938L415.966 35.4241L415.713 35.3196L414.041 34.6297C413.789 34.1965 413.504 33.7833 413.189 33.3939V31.8885V31.6276L412.975 31.4784L410.142 29.5027L409.917 29.3457L409.664 29.4513L408.269 30.0324C407.777 29.8716 407.272 29.7557 406.759 29.6862L405.546 28.3685L405.36 28.1664L405.09 28.2149L401.691 28.825L401.423 28.873L401.318 29.1233L400.617 30.7894C400.161 31.0369 399.724 31.3198 399.312 31.6355H397.813H397.549L397.4 31.8543L395.424 34.7597L395.273 34.9822L395.375 35.2311L395.944 36.6148C395.788 37.1074 395.672 37.612 395.598 38.1234L394.277 39.3525L394.077 39.5384L394.125 39.807L394.735 43.2064L394.784 43.4758L395.037 43.5802L396.704 44.2684C396.949 44.7042 397.231 45.1184 397.546 45.5065V46.9968V47.2614L397.764 47.4103L400.67 49.386L400.892 49.5373L401.141 49.4349L402.528 48.8646C403.025 49.0157 403.533 49.1273 404.048 49.1983L405.261 50.5168L405.458 50.7314L405.742 50.6652L408.982 49.9098ZM402.097 39.9191C401.977 39.2587 402.056 38.5778 402.324 37.9623C402.591 37.3466 403.035 36.8241 403.6 36.4609C404.165 36.0977 404.825 35.9102 405.496 35.9221C406.167 35.9341 406.82 36.1449 407.371 36.5279C407.923 36.9109 408.348 37.4488 408.594 38.0737C408.839 38.6986 408.894 39.3823 408.751 40.0383C408.608 40.6942 408.273 41.293 407.79 41.7588C407.306 42.2244 406.696 42.5362 406.035 42.6548C405.151 42.8097 404.241 42.6093 403.503 42.097C402.766 41.5848 402.26 40.802 402.097 39.9191Z" fill="#FFC100" stroke="#182F43"/>
<path d="M376.687 32.6624C373.764 34.3221 371.164 36.4962 369.014 39.0801L368.66 38.7816C370.852 36.1569 373.5 33.9495 376.475 32.2655L376.687 32.6624Z" fill="#FFC100" stroke="#182F43"/>
<path d="M396.567 28.3687C391.232 27.9453 385.873 28.8021 380.937 30.8676L380.761 30.4522C385.769 28.3615 391.202 27.4908 396.612 27.9118L396.567 28.3687Z" fill="#FFC100" stroke="#182F43"/>
<path d="M390.766 32.5535C385.629 33.788 381.062 36.7296 377.814 40.8965L377.448 40.6466C380.758 36.3746 385.424 33.3548 390.677 32.0844L390.766 32.5535Z" fill="#FFC100" stroke="#182F43"/>
<path d="M279.082 184.372C278.866 184.366 278.662 184.275 278.513 184.119L275.211 180.707C273.527 180.554 271.861 180.248 270.234 179.791L265.068 182.066C264.954 182.128 264.826 182.16 264.696 182.16C264.567 182.16 264.439 182.128 264.325 182.066L255.667 176.331C255.556 176.257 255.465 176.156 255.404 176.037C255.343 175.918 255.314 175.785 255.32 175.651V170.027C254.263 168.706 253.332 167.288 252.539 165.793L248.099 164.087C247.975 164.039 247.865 163.96 247.779 163.858C247.694 163.756 247.635 163.633 247.61 163.502L245.556 153.328C245.529 153.198 245.535 153.064 245.573 152.937C245.612 152.81 245.682 152.694 245.777 152.602L249.19 149.3C249.353 147.618 249.659 145.953 250.106 144.323L247.831 139.157C247.769 139.043 247.736 138.916 247.736 138.786C247.736 138.656 247.769 138.529 247.831 138.415L253.566 129.757C253.637 129.643 253.738 129.551 253.858 129.489C253.977 129.428 254.111 129.401 254.245 129.41L259.87 129.489C261.188 128.427 262.606 127.495 264.104 126.708L265.826 122.269C265.872 122.146 265.948 122.036 266.047 121.95C266.147 121.865 266.266 121.806 266.395 121.779L276.57 119.725C276.699 119.697 276.835 119.702 276.962 119.741C277.089 119.779 277.204 119.85 277.296 119.946L280.598 123.359C282.287 123.513 283.958 123.82 285.591 124.275L290.741 122C290.858 121.938 290.988 121.905 291.121 121.905C291.253 121.905 291.383 121.938 291.5 122L300.142 127.735C300.251 127.812 300.341 127.913 300.405 128.031C300.468 128.149 300.502 128.281 300.505 128.414L300.41 134.039C301.472 135.36 302.408 136.777 303.207 138.273L307.631 139.995C307.754 140.04 307.863 140.116 307.949 140.216C308.035 140.315 308.094 140.435 308.12 140.563L310.19 150.737C310.214 150.867 310.207 151.001 310.169 151.128C310.13 151.254 310.062 151.37 309.969 151.464L306.541 154.782C306.383 156.459 306.076 158.119 305.624 159.742L307.899 164.909C307.961 165.025 307.994 165.155 307.994 165.288C307.994 165.42 307.961 165.55 307.899 165.667L302.243 174.245C302.169 174.353 302.07 174.44 301.954 174.501C301.839 174.561 301.71 174.593 301.58 174.593L295.939 174.514C294.617 175.562 293.205 176.492 291.721 177.294L289.999 181.734C289.952 181.859 289.873 181.97 289.771 182.056C289.669 182.141 289.546 182.199 289.414 182.224L279.24 184.372H279.082ZM270.187 178.053C270.26 178.038 270.335 178.038 270.408 178.053C272.114 178.55 273.866 178.873 275.637 179.016C275.827 179.039 276.004 179.122 276.143 179.253L279.303 182.571L288.624 180.691L290.299 176.362C290.377 176.187 290.51 176.043 290.678 175.952C292.256 175.136 293.744 174.156 295.118 173.029C295.263 172.906 295.449 172.844 295.639 172.855L301.121 172.934L306.367 165.035L304.155 160.011C304.092 159.838 304.092 159.647 304.155 159.474C304.643 157.766 304.966 156.015 305.119 154.245C305.135 154.053 305.219 153.874 305.356 153.739L308.673 150.579L306.793 141.258L302.48 139.584C302.295 139.516 302.142 139.381 302.054 139.205C301.234 137.629 300.254 136.141 299.131 134.765C299.018 134.621 298.957 134.443 298.957 134.26V128.762L291.057 123.517L286.049 125.729C285.87 125.793 285.675 125.793 285.496 125.729C283.784 125.234 282.027 124.911 280.251 124.765C280.061 124.743 279.884 124.659 279.745 124.528L276.585 121.21L267.264 123.106L265.605 127.498C265.539 127.679 265.41 127.83 265.242 127.925C263.657 128.739 262.164 129.718 260.786 130.847C260.718 130.909 260.638 130.956 260.551 130.986C260.464 131.016 260.372 131.028 260.281 131.021L254.798 130.942L249.537 138.841L251.749 143.865C251.8 143.971 251.826 144.087 251.826 144.205C251.826 144.322 251.8 144.438 251.749 144.544C251.281 146.212 250.974 147.921 250.833 149.647C250.818 149.839 250.734 150.019 250.596 150.153L247.278 153.313L249.174 162.634L253.471 164.308C253.663 164.388 253.82 164.534 253.914 164.719C254.728 166.284 255.702 167.761 256.821 169.127C256.938 169.269 257 169.448 256.994 169.632V175.13L264.894 180.375L269.918 178.163C270 178.111 270.091 178.073 270.187 178.053ZM277.944 172.934C274.141 172.931 270.41 171.897 267.148 169.943C263.886 167.989 261.214 165.187 259.417 161.836C257.62 158.485 256.764 154.709 256.941 150.911C257.118 147.112 258.322 143.433 260.423 140.263C262.433 137.222 265.197 134.755 268.446 133.103C271.695 131.451 275.317 130.671 278.958 130.838C282.6 131.005 286.135 132.114 289.219 134.057C292.303 136 294.83 138.71 296.552 141.922C298.275 145.134 299.134 148.739 299.046 152.382C298.959 156.026 297.927 159.585 296.051 162.71C294.176 165.835 291.521 168.42 288.348 170.213C285.174 172.005 281.589 172.942 277.944 172.934ZM261.75 141.132C259.623 144.34 258.496 148.107 258.51 151.957C258.524 155.806 259.679 159.564 261.83 162.757C263.98 165.95 267.028 168.433 270.59 169.893C274.152 171.354 278.066 171.725 281.839 170.961C285.612 170.197 289.073 168.331 291.786 165.6C294.498 162.869 296.34 159.395 297.078 155.617C297.816 151.839 297.417 147.927 295.932 144.376C294.447 140.825 291.943 137.794 288.735 135.666C286.608 134.242 284.219 133.254 281.708 132.758C279.197 132.262 276.612 132.268 274.103 132.776C271.595 133.285 269.211 134.285 267.091 135.719C264.971 137.153 263.155 138.993 261.75 141.132Z" fill="#FBFBFF"/>
<path d="M552.105 251.418L530.29 248.473L529.297 248.339L529.165 249.331L524.707 282.71L482.7 277.05L487.159 243.654L487.291 242.665L486.301 242.531L395.348 230.258L400.775 189.579L506.866 91.9092L549.4 97.6403L534.452 209.687L534.32 210.676L535.31 210.81L557.128 213.756L552.105 251.418ZM442.203 196.586L440.619 198.03L442.743 198.317L491.322 204.868L492.314 205.002L492.447 204.01L500.175 146.133L500.538 143.413L498.51 145.262L442.203 196.586Z" fill="#AA4337" stroke="#182F43" stroke-width="2"/>
<path d="M262.799 319.223C264.818 286.682 261.114 227.512 322.288 235.357C387.849 243.739 369.095 320.414 369.095 320.414L262.799 319.223Z" fill="#182F43"/>
<path d="M305.015 299.67C319.762 299.67 331.717 287.715 331.717 272.969C331.717 258.222 319.762 246.268 305.015 246.268C290.269 246.268 278.314 258.222 278.314 272.969C278.314 287.715 290.269 299.67 305.015 299.67Z" fill="#FBFBFF"/>
<path d="M308.531 246.313C295.878 244.163 282.382 253.474 281.031 262.917L331.165 267.537C329.392 256.772 318.555 248.027 308.531 246.313Z" fill="#182F43"/>
<path d="M325.456 272.3C325.093 279.288 321.287 284.765 316.958 284.532C312.628 284.3 309.403 278.474 309.694 271.458C309.985 264.441 313.863 258.993 318.192 259.226C322.521 259.458 325.805 265.327 325.456 272.3Z" fill="#182F43"/>
<path d="M305.015 301.622H305.016C312.613 301.614 319.896 298.593 325.268 293.221C330.64 287.849 333.661 280.566 333.669 272.969V272.968C333.669 267.301 331.988 261.761 328.84 257.049C325.691 252.337 321.216 248.664 315.98 246.496C310.745 244.327 304.983 243.759 299.425 244.865C293.867 245.971 288.761 248.7 284.754 252.707C280.747 256.714 278.018 261.82 276.912 267.378C275.806 272.936 276.374 278.698 278.542 283.934C280.711 289.169 284.384 293.644 289.096 296.793C293.808 299.941 299.348 301.622 305.015 301.622ZM291.264 252.406C295.334 249.686 300.12 248.234 305.015 248.234C311.575 248.238 317.865 250.845 322.506 255.482C327.146 260.12 329.756 266.409 329.763 272.969C329.766 277.864 328.317 282.65 325.599 286.722C322.882 290.794 319.018 293.968 314.496 295.843C309.974 297.718 304.997 298.211 300.196 297.257C295.394 296.304 290.983 293.948 287.52 290.487C284.058 287.027 281.699 282.617 280.743 277.816C279.787 273.015 280.277 268.038 282.149 263.515C284.022 258.992 287.194 255.126 291.264 252.406Z" fill="#FFC100" stroke="#182F43"/>
<path opacity="0.3" d="M361.642 318.41H361.468C361.375 318.39 361.287 318.351 361.209 318.295C361.131 318.24 361.065 318.17 361.014 318.088C360.964 318.007 360.931 317.916 360.917 317.822C360.902 317.727 360.907 317.631 360.931 317.538C360.931 317.35 365.608 297.651 360.8 277.734C360.754 277.541 360.786 277.338 360.889 277.169C360.993 277 361.159 276.879 361.352 276.833C361.545 276.787 361.748 276.819 361.917 276.923C362.086 277.026 362.206 277.193 362.253 277.385C367.148 297.723 362.427 317.684 362.383 317.873C362.34 318.034 362.243 318.175 362.108 318.273C361.973 318.371 361.809 318.419 361.642 318.41Z" fill="#FBFBFF"/>
<path opacity="0.3" d="M357.589 266.809C357.45 266.808 357.313 266.767 357.195 266.693C357.078 266.619 356.982 266.513 356.921 266.388C355.115 262.397 352.801 258.657 350.035 255.26C349.914 255.111 349.858 254.921 349.877 254.731C349.896 254.54 349.989 254.365 350.137 254.243C350.211 254.181 350.296 254.135 350.388 254.106C350.481 254.078 350.578 254.068 350.674 254.078C350.77 254.087 350.863 254.116 350.948 254.162C351.033 254.207 351.107 254.27 351.168 254.345C354.002 257.84 356.38 261.682 358.243 265.778C358.284 265.863 358.308 265.956 358.313 266.051C358.318 266.146 358.303 266.241 358.271 266.331C358.238 266.42 358.188 266.502 358.124 266.572C358.059 266.642 357.981 266.698 357.894 266.737C357.798 266.781 357.695 266.806 357.589 266.809Z" fill="#FBFBFF"/>
<path d="M126.651 471.875H126.114C124.187 471.821 122.361 471.004 121.037 469.604C119.713 468.203 119 466.334 119.054 464.408C119.108 462.481 119.925 460.655 121.325 459.331C122.725 458.007 124.594 457.294 126.521 457.348H126.651C130.85 457.348 140.946 452.249 162.069 418.952C162.629 418.068 163.375 417.315 164.253 416.746C165.132 416.176 166.124 415.804 167.16 415.653C168.196 415.503 169.253 415.578 170.257 415.875C171.261 416.171 172.19 416.68 172.979 417.369C189.567 431.629 207.658 444.04 226.933 454.384C227.825 454.79 228.625 455.372 229.287 456.095C229.948 456.818 230.456 457.668 230.78 458.592C231.104 459.517 231.238 460.498 231.173 461.476C231.109 462.454 230.847 463.408 230.403 464.282C229.96 465.156 229.344 465.931 228.594 466.561C227.843 467.191 226.973 467.662 226.035 467.947C225.097 468.231 224.112 468.323 223.137 468.217C222.163 468.11 221.221 467.808 220.366 467.328C202.453 457.809 185.519 446.549 169.812 433.712C152.103 460.369 138.97 471.875 126.651 471.875Z" fill="#182F43"/>
<path d="M171.596 416.061H170.972C169.83 415.895 168.801 415.284 168.109 414.361C167.417 413.438 167.12 412.278 167.282 411.136C168.313 403.872 167.035 376.808 157.868 355.744C157.462 354.813 157.393 353.769 157.674 352.793C157.955 351.817 158.569 350.97 159.408 350.398C179.31 336.844 221.701 335.217 223.502 335.159C224.075 335.14 224.645 335.233 225.181 335.435C225.717 335.636 226.208 335.941 226.626 336.332C227.045 336.724 227.382 337.193 227.618 337.715C227.855 338.236 227.987 338.799 228.006 339.372C228.025 339.944 227.931 340.514 227.73 341.05C227.528 341.586 227.223 342.078 226.832 342.496C226.441 342.914 225.971 343.251 225.45 343.488C224.928 343.724 224.365 343.856 223.793 343.875C223.401 343.875 186.342 345.328 167.311 355.787C175.417 376.765 177.262 402.899 175.911 412.356C175.755 413.388 175.233 414.329 174.441 415.009C173.649 415.689 172.64 416.062 171.596 416.061Z" fill="#182F43"/>
<path d="M162.149 424.61C161.954 424.807 161.67 425.089 161.313 425.43C160.598 426.112 159.593 427.025 158.436 427.951C157.277 428.877 155.972 429.809 154.657 430.535C153.335 431.263 152.037 431.763 150.884 431.863L150.867 431.865L150.851 431.867C150.107 431.982 149.347 431.914 148.636 431.67C147.925 431.425 147.284 431.012 146.768 430.465C146.251 429.918 145.876 429.253 145.673 428.529C145.471 427.805 145.447 427.042 145.605 426.307L145.608 426.292L145.61 426.277C145.73 425.493 146.149 424.314 146.803 422.909C147.451 421.515 148.312 419.935 149.286 418.361C151.243 415.196 153.616 412.124 155.588 410.62L155.589 410.619C159.326 407.754 164.403 406.126 168.892 406.057C173.411 405.987 177.129 407.485 178.461 410.621C180.029 414.327 179.74 417.11 178.531 419.399C177.302 421.726 175.092 423.6 172.681 425.408C170.509 427.005 168.533 427.996 166.87 428.522C165.197 429.052 163.877 429.101 162.996 428.864C162.132 428.632 161.758 428.156 161.726 427.607C161.693 427.051 161.992 426.254 162.869 425.304C162.965 425.207 163.04 425.13 163.091 425.077L163.152 425.014L163.168 424.997L163.172 424.993L163.173 424.991L163.173 424.991C163.174 424.991 163.174 424.991 162.81 424.648L163.174 424.991L162.46 424.291C162.351 424.397 162.248 424.504 162.149 424.61Z" fill="#FFC100" stroke="#182F43"/>
<path d="M428.789 321.14C428.722 321.155 428.652 321.155 428.585 321.14C428.493 321.115 428.406 321.072 428.331 321.013C428.255 320.953 428.192 320.879 428.146 320.795C428.1 320.711 428.071 320.618 428.062 320.523C428.053 320.428 428.063 320.331 428.091 320.24C430.023 313.499 432.13 309.388 434.905 307.165C434.47 305.603 434.551 303.942 435.137 302.429C435.814 300.664 437.009 299.145 438.565 298.071C438.142 297.614 437.842 297.057 437.692 296.453C437.542 295.848 437.548 295.215 437.708 294.614C438.234 292.794 439.323 291.187 440.817 290.023C440.278 289.42 439.983 288.638 439.989 287.829C439.989 283.471 447.994 276.905 457.073 275.656C457.266 275.629 457.461 275.679 457.617 275.796C457.772 275.914 457.874 276.088 457.901 276.28C457.928 276.473 457.877 276.668 457.76 276.824C457.643 276.979 457.469 277.081 457.277 277.108C448.647 278.285 441.413 284.532 441.442 287.829C441.439 288.321 441.626 288.795 441.965 289.151C443.919 287.826 446.118 286.903 448.432 286.437C450.747 285.971 453.131 285.97 455.446 286.435C459.906 287.292 461.722 288.236 461.518 289.587C461.112 292.129 451.625 292.667 445.262 291.911C444.123 291.808 443.013 291.487 441.994 290.967C440.624 291.942 439.605 293.333 439.088 294.933C438.964 295.357 438.965 295.807 439.091 296.23C439.217 296.653 439.464 297.03 439.8 297.316C442.502 295.863 446.294 295.34 451.306 296.444C457.887 297.897 458.134 298.696 458.293 299.175C458.345 299.344 458.349 299.525 458.305 299.696C458.262 299.868 458.172 300.024 458.046 300.148C456.666 301.601 446.57 300.918 441.5 299.669C440.888 299.529 440.297 299.31 439.742 299.015C438.241 299.927 437.087 301.312 436.459 302.952C436.04 304.013 435.924 305.17 436.125 306.293C436.383 306.139 436.65 305.998 436.924 305.872C439.931 304.419 443.563 304.681 448.052 306.598C450.957 307.862 452.41 308.995 452.555 310.143C452.562 310.438 452.488 310.728 452.342 310.984C452.196 311.24 451.984 311.451 451.727 311.596C449.504 313.049 441.747 312.845 437.708 310.695C436.78 310.191 436.006 309.442 435.471 308.531C433.103 310.71 431.186 314.588 429.442 320.675C429.39 320.807 429.3 320.921 429.184 321.004C429.068 321.086 428.931 321.134 428.789 321.14ZM436.662 307.586C437.067 308.338 437.683 308.954 438.435 309.359C441.718 311.102 448.168 311.494 450.579 310.521C451.073 310.317 451.146 310.158 451.146 310.158C451.146 310.158 451.073 309.344 447.514 307.819C443.447 306.076 440.251 305.829 437.592 307.063C437.271 307.218 436.961 307.393 436.662 307.586ZM441.514 298.042L441.878 298.144C446.608 299.234 451.477 299.601 456.318 299.233C454.601 298.596 452.831 298.11 451.03 297.78C447.901 296.933 444.592 297.024 441.514 298.042ZM443.345 289.878C444.015 290.118 444.713 290.274 445.422 290.343C452.686 291.2 459.063 290.197 459.95 289.282C459.703 289.064 458.729 288.439 455.126 287.757C451.072 286.948 446.863 287.706 443.345 289.878Z" fill="#182F43"/>
<path d="M239.672 469.45C240.63 469.145 240.311 468.215 239.236 468.215H219.566C182.115 464.249 155.951 469.566 172.44 470.816C188.928 472.065 171.277 471.804 159.234 476.365C147.191 480.927 248.795 482.074 258.02 476.365C266.503 471.106 226.394 473.707 239.672 469.45Z" fill="#182F43"/>
<path d="M403.777 308.64L380.067 474.73L209.847 469.08L202.786 304.147L403.777 308.64Z" fill="#FFC100" stroke="#182F43"/>
<path d="M262.801 472.063C262.618 472.064 262.441 471.995 262.307 471.871C262.172 471.747 262.089 471.577 262.075 471.395L248.361 304.738C248.349 304.546 248.412 304.357 248.536 304.211C248.661 304.065 248.838 303.972 249.029 303.954C249.22 303.945 249.407 304.009 249.553 304.133C249.699 304.258 249.792 304.432 249.814 304.622L263.6 471.278C263.608 471.374 263.597 471.47 263.568 471.561C263.538 471.652 263.491 471.737 263.429 471.81C263.367 471.883 263.291 471.943 263.206 471.986C263.12 472.029 263.027 472.056 262.932 472.063H262.801Z" fill="#182F43"/>
<path d="M380.498 475.244L426.491 468.242L440.975 313.949L404.352 308.152L380.498 475.244Z" fill="#FFC100"/>
<path opacity="0.2" d="M426.03 467.807L381.088 474.649L404.775 308.726L440.433 314.369L426.03 467.807Z" fill="#182F43" stroke="#182F43"/>
<path d="M223.983 437.591L219.77 338.995C219.666 336.559 220.063 334.128 220.936 331.852C221.809 329.575 223.14 327.503 224.846 325.761C226.552 324.02 228.597 322.647 230.855 321.727C233.113 320.807 235.535 320.361 237.973 320.415L365.899 323.32C368.418 323.377 370.897 323.967 373.171 325.052C375.445 326.137 377.463 327.691 379.093 329.613C380.722 331.535 381.926 333.78 382.624 336.201C383.322 338.622 383.499 341.164 383.143 343.658L368.965 442.937C368.351 447.285 366.154 451.254 362.795 454.082C359.436 456.911 355.151 458.399 350.762 458.263L241.241 454.631C236.745 454.493 232.468 452.659 229.267 449.499C226.066 446.339 224.179 442.085 223.983 437.591Z" fill="#182F43"/>
<path d="M237.813 350.674L257.599 351.299L257.439 356.398L245.047 356.005L244.931 359.811L256.422 360.175L256.262 365.056L244.771 364.678L244.626 369.399L257.367 369.806L257.192 375.21L237.043 374.571L237.813 350.674Z" fill="#FBFBFF"/>
<path d="M261.273 375.343L262.029 351.445L274.348 351.838C276.114 351.829 277.872 352.083 279.563 352.593C280.762 352.994 281.787 353.794 282.469 354.859C282.974 355.635 283.313 356.506 283.467 357.419C283.62 358.332 283.584 359.266 283.361 360.164C283.137 361.062 282.731 361.905 282.168 362.639C281.604 363.374 280.896 363.984 280.086 364.433C279.26 364.858 278.373 365.152 277.457 365.304C278.132 365.522 278.773 365.835 279.36 366.234C279.784 366.628 280.164 367.066 280.493 367.542C280.867 367.994 281.198 368.48 281.481 368.994L284.837 376.04L276.498 375.764L272.779 368.34C272.484 367.632 272.049 366.989 271.501 366.452C270.979 366.075 270.357 365.862 269.714 365.842H269.06L268.755 375.531L261.273 375.343ZM269.147 361.367L272.256 361.469C272.916 361.429 273.572 361.337 274.217 361.193C274.704 361.119 275.144 360.865 275.452 360.481C275.766 360.094 275.945 359.614 275.96 359.116C275.988 358.784 275.941 358.449 275.823 358.138C275.705 357.826 275.518 357.545 275.278 357.314C274.467 356.791 273.51 356.541 272.547 356.603L269.292 356.501L269.147 361.367Z" fill="#FBFBFF"/>
<path d="M287.25 376.112L288.005 352.215L300.31 352.607C302.076 352.597 303.834 352.851 305.525 353.363C306.726 353.76 307.753 354.56 308.431 355.629C309.168 356.793 309.514 358.162 309.419 359.537C309.423 360.696 309.113 361.835 308.522 362.832C307.931 363.83 307.081 364.649 306.063 365.202C305.236 365.625 304.349 365.919 303.433 366.074C304.105 366.29 304.741 366.604 305.322 367.004C305.756 367.386 306.142 367.82 306.47 368.296C306.841 368.751 307.171 369.237 307.457 369.749L310.813 376.78L302.475 376.519L298.756 369.096C298.458 368.388 298.024 367.746 297.477 367.207C296.958 366.815 296.326 366.601 295.676 366.597H295.037L294.717 376.301L287.25 376.112ZM295.109 362.137L298.233 362.224C298.893 362.199 299.55 362.111 300.194 361.963C300.677 361.891 301.114 361.636 301.414 361.251C301.739 360.87 301.92 360.386 301.923 359.885C301.954 359.554 301.91 359.22 301.795 358.908C301.679 358.596 301.494 358.314 301.254 358.084C300.444 357.547 299.478 357.297 298.509 357.372L295.269 357.27L295.109 362.137Z" fill="#FBFBFF"/>
<path d="M312.002 365.014C311.89 363.346 312.148 361.674 312.759 360.119C313.37 358.563 314.318 357.162 315.534 356.016C316.751 354.87 318.206 354.008 319.796 353.491C321.386 352.975 323.07 352.817 324.728 353.029C326.401 352.973 328.068 353.255 329.63 353.856C331.192 354.458 332.618 355.367 333.822 356.53C334.896 357.767 335.708 359.21 336.207 360.771C336.707 362.332 336.884 363.978 336.727 365.609C336.739 367.983 336.181 370.324 335.1 372.437C334.121 374.166 332.656 375.57 330.887 376.476C328.803 377.472 326.495 377.913 324.19 377.754C321.892 377.774 319.618 377.277 317.537 376.301C315.765 375.34 314.319 373.874 313.382 372.089C312.283 369.901 311.806 367.454 312.002 365.014ZM319.382 365.275C319.164 367.106 319.579 368.957 320.558 370.52C321.016 371.031 321.573 371.445 322.194 371.736C322.816 372.028 323.489 372.192 324.175 372.217C324.861 372.243 325.545 372.131 326.187 371.886C326.828 371.642 327.414 371.271 327.909 370.796C328.986 369.165 329.496 367.225 329.362 365.275C329.557 363.524 329.13 361.761 328.156 360.292C327.716 359.785 327.171 359.378 326.56 359.1C325.948 358.822 325.283 358.678 324.611 358.68C323.933 358.631 323.253 358.737 322.622 358.988C321.99 359.24 321.424 359.631 320.965 360.133C319.865 361.615 319.306 363.43 319.382 365.275Z" fill="#FBFBFF"/>
<path d="M340.461 377.869L341.216 353.957L353.521 354.349C355.287 354.346 357.044 354.601 358.736 355.105C359.932 355.512 360.955 356.311 361.642 357.371C362.375 358.537 362.721 359.905 362.629 361.279C362.636 362.441 362.328 363.582 361.737 364.583C361.146 365.583 360.295 366.404 359.274 366.959C358.443 367.37 357.557 367.659 356.644 367.816C357.316 368.037 357.953 368.355 358.533 368.76C358.967 369.142 359.353 369.577 359.68 370.053C360.055 370.505 360.385 370.992 360.668 371.506L364.024 378.552L355.685 378.29L351.966 370.852C351.671 370.148 351.236 369.511 350.688 368.978C350.167 368.588 349.537 368.37 348.887 368.354H348.248L347.928 378.058L340.461 377.869ZM348.32 363.879L351.444 363.981C352.104 363.956 352.761 363.868 353.405 363.719C353.886 363.642 354.321 363.388 354.625 363.008C354.968 362.603 355.149 362.085 355.133 361.555C355.165 361.226 355.121 360.894 355.005 360.584C354.889 360.275 354.705 359.996 354.465 359.768C353.655 359.231 352.689 358.981 351.72 359.056L348.48 358.954L348.32 363.879Z" fill="#FBFBFF"/>
<path d="M352.213 418.473C351.941 418.479 351.67 418.426 351.42 418.318C351.169 418.21 350.945 418.05 350.761 417.849L338.325 404.237L324.902 416.498C324.53 416.838 324.038 417.018 323.534 416.996C323.031 416.974 322.556 416.753 322.215 416.382L309.779 402.77L296.356 415.03C295.984 415.371 295.492 415.55 294.988 415.529C294.485 415.507 294.01 415.286 293.669 414.914L281.219 401.302L267.81 413.563C267.615 413.74 267.385 413.876 267.135 413.961C266.885 414.046 266.621 414.078 266.358 414.057C265.853 414.027 265.379 413.803 265.036 413.432L252.6 399.835L239.192 412.081C238.817 412.423 238.323 412.603 237.817 412.581C237.31 412.559 236.833 412.338 236.49 411.965C236.32 411.781 236.189 411.565 236.103 411.33C236.018 411.094 235.98 410.844 235.992 410.594C236.005 410.344 236.066 410.099 236.174 409.873C236.282 409.647 236.434 409.445 236.62 409.278L251.438 395.724C251.812 395.382 252.307 395.203 252.813 395.224C253.319 395.246 253.797 395.468 254.14 395.84L266.575 409.452L279.984 397.191C280.365 396.857 280.858 396.68 281.364 396.697C281.87 396.724 282.344 396.948 282.686 397.322L295.121 410.934L308.545 398.673C308.728 398.502 308.943 398.37 309.178 398.283C309.413 398.197 309.663 398.158 309.913 398.169C310.163 398.179 310.408 398.24 310.635 398.346C310.861 398.453 311.064 398.603 311.232 398.789L323.667 412.401L337.091 400.14C337.463 399.799 337.954 399.62 338.458 399.642C338.962 399.664 339.437 399.885 339.778 400.256L353.666 415.336C353.914 415.613 354.076 415.957 354.133 416.325C354.189 416.692 354.137 417.069 353.983 417.408C353.829 417.746 353.579 418.033 353.265 418.233C352.951 418.432 352.586 418.536 352.213 418.532V418.473Z" fill="#FBFBFF"/>
<path d="M105.662 435.111L109.273 431.142L121.563 477.861L113.667 474.089L105.662 435.111Z" fill="#FFC100" stroke="#182F43"/>
<path d="M122.322 478.777L134.394 471.716L124.051 439.205L109.523 430.125L122.322 478.777Z" fill="#FFC100"/>
<path opacity="0.2" d="M122.322 478.777L134.394 471.716L124.051 439.205L109.523 430.125L122.322 478.777Z" fill="#182F43"/>
<path d="M320.254 485.95H319.252C317.325 485.898 315.498 485.083 314.173 483.684C312.848 482.285 312.132 480.417 312.184 478.49C312.236 476.564 313.051 474.737 314.45 473.412C315.849 472.086 317.718 471.371 319.644 471.423C330.83 471.786 354.509 464.915 368.049 451.782C368.866 450.98 369.862 450.383 370.954 450.039C393.893 443.153 402.42 457.055 402.769 457.651L390.275 465.045C390.319 465.138 390.373 465.226 390.435 465.307C390.304 465.118 387.05 460.949 376.707 463.506C359.725 478.992 333.663 485.95 320.254 485.95Z" fill="#182F43"/>
<path d="M325.812 446.961L318.94 495.071L293.396 493.472L291.36 445.68L325.812 446.961Z" fill="#FFC100" stroke="#182F43"/>
<path d="M319.369 495.597L325.558 489.437L329.393 459.032L326.386 446.48L319.369 495.597Z" fill="#FFC100"/>
<path opacity="0.2" d="M325.083 489.204L320.075 494.189L326.51 449.146L328.885 459.06L325.083 489.204Z" fill="#182F43" stroke="#182F43"/>
<path d="M472.662 477.134C471.712 477.133 470.789 476.821 470.032 476.247C454.924 464.771 434.513 444.389 426.683 424.734C426.565 424.45 426.482 424.152 426.436 423.848C422.615 401.127 418.969 353.318 418.809 351.299C418.766 350.727 418.836 350.151 419.016 349.606C419.195 349.061 419.48 348.556 419.854 348.121C420.61 347.243 421.685 346.701 422.84 346.614C423.996 346.527 425.139 346.903 426.018 347.659C426.896 348.415 427.439 349.489 427.525 350.645C427.525 351.125 431.259 399.398 434.978 421.93C442.794 441.048 464.032 460.674 475.335 469.303C476.062 469.856 476.598 470.622 476.866 471.496C477.135 472.369 477.122 473.304 476.83 474.17C476.537 475.035 475.98 475.787 475.238 476.319C474.495 476.851 473.604 477.136 472.691 477.134H472.662Z" fill="#182F43"/>
<path d="M486.164 483.41C482.794 483.41 478.973 481.884 474.804 478.877C473.868 478.199 473.239 477.177 473.057 476.035C472.874 474.894 473.153 473.726 473.831 472.79C474.509 471.854 475.531 471.226 476.672 471.043C477.814 470.86 478.981 471.139 479.918 471.817C483.52 474.417 485.481 474.722 486.164 474.722C487.32 474.722 488.429 475.182 489.246 475.999C490.063 476.816 490.522 477.925 490.522 479.081C490.522 480.236 490.063 481.345 489.246 482.162C488.429 482.98 487.32 483.439 486.164 483.439V483.41Z" fill="#182F43"/>
<path d="M500.86 484.935L500.779 485.429L500.86 484.935L500.579 485.887C501.497 486.288 502.158 486.709 502.599 487.116C503.042 487.524 503.238 487.893 503.288 488.193C503.376 488.727 503.015 489.388 501.767 489.912C499.315 490.943 494.215 491.013 487.583 488.392L487.583 488.392C487.508 488.363 487.432 488.333 487.355 488.302C485.179 487.444 482.114 486.236 479.745 484.65C478.52 483.829 477.52 482.933 476.924 481.967C476.339 481.021 476.142 480.012 476.499 478.903C478.745 472.239 484.462 469.529 490.551 468.752C496.648 467.973 503.002 469.157 506.252 470.173L506.251 470.173L506.261 470.176C511.851 471.798 517.213 474.123 522.218 477.093C523.894 478.191 524.647 479.591 524.534 480.891C524.421 482.193 523.421 483.602 521.137 484.671L521.137 484.671C519.768 485.314 517.83 485.67 515.648 485.825C513.477 485.979 511.111 485.933 508.915 485.801C506.72 485.67 504.705 485.453 503.238 485.269C502.505 485.177 501.909 485.094 501.497 485.033C501.291 485.003 501.131 484.978 501.023 484.961C501.001 484.958 500.98 484.955 500.962 484.952C500.937 484.948 500.916 484.945 500.9 484.942L500.87 484.937L500.862 484.936L500.86 484.935L500.86 484.935Z" fill="#FFC100" stroke="#182F43"/>
<path d="M436.268 357.225C434.539 368.992 424.792 377.665 416.86 376.502C408.928 375.34 408.608 364.881 410.337 353.056C412.066 341.23 415.204 332.717 423.135 333.88C431.067 335.042 437.997 345.501 436.268 357.225Z" fill="#182F43"/>
<path d="M244.541 310.302C245.199 310.302 245.732 309.769 245.732 309.111C245.732 308.453 245.199 307.92 244.541 307.92C243.883 307.92 243.35 308.453 243.35 309.111C243.35 309.769 243.883 310.302 244.541 310.302Z" fill="#182F43"/>
<path d="M256.64 317.683C256.64 317.919 256.57 318.149 256.44 318.345C256.309 318.541 256.123 318.694 255.905 318.784C255.687 318.874 255.448 318.898 255.217 318.852C254.986 318.806 254.773 318.692 254.607 318.526C254.44 318.359 254.327 318.147 254.281 317.916C254.235 317.685 254.258 317.445 254.348 317.228C254.439 317.01 254.591 316.824 254.787 316.693C254.983 316.562 255.213 316.492 255.449 316.492C255.765 316.492 256.068 316.618 256.291 316.841C256.515 317.064 256.64 317.367 256.64 317.683Z" fill="#182F43"/>
<path d="M257.974 458.453C257.974 458.689 257.904 458.919 257.774 459.115C257.643 459.311 257.457 459.463 257.239 459.554C257.021 459.644 256.782 459.667 256.551 459.621C256.32 459.575 256.107 459.462 255.941 459.295C255.774 459.129 255.661 458.916 255.615 458.685C255.569 458.454 255.592 458.215 255.682 457.997C255.773 457.779 255.925 457.593 256.121 457.463C256.317 457.332 256.547 457.262 256.783 457.262C257.099 457.262 257.402 457.387 257.625 457.611C257.849 457.834 257.974 458.137 257.974 458.453Z" fill="#182F43"/>
<path d="M268.888 467.037C268.888 467.273 268.818 467.503 268.688 467.699C268.557 467.895 268.371 468.047 268.153 468.138C267.935 468.228 267.696 468.251 267.465 468.205C267.234 468.159 267.021 468.046 266.855 467.879C266.688 467.713 266.575 467.5 266.529 467.269C266.483 467.038 266.506 466.799 266.597 466.581C266.687 466.363 266.839 466.177 267.035 466.046C267.231 465.916 267.461 465.846 267.697 465.846C268.013 465.846 268.316 465.971 268.539 466.195C268.763 466.418 268.888 466.721 268.888 467.037Z" fill="#182F43"/>
<path d="M59.5058 481.319C57.4144 481.222 55.3717 480.655 53.5286 479.662C51.6855 478.669 50.0891 477.274 48.8574 475.581C48.797 475.503 48.7531 475.414 48.7283 475.319C48.7036 475.223 48.6985 475.124 48.7134 475.026C48.7284 474.929 48.763 474.835 48.8151 474.752C48.8673 474.668 48.9359 474.596 49.0169 474.54C49.0978 474.483 49.1893 474.444 49.2859 474.425C49.3825 474.405 49.482 474.405 49.5786 474.425C49.6751 474.445 49.7665 474.484 49.8473 474.541C49.9281 474.597 49.9966 474.669 50.0486 474.753C52.7652 478.675 58.7649 480.753 61.3798 479.518C61.6417 479.407 61.8751 479.238 62.0626 479.024C60.7413 478.443 59.5836 477.545 58.6918 476.41C57.7999 475.275 57.2014 473.937 56.949 472.516C56.6149 470.671 56.3534 468.158 57.8642 467.838C59.9562 467.373 62.6873 472.414 63.6751 476.235C63.8541 476.867 63.918 477.527 63.864 478.182C64.7019 478.431 65.5832 478.501 66.4498 478.385C66.8404 478.355 67.2203 478.244 67.5655 478.059C67.9107 477.874 68.2135 477.619 68.4546 477.31C67.4985 476.589 66.7054 475.673 66.1272 474.625C65.5489 473.576 65.1985 472.417 65.0988 471.223C64.5468 467.243 64.9681 466.56 65.4039 466.211C65.5451 466.103 65.7136 466.036 65.8906 466.018C66.0677 466 66.2462 466.032 66.4063 466.109C67.9607 466.763 69.8347 472.4 70.1979 475.596C70.2414 475.928 70.2414 476.265 70.1979 476.598C70.8241 476.839 71.4881 476.967 72.159 476.976C73.3909 477.024 74.6093 476.705 75.6601 476.061C75.4567 475.93 75.2679 475.785 75.079 475.639C73.6263 474.346 72.958 472.283 73.2195 469.349C73.4229 467.068 73.9314 465.819 74.8466 465.427C75.1418 465.308 75.4652 465.278 75.7772 465.34C76.0893 465.402 76.3767 465.553 76.6044 465.775C77.585 466.858 78.3179 468.142 78.7519 469.537C79.1859 470.932 79.3107 472.404 79.1176 473.852C78.9915 474.455 78.7389 475.025 78.3767 475.523C81.0497 475.988 84.7977 475.233 88.0373 474.434C88.1327 474.411 88.2316 474.407 88.3285 474.422C88.4254 474.437 88.5183 474.472 88.602 474.523C88.6856 474.574 88.7583 474.642 88.816 474.721C88.8736 474.8 88.9151 474.89 88.938 474.986C88.9609 475.081 88.9647 475.18 88.9494 475.277C88.934 475.374 88.8998 475.467 88.8485 475.55C88.7972 475.634 88.73 475.707 88.6506 475.764C88.5713 475.822 88.4813 475.863 88.3859 475.886C84.4491 476.86 80.2071 477.659 77.2145 476.787C75.7537 477.897 73.9649 478.49 72.13 478.472C71.3157 478.461 70.5095 478.309 69.7475 478.022C69.4095 478.544 68.9561 478.983 68.4222 479.302C67.8882 479.622 67.288 479.815 66.6677 479.867C65.5758 480.007 64.4664 479.913 63.4136 479.591C63.0747 480.162 62.5672 480.613 61.9609 480.884C61.1817 481.198 60.3456 481.346 59.5058 481.319ZM58.2565 469.291C58.0555 470.279 58.0954 471.3 58.3727 472.269C58.5776 473.431 59.0596 474.526 59.7778 475.461C60.496 476.397 61.4293 477.146 62.4984 477.644C62.4781 477.3 62.4196 476.959 62.3241 476.627C61.191 472.472 59.0119 469.611 58.2565 469.291ZM66.3481 468.027C66.3576 469.029 66.4401 470.029 66.5951 471.02C66.7553 472.791 67.5376 474.448 68.8032 475.697C68.4457 473.015 67.6145 470.418 66.3481 468.027ZM75.4858 466.763C75.4858 466.763 74.9337 467.039 74.7303 469.465C74.527 471.891 74.9483 473.562 76.0814 474.535C76.3495 474.752 76.642 474.938 76.953 475.087C77.335 474.679 77.6052 474.178 77.7375 473.635C77.9962 471.348 77.3785 469.048 76.0088 467.199C75.7037 466.821 75.5294 466.763 75.4858 466.763Z" fill="#182F43"/>
<path d="M272.127 492.302L276.064 485.474L272.127 478.646H267.914L270.297 485.474L267.914 492.302H272.127Z" fill="#182F43"/>
<path d="M268.188 489.034C267.703 489.065 267.216 488.996 266.758 488.832C266.3 488.667 265.881 488.411 265.526 488.078C265.171 487.745 264.888 487.343 264.695 486.897C264.501 486.45 264.402 485.969 264.402 485.482C264.402 484.996 264.501 484.514 264.695 484.068C264.888 483.621 265.171 483.219 265.526 482.886C265.881 482.553 266.3 482.297 266.758 482.132C267.216 481.968 267.703 481.899 268.188 481.93L261.506 480.594L259.719 485.998L262.711 490.559L268.188 489.034Z" fill="#182F43"/>
<path d="M268.77 478.646H260.882L256.945 485.474L260.882 492.302H268.77L272.707 485.474L268.77 478.646ZM264.834 489.033C264.129 489.036 263.44 488.83 262.852 488.441C262.265 488.051 261.807 487.497 261.535 486.846C261.263 486.196 261.191 485.48 261.327 484.789C261.462 484.098 261.8 483.462 262.297 482.963C262.794 482.464 263.429 482.123 264.119 481.985C264.81 481.846 265.527 481.916 266.178 482.185C266.829 482.454 267.386 482.91 267.777 483.495C268.169 484.081 268.378 484.77 268.378 485.474C268.378 486.416 268.005 487.319 267.341 487.986C266.677 488.653 265.775 489.03 264.834 489.033Z" fill="#FFC100"/>
<path d="M546.721 478.181L543.801 473.111L546.721 468.041H549.844L548.086 473.111L549.844 478.181H546.721Z" fill="#FFC100"/>
<path d="M549.641 475.757C550.003 475.784 550.368 475.736 550.711 475.616C551.054 475.496 551.369 475.306 551.635 475.058C551.902 474.811 552.115 474.511 552.26 474.178C552.405 473.844 552.48 473.484 552.48 473.121C552.48 472.757 552.405 472.397 552.26 472.064C552.115 471.73 551.902 471.431 551.635 471.183C551.369 470.936 551.054 470.746 550.711 470.625C550.368 470.505 550.003 470.457 549.641 470.484L554.609 469.496L555.931 473.506L553.723 476.89L549.641 475.757Z" fill="#FFC100"/>
<path d="M549.22 468.041H555.031L557.936 473.111L555.031 478.181H549.22L546.314 473.111L549.22 468.041ZM552.125 475.755C552.649 475.758 553.161 475.605 553.598 475.316C554.035 475.028 554.376 474.616 554.578 474.133C554.781 473.65 554.835 473.118 554.735 472.604C554.634 472.09 554.384 471.618 554.015 471.247C553.645 470.875 553.174 470.622 552.661 470.519C552.148 470.416 551.615 470.467 551.131 470.667C550.648 470.867 550.234 471.206 549.943 471.641C549.651 472.076 549.496 472.587 549.496 473.111C549.494 473.459 549.561 473.803 549.693 474.125C549.825 474.447 550.02 474.739 550.266 474.985C550.512 475.231 550.804 475.425 551.126 475.558C551.447 475.69 551.792 475.757 552.14 475.755H552.125Z" fill="#182F43"/>
<path d="M437.927 484.921H444.493C445.315 484.917 446.102 484.588 446.682 484.005C447.262 483.423 447.588 482.634 447.588 481.812C447.588 480.99 447.262 480.201 446.682 479.619C446.102 479.036 445.315 478.707 444.493 478.703H437.927C437.103 478.703 436.312 479.031 435.729 479.614C435.146 480.197 434.818 480.987 434.818 481.812C434.818 482.636 435.146 483.427 435.729 484.01C436.312 484.593 437.103 484.921 437.927 484.921Z" fill="#182F43"/>
<path d="M427.363 479.053C427.972 477.945 428.893 477.039 430.011 476.447C431.129 475.856 432.395 475.605 433.654 475.724C434.913 475.844 436.11 476.33 437.096 477.122C438.082 477.913 438.815 478.976 439.205 480.18C439.594 481.383 439.623 482.674 439.288 483.893C438.952 485.113 438.267 486.207 437.317 487.042C436.367 487.877 435.193 488.415 433.941 488.591C432.688 488.766 431.412 488.572 430.268 488.031C428.697 487.221 427.51 485.822 426.966 484.14C426.422 482.459 426.564 480.63 427.363 479.053Z" fill="#FFC100"/>
<path d="M429.135 488.028L430.936 488.877L437.192 475.605L435.392 474.757L429.135 488.028Z" fill="#182F43"/>
</svg>
