<svg width="68" height="68" viewBox="0 0 68 68" fill="none" xmlns="http://www.w3.org/2000/svg">
<path d="M33.9168 66.8336C52.0962 66.8336 66.8336 52.0962 66.8336 33.9168C66.8336 15.7373 52.0962 1 33.9168 1C15.7373 1 1 15.7373 1 33.9168C1 52.0962 15.7373 66.8336 33.9168 66.8336Z" fill="#FBFBFF"/>
<path d="M33.9168 66.8336C52.0962 66.8336 66.8336 52.0962 66.8336 33.9168C66.8336 15.7373 52.0962 1 33.9168 1C15.7373 1 1 15.7373 1 33.9168C1 52.0962 15.7373 66.8336 33.9168 66.8336Z" fill="white" fill-opacity="0.2"/>
<path d="M33.9168 66.8336C52.0962 66.8336 66.8336 52.0962 66.8336 33.9168C66.8336 15.7373 52.0962 1 33.9168 1C15.7373 1 1 15.7373 1 33.9168C1 52.0962 15.7373 66.8336 33.9168 66.8336Z" stroke="#263238" stroke-width="2" stroke-miterlimit="10"/>
<path d="M39.0013 18.4708L40.6329 15.5273C40.6538 15.4895 40.6671 15.448 40.672 15.4051C40.6769 15.3622 40.6733 15.3188 40.6614 15.2772C40.6495 15.2357 40.6296 15.197 40.6027 15.1632C40.5758 15.1294 40.5425 15.1012 40.5048 15.0803C40.4285 15.038 40.3386 15.0278 40.2547 15.0518C40.1709 15.0758 40.1001 15.1322 40.0578 15.2084L38.4081 18.1846C37.0006 17.5676 35.4804 17.249 33.9435 17.249C32.4066 17.249 30.8865 17.5676 29.4789 18.1846L27.8292 15.2084C27.7869 15.1322 27.7161 15.0758 27.6322 15.0518C27.5484 15.0278 27.4585 15.038 27.3822 15.0803C27.3059 15.1226 27.2496 15.1934 27.2256 15.2772C27.2015 15.3611 27.2118 15.451 27.2541 15.5273L28.8857 18.4708C27.3326 19.2364 26.0203 20.415 25.0927 21.8772C24.1652 23.3394 23.6583 25.0289 23.6276 26.7602H44.2594C44.2287 25.0289 43.7218 23.3394 42.7943 21.8772C41.8668 20.415 40.5545 19.2364 39.0013 18.4708ZM29.1822 22.9851C29.0118 22.9851 28.8453 22.9346 28.7036 22.8399C28.5619 22.7452 28.4515 22.6107 28.3863 22.4533C28.3211 22.2958 28.304 22.1226 28.3373 21.9555C28.3705 21.7884 28.4526 21.6349 28.573 21.5144C28.6935 21.3939 28.847 21.3119 29.0142 21.2786C29.1813 21.2454 29.3545 21.2624 29.5119 21.3276C29.6693 21.3929 29.8039 21.5033 29.8986 21.6449C29.9932 21.7866 30.0437 21.9532 30.0437 22.1236C30.0435 22.352 29.9526 22.571 29.7911 22.7325C29.6296 22.894 29.4106 22.9848 29.1822 22.9851ZM38.7047 22.9851C38.5343 22.9851 38.3678 22.9346 38.2261 22.8399C38.0844 22.7452 37.974 22.6107 37.9088 22.4533C37.8436 22.2958 37.8265 22.1226 37.8598 21.9555C37.893 21.7884 37.9751 21.6349 38.0956 21.5144C38.216 21.3939 38.3695 21.3119 38.5367 21.2786C38.7038 21.2454 38.877 21.2624 39.0344 21.3276C39.1918 21.3929 39.3264 21.5033 39.4211 21.6449C39.5157 21.7866 39.5662 21.9532 39.5662 22.1236C39.566 22.352 39.4751 22.571 39.3136 22.7325C39.1521 22.894 38.9331 22.9848 38.7047 22.9851ZM23.6275 42.5289C23.6275 43.1904 23.8902 43.8247 24.3579 44.2924C24.8257 44.7602 25.46 45.0229 26.1215 45.0229H27.7765V50.1243C27.7757 50.4285 27.8349 50.7299 27.9507 51.0112C28.0666 51.2925 28.2368 51.5482 28.4516 51.7636C28.6665 51.979 28.9217 52.1499 29.2027 52.2665C29.4837 52.3832 29.7849 52.4432 30.0891 52.4432C30.3934 52.4432 30.6946 52.3832 30.9756 52.2665C31.2566 52.1499 31.5118 51.979 31.7266 51.7636C31.9415 51.5482 32.1117 51.2925 32.2275 51.0112C32.3434 50.7299 32.4026 50.4285 32.4018 50.1243V45.0229H35.4852V50.1243C35.4844 50.4285 35.5436 50.7299 35.6594 51.0112C35.7753 51.2925 35.9455 51.5482 36.1603 51.7636C36.3751 51.979 36.6304 52.1499 36.9114 52.2665C37.1924 52.3832 37.4936 52.4432 37.7978 52.4432C38.1021 52.4432 38.4033 52.3832 38.6843 52.2665C38.9653 52.1499 39.2205 51.979 39.4353 51.7636C39.6502 51.5482 39.8204 51.2925 39.9362 51.0112C40.0521 50.7299 40.1113 50.4285 40.1105 50.1243V45.0229H41.7656C42.427 45.0229 43.0614 44.7602 43.5291 44.2924C43.9968 43.8247 44.2596 43.1904 44.2596 42.5289V27.5763H23.6275V42.5289ZM20.4533 27.1795C19.8401 27.1802 19.2523 27.4241 18.8188 27.8577C18.3852 28.2912 18.1413 28.879 18.1406 29.4922V39.128C18.1398 39.4323 18.199 39.7337 18.3149 40.015C18.4307 40.2963 18.6009 40.552 18.8158 40.7674C19.0306 40.9828 19.2858 41.1537 19.5668 41.2703C19.8478 41.3869 20.1491 41.447 20.4533 41.447C20.7575 41.447 21.0588 41.3869 21.3397 41.2703C21.6207 41.1537 21.876 40.9828 22.0908 40.7674C22.3056 40.552 22.4758 40.2963 22.5917 40.015C22.7075 39.7337 22.7668 39.4323 22.7659 39.128V29.4922C22.7652 28.879 22.5214 28.2912 22.0878 27.8577C21.6542 27.4241 21.0664 27.1802 20.4533 27.1795ZM47.4337 27.1795C46.8206 27.1802 46.2327 27.4241 45.7992 27.8577C45.3656 28.2912 45.1217 28.879 45.121 29.4922V39.128C45.1202 39.4323 45.1794 39.7337 45.2953 40.015C45.4111 40.2963 45.5813 40.552 45.7962 40.7674C46.011 40.9828 46.2662 41.1537 46.5472 41.2703C46.8282 41.3869 47.1295 41.447 47.4337 41.447C47.7379 41.447 48.0392 41.3869 48.3202 41.2703C48.6011 41.1537 48.8564 40.9828 49.0712 40.7674C49.286 40.552 49.4562 40.2963 49.5721 40.015C49.6879 39.7337 49.7472 39.4323 49.7463 39.128V29.4922C49.7456 28.879 49.5018 28.2912 49.0682 27.8577C48.6347 27.4241 48.0468 27.1802 47.4337 27.1795Z" fill="#182F43"/>
</svg>
