<svg width="75" height="75" viewBox="0 0 75 75" fill="none" xmlns="http://www.w3.org/2000/svg">
<path d="M37.531 74C32.7352 74.0041 27.9855 73.063 23.5536 71.2305C19.1216 69.398 15.0942 66.7101 11.7016 63.3204C8.30895 59.9306 5.6176 55.9055 3.78136 51.4751C1.94513 47.0447 0.999998 42.2959 1 37.5C0.999998 32.7041 1.94513 27.9553 3.78136 23.5249C5.6176 19.0945 8.30895 15.0694 11.7016 11.6796C15.0942 8.28988 19.1216 5.60195 23.5536 3.76948C27.9855 1.93701 32.7352 0.995933 37.531 1.00001C47.2114 1.00001 56.4954 4.84553 63.3404 11.6906C70.1855 18.5357 74.031 27.8196 74.031 37.5C74.031 47.1804 70.1855 56.4643 63.3404 63.3094C56.4954 70.1545 47.2114 74 37.531 74Z" fill="#182F43" stroke="#182F43" stroke-miterlimit="10"/>
<path d="M20.3027 9.1475C23.5394 7.17045 27.0944 5.76949 30.8097 5.00684" stroke="white" stroke-width="0.75" stroke-linecap="round" stroke-linejoin="round"/>
<path d="M4.46993 40.4364C4.38711 39.4634 4.34571 38.4903 4.34571 37.4966C4.34181 32.2177 5.5996 27.0143 8.01426 22.32C10.4289 17.6257 13.9305 13.5765 18.2273 10.5098" stroke="white" stroke-width="0.75" stroke-linecap="round" stroke-linejoin="round"/>
<path d="M62.8014 58.928C59.6939 62.6006 55.8237 65.5522 51.46 67.5776C47.0963 69.6031 42.3438 70.6537 37.5329 70.6565C30.7383 70.665 24.1054 68.5838 18.5336 64.6952C12.9617 60.8066 8.72042 55.2986 6.38477 48.918" stroke="white" stroke-width="0.75" stroke-linecap="round" stroke-linejoin="round"/>
<path d="M68.8744 48.2227C68.1587 50.3356 67.2254 52.3685 66.0898 54.2888" stroke="white" stroke-width="0.75" stroke-linecap="round" stroke-linejoin="round"/>
<path d="M30.8145 5.01663C33.0149 4.56621 35.2555 4.34077 37.5016 4.34378V4.34378C46.287 4.34378 54.7126 7.83377 60.9248 14.046C67.137 20.2582 70.627 28.6837 70.627 37.4691C70.6289 40.3307 70.2601 43.1804 69.5297 45.9471" stroke="white" stroke-width="0.75" stroke-linecap="round" stroke-linejoin="round"/>
<path d="M41.9963 22.3251C42.7181 21.4752 43.2684 20.4879 43.6157 19.4201C43.963 18.3522 44.1004 17.2248 44.02 16.1025C41.8042 16.2853 39.7474 17.3501 38.2926 19.0675C37.596 19.8906 37.068 20.8482 36.7401 21.8836C36.4122 22.9189 36.2909 24.0109 36.3835 25.095C37.4643 25.1042 38.5327 24.8592 39.506 24.3789C40.4794 23.8985 41.3314 23.1958 41.9963 22.3251ZM46.8074 36.8379C46.8202 35.3432 47.2055 33.8765 47.927 32.5762C48.6485 31.2758 49.6824 30.1848 50.9311 29.406C50.1431 28.2458 49.1013 27.2892 47.8884 26.612C46.6755 25.9348 45.3249 25.5557 43.9437 25.5047C40.9654 25.1926 38.2162 27.2797 36.6316 27.2797C35.0471 27.2797 32.8134 25.5437 30.3315 25.5827C28.7089 25.6373 27.128 26.1206 25.7427 26.9856C24.3575 27.8505 23.2153 29.0675 22.4276 30.5178C19.0675 36.4868 21.5685 45.3622 24.9286 50.1803C26.4559 52.5406 28.365 55.213 30.8851 55.1155C33.4052 55.018 34.2261 53.516 37.1471 53.516C40.0681 53.516 40.9654 55.1155 43.4473 55.057C45.9292 54.9984 47.6856 52.6382 49.2893 50.2779C50.4253 48.5643 51.3127 46.6918 51.9239 44.7185C50.4109 44.0592 49.12 42.9616 48.2107 41.561C47.3014 40.1605 46.8135 38.5186 46.8074 36.8379Z" fill="#FFC121"/>
</svg>
