<svg width="75" height="75" viewBox="0 0 75 75" fill="none" xmlns="http://www.w3.org/2000/svg">
<path d="M37.5 74C57.6584 74 74 57.6584 74 37.5C74 17.3416 57.6584 1 37.5 1C17.3416 1 1 17.3416 1 37.5C1 57.6584 17.3416 74 37.5 74Z" fill="#FBFBFF" stroke="#182F43" stroke-width="2" stroke-miterlimit="10"/>
<path d="M28.1852 39.9355C28.0291 40.2374 27.889 40.5169 27.7648 40.774C27.6406 41.0312 27.5159 41.2957 27.3906 41.5678C26.7674 42.8684 26.2069 44.1908 25.7091 45.535C25.2639 46.6853 24.8613 48.0766 24.5704 49.5092L24.5402 49.6831C24.4161 50.4694 24.3303 51.2557 24.283 52.0421C24.2759 52.1643 24.2724 52.309 24.2724 52.4536C24.2724 53.1613 24.3699 53.8483 24.5544 54.4992L24.542 54.4441C24.6573 55.0433 24.957 55.5616 25.3809 55.9542L25.3827 55.9559C25.796 56.3003 26.3334 56.5138 26.9223 56.5224H26.9241C27.0145 56.5328 27.1174 56.5379 27.2238 56.5379C27.4331 56.5379 27.6353 56.5156 27.8304 56.4742L27.8127 56.4777L28.6534 56.2969C29.4463 56.073 30.1345 55.7786 30.7748 55.4118L30.7322 55.4342C31.3707 55.0715 32.0016 54.6783 32.6247 54.2547C32.7595 54.1738 32.9139 54.1049 33.077 54.055L33.0912 54.0515C33.1569 54.0326 33.2331 54.0223 33.3112 54.0223C33.4158 54.0223 33.5169 54.0412 33.6092 54.0756L33.6038 54.0739C33.9195 54.1772 34.1572 54.4321 34.2264 54.7489L34.2282 54.7541C34.2459 54.8126 34.2548 54.8815 34.2548 54.9521C34.2548 55.2069 34.1253 55.4325 33.9266 55.5685L33.9249 55.5702C33.0167 56.2401 31.9933 56.872 30.9149 57.4195L30.7943 57.4747C29.7478 58.0015 28.5133 58.3184 27.2025 58.3356H27.1972C27.1227 58.3408 27.0376 58.3425 26.9507 58.3425C26.0266 58.3425 25.1734 58.0566 24.4764 57.5711L24.4888 57.5797C23.7279 57.0218 23.1567 56.2538 22.8623 55.3671L22.8534 55.3361C22.5927 54.6662 22.4242 53.8914 22.3869 53.0855V53.07C22.3798 52.9013 22.3745 52.7033 22.3745 52.5035C22.3745 51.9043 22.4135 51.3137 22.4863 50.7334L22.4792 50.8023C22.7789 48.3882 23.3625 46.1911 24.2032 44.1197L24.1376 44.3022C25.1184 41.8536 26.0851 39.8494 27.1635 37.9122L27.011 38.2118C27.0926 38.0672 27.144 37.8967 27.1511 37.7142V37.7125C27.1476 37.5334 27.1139 37.3612 27.0535 37.2028L27.0571 37.2131C26.7768 36.4578 26.512 35.7019 26.2625 34.9454L25.5157 32.6777C25.5087 32.5554 25.4501 32.4487 25.3614 32.3764C25.3011 32.3488 25.2302 32.3333 25.1557 32.3333C25.1042 32.3333 25.0546 32.3402 25.0085 32.354L25.012 32.3522C23.9537 32.5945 22.9102 32.874 21.8814 33.1908C20.7516 33.5438 19.7778 33.9657 18.8626 34.4771L18.9371 34.4392C18.538 34.6665 18.1939 34.8989 17.8711 35.1538L17.887 35.1417C17.5394 35.4172 17.2272 35.691 16.9293 35.9803C16.5107 36.378 16.2357 36.9135 16.1825 37.5128V37.5214V37.5868C16.1825 38.1808 16.3936 38.7284 16.7483 39.1589L16.7448 39.1537C17.0782 39.6582 17.4809 40.0853 17.9474 40.4382L17.9598 40.4469C18.4268 40.7947 18.9093 41.1195 19.4071 41.4214C19.5939 41.5121 19.7654 41.6028 19.9215 41.6935L20.388 41.9656C20.6115 42.093 20.7817 42.291 20.8686 42.5252L20.8704 42.5321C20.8988 42.6078 20.9148 42.6974 20.9148 42.7886C20.9148 42.9367 20.8722 43.0745 20.7977 43.1933L20.7995 43.1898C20.693 43.4137 20.4908 43.5807 20.2443 43.6427L20.239 43.6444C20.1627 43.6634 20.0776 43.6737 19.9871 43.6737C19.8062 43.6737 19.6341 43.6289 19.4852 43.5514L19.4905 43.5549C18.7083 43.1864 18.0396 42.7972 17.4117 42.3564L17.4525 42.384C16.7874 41.9208 16.2056 41.4128 15.6859 40.8515L15.677 40.8412C15.3648 40.4882 15.0864 40.0921 14.854 39.6668L14.8363 39.6324C14.627 39.245 14.4656 38.7973 14.3733 38.3238L14.368 38.2945C14.3361 38.1103 14.3184 37.8985 14.3184 37.6832C14.3184 37.2906 14.3787 36.9101 14.4904 36.5537L14.4833 36.5812C14.6749 35.9906 14.9533 35.4792 15.3099 35.0281L15.301 35.0401C15.6823 34.5494 16.1133 34.1241 16.594 33.759L16.61 33.747C17.0729 33.3923 17.5926 33.0686 18.1442 32.7965L18.1974 32.7724C19.0577 32.3144 20.0687 31.8856 21.1205 31.5395L21.2571 31.4999C22.2953 31.167 23.3619 30.88 24.4568 30.639C24.526 30.6149 24.6112 30.5925 24.6998 30.5735L24.714 30.5718C24.8169 30.5511 24.902 30.527 24.9854 30.4995L24.9694 30.5047C24.9068 30.2326 24.8547 29.9605 24.8134 29.6885C24.772 29.4164 24.733 29.1444 24.6963 28.8723C24.526 27.8925 24.4001 26.7217 24.3487 25.5318L24.3469 25.4716C24.3416 25.3441 24.338 25.1926 24.338 25.0428C24.338 24.0011 24.4852 22.9938 24.7637 22.0381L24.7442 22.1156C24.8453 21.6249 24.9907 21.1927 25.1805 20.7846L25.1646 20.8225C25.3703 20.3799 25.6204 19.9994 25.9184 19.6585L25.9131 19.6653C26.4523 19.0334 27.1742 18.5651 28.0007 18.3395L28.0309 18.3326C28.3998 18.2431 28.8219 18.1914 29.2565 18.1914C29.7247 18.1914 30.1806 18.2517 30.6116 18.3636L30.5743 18.355C31.518 18.5771 32.3498 18.9215 33.1036 19.3726L33.0664 19.352C33.9196 19.8616 34.6432 20.3558 35.335 20.8862L35.2853 20.85C35.4627 21.0101 35.578 21.234 35.5957 21.4819V21.4854C35.5975 21.5026 35.5975 21.5215 35.5975 21.5405C35.5975 21.7695 35.4981 21.9744 35.3385 22.1208C35.1966 22.2912 34.9926 22.4083 34.7585 22.4376H34.7532C34.7213 22.441 34.6822 22.4445 34.645 22.4445C34.4304 22.4445 34.2317 22.3739 34.0739 22.2551L34.0756 22.2568C33.702 22.0146 33.3437 21.7729 33.0008 21.5319C32.6992 21.3149 32.348 21.0911 31.9862 20.8827L31.9277 20.8517C31.5588 20.6279 31.1348 20.4281 30.6879 20.2749L30.6417 20.2611C30.2161 20.1165 29.7247 20.0338 29.2121 20.0338C29.198 20.0338 29.182 20.0338 29.1678 20.0338H29.1696C29.1625 20.0338 29.1536 20.0338 29.1447 20.0338C28.7563 20.0338 28.3891 20.1268 28.0663 20.2887L28.0787 20.2835C27.74 20.4626 27.4633 20.7157 27.2664 21.0222L27.2611 21.0308C26.9666 21.3958 26.7414 21.828 26.6137 22.2981L26.6083 22.3222C26.4984 22.7148 26.3991 23.2004 26.3334 23.6946L26.3281 23.7514C26.2642 24.249 26.2288 24.8241 26.2288 25.4079C26.2288 25.9193 26.2572 26.422 26.3104 26.9197L26.305 26.8577C26.4292 28.0423 26.603 29.0858 26.8318 30.1103L26.7964 29.9192V29.9347C26.7964 30.0105 26.8336 30.0776 26.8904 30.1224C26.9507 30.1654 27.0269 30.1913 27.1103 30.1913H27.1245C27.996 30.1006 28.8527 30.0174 29.6946 29.9416C30.5365 29.8658 31.3772 29.7975 32.2168 29.7367C32.3906 29.7109 32.5485 29.6644 32.6939 29.5972L32.6833 29.6007C32.8323 29.5197 32.9564 29.413 33.054 29.2856L33.0558 29.2821C34.2016 27.8581 35.3332 26.5942 36.5269 25.3906L36.5127 25.4061C37.717 24.1939 39.0136 23.085 40.3989 22.0846L40.4823 22.0261C41.1811 21.5043 41.9739 20.9809 42.7969 20.5005L42.9122 20.4385C43.6909 19.9839 44.5902 19.5965 45.5391 19.3244L45.6224 19.3037C46.1528 19.1333 46.7665 19.0196 47.4032 18.9869H47.421C47.4848 18.9835 47.5611 18.9818 47.6356 18.9818C48.2209 18.9818 48.7814 19.0833 49.2993 19.2693L49.2656 19.259C49.9822 19.4777 50.5853 19.8806 51.0358 20.4092L51.0411 20.4161C51.4739 20.9482 51.8109 21.5766 52.0131 22.2602L52.022 22.2981C52.2596 22.9886 52.3962 23.7841 52.3962 24.6089V24.6106V24.6296C52.3962 25.4371 52.3448 26.2344 52.2472 27.0161L52.2561 26.9231C52.2253 27.1343 52.194 27.3358 52.1621 27.5275C52.1231 27.7651 52.0734 27.9683 52.0131 28.168L52.022 28.1319C51.9971 28.3695 51.8641 28.571 51.6743 28.6967L51.6708 28.6984C51.5218 28.8 51.3355 28.8602 51.1351 28.8602C51.0854 28.8602 51.0358 28.8568 50.9879 28.8499H50.9932C50.7467 28.8241 50.5338 28.707 50.3866 28.5348L50.3848 28.5331C50.2625 28.385 50.1862 28.1956 50.1862 27.989C50.1862 27.9408 50.1897 27.8943 50.1986 27.8478V27.8529C50.2293 27.4902 50.2761 27.12 50.3387 26.7423C50.3973 26.4083 50.431 26.0243 50.4327 25.6317C50.4469 25.432 50.4558 25.1978 50.4558 24.9636C50.4558 24.7294 50.4469 24.4953 50.431 24.2628L50.4327 24.2938C50.3955 23.7927 50.3299 23.3347 50.2341 22.8887L50.2465 22.9576C50.1365 22.181 49.6824 21.525 49.0421 21.1272L49.0315 21.1203C48.6165 20.9103 48.1234 20.7863 47.6019 20.7863C47.2791 20.7863 46.9669 20.8345 46.6725 20.9223L46.6955 20.9172C45.9364 21.0773 45.2642 21.3115 44.638 21.6197L44.6859 21.5973C44.0628 21.8992 43.4402 22.2315 42.8182 22.5943C41.5429 23.4242 40.429 24.2903 39.395 25.2357L39.4074 25.2236C38.3491 26.1913 37.3369 27.2044 36.3708 28.2628C36.184 28.4441 35.9971 28.6404 35.8103 28.8516C35.6235 29.0629 35.452 29.2592 35.2959 29.4405V29.4474C35.2959 29.4715 35.2871 29.4922 35.2729 29.5077C35.2569 29.5335 35.2481 29.5645 35.2481 29.5972C35.2481 29.6058 35.2481 29.6127 35.2498 29.6213V29.6196H35.7642C38.4177 29.6523 40.9913 29.8331 43.5206 30.1534L43.1907 30.119C45.9719 30.4685 48.4533 30.992 50.8531 31.6996L50.5232 31.6153C51.8747 31.982 52.9833 32.3609 54.0635 32.7982L53.8648 32.7259C55.11 33.2235 56.1636 33.7487 57.1639 34.3462L57.0646 34.2911C57.6393 34.6544 58.1341 35.0126 58.6059 35.3983L58.5829 35.3793C59.0724 35.7788 59.507 36.211 59.9008 36.6776L59.9149 36.6949C60.6138 37.5024 61.0377 38.5528 61.0377 39.6996C61.0377 39.7512 61.0377 39.8029 61.0359 39.8528V39.8459C60.9366 41.0271 60.3814 42.0672 59.5442 42.8127L59.5407 42.8162C58.9447 43.3947 58.2689 43.8958 57.5311 44.3039L57.485 44.328C56.8181 44.6982 56.0323 45.0529 55.2182 45.3491L55.1029 45.3852C55.0248 45.4076 54.9326 45.4214 54.8404 45.4214C54.6985 45.4214 54.5637 45.3921 54.4431 45.337L54.4484 45.3388C54.2267 45.2423 54.0599 45.065 53.9837 44.8463L53.9819 44.8411C53.9376 44.7447 53.911 44.6311 53.911 44.5122C53.911 44.3934 53.9376 44.2798 53.9837 44.1782L53.9819 44.1834C54.0812 43.9509 54.2622 43.7684 54.4892 43.6651L54.4945 43.6634C54.8682 43.482 55.2495 43.3081 55.6385 43.1416C56.0625 42.9591 56.4208 42.7697 56.7613 42.5562L56.7294 42.5751C57.0575 42.384 57.3395 42.1894 57.6056 41.9759L57.5932 41.9845C57.858 41.7733 58.1176 41.5466 58.3718 41.3044C58.8135 40.8911 59.1061 40.3298 59.1647 39.7047V39.6944C59.1647 39.6909 59.1647 39.6858 59.1647 39.6806C59.1647 39.0538 58.9376 38.477 58.5581 38.0259L58.5616 38.031C58.2441 37.6006 57.8858 37.2286 57.4814 36.9049L57.4708 36.8963C57.0806 36.5847 56.646 36.285 56.1902 36.0164L56.1405 35.9889C55.1295 35.3501 53.9677 34.7698 52.7439 34.3083L52.6126 34.2653C51.6584 33.8933 50.4061 33.4904 49.1273 33.1495L48.8524 33.0875C47.5126 32.7546 46.1664 32.4676 44.8136 32.2265C43.6661 32.0079 42.2648 31.8305 40.8423 31.7341L40.727 31.7272C39.6368 31.6664 38.5389 31.6158 37.4333 31.5757C36.3277 31.5355 35.2297 31.4976 34.1395 31.462C34.1342 31.462 34.1271 31.462 34.1218 31.462C33.9781 31.462 33.8397 31.4879 33.7103 31.5326L33.7191 31.5292C33.595 31.574 33.4956 31.6635 33.4407 31.7754L33.4389 31.7789L31.4506 34.6682C30.7967 35.6359 30.1581 36.6036 29.535 37.5713C29.4711 37.6367 29.4285 37.7228 29.4179 37.8193V37.821C29.4126 37.8502 29.409 37.8864 29.409 37.9208C29.409 37.9897 29.4197 38.0569 29.441 38.1206L29.4392 38.1154C29.9997 39.3552 30.5838 40.5794 31.1916 41.7882C31.7994 42.997 32.461 44.1834 33.1764 45.3474C33.8918 46.5114 34.6468 47.6449 35.4414 48.7481C36.236 49.8513 37.0844 50.9165 37.9867 51.9439C38.7813 52.8376 39.583 53.6503 40.4237 54.4235L40.4397 54.4372C41.2645 55.1966 42.1726 55.8836 43.1464 56.4811L43.2191 56.5224C43.6412 56.7997 44.1254 57.0579 44.6327 57.2715L44.6912 57.2938C45.1648 57.4953 45.7147 57.6245 46.2911 57.6554H46.3035C46.3692 57.6606 46.4437 57.6641 46.5217 57.6641C46.9474 57.6641 47.3465 57.559 47.6959 57.3765L47.6835 57.3834C48.0879 57.1544 48.4143 56.8307 48.6342 56.4432L48.6413 56.4312C48.8736 56.073 49.0581 55.6563 49.1716 55.2138L49.1787 55.1845C49.2763 54.8109 49.3667 54.3408 49.4288 53.8638L49.4359 53.8018C49.4767 53.3628 49.498 52.8531 49.498 52.3382C49.498 51.3103 49.4075 50.3012 49.2337 49.3215L49.2497 49.4265C49.0002 47.9905 48.6886 46.5624 48.3149 45.1425C47.8786 43.6915 47.3802 42.2709 46.8197 40.8808C46.2592 39.4906 45.652 38.1143 44.9981 36.7517C44.936 36.6535 44.8828 36.5416 44.8456 36.4211L44.842 36.4107C44.8154 36.3505 44.8012 36.2799 44.8012 36.2058C44.8012 36.1576 44.8083 36.1111 44.8207 36.0664V36.0698C44.8207 36.0664 44.8207 36.0629 44.8207 36.0595C44.8207 35.8494 44.9094 35.66 45.0549 35.5257C45.2003 35.3811 45.3936 35.2829 45.61 35.2536H45.6154C45.6579 35.2467 45.7058 35.2433 45.7555 35.2433C45.9098 35.2433 46.0535 35.2812 46.1812 35.3466L46.1758 35.3449C46.3674 35.443 46.5146 35.5997 46.5944 35.7926L46.5962 35.7978C46.8138 36.281 47.0473 36.7723 47.2968 37.2717C47.5463 37.771 47.7799 38.275 47.9974 38.7835C48.6513 40.3252 49.2432 41.8967 49.7729 43.4981C50.2429 44.8549 50.6651 46.5028 50.9595 48.1954L50.9879 48.3951C51.1564 49.3852 51.2894 50.594 51.3568 51.8217L51.3604 51.9112C51.371 52.0989 51.3763 52.321 51.3763 52.5431C51.3763 53.566 51.2504 54.5612 51.0145 55.5134L51.0322 55.4273C50.9696 55.6695 50.8915 55.9215 50.7981 56.1832C50.6899 56.4863 50.5782 56.736 50.454 56.977L50.4718 56.9391C50.0585 57.8776 49.3401 58.6266 48.4409 59.0812L48.416 59.0932C47.8502 59.3636 47.1851 59.5237 46.4827 59.5237C46.0907 59.5237 45.7111 59.4738 45.3493 59.3825L45.3794 59.3894C44.4394 59.2 43.6057 58.878 42.8519 58.4406L42.8892 58.4613C42.0396 57.9688 41.3159 57.4833 40.6259 56.9546L40.6703 56.9874C39.3435 55.9714 38.1676 54.8866 37.0998 53.7054L37.0732 53.6762C35.983 52.4674 34.9554 51.2133 33.9905 49.9138C33.0256 48.6138 32.0306 47.1071 31.1189 45.5471L30.9841 45.2974C30.0653 43.7098 29.2169 42.07 28.4388 40.378L28.3448 40.1972L28.1852 39.9355ZM27.2522 31.9528L28.4193 35.6721C28.8864 34.9466 29.3458 34.2509 29.7975 33.5851C30.2492 32.9193 30.7239 32.2392 31.2217 31.5447L27.2522 31.9528ZM37.8536 41.4765C37.8448 41.4765 37.8341 41.4765 37.8217 41.4765C37.0767 41.4765 36.401 41.1821 35.915 40.7051C35.4378 40.2747 35.1399 39.6617 35.1399 38.9815C35.1399 38.9333 35.1416 38.8868 35.1434 38.8386V38.8455C35.1434 38.8334 35.1434 38.8197 35.1434 38.8059C35.1434 38.0913 35.4485 37.4473 35.938 36.9859C36.4134 36.5106 37.0767 36.2144 37.8128 36.2144H37.8554H37.8536H37.8856C38.6305 36.2144 39.3063 36.5089 39.7923 36.9859C40.296 37.4422 40.61 38.0913 40.61 38.8128V38.8472V38.8455V38.8782C40.61 39.598 40.296 40.2471 39.7941 40.7034L39.7923 40.7051C39.3045 41.1821 38.6305 41.4765 37.8856 41.4765C37.8767 41.4765 37.8678 41.4765 37.8589 41.4765H37.8607H37.8536Z" fill="#182F43"/>
</svg>
