<svg width="30" height="30" viewBox="0 0 30 30" fill="none" xmlns="http://www.w3.org/2000/svg">
<circle cx="15" cy="15" r="14.5" fill="#FFB700" stroke="#182F43"/>
<path fill-rule="evenodd" clip-rule="evenodd" d="M16.7938 6.81945C16.5801 6.91857 16.2781 7.10505 16.1226 7.2339C15.8068 7.49547 13.6352 10.5242 10.3653 15.2634C9.84173 16.0223 9.43911 16.6283 9.13058 17.1079C8.44226 18.1779 7.83468 19.4035 8.04655 20.658V20.658C8.23709 21.7862 8.76672 22.5629 9.53553 23.1172C11.4648 24.5081 13.6852 23.9313 14.6761 23.0946C15.1118 22.7266 15.3924 22.3398 19.6623 16.2211C22.1497 12.6569 22.1599 12.6408 22.1159 12.3804C22.0822 12.1807 22.0203 12.0774 21.8541 11.9435C21.668 11.7936 21.5945 11.7751 21.3482 11.8167L21.06 11.8654L17.5275 16.8802C15.1401 20.2694 14.0869 21.82 13.7164 22.1226C13.5632 22.2477 13.2394 22.4281 12.9969 22.5235C12.1493 22.8566 11.2421 22.7358 10.4762 22.188C9.75655 21.6732 9.33481 20.8686 9.33567 20.0123C9.33656 19.1123 9.2454 19.2641 13.164 13.6381C17.144 7.92386 17.0161 8.08139 17.7804 7.9523C18.4419 7.84059 19.0181 8.07385 19.4358 8.62239C19.6975 8.96602 19.815 9.68856 19.6789 10.1169C19.5716 10.4549 13.9211 18.5611 13.6436 18.7752C13.2222 19.1004 12.6478 18.9089 12.5645 18.4153C12.5349 18.2405 12.5639 18.0856 12.6626 17.8902C12.7395 17.7378 13.413 16.751 14.1593 15.6974C15.0542 14.4336 15.5188 13.7217 15.5243 13.6056C15.5363 13.3529 15.3083 13.0258 15.0653 12.947C14.8092 12.8641 14.6404 12.8902 14.4417 13.0433C14.357 13.1087 13.6285 14.1015 12.8228 15.2497C11.2635 17.4718 11.1542 17.6793 11.1719 18.3832C11.1862 18.947 11.6007 19.6626 12.0961 19.9785C12.5935 20.2958 13.2774 20.4044 13.7684 20.2441C14.48 20.0119 14.4236 20.0805 17.641 15.535C19.4139 13.0302 20.7252 11.1153 20.8342 10.8717C21.1115 10.2523 21.1645 9.67032 21.0081 8.96247C20.8526 8.25882 20.6149 7.83141 20.1179 7.36197C19.2444 6.53689 17.8823 6.31458 16.7938 6.81945Z" fill="#182F43"/>
</svg>
