<svg width="27" height="27" viewBox="0 0 27 27" fill="none" xmlns="http://www.w3.org/2000/svg">
<path d="M18.559 12.2344C18.0156 12.2344 17.5959 12.3907 17.2978 12.6981C16.9975 13.0048 16.8108 13.422 16.7344 13.9498H20.3771C20.3374 13.388 20.1499 12.9626 19.8121 12.6721C19.477 12.3808 19.0584 12.2344 18.559 12.2344Z" fill="#FBFBFF"/>
<path d="M10.5828 14.3662C10.3154 14.2424 9.93783 14.1795 9.45409 14.1748H7.03125V17.183H9.41658C9.90663 17.183 10.2858 17.1189 10.5596 16.985C11.0532 16.7389 11.3006 16.2708 11.3006 15.5754C11.3006 14.989 11.0611 14.5835 10.5828 14.3662Z" fill="#FBFBFF"/>
<path d="M10.6132 12.0265C10.9185 11.8404 11.071 11.5094 11.071 11.0341C11.071 10.509 10.8692 10.1605 10.4646 9.99299C10.1169 9.87636 9.67201 9.81641 9.13214 9.81641H7.03125V12.3063H9.41959C9.91073 12.3063 10.3077 12.213 10.6132 12.0265Z" fill="#FBFBFF"/>
<path d="M13.5 0C6.04423 0 0 6.04423 0 13.5C0 20.9558 6.04423 27 13.5 27C20.9558 27 27 20.9558 27 13.5C27 6.04423 20.9558 0 13.5 0ZM16.2667 8.32471H20.8123V9.45372H20.812H16.2667V8.32471ZM13.1791 17.5378C12.9653 17.889 12.6998 18.1855 12.3806 18.4242C12.0211 18.7005 11.5957 18.8897 11.1067 18.9909C10.6161 19.0922 10.085 19.1434 9.51313 19.1434H4.42982V7.85602H9.88107C11.2551 7.87847 12.2292 8.27653 12.8044 9.0584C13.1496 9.53777 13.3204 10.1132 13.3204 10.782C13.3204 11.4722 13.1474 12.0244 12.7989 12.4438C12.6051 12.679 12.3187 12.8931 11.9395 13.0861C12.5139 13.2963 12.9497 13.6273 13.2407 14.0831C13.5339 14.5373 13.6807 15.0889 13.6807 15.7364C13.6804 16.4066 13.5153 17.0072 13.1791 17.5378ZM22.568 15.3446H16.6812C16.7138 16.1572 16.9941 16.7255 17.526 17.0505C17.8469 17.2544 18.2359 17.3541 18.6914 17.3541C19.1716 17.3541 19.5631 17.2325 19.8645 16.9831C20.0288 16.8509 20.1736 16.6642 20.2987 16.4285H22.4563C22.3999 16.9084 22.1401 17.3952 21.673 17.8899C20.9497 18.6761 19.9352 19.0703 18.6323 19.0703C17.5559 19.0703 16.6075 18.738 15.784 18.0755C14.9636 17.4105 14.5513 16.3324 14.5513 14.8365C14.5513 13.434 14.9214 12.3603 15.6639 11.6132C16.409 10.8644 17.3708 10.4918 18.5565 10.4918C19.2592 10.4918 19.8925 10.6175 20.4578 10.8699C21.0212 11.1226 21.4866 11.5204 21.8535 12.0671C22.1853 12.5487 22.3988 13.1052 22.4982 13.7395C22.5532 14.1086 22.5781 14.6443 22.568 15.3446Z" fill="#FBFBFF"/>
</svg>
