<svg width="285" height="240" viewBox="0 0 285 240" fill="none" xmlns="http://www.w3.org/2000/svg">
<path d="M217.616 164.494C217.707 165.132 217.563 165.781 217.211 166.32C216.602 167.537 215.588 167.942 216.196 168.573C216.811 169.073 217.494 169.483 218.225 169.79C218.225 169.79 218.63 173.847 220.478 175.672C222.326 177.498 226.563 175.267 226.563 175.267L228.591 178.917L233.459 176.078C233.459 176.078 232.242 174.861 230.823 170.601C229.403 166.342 227.172 163.3 222.912 162.894C218.653 162.488 217.616 164.494 217.616 164.494Z" fill="white" stroke="#182F43" stroke-miterlimit="10"/>
<path d="M206.047 183.966L204.83 180.72C204.222 179.098 202.802 178.467 201.179 178.467C199.557 178.467 198.746 176.844 197.934 177.047C197.123 177.25 198.34 178.467 198.948 179.075C199.372 179.478 199.85 179.819 200.368 180.089C198.659 179.957 196.963 179.686 195.297 179.278C193.044 178.669 193.472 179.481 195.095 180.901C196.717 182.32 199.151 183.74 199.963 183.74C200.926 183.856 201.876 184.06 202.802 184.349L203.899 186.377L206.047 183.966Z" fill="white" stroke="#182F43" stroke-miterlimit="10"/>
<path d="M228.141 157.485L224.76 156.733C223.063 156.365 222.259 155.043 222.034 153.436C221.808 151.828 220.08 151.257 220.163 150.431C220.246 149.604 221.665 150.626 222.319 151.182C222.775 151.546 223.18 151.971 223.521 152.444C223.155 150.771 222.653 149.13 222.019 147.539C221.095 145.413 221.958 145.706 223.596 147.11C225.234 148.515 226.977 150.724 227.097 151.52C227.253 152.152 227.545 152.741 227.953 153.248L229.305 154.938L228.141 157.485Z" fill="white" stroke="#182F43" stroke-miterlimit="10"/>
<path d="M204.018 201.612L202.801 184.371C203.278 184.068 203.817 183.874 204.378 183.804C204.939 183.734 205.509 183.789 206.046 183.966L211.305 198.772C211.305 198.772 207.263 204.451 204.018 201.612Z" fill="#ECECF0" stroke="#182F43" stroke-miterlimit="10"/>
<path d="M219.237 215.607C219.237 215.607 211.725 212.97 211.117 216.013C210.508 219.055 220.049 222.714 223.294 222.511C226.539 222.308 223.497 217.237 219.237 215.607Z" fill="white" stroke="#182F43" stroke-miterlimit="10"/>
<path d="M232.445 209.521C232.445 209.521 220.478 202.009 217.233 200.394C213.987 198.779 210.329 199.177 208.909 202.422C207.489 205.667 221.68 218.859 224.94 223.321C228.2 227.783 236.096 229 240.152 229C244.209 229 251.308 224.538 252.119 220.684C252.93 216.83 252.525 203.842 251.511 200.401C250.496 196.961 248.062 194.722 245.223 197.967C242.383 201.213 235.262 209.724 232.445 209.521Z" fill="#182F43"/>
<path d="M231.65 209.868C231.65 209.868 227.803 219.191 228.246 222.301" stroke="white" stroke-width="0.5" stroke-miterlimit="10"/>
<path d="M248.521 208.538C248.521 208.538 251.773 212.384 251.916 216.231" stroke="white" stroke-width="0.5" stroke-miterlimit="10"/>
<path d="M233.641 175.041C233.641 175.041 229.178 177.475 227.353 179.503C225.528 181.531 207.07 197.961 205.237 198.975C203.404 199.989 203.209 204.045 206.454 204.451C209.699 204.857 225.528 196.338 225.528 196.338C225.528 196.338 224.108 199.989 225.528 201.206C226.947 202.423 230.598 203.459 231.004 205.06C231.41 206.66 230.801 209.927 232.829 211.55C234.858 213.173 241.145 213.804 244.999 210.739C248.853 207.674 248.65 200.394 247.839 195.527C247.027 190.659 248.447 172.81 247.433 168.753C246.419 164.697 228.164 154.961 228.164 154.961L227.353 158.003C227.353 158.003 239.523 166.928 239.726 167.769C239.928 168.611 233.641 175.041 233.641 175.041Z" fill="#ECECF0" stroke="#182F43" stroke-miterlimit="10"/>
<path d="M225.525 196.338L232.902 193.911" stroke="#182F43" stroke-miterlimit="10" stroke-linecap="round"/>
<path d="M226.331 195.844L232.904 197.97" stroke="#182F43" stroke-miterlimit="10" stroke-linecap="round"/>
<path d="M224.106 154.756C223.068 153.997 221.807 153.605 220.521 153.642C219.236 153.679 218 154.142 217.007 154.959C213.153 157.799 215.587 162.058 216.601 163.275L217.615 164.492C217.615 164.492 220.658 169.969 223.7 172.2C226.742 174.431 233.639 175.039 233.639 175.039C233.639 175.039 236.275 177.676 235.892 185.181C235.509 192.685 232.85 196.742 237.515 202.827C242.18 208.912 250.473 211.165 254.53 204.855C258.586 198.545 259.601 192.084 254.733 185.586C249.865 179.088 241.752 176.256 239.521 175.242C237.29 174.228 236.478 172.605 236.478 171.794C236.478 170.983 240.129 161.653 236.478 156.379C232.827 151.106 227.351 152.924 224.106 154.756Z" fill="#182F43"/>
<path d="M223.22 155.72C223.22 155.72 220.26 154.683 219.667 158.822C219.073 162.962 221.672 170.128 227.66 172.585" stroke="white" stroke-width="0.5" stroke-miterlimit="10" stroke-linecap="round"/>
<path d="M221.883 161.931C223.091 164.927 224.895 167.646 227.186 169.924C229.537 172.093 232.468 173.531 235.623 174.063" stroke="white" stroke-width="0.5" stroke-miterlimit="10" stroke-linecap="round"/>
<path d="M237.275 177.175C237.275 177.175 242.744 183.237 240.678 191.23C238.613 199.223 243.338 207.351 249.408 206.765C255.477 206.179 255.47 197.751 255.47 197.751" stroke="white" stroke-width="0.5" stroke-miterlimit="10" stroke-linecap="round"/>
<path d="M236.239 175.987C236.239 175.987 239.492 176.138 244.375 182.793C249.258 189.449 246.298 195.369 246.892 200.402C247.485 205.435 251.774 204.541 252.811 202.468" stroke="white" stroke-width="0.5" stroke-miterlimit="10" stroke-linecap="round"/>
<path d="M46.8164 182.865C46.8164 182.865 54.5009 184.786 51.7259 186.067C48.951 187.348 43.6145 187.561 40.6577 186.707C37.7009 185.854 37.2424 182.652 39.5904 182.225C41.9385 181.798 46.8164 182.865 46.8164 182.865Z" fill="white" stroke="#182F43" stroke-linecap="round" stroke-linejoin="round"/>
<path d="M23.1221 207.625L15.0107 209.546L15.8646 214.242L17.7857 214.669C17.7857 214.669 17.1453 220.203 17.9992 222.575C18.853 224.947 19.4934 229.192 21.1615 228.552C22.8296 227.911 21.8019 218.946 22.4422 217.879C23.4202 216.593 24.4903 215.381 25.6441 214.25L23.5095 208.487L23.1221 207.625Z" fill="white" stroke="#182F43" stroke-linecap="round" stroke-linejoin="round"/>
<path d="M17.9434 209.05C17.9434 209.05 18.9158 225.383 21.2006 228.546" stroke="#182F43" stroke-linecap="round" stroke-linejoin="round"/>
<path d="M38.2798 184.359C38.2798 184.359 53.4353 188.202 60.4794 191.617C67.5235 195.032 71.3737 200.155 67.1045 203.998C62.8354 207.84 44.4701 211.682 39.1336 213.176C33.7972 214.67 24.8319 216.339 24.8319 216.339L22.6895 206.899L41.9086 202.891L28.2473 197.554C28.2473 197.554 23.3377 195.847 25.6858 190.724C28.0338 185.601 38.2798 184.359 38.2798 184.359Z" fill="#182F43"/>
<path d="M41.9062 202.932C41.9062 202.932 53.6464 205.066 58.1291 205.066" stroke="white" stroke-width="0.5" stroke-miterlimit="10" stroke-linecap="round"/>
<path d="M41.4805 182.438L46.6035 184.573C49.1992 181.99 52.2353 179.891 55.5687 178.375C60.9051 176.003 67.1033 174.105 66.0361 167.915C64.9688 161.725 60.0513 160.871 55.1418 160.871H46.6035L41.4805 182.438Z" fill="#182F43"/>
<path d="M63.6633 128.876C63.6633 128.876 68.0431 129.856 68.4068 129.358C68.7705 128.86 73.1503 127.097 74.0121 126.686C74.8738 126.275 75.364 125.303 74.4232 125.105C73.4824 124.907 69.2369 126.204 69.2369 126.204L71.9565 122.37C71.9565 122.37 76.0992 120.188 75.3877 119.365C74.6762 118.543 72.6602 119.365 71.5929 119.365C70.5256 119.365 66.7624 119.658 65.4105 121.041C64.0586 122.425 60.999 125.991 60.999 125.991L63.6633 128.876Z" fill="white" stroke="#182F43" stroke-linecap="round" stroke-linejoin="round"/>
<path d="M55.2522 138.173L64.9685 129.777L61.5295 127.255L46.8562 133.445C42.4131 134.655 37.3059 136.228 35.9303 137.398C33.3688 139.533 33.3688 146.363 33.3688 147.004C33.3688 147.644 29.5424 153.826 24.1901 158.949C18.8379 164.072 10.3154 168.128 8.18079 170.018C6.04621 171.907 8.18078 186.035 14.3711 192.439C18.485 196.533 23.2447 199.922 28.4593 202.471C28.4593 202.471 42.5475 184.541 44.271 181.339C45.9945 178.137 46.4056 177.489 46.4056 177.489C46.4056 177.489 51.742 168.31 51.3151 165.535C50.8882 162.76 50.6747 151.02 50.6747 148.458C50.6747 145.897 54.517 140.347 55.1574 138.426C55.1732 138.363 55.2127 138.268 55.2522 138.173Z" fill="#FFB700" stroke="#182F43" stroke-linecap="round" stroke-linejoin="round"/>
<path d="M33.3691 146.996C33.3691 146.996 38.2471 140.458 42.3739 138.3" stroke="#182F43" stroke-miterlimit="10" stroke-linecap="round"/>
<path d="M69.2382 134.616C69.5868 136.228 69.659 137.888 69.4517 139.525C69.0248 141.446 71.1593 142.3 70.092 143.154C69.0248 144.008 67.9575 145.075 67.9575 145.075L65.5857 149.771C64.9453 151.052 63.214 152.76 61.7356 152.546C60.2572 152.333 56.826 149.771 55.5453 149.771C54.2645 149.771 51.0627 151.479 51.0627 151.479C51.0627 151.479 50.6357 145.075 50.6357 142.727C50.6357 140.379 53.4107 139.739 53.4107 139.739C53.4107 139.739 55.3318 135.683 57.8933 133.762C60.4548 131.841 67.1036 131.627 69.2382 134.616Z" fill="white" stroke="#182F43" stroke-linecap="round" stroke-linejoin="round"/>
<path d="M57.2754 146.783C57.2754 146.783 58.5561 148.277 59.41 148.277H60.2638C60.5373 149.232 60.8944 150.161 61.3311 151.052" stroke="#182F43" stroke-linecap="round" stroke-linejoin="round"/>
<path d="M69.2374 138.688C68.823 138.987 68.476 139.37 68.2186 139.811C67.9612 140.252 67.7993 140.742 67.7432 141.25" stroke="#182F43" stroke-linecap="round" stroke-linejoin="round"/>
<path d="M57.2765 146.784C57.2765 146.784 54.0747 145.503 51.7424 140.807C49.4102 136.111 48.1136 130.134 53.877 125.652C59.6404 121.169 64.7713 123.517 67.317 124.371C69.8626 125.225 73.9341 127.359 72.4399 131.842C70.9457 136.325 64.1151 136.752 64.3285 137.819C64.542 138.886 66.7003 140.981 65.3958 141.448C64.0914 141.914 62.8264 142.728 62.8264 143.369C62.8264 144.009 62.6209 145.741 61.9726 145.741C61.3243 145.741 59.4111 141.471 57.9169 142.752C56.4227 144.033 57.2765 146.784 57.2765 146.784Z" fill="#182F43"/>
<path d="M51.7255 140.806L53.2593 150.839L56.4611 157.883H49.8439C48.7216 154.436 47.7978 150.928 47.0769 147.376C46.8287 146.042 46.9645 144.665 47.4684 143.406C47.9722 142.146 48.8234 141.055 49.923 140.261L51.7255 140.806Z" fill="white" stroke="#182F43" stroke-linecap="round" stroke-linejoin="round"/>
<path d="M83.7529 175.602C83.7529 175.602 85.674 171.546 86.3144 171.546C86.9548 171.546 91.0105 169.174 91.8485 168.771C92.6865 168.368 93.7696 168.558 93.3427 169.412C92.9158 170.265 89.287 172.827 89.287 172.827L93.9831 173.04C93.9831 173.04 98.2523 171.119 98.4657 172.187C98.6792 173.254 96.758 174.321 96.094 175.175C95.4299 176.029 92.9316 178.812 90.971 179.017C89.0103 179.223 84.3538 179.452 84.3538 179.452L83.7529 175.602Z" fill="white" stroke="#182F43" stroke-linecap="round" stroke-linejoin="round"/>
<path d="M39.1318 170.263C39.1318 170.263 60.0507 190.123 62.3988 190.336C64.7468 190.55 85.4601 180.944 85.4601 180.944L83.7525 174.532L63.0471 179.276C63.0471 179.276 46.6029 158.136 45.1087 158.136C43.6145 158.136 41.053 160.27 41.053 160.27" fill="#FFB700"/>
<path d="M39.1318 170.263C39.1318 170.263 60.0507 190.123 62.3988 190.336C64.7468 190.55 85.4601 180.944 85.4601 180.944L83.7525 174.532L63.0471 179.276C63.0471 179.276 46.6029 158.136 45.1087 158.136C43.6145 158.136 41.053 160.27 41.053 160.27" stroke="#182F43" stroke-linecap="round" stroke-linejoin="round"/>
<path d="M39.3455 188.415C39.3455 188.415 26.7515 196.321 23.7631 197.38C20.7747 198.44 19.2646 199.088 19.2646 199.088C19.2646 199.088 21.2965 201.642 22.427 202.195C25.0596 203.515 28.4592 202.503 28.4592 202.503L39.3455 188.415Z" fill="#FFB700" stroke="#182F43" stroke-linecap="round" stroke-linejoin="round"/>
<path d="M201.981 194.104L202.01 190.691L159.538 180.369L85.5802 205.116V208.67C85.5771 208.841 85.6346 209.008 85.7425 209.141C85.872 209.292 86.0403 209.406 86.2295 209.469L127.807 226.629C128.147 226.762 128.502 226.853 128.864 226.9C129.672 227.015 130.494 226.994 131.295 226.837C131.662 226.769 132.019 226.659 132.36 226.508L201.486 194.936C201.63 194.885 201.753 194.789 201.836 194.661C201.949 194.499 202.001 194.301 201.981 194.104Z" fill="white"/>
<path opacity="0.2" d="M201.831 194.669C201.944 194.507 201.995 194.311 201.977 194.115L202.006 190.702L159.534 180.368L130.916 189.941V226.882C131.041 226.882 131.17 226.849 131.291 226.824C131.657 226.756 132.015 226.645 132.356 226.495L201.482 194.935C201.624 194.887 201.747 194.793 201.831 194.669Z" fill="black"/>
<path opacity="0.2" d="M129.773 227.037V221.306H128.324V226.858C128.794 226.994 129.283 227.055 129.773 227.037V227.037Z" fill="black"/>
<path d="M201.981 194.104L202.01 190.691L159.538 180.369L85.5802 205.116V208.67C85.5771 208.841 85.6346 209.008 85.7425 209.141C85.872 209.292 86.0403 209.406 86.2295 209.469L127.807 226.629C128.147 226.762 128.502 226.853 128.864 226.9C129.672 227.015 130.494 226.994 131.295 226.837C131.662 226.769 132.019 226.659 132.36 226.508L201.486 194.936C201.63 194.885 201.753 194.789 201.836 194.661C201.949 194.499 202.001 194.301 201.981 194.104Z" stroke="#263238" stroke-miterlimit="10"/>
<path d="M180.251 186.449L174.811 185.071C174.731 185.05 174.648 185.036 174.566 185.029C174.478 185.029 174.387 185.029 174.299 185.029C174.216 185.032 174.132 185.039 174.049 185.05C173.98 185.061 173.912 185.078 173.846 185.1C173.799 185.114 173.758 185.14 173.725 185.175C173.718 185.187 173.715 185.201 173.715 185.214C173.715 185.228 173.718 185.242 173.725 185.254C173.744 185.289 173.775 185.317 173.812 185.333C173.87 185.364 173.931 185.387 173.995 185.4L179.435 186.79C179.519 186.808 179.604 186.822 179.689 186.831H179.959C180.044 186.828 180.129 186.819 180.213 186.806C180.283 186.797 180.351 186.78 180.417 186.756C180.461 186.741 180.501 186.715 180.534 186.682C180.542 186.669 180.546 186.655 180.546 186.64C180.546 186.625 180.542 186.611 180.534 186.598C180.512 186.563 180.48 186.534 180.442 186.515C180.382 186.486 180.319 186.464 180.255 186.449" fill="white"/>
<path d="M196.186 191.147L187.009 188.808H185.506C185.34 188.808 185.178 188.808 185.015 188.808C184.853 188.808 184.691 188.787 184.537 188.767C184.383 188.746 184.225 188.725 184.075 188.7C183.925 188.675 183.788 188.642 183.659 188.608L167.656 184.501L167.331 184.401C167.231 184.363 167.144 184.326 167.065 184.288C166.995 184.252 166.928 184.21 166.865 184.163C166.817 184.127 166.775 184.083 166.74 184.034L166.42 183.568L158.204 181.487L95.6377 203.05L135.126 218.171L196.186 191.147Z" fill="#AA4337" stroke="white" stroke-width="3" stroke-miterlimit="10"/>
<path d="M202.13 190.411C202.027 190.285 201.896 190.185 201.747 190.119C201.52 190.009 201.281 189.925 201.035 189.87L160.96 179.881C160.708 179.82 160.452 179.777 160.194 179.752C159.917 179.728 159.639 179.718 159.362 179.723C159.091 179.726 158.822 179.747 158.554 179.785C158.323 179.816 158.094 179.868 157.872 179.939L86.5359 204.137C86.2727 204.22 86.0221 204.339 85.7909 204.491C85.6343 204.581 85.5094 204.718 85.433 204.882C85.4062 204.944 85.3967 205.013 85.4055 205.08C85.4143 205.147 85.4411 205.211 85.483 205.265C85.61 205.418 85.7771 205.533 85.9657 205.598L127.81 222.541C128.15 222.675 128.505 222.767 128.867 222.816C129.675 222.931 130.497 222.91 131.298 222.753C131.664 222.685 132.022 222.575 132.363 222.424L201.813 190.977C201.958 190.924 202.082 190.826 202.167 190.698C202.187 190.651 202.195 190.6 202.188 190.549C202.181 190.499 202.161 190.451 202.13 190.411ZM135.122 218.171L95.6381 203.051L158.2 181.454L166.416 183.535L166.737 184.001C166.771 184.05 166.814 184.094 166.861 184.13C166.925 184.177 166.991 184.219 167.061 184.255C167.14 184.293 167.228 184.33 167.328 184.368L167.652 184.467L183.647 188.592C183.78 188.625 183.921 188.659 184.063 188.684C184.204 188.709 184.367 188.733 184.525 188.75C184.683 188.767 184.841 188.783 185.003 188.792C185.166 188.8 185.328 188.792 185.494 188.792H186.997L196.174 191.131L135.122 218.171ZM173.72 185.163C173.753 185.127 173.795 185.102 173.841 185.088C173.907 185.065 173.976 185.048 174.045 185.038C174.128 185.026 174.211 185.019 174.295 185.017C174.382 185.017 174.474 185.017 174.561 185.017C174.644 185.024 174.726 185.038 174.807 185.058L180.246 186.436C180.311 186.452 180.374 186.474 180.433 186.503C180.471 186.521 180.503 186.55 180.525 186.586C180.533 186.598 180.537 186.613 180.537 186.628C180.537 186.642 180.533 186.657 180.525 186.669C180.492 186.703 180.452 186.728 180.409 186.744C180.342 186.768 180.274 186.784 180.205 186.794C180.12 186.807 180.036 186.815 179.951 186.819H179.68C179.595 186.81 179.51 186.796 179.426 186.777L173.987 185.387C173.923 185.374 173.861 185.352 173.804 185.321C173.766 185.305 173.736 185.277 173.716 185.242C173.711 185.229 173.709 185.215 173.71 185.201C173.712 185.187 173.717 185.174 173.724 185.163H173.72ZM113.172 211.441C113.075 211.519 112.965 211.581 112.848 211.624C112.695 211.681 112.538 211.723 112.377 211.749C112.206 211.782 112.032 211.8 111.857 211.803C111.688 211.808 111.518 211.799 111.349 211.778C111.207 211.757 111.068 211.721 110.933 211.67C110.832 211.633 110.739 211.575 110.663 211.499C110.638 211.473 110.619 211.443 110.608 211.409C110.596 211.375 110.592 211.339 110.596 211.304C110.617 211.223 110.665 211.152 110.733 211.104C110.83 211.024 110.94 210.962 111.058 210.921C111.21 210.864 111.368 210.822 111.528 210.796C111.699 210.767 111.871 210.75 112.044 210.746C112.213 210.742 112.381 210.75 112.548 210.771C112.69 210.791 112.83 210.826 112.964 210.875C113.066 210.909 113.158 210.966 113.235 211.041C113.261 211.066 113.282 211.097 113.294 211.131C113.306 211.165 113.31 211.201 113.306 211.237C113.288 211.319 113.24 211.392 113.172 211.441V211.441Z" fill="#263238"/>
<path d="M112.958 210.875C112.824 210.826 112.684 210.791 112.542 210.771C112.375 210.75 112.207 210.742 112.039 210.746C111.866 210.75 111.693 210.767 111.523 210.796C111.362 210.822 111.205 210.864 111.052 210.921C110.934 210.962 110.824 211.024 110.728 211.104C110.659 211.152 110.611 211.223 110.59 211.304C110.586 211.339 110.59 211.375 110.602 211.409C110.613 211.443 110.632 211.474 110.657 211.5C110.734 211.575 110.826 211.634 110.927 211.67C111.062 211.721 111.201 211.757 111.344 211.778C111.512 211.8 111.682 211.808 111.851 211.803C112.026 211.8 112.2 211.782 112.372 211.749C112.532 211.723 112.69 211.681 112.842 211.624C112.959 211.581 113.069 211.52 113.166 211.441C113.233 211.391 113.279 211.319 113.296 211.237C113.3 211.201 113.296 211.165 113.284 211.131C113.272 211.097 113.251 211.066 113.225 211.042C113.148 210.966 113.056 210.909 112.954 210.875" fill="white"/>
<path d="M104.898 189.025L105.934 190.777" stroke="#263238" stroke-miterlimit="10"/>
<path d="M93.0645 169.445L103.859 186.938" stroke="#263238" stroke-miterlimit="10"/>
<path d="M116.774 183.95L117.364 185.362" stroke="#263238" stroke-miterlimit="10"/>
<path d="M112.753 174.328L116.116 182.371" stroke="#263238" stroke-miterlimit="10"/>
<path d="M184.43 163.012L176.97 181.165" stroke="#263238" stroke-miterlimit="10"/>
<path d="M185.916 159L185 161.241" stroke="#263238" stroke-miterlimit="10"/>
<path d="M188.775 179.772L187.16 181.55" stroke="#263238" stroke-miterlimit="10"/>
<path d="M199.193 168.312L190.39 177.995" stroke="#263238" stroke-miterlimit="10"/>
<path d="M110.345 186.364L116.361 197.994" stroke="#263238" stroke-miterlimit="10"/>
<path d="M184.151 179.143L177.53 188.167" stroke="#263238" stroke-miterlimit="10"/>
<path d="M141.833 179.143L143.437 187.164" stroke="#263238" stroke-miterlimit="10"/>
<path d="M106.597 68.3735C109.531 68.3735 111.909 65.9954 111.909 63.0618C111.909 60.1282 109.531 57.75 106.597 57.75C103.663 57.75 101.285 60.1282 101.285 63.0618C101.285 65.9954 103.663 68.3735 106.597 68.3735Z" fill="white" stroke="#AA4337" stroke-width="0.5" stroke-miterlimit="10"/>
<path d="M108.278 62.7197H104.979C104.67 62.7197 104.373 62.8428 104.154 63.0618C103.935 63.2807 103.812 63.5778 103.812 63.8875V66.6789C104.618 67.3073 105.613 67.645 106.636 67.6374C107.658 67.6298 108.648 67.2773 109.446 66.637V63.9107C109.449 63.7554 109.421 63.6011 109.363 63.4567C109.306 63.3123 109.221 63.1808 109.112 63.0699C109.003 62.959 108.873 62.8709 108.73 62.8108C108.587 62.7507 108.433 62.7197 108.278 62.7197V62.7197Z" fill="#AA4337"/>
<path d="M106.57 62.2106C107.498 62.2106 108.25 61.4586 108.25 60.5311C108.25 59.6035 107.498 58.8516 106.57 58.8516C105.643 58.8516 104.891 59.6035 104.891 60.5311C104.891 61.4586 105.643 62.2106 106.57 62.2106Z" fill="#AA4337"/>
<path d="M121.092 157.941C122.16 155.209 120.81 152.128 118.078 151.061C115.345 149.993 112.265 151.343 111.197 154.075C110.129 156.808 111.479 159.888 114.212 160.956C116.944 162.023 120.025 160.674 121.092 157.941Z" fill="white" stroke="#AA4337" stroke-width="0.5" stroke-miterlimit="10"/>
<path d="M117.824 155.67H114.521C114.212 155.67 113.916 155.792 113.698 156.011C113.48 156.229 113.357 156.525 113.357 156.833V159.601C114.163 160.229 115.158 160.567 116.179 160.559C117.201 160.552 118.19 160.199 118.987 159.559V156.833C118.987 156.525 118.864 156.229 118.646 156.011C118.428 155.792 118.132 155.67 117.824 155.67Z" fill="#AA4337"/>
<path d="M116.117 155.158C116.449 155.158 116.774 155.059 117.05 154.875C117.326 154.69 117.542 154.428 117.669 154.121C117.796 153.814 117.829 153.476 117.764 153.151C117.699 152.825 117.539 152.526 117.305 152.291C117.07 152.056 116.77 151.896 116.445 151.831C116.119 151.766 115.781 151.8 115.474 151.927C115.167 152.054 114.905 152.269 114.721 152.545C114.536 152.821 114.438 153.146 114.438 153.478C114.438 153.699 114.481 153.917 114.565 154.121C114.65 154.325 114.773 154.51 114.929 154.666C115.085 154.822 115.271 154.946 115.474 155.03C115.678 155.114 115.896 155.158 116.117 155.158V155.158Z" fill="#AA4337"/>
<path d="M182.248 142.252C201.992 122.508 201.992 90.4974 182.248 70.7536C162.504 51.0097 130.493 51.0097 110.749 70.7536C91.0055 90.4974 91.0055 122.508 110.749 142.252C130.493 161.996 162.504 161.996 182.248 142.252Z" fill="white"/>
<path opacity="0.1" d="M182.248 142.249C201.992 122.506 201.992 90.4945 182.248 70.7506C162.504 51.0068 130.493 51.0068 110.749 70.7506C91.0055 90.4945 91.0055 122.506 110.749 142.249C130.493 161.993 162.504 161.993 182.248 142.249Z" fill="black"/>
<path d="M144.682 83.0976L149.483 85.2563L150.799 87.415L152.963 88.2571L153.2 90.5368L152.363 91.858L150.683 92.2163L147.082 90.774V90.3088L149.12 89.4714L148.399 86.9498L145.142 85.7495L143.705 83.8327L144.682 83.0976ZM174.922 138.531L171.084 136.972L166.39 135.293H162.668L159.202 134.571L155.359 135.413L153.2 135.53H151.879L149.362 136.972L146.961 137.93L143.705 135.893L144.542 132.534L142.504 131.692H140.104L139.745 130.612L139.983 128.454L139.145 127.253L137.466 127.49L137.001 128.691L134.963 128.812L133.162 126.662L132.427 123.773L134.228 120.414L137.708 120.652L138.666 121.494H140.108L141.909 120.414L143.467 120.879L145.626 124.601L146.468 124.485L146.226 121.722L145.51 120.284L145.747 118.004L150.185 116.083L150.785 111.645L152.707 110.086L154.265 107.327L155.466 107.085L158.225 105.285L158.346 104.326L156.424 104.447L156.066 103.484H154.759L152.721 103.95L153.679 102.391L157.866 101.191L158.825 100.111L160.504 102.749L161.588 103.833L163.268 103.368L162.547 101.809L160.025 100.009L157.145 96.7523L154.144 94.7099L151.265 94.2447L149.827 92.8071L147.906 92.3419L147.668 92.8071L147.426 96.2871L147.892 97.4874L146.85 101.335L144.449 99.4135L144.812 97.734L142.29 96.5337L141.211 95.217L141.811 92.2163L145.291 89.6947L145.533 86.8149L144.212 86.9358L143.37 85.8565L143.011 84.056L142.169 83.9351L141.704 85.8565L140.387 86.0984L139.787 81.9113L138.824 81.3111L137.145 80.59L135.219 81.5344L137.615 83.8188L138.08 85.8565L133.762 82.5998L130.762 79.3432L130.524 76.0865L127.403 75.1281L124.983 76.7379C124.402 77.091 123.801 77.4109 123.183 77.6962C122.236 77.922 121.273 78.0775 120.303 78.1615L119.838 80.2039L117.079 80.3248L117.321 81.6414L121.759 82.3626L124.039 84.8841V89.0713L122.718 92.7932L122.96 96.7523L119.601 102.633L118.88 111.389L119.959 116.432L121.517 120.27L123.318 120.512L122.718 118.591L121.759 117.148L121.159 114.51L122.239 114.268L123.918 118.591L125.123 122.475V125.597L127.403 128.356L131.497 131.315L137.736 132.994L139.657 134.795L141.095 136.711L143.253 138.033L145.896 138.754L148.534 138.633C148.534 138.633 148.413 139.833 148.413 140.433C148.413 141.034 146.733 143.071 146.733 143.071L145.417 145.472L146.375 148.11L149.013 149.194L152.735 153.032L154.414 153.753V155.549L154.624 156.391C163.958 154.881 172.679 150.775 179.788 144.541L179.853 143.671L183.11 137.791L181.552 136.711L174.922 138.531ZM187.404 91.1369L186.083 88.8573L184.403 86.2147L183.938 82.6184L186.097 82.9767L186.218 81.7764L184.655 81.6554L185.976 81.0553L187.418 80.2178V79.0175L185.976 77.0961L185.669 74.514C178.692 65.9792 169.119 59.9561 158.405 57.3604C147.692 54.7647 136.424 55.7384 126.314 60.1336L129.082 62.0922L127.403 64.2556L125.123 64.7208L124.881 67.9775L123.923 68.3357L122.722 69.657L122.843 71.8157L124.881 72.0576L124.053 74.0907H126.091L129.571 69.6523L129.934 67.7355L133.293 67.4936L134.13 66.0514L137.61 65.6931L137.973 63.6554L140.49 63.5344C140.49 63.5344 142.29 62.5761 142.653 62.5761C143.346 62.7254 144.027 62.9244 144.691 63.1716L146.491 64.6138H149.008L151.172 63.2925L153.93 63.5344C154.328 63.7926 154.781 63.9521 155.252 63.9997C155.852 63.9997 157.648 63.1576 157.648 63.1576L161.128 65.321L162.57 66.4003V68.2008L164.37 68.438L164.971 67.3587L166.529 68.0798L166.408 69.0382L162.807 70.0012L164.85 72.6391L169.167 75.0397L170.967 77.4404L173.61 77.6776L174.21 76.4773L175.169 76.2401L172.047 73.8394L170.111 73.6254L171.67 73.1602L170.228 71.1225L172.27 71.0015L174.908 72.4391L175.508 75.3189L176.829 76.8821L177.909 80.362L180.547 82.2788V86.238L183.31 88.0384L183.189 89.3597L182.826 90.9183L183.547 93.077L183.789 94.161L185.827 94.5192L186.79 92.4768L187.404 91.1369ZM188.963 79.0408V79.7293L188.363 81.6461L188.721 83.3256L190.042 83.7908V86.0705L188.6 85.4703L188.256 91.9743L186.818 94.6169L187.776 97.9759L189.335 99.4135V105.894L190.894 110.933L192.578 114.776L195.337 115.492L196.295 113.091L196.686 112.789C196.945 110.704 197.076 108.605 197.077 106.504C197.086 96.7594 194.266 87.222 188.958 79.0501L188.963 79.0408ZM161.239 78.2778L153.33 74.7978L149.85 74.9188L149.008 77.1984L147.571 75.6399L144.933 76.2401L144.691 80.1992L146.85 81.7578L148.408 79.4781L150.209 81.2786L153.93 84.5352L154.652 88.0152L157.769 91.9743L162.807 91.1369L162.691 89.3365L161.612 87.2941L161.37 82.4975L162.57 80.4551L161.239 78.2778ZM167.72 80.9203L165.92 80.4551L164.361 81.7764L165.199 85.2563H166.762L167.72 80.9203ZM178.886 83.2L174.801 81.0692L173.959 79.6316L173.001 79.9899L173.838 82.3905L174.559 85.5122L176.36 86.2287L176.718 85.7634L175.638 83.963L178.76 85.1633L178.886 83.2ZM143.849 126.513L143.384 126.979L146.984 128.058L148.422 129.738L150.706 129.98L151.544 128.658L148.785 128.193L143.849 126.513ZM154.549 128.793L152.028 129.514L152.391 130.473H155.508L156.108 129.514L155.028 129.635L154.549 128.793Z" fill="#FFC100"/>
<path d="M144.682 83.0976L149.483 85.2563L150.799 87.415L152.963 88.2571L153.2 90.5368L152.363 91.858L150.683 92.2163L147.082 90.774V90.3088L149.12 89.4714L148.399 86.9498L145.142 85.7495L143.705 83.8327L144.682 83.0976ZM174.922 138.531L171.084 136.972L166.39 135.293H162.668L159.202 134.571L155.359 135.413L153.2 135.53H151.879L149.362 136.972L146.961 137.93L143.705 135.893L144.542 132.534L142.504 131.692H140.104L139.745 130.612L139.983 128.454L139.145 127.253L137.466 127.49L137.001 128.691L134.963 128.812L133.162 126.662L132.427 123.773L134.228 120.414L137.708 120.652L138.666 121.494H140.108L141.909 120.414L143.467 120.879L145.626 124.601L146.468 124.485L146.226 121.722L145.51 120.284L145.747 118.004L150.185 116.083L150.785 111.645L152.707 110.086L154.265 107.327L155.466 107.085L158.225 105.285L158.346 104.326L156.424 104.447L156.066 103.484H154.759L152.721 103.95L153.679 102.391L157.866 101.191L158.825 100.111L160.504 102.749L161.588 103.833L163.268 103.368L162.547 101.809L160.025 100.009L157.145 96.7523L154.144 94.7099L151.265 94.2447L149.827 92.8071L147.906 92.3419L147.668 92.8071L147.426 96.2871L147.892 97.4874L146.85 101.335L144.449 99.4135L144.812 97.734L142.29 96.5337L141.211 95.217L141.811 92.2163L145.291 89.6947L145.533 86.8149L144.212 86.9358L143.37 85.8565L143.011 84.056L142.169 83.9351L141.704 85.8565L140.387 86.0984L139.787 81.9113L138.824 81.3111L137.145 80.59L135.219 81.5344L137.615 83.8188L138.08 85.8565L133.762 82.5998L130.762 79.3432L130.524 76.0865L127.403 75.1281L124.983 76.7379C124.402 77.091 123.801 77.4109 123.183 77.6962C122.236 77.922 121.273 78.0775 120.303 78.1615L119.838 80.2039L117.079 80.3248L117.321 81.6414L121.759 82.3626L124.039 84.8841V89.0713L122.718 92.7932L122.96 96.7523L119.601 102.633L118.88 111.389L119.959 116.432L121.517 120.27L123.318 120.512L122.718 118.591L121.759 117.148L121.159 114.51L122.239 114.268L123.918 118.591L125.123 122.475V125.597L127.403 128.356L131.497 131.315L137.736 132.994L139.657 134.795L141.095 136.711L143.253 138.033L145.896 138.754L148.534 138.633C148.534 138.633 148.413 139.833 148.413 140.433C148.413 141.034 146.733 143.071 146.733 143.071L145.417 145.472L146.375 148.11L149.013 149.194L152.735 153.032L154.414 153.753V155.549L154.624 156.391C163.958 154.881 172.679 150.775 179.788 144.541L179.853 143.671L183.11 137.791L181.552 136.711L174.922 138.531ZM187.404 91.1369L186.083 88.8573L184.403 86.2147L183.938 82.6184L186.097 82.9767L186.218 81.7764L184.655 81.6554L185.976 81.0553L187.418 80.2178V79.0175L185.976 77.0961L185.669 74.514C178.692 65.9792 169.119 59.9561 158.405 57.3604C147.692 54.7647 136.424 55.7384 126.314 60.1336L129.082 62.0922L127.403 64.2556L125.123 64.7208L124.881 67.9775L123.923 68.3357L122.722 69.657L122.843 71.8157L124.881 72.0576L124.053 74.0907H126.091L129.571 69.6523L129.934 67.7355L133.293 67.4936L134.13 66.0514L137.61 65.6931L137.973 63.6554L140.49 63.5344C140.49 63.5344 142.29 62.5761 142.653 62.5761C143.346 62.7254 144.027 62.9244 144.691 63.1716L146.491 64.6138H149.008L151.172 63.2925L153.93 63.5344C154.328 63.7926 154.781 63.9521 155.252 63.9997C155.852 63.9997 157.648 63.1576 157.648 63.1576L161.128 65.321L162.57 66.4003V68.2008L164.37 68.438L164.971 67.3587L166.529 68.0798L166.408 69.0382L162.807 70.0012L164.85 72.6391L169.167 75.0397L170.967 77.4404L173.61 77.6776L174.21 76.4773L175.169 76.2401L172.047 73.8394L170.111 73.6254L171.67 73.1602L170.228 71.1225L172.27 71.0015L174.908 72.4391L175.508 75.3189L176.829 76.8821L177.909 80.362L180.547 82.2788V86.238L183.31 88.0384L183.189 89.3597L182.826 90.9183L183.547 93.077L183.789 94.161L185.827 94.5192L186.79 92.4768L187.404 91.1369ZM188.963 79.0408V79.7293L188.363 81.6461L188.721 83.3256L190.042 83.7908V86.0705L188.6 85.4703L188.256 91.9743L186.818 94.6169L187.776 97.9759L189.335 99.4135V105.894L190.894 110.933L192.578 114.776L195.337 115.492L196.295 113.091L196.686 112.789C196.945 110.704 197.076 108.605 197.077 106.504C197.086 96.7594 194.266 87.222 188.958 79.0501L188.963 79.0408ZM161.239 78.2778L153.33 74.7978L149.85 74.9188L149.008 77.1984L147.571 75.6399L144.933 76.2401L144.691 80.1992L146.85 81.7578L148.408 79.4781L150.209 81.2786L153.93 84.5352L154.652 88.0152L157.769 91.9743L162.807 91.1369L162.691 89.3365L161.612 87.2941L161.37 82.4975L162.57 80.4551L161.239 78.2778ZM167.72 80.9203L165.92 80.4551L164.361 81.7764L165.199 85.2563H166.762L167.72 80.9203ZM178.886 83.2L174.801 81.0692L173.959 79.6316L173.001 79.9899L173.838 82.3905L174.559 85.5122L176.36 86.2287L176.718 85.7634L175.638 83.963L178.76 85.1633L178.886 83.2ZM143.849 126.513L143.384 126.979L146.984 128.058L148.422 129.738L150.706 129.98L151.544 128.658L148.785 128.193L143.849 126.513ZM154.549 128.793L152.028 129.514L152.391 130.473H155.508L156.108 129.514L155.028 129.635L154.549 128.793Z" stroke="#263238" stroke-width="0.6" stroke-miterlimit="10"/>
<path d="M182.248 142.252C201.992 122.508 201.992 90.4974 182.248 70.7536C162.504 51.0097 130.493 51.0097 110.749 70.7536C91.0055 90.4974 91.0055 122.508 110.749 142.252C130.493 161.996 162.504 161.996 182.248 142.252Z" stroke="#263238" stroke-miterlimit="10"/>
<path d="M209.876 86.1174C212.772 85.6458 214.737 82.9163 214.265 80.0209C213.794 77.1254 211.064 75.1604 208.169 75.632C205.273 76.1035 203.308 78.8331 203.78 81.7285C204.251 84.624 206.981 86.5889 209.876 86.1174Z" fill="white" stroke="#AA4337" stroke-width="0.5" stroke-miterlimit="10"/>
<path d="M210.699 80.5332H207.396C207.242 80.5332 207.091 80.5634 206.949 80.6222C206.808 80.6809 206.679 80.767 206.571 80.8755C206.463 80.984 206.378 81.1128 206.32 81.2544C206.261 81.3961 206.232 81.5478 206.232 81.7009V84.4691C207.038 85.0971 208.033 85.4347 209.054 85.4271C210.076 85.4195 211.065 85.0672 211.862 84.4272V81.7009C211.862 81.5478 211.833 81.3961 211.775 81.2544C211.716 81.1128 211.631 80.984 211.523 80.8755C211.415 80.767 211.286 80.6809 211.145 80.6222C211.003 80.5634 210.852 80.5332 210.699 80.5332V80.5332Z" fill="#AA4337"/>
<path d="M208.992 80.0221C209.324 80.0221 209.649 79.9236 209.925 79.739C210.201 79.5545 210.417 79.2922 210.544 78.9853C210.671 78.6784 210.704 78.3407 210.639 78.0149C210.574 77.6891 210.414 77.3899 210.18 77.155C209.945 76.9201 209.645 76.7602 209.32 76.6954C208.994 76.6306 208.656 76.6638 208.349 76.7909C208.042 76.918 207.78 77.1333 207.596 77.4095C207.411 77.6857 207.312 78.0104 207.312 78.3426C207.312 78.5631 207.356 78.7815 207.44 78.9853C207.525 79.1891 207.648 79.3742 207.804 79.5302C207.96 79.6861 208.146 79.8098 208.349 79.8942C208.553 79.9787 208.771 80.0221 208.992 80.0221V80.0221Z" fill="#AA4337"/>
<path d="M176.062 62.3735C178.995 62.3735 181.374 59.9954 181.374 57.0618C181.374 54.1282 178.995 51.75 176.062 51.75C173.128 51.75 170.75 54.1282 170.75 57.0618C170.75 59.9954 173.128 62.3735 176.062 62.3735Z" fill="white" stroke="#AA4337" stroke-width="0.5" stroke-miterlimit="10"/>
<path d="M177.737 56.7199H174.438C174.132 56.7248 173.839 56.8499 173.624 57.0684C173.41 57.2869 173.289 57.5811 173.289 57.8876V60.679C174.096 61.3074 175.091 61.6452 176.113 61.6376C177.136 61.63 178.126 61.2775 178.923 60.6372V57.8876C178.923 57.7327 178.892 57.5793 178.832 57.4364C178.773 57.2935 178.685 57.1639 178.574 57.0553C178.464 56.9466 178.333 56.8609 178.189 56.8034C178.045 56.7458 177.892 56.7174 177.737 56.7199Z" fill="#AA4337"/>
<path d="M176.031 56.2086C176.959 56.2086 177.711 55.4567 177.711 54.5291C177.711 53.6015 176.959 52.8496 176.031 52.8496C175.104 52.8496 174.352 53.6015 174.352 54.5291C174.352 55.4567 175.104 56.2086 176.031 56.2086Z" fill="#AA4337"/>
<path d="M82.6322 96.5891C85.5276 96.1175 87.4926 93.388 87.021 90.4925C86.5495 87.5971 83.82 85.6321 80.9245 86.1037C78.0291 86.5752 76.0641 89.3047 76.5356 92.2002C77.0072 95.0957 79.7367 97.0606 82.6322 96.5891Z" fill="white" stroke="#AA4337" stroke-width="0.5" stroke-miterlimit="10"/>
<path d="M83.4565 91.0029H80.1533C80.0002 91.0029 79.8486 91.0332 79.7072 91.0919C79.5657 91.1506 79.4373 91.2367 79.3293 91.3452C79.2212 91.4537 79.1356 91.5825 79.0774 91.7241C79.0193 91.8658 78.9896 92.0175 78.9902 92.1707V94.9388C79.7962 95.5669 80.7905 95.9044 81.8122 95.8968C82.8339 95.8892 83.8231 95.5369 84.6196 94.897V92.1707C84.6202 92.0175 84.5906 91.8658 84.5324 91.7241C84.4742 91.5825 84.3887 91.4537 84.2806 91.3452C84.1725 91.2367 84.0441 91.1506 83.9027 91.0919C83.7613 91.0332 83.6096 91.0029 83.4565 91.0029V91.0029Z" fill="#FFC100"/>
<path d="M81.7498 90.4889C82.082 90.4889 82.4067 90.3904 82.6829 90.2058C82.9591 90.0213 83.1744 89.759 83.3015 89.4521C83.4286 89.1452 83.4619 88.8075 83.397 88.4817C83.3322 88.1559 83.1723 87.8567 82.9374 87.6218C82.7025 87.3869 82.4033 87.227 82.0775 87.1622C81.7517 87.0974 81.414 87.1306 81.1071 87.2577C80.8002 87.3848 80.5379 87.6001 80.3534 87.8763C80.1688 88.1525 80.0703 88.4772 80.0703 88.8094C80.0703 89.2548 80.2473 89.682 80.5622 89.997C80.8772 90.3119 81.3044 90.4889 81.7498 90.4889Z" fill="#FFC100"/>
<path d="M85.8929 128.453C88.7884 127.982 90.7533 125.252 90.2818 122.357C89.8102 119.461 87.0807 117.496 84.1853 117.968C81.2898 118.439 79.3248 121.169 79.7964 124.064C80.2679 126.96 82.9974 128.925 85.8929 128.453Z" fill="white" stroke="#AA4337" stroke-width="0.5" stroke-miterlimit="10"/>
<path d="M86.7133 122.869H83.4102C83.257 122.869 83.1054 122.899 82.964 122.958C82.8226 123.017 82.6942 123.103 82.5861 123.211C82.478 123.32 82.3925 123.449 82.3343 123.59C82.2761 123.732 82.2465 123.884 82.2471 124.037V126.805C83.053 127.433 84.0473 127.771 85.069 127.763C86.0907 127.755 87.08 127.403 87.8764 126.763V124.037C87.8771 123.884 87.8474 123.732 87.7892 123.59C87.7311 123.449 87.6455 123.32 87.5374 123.211C87.4294 123.103 87.3009 123.017 87.1595 122.958C87.0181 122.899 86.8665 122.869 86.7133 122.869V122.869Z" fill="#182F43"/>
<path d="M85.0057 122.358C85.3379 122.358 85.6626 122.26 85.9388 122.075C86.215 121.89 86.4302 121.628 86.5573 121.321C86.6845 121.014 86.7177 120.677 86.6529 120.351C86.5881 120.025 86.4281 119.726 86.1933 119.491C85.9584 119.256 85.6591 119.096 85.3333 119.031C85.0075 118.966 84.6698 119 84.363 119.127C84.0561 119.254 83.7938 119.469 83.6092 119.745C83.4247 120.022 83.3262 120.346 83.3262 120.679C83.3262 121.124 83.5031 121.551 83.8181 121.866C84.1331 122.181 84.5602 122.358 85.0057 122.358V122.358Z" fill="#182F43"/>
<path d="M110.619 99.5659C111.694 96.8363 110.352 93.7522 107.622 92.6775C104.893 91.6028 101.809 92.9444 100.734 95.6741C99.6593 98.4038 101.001 101.488 103.731 102.563C106.46 103.637 109.544 102.296 110.619 99.5659Z" fill="white" stroke="#AA4337" stroke-width="0.5" stroke-miterlimit="10"/>
<path d="M107.357 97.2822H104.049C103.74 97.2822 103.445 97.4048 103.226 97.6229C103.008 97.841 102.886 98.1368 102.886 98.4453V101.237C103.692 101.865 104.686 102.202 105.708 102.195C106.729 102.187 107.719 101.835 108.515 101.195V98.4686C108.518 98.3143 108.491 98.1609 108.434 98.0174C108.377 97.8739 108.292 97.7431 108.184 97.6327C108.077 97.5223 107.948 97.4345 107.806 97.3743C107.664 97.3141 107.511 97.2828 107.357 97.2822V97.2822Z" fill="#182F43"/>
<path d="M105.651 96.7711C105.983 96.7711 106.308 96.6726 106.584 96.4881C106.86 96.3035 107.076 96.0412 107.203 95.7343C107.33 95.4274 107.363 95.0898 107.298 94.764C107.234 94.4382 107.074 94.1389 106.839 93.904C106.604 93.6691 106.305 93.5092 105.979 93.4444C105.653 93.3796 105.315 93.4128 105.008 93.54C104.702 93.6671 104.439 93.8823 104.255 94.1585C104.07 94.4347 103.972 94.7594 103.972 95.0916C103.972 95.3122 104.015 95.5306 104.1 95.7343C104.184 95.9381 104.308 96.1232 104.464 96.2792C104.62 96.4352 104.805 96.5589 105.008 96.6433C105.212 96.7277 105.431 96.7711 105.651 96.7711Z" fill="#182F43"/>
<path d="M139.066 152.597C141.999 152.597 144.377 150.219 144.377 147.285C144.377 144.352 141.999 141.974 139.066 141.974C136.132 141.974 133.754 144.352 133.754 147.285C133.754 150.219 136.132 152.597 139.066 152.597Z" fill="white" stroke="#AA4337" stroke-width="0.5" stroke-miterlimit="10"/>
<path d="M140.748 146.944H137.45C137.14 146.944 136.843 147.067 136.624 147.286C136.405 147.505 136.282 147.802 136.282 148.112V150.88C137.089 151.509 138.084 151.846 139.107 151.839C140.129 151.831 141.119 151.479 141.916 150.838V148.112C141.916 147.802 141.793 147.505 141.574 147.286C141.355 147.067 141.058 146.944 140.748 146.944Z" fill="#FFC100"/>
<path d="M139.039 146.436C139.966 146.436 140.718 145.684 140.718 144.757C140.718 143.829 139.966 143.077 139.039 143.077C138.111 143.077 137.359 143.829 137.359 144.757C137.359 145.684 138.111 146.436 139.039 146.436Z" fill="#FFC100"/>
<path d="M175.462 162.331C178.396 162.331 180.774 159.952 180.774 157.019C180.774 154.085 178.396 151.707 175.462 151.707C172.529 151.707 170.15 154.085 170.15 157.019C170.15 159.952 172.529 162.331 175.462 162.331Z" fill="white" stroke="#AA4337" stroke-width="0.5" stroke-miterlimit="10"/>
<path d="M177.138 156.679H173.835C173.526 156.679 173.23 156.801 173.011 157.019C172.792 157.237 172.668 157.533 172.667 157.842V160.633C173.474 161.262 174.469 161.599 175.491 161.592C176.514 161.584 177.504 161.232 178.301 160.591V157.833C178.299 157.526 178.175 157.232 177.957 157.016C177.739 156.8 177.445 156.679 177.138 156.679V156.679Z" fill="#182F43"/>
<path d="M175.431 156.169C176.359 156.169 177.111 155.417 177.111 154.489C177.111 153.562 176.359 152.81 175.431 152.81C174.504 152.81 173.752 153.562 173.752 154.489C173.752 155.417 174.504 156.169 175.431 156.169Z" fill="#182F43"/>
<path d="M205.803 129.607C206.767 126.984 205.422 124.075 202.798 123.11C200.174 122.146 197.265 123.491 196.301 126.115C195.336 128.739 196.682 131.648 199.306 132.612C201.93 133.577 204.839 132.231 205.803 129.607Z" fill="white" stroke="#AA4337" stroke-width="0.5" stroke-miterlimit="10"/>
<path d="M202.729 127.524H199.421C199.112 127.524 198.817 127.647 198.598 127.865C198.38 128.083 198.258 128.379 198.258 128.688V131.479C199.064 132.107 200.058 132.445 201.08 132.437C202.101 132.429 203.091 132.077 203.887 131.437V128.711C203.89 128.556 203.863 128.403 203.806 128.26C203.749 128.116 203.664 127.985 203.556 127.875C203.449 127.764 203.32 127.677 203.178 127.616C203.036 127.556 202.883 127.525 202.729 127.524V127.524Z" fill="#FFC100"/>
<path d="M201.024 127.011C201.356 127.011 201.681 126.913 201.957 126.728C202.234 126.544 202.449 126.281 202.576 125.975C202.703 125.668 202.736 125.33 202.671 125.004C202.607 124.678 202.447 124.379 202.212 124.144C201.977 123.909 201.678 123.749 201.352 123.685C201.026 123.62 200.688 123.653 200.382 123.78C200.075 123.907 199.812 124.123 199.628 124.399C199.443 124.675 199.345 125 199.345 125.332C199.345 125.777 199.522 126.204 199.837 126.519C200.152 126.834 200.579 127.011 201.024 127.011Z" fill="#FFC100"/>
<path d="M190.983 82.2951C198.129 88.0873 202.367 95.3217 202.367 103.128C202.367 122.203 177.166 137.677 146.074 137.677C114.982 137.677 89.7803 122.208 89.7803 103.128C89.7803 94.782 94.6048 87.1289 102.635 81.1553" stroke="#AA4337" stroke-miterlimit="10"/>
<path d="M113.818 67.9261C118.885 59.6217 126.008 54.0854 134.447 52.8525C154.275 49.9959 173.866 72.1458 178.212 102.326C182.557 132.506 170.01 159.285 150.186 162.141C141.16 163.439 132.181 159.559 124.668 152.097" stroke="#AA4337" stroke-miterlimit="10"/>
<path d="M189.952 141.145C196.54 130.36 180.255 108.405 153.577 92.1073C126.898 75.8101 99.9301 71.3421 93.3412 82.1279C86.7524 92.9136 103.038 114.869 129.716 131.166C156.395 147.463 183.363 151.931 189.952 141.145Z" stroke="#AA4337" stroke-miterlimit="10"/>
<path d="M157.722 128.632C185.1 111.907 201.952 89.6056 195.364 78.8199C188.775 68.0341 161.239 72.8485 133.862 89.573C106.484 106.298 89.6313 128.599 96.2201 139.385C102.809 150.171 130.344 145.356 157.722 128.632Z" stroke="#AA4337" stroke-miterlimit="10"/>
<path d="M169.678 74.5555C169.678 74.3714 169.624 74.1915 169.522 74.0385C169.419 73.8855 169.274 73.7663 169.104 73.6958C168.934 73.6254 168.747 73.607 168.566 73.6429C168.386 73.6788 168.22 73.7674 168.09 73.8975C167.96 74.0277 167.871 74.1935 167.835 74.3739C167.799 74.5544 167.818 74.7415 167.888 74.9115C167.959 75.0816 168.078 75.2269 168.231 75.3291C168.384 75.4314 168.564 75.4859 168.748 75.4859C168.995 75.4859 169.231 75.3879 169.406 75.2134C169.58 75.0389 169.678 74.8022 169.678 74.5555Z" fill="white" stroke="#AA4337" stroke-width="0.5" stroke-miterlimit="10"/>
<path d="M179.916 112.644C179.916 112.46 179.861 112.28 179.759 112.127C179.657 111.974 179.511 111.855 179.341 111.785C179.171 111.714 178.984 111.696 178.804 111.732C178.623 111.768 178.457 111.856 178.327 111.986C178.197 112.117 178.108 112.282 178.073 112.463C178.037 112.643 178.055 112.83 178.126 113C178.196 113.17 178.315 113.316 178.468 113.418C178.621 113.52 178.801 113.575 178.985 113.575C179.232 113.575 179.469 113.477 179.643 113.302C179.818 113.128 179.916 112.891 179.916 112.644Z" fill="white" stroke="#AA4337" stroke-width="0.5" stroke-miterlimit="10"/>
<path d="M177.867 131.992C177.867 131.808 177.812 131.628 177.71 131.475C177.608 131.322 177.462 131.203 177.292 131.132C177.122 131.062 176.935 131.043 176.755 131.079C176.574 131.115 176.409 131.204 176.278 131.334C176.148 131.464 176.06 131.63 176.024 131.81C175.988 131.991 176.006 132.178 176.077 132.348C176.147 132.518 176.266 132.663 176.419 132.766C176.572 132.868 176.752 132.922 176.936 132.922C177.183 132.922 177.42 132.824 177.594 132.65C177.769 132.475 177.867 132.239 177.867 131.992Z" fill="white" stroke="#AA4337" stroke-width="0.5" stroke-miterlimit="10"/>
<path d="M171.93 146.733C171.93 146.549 171.876 146.369 171.773 146.216C171.671 146.063 171.526 145.944 171.356 145.874C171.186 145.803 170.999 145.785 170.818 145.821C170.638 145.857 170.472 145.945 170.342 146.075C170.212 146.205 170.123 146.371 170.087 146.552C170.051 146.732 170.07 146.919 170.14 147.089C170.211 147.259 170.33 147.405 170.483 147.507C170.636 147.609 170.816 147.664 171 147.664C171.247 147.664 171.483 147.566 171.658 147.391C171.832 147.217 171.93 146.98 171.93 146.733Z" fill="white" stroke="#AA4337" stroke-width="0.5" stroke-miterlimit="10"/>
<path d="M189.651 125.732C189.651 125.548 189.596 125.368 189.494 125.215C189.392 125.062 189.247 124.943 189.077 124.873C188.907 124.802 188.719 124.784 188.539 124.82C188.358 124.856 188.193 124.944 188.063 125.074C187.932 125.204 187.844 125.37 187.808 125.551C187.772 125.731 187.79 125.918 187.861 126.088C187.931 126.258 188.051 126.404 188.204 126.506C188.357 126.608 188.536 126.663 188.721 126.663C188.967 126.663 189.204 126.565 189.378 126.39C189.553 126.216 189.651 125.979 189.651 125.732Z" fill="white" stroke="#AA4337" stroke-width="0.5" stroke-miterlimit="10"/>
<path d="M141.835 137.417C141.835 137.233 141.78 137.053 141.678 136.9C141.576 136.747 141.43 136.628 141.26 136.557C141.09 136.487 140.903 136.468 140.723 136.504C140.542 136.54 140.376 136.629 140.246 136.759C140.116 136.889 140.027 137.055 139.992 137.235C139.956 137.416 139.974 137.603 140.044 137.773C140.115 137.943 140.234 138.088 140.387 138.19C140.54 138.293 140.72 138.347 140.904 138.347C141.151 138.347 141.388 138.249 141.562 138.075C141.737 137.9 141.835 137.664 141.835 137.417Z" fill="white" stroke="#AA4337" stroke-width="0.5" stroke-miterlimit="10"/>
<path d="M99.4557 121.964C99.4557 121.78 99.4011 121.6 99.2989 121.447C99.1966 121.294 99.0513 121.174 98.8813 121.104C98.7113 121.034 98.5242 121.015 98.3437 121.051C98.1632 121.087 97.9974 121.176 97.8673 121.306C97.7371 121.436 97.6485 121.602 97.6126 121.782C97.5767 121.963 97.5951 122.15 97.6656 122.32C97.736 122.49 97.8552 122.635 98.0083 122.737C98.1613 122.84 98.3412 122.894 98.5252 122.894C98.772 122.894 99.0086 122.796 99.1831 122.622C99.3576 122.447 99.4557 122.21 99.4557 121.964Z" fill="white" stroke="#AA4337" stroke-width="0.5" stroke-miterlimit="10"/>
<path d="M106.622 112.338C106.622 112.154 106.567 111.974 106.465 111.821C106.363 111.668 106.217 111.548 106.047 111.478C105.877 111.408 105.69 111.389 105.51 111.425C105.329 111.461 105.163 111.55 105.033 111.68C104.903 111.81 104.815 111.976 104.779 112.156C104.743 112.337 104.761 112.524 104.832 112.694C104.902 112.864 105.021 113.009 105.174 113.111C105.327 113.214 105.507 113.268 105.691 113.268C105.938 113.268 106.175 113.17 106.349 112.996C106.524 112.821 106.622 112.584 106.622 112.338Z" fill="white" stroke="#AA4337" stroke-width="0.5" stroke-miterlimit="10"/>
<path d="M141.937 85.4178C141.937 85.2338 141.883 85.0539 141.78 84.9008C141.678 84.7478 141.533 84.6286 141.363 84.5581C141.193 84.4877 141.006 84.4693 140.825 84.5052C140.645 84.5411 140.479 84.6297 140.349 84.7598C140.219 84.89 140.13 85.0558 140.094 85.2363C140.058 85.4167 140.077 85.6038 140.147 85.7739C140.217 85.9439 140.337 86.0892 140.49 86.1914C140.643 86.2937 140.823 86.3483 141.007 86.3483C141.253 86.3483 141.49 86.2502 141.665 86.0757C141.839 85.9012 141.937 85.6646 141.937 85.4178Z" fill="white" stroke="#AA4337" stroke-width="0.5" stroke-miterlimit="10"/>
<path d="M197.213 87.7732C197.213 87.5892 197.159 87.4093 197.057 87.2563C196.954 87.1033 196.809 86.984 196.639 86.9136C196.469 86.8432 196.282 86.8247 196.101 86.8607C195.921 86.8966 195.755 86.9852 195.625 87.1153C195.495 87.2454 195.406 87.4112 195.37 87.5917C195.335 87.7722 195.353 87.9593 195.423 88.1293C195.494 88.2993 195.613 88.4447 195.766 88.5469C195.919 88.6491 196.099 88.7037 196.283 88.7037C196.53 88.7037 196.766 88.6057 196.941 88.4312C197.115 88.2567 197.213 88.02 197.213 87.7732Z" fill="white" stroke="white" stroke-width="0.5" stroke-miterlimit="10"/>
<path d="M93.6217 92.2771C93.6217 92.0931 93.5671 91.9132 93.4649 91.7602C93.3626 91.6072 93.2173 91.4879 93.0473 91.4175C92.8773 91.3471 92.6902 91.3287 92.5097 91.3646C92.3292 91.4005 92.1634 91.4891 92.0333 91.6192C91.9031 91.7493 91.8145 91.9151 91.7786 92.0956C91.7427 92.2761 91.7611 92.4632 91.8316 92.6332C91.902 92.8032 92.0213 92.9486 92.1743 93.0508C92.3273 93.1531 92.5072 93.2076 92.6912 93.2076C92.938 93.2076 93.1747 93.1096 93.3492 92.9351C93.5237 92.7606 93.6217 92.5239 93.6217 92.2771Z" fill="white" stroke="#AA4337" stroke-width="0.5" stroke-miterlimit="10"/>
<path d="M197.202 87.4066L204.516 83.4707" stroke="#AA4337" stroke-miterlimit="10"/>
<path d="M91.7797 92.2772L86.8389 91.3467" stroke="#AA4337" stroke-miterlimit="10"/>
<path d="M105.701 111.418V102.686" stroke="#AA4337" stroke-miterlimit="10"/>
<path d="M97.6149 121.963L90.5 123" stroke="#AA4337" stroke-miterlimit="10"/>
<path d="M140.706 138.327L140.018 142.375" stroke="#AA4337" stroke-miterlimit="10"/>
<path d="M171.359 147.62L173.513 152.31" stroke="#AA4337" stroke-miterlimit="10"/>
<path d="M189.637 125.751L195.889 127.091" stroke="#AA4337" stroke-miterlimit="10"/>
<path d="M176.201 131.318L170.13 125.475" stroke="#AA4337" stroke-miterlimit="10"/>
<path d="M169.13 73.7261L174 62" stroke="#AA4337" stroke-miterlimit="10"/>
<path d="M119.214 151.929L120.53 150.17" stroke="#AA4337" stroke-miterlimit="10"/>
<path d="M171.362 123.918C172.396 121.172 171.009 118.109 168.264 117.075C165.518 116.041 162.454 117.428 161.42 120.173C160.386 122.918 161.774 125.982 164.519 127.016C167.264 128.05 170.328 126.663 171.362 123.918Z" fill="white" stroke="#AA4337" stroke-width="0.5" stroke-miterlimit="10"/>
<path d="M168.069 121.709H164.766C164.457 121.709 164.161 121.832 163.943 122.05C163.725 122.268 163.603 122.564 163.603 122.872V125.663C164.408 126.292 165.403 126.629 166.424 126.621C167.446 126.614 168.435 126.262 169.232 125.622V122.895C169.235 122.741 169.207 122.587 169.15 122.443C169.093 122.299 169.008 122.168 168.9 122.058C168.791 121.947 168.662 121.86 168.519 121.8C168.377 121.74 168.224 121.709 168.069 121.709V121.709Z" fill="#FFC100"/>
<path d="M166.362 121.197C166.694 121.197 167.019 121.098 167.295 120.914C167.571 120.729 167.787 120.467 167.914 120.16C168.041 119.853 168.074 119.516 168.009 119.19C167.945 118.864 167.785 118.565 167.55 118.33C167.315 118.095 167.016 117.935 166.69 117.87C166.364 117.805 166.026 117.839 165.719 117.966C165.413 118.093 165.15 118.308 164.966 118.584C164.781 118.861 164.683 119.185 164.683 119.517C164.683 119.963 164.86 120.39 165.175 120.705C165.49 121.02 165.917 121.197 166.362 121.197V121.197Z" fill="#FFC100"/>
<path d="M182.768 99.9522C183.795 97.2042 182.4 94.144 179.652 93.1171C176.904 92.0902 173.844 93.4854 172.817 96.2335C171.79 98.9815 173.185 102.042 175.933 103.069C178.681 104.095 181.741 102.7 182.768 99.9522Z" fill="white" stroke="#AA4337" stroke-width="0.5" stroke-miterlimit="10"/>
<path d="M179.468 97.7471H176.16C175.852 97.7471 175.556 97.8696 175.338 98.0877C175.12 98.3058 174.997 98.6017 174.997 98.9102V101.702C175.803 102.33 176.797 102.667 177.819 102.66C178.841 102.652 179.83 102.3 180.626 101.66V98.9334C180.63 98.7791 180.602 98.6258 180.545 98.4823C180.488 98.3388 180.404 98.208 180.296 98.0976C180.188 97.9872 180.059 97.8993 179.917 97.8391C179.775 97.7789 179.622 97.7477 179.468 97.7471Z" fill="#182F43"/>
<path d="M177.762 97.235C178.094 97.235 178.418 97.1365 178.695 96.9519C178.971 96.7674 179.186 96.5051 179.313 96.1982C179.44 95.8913 179.474 95.5536 179.409 95.2278C179.344 94.902 179.184 94.6028 178.949 94.3679C178.714 94.133 178.415 93.9731 178.089 93.9082C177.763 93.8434 177.426 93.8767 177.119 94.0038C176.812 94.1309 176.55 94.3462 176.365 94.6224C176.181 94.8986 176.082 95.2233 176.082 95.5555C176.082 96.0009 176.259 96.4281 176.574 96.7431C176.889 97.058 177.316 97.235 177.762 97.235Z" fill="#182F43"/>
<path d="M131.108 207.383L133.143 207.806L134.566 206.646L133.16 205.693C133.491 205.277 133.736 204.841 133.888 204.395L136.048 204.055L136.088 202.656L133.928 202.359C133.698 201.602 133.194 200.887 132.45 200.26L133.644 199.125L131.959 198.152L129.977 198.851C129.352 198.608 128.676 198.411 127.964 198.263L127.837 196.944L125.456 196.725L124.483 197.943C123.721 197.955 122.96 198.019 122.218 198.134L120.799 197.12L118.585 197.732L118.989 199.019C118.545 199.203 118.127 199.408 117.739 199.632C117.574 199.727 117.418 199.826 117.268 199.925L115.088 199.587L113.837 200.805L115.422 201.695C115.148 202.12 114.962 202.56 114.869 203.007L112.743 203.455L112.909 204.844L115.092 205.029C115.281 205.468 115.564 205.889 115.935 206.284L114.632 207.333L116.153 208.386L118.135 207.826C118.738 208.114 119.402 208.357 120.113 208.55L120.061 209.804L122.391 210.143L123.492 209.046C124.286 209.075 125.087 209.048 125.877 208.964L127.082 209.987L129.374 209.487L129.209 208.245C129.899 208.003 130.537 207.713 131.108 207.383V207.383ZM128.642 205.924C127.782 206.421 126.694 206.765 125.516 206.912C124.337 207.058 123.122 207.001 122.023 206.748C120.924 206.494 119.991 206.055 119.342 205.487C118.693 204.919 118.357 204.246 118.377 203.555C118.397 202.864 118.772 202.184 119.454 201.603C120.136 201.022 121.095 200.565 122.209 200.29C123.323 200.016 124.542 199.935 125.713 200.059C126.883 200.183 127.952 200.506 128.784 200.988C129.898 201.632 130.509 202.513 130.482 203.439C130.456 204.364 129.794 205.258 128.642 205.924V205.924Z" fill="#182F43"/>
<path d="M160.201 203.336L162.688 203.876L164.369 202.486L162.624 201.311C163.012 200.808 163.292 200.28 163.459 199.737L166.066 199.355L166.059 197.657L163.425 197.267C163.115 196.346 162.475 195.471 161.547 194.699L162.951 193.337L160.866 192.134L158.488 192.955C157.719 192.652 156.891 192.404 156.02 192.215L155.814 190.612L152.915 190.314L151.782 191.78C150.857 191.784 149.936 191.852 149.039 191.982L147.276 190.732L144.626 191.44L145.149 193.022C144.617 193.241 144.117 193.484 143.654 193.751C143.458 193.864 143.274 193.981 143.094 194.1L140.434 193.662L138.965 195.122L140.924 196.226C140.608 196.737 140.4 197.269 140.305 197.811L137.741 198.326L137.999 200.015L140.656 200.269C140.908 200.802 141.271 201.315 141.738 201.798L140.198 203.055L142.086 204.353L144.475 203.702C145.217 204.061 146.033 204.365 146.905 204.607L146.891 206.13L149.733 206.573L151.025 205.256C151.991 205.302 152.962 205.279 153.918 205.188L155.412 206.446L158.174 205.87L157.925 204.36C158.754 204.074 159.518 203.73 160.201 203.336V203.336ZM157.148 201.531C156.123 202.123 154.816 202.525 153.392 202.687C151.968 202.848 150.491 202.762 149.147 202.44C147.804 202.117 146.654 201.572 145.844 200.873C145.034 200.175 144.6 199.354 144.597 198.516C144.593 197.677 145.021 196.858 145.825 196.162C146.629 195.466 147.774 194.924 149.115 194.604C150.456 194.285 151.932 194.203 153.358 194.369C154.783 194.535 156.094 194.94 157.123 195.535C157.807 195.929 158.35 196.397 158.722 196.912C159.093 197.427 159.286 197.979 159.288 198.536C159.29 199.093 159.102 199.644 158.735 200.158C158.368 200.672 157.829 201.139 157.148 201.531V201.531Z" fill="#FFB700" stroke="#182F43" stroke-width="1.08337" stroke-linecap="round" stroke-linejoin="round"/>
</svg>
