<svg width="285" height="240" viewBox="0 0 285 240" fill="none" xmlns="http://www.w3.org/2000/svg">
<path d="M251.782 216.078H0V226.408H251.782V216.078Z" fill="#ECECF0"/>
<path d="M218.56 192.83C218.56 192.83 215.436 185.851 214.687 185.135C213.938 184.418 207.953 182.249 206.294 176.742C204.635 171.235 201.485 156.535 209.425 157.497C217.366 158.459 215.436 173.856 218.322 173.372C221.207 172.888 215.92 148.362 220.969 144.966C226.017 141.57 234.197 144.727 233.235 157.716C232.273 170.706 230.349 178.156 232.034 177.439C233.719 176.723 238.529 174.069 238.529 179.602C238.529 185.135 233.958 188.983 231.311 189.221C228.664 189.46 227.437 189.706 227.437 189.706V193.308L218.56 192.83Z" fill="#182F43" stroke="#182F43" stroke-linecap="round" stroke-linejoin="round"/>
<path d="M216.016 179.305C214.201 177.588 212.536 175.922 211.767 174.392C210.244 171.339 209.095 162.771 209.095 162.771" stroke="white" stroke-width="0.5" stroke-linecap="round" stroke-linejoin="round"/>
<path d="M206.392 166.956C207.592 171.959 207.76 175.73 211.388 180.12C213.325 182.496 218.451 184.51 219.026 186.608C219.54 189.133 219.926 191.682 220.181 194.245L223.048 194.439C223.048 194.439 223.629 189.468 221.989 185.924" stroke="white" stroke-width="0.5" stroke-linecap="round" stroke-linejoin="round"/>
<path d="M207.192 158.931C207.192 158.931 205.048 160.577 205.81 164.631" stroke="white" stroke-width="0.5" stroke-linecap="round" stroke-linejoin="round"/>
<path d="M220.923 173.695L219.787 175.535" stroke="white" stroke-width="0.5" stroke-linecap="round" stroke-linejoin="round"/>
<path d="M221.318 173.056L220.924 173.695" stroke="white" stroke-width="0.5" stroke-linecap="round" stroke-linejoin="round"/>
<path d="M225.133 145.567C225.133 145.567 220.743 145.379 220.743 149.576C220.743 153.12 221.828 165.219 221.595 170.751" stroke="white" stroke-width="0.5" stroke-linecap="round" stroke-linejoin="round"/>
<path d="M228.574 179.944C228.471 181.384 228.406 182.404 228.406 182.791C228.406 184.889 233.745 176.871 236.231 176.684C236.231 176.684 238.71 176.49 237.755 181.074C237.407 182.775 236.602 184.35 235.425 185.627C234.249 186.905 232.746 187.837 231.079 188.324C228.975 188.898 227.257 187.943 226.876 188.898C226.572 190.022 226.38 191.172 226.302 192.333" stroke="white" stroke-width="0.5" stroke-linecap="round" stroke-linejoin="round"/>
<path d="M229.821 149.551C230.153 150.935 230.309 152.356 230.286 153.779C230.286 158.247 229.433 168.783 228.865 175.898" stroke="white" stroke-width="0.5" stroke-linecap="round" stroke-linejoin="round"/>
<path d="M227.612 145.953C228.186 146.282 228.65 146.771 228.949 147.361" stroke="white" stroke-width="0.5" stroke-linecap="round" stroke-linejoin="round"/>
<path d="M224.507 178.782L224.371 181.455" stroke="white" stroke-width="0.5" stroke-linecap="round" stroke-linejoin="round"/>
<path d="M225.513 148.239C225.513 148.239 224.37 148.62 224.751 152.629C225.067 155.941 224.751 170.977 224.603 176.11" stroke="white" stroke-width="0.5" stroke-linecap="round" stroke-linejoin="round"/>
<path d="M237.541 177.827C235.903 180.891 233.281 183.313 230.097 184.703C224.932 186.801 224.751 185.845 224.751 187.931C224.751 190.016 224.558 193.851 224.558 193.851" stroke="white" stroke-width="0.5" stroke-linecap="round" stroke-linejoin="round"/>
<path d="M230.381 220.977H213.699L210.129 196.812H233.951L230.381 220.977Z" fill="#FFB700" stroke="#182F43" stroke-linecap="round" stroke-linejoin="round"/>
<path d="M235.997 193.004H208.081V199.473H235.997V193.004Z" fill="#FFB700" stroke="#182F43" stroke-linecap="round" stroke-linejoin="round"/>
<path d="M138.785 204.706V191.588H100.153V204.706C100.147 208.98 98.7001 213.126 96.0469 216.476L94.3555 218.606H144.583L142.891 216.476C140.238 213.126 138.792 208.98 138.785 204.706Z" fill="white" stroke="#182F43" stroke-linecap="round" stroke-linejoin="round"/>
<path d="M97.7773 213.893H141.161C139.604 211.082 138.786 207.92 138.786 204.706V191.588H100.153V204.706C100.152 207.92 99.3348 211.082 97.7773 213.893V213.893Z" fill="#FFB700"/>
<path d="M191.627 79.2686H47.3047C44.2812 79.2686 41.8301 81.7196 41.8301 84.7432V190.253C41.8301 193.276 44.2812 195.727 47.3047 195.727H191.627C194.651 195.727 197.102 193.276 197.102 190.253V84.7432C197.102 81.7196 194.651 79.2686 191.627 79.2686Z" fill="#182F43" stroke="#182F43" stroke-linecap="round" stroke-linejoin="round"/>
<path d="M41.8301 177.625H197.108V190.246C197.108 191.698 196.532 193.091 195.505 194.118C194.478 195.144 193.086 195.721 191.634 195.721H47.3112C45.8592 195.721 44.4667 195.144 43.44 194.118C42.4133 193.091 41.8365 191.698 41.8365 190.246V190.246V177.625H41.8301Z" fill="white" stroke="#182F43" stroke-linecap="round" stroke-linejoin="round"/>
<path d="M189.298 86.5195H49.6426V168.794H189.298V86.5195Z" fill="white" stroke="#182F43" stroke-linecap="round" stroke-linejoin="round"/>
<path d="M122.336 186.676C122.336 186.109 122.168 185.555 121.853 185.083C121.538 184.612 121.091 184.245 120.567 184.028C120.043 183.811 119.467 183.754 118.911 183.865C118.355 183.975 117.844 184.248 117.443 184.649C117.042 185.05 116.769 185.561 116.659 186.117C116.548 186.673 116.605 187.249 116.822 187.773C117.039 188.297 117.406 188.744 117.877 189.059C118.349 189.374 118.903 189.542 119.47 189.542C120.23 189.542 120.959 189.24 121.497 188.703C122.034 188.165 122.336 187.436 122.336 186.676V186.676Z" fill="#182F43" stroke="#182F43" stroke-linecap="round" stroke-linejoin="round"/>
<path d="M144.589 218.633H94.3555V220.976H144.589V218.633Z" fill="white" stroke="#182F43" stroke-linecap="round" stroke-linejoin="round"/>
<path d="M187.987 92.3164H50.7402V99.5277H187.987V92.3164Z" fill="white" stroke="#182F43" stroke-linecap="round" stroke-linejoin="round"/>
<path d="M73.3877 99.5288L71.7414 95.0742H50.7402V99.5288V105.436V165.289H187.987V99.5288H73.3877Z" fill="#FFB700" stroke="#182F43" stroke-linecap="round" stroke-linejoin="round"/>
<path d="M87.6797 132.137H152.033" stroke="#182F43" stroke-width="2" stroke-linecap="round" stroke-linejoin="round"/>
<path d="M87.6797 138.463H152.033" stroke="#182F43" stroke-width="2" stroke-linecap="round" stroke-linejoin="round"/>
<path d="M87.6797 144.791H152.033" stroke="#182F43" stroke-width="2" stroke-linecap="round" stroke-linejoin="round"/>
<path d="M87.6797 151.124H152.033" stroke="#182F43" stroke-width="2" stroke-linecap="round" stroke-linejoin="round"/>
<path d="M148.628 115.268H90.3116C89.7114 115.268 89.1169 115.151 88.562 114.922C88.0071 114.693 87.5027 114.357 87.0777 113.933C86.6527 113.51 86.3153 113.006 86.0848 112.452C85.8543 111.898 85.7352 111.303 85.7344 110.703V110.703C85.7335 110.103 85.8509 109.508 86.0798 108.954C86.3088 108.399 86.6447 107.894 87.0686 107.469C87.4924 107.044 87.9958 106.707 88.55 106.476C89.1043 106.246 89.6985 106.127 90.2987 106.126H148.628C149.23 106.125 149.825 106.243 150.381 106.473C150.937 106.702 151.441 107.04 151.867 107.465C152.292 107.89 152.629 108.395 152.859 108.951C153.089 109.506 153.206 110.102 153.205 110.703V110.703C153.205 111.303 153.086 111.898 152.855 112.452C152.625 113.006 152.287 113.51 151.862 113.933C151.437 114.357 150.933 114.693 150.378 114.922C149.823 115.151 149.228 115.268 148.628 115.268Z" fill="white" stroke="#182F43" stroke-linecap="round" stroke-linejoin="round"/>
<path d="M148.631 115.268H140.664V106.113H148.631C149.232 106.112 149.828 106.23 150.383 106.46C150.939 106.69 151.444 107.027 151.869 107.452C152.294 107.877 152.632 108.382 152.861 108.938C153.091 109.494 153.209 110.089 153.208 110.691V110.691C153.209 111.292 153.091 111.887 152.861 112.443C152.632 112.999 152.294 113.504 151.869 113.929C151.444 114.354 150.939 114.691 150.383 114.921C149.828 115.151 149.232 115.269 148.631 115.268V115.268Z" fill="#182F43" stroke="#182F43" stroke-linecap="round" stroke-linejoin="round"/>
<path d="M147.315 107.527C146.935 107.172 146.459 106.937 145.946 106.853C145.433 106.768 144.907 106.837 144.434 107.052C143.96 107.266 143.561 107.616 143.287 108.058C143.012 108.499 142.875 109.012 142.892 109.532C142.909 110.051 143.08 110.554 143.383 110.976C143.686 111.399 144.107 111.722 144.594 111.905C145.081 112.087 145.61 112.122 146.117 112.003C146.623 111.885 147.082 111.619 147.437 111.24V111.24C147.674 110.989 147.859 110.694 147.981 110.372C148.103 110.05 148.16 109.707 148.15 109.363C148.139 109.018 148.06 108.679 147.918 108.366C147.776 108.052 147.573 107.769 147.321 107.534L147.315 107.527ZM147.056 110.885C146.771 111.187 146.403 111.399 145.998 111.492C145.593 111.586 145.169 111.557 144.78 111.41C144.391 111.263 144.055 111.004 143.813 110.666C143.571 110.328 143.434 109.925 143.421 109.51C143.408 109.094 143.517 108.684 143.737 108.331C143.956 107.978 144.275 107.697 144.654 107.525C145.032 107.353 145.453 107.297 145.864 107.364C146.274 107.431 146.655 107.618 146.96 107.902C147.368 108.285 147.607 108.814 147.625 109.373C147.644 109.932 147.439 110.476 147.056 110.885V110.885Z" fill="white"/>
<path d="M148.83 111.941C148.772 111.885 148.699 111.846 148.62 111.83C148.541 111.814 148.46 111.821 148.384 111.85L147.435 110.96C147.387 110.912 147.322 110.886 147.255 110.886C147.187 110.886 147.122 110.912 147.074 110.96L146.99 111.05C146.944 111.1 146.918 111.166 146.918 111.234C146.918 111.302 146.944 111.368 146.99 111.418L147.926 112.296C147.898 112.376 147.894 112.462 147.913 112.544C147.933 112.627 147.975 112.702 148.036 112.761L149.65 114.342C149.756 114.448 149.9 114.507 150.05 114.507C150.2 114.507 150.344 114.448 150.45 114.342V114.342C150.556 114.236 150.615 114.092 150.615 113.942C150.615 113.792 150.556 113.648 150.45 113.542L148.83 111.941Z" fill="white"/>
<path d="M165.497 142.879C165.686 143.347 165.967 143.772 166.323 144.129C166.679 144.486 167.103 144.768 167.57 144.958C168.299 145.255 169.274 145.191 170.397 145.823C172.935 147.25 179.268 145.978 183.858 146.469C188.448 146.96 194.633 141.879 194.633 141.879L212.845 142.879V124.803C212.845 124.803 193.839 125.597 189.72 124.009C185.601 122.421 181.011 119.102 178.952 119.257C176.892 119.412 159.945 121.317 159.945 121.317L165.491 142.879H165.497Z" fill="white" stroke="#182F43" stroke-linecap="round" stroke-linejoin="round"/>
<path d="M160.782 69.9935C157.022 70.4097 153.469 71.9317 150.574 74.3669C147.678 76.8022 145.57 80.0414 144.516 83.6748C143.461 87.3082 143.508 91.1728 144.65 94.7797C145.792 98.3866 147.978 101.574 150.931 103.939C153.884 106.303 157.472 107.739 161.242 108.064C165.011 108.39 168.792 107.59 172.107 105.766C175.422 103.943 178.122 101.177 179.865 97.8193C181.608 94.4613 182.316 90.662 181.9 86.9016V86.9016C181.625 84.4041 180.86 81.9853 179.65 79.7835C178.44 77.5818 176.807 75.6402 174.846 74.0698C172.885 72.4994 170.633 71.3311 168.22 70.6317C165.807 69.9322 163.279 69.7153 160.782 69.9935ZM164.578 104.262C161.562 104.597 158.514 104.03 155.819 102.633C153.125 101.235 150.905 99.0705 149.441 96.4119C147.977 93.7532 147.335 90.7201 147.594 87.6962C147.854 84.6722 149.005 81.7932 150.901 79.4232C152.797 77.0532 155.353 75.2987 158.246 74.3814C161.139 73.4642 164.24 73.4255 167.155 74.2702C170.07 75.1149 172.669 76.805 174.624 79.1269C176.578 81.4488 177.801 84.2982 178.136 87.3147C178.358 89.3177 178.184 91.3449 177.623 93.2805C177.062 95.2162 176.126 97.0224 174.867 98.5961C173.608 100.17 172.051 101.48 170.286 102.452C168.521 103.424 166.581 104.039 164.578 104.262V104.262Z" fill="white" stroke="#182F43" stroke-linecap="round" stroke-linejoin="round"/>
<path d="M160.681 68.9017C156.92 69.3179 153.368 70.8399 150.472 73.2751C147.577 75.7104 145.469 78.9496 144.414 82.583C143.36 86.2164 143.406 90.081 144.548 93.6879C145.69 97.2948 147.876 100.482 150.829 102.847C153.783 105.211 157.371 106.647 161.14 106.973C164.91 107.298 168.691 106.498 172.006 104.675C175.32 102.851 178.02 100.085 179.763 96.7275C181.506 93.3695 182.214 89.5702 181.798 85.8098V85.8098C181.238 80.768 178.699 76.1548 174.739 72.9843C170.78 69.8137 165.723 68.3452 160.681 68.9017V68.9017ZM164.477 103.17C161.46 103.505 158.412 102.938 155.718 101.541C153.023 100.144 150.804 97.9787 149.34 95.3201C147.876 92.6614 147.233 89.6283 147.493 86.6044C147.753 83.5804 148.903 80.7014 150.799 78.3314C152.695 75.9614 155.252 74.2069 158.145 73.2896C161.038 72.3724 164.138 72.3337 167.053 73.1784C169.968 74.0231 172.568 75.7132 174.522 78.0351C176.477 80.3571 177.699 83.2064 178.034 86.223C178.257 88.2259 178.083 90.2531 177.522 92.1887C176.961 94.1244 176.024 95.9306 174.765 97.5043C173.506 99.078 171.95 100.388 170.185 101.36C168.419 102.332 166.48 102.947 164.477 103.17V103.17Z" fill="white" stroke="#182F43" stroke-linecap="round" stroke-linejoin="round"/>
<path d="M165.52 107.283L164.616 107.383C163.595 107.496 162.859 108.415 162.972 109.436L164.441 122.693C164.554 123.713 165.473 124.449 166.493 124.336L167.398 124.236C168.419 124.123 169.154 123.204 169.041 122.183L167.573 108.926C167.46 107.906 166.541 107.17 165.52 107.283Z" fill="#FFB700" stroke="#182F43" stroke-linecap="round" stroke-linejoin="round"/>
<path d="M165.224 118.349L167.16 118.142C167.993 118.053 168.828 118.296 169.483 118.818C170.138 119.34 170.561 120.099 170.66 120.931L173.558 147.149C173.676 148.22 173.363 149.295 172.689 150.137C172.015 150.978 171.034 151.517 169.962 151.636H169.833C169.302 151.695 168.765 151.649 168.252 151.5C167.739 151.351 167.261 151.103 166.844 150.768C166.427 150.434 166.08 150.021 165.823 149.553C165.566 149.085 165.404 148.571 165.346 148.04L162.448 121.828C162.401 121.413 162.437 120.993 162.553 120.592C162.669 120.191 162.862 119.816 163.123 119.49C163.384 119.164 163.707 118.892 164.073 118.691C164.439 118.489 164.841 118.362 165.256 118.316L165.224 118.349Z" fill="#182F43" stroke="#182F43" stroke-linecap="round" stroke-linejoin="round"/>
<path d="M168.04 140.194C168.04 140.194 163.449 140.362 162.804 141.156C162.158 141.95 162.274 144.713 163.52 145.03C166.697 145.863 173.45 145.378 173.714 144.81C173.979 144.242 174.521 140.937 173.127 140.582C171.443 140.324 169.743 140.194 168.04 140.194V140.194Z" fill="white" stroke="#182F43" stroke-linecap="round" stroke-linejoin="round"/>
<path d="M166.716 133.79C166.716 133.79 161.377 133.59 160.544 134.552C159.712 135.513 159.55 139.109 160.958 139.652C164.547 141.027 172.623 140.491 172.991 139.781C173.359 139.071 174.16 135.384 172.578 134.79C170.997 134.196 166.716 133.79 166.716 133.79Z" fill="white" stroke="#182F43" stroke-linecap="round" stroke-linejoin="round"/>
<path d="M165.947 126.559C165.947 126.559 160.24 126.339 159.349 127.372C158.458 128.405 158.284 132.24 159.788 132.821C163.662 134.293 172.055 134.293 172.449 133.531C172.842 132.769 173.901 128.263 172.21 127.624C170.518 126.985 165.947 126.559 165.947 126.559Z" fill="white" stroke="#182F43" stroke-linecap="round" stroke-linejoin="round"/>
<path d="M162.656 119.794C162.656 119.794 156.949 119.581 156.058 120.607C155.168 121.634 154.954 125.591 156.497 126.056C158.04 126.521 168.764 127.528 169.158 126.773C169.551 126.017 170.61 121.498 168.919 120.859C167.227 120.22 162.656 119.794 162.656 119.794Z" fill="white" stroke="#182F43" stroke-linecap="round" stroke-linejoin="round"/>
<path d="M181.345 138.78C180.32 138.498 179.349 138.049 178.472 137.45C173.882 134.28 174.037 126.998 174.037 126.998L172.933 126.682C172.021 126.335 171.166 125.854 170.395 125.255C170.765 126.759 170.981 128.297 171.041 129.845C171.024 130.696 170.692 131.51 170.109 132.129C169.525 132.748 168.732 133.129 167.884 133.196C166.457 133.357 165.825 133.512 165.347 131.614C164.869 129.716 162.5 122.111 162.338 121C162.196 119.993 163.888 118.199 166.58 117.772C170.718 118.108 174.798 119.264 178.969 119.264C180.42 119.4 181.811 119.912 183.004 120.749" fill="white"/>
<path d="M181.345 138.78C180.32 138.498 179.349 138.049 178.472 137.45C173.882 134.28 174.037 126.998 174.037 126.998L172.933 126.682C172.021 126.335 171.166 125.854 170.395 125.255C170.765 126.759 170.981 128.297 171.041 129.845C171.024 130.696 170.692 131.51 170.109 132.129C169.525 132.748 168.732 133.129 167.884 133.196C166.457 133.357 165.825 133.512 165.347 131.614C164.869 129.716 162.5 122.111 162.338 121C162.196 119.993 163.888 118.199 166.58 117.772C170.718 118.108 174.798 119.264 178.969 119.264C180.42 119.4 181.811 119.912 183.004 120.749" stroke="#182F43" stroke-linecap="round" stroke-linejoin="round"/>
<path d="M185.71 139.181C185.207 139.206 184.702 139.206 184.199 139.181Z" fill="white"/>
<path d="M185.71 139.181C185.207 139.206 184.702 139.206 184.199 139.181" stroke="#182F43" stroke-linecap="round" stroke-linejoin="round"/>
<path d="M189.086 138.555C187.99 138.902 186.857 139.118 185.71 139.2Z" fill="white"/>
<path d="M189.086 138.555C187.99 138.902 186.857 139.118 185.71 139.2" stroke="#182F43" stroke-linecap="round" stroke-linejoin="round"/>
<path d="M194.788 136.502H200.489" stroke="#182F43" stroke-linecap="round" stroke-linejoin="round"/>
<path d="M195.265 138.084H197.64" stroke="#182F43" stroke-linecap="round" stroke-linejoin="round"/>
<path d="M174.037 127C174.037 127 177.188 127 179.254 125.121" stroke="#182F43" stroke-linecap="round" stroke-linejoin="round"/>
<path d="M170.325 125.049C170.234 124.189 170.055 123.341 169.789 122.519" stroke="#182F43" stroke-linecap="round" stroke-linejoin="round"/>
<path d="M165.303 130.783C165.303 130.783 164.702 129.117 165.432 128.517C166.161 127.917 168.098 127.052 168.434 127.717C168.769 128.382 169.499 131.448 169.299 132.048L169.099 132.649" stroke="#182F43" stroke-width="0.5" stroke-linecap="round" stroke-linejoin="round"/>
<path d="M252.813 150.982H198.228V124.151H252.813" fill="#AA4337"/>
<path d="M252.813 150.982H198.228V124.151H252.813" stroke="#182F43" stroke-linecap="round" stroke-linejoin="round"/>
<path d="M202.229 149.189C202.906 149.189 203.455 148.639 203.455 147.962C203.455 147.285 202.906 146.735 202.229 146.735C201.551 146.735 201.002 147.285 201.002 147.962C201.002 148.639 201.551 149.189 202.229 149.189Z" fill="white" stroke="#182F43" stroke-linecap="round" stroke-linejoin="round"/>
<path d="M115.483 98.5983C115.95 98.4097 116.375 98.1291 116.733 97.7731C117.09 97.4171 117.372 96.993 117.562 96.5259C117.859 95.7964 117.788 94.828 118.427 93.6982C119.847 91.1675 118.582 84.8342 119.072 80.2376C119.563 75.6409 114.476 69.4691 114.476 69.4691L115.463 51.2568H97.3868C97.3868 51.2568 98.1745 70.2631 96.5927 74.3756C95.011 78.488 91.6862 83.0911 91.8412 85.1505C91.9961 87.21 93.9135 104.144 93.9135 104.144L115.451 98.5983H115.483Z" fill="white" stroke="#182F43" stroke-linecap="round" stroke-linejoin="round"/>
<path d="M42.6386 103.298C43.0521 107.058 44.5715 110.612 47.0047 113.509C49.438 116.407 52.6757 118.517 56.3085 119.574C59.9413 120.631 63.806 120.587 67.4138 119.448C71.0217 118.309 74.2106 116.125 76.5773 113.173C78.944 110.221 80.3822 106.634 80.71 102.865C81.0379 99.0953 80.2406 95.3135 78.419 91.9974C76.5974 88.6813 73.8334 85.9798 70.4764 84.2346C67.1195 82.4895 63.3204 81.779 59.5596 82.193H59.5145C54.4803 82.7592 49.8763 85.2992 46.7126 89.2557C43.5488 93.2122 42.0837 98.2621 42.6386 103.298V103.298ZM76.8551 99.495C77.1914 102.513 76.6252 105.562 75.2284 108.258C73.8315 110.954 71.6665 113.175 69.0073 114.641C66.3481 116.106 63.3141 116.75 60.2888 116.491C57.2635 116.233 54.383 115.083 52.0113 113.187C49.6396 111.291 47.8834 108.734 46.9647 105.84C46.046 102.946 46.0061 99.8449 46.8499 96.9282C47.6938 94.0115 49.3836 91.4106 51.7057 89.4543C54.0277 87.4979 56.8778 86.2741 59.8954 85.9375V85.9375C63.9419 85.4878 68.0014 86.6633 71.1817 89.2055C74.3619 91.7478 76.4025 95.4487 76.8551 99.495V99.495Z" fill="white" stroke="#182F43" stroke-linecap="round" stroke-linejoin="round"/>
<path d="M41.523 103.415C41.9404 107.174 43.4627 110.724 45.8975 113.618C48.3323 116.511 51.5703 118.617 55.2022 119.671C58.834 120.724 62.6967 120.677 66.3018 119.535C69.9069 118.394 73.0925 116.209 75.456 113.257C77.8196 110.305 79.2548 106.719 79.5803 102.951C79.9058 99.1837 79.107 95.4043 77.2848 92.0907C75.4626 88.7772 72.6989 86.0783 69.3431 84.3352C65.9872 82.5921 62.1899 81.8832 58.4312 82.298C55.9341 82.5736 53.5157 83.3385 51.3143 84.5491C49.113 85.7597 47.1717 87.3922 45.6015 89.3533C44.0313 91.3144 42.8629 93.5657 42.1631 95.9785C41.4633 98.3914 41.2458 100.918 41.523 103.415ZM75.7912 99.6258C76.1263 102.642 75.5594 105.69 74.1622 108.385C72.7649 111.079 70.6001 113.299 67.9415 114.763C65.2828 116.227 62.2497 116.869 59.2258 116.61C56.2018 116.35 53.3228 115.199 50.9528 113.303C48.5828 111.407 46.8283 108.851 45.911 105.958C44.9938 103.065 44.9551 99.9645 45.7998 97.0493C46.6445 94.1341 48.3346 91.5349 50.6565 89.5803C52.9785 87.6257 55.8278 86.4035 58.8444 86.0683C60.8473 85.8457 62.8745 86.0198 64.8101 86.5807C66.7458 87.1416 68.552 88.0782 70.1257 89.3371C71.6994 90.5961 73.0097 92.1526 73.9817 93.918C74.9538 95.6833 75.5687 97.6228 75.7912 99.6258V99.6258Z" fill="white" stroke="#182F43" stroke-linecap="round" stroke-linejoin="round"/>
<path d="M94.8081 95.0653L81.5511 96.5336C80.5305 96.6466 79.7948 97.5657 79.9078 98.5863L80.008 99.491C80.121 100.512 81.0401 101.247 82.0607 101.134L95.3176 99.6661C96.3382 99.5531 97.074 98.6341 96.961 97.6134L96.8607 96.7087C96.7477 95.688 95.8287 94.9523 94.8081 95.0653Z" fill="#FFB700" stroke="#182F43" stroke-linecap="round" stroke-linejoin="round"/>
<path d="M90.9685 98.8767L90.7555 96.94C90.6631 96.101 90.9077 95.2597 91.4356 94.601C91.9634 93.9424 92.7313 93.5204 93.5703 93.4279L119.781 90.5292C120.314 90.4672 120.855 90.5112 121.371 90.6586C121.887 90.8059 122.368 91.0538 122.788 91.388C123.208 91.7221 123.558 92.136 123.818 92.6057C124.077 93.0754 124.241 93.5918 124.301 94.1252V94.1252V94.2543C124.363 94.7873 124.319 95.3274 124.171 95.8434C124.024 96.3595 123.776 96.8413 123.442 97.2612C123.108 97.6812 122.694 98.0309 122.224 98.2904C121.754 98.55 121.238 98.7141 120.705 98.7734L94.4935 101.672C93.6557 101.767 92.8146 101.526 92.1541 101.002C91.4936 100.478 91.0673 99.714 90.9685 98.8767Z" fill="#182F43" stroke="#182F43" stroke-linecap="round" stroke-linejoin="round"/>
<path d="M112.811 96.0609C112.811 96.0609 112.985 100.645 113.772 101.29C114.56 101.936 117.336 101.82 117.646 100.574C118.485 97.4037 117.995 90.6444 117.427 90.3861C116.858 90.1279 113.553 89.5727 113.204 90.9736C112.944 92.6569 112.813 94.3576 112.811 96.0609V96.0609Z" fill="white" stroke="#182F43" stroke-linecap="round" stroke-linejoin="round"/>
<path d="M106.411 97.38C106.411 97.38 106.205 102.719 107.167 103.552C108.129 104.385 111.724 104.553 112.267 103.139C113.648 99.5492 113.106 91.4728 112.396 91.1113C111.686 90.7498 107.999 89.9428 107.405 91.5245C106.812 93.1062 106.411 97.38 106.411 97.38Z" fill="white" stroke="#182F43" stroke-linecap="round" stroke-linejoin="round"/>
<path d="M99.1799 98.16C99.1799 98.16 98.9604 103.867 99.9868 104.758C101.013 105.649 104.861 105.823 105.442 104.313C106.914 100.478 106.914 92.0462 106.152 91.6589C105.39 91.2715 100.878 90.2063 100.245 91.8977C99.6124 93.5892 99.1799 98.16 99.1799 98.16Z" fill="white" stroke="#182F43" stroke-linecap="round" stroke-linejoin="round"/>
<path d="M92.4141 101.445C92.4141 101.445 92.1946 107.152 93.2275 108.043C94.2605 108.934 98.2115 109.147 98.6763 107.597C99.1411 106.048 100.148 95.3309 99.3865 94.9371C98.6247 94.5432 94.1184 93.4909 93.4793 95.1824C92.8401 96.8738 92.4141 101.445 92.4141 101.445Z" fill="white" stroke="#182F43" stroke-linecap="round" stroke-linejoin="round"/>
<path d="M111.794 78.373C112.058 80.9161 111.447 83.4729 110.064 85.6231C106.901 90.2197 99.6121 90.0583 99.6121 90.0583L99.2958 91.1687C98.9513 92.0798 98.4702 92.9332 97.869 93.6995C99.3755 93.3297 100.916 93.1134 102.466 93.0539C103.313 93.0785 104.122 93.4159 104.736 94.0012C105.35 94.5864 105.725 95.3781 105.79 96.2237C105.952 97.6505 106.107 98.2832 104.209 98.7545C102.311 99.2257 94.7056 101.608 93.5952 101.769C92.588 101.911 90.7933 100.22 90.3672 97.5278C90.7094 93.3896 91.865 89.303 91.865 85.1389C92.0001 83.6855 92.5119 82.2926 93.3498 81.0975" fill="white"/>
<path d="M111.794 78.373C112.058 80.9161 111.447 83.4729 110.064 85.6231C106.901 90.2197 99.6121 90.0583 99.6121 90.0583L99.2958 91.1687C98.9513 92.0798 98.4702 92.9332 97.869 93.6995C99.3755 93.3297 100.916 93.1134 102.466 93.0539C103.313 93.0785 104.122 93.4159 104.736 94.0012C105.35 94.5864 105.725 95.3781 105.79 96.2237C105.952 97.6505 106.107 98.2832 104.209 98.7545C102.311 99.2257 94.7056 101.608 93.5952 101.769C92.588 101.911 90.7933 100.22 90.3672 97.5278C90.7094 93.3896 91.865 89.303 91.865 85.1389C92.0001 83.6855 92.5119 82.2926 93.3498 81.0975" stroke="#182F43" stroke-linecap="round" stroke-linejoin="round"/>
<path d="M111.176 75.0137C111.367 75.6176 111.514 76.2347 111.615 76.8601Z" fill="white"/>
<path d="M111.176 75.0137C111.367 75.6176 111.514 76.2347 111.615 76.8601" stroke="#182F43" stroke-linecap="round" stroke-linejoin="round"/>
<path d="M109.117 69.309V63.6084" stroke="#182F43" stroke-linecap="round" stroke-linejoin="round"/>
<path d="M110.697 68.8377V66.4619" stroke="#182F43" stroke-linecap="round" stroke-linejoin="round"/>
<path d="M99.6131 90.0582C99.6131 90.0582 99.6131 86.9077 97.7344 84.8418" stroke="#182F43" stroke-linecap="round" stroke-linejoin="round"/>
<path d="M97.6694 93.7764C96.8098 93.865 95.9617 94.0424 95.1387 94.3057" stroke="#182F43" stroke-linecap="round" stroke-linejoin="round"/>
<path d="M103.402 98.7724C103.402 98.7724 101.737 99.3728 101.136 98.6368C100.536 97.9008 99.6707 95.9705 100.336 95.6412C101.001 95.312 104.067 94.576 104.668 94.7761L105.268 94.9698" stroke="#182F43" stroke-width="0.5" stroke-linecap="round" stroke-linejoin="round"/>
<path d="M123.603 11.2822V65.8672H96.7656V11.2822" fill="#162A3C"/>
<path d="M123.603 11.2822V65.8672H96.7656V11.2822" stroke="#FFB700" stroke-linecap="round" stroke-linejoin="round"/>
<path d="M120.574 63.091C121.252 63.091 121.801 62.5418 121.801 61.8643C121.801 61.1869 121.252 60.6377 120.574 60.6377C119.897 60.6377 119.348 61.1869 119.348 61.8643C119.348 62.5418 119.897 63.091 120.574 63.091Z" fill="white" stroke="#182F43" stroke-linecap="round" stroke-linejoin="round"/>
<path d="M88.4761 195.82C88.2885 196.288 88.0082 196.713 87.6521 197.071C87.296 197.428 86.8713 197.709 86.4037 197.899C85.6742 198.202 84.7058 198.131 83.576 198.764C81.0453 200.19 74.712 198.925 70.1153 199.409C65.5187 199.893 59.3468 194.819 59.3468 194.819L41.1152 195.82V177.743C41.1152 177.743 60.1215 178.537 64.2404 176.955C68.3593 175.374 72.9495 172.043 75.009 172.204C77.0684 172.365 94.0153 174.263 94.0153 174.263L88.4761 195.82Z" fill="white" stroke="#182F43" stroke-linecap="round" stroke-linejoin="round"/>
<path d="M93.1574 122.969C96.9178 123.385 100.47 124.907 103.366 127.343C106.261 129.778 108.369 133.017 109.424 136.651C110.478 140.284 110.432 144.148 109.29 147.755C108.148 151.362 105.962 154.55 103.009 156.914C100.055 159.279 96.4672 160.715 92.6978 161.04C88.9285 161.365 85.1473 160.566 81.8324 158.742C78.5176 156.919 75.818 154.153 74.0749 150.795C72.3319 147.437 71.6237 143.638 72.04 139.877V139.877C72.5982 134.836 75.1359 130.224 79.095 127.054C83.0541 123.885 88.1102 122.417 93.1509 122.976L93.1574 122.969ZM89.3613 157.237C92.3789 157.574 95.4285 157.007 98.1244 155.611C100.82 154.214 103.041 152.049 104.507 149.39C105.972 146.73 106.617 143.696 106.358 140.671C106.099 137.646 104.949 134.765 103.053 132.393C101.157 130.022 98.6006 128.266 95.7066 127.347C92.8126 126.428 89.7112 126.388 86.7945 127.232C83.8779 128.076 81.2769 129.766 79.3206 132.088C77.3643 134.41 76.1404 137.26 75.8038 140.278V140.278C75.3541 144.324 76.5296 148.384 79.0719 151.564C81.6141 154.744 85.3151 156.785 89.3613 157.237V157.237Z" fill="white" stroke="#182F43" stroke-linecap="round" stroke-linejoin="round"/>
<path d="M93.2745 121.88C97.0332 122.297 100.584 123.82 103.477 126.255C106.37 128.69 108.477 131.928 109.53 135.561C110.583 139.193 110.535 143.056 109.393 146.661C108.251 150.266 106.065 153.452 103.113 155.815C100.16 158.178 96.5731 159.612 92.8053 159.937C89.0375 160.262 85.258 159.462 81.9447 157.639C78.6314 155.816 75.9331 153.051 74.191 149.694C72.4488 146.338 71.741 142.54 72.1571 138.781C72.4335 136.285 73.199 133.867 74.4099 131.666C75.6208 129.466 77.2534 127.525 79.2145 125.956C81.1755 124.386 83.4265 123.218 85.839 122.519C88.2515 121.82 90.7781 121.602 93.2745 121.88V121.88ZM89.4784 156.148C92.4961 156.484 95.5456 155.918 98.2415 154.521C100.937 153.124 103.159 150.959 104.624 148.3C106.09 145.641 106.734 142.607 106.475 139.581C106.216 136.556 105.066 133.676 103.17 131.304C101.274 128.932 98.7177 127.176 95.8238 126.257C92.9298 125.339 89.8284 125.299 86.9117 126.143C83.995 126.986 81.394 128.676 79.4377 130.998C77.4814 133.32 76.2576 136.17 75.9209 139.188C75.4732 143.233 76.6497 147.29 79.1919 150.468C81.7341 153.645 85.434 155.684 89.4784 156.135V156.148Z" fill="white" stroke="#182F43" stroke-linecap="round" stroke-linejoin="round"/>
<path d="M86.3761 161.904L84.9078 175.161C84.7948 176.181 85.5305 177.1 86.5511 177.213L87.4559 177.314C88.4765 177.427 89.3955 176.691 89.5086 175.67L90.9768 162.413C91.0899 161.393 90.3541 160.474 89.3335 160.361L88.4288 160.261C87.4081 160.147 86.4891 160.883 86.3761 161.904Z" fill="#FFB700" stroke="#182F43" stroke-linecap="round" stroke-linejoin="round"/>
<path d="M84.132 204.636H84.0028C83.4691 204.578 82.9523 204.414 82.4822 204.155C82.012 203.896 81.5978 203.546 81.2635 203.126C80.9292 202.706 80.6814 202.223 80.5344 201.707C80.3874 201.191 80.344 200.65 80.4069 200.117L83.3056 173.906C83.3506 173.49 83.4772 173.087 83.6783 172.721C83.8793 172.354 84.1507 172.031 84.477 171.769C84.8033 171.508 85.1781 171.313 85.5797 171.197C85.9814 171.08 86.4021 171.044 86.8176 171.091L88.7544 171.304C89.5934 171.397 90.3612 171.819 90.8891 172.477C91.417 173.136 91.6616 173.977 91.5692 174.816L88.6705 201.06C88.6103 201.593 88.4456 202.109 88.1859 202.578C87.9261 203.047 87.5763 203.461 87.1566 203.795C86.7368 204.129 86.2553 204.377 85.7397 204.524C85.224 204.672 84.6842 204.717 84.1513 204.656L84.132 204.636Z" fill="#182F43" stroke="#182F43" stroke-linecap="round" stroke-linejoin="round"/>
<path d="M85.8939 193.167C85.8939 193.167 90.4776 193.341 91.1232 194.129C91.7688 194.917 91.6526 197.686 90.4066 198.002C87.2367 198.842 80.4774 198.351 80.2191 197.783C79.9609 197.215 79.4057 193.909 80.8066 193.554C82.4901 193.296 84.1908 193.167 85.8939 193.167Z" fill="white" stroke="#182F43" stroke-linecap="round" stroke-linejoin="round"/>
<path d="M87.2394 186.781C87.2394 186.781 92.5785 186.575 93.4113 187.537C94.2441 188.499 94.412 192.095 92.9981 192.637C89.4086 194.012 81.3322 193.476 80.9707 192.766C80.6091 192.056 79.8022 188.37 81.3839 187.776C82.9656 187.182 87.2394 186.781 87.2394 186.781Z" fill="white" stroke="#182F43" stroke-linecap="round" stroke-linejoin="round"/>
<path d="M88.0194 179.53C88.0194 179.53 93.7264 179.317 94.6174 180.344C95.5083 181.37 95.6826 185.218 94.1784 185.792C90.3048 187.271 81.9121 187.264 81.5182 186.509C81.1244 185.754 80.0657 181.234 81.7571 180.595C83.4486 179.956 88.0194 179.53 88.0194 179.53Z" fill="white" stroke="#182F43" stroke-linecap="round" stroke-linejoin="round"/>
<path d="M91.303 172.771C91.303 172.771 97.0101 172.551 97.901 173.578C98.7919 174.604 99.005 178.568 97.4556 179.033C95.9061 179.498 85.1893 180.498 84.7954 179.743C84.4016 178.988 83.3493 174.469 85.0408 173.836C86.7322 173.203 91.303 172.771 91.303 172.771Z" fill="white" stroke="#182F43" stroke-linecap="round" stroke-linejoin="round"/>
<path d="M69.1094 192.186C71.3608 192.275 73.5838 191.659 75.4685 190.424C80.0651 187.254 79.9037 179.971 79.9037 179.971L81.0141 179.655C81.9252 179.311 82.7786 178.83 83.5449 178.228C83.1752 179.733 82.9589 181.271 82.8993 182.819C82.9237 183.667 83.2609 184.476 83.8461 185.091C84.4312 185.706 85.2229 186.083 86.0691 186.15C87.4959 186.305 88.1286 186.466 88.6063 184.562C89.0841 182.657 91.4534 175.059 91.6148 173.955C91.7762 172.851 90.0654 171.146 87.3732 170.727C83.235 171.069 79.1484 172.224 74.9843 172.224C73.5321 172.36 72.1397 172.869 70.9429 173.703" fill="white"/>
<path d="M69.1094 192.186C71.3608 192.275 73.5838 191.659 75.4685 190.424C80.0651 187.254 79.9037 179.971 79.9037 179.971L81.0141 179.655C81.9252 179.311 82.7786 178.83 83.5449 178.228C83.1752 179.733 82.9589 181.271 82.8993 182.819C82.9237 183.667 83.2609 184.476 83.8461 185.091C84.4312 185.706 85.2229 186.083 86.0691 186.15C87.4959 186.305 88.1286 186.466 88.6063 184.562C89.0841 182.657 91.4534 175.059 91.6148 173.955C91.7762 172.851 90.0654 171.146 87.3732 170.727C83.235 171.069 79.1484 172.224 74.9843 172.224C73.5321 172.36 72.1397 172.869 70.9429 173.703" stroke="#182F43" stroke-linecap="round" stroke-linejoin="round"/>
<path d="M64.8711 191.532C65.7737 191.81 66.7013 191.998 67.6407 192.094Z" fill="white"/>
<path d="M64.8711 191.532C65.7737 191.81 66.7013 191.998 67.6407 192.094" stroke="#182F43" stroke-linecap="round" stroke-linejoin="round"/>
<path d="M59.1674 189.473H53.4668" stroke="#182F43" stroke-linecap="round" stroke-linejoin="round"/>
<path d="M58.6961 191.055H56.3203" stroke="#182F43" stroke-linecap="round" stroke-linejoin="round"/>
<path d="M79.9156 179.97C79.9156 179.97 76.7651 179.97 74.6992 178.092" stroke="#182F43" stroke-linecap="round" stroke-linejoin="round"/>
<path d="M83.6348 178.02C83.7234 177.16 83.9008 176.312 84.1642 175.489" stroke="#182F43" stroke-linecap="round" stroke-linejoin="round"/>
<path d="M88.6317 183.753C88.6317 183.753 89.2321 182.087 88.4962 181.487C87.7602 180.886 85.8299 180.021 85.5006 180.686C85.1714 181.351 84.4354 184.424 84.6355 185.018L84.8357 185.619" stroke="#182F43" stroke-width="0.5" stroke-linecap="round" stroke-linejoin="round"/>
<path d="M1.14062 203.958H55.7256V177.121H1.14062" fill="#ECECF0"/>
<path d="M1.14062 203.958H55.7256V177.121H1.14062" stroke="#182F43" stroke-linecap="round" stroke-linejoin="round"/>
<path d="M50.4961 200.933C50.4961 201.175 50.568 201.412 50.7028 201.614C50.8376 201.816 51.0292 201.973 51.2533 202.066C51.4774 202.159 51.7241 202.183 51.962 202.136C52.2 202.088 52.4185 201.972 52.5901 201.8C52.7616 201.628 52.8785 201.41 52.9258 201.172C52.9731 200.934 52.9488 200.687 52.856 200.463C52.7631 200.239 52.6059 200.048 52.4042 199.913C52.2025 199.778 51.9653 199.706 51.7227 199.706V199.706C51.3974 199.706 51.0854 199.835 50.8554 200.065C50.6253 200.295 50.4961 200.607 50.4961 200.933Z" fill="white" stroke="#182F43" stroke-linecap="round" stroke-linejoin="round"/>
</svg>
