<svg width="55" height="55" viewBox="0 0 55 55" fill="none" xmlns="http://www.w3.org/2000/svg">
<path d="M30.0923 43C32.2927 43 34.1788 42.8443 35.7505 42.5329C37.3615 42.2215 38.6189 41.8251 39.5226 41.3438C40.4656 40.8626 41.1925 40.2397 41.7033 39.4753C42.2534 38.711 42.6071 37.9749 42.7642 37.2671C42.9214 36.531 43 35.6817 43 34.7192C43 32.5959 42.4499 30.8831 41.3497 29.5808C40.2495 28.2502 38.1081 27.3726 34.9253 26.9479C37.165 26.3534 38.6778 25.4758 39.4637 24.3151C40.2495 23.1543 40.6424 21.6963 40.6424 19.9411C40.6424 19.0068 40.5639 18.2 40.4067 17.5205C40.2495 16.8128 39.8959 16.105 39.3458 15.3973C38.835 14.6612 38.1081 14.0667 37.165 13.6137C36.2613 13.1324 35.0039 12.7502 33.3929 12.4671C31.8212 12.1557 29.9352 12 27.7348 12H13V14.1233H16.5363V40.8767H13V43H30.0923ZM20.78 40.4945V28.4342H30.0923C33.5501 28.4342 35.8487 28.958 36.9882 30.0055C38.167 31.0247 38.7564 32.5393 38.7564 34.5493C38.7564 36.5027 38.167 37.989 36.9882 39.0082C35.8487 39.9991 33.5501 40.4945 30.0923 40.4945H20.78ZM20.78 25.8438V14.5055H27.7348C31.1925 14.5055 33.4912 14.9868 34.6306 15.9493C35.8094 16.8836 36.3988 18.2991 36.3988 20.1959C36.3988 22.0361 35.8094 23.4374 34.6306 24.4C33.4912 25.3626 31.1925 25.8438 27.7348 25.8438H20.78Z" fill="#182F43"/>
</svg>
