<svg width="628" height="544" viewBox="0 0 628 544" fill="none" xmlns="http://www.w3.org/2000/svg">
<path d="M343 592.301C373.727 590.735 404.304 586.499 434.462 579.628C457.268 574.507 479.329 565.772 500 553.679V413.301H343V592.301Z" fill="#FFB700"/>
<path d="M342.727 571.422C373.512 570.043 404.147 566.31 434.363 560.257C457.213 555.745 479.316 564.457 500.026 553.803V413.719H342.727V571.422Z" fill="black" fill-opacity="0.5" stroke="#263238" stroke-linecap="round" stroke-linejoin="round"/>
<path d="M342.726 571.422V413.719L329.112 381.449V571.912C333.665 571.796 338.231 571.609 342.726 571.422Z" fill="#263238"/>
<path opacity="0.5" d="M500.083 413.977H342.769L329.112 381.434H486.412L500.083 413.977Z" fill="white" stroke="#263238" stroke-width="1.16992" stroke-linecap="round" stroke-linejoin="round"/>
<path d="M500.083 413.977H342.769L329.112 381.434H486.412L500.083 413.977Z" fill="#FFB700" stroke="#263238" stroke-linecap="round" stroke-linejoin="round"/>
<path d="M333.145 499.578H175.846V556.352C180.648 557.697 185.517 558.883 190.453 559.911C237.364 569.441 285.233 573.415 333.073 571.752L333.145 499.578Z" fill="#FFB700" stroke="#263238" stroke-linecap="round" stroke-linejoin="round"/>
<path d="M333.146 499.866H175.846L162.175 467.322H319.489L333.146 499.866Z" fill="#FFB700"/>
<path opacity="0.5" d="M333.146 499.868H175.846L162.175 467.324H319.489L333.146 499.868Z" fill="white" stroke="#263238" stroke-linecap="round" stroke-linejoin="round"/>
<path d="M333.146 499.866H175.846L162.175 467.322H319.489L333.146 499.866Z" stroke="#263238" stroke-width="1.16992" stroke-linecap="round" stroke-linejoin="round"/>
<path d="M162.175 552.16C166.669 553.716 171.236 555.113 175.846 556.395V499.578L162.175 467.279V552.16Z" fill="#263238"/>
<path d="M48.8419 450.885C70.3646 501.018 113.194 535.694 164.09 552.88V448.234H47.6895C48.064 449.156 48.3953 450.006 48.8419 450.885Z" fill="#FFB700"/>
<path d="M48.8419 450.885C70.3646 501.018 113.194 535.694 164.09 552.88V448.234H47.6895C48.064 449.156 48.3953 450.006 48.8419 450.885Z" fill="black" fill-opacity="0.5" stroke="#263238" stroke-linecap="round" stroke-linejoin="round"/>
<path d="M47.8054 448.495H164.091L150.477 416.023H37.9229C40.1602 427.141 43.4699 438.016 47.8054 448.495Z" fill="#FFB700" stroke="#263238" stroke-linecap="round" stroke-linejoin="round"/>
<path d="M572.214 174.894L492.174 79.6992L483.761 88.1123L512.933 122.802L233.802 357.505L169.407 284.467C167.789 282.631 165.792 281.17 163.552 280.184C161.313 279.199 158.886 278.713 156.44 278.761C153.994 278.809 151.587 279.39 149.388 280.462C147.189 281.535 145.25 283.073 143.706 284.971L1 460.249L27.147 481.542L157.277 321.634L219.41 392.109C222.318 395.412 226.404 397.445 230.793 397.774C235.181 398.102 239.524 396.7 242.892 393.866L534.629 148.603L563.801 183.308L572.214 174.894Z" fill="white" stroke="#263238" stroke-linecap="round" stroke-linejoin="round"/>
<path d="M614.626 58.0039L492.174 79.6994L521.361 114.404L242.215 349.107L177.82 276.054C176.201 274.218 174.202 272.756 171.962 271.771C169.721 270.785 167.293 270.3 164.846 270.348C162.398 270.396 159.991 270.976 157.791 272.049C155.591 273.121 153.65 274.66 152.105 276.558L9.41309 451.851L35.5457 473.129L165.69 313.221L227.823 383.696C230.731 386.999 234.817 389.032 239.206 389.361C243.595 389.689 247.937 388.287 251.305 385.453L543.042 140.205L572.214 174.895L614.626 58.0039Z" fill="#182F43" stroke="#263238" stroke-linecap="round" stroke-linejoin="round"/>
<path opacity="0.15" d="M416.398 408.012C449.162 408.012 475.722 403.413 475.722 397.74C475.722 392.067 449.162 387.469 416.398 387.469C383.635 387.469 357.074 392.067 357.074 397.74C357.074 403.413 383.635 408.012 416.398 408.012Z" fill="black"/>
<path d="M380.023 377.902C380.023 377.902 370.486 392.51 371.048 396.443C371.61 400.376 382.271 404.87 385.642 406.527C389.013 408.184 410.362 410.46 413.172 407.089C415.981 403.718 409.239 402.594 405.306 400.909C401.373 399.223 391.26 390.825 391.26 390.825L390.136 381.273L380.023 377.902Z" fill="#263238" stroke="#263238" stroke-width="1.16992" stroke-miterlimit="10"/>
<path d="M413.171 407.12C414.05 406.068 413.992 405.232 413.387 404.526C406.962 405.146 397.137 405.708 390.136 404.31C381.953 402.682 374.693 397.179 371.336 394.312C371.098 394.997 371 395.722 371.048 396.445C371.61 400.377 382.27 404.872 385.641 406.529C389.012 408.186 410.434 410.491 413.171 407.12Z" fill="white" stroke="#263238" stroke-width="1.16992" stroke-linecap="round" stroke-linejoin="round"/>
<path d="M438.454 367.229C438.454 367.229 428.37 378.465 430.588 381.836C432.807 385.207 440.14 384.084 444.634 388.016C449.129 391.949 455.871 397.006 462.613 399.253C469.355 401.5 474.973 397.568 472.164 395.32C469.355 393.073 456.433 381.836 455.309 377.903C454.566 374.593 454.189 371.212 454.186 367.819L438.454 367.229Z" fill="#263238" stroke="#263238" stroke-width="1.16992" stroke-miterlimit="10"/>
<path d="M472.524 397.711C469.576 397.902 466.616 397.665 463.736 397.005C458.68 395.882 451.938 388.578 445.196 383.521C441.004 380.381 434.651 379.632 430.43 379.502C430.297 379.882 430.243 380.284 430.271 380.685C430.298 381.086 430.406 381.477 430.588 381.836C432.835 385.207 440.139 384.083 444.634 388.016C449.129 391.949 455.871 397.005 462.613 399.253C467.223 400.794 471.314 399.44 472.524 397.711Z" fill="white" stroke="#263238" stroke-width="1.16992" stroke-linecap="round" stroke-linejoin="round"/>
<path d="M410.968 191.287C410.968 191.287 402.871 220.531 404.557 228.959C406.242 237.386 417.666 307.112 417.666 307.112L380.023 377.889L394.069 385.754C394.069 385.754 443.511 321.158 444.073 313.292C444.635 305.426 445.974 244.402 445.974 244.402L478.345 302.617L436.207 366.652C436.207 366.652 442.949 372.27 447.444 372.27H454.748C454.748 372.27 508.122 306.003 508.684 302.055C509.246 298.108 472.784 218.399 472.784 218.399L470.508 200.276L410.968 191.287Z" fill="#AA4337" stroke="#263238" stroke-width="1.16992" stroke-linecap="round" stroke-linejoin="round"/>
<path d="M422.089 211.527C422.089 211.527 426.166 221.323 422.492 226.639C418.819 231.955 411.472 233.986 411.472 233.986" stroke="#263238" stroke-width="1.16992" stroke-linecap="round" stroke-linejoin="round"/>
<path d="M445.975 244.417L464.962 227.461" stroke="#263238" stroke-width="1.16992" stroke-linecap="round" stroke-linejoin="round"/>
<path d="M459.271 214.408L461 219.5C461 219.5 462.7 223.625 459.271 227.5C455.842 231.375 455.41 231.191 455.41 231.191" stroke="#263238" stroke-width="1.16992" stroke-linecap="round" stroke-linejoin="round"/>
<path d="M447.4 244.2L462.109 235.211" stroke="#263238" stroke-width="1.16992" stroke-linecap="round" stroke-linejoin="round"/>
<path d="M411.875 211.527C410.842 218.157 410.159 224.836 409.829 231.537" stroke="#263238" stroke-width="1.16992" stroke-linecap="round" stroke-linejoin="round"/>
<path d="M389.676 374.965L387.371 378.955" stroke="#263238" stroke-width="1.16992" stroke-linecap="round" stroke-linejoin="round"/>
<path d="M411.472 239.707C411.472 239.707 420.447 303.411 421.268 305.456C422.089 307.502 425.345 307.502 424.538 309.13C423.716 310.358 422.589 311.351 421.268 312.011L423.314 316.506L392.96 369.289" stroke="#263238" stroke-width="1.16992" stroke-linecap="round" stroke-linejoin="round"/>
<path d="M448.078 362.387L444.549 367.933" stroke="#263238" stroke-width="1.16992" stroke-linecap="round" stroke-linejoin="round"/>
<path d="M450.671 243.783C450.671 243.783 478.446 290.689 482.465 297.691C486.484 304.692 492.261 301.364 490.633 303.813C489.005 306.262 482.868 307.501 482.868 307.501L451.348 357.231" stroke="#263238" stroke-width="1.16992" stroke-linecap="round" stroke-linejoin="round"/>
<path d="M408.375 203.691C409.361 204.392 410.407 205.005 411.501 205.52C415.981 207.753 417.854 208.877 417.854 208.877L419.295 201.415L424.899 202.524L424.15 208.877C424.15 208.877 423.401 210.317 430.877 210.75C438.354 211.182 440.688 212.608 440.688 212.608L442.128 203.964L447.732 203.59V213.3C452.099 213.305 456.461 213.055 460.799 212.55C463.601 212.156 466.279 211.137 468.635 209.568V202.841L465.596 199.484L410.968 191.287C410.968 191.287 409.758 197.885 408.375 203.691Z" fill="#263238"/>
<path d="M455.929 207.38V212.61C459.247 212.283 462.51 211.532 465.638 210.377L466.373 205.896C466.373 205.896 457.787 206.631 455.929 207.38Z" fill="white" stroke="#263238" stroke-width="1.16992" stroke-linecap="round" stroke-linejoin="round"/>
<path d="M507.2 206.283L498.485 207.018L491.771 214.984C491.771 214.984 498.24 220.199 501.726 223.441C505.212 226.682 508.194 229.65 510.932 228.901C513.669 228.151 523.105 215.229 523.105 212.247C523.105 209.265 512.415 203.791 507.2 206.283Z" fill="white" stroke="#263238" stroke-width="1.16992" stroke-linecap="round" stroke-linejoin="round"/>
<path d="M501.971 208.763C503.504 207.114 505.265 205.693 507.2 204.542C508.604 203.725 510.207 203.315 511.83 203.359C513.454 203.402 515.033 203.896 516.391 204.786C519.632 206.775 520.122 208.763 518.379 210.995C516.636 213.228 509.937 221.195 509.433 219.207C508.929 217.219 511.925 210.995 511.925 210.995C511.925 210.995 507.935 220.201 502.475 214.237" fill="white"/>
<path d="M501.971 208.763C503.504 207.114 505.265 205.693 507.2 204.542C508.604 203.725 510.207 203.315 511.83 203.359C513.454 203.402 515.033 203.896 516.391 204.786C519.632 206.775 520.122 208.763 518.379 210.995C516.636 213.228 509.937 221.195 509.433 219.207C508.929 217.219 511.925 210.995 511.925 210.995C511.925 210.995 507.935 220.201 502.475 214.237" stroke="#263238" stroke-width="1.16992" stroke-linecap="round" stroke-linejoin="round"/>
<path d="M509.188 226.914C509.188 226.914 505.212 223.183 505.212 221.454C505.212 219.725 510.427 215.23 510.427 215.23" stroke="#263238" stroke-width="1.16992" stroke-linecap="round" stroke-linejoin="round"/>
<path d="M496.496 202.293L501.481 206.283L493.269 215.979L488.789 211.743L496.496 202.293Z" fill="white" stroke="#263238" stroke-width="1.16992" stroke-linecap="round" stroke-linejoin="round"/>
<path d="M471.891 179.59L498.485 202.179L487.45 213.214L464.861 198.159L471.891 179.59Z" fill="#AA4337" stroke="#263238" stroke-width="1.16992" stroke-linecap="round" stroke-linejoin="round"/>
<path d="M433.483 93.9181C433.483 93.9181 420.518 100.847 418.415 112.3C416.311 123.753 409.973 188.321 409.973 194.04C409.973 199.759 426.237 206.703 440.398 207.006C454.559 207.308 469.023 207.006 471.141 202.18C473.258 197.354 477.479 142.438 475.664 126.764C473.849 111.09 469.902 102.36 464.139 98.4416C458.377 94.5232 441.335 89.409 433.483 93.9181Z" fill="#ECECF0" stroke="#263238" stroke-width="1.16992" stroke-linecap="round" stroke-linejoin="round"/>
<path d="M415.679 194.168C415.679 194.168 448.006 181.347 460.813 164.074" stroke="#263238" stroke-width="1.16992" stroke-linecap="round" stroke-linejoin="round"/>
<path d="M413.445 198C427.026 199.381 440.743 197.667 453.566 192.986" stroke="#263238" stroke-width="1.16992" stroke-linecap="round" stroke-linejoin="round"/>
<path d="M438.311 66.1987C438.311 66.1987 438.311 66.7605 438.397 67.7257C438.637 72.6407 438.512 77.5667 438.023 82.4631L437.115 90.6025L460.006 97.2293C460.006 97.2293 460.914 92.4177 463.032 85.4884C464.635 80.65 466.755 75.9988 469.356 71.6154C469.356 71.6154 458.811 68.302 452.775 63.1878C446.739 58.0737 440.429 59.8744 438.311 66.1987Z" fill="white" stroke="#263238" stroke-width="1.16992" stroke-linecap="round" stroke-linejoin="round"/>
<path d="M460.612 23.716C460.612 23.716 467.238 18.5874 463.334 8.64723C459.43 -1.29295 442.835 -0.0972445 436.813 4.12373C430.791 8.3447 433.802 11.053 437.115 11.3268C440.429 11.6005 441.927 15.2452 437.72 16.4553C433.514 17.6654 428.673 14.6401 421.744 22.2177C414.815 29.7953 421.442 36.3789 422.652 34.5781C423.862 32.7774 425.965 28.542 426.57 31.2647C427.175 33.9875 420.52 37.5746 419.641 46.0165C418.762 54.4585 426.57 62.886 431.684 67.107C436.798 71.328 443.44 72.5237 446.451 68.5476C449.461 64.5715 452.487 58.0024 455.8 53.7814C459.113 49.5604 455.195 39.3753 453.985 35.3993C452.775 31.4232 460.612 23.716 460.612 23.716Z" fill="#263238" stroke="#263238" stroke-width="1.16992" stroke-linecap="round" stroke-linejoin="round"/>
<path d="M445.542 58.3633C445.542 58.3633 441.335 52.039 437.417 54.1423C433.498 56.2456 437.417 64.9901 441.033 67.7128C444.649 70.4356 449.46 66.2722 449.46 66.2722C449.46 66.2722 456.663 76.5149 462.123 76.5149C467.583 76.5149 484.121 75.6073 485.317 70.1907C486.513 64.774 477.783 46.9825 477.783 46.9825C477.783 46.9825 480.505 43.6691 480.203 41.5658C479.9 39.4625 474.167 40.3557 473 39.4481C471.833 38.5406 468.779 30.7181 465.163 26.4827C461.547 22.2473 459.746 22.2617 459.746 22.2617C459.746 22.2617 440.687 31.8417 445.009 34.867C449.331 37.8923 450.771 35.1695 450.426 37.2728C450.08 39.3761 443.496 47.213 444.663 48.1206C445.83 49.0282 450.08 51.434 449.475 54.1423C448.87 56.8507 449.158 59.2709 445.542 58.3633Z" fill="white" stroke="#263238" stroke-width="1.16992" stroke-linecap="round" stroke-linejoin="round"/>
<path d="M470.119 40.1402C470.84 41.8833 470.825 43.54 470.119 43.8569C469.413 44.1739 468.174 43.0214 467.44 41.2926C466.705 39.5639 466.734 37.8928 467.44 37.5759C468.146 37.259 469.384 38.4114 470.119 40.1402Z" fill="#263238"/>
<path d="M467.482 34.1313C467.482 34.1313 463.045 32.8204 461.216 36.2202" stroke="#263238" stroke-width="1.16992" stroke-linecap="round" stroke-linejoin="round"/>
<path d="M477.682 54.7891C477.682 54.7891 475.593 57.1372 472.193 55.0484" stroke="#263238" stroke-width="1.16992" stroke-linecap="round" stroke-linejoin="round"/>
<path d="M391.562 134.398C391.562 134.398 360.762 134.557 354.453 135.594C348.143 136.631 354.913 153.357 355.562 157.304C356.21 161.251 391.562 134.398 391.562 134.398Z" fill="#AA4337" stroke="#263238" stroke-width="1.16992" stroke-linecap="round" stroke-linejoin="round"/>
<path d="M457.556 100.948C460.714 104.819 462.793 109.456 463.582 114.389C464.372 119.322 463.843 124.376 462.051 129.039C455.871 145.318 420.475 174.534 401.373 188.018C388.951 196.67 376.009 204.55 362.621 211.615C362.621 211.615 341.285 194.169 335.091 177.905C328.896 161.64 336.747 153.414 359.221 145.578C381.694 137.741 410.362 127.916 415.404 113.884C420.447 99.8527 426.756 89.2787 437.1 90.6185C447.443 91.9582 457.556 100.948 457.556 100.948Z" fill="#AA4337" stroke="#263238" stroke-width="1.16992" stroke-linecap="round" stroke-linejoin="round"/>
<path d="M416.544 176.219C416.544 176.219 395.756 184.084 377.777 189.703C359.798 195.321 337.339 194.198 337.901 198.692C338.463 203.187 351.385 211.658 354.194 213.3C357.003 214.942 362.622 211.053 369.364 209.367C376.106 207.682 407.554 187.455 416.544 176.219Z" fill="#263238" stroke="#263238" stroke-width="1.16992" stroke-linecap="round" stroke-linejoin="round"/>
<path d="M348.042 227.129L345.838 244.949L349.396 245.396L351.226 230.63L381.277 234.346L379.462 249.113L383.02 249.559L385.224 231.739L348.042 227.129Z" fill="#FFC100" stroke="#FBFBFF" stroke-width="1.16992" stroke-linecap="round" stroke-linejoin="round"/>
<path d="M401.884 247.743L327.536 238.731C323.795 238.278 320.394 240.943 319.941 244.685L313.515 297.696C313.061 301.438 315.727 304.838 319.468 305.292L393.816 314.304C397.557 314.757 400.958 312.092 401.412 308.351L407.837 255.339C408.291 251.597 405.625 248.197 401.884 247.743Z" fill="#182F43" stroke="#FBFBFF" stroke-width="1.1667" stroke-linecap="round" stroke-linejoin="round"/>
<path d="M329.861 242.875L323.364 296.595L327.945 304.994L334.443 298.497L341.329 244.229" fill="#182F43"/>
<path d="M329.861 242.875L323.364 296.595L327.945 304.994L334.443 298.497L341.329 244.229" stroke="#FBFBFF" stroke-width="1.16992" stroke-linecap="round" stroke-linejoin="round"/>
<path d="M338.697 280.85L322.787 278.75L321.786 286.334L337.696 288.434L338.697 280.85Z" fill="#FFC100" stroke="#FBFBFF" stroke-width="1.16992" stroke-linecap="round" stroke-linejoin="round"/>
<path d="M339.034 283.437L321.901 281.188L321.59 283.555L338.723 285.805L339.034 283.437Z" fill="#FFC100" stroke="#FBFBFF" stroke-width="1.16816" stroke-linecap="round" stroke-linejoin="round"/>
<path d="M386.463 250.223L379.938 303.856L384.519 312.27L391.016 305.758L397.902 251.49" fill="#182F43"/>
<path d="M386.463 250.223L379.938 303.856L384.519 312.27L391.016 305.758L397.902 251.49" stroke="#FBFBFF" stroke-width="1.16992" stroke-linecap="round" stroke-linejoin="round"/>
<path d="M395.274 288.104L379.363 286.004L378.362 293.588L394.272 295.688L395.274 288.104Z" fill="#FFC100" stroke="#FBFBFF" stroke-width="1.16992" stroke-linecap="round" stroke-linejoin="round"/>
<path d="M395.515 290.964L378.387 288.703L378.056 291.207L395.185 293.468L395.515 290.964Z" fill="#FFC100" stroke="#FBFBFF" stroke-width="1.16992" stroke-linecap="round" stroke-linejoin="round"/>
<path d="M448.006 106.002C448.006 106.002 441.826 102.631 431.713 103.755C421.6 104.878 371.611 135.218 364.336 138.589C357.061 141.96 357.594 152.058 357.594 152.058L362.088 216.669H376.12L385.109 153.744C385.109 153.744 449.49 136.658 451.507 123.923" fill="#AA4337"/>
<path d="M448.006 106.002C448.006 106.002 441.826 102.631 431.713 103.755C421.6 104.878 371.611 135.218 364.336 138.589C357.061 141.96 357.594 152.058 357.594 152.058L362.088 216.669H376.12L385.109 153.744C385.109 153.744 449.49 136.658 451.507 123.923" stroke="#263238" stroke-width="1.16992" stroke-linecap="round" stroke-linejoin="round"/>
<path d="M376.091 216.67L379.462 228.468C379.462 228.468 379.462 239.705 377.776 240.829C376.091 241.952 375.529 244.2 372.734 241.952L369.925 239.705C367.896 239.177 365.83 238.801 363.745 238.581C362.059 238.581 358.688 238.581 357.565 235.7C356.441 232.819 362.059 216.598 362.059 216.598L376.091 216.67Z" fill="white" stroke="#263238" stroke-width="1.16992" stroke-linecap="round" stroke-linejoin="round"/>
<path d="M461.288 105.716L463.636 116.088C458.212 117.95 452.516 118.899 446.781 118.897C437.23 118.897 420.937 103.728 409.714 95.3001C398.492 86.8726 387.241 98.1093 377.128 101.48C367.015 104.851 359.149 103.166 343.418 97.5475C327.686 91.9291 310.284 104.851 310.284 104.851L305.271 117.212L321.002 125.639C321.002 125.639 335.61 109.346 346.285 109.346C356.959 109.346 377.747 117.212 385.613 112.717C393.479 108.222 399.659 99.7516 405.277 100.919C410.896 102.085 435.544 126.763 447.89 127.901C451.296 128.319 454.751 127.747 457.84 126.252C460.929 124.757 463.521 122.404 465.307 119.473L469.802 106.508C469.802 106.508 462.296 95.8908 461.288 105.716Z" fill="#263238" stroke="#263238" stroke-width="1.16992" stroke-linecap="round" stroke-linejoin="round"/>
<path d="M463.924 96.625L469.657 97.2301L477.782 111.391L469.355 105.067L464.212 107.17L463.621 102.359L463.924 96.625Z" fill="white" stroke="#263238" stroke-width="1.16992" stroke-linecap="round" stroke-linejoin="round"/>
<path d="M432.764 80.9219L465.437 94.2187L464.832 108.077L428.543 90.5739L432.764 80.9219Z" fill="#ECECF0" stroke="#263238" stroke-width="1.16992" stroke-linecap="round" stroke-linejoin="round"/>
</svg>
