<svg width="948" height="724" viewBox="0 0 948 724" fill="none" xmlns="http://www.w3.org/2000/svg">
<g clip-path="url(#clip0_1513_9956)">
<path d="M367 762.301C397.727 760.735 428.304 756.499 458.462 749.628C481.268 744.507 503.329 735.772 524 723.679V583.301H367V762.301Z" fill="#FFB700"/>
<path d="M366.727 741.422C397.512 740.043 428.147 736.31 458.363 730.257C481.213 725.745 503.316 734.457 524.026 723.803V583.719H366.727V741.422Z" fill="black" fill-opacity="0.5" stroke="#263238" stroke-linecap="round" stroke-linejoin="round"/>
<path d="M366.726 741.422V583.719L353.112 551.449V741.912C357.665 741.796 362.231 741.609 366.726 741.422Z" fill="#263238"/>
<path opacity="0.5" d="M524.083 583.977H366.769L353.112 551.434H510.412L524.083 583.977Z" fill="white" stroke="#263238" stroke-width="1.16992" stroke-linecap="round" stroke-linejoin="round"/>
<path d="M524.083 583.977H366.769L353.112 551.434H510.412L524.083 583.977Z" fill="#FFB700" stroke="#263238" stroke-linecap="round" stroke-linejoin="round"/>
<path d="M357.145 669.578H199.846V726.352C204.648 727.697 209.517 728.883 214.453 729.911C261.364 739.441 309.233 743.415 357.073 741.752L357.145 669.578Z" fill="#FFB700" stroke="#263238" stroke-linecap="round" stroke-linejoin="round"/>
<path d="M357.146 669.866H199.846L186.175 637.322H343.489L357.146 669.866Z" fill="#FFB700"/>
<path opacity="0.5" d="M357.146 669.868H199.846L186.175 637.324H343.489L357.146 669.868Z" fill="white" stroke="#263238" stroke-linecap="round" stroke-linejoin="round"/>
<path d="M357.146 669.866H199.846L186.175 637.322H343.489L357.146 669.866Z" stroke="#263238" stroke-width="1.16992" stroke-linecap="round" stroke-linejoin="round"/>
<path d="M186.175 722.16C190.669 723.716 195.236 725.113 199.846 726.395V669.578L186.175 637.279V722.16Z" fill="#263238"/>
<path d="M72.8419 620.885C94.3646 671.018 137.194 705.694 188.09 722.88V618.234H71.6895C72.064 619.156 72.3953 620.006 72.8419 620.885Z" fill="#FFB700"/>
<path d="M72.8419 620.885C94.3646 671.018 137.194 705.694 188.09 722.88V618.234H71.6895C72.064 619.156 72.3953 620.006 72.8419 620.885Z" fill="black" fill-opacity="0.5" stroke="#263238" stroke-linecap="round" stroke-linejoin="round"/>
<path d="M71.8054 618.495H188.091L174.477 586.023H61.9229C64.1602 597.141 67.4699 608.016 71.8054 618.495Z" fill="#FFB700" stroke="#263238" stroke-linecap="round" stroke-linejoin="round"/>
<path d="M596.214 344.894L516.174 249.699L507.761 258.112L536.933 292.802L257.802 527.505L193.407 454.467C191.789 452.631 189.792 451.17 187.552 450.184C185.313 449.199 182.886 448.713 180.44 448.761C177.994 448.809 175.587 449.39 173.388 450.462C171.189 451.535 169.25 453.073 167.706 454.971L25 630.249L51.147 651.542L181.277 491.634L243.41 562.109C246.318 565.412 250.404 567.445 254.793 567.774C259.181 568.102 263.524 566.7 266.892 563.866L558.629 318.603L587.801 353.308L596.214 344.894Z" fill="white" stroke="#263238" stroke-linecap="round" stroke-linejoin="round"/>
<path d="M638.626 228.004L516.174 249.699L545.361 284.404L266.215 519.107L201.82 446.054C200.201 444.218 198.202 442.756 195.962 441.771C193.721 440.785 191.293 440.3 188.846 440.348C186.398 440.396 183.991 440.976 181.791 442.049C179.591 443.121 177.65 444.66 176.105 446.558L33.4131 621.851L59.5457 643.129L189.69 483.221L251.823 553.696C254.731 556.999 258.817 559.032 263.206 559.361C267.595 559.689 271.937 558.287 275.305 555.453L567.042 310.205L596.214 344.895L638.626 228.004Z" fill="#182F43" stroke="#263238" stroke-linecap="round" stroke-linejoin="round"/>
<path opacity="0.15" d="M440.398 578.012C473.162 578.012 499.722 573.413 499.722 567.74C499.722 562.067 473.162 557.469 440.398 557.469C407.635 557.469 381.074 562.067 381.074 567.74C381.074 573.413 407.635 578.012 440.398 578.012Z" fill="black"/>
<path d="M404.023 547.902C404.023 547.902 394.486 562.51 395.048 566.443C395.61 570.376 406.271 574.87 409.642 576.527C413.013 578.184 434.362 580.46 437.172 577.089C439.981 573.718 433.239 572.594 429.306 570.909C425.373 569.223 415.26 560.825 415.26 560.825L414.136 551.273L404.023 547.902Z" fill="#263238" stroke="#263238" stroke-width="1.16992" stroke-miterlimit="10"/>
<path d="M437.171 577.119C438.05 576.068 437.992 575.232 437.387 574.526C430.962 575.146 421.137 575.708 414.136 574.31C405.953 572.682 398.693 567.179 395.336 564.312C395.098 564.997 395 565.722 395.048 566.445C395.61 570.377 406.27 574.872 409.641 576.529C413.012 578.186 434.434 580.491 437.171 577.119Z" fill="white" stroke="#263238" stroke-width="1.16992" stroke-linecap="round" stroke-linejoin="round"/>
<path d="M462.454 537.229C462.454 537.229 452.37 548.465 454.588 551.836C456.807 555.207 464.14 554.084 468.634 558.016C473.129 561.949 479.871 567.006 486.613 569.253C493.355 571.5 498.973 567.568 496.164 565.32C493.355 563.073 480.433 551.836 479.309 547.903C478.566 544.593 478.189 541.212 478.186 537.819L462.454 537.229Z" fill="#263238" stroke="#263238" stroke-width="1.16992" stroke-miterlimit="10"/>
<path d="M496.524 567.711C493.576 567.902 490.616 567.665 487.736 567.005C482.68 565.882 475.938 558.578 469.196 553.521C465.004 550.381 458.651 549.632 454.43 549.502C454.297 549.882 454.243 550.284 454.271 550.685C454.298 551.086 454.406 551.477 454.588 551.836C456.835 555.207 464.139 554.083 468.634 558.016C473.129 561.949 479.871 567.005 486.613 569.253C491.223 570.794 495.314 569.44 496.524 567.711Z" fill="white" stroke="#263238" stroke-width="1.16992" stroke-linecap="round" stroke-linejoin="round"/>
<path d="M434.968 361.287C434.968 361.287 426.871 390.531 428.557 398.959C430.242 407.386 441.666 477.112 441.666 477.112L404.023 547.889L418.069 555.754C418.069 555.754 467.511 491.158 468.073 483.292C468.635 475.426 469.974 414.402 469.974 414.402L502.345 472.617L460.207 536.652C460.207 536.652 466.949 542.27 471.444 542.27H478.748C478.748 542.27 532.122 476.003 532.684 472.055C533.246 468.108 496.784 388.399 496.784 388.399L494.508 370.276L434.968 361.287Z" fill="#AA4337" stroke="#263238" stroke-width="1.16992" stroke-linecap="round" stroke-linejoin="round"/>
<path d="M446.089 381.527C446.089 381.527 450.166 391.323 446.492 396.639C442.819 401.955 435.472 403.986 435.472 403.986" stroke="#263238" stroke-width="1.16992" stroke-linecap="round" stroke-linejoin="round"/>
<path d="M469.975 414.417L488.962 397.461" stroke="#263238" stroke-width="1.16992" stroke-linecap="round" stroke-linejoin="round"/>
<path d="M483.271 384.408L485 389.5C485 389.5 486.7 393.625 483.271 397.5C479.842 401.375 479.41 401.191 479.41 401.191" stroke="#263238" stroke-width="1.16992" stroke-linecap="round" stroke-linejoin="round"/>
<path d="M471.4 414.2L486.109 405.211" stroke="#263238" stroke-width="1.16992" stroke-linecap="round" stroke-linejoin="round"/>
<path d="M435.875 381.527C434.842 388.157 434.159 394.836 433.829 401.537" stroke="#263238" stroke-width="1.16992" stroke-linecap="round" stroke-linejoin="round"/>
<path d="M413.676 544.965L411.371 548.955" stroke="#263238" stroke-width="1.16992" stroke-linecap="round" stroke-linejoin="round"/>
<path d="M435.472 409.707C435.472 409.707 444.447 473.411 445.268 475.456C446.089 477.502 449.345 477.502 448.538 479.13C447.716 480.358 446.589 481.351 445.268 482.011L447.314 486.506L416.96 539.289" stroke="#263238" stroke-width="1.16992" stroke-linecap="round" stroke-linejoin="round"/>
<path d="M472.078 532.387L468.549 537.933" stroke="#263238" stroke-width="1.16992" stroke-linecap="round" stroke-linejoin="round"/>
<path d="M474.671 413.783C474.671 413.783 502.446 460.689 506.465 467.691C510.484 474.692 516.261 471.364 514.633 473.813C513.005 476.262 506.868 477.501 506.868 477.501L475.348 527.231" stroke="#263238" stroke-width="1.16992" stroke-linecap="round" stroke-linejoin="round"/>
<path d="M432.375 373.691C433.361 374.392 434.407 375.005 435.501 375.52C439.981 377.753 441.854 378.877 441.854 378.877L443.295 371.415L448.899 372.524L448.15 378.877C448.15 378.877 447.401 380.317 454.877 380.75C462.354 381.182 464.688 382.608 464.688 382.608L466.128 373.964L471.732 373.59V383.3C476.099 383.305 480.461 383.055 484.799 382.55C487.601 382.156 490.279 381.137 492.635 379.568V372.841L489.596 369.484L434.968 361.287C434.968 361.287 433.758 367.885 432.375 373.691Z" fill="#263238"/>
<path d="M479.929 377.38V382.61C483.247 382.283 486.51 381.532 489.638 380.377L490.373 375.896C490.373 375.896 481.787 376.631 479.929 377.38Z" fill="white" stroke="#263238" stroke-width="1.16992" stroke-linecap="round" stroke-linejoin="round"/>
<path d="M531.2 376.283L522.485 377.018L515.771 384.984C515.771 384.984 522.24 390.199 525.726 393.441C529.212 396.682 532.194 399.65 534.932 398.901C537.669 398.151 547.105 385.229 547.105 382.247C547.105 379.265 536.415 373.791 531.2 376.283Z" fill="white" stroke="#263238" stroke-width="1.16992" stroke-linecap="round" stroke-linejoin="round"/>
<path d="M525.971 378.763C527.504 377.114 529.265 375.693 531.2 374.542C532.604 373.725 534.207 373.315 535.83 373.359C537.454 373.402 539.033 373.896 540.391 374.786C543.632 376.775 544.122 378.763 542.379 380.995C540.636 383.228 533.937 391.195 533.433 389.207C532.929 387.219 535.925 380.995 535.925 380.995C535.925 380.995 531.935 390.201 526.475 384.237" fill="white"/>
<path d="M525.971 378.763C527.504 377.114 529.265 375.693 531.2 374.542C532.604 373.725 534.207 373.315 535.83 373.359C537.454 373.402 539.033 373.896 540.391 374.786C543.632 376.775 544.122 378.763 542.379 380.995C540.636 383.228 533.937 391.195 533.433 389.207C532.929 387.219 535.925 380.995 535.925 380.995C535.925 380.995 531.935 390.201 526.475 384.237" stroke="#263238" stroke-width="1.16992" stroke-linecap="round" stroke-linejoin="round"/>
<path d="M533.188 396.914C533.188 396.914 529.212 393.183 529.212 391.454C529.212 389.725 534.427 385.23 534.427 385.23" stroke="#263238" stroke-width="1.16992" stroke-linecap="round" stroke-linejoin="round"/>
<path d="M520.496 372.293L525.481 376.283L517.269 385.979L512.789 381.743L520.496 372.293Z" fill="white" stroke="#263238" stroke-width="1.16992" stroke-linecap="round" stroke-linejoin="round"/>
<path d="M495.891 349.59L522.485 372.179L511.45 383.214L488.861 368.159L495.891 349.59Z" fill="#AA4337" stroke="#263238" stroke-width="1.16992" stroke-linecap="round" stroke-linejoin="round"/>
<path d="M457.483 263.918C457.483 263.918 444.518 270.847 442.415 282.3C440.311 293.753 433.973 358.321 433.973 364.04C433.973 369.759 450.237 376.703 464.398 377.006C478.559 377.308 493.023 377.006 495.141 372.18C497.258 367.354 501.479 312.438 499.664 296.764C497.849 281.09 493.902 272.36 488.139 268.442C482.377 264.523 465.335 259.409 457.483 263.918Z" fill="#ECECF0" stroke="#263238" stroke-width="1.16992" stroke-linecap="round" stroke-linejoin="round"/>
<path d="M439.679 364.168C439.679 364.168 472.006 351.347 484.813 334.074" stroke="#263238" stroke-width="1.16992" stroke-linecap="round" stroke-linejoin="round"/>
<path d="M437.445 368C451.026 369.381 464.743 367.667 477.566 362.986" stroke="#263238" stroke-width="1.16992" stroke-linecap="round" stroke-linejoin="round"/>
<path d="M462.311 236.199C462.311 236.199 462.311 236.761 462.397 237.726C462.637 242.641 462.512 247.567 462.023 252.463L461.115 260.603L484.006 267.229C484.006 267.229 484.914 262.418 487.032 255.488C488.635 250.65 490.755 245.999 493.356 241.615C493.356 241.615 482.811 238.302 476.775 233.188C470.739 228.074 464.429 229.874 462.311 236.199Z" fill="white" stroke="#263238" stroke-width="1.16992" stroke-linecap="round" stroke-linejoin="round"/>
<path d="M484.612 193.716C484.612 193.716 491.238 188.587 487.334 178.647C483.43 168.707 466.835 169.903 460.813 174.124C454.791 178.345 457.802 181.053 461.115 181.327C464.429 181.6 465.927 185.245 461.72 186.455C457.514 187.665 452.673 184.64 445.744 192.218C438.815 199.795 445.442 206.379 446.652 204.578C447.862 202.777 449.965 198.542 450.57 201.265C451.175 203.987 444.52 207.575 443.641 216.017C442.762 224.458 450.57 232.886 455.684 237.107C460.798 241.328 467.44 242.524 470.451 238.548C473.461 234.572 476.487 228.002 479.8 223.781C483.113 219.56 479.195 209.375 477.985 205.399C476.775 201.423 484.612 193.716 484.612 193.716Z" fill="#263238" stroke="#263238" stroke-width="1.16992" stroke-linecap="round" stroke-linejoin="round"/>
<path d="M469.542 228.363C469.542 228.363 465.335 222.039 461.417 224.142C457.498 226.246 461.417 234.99 465.033 237.713C468.649 240.436 473.46 236.272 473.46 236.272C473.46 236.272 480.663 246.515 486.123 246.515C491.583 246.515 508.121 245.607 509.317 240.191C510.513 234.774 501.783 216.983 501.783 216.983C501.783 216.983 504.505 213.669 504.203 211.566C503.9 209.463 498.167 210.356 497 209.448C495.833 208.541 492.779 200.718 489.163 196.483C485.547 192.247 483.746 192.262 483.746 192.262C483.746 192.262 464.687 201.842 469.009 204.867C473.331 207.892 474.771 205.17 474.426 207.273C474.08 209.376 467.496 217.213 468.663 218.121C469.83 219.028 474.08 221.434 473.475 224.142C472.87 226.851 473.158 229.271 469.542 228.363Z" fill="white" stroke="#263238" stroke-width="1.16992" stroke-linecap="round" stroke-linejoin="round"/>
<path d="M494.119 210.14C494.84 211.883 494.825 213.54 494.119 213.857C493.413 214.174 492.174 213.021 491.44 211.293C490.705 209.564 490.734 207.893 491.44 207.576C492.146 207.259 493.384 208.411 494.119 210.14Z" fill="#263238"/>
<path d="M491.482 204.131C491.482 204.131 487.045 202.82 485.216 206.22" stroke="#263238" stroke-width="1.16992" stroke-linecap="round" stroke-linejoin="round"/>
<path d="M501.682 224.789C501.682 224.789 499.593 227.137 496.193 225.048" stroke="#263238" stroke-width="1.16992" stroke-linecap="round" stroke-linejoin="round"/>
<path d="M415.562 304.398C415.562 304.398 384.762 304.557 378.453 305.594C372.143 306.631 378.913 323.357 379.562 327.304C380.21 331.251 415.562 304.398 415.562 304.398Z" fill="#AA4337" stroke="#263238" stroke-width="1.16992" stroke-linecap="round" stroke-linejoin="round"/>
<path d="M481.556 270.948C484.714 274.819 486.793 279.456 487.582 284.389C488.372 289.322 487.843 294.376 486.051 299.039C479.871 315.318 444.475 344.534 425.373 358.018C412.951 366.67 400.009 374.55 386.621 381.615C386.621 381.615 365.285 364.169 359.091 347.905C352.896 331.64 360.747 323.414 383.221 315.578C405.694 307.741 434.362 297.916 439.404 283.884C444.447 269.853 450.756 259.279 461.1 260.618C471.443 261.958 481.556 270.948 481.556 270.948Z" fill="#AA4337" stroke="#263238" stroke-width="1.16992" stroke-linecap="round" stroke-linejoin="round"/>
<path d="M440.544 346.219C440.544 346.219 419.756 354.084 401.777 359.703C383.798 365.321 361.339 364.198 361.901 368.692C362.463 373.187 375.385 381.658 378.194 383.3C381.003 384.942 386.622 381.053 393.364 379.367C400.106 377.682 431.554 357.455 440.544 346.219Z" fill="#263238" stroke="#263238" stroke-width="1.16992" stroke-linecap="round" stroke-linejoin="round"/>
<path d="M372.042 397.129L369.838 414.949L373.396 415.396L375.226 400.63L405.277 404.346L403.462 419.113L407.02 419.559L409.224 401.739L372.042 397.129Z" fill="#FFC100" stroke="#FBFBFF" stroke-width="1.16992" stroke-linecap="round" stroke-linejoin="round"/>
<path d="M425.884 417.743L351.536 408.731C347.795 408.278 344.394 410.943 343.941 414.685L337.515 467.696C337.061 471.438 339.727 474.838 343.468 475.292L417.816 484.304C421.557 484.757 424.958 482.092 425.412 478.351L431.837 425.339C432.291 421.597 429.625 418.197 425.884 417.743Z" fill="#182F43" stroke="#FBFBFF" stroke-width="1.1667" stroke-linecap="round" stroke-linejoin="round"/>
<path d="M353.861 412.875L347.364 466.595L351.945 474.994L358.443 468.497L365.329 414.229" fill="#182F43"/>
<path d="M353.861 412.875L347.364 466.595L351.945 474.994L358.443 468.497L365.329 414.229" stroke="#FBFBFF" stroke-width="1.16992" stroke-linecap="round" stroke-linejoin="round"/>
<path d="M362.697 450.85L346.787 448.75L345.786 456.334L361.696 458.434L362.697 450.85Z" fill="#FFC100" stroke="#FBFBFF" stroke-width="1.16992" stroke-linecap="round" stroke-linejoin="round"/>
<path d="M363.034 453.437L345.901 451.188L345.59 453.555L362.723 455.805L363.034 453.437Z" fill="#FFC100" stroke="#FBFBFF" stroke-width="1.16816" stroke-linecap="round" stroke-linejoin="round"/>
<path d="M410.463 420.223L403.938 473.856L408.519 482.27L415.016 475.758L421.902 421.49" fill="#182F43"/>
<path d="M410.463 420.223L403.938 473.856L408.519 482.27L415.016 475.758L421.902 421.49" stroke="#FBFBFF" stroke-width="1.16992" stroke-linecap="round" stroke-linejoin="round"/>
<path d="M419.274 458.104L403.363 456.004L402.362 463.588L418.272 465.688L419.274 458.104Z" fill="#FFC100" stroke="#FBFBFF" stroke-width="1.16992" stroke-linecap="round" stroke-linejoin="round"/>
<path d="M419.515 460.964L402.387 458.703L402.056 461.207L419.185 463.468L419.515 460.964Z" fill="#FFC100" stroke="#FBFBFF" stroke-width="1.16992" stroke-linecap="round" stroke-linejoin="round"/>
<path d="M472.006 276.002C472.006 276.002 465.826 272.631 455.713 273.755C445.6 274.878 395.611 305.218 388.336 308.589C381.061 311.96 381.594 322.058 381.594 322.058L386.088 386.669H400.12L409.109 323.744C409.109 323.744 473.49 306.658 475.507 293.923" fill="#AA4337"/>
<path d="M472.006 276.002C472.006 276.002 465.826 272.631 455.713 273.755C445.6 274.878 395.611 305.218 388.336 308.589C381.061 311.96 381.594 322.058 381.594 322.058L386.088 386.669H400.12L409.109 323.744C409.109 323.744 473.49 306.658 475.507 293.923" stroke="#263238" stroke-width="1.16992" stroke-linecap="round" stroke-linejoin="round"/>
<path d="M400.091 386.67L403.462 398.468C403.462 398.468 403.462 409.705 401.776 410.829C400.091 411.952 399.529 414.2 396.734 411.952L393.925 409.705C391.896 409.177 389.83 408.801 387.745 408.581C386.059 408.581 382.688 408.581 381.565 405.7C380.441 402.819 386.059 386.598 386.059 386.598L400.091 386.67Z" fill="white" stroke="#263238" stroke-width="1.16992" stroke-linecap="round" stroke-linejoin="round"/>
<path d="M485.288 275.716L487.636 286.088C482.212 287.95 476.516 288.899 470.781 288.897C461.23 288.897 444.937 273.728 433.714 265.3C422.492 256.873 411.241 268.109 401.128 271.48C391.015 274.851 383.149 273.166 367.418 267.547C351.686 261.929 334.284 274.851 334.284 274.851L329.271 287.212L345.002 295.639C345.002 295.639 359.61 279.346 370.285 279.346C380.959 279.346 401.747 287.212 409.613 282.717C417.479 278.222 423.659 269.752 429.277 270.919C434.896 272.085 459.544 296.763 471.89 297.901C475.296 298.319 478.751 297.747 481.84 296.252C484.929 294.757 487.521 292.404 489.307 289.473L493.802 276.508C493.802 276.508 486.296 265.891 485.288 275.716Z" fill="#263238" stroke="#263238" stroke-width="1.16992" stroke-linecap="round" stroke-linejoin="round"/>
<path d="M487.924 266.625L493.657 267.23L501.782 281.391L493.355 275.067L488.212 277.17L487.621 272.359L487.924 266.625Z" fill="white" stroke="#263238" stroke-width="1.16992" stroke-linecap="round" stroke-linejoin="round"/>
<path d="M456.764 250.922L489.437 264.219L488.832 278.077L452.543 260.574L456.764 250.922Z" fill="#ECECF0" stroke="#263238" stroke-width="1.16992" stroke-linecap="round" stroke-linejoin="round"/>
</g>
<defs>
<clipPath id="clip0_1513_9956">
<rect width="948" height="724" fill="white"/>
</clipPath>
</defs>
</svg>
