<svg width="91" height="66" viewBox="0 0 91 66" fill="none" xmlns="http://www.w3.org/2000/svg">
<path d="M79.9826 31.4303C80.5714 28.2651 80.2044 24.9984 78.9272 22.0381C77.6501 19.0778 75.5194 16.555 72.8011 14.7846C70.0828 13.0142 66.8974 12.0746 63.6423 12.0831C60.3873 12.0916 57.2069 13.0478 54.4981 14.8324C52.555 10.0664 48.9922 6.11917 44.4231 3.67021C39.8541 1.22125 34.5645 0.423729 29.4648 1.41489C24.3652 2.40605 19.7745 5.12389 16.4829 9.10064C13.1913 13.0774 11.4048 18.0642 11.4308 23.2029C11.4308 23.4747 11.4308 23.7466 11.4308 24.0042C8.24523 24.9328 5.4771 26.9115 3.58652 29.6112C1.69595 32.311 0.796823 35.5691 1.03861 38.8441C1.2804 42.1191 2.64852 45.2137 4.91558 47.6133C7.18263 50.013 10.212 51.5732 13.5002 52.0346V52.192H79.2735C82.0388 52.2417 84.713 51.2141 86.7188 49.3311C88.7245 47.4482 89.9009 44.8609 89.994 42.1277C90.0871 39.3946 89.0894 36.7349 87.2164 34.7228C85.3433 32.7106 82.745 31.5075 79.9826 31.3731V31.4303Z" fill="white" stroke="#182F43" stroke-width="2" stroke-linecap="round" stroke-linejoin="round"/>
<path d="M61.2273 45.5814L42.9931 22.9023L24.7734 45.5814H31.8934V65.9997H54.0928V45.5814H61.2273Z" fill="#182F43"/>
</svg>
