<svg width="55" height="55" viewBox="0 0 55 55" fill="none" xmlns="http://www.w3.org/2000/svg">
<path fill-rule="evenodd" clip-rule="evenodd" d="M27.5848 4.05277C26.6557 4.34152 22.9298 6.16944 20.8919 7.33622C20.6754 7.46012 19.9414 7.86527 19.2609 8.23651C17.6486 9.11603 11.9398 12.3855 10.4471 13.2842C8.92349 14.2016 8.01461 15.117 7.437 16.3156C7.14937 16.9124 7 17.5664 7 18.2289V27.4379V37.6535L7.32947 38.3426C7.54645 38.7967 7.9685 39.3476 8.5668 39.9577C9.4632 40.872 10.0452 41.2568 13.9073 43.4897C14.1915 43.6539 15.082 44.1797 15.8863 44.6582C19.7527 46.9579 22.736 48.63 25.2652 49.9149C28.1128 51.3614 27.843 51.3613 30.6917 49.9171C32.6234 48.9376 38.13 45.8619 39.2528 45.1352C39.4837 44.9858 39.6969 44.8636 39.727 44.8636C39.7569 44.8636 40.1502 44.6387 40.601 44.3637C41.0517 44.0887 41.9772 43.5347 42.6578 43.1325C46.7459 40.7163 47.4456 40.2008 48.2368 39.0214C48.4292 38.7345 48.6838 38.2167 48.8024 37.8706C49.0095 37.2663 49.0168 36.8451 48.9874 27.2379L48.9594 18.0612C48.9578 17.5164 48.838 16.9785 48.6083 16.4845C48.4167 16.072 48.0498 15.4638 47.7933 15.133C47.1892 14.3538 46.5201 13.848 44.7387 12.8234C44.5222 12.699 43.7882 12.2722 43.1077 11.8753C41.3151 10.8295 40.0671 10.1151 39.1707 9.62143C38.7377 9.38298 38.3327 9.14994 38.2708 9.10357C38.209 9.05719 37.5509 8.69276 36.8085 8.29372C36.0661 7.89469 35.4081 7.53141 35.3462 7.48642C35.0451 7.26758 31.1433 5.24793 30.0138 4.72626C28.5267 4.0395 28.0515 3.90776 27.5848 4.05277ZM30.9031 15.7389C32.8873 15.9618 35.5 16.5 35.5 16.5C35.5 16.5 37.414 16.9999 38 17.5C38.3044 17.7597 38.8183 18.2005 39 18.5C39.2992 18.9929 39.1323 19.7042 39.0749 20.3395C39.04 20.7255 38.9309 21.4566 38.8324 21.9642C38.6278 23.0189 38.3776 24.4304 38.2249 25.3921C38.1675 25.7546 38.0564 26.1574 38.0564 26.1574C38.0564 26.1574 37.9413 26.6199 37.8786 27.0556C37.8158 27.4912 37.6857 28.263 37.5892 28.7706C37.4927 29.2782 37.3672 29.979 37.3104 30.3279C37.2536 30.6769 37.1586 31.222 37.0991 31.5393C36.7913 33.1807 36.6327 34.0583 36.4732 35.0001C36.1209 37.0807 35.972 37.3999 35.0291 38.094C34.7705 38.2845 34.5335 38.4709 34.5026 38.5083C34.4717 38.5458 34.1933 38.713 33.8839 38.8798C32.0382 39.8756 31.1957 39.9412 28 39.9412C28 39.9412 25.3987 39.9849 23.396 39.8782C22.7956 39.8462 22.2057 39.7205 21.6341 39.5338L21.0807 39.353C20.3683 39.1203 19.7129 38.7399 19.1574 38.2367C19.0525 38.1416 18.9512 38.0428 18.8631 37.932C18.4915 37.4646 17.4884 36.0088 17.4376 33.8607C17.4021 32.3611 17.4376 31.8999 17.4376 31.8999C17.4257 31.8999 18.4735 32.8283 19.5078 33.7422C20.8091 34.8919 22.4079 35.6513 24.1208 35.9368C24.3732 35.9789 24.6286 36 24.8844 36H31.5L31.578 29.8795V24.4847L30.3755 22.8206C29.7141 21.9055 29.1413 21.1307 29.1025 21.099C29.0637 21.0672 28.8079 20.7298 28.534 20.3491C28.2601 19.9684 27.9943 19.6258 27.9434 19.5876C27.8923 19.5494 27.6137 19.5615 27.324 19.6145C27.0344 19.6673 26.3165 19.7614 25.7288 19.8235C25.141 19.8856 24.0527 20.0175 23.3103 20.1168C19.2055 20.6658 17.6153 20.8606 17.208 20.8647C16.845 20.8682 16.8424 20.8642 16.8424 20.3055C16.8424 19.996 16.7458 19.4588 16.8424 19.2218C17 17.5 18 17 18 17C19 16.5 20.6295 15.8741 21.8479 15.7389C24 15.5 28.5342 15.473 30.9031 15.7389Z" fill="#182F43"/>
<path d="M27.1053 22L19 22.7218C22.0877 25.6091 27.3626 25.6091 29.614 25.2482L27.1053 22Z" fill="#182F43"/>
<path d="M27.1053 22L19 22.7218C22.0877 25.6091 27.3626 25.6091 29.614 25.2482L27.1053 22Z" fill="white" fill-opacity="0.5"/>
<path d="M19 30.4991V24.5264C23.1684 27.2693 28.0702 26.8723 30 26.3309V33.7295C23.6702 34.8844 19.9006 32.063 19 30.4991Z" fill="#182F43"/>
<path d="M19 30.4991V24.5264C23.1684 27.2693 28.0702 26.8723 30 26.3309V33.7295C23.6702 34.8844 19.9006 32.063 19 30.4991Z" fill="white" fill-opacity="0.5"/>
</svg>
