<svg width="52" height="54" viewBox="0 0 52 54" fill="none" xmlns="http://www.w3.org/2000/svg">
<path fill-rule="evenodd" clip-rule="evenodd" d="M25.2571 0.117391C25.2571 0.181956 25.1197 0.234783 24.9518 0.234783C24.6323 0.234783 23.7395 0.581791 23.6683 0.733696C23.6455 0.782178 23.5202 0.821739 23.3897 0.821739C23.2592 0.821739 23.1524 0.874565 23.1524 0.93913C23.1524 1.0037 23.0131 1.05652 22.8429 1.05652C22.6726 1.05652 22.5333 1.10935 22.5333 1.17391C22.5333 1.23848 22.4526 1.2913 22.3541 1.2913C22.2554 1.2913 22.0244 1.42337 21.8406 1.58478C21.657 1.7462 21.4313 1.87826 21.3391 1.87826C21.2468 1.87826 21.1714 1.93109 21.1714 1.99565C21.1714 2.06022 21.06 2.11304 20.9238 2.11304C20.7876 2.11304 20.6762 2.16587 20.6762 2.23043C20.6762 2.295 20.5624 2.34783 20.4234 2.34783C20.1874 2.34783 20.069 2.41333 19.6284 2.78804C19.5334 2.86881 19.3961 2.93478 19.3231 2.93478C19.2502 2.93478 19.1905 2.98761 19.1905 3.05217C19.1905 3.11674 19.079 3.16957 18.9429 3.16957C18.8067 3.16957 18.6952 3.22239 18.6952 3.28696C18.6952 3.35152 18.5838 3.40435 18.4476 3.40435C18.3114 3.40435 18.2 3.45717 18.2 3.52174C18.2 3.5863 18.0868 3.63913 17.9485 3.63913C17.8101 3.63913 17.6649 3.71837 17.6258 3.81522C17.5865 3.91207 17.449 3.9913 17.3201 3.9913C17.1912 3.9913 17.0857 4.04413 17.0857 4.1087C17.0857 4.17326 17.0021 4.22609 16.9 4.22609C16.7979 4.22609 16.7143 4.27891 16.7143 4.34348C16.7143 4.40804 16.6029 4.46087 16.4667 4.46087C16.3305 4.46087 16.219 4.5137 16.219 4.57826C16.219 4.64283 16.1123 4.69565 15.9817 4.69565C15.8512 4.69565 15.7259 4.73944 15.7031 4.79297C15.6417 4.93771 14.1294 5.75217 13.9219 5.75217C13.8235 5.75217 13.7429 5.805 13.7429 5.86957C13.7429 5.93413 13.6314 5.98696 13.4952 5.98696C13.359 5.98696 13.2476 6.03732 13.2476 6.09883C13.2476 6.16034 13.0526 6.29851 12.8143 6.40569C12.576 6.51287 12.381 6.64752 12.381 6.70469C12.381 6.76186 12.2695 6.80869 12.1333 6.80869C11.9971 6.80869 11.8857 6.86152 11.8857 6.92609C11.8857 6.99065 11.7703 7.04348 11.6293 7.04348C11.4882 7.04348 11.2951 7.10957 11.2002 7.19022C10.8269 7.50764 10.6948 7.59099 10.3071 7.7537C10.0858 7.84655 9.90476 7.96242 9.90476 8.01125C9.90476 8.06009 9.79333 8.1 9.65714 8.1C9.52095 8.1 9.40952 8.15283 9.40952 8.21739C9.40952 8.28196 9.29636 8.33478 9.15807 8.33478C9.01965 8.33478 8.87442 8.41402 8.83529 8.51087C8.79605 8.60772 8.65849 8.68696 8.52961 8.68696C8.40072 8.68696 8.29524 8.73978 8.29524 8.80435C8.29524 8.86891 8.21167 8.92174 8.10952 8.92174C8.00738 8.92174 7.92381 8.97456 7.92381 9.03913C7.92381 9.1037 7.81238 9.15652 7.67619 9.15652C7.54 9.15652 7.42857 9.20935 7.42857 9.27391C7.42857 9.33848 7.31714 9.3913 7.18095 9.3913C7.04476 9.3913 6.93333 9.44413 6.93333 9.5087C6.93333 9.57326 6.8583 9.62609 6.76656 9.62609C6.67482 9.62609 6.46954 9.73315 6.31045 9.86404C6.15123 9.99493 5.89197 10.1327 5.73436 10.1703C5.57663 10.2078 5.44762 10.2856 5.44762 10.3431C5.44762 10.4008 5.33619 10.4478 5.2 10.4478C5.06381 10.4478 4.95238 10.5007 4.95238 10.5652C4.95238 10.6298 4.84095 10.6826 4.70476 10.6826C4.56857 10.6826 4.45714 10.733 4.45714 10.7945C4.45714 10.856 4.26214 10.9942 4.02381 11.1013C3.78548 11.2085 3.59048 11.3432 3.59048 11.4003C3.59048 11.4575 3.45119 11.5043 3.28095 11.5043C3.11071 11.5043 2.97143 11.5572 2.97143 11.6217C2.97143 11.6863 2.88538 11.7391 2.78014 11.7391C2.6749 11.7391 2.45465 11.8579 2.29085 12.0033C1.84191 12.4012 1.6281 12.5609 1.54403 12.5609C1.39434 12.5609 1.11429 12.8998 1.11429 13.0808C1.11429 13.1822 1.05857 13.2652 0.990476 13.2652C0.922381 13.2652 0.866667 13.3445 0.866667 13.4413C0.866667 13.5382 0.810952 13.6174 0.742857 13.6174C0.674762 13.6174 0.619048 13.7129 0.619048 13.8298C0.619048 13.9466 0.53721 14.1446 0.437295 14.27C0.337257 14.3952 0.253686 14.696 0.251581 14.938C0.249353 15.1802 0.191905 15.3783 0.12381 15.3783C0.0420952 15.3783 0 19.3305 0 27C0 34.6695 0.0420952 38.6217 0.12381 38.6217C0.191905 38.6217 0.249353 38.8199 0.251581 39.062C0.253686 39.3041 0.337257 39.6048 0.437295 39.73C0.53721 39.8554 0.619048 40.0534 0.619048 40.1703C0.619048 40.2871 0.674762 40.3826 0.742857 40.3826C0.810952 40.3826 0.866667 40.4619 0.866667 40.5587C0.866667 40.6555 0.922381 40.7348 0.990476 40.7348C1.05857 40.7348 1.11429 40.8178 1.11429 40.9192C1.11429 41.1002 1.39434 41.4391 1.54403 41.4391C1.6281 41.4391 1.84191 41.5988 2.29085 41.9967C2.45465 42.142 2.70276 42.2609 2.84205 42.2609C2.98133 42.2609 3.09524 42.3137 3.09524 42.3783C3.09524 42.4428 3.20667 42.4957 3.34286 42.4957C3.47905 42.4957 3.59048 42.5425 3.59048 42.5997C3.59048 42.6568 3.78548 42.7915 4.02381 42.8987C4.26214 43.0058 4.45714 43.144 4.45714 43.2055C4.45714 43.267 4.56857 43.3174 4.70476 43.3174C4.84095 43.3174 4.95238 43.3702 4.95238 43.4348C4.95238 43.4993 5.06381 43.5522 5.2 43.5522C5.33619 43.5522 5.44762 43.5992 5.44762 43.6569C5.44762 43.7144 5.57663 43.7922 5.73436 43.8297C5.89197 43.8673 6.15123 44.0051 6.31045 44.136C6.46954 44.2669 6.67482 44.3739 6.76656 44.3739C6.8583 44.3739 6.93333 44.4267 6.93333 44.4913C6.93333 44.5559 7.04476 44.6087 7.18095 44.6087C7.31714 44.6087 7.42857 44.6615 7.42857 44.7261C7.42857 44.7907 7.54 44.8435 7.67619 44.8435C7.81238 44.8435 7.92381 44.8963 7.92381 44.9609C7.92381 45.0254 8.00738 45.0783 8.10952 45.0783C8.21167 45.0783 8.29524 45.1311 8.29524 45.1957C8.29524 45.2602 8.40072 45.313 8.52961 45.313C8.65849 45.313 8.79605 45.3923 8.83529 45.4891C8.87442 45.586 9.01965 45.6652 9.15807 45.6652C9.29636 45.6652 9.40952 45.718 9.40952 45.7826C9.40952 45.8472 9.52095 45.9 9.65714 45.9C9.79333 45.9 9.90476 45.9528 9.90476 46.0174C9.90476 46.082 10.0162 46.1348 10.1524 46.1348C10.2886 46.1348 10.4 46.1876 10.4 46.2522C10.4 46.3167 10.4597 46.3696 10.5326 46.3696C10.6056 46.3696 10.743 46.4357 10.8379 46.5163C11.2786 46.891 11.3969 46.9565 11.6329 46.9565C11.7719 46.9565 11.8857 47.0093 11.8857 47.0739C11.8857 47.1385 11.9971 47.1913 12.1333 47.1913C12.2695 47.1913 12.381 47.2441 12.381 47.3087C12.381 47.3733 12.4564 47.4261 12.5486 47.4261C12.6408 47.4261 12.8665 47.5582 13.0501 47.7196C13.2339 47.881 13.4649 48.013 13.5636 48.013C13.6621 48.013 13.7429 48.0659 13.7429 48.1304C13.7429 48.195 13.8821 48.2478 14.0524 48.2478C14.2226 48.2478 14.3619 48.3007 14.3619 48.3652C14.3619 48.4298 14.4733 48.4826 14.6095 48.4826C14.7457 48.4826 14.8571 48.5271 14.8571 48.5816C14.8571 48.6359 15.0521 48.78 15.2905 48.9017C15.5288 49.0234 15.7238 49.1637 15.7238 49.2136C15.7238 49.2635 15.8352 49.3044 15.9714 49.3044C16.1076 49.3044 16.219 49.3572 16.219 49.4217C16.219 49.4863 16.3305 49.5391 16.4667 49.5391C16.6029 49.5391 16.7143 49.5814 16.7143 49.6329C16.7143 49.6846 16.9129 49.7948 17.1557 49.878C17.3985 49.9614 17.6273 50.104 17.6642 50.1951C17.701 50.2863 17.8367 50.3609 17.9656 50.3609C18.0945 50.3609 18.2 50.4137 18.2 50.4783C18.2 50.5428 18.3114 50.5957 18.4476 50.5957C18.5838 50.5957 18.6952 50.6485 18.6952 50.713C18.6952 50.7776 18.8067 50.8304 18.9429 50.8304C19.079 50.8304 19.1905 50.8833 19.1905 50.9478C19.1905 51.0124 19.2502 51.0652 19.3231 51.0652C19.3961 51.0652 19.5334 51.1313 19.6284 51.212C20.069 51.5867 20.1874 51.6522 20.4234 51.6522C20.5624 51.6522 20.6762 51.705 20.6762 51.7696C20.6762 51.8341 20.7876 51.887 20.9238 51.887C21.06 51.887 21.1714 51.9398 21.1714 52.0043C21.1714 52.0689 21.2468 52.1217 21.3391 52.1217C21.4313 52.1217 21.657 52.2538 21.8406 52.4152C22.0244 52.5766 22.2554 52.7087 22.3541 52.7087C22.4526 52.7087 22.5333 52.7615 22.5333 52.8261C22.5333 52.8906 22.6726 52.9435 22.8429 52.9435C23.0131 52.9435 23.1524 52.9963 23.1524 53.0609C23.1524 53.1254 23.2638 53.1783 23.4 53.1783C23.5362 53.1783 23.6476 53.2311 23.6476 53.2957C23.6476 53.3602 23.7451 53.4147 23.8643 53.4168C23.9835 53.4188 24.1892 53.498 24.3213 53.5929C24.4535 53.6876 24.7459 53.7652 24.9713 53.7652C25.1966 53.7652 25.381 53.818 25.381 53.8826C25.381 53.9472 25.6595 54 26 54C26.3405 54 26.619 53.9472 26.619 53.8826C26.619 53.818 26.7843 53.7652 26.9863 53.7652C27.3544 53.7652 28.2543 53.4315 28.3317 53.2663C28.3545 53.2178 28.4798 53.1783 28.6103 53.1783C28.7408 53.1783 28.8476 53.1254 28.8476 53.0609C28.8476 52.9963 28.9869 52.9435 29.1571 52.9435C29.3274 52.9435 29.4667 52.8906 29.4667 52.8261C29.4667 52.7615 29.5474 52.7087 29.6459 52.7087C29.7446 52.7087 29.9756 52.5766 30.1594 52.4152C30.343 52.2538 30.5687 52.1217 30.6609 52.1217C30.7532 52.1217 30.8286 52.0689 30.8286 52.0043C30.8286 51.9398 30.94 51.887 31.0762 51.887C31.2124 51.887 31.3238 51.8341 31.3238 51.7696C31.3238 51.705 31.4392 51.6522 31.5802 51.6522C31.7214 51.6522 31.9144 51.5861 32.0093 51.5054C32.419 51.157 32.5591 51.0652 32.6805 51.0652C32.7515 51.0652 32.8095 51.0124 32.8095 50.9478C32.8095 50.8833 32.9209 50.8304 33.0571 50.8304C33.1933 50.8304 33.3048 50.7776 33.3048 50.713C33.3048 50.6485 33.4162 50.5957 33.5524 50.5957C33.6886 50.5957 33.8 50.5428 33.8 50.4783C33.8 50.4137 33.9055 50.3609 34.0344 50.3609C34.1633 50.3609 34.299 50.2863 34.3358 50.1951C34.3727 50.104 34.6015 49.9614 34.8443 49.878C35.0871 49.7948 35.2857 49.6846 35.2857 49.6329C35.2857 49.5814 35.3971 49.5391 35.5333 49.5391C35.6695 49.5391 35.781 49.4863 35.781 49.4217C35.781 49.3572 35.8924 49.3044 36.0286 49.3044C36.1648 49.3044 36.2762 49.2635 36.2762 49.2136C36.2762 49.1637 36.4712 49.0234 36.7095 48.9017C36.9479 48.78 37.1429 48.6359 37.1429 48.5816C37.1429 48.5271 37.2543 48.4826 37.3905 48.4826C37.5267 48.4826 37.6381 48.4298 37.6381 48.3652C37.6381 48.3007 37.7774 48.2478 37.9476 48.2478C38.1179 48.2478 38.2571 48.195 38.2571 48.1304C38.2571 48.0659 38.3379 48.013 38.4364 48.013C38.5351 48.013 38.7661 47.881 38.9499 47.7196C39.1335 47.5582 39.3592 47.4261 39.4514 47.4261C39.5436 47.4261 39.619 47.3733 39.619 47.3087C39.619 47.2441 39.7305 47.1913 39.8667 47.1913C40.0029 47.1913 40.1143 47.1385 40.1143 47.0739C40.1143 47.0093 40.2281 46.9565 40.3671 46.9565C40.5991 46.9565 40.703 46.9003 41.14 46.5385C41.2228 46.4699 41.4715 46.3381 41.6929 46.2456C41.9142 46.1531 42.0952 46.0376 42.0952 45.9888C42.0952 45.9399 42.2067 45.9 42.3429 45.9C42.479 45.9 42.5905 45.8472 42.5905 45.7826C42.5905 45.718 42.7036 45.6652 42.8419 45.6652C42.9804 45.6652 43.1256 45.586 43.1647 45.4891C43.204 45.3923 43.3415 45.313 43.4704 45.313C43.5993 45.313 43.7048 45.2602 43.7048 45.1957C43.7048 45.1311 43.7883 45.0783 43.8905 45.0783C43.9926 45.0783 44.0762 45.0254 44.0762 44.9609C44.0762 44.8963 44.1876 44.8435 44.3238 44.8435C44.46 44.8435 44.5714 44.7907 44.5714 44.7261C44.5714 44.6615 44.6829 44.6087 44.819 44.6087C44.9552 44.6087 45.0667 44.5559 45.0667 44.4913C45.0667 44.4267 45.1417 44.3739 45.2334 44.3739C45.3252 44.3739 45.5305 44.2669 45.6896 44.136C45.8488 44.0051 46.108 43.8673 46.2656 43.8297C46.4234 43.7922 46.5524 43.7144 46.5524 43.6569C46.5524 43.5992 46.6638 43.5522 46.8 43.5522C46.9362 43.5522 47.0476 43.4993 47.0476 43.4348C47.0476 43.3702 47.159 43.3174 47.2952 43.3174C47.4314 43.3174 47.5429 43.267 47.5429 43.2055C47.5429 43.144 47.7379 43.0058 47.9762 42.8987C48.2145 42.7915 48.4095 42.6568 48.4095 42.5997C48.4095 42.5425 48.5209 42.4957 48.6571 42.4957C48.7933 42.4957 48.9048 42.4428 48.9048 42.3783C48.9048 42.3137 49.0187 42.2609 49.158 42.2609C49.2972 42.2609 49.5454 42.142 49.7092 41.9967C50.1581 41.5988 50.3719 41.4391 50.456 41.4391C50.6057 41.4391 50.8857 41.1002 50.8857 40.9192C50.8857 40.8178 50.9414 40.7348 51.0095 40.7348C51.0776 40.7348 51.1333 40.6555 51.1333 40.5587C51.1333 40.4619 51.189 40.3826 51.2571 40.3826C51.3252 40.3826 51.381 40.2871 51.381 40.1703C51.381 40.0534 51.4628 39.8554 51.5627 39.73C51.6627 39.6048 51.7463 39.3041 51.7484 39.062C51.7506 38.8199 51.8081 38.6217 51.8762 38.6217C51.9579 38.6217 52 34.6695 52 27C52 19.3305 51.9579 15.3783 51.8762 15.3783C51.8081 15.3783 51.7506 15.1802 51.7484 14.938C51.7463 14.696 51.6627 14.3952 51.5627 14.27C51.4628 14.1446 51.381 13.9466 51.381 13.8298C51.381 13.7129 51.3252 13.6174 51.2571 13.6174C51.189 13.6174 51.1333 13.5382 51.1333 13.4413C51.1333 13.3445 51.0776 13.2652 51.0095 13.2652C50.9414 13.2652 50.8857 13.1822 50.8857 13.0808C50.8857 12.8998 50.6057 12.5609 50.456 12.5609C50.3719 12.5609 50.1581 12.4012 49.7092 12.0033C49.5454 11.8579 49.3251 11.7391 49.2199 11.7391C49.1146 11.7391 49.0286 11.6863 49.0286 11.6217C49.0286 11.5572 48.8893 11.5043 48.7191 11.5043C48.5488 11.5043 48.4095 11.4575 48.4095 11.4003C48.4095 11.3432 48.2145 11.2085 47.9762 11.1013C47.7379 10.9942 47.5429 10.856 47.5429 10.7945C47.5429 10.733 47.4314 10.6826 47.2952 10.6826C47.159 10.6826 47.0476 10.6298 47.0476 10.5652C47.0476 10.5007 46.9362 10.4478 46.8 10.4478C46.6638 10.4478 46.5524 10.4008 46.5524 10.3431C46.5524 10.2856 46.4234 10.2078 46.2656 10.1703C46.108 10.1327 45.8488 9.99493 45.6896 9.86404C45.5305 9.73315 45.3252 9.62609 45.2334 9.62609C45.1417 9.62609 45.0667 9.57326 45.0667 9.5087C45.0667 9.44413 44.9552 9.3913 44.819 9.3913C44.6829 9.3913 44.5714 9.33848 44.5714 9.27391C44.5714 9.20935 44.46 9.15652 44.3238 9.15652C44.1876 9.15652 44.0762 9.1037 44.0762 9.03913C44.0762 8.97456 43.9926 8.92174 43.8905 8.92174C43.7883 8.92174 43.7048 8.86891 43.7048 8.80435C43.7048 8.73978 43.5993 8.68696 43.4704 8.68696C43.3415 8.68696 43.204 8.60772 43.1647 8.51087C43.1256 8.41402 42.9804 8.33478 42.8419 8.33478C42.7036 8.33478 42.5905 8.28196 42.5905 8.21739C42.5905 8.15283 42.479 8.1 42.3429 8.1C42.2067 8.1 42.0952 8.06009 42.0952 8.01125C42.0952 7.96242 41.9142 7.8469 41.6929 7.7544C41.4715 7.6619 41.2228 7.53007 41.14 7.46151C40.703 7.09971 40.5991 7.04348 40.3671 7.04348C40.2281 7.04348 40.1143 6.99065 40.1143 6.92609C40.1143 6.86152 40.0029 6.80869 39.8667 6.80869C39.7305 6.80869 39.619 6.76186 39.619 6.70469C39.619 6.64752 39.424 6.51287 39.1857 6.40569C38.9474 6.29851 38.7524 6.16034 38.7524 6.09883C38.7524 6.03732 38.641 5.98696 38.5048 5.98696C38.3686 5.98696 38.2571 5.93413 38.2571 5.86957C38.2571 5.805 38.1765 5.75217 38.0781 5.75217C37.8706 5.75217 36.3583 4.93771 36.2969 4.79297C36.2741 4.73944 36.1488 4.69565 36.0183 4.69565C35.8878 4.69565 35.781 4.64283 35.781 4.57826C35.781 4.5137 35.6695 4.46087 35.5333 4.46087C35.3971 4.46087 35.2857 4.40804 35.2857 4.34348C35.2857 4.27891 35.2021 4.22609 35.1 4.22609C34.9979 4.22609 34.9143 4.17326 34.9143 4.1087C34.9143 4.04413 34.8088 3.9913 34.6799 3.9913C34.551 3.9913 34.4135 3.91207 34.3742 3.81522C34.3351 3.71837 34.1899 3.63913 34.0515 3.63913C33.9132 3.63913 33.8 3.5863 33.8 3.52174C33.8 3.45717 33.6886 3.40435 33.5524 3.40435C33.4162 3.40435 33.3048 3.35152 33.3048 3.28696C33.3048 3.22239 33.1933 3.16957 33.0571 3.16957C32.9209 3.16957 32.8095 3.11674 32.8095 3.05217C32.8095 2.98761 32.7515 2.93478 32.6805 2.93478C32.5591 2.93478 32.419 2.84298 32.0093 2.49457C31.9144 2.41392 31.7214 2.34783 31.5802 2.34783C31.4392 2.34783 31.3238 2.295 31.3238 2.23043C31.3238 2.16587 31.2124 2.11304 31.0762 2.11304C30.94 2.11304 30.8286 2.06022 30.8286 1.99565C30.8286 1.93109 30.7532 1.87826 30.6609 1.87826C30.5687 1.87826 30.343 1.7462 30.1594 1.58478C29.9756 1.42337 29.7446 1.2913 29.6459 1.2913C29.5474 1.2913 29.4667 1.23848 29.4667 1.17391C29.4667 1.10935 29.3274 1.05652 29.1571 1.05652C28.9869 1.05652 28.8476 1.0037 28.8476 0.93913C28.8476 0.874565 28.7408 0.821739 28.6103 0.821739C28.4798 0.821739 28.3545 0.782178 28.3317 0.733696C28.2543 0.568526 27.3544 0.234783 26.9863 0.234783C26.7843 0.234783 26.619 0.181956 26.619 0.117391C26.619 0.0528259 26.3126 0 25.9381 0C25.5636 0 25.2571 0.0528259 25.2571 0.117391ZM27.7333 12.913C27.7333 12.9783 28.0635 13.0304 28.4762 13.0304C28.8888 13.0304 29.219 13.0826 29.219 13.1478C29.219 13.2124 29.4386 13.2652 29.707 13.2652C29.9754 13.2652 30.2293 13.318 30.2714 13.3826C30.3135 13.4472 30.488 13.5 30.659 13.5C30.8301 13.5 31.0537 13.5792 31.1558 13.6761C31.2579 13.7729 31.4768 13.8522 31.6421 13.8522C31.8075 13.8522 31.9429 13.905 31.9429 13.9696C31.9429 14.0341 32.0543 14.087 32.1905 14.087C32.3267 14.087 32.4381 14.1398 32.4381 14.2043C32.4381 14.2689 32.5774 14.3217 32.7476 14.3217C32.9179 14.3217 33.0571 14.3648 33.0571 14.4174C33.0571 14.47 33.2521 14.6012 33.4905 14.709C33.7288 14.8168 33.9238 14.9586 33.9238 15.0242C33.9238 15.0898 34.023 15.1435 34.1441 15.1435C34.2653 15.1435 34.4447 15.2491 34.5429 15.3783C34.641 15.5074 34.7894 15.613 34.8724 15.613C34.9555 15.613 35.2778 15.8508 35.5887 16.1413C35.8996 16.4318 36.1838 16.6696 36.2206 16.6696C36.311 16.6696 36.8952 17.2282 36.8952 17.3145C36.8952 17.3523 37.1181 17.5904 37.3905 17.8435C37.6629 18.0966 37.8857 18.328 37.8857 18.3575C37.8857 18.5758 37.696 18.7826 37.4958 18.7826C37.2721 18.7826 37.1528 18.8499 36.7141 19.2228C36.6191 19.3035 36.4818 19.3696 36.4088 19.3696C36.3359 19.3696 36.2762 19.4224 36.2762 19.487C36.2762 19.5515 36.1648 19.6043 36.0286 19.6043C35.8924 19.6043 35.781 19.6572 35.781 19.7217C35.781 19.7863 35.6695 19.8391 35.5333 19.8391C35.3971 19.8391 35.2857 19.892 35.2857 19.9565C35.2857 20.0211 35.2108 20.0739 35.1193 20.0739C35.0277 20.0739 34.791 20.2059 34.5931 20.3673C34.3952 20.5286 34.1358 20.6606 34.0167 20.6608C33.8976 20.6608 33.8 20.7137 33.8 20.7783C33.8 20.8428 33.6886 20.8957 33.5524 20.8957C33.4162 20.8957 33.3048 20.9485 33.3048 21.013C33.3048 21.0776 33.2259 21.1304 33.1293 21.1304C33.0329 21.1304 32.9354 21.1794 32.9127 21.2391C32.89 21.2989 32.7182 21.3839 32.531 21.4279C32.2656 21.4904 32.1905 21.4664 32.1905 21.3192C32.1905 21.2154 32.1069 21.1304 32.0048 21.1304C31.9026 21.1304 31.819 21.0776 31.819 21.013C31.819 20.9485 31.7355 20.8957 31.6333 20.8957C31.5312 20.8957 31.4476 20.8428 31.4476 20.7783C31.4476 20.7137 31.3773 20.6609 31.2912 20.6609C31.2053 20.6609 31.0304 20.5288 30.9025 20.3674C30.7747 20.206 30.5665 20.0739 30.4398 20.0739C30.3132 20.0739 30.2095 20.0211 30.2095 19.9565C30.2095 19.892 30.0981 19.8391 29.9619 19.8391C29.8257 19.8391 29.7143 19.7863 29.7143 19.7217C29.7143 19.6572 29.63 19.6043 29.5268 19.6043C29.4238 19.6043 29.2427 19.558 29.1245 19.5013C28.4159 19.1615 27.9078 19.0174 27.4196 19.0174C27.1155 19.0174 26.8667 18.9646 26.8667 18.9C26.8667 18.833 26.4952 18.7826 26 18.7826C25.5048 18.7826 25.1333 18.833 25.1333 18.9C25.1333 18.9646 24.8845 19.0174 24.5804 19.0174C24.0922 19.0174 23.5841 19.1615 22.8755 19.5013C22.7573 19.558 22.5762 19.6043 22.4732 19.6043C22.37 19.6043 22.2857 19.6572 22.2857 19.7217C22.2857 19.7863 22.1743 19.8391 22.0381 19.8391C21.9019 19.8391 21.7905 19.892 21.7905 19.9565C21.7905 20.0211 21.6868 20.0739 21.5602 20.0739C21.4335 20.0739 21.2253 20.206 21.0975 20.3674C20.9696 20.5288 20.8052 20.6609 20.732 20.6609C20.6589 20.6609 20.4795 20.7665 20.3332 20.8957C20.1871 21.0248 20.0095 21.1304 19.9385 21.1304C19.8676 21.1304 19.8095 21.1855 19.8095 21.2528C19.8095 21.32 19.6981 21.4885 19.5619 21.627C19.4257 21.7656 19.3143 21.9357 19.3143 22.0051C19.3143 22.0745 19.175 22.2304 19.0048 22.3517C18.8345 22.4728 18.6952 22.6703 18.6952 22.7903C18.6952 22.9104 18.6395 23.0087 18.5714 23.0087C18.5033 23.0087 18.4476 23.1143 18.4476 23.2435C18.4476 23.3726 18.3919 23.4783 18.3238 23.4783C18.2557 23.4783 18.2 23.5582 18.2 23.656C18.2 23.7537 18.1511 23.9254 18.0913 24.0375C17.733 24.7093 17.581 25.1911 17.581 25.654C17.581 25.9423 17.5252 26.1783 17.4571 26.1783C17.3864 26.1783 17.3333 26.5304 17.3333 27C17.3333 27.4696 17.3864 27.8217 17.4571 27.8217C17.5252 27.8217 17.581 28.0577 17.581 28.346C17.581 28.8089 17.733 29.2907 18.0913 29.9625C18.1511 30.0746 18.2 30.2463 18.2 30.344C18.2 30.4418 18.2557 30.5217 18.3238 30.5217C18.3919 30.5217 18.4476 30.6274 18.4476 30.7565C18.4476 30.8857 18.5033 30.9913 18.5714 30.9913C18.6395 30.9913 18.6952 31.0896 18.6952 31.2097C18.6952 31.3297 18.8345 31.5272 19.0048 31.6483C19.175 31.7696 19.3143 31.9355 19.3143 32.017C19.3143 32.0985 19.37 32.1652 19.4381 32.1652C19.5062 32.1652 19.5619 32.2445 19.5619 32.3413C19.5619 32.4382 19.6176 32.5174 19.6857 32.5174C19.7538 32.5174 19.8095 32.5966 19.8095 32.6935C19.8095 32.7903 19.8931 32.8696 19.9952 32.8696C20.0974 32.8696 20.181 32.9224 20.181 32.987C20.181 33.0515 20.2645 33.1043 20.3667 33.1043C20.4688 33.1043 20.5524 33.1572 20.5524 33.2217C20.5524 33.2863 20.6227 33.3391 20.7088 33.3391C20.7947 33.3391 20.9696 33.4712 21.0975 33.6326C21.2253 33.794 21.4335 33.9261 21.5602 33.9261C21.6868 33.9261 21.7905 33.9789 21.7905 34.0435C21.7905 34.108 21.9019 34.1609 22.0381 34.1609C22.1743 34.1609 22.2857 34.2137 22.2857 34.2783C22.2857 34.3428 22.37 34.3957 22.4732 34.3957C22.5762 34.3957 22.7573 34.442 22.8755 34.4987C23.5841 34.8384 24.0922 34.9826 24.5804 34.9826C24.8845 34.9826 25.1333 35.0354 25.1333 35.1C25.1333 35.167 25.5048 35.2174 26 35.2174C26.4952 35.2174 26.8667 35.167 26.8667 35.1C26.8667 35.0354 27.0778 34.9826 27.3357 34.9826C27.776 34.9826 28.9971 34.6452 29.1782 34.4736C29.2234 34.4308 29.3624 34.3957 29.4873 34.3957C29.6121 34.3957 29.7143 34.3428 29.7143 34.2783C29.7143 34.2137 29.8257 34.1609 29.9619 34.1609C30.0981 34.1609 30.2095 34.108 30.2095 34.0435C30.2095 33.9789 30.3132 33.9261 30.4398 33.9261C30.5665 33.9261 30.7747 33.794 30.9025 33.6326C31.0304 33.4712 31.2053 33.3391 31.2912 33.3391C31.3773 33.3391 31.4476 33.2863 31.4476 33.2217C31.4476 33.1572 31.5312 33.1043 31.6333 33.1043C31.7355 33.1043 31.819 33.0515 31.819 32.987C31.819 32.9224 31.9026 32.8696 32.0048 32.8696C32.1069 32.8696 32.1905 32.7846 32.1905 32.6808C32.1905 32.5336 32.2656 32.5096 32.531 32.5721C32.7182 32.6161 32.89 32.7011 32.9127 32.7609C32.9354 32.8206 33.0329 32.8696 33.1293 32.8696C33.2259 32.8696 33.3048 32.9224 33.3048 32.987C33.3048 33.0515 33.4162 33.1043 33.5524 33.1043C33.6886 33.1043 33.8 33.1572 33.8 33.2217C33.8 33.2863 33.8791 33.3391 33.9757 33.3391C34.1966 33.3391 34.9124 33.72 34.9135 33.838C34.9139 33.8865 34.9979 33.9261 35.1 33.9261C35.2021 33.9261 35.2857 33.9789 35.2857 34.0435C35.2857 34.108 35.3971 34.1609 35.5333 34.1609C35.6695 34.1609 35.781 34.2137 35.781 34.2783C35.781 34.3428 35.8924 34.3957 36.0286 34.3957C36.1648 34.3957 36.2762 34.4485 36.2762 34.513C36.2762 34.5776 36.3343 34.6304 36.4052 34.6304C36.5267 34.6304 36.6667 34.7222 37.0764 35.0707C37.1713 35.1514 37.3644 35.2174 37.5055 35.2174C37.6465 35.2174 37.7619 35.2395 37.7619 35.2665C37.7619 35.2935 37.7947 35.3966 37.8348 35.4957C37.8811 35.6101 37.723 35.8475 37.4015 36.1463C37.123 36.405 36.8952 36.6477 36.8952 36.6855C36.8952 36.7718 36.311 37.3304 36.2206 37.3304C36.1838 37.3304 35.8996 37.5682 35.5887 37.8587C35.2778 38.1492 34.9555 38.387 34.8724 38.387C34.7894 38.387 34.641 38.4926 34.5429 38.6217C34.4447 38.7509 34.2653 38.8565 34.1441 38.8565C34.023 38.8565 33.9238 38.9102 33.9238 38.9758C33.9238 39.0414 33.7288 39.1832 33.4905 39.291C33.2521 39.3988 33.0571 39.53 33.0571 39.5826C33.0571 39.6352 32.9179 39.6783 32.7476 39.6783C32.5774 39.6783 32.4381 39.7311 32.4381 39.7957C32.4381 39.8602 32.3267 39.913 32.1905 39.913C32.0543 39.913 31.9429 39.9659 31.9429 40.0304C31.9429 40.095 31.8075 40.1478 31.6421 40.1478C31.4768 40.1478 31.2579 40.2271 31.1558 40.3239C31.0537 40.4208 30.8301 40.5 30.659 40.5C30.488 40.5 30.3135 40.5528 30.2714 40.6174C30.2293 40.682 29.9754 40.7348 29.707 40.7348C29.4386 40.7348 29.219 40.7876 29.219 40.8522C29.219 40.9184 28.8683 40.9696 28.4143 40.9696C27.9603 40.9696 27.6095 41.0207 27.6095 41.087C27.6095 41.1594 26.9698 41.2043 25.9381 41.2043C24.9064 41.2043 24.2667 41.1594 24.2667 41.087C24.2667 41.0217 23.9365 40.9696 23.5238 40.9696C23.1112 40.9696 22.781 40.9174 22.781 40.8522C22.781 40.7876 22.5614 40.7348 22.293 40.7348C22.0246 40.7348 21.7707 40.682 21.7286 40.6174C21.6865 40.5528 21.512 40.5 21.341 40.5C21.1699 40.5 20.9463 40.4208 20.8442 40.3239C20.7421 40.2271 20.5232 40.1478 20.3579 40.1478C20.1925 40.1478 20.0571 40.095 20.0571 40.0304C20.0571 39.9659 19.9457 39.913 19.8095 39.913C19.6733 39.913 19.5619 39.8602 19.5619 39.7957C19.5619 39.7311 19.4226 39.6783 19.2524 39.6783C19.0821 39.6783 18.9429 39.6352 18.9429 39.5826C18.9429 39.53 18.7479 39.3988 18.5095 39.291C18.2712 39.1832 18.0762 39.0414 18.0762 38.9758C18.0762 38.9102 17.977 38.8565 17.8559 38.8565C17.7347 38.8565 17.5553 38.7509 17.4571 38.6217C17.359 38.4926 17.2106 38.387 17.1276 38.387C17.0445 38.387 16.7222 38.1492 16.4113 37.8587C16.1004 37.5682 15.8162 37.3304 15.7794 37.3304C15.6924 37.3304 15.1048 36.7733 15.1048 36.6908C15.1048 36.6559 14.854 36.3864 14.5476 36.0916C14.2412 35.7968 13.9905 35.4913 13.9905 35.4125C13.9905 35.3337 13.879 35.1931 13.7429 35.1C13.6067 35.0069 13.4952 34.8368 13.4952 34.7219C13.4952 34.6071 13.4387 34.513 13.3694 34.513C13.3002 34.513 13.1507 34.3282 13.037 34.1022C12.9234 33.8762 12.7849 33.6913 12.7295 33.6913C12.674 33.6913 12.6286 33.5592 12.6286 33.3978C12.6286 33.2364 12.5729 33.1043 12.5048 33.1043C12.4367 33.1043 12.381 32.9987 12.381 32.8696C12.381 32.7404 12.3252 32.6348 12.2571 32.6348C12.189 32.6348 12.1333 32.5065 12.1333 32.3496C12.1333 32.1929 12.0498 31.9854 11.9476 31.8885C11.8455 31.7917 11.7619 31.5797 11.7619 31.4174C11.7619 31.2553 11.7062 31.0899 11.6381 31.05C11.57 31.0101 11.5143 30.7693 11.5143 30.5148C11.5143 30.2603 11.4586 30.0522 11.3905 30.0522C11.3216 30.0522 11.2667 29.7391 11.2667 29.3478C11.2667 28.9566 11.2117 28.6435 11.1429 28.6435C11.0662 28.6435 11.019 28.0174 11.019 27C11.019 25.9826 11.0662 25.3565 11.1429 25.3565C11.2117 25.3565 11.2667 25.0434 11.2667 24.6522C11.2667 24.2609 11.3216 23.9478 11.3905 23.9478C11.4586 23.9478 11.5143 23.7397 11.5143 23.4852C11.5143 23.2307 11.57 22.9899 11.6381 22.95C11.7062 22.9101 11.7619 22.7447 11.7619 22.5826C11.7619 22.4203 11.8455 22.2083 11.9476 22.1115C12.0498 22.0146 12.1333 21.8071 12.1333 21.6504C12.1333 21.4935 12.189 21.3652 12.2571 21.3652C12.3252 21.3652 12.381 21.2596 12.381 21.1304C12.381 21.0013 12.4367 20.8957 12.5048 20.8957C12.5729 20.8957 12.6286 20.7636 12.6286 20.6022C12.6286 20.4408 12.674 20.3087 12.7295 20.3087C12.7849 20.3087 12.9234 20.1238 13.037 19.8978C13.1507 19.6718 13.3002 19.487 13.3694 19.487C13.4387 19.487 13.4952 19.3929 13.4952 19.2781C13.4952 19.1632 13.6067 18.9931 13.7429 18.9C13.879 18.8069 13.9905 18.6663 13.9905 18.5875C13.9905 18.5087 14.2412 18.2032 14.5476 17.9084C14.854 17.6136 15.1048 17.3441 15.1048 17.3092C15.1048 17.2267 15.6924 16.6696 15.7794 16.6696C15.8162 16.6696 16.1004 16.4318 16.4113 16.1413C16.7222 15.8508 17.0445 15.613 17.1276 15.613C17.2106 15.613 17.359 15.5074 17.4571 15.3783C17.5553 15.2491 17.7347 15.1435 17.8559 15.1435C17.977 15.1435 18.0762 15.0898 18.0762 15.0242C18.0762 14.9586 18.2712 14.8168 18.5095 14.709C18.7479 14.6012 18.9429 14.47 18.9429 14.4174C18.9429 14.3648 19.0821 14.3217 19.2524 14.3217C19.4226 14.3217 19.5619 14.2689 19.5619 14.2043C19.5619 14.1398 19.6733 14.087 19.8095 14.087C19.9457 14.087 20.0571 14.0341 20.0571 13.9696C20.0571 13.905 20.1925 13.8522 20.3579 13.8522C20.5232 13.8522 20.7421 13.7729 20.8442 13.6761C20.9463 13.5792 21.1699 13.5 21.341 13.5C21.512 13.5 21.6865 13.4472 21.7286 13.3826C21.7707 13.318 22.0246 13.2652 22.293 13.2652C22.5614 13.2652 22.781 13.2124 22.781 13.1478C22.781 13.0826 23.1112 13.0304 23.5238 13.0304C23.9365 13.0304 24.2667 12.9783 24.2667 12.913C24.2667 12.8404 24.9269 12.7957 26 12.7957C27.0731 12.7957 27.7333 12.8404 27.7333 12.913ZM40.981 22.3043V23.4783H42.0952H43.2095V22.3043V21.1304H44.5714H45.9333V22.3043V23.4783H47.1714H48.4095V24.6522V25.8261H47.1714H45.9333V27V28.1739H47.1714H48.4095V29.3478V30.5217H47.1714H45.9333V31.6957V32.8696H44.5714H43.2095V31.6957V30.5217H42.0952H40.981V31.6957V32.8696H39.619H38.2571V31.6957V30.5217H37.019H35.781V29.3478V28.1739H37.019H38.2571V27V25.8261H37.019H35.781V24.6522V23.4783H37.019H38.2571V22.3043V21.1304H39.619H40.981V22.3043ZM40.981 27V28.1739H42.0952H43.2095V27V25.8261H42.0952H40.981V27Z" fill="#FFC121"/>
</svg>
