<svg width="67" height="67" viewBox="0 0 67 67" fill="none" xmlns="http://www.w3.org/2000/svg">
<path d="M33.5 66C51.4493 66 66 51.4493 66 33.5C66 15.5507 51.4493 1 33.5 1C15.5507 1 1 15.5507 1 33.5C1 51.4493 15.5507 66 33.5 66Z" fill="#FBFBFF" stroke="#182F43" stroke-width="2" stroke-miterlimit="10"/>
<path opacity="0.3" d="M33.5 66C51.4493 66 66 51.4493 66 33.5C66 15.5507 51.4493 1 33.5 1C15.5507 1 1 15.5507 1 33.5C1 51.4493 15.5507 66 33.5 66Z" stroke="#182F43" stroke-miterlimit="10"/>
<path fill-rule="evenodd" clip-rule="evenodd" d="M33.2257 11.8297C33.2257 11.8821 33.115 11.925 32.9799 11.925C32.7227 11.925 32.0041 12.2068 31.9468 12.3301C31.9285 12.3695 31.8276 12.4016 31.7226 12.4016C31.6176 12.4016 31.5316 12.4445 31.5316 12.4969C31.5316 12.5494 31.4195 12.5923 31.2824 12.5923C31.1454 12.5923 31.0333 12.6351 31.0333 12.6876C31.0333 12.74 30.9683 12.7829 30.889 12.7829C30.8096 12.7829 30.6236 12.8901 30.4757 13.0212C30.328 13.1523 30.1463 13.2595 30.072 13.2595C29.9978 13.2595 29.9371 13.3024 29.9371 13.3548C29.9371 13.4072 29.8474 13.4501 29.7378 13.4501C29.6282 13.4501 29.5385 13.493 29.5385 13.5455C29.5385 13.5979 29.4469 13.6408 29.335 13.6408C29.1451 13.6408 29.0498 13.694 28.6951 13.9982C28.6187 14.0638 28.5082 14.1174 28.4494 14.1174C28.3907 14.1174 28.3427 14.1603 28.3427 14.2127C28.3427 14.2651 28.253 14.308 28.1434 14.308C28.0337 14.308 27.9441 14.3509 27.9441 14.4033C27.9441 14.4558 27.8544 14.4987 27.7448 14.4987C27.6351 14.4987 27.5455 14.5416 27.5455 14.594C27.5455 14.6464 27.4544 14.6893 27.3431 14.6893C27.2316 14.6893 27.1148 14.7536 27.0833 14.8323C27.0517 14.9109 26.941 14.9753 26.8372 14.9753C26.7335 14.9753 26.6486 15.0182 26.6486 15.0706C26.6486 15.123 26.5813 15.1659 26.4991 15.1659C26.4169 15.1659 26.3496 15.2088 26.3496 15.2612C26.3496 15.3136 26.2599 15.3565 26.1503 15.3565C26.0407 15.3565 25.951 15.3994 25.951 15.4519C25.951 15.5043 25.8651 15.5472 25.76 15.5472C25.6549 15.5472 25.5541 15.5827 25.5358 15.6262C25.4863 15.7437 24.2691 16.4051 24.102 16.4051C24.0228 16.4051 23.9579 16.448 23.9579 16.5004C23.9579 16.5528 23.8683 16.5957 23.7586 16.5957C23.649 16.5957 23.5593 16.6366 23.5593 16.6865C23.5593 16.7365 23.4024 16.8487 23.2106 16.9357C23.0187 17.0227 22.8618 17.1321 22.8618 17.1785C22.8618 17.2249 22.7721 17.2629 22.6625 17.2629C22.5528 17.2629 22.4632 17.3058 22.4632 17.3583C22.4632 17.4107 22.3703 17.4536 22.2568 17.4536C22.1432 17.4536 21.9878 17.5072 21.9114 17.5727C21.6109 17.8305 21.5046 17.8982 21.1926 18.0303C21.0144 18.1057 20.8687 18.1997 20.8687 18.2394C20.8687 18.2791 20.779 18.3115 20.6694 18.3115C20.5598 18.3115 20.4701 18.3544 20.4701 18.4068C20.4701 18.4592 20.379 18.5021 20.2677 18.5021C20.1563 18.5021 20.0394 18.5664 20.0079 18.6451C19.9763 18.7237 19.8656 18.7881 19.7619 18.7881C19.6581 18.7881 19.5732 18.831 19.5732 18.8834C19.5732 18.9358 19.506 18.9787 19.4237 18.9787C19.3415 18.9787 19.2743 19.0216 19.2743 19.074C19.2743 19.1264 19.1846 19.1693 19.075 19.1693C18.9653 19.1693 18.8757 19.2122 18.8757 19.2647C18.8757 19.3171 18.786 19.36 18.6763 19.36C18.5667 19.36 18.477 19.4029 18.477 19.4553C18.477 19.5077 18.4167 19.5506 18.3428 19.5506C18.269 19.5506 18.1037 19.6376 17.9757 19.7438C17.8475 19.8501 17.6389 19.962 17.512 19.9925C17.385 20.0229 17.2812 20.0861 17.2812 20.1328C17.2812 20.1796 17.1915 20.2179 17.0819 20.2179C16.9723 20.2179 16.8826 20.2608 16.8826 20.3132C16.8826 20.3656 16.7929 20.4085 16.6833 20.4085C16.5737 20.4085 16.484 20.4494 16.484 20.4993C16.484 20.5493 16.327 20.6615 16.1352 20.7485C15.9434 20.8355 15.7864 20.9449 15.7864 20.9913C15.7864 21.0377 15.6743 21.0757 15.5373 21.0757C15.4003 21.0757 15.2882 21.1186 15.2882 21.1711C15.2882 21.2235 15.2189 21.2664 15.1342 21.2664C15.0495 21.2664 14.8722 21.3628 14.7404 21.4809C14.379 21.804 14.2069 21.9336 14.1393 21.9336C14.0188 21.9336 13.7934 22.2088 13.7934 22.3558C13.7934 22.4382 13.7485 22.5055 13.6937 22.5055C13.6389 22.5055 13.5941 22.5699 13.5941 22.6485C13.5941 22.7272 13.5492 22.7915 13.4944 22.7915C13.4396 22.7915 13.3947 22.8691 13.3947 22.9639C13.3947 23.0588 13.3289 23.2196 13.2485 23.3214C13.1679 23.4231 13.1007 23.6673 13.099 23.8639C13.0972 24.0605 13.0509 24.2213 12.9961 24.2213C12.9304 24.2213 12.8965 27.4305 12.8965 33.658C12.8965 39.8855 12.9304 43.0947 12.9961 43.0947C13.0509 43.0947 13.0972 43.2556 13.099 43.4521C13.1007 43.6488 13.1679 43.8929 13.2485 43.9946C13.3289 44.0964 13.3947 44.2572 13.3947 44.3521C13.3947 44.4469 13.4396 44.5245 13.4944 44.5245C13.5492 44.5245 13.5941 44.5888 13.5941 44.6675C13.5941 44.7461 13.6389 44.8105 13.6937 44.8105C13.7485 44.8105 13.7934 44.8778 13.7934 44.9602C13.7934 45.1072 14.0188 45.3824 14.1393 45.3824C14.2069 45.3824 14.379 45.512 14.7404 45.8351C14.8722 45.9531 15.0719 46.0496 15.184 46.0496C15.2961 46.0496 15.3878 46.0925 15.3878 46.1449C15.3878 46.1974 15.4775 46.2403 15.5871 46.2403C15.6967 46.2403 15.7864 46.2783 15.7864 46.3247C15.7864 46.3711 15.9434 46.4805 16.1352 46.5675C16.327 46.6545 16.484 46.7667 16.484 46.8167C16.484 46.8666 16.5737 46.9075 16.6833 46.9075C16.7929 46.9075 16.8826 46.9504 16.8826 47.0028C16.8826 47.0552 16.9723 47.0981 17.0819 47.0981C17.1915 47.0981 17.2812 47.1364 17.2812 47.1832C17.2812 47.2299 17.385 47.2931 17.512 47.3235C17.6389 47.354 17.8475 47.4659 17.9757 47.5722C18.1037 47.6784 18.269 47.7654 18.3428 47.7654C18.4167 47.7654 18.477 47.8083 18.477 47.8607C18.477 47.9131 18.5667 47.956 18.6763 47.956C18.786 47.956 18.8757 47.9989 18.8757 48.0513C18.8757 48.1038 18.9653 48.1467 19.075 48.1467C19.1846 48.1467 19.2743 48.1895 19.2743 48.242C19.2743 48.2944 19.3415 48.3373 19.4237 48.3373C19.506 48.3373 19.5732 48.3802 19.5732 48.4326C19.5732 48.485 19.6581 48.5279 19.7619 48.5279C19.8656 48.5279 19.9763 48.5923 20.0079 48.6709C20.0394 48.7496 20.1563 48.8139 20.2677 48.8139C20.379 48.8139 20.4701 48.8568 20.4701 48.9092C20.4701 48.9616 20.5598 49.0045 20.6694 49.0045C20.779 49.0045 20.8687 49.0474 20.8687 49.0999C20.8687 49.1523 20.9584 49.1952 21.068 49.1952C21.1776 49.1952 21.2673 49.2381 21.2673 49.2905C21.2673 49.3429 21.3154 49.3858 21.3741 49.3858C21.4328 49.3858 21.5434 49.4395 21.6198 49.505C21.9745 49.8092 22.0697 49.8624 22.2597 49.8624C22.3716 49.8624 22.4632 49.9053 22.4632 49.9577C22.4632 50.0102 22.5528 50.0531 22.6625 50.0531C22.7721 50.0531 22.8618 50.096 22.8618 50.1484C22.8618 50.2008 22.9225 50.2437 22.9967 50.2437C23.0709 50.2437 23.2526 50.3509 23.4004 50.482C23.5483 50.6131 23.7342 50.7203 23.8137 50.7203C23.893 50.7203 23.9579 50.7632 23.9579 50.8156C23.9579 50.868 24.0701 50.9109 24.2071 50.9109C24.3441 50.9109 24.4562 50.9538 24.4562 51.0063C24.4562 51.0587 24.5459 51.1016 24.6555 51.1016C24.7651 51.1016 24.8548 51.1377 24.8548 51.1819C24.8548 51.2261 25.0118 51.343 25.2036 51.4419C25.3954 51.5407 25.5524 51.6546 25.5524 51.6951C25.5524 51.7356 25.6421 51.7688 25.7517 51.7688C25.8613 51.7688 25.951 51.8117 25.951 51.8641C25.951 51.9166 26.0407 51.9595 26.1503 51.9595C26.2599 51.9595 26.3496 51.9938 26.3496 52.0356C26.3496 52.0776 26.5095 52.1671 26.7049 52.2346C26.9003 52.3023 27.0845 52.4181 27.1142 52.4921C27.1438 52.5662 27.2531 52.6267 27.3568 52.6267C27.4605 52.6267 27.5455 52.6696 27.5455 52.722C27.5455 52.7744 27.6351 52.8173 27.7448 52.8173C27.8544 52.8173 27.9441 52.8602 27.9441 52.9127C27.9441 52.9651 28.0337 53.008 28.1434 53.008C28.253 53.008 28.3427 53.0509 28.3427 53.1033C28.3427 53.1557 28.3907 53.1986 28.4494 53.1986C28.5082 53.1986 28.6187 53.2523 28.6951 53.3178C29.0498 53.622 29.1451 53.6752 29.335 53.6752C29.4469 53.6752 29.5385 53.7181 29.5385 53.7705C29.5385 53.823 29.6282 53.8659 29.7378 53.8659C29.8474 53.8659 29.9371 53.9088 29.9371 53.9612C29.9371 54.0136 29.9978 54.0565 30.072 54.0565C30.1463 54.0565 30.328 54.1637 30.4757 54.2948C30.6236 54.4259 30.8096 54.5331 30.889 54.5331C30.9683 54.5331 31.0333 54.576 31.0333 54.6284C31.0333 54.6808 31.1454 54.7237 31.2824 54.7237C31.4195 54.7237 31.5316 54.7666 31.5316 54.8191C31.5316 54.8715 31.6213 54.9144 31.7309 54.9144C31.8405 54.9144 31.9302 54.9573 31.9302 55.0097C31.9302 55.0621 32.0086 55.1064 32.1046 55.1081C32.2005 55.1097 32.3661 55.174 32.4724 55.2511C32.5788 55.328 32.8142 55.391 32.9956 55.391C33.1769 55.391 33.3253 55.4339 33.3253 55.4863C33.3253 55.5387 33.5495 55.5816 33.8236 55.5816C34.0976 55.5816 34.3218 55.5387 34.3218 55.4863C34.3218 55.4339 34.4549 55.391 34.6174 55.391C34.9137 55.391 35.6381 55.12 35.7003 54.9859C35.7187 54.9465 35.8195 54.9144 35.9246 54.9144C36.0296 54.9144 36.1156 54.8715 36.1156 54.8191C36.1156 54.7666 36.2277 54.7237 36.3647 54.7237C36.5018 54.7237 36.6139 54.6808 36.6139 54.6284C36.6139 54.576 36.6788 54.5331 36.7582 54.5331C36.8376 54.5331 37.0235 54.4259 37.1714 54.2948C37.3192 54.1637 37.5009 54.0565 37.5751 54.0565C37.6493 54.0565 37.71 54.0136 37.71 53.9612C37.71 53.9088 37.7997 53.8659 37.9093 53.8659C38.019 53.8659 38.1087 53.823 38.1087 53.7705C38.1087 53.7181 38.2015 53.6752 38.315 53.6752C38.4286 53.6752 38.584 53.6216 38.6604 53.5561C38.9902 53.2732 39.1029 53.1986 39.2006 53.1986C39.2577 53.1986 39.3045 53.1557 39.3045 53.1033C39.3045 53.0509 39.3942 53.008 39.5038 53.008C39.6134 53.008 39.7031 52.9651 39.7031 52.9127C39.7031 52.8602 39.7928 52.8173 39.9024 52.8173C40.012 52.8173 40.1017 52.7744 40.1017 52.722C40.1017 52.6696 40.1866 52.6267 40.2903 52.6267C40.3941 52.6267 40.5033 52.5662 40.533 52.4921C40.5627 52.4181 40.7469 52.3023 40.9423 52.2346C41.1377 52.1671 41.2975 52.0776 41.2975 52.0356C41.2975 51.9938 41.3872 51.9595 41.4968 51.9595C41.6065 51.9595 41.6962 51.9166 41.6962 51.8641C41.6962 51.8117 41.7858 51.7688 41.8955 51.7688C42.0051 51.7688 42.0948 51.7356 42.0948 51.6951C42.0948 51.6546 42.2517 51.5407 42.4435 51.4419C42.6354 51.343 42.7923 51.2261 42.7923 51.1819C42.7923 51.1377 42.882 51.1016 42.9916 51.1016C43.1013 51.1016 43.1909 51.0587 43.1909 51.0063C43.1909 50.9538 43.3031 50.9109 43.4401 50.9109C43.5771 50.9109 43.6892 50.868 43.6892 50.8156C43.6892 50.7632 43.7542 50.7203 43.8335 50.7203C43.9129 50.7203 44.0989 50.6131 44.2468 50.482C44.3946 50.3509 44.5762 50.2437 44.6505 50.2437C44.7247 50.2437 44.7854 50.2008 44.7854 50.1484C44.7854 50.096 44.8751 50.0531 44.9847 50.0531C45.0943 50.0531 45.184 50.0102 45.184 49.9577C45.184 49.9053 45.2756 49.8624 45.3875 49.8624C45.5742 49.8624 45.6579 49.8168 46.0096 49.523C46.0762 49.4673 46.2764 49.3603 46.4546 49.2852C46.6328 49.21 46.7784 49.1163 46.7784 49.0766C46.7784 49.0369 46.8681 49.0045 46.9778 49.0045C47.0874 49.0045 47.1771 48.9616 47.1771 48.9092C47.1771 48.8568 47.2681 48.8139 47.3795 48.8139C47.4909 48.8139 47.6078 48.7496 47.6392 48.6709C47.6708 48.5923 47.7816 48.5279 47.8853 48.5279C47.989 48.5279 48.0739 48.485 48.0739 48.4326C48.0739 48.3802 48.1412 48.3373 48.2234 48.3373C48.3056 48.3373 48.3729 48.2944 48.3729 48.242C48.3729 48.1895 48.4626 48.1467 48.5722 48.1467C48.6818 48.1467 48.7715 48.1038 48.7715 48.0513C48.7715 47.9989 48.8612 47.956 48.9708 47.956C49.0804 47.956 49.1701 47.9131 49.1701 47.8607C49.1701 47.8083 49.2305 47.7654 49.3043 47.7654C49.3782 47.7654 49.5434 47.6784 49.6715 47.5722C49.7996 47.4659 50.0083 47.354 50.1352 47.3235C50.2621 47.2931 50.3659 47.2299 50.3659 47.1832C50.3659 47.1364 50.4556 47.0981 50.5653 47.0981C50.6749 47.0981 50.7646 47.0552 50.7646 47.0028C50.7646 46.9504 50.8542 46.9075 50.9639 46.9075C51.0735 46.9075 51.1632 46.8666 51.1632 46.8167C51.1632 46.7667 51.3201 46.6545 51.512 46.5675C51.7038 46.4805 51.8607 46.3711 51.8607 46.3247C51.8607 46.2783 51.9504 46.2403 52.06 46.2403C52.1697 46.2403 52.2594 46.1974 52.2594 46.1449C52.2594 46.0925 52.351 46.0496 52.4631 46.0496C52.5753 46.0496 52.775 45.9531 52.9068 45.8351C53.2681 45.512 53.4402 45.3824 53.5079 45.3824C53.6284 45.3824 53.8538 45.1072 53.8538 44.9602C53.8538 44.8778 53.8986 44.8105 53.9535 44.8105C54.0083 44.8105 54.0531 44.7461 54.0531 44.6675C54.0531 44.5888 54.0979 44.5245 54.1528 44.5245C54.2076 44.5245 54.2524 44.4469 54.2524 44.3521C54.2524 44.2572 54.3183 44.0964 54.3987 43.9946C54.4792 43.8929 54.5465 43.6488 54.5482 43.4521C54.55 43.2556 54.5962 43.0947 54.651 43.0947C54.7168 43.0947 54.7507 39.8855 54.7507 33.658C54.7507 27.4305 54.7168 24.2213 54.651 24.2213C54.5962 24.2213 54.55 24.0605 54.5482 23.8639C54.5465 23.6673 54.4792 23.4231 54.3987 23.3214C54.3183 23.2196 54.2524 23.0588 54.2524 22.9639C54.2524 22.8691 54.2076 22.7915 54.1528 22.7915C54.0979 22.7915 54.0531 22.7272 54.0531 22.6485C54.0531 22.5699 54.0083 22.5055 53.9535 22.5055C53.8986 22.5055 53.8538 22.4382 53.8538 22.3558C53.8538 22.2088 53.6284 21.9336 53.5079 21.9336C53.4402 21.9336 53.2681 21.804 52.9068 21.4809C52.775 21.3628 52.5977 21.2664 52.513 21.2664C52.4283 21.2664 52.359 21.2235 52.359 21.1711C52.359 21.1186 52.2469 21.0757 52.1099 21.0757C51.9729 21.0757 51.8607 21.0377 51.8607 20.9913C51.8607 20.9449 51.7038 20.8355 51.512 20.7485C51.3201 20.6615 51.1632 20.5493 51.1632 20.4993C51.1632 20.4494 51.0735 20.4085 50.9639 20.4085C50.8542 20.4085 50.7646 20.3656 50.7646 20.3132C50.7646 20.2608 50.6749 20.2179 50.5653 20.2179C50.4556 20.2179 50.3659 20.1796 50.3659 20.1328C50.3659 20.0861 50.2621 20.0229 50.1352 19.9925C50.0083 19.962 49.7996 19.8501 49.6715 19.7438C49.5434 19.6376 49.3782 19.5506 49.3043 19.5506C49.2305 19.5506 49.1701 19.5077 49.1701 19.4553C49.1701 19.4029 49.0804 19.36 48.9708 19.36C48.8612 19.36 48.7715 19.3171 48.7715 19.2647C48.7715 19.2122 48.6818 19.1693 48.5722 19.1693C48.4626 19.1693 48.3729 19.1264 48.3729 19.074C48.3729 19.0216 48.3056 18.9787 48.2234 18.9787C48.1412 18.9787 48.0739 18.9358 48.0739 18.8834C48.0739 18.831 47.989 18.7881 47.8853 18.7881C47.7816 18.7881 47.6708 18.7237 47.6392 18.6451C47.6078 18.5664 47.4909 18.5021 47.3795 18.5021C47.2681 18.5021 47.1771 18.4592 47.1771 18.4068C47.1771 18.3544 47.0874 18.3115 46.9778 18.3115C46.8681 18.3115 46.7784 18.2791 46.7784 18.2394C46.7784 18.1997 46.6328 18.106 46.4546 18.0308C46.2764 17.9557 46.0762 17.8487 46.0096 17.793C45.6579 17.4992 45.5742 17.4536 45.3875 17.4536C45.2756 17.4536 45.184 17.4107 45.184 17.3583C45.184 17.3058 45.0943 17.2629 44.9847 17.2629C44.8751 17.2629 44.7854 17.2249 44.7854 17.1785C44.7854 17.1321 44.6284 17.0227 44.4366 16.9357C44.2448 16.8487 44.0878 16.7365 44.0878 16.6865C44.0878 16.6366 43.9981 16.5957 43.8885 16.5957C43.7789 16.5957 43.6892 16.5528 43.6892 16.5004C43.6892 16.448 43.6243 16.4051 43.5451 16.4051C43.3781 16.4051 42.1608 15.7437 42.1114 15.6262C42.0931 15.5827 41.9922 15.5472 41.8872 15.5472C41.7822 15.5472 41.6962 15.5043 41.6962 15.4519C41.6962 15.3994 41.6065 15.3565 41.4968 15.3565C41.3872 15.3565 41.2975 15.3136 41.2975 15.2612C41.2975 15.2088 41.2303 15.1659 41.1481 15.1659C41.0658 15.1659 40.9986 15.123 40.9986 15.0706C40.9986 15.0182 40.9137 14.9753 40.8099 14.9753C40.7062 14.9753 40.5955 14.9109 40.5639 14.8323C40.5324 14.7536 40.4155 14.6893 40.3041 14.6893C40.1928 14.6893 40.1017 14.6464 40.1017 14.594C40.1017 14.5416 40.012 14.4987 39.9024 14.4987C39.7928 14.4987 39.7031 14.4558 39.7031 14.4033C39.7031 14.3509 39.6134 14.308 39.5038 14.308C39.3942 14.308 39.3045 14.2651 39.3045 14.2127C39.3045 14.1603 39.2577 14.1174 39.2006 14.1174C39.1029 14.1174 38.9902 14.0428 38.6604 13.7599C38.584 13.6944 38.4286 13.6408 38.315 13.6408C38.2015 13.6408 38.1087 13.5979 38.1087 13.5455C38.1087 13.493 38.019 13.4501 37.9093 13.4501C37.7997 13.4501 37.71 13.4072 37.71 13.3548C37.71 13.3024 37.6493 13.2595 37.5751 13.2595C37.5009 13.2595 37.3192 13.1523 37.1714 13.0212C37.0235 12.8901 36.8376 12.7829 36.7582 12.7829C36.6788 12.7829 36.6139 12.74 36.6139 12.6876C36.6139 12.6351 36.5018 12.5923 36.3647 12.5923C36.2277 12.5923 36.1156 12.5494 36.1156 12.4969C36.1156 12.4445 36.0296 12.4016 35.9246 12.4016C35.8195 12.4016 35.7187 12.3695 35.7003 12.3301C35.6381 12.196 34.9137 11.925 34.6174 11.925C34.4549 11.925 34.3218 11.8821 34.3218 11.8297C34.3218 11.7773 34.0752 11.7344 33.7738 11.7344C33.4723 11.7344 33.2257 11.7773 33.2257 11.8297ZM35.2187 22.2196C35.2187 22.2726 35.4845 22.3149 35.8166 22.3149C36.1488 22.3149 36.4146 22.3572 36.4146 22.4102C36.4146 22.4627 36.5912 22.5055 36.8073 22.5055C37.0233 22.5055 37.2277 22.5484 37.2616 22.6009C37.2955 22.6533 37.4359 22.6962 37.5735 22.6962C37.7112 22.6962 37.8912 22.7605 37.9734 22.8392C38.0556 22.9178 38.2318 22.9821 38.3649 22.9821C38.498 22.9821 38.6069 23.025 38.6069 23.0775C38.6069 23.1299 38.6966 23.1728 38.8062 23.1728C38.9158 23.1728 39.0055 23.2157 39.0055 23.2681C39.0055 23.3205 39.1176 23.3634 39.2547 23.3634C39.3917 23.3634 39.5038 23.3984 39.5038 23.4411C39.5038 23.4838 39.6607 23.5904 39.8526 23.6779C40.0444 23.7654 40.2014 23.8805 40.2014 23.9338C40.2014 23.9871 40.2812 24.0307 40.3786 24.0307C40.4762 24.0307 40.6206 24.1165 40.6996 24.2213C40.7786 24.3262 40.898 24.412 40.9649 24.412C41.0318 24.412 41.2912 24.605 41.5414 24.8409C41.7916 25.0768 42.0204 25.2698 42.05 25.2698C42.1228 25.2698 42.593 25.7235 42.593 25.7935C42.593 25.8242 42.7724 26.0175 42.9916 26.223C43.2109 26.4285 43.3903 26.6164 43.3903 26.6404C43.3903 26.8176 43.2376 26.9856 43.0764 26.9856C42.8964 26.9856 42.8003 27.0402 42.4472 27.343C42.3708 27.4085 42.2603 27.4622 42.2015 27.4622C42.1428 27.4622 42.0948 27.5051 42.0948 27.5575C42.0948 27.6099 42.0051 27.6528 41.8955 27.6528C41.7858 27.6528 41.6962 27.6957 41.6962 27.7482C41.6962 27.8006 41.6065 27.8435 41.4968 27.8435C41.3872 27.8435 41.2975 27.8864 41.2975 27.9388C41.2975 27.9912 41.2373 28.0341 41.1636 28.0341C41.0899 28.0341 40.8993 28.1413 40.7401 28.2723C40.5807 28.4033 40.372 28.5105 40.2761 28.5106C40.1802 28.5106 40.1017 28.5536 40.1017 28.606C40.1017 28.6585 40.012 28.7014 39.9024 28.7014C39.7928 28.7014 39.7031 28.7442 39.7031 28.7967C39.7031 28.8491 39.6396 28.892 39.5619 28.892C39.4843 28.892 39.4058 28.9317 39.3875 28.9803C39.3693 29.0288 39.2309 29.0978 39.0803 29.1335C38.8667 29.1842 38.8062 29.1648 38.8062 29.0453C38.8062 28.961 38.739 28.892 38.6567 28.892C38.5745 28.892 38.5073 28.8491 38.5073 28.7967C38.5073 28.7442 38.44 28.7014 38.3578 28.7014C38.2756 28.7014 38.2083 28.6585 38.2083 28.606C38.2083 28.5536 38.1517 28.5107 38.0824 28.5107C38.0133 28.5107 37.8725 28.4035 37.7695 28.2724C37.6667 28.1413 37.4991 28.0341 37.3971 28.0341C37.2952 28.0341 37.2118 27.9912 37.2118 27.9388C37.2118 27.8864 37.1221 27.8435 37.0125 27.8435C36.9029 27.8435 36.8132 27.8006 36.8132 27.7482C36.8132 27.6957 36.7453 27.6528 36.6623 27.6528C36.5794 27.6528 36.4336 27.6152 36.3384 27.5691C35.7681 27.2933 35.3591 27.1762 34.9662 27.1762C34.7215 27.1762 34.5212 27.1333 34.5212 27.0809C34.5212 27.0265 34.2222 26.9856 33.8236 26.9856C33.425 26.9856 33.126 27.0265 33.126 27.0809C33.126 27.1333 32.9257 27.1762 32.681 27.1762C32.288 27.1762 31.8791 27.2933 31.3087 27.5691C31.2136 27.6152 31.0678 27.6528 30.9849 27.6528C30.9019 27.6528 30.834 27.6957 30.834 27.7482C30.834 27.8006 30.7443 27.8435 30.6347 27.8435C30.5251 27.8435 30.4354 27.8864 30.4354 27.9388C30.4354 27.9912 30.352 28.0341 30.25 28.0341C30.1481 28.0341 29.9805 28.1413 29.8776 28.2724C29.7747 28.4035 29.6423 28.5107 29.5835 28.5107C29.5246 28.5107 29.3802 28.5965 29.2625 28.7014C29.1449 28.8062 29.0019 28.892 28.9448 28.892C28.8877 28.892 28.8409 28.9367 28.8409 28.9913C28.8409 29.0459 28.7513 29.1827 28.6416 29.2952C28.532 29.4078 28.4423 29.5459 28.4423 29.6022C28.4423 29.6586 28.3302 29.7851 28.1932 29.8836C28.0562 29.982 27.9441 30.1423 27.9441 30.2398C27.9441 30.3373 27.8992 30.4171 27.8444 30.4171C27.7896 30.4171 27.7448 30.5029 27.7448 30.6078C27.7448 30.7126 27.6999 30.7984 27.6451 30.7984C27.5903 30.7984 27.5455 30.8633 27.5455 30.9427C27.5455 31.022 27.5061 31.1615 27.458 31.2525C27.1696 31.798 27.0472 32.1892 27.0472 32.5651C27.0472 32.7992 27.0023 32.9908 26.9475 32.9908C26.8906 32.9908 26.8479 33.2767 26.8479 33.658C26.8479 34.0393 26.8906 34.3252 26.9475 34.3252C27.0023 34.3252 27.0472 34.5168 27.0472 34.7509C27.0472 35.1268 27.1696 35.518 27.458 36.0635C27.5061 36.1545 27.5455 36.294 27.5455 36.3733C27.5455 36.4527 27.5903 36.5176 27.6451 36.5176C27.6999 36.5176 27.7448 36.6034 27.7448 36.7082C27.7448 36.8131 27.7896 36.8989 27.8444 36.8989C27.8992 36.8989 27.9441 36.9787 27.9441 37.0762C27.9441 37.1737 28.0562 37.334 28.1932 37.4324C28.3302 37.5309 28.4423 37.6655 28.4423 37.7317C28.4423 37.7979 28.4872 37.8521 28.542 37.8521C28.5968 37.8521 28.6416 37.9164 28.6416 37.9951C28.6416 38.0737 28.6865 38.138 28.7413 38.138C28.7961 38.138 28.8409 38.2024 28.8409 38.281C28.8409 38.3597 28.9082 38.424 28.9904 38.424C29.0726 38.424 29.1399 38.4669 29.1399 38.5193C29.1399 38.5718 29.2072 38.6146 29.2894 38.6146C29.3716 38.6146 29.4389 38.6575 29.4389 38.71C29.4389 38.7624 29.4955 38.8053 29.5647 38.8053C29.6339 38.8053 29.7747 38.9125 29.8776 39.0436C29.9805 39.1747 30.1481 39.2819 30.25 39.2819C30.352 39.2819 30.4354 39.3248 30.4354 39.3772C30.4354 39.4296 30.5251 39.4725 30.6347 39.4725C30.7443 39.4725 30.834 39.5154 30.834 39.5678C30.834 39.6203 30.9019 39.6632 30.9849 39.6632C31.0678 39.6632 31.2136 39.7008 31.3087 39.7469C31.8791 40.0227 32.288 40.1398 32.681 40.1398C32.9257 40.1398 33.126 40.1827 33.126 40.2351C33.126 40.2895 33.425 40.3304 33.8236 40.3304C34.2222 40.3304 34.5212 40.2895 34.5212 40.2351C34.5212 40.1827 34.6911 40.1398 34.8986 40.1398C35.2531 40.1398 36.2359 39.8658 36.3817 39.7265C36.418 39.6917 36.53 39.6632 36.6305 39.6632C36.731 39.6632 36.8132 39.6203 36.8132 39.5678C36.8132 39.5154 36.9029 39.4725 37.0125 39.4725C37.1221 39.4725 37.2118 39.4296 37.2118 39.3772C37.2118 39.3248 37.2952 39.2819 37.3971 39.2819C37.4991 39.2819 37.6667 39.1747 37.7695 39.0436C37.8725 38.9125 38.0133 38.8053 38.0824 38.8053C38.1517 38.8053 38.2083 38.7624 38.2083 38.71C38.2083 38.6575 38.2756 38.6146 38.3578 38.6146C38.44 38.6146 38.5073 38.5718 38.5073 38.5193C38.5073 38.4669 38.5745 38.424 38.6567 38.424C38.739 38.424 38.8062 38.355 38.8062 38.2707C38.8062 38.1512 38.8667 38.1318 39.0803 38.1825C39.2309 38.2182 39.3693 38.2872 39.3875 38.3357C39.4058 38.3843 39.4843 38.424 39.5619 38.424C39.6396 38.424 39.7031 38.4669 39.7031 38.5193C39.7031 38.5718 39.7928 38.6146 39.9024 38.6146C40.012 38.6146 40.1017 38.6575 40.1017 38.71C40.1017 38.7624 40.1654 38.8053 40.2431 38.8053C40.4209 38.8053 40.9971 39.1145 40.998 39.2104C40.9983 39.2498 41.0658 39.2819 41.1481 39.2819C41.2303 39.2819 41.2975 39.3248 41.2975 39.3772C41.2975 39.4296 41.3872 39.4725 41.4968 39.4725C41.6065 39.4725 41.6962 39.5154 41.6962 39.5678C41.6962 39.6203 41.7858 39.6632 41.8955 39.6632C42.0051 39.6632 42.0948 39.7061 42.0948 39.7585C42.0948 39.8109 42.1415 39.8538 42.1986 39.8538C42.2964 39.8538 42.4091 39.9283 42.7388 40.2113C42.8153 40.2768 42.9706 40.3304 43.0842 40.3304C43.1977 40.3304 43.2906 40.3483 43.2906 40.3703C43.2906 40.3922 43.317 40.476 43.3493 40.5564C43.3866 40.6493 43.2593 40.8421 43.0005 41.0847C42.7764 41.2948 42.593 41.4918 42.593 41.5225C42.593 41.5925 42.1228 42.0462 42.05 42.0462C42.0204 42.0462 41.7916 42.2392 41.5414 42.4751C41.2912 42.711 41.0318 42.9041 40.9649 42.9041C40.898 42.9041 40.7786 42.9898 40.6996 43.0947C40.6206 43.1995 40.4762 43.2853 40.3786 43.2853C40.2812 43.2853 40.2014 43.3289 40.2014 43.3822C40.2014 43.4355 40.0444 43.5506 39.8526 43.6381C39.6607 43.7256 39.5038 43.8322 39.5038 43.8749C39.5038 43.9176 39.3917 43.9526 39.2547 43.9526C39.1176 43.9526 39.0055 43.9955 39.0055 44.0479C39.0055 44.1003 38.9158 44.1432 38.8062 44.1432C38.6966 44.1432 38.6069 44.1861 38.6069 44.2385C38.6069 44.291 38.498 44.3339 38.3649 44.3339C38.2318 44.3339 38.0556 44.3982 37.9734 44.4768C37.8912 44.5555 37.7112 44.6198 37.5735 44.6198C37.4359 44.6198 37.2955 44.6627 37.2616 44.7151C37.2277 44.7676 37.0233 44.8105 36.8073 44.8105C36.5912 44.8105 36.4146 44.8534 36.4146 44.9058C36.4146 44.9595 36.1322 45.0011 35.7668 45.0011C35.4014 45.0011 35.1191 45.0427 35.1191 45.0964C35.1191 45.1552 34.6042 45.1917 33.7738 45.1917C32.9433 45.1917 32.4284 45.1552 32.4284 45.0964C32.4284 45.0434 32.1627 45.0011 31.8305 45.0011C31.4984 45.0011 31.2326 44.9588 31.2326 44.9058C31.2326 44.8534 31.0559 44.8105 30.8399 44.8105C30.6238 44.8105 30.4194 44.7676 30.3856 44.7151C30.3517 44.6627 30.2113 44.6198 30.0736 44.6198C29.9359 44.6198 29.756 44.5555 29.6737 44.4768C29.5915 44.3982 29.4153 44.3339 29.2823 44.3339C29.1492 44.3339 29.0402 44.291 29.0402 44.2385C29.0402 44.1861 28.9506 44.1432 28.8409 44.1432C28.7313 44.1432 28.6416 44.1003 28.6416 44.0479C28.6416 43.9955 28.5295 43.9526 28.3925 43.9526C28.2555 43.9526 28.1434 43.9176 28.1434 43.8749C28.1434 43.8322 27.9864 43.7256 27.7946 43.6381C27.6028 43.5506 27.4458 43.4355 27.4458 43.3822C27.4458 43.3289 27.366 43.2853 27.2685 43.2853C27.171 43.2853 27.0266 43.1995 26.9475 43.0947C26.8685 42.9898 26.7491 42.9041 26.6823 42.9041C26.6154 42.9041 26.356 42.711 26.1058 42.4751C25.8555 42.2392 25.6267 42.0462 25.5971 42.0462C25.5271 42.0462 25.0541 41.5938 25.0541 41.5268C25.0541 41.4985 24.8523 41.2796 24.6057 41.0403C24.3591 40.8009 24.1573 40.5528 24.1573 40.4888C24.1573 40.4249 24.0676 40.3107 23.9579 40.2351C23.8483 40.1595 23.7586 40.0214 23.7586 39.9281C23.7586 39.8348 23.7131 39.7585 23.6574 39.7585C23.6017 39.7585 23.4813 39.6084 23.3898 39.4249C23.2983 39.2414 23.1869 39.0912 23.1423 39.0912C23.0976 39.0912 23.0611 38.984 23.0611 38.8529C23.0611 38.7219 23.0162 38.6146 22.9614 38.6146C22.9066 38.6146 22.8618 38.5289 22.8618 38.424C22.8618 38.3192 22.8169 38.2334 22.7621 38.2334C22.7073 38.2334 22.6625 38.1292 22.6625 38.0018C22.6625 37.8746 22.5952 37.7061 22.513 37.6274C22.4308 37.5488 22.3635 37.3766 22.3635 37.2449C22.3635 37.1133 22.3187 36.979 22.2639 36.9465C22.209 36.9141 22.1642 36.7186 22.1642 36.512C22.1642 36.3053 22.1194 36.1363 22.0645 36.1363C22.0091 36.1363 21.9649 35.8821 21.9649 35.5644C21.9649 35.2467 21.9206 34.9925 21.8652 34.9925C21.8036 34.9925 21.7656 34.4841 21.7656 33.658C21.7656 32.8319 21.8036 32.3235 21.8652 32.3235C21.9206 32.3235 21.9649 32.0693 21.9649 31.7516C21.9649 31.4339 22.0091 31.1797 22.0645 31.1797C22.1194 31.1797 22.1642 31.0107 22.1642 30.804C22.1642 30.5974 22.209 30.4019 22.2639 30.3695C22.3187 30.337 22.3635 30.2027 22.3635 30.0711C22.3635 29.9394 22.4308 29.7672 22.513 29.6886C22.5952 29.6099 22.6625 29.4414 22.6625 29.3142C22.6625 29.1868 22.7073 29.0826 22.7621 29.0826C22.8169 29.0826 22.8618 28.9968 22.8618 28.892C22.8618 28.7871 22.9066 28.7014 22.9614 28.7014C23.0162 28.7014 23.0611 28.5941 23.0611 28.4631C23.0611 28.332 23.0976 28.2248 23.1423 28.2248C23.1869 28.2248 23.2983 28.0746 23.3898 27.8911C23.4813 27.7076 23.6017 27.5575 23.6574 27.5575C23.7131 27.5575 23.7586 27.4812 23.7586 27.3879C23.7586 27.2946 23.8483 27.1565 23.9579 27.0809C24.0676 27.0053 24.1573 26.8911 24.1573 26.8272C24.1573 26.7632 24.3591 26.5151 24.6057 26.2757C24.8523 26.0364 25.0541 25.8175 25.0541 25.7892C25.0541 25.7222 25.5271 25.2698 25.5971 25.2698C25.6267 25.2698 25.8555 25.0768 26.1058 24.8409C26.356 24.605 26.6154 24.412 26.6823 24.412C26.7491 24.412 26.8685 24.3262 26.9475 24.2213C27.0266 24.1165 27.171 24.0307 27.2685 24.0307C27.366 24.0307 27.4458 23.9871 27.4458 23.9338C27.4458 23.8805 27.6028 23.7654 27.7946 23.6779C27.9864 23.5904 28.1434 23.4838 28.1434 23.4411C28.1434 23.3984 28.2555 23.3634 28.3925 23.3634C28.5295 23.3634 28.6416 23.3205 28.6416 23.2681C28.6416 23.2157 28.7313 23.1728 28.8409 23.1728C28.9506 23.1728 29.0402 23.1299 29.0402 23.0775C29.0402 23.025 29.1492 22.9821 29.2823 22.9821C29.4153 22.9821 29.5915 22.9178 29.6737 22.8392C29.756 22.7605 29.9359 22.6962 30.0736 22.6962C30.2113 22.6962 30.3517 22.6533 30.3856 22.6009C30.4194 22.5484 30.6238 22.5055 30.8399 22.5055C31.0559 22.5055 31.2326 22.4627 31.2326 22.4102C31.2326 22.3572 31.4984 22.3149 31.8305 22.3149C32.1627 22.3149 32.4284 22.2726 32.4284 22.2196C32.4284 22.1606 32.9599 22.1243 33.8236 22.1243C34.6873 22.1243 35.2187 22.1606 35.2187 22.2196ZM45.8816 29.8452V30.7984H46.7784H47.6753V29.8452V28.892H48.7715H49.8677V29.8452V30.7984H50.8642H51.8607V31.7516V32.7048H50.8642H49.8677V33.658V34.6112H50.8642H51.8607V35.5644V36.5176H50.8642H49.8677V37.4708V38.424H48.7715H47.6753V37.4708V36.5176H46.7784H45.8816V37.4708V38.424H44.7854H43.6892V37.4708V36.5176H42.6927H41.6962V35.5644V34.6112H42.6927H43.6892V33.658V32.7048H42.6927H41.6962V31.7516V30.7984H42.6927H43.6892V29.8452V28.892H44.7854H45.8816V29.8452ZM45.8816 33.658V34.6112H46.7784H47.6753V33.658V32.7048H46.7784H45.8816V33.658Z" fill="#182F43"/>
</svg>
