<svg width="55" height="55" viewBox="0 0 55 55" fill="none" xmlns="http://www.w3.org/2000/svg">
<path fill-rule="evenodd" clip-rule="evenodd" d="M27.4857 9.08261C27.4857 9.12804 27.3906 9.16522 27.2743 9.16522C27.0531 9.16522 26.435 9.40941 26.3857 9.5163C26.37 9.55042 26.2832 9.57826 26.1929 9.57826C26.1025 9.57826 26.0286 9.61543 26.0286 9.66087C26.0286 9.7063 25.9321 9.74348 25.8143 9.74348C25.6964 9.74348 25.6 9.78065 25.6 9.82609C25.6 9.87152 25.5441 9.9087 25.4759 9.9087C25.4076 9.9087 25.2476 10.0016 25.1204 10.1152C24.9933 10.2288 24.8371 10.3217 24.7732 10.3217C24.7093 10.3217 24.6571 10.3589 24.6571 10.4043C24.6571 10.4498 24.58 10.487 24.4857 10.487C24.3914 10.487 24.3143 10.5241 24.3143 10.5696C24.3143 10.615 24.2355 10.6522 24.1393 10.6522C23.9759 10.6522 23.8939 10.6983 23.5889 10.962C23.5231 11.0188 23.4281 11.0652 23.3775 11.0652C23.327 11.0652 23.2857 11.1024 23.2857 11.1478C23.2857 11.1933 23.2086 11.2304 23.1143 11.2304C23.02 11.2304 22.9429 11.2676 22.9429 11.313C22.9429 11.3585 22.8657 11.3957 22.7714 11.3957C22.6771 11.3957 22.6 11.4328 22.6 11.4783C22.6 11.5237 22.5217 11.5609 22.4259 11.5609C22.3301 11.5609 22.2295 11.6166 22.2025 11.6848C22.1753 11.7529 22.0801 11.8087 21.9908 11.8087C21.9016 11.8087 21.8286 11.8459 21.8286 11.8913C21.8286 11.9367 21.7707 11.9739 21.7 11.9739C21.6293 11.9739 21.5714 12.0111 21.5714 12.0565C21.5714 12.102 21.4943 12.1391 21.4 12.1391C21.3057 12.1391 21.2286 12.1763 21.2286 12.2217C21.2286 12.2672 21.1547 12.3043 21.0643 12.3043C20.9739 12.3043 20.8872 12.3352 20.8714 12.3728C20.8289 12.4747 19.7819 13.0478 19.6382 13.0478C19.5701 13.0478 19.5143 13.085 19.5143 13.1304C19.5143 13.1759 19.4371 13.213 19.3429 13.213C19.2486 13.213 19.1714 13.2485 19.1714 13.2918C19.1714 13.3351 19.0364 13.4323 18.8714 13.5077C18.7064 13.5831 18.5714 13.6779 18.5714 13.7181C18.5714 13.7583 18.4943 13.7913 18.4 13.7913C18.3057 13.7913 18.2286 13.8285 18.2286 13.8739C18.2286 13.9193 18.1487 13.9565 18.0511 13.9565C17.9533 13.9565 17.8197 14.003 17.754 14.0598C17.4955 14.2832 17.4041 14.3418 17.1357 14.4563C16.9825 14.5216 16.8571 14.6032 16.8571 14.6375C16.8571 14.6719 16.78 14.7 16.6857 14.7C16.5914 14.7 16.5143 14.7372 16.5143 14.7826C16.5143 14.828 16.4359 14.8652 16.3402 14.8652C16.2444 14.8652 16.1438 14.921 16.1167 14.9891C16.0896 15.0573 15.9943 15.113 15.9051 15.113C15.8159 15.113 15.7429 15.1502 15.7429 15.1957C15.7429 15.2411 15.685 15.2783 15.6143 15.2783C15.5436 15.2783 15.4857 15.3154 15.4857 15.3609C15.4857 15.4063 15.4086 15.4435 15.3143 15.4435C15.22 15.4435 15.1429 15.4807 15.1429 15.5261C15.1429 15.5715 15.0657 15.6087 14.9714 15.6087C14.8771 15.6087 14.8 15.6459 14.8 15.6913C14.8 15.7367 14.7481 15.7739 14.6845 15.7739C14.621 15.7739 14.4789 15.8493 14.3688 15.9414C14.2585 16.0335 14.0791 16.1305 13.9699 16.1569C13.8607 16.1832 13.7714 16.238 13.7714 16.2785C13.7714 16.319 13.6943 16.3522 13.6 16.3522C13.5057 16.3522 13.4286 16.3893 13.4286 16.4348C13.4286 16.4802 13.3514 16.5174 13.2571 16.5174C13.1629 16.5174 13.0857 16.5528 13.0857 16.5961C13.0857 16.6394 12.9507 16.7366 12.7857 16.8121C12.6207 16.8875 12.4857 16.9822 12.4857 17.0225C12.4857 17.0627 12.3893 17.0957 12.2714 17.0957C12.1536 17.0957 12.0571 17.1328 12.0571 17.1783C12.0571 17.2237 11.9976 17.2609 11.9247 17.2609C11.8519 17.2609 11.6994 17.3445 11.586 17.4467C11.2752 17.7268 11.1271 17.8391 11.0689 17.8391C10.9653 17.8391 10.7714 18.0776 10.7714 18.205C10.7714 18.2764 10.7329 18.3348 10.6857 18.3348C10.6386 18.3348 10.6 18.3905 10.6 18.4587C10.6 18.5268 10.5614 18.5826 10.5143 18.5826C10.4671 18.5826 10.4286 18.6499 10.4286 18.732C10.4286 18.8142 10.3719 18.9536 10.3027 19.0418C10.2335 19.13 10.1756 19.3416 10.1742 19.512C10.1726 19.6824 10.1329 19.8217 10.0857 19.8217C10.0291 19.8217 10 22.6029 10 28C10 33.3971 10.0291 36.1783 10.0857 36.1783C10.1329 36.1783 10.1726 36.3177 10.1742 36.488C10.1756 36.6585 10.2335 36.87 10.3027 36.9582C10.3719 37.0464 10.4286 37.1858 10.4286 37.268C10.4286 37.3502 10.4671 37.4174 10.5143 37.4174C10.5614 37.4174 10.6 37.4732 10.6 37.5413C10.6 37.6095 10.6386 37.6652 10.6857 37.6652C10.7329 37.6652 10.7714 37.7236 10.7714 37.795C10.7714 37.9224 10.9653 38.1609 11.0689 38.1609C11.1271 38.1609 11.2752 38.2732 11.586 38.5533C11.6994 38.6554 11.8711 38.7391 11.9676 38.7391C12.064 38.7391 12.1429 38.7763 12.1429 38.8217C12.1429 38.8672 12.22 38.9043 12.3143 38.9043C12.4086 38.9043 12.4857 38.9373 12.4857 38.9775C12.4857 39.0178 12.6207 39.1125 12.7857 39.1879C12.9507 39.2634 13.0857 39.3606 13.0857 39.4039C13.0857 39.4472 13.1629 39.4826 13.2571 39.4826C13.3514 39.4826 13.4286 39.5198 13.4286 39.5652C13.4286 39.6107 13.5057 39.6478 13.6 39.6478C13.6943 39.6478 13.7714 39.681 13.7714 39.7215C13.7714 39.762 13.8607 39.8168 13.9699 39.8431C14.0791 39.8695 14.2585 39.9665 14.3688 40.0586C14.4789 40.1507 14.621 40.2261 14.6845 40.2261C14.7481 40.2261 14.8 40.2633 14.8 40.3087C14.8 40.3541 14.8771 40.3913 14.9714 40.3913C15.0657 40.3913 15.1429 40.4285 15.1429 40.4739C15.1429 40.5193 15.22 40.5565 15.3143 40.5565C15.4086 40.5565 15.4857 40.5937 15.4857 40.6391C15.4857 40.6846 15.5436 40.7217 15.6143 40.7217C15.685 40.7217 15.7429 40.7589 15.7429 40.8043C15.7429 40.8498 15.8159 40.887 15.9051 40.887C15.9943 40.887 16.0896 40.9427 16.1167 41.0109C16.1438 41.079 16.2444 41.1348 16.3402 41.1348C16.4359 41.1348 16.5143 41.172 16.5143 41.2174C16.5143 41.2628 16.5914 41.3 16.6857 41.3C16.78 41.3 16.8571 41.3372 16.8571 41.3826C16.8571 41.428 16.9343 41.4652 17.0286 41.4652C17.1229 41.4652 17.2 41.5024 17.2 41.5478C17.2 41.5933 17.2413 41.6304 17.2918 41.6304C17.3424 41.6304 17.4374 41.6769 17.5032 41.7337C17.8082 41.9974 17.8902 42.0435 18.0535 42.0435C18.1498 42.0435 18.2286 42.0807 18.2286 42.1261C18.2286 42.1715 18.3057 42.2087 18.4 42.2087C18.4943 42.2087 18.5714 42.2459 18.5714 42.2913C18.5714 42.3367 18.6236 42.3739 18.6875 42.3739C18.7513 42.3739 18.9076 42.4668 19.0347 42.5804C19.1619 42.694 19.3219 42.787 19.3902 42.787C19.4584 42.787 19.5143 42.8241 19.5143 42.8696C19.5143 42.915 19.6107 42.9522 19.7286 42.9522C19.8464 42.9522 19.9429 42.9893 19.9429 43.0348C19.9429 43.0802 20.02 43.1174 20.1143 43.1174C20.2086 43.1174 20.2857 43.1487 20.2857 43.187C20.2857 43.2253 20.4207 43.3266 20.5857 43.4123C20.7507 43.498 20.8857 43.5967 20.8857 43.6318C20.8857 43.6669 20.9629 43.6957 21.0571 43.6957C21.1514 43.6957 21.2286 43.7328 21.2286 43.7783C21.2286 43.8237 21.3057 43.8609 21.4 43.8609C21.4943 43.8609 21.5714 43.8906 21.5714 43.9269C21.5714 43.9632 21.7089 44.0408 21.877 44.0994C22.0451 44.158 22.2035 44.2584 22.229 44.3225C22.2546 44.3867 22.3485 44.4391 22.4377 44.4391C22.527 44.4391 22.6 44.4763 22.6 44.5217C22.6 44.5672 22.6771 44.6043 22.7714 44.6043C22.8657 44.6043 22.9429 44.6415 22.9429 44.687C22.9429 44.7324 23.02 44.7696 23.1143 44.7696C23.2086 44.7696 23.2857 44.8067 23.2857 44.8522C23.2857 44.8976 23.327 44.9348 23.3775 44.9348C23.4281 44.9348 23.5231 44.9813 23.5889 45.038C23.8939 45.3017 23.9759 45.3478 24.1393 45.3478C24.2355 45.3478 24.3143 45.385 24.3143 45.4304C24.3143 45.4759 24.3914 45.513 24.4857 45.513C24.58 45.513 24.6571 45.5502 24.6571 45.5957C24.6571 45.6411 24.7093 45.6783 24.7732 45.6783C24.8371 45.6783 24.9933 45.7712 25.1204 45.8848C25.2476 45.9984 25.4076 46.0913 25.4759 46.0913C25.5441 46.0913 25.6 46.1285 25.6 46.1739C25.6 46.2193 25.6964 46.2565 25.8143 46.2565C25.9321 46.2565 26.0286 46.2937 26.0286 46.3391C26.0286 46.3846 26.1057 46.4217 26.2 46.4217C26.2943 46.4217 26.3714 46.4589 26.3714 46.5043C26.3714 46.5498 26.4389 46.5881 26.5214 46.5896C26.604 46.591 26.7463 46.6468 26.8378 46.7135C26.9293 46.7802 27.1318 46.8348 27.2878 46.8348C27.4438 46.8348 27.5714 46.872 27.5714 46.9174C27.5714 46.9628 27.7643 47 28 47C28.2357 47 28.4286 46.9628 28.4286 46.9174C28.4286 46.872 28.543 46.8348 28.6828 46.8348C28.9376 46.8348 29.5607 46.5999 29.6143 46.4837C29.63 46.4496 29.7168 46.4217 29.8071 46.4217C29.8975 46.4217 29.9714 46.3846 29.9714 46.3391C29.9714 46.2937 30.0679 46.2565 30.1857 46.2565C30.3036 46.2565 30.4 46.2193 30.4 46.1739C30.4 46.1285 30.4559 46.0913 30.5241 46.0913C30.5924 46.0913 30.7524 45.9984 30.8796 45.8848C31.0067 45.7712 31.1629 45.6783 31.2268 45.6783C31.2907 45.6783 31.3429 45.6411 31.3429 45.5957C31.3429 45.5502 31.42 45.513 31.5143 45.513C31.6086 45.513 31.6857 45.4759 31.6857 45.4304C31.6857 45.385 31.7656 45.3478 31.8632 45.3478C31.9609 45.3478 32.0946 45.3013 32.1603 45.2446C32.4439 44.9994 32.5409 44.9348 32.625 44.9348C32.6741 44.9348 32.7143 44.8976 32.7143 44.8522C32.7143 44.8067 32.7914 44.7696 32.8857 44.7696C32.98 44.7696 33.0571 44.7324 33.0571 44.687C33.0571 44.6415 33.1343 44.6043 33.2286 44.6043C33.3229 44.6043 33.4 44.5672 33.4 44.5217C33.4 44.4763 33.473 44.4391 33.5623 44.4391C33.6515 44.4391 33.7454 44.3867 33.771 44.3225C33.7965 44.2584 33.9549 44.158 34.123 44.0994C34.2911 44.0408 34.4286 43.9632 34.4286 43.9269C34.4286 43.8906 34.5057 43.8609 34.6 43.8609C34.6943 43.8609 34.7714 43.8237 34.7714 43.7783C34.7714 43.7328 34.8486 43.6957 34.9429 43.6957C35.0371 43.6957 35.1143 43.6669 35.1143 43.6318C35.1143 43.5967 35.2493 43.498 35.4143 43.4123C35.5793 43.3266 35.7143 43.2253 35.7143 43.187C35.7143 43.1487 35.7914 43.1174 35.8857 43.1174C35.98 43.1174 36.0571 43.0802 36.0571 43.0348C36.0571 42.9893 36.1536 42.9522 36.2714 42.9522C36.3893 42.9522 36.4857 42.915 36.4857 42.8696C36.4857 42.8241 36.5416 42.787 36.6098 42.787C36.6781 42.787 36.8381 42.694 36.9653 42.5804C37.0924 42.4668 37.2487 42.3739 37.3125 42.3739C37.3764 42.3739 37.4286 42.3367 37.4286 42.2913C37.4286 42.2459 37.5057 42.2087 37.6 42.2087C37.6943 42.2087 37.7714 42.1715 37.7714 42.1261C37.7714 42.0807 37.8502 42.0435 37.9465 42.0435C38.1071 42.0435 38.179 42.0039 38.4816 41.7493C38.5388 41.7011 38.711 41.6083 38.8643 41.5432C39.0175 41.4781 39.1429 41.3968 39.1429 41.3625C39.1429 41.3281 39.22 41.3 39.3143 41.3C39.4086 41.3 39.4857 41.2628 39.4857 41.2174C39.4857 41.172 39.5641 41.1348 39.6598 41.1348C39.7556 41.1348 39.8562 41.079 39.8833 41.0109C39.9104 40.9427 40.0057 40.887 40.0949 40.887C40.1841 40.887 40.2571 40.8498 40.2571 40.8043C40.2571 40.7589 40.315 40.7217 40.3857 40.7217C40.4564 40.7217 40.5143 40.6846 40.5143 40.6391C40.5143 40.5937 40.5914 40.5565 40.6857 40.5565C40.78 40.5565 40.8571 40.5193 40.8571 40.4739C40.8571 40.4285 40.9343 40.3913 41.0286 40.3913C41.1229 40.3913 41.2 40.3541 41.2 40.3087C41.2 40.2633 41.2519 40.2261 41.3155 40.2261C41.379 40.2261 41.5211 40.1507 41.6312 40.0586C41.7415 39.9665 41.9209 39.8695 42.0301 39.8431C42.1393 39.8168 42.2286 39.762 42.2286 39.7215C42.2286 39.681 42.3057 39.6478 42.4 39.6478C42.4943 39.6478 42.5714 39.6107 42.5714 39.5652C42.5714 39.5198 42.6486 39.4826 42.7429 39.4826C42.8371 39.4826 42.9143 39.4472 42.9143 39.4039C42.9143 39.3606 43.0493 39.2634 43.2143 39.1879C43.3793 39.1125 43.5143 39.0178 43.5143 38.9775C43.5143 38.9373 43.5914 38.9043 43.6857 38.9043C43.78 38.9043 43.8571 38.8672 43.8571 38.8217C43.8571 38.7763 43.936 38.7391 44.0324 38.7391C44.1289 38.7391 44.3006 38.6554 44.414 38.5533C44.7248 38.2732 44.8729 38.1609 44.9311 38.1609C45.0347 38.1609 45.2286 37.9224 45.2286 37.795C45.2286 37.7236 45.2671 37.6652 45.3143 37.6652C45.3614 37.6652 45.4 37.6095 45.4 37.5413C45.4 37.4732 45.4386 37.4174 45.4857 37.4174C45.5329 37.4174 45.5714 37.3502 45.5714 37.268C45.5714 37.1858 45.6281 37.0464 45.6973 36.9582C45.7665 36.87 45.8244 36.6585 45.8258 36.488C45.8274 36.3177 45.8671 36.1783 45.9143 36.1783C45.9709 36.1783 46 33.3971 46 28C46 22.6029 45.9709 19.8217 45.9143 19.8217C45.8671 19.8217 45.8274 19.6824 45.8258 19.512C45.8244 19.3416 45.7665 19.13 45.6973 19.0418C45.6281 18.9536 45.5714 18.8142 45.5714 18.732C45.5714 18.6499 45.5329 18.5826 45.4857 18.5826C45.4386 18.5826 45.4 18.5268 45.4 18.4587C45.4 18.3905 45.3614 18.3348 45.3143 18.3348C45.2671 18.3348 45.2286 18.2764 45.2286 18.205C45.2286 18.0776 45.0347 17.8391 44.9311 17.8391C44.8729 17.8391 44.7248 17.7268 44.414 17.4467C44.3006 17.3445 44.1481 17.2609 44.0753 17.2609C44.0024 17.2609 43.9429 17.2237 43.9429 17.1783C43.9429 17.1328 43.8464 17.0957 43.7286 17.0957C43.6107 17.0957 43.5143 17.0627 43.5143 17.0225C43.5143 16.9822 43.3793 16.8875 43.2143 16.8121C43.0493 16.7366 42.9143 16.6394 42.9143 16.5961C42.9143 16.5528 42.8371 16.5174 42.7429 16.5174C42.6486 16.5174 42.5714 16.4802 42.5714 16.4348C42.5714 16.3893 42.4943 16.3522 42.4 16.3522C42.3057 16.3522 42.2286 16.319 42.2286 16.2785C42.2286 16.238 42.1393 16.1832 42.0301 16.1569C41.9209 16.1305 41.7415 16.0335 41.6312 15.9414C41.5211 15.8493 41.379 15.7739 41.3155 15.7739C41.2519 15.7739 41.2 15.7367 41.2 15.6913C41.2 15.6459 41.1229 15.6087 41.0286 15.6087C40.9343 15.6087 40.8571 15.5715 40.8571 15.5261C40.8571 15.4807 40.78 15.4435 40.6857 15.4435C40.5914 15.4435 40.5143 15.4063 40.5143 15.3609C40.5143 15.3154 40.4564 15.2783 40.3857 15.2783C40.315 15.2783 40.2571 15.2411 40.2571 15.1957C40.2571 15.1502 40.1841 15.113 40.0949 15.113C40.0057 15.113 39.9104 15.0573 39.8833 14.9891C39.8562 14.921 39.7556 14.8652 39.6598 14.8652C39.5641 14.8652 39.4857 14.828 39.4857 14.7826C39.4857 14.7372 39.4086 14.7 39.3143 14.7C39.22 14.7 39.1429 14.6719 39.1429 14.6375C39.1429 14.6032 39.0175 14.5219 38.8643 14.4568C38.711 14.3917 38.5388 14.2989 38.4816 14.2507C38.179 13.9961 38.1071 13.9565 37.9465 13.9565C37.8502 13.9565 37.7714 13.9193 37.7714 13.8739C37.7714 13.8285 37.6943 13.7913 37.6 13.7913C37.5057 13.7913 37.4286 13.7583 37.4286 13.7181C37.4286 13.6779 37.2936 13.5831 37.1286 13.5077C36.9636 13.4323 36.8286 13.3351 36.8286 13.2918C36.8286 13.2485 36.7514 13.213 36.6571 13.213C36.5629 13.213 36.4857 13.1759 36.4857 13.1304C36.4857 13.085 36.4299 13.0478 36.3618 13.0478C36.2181 13.0478 35.1711 12.4747 35.1286 12.3728C35.1128 12.3352 35.0261 12.3043 34.9357 12.3043C34.8454 12.3043 34.7714 12.2672 34.7714 12.2217C34.7714 12.1763 34.6943 12.1391 34.6 12.1391C34.5057 12.1391 34.4286 12.102 34.4286 12.0565C34.4286 12.0111 34.3707 11.9739 34.3 11.9739C34.2293 11.9739 34.1714 11.9367 34.1714 11.8913C34.1714 11.8459 34.0984 11.8087 34.0092 11.8087C33.9199 11.8087 33.8247 11.7529 33.7975 11.6848C33.7705 11.6166 33.6699 11.5609 33.5741 11.5609C33.4783 11.5609 33.4 11.5237 33.4 11.4783C33.4 11.4328 33.3229 11.3957 33.2286 11.3957C33.1343 11.3957 33.0571 11.3585 33.0571 11.313C33.0571 11.2676 32.98 11.2304 32.8857 11.2304C32.7914 11.2304 32.7143 11.1933 32.7143 11.1478C32.7143 11.1024 32.6741 11.0652 32.625 11.0652C32.5409 11.0652 32.4439 11.0006 32.1603 10.7554C32.0946 10.6987 31.9609 10.6522 31.8632 10.6522C31.7656 10.6522 31.6857 10.615 31.6857 10.5696C31.6857 10.5241 31.6086 10.487 31.5143 10.487C31.42 10.487 31.3429 10.4498 31.3429 10.4043C31.3429 10.3589 31.2907 10.3217 31.2268 10.3217C31.1629 10.3217 31.0067 10.2288 30.8796 10.1152C30.7524 10.0016 30.5924 9.9087 30.5241 9.9087C30.4559 9.9087 30.4 9.87152 30.4 9.82609C30.4 9.78065 30.3036 9.74348 30.1857 9.74348C30.0679 9.74348 29.9714 9.7063 29.9714 9.66087C29.9714 9.61543 29.8975 9.57826 29.8071 9.57826C29.7168 9.57826 29.63 9.55042 29.6143 9.5163C29.5607 9.40007 28.9376 9.16522 28.6828 9.16522C28.543 9.16522 28.4286 9.12804 28.4286 9.08261C28.4286 9.03717 28.2164 9 27.9571 9C27.6979 9 27.4857 9.03717 27.4857 9.08261ZM29.2 18.087C29.2 18.1329 29.4286 18.1696 29.7143 18.1696C30 18.1696 30.2286 18.2062 30.2286 18.2522C30.2286 18.2976 30.3805 18.3348 30.5664 18.3348C30.7522 18.3348 30.928 18.372 30.9571 18.4174C30.9863 18.4628 31.1071 18.5 31.2254 18.5C31.3439 18.5 31.4987 18.5558 31.5694 18.6239C31.6401 18.6921 31.7917 18.7478 31.9061 18.7478C32.0206 18.7478 32.1143 18.785 32.1143 18.8304C32.1143 18.8759 32.1914 18.913 32.2857 18.913C32.38 18.913 32.4571 18.9502 32.4571 18.9957C32.4571 19.0411 32.5536 19.0783 32.6714 19.0783C32.7893 19.0783 32.8857 19.1086 32.8857 19.1456C32.8857 19.1826 33.0207 19.275 33.1857 19.3508C33.3507 19.4266 33.4857 19.5264 33.4857 19.5726C33.4857 19.6188 33.5544 19.6565 33.6382 19.6565C33.7221 19.6565 33.8463 19.7309 33.9143 19.8217C33.9823 19.9126 34.0849 19.987 34.1425 19.987C34.2 19.987 34.4231 20.1542 34.6383 20.3587C34.8535 20.5632 35.0503 20.7304 35.0758 20.7304C35.1384 20.7304 35.5429 21.1236 35.5429 21.1843C35.5429 21.2109 35.6971 21.3784 35.8857 21.5565C36.0743 21.7346 36.2286 21.8974 36.2286 21.9183C36.2286 22.0718 36.0973 22.2174 35.9587 22.2174C35.8038 22.2174 35.7211 22.2647 35.4175 22.5272C35.3517 22.5839 35.2567 22.6304 35.2061 22.6304C35.1556 22.6304 35.1143 22.6676 35.1143 22.713C35.1143 22.7585 35.0371 22.7957 34.9429 22.7957C34.8486 22.7957 34.7714 22.8328 34.7714 22.8783C34.7714 22.9237 34.6943 22.9609 34.6 22.9609C34.5057 22.9609 34.4286 22.998 34.4286 23.0435C34.4286 23.0889 34.3767 23.1261 34.3134 23.1261C34.2499 23.1261 34.0861 23.2189 33.9491 23.3325C33.812 23.446 33.6325 23.539 33.55 23.539C33.4675 23.539 33.4 23.5763 33.4 23.6217C33.4 23.6672 33.3229 23.7043 33.2286 23.7043C33.1343 23.7043 33.0571 23.7415 33.0571 23.787C33.0571 23.8324 33.0025 23.8696 32.9357 23.8696C32.8689 23.8696 32.8015 23.904 32.7857 23.9461C32.77 23.9881 32.651 24.0479 32.5214 24.0789C32.3377 24.1228 32.2857 24.106 32.2857 24.0024C32.2857 23.9294 32.2279 23.8696 32.1571 23.8696C32.0864 23.8696 32.0286 23.8324 32.0286 23.787C32.0286 23.7415 31.9707 23.7043 31.9 23.7043C31.8293 23.7043 31.7714 23.6672 31.7714 23.6217C31.7714 23.5763 31.7227 23.5391 31.6632 23.5391C31.6037 23.5391 31.4826 23.4462 31.394 23.3326C31.3056 23.219 31.1614 23.1261 31.0737 23.1261C30.986 23.1261 30.9143 23.0889 30.9143 23.0435C30.9143 22.998 30.8371 22.9609 30.7429 22.9609C30.6486 22.9609 30.5714 22.9237 30.5714 22.8783C30.5714 22.8328 30.5131 22.7957 30.4417 22.7957C30.3703 22.7957 30.2449 22.763 30.1631 22.7231C29.6725 22.4841 29.3208 22.3826 28.9828 22.3826C28.7723 22.3826 28.6 22.3454 28.6 22.3C28.6 22.2528 28.3429 22.2174 28 22.2174C27.6571 22.2174 27.4 22.2528 27.4 22.3C27.4 22.3454 27.2277 22.3826 27.0172 22.3826C26.6792 22.3826 26.3275 22.4841 25.8369 22.7231C25.7551 22.763 25.6297 22.7957 25.5583 22.7957C25.4869 22.7957 25.4286 22.8328 25.4286 22.8783C25.4286 22.9237 25.3514 22.9609 25.2571 22.9609C25.1629 22.9609 25.0857 22.998 25.0857 23.0435C25.0857 23.0889 25.014 23.1261 24.9263 23.1261C24.8386 23.1261 24.6944 23.219 24.606 23.3326C24.5174 23.4462 24.4036 23.5391 24.3529 23.5391C24.3023 23.5391 24.1781 23.6135 24.0769 23.7043C23.9757 23.7952 23.8527 23.8696 23.8036 23.8696C23.7545 23.8696 23.7143 23.9083 23.7143 23.9556C23.7143 24.003 23.6371 24.1215 23.5429 24.219C23.4486 24.3166 23.3714 24.4363 23.3714 24.4851C23.3714 24.5339 23.275 24.6436 23.1571 24.7289C23.0393 24.8142 22.9429 24.9531 22.9429 25.0377C22.9429 25.1222 22.9043 25.1913 22.8571 25.1913C22.81 25.1913 22.7714 25.2657 22.7714 25.3565C22.7714 25.4474 22.7329 25.5217 22.6857 25.5217C22.6386 25.5217 22.6 25.578 22.6 25.6468C22.6 25.7155 22.5661 25.8364 22.5247 25.9153C22.2767 26.3881 22.1714 26.7271 22.1714 27.0528C22.1714 27.2557 22.1329 27.4217 22.0857 27.4217C22.0368 27.4217 22 27.6696 22 28C22 28.3304 22.0368 28.5783 22.0857 28.5783C22.1329 28.5783 22.1714 28.7443 22.1714 28.9472C22.1714 29.2729 22.2767 29.6119 22.5247 30.0847C22.5661 30.1636 22.6 30.2845 22.6 30.3532C22.6 30.422 22.6386 30.4783 22.6857 30.4783C22.7329 30.4783 22.7714 30.5526 22.7714 30.6435C22.7714 30.7343 22.81 30.8087 22.8571 30.8087C22.9043 30.8087 22.9429 30.8778 22.9429 30.9623C22.9429 31.0469 23.0393 31.1858 23.1571 31.2711C23.275 31.3564 23.3714 31.4731 23.3714 31.5304C23.3714 31.5879 23.41 31.6348 23.4571 31.6348C23.5043 31.6348 23.5429 31.6905 23.5429 31.7587C23.5429 31.8269 23.5814 31.8826 23.6286 31.8826C23.6757 31.8826 23.7143 31.9384 23.7143 32.0065C23.7143 32.0747 23.7721 32.1304 23.8429 32.1304C23.9136 32.1304 23.9714 32.1676 23.9714 32.213C23.9714 32.2585 24.0293 32.2957 24.1 32.2957C24.1707 32.2957 24.2286 32.3328 24.2286 32.3783C24.2286 32.4237 24.2773 32.4609 24.3368 32.4609C24.3963 32.4609 24.5174 32.5538 24.606 32.6674C24.6944 32.781 24.8386 32.8739 24.9263 32.8739C25.014 32.8739 25.0857 32.9111 25.0857 32.9565C25.0857 33.002 25.1629 33.0391 25.2571 33.0391C25.3514 33.0391 25.4286 33.0763 25.4286 33.1217C25.4286 33.1672 25.4869 33.2043 25.5583 33.2043C25.6297 33.2043 25.7551 33.237 25.8369 33.2769C26.3275 33.5159 26.6792 33.6174 27.0172 33.6174C27.2277 33.6174 27.4 33.6546 27.4 33.7C27.4 33.7472 27.6571 33.7826 28 33.7826C28.3429 33.7826 28.6 33.7472 28.6 33.7C28.6 33.6546 28.7461 33.6174 28.9247 33.6174C29.2296 33.6174 30.0749 33.38 30.2003 33.2592C30.2316 33.229 30.3278 33.2043 30.4143 33.2043C30.5007 33.2043 30.5714 33.1672 30.5714 33.1217C30.5714 33.0763 30.6486 33.0391 30.7429 33.0391C30.8371 33.0391 30.9143 33.002 30.9143 32.9565C30.9143 32.9111 30.986 32.8739 31.0737 32.8739C31.1614 32.8739 31.3056 32.781 31.394 32.6674C31.4826 32.5538 31.6037 32.4609 31.6632 32.4609C31.7227 32.4609 31.7714 32.4237 31.7714 32.3783C31.7714 32.3328 31.8293 32.2957 31.9 32.2957C31.9707 32.2957 32.0286 32.2585 32.0286 32.213C32.0286 32.1676 32.0864 32.1304 32.1571 32.1304C32.2279 32.1304 32.2857 32.0706 32.2857 31.9976C32.2857 31.894 32.3377 31.8772 32.5214 31.9211C32.651 31.9521 32.77 32.0119 32.7857 32.0539C32.8015 32.096 32.8689 32.1304 32.9357 32.1304C33.0025 32.1304 33.0571 32.1676 33.0571 32.213C33.0571 32.2585 33.1343 32.2957 33.2286 32.2957C33.3229 32.2957 33.4 32.3328 33.4 32.3783C33.4 32.4237 33.4548 32.4609 33.5216 32.4609C33.6745 32.4609 34.1701 32.7289 34.1709 32.812C34.1712 32.8461 34.2293 32.8739 34.3 32.8739C34.3707 32.8739 34.4286 32.9111 34.4286 32.9565C34.4286 33.002 34.5057 33.0391 34.6 33.0391C34.6943 33.0391 34.7714 33.0763 34.7714 33.1217C34.7714 33.1672 34.8486 33.2043 34.9429 33.2043C35.0371 33.2043 35.1143 33.2415 35.1143 33.287C35.1143 33.3324 35.1545 33.3696 35.2036 33.3696C35.2877 33.3696 35.3846 33.4342 35.6683 33.6793C35.734 33.7362 35.8676 33.7826 35.9653 33.7826C36.063 33.7826 36.1429 33.7981 36.1429 33.8171C36.1429 33.8361 36.1656 33.9088 36.1933 33.9785C36.2254 34.0589 36.1159 34.2261 35.8933 34.4363C35.7006 34.6184 35.5429 34.7891 35.5429 34.8157C35.5429 34.8764 35.1384 35.2696 35.0758 35.2696C35.0503 35.2696 34.8535 35.4368 34.6383 35.6413C34.4231 35.8458 34.2 36.013 34.1425 36.013C34.0849 36.013 33.9823 36.0874 33.9143 36.1783C33.8463 36.2691 33.7221 36.3435 33.6382 36.3435C33.5544 36.3435 33.4857 36.3812 33.4857 36.4274C33.4857 36.4736 33.3507 36.5734 33.1857 36.6492C33.0207 36.725 32.8857 36.8174 32.8857 36.8544C32.8857 36.8914 32.7893 36.9217 32.6714 36.9217C32.5536 36.9217 32.4571 36.9589 32.4571 37.0043C32.4571 37.0498 32.38 37.087 32.2857 37.087C32.1914 37.087 32.1143 37.1241 32.1143 37.1696C32.1143 37.215 32.0206 37.2522 31.9061 37.2522C31.7917 37.2522 31.6401 37.3079 31.5694 37.3761C31.4987 37.4442 31.3439 37.5 31.2254 37.5C31.1071 37.5 30.9863 37.5372 30.9571 37.5826C30.928 37.628 30.7522 37.6652 30.5664 37.6652C30.3805 37.6652 30.2286 37.7024 30.2286 37.7478C30.2286 37.7944 29.9857 37.8304 29.6714 37.8304C29.3571 37.8304 29.1143 37.8665 29.1143 37.913C29.1143 37.964 28.6714 37.9957 27.9571 37.9957C27.2429 37.9957 26.8 37.964 26.8 37.913C26.8 37.8671 26.5714 37.8304 26.2857 37.8304C26 37.8304 25.7714 37.7938 25.7714 37.7478C25.7714 37.7024 25.6195 37.6652 25.4336 37.6652C25.2478 37.6652 25.072 37.628 25.0429 37.5826C25.0137 37.5372 24.8929 37.5 24.7746 37.5C24.6561 37.5 24.5013 37.4442 24.4306 37.3761C24.3599 37.3079 24.2083 37.2522 24.0939 37.2522C23.9794 37.2522 23.8857 37.215 23.8857 37.1696C23.8857 37.1241 23.8086 37.087 23.7143 37.087C23.62 37.087 23.5429 37.0498 23.5429 37.0043C23.5429 36.9589 23.4464 36.9217 23.3286 36.9217C23.2107 36.9217 23.1143 36.8914 23.1143 36.8544C23.1143 36.8174 22.9793 36.725 22.8143 36.6492C22.6493 36.5734 22.5143 36.4736 22.5143 36.4274C22.5143 36.3812 22.4456 36.3435 22.3618 36.3435C22.2779 36.3435 22.1537 36.2691 22.0857 36.1783C22.0177 36.0874 21.9151 36.013 21.8575 36.013C21.8 36.013 21.5769 35.8458 21.3617 35.6413C21.1465 35.4368 20.9497 35.2696 20.9242 35.2696C20.8639 35.2696 20.4571 34.8775 20.4571 34.8194C20.4571 34.7949 20.2836 34.6052 20.0714 34.3978C19.8593 34.1904 19.6857 33.9753 19.6857 33.9199C19.6857 33.8645 19.6086 33.7655 19.5143 33.7C19.42 33.6345 19.3429 33.5148 19.3429 33.4339C19.3429 33.3531 19.3037 33.287 19.2558 33.287C19.2079 33.287 19.1043 33.1568 19.0256 32.9978C18.9469 32.8388 18.8511 32.7087 18.8127 32.7087C18.7743 32.7087 18.7429 32.6158 18.7429 32.5022C18.7429 32.3886 18.7043 32.2957 18.6571 32.2957C18.61 32.2957 18.5714 32.2213 18.5714 32.1304C18.5714 32.0396 18.5329 31.9652 18.4857 31.9652C18.4386 31.9652 18.4 31.8749 18.4 31.7646C18.4 31.6543 18.3421 31.5082 18.2714 31.4401C18.2007 31.3719 18.1429 31.2227 18.1429 31.1086C18.1429 30.9945 18.1043 30.8781 18.0571 30.85C18.01 30.8219 17.9714 30.6525 17.9714 30.4734C17.9714 30.2943 17.9329 30.1478 17.8857 30.1478C17.8381 30.1478 17.8 29.9275 17.8 29.6522C17.8 29.3768 17.7619 29.1565 17.7143 29.1565C17.6612 29.1565 17.6286 28.716 17.6286 28C17.6286 27.284 17.6612 26.8435 17.7143 26.8435C17.7619 26.8435 17.8 26.6232 17.8 26.3478C17.8 26.0725 17.8381 25.8522 17.8857 25.8522C17.9329 25.8522 17.9714 25.7057 17.9714 25.5266C17.9714 25.3475 18.01 25.1781 18.0571 25.15C18.1043 25.1219 18.1429 25.0055 18.1429 24.8914C18.1429 24.7773 18.2007 24.6281 18.2714 24.5599C18.3421 24.4918 18.4 24.3457 18.4 24.2354C18.4 24.1251 18.4386 24.0348 18.4857 24.0348C18.5329 24.0348 18.5714 23.9604 18.5714 23.8696C18.5714 23.7787 18.61 23.7043 18.6571 23.7043C18.7043 23.7043 18.7429 23.6114 18.7429 23.4978C18.7429 23.3842 18.7743 23.2913 18.8127 23.2913C18.8511 23.2913 18.9469 23.1612 19.0256 23.0022C19.1043 22.8432 19.2079 22.713 19.2558 22.713C19.3037 22.713 19.3429 22.6469 19.3429 22.5661C19.3429 22.4852 19.42 22.3655 19.5143 22.3C19.6086 22.2345 19.6857 22.1355 19.6857 22.0801C19.6857 22.0247 19.8593 21.8096 20.0714 21.6022C20.2836 21.3948 20.4571 21.2051 20.4571 21.1806C20.4571 21.1225 20.8639 20.7304 20.9242 20.7304C20.9497 20.7304 21.1465 20.5632 21.3617 20.3587C21.5769 20.1542 21.8 19.987 21.8575 19.987C21.9151 19.987 22.0177 19.9126 22.0857 19.8217C22.1537 19.7309 22.2779 19.6565 22.3618 19.6565C22.4456 19.6565 22.5143 19.6188 22.5143 19.5726C22.5143 19.5264 22.6493 19.4266 22.8143 19.3508C22.9793 19.275 23.1143 19.1826 23.1143 19.1456C23.1143 19.1086 23.2107 19.0783 23.3286 19.0783C23.4464 19.0783 23.5429 19.0411 23.5429 18.9957C23.5429 18.9502 23.62 18.913 23.7143 18.913C23.8086 18.913 23.8857 18.8759 23.8857 18.8304C23.8857 18.785 23.9794 18.7478 24.0939 18.7478C24.2083 18.7478 24.3599 18.6921 24.4306 18.6239C24.5013 18.5558 24.6561 18.5 24.7746 18.5C24.8929 18.5 25.0137 18.4628 25.0429 18.4174C25.072 18.372 25.2478 18.3348 25.4336 18.3348C25.6195 18.3348 25.7714 18.2976 25.7714 18.2522C25.7714 18.2062 26 18.1696 26.2857 18.1696C26.5714 18.1696 26.8 18.1329 26.8 18.087C26.8 18.0358 27.2571 18.0043 28 18.0043C28.7429 18.0043 29.2 18.0358 29.2 18.087ZM38.3714 24.6957V25.5217H39.1429H39.9143V24.6957V23.8696H40.8571H41.8V24.6957V25.5217H42.6571H43.5143V26.3478V27.1739H42.6571H41.8V28V28.8261H42.6571H43.5143V29.6522V30.4783H42.6571H41.8V31.3043V32.1304H40.8571H39.9143V31.3043V30.4783H39.1429H38.3714V31.3043V32.1304H37.4286H36.4857V31.3043V30.4783H35.6286H34.7714V29.6522V28.8261H35.6286H36.4857V28V27.1739H35.6286H34.7714V26.3478V25.5217H35.6286H36.4857V24.6957V23.8696H37.4286H38.3714V24.6957ZM38.3714 28V28.8261H39.1429H39.9143V28V27.1739H39.1429H38.3714V28Z" fill="#182F43"/>
</svg>
