<svg width="55" height="55" viewBox="0 0 55 55" fill="none" xmlns="http://www.w3.org/2000/svg">
<path fill-rule="evenodd" clip-rule="evenodd" d="M24.8993 8.00643C19.9326 8.00217 14.966 7.99791 10 8.00112C10.4297 12.7879 10.8691 17.5735 11.3084 22.3589C11.9649 29.5095 12.6214 36.6596 13.2455 43.8124C17.7615 45.064 22.2738 46.3308 26.7823 47.6127C27.2133 47.7379 27.6667 47.8403 28.1052 47.6772C29.8594 47.1885 31.6119 46.6937 33.3644 46.199C36.2361 45.3884 39.1078 44.5777 41.9868 43.7934C42.9068 33.257 43.8706 22.7235 44.8344 12.1904C44.9621 10.7952 45.0897 9.40007 45.2173 8.00492C38.4454 8.01805 31.6723 8.01224 24.8993 8.00643ZM17 16H38V20.0741L27.6469 24.5185H37.2657L36.3846 37.6296L27.6469 40L19.1294 37.6296L18.6154 31.1111H22.8007L23.0944 34.3704L27.6469 35.7037L32.4196 34.3704L32.7867 28.7407H18.6154L18.3951 24.5926L28.7483 20.0741H17.7343L17 16Z" fill="#182F43"/>
</svg>
