<svg width="55" height="55" viewBox="0 0 55 55" fill="none" xmlns="http://www.w3.org/2000/svg">
<path d="M27.9157 5.29342L14.3081 14.3637C14.3081 20.1477 14.5076 32.583 14.5076 36.0534C14.5076 39.5237 16.6108 42.4945 17.6624 43.5462L24.7609 50.6446H41.7182L44.0844 43.9405L46.4505 38.0252L36.9859 11.2089L31.4649 5.68778C30.203 4.42584 28.573 4.89907 27.9157 5.29342Z" fill="#182F43"/>
<path d="M5.04319 28.5611L14.3083 14.3643H33.8313C38.8791 14.3643 42.5071 16.9933 43.6902 18.3078L49.9999 24.6175V41.9692L37.7749 46.7015L11.3529 37.237L5.8319 31.716C4.56996 30.454 4.78028 29.0869 5.04319 28.5611Z" fill="#182F43"/>
<path d="M5.04319 28.5611L14.3083 14.3643H33.8313C38.8791 14.3643 42.5071 16.9933 43.6902 18.3078L49.9999 24.6175V41.9692L37.7749 46.7015L11.3529 37.237L5.8319 31.716C4.56996 30.454 4.78028 29.0869 5.04319 28.5611Z" fill="white" fill-opacity="0.1"/>
<path d="M43.8849 44.3354L14.3081 14.3643H34.9156L35.9522 14.5447C36.7701 14.6871 37.5763 14.8904 38.3639 15.153L46.6454 38.0257L43.8849 44.3354Z" fill="white" fill-opacity="0.09"/>
<path d="M43.8853 44.3352L14.3085 14.3638L14.7271 35.568L14.7271 37.6307L14.7271 38.4198L37.9699 46.7013L43.8853 44.3352Z" fill="black" fill-opacity="0.1"/>
</svg>
