<svg width="666" height="541" viewBox="0 0 666 541" fill="none" xmlns="http://www.w3.org/2000/svg">
<path d="M516.201 509.657H487.862V509.871H516.201V509.657Z" fill="#EBEBEB"/>
<path d="M414.649 511.985H407.213V512.199H414.649V511.985Z" fill="#EBEBEB"/>
<path d="M391 499H203V498H391V499Z" fill="#182F43"/>
<path d="M566 540H382V539H566V540Z" fill="#182F43"/>
<path d="M151.379 200.596C151.447 201.371 152.096 201.965 152.874 201.965H266.921C267.801 201.965 268.492 201.211 268.416 200.335L261.724 123.87C261.656 123.095 261.007 122.501 260.23 122.501H146.182C145.302 122.501 144.611 123.255 144.688 124.132L151.379 200.596Z" fill="#F5F5F5" stroke="#182F43"/>
<path d="M191.283 188.14H255.371V188.772H191.283V188.14Z" fill="#182F43"/>
<path d="M189.906 178.463H254.537V178.115L250.639 133.612H185.984V133.961L189.906 178.463ZM253.864 177.799H190.522L186.713 134.22H250.056L253.864 177.799Z" fill="#182F43"/>
<path d="M251.917 197.684H253.66C254.012 197.691 254.361 197.622 254.685 197.483C255.008 197.344 255.299 197.138 255.536 196.878C255.774 196.618 255.954 196.311 256.063 195.976C256.173 195.641 256.21 195.287 256.172 194.937L256.018 193.195C255.944 192.464 255.605 191.785 255.064 191.288C254.523 190.79 253.819 190.509 253.084 190.497H251.342C250.99 190.49 250.64 190.558 250.317 190.697C249.993 190.836 249.703 191.042 249.465 191.302C249.228 191.562 249.048 191.87 248.939 192.204C248.829 192.539 248.792 192.893 248.83 193.244L248.984 194.986C249.057 195.717 249.397 196.395 249.937 196.893C250.478 197.39 251.183 197.672 251.917 197.684ZM253.084 191.129C253.66 191.138 254.213 191.358 254.637 191.748C255.062 192.138 255.328 192.67 255.386 193.244L255.539 194.986C255.567 195.25 255.539 195.517 255.456 195.77C255.374 196.023 255.239 196.255 255.061 196.452C254.883 196.645 254.666 196.799 254.425 196.902C254.183 197.005 253.922 197.057 253.66 197.052H251.917C251.34 197.043 250.787 196.823 250.361 196.433C249.935 196.043 249.667 195.511 249.608 194.937L249.462 193.195C249.435 192.931 249.463 192.663 249.545 192.411C249.628 192.158 249.762 191.926 249.94 191.728C250.118 191.535 250.335 191.381 250.577 191.278C250.818 191.174 251.079 191.124 251.342 191.129H253.084Z" fill="#182F43"/>
<path d="M222.609 184.436H255.249L254.949 180.976H222.309L222.609 184.436ZM254.535 183.804H223.168L222.974 181.608H254.365L254.535 183.804Z" fill="#182F43"/>
<path d="M191.646 195.829H204.611L204.311 192.369H191.33L191.646 195.829ZM203.954 195.197H192.221L192.027 193.001H203.76L203.954 195.197Z" fill="#182F43"/>
<path d="M190.601 184.436H194.069L193.769 180.976H190.301L190.601 184.436ZM193.38 183.804H191.184L190.99 181.608H193.186L193.38 183.804Z" fill="#182F43"/>
<path d="M195.382 184.436H198.842L198.542 180.976H195.074L195.382 184.436ZM198.154 183.804H195.958L195.771 181.608H197.959L198.154 183.804Z" fill="#182F43"/>
<path d="M200.187 184.436H203.647L203.347 180.976H199.887L200.187 184.436ZM202.958 183.804H200.77L200.576 181.608H202.764L202.958 183.804Z" fill="#182F43"/>
<path d="M185.658 130.257H234.277L234.009 127.194H185.39L185.658 130.257ZM233.612 129.625H186.241L186.079 127.826H233.467L233.612 129.625Z" fill="#182F43"/>
<path d="M237.519 130.461H250.484L250.184 127.001H237.219L237.519 130.461ZM249.828 129.821H238.094L237.9 127.633H249.609L249.828 129.821Z" fill="#182F43"/>
<path d="M155.149 146.173H177.992L176.841 133.054H153.998L155.149 146.173ZM177.303 145.541H155.732L154.687 133.67H176.266L177.303 145.541Z" fill="#182F43"/>
<path d="M157.298 170.814H180.149L178.998 157.687H156.155L157.298 170.814ZM179.452 170.182H157.881L156.844 158.319H178.423L179.452 170.182Z" fill="#182F43"/>
<path d="M159.46 195.455H182.303L181.153 182.328H158.31L159.46 195.455ZM181.606 194.823H160.036L158.99 182.96H180.577L181.606 194.823Z" fill="#182F43"/>
<path d="M154.498 133.072L177.793 145.579L177.494 146.136L154.199 133.629L154.498 133.072Z" fill="#182F43"/>
<path d="M155.605 146.131L176.713 133.636L176.397 133.093L155.281 145.58L155.605 146.131Z" fill="#182F43"/>
<path d="M156.643 157.75L179.957 170.225L179.658 170.782L156.345 158.308L156.643 157.75Z" fill="#182F43"/>
<path d="M178.548 157.739L178.87 158.283L157.752 170.777L157.43 170.233L178.548 157.739Z" fill="#182F43"/>
<path d="M182.329 195.691L181.137 182.118L170.263 188.528L158.765 182.369L158.465 182.928L169.623 188.901L159.551 194.864L159.875 195.407L170.279 189.257L182.329 195.691ZM180.595 183.172L181.607 194.581L170.968 188.909L180.595 183.172Z" fill="#182F43"/>
<path d="M186.504 133.668L254.388 177.871L254.043 178.401L186.159 134.198L186.504 133.668Z" fill="#182F43"/>
<path d="M250.16 133.669L250.535 134.179L190.391 178.391L190.016 177.882L250.16 133.669Z" fill="#182F43"/>
<path d="M158.061 382.886H199.672V383.741H158.061V382.886Z" fill="#182F43"/>
<path d="M169.51 457.499H201.169C201.865 457.51 202.555 457.373 203.194 457.098C203.833 456.822 204.406 456.414 204.875 455.9C205.344 455.387 205.699 454.779 205.915 454.118C206.132 453.457 206.206 452.757 206.132 452.065L199.509 376.365C199.357 374.914 198.68 373.567 197.606 372.58C196.531 371.592 195.133 371.03 193.674 371H185.442C185.077 370.996 184.726 371.135 184.463 371.388C184.2 371.641 184.048 371.988 184.039 372.352V372.609C184.025 373.117 183.812 373.599 183.445 373.949C183.078 374.3 182.587 374.492 182.079 374.483H174.216C173.658 374.471 173.121 374.273 172.689 373.919C172.258 373.565 171.958 373.077 171.837 372.532L171.786 372.275C171.704 371.919 171.506 371.6 171.222 371.369C170.938 371.138 170.586 371.008 170.22 371H161.989C161.295 370.991 160.608 371.128 159.971 371.402C159.334 371.676 158.762 372.082 158.292 372.592C157.823 373.109 157.468 373.719 157.25 374.383C157.031 375.046 156.955 375.748 157.026 376.442L163.649 452.134C163.801 453.59 164.482 454.94 165.562 455.928C166.641 456.917 168.046 457.475 169.51 457.499ZM193.682 371.856C194.927 371.886 196.119 372.368 197.035 373.212C197.951 374.056 198.53 375.204 198.662 376.442L205.285 452.134C205.346 452.711 205.284 453.294 205.104 453.845C204.924 454.397 204.63 454.904 204.241 455.334C203.851 455.756 203.377 456.09 202.849 456.316C202.321 456.542 201.752 456.653 201.178 456.643H169.518C168.275 456.613 167.084 456.132 166.168 455.29C165.252 454.448 164.673 453.302 164.538 452.065L157.916 376.365C157.851 375.792 157.91 375.211 158.088 374.661C158.266 374.112 158.559 373.607 158.948 373.18C159.336 372.753 159.812 372.414 160.342 372.186C160.873 371.958 161.446 371.845 162.023 371.856H170.254C170.424 371.863 170.587 371.925 170.719 372.033C170.85 372.141 170.942 372.29 170.982 372.455L171.033 372.712C171.198 373.447 171.604 374.105 172.187 374.581C172.771 375.058 173.497 375.324 174.25 375.339H182.079C182.809 375.35 183.514 375.074 184.041 374.569C184.568 374.065 184.874 373.373 184.895 372.643V372.387C184.895 372.316 184.909 372.245 184.936 372.18C184.964 372.114 185.005 372.055 185.056 372.005C185.107 371.956 185.168 371.917 185.234 371.891C185.3 371.866 185.371 371.854 185.442 371.856H193.682Z" fill="#182F43"/>
<path d="M164.196 392.937H195.462C195.783 392.942 196.1 392.878 196.394 392.75C196.688 392.623 196.952 392.434 197.168 392.197C197.384 391.961 197.547 391.681 197.647 391.376C197.747 391.071 197.781 390.749 197.747 390.43C197.68 389.773 197.375 389.164 196.89 388.716C196.404 388.268 195.772 388.014 195.111 388H163.837C163.516 387.995 163.197 388.058 162.902 388.184C162.607 388.311 162.343 388.499 162.126 388.736C161.909 388.974 161.745 389.255 161.644 389.559C161.542 389.864 161.505 390.187 161.535 390.507C161.604 391.168 161.913 391.78 162.404 392.228C162.894 392.676 163.532 392.928 164.196 392.937ZM195.111 388.856C195.559 388.866 195.988 389.04 196.318 389.344C196.647 389.648 196.854 390.062 196.9 390.507C196.92 390.708 196.898 390.911 196.835 391.103C196.771 391.295 196.668 391.471 196.532 391.62C196.397 391.769 196.232 391.888 196.047 391.968C195.863 392.048 195.663 392.086 195.462 392.082H164.196C163.748 392.072 163.319 391.898 162.99 391.594C162.661 391.29 162.454 390.876 162.408 390.43C162.388 390.23 162.41 390.028 162.472 389.837C162.534 389.645 162.634 389.469 162.767 389.318C162.903 389.17 163.068 389.052 163.253 388.972C163.437 388.893 163.636 388.853 163.837 388.856H195.111Z" fill="#182F43"/>
<path d="M164.906 401.929H196.18C196.501 401.935 196.82 401.872 197.115 401.745C197.41 401.618 197.674 401.43 197.891 401.193C198.106 400.956 198.268 400.677 198.368 400.373C198.469 400.07 198.504 399.749 198.473 399.431C198.406 398.772 198.1 398.161 197.613 397.713C197.125 397.265 196.491 397.012 195.829 397.001H164.563C164.243 396.994 163.925 397.055 163.63 397.181C163.335 397.308 163.071 397.495 162.855 397.732C162.638 397.968 162.475 398.248 162.376 398.553C162.276 398.858 162.243 399.18 162.279 399.499C162.344 400.155 162.647 400.765 163.131 401.213C163.615 401.661 164.246 401.916 164.906 401.929ZM195.821 397.856C196.268 397.864 196.697 398.036 197.026 398.339C197.356 398.641 197.563 399.054 197.609 399.499C197.629 399.701 197.607 399.904 197.545 400.097C197.484 400.29 197.383 400.468 197.249 400.62C197.112 400.765 196.946 400.881 196.762 400.959C196.578 401.037 196.38 401.076 196.18 401.073H164.906C164.444 401.068 164.001 400.889 163.664 400.572C163.328 400.255 163.124 399.823 163.092 399.362C163.071 399.16 163.094 398.956 163.157 398.763C163.22 398.57 163.323 398.392 163.46 398.241C163.596 398.095 163.762 397.978 163.946 397.9C164.13 397.822 164.329 397.784 164.529 397.788L195.821 397.856Z" fill="#182F43"/>
<path d="M165.659 409.929H196.891C197.211 409.936 197.529 409.874 197.824 409.748C198.119 409.622 198.383 409.434 198.599 409.197C198.816 408.961 198.979 408.681 199.078 408.376C199.178 408.071 199.211 407.749 199.175 407.43C199.107 406.773 198.8 406.163 198.313 405.715C197.826 405.268 197.192 405.013 196.531 405H165.266C164.945 404.996 164.627 405.06 164.333 405.187C164.039 405.315 163.776 405.503 163.56 405.74C163.344 405.977 163.181 406.257 163.081 406.562C162.981 406.866 162.947 407.189 162.981 407.507C163.051 408.17 163.362 408.784 163.857 409.231C164.351 409.677 164.993 409.926 165.659 409.929ZM196.566 405.856C197.014 405.866 197.443 406.039 197.772 406.344C198.101 406.648 198.308 407.061 198.354 407.507C198.377 407.707 198.357 407.909 198.296 408.101C198.234 408.292 198.132 408.468 197.997 408.616C197.861 408.765 197.695 408.882 197.51 408.961C197.326 409.04 197.126 409.078 196.925 409.073H165.659C165.212 409.065 164.783 408.893 164.454 408.591C164.124 408.288 163.917 407.875 163.871 407.43C163.846 407.23 163.865 407.027 163.926 406.834C163.987 406.642 164.089 406.465 164.225 406.316C164.36 406.166 164.526 406.048 164.712 405.968C164.898 405.889 165.098 405.851 165.3 405.856H196.566Z" fill="#182F43"/>
<path d="M166.63 418.929H197.861C198.182 418.936 198.5 418.874 198.795 418.748C199.09 418.622 199.354 418.434 199.57 418.197C199.786 417.961 199.95 417.681 200.049 417.376C200.148 417.071 200.181 416.749 200.146 416.43C200.077 415.773 199.771 415.163 199.284 414.715C198.797 414.268 198.163 414.013 197.502 414H166.236C165.916 413.996 165.598 414.06 165.304 414.187C165.01 414.315 164.746 414.503 164.531 414.74C164.315 414.977 164.151 415.257 164.052 415.562C163.952 415.866 163.918 416.189 163.952 416.507C164.021 417.17 164.333 417.784 164.827 418.231C165.322 418.677 165.964 418.926 166.63 418.929ZM197.536 414.856C197.984 414.866 198.413 415.039 198.743 415.344C199.072 415.648 199.279 416.061 199.325 416.507C199.348 416.707 199.328 416.909 199.266 417.101C199.205 417.292 199.103 417.468 198.967 417.616C198.832 417.765 198.666 417.882 198.481 417.961C198.296 418.04 198.097 418.078 197.896 418.073H166.63C166.183 418.065 165.754 417.893 165.424 417.591C165.095 417.288 164.888 416.875 164.842 416.43C164.817 416.23 164.836 416.027 164.897 415.834C164.958 415.642 165.06 415.465 165.195 415.316C165.331 415.166 165.497 415.048 165.683 414.968C165.868 414.889 166.069 414.851 166.271 414.856H197.536Z" fill="#182F43"/>
<path d="M167.63 426.929H198.861C199.182 426.936 199.5 426.874 199.795 426.748C200.09 426.622 200.354 426.434 200.57 426.197C200.786 425.961 200.95 425.681 201.049 425.376C201.148 425.071 201.181 424.749 201.146 424.43C201.077 423.773 200.771 423.163 200.284 422.715C199.797 422.268 199.163 422.013 198.502 422H167.236C166.916 421.996 166.598 422.06 166.304 422.187C166.01 422.315 165.746 422.503 165.531 422.74C165.315 422.977 165.151 423.257 165.052 423.562C164.952 423.866 164.918 424.189 164.952 424.507C165.021 425.17 165.333 425.784 165.827 426.231C166.322 426.677 166.964 426.926 167.63 426.929ZM198.536 422.856C198.984 422.866 199.413 423.039 199.743 423.344C200.072 423.648 200.279 424.061 200.325 424.507C200.348 424.707 200.328 424.909 200.266 425.101C200.205 425.292 200.103 425.468 199.967 425.616C199.832 425.765 199.666 425.882 199.481 425.961C199.296 426.04 199.097 426.078 198.896 426.073H167.63C167.183 426.065 166.754 425.893 166.424 425.591C166.095 425.288 165.888 424.875 165.842 424.43C165.817 424.23 165.836 424.027 165.897 423.834C165.958 423.642 166.06 423.465 166.195 423.316C166.331 423.166 166.497 423.048 166.683 422.968C166.868 422.889 167.069 422.851 167.271 422.856H198.536Z" fill="#182F43"/>
<path d="M167.576 434.929H198.842C199.162 434.933 199.48 434.87 199.774 434.742C200.068 434.614 200.332 434.426 200.548 434.189C200.764 433.952 200.927 433.672 201.027 433.368C201.126 433.063 201.16 432.741 201.127 432.422C201.06 431.766 200.754 431.157 200.269 430.711C199.783 430.264 199.151 430.012 198.491 430.001H167.217C166.896 429.994 166.578 430.055 166.283 430.181C165.989 430.308 165.724 430.495 165.508 430.732C165.292 430.968 165.129 431.248 165.029 431.553C164.93 431.858 164.897 432.18 164.932 432.499C165.001 433.157 165.308 433.767 165.795 434.214C166.281 434.662 166.915 434.916 167.576 434.929ZM198.491 430.856C198.938 430.866 199.366 431.038 199.695 431.341C200.024 431.643 200.232 432.055 200.279 432.499C200.292 432.696 200.263 432.894 200.196 433.079C200.128 433.265 200.022 433.434 199.886 433.577C199.751 433.727 199.586 433.845 199.402 433.925C199.217 434.005 199.017 434.044 198.816 434.039H167.551C167.103 434.029 166.674 433.856 166.344 433.552C166.015 433.247 165.808 432.834 165.762 432.388C165.74 432.188 165.761 431.985 165.823 431.793C165.885 431.601 165.987 431.425 166.122 431.275C166.258 431.128 166.423 431.012 166.608 430.934C166.792 430.855 166.991 430.817 167.191 430.822L198.491 430.856Z" fill="#182F43"/>
<path d="M168.286 442.929H199.56C199.881 442.936 200.199 442.875 200.494 442.749C200.789 442.624 201.054 442.437 201.271 442.201C201.487 441.963 201.651 441.683 201.753 441.378C201.854 441.073 201.891 440.75 201.862 440.43C201.793 439.773 201.486 439.163 201 438.715C200.513 438.268 199.879 438.013 199.218 438H167.952C167.632 437.996 167.316 438.06 167.022 438.187C166.729 438.314 166.466 438.501 166.25 438.737C166.034 438.973 165.871 439.252 165.77 439.556C165.67 439.859 165.635 440.181 165.668 440.499C165.732 441.154 166.034 441.762 166.516 442.21C166.999 442.657 167.628 442.913 168.286 442.929ZM199.201 438.856C199.648 438.864 200.077 439.036 200.406 439.338C200.736 439.641 200.943 440.054 200.989 440.499C201.009 440.7 200.987 440.904 200.926 441.096C200.864 441.289 200.763 441.467 200.63 441.62C200.492 441.765 200.326 441.88 200.142 441.958C199.958 442.037 199.76 442.076 199.56 442.073H168.286C167.839 442.065 167.41 441.893 167.08 441.591C166.751 441.288 166.543 440.875 166.498 440.43C166.477 440.228 166.499 440.024 166.563 439.831C166.626 439.638 166.729 439.46 166.865 439.309C167.002 439.163 167.167 439.046 167.352 438.968C167.536 438.89 167.735 438.852 167.935 438.856H199.201Z" fill="#182F43"/>
<path d="M169.004 450.929H200.27C200.59 450.936 200.908 450.874 201.203 450.748C201.498 450.622 201.762 450.434 201.978 450.198C202.195 449.961 202.358 449.681 202.457 449.376C202.557 449.071 202.59 448.749 202.554 448.43C202.485 447.773 202.179 447.163 201.692 446.715C201.205 446.268 200.571 446.013 199.91 446H168.645C168.324 445.996 168.006 446.06 167.712 446.187C167.418 446.315 167.155 446.503 166.939 446.74C166.723 446.977 166.56 447.257 166.46 447.562C166.36 447.866 166.326 448.189 166.36 448.507C166.429 449.164 166.736 449.773 167.223 450.219C167.71 450.665 168.344 450.918 169.004 450.929ZM199.885 446.856C200.333 446.866 200.762 447.039 201.091 447.344C201.42 447.648 201.627 448.061 201.673 448.507C201.696 448.707 201.676 448.909 201.615 449.101C201.553 449.292 201.451 449.468 201.316 449.616C201.18 449.765 201.014 449.882 200.829 449.961C200.645 450.04 200.445 450.078 200.244 450.073H168.978C168.531 450.063 168.102 449.892 167.771 449.589C167.441 449.287 167.231 448.875 167.181 448.43C167.161 448.229 167.183 448.026 167.246 447.835C167.31 447.643 167.413 447.467 167.549 447.318C167.684 447.169 167.85 447.051 168.034 446.971C168.219 446.892 168.418 446.852 168.619 446.856H199.885Z" fill="#182F43"/>
<path d="M110.463 413.491H142.122C142.815 413.501 143.502 413.366 144.139 413.093C144.776 412.821 145.348 412.417 145.819 411.908C146.286 411.389 146.64 410.779 146.858 410.116C147.076 409.453 147.154 408.752 147.085 408.057L140.462 332.357C140.308 330.907 139.631 329.563 138.556 328.577C137.482 327.591 136.085 327.03 134.627 327.001H126.395C126.031 326.994 125.678 327.131 125.413 327.383C125.149 327.634 124.995 327.98 124.983 328.344V328.601C124.968 329.109 124.752 329.591 124.384 329.942C124.016 330.293 123.524 330.484 123.015 330.475H115.22C114.664 330.464 114.127 330.266 113.696 329.914C113.265 329.562 112.964 329.076 112.842 328.533L112.782 328.267C112.706 327.91 112.51 327.59 112.226 327.36C111.943 327.129 111.59 327.003 111.224 327.001H102.993C102.297 326.987 101.605 327.122 100.965 327.396C100.325 327.671 99.7507 328.079 99.2809 328.594C98.8112 329.108 98.4566 329.717 98.2409 330.379C98.0252 331.041 97.9534 331.742 98.0303 332.434L104.653 408.134C104.806 409.58 105.48 410.921 106.549 411.907C107.618 412.892 109.009 413.455 110.463 413.491ZM134.644 327.857C135.888 327.887 137.078 328.367 137.994 329.209C138.91 330.051 139.489 331.197 139.624 332.434L146.246 408.134C146.31 408.707 146.25 409.287 146.072 409.836C145.893 410.384 145.6 410.888 145.211 411.314C144.822 411.74 144.347 412.078 143.818 412.306C143.288 412.534 142.716 412.646 142.139 412.635H110.48C109.236 412.605 108.046 412.124 107.13 411.282C106.214 410.44 105.635 409.294 105.5 408.057L98.8774 332.357C98.8139 331.784 98.8737 331.203 99.0527 330.654C99.2318 330.105 99.5259 329.601 99.9156 329.175C100.305 328.749 100.781 328.411 101.312 328.183C101.843 327.956 102.416 327.845 102.993 327.857H111.224C111.394 327.861 111.557 327.922 111.688 328.029C111.82 328.135 111.912 328.282 111.952 328.447L112.003 328.712C112.171 329.445 112.579 330.1 113.161 330.575C113.744 331.049 114.469 331.315 115.22 331.331H123.041C123.772 331.344 124.479 331.069 125.008 330.564C125.537 330.059 125.845 329.366 125.865 328.635V328.379C125.867 328.308 125.883 328.238 125.912 328.174C125.941 328.109 125.983 328.051 126.035 328.002C126.086 327.954 126.147 327.916 126.213 327.891C126.28 327.866 126.35 327.854 126.421 327.857H134.644Z" fill="#182F43"/>
<path d="M99.0495 338.886H140.66V339.741H99.0495V338.886Z" fill="#182F43"/>
<path d="M108.443 404.652H142.122L140.034 380.368H106.321L108.443 404.652ZM141.189 403.796H109.231L107.254 381.224H139.178L141.189 403.796Z" fill="#182F43"/>
<path d="M139.349 380.462L139.867 381.143L109.1 404.564L108.582 403.883L139.349 380.462Z" fill="#182F43"/>
<path d="M107.025 380.457L141.893 403.879L141.416 404.589L106.548 381.168L107.025 380.457Z" fill="#182F43"/>
<path d="M104.037 354.314H137.716L136.928 345.312H103.241L104.037 354.314ZM136.783 353.458H104.824L104.183 346.168H136.141L136.783 353.458Z" fill="#182F43"/>
<path d="M103.819 345.318L137.35 353.474L137.148 354.305L103.617 346.15L103.819 345.318Z" fill="#182F43"/>
<path d="M136.446 345.312L136.656 346.142L104.551 354.289L104.341 353.46L136.446 345.312Z" fill="#182F43"/>
<path d="M105.064 366.029H138.743L137.956 357.019H104.277L105.064 366.029ZM137.81 365.173H105.809L105.167 357.874H137.169L137.81 365.173Z" fill="#182F43"/>
<path d="M104.839 357.035L138.37 365.19L138.168 366.022L104.637 357.866L104.839 357.035Z" fill="#182F43"/>
<path d="M137.469 357.027L137.68 357.856L105.575 366.004L105.364 365.175L137.469 357.027Z" fill="#182F43"/>
<path d="M106.09 377.742H139.768L138.981 368.731H105.303L106.09 377.742ZM138.836 376.886H106.868L106.235 369.587H138.194L138.836 376.886Z" fill="#182F43"/>
<path d="M105.869 368.736L139.4 376.892L139.198 377.723L105.667 369.568L105.869 368.736Z" fill="#182F43"/>
<path d="M138.493 368.741L138.703 369.57L106.598 377.718L106.388 376.889L138.493 368.741Z" fill="#182F43"/>
<path d="M217.125 212.003H241.956L266.949 497.857H242.118C236.453 497.756 231.022 495.582 226.851 491.748C222.681 487.913 220.06 482.683 219.484 477.047L198.11 232.814C197.82 230.162 198.099 227.48 198.927 224.945C199.756 222.409 201.115 220.08 202.914 218.111C204.713 216.142 206.911 214.579 209.361 213.526C211.811 212.473 214.458 211.954 217.125 212.003Z" fill="#263238"/>
<path d="M245.944 497.998H345.41C348.004 498.045 350.577 497.524 352.96 496.469C355.342 495.414 357.479 493.85 359.227 491.88C360.975 489.91 362.296 487.58 363.1 485.045C363.904 482.51 364.173 479.828 363.89 477.177L343.095 232.825C342.535 227.186 339.984 221.953 335.924 218.117C331.864 214.28 326.578 212.106 321.064 212.004H221.598C219.004 211.956 216.429 212.476 214.045 213.53C211.662 214.584 209.524 216.149 207.775 218.119C206.025 220.089 204.704 222.419 203.9 224.955C203.095 227.491 202.825 230.173 203.108 232.825L223.913 477.177C224.475 482.816 227.027 488.047 231.086 491.883C235.145 495.719 240.431 497.895 245.944 497.998Z" fill="#182F43"/>
<path d="M249.193 216.277L249.186 216.277L222.631 216.277C220.507 216.237 218.398 216.65 216.446 217.488C214.492 218.328 212.74 219.574 211.305 221.144C209.871 222.713 208.788 224.571 208.128 226.593C207.469 228.612 207.248 230.749 207.479 232.861C207.479 232.863 207.479 232.865 207.479 232.867L228.842 477.089L228.843 477.097C229.303 481.561 231.381 485.703 234.686 488.74C237.991 491.777 242.293 493.499 246.78 493.58L246.789 493.581L348.975 493.581C351.098 493.618 353.204 493.203 355.154 492.363C357.105 491.523 358.855 490.276 360.288 488.706C361.72 487.137 362.801 485.28 363.46 483.26C364.118 481.242 364.339 479.107 364.108 476.996C364.107 476.995 364.107 476.993 364.107 476.991L342.744 232.769L342.743 232.761L342.743 232.761C342.286 228.298 340.209 224.156 336.906 221.119C333.603 218.082 329.302 216.359 324.816 216.277L324.807 216.277V216.277H298.223C297.274 216.26 296.356 216.618 295.668 217.273C294.979 217.928 294.577 218.829 294.548 219.78L294.548 219.787V219.795V220.619C294.494 222.484 293.707 224.253 292.357 225.541C291.006 226.831 289.199 227.535 287.331 227.499L287.321 227.499L262.075 227.499C260.077 227.46 258.149 226.751 256.602 225.486C255.054 224.22 253.977 222.471 253.543 220.519L249.193 216.277ZM249.193 216.277C250.171 216.29 251.117 216.634 251.874 217.254C252.632 217.874 253.156 218.733 253.362 219.69C253.362 219.69 253.362 219.69 253.362 219.69L253.542 220.517L249.193 216.277Z" fill="white" stroke="#182F43"/>
<g opacity="0.2">
<path opacity="0.2" d="M280.129 219.48C280.183 220.031 280.437 220.542 280.844 220.918C281.251 221.293 281.782 221.505 282.335 221.514C282.595 221.519 282.853 221.467 283.092 221.364C283.331 221.261 283.546 221.108 283.721 220.916C283.896 220.723 284.028 220.496 284.109 220.248C284.189 220.001 284.216 219.739 284.188 219.48C284.132 218.931 283.876 218.422 283.47 218.048C283.063 217.675 282.534 217.464 281.982 217.455C281.722 217.451 281.465 217.502 281.227 217.605C280.989 217.707 280.775 217.859 280.6 218.051C280.425 218.242 280.292 218.469 280.211 218.715C280.13 218.961 280.102 219.222 280.129 219.48Z" fill="black"/>
<path opacity="0.2" d="M265.563 217.456H272.516C273.068 217.464 273.597 217.675 274.004 218.049C274.41 218.422 274.666 218.931 274.722 219.48C274.752 219.738 274.726 220 274.647 220.248C274.568 220.495 274.436 220.723 274.262 220.915C274.087 221.108 273.873 221.261 273.635 221.364C273.396 221.468 273.139 221.519 272.879 221.514H265.916C265.363 221.505 264.832 221.293 264.426 220.918C264.019 220.543 263.764 220.031 263.71 219.48C263.682 219.222 263.708 218.961 263.789 218.713C263.87 218.466 264.002 218.239 264.178 218.048C264.353 217.856 264.567 217.704 264.806 217.602C265.045 217.5 265.303 217.45 265.563 217.456Z" fill="black"/>
</g>
<path d="M330.7 229.447H328.551L328.36 227.298H330.509L330.7 229.447Z" fill="#182F43"/>
<path d="M326.211 227.299L326.402 229.448H324.253L324.062 227.299L323.88 225.15H326.029L326.211 227.299Z" fill="#182F43"/>
<path d="M321.541 223L321.732 225.149L321.914 227.298L322.105 229.447H319.956L319.765 227.298L319.584 225.149L319.393 223H321.541Z" fill="#182F43"/>
<path d="M229.15 221.658L229.283 223.234H230.334L230.611 226.386H229.56L229.704 227.961H220.249L219.704 221.658H229.15ZM225.33 226.386H228.481L228.204 223.234H225.053L225.33 226.386Z" fill="#263238"/>
<path d="M233.428 391.991H371.642L360.01 259.087H221.806L233.428 391.991Z" fill="#263238"/>
<path d="M237.085 387.989H375.29L363.667 255.085H225.453L237.085 387.989Z" fill="#FFC100" stroke="#182F43"/>
<path opacity="0.8" d="M244.773 351.381H361.193L353.753 266.325H237.333L244.773 351.381Z" fill="white"/>
<path d="M244.334 351.86H361.718L354.193 265.849H236.808L244.334 351.86ZM360.677 350.905H245.213L237.859 266.804H353.314L360.677 350.905Z" fill="#182F43"/>
<path d="M353.464 265.935L354.052 266.688L245.071 351.741L244.483 350.988L353.464 265.935Z" fill="#182F43"/>
<path d="M237.616 265.891L361.446 350.997L360.905 351.784L237.075 266.678L237.616 265.891Z" fill="#182F43"/>
<path d="M316.058 363.835C316.179 365.025 316.732 366.129 317.612 366.938C318.492 367.747 319.638 368.207 320.833 368.228C321.396 368.239 321.954 368.129 322.471 367.906C322.988 367.684 323.452 367.354 323.831 366.938C324.211 366.522 324.497 366.031 324.672 365.496C324.847 364.961 324.905 364.395 324.844 363.835C324.721 362.647 324.168 361.544 323.288 360.735C322.409 359.926 321.264 359.466 320.069 359.442C319.506 359.432 318.948 359.542 318.431 359.764C317.914 359.987 317.451 360.317 317.071 360.732C316.692 361.148 316.405 361.64 316.23 362.175C316.056 362.71 315.997 363.276 316.058 363.835Z" fill="#182F43"/>
<path d="M299.688 363.835C299.809 365.025 300.362 366.129 301.242 366.938C302.122 367.748 303.268 368.207 304.463 368.228C305.025 368.237 305.583 368.126 306.098 367.903C306.614 367.68 307.077 367.35 307.455 366.934C307.834 366.519 308.119 366.028 308.293 365.493C308.467 364.959 308.526 364.394 308.465 363.835C308.344 362.646 307.791 361.542 306.911 360.732C306.031 359.923 304.885 359.464 303.69 359.442C303.127 359.432 302.569 359.542 302.053 359.764C301.536 359.987 301.073 360.317 300.694 360.733C300.316 361.149 300.03 361.64 299.856 362.175C299.683 362.71 299.626 363.276 299.688 363.835Z" fill="#182F43"/>
<path d="M283.31 363.835C283.431 365.025 283.984 366.128 284.864 366.938C285.744 367.747 286.89 368.206 288.085 368.228C288.648 368.239 289.206 368.129 289.722 367.906C290.239 367.684 290.702 367.353 291.081 366.938C291.459 366.522 291.745 366.03 291.919 365.495C292.092 364.96 292.149 364.394 292.087 363.835C291.966 362.646 291.413 361.542 290.533 360.732C289.653 359.923 288.507 359.464 287.312 359.442C286.75 359.433 286.192 359.544 285.677 359.767C285.161 359.99 284.698 360.32 284.32 360.736C283.942 361.151 283.656 361.643 283.482 362.177C283.308 362.711 283.249 363.276 283.31 363.835Z" fill="#182F43"/>
<g filter="url(#filter0_d_289_12341)">
<path d="M317.128 462.857H381.841L376.398 400.626H311.684L317.128 462.857Z" fill="#AA4337"/>
</g>
<g opacity="0.8">
<path opacity="0.8" d="M316.687 463.381H382.366L376.836 400.195H311.158L316.687 463.381ZM381.315 462.426H317.566L312.208 401.15H375.957L381.315 462.426Z" fill="#182F43"/>
</g>
<path d="M320.728 445.712H375.242L371.756 405.887H317.242L320.728 445.712Z" fill="white"/>
<path d="M320.289 446.19H375.757L372.195 405.409H316.726L320.289 446.19ZM374.726 445.234H321.177L317.777 406.364H371.317L374.726 445.234Z" fill="#182F43"/>
<path d="M371.466 405.5L372.054 406.253L321.023 446.08L320.435 445.327L371.466 405.5Z" fill="#182F43"/>
<path d="M317.51 405.459L375.494 445.311L374.953 446.098L316.969 406.246L317.51 405.459Z" fill="#182F43"/>
<path d="M354.107 451.547C354.163 452.104 354.422 452.621 354.834 452.999C355.246 453.378 355.782 453.592 356.342 453.601C356.608 453.612 356.874 453.566 357.12 453.464C357.367 453.363 357.589 453.21 357.77 453.014C357.952 452.819 358.089 452.587 358.172 452.334C358.255 452.08 358.282 451.812 358.252 451.547C358.196 450.99 357.938 450.472 357.526 450.092C357.114 449.712 356.577 449.496 356.017 449.484C355.753 449.484 355.491 449.538 355.249 449.643C355.007 449.748 354.789 449.903 354.609 450.097C354.43 450.291 354.292 450.52 354.206 450.769C354.12 451.019 354.086 451.284 354.107 451.547Z" fill="#182F43"/>
<path d="M346.437 451.547C346.495 452.103 346.754 452.619 347.166 452.997C347.577 453.375 348.113 453.59 348.672 453.601C348.938 453.61 349.203 453.563 349.448 453.461C349.694 453.359 349.915 453.206 350.097 453.011C350.278 452.816 350.415 452.585 350.499 452.332C350.583 452.079 350.611 451.812 350.582 451.547C350.524 450.99 350.265 450.474 349.854 450.094C349.442 449.714 348.907 449.498 348.347 449.484C348.083 449.484 347.821 449.538 347.579 449.643C347.337 449.748 347.119 449.903 346.939 450.097C346.76 450.291 346.623 450.52 346.536 450.769C346.45 451.019 346.416 451.284 346.437 451.547Z" fill="#182F43"/>
<path d="M338.769 451.547C338.827 452.103 339.086 452.619 339.498 452.997C339.909 453.375 340.445 453.59 341.004 453.601C341.27 453.61 341.535 453.563 341.781 453.461C342.026 453.359 342.247 453.206 342.429 453.011C342.61 452.816 342.747 452.585 342.831 452.332C342.915 452.079 342.943 451.812 342.914 451.547C342.858 450.99 342.6 450.472 342.188 450.092C341.776 449.712 341.239 449.496 340.679 449.484C340.415 449.484 340.153 449.538 339.911 449.643C339.669 449.748 339.451 449.903 339.271 450.097C339.092 450.291 338.955 450.52 338.868 450.769C338.782 451.019 338.748 451.284 338.769 451.547Z" fill="#182F43"/>
<g filter="url(#filter1_d_289_12341)">
<path d="M243.637 462.857H308.351L302.907 400.626H238.194L243.637 462.857Z" fill="#AA4337"/>
</g>
<g opacity="0.8">
<path opacity="0.8" d="M243.198 463.381H308.867L303.337 400.195H237.668L243.198 463.381ZM307.826 462.426H244.029L238.661 401.15H302.468L307.826 462.426Z" fill="#182F43"/>
</g>
<path d="M247.239 445.712H301.753L298.267 405.887H243.753L247.239 445.712Z" fill="white"/>
<path d="M246.798 446.19H302.286L298.724 405.409H243.246L246.798 446.19ZM301.236 445.234H247.686L244.287 406.364H297.826L301.236 445.234Z" fill="#182F43"/>
<path d="M297.967 405.491L298.555 406.244L247.524 446.071L246.936 445.318L297.967 405.491Z" fill="#182F43"/>
<path d="M244.022 405.464L302.006 445.315L301.465 446.103L243.481 406.251L244.022 405.464Z" fill="#182F43"/>
<path d="M280.616 451.548C280.672 452.104 280.93 452.621 281.342 452.999C281.754 453.378 282.291 453.592 282.851 453.601C283.117 453.612 283.383 453.566 283.629 453.465C283.876 453.364 284.098 453.21 284.279 453.015C284.461 452.82 284.598 452.587 284.681 452.334C284.764 452.081 284.791 451.812 284.761 451.548C284.705 450.99 284.446 450.472 284.035 450.092C283.623 449.712 283.086 449.496 282.526 449.485C282.259 449.475 281.993 449.522 281.747 449.625C281.5 449.727 281.278 449.881 281.097 450.077C280.916 450.273 280.779 450.506 280.696 450.76C280.612 451.014 280.585 451.282 280.616 451.548Z" fill="#182F43"/>
<path d="M272.948 451.548C273.004 452.104 273.263 452.621 273.675 452.999C274.087 453.378 274.623 453.592 275.183 453.601C275.449 453.612 275.715 453.566 275.961 453.465C276.208 453.364 276.43 453.21 276.611 453.015C276.793 452.82 276.93 452.587 277.013 452.334C277.096 452.081 277.124 451.812 277.093 451.548C277.037 450.99 276.779 450.472 276.367 450.092C275.955 449.712 275.418 449.496 274.858 449.485C274.591 449.475 274.325 449.522 274.079 449.625C273.832 449.727 273.611 449.881 273.429 450.077C273.248 450.273 273.111 450.506 273.028 450.76C272.945 451.014 272.918 451.282 272.948 451.548Z" fill="#182F43"/>
<path d="M265.279 451.547C265.335 452.104 265.594 452.621 266.006 452.999C266.417 453.378 266.954 453.592 267.514 453.601C267.779 453.61 268.044 453.563 268.29 453.461C268.536 453.359 268.757 453.206 268.938 453.011C269.12 452.816 269.257 452.585 269.341 452.332C269.424 452.079 269.453 451.812 269.424 451.547C269.366 450.989 269.105 450.471 268.692 450.091C268.279 449.711 267.741 449.495 267.179 449.484C266.916 449.485 266.655 449.54 266.414 449.646C266.173 449.752 265.956 449.906 265.778 450.1C265.599 450.294 265.463 450.523 265.377 450.772C265.291 451.021 265.258 451.285 265.279 451.547Z" fill="#182F43"/>
<path d="M244.713 248.663C244.758 249.179 245.191 249.576 245.709 249.576H312.102C312.688 249.576 313.149 249.073 313.098 248.488L312.471 241.32C312.425 240.804 311.993 240.407 311.474 240.407H245.082C244.495 240.407 244.035 240.91 244.086 241.494L244.713 248.663Z" fill="#182F43"/>
<path d="M320.746 247.521H331.318V248.477H320.746V247.521Z" fill="#182F43"/>
<path d="M320.442 243.949H331.015V244.904H320.442V243.949Z" fill="#182F43"/>
<path d="M320.127 240.378H330.7V241.333H320.127V240.378Z" fill="#182F43"/>
<g opacity="0.2">
<path opacity="0.2" d="M287.243 228.002L357.783 490.285C355.221 492.132 352.135 493.113 348.977 493.084H343.457L272.173 228.002H287.243Z" fill="white"/>
</g>
<path d="M208.281 234.982H342.493V236.415H208.281V234.982Z" fill="#182F43"/>
<g filter="url(#filter2_d_289_12341)">
<path d="M553.178 278.238L528.744 278.291C527.938 278.27 527.148 278.52 526.5 279C525.853 279.48 525.384 280.163 525.17 280.941L524.969 281.705C524.451 283.602 523.767 287.528 522.188 288.698C520.609 289.869 520 290.094 515 290.094L490.688 290.094C488.823 290.048 485.996 289.5 485.763 287.418C485.614 286.094 485.43 283.638 485.464 281.773L485.5 281C485.517 280.236 485.231 279.496 484.704 278.943C484.176 278.39 483.451 278.068 482.687 278.049L458.117 277.635C454.053 277.515 450.087 278.889 446.967 281.496C443.848 284.103 441.792 287.762 441.188 291.783L409.787 519.178C409.488 521.067 409.594 522.999 410.1 524.844C410.605 526.689 411.498 528.405 412.719 529.878C413.939 531.351 415.46 532.547 417.179 533.387C418.898 534.226 420.776 534.69 422.688 534.747L518.418 534.747C522.483 534.864 526.449 533.489 529.569 530.88C532.688 528.271 534.744 524.61 535.347 520.589L566.089 293.797C566.387 291.908 566.279 289.976 565.772 288.132C565.266 286.287 564.372 284.572 563.15 283.1C561.928 281.628 560.407 280.433 558.688 279.594C556.968 278.756 555.09 278.294 553.178 278.238Z" fill="#FBFBFF" stroke="#182F43"/>
<path d="M539.454 376.643L497.637 376.643C497.285 376.632 496.938 376.548 496.621 376.397C496.304 376.245 496.024 376.031 495.798 375.766C495.572 375.501 495.407 375.193 495.313 374.862C495.218 374.531 495.197 374.185 495.251 373.845L500.066 338.897C500.175 338.175 500.553 337.518 501.128 337.05C501.703 336.583 502.434 336.337 503.184 336.36L545 336.36C545.354 336.37 545.701 336.453 546.018 336.603C546.336 336.754 546.617 336.969 546.843 337.234C547.069 337.499 547.234 337.807 547.328 338.139C547.422 338.471 547.442 338.818 547.387 339.157L542.572 374.106C542.461 374.827 542.082 375.483 541.508 375.95C540.934 376.417 540.203 376.664 539.454 376.643Z" fill="white" stroke="#182F43"/>
<path d="M485.5 376.558L443.454 376.558C443.101 376.547 442.755 376.463 442.438 376.312C442.121 376.161 441.84 375.946 441.614 375.681C441.389 375.417 441.223 375.109 441.129 374.777C441.035 374.446 441.014 374.1 441.067 373.761L445.882 338.812C445.992 338.09 446.37 337.433 446.944 336.966C447.519 336.498 448.251 336.252 449 336.275L491.047 336.275C491.4 336.285 491.747 336.368 492.065 336.519C492.383 336.669 492.664 336.884 492.89 337.149C493.116 337.414 493.281 337.723 493.375 338.054C493.468 338.386 493.488 338.733 493.433 339.072L488.619 374.021C488.507 374.742 488.129 375.398 487.555 375.865C486.98 376.333 486.25 376.579 485.5 376.558Z" fill="white" stroke="#182F43"/>
<g filter="url(#filter3_d_289_12341)">
<path d="M513.895 516.313L429.82 516.313C428.764 516.258 427.733 515.978 426.794 515.493C425.855 515.008 425.03 514.328 424.375 513.499C423.72 512.67 423.249 511.711 422.993 510.685C422.738 509.66 422.704 508.592 422.894 507.552C423.28 505.34 424.463 503.346 426.219 501.947C427.975 500.547 430.183 499.839 432.425 499.957L516.501 499.957C517.556 500.012 518.588 500.291 519.526 500.777C520.465 501.262 521.29 501.941 521.945 502.771C522.601 503.6 523.072 504.559 523.327 505.584C523.583 506.61 523.617 507.678 523.427 508.717C523.043 510.931 521.86 512.926 520.104 514.326C518.347 515.725 516.138 516.432 513.895 516.313Z" fill="white"/>
<path d="M513.895 516.313L429.82 516.313C428.764 516.258 427.733 515.978 426.794 515.493C425.855 515.008 425.03 514.328 424.375 513.499C423.72 512.67 423.249 511.711 422.993 510.685C422.738 509.66 422.704 508.592 422.894 507.552C423.28 505.34 424.463 503.346 426.219 501.947C427.975 500.547 430.183 499.839 432.425 499.957L516.501 499.957C517.556 500.012 518.588 500.291 519.526 500.777C520.465 501.262 521.29 501.941 521.945 502.771C522.601 503.6 523.072 504.559 523.327 505.584C523.583 506.61 523.617 507.678 523.427 508.717C523.043 510.931 521.86 512.926 520.104 514.326C518.347 515.725 516.138 516.432 513.895 516.313Z" stroke="#182F43"/>
</g>
<path d="M534.28 323.524L452.505 323.524C451.874 323.512 451.252 323.372 450.682 323.113C450.112 322.853 449.608 322.481 449.204 322.021C448.8 321.562 448.506 321.026 448.342 320.451C448.177 319.875 448.147 319.274 448.252 318.688L449.26 311.509C449.458 310.266 450.132 309.136 451.155 308.332C452.178 307.529 453.479 307.107 454.814 307.147L536.589 307.147C537.217 307.166 537.835 307.31 538.4 307.571C538.966 307.832 539.468 308.203 539.871 308.66C540.274 309.116 540.57 309.648 540.74 310.219C540.909 310.79 540.948 311.388 540.853 311.973L539.834 319.152C539.639 320.397 538.966 321.529 537.943 322.335C536.919 323.141 535.616 323.564 534.28 323.524Z" fill="white" stroke="#182F43"/>
<path d="M548.675 310.401C548.623 310.748 548.446 311.064 548.176 311.289C547.907 311.514 547.564 311.633 547.213 311.622C547.048 311.617 546.886 311.576 546.738 311.504C546.59 311.431 546.459 311.328 546.354 311.201C546.249 311.074 546.172 310.926 546.128 310.767C546.084 310.608 546.074 310.442 546.1 310.279C546.152 309.933 546.329 309.618 546.599 309.394C546.869 309.171 547.211 309.055 547.561 309.068C547.725 309.072 547.887 309.111 548.035 309.182C548.183 309.254 548.314 309.356 548.42 309.482C548.525 309.608 548.603 309.755 548.647 309.914C548.691 310.072 548.7 310.238 548.675 310.401Z" fill="#AA4337"/>
<path d="M548.153 315.409C548.104 315.756 547.929 316.072 547.661 316.297C547.393 316.523 547.052 316.642 546.702 316.631C546.537 316.626 546.375 316.585 546.227 316.513C546.079 316.44 545.948 316.337 545.843 316.21C545.738 316.083 545.661 315.935 545.617 315.776C545.573 315.617 545.563 315.451 545.588 315.288C545.638 314.941 545.813 314.625 546.081 314.4C546.349 314.175 546.69 314.056 547.04 314.066C547.205 314.072 547.367 314.112 547.515 314.185C547.663 314.257 547.794 314.36 547.899 314.487C548.004 314.614 548.081 314.762 548.125 314.921C548.169 315.08 548.179 315.246 548.153 315.409Z" fill="#FFC100"/>
<path d="M547.643 320.41C547.591 320.757 547.414 321.073 547.144 321.298C546.875 321.524 546.532 321.642 546.181 321.631C546.017 321.626 545.855 321.585 545.707 321.513C545.559 321.44 545.428 321.337 545.322 321.21C545.217 321.083 545.14 320.935 545.096 320.776C545.052 320.617 545.043 320.451 545.068 320.288C545.12 319.941 545.297 319.625 545.567 319.399C545.836 319.174 546.179 319.056 546.53 319.067C546.695 319.072 546.856 319.112 547.004 319.185C547.153 319.258 547.283 319.361 547.389 319.488C547.494 319.615 547.571 319.762 547.615 319.921C547.659 320.08 547.668 320.247 547.643 320.41Z" fill="#182F43"/>
<path d="M527.5 448.497L434.152 448.497C433.726 448.485 433.308 448.383 432.925 448.197C432.543 448.01 432.204 447.745 431.932 447.417C431.66 447.09 431.462 446.708 431.349 446.297C431.237 445.887 431.213 445.457 431.28 445.037L438.5 393.957C438.633 393.063 439.09 392.249 439.783 391.669C440.477 391.089 441.359 390.784 442.262 390.811L535.277 390.508C535.702 390.521 536.119 390.624 536.5 390.811C536.881 390.998 537.219 391.264 537.489 391.591C537.76 391.918 537.958 392.299 538.07 392.709C538.182 393.119 538.205 393.548 538.138 393.967L531.272 445.351C531.139 446.247 530.681 447.062 529.985 447.642C529.29 448.222 528.405 448.526 527.5 448.497Z" fill="white" stroke="#182F43"/>
<path d="M460.767 459.361L431.048 459.205C430.945 459.204 430.843 459.181 430.749 459.138C430.656 459.095 430.573 459.033 430.505 458.955C430.438 458.877 430.388 458.785 430.359 458.686C430.33 458.587 430.322 458.483 430.337 458.381C430.363 458.162 430.469 457.96 430.634 457.814C430.8 457.668 431.014 457.588 431.234 457.59L460.954 457.746C461.058 457.747 461.16 457.77 461.255 457.813C461.349 457.857 461.433 457.921 461.5 458C461.568 458.079 461.618 458.172 461.646 458.272C461.674 458.372 461.68 458.477 461.664 458.58C461.636 458.797 461.529 458.997 461.364 459.141C461.199 459.285 460.986 459.363 460.767 459.361Z" fill="#AA4337"/>
<path d="M497 459.5L465.802 459.564C465.698 459.565 465.595 459.543 465.5 459.501C465.406 459.458 465.321 459.396 465.253 459.318C465.184 459.24 465.133 459.147 465.104 459.048C465.074 458.948 465.066 458.843 465.081 458.74C465.107 458.521 465.213 458.319 465.378 458.173C465.544 458.027 465.758 457.947 465.978 457.949L497.186 457.886C497.29 457.886 497.393 457.909 497.487 457.953C497.582 457.997 497.666 458.06 497.733 458.139C497.801 458.218 497.85 458.311 497.878 458.411C497.907 458.512 497.913 458.617 497.897 458.719C497.869 458.937 497.762 459.136 497.596 459.28C497.431 459.424 497.219 459.502 497 459.5Z" fill="#182F43"/>
<path d="M450.236 466.367L430.243 466.354C430.138 466.353 430.035 466.33 429.941 466.286C429.846 466.243 429.761 466.179 429.693 466.1C429.625 466.021 429.574 465.929 429.545 465.829C429.515 465.729 429.507 465.623 429.522 465.52C429.55 465.302 429.657 465.101 429.822 464.955C429.987 464.81 430.199 464.729 430.419 464.728L450.454 464.743C450.558 464.746 450.66 464.77 450.754 464.814C450.848 464.858 450.932 464.921 451 465C451.068 465.079 451.119 465.171 451.149 465.27C451.179 465.369 451.188 465.474 451.175 465.577C451.146 465.802 451.034 466.009 450.86 466.155C450.686 466.301 450.463 466.377 450.236 466.367Z" fill="#182F43"/>
<path d="M488.4 466.874L455.748 466.648C455.644 466.647 455.541 466.625 455.446 466.581C455.351 466.538 455.266 466.474 455.198 466.396C455.129 466.317 455.079 466.224 455.049 466.124C455.019 466.024 455.011 465.919 455.026 465.815C455.054 465.595 455.161 465.393 455.328 465.247C455.495 465.101 455.71 465.021 455.932 465.023L488.574 465.248C488.679 465.248 488.782 465.271 488.876 465.315C488.971 465.358 489.056 465.422 489.124 465.5C489.193 465.579 489.243 465.672 489.273 465.772C489.303 465.872 489.311 465.977 489.297 466.081C489.271 466.3 489.165 466.502 489 466.648C488.835 466.795 488.621 466.875 488.4 466.874Z" fill="#828282"/>
<path d="M482.399 473.711L429.426 473.491C429.323 473.492 429.22 473.47 429.125 473.428C429.03 473.385 428.945 473.323 428.877 473.245C428.808 473.166 428.758 473.074 428.728 472.975C428.698 472.875 428.691 472.77 428.705 472.667C428.734 472.447 428.842 472.245 429.009 472.1C429.176 471.954 429.391 471.874 429.613 471.876L482.586 472.096C482.69 472.098 482.792 472.122 482.886 472.166C482.98 472.211 483.064 472.274 483.132 472.353C483.2 472.431 483.25 472.523 483.281 472.623C483.311 472.722 483.32 472.827 483.307 472.93C483.276 473.148 483.167 473.347 483 473.491C482.833 473.635 482.62 473.713 482.399 473.711Z" fill="#182F43"/>
<path d="M491.08 475.707L487.589 475.541C487.485 475.54 487.382 475.516 487.288 475.472C487.194 475.427 487.111 475.363 487.044 475.284C486.978 475.204 486.929 475.111 486.901 475.011C486.874 474.91 486.868 474.805 486.885 474.703C486.916 474.484 487.026 474.284 487.194 474.142C487.363 474 487.578 473.924 487.799 473.931L491.301 474.096C491.405 474.099 491.507 474.124 491.601 474.17C491.694 474.215 491.777 474.281 491.842 474.361C491.908 474.442 491.956 474.536 491.982 474.636C492.008 474.737 492.012 474.842 491.994 474.945C491.961 475.161 491.85 475.358 491.682 475.499C491.513 475.639 491.299 475.713 491.08 475.707Z" fill="white"/>
<path d="M453.431 480.572L428.601 480.639C428.497 480.637 428.395 480.613 428.301 480.569C428.207 480.525 428.123 480.461 428.055 480.383C427.988 480.304 427.937 480.212 427.907 480.113C427.876 480.013 427.867 479.909 427.88 479.806C427.909 479.586 428.017 479.384 428.184 479.238C428.351 479.092 428.566 479.013 428.788 479.014L453.618 478.947C453.723 478.948 453.826 478.971 453.92 479.014C454.015 479.058 454.1 479.121 454.168 479.2C454.236 479.279 454.287 479.372 454.316 479.472C454.346 479.572 454.354 479.677 454.339 479.781C454.311 480.001 454.203 480.203 454.035 480.349C453.868 480.494 453.653 480.574 453.431 480.572Z" fill="#828282"/>
<path d="M490.5 480.5L459.746 480.696C459.642 480.695 459.539 480.672 459.445 480.627C459.35 480.583 459.266 480.518 459.197 480.438C459.128 480.357 459.076 480.263 459.044 480.161C459.013 480.058 459.003 479.95 459.014 479.843C459.04 479.615 459.145 479.404 459.311 479.251C459.476 479.098 459.69 479.013 459.912 479.012L490.656 478.816C490.76 478.815 490.864 478.837 490.959 478.881C491.054 478.925 491.14 478.989 491.209 479.07C491.278 479.151 491.33 479.246 491.361 479.349C491.391 479.452 491.401 479.561 491.387 479.668C491.362 479.895 491.258 480.104 491.095 480.257C490.932 480.41 490.72 480.496 490.5 480.5Z" fill="#AA4337"/>
<path d="M458.349 488.014L427.803 488.014C427.699 488.016 427.596 487.994 427.501 487.952C427.406 487.91 427.321 487.848 427.252 487.769C427.184 487.691 427.133 487.599 427.103 487.5C427.073 487.4 427.065 487.295 427.08 487.192C427.104 486.974 427.208 486.773 427.371 486.627C427.534 486.48 427.745 486.399 427.965 486.397L458.5 486.397C458.604 486.394 458.708 486.414 458.803 486.455C458.899 486.496 458.984 486.557 459.054 486.634C459.123 486.711 459.176 486.803 459.207 486.902C459.238 487.001 459.247 487.106 459.234 487.209C459.212 487.428 459.109 487.632 458.946 487.781C458.782 487.929 458.57 488.012 458.349 488.014Z" fill="#AA4337"/>
<path d="M489.13 488.11L464.721 488.161C464.617 488.162 464.514 488.141 464.419 488.098C464.324 488.056 464.24 487.993 464.171 487.915C464.103 487.837 464.052 487.745 464.022 487.645C463.993 487.545 463.985 487.44 464 487.337C464.025 487.12 464.13 486.919 464.293 486.773C464.457 486.627 464.668 486.546 464.887 486.545L489.296 486.493C489.4 486.491 489.503 486.511 489.598 486.552C489.694 486.593 489.779 486.655 489.848 486.732C489.918 486.809 489.97 486.901 490.001 487C490.032 487.099 490.041 487.204 490.027 487.307C490.002 487.527 489.896 487.731 489.731 487.879C489.566 488.027 489.352 488.109 489.13 488.11Z" fill="#828282"/>
<path d="M538.867 374.932C538.79 375.011 538.699 375.074 538.597 375.117C538.495 375.161 538.386 375.184 538.275 375.185C538.164 375.187 538.054 375.167 537.95 375.127C537.847 375.086 537.753 375.026 537.674 374.95L504.907 341.263C504.758 341.101 504.681 340.889 504.691 340.672C504.701 340.456 504.799 340.252 504.962 340.105C505.039 340.027 505.13 339.964 505.232 339.92C505.334 339.877 505.443 339.854 505.554 339.852C505.665 339.85 505.775 339.87 505.878 339.911C505.982 339.951 506.076 340.011 506.155 340.088L538.922 373.775C539.071 373.936 539.148 374.148 539.138 374.365C539.128 374.582 539.03 374.786 538.867 374.932Z" fill="#182F43"/>
<path d="M485.73 374.121C485.654 374.199 485.562 374.262 485.46 374.306C485.359 374.349 485.249 374.372 485.138 374.374C485.027 374.376 484.917 374.356 484.814 374.315C484.711 374.275 484.617 374.215 484.537 374.138L451.77 340.451C451.622 340.29 451.544 340.078 451.554 339.861C451.565 339.644 451.662 339.44 451.825 339.294C451.902 339.215 451.994 339.152 452.095 339.109C452.197 339.065 452.306 339.042 452.417 339.041C452.528 339.039 452.639 339.059 452.742 339.099C452.845 339.14 452.939 339.2 453.018 339.276L485.785 372.963C485.934 373.125 486.012 373.337 486.001 373.554C485.991 373.771 485.894 373.974 485.73 374.121Z" fill="#182F43"/>
<path d="M498.857 373.226C498.778 373.121 498.723 373.001 498.695 372.875C498.667 372.749 498.665 372.619 498.691 372.493C498.717 372.366 498.77 372.246 498.846 372.14C498.923 372.034 499.021 371.943 499.135 371.873L517.969 358.693C518.179 358.538 518.446 358.467 518.713 358.496C518.979 358.524 519.224 358.651 519.393 358.847C519.47 358.953 519.524 359.071 519.551 359.196C519.579 359.322 519.579 359.45 519.554 359.575C519.528 359.701 519.475 359.819 519.4 359.925C519.325 360.031 519.228 360.121 519.115 360.191L500.281 373.381C500.071 373.536 499.803 373.607 499.537 373.578C499.27 373.549 499.026 373.423 498.857 373.226Z" fill="#182F43"/>
<path d="M446.21 372.527C446.139 372.416 446.089 372.29 446.064 372.157C446.038 372.024 446.038 371.887 446.063 371.753C446.088 371.62 446.137 371.493 446.208 371.38C446.279 371.267 446.37 371.17 446.476 371.096L463.921 357.058C464.116 356.893 464.363 356.816 464.609 356.845C464.854 356.874 465.078 357.005 465.234 357.212C465.304 357.323 465.352 357.448 465.377 357.58C465.401 357.712 465.401 357.848 465.377 357.98C465.352 358.112 465.303 358.238 465.233 358.35C465.163 358.462 465.073 358.558 464.968 358.633L447.523 372.681C447.328 372.846 447.081 372.923 446.835 372.894C446.59 372.865 446.365 372.733 446.21 372.527Z" fill="#182F43"/>
<path d="M523.281 356.181C523.215 356.09 523.169 355.988 523.145 355.881C523.121 355.774 523.12 355.663 523.143 355.556C523.165 355.448 523.21 355.346 523.275 355.256C523.34 355.165 523.424 355.087 523.522 355.028L542.641 341.806C542.823 341.673 543.054 341.612 543.284 341.637C543.515 341.662 543.726 341.77 543.873 341.939C543.939 342.029 543.985 342.131 544.009 342.239C544.033 342.346 544.034 342.457 544.011 342.564C543.989 342.671 543.944 342.773 543.879 342.864C543.814 342.955 543.73 343.032 543.632 343.092L524.513 356.314C524.331 356.447 524.1 356.508 523.87 356.483C523.639 356.458 523.428 356.35 523.281 356.181Z" fill="#182F43"/>
<path d="M469.341 353.629C469.275 353.538 469.228 353.437 469.204 353.329C469.181 353.222 469.18 353.111 469.202 353.004C469.225 352.897 469.27 352.795 469.335 352.704C469.4 352.613 469.484 352.536 469.581 352.476L488.701 339.254C488.882 339.121 489.113 339.06 489.344 339.085C489.574 339.11 489.785 339.218 489.932 339.387C489.998 339.478 490.045 339.579 490.069 339.687C490.092 339.794 490.093 339.905 490.071 340.012C490.048 340.119 490.003 340.221 489.938 340.312C489.873 340.403 489.79 340.48 489.692 340.54L470.572 353.762C470.391 353.895 470.16 353.956 469.929 353.931C469.699 353.906 469.488 353.798 469.341 353.629Z" fill="#182F43"/>
</g>
<path d="M556.819 309.289V314.692L551.663 317.404C551.463 317.512 551.295 317.672 551.178 317.867C551.062 318.062 551 318.285 551 318.513C551 318.74 551.062 318.963 551.178 319.159C551.295 319.354 551.463 319.514 551.663 319.621L556.819 322.333V327.737C556.819 328.314 557.048 328.867 557.456 329.275C557.864 329.683 558.418 329.913 558.995 329.913H577.443C578.021 329.913 578.576 329.684 578.985 329.276C579.395 328.868 579.626 328.315 579.629 327.737V309.289C579.629 308.709 579.399 308.153 578.989 307.743C578.579 307.333 578.023 307.103 577.443 307.103H558.964C558.391 307.111 557.844 307.345 557.442 307.754C557.04 308.164 556.816 308.715 556.819 309.289Z" fill="#AA4337"/>
<g opacity="0.9">
<path opacity="0.9" d="M563.13 314.919H573.617C573.959 314.919 574.287 314.783 574.529 314.541C574.77 314.3 574.906 313.972 574.906 313.63C574.906 313.288 574.77 312.96 574.529 312.718C574.287 312.477 573.959 312.341 573.617 312.341H563.13C562.788 312.341 562.46 312.477 562.218 312.718C561.977 312.96 561.841 313.288 561.841 313.63C561.841 313.972 561.977 314.3 562.218 314.541C562.46 314.783 562.788 314.919 563.13 314.919Z" fill="#182F43"/>
<path opacity="0.9" d="M573.617 317.271H563.13C562.788 317.271 562.46 317.406 562.218 317.648C561.977 317.89 561.841 318.218 561.841 318.56C561.841 318.901 561.977 319.229 562.218 319.471C562.46 319.713 562.788 319.848 563.13 319.848H573.617C573.959 319.848 574.287 319.713 574.529 319.471C574.77 319.229 574.906 318.901 574.906 318.56C574.906 318.218 574.77 317.89 574.529 317.648C574.287 317.406 573.959 317.271 573.617 317.271Z" fill="#182F43"/>
<path opacity="0.9" d="M573.617 322.106H563.13C562.788 322.106 562.46 322.242 562.218 322.484C561.977 322.726 561.841 323.054 561.841 323.395C561.841 323.737 561.977 324.065 562.218 324.307C562.46 324.549 562.788 324.684 563.13 324.684H573.617C573.959 324.684 574.287 324.549 574.529 324.307C574.77 324.065 574.906 323.737 574.906 323.395C574.906 323.054 574.77 322.726 574.529 322.484C574.287 322.242 573.959 322.106 573.617 322.106Z" fill="#182F43"/>
</g>
<path d="M438.902 286.652H444.312L447.1 291.874C447.283 292.214 447.557 292.499 447.892 292.698C448.227 292.896 448.61 293.001 449 293.001C449.39 293.001 449.773 292.896 450.108 292.698C450.443 292.499 450.717 292.214 450.9 291.874L453.688 286.652H459.098C459.611 286.652 460.12 286.552 460.594 286.357C461.068 286.162 461.499 285.877 461.862 285.518C462.224 285.158 462.511 284.731 462.707 284.262C462.902 283.793 463.002 283.29 463 282.782V262.858C463 261.835 462.589 260.854 461.857 260.131C461.125 259.407 460.133 259.001 459.098 259.001H438.902C438.389 258.999 437.881 259.098 437.407 259.291C436.933 259.484 436.502 259.769 436.139 260.127C435.777 260.486 435.489 260.911 435.294 261.38C435.098 261.849 434.998 262.351 435 262.858V282.895C435.026 283.9 435.449 284.856 436.178 285.558C436.907 286.26 437.885 286.652 438.902 286.652Z" fill="#182F43" stroke="#FBFBFF"/>
<path opacity="0.9" d="M448.994 265.001L443 268.569V279.001H447.459V272.001H450.541V279.001H455V268.569L448.994 265.001Z" fill="#FBFBFF"/>
<path d="M539.007 515.789L539.055 511.597L533.944 508.837C533.697 508.7 533.491 508.498 533.349 508.254C533.207 508.01 533.133 507.731 533.137 507.448C533.14 507.166 533.219 506.889 533.367 506.648C533.515 506.407 533.725 506.21 533.975 506.079L539.146 503.434L539.195 499.131C539.206 498.105 539.625 497.124 540.36 496.406C541.094 495.688 542.083 495.291 543.11 495.303L559.768 495.49C560.795 495.502 561.775 495.921 562.493 496.655C563.211 497.389 563.608 498.379 563.596 499.406L563.409 516.063C563.398 517.09 562.979 518.071 562.244 518.789C561.51 519.507 560.521 519.904 559.494 519.892L542.836 519.705C541.809 519.693 540.829 519.274 540.111 518.54C539.393 517.806 538.996 516.816 539.007 515.789Z" fill="#FFC100" stroke="#182F43"/>
<path opacity="0.9" d="M545.44 509.892C544.639 509.074 544.089 508.045 543.852 506.925C543.615 505.806 543.703 504.642 544.103 503.57C544.504 502.498 545.202 501.562 546.116 500.873C547.029 500.183 548.12 499.768 549.26 499.676C550.401 499.584 551.544 499.818 552.557 500.352C553.569 500.887 554.408 501.698 554.976 502.692C555.543 503.685 555.816 504.82 555.762 505.963C555.709 507.106 555.33 508.21 554.672 509.146C554.945 509.195 555.197 509.325 555.396 509.519L559.093 513.311C559.343 513.567 559.482 513.912 559.478 514.27C559.474 514.628 559.328 514.97 559.072 515.22C558.816 515.47 558.471 515.608 558.113 515.604C557.755 515.6 557.413 515.454 557.163 515.198L553.465 511.417C553.269 511.213 553.14 510.953 553.099 510.673C551.93 511.453 550.526 511.802 549.129 511.659C547.731 511.517 546.427 510.892 545.44 509.892ZM552.702 508.694C553.299 508.109 553.709 507.361 553.881 506.544C554.053 505.726 553.978 504.876 553.667 504.1C553.356 503.325 552.821 502.66 552.132 502.188C551.443 501.716 550.629 501.459 549.793 501.45C548.958 501.44 548.138 501.679 547.438 502.135C546.739 502.591 546.19 503.245 545.861 504.013C545.532 504.781 545.439 505.629 545.592 506.45C545.746 507.272 546.139 508.029 546.723 508.627C547.111 509.024 547.573 509.341 548.084 509.559C548.594 509.778 549.143 509.894 549.698 509.9C550.254 509.906 550.805 509.803 551.32 509.596C551.835 509.389 552.305 509.082 552.702 508.694Z" fill="#182F43"/>
<path d="M528.619 147.153H520.082V155.691H528.619V147.153Z" fill="#FBFBFF"/>
<path d="M516.935 159.291H508.397V167.829H516.935V159.291Z" fill="#FBFBFF"/>
<path d="M528.619 159.291H520.082V167.829H528.619V159.291Z" fill="#FBFBFF"/>
<path d="M516.935 171.421H508.397V179.959H516.935V171.421Z" fill="#FBFBFF"/>
<path d="M528.619 171.421H520.082V179.959H528.619V171.421Z" fill="#FBFBFF"/>
<path d="M516.935 183.556H508.397V192.093H516.935V183.556Z" fill="#FBFBFF"/>
<path d="M528.619 183.556H520.082V192.093H528.619V183.556Z" fill="#FBFBFF"/>
<path d="M516.935 195.688H508.397V204.226H516.935V195.688Z" fill="#FBFBFF"/>
<path d="M528.619 195.688H520.082V204.226H528.619V195.688Z" fill="#FBFBFF"/>
<path d="M516.935 207.824H508.397V216.362H516.935V207.824Z" fill="#FBFBFF"/>
<path d="M528.619 207.824H520.082V216.362H528.619V207.824Z" fill="#FBFBFF"/>
<path d="M516.935 219.95H508.397V228.488H516.935V219.95Z" fill="#FBFBFF"/>
<path d="M528.619 219.95H520.082V228.488H528.619V219.95Z" fill="#FBFBFF"/>
<path d="M618.189 152.54V176.74H652.462V152.54H618.189ZM651.112 175.39H619.539V153.89H651.112V175.39Z" fill="#FBFBFF"/>
<path d="M626.614 157.224H621.578V162.26H626.614V157.224Z" fill="#FBFBFF"/>
<path d="M637.846 157.224H632.809V162.26H637.846V157.224Z" fill="#FBFBFF"/>
<path d="M649.081 157.224H644.045V162.26H649.081V157.224Z" fill="#FBFBFF"/>
<path d="M626.614 166.519H621.578V171.555H626.614V166.519Z" fill="#FBFBFF"/>
<path d="M637.846 166.519H632.809V171.555H637.846V166.519Z" fill="#FBFBFF"/>
<path d="M649.081 166.519H644.045V171.555H649.081V166.519Z" fill="#FBFBFF"/>
<path d="M638.623 175.428H633.586V180.464H638.623V175.428Z" fill="#FBFBFF"/>
<path d="M649.854 175.428H644.818V180.464H649.854V175.428Z" fill="#FBFBFF"/>
<path d="M661.087 175.428H656.051V180.464H661.087V175.428Z" fill="#FBFBFF"/>
<path d="M638.623 184.726H633.586V189.762H638.623V184.726Z" fill="#FBFBFF"/>
<path d="M649.854 184.726H644.818V189.762H649.854V184.726Z" fill="#FBFBFF"/>
<path d="M661.087 184.726H656.051V189.762H661.087V184.726Z" fill="#FBFBFF"/>
<path d="M581.942 237.635H570.452V249.125H581.942V237.635Z" fill="#FBFBFF"/>
<path d="M588.359 254.724H575.519V241.884H588.359V254.724ZM576.869 253.374H587.009V243.234H576.869V253.374Z" fill="#FBFBFF"/>
<path d="M579.5 216C599.106 216 615 199.882 615 180C615 160.118 599.106 144 579.5 144C559.894 144 544 160.118 544 180C544 199.882 559.894 216 579.5 216Z" fill="#FFB700" stroke="#182F43"/>
<path d="M579.062 185.449V197.43H568.9L562.653 183.028L576.857 149.664H579.062V179.153C578.298 179.253 577.596 179.628 577.087 180.207C576.579 180.787 576.298 181.532 576.298 182.303C576.298 183.074 576.579 183.819 577.087 184.399C577.596 184.978 578.298 185.353 579.062 185.453V185.449ZM582.492 149.678H580.3V179.216C580.998 179.379 581.621 179.773 582.067 180.335C582.512 180.897 582.755 181.593 582.755 182.31C582.755 183.027 582.512 183.723 582.067 184.285C581.621 184.846 580.998 185.241 580.3 185.404V197.43H590.463L596.71 183.028L582.492 149.678Z" fill="#FBFBFF" stroke="#182F43" stroke-linecap="round" stroke-linejoin="round"/>
<path d="M590.388 199.033H569.05V206.248H590.388V199.033Z" fill="#182F43" stroke="#182F43" stroke-linecap="round" stroke-linejoin="round"/>
<path d="M582.735 182.31C582.735 183.027 582.493 183.722 582.049 184.284C581.605 184.846 580.984 185.241 580.287 185.407V197.432H590.449L596.696 183.03L592.587 173.381C589.28 175.983 585.809 178.371 582.195 180.528C582.551 181.054 582.739 181.675 582.735 182.31Z" fill="#182F43" stroke="#182F43" stroke-linecap="round" stroke-linejoin="round"/>
<path d="M568.9 197.43H579.063V185.45C578.548 185.368 578.06 185.161 577.644 184.848C577.227 184.534 576.894 184.122 576.673 183.649C572.474 185.9 568.531 187.7 565.282 189.05L568.9 197.43Z" fill="#182F43" stroke="#182F43" stroke-linecap="round" stroke-linejoin="round"/>
<path d="M636.001 185C636.001 170.148 630.048 155.904 619.452 145.402C608.856 134.9 594.485 129 579.501 129C564.516 129 550.145 134.9 539.549 145.402C528.953 155.904 523.001 170.148 523.001 185" stroke="#182F43" stroke-width="2" stroke-miterlimit="10"/>
<path d="M545.001 129H614.001" stroke="#182F43" stroke-width="2" stroke-miterlimit="10"/>
<path d="M579.501 132C581.434 132 583.001 130.433 583.001 128.5C583.001 126.567 581.434 125 579.501 125C577.568 125 576.001 126.567 576.001 128.5C576.001 130.433 577.568 132 579.501 132Z" fill="#FBFBFF" stroke="#182F43" stroke-width="2" stroke-miterlimit="10"/>
<path d="M545.001 132C547.21 132 549.001 130.433 549.001 128.5C549.001 126.567 547.21 125 545.001 125C542.791 125 541.001 126.567 541.001 128.5C541.001 130.433 542.791 132 545.001 132Z" fill="#FBFBFF" stroke="#182F43" stroke-width="2" stroke-miterlimit="10"/>
<path d="M613.501 132C615.434 132 617.001 130.433 617.001 128.5C617.001 126.567 615.434 125 613.501 125C611.568 125 610.001 126.567 610.001 128.5C610.001 130.433 611.568 132 613.501 132Z" fill="#FBFBFF" stroke="#182F43" stroke-width="2" stroke-miterlimit="10"/>
<path d="M652.644 208.184C659.323 201.505 659.323 190.675 652.644 183.996C645.964 177.316 635.135 177.316 628.455 183.996C621.776 190.675 621.776 201.505 628.455 208.184C635.135 214.864 645.964 214.864 652.644 208.184Z" fill="#182F43"/>
<path d="M637.926 206.996C637.768 206.995 637.617 206.934 637.502 206.826C637.387 206.717 637.317 206.568 637.305 206.409L636.001 187.675C635.993 187.542 636.026 187.41 636.095 187.297C636.165 187.184 636.268 187.096 636.39 187.046C636.512 186.996 636.646 186.987 636.774 187.018C636.901 187.05 637.016 187.122 637.101 187.223L648.794 201.277C648.859 201.337 648.912 201.411 648.947 201.493C648.983 201.575 649.001 201.664 649 201.754C648.999 201.843 648.979 201.932 648.942 202.013C648.905 202.094 648.851 202.167 648.784 202.226C648.718 202.284 648.639 202.328 648.554 202.354C648.469 202.379 648.38 202.387 648.292 202.375C648.205 202.363 648.121 202.332 648.045 202.285C647.97 202.238 647.906 202.175 647.856 202.1L637.397 189.523L638.563 206.329C638.575 206.495 638.521 206.659 638.413 206.785C638.305 206.911 638.152 206.988 637.988 207L637.926 206.996Z" fill="#FBFBFF"/>
<path d="M626.586 250.602C632.41 243.164 631.101 232.414 623.663 226.591C616.226 220.767 605.476 222.076 599.652 229.513C593.829 236.951 595.137 247.701 602.575 253.525C610.012 259.348 620.763 258.04 626.586 250.602Z" fill="#182F43"/>
<path d="M622.802 239.869L627.697 234.969L631.854 239.126L628.525 247.56L609.07 255.413L608.17 254.513L620.211 242.471C620.565 242.734 621.001 242.86 621.441 242.828C621.88 242.795 622.293 242.606 622.605 242.294C622.916 241.983 623.105 241.57 623.138 241.13C623.17 240.691 623.044 240.255 622.781 239.901L622.802 239.869ZM606.766 253.094L607.667 254L619.75 241.916C619.533 241.564 619.441 241.149 619.489 240.738C619.537 240.328 619.722 239.945 620.015 239.652C620.307 239.36 620.69 239.175 621.101 239.127C621.512 239.079 621.927 239.171 622.279 239.388L627.2 234.466L623.043 230.31L614.604 233.639L606.766 253.094Z" fill="#FBFBFF" stroke="#182F43" stroke-linecap="round" stroke-linejoin="round"/>
<path d="M623.724 229.682L632.45 238.407L635.4 235.457L626.675 226.731L623.724 229.682Z" fill="#182F43" stroke="#182F43" stroke-linecap="round" stroke-linejoin="round"/>
<path d="M605.947 256.546C605.871 256.546 605.795 256.536 605.722 256.515C605.648 256.515 598.392 254.196 599.183 247.39C599.554 244.207 601.193 242.332 602.779 240.526C604.465 238.6 606.057 236.778 606.167 233.343C606.376 227.061 601.256 225.647 601.041 225.59C600.854 225.526 600.698 225.395 600.603 225.222C600.509 225.048 600.483 224.846 600.532 224.654C600.58 224.463 600.698 224.296 600.864 224.188C601.029 224.08 601.229 224.039 601.423 224.071C601.492 224.071 607.983 225.815 607.732 233.39C607.601 237.385 605.748 239.505 603.957 241.552C602.465 243.259 601.052 244.872 600.738 247.573C600.094 253.075 605.931 254.939 606.177 255.018C606.358 255.071 606.514 255.187 606.616 255.346C606.717 255.506 606.758 255.696 606.73 255.883C606.702 256.069 606.607 256.239 606.463 256.361C606.319 256.483 606.136 256.549 605.947 256.546Z" fill="#FBFBFF"/>
<path d="M548.459 257.399C557.66 255.258 563.382 246.064 561.241 236.864C559.1 227.663 549.906 221.94 540.706 224.081C531.506 226.222 525.783 235.416 527.924 244.617C530.065 253.817 539.259 259.54 548.459 257.399Z" fill="#182F43"/>
<path d="M552.561 240.168L557.461 235.268L561.613 239.425L558.283 247.859L538.828 255.712L537.928 254.806L549.969 242.765C550.323 243.027 550.76 243.154 551.199 243.121C551.638 243.089 552.051 242.9 552.363 242.588C552.674 242.277 552.864 241.863 552.896 241.424C552.929 240.985 552.802 240.548 552.54 240.194L552.561 240.168ZM536.525 253.398L537.425 254.298L549.508 242.215C549.291 241.863 549.199 241.448 549.247 241.037C549.295 240.626 549.481 240.244 549.773 239.951C550.066 239.659 550.448 239.473 550.859 239.425C551.27 239.377 551.685 239.469 552.037 239.687L556.958 234.765L552.786 230.608L544.346 233.938L536.525 253.398Z" fill="#FBFBFF" stroke="#182F43" stroke-linecap="round" stroke-linejoin="round"/>
<path d="M553.481 229.983L562.207 238.709L565.157 235.759L556.432 227.033L553.481 229.983Z" fill="#182F43" stroke="#182F43" stroke-linecap="round" stroke-linejoin="round"/>
<path d="M532.567 232.513H530.484V247.632H532.567V232.513Z" fill="#FBFBFF"/>
<path d="M539.088 241.113V239.029H523.968V241.113H539.088Z" fill="#FBFBFF"/>
<path d="M531.22 202.029C535.077 193.406 531.214 183.289 522.591 179.432C513.968 175.575 503.851 179.438 499.994 188.061C496.137 196.684 500 206.801 508.623 210.658C517.246 214.515 527.363 210.652 531.22 202.029Z" fill="#182F43"/>
<path d="M522.845 193L527.745 188.099L531.902 192.256L528.573 200.696L509.118 208.549L508.218 207.633L520.259 195.591C520.613 195.85 521.048 195.973 521.485 195.939C521.922 195.904 522.333 195.715 522.642 195.405C522.952 195.094 523.141 194.683 523.174 194.246C523.207 193.809 523.083 193.374 522.824 193.021L522.845 193ZM506.814 206.229L507.715 207.109L519.809 195.068C519.589 194.716 519.495 194.3 519.542 193.887C519.588 193.475 519.774 193.09 520.067 192.797C520.36 192.503 520.744 192.317 521.156 192.269C521.568 192.221 521.985 192.315 522.337 192.534L527.259 187.618L523.102 183.461L514.662 186.791L506.814 206.229Z" fill="#FBFBFF" stroke="#182F43" stroke-linecap="round" stroke-linejoin="round"/>
<path d="M523.765 182.815L532.491 191.54L535.441 188.59L526.716 179.864L523.765 182.815Z" fill="#182F43" stroke="#182F43" stroke-linecap="round" stroke-linejoin="round"/>
<path d="M509.373 193.94V191.856H494.253V193.94H509.373Z" fill="#FBFBFF"/>
<g filter="url(#filter4_d_289_12341)">
<path d="M147.545 246.5L157.127 356.068H224.721L215.14 246.5H147.545Z" fill="#AA4337" stroke="#182F43"/>
<path d="M203.564 350.748H220.267L219.24 339H202.529L203.564 350.748ZM219.531 350.072H204.189L203.273 339.676H218.624L219.531 350.072Z" fill="#FBFBFF"/>
<path d="M183.026 350.748H199.737L198.711 339H182L183.026 350.748ZM199.001 350.072H183.651L182.744 339.676H198.086L199.001 350.072Z" fill="#FBFBFF"/>
<path d="M163.035 350.748H179.737L178.719 339H162L163.035 350.748ZM179.001 350.072H163.651L162.744 339.676H178.094L179.001 350.072Z" fill="#FBFBFF"/>
<path d="M162 332H218V333H162V332Z" fill="#FBFBFF"/>
<path d="M180.207 326.176H217.719L217.165 320.021H179.654L180.207 326.176ZM217 325.5H180.849L180.415 320.705H216.541L217 325.5Z" fill="#FBFBFF"/>
<path d="M161.5 326H177.056L176.556 320H161L161.5 326ZM176.32 325.315H162.15L161.762 320.685H175.931L176.32 325.315Z" fill="#FBFBFF"/>
<path d="M191.393 258.561H209.062L208.66 254H191L191.393 258.561ZM208.318 257.919H192.018L191.735 254.71H208.053L208.318 257.919Z" fill="#FBFBFF"/>
<path d="M204.078 350.68L219.138 339.616L218.736 339.068L203.676 350.132L204.078 350.68Z" fill="#FBFBFF"/>
<path d="M203.089 339.036L220.09 350.106L219.716 350.68L202.715 339.61L203.089 339.036Z" fill="#FBFBFF"/>
<path d="M183.539 350.68L198.599 339.616L198.196 339.068L183.137 350.132L183.539 350.68Z" fill="#FBFBFF"/>
<path d="M182.549 339.048L199.548 350.121L199.174 350.695L182.175 339.621L182.549 339.048Z" fill="#FBFBFF"/>
<path d="M163.549 350.68L178.608 339.616L178.206 339.068L163.138 350.132L163.549 350.68Z" fill="#FBFBFF"/>
<path d="M162.552 339.045L179.551 350.118L179.177 350.692L162.178 339.619L162.552 339.045Z" fill="#FBFBFF"/>
<path d="M170.664 308.362L175.765 308.379L175.65 307.428L170.547 307.419L170.664 308.362ZM180.867 308.396L185.98 308.406L185.865 307.455L180.762 307.446L180.867 308.396ZM191.082 308.423L196.184 308.433L196.079 307.49L190.978 307.473L191.082 308.423ZM201.294 308.474L206.397 308.483L206.292 307.541L201.179 307.523L201.294 308.474Z" fill="#FBFBFF"/>
<path d="M210.866 302.381L212.18 302.374L211.806 298.865L210.502 298.874L210.866 302.381ZM210.132 295.319L211.42 295.356L211.057 291.841L209.743 291.848L210.132 295.319ZM209.395 288.296L210.708 288.296L210.344 284.789L209.031 284.788L209.395 288.296ZM208.667 281.281L209.971 281.273L209.607 277.766L208.293 277.765L208.667 281.281Z" fill="#FBFBFF"/>
<path d="M166.957 272.995L172.254 273.033L172.142 272.082L166.833 272.043L166.957 272.995ZM177.564 273.065L182.862 273.102L182.738 272.15L177.441 272.112L177.564 273.065ZM188.16 273.133L193.47 273.172L193.346 272.22L188.047 272.189L188.16 273.133ZM198.767 273.21L204.065 273.24L204 272.294L198.702 272.264L198.767 273.21Z" fill="#FBFBFF"/>
<path d="M161.898 302.508L163.202 302.5L162.838 298.992L161.525 298.992L161.898 302.508ZM161.161 295.484L162.475 295.477L162.101 291.969L160.786 291.976L161.161 295.484ZM160.423 288.461L161.737 288.461L161.363 284.945L160.059 284.954L160.423 288.461ZM159.684 281.445L160.999 281.438L160.624 277.93L159.321 277.93L159.684 281.445Z" fill="#FBFBFF"/>
<path d="M205.913 275.616L211.205 275.488L210.809 270.557L205.517 270.685L205.913 275.616ZM210.01 274.584L206.958 274.641L206.739 271.591L209.79 271.542L210.01 274.584Z" fill="#FBFBFF"/>
<path d="M156.245 275.009L161.975 274.971L161.418 270.015L155.677 270.052L156.245 275.009ZM160.565 274.044L157.455 274.044L157.13 270.991L160.25 270.992L160.565 274.044Z" fill="#FBFBFF"/>
<path d="M209.626 310.342L214.79 310.236L214.363 305.294L209.19 305.4L209.626 310.342ZM213.56 309.328L210.704 309.371L210.456 306.326L213.321 306.284L213.56 309.328Z" fill="#FBFBFF"/>
<path d="M161.065 310.348L166.803 310.348L166.247 305.392L160.508 305.392L161.065 310.348ZM165.393 309.421L162.286 309.392L161.96 306.339L165.068 306.368L165.393 309.421Z" fill="#FBFBFF"/>
<path d="M207.646 288.102L212.646 288.101L213.066 292.104L208.066 292.104L207.646 288.102Z" fill="#FBFBFF"/>
<path d="M158.381 288.251L163.696 288.237L164.116 292.24L158.802 292.254L158.381 288.251Z" fill="#FBFBFF"/>
<path d="M183.42 274.012L183 270.01L186.908 270L187.328 274.002L183.42 274.012Z" fill="#FBFBFF"/>
<path d="M186.42 310.013L186 306.011L190.235 306L190.655 310.002L186.42 310.013Z" fill="#FBFBFF"/>
</g>
<path d="M220 121.644L208.047 110.463V81.1123" stroke="#263238" stroke-linecap="round" stroke-linejoin="round"/>
<path d="M208.046 110.462L195.057 121.643" stroke="#263238" stroke-linecap="round" stroke-linejoin="round"/>
<path d="M205.172 64.957V70.8373L202.816 74.9504C202.816 76.2613 203.336 77.5188 204.261 78.4477C205.186 79.3765 206.441 79.901 207.752 79.9064V79.9064C209.066 79.9037 210.325 79.3807 211.253 78.4519C212.182 77.523 212.705 76.264 212.708 74.9504V70.8373" stroke="#263238" stroke-width="3" stroke-linecap="round" stroke-linejoin="round"/>
<path d="M200.065 53.6641H209.977V64.673H200.065V53.6641Z" fill="white" stroke="#263238" stroke-linecap="round" stroke-linejoin="round"/>
<path d="M196.398 38.8975H213.643V61.0067H196.398V38.8975Z" fill="white" stroke="#263238" stroke-linecap="round" stroke-linejoin="round"/>
<path d="M191.259 49.9971H218.599V56.7812H191.259V49.9971Z" fill="white" stroke="#263238" stroke-linecap="round" stroke-linejoin="round"/>
<path d="M205.02 49.9971H208.93L214.465 56.2734L213.886 56.7812H211.002L205.02 49.9971Z" fill="#AA4337"/>
<path d="M216.456 49.9971L218.599 52.4243V56.7812H218.528L212.536 49.9971H216.456Z" fill="#AA4337"/>
<path d="M197.495 49.9971H201.405L206.939 56.2734L206.361 56.7812H203.476L197.495 49.9971Z" fill="#AA4337"/>
<path d="M191.259 51.4494V49.9971H193.89L199.425 56.2734L198.836 56.7812H195.961L191.259 51.4494Z" fill="#AA4337"/>
<path d="M205.406 38.5112V25.207" stroke="#263238" stroke-width="2" stroke-linecap="round" stroke-linejoin="round"/>
<path d="M0.999964 24.8717H212.312V16.8994L176.158 1.57422H0.999964" stroke="#263238" stroke-width="2" stroke-linecap="round" stroke-linejoin="round"/>
<path d="M176.156 24.8717V1.57422L152.25 24.8717V1.57422L176.156 24.8717Z" stroke="#263238" stroke-width="2" stroke-linecap="round" stroke-linejoin="round"/>
<path d="M152.281 24.8717V1.57422L128.385 24.8717V1.57422L152.281 24.8717Z" stroke="#263238" stroke-width="2" stroke-linecap="round" stroke-linejoin="round"/>
<path d="M128.415 24.8717V1.57422L104.508 24.8717V1.57422L128.415 24.8717Z" stroke="#263238" stroke-width="2" stroke-linecap="round" stroke-linejoin="round"/>
<path d="M104.538 24.8717V1.57422L80.6412 24.8717V1.57422L104.538 24.8717Z" stroke="#263238" stroke-width="2" stroke-linecap="round" stroke-linejoin="round"/>
<path d="M80.6731 24.8717V1.57422L56.7663 24.8717V1.57422L80.6731 24.8717Z" stroke="#263238" stroke-width="2" stroke-linecap="round" stroke-linejoin="round"/>
<path d="M56.7959 24.8717V1.57422L32.8992 24.8717V1.57422L56.7959 24.8717Z" stroke="#263238" stroke-width="2" stroke-linecap="round" stroke-linejoin="round"/>
<path d="M32.9292 24.8717V1.57422L9.02239 24.8717V1.57422L32.9292 24.8717Z" stroke="#263238" stroke-width="2" stroke-linecap="round" stroke-linejoin="round"/>
<defs>
<filter id="filter0_d_289_12341" x="308.684" y="400.626" width="73.1575" height="65.2305" filterUnits="userSpaceOnUse" color-interpolation-filters="sRGB">
<feFlood flood-opacity="0" result="BackgroundImageFix"/>
<feColorMatrix in="SourceAlpha" type="matrix" values="0 0 0 0 0 0 0 0 0 0 0 0 0 0 0 0 0 0 127 0" result="hardAlpha"/>
<feOffset dx="-3" dy="3"/>
<feComposite in2="hardAlpha" operator="out"/>
<feColorMatrix type="matrix" values="0 0 0 0 0.0941176 0 0 0 0 0.184314 0 0 0 0 0.262745 0 0 0 1 0"/>
<feBlend mode="normal" in2="BackgroundImageFix" result="effect1_dropShadow_289_12341"/>
<feBlend mode="normal" in="SourceGraphic" in2="effect1_dropShadow_289_12341" result="shape"/>
</filter>
<filter id="filter1_d_289_12341" x="235.194" y="400.626" width="73.1575" height="65.2305" filterUnits="userSpaceOnUse" color-interpolation-filters="sRGB">
<feFlood flood-opacity="0" result="BackgroundImageFix"/>
<feColorMatrix in="SourceAlpha" type="matrix" values="0 0 0 0 0 0 0 0 0 0 0 0 0 0 0 0 0 0 127 0" result="hardAlpha"/>
<feOffset dx="-3" dy="3"/>
<feComposite in2="hardAlpha" operator="out"/>
<feColorMatrix type="matrix" values="0 0 0 0 0.0941176 0 0 0 0 0.184314 0 0 0 0 0.262745 0 0 0 1 0"/>
<feBlend mode="normal" in2="BackgroundImageFix" result="effect1_dropShadow_289_12341"/>
<feBlend mode="normal" in="SourceGraphic" in2="effect1_dropShadow_289_12341" result="shape"/>
</filter>
<filter id="filter2_d_289_12341" x="409.121" y="277.128" width="161.632" height="262.126" filterUnits="userSpaceOnUse" color-interpolation-filters="sRGB">
<feFlood flood-opacity="0" result="BackgroundImageFix"/>
<feColorMatrix in="SourceAlpha" type="matrix" values="0 0 0 0 0 0 0 0 0 0 0 0 0 0 0 0 0 0 127 0" result="hardAlpha"/>
<feOffset dx="4" dy="4"/>
<feComposite in2="hardAlpha" operator="out"/>
<feColorMatrix type="matrix" values="0 0 0 0 0.0941176 0 0 0 0 0.184314 0 0 0 0 0.262745 0 0 0 1 0"/>
<feBlend mode="normal" in2="BackgroundImageFix" result="effect1_dropShadow_289_12341"/>
<feBlend mode="normal" in="SourceGraphic" in2="effect1_dropShadow_289_12341" result="shape"/>
</filter>
<filter id="filter3_d_289_12341" x="422.273" y="499.444" width="102.775" height="19.3809" filterUnits="userSpaceOnUse" color-interpolation-filters="sRGB">
<feFlood flood-opacity="0" result="BackgroundImageFix"/>
<feColorMatrix in="SourceAlpha" type="matrix" values="0 0 0 0 0 0 0 0 0 0 0 0 0 0 0 0 0 0 127 0" result="hardAlpha"/>
<feOffset dx="1" dy="2"/>
<feComposite in2="hardAlpha" operator="out"/>
<feColorMatrix type="matrix" values="0 0 0 0 0.666667 0 0 0 0 0.262745 0 0 0 0 0.215686 0 0 0 1 0"/>
<feBlend mode="normal" in2="BackgroundImageFix" result="effect1_dropShadow_289_12341"/>
<feBlend mode="normal" in="SourceGraphic" in2="effect1_dropShadow_289_12341" result="shape"/>
</filter>
<filter id="filter4_d_289_12341" x="143" y="246" width="82.2668" height="114.568" filterUnits="userSpaceOnUse" color-interpolation-filters="sRGB">
<feFlood flood-opacity="0" result="BackgroundImageFix"/>
<feColorMatrix in="SourceAlpha" type="matrix" values="0 0 0 0 0 0 0 0 0 0 0 0 0 0 0 0 0 0 127 0" result="hardAlpha"/>
<feOffset dx="-4" dy="4"/>
<feComposite in2="hardAlpha" operator="out"/>
<feColorMatrix type="matrix" values="0 0 0 0 0.0941176 0 0 0 0 0.184314 0 0 0 0 0.262745 0 0 0 1 0"/>
<feBlend mode="normal" in2="BackgroundImageFix" result="effect1_dropShadow_289_12341"/>
<feBlend mode="normal" in="SourceGraphic" in2="effect1_dropShadow_289_12341" result="shape"/>
</filter>
</defs>
</svg>
