<svg width="948" height="734" viewBox="0 0 948 734" fill="none" xmlns="http://www.w3.org/2000/svg">
<path d="M516.201 672.083H487.862V672.297H516.201V672.083Z" fill="#EBEBEB"/>
<path d="M414.649 674.411H407.213V674.625H414.649V674.411Z" fill="#EBEBEB"/>
<path d="M391 661.426H203V660.426H391V661.426Z" fill="#182F43"/>
<path d="M566 702.426H382V701.426H566V702.426Z" fill="#182F43"/>
<path d="M152.874 364.391H266.921C267.801 364.391 268.492 363.637 268.416 362.76L261.724 286.296C261.656 285.521 261.007 284.927 260.23 284.927H146.182C145.302 284.927 144.611 285.681 144.688 286.558L151.379 363.022C151.447 363.797 152.096 364.391 152.874 364.391Z" fill="#F5F5F5" stroke="#182F43"/>
<path d="M191.283 350.565H255.371V351.197H191.283V350.565Z" fill="#182F43"/>
<path d="M189.906 340.889H254.537V340.541L250.639 296.038H185.984V296.387L189.906 340.889ZM253.864 340.225H190.522L186.713 296.646H250.056L253.864 340.225Z" fill="#182F43"/>
<path d="M251.917 360.11H253.66C254.012 360.116 254.361 360.048 254.685 359.909C255.008 359.77 255.299 359.564 255.536 359.304C255.774 359.044 255.954 358.737 256.063 358.402C256.173 358.067 256.21 357.713 256.172 357.363L256.018 355.621C255.944 354.89 255.605 354.211 255.064 353.714C254.523 353.216 253.819 352.935 253.084 352.922H251.342C250.99 352.916 250.64 352.984 250.317 353.123C249.993 353.262 249.703 353.468 249.465 353.728C249.228 353.988 249.048 354.296 248.939 354.63C248.829 354.965 248.792 355.319 248.83 355.669L248.984 357.411C249.057 358.143 249.397 358.821 249.937 359.319C250.478 359.816 251.183 360.098 251.917 360.11V360.11ZM253.084 353.554C253.66 353.563 254.213 353.784 254.637 354.174C255.062 354.564 255.328 355.096 255.386 355.669L255.539 357.411C255.567 357.676 255.539 357.943 255.456 358.196C255.374 358.448 255.239 358.681 255.061 358.878C254.883 359.071 254.666 359.225 254.425 359.328C254.183 359.431 253.922 359.482 253.66 359.478H251.917C251.34 359.469 250.787 359.249 250.361 358.859C249.935 358.469 249.667 357.937 249.608 357.363L249.462 355.621C249.435 355.356 249.463 355.089 249.545 354.837C249.628 354.584 249.762 354.351 249.94 354.154C250.118 353.96 250.335 353.807 250.577 353.704C250.818 353.6 251.079 353.549 251.342 353.554H253.084Z" fill="#182F43"/>
<path d="M222.609 346.861H255.249L254.949 343.401H222.309L222.609 346.861ZM254.535 346.229H223.168L222.974 344.033H254.365L254.535 346.229Z" fill="#182F43"/>
<path d="M191.646 358.255H204.611L204.311 354.795H191.33L191.646 358.255ZM203.954 357.623H192.221L192.027 355.427H203.76L203.954 357.623Z" fill="#182F43"/>
<path d="M190.601 346.861H194.069L193.769 343.401H190.301L190.601 346.861ZM193.38 346.229H191.184L190.99 344.033H193.186L193.38 346.229Z" fill="#182F43"/>
<path d="M195.382 346.861H198.842L198.542 343.401H195.074L195.382 346.861ZM198.154 346.229H195.958L195.771 344.033H197.959L198.154 346.229Z" fill="#182F43"/>
<path d="M200.187 346.861H203.647L203.347 343.401H199.887L200.187 346.861ZM202.958 346.229H200.77L200.576 344.033H202.764L202.958 346.229Z" fill="#182F43"/>
<path d="M185.658 292.683H234.277L234.009 289.62H185.39L185.658 292.683ZM233.612 292.051H186.241L186.079 290.252H233.467L233.612 292.051Z" fill="#182F43"/>
<path d="M237.519 292.887H250.484L250.184 289.427H237.219L237.519 292.887ZM249.828 292.247H238.094L237.9 290.059H249.609L249.828 292.247Z" fill="#182F43"/>
<path d="M155.149 308.599H177.992L176.841 295.479H153.998L155.149 308.599ZM177.303 307.966H155.732L154.687 296.095H176.266L177.303 307.966Z" fill="#182F43"/>
<path d="M157.298 333.239H180.149L178.998 320.112H156.155L157.298 333.239ZM179.452 332.607H157.881L156.844 320.744H178.423L179.452 332.607Z" fill="#182F43"/>
<path d="M159.46 357.881H182.303L181.153 344.754H158.31L159.46 357.881ZM181.606 357.249H160.036L158.99 345.386H180.577L181.606 357.249Z" fill="#182F43"/>
<path d="M154.498 295.498L177.793 308.005L177.494 308.562L154.199 296.055L154.498 295.498Z" fill="#182F43"/>
<path d="M155.605 308.557L176.713 296.061L176.397 295.519L155.281 308.006L155.605 308.557Z" fill="#182F43"/>
<path d="M156.643 320.176L179.957 332.65L179.658 333.208L156.345 320.733L156.643 320.176Z" fill="#182F43"/>
<path d="M178.548 320.165L178.87 320.709L157.752 333.203L157.43 332.659L178.548 320.165Z" fill="#182F43"/>
<path d="M182.329 358.117L181.137 344.544L170.263 350.954L158.765 344.795L158.465 345.354L169.623 351.326L159.551 357.29L159.875 357.833L170.279 351.683L182.329 358.117ZM180.595 345.597L181.607 357.007L170.968 351.334L180.595 345.597Z" fill="#182F43"/>
<path d="M186.504 296.094L254.388 340.297L254.043 340.827L186.159 296.624L186.504 296.094Z" fill="#182F43"/>
<path d="M250.16 296.095L250.535 296.604L190.391 340.817L190.016 340.308L250.16 296.095Z" fill="#182F43"/>
<path d="M158.061 545.312H199.672V546.167H158.061V545.312Z" fill="#182F43"/>
<path d="M169.51 619.925H201.169C201.865 619.936 202.555 619.799 203.194 619.523C203.833 619.248 204.406 618.84 204.875 618.326C205.344 617.812 205.699 617.205 205.915 616.544C206.132 615.883 206.206 615.183 206.132 614.491L199.509 538.791C199.357 537.34 198.68 535.993 197.606 535.005C196.531 534.017 195.133 533.456 193.674 533.426H185.442C185.077 533.422 184.726 533.561 184.463 533.814C184.2 534.067 184.048 534.414 184.039 534.778V535.035C184.025 535.543 183.812 536.024 183.445 536.375C183.078 536.726 182.587 536.918 182.079 536.909H174.216C173.658 536.897 173.121 536.698 172.689 536.345C172.258 535.991 171.958 535.503 171.837 534.958L171.786 534.701C171.704 534.345 171.506 534.026 171.222 533.795C170.938 533.564 170.586 533.434 170.22 533.426H161.989C161.295 533.417 160.608 533.553 159.971 533.828C159.334 534.102 158.762 534.507 158.292 535.018C157.823 535.535 157.468 536.145 157.25 536.808C157.031 537.472 156.955 538.174 157.026 538.868L163.649 614.56C163.801 616.016 164.482 617.365 165.562 618.354C166.641 619.342 168.046 619.901 169.51 619.925V619.925ZM193.682 534.282C194.927 534.312 196.119 534.794 197.035 535.638C197.951 536.482 198.53 537.63 198.662 538.868L205.285 614.56C205.346 615.136 205.284 615.72 205.104 616.271C204.924 616.822 204.63 617.33 204.241 617.76C203.851 618.181 203.377 618.516 202.849 618.742C202.321 618.967 201.752 619.079 201.178 619.069H169.518C168.275 619.039 167.084 618.558 166.168 617.716C165.252 616.874 164.673 615.728 164.538 614.491L157.916 538.791C157.851 538.217 157.91 537.636 158.088 537.087C158.266 536.538 158.559 536.033 158.948 535.606C159.336 535.179 159.812 534.84 160.342 534.612C160.873 534.383 161.446 534.271 162.023 534.282H170.254C170.424 534.289 170.587 534.351 170.719 534.459C170.85 534.567 170.942 534.715 170.982 534.881L171.033 535.138C171.198 535.872 171.604 536.531 172.187 537.007C172.771 537.483 173.497 537.75 174.25 537.764H182.079C182.809 537.776 183.514 537.499 184.041 536.995C184.568 536.49 184.874 535.798 184.895 535.069V534.812C184.895 534.741 184.909 534.671 184.936 534.605C184.964 534.54 185.005 534.481 185.056 534.431C185.107 534.382 185.168 534.343 185.234 534.317C185.3 534.292 185.371 534.28 185.442 534.282H193.682Z" fill="#182F43"/>
<path d="M164.196 555.363H195.462C195.783 555.367 196.1 555.304 196.394 555.176C196.688 555.049 196.952 554.86 197.168 554.623C197.384 554.386 197.547 554.106 197.647 553.802C197.747 553.497 197.781 553.175 197.747 552.856C197.68 552.199 197.375 551.589 196.89 551.142C196.404 550.694 195.772 550.439 195.111 550.426H163.837C163.516 550.421 163.197 550.483 162.902 550.61C162.607 550.737 162.343 550.925 162.126 551.162C161.909 551.4 161.745 551.68 161.644 551.985C161.542 552.29 161.505 552.613 161.535 552.933C161.604 553.594 161.913 554.206 162.404 554.654C162.894 555.102 163.532 555.354 164.196 555.363ZM195.111 551.282C195.559 551.292 195.988 551.465 196.318 551.769C196.647 552.073 196.854 552.487 196.9 552.933C196.92 553.134 196.898 553.337 196.835 553.529C196.771 553.721 196.668 553.897 196.532 554.046C196.397 554.195 196.232 554.314 196.047 554.394C195.863 554.473 195.663 554.512 195.462 554.508H164.196C163.748 554.497 163.319 554.324 162.99 554.02C162.661 553.716 162.454 553.302 162.408 552.856C162.388 552.656 162.41 552.454 162.472 552.263C162.534 552.071 162.634 551.895 162.767 551.744C162.903 551.596 163.068 551.478 163.253 551.398C163.437 551.318 163.636 551.279 163.837 551.282H195.111Z" fill="#182F43"/>
<path d="M164.906 564.355H196.18C196.501 564.36 196.82 564.298 197.115 564.171C197.41 564.044 197.674 563.856 197.891 563.619C198.106 563.382 198.268 563.103 198.368 562.799C198.469 562.496 198.504 562.174 198.473 561.856C198.406 561.198 198.1 560.587 197.613 560.139C197.125 559.691 196.491 559.438 195.829 559.426H164.563C164.243 559.419 163.925 559.481 163.63 559.607C163.335 559.733 163.071 559.921 162.855 560.158C162.638 560.394 162.475 560.674 162.376 560.979C162.276 561.284 162.243 561.606 162.279 561.925C162.344 562.581 162.647 563.191 163.131 563.639C163.615 564.087 164.246 564.341 164.906 564.355V564.355ZM195.821 560.282C196.268 560.29 196.697 560.462 197.026 560.764C197.356 561.067 197.563 561.48 197.609 561.925C197.629 562.126 197.607 562.33 197.545 562.523C197.484 562.715 197.383 562.893 197.249 563.046C197.112 563.191 196.946 563.307 196.762 563.385C196.578 563.463 196.38 563.502 196.18 563.499H164.906C164.444 563.494 164.001 563.315 163.664 562.998C163.328 562.681 163.124 562.249 163.092 561.788C163.071 561.586 163.094 561.382 163.157 561.188C163.22 560.995 163.323 560.818 163.46 560.667C163.596 560.52 163.762 560.404 163.946 560.326C164.13 560.248 164.329 560.209 164.529 560.214L195.821 560.282Z" fill="#182F43"/>
<path d="M165.659 572.355H196.891C197.211 572.361 197.529 572.3 197.824 572.174C198.119 572.047 198.383 571.86 198.599 571.623C198.816 571.387 198.979 571.107 199.078 570.802C199.178 570.497 199.211 570.175 199.175 569.856C199.107 569.198 198.8 568.588 198.313 568.141C197.826 567.693 197.192 567.439 196.531 567.426H165.266C164.945 567.422 164.627 567.486 164.333 567.613C164.039 567.741 163.776 567.929 163.56 568.166C163.344 568.403 163.181 568.683 163.081 568.987C162.981 569.292 162.947 569.614 162.981 569.933C163.051 570.596 163.362 571.209 163.857 571.656C164.351 572.103 164.993 572.352 165.659 572.355V572.355ZM196.566 568.282C197.014 568.292 197.443 568.465 197.772 568.769C198.101 569.073 198.308 569.487 198.354 569.933C198.377 570.133 198.357 570.335 198.296 570.526C198.234 570.718 198.132 570.894 197.997 571.042C197.861 571.19 197.695 571.308 197.51 571.387C197.326 571.466 197.126 571.504 196.925 571.499H165.659C165.212 571.491 164.783 571.319 164.454 571.017C164.124 570.714 163.917 570.301 163.871 569.856C163.846 569.656 163.865 569.452 163.926 569.26C163.987 569.068 164.089 568.891 164.225 568.741C164.36 568.592 164.526 568.473 164.712 568.394C164.898 568.315 165.098 568.276 165.3 568.282H196.566Z" fill="#182F43"/>
<path d="M166.63 581.355H197.861C198.182 581.361 198.5 581.3 198.795 581.174C199.09 581.047 199.354 580.86 199.57 580.623C199.786 580.387 199.95 580.107 200.049 579.802C200.148 579.497 200.181 579.175 200.146 578.856C200.077 578.198 199.771 577.588 199.284 577.141C198.797 576.693 198.163 576.439 197.502 576.426H166.236C165.916 576.422 165.598 576.486 165.304 576.613C165.01 576.741 164.746 576.929 164.531 577.166C164.315 577.403 164.151 577.683 164.052 577.987C163.952 578.292 163.918 578.614 163.952 578.933C164.021 579.596 164.333 580.209 164.827 580.656C165.322 581.103 165.964 581.352 166.63 581.355V581.355ZM197.536 577.282C197.984 577.292 198.413 577.465 198.743 577.769C199.072 578.073 199.279 578.487 199.325 578.933C199.348 579.133 199.328 579.335 199.266 579.526C199.205 579.718 199.103 579.894 198.967 580.042C198.832 580.19 198.666 580.308 198.481 580.387C198.296 580.466 198.097 580.504 197.896 580.499H166.63C166.183 580.491 165.754 580.319 165.424 580.017C165.095 579.714 164.888 579.301 164.842 578.856C164.817 578.656 164.836 578.452 164.897 578.26C164.958 578.068 165.06 577.891 165.195 577.741C165.331 577.592 165.497 577.473 165.683 577.394C165.868 577.315 166.069 577.276 166.271 577.282H197.536Z" fill="#182F43"/>
<path d="M167.63 589.355H198.861C199.182 589.361 199.5 589.3 199.795 589.174C200.09 589.047 200.354 588.86 200.57 588.623C200.786 588.387 200.95 588.107 201.049 587.802C201.148 587.497 201.181 587.175 201.146 586.856C201.077 586.198 200.771 585.588 200.284 585.141C199.797 584.693 199.163 584.439 198.502 584.426H167.236C166.916 584.422 166.598 584.486 166.304 584.613C166.01 584.741 165.746 584.929 165.531 585.166C165.315 585.403 165.151 585.683 165.052 585.987C164.952 586.292 164.918 586.614 164.952 586.933C165.021 587.596 165.333 588.209 165.827 588.656C166.322 589.103 166.964 589.352 167.63 589.355V589.355ZM198.536 585.282C198.984 585.292 199.413 585.465 199.743 585.769C200.072 586.073 200.279 586.487 200.325 586.933C200.348 587.133 200.328 587.335 200.266 587.526C200.205 587.718 200.103 587.894 199.967 588.042C199.832 588.19 199.666 588.308 199.481 588.387C199.296 588.466 199.097 588.504 198.896 588.499H167.63C167.183 588.491 166.754 588.319 166.424 588.017C166.095 587.714 165.888 587.301 165.842 586.856C165.817 586.656 165.836 586.452 165.897 586.26C165.958 586.068 166.06 585.891 166.195 585.741C166.331 585.592 166.497 585.473 166.683 585.394C166.868 585.315 167.069 585.276 167.271 585.282H198.536Z" fill="#182F43"/>
<path d="M167.576 597.355H198.842C199.162 597.359 199.48 597.295 199.774 597.168C200.068 597.04 200.332 596.852 200.548 596.615C200.764 596.378 200.927 596.098 201.027 595.793C201.126 595.489 201.16 595.167 201.127 594.848C201.06 594.192 200.754 593.583 200.269 593.136C199.783 592.69 199.151 592.438 198.491 592.426H167.217C166.896 592.419 166.578 592.481 166.283 592.607C165.989 592.733 165.724 592.921 165.508 593.158C165.292 593.394 165.129 593.674 165.029 593.979C164.93 594.284 164.897 594.606 164.932 594.925C165.001 595.583 165.308 596.193 165.795 596.64C166.281 597.088 166.915 597.342 167.576 597.355V597.355ZM198.491 593.282C198.938 593.292 199.366 593.464 199.695 593.766C200.024 594.069 200.232 594.48 200.279 594.925C200.292 595.122 200.263 595.32 200.196 595.505C200.128 595.691 200.022 595.86 199.886 596.003C199.751 596.153 199.586 596.271 199.402 596.351C199.217 596.431 199.017 596.47 198.816 596.465H167.551C167.103 596.455 166.674 596.281 166.344 595.977C166.015 595.673 165.808 595.259 165.762 594.814C165.74 594.613 165.761 594.411 165.823 594.219C165.885 594.027 165.987 593.851 166.122 593.701C166.258 593.554 166.423 593.438 166.608 593.359C166.792 593.281 166.991 593.243 167.191 593.248L198.491 593.282Z" fill="#182F43"/>
<path d="M168.286 605.355H199.56C199.881 605.362 200.199 605.301 200.494 605.175C200.789 605.05 201.054 604.863 201.271 604.627C201.487 604.389 201.651 604.109 201.753 603.804C201.854 603.499 201.891 603.176 201.862 602.856C201.793 602.198 201.486 601.588 201 601.141C200.513 600.693 199.879 600.439 199.218 600.426H167.952C167.632 600.422 167.316 600.485 167.022 600.613C166.729 600.74 166.466 600.927 166.25 601.163C166.034 601.399 165.871 601.678 165.77 601.982C165.67 602.285 165.635 602.606 165.668 602.924C165.732 603.579 166.034 604.188 166.516 604.636C166.999 605.083 167.628 605.339 168.286 605.355ZM199.201 601.282C199.648 601.29 200.077 601.461 200.406 601.764C200.736 602.067 200.943 602.479 200.989 602.924C201.009 603.126 200.987 603.329 200.926 603.522C200.864 603.715 200.763 603.893 200.63 604.045C200.492 604.191 200.326 604.306 200.142 604.384C199.958 604.462 199.76 604.501 199.56 604.499H168.286C167.839 604.491 167.41 604.319 167.08 604.017C166.751 603.714 166.543 603.301 166.498 602.856C166.477 602.654 166.499 602.45 166.563 602.257C166.626 602.064 166.729 601.886 166.865 601.735C167.002 601.588 167.167 601.472 167.352 601.394C167.536 601.316 167.735 601.278 167.935 601.282H199.201Z" fill="#182F43"/>
<path d="M169.004 613.355H200.27C200.59 613.361 200.908 613.3 201.203 613.174C201.498 613.047 201.762 612.86 201.978 612.623C202.195 612.387 202.358 612.107 202.457 611.802C202.557 611.497 202.59 611.175 202.554 610.856C202.485 610.198 202.179 609.588 201.692 609.141C201.205 608.693 200.571 608.439 199.91 608.426H168.645C168.324 608.422 168.006 608.486 167.712 608.613C167.418 608.741 167.155 608.929 166.939 609.166C166.723 609.403 166.56 609.683 166.46 609.987C166.36 610.292 166.326 610.614 166.36 610.933C166.429 611.59 166.736 612.199 167.223 612.645C167.71 613.091 168.344 613.344 169.004 613.355ZM199.885 609.282C200.333 609.292 200.762 609.465 201.091 609.769C201.42 610.073 201.627 610.487 201.673 610.933C201.696 611.133 201.676 611.335 201.615 611.526C201.553 611.718 201.451 611.894 201.316 612.042C201.18 612.19 201.014 612.308 200.829 612.387C200.645 612.466 200.445 612.504 200.244 612.499H168.978C168.531 612.489 168.102 612.317 167.771 612.015C167.441 611.713 167.231 611.301 167.181 610.856C167.161 610.655 167.183 610.452 167.246 610.26C167.31 610.069 167.413 609.893 167.549 609.744C167.684 609.595 167.85 609.477 168.034 609.397C168.219 609.318 168.418 609.278 168.619 609.282H199.885Z" fill="#182F43"/>
<path d="M110.463 575.916H142.122C142.815 575.927 143.502 575.792 144.139 575.519C144.776 575.246 145.348 574.842 145.819 574.334C146.286 573.815 146.64 573.205 146.858 572.542C147.076 571.879 147.154 571.178 147.085 570.483L140.462 494.783C140.308 493.333 139.631 491.989 138.556 491.003C137.482 490.016 136.085 489.456 134.627 489.427H126.395C126.031 489.42 125.678 489.557 125.413 489.808C125.149 490.06 124.995 490.405 124.983 490.77V491.027C124.968 491.535 124.752 492.017 124.384 492.368C124.016 492.718 123.524 492.91 123.015 492.901H115.22C114.664 492.889 114.127 492.692 113.696 492.34C113.265 491.988 112.964 491.501 112.842 490.958L112.782 490.693C112.706 490.336 112.51 490.016 112.226 489.785C111.943 489.555 111.59 489.429 111.224 489.427H102.993C102.297 489.413 101.605 489.548 100.965 489.822C100.325 490.097 99.7507 490.505 99.2809 491.019C98.8112 491.534 98.4566 492.142 98.2409 492.805C98.0252 493.467 97.9534 494.168 98.0303 494.86L104.653 570.56C104.806 572.006 105.48 573.347 106.549 574.332C107.618 575.318 109.009 575.881 110.463 575.916ZM134.644 490.282C135.888 490.312 137.078 490.793 137.994 491.635C138.91 492.477 139.489 493.623 139.624 494.86L146.246 570.56C146.31 571.133 146.25 571.713 146.072 572.262C145.893 572.81 145.6 573.314 145.211 573.74C144.822 574.166 144.347 574.504 143.818 574.732C143.288 574.959 142.716 575.072 142.139 575.061H110.48C109.236 575.031 108.046 574.55 107.13 573.708C106.214 572.866 105.635 571.72 105.5 570.483L98.8774 494.783C98.8139 494.209 98.8737 493.629 99.0527 493.08C99.2318 492.531 99.5259 492.026 99.9156 491.6C100.305 491.174 100.781 490.836 101.312 490.609C101.843 490.382 102.416 490.27 102.993 490.282H111.224C111.394 490.287 111.557 490.348 111.688 490.454C111.82 490.561 111.912 490.708 111.952 490.873L112.003 491.138C112.171 491.871 112.579 492.526 113.161 493.001C113.744 493.475 114.469 493.741 115.22 493.756H123.041C123.772 493.77 124.479 493.495 125.008 492.99C125.537 492.485 125.845 491.792 125.865 491.061V490.804C125.867 490.734 125.883 490.664 125.912 490.599C125.941 490.535 125.983 490.477 126.035 490.428C126.086 490.38 126.147 490.342 126.213 490.317C126.28 490.292 126.35 490.28 126.421 490.282H134.644Z" fill="#182F43"/>
<path d="M99.0495 501.312H140.66V502.167H99.0495V501.312Z" fill="#182F43"/>
<path d="M108.443 567.077H142.122L140.034 542.794H106.321L108.443 567.077ZM141.189 566.222H109.231L107.254 543.65H139.178L141.189 566.222Z" fill="#182F43"/>
<path d="M139.349 542.888L139.867 543.568L109.1 566.989L108.582 566.309L139.349 542.888Z" fill="#182F43"/>
<path d="M107.025 542.883L141.893 566.305L141.416 567.015L106.548 543.593L107.025 542.883Z" fill="#182F43"/>
<path d="M104.037 516.74H137.716L136.928 507.738H103.241L104.037 516.74ZM136.783 515.884H104.824L104.183 508.594H136.141L136.783 515.884Z" fill="#182F43"/>
<path d="M103.819 507.744L137.35 515.899L137.148 516.731L103.617 508.575L103.819 507.744Z" fill="#182F43"/>
<path d="M136.446 507.738L136.656 508.567L104.551 516.715L104.341 515.886L136.446 507.738Z" fill="#182F43"/>
<path d="M105.064 528.454H138.743L137.956 519.444H104.277L105.064 528.454ZM137.81 527.599H105.809L105.167 520.3H137.169L137.81 527.599Z" fill="#182F43"/>
<path d="M104.839 519.461L138.37 527.616L138.168 528.448L104.637 520.292L104.839 519.461Z" fill="#182F43"/>
<path d="M137.469 519.453L137.68 520.282L105.575 528.43L105.364 527.6L137.469 519.453Z" fill="#182F43"/>
<path d="M106.09 540.167H139.768L138.981 531.157H105.303L106.09 540.167ZM138.836 539.312H106.868L106.235 532.013H138.194L138.836 539.312Z" fill="#182F43"/>
<path d="M105.869 531.162L139.4 539.317L139.198 540.149L105.667 531.993L105.869 531.162Z" fill="#182F43"/>
<path d="M138.493 531.167L138.703 531.996L106.598 540.144L106.388 539.314L138.493 531.167Z" fill="#182F43"/>
<path d="M217.125 374.429H241.956L266.949 660.283H242.118C236.453 660.181 231.022 658.008 226.851 654.173C222.681 650.339 220.06 645.109 219.484 639.473L198.11 395.239C197.82 392.588 198.099 389.906 198.927 387.37C199.756 384.835 201.115 382.506 202.914 380.537C204.713 378.568 206.911 377.005 209.361 375.952C211.811 374.898 214.458 374.379 217.125 374.429V374.429Z" fill="#263238"/>
<path d="M245.944 660.424H345.41C348.004 660.471 350.577 659.95 352.96 658.895C355.342 657.84 357.479 656.275 359.227 654.306C360.975 652.336 362.296 650.006 363.1 647.471C363.904 644.936 364.173 642.254 363.89 639.603L343.095 395.25C342.535 389.611 339.984 384.379 335.924 380.542C331.864 376.706 326.578 374.531 321.064 374.43H221.598C219.004 374.381 216.429 374.902 214.045 375.956C211.662 377.01 209.524 378.574 207.775 380.544C206.025 382.514 204.704 384.845 203.9 387.381C203.095 389.916 202.825 392.599 203.108 395.25L223.913 639.603C224.475 645.241 227.027 650.473 231.086 654.309C235.145 658.145 240.431 660.32 245.944 660.424Z" fill="#182F43"/>
<path d="M249.193 378.703L249.186 378.703L222.631 378.703C220.507 378.663 218.398 379.076 216.446 379.914C214.492 380.753 212.74 381.999 211.305 383.569C209.871 385.139 208.788 386.997 208.128 389.018C207.469 391.038 207.248 393.175 207.479 395.287C207.479 395.289 207.479 395.291 207.479 395.293L228.842 639.515L228.843 639.522C229.303 643.987 231.381 648.129 234.686 651.165C237.991 654.202 242.293 655.924 246.78 656.006L246.789 656.006L348.973 656.006C351.097 656.044 353.203 655.629 355.154 654.789C357.105 653.948 358.855 652.702 360.288 651.132C361.72 649.563 362.801 647.706 363.46 645.686C364.118 643.668 364.339 641.532 364.108 639.422C364.107 639.42 364.107 639.418 364.107 639.417L342.744 395.194L342.743 395.187L342.743 395.187C342.286 390.723 340.209 386.582 336.906 383.545C333.603 380.507 329.302 378.785 324.816 378.703L324.807 378.703V378.703H298.223C297.274 378.686 296.356 379.044 295.668 379.698C294.979 380.354 294.577 381.255 294.548 382.206L294.548 382.213V382.221V383.045C294.494 384.91 293.707 386.679 292.357 387.967C291.006 389.257 289.199 389.961 287.331 389.925L287.321 389.925L262.075 389.925C260.077 389.886 258.149 389.177 256.602 387.912C255.054 386.646 253.977 384.897 253.543 382.945L249.193 378.703ZM249.193 378.703C250.171 378.715 251.117 379.06 251.874 379.68C252.632 380.3 253.156 381.158 253.362 382.115C253.362 382.115 253.362 382.116 253.362 382.116L253.542 382.943L249.193 378.703Z" fill="white" stroke="#182F43"/>
<g opacity="0.2">
<path opacity="0.2" d="M280.129 381.906C280.183 382.457 280.437 382.968 280.844 383.343C281.251 383.719 281.782 383.931 282.335 383.94C282.595 383.944 282.853 383.893 283.092 383.79C283.331 383.687 283.546 383.534 283.721 383.341C283.896 383.149 284.028 382.921 284.109 382.674C284.189 382.426 284.216 382.165 284.188 381.906C284.132 381.357 283.876 380.847 283.47 380.474C283.063 380.101 282.534 379.89 281.982 379.881C281.722 379.877 281.465 379.928 281.227 380.031C280.989 380.133 280.775 380.285 280.6 380.477C280.425 380.668 280.292 380.894 280.211 381.141C280.13 381.387 280.102 381.648 280.129 381.906V381.906Z" fill="black"/>
<path opacity="0.2" d="M265.563 379.881H272.516C273.068 379.89 273.597 380.101 274.004 380.474C274.41 380.848 274.666 381.357 274.722 381.906C274.752 382.164 274.726 382.426 274.647 382.673C274.568 382.921 274.436 383.149 274.262 383.341C274.087 383.534 273.873 383.687 273.635 383.79C273.396 383.894 273.139 383.945 272.879 383.94H265.916C265.363 383.931 264.832 383.719 264.426 383.344C264.019 382.968 263.764 382.457 263.71 381.906C263.682 381.648 263.708 381.386 263.789 381.139C263.87 380.892 264.002 380.665 264.178 380.474C264.353 380.282 264.567 380.13 264.806 380.028C265.045 379.926 265.303 379.876 265.563 379.881V379.881Z" fill="black"/>
</g>
<path d="M330.7 391.872H328.551L328.36 389.724H330.509L330.7 391.872Z" fill="#182F43"/>
<path d="M326.211 389.725L326.402 391.874H324.253L324.062 389.725L323.88 387.576H326.029L326.211 389.725Z" fill="#182F43"/>
<path d="M321.541 385.426L321.732 387.575L321.914 389.723L322.105 391.872H319.956L319.765 389.723L319.584 387.575L319.393 385.426H321.541Z" fill="#182F43"/>
<path d="M229.15 384.084L229.283 385.66H230.334L230.611 388.811H229.56L229.704 390.387H220.249L219.704 384.084H229.15ZM225.33 388.811H228.481L228.204 385.66H225.053L225.33 388.811Z" fill="#263238"/>
<path d="M233.428 554.416H371.642L360.01 421.513H221.806L233.428 554.416Z" fill="#263238"/>
<path d="M314.444 627.656H379.157L373.714 565.426H309L314.444 627.656Z" fill="#182F43"/>
<path d="M237.085 550.414H375.29L363.667 417.511H225.453L237.085 550.414Z" fill="#FFC100" stroke="#182F43"/>
<path opacity="0.8" d="M244.773 513.807H361.193L353.753 428.751H237.333L244.773 513.807Z" fill="white"/>
<path d="M244.334 514.286H361.718L354.193 428.274H236.808L244.334 514.286ZM360.677 513.331H245.213L237.859 429.229H353.314L360.677 513.331Z" fill="#182F43"/>
<path d="M353.464 428.36L354.052 429.113L245.071 514.167L244.483 513.414L353.464 428.36Z" fill="#182F43"/>
<path d="M237.616 428.316L361.446 513.423L360.905 514.21L237.075 429.104L237.616 428.316Z" fill="#182F43"/>
<path d="M316.058 526.261C316.179 527.45 316.732 528.554 317.612 529.364C318.492 530.173 319.638 530.632 320.833 530.654C321.396 530.664 321.954 530.554 322.471 530.332C322.988 530.109 323.452 529.779 323.831 529.364C324.211 528.948 324.497 528.457 324.672 527.922C324.847 527.387 324.905 526.82 324.844 526.261C324.721 525.072 324.168 523.97 323.288 523.161C322.409 522.352 321.264 521.892 320.069 521.868C319.506 521.858 318.948 521.968 318.431 522.19C317.914 522.413 317.451 522.743 317.071 523.158C316.692 523.574 316.405 524.065 316.23 524.6C316.056 525.135 315.997 525.702 316.058 526.261V526.261Z" fill="#182F43"/>
<path d="M299.688 526.261C299.809 527.45 300.362 528.554 301.242 529.364C302.122 530.173 303.268 530.632 304.463 530.654C305.025 530.663 305.583 530.552 306.098 530.329C306.614 530.106 307.077 529.776 307.455 529.36C307.834 528.945 308.119 528.454 308.293 527.919C308.467 527.385 308.526 526.82 308.465 526.261C308.344 525.072 307.791 523.968 306.911 523.158C306.031 522.349 304.885 521.89 303.69 521.868C303.127 521.858 302.569 521.967 302.053 522.19C301.536 522.413 301.073 522.743 300.694 523.159C300.316 523.574 300.03 524.066 299.856 524.601C299.683 525.136 299.626 525.702 299.688 526.261V526.261Z" fill="#182F43"/>
<path d="M283.31 526.261C283.431 527.45 283.984 528.554 284.864 529.364C285.744 530.173 286.89 530.632 288.085 530.654C288.648 530.664 289.206 530.555 289.722 530.332C290.239 530.109 290.702 529.779 291.081 529.363C291.459 528.948 291.745 528.456 291.919 527.921C292.092 527.386 292.149 526.82 292.087 526.261C291.966 525.071 291.413 523.968 290.533 523.158C289.653 522.349 288.507 521.89 287.312 521.868C286.75 521.859 286.192 521.97 285.677 522.193C285.161 522.416 284.698 522.746 284.32 523.162C283.942 523.577 283.656 524.068 283.482 524.603C283.308 525.137 283.249 525.702 283.31 526.261V526.261Z" fill="#182F43"/>
<path d="M317.128 625.282H381.841L376.398 563.052H311.684L317.128 625.282Z" fill="#AA4337"/>
<path opacity="0.8" d="M316.687 625.807H382.366L376.836 562.621H311.158L316.687 625.807ZM381.315 624.852H317.566L312.208 563.576H375.957L381.315 624.852Z" fill="#182F43"/>
<path d="M320.728 608.138H375.242L371.756 568.312H317.242L320.728 608.138Z" fill="white"/>
<path d="M320.289 608.615H375.757L372.195 567.835H316.726L320.289 608.615ZM374.726 607.66H321.177L317.777 568.79H371.317L374.726 607.66Z" fill="#182F43"/>
<path d="M371.466 567.926L372.054 568.679L321.023 608.505L320.435 607.753L371.466 567.926Z" fill="#182F43"/>
<path d="M317.51 567.885L375.494 607.736L374.953 608.523L316.969 568.672L317.51 567.885Z" fill="#182F43"/>
<path d="M354.107 613.973C354.163 614.53 354.422 615.046 354.834 615.425C355.246 615.803 355.782 616.018 356.342 616.026C356.608 616.038 356.874 615.991 357.12 615.89C357.367 615.789 357.589 615.635 357.77 615.44C357.952 615.245 358.089 615.013 358.172 614.76C358.255 614.506 358.282 614.238 358.252 613.973C358.196 613.415 357.938 612.898 357.526 612.518C357.114 612.137 356.577 611.921 356.017 611.91C355.753 611.909 355.491 611.963 355.249 612.069C355.007 612.174 354.789 612.329 354.609 612.523C354.43 612.716 354.292 612.945 354.206 613.195C354.12 613.445 354.086 613.71 354.107 613.973V613.973Z" fill="#182F43"/>
<path d="M346.437 613.973C346.495 614.529 346.754 615.044 347.166 615.423C347.577 615.801 348.113 616.015 348.672 616.026C348.938 616.036 349.203 615.989 349.448 615.887C349.694 615.785 349.915 615.632 350.097 615.437C350.278 615.242 350.415 615.01 350.499 614.758C350.583 614.505 350.611 614.238 350.582 613.973C350.524 613.416 350.265 612.9 349.854 612.52C349.442 612.14 348.907 611.923 348.347 611.91C348.083 611.909 347.821 611.963 347.579 612.069C347.337 612.174 347.119 612.329 346.939 612.523C346.76 612.716 346.623 612.945 346.536 613.195C346.45 613.445 346.416 613.71 346.437 613.973V613.973Z" fill="#182F43"/>
<path d="M338.769 613.973C338.827 614.529 339.086 615.044 339.498 615.423C339.909 615.801 340.445 616.015 341.004 616.026C341.27 616.036 341.535 615.989 341.781 615.887C342.026 615.785 342.247 615.632 342.429 615.437C342.61 615.242 342.747 615.01 342.831 614.758C342.915 614.505 342.943 614.238 342.914 613.973C342.858 613.415 342.6 612.898 342.188 612.518C341.776 612.137 341.239 611.921 340.679 611.91C340.415 611.909 340.153 611.963 339.911 612.069C339.669 612.174 339.451 612.329 339.271 612.523C339.092 612.716 338.955 612.945 338.868 613.195C338.782 613.445 338.748 613.71 338.769 613.973V613.973Z" fill="#182F43"/>
<path d="M239.444 627.656H304.157L298.714 565.426H234L239.444 627.656Z" fill="#182F43"/>
<path d="M243.637 625.282H308.351L302.907 563.052H238.194L243.637 625.282Z" fill="#AA4337"/>
<g opacity="0.8">
<path d="M243.198 625.807H308.867L303.337 562.621H237.668L243.198 625.807ZM307.826 624.852H244.029L238.661 563.576H302.468L307.826 624.852Z" fill="#182F43"/>
</g>
<path d="M247.239 608.138H301.753L298.267 568.312H243.753L247.239 608.138Z" fill="white"/>
<path d="M246.798 608.615H302.286L298.724 567.835H243.246L246.798 608.615ZM301.236 607.66H247.686L244.287 568.79H297.826L301.236 607.66Z" fill="#182F43"/>
<path d="M297.967 567.917L298.555 568.67L247.524 608.497L246.936 607.744L297.967 567.917Z" fill="#182F43"/>
<path d="M244.022 567.89L302.006 607.741L301.465 608.528L243.481 568.677L244.022 567.89Z" fill="#182F43"/>
<path d="M280.616 613.973C280.672 614.53 280.93 615.047 281.342 615.425C281.754 615.804 282.291 616.018 282.851 616.027C283.117 616.038 283.383 615.992 283.629 615.89C283.876 615.789 284.098 615.636 284.279 615.441C284.461 615.245 284.598 615.013 284.681 614.76C284.764 614.507 284.791 614.238 284.761 613.973C284.705 613.416 284.446 612.898 284.035 612.518C283.623 612.138 283.086 611.922 282.526 611.91C282.259 611.9 281.993 611.948 281.747 612.051C281.5 612.153 281.278 612.307 281.097 612.503C280.916 612.699 280.779 612.932 280.696 613.186C280.612 613.439 280.585 613.708 280.616 613.973V613.973Z" fill="#182F43"/>
<path d="M272.948 613.973C273.004 614.53 273.263 615.047 273.675 615.425C274.087 615.804 274.623 616.018 275.183 616.027C275.449 616.038 275.715 615.992 275.961 615.89C276.208 615.789 276.43 615.636 276.611 615.441C276.793 615.245 276.93 615.013 277.013 614.76C277.096 614.507 277.124 614.238 277.093 613.973C277.037 613.416 276.779 612.898 276.367 612.518C275.955 612.138 275.418 611.922 274.858 611.91C274.591 611.9 274.325 611.948 274.079 612.051C273.832 612.153 273.611 612.307 273.429 612.503C273.248 612.699 273.111 612.932 273.028 613.186C272.945 613.439 272.918 613.708 272.948 613.973V613.973Z" fill="#182F43"/>
<path d="M265.279 613.973C265.335 614.53 265.594 615.046 266.006 615.425C266.417 615.803 266.954 616.018 267.514 616.026C267.779 616.036 268.044 615.989 268.29 615.887C268.536 615.785 268.757 615.632 268.938 615.437C269.12 615.242 269.257 615.01 269.341 614.758C269.424 614.505 269.453 614.238 269.424 613.973C269.366 613.415 269.105 612.897 268.692 612.517C268.279 612.137 267.741 611.921 267.179 611.91C266.916 611.911 266.655 611.966 266.414 612.072C266.173 612.178 265.956 612.332 265.778 612.526C265.599 612.72 265.463 612.948 265.377 613.197C265.291 613.446 265.258 613.71 265.279 613.973Z" fill="#182F43"/>
<path d="M244.713 411.089C244.758 411.605 245.191 412.001 245.709 412.001H312.102C312.688 412.001 313.149 411.499 313.098 410.914L312.471 403.746C312.425 403.229 311.993 402.833 311.474 402.833H245.082C244.495 402.833 244.035 403.336 244.086 403.92L244.713 411.089Z" fill="#182F43"/>
<path d="M320.746 409.947H331.318V410.902H320.746V409.947Z" fill="#182F43"/>
<path d="M320.442 406.375H331.015V407.33H320.442V406.375Z" fill="#182F43"/>
<path d="M320.127 402.804H330.7V403.759H320.127V402.804Z" fill="#182F43"/>
<g opacity="0.2">
<path opacity="0.2" d="M287.243 390.428L357.783 652.711C355.221 654.558 352.135 655.539 348.977 655.509H343.457L272.173 390.428H287.243Z" fill="white"/>
</g>
<path d="M208.281 397.408H342.493V398.841H208.281V397.408Z" fill="#182F43"/>
<path d="M553.944 439.534L528 439.529C527.185 439.508 526.385 439.759 525.73 440.243C525.075 440.727 524.601 441.415 524.384 442.198L524.181 442.969C523.657 444.88 522.966 448.837 521.368 450.016C519.77 451.195 520.37 451.476 515.309 451.475L490.705 451.47C488.817 451.423 486.134 450.538 486.003 449.371C485.852 448.036 485.967 445.276 486.001 443.396L486.001 442.898C486.001 441.405 485.535 440.966 485.001 440.409C484.467 439.851 483.378 439.349 482.605 439.329L457.739 438.908C453.626 438.786 449.612 440.169 446.455 442.796C443.299 445.422 441.219 449.11 440.609 453.161L408.876 682.316C408.573 684.22 408.682 686.166 409.193 688.026C409.705 689.885 410.609 691.615 411.845 693.1C413.08 694.584 414.619 695.79 416.359 696.636C418.099 697.483 420 697.95 421.935 698.008L518.818 698.028C522.931 698.147 526.946 696.761 530.102 694.133C533.258 691.505 535.338 687.816 535.948 683.763L567.014 455.217C567.315 453.313 567.206 451.366 566.692 449.507C566.179 447.648 565.274 445.919 564.038 444.436C562.801 442.952 561.261 441.747 559.521 440.902C557.78 440.057 555.879 439.591 553.944 439.534Z" fill="#182F43"/>
<path d="M557.712 443.641L532.449 443.655C531.615 443.633 530.799 443.881 530.13 444.36C529.461 444.839 528.978 445.522 528.758 446.299L528.551 447.063C528.019 448.959 527.318 452.885 525.687 454.053C524.056 455.22 523.427 455.445 518.258 455.437L493.12 455.398C491.192 455.348 488.268 454.796 488.023 452.714C487.868 451.389 487.673 448.932 487.705 447.067L487.742 446.295C487.758 445.53 487.461 444.79 486.915 444.236C486.369 443.682 485.619 443.359 484.829 443.338L459.423 442.885C455.222 442.759 451.123 444.126 447.901 446.728C444.68 449.33 442.56 452.987 441.943 457.007L409.841 684.369C409.535 686.258 409.648 688.19 410.173 690.036C410.699 691.882 411.625 693.599 412.889 695.075C414.154 696.55 415.728 697.748 417.506 698.591C419.285 699.433 421.227 699.9 423.205 699.96L522.184 700.113C526.387 700.237 530.486 698.868 533.707 696.264C536.928 693.66 539.048 690.002 539.665 685.982L571.087 459.222C571.392 457.333 571.277 455.401 570.75 453.556C570.223 451.71 569.296 449.993 568.031 448.519C566.765 447.045 565.19 445.847 563.411 445.006C561.632 444.165 559.689 443.7 557.712 443.641Z" fill="#182F43"/>
<path d="M553.178 440.664L528.744 440.718C527.938 440.697 527.148 440.946 526.5 441.426C525.853 441.906 525.384 442.59 525.17 443.367L524.969 444.132C524.451 446.028 523.767 449.954 522.188 451.125C520.609 452.295 520 452.521 515 452.521L490.688 452.521C488.823 452.474 485.996 451.926 485.763 449.845C485.614 448.521 485.43 446.064 485.464 444.199L485.5 443.426C485.517 442.662 485.231 441.922 484.704 441.369C484.176 440.816 483.451 440.494 482.687 440.475L458.117 440.061C454.053 439.942 450.087 441.315 446.967 443.922C443.848 446.529 441.792 450.189 441.188 454.209L409.787 681.604C409.488 683.493 409.594 685.425 410.1 687.27C410.605 689.115 411.498 690.831 412.719 692.304C413.939 693.777 415.46 694.973 417.179 695.813C418.898 696.652 420.776 697.116 422.688 697.173L518.418 697.173C522.483 697.29 526.449 695.915 529.569 693.306C532.688 690.698 534.744 687.037 535.347 683.015L566.089 456.224C566.387 454.334 566.279 452.403 565.772 450.558C565.266 448.713 564.372 446.998 563.15 445.526C561.928 444.054 560.407 442.859 558.688 442.021C556.968 441.182 555.09 440.72 553.178 440.664Z" fill="#FBFBFF"/>
<path d="M539.454 539.069L497.637 539.069C497.285 539.058 496.938 538.974 496.621 538.822C496.304 538.671 496.024 538.456 495.798 538.192C495.572 537.927 495.407 537.619 495.313 537.288C495.218 536.957 495.197 536.61 495.251 536.271L500.066 501.323C500.175 500.601 500.553 499.944 501.128 499.476C501.703 499.009 502.434 498.763 503.184 498.786L545 498.786C545.354 498.795 545.701 498.878 546.018 499.029C546.336 499.18 546.617 499.395 546.843 499.66C547.069 499.925 547.234 500.233 547.328 500.565C547.422 500.897 547.442 501.244 547.387 501.583L542.572 536.531C542.461 537.253 542.082 537.909 541.508 538.376C540.934 538.843 540.203 539.09 539.454 539.069Z" fill="white" stroke="#182F43"/>
<path d="M485.5 538.984L443.454 538.984C443.101 538.973 442.755 538.889 442.438 538.738C442.121 538.586 441.84 538.371 441.614 538.107C441.389 537.842 441.223 537.534 441.129 537.203C441.035 536.872 441.014 536.526 441.067 536.186L445.882 501.238C445.992 500.516 446.37 499.859 446.944 499.391C447.519 498.924 448.251 498.678 449 498.701L491.047 498.701C491.4 498.711 491.747 498.794 492.065 498.944C492.383 499.095 492.664 499.31 492.89 499.575C493.116 499.84 493.281 500.148 493.375 500.48C493.468 500.812 493.488 501.159 493.433 501.498L488.619 536.447C488.507 537.168 488.129 537.824 487.555 538.291C486.98 538.758 486.25 539.005 485.5 538.984Z" fill="white" stroke="#182F43"/>
<g filter="url(#filter0_d_1512_6867)">
<path d="M513.895 678.738L429.82 678.739C428.764 678.683 427.733 678.404 426.794 677.919C425.855 677.434 425.03 676.754 424.375 675.925C423.72 675.096 423.249 674.136 422.993 673.111C422.738 672.086 422.704 671.017 422.894 669.978C423.28 667.766 424.463 665.772 426.219 664.372C427.975 662.973 430.183 662.265 432.425 662.383L516.501 662.382C517.556 662.438 518.588 662.717 519.526 663.202C520.465 663.687 521.29 664.367 521.945 665.196C522.601 666.025 523.072 666.985 523.327 668.01C523.583 669.035 523.617 670.104 523.427 671.143C523.043 673.356 521.86 675.352 520.104 676.751C518.347 678.151 516.138 678.858 513.895 678.738Z" fill="white"/>
<path d="M513.895 678.738L429.82 678.739C428.764 678.683 427.733 678.404 426.794 677.919C425.855 677.434 425.03 676.754 424.375 675.925C423.72 675.096 423.249 674.136 422.993 673.111C422.738 672.086 422.704 671.017 422.894 669.978C423.28 667.766 424.463 665.772 426.219 664.372C427.975 662.973 430.183 662.265 432.425 662.383L516.501 662.382C517.556 662.438 518.588 662.717 519.526 663.202C520.465 663.687 521.29 664.367 521.945 665.196C522.601 666.025 523.072 666.985 523.327 668.01C523.583 669.035 523.617 670.104 523.427 671.143C523.043 673.356 521.86 675.352 520.104 676.751C518.347 678.151 516.138 678.858 513.895 678.738Z" stroke="#182F43"/>
</g>
<path d="M534.28 485.95L452.505 485.95C451.874 485.938 451.252 485.798 450.682 485.538C450.112 485.279 449.608 484.907 449.204 484.447C448.8 483.988 448.506 483.452 448.342 482.877C448.177 482.301 448.147 481.7 448.252 481.114L449.26 473.935C449.458 472.691 450.132 471.562 451.155 470.758C452.178 469.955 453.479 469.533 454.814 469.573L536.589 469.572C537.217 469.591 537.835 469.736 538.4 469.997C538.966 470.258 539.468 470.629 539.871 471.085C540.274 471.542 540.57 472.073 540.74 472.645C540.909 473.216 540.948 473.814 540.853 474.399L539.834 481.577C539.639 482.823 538.966 483.955 537.943 484.761C536.919 485.566 535.616 485.989 534.28 485.95Z" fill="white" stroke="#182F43"/>
<path d="M548.675 472.826C548.623 473.174 548.446 473.49 548.176 473.715C547.907 473.94 547.564 474.059 547.213 474.048C547.048 474.042 546.886 474.002 546.738 473.929C546.59 473.857 546.459 473.754 546.354 473.627C546.249 473.5 546.172 473.352 546.128 473.193C546.084 473.034 546.074 472.868 546.1 472.705C546.152 472.358 546.329 472.043 546.599 471.82C546.869 471.597 547.211 471.48 547.561 471.494C547.725 471.498 547.887 471.536 548.035 471.608C548.183 471.679 548.314 471.781 548.42 471.908C548.525 472.034 548.603 472.181 548.647 472.34C548.691 472.498 548.7 472.664 548.675 472.826V472.826Z" fill="#AA4337"/>
<path d="M548.153 477.835C548.104 478.182 547.929 478.498 547.661 478.723C547.393 478.949 547.052 479.067 546.702 479.057C546.537 479.051 546.375 479.011 546.227 478.939C546.079 478.866 545.948 478.763 545.843 478.636C545.738 478.509 545.661 478.361 545.617 478.202C545.573 478.043 545.563 477.877 545.588 477.714C545.638 477.367 545.813 477.051 546.081 476.826C546.349 476.6 546.69 476.482 547.04 476.492C547.205 476.497 547.367 476.538 547.515 476.61C547.663 476.683 547.794 476.786 547.899 476.913C548.004 477.04 548.081 477.188 548.125 477.347C548.169 477.506 548.179 477.672 548.153 477.835V477.835Z" fill="#FFC100"/>
<path d="M547.643 482.836C547.591 483.183 547.414 483.499 547.144 483.724C546.875 483.949 546.532 484.068 546.181 484.057C546.017 484.051 545.855 484.011 545.707 483.939C545.559 483.866 545.428 483.763 545.322 483.636C545.217 483.509 545.14 483.361 545.096 483.202C545.052 483.043 545.043 482.877 545.068 482.714C545.12 482.366 545.297 482.05 545.567 481.825C545.836 481.6 546.179 481.482 546.53 481.492C546.695 481.498 546.856 481.538 547.004 481.611C547.153 481.683 547.283 481.787 547.389 481.913C547.494 482.04 547.571 482.188 547.615 482.347C547.659 482.506 547.668 482.673 547.643 482.836V482.836Z" fill="#182F43"/>
<path d="M527.5 610.922L434.152 610.922C433.726 610.911 433.308 610.808 432.925 610.622C432.543 610.436 432.204 610.17 431.932 609.843C431.66 609.515 431.462 609.134 431.349 608.723C431.237 608.313 431.213 607.883 431.28 607.462L438.5 556.383C438.633 555.489 439.09 554.675 439.783 554.095C440.477 553.515 441.359 553.21 442.262 553.237L535.277 552.933C535.702 552.947 536.119 553.05 536.5 553.237C536.881 553.423 537.219 553.689 537.489 554.017C537.76 554.344 537.958 554.725 538.07 555.135C538.182 555.545 538.205 555.974 538.138 556.393L531.272 607.777C531.139 608.673 530.681 609.488 529.985 610.068C529.29 610.648 528.405 610.952 527.5 610.922Z" fill="white" stroke="#182F43"/>
<path d="M460.767 621.787L431.048 621.63C430.945 621.63 430.843 621.607 430.749 621.564C430.656 621.521 430.573 621.458 430.505 621.38C430.438 621.302 430.388 621.211 430.359 621.112C430.33 621.013 430.322 620.909 430.337 620.807C430.363 620.588 430.469 620.386 430.634 620.24C430.8 620.094 431.014 620.014 431.234 620.016L460.954 620.172C461.058 620.173 461.16 620.195 461.255 620.239C461.349 620.283 461.433 620.347 461.5 620.426C461.568 620.505 461.618 620.598 461.646 620.698C461.674 620.798 461.68 620.903 461.664 621.006C461.636 621.223 461.529 621.423 461.364 621.566C461.199 621.71 460.986 621.789 460.767 621.787Z" fill="#AA4337"/>
<path d="M497 621.926L465.802 621.99C465.698 621.991 465.595 621.969 465.5 621.927C465.406 621.884 465.321 621.822 465.253 621.743C465.184 621.665 465.133 621.573 465.104 621.474C465.074 621.374 465.066 621.269 465.081 621.166C465.107 620.947 465.213 620.745 465.378 620.599C465.544 620.453 465.758 620.373 465.978 620.375L497.186 620.312C497.29 620.312 497.393 620.335 497.487 620.379C497.582 620.422 497.666 620.486 497.733 620.565C497.801 620.644 497.85 620.737 497.878 620.837C497.907 620.937 497.913 621.042 497.897 621.145C497.869 621.362 497.762 621.562 497.596 621.706C497.431 621.85 497.219 621.928 497 621.926Z" fill="#182F43"/>
<path d="M450.236 628.793L430.243 628.779C430.138 628.779 430.035 628.756 429.941 628.712C429.846 628.669 429.761 628.605 429.693 628.526C429.625 628.447 429.574 628.355 429.545 628.254C429.515 628.154 429.507 628.049 429.522 627.946C429.55 627.727 429.657 627.527 429.822 627.381C429.987 627.235 430.199 627.155 430.419 627.154L450.454 627.169C450.558 627.171 450.66 627.195 450.754 627.24C450.848 627.284 450.932 627.347 451 627.426C451.068 627.504 451.119 627.596 451.149 627.696C451.179 627.795 451.188 627.9 451.175 628.003C451.146 628.228 451.034 628.434 450.86 628.581C450.686 628.727 450.463 628.803 450.236 628.793Z" fill="#182F43"/>
<path d="M488.4 629.299L455.748 629.074C455.644 629.073 455.541 629.051 455.446 629.007C455.351 628.964 455.266 628.9 455.198 628.821C455.129 628.743 455.079 628.65 455.049 628.55C455.019 628.45 455.011 628.345 455.026 628.241C455.054 628.021 455.161 627.819 455.328 627.673C455.495 627.527 455.71 627.447 455.932 627.448L488.574 627.674C488.679 627.674 488.782 627.697 488.876 627.741C488.971 627.784 489.056 627.847 489.124 627.926C489.193 628.005 489.243 628.098 489.273 628.198C489.303 628.298 489.311 628.403 489.297 628.506C489.271 628.726 489.165 628.928 489 629.074C488.835 629.22 488.621 629.301 488.4 629.299Z" fill="#828282"/>
<path d="M482.399 636.136L429.426 635.917C429.323 635.918 429.22 635.896 429.125 635.854C429.03 635.811 428.945 635.749 428.877 635.67C428.808 635.592 428.758 635.5 428.728 635.401C428.698 635.301 428.691 635.196 428.705 635.093C428.734 634.873 428.842 634.671 429.009 634.525C429.176 634.38 429.391 634.3 429.613 634.302L482.586 634.522C482.69 634.524 482.792 634.548 482.886 634.592C482.98 634.636 483.064 634.7 483.132 634.778C483.2 634.857 483.25 634.949 483.281 635.048C483.311 635.148 483.32 635.252 483.307 635.356C483.276 635.574 483.167 635.773 483 635.917C482.833 636.061 482.62 636.139 482.399 636.136Z" fill="#182F43"/>
<path d="M491.08 638.132L487.589 637.967C487.485 637.966 487.382 637.942 487.288 637.898C487.194 637.853 487.111 637.789 487.044 637.709C486.978 637.63 486.929 637.537 486.901 637.436C486.874 637.336 486.868 637.231 486.885 637.129V637.129C486.916 636.91 487.026 636.71 487.194 636.568C487.363 636.425 487.578 636.35 487.799 636.356L491.301 636.522C491.405 636.525 491.507 636.55 491.601 636.595C491.694 636.641 491.777 636.706 491.842 636.787C491.908 636.868 491.956 636.961 491.982 637.062C492.008 637.163 492.012 637.268 491.994 637.37C491.961 637.587 491.85 637.784 491.682 637.925C491.513 638.065 491.299 638.139 491.08 638.132V638.132Z" fill="white"/>
<path d="M453.431 642.998L428.601 643.065C428.497 643.063 428.395 643.039 428.301 642.995C428.207 642.951 428.123 642.887 428.055 642.809C427.988 642.73 427.937 642.638 427.907 642.539C427.876 642.439 427.867 642.335 427.88 642.231C427.909 642.011 428.017 641.809 428.184 641.664C428.351 641.518 428.566 641.438 428.788 641.44L453.618 641.373C453.723 641.373 453.826 641.396 453.92 641.44C454.015 641.484 454.1 641.547 454.168 641.626C454.236 641.705 454.287 641.798 454.316 641.898C454.346 641.998 454.354 642.103 454.339 642.207C454.311 642.427 454.203 642.629 454.035 642.774C453.868 642.92 453.653 643 453.431 642.998Z" fill="#828282"/>
<path d="M490.5 642.926L459.746 643.122C459.642 643.121 459.539 643.097 459.445 643.053C459.35 643.008 459.266 642.944 459.197 642.864C459.128 642.783 459.076 642.689 459.044 642.586C459.013 642.484 459.003 642.376 459.014 642.269C459.04 642.041 459.145 641.83 459.311 641.677C459.476 641.524 459.69 641.438 459.912 641.437L490.656 641.241C490.76 641.24 490.864 641.263 490.959 641.307C491.054 641.35 491.14 641.415 491.209 641.496C491.278 641.576 491.33 641.672 491.361 641.775C491.391 641.878 491.401 641.987 491.387 642.094C491.362 642.32 491.258 642.529 491.095 642.683C490.932 642.836 490.72 642.922 490.5 642.926Z" fill="#AA4337"/>
<path d="M458.349 650.44L427.803 650.44C427.699 650.442 427.596 650.42 427.501 650.378C427.406 650.336 427.321 650.273 427.252 650.195C427.184 650.117 427.133 650.025 427.103 649.925C427.073 649.826 427.065 649.721 427.08 649.618C427.104 649.4 427.208 649.199 427.371 649.053C427.534 648.906 427.745 648.824 427.965 648.823L458.5 648.822C458.604 648.82 458.708 648.84 458.803 648.881C458.899 648.922 458.984 648.983 459.054 649.06C459.124 649.137 459.176 649.228 459.207 649.328C459.238 649.427 459.247 649.531 459.234 649.635C459.212 649.854 459.109 650.058 458.946 650.206C458.782 650.355 458.57 650.438 458.349 650.44Z" fill="#AA4337"/>
<path d="M489.13 650.536L464.721 650.587C464.617 650.588 464.514 650.567 464.419 650.524C464.324 650.482 464.24 650.419 464.171 650.341C464.103 650.263 464.052 650.17 464.022 650.071C463.993 649.971 463.985 649.866 464 649.763C464.025 649.545 464.13 649.345 464.293 649.199C464.457 649.052 464.668 648.971 464.887 648.97L489.296 648.919C489.4 648.916 489.503 648.937 489.598 648.978C489.694 649.019 489.779 649.081 489.848 649.158C489.918 649.235 489.97 649.327 490.001 649.426C490.032 649.525 490.041 649.63 490.027 649.733C490.002 649.953 489.896 650.157 489.731 650.305C489.566 650.453 489.352 650.535 489.13 650.536Z" fill="#828282"/>
<path d="M538.867 537.358C538.79 537.437 538.699 537.5 538.597 537.543C538.495 537.586 538.386 537.61 538.275 537.611C538.164 537.613 538.054 537.593 537.95 537.552C537.847 537.512 537.753 537.452 537.674 537.376L504.907 503.688C504.758 503.527 504.681 503.315 504.691 503.098C504.701 502.881 504.799 502.677 504.962 502.531C505.039 502.452 505.13 502.39 505.232 502.346C505.334 502.303 505.443 502.28 505.554 502.278C505.665 502.276 505.775 502.296 505.878 502.337C505.982 502.377 506.076 502.437 506.155 502.513L538.922 536.201C539.071 536.362 539.148 536.574 539.138 536.791C539.128 537.008 539.03 537.212 538.867 537.358Z" fill="#182F43"/>
<path d="M485.73 536.547C485.654 536.625 485.562 536.688 485.46 536.731C485.359 536.775 485.249 536.798 485.138 536.8C485.027 536.801 484.917 536.781 484.814 536.741C484.711 536.701 484.617 536.64 484.537 536.564L451.77 502.877C451.622 502.716 451.544 502.504 451.554 502.287C451.565 502.07 451.662 501.866 451.825 501.719V501.719C451.902 501.641 451.994 501.578 452.095 501.535C452.197 501.491 452.306 501.468 452.417 501.466C452.528 501.465 452.639 501.485 452.742 501.525C452.845 501.566 452.939 501.626 453.018 501.702L485.785 535.389C485.934 535.55 486.012 535.763 486.001 535.979C485.991 536.196 485.894 536.4 485.73 536.547V536.547Z" fill="#182F43"/>
<path d="M498.857 535.652C498.778 535.546 498.723 535.427 498.695 535.301C498.667 535.175 498.665 535.045 498.691 534.918C498.717 534.792 498.77 534.672 498.846 534.566C498.923 534.459 499.021 534.368 499.135 534.299L517.969 521.119C518.179 520.963 518.446 520.892 518.713 520.921C518.979 520.95 519.224 521.076 519.393 521.273C519.47 521.378 519.524 521.497 519.551 521.622C519.579 521.747 519.579 521.876 519.554 522.001C519.528 522.126 519.475 522.245 519.4 522.351C519.325 522.456 519.228 522.547 519.115 522.617L500.281 535.806C500.071 535.962 499.803 536.033 499.537 536.004C499.27 535.975 499.026 535.849 498.857 535.652Z" fill="#182F43"/>
<path d="M446.21 534.953C446.139 534.842 446.089 534.716 446.064 534.583C446.038 534.45 446.038 534.312 446.063 534.179C446.088 534.045 446.137 533.918 446.208 533.806C446.279 533.693 446.37 533.596 446.476 533.522L463.921 519.484C464.116 519.318 464.363 519.242 464.609 519.271C464.854 519.299 465.078 519.431 465.234 519.637C465.304 519.748 465.352 519.874 465.377 520.005C465.401 520.137 465.401 520.273 465.377 520.406C465.352 520.538 465.303 520.664 465.233 520.776C465.163 520.888 465.073 520.984 464.968 521.058L447.523 535.107C447.328 535.272 447.081 535.348 446.835 535.32C446.59 535.291 446.365 535.159 446.21 534.953Z" fill="#182F43"/>
<path d="M523.281 518.607C523.215 518.516 523.169 518.414 523.145 518.307C523.121 518.199 523.12 518.089 523.143 517.981C523.165 517.874 523.21 517.772 523.275 517.681C523.34 517.591 523.424 517.513 523.522 517.453L542.641 504.232C542.823 504.099 543.054 504.038 543.284 504.063C543.515 504.087 543.726 504.196 543.873 504.364C543.939 504.455 543.985 504.557 544.009 504.664C544.033 504.772 544.034 504.882 544.011 504.99C543.989 505.097 543.944 505.199 543.879 505.29C543.814 505.38 543.73 505.458 543.632 505.518L524.513 518.739C524.331 518.873 524.1 518.933 523.87 518.909C523.639 518.884 523.428 518.775 523.281 518.607V518.607Z" fill="#182F43"/>
<path d="M469.341 516.055C469.275 515.964 469.228 515.862 469.204 515.755C469.181 515.648 469.18 515.537 469.202 515.43C469.225 515.322 469.27 515.22 469.335 515.13C469.4 515.039 469.484 514.961 469.581 514.902L488.701 501.68C488.882 501.547 489.113 501.486 489.344 501.511C489.574 501.536 489.785 501.644 489.932 501.813C489.998 501.903 490.045 502.005 490.069 502.113C490.092 502.22 490.093 502.331 490.071 502.438C490.048 502.545 490.003 502.647 489.938 502.738C489.873 502.829 489.79 502.906 489.692 502.966L470.572 516.188C470.391 516.321 470.16 516.382 469.929 516.357C469.699 516.332 469.488 516.224 469.341 516.055V516.055Z" fill="#182F43"/>
<path d="M556.819 471.714V477.118L551.663 479.83C551.463 479.938 551.295 480.097 551.178 480.293C551.062 480.488 551 480.711 551 480.938C551 481.166 551.062 481.389 551.178 481.584C551.295 481.78 551.463 481.939 551.663 482.047L556.819 484.759V490.163C556.819 490.74 557.048 491.293 557.456 491.701C557.864 492.109 558.418 492.338 558.995 492.338H577.443C578.021 492.338 578.576 492.109 578.985 491.702C579.395 491.294 579.626 490.741 579.629 490.163V471.714C579.629 471.135 579.399 470.579 578.989 470.169C578.579 469.759 578.023 469.528 577.443 469.528H558.964C558.391 469.536 557.844 469.771 557.442 470.18C557.04 470.589 556.816 471.141 556.819 471.714V471.714Z" fill="#AA4337"/>
<g opacity="0.9">
<path opacity="0.9" d="M563.13 477.345H573.617C573.959 477.345 574.287 477.209 574.529 476.967C574.77 476.725 574.906 476.397 574.906 476.056C574.906 475.714 574.77 475.386 574.529 475.144C574.287 474.902 573.959 474.767 573.617 474.767H563.13C562.788 474.767 562.46 474.902 562.218 475.144C561.977 475.386 561.841 475.714 561.841 476.056C561.841 476.397 561.977 476.725 562.218 476.967C562.46 477.209 562.788 477.345 563.13 477.345V477.345Z" fill="#182F43"/>
<path opacity="0.9" d="M573.617 479.696H563.13C562.788 479.696 562.46 479.832 562.218 480.074C561.977 480.316 561.841 480.643 561.841 480.985C561.841 481.327 561.977 481.655 562.218 481.897C562.46 482.138 562.788 482.274 563.13 482.274H573.617C573.959 482.274 574.287 482.138 574.529 481.897C574.77 481.655 574.906 481.327 574.906 480.985C574.906 480.643 574.77 480.316 574.529 480.074C574.287 479.832 573.959 479.696 573.617 479.696Z" fill="#182F43"/>
<path opacity="0.9" d="M573.617 484.532H563.13C562.788 484.532 562.46 484.668 562.218 484.91C561.977 485.151 561.841 485.479 561.841 485.821C561.841 486.163 561.977 486.491 562.218 486.733C562.46 486.974 562.788 487.11 563.13 487.11H573.617C573.959 487.11 574.287 486.974 574.529 486.733C574.77 486.491 574.906 486.163 574.906 485.821C574.906 485.479 574.77 485.151 574.529 484.91C574.287 484.668 573.959 484.532 573.617 484.532Z" fill="#182F43"/>
</g>
<path d="M438.902 449.078H444.312L447.1 454.3C447.283 454.64 447.557 454.925 447.892 455.123C448.227 455.322 448.61 455.427 449 455.427C449.39 455.427 449.773 455.322 450.108 455.123C450.443 454.925 450.717 454.64 450.9 454.3L453.688 449.078H459.098C459.611 449.078 460.12 448.977 460.594 448.783C461.068 448.588 461.499 448.303 461.862 447.943C462.224 447.584 462.511 447.157 462.707 446.688C462.902 446.218 463.002 445.716 463 445.208V425.284C463 424.261 462.589 423.28 461.857 422.556C461.125 421.833 460.133 421.427 459.098 421.427H438.902C438.389 421.425 437.881 421.524 437.407 421.717C436.933 421.91 436.502 422.194 436.139 422.553C435.777 422.911 435.489 423.337 435.294 423.806C435.098 424.275 434.998 424.777 435 425.284V445.321C435.026 446.326 435.449 447.282 436.178 447.984C436.907 448.685 437.885 449.078 438.902 449.078Z" fill="#182F43" stroke="#FBFBFF"/>
<path opacity="0.9" d="M448.994 427.427L443 430.995V441.427H447.459V434.427H450.541V441.427H455V430.995L448.994 427.427Z" fill="#FBFBFF"/>
<path d="M539.007 678.215L539.055 674.023L533.944 671.262C533.697 671.125 533.491 670.924 533.349 670.68C533.207 670.435 533.133 670.157 533.137 669.874C533.14 669.591 533.219 669.315 533.367 669.074C533.515 668.833 533.725 668.636 533.975 668.505L539.146 665.86L539.195 661.557C539.206 660.53 539.625 659.55 540.36 658.832C541.094 658.114 542.083 657.717 543.11 657.729L559.768 657.916C560.795 657.928 561.775 658.347 562.493 659.081C563.211 659.815 563.608 660.805 563.596 661.832L563.409 678.489C563.398 679.516 562.979 680.496 562.244 681.214C561.51 681.932 560.521 682.329 559.494 682.318L542.836 682.131C541.809 682.119 540.829 681.7 540.111 680.966C539.393 680.231 538.996 679.242 539.007 678.215Z" fill="#FFC100" stroke="#182F43"/>
<path opacity="0.9" d="M545.44 672.318C544.639 671.5 544.089 670.471 543.852 669.351C543.615 668.231 543.703 667.067 544.103 665.996C544.504 664.924 545.202 663.988 546.116 663.299C547.029 662.609 548.12 662.194 549.26 662.102C550.401 662.009 551.544 662.244 552.557 662.778C553.569 663.312 554.408 664.124 554.976 665.117C555.543 666.111 555.816 667.246 555.762 668.389C555.709 669.532 555.33 670.636 554.672 671.572C554.945 671.621 555.197 671.751 555.396 671.944L559.093 675.737C559.343 675.993 559.482 676.338 559.478 676.696C559.474 677.054 559.328 677.395 559.072 677.646C558.816 677.896 558.471 678.034 558.113 678.03C557.755 678.026 557.413 677.88 557.163 677.624L553.465 673.842C553.269 673.639 553.14 673.379 553.099 673.099C551.93 673.879 550.526 674.228 549.129 674.085C547.731 673.943 546.427 673.318 545.44 672.318V672.318ZM552.702 671.12C553.299 670.535 553.709 669.787 553.881 668.969C554.053 668.152 553.978 667.302 553.667 666.526C553.356 665.751 552.821 665.085 552.132 664.613C551.443 664.142 550.629 663.885 549.793 663.875C548.958 663.866 548.138 664.105 547.438 664.561C546.739 665.017 546.19 665.67 545.861 666.438C545.532 667.207 545.439 668.055 545.592 668.876C545.746 669.697 546.139 670.455 546.723 671.053C547.111 671.45 547.573 671.767 548.084 671.985C548.594 672.204 549.143 672.319 549.698 672.326C550.254 672.332 550.805 672.229 551.32 672.022C551.835 671.815 552.305 671.508 552.702 671.12Z" fill="#182F43"/>
<path d="M528.619 309.579H520.082V318.117H528.619V309.579Z" fill="#FBFBFF"/>
<path d="M516.935 321.717H508.397V330.255H516.935V321.717Z" fill="#FBFBFF"/>
<path d="M528.619 321.717H520.082V330.255H528.619V321.717Z" fill="#FBFBFF"/>
<path d="M516.935 333.847H508.397V342.384H516.935V333.847Z" fill="#FBFBFF"/>
<path d="M528.619 333.847H520.082V342.384H528.619V333.847Z" fill="#FBFBFF"/>
<path d="M516.935 345.981H508.397V354.519H516.935V345.981Z" fill="#FBFBFF"/>
<path d="M528.619 345.981H520.082V354.519H528.619V345.981Z" fill="#FBFBFF"/>
<path d="M516.935 358.114H508.397V366.652H516.935V358.114Z" fill="#FBFBFF"/>
<path d="M528.619 358.114H520.082V366.652H528.619V358.114Z" fill="#FBFBFF"/>
<path d="M516.935 370.25H508.397V378.788H516.935V370.25Z" fill="#FBFBFF"/>
<path d="M528.619 370.25H520.082V378.788H528.619V370.25Z" fill="#FBFBFF"/>
<path d="M516.935 382.376H508.397V390.914H516.935V382.376Z" fill="#FBFBFF"/>
<path d="M528.619 382.376H520.082V390.914H528.619V382.376Z" fill="#FBFBFF"/>
<path d="M618.189 314.966V339.166H652.462V314.966H618.189ZM651.112 337.816H619.539V316.316H651.112V337.816Z" fill="#FBFBFF"/>
<path d="M626.614 319.649H621.578V324.686H626.614V319.649Z" fill="#FBFBFF"/>
<path d="M637.846 319.649H632.809V324.686H637.846V319.649Z" fill="#FBFBFF"/>
<path d="M649.081 319.649H644.045V324.686H649.081V319.649Z" fill="#FBFBFF"/>
<path d="M626.614 328.944H621.578V333.981H626.614V328.944Z" fill="#FBFBFF"/>
<path d="M637.846 328.944H632.809V333.981H637.846V328.944Z" fill="#FBFBFF"/>
<path d="M649.081 328.944H644.045V333.981H649.081V328.944Z" fill="#FBFBFF"/>
<path d="M638.623 337.854H633.586V342.89H638.623V337.854Z" fill="#FBFBFF"/>
<path d="M649.854 337.854H644.818V342.89H649.854V337.854Z" fill="#FBFBFF"/>
<path d="M661.087 337.854H656.051V342.89H661.087V337.854Z" fill="#FBFBFF"/>
<path d="M638.623 347.151H633.586V352.188H638.623V347.151Z" fill="#FBFBFF"/>
<path d="M649.854 347.151H644.818V352.188H649.854V347.151Z" fill="#FBFBFF"/>
<path d="M661.087 347.151H656.051V352.188H661.087V347.151Z" fill="#FBFBFF"/>
<path d="M581.942 400.061H570.452V411.551H581.942V400.061Z" fill="#FBFBFF"/>
<path d="M588.359 417.15H575.519V404.31H588.359V417.15ZM576.869 415.8H587.009V405.66H576.869V415.8Z" fill="#FBFBFF"/>
<path d="M579.5 378.426C599.106 378.426 615 362.308 615 342.426C615 322.544 599.106 306.426 579.5 306.426C559.894 306.426 544 322.544 544 342.426C544 362.308 559.894 378.426 579.5 378.426Z" fill="#FFB700" stroke="#182F43"/>
<path d="M579.062 347.875V359.856H568.9L562.653 345.453L576.857 312.09H579.062V341.578C578.298 341.679 577.596 342.054 577.087 342.633C576.579 343.213 576.298 343.958 576.298 344.729C576.298 345.5 576.579 346.245 577.087 346.824C577.596 347.404 578.298 347.779 579.062 347.879V347.875ZM582.492 312.103H580.3V341.641C580.998 341.804 581.621 342.199 582.067 342.761C582.512 343.322 582.755 344.018 582.755 344.736C582.755 345.453 582.512 346.149 582.067 346.71C581.621 347.272 580.998 347.667 580.3 347.83V359.856H590.463L596.71 345.453L582.492 312.103Z" fill="#FBFBFF" stroke="#182F43" stroke-linecap="round" stroke-linejoin="round"/>
<path d="M590.388 361.459H569.05V368.674H590.388V361.459Z" fill="#182F43" stroke="#182F43" stroke-linecap="round" stroke-linejoin="round"/>
<path d="M582.735 344.736C582.735 345.452 582.493 346.148 582.049 346.71C581.605 347.272 580.984 347.667 580.287 347.832V359.858H590.449L596.696 345.456L592.587 335.807C589.28 338.409 585.809 340.796 582.195 342.954C582.551 343.48 582.739 344.101 582.735 344.736V344.736Z" fill="#182F43" stroke="#182F43" stroke-linecap="round" stroke-linejoin="round"/>
<path d="M568.9 359.856H579.063V347.875C578.548 347.794 578.06 347.587 577.644 347.273C577.227 346.959 576.894 346.548 576.673 346.075C572.474 348.326 568.531 350.126 565.282 351.476L568.9 359.856Z" fill="#182F43" stroke="#182F43" stroke-linecap="round" stroke-linejoin="round"/>
<path d="M636.001 347.426C636.001 332.574 630.048 318.33 619.452 307.828C608.856 297.326 594.485 291.426 579.501 291.426C564.516 291.426 550.145 297.326 539.549 307.828C528.953 318.33 523.001 332.574 523.001 347.426" stroke="#182F43" stroke-width="2" stroke-miterlimit="10"/>
<path d="M545.001 291.426H614.001" stroke="#182F43" stroke-width="2" stroke-miterlimit="10"/>
<path d="M579.501 294.426C581.434 294.426 583.001 292.859 583.001 290.926C583.001 288.993 581.434 287.426 579.501 287.426C577.568 287.426 576.001 288.993 576.001 290.926C576.001 292.859 577.568 294.426 579.501 294.426Z" fill="#FBFBFF" stroke="#182F43" stroke-width="2" stroke-miterlimit="10"/>
<path d="M545.001 294.426C547.21 294.426 549.001 292.859 549.001 290.926C549.001 288.993 547.21 287.426 545.001 287.426C542.791 287.426 541.001 288.993 541.001 290.926C541.001 292.859 542.791 294.426 545.001 294.426Z" fill="#FBFBFF" stroke="#182F43" stroke-width="2" stroke-miterlimit="10"/>
<path d="M613.501 294.426C615.434 294.426 617.001 292.859 617.001 290.926C617.001 288.993 615.434 287.426 613.501 287.426C611.568 287.426 610.001 288.993 610.001 290.926C610.001 292.859 611.568 294.426 613.501 294.426Z" fill="#FBFBFF" stroke="#182F43" stroke-width="2" stroke-miterlimit="10"/>
<path d="M652.644 370.61C659.323 363.93 659.323 353.101 652.644 346.421C645.964 339.742 635.135 339.742 628.455 346.421C621.776 353.101 621.776 363.93 628.455 370.61C635.135 377.289 645.964 377.289 652.644 370.61Z" fill="#182F43"/>
<path d="M637.926 369.422C637.768 369.421 637.617 369.36 637.502 369.251C637.387 369.143 637.317 368.994 637.305 368.835L636.001 350.101C635.993 349.968 636.026 349.835 636.095 349.723C636.165 349.61 636.268 349.522 636.39 349.472C636.512 349.422 636.646 349.412 636.774 349.444C636.901 349.476 637.016 349.548 637.101 349.649L648.794 363.703C648.859 363.763 648.912 363.837 648.947 363.919C648.983 364.001 649.001 364.09 649 364.179C648.999 364.269 648.979 364.357 648.942 364.439C648.905 364.52 648.851 364.593 648.784 364.651C648.718 364.71 648.639 364.754 648.554 364.78C648.469 364.805 648.38 364.812 648.292 364.801C648.205 364.789 648.121 364.758 648.045 364.711C647.97 364.663 647.906 364.6 647.856 364.526L637.397 351.949L638.563 368.755C638.575 368.921 638.521 369.085 638.413 369.211C638.305 369.337 638.152 369.414 637.988 369.426L637.926 369.422Z" fill="#FBFBFF"/>
<path d="M626.586 413.028C632.41 405.59 631.101 394.84 623.663 389.017C616.226 383.193 605.476 384.502 599.652 391.939C593.829 399.377 595.137 410.127 602.575 415.951C610.012 421.774 620.763 420.465 626.586 413.028Z" fill="#182F43"/>
<path d="M622.802 402.295L627.697 397.395L631.854 401.552L628.525 409.986L609.07 417.839L608.17 416.938L620.211 404.897C620.565 405.159 621.001 405.286 621.441 405.253C621.88 405.221 622.293 405.032 622.605 404.72C622.916 404.409 623.105 403.996 623.138 403.556C623.17 403.117 623.044 402.68 622.781 402.327L622.802 402.295ZM606.766 415.52L607.667 416.425L619.75 404.342C619.533 403.99 619.441 403.575 619.489 403.164C619.537 402.753 619.722 402.371 620.015 402.078C620.307 401.786 620.69 401.6 621.101 401.552C621.512 401.504 621.927 401.596 622.279 401.813L627.2 396.892L623.043 392.735L614.604 396.065L606.766 415.52Z" fill="#FBFBFF" stroke="#182F43" stroke-linecap="round" stroke-linejoin="round"/>
<path d="M623.724 392.107L632.45 400.833L635.4 397.883L626.675 389.157L623.724 392.107Z" fill="#182F43" stroke="#182F43" stroke-linecap="round" stroke-linejoin="round"/>
<path d="M605.947 418.972C605.871 418.972 605.795 418.961 605.722 418.941C605.648 418.941 598.392 416.621 599.183 409.816C599.554 406.632 601.193 404.758 602.779 402.952C604.465 401.025 606.057 399.203 606.167 395.769C606.376 389.487 601.256 388.073 601.041 388.015C600.854 387.952 600.698 387.821 600.603 387.647C600.509 387.474 600.483 387.271 600.532 387.08C600.58 386.888 600.698 386.722 600.864 386.614C601.029 386.506 601.229 386.464 601.423 386.497C601.492 386.497 607.983 388.241 607.732 395.816C607.601 399.811 605.748 401.931 603.957 403.978C602.465 405.685 601.052 407.297 600.738 409.999C600.094 415.501 605.931 417.365 606.177 417.443C606.358 417.496 606.514 417.613 606.616 417.772C606.717 417.931 606.758 418.122 606.73 418.308C606.702 418.495 606.607 418.665 606.463 418.787C606.319 418.909 606.136 418.975 605.947 418.972V418.972Z" fill="#FBFBFF"/>
<path d="M548.459 419.825C557.66 417.684 563.382 408.49 561.241 399.289C559.1 390.089 549.906 384.366 540.706 386.507C531.506 388.648 525.783 397.842 527.924 407.043C530.065 416.243 539.259 421.966 548.459 419.825Z" fill="#182F43"/>
<path d="M552.561 402.594L557.461 397.694L561.613 401.851L558.283 410.285L538.828 418.138L537.928 417.232L549.969 405.191C550.323 405.453 550.76 405.58 551.199 405.547C551.638 405.515 552.051 405.325 552.363 405.014C552.674 404.702 552.864 404.289 552.896 403.85C552.929 403.41 552.802 402.974 552.54 402.62L552.561 402.594ZM536.525 415.824L537.425 416.724L549.508 404.641C549.291 404.289 549.199 403.874 549.247 403.463C549.295 403.052 549.481 402.669 549.773 402.377C550.066 402.084 550.448 401.899 550.859 401.851C551.27 401.803 551.685 401.895 552.037 402.112L556.958 397.191L552.786 393.034L544.346 396.364L536.525 415.824Z" fill="#FBFBFF" stroke="#182F43" stroke-linecap="round" stroke-linejoin="round"/>
<path d="M553.481 392.409L562.207 401.135L565.157 398.184L556.432 389.459L553.481 392.409Z" fill="#182F43" stroke="#182F43" stroke-linecap="round" stroke-linejoin="round"/>
<path d="M532.567 394.938H530.484V410.058H532.567V394.938Z" fill="#FBFBFF"/>
<path d="M539.088 403.539V401.455H523.968V403.539H539.088Z" fill="#FBFBFF"/>
<path d="M531.22 364.455C535.077 355.832 531.214 345.715 522.591 341.858C513.968 338 503.851 341.864 499.994 350.487C496.137 359.109 500 369.226 508.623 373.084C517.246 376.941 527.363 373.078 531.22 364.455Z" fill="#182F43"/>
<path d="M522.845 355.426L527.745 350.525L531.902 354.682L528.573 363.122L509.118 370.975L508.218 370.058L520.259 358.017C520.613 358.275 521.048 358.399 521.485 358.364C521.922 358.33 522.333 358.141 522.642 357.83C522.952 357.52 523.141 357.109 523.174 356.672C523.207 356.235 523.083 355.8 522.824 355.446L522.845 355.426ZM506.814 368.655L507.715 369.535L519.809 357.493C519.589 357.141 519.495 356.725 519.542 356.313C519.588 355.901 519.774 355.516 520.067 355.222C520.36 354.929 520.744 354.743 521.156 354.695C521.568 354.647 521.985 354.741 522.337 354.96L527.259 350.044L523.102 345.887L514.662 349.216L506.814 368.655Z" fill="#FBFBFF" stroke="#182F43" stroke-linecap="round" stroke-linejoin="round"/>
<path d="M523.765 345.24L532.491 353.966L535.441 351.015L526.716 342.29L523.765 345.24Z" fill="#182F43" stroke="#182F43" stroke-linecap="round" stroke-linejoin="round"/>
<path d="M509.373 356.366V354.282H494.253V356.366H509.373Z" fill="#FBFBFF"/>
<path d="M153.636 521.426H222L212.364 410.426H144L153.636 521.426Z" fill="#182F43"/>
<path d="M155.883 520.426H226L216.117 407.426H146L155.883 520.426Z" fill="#182F43"/>
<path d="M156.669 518.994H225.267L215.598 408.426H147L156.669 518.994Z" fill="#AA4337"/>
<path d="M203.564 513.174H220.267L219.24 501.426H202.529L203.564 513.174ZM219.531 512.498H204.189L203.273 502.102H218.624L219.531 512.498Z" fill="#FBFBFF"/>
<path d="M183.026 513.174H199.737L198.711 501.426H182L183.026 513.174ZM199.001 512.498H183.651L182.744 502.102H198.086L199.001 512.498Z" fill="#FBFBFF"/>
<path d="M163.035 513.174H179.737L178.719 501.426H162L163.035 513.174ZM179.001 512.498H163.651L162.744 502.102H178.094L179.001 512.498Z" fill="#FBFBFF"/>
<path d="M162 494.426H218V495.426H162V494.426Z" fill="#FBFBFF"/>
<path d="M180.207 488.602H217.719L217.165 482.446H179.654L180.207 488.602ZM217 487.926H180.849L180.415 483.131H216.541L217 487.926Z" fill="#FBFBFF"/>
<path d="M161.5 488.426H177.056L176.556 482.426H161L161.5 488.426ZM176.32 487.741H162.15L161.762 483.11H175.931L176.32 487.741Z" fill="#FBFBFF"/>
<path d="M191.393 420.986H209.062L208.66 416.426H191L191.393 420.986ZM208.318 420.345H192.018L191.735 417.136H208.053L208.318 420.345Z" fill="#FBFBFF"/>
<path d="M204.078 513.105L219.138 502.042L218.736 501.494L203.676 512.558L204.078 513.105Z" fill="#FBFBFF"/>
<path d="M203.089 501.462L220.09 512.532L219.716 513.106L202.715 502.036L203.089 501.462Z" fill="#FBFBFF"/>
<path d="M183.539 513.105L198.599 502.042L198.196 501.494L183.137 512.558L183.539 513.105Z" fill="#FBFBFF"/>
<path d="M182.549 501.474L199.548 512.547L199.174 513.12L182.175 502.047L182.549 501.474Z" fill="#FBFBFF"/>
<path d="M163.549 513.105L178.608 502.042L178.206 501.494L163.138 512.558L163.549 513.105Z" fill="#FBFBFF"/>
<path d="M162.552 501.471L179.551 512.544L179.177 513.118L162.178 502.044L162.552 501.471Z" fill="#FBFBFF"/>
<path d="M170.664 470.788L175.765 470.805L175.65 469.854L170.547 469.844L170.664 470.788ZM180.867 470.822L185.98 470.832L185.865 469.881L180.762 469.872L180.867 470.822ZM191.082 470.849L196.184 470.858L196.079 469.916L190.978 469.899L191.082 470.849ZM201.294 470.9L206.397 470.909L206.292 469.967L201.179 469.948L201.294 470.9Z" fill="#FBFBFF"/>
<path d="M210.866 464.807L212.18 464.8L211.806 461.291L210.502 461.299L210.866 464.807ZM210.132 457.745L211.42 457.782L211.057 454.267L209.743 454.274L210.132 457.745ZM209.395 450.721L210.708 450.722L210.344 447.215L209.031 447.214L209.395 450.721ZM208.667 443.707L209.971 443.699L209.607 440.191L208.293 440.191L208.667 443.707Z" fill="#FBFBFF"/>
<path d="M166.957 435.421L172.254 435.459L172.142 434.508L166.833 434.469L166.957 435.421ZM177.564 435.49L182.862 435.528L182.738 434.576L177.441 434.538L177.564 435.49ZM188.16 435.558L193.47 435.598L193.346 434.645L188.047 434.615L188.16 435.558ZM198.767 435.635L204.065 435.666L204 434.72L198.702 434.69L198.767 435.635Z" fill="#FBFBFF"/>
<path d="M161.898 464.934L163.202 464.925L162.838 461.418L161.525 461.417L161.898 464.934ZM161.161 457.91L162.475 457.903L162.101 454.395L160.786 454.402L161.161 457.91ZM160.423 450.887L161.737 450.887L161.363 447.371L160.059 447.379L160.423 450.887ZM159.684 443.871L160.999 443.864L160.624 440.355L159.321 440.356L159.684 443.871Z" fill="#FBFBFF"/>
<path d="M205.913 438.041L211.205 437.913L210.809 432.983L205.517 433.111L205.913 438.041ZM210.01 437.01L206.958 437.067L206.739 434.017L209.79 433.968L210.01 437.01Z" fill="#FBFBFF"/>
<path d="M156.245 437.435L161.975 437.397L161.418 432.441L155.677 432.478L156.245 437.435ZM160.565 436.47L157.455 436.47L157.13 433.417L160.25 433.418L160.565 436.47Z" fill="#FBFBFF"/>
<path d="M209.626 472.768L214.79 472.661L214.363 467.72L209.19 467.825L209.626 472.768ZM213.56 471.754L210.704 471.797L210.456 468.752L213.321 468.71L213.56 471.754Z" fill="#FBFBFF"/>
<path d="M161.065 472.774L166.803 472.774L166.247 467.818L160.508 467.818L161.065 472.774ZM165.393 471.847L162.286 471.818L161.96 468.764L165.068 468.794L165.393 471.847Z" fill="#FBFBFF"/>
<path d="M207.646 450.528L212.646 450.527L213.066 454.53L208.066 454.53L207.646 450.528Z" fill="#FBFBFF"/>
<path d="M158.381 450.677L163.696 450.663L164.116 454.666L158.802 454.679L158.381 450.677Z" fill="#FBFBFF"/>
<path d="M183.42 436.438L183 432.436L186.908 432.425L187.328 436.428L183.42 436.438Z" fill="#FBFBFF"/>
<path d="M186.42 472.439L186 468.437L190.235 468.426L190.655 472.428L186.42 472.439Z" fill="#FBFBFF"/>
<path d="M220 284.07L208.047 272.888V243.538" stroke="#263238" stroke-linecap="round" stroke-linejoin="round"/>
<path d="M208.046 272.888L195.057 284.069" stroke="#263238" stroke-linecap="round" stroke-linejoin="round"/>
<path d="M205.172 227.383V233.263L202.816 237.376C202.816 238.687 203.336 239.945 204.261 240.873C205.186 241.802 206.441 242.327 207.752 242.332V242.332C209.066 242.33 210.325 241.807 211.253 240.878C212.182 239.949 212.705 238.69 212.708 237.376V233.263" stroke="#263238" stroke-width="3" stroke-linecap="round" stroke-linejoin="round"/>
<path d="M200.065 216.09H209.977V227.099H200.065V216.09Z" fill="white" stroke="#263238" stroke-linecap="round" stroke-linejoin="round"/>
<path d="M196.398 201.323H213.643V223.432H196.398V201.323Z" fill="white" stroke="#263238" stroke-linecap="round" stroke-linejoin="round"/>
<path d="M191.259 212.423H218.599V219.207H191.259V212.423Z" fill="white" stroke="#263238" stroke-linecap="round" stroke-linejoin="round"/>
<path d="M205.02 212.423H208.93L214.465 218.699L213.886 219.207H211.002L205.02 212.423Z" fill="#AA4337"/>
<path d="M216.456 212.423L218.599 214.85V219.207H218.528L212.536 212.423H216.456Z" fill="#AA4337"/>
<path d="M197.495 212.423H201.405L206.939 218.699L206.361 219.207H203.476L197.495 212.423Z" fill="#AA4337"/>
<path d="M191.259 213.875V212.423H193.89L199.425 218.699L198.836 219.207H195.961L191.259 213.875Z" fill="#AA4337"/>
<path d="M205.406 200.937V187.633" stroke="#263238" stroke-width="2" stroke-linecap="round" stroke-linejoin="round"/>
<path d="M0.999964 187.297H212.312V179.325L176.158 164H0.999964" stroke="#263238" stroke-width="2" stroke-linecap="round" stroke-linejoin="round"/>
<path d="M176.156 187.297V164L152.25 187.297V164L176.156 187.297Z" stroke="#263238" stroke-width="2" stroke-linecap="round" stroke-linejoin="round"/>
<path d="M152.281 187.297V164L128.385 187.297V164L152.281 187.297Z" stroke="#263238" stroke-width="2" stroke-linecap="round" stroke-linejoin="round"/>
<path d="M128.415 187.297V164L104.508 187.297V164L128.415 187.297Z" stroke="#263238" stroke-width="2" stroke-linecap="round" stroke-linejoin="round"/>
<path d="M104.538 187.297V164L80.6412 187.297V164L104.538 187.297Z" stroke="#263238" stroke-width="2" stroke-linecap="round" stroke-linejoin="round"/>
<path d="M80.6731 187.297V164L56.7663 187.297V164L80.6731 187.297Z" stroke="#263238" stroke-width="2" stroke-linecap="round" stroke-linejoin="round"/>
<path d="M56.7959 187.297V164L32.8992 187.297V164L56.7959 187.297Z" stroke="#263238" stroke-width="2" stroke-linecap="round" stroke-linejoin="round"/>
<path d="M32.9292 187.297V164L9.02239 187.297V164L32.9292 187.297Z" stroke="#263238" stroke-width="2" stroke-linecap="round" stroke-linejoin="round"/>
<defs>
<filter id="filter0_d_1512_6867" x="422.273" y="661.87" width="102.775" height="19.3813" filterUnits="userSpaceOnUse" color-interpolation-filters="sRGB">
<feFlood flood-opacity="0" result="BackgroundImageFix"/>
<feColorMatrix in="SourceAlpha" type="matrix" values="0 0 0 0 0 0 0 0 0 0 0 0 0 0 0 0 0 0 127 0" result="hardAlpha"/>
<feOffset dx="1" dy="2"/>
<feComposite in2="hardAlpha" operator="out"/>
<feColorMatrix type="matrix" values="0 0 0 0 0.666667 0 0 0 0 0.262745 0 0 0 0 0.215686 0 0 0 1 0"/>
<feBlend mode="normal" in2="BackgroundImageFix" result="effect1_dropShadow_1512_6867"/>
<feBlend mode="normal" in="SourceGraphic" in2="effect1_dropShadow_1512_6867" result="shape"/>
</filter>
</defs>
</svg>
