<svg width="55" height="55" viewBox="0 0 55 55" fill="none" xmlns="http://www.w3.org/2000/svg">
<path d="M3.79598 37C3.29863 37 2.87497 36.8397 2.52498 36.519C2.17499 36.1983 2 35.8101 2 35.3544C2 34.8987 2.17499 34.5105 2.52498 34.1899C2.87497 33.8692 3.29863 33.7089 3.79598 33.7089C4.31175 33.7089 4.73542 33.8692 5.06698 34.1899C5.41697 34.5105 5.59196 34.8987 5.59196 35.3544C5.59196 35.8101 5.41697 36.1983 5.06698 36.519C4.73542 36.8397 4.31175 37 3.79598 37Z" fill="#182F43"/>
<path d="M21.263 19H23.8326V36.7215H21.7603L11.8134 23.481V36.7215H9.24372V19H11.316L21.263 32.2152V19Z" fill="#182F43"/>
<path d="M30.5395 34.4937H39.5194V36.7215H27.9698V19H39.3812V21.2278H30.5395V26.6709H38.6905V28.8734H30.5395V34.4937Z" fill="#182F43"/>
<path d="M55 19V21.2278H49.2805V36.7215H46.7385V21.2278H41.0466V19H55Z" fill="#182F43"/>
</svg>
