<svg width="27" height="27" viewBox="0 0 27 27" fill="none" xmlns="http://www.w3.org/2000/svg">
<path d="M10.7841 15.1296C11.961 14.1679 13.1095 13.5623 14.2297 13.3135C14.06 12.9173 13.896 12.5609 13.7375 12.2441C11.7913 12.8664 9.68655 13.1777 7.42331 13.1777C6.982 13.1777 6.65376 13.1719 6.43885 13.1607C6.43885 13.2059 6.43611 13.2626 6.43036 13.3304C6.42461 13.3983 6.42188 13.455 6.42188 13.5002C6.42188 15.2654 7.01595 16.8213 8.2041 18.1679C8.74725 17.1043 9.60715 16.0914 10.7841 15.1296Z" fill="#FBFBFF"/>
<path d="M13.5 0C6.04423 0 0 6.04423 0 13.5C0 20.9558 6.04423 27 13.5 27C20.9558 27 27 20.9558 27 13.5C27 6.04423 20.9558 0 13.5 0ZM20.8495 17.7604C20.0915 19.0616 19.0616 20.0915 17.7604 20.8495C16.4591 21.6076 15.0388 21.9868 13.5 21.9868C11.9612 21.9868 10.5409 21.6076 9.23964 20.8495C7.93842 20.0915 6.90851 19.0616 6.15045 17.7604C5.39239 16.4591 5.01322 15.0388 5.01322 13.5C5.01322 11.9612 5.39239 10.5409 6.15045 9.23964C6.90851 7.93842 7.93842 6.90851 9.23964 6.15045C10.5409 5.39239 11.9612 5.01322 13.5 5.01322C15.0388 5.01322 16.4591 5.39239 17.7604 6.15045C19.0616 6.90851 20.0915 7.93842 20.8495 9.23964C21.6076 10.5409 21.9868 11.9612 21.9868 13.5C21.9868 15.0388 21.6076 16.4591 20.8495 17.7604Z" fill="#FBFBFF"/>
<path d="M11.5227 16.1987C10.4646 17.1153 9.68108 18.077 9.17188 19.0842C10.4506 20.0799 11.8934 20.5779 13.5001 20.5779C14.3376 20.5779 15.1693 20.4194 15.9952 20.1026C15.7688 18.1676 15.3275 16.2948 14.6713 14.4844C13.6302 14.7108 12.5808 15.2821 11.5227 16.1987Z" fill="#FBFBFF"/>
<path d="M13.1245 11.0222C12.2646 9.49455 11.3196 8.22154 10.2899 7.20312C9.39609 7.65566 8.62927 8.28368 7.99002 9.08719C7.35078 9.89069 6.90098 10.7788 6.64062 11.752C6.88948 11.7748 7.25742 11.786 7.74391 11.786C9.63372 11.786 11.4272 11.5314 13.1245 11.0222Z" fill="#FBFBFF"/>
<path d="M18.0158 8.05134C16.7031 6.96503 15.1982 6.42188 13.5008 6.42188C12.9237 6.42188 12.3466 6.50099 11.7695 6.6595C12.7652 7.68914 13.6875 8.97366 14.5362 10.5125C16.0751 9.86751 17.235 9.04703 18.0158 8.05134Z" fill="#FBFBFF"/>
<path d="M15.1445 11.7176C15.3143 12.0798 15.5067 12.5381 15.7216 13.0925C16.5591 13.0134 17.4699 12.9737 18.4544 12.9737C19.156 12.9737 19.8519 12.9906 20.5421 13.0246C20.4515 11.4857 19.8971 10.1164 18.8787 8.91699C18.1431 10.0145 16.8986 10.9481 15.1445 11.7176Z" fill="#FBFBFF"/>
<path d="M16.1484 14.2812C16.7255 15.9558 17.1159 17.6759 17.3196 19.4411C18.2135 18.864 18.9433 18.1229 19.5092 17.2176C20.0751 16.3122 20.4146 15.3335 20.5276 14.2812C19.7017 14.2245 18.9491 14.1963 18.2701 14.1963C17.6479 14.1963 16.9404 14.2245 16.1484 14.2812Z" fill="#FBFBFF"/>
</svg>
