<svg width="55" height="55" viewBox="0 0 55 55" fill="none" xmlns="http://www.w3.org/2000/svg">
<path d="M18.034 18C20.8789 18 23.1727 19.0051 24.9155 21.0153C26.684 23 27.5682 25.3537 27.5682 28.0763C27.5682 28.3562 27.5425 28.7506 27.4913 29.2595H10.6142C10.8705 31.1934 11.6907 32.7328 13.0747 33.8779C14.4843 34.9975 16.2143 35.5573 18.2646 35.5573C19.7255 35.5573 20.9814 35.2646 22.0322 34.6794C23.1086 34.0687 23.916 33.2799 24.4542 32.313L26.684 33.6107C25.8382 34.9593 24.6849 36.028 23.224 36.8168C21.7631 37.6056 20.0972 38 18.2262 38C15.2019 38 12.7415 37.0585 10.8449 35.1756C8.94829 33.2926 8 30.9008 8 28C8 25.1501 8.93548 22.771 10.8064 20.8626C12.6774 18.9542 15.0866 18 18.034 18ZM18.034 20.4427C16.0349 20.4427 14.3561 21.0407 12.9978 22.2366C11.665 23.4071 10.8705 24.9338 10.6142 26.8168H24.954C24.6977 24.8066 23.916 23.2417 22.6089 22.1221C21.3017 21.0025 19.7768 20.4427 18.034 20.4427Z" fill="#182F43"/>
<path d="M47 37.542H43.9629L37.9656 29.6794L31.9683 37.542H28.9312L36.4662 27.6565L29.4309 18.458H32.468L37.9656 25.6718L43.4631 18.458H46.5002L39.5034 27.6565L47 37.542Z" fill="#182F43"/>
</svg>
