<svg width="27" height="27" viewBox="0 0 27 27" fill="none" xmlns="http://www.w3.org/2000/svg">
<path d="M13.5 0C6.04423 0 0 6.04423 0 13.5C0 20.9558 6.04423 27 13.5 27C20.9558 27 27 20.9558 27 13.5C27 6.04423 20.9558 0 13.5 0ZM17.4663 7.73802C16.8246 7.73802 16.1788 7.73802 15.5374 7.73802C15.1314 7.71174 14.7125 8.02165 14.6383 8.42764C14.6296 9.1304 14.6339 9.83289 14.6339 10.5357C15.5765 10.54 16.5194 10.5357 17.4622 10.54C17.3924 11.5568 17.2659 12.5695 17.1176 13.5734C16.2839 13.5821 15.4503 13.5734 14.6167 13.5777C14.6079 16.576 14.6211 19.57 14.6123 22.5685C13.3727 22.5729 12.1377 22.5642 10.8981 22.5729C10.8762 19.5746 10.8981 16.5763 10.885 13.5777C10.2827 13.5734 9.67602 13.5821 9.07373 13.5734C9.07811 12.5651 9.07373 11.5571 9.07373 10.5532C9.67602 10.5444 10.2827 10.5532 10.885 10.5488C10.9025 9.57117 10.8675 8.58917 10.9025 7.61154C10.9679 6.83021 11.2603 6.04916 11.841 5.5123C12.5437 4.84458 13.5386 4.61763 14.4815 4.59135C15.4766 4.58259 16.4717 4.58697 17.4666 4.58697C17.4707 5.63878 17.4707 6.68621 17.4663 7.73802Z" fill="#FBFBFF"/>
</svg>
