<svg width="52" height="52" viewBox="0 0 52 52" fill="none" xmlns="http://www.w3.org/2000/svg">
<path d="M26.0072 52C19.1096 52 12.4946 49.26 7.61732 44.3827C2.74002 39.5054 0 32.8903 0 25.9928C-5.22296e-07 22.5782 0.672775 19.197 1.97993 16.0425C3.28709 12.8879 5.20302 10.0219 7.61819 7.60804C10.0334 5.1942 12.9005 3.27988 16.0557 1.97447C19.211 0.66905 22.5925 -0.00188464 26.0072 3.98058e-06C29.4211 -0.00188584 32.802 0.669148 35.9564 1.97474C39.1109 3.28033 41.977 5.19488 44.3911 7.60891C46.8051 10.0229 48.7197 12.8891 50.0252 16.0436C51.3308 19.198 52.0019 22.5789 52 25.9928C52.0019 29.4074 51.3309 32.789 50.0255 35.9442C48.7201 39.0995 46.8058 41.9666 44.3919 44.3818C41.9781 46.797 39.1121 48.7129 35.9575 50.02C32.803 51.3272 29.4218 52 26.0072 52Z" fill="#182F43"/>
<path d="M21.9253 41.7208H28.2509V25.9066H32.6789L33.1389 20.6017H28.2509V17.5826C28.2509 16.3318 28.5097 15.8286 29.6886 15.8286H33.1965V10.2793H28.8835C24.168 10.2793 22.0402 12.3495 22.0402 16.3175V20.6304H18.748V26.0072H22.0402L21.9253 41.7208Z" fill="#FFB700"/>
</svg>
