<svg width="55" height="55" viewBox="0 0 55 55" fill="none" xmlns="http://www.w3.org/2000/svg">
<circle cx="28" cy="28" r="19" fill="#182F43"/>
<path d="M20 40C23.0454 42.2657 27.1219 43 28.256 43L20.628 35.9762L13 28.9523C13.5 34.5 17.1448 37.8758 20 40Z" fill="#FBFBFF"/>
<path d="M37.7224 18.3334C38.1145 18.7224 38.7476 18.7198 39.1366 18.3277C39.5255 17.9356 39.523 17.3025 39.1309 16.9135L37.7224 18.3334ZM33.665 14.2027L34.1201 13.3122V13.3122L33.665 14.2027ZM21.7837 14.2026L22.2279 15.0985L21.7837 14.2026ZM14.2239 22.4682L15.1697 22.793V22.793L14.2239 22.4682ZM41.8281 27.2555L41.6773 26.267L41.8281 27.2555ZM34.4064 27.3759C33.8605 27.4591 33.4854 27.9692 33.5686 28.5152C33.6519 29.0612 34.162 29.4363 34.708 29.353L34.4064 27.3759ZM28.256 43V44H30.8183L28.9334 42.2644L28.256 43ZM20 40L19.4031 40.8023H19.4031L20 40ZM13 28.9523L13.6774 28.2167L11.7715 26.4617L12.004 29.0421L13 28.9523ZM14.4829 23.4775L13.7954 24.2036L13.7954 24.2036L14.4829 23.4775ZM27.1219 35.445L27.8272 34.7361L27.8184 34.7274L27.8094 34.7189L27.1219 35.445ZM33.3696 41.6619L34.075 40.953L34.075 40.953L33.3696 41.6619ZM41.6628 35.2964L42.57 35.7171L41.6628 35.2964ZM42.8061 27.8745L41.8302 28.0926V28.0926L42.8061 27.8745ZM34.3732 41.8761L34.7563 42.7998L34.7563 42.7997L34.3732 41.8761ZM20.628 35.9762L21.3054 35.2405L20.628 35.9762ZM39.1309 16.9135C38.3778 16.1665 36.8673 14.7164 34.1201 13.3122L33.2098 15.0931C35.7041 16.368 37.0479 17.6643 37.7224 18.3334L39.1309 16.9135ZM34.1201 13.3122C32.8732 12.6749 30.7796 12.1458 28.4987 12.0257C26.2078 11.9051 23.5931 12.1894 21.3395 13.3067L22.2279 15.0985C24.0719 14.1843 26.3114 13.9133 28.3935 14.0229C30.4856 14.1331 32.2838 14.6198 33.2098 15.0931L34.1201 13.3122ZM21.3395 13.3067C16.3488 15.7811 14.2513 19.3099 13.2781 22.1434L15.1697 22.793C16.0037 20.3645 17.7903 17.2987 22.2279 15.0985L21.3395 13.3067ZM41.6773 26.267L34.4064 27.3759L34.708 29.353L41.9788 28.2441L41.6773 26.267ZM28.256 42C27.8214 42 26.6218 41.8429 25.1345 41.3926C23.6625 40.9468 21.9979 40.24 20.5969 39.1977L19.4031 40.8023C21.0475 42.0257 22.9439 42.8189 24.5549 43.3067C26.1508 43.79 27.5565 44 28.256 44V42ZM20.5969 39.1977C17.8032 37.1192 14.4563 33.9705 13.996 28.8626L12.004 29.0421C12.5437 35.0295 16.4865 38.6324 19.4031 40.8023L20.5969 39.1977ZM13.7954 24.2036L26.4343 36.1711L27.8094 34.7189L15.1705 22.7514L13.7954 24.2036ZM26.4165 36.1538L32.6643 42.3707L34.075 40.953L27.8272 34.7361L26.4165 36.1538ZM42.57 35.7171C44.3286 31.9248 44.0949 29.0568 43.7821 27.6565L41.8302 28.0926C42.0583 29.1139 42.3085 31.5269 40.7556 34.8757L42.57 35.7171ZM34.7563 42.7997C36.2872 42.1647 40.5454 40.083 42.57 35.7171L40.7556 34.8757C39.0601 38.5318 35.4078 40.3643 33.99 40.9524L34.7563 42.7997ZM12.3226 29.688L19.9506 36.7118L21.3054 35.2405L13.6774 28.2167L12.3226 29.688ZM19.9506 36.7118L27.5787 43.7356L28.9334 42.2644L21.3054 35.2405L19.9506 36.7118ZM41.9788 28.2441C41.981 28.2438 41.9604 28.2477 41.9253 28.2262C41.9069 28.2149 41.8856 28.197 41.8667 28.171C41.8472 28.1443 41.8354 28.1161 41.8302 28.0926L43.7821 27.6565C43.5494 26.6151 42.5526 26.1335 41.6773 26.267L41.9788 28.2441ZM32.6643 42.3707C33.1912 42.895 34.0041 43.1118 34.7563 42.7998L33.99 40.9524C34.0135 40.9427 34.0387 40.9419 34.0565 40.9458C34.0722 40.9493 34.0769 40.9549 34.075 40.953L32.6643 42.3707ZM13.2781 22.1434C13.0206 22.8932 13.2538 23.6908 13.7954 24.2036L15.1705 22.7514C15.1685 22.7495 15.1704 22.7502 15.1721 22.7565C15.1729 22.7598 15.1738 22.765 15.1736 22.7718C15.1733 22.7789 15.172 22.7863 15.1697 22.793L13.2781 22.1434Z" fill="#FBFBFF"/>
</svg>
