<svg width="25" height="25" viewBox="0 0 25 25" fill="none" xmlns="http://www.w3.org/2000/svg">
<path d="M16.6997 12.5C16.6997 15.0671 16.2131 17.3669 15.4481 19.0061C14.6642 20.6859 13.6809 21.5 12.7663 21.5C11.8518 21.5 10.8685 20.6859 10.0846 19.0061C9.31962 17.3669 8.83301 15.0671 8.83301 12.5C8.83301 9.93286 9.31962 7.63315 10.0846 5.99393C10.8685 4.31411 11.8518 3.5 12.7663 3.5C13.6809 3.5 14.6642 4.31411 15.4481 5.99393C16.2131 7.63315 16.6997 9.93286 16.6997 12.5Z" stroke="#182F43"/>
<path fill-rule="evenodd" clip-rule="evenodd" d="M22.5164 13C22.2205 17.3621 18.0801 21 12.7667 21C7.4532 21 3.31282 17.3621 3.01693 13H22.5164ZM22.5164 12H3.01693C3.31282 7.63794 7.4532 4 12.7667 4C18.0801 4 22.2205 7.63794 22.5164 12ZM2.01466 12C2.30933 6.98572 7.01048 3 12.7667 3C18.7129 3 23.5333 7.25329 23.5333 12.5C23.5333 17.7467 18.7129 22 12.7667 22C7.01048 22 2.30933 18.0143 2.01466 13H2V12.5V12H2.01466Z" fill="#182F43"/>
</svg>
