<svg width="425" height="387" viewBox="0 0 425 387" fill="none" xmlns="http://www.w3.org/2000/svg">
<path d="M128.39 324.928C116.559 332.67 103.219 353.325 96.5492 361.711C89.8792 370.097 89.8907 382.147 87.0914 385.373C84.2921 388.598 74.6155 378.703 76.7236 371.388C78.8317 364.073 82.4835 362.575 81.6771 359.131C80.8707 355.686 78.8778 353.532 81.032 349.016C83.1862 344.501 89.4184 348.809 95.6621 344.5C101.906 340.192 108.138 321.691 115.879 302.338C123.621 282.985 139.979 283.4 141.914 280.393C143.849 277.386 154.816 238.219 166.013 240.166C177.211 242.113 197.439 261.892 191 272.698C184.56 283.503 177.015 283.25 167.96 289.482C158.906 295.714 160 297.016 153.975 303.467C147.95 309.918 143.607 311.001 140.416 311.853C140.416 311.853 135.901 316.807 133.101 320.459C130.302 324.11 128.39 324.928 128.39 324.928Z" fill="white"/>
<path d="M106.836 336.631C110.557 329.65 121.731 312.877 133.332 302.636C144.932 292.395 181.772 277.016 181.772 277.016L188.938 275.587C189.668 274.646 190.341 273.661 190.954 272.638C197.405 261.89 177.188 242.099 166.002 240.164C154.816 238.229 143.838 277.373 141.902 280.391C139.967 283.409 123.621 282.972 115.868 302.336C108.115 321.701 101.883 340.202 95.6506 344.499C89.4184 348.796 83.1747 344.499 81.0205 349.014C78.8663 353.53 80.8016 355.684 81.6656 359.129C82.5296 362.573 78.8663 364.082 76.7121 371.386C74.5579 378.689 84.246 388.596 87.0799 385.371C88.1397 383.732 88.8641 381.9 89.211 379.98C87.4386 375.198 86.9269 370.041 87.725 365.004C89.1534 353.404 103.104 343.623 106.836 336.631Z" fill="#AA4337"/>
<path opacity="0.5" d="M106.836 336.631C110.557 329.65 121.731 312.877 133.332 302.636C144.932 292.395 181.772 277.016 181.772 277.016L188.938 275.587C189.668 274.646 190.341 273.661 190.954 272.638C197.405 261.89 177.188 242.099 166.002 240.164C154.816 238.229 143.838 277.373 141.902 280.391C139.967 283.409 123.621 282.972 115.868 302.336C108.115 321.701 101.883 340.202 95.6506 344.499C89.4184 348.796 83.1747 344.499 81.0205 349.014C78.8663 353.53 80.8016 355.684 81.6656 359.129C82.5296 362.573 78.8663 364.082 76.7121 371.386C74.5579 378.689 84.246 388.596 87.0799 385.371C88.1397 383.732 88.8641 381.9 89.211 379.98C87.4386 375.198 86.9269 370.041 87.725 365.004C89.1534 353.404 103.104 343.623 106.836 336.631Z" fill="white"/>
<path d="M128.39 324.928C116.559 332.67 103.219 353.325 96.5492 361.711C89.8792 370.097 89.8907 382.147 87.0914 385.373C84.2921 388.598 74.6155 378.703 76.7236 371.388C78.8317 364.073 82.4835 362.575 81.6771 359.131C80.8707 355.686 78.8778 353.532 81.032 349.016C83.1862 344.501 89.4184 348.809 95.6621 344.5C101.906 340.192 108.138 321.691 115.879 302.338C123.621 282.985 139.979 283.4 141.914 280.393C143.849 277.386 154.816 238.219 166.013 240.166C177.211 242.113 197.439 261.892 191 272.698C184.56 283.503 177.015 283.25 167.96 289.482C158.906 295.714 160 297.016 153.975 303.467C147.95 309.918 143.607 311.001 140.416 311.853C140.416 311.853 135.901 316.807 133.101 320.459C130.302 324.11 128.39 324.928 128.39 324.928Z" stroke="#182F43" stroke-width="2" stroke-miterlimit="10" stroke-linecap="round"/>
<path d="M126.756 326.078C124.134 325.916 121.559 325.308 119.141 324.281C114.418 322.3 112.563 317.174 111.872 312.635C105.928 327.898 100.813 340.973 95.7443 344.498C89.5006 348.807 83.2684 344.498 81.1142 349.014C78.96 353.53 80.8954 355.684 81.7593 359.129C82.6233 362.573 78.96 364.082 76.8058 371.386C74.6516 378.689 84.3398 388.596 87.1736 385.371C90.0075 382.145 89.9729 370.095 96.6314 361.709C102.979 353.703 115.351 334.545 126.756 326.078Z" fill="#AA4337"/>
<path opacity="0.2" d="M87.0907 385.373C87.2539 385.178 87.4003 384.97 87.5285 384.751L87.6322 384.578C87.7589 384.348 87.8856 384.094 88.0123 383.806C88.0123 383.806 88.0123 383.703 88.0699 383.656C88.1736 383.403 88.2773 383.138 88.3694 382.862C88.4053 382.775 88.436 382.687 88.4616 382.597C88.5768 382.274 88.6805 381.94 88.7841 381.594L88.8878 381.226C88.9569 380.961 89.0376 380.684 89.1182 380.396L89.2219 379.982C87.4495 375.2 86.9377 370.043 87.7359 365.006C89.1297 353.359 103.103 343.579 106.836 336.587C109.618 331.61 112.716 326.815 116.109 322.233C113.563 319.745 112.388 316.012 111.87 312.603L110.856 315.183L110.695 315.621L109.681 318.201L108.725 320.62L108.564 321.023C108.253 321.807 107.942 322.579 107.63 323.327L107.469 323.731C107.158 324.502 106.847 325.263 106.536 326.035L105.615 328.2L105.442 328.603C105.142 329.295 104.843 329.963 104.543 330.619L104.405 330.942L103.564 332.762L103.472 332.958C103.172 333.58 102.884 334.179 102.596 334.755C102.539 334.882 102.47 334.997 102.412 335.101C102.124 335.677 101.836 336.253 101.548 336.771L101.444 336.967L100.626 338.407L100.5 338.626C100.212 339.11 99.9353 339.559 99.6473 339.997L99.4745 340.25C99.1865 340.688 98.8985 341.091 98.622 341.471L98.5414 341.563C98.2764 341.92 98 342.254 97.735 342.565L97.5853 342.738C97.3088 343.061 97.0208 343.337 96.7443 343.602L96.583 343.752C96.3094 344 96.0208 344.231 95.719 344.443C94.0087 345.613 92.0241 346.32 89.9592 346.494C88.8072 346.609 87.8165 346.609 86.8373 346.62C85.936 346.606 85.0348 346.66 84.1417 346.782C83.4802 346.838 82.8458 347.07 82.3033 347.452C81.7608 347.835 81.3298 348.355 81.0544 348.959C80.4727 350.093 80.1389 351.338 80.0752 352.611C80.0631 353.023 80.0862 353.435 80.1443 353.843C80.1677 354.037 80.2023 354.229 80.248 354.419C80.5706 355.951 81.2733 357.357 81.6995 359.027C81.7962 359.423 81.8388 359.83 81.8262 360.237C81.734 361.78 80.6742 363.082 79.5222 365.098C78.339 367.03 77.417 369.11 76.7805 371.284C76.2903 373.191 76.3989 375.202 77.0916 377.044C77.6019 378.482 78.3074 379.842 79.1882 381.088C79.4762 381.502 79.7757 381.894 80.0867 382.24C82.575 385.327 85.6969 386.986 87.0907 385.373Z" fill="#182F43"/>
<path d="M126.756 326.078C124.134 325.916 121.559 325.308 119.141 324.281C114.418 322.3 112.563 317.174 111.872 312.635C105.928 327.898 100.813 340.973 95.7443 344.498C89.5006 348.807 83.2684 344.498 81.1142 349.014C78.96 353.53 80.8954 355.684 81.7593 359.129C82.6233 362.573 78.96 364.082 76.8058 371.386C74.6516 378.689 84.3398 388.596 87.1736 385.371C90.0075 382.145 89.9729 370.095 96.6314 361.709C102.979 353.703 115.351 334.545 126.756 326.078Z" stroke="#182F43" stroke-miterlimit="10" stroke-linecap="round"/>
<path d="M76.4805 209.82C76.4805 209.82 87.0211 224.012 98.2068 223.851C109.392 223.689 115.913 213.782 121.661 214.462C125.91 215.105 130.075 216.218 134.079 217.78C134.079 217.78 174.03 164.247 183.223 155.181C192.415 146.115 197.726 135.736 185.1 132.533C172.475 129.331 146.106 135.01 132.881 146.634C119.657 158.257 77.7477 204.509 77.7477 204.509L76.4805 209.82Z" fill="#AA4337"/>
<path opacity="0.5" d="M76.4805 209.823C76.4805 209.823 87.0211 224.015 98.2068 223.854C109.392 223.692 115.913 213.785 121.661 214.465C125.91 215.108 130.075 216.221 134.079 217.783C134.079 217.783 174.03 164.25 183.223 155.184C192.415 146.118 197.726 135.739 185.1 132.536C172.475 129.334 146.106 135.013 132.881 146.637C119.657 158.26 77.7477 204.512 77.7477 204.512L76.4805 209.823Z" fill="#182F43" stroke="#182F43" stroke-miterlimit="10" stroke-linecap="round"/>
<path d="M76.4805 209.82C76.4805 209.82 87.0211 224.012 98.2068 223.851C109.392 223.689 115.913 213.782 121.661 214.462C125.91 215.105 130.075 216.218 134.079 217.78C134.079 217.78 174.03 164.247 183.223 155.181C192.415 146.115 197.726 135.736 185.1 132.533C172.475 129.331 146.106 135.01 132.881 146.634C119.657 158.257 77.7477 204.509 77.7477 204.509L76.4805 209.82Z" stroke="#182F43" stroke-miterlimit="10" stroke-linecap="round"/>
<path d="M227.389 84.8324C227.389 84.8324 230.615 77.0912 237.066 73.6467C241.367 71.5019 246.085 70.3225 250.889 70.1908L267.662 59.823C267.662 59.823 272.397 43.4649 288.536 36.7834C304.675 30.102 373.299 5.16166 373.944 4.73543C374.589 4.3092 382.549 0.427035 382.549 1.07214C382.558 2.18023 382.338 3.27825 381.904 4.29768C381.259 6.02565 365.338 16.3474 365.338 16.3474C365.338 16.3474 373.08 11.6127 373.299 14.0434C373.517 16.4741 373.299 17.0501 370.499 18.778C367.7 20.506 362.539 23.72 361.468 24.3651C360.396 25.0102 356.307 28.8809 353.07 29.3186C349.833 29.7564 341.677 30.39 341.032 31.0351C340.387 31.6802 319.294 52.1163 312.417 57.9338C305.539 63.7513 294.342 69.1195 294.342 69.1195C294.342 69.1195 279.286 85.2472 267.847 93.6451C256.407 102.043 248.701 104.186 248.701 104.186L247.837 105.038C247.837 105.038 248.482 112.572 248.482 113.436C248.482 114.3 254.726 135.589 251.938 147.419C249.15 159.25 243.759 164.204 243.759 164.204C243.759 164.204 242.906 178.189 239.462 183.35C236.017 188.51 226.548 194.754 219.878 199.708C213.208 204.661 212.356 215.628 211.918 216.918C211.48 218.208 206.158 240.154 203.313 245.522C200.467 250.89 191.793 253.92 190.353 254.346C189.57 254.576 181.552 266.741 173.834 266.142C168.841 265.789 164.145 263.643 160.611 260.099C157.078 256.554 154.945 251.852 154.607 246.858C154.485 244.732 154.562 242.599 154.838 240.488C156.554 227.355 161.749 221.906 161.749 221.906C161.749 221.906 172.774 178.834 171.691 167.429C170.608 156.025 170.401 148.928 173.626 142.477C176.852 136.026 187.392 126.131 203.751 119.023C220.109 111.915 222.032 107.192 222.032 99.0248C222.198 93.8316 224.082 88.8401 227.389 84.8324Z" fill="white"/>
<path d="M253.703 127.058L253.572 127C253.572 127 252.614 140.984 250.224 150.31C247.834 159.637 239 166.312 239 166.312L232.524 179.673C232.524 179.673 220.562 190.383 212.906 190.383C205.251 190.383 204.257 184.331 204.257 184.331C197.052 178.359 181.422 174.243 171.282 176.572C169.697 188.781 165.284 207.249 163 216.403C167.271 218.628 174.122 220.726 184.167 219.758C194.545 218.654 204.681 215.974 214.208 211.814C215.214 207.895 217.166 202.707 221.307 199.721L223.614 198.073C216.681 200.886 207.878 210.051 201.406 210.892C194.224 211.826 191.834 210.431 192.319 207.63C192.804 204.828 202.755 206.604 206.186 205.324C209.617 204.044 206.671 203.468 199.489 202.534C192.307 201.6 193.751 198.799 193.751 198.799C193.751 198.799 205.405 199.744 207.618 198.799C209.83 197.854 225.365 194.188 232.464 188.077C239.564 181.967 241 169.5 241 169.5L245.692 166.312C245.811 165.032 245.858 164.237 245.858 164.237C245.858 164.237 251.383 159.291 254.259 147.44C255.643 141.699 254.874 133.813 253.703 127.058Z" fill="#AA4337"/>
<path d="M308.202 53.0497C294.747 58.8787 292.074 57.0816 292.074 57.0816C293.241 57.9222 294.335 58.8586 295.346 59.8809C297.293 61.7701 294.758 67.8411 287.582 73.2323C280.405 78.6236 257.077 92.9887 253.045 92.9887C249.013 92.9887 249.013 79.5451 249.013 79.5451C247.316 87.8836 246.974 96.4412 248 104.889L248.656 104.244C248.656 104.244 256.397 102.089 267.802 93.7029C279.207 85.3165 294.298 69.1773 294.298 69.1773C294.298 69.1773 305.483 63.7976 312.372 57.9916C316.151 54.8007 324.203 47.1976 330.804 40.8848C323.557 45.4529 316.006 49.5174 308.202 53.0497Z" fill="#AA4337"/>
<path opacity="0.5" d="M308.202 53.0497C294.747 58.8787 292.074 57.0816 292.074 57.0816C293.241 57.9222 294.335 58.8586 295.346 59.8809C297.293 61.7701 294.758 67.8411 287.582 73.2323C280.405 78.6236 257.077 92.9887 253.045 92.9887C249.013 92.9887 249.013 79.5451 249.013 79.5451C247.316 87.8836 246.974 96.4412 248 104.889L248.656 104.244C248.656 104.244 256.397 102.089 267.802 93.7029C279.207 85.3165 294.298 69.1773 294.298 69.1773C294.298 69.1773 305.483 63.7976 312.372 57.9916C316.151 54.8007 324.203 47.1976 330.804 40.8848C323.557 45.4529 316.006 49.5174 308.202 53.0497Z" fill="white"/>
<path opacity="0.5" d="M253.703 127.058L253.572 127C253.572 127 252.614 140.984 250.224 150.31C247.834 159.637 239 166.312 239 166.312L232.524 179.673C232.524 179.673 220.562 190.383 212.906 190.383C205.251 190.383 204.257 184.331 204.257 184.331C197.052 178.359 181.422 174.243 171.282 176.572C169.697 188.781 165.284 207.249 163 216.403C167.271 218.628 174.122 220.726 184.167 219.758C194.545 218.654 204.681 215.974 214.208 211.814C215.214 207.895 217.166 202.707 221.307 199.721L223.614 198.073C216.681 200.886 207.878 210.051 201.406 210.892C194.224 211.826 191.834 210.431 192.319 207.63C192.804 204.828 202.755 206.604 206.186 205.324C209.617 204.044 206.671 203.468 199.489 202.534C192.307 201.6 193.751 198.799 193.751 198.799C193.751 198.799 205.405 199.744 207.618 198.799C209.83 197.854 225.365 194.188 232.464 188.077C239.564 181.967 241 169.5 241 169.5L245.692 166.312C245.811 165.032 245.858 164.237 245.858 164.237C245.858 164.237 251.383 159.291 254.259 147.44C255.643 141.699 254.874 133.813 253.703 127.058Z" fill="white"/>
<path d="M227.389 84.8324C227.389 84.8324 230.615 77.0912 237.066 73.6467C241.367 71.5019 246.085 70.3225 250.889 70.1908L267.662 59.823C267.662 59.823 272.397 43.4649 288.536 36.7834C304.675 30.102 373.299 5.16166 373.944 4.73543C374.589 4.3092 382.549 0.427035 382.549 1.07214C382.558 2.18023 382.338 3.27825 381.904 4.29768C381.259 6.02565 365.338 16.3474 365.338 16.3474C365.338 16.3474 373.08 11.6127 373.299 14.0434C373.517 16.4741 373.299 17.0501 370.499 18.778C367.7 20.506 362.539 23.72 361.468 24.3651C360.396 25.0102 356.307 28.8809 353.07 29.3186C349.833 29.7564 341.677 30.39 341.032 31.0351C340.387 31.6802 319.294 52.1163 312.417 57.9338C305.539 63.7513 294.342 69.1195 294.342 69.1195C294.342 69.1195 279.286 85.2472 267.847 93.6451C256.407 102.043 248.5 104 248.5 104L248 104.186C248 104.186 248.482 112.572 248.482 113.436C248.482 114.3 256.288 134.169 253.5 146C250.712 157.831 245 165.5 245 165.5C245 165.5 242.906 178.189 239.462 183.35C235.023 190 226.548 194.754 219.878 199.708C213.208 204.661 212.356 215.628 211.918 216.918C211.48 218.208 206.158 240.154 203.313 245.522C200.467 250.89 191.793 253.92 190.353 254.346C189.57 254.576 181.552 266.741 173.834 266.142C168.841 265.789 164.145 263.643 160.611 260.099C157.078 256.554 154.945 251.852 154.607 246.858C154.485 244.732 154.562 242.599 154.838 240.488C156.554 227.355 161.749 221.906 161.749 221.906C161.749 221.906 172.774 178.834 171.691 167.429C170.608 156.025 170.401 148.928 173.626 142.477C176.852 136.026 187.392 126.131 203.751 119.023C220.109 111.915 222.032 107.192 222.032 99.0248C222.198 93.8316 224.082 88.8401 227.389 84.8324Z" stroke="#182F43" stroke-width="2" stroke-miterlimit="10" stroke-linecap="round"/>
<path d="M240.328 157.255C242.887 146.378 239.317 136.232 232.353 134.594C225.39 132.955 217.67 140.445 215.111 151.321C212.552 162.198 216.122 172.344 223.086 173.982C230.049 175.621 237.769 168.131 240.328 157.255Z" fill="#FFB700"/>
<path d="M204.35 199.72C192.727 202.301 188.223 196.702 188.223 196.702C188.223 196.702 189.513 205.307 201.781 206.598" stroke="#182F43" stroke-linecap="round" stroke-linejoin="round"/>
<path d="M217.678 199.926C217.678 199.926 208.854 207.886 201.965 210.466C195.077 213.047 189.708 217.574 183.902 209.821" stroke="#182F43" stroke-miterlimit="10" stroke-linecap="round"/>
<path d="M286.947 60.0886C286.947 60.0886 292.327 56.4368 295.334 59.8812C298.34 63.3256 294.262 69.097 294.262 69.097" stroke="#182F43" stroke-linecap="round" stroke-linejoin="round"/>
<path d="M249.517 76.0098C248.351 81.7689 247.501 87.5873 246.971 93.4392C246.672 97.3307 246.959 101.245 247.823 105.051" stroke="#182F43" stroke-linecap="round" stroke-linejoin="round"/>
<path d="M198 153.843L210.891 147" stroke="#182F43" stroke-miterlimit="10" stroke-linecap="round"/>
<path d="M373.864 4.80487C373.288 5.18502 318.788 25.0221 295.529 34.0651C297.626 34.1573 308.616 35.0788 311.53 44.6057C312.812 48.6678 313.404 52.916 313.281 57.1738C320.93 50.5269 340.387 31.669 341.009 31.0469C341.631 30.4249 349.822 29.7567 353.048 29.3305C356.273 28.9042 360.363 25.0221 361.445 24.377C362.528 23.7319 367.678 20.5063 370.477 18.7899C373.276 17.0734 373.495 16.4168 373.276 14.0553C373.057 11.6937 365.316 16.3592 365.316 16.3592C365.316 16.3592 381.236 5.99141 381.882 4.30952C382.316 3.29008 382.536 2.19207 382.527 1.08399C382.469 0.496478 374.509 4.36712 373.864 4.80487Z" fill="#AA4337" stroke="#182F43" stroke-linecap="round" stroke-linejoin="round"/>
<path d="M365.259 16.417L357.726 20.2876" stroke="#182F43" stroke-linecap="round" stroke-linejoin="round"/>
<path d="M213.392 210.088C210.984 211.021 207.943 212.277 205.04 213.671C196.979 217.551 188.284 219.947 179.374 220.744C172.37 221.331 166.414 218.198 163.154 215.986C162.267 219.626 161.691 221.919 161.691 221.919C161.691 221.919 156.495 227.368 154.779 240.5C154.503 242.612 154.426 244.745 154.549 246.871C154.886 251.864 157.019 256.567 160.553 260.111C164.086 263.655 168.783 265.802 173.775 266.155C181.493 266.754 189.511 254.635 190.294 254.358C191.792 253.932 200.466 250.902 203.254 245.534C206.042 240.166 211.433 218.221 211.859 216.931C212.067 216.309 212.412 213.44 213.392 210.088Z" fill="#182F43" stroke="#182F43" stroke-miterlimit="10" stroke-linecap="round"/>
<path d="M167.254 228.265C167.254 228.265 176.47 224.29 185.778 227.596" stroke="white" stroke-width="0.75" stroke-linecap="round" stroke-linejoin="round"/>
<path d="M186.702 216.953C174.826 218.289 167.948 213.946 164.458 210.513C163.663 213.969 162.972 216.78 162.465 218.796C168.552 222.585 175.741 224.209 182.866 223.404C195.676 221.825 207.3 216.584 212.449 213.98C212.495 213.712 212.553 213.435 212.622 213.151C212.795 212.31 213.025 211.4 213.302 210.432C213.302 210.375 213.302 210.317 213.359 210.248C213.451 209.949 213.544 209.638 213.647 209.326C213.652 209.281 213.652 209.234 213.647 209.188C214.003 208.123 214.422 207.081 214.903 206.066C206.562 211.999 196.866 215.742 186.702 216.953Z" fill="#AA4337" stroke="#182F43" stroke-miterlimit="10" stroke-linecap="round"/>
<path d="M150.622 141.372C150.622 141.372 148.536 142.432 156.059 137.49C163.581 132.548 161.312 139.701 166.427 127.007C171.541 114.312 177.186 104.854 186.437 101.41C195.687 97.9653 223.012 102.919 223.012 102.919L229.463 107.435L220.477 124.852C218.314 123.787 215.948 123.197 213.538 123.122C211.128 123.046 208.73 123.487 206.504 124.415C199.189 127.64 195.307 131.511 196.136 134.955C196.966 138.4 203.877 147.869 203.877 147.869C203.877 147.869 171.3 135.07 166.139 137.858C160.978 140.646 145.253 146.36 144.389 146.798C143.525 147.235 150.622 141.372 150.622 141.372Z" fill="#AA4337" stroke="#182F43" stroke-miterlimit="10" stroke-linecap="round"/>
<path d="M170.678 131.292C171.772 129.69 172.982 127.836 174.214 125.704C179.813 116.247 190.999 112.157 190.999 112.157" stroke="#182F43" stroke-miterlimit="10" stroke-linecap="round"/>
<path d="M191.816 122.49C188.797 123.231 185.953 124.562 183.45 126.406C180.947 128.251 178.834 130.573 177.232 133.238" stroke="#182F43" stroke-miterlimit="10" stroke-linecap="round"/>
<path d="M185.837 153.25C185.837 153.25 172.716 151.314 162.797 159.701C152.879 168.087 153.996 177.084 153.996 177.084C153.996 177.084 144.308 181.381 142.373 186.3C141.242 189.206 140.468 192.239 140.069 195.331C140.069 195.331 134.908 200.285 130.599 205.227C126.291 210.169 122.639 210.987 121.775 217.495C120.911 224.004 121.349 239.867 126.084 255.568C130.818 271.27 134.044 278.159 135.3 280.912C136.555 283.665 147.775 297.903 149.711 298.341C151.646 298.779 153.581 299.194 155.091 298.341C156.6 297.489 167.762 294.885 167.359 291.671C167.276 289.955 166.673 288.304 165.631 286.937L165.205 286.292C165.205 286.292 167.14 282.628 165.85 280.912C164.56 279.195 163.477 278.976 161.115 276.822C158.754 274.668 157.464 274.023 154.664 274.023C151.865 274.023 148.904 274.242 148.904 274.242C148.904 274.242 144.596 272.514 144.596 260.038C144.596 247.562 148.467 236.803 150.356 231.239C151.497 228.057 152.149 224.72 152.291 221.343C152.291 221.343 153.8 223.497 164.341 218.544C174.881 213.59 177.255 199.617 177.255 199.617L161.726 202.082C169.328 201.415 176.832 199.901 184.097 197.566C196.147 193.696 201.308 193.05 205.985 174.757" fill="white"/>
<path d="M165.379 193.132C163.167 190.172 175.747 181.612 179.076 178.329C182.405 175.046 168.34 183.882 165.01 184.619C161.681 185.356 158.721 183.133 160.575 172.777C161.913 166.27 165.074 160.277 169.687 155.497C167.184 156.536 164.853 157.95 162.776 159.69C152.88 168.077 153.963 177.12 153.963 177.12C153.963 177.12 144.275 181.417 142.339 186.336C141.208 189.242 140.435 192.274 140.036 195.367C140.036 195.367 134.875 200.321 130.566 205.262C126.258 210.204 122.606 211.022 121.742 217.531C120.878 224.04 121.316 239.902 126.051 255.604C130.785 271.305 134.011 278.194 135.266 280.947C136.522 283.701 147.742 297.939 149.678 298.377C151.613 298.815 153.548 299.229 155.057 298.377C156.566 297.524 167.729 294.921 167.326 291.707C167.23 290.928 167.072 290.157 166.854 289.403C162.729 289.921 155.184 292.559 153.157 292.559C150.945 292.559 148.721 289.23 145.392 285.521C142.063 281.811 136.879 272.204 136.176 260.362C135.474 248.519 140.612 237.414 140.612 231.862C140.612 226.309 133.953 239.269 135.428 233.716C136.902 228.164 142.835 220.019 147.27 217.796C151.705 215.573 156.9 214.098 158.79 210.4C160.679 206.702 152.131 209.248 155.092 206.322C158.052 203.396 177.302 199.595 183.592 195.955C189.882 192.314 167.602 196.093 165.379 193.132Z" fill="#AA4337"/>
<path opacity="0.5" d="M165.379 193.132C163.167 190.172 175.747 181.612 179.076 178.329C182.405 175.046 168.34 183.882 165.01 184.619C161.681 185.356 158.721 183.133 160.575 172.777C161.913 166.27 165.074 160.277 169.687 155.497C167.184 156.536 164.853 157.95 162.776 159.69C152.88 168.077 153.963 177.12 153.963 177.12C153.963 177.12 144.275 181.417 142.339 186.336C141.208 189.242 140.435 192.274 140.036 195.367C140.036 195.367 134.875 200.321 130.566 205.262C126.258 210.204 122.606 211.022 121.742 217.531C120.878 224.04 121.316 239.902 126.051 255.604C130.785 271.305 134.011 278.194 135.266 280.947C136.522 283.701 147.742 297.939 149.678 298.377C151.613 298.815 153.548 299.229 155.057 298.377C156.566 297.524 167.729 294.921 167.326 291.707C167.23 290.928 167.072 290.157 166.854 289.403C162.729 289.921 155.184 292.559 153.157 292.559C150.945 292.559 148.721 289.23 145.392 285.521C142.063 281.811 136.879 272.204 136.176 260.362C135.474 248.519 140.612 237.414 140.612 231.862C140.612 226.309 133.953 239.269 135.428 233.716C136.902 228.164 142.835 220.019 147.27 217.796C151.705 215.573 156.9 214.098 158.79 210.4C160.679 206.702 152.131 209.248 155.092 206.322C158.052 203.396 177.302 199.595 183.592 195.955C189.882 192.314 167.602 196.093 165.379 193.132Z" fill="white"/>
<path d="M185.837 153.25C185.837 153.25 172.716 151.314 162.797 159.701C152.879 168.087 153.996 177.084 153.996 177.084C153.996 177.084 144.308 181.381 142.373 186.3C141.242 189.206 140.468 192.239 140.069 195.331C140.069 195.331 134.908 200.285 130.599 205.227C126.291 210.169 122.639 210.987 121.775 217.495C120.911 224.004 121.349 239.867 126.084 255.568C130.818 271.27 134.044 278.159 135.3 280.912C136.555 283.665 147.775 297.903 149.711 298.341C151.646 298.779 153.581 299.194 155.091 298.341C156.6 297.489 167.762 294.885 167.359 291.671C167.276 289.955 166.673 288.304 165.631 286.937L165.205 286.292C165.205 286.292 167.14 282.628 165.85 280.912C164.56 279.195 163.477 278.976 161.115 276.822C158.754 274.668 157.464 274.023 154.664 274.023C151.865 274.023 148.904 274.242 148.904 274.242C148.904 274.242 144.596 272.514 144.596 260.038C144.596 247.562 148.467 236.803 150.356 231.239C151.497 228.057 152.149 224.72 152.291 221.343C152.291 221.343 153.8 223.497 164.341 218.544C174.881 213.59 177.255 199.617 177.255 199.617L161.726 202.082C169.328 201.415 176.832 199.901 184.097 197.566C196.147 193.696 199.999 190 203.999 178.5" stroke="#182F43" stroke-width="2" stroke-miterlimit="10" stroke-linecap="round"/>
<path d="M152.268 221.446L151.035 211.573" stroke="#182F43" stroke-linecap="round" stroke-linejoin="round"/>
<path d="M213.15 145.069C219.394 143.134 220.903 135.392 224.555 127.213C227.441 121.142 230.696 115.252 234.3 109.577C228.004 109.663 221.742 108.642 215.8 106.558C206.111 103.103 194.707 105.487 192.564 107.849C190.422 110.21 190.629 107.204 191.055 114.519C191.481 121.834 194.281 132.374 196.815 136.038C199.349 139.701 200.905 141.797 200.905 141.797" fill="white"/>
<path d="M231.537 109.554C226.153 109.338 220.831 108.328 215.743 106.558C206.055 103.103 194.65 105.487 192.508 107.849C190.365 110.21 190.572 107.204 190.999 114.519C191.425 121.834 194.224 132.374 196.758 136.038L197.68 137.328L232.066 109.819L231.537 109.554Z" fill="#AA4337"/>
<path opacity="0.5" d="M231.537 109.554C226.153 109.338 220.831 108.328 215.743 106.558C206.055 103.103 194.65 105.487 192.508 107.849C190.365 110.21 190.572 107.204 190.999 114.519C191.425 121.834 194.224 132.374 196.758 136.038L197.68 137.328L232.066 109.819L231.537 109.554Z" fill="white"/>
<path d="M213.102 142C219.271 140.221 218.505 132.487 222.113 124.968C224.965 119.386 230.439 115.758 234 110.541C227.779 110.62 221.591 108.51 215.72 106.595C206.148 103.418 194.88 105.61 192.764 107.781C190.647 109.953 190.851 107.188 191.273 113.913C191.694 120.639 194.802 131.218 197.306 134.586C199.373 137.953 199.89 138.434 199.89 138.434" stroke="#182F43" stroke-miterlimit="10" stroke-linecap="round"/>
<path d="M219.683 66.6774C220.304 64.133 220.758 61.551 221.043 58.9476C221.48 54.8581 211.654 47.6121 201.54 48.4761C191.425 49.3401 195.089 59.2356 193.798 62.4611C192.508 65.6867 182.82 62.2422 180.24 68.0482C177.659 73.8542 182.175 75.5821 182.175 77.264C182.175 78.9459 174.215 83.5078 175.263 93.6221C176.311 103.736 193.764 113.62 197.635 114.484C201.505 115.348 206.24 111.685 206.24 108.725C206.24 105.764 212.691 104.635 214.419 101.813C216.147 98.9903 211.62 89.3368 211.827 87.1826C212.034 85.0284 218.739 76.4346 216.562 74.2804C214.384 72.1262 219.683 66.6774 219.683 66.6774Z" fill="#182F43" stroke="#182F43" stroke-miterlimit="10" stroke-linecap="round"/>
<path d="M209.382 69.0956C209.382 69.0956 212.723 68.7269 212.723 61.3197C212.723 53.9125 201.987 55.7672 200.501 58.7278C199.015 61.6884 200.132 67.2409 196.434 68.7269C192.736 70.213 186.804 70.2015 186.804 73.162V77.2401" stroke="white" stroke-width="0.75" stroke-linecap="round" stroke-linejoin="round"/>
<path d="M199.742 75.0169C199.742 75.0169 186.045 74.2796 179.007 86.8592" stroke="white" stroke-width="0.75" stroke-linecap="round" stroke-linejoin="round"/>
<path d="M201.62 78.3467C201.62 78.3467 192.405 78.7153 187.555 85.0051" stroke="white" stroke-width="0.75" stroke-linecap="round" stroke-linejoin="round"/>
<path d="M217.402 68.0371C218.013 67.2423 225.973 75.5135 226.284 76.4466C226.598 77.5836 226.848 78.7374 227.033 79.9025C227.069 80.1203 227.149 80.3285 227.268 80.5146C227.386 80.7007 227.542 80.8609 227.724 80.9854L233.288 84.7984C233.647 85.0497 233.893 85.4321 233.973 85.8631C234.052 86.2941 233.96 86.7392 233.714 87.1024L231.779 89.8902C231.61 90.1272 231.509 90.4051 231.484 90.6949C231.46 90.9847 231.514 91.2757 231.641 91.5375C233.196 94.8782 238.702 106.744 238.334 107.665C237.901 108.797 237.052 109.72 235.961 110.246C234.889 110.672 215.098 117.342 212.725 117.561C210.905 117.722 206.528 110.246 204.592 106.767C204.364 106.383 203.994 106.106 203.562 105.996C203.13 105.886 202.672 105.952 202.288 106.179C201.459 106.658 200.523 106.923 199.565 106.949C198.608 106.975 197.659 106.762 196.805 106.329C192.496 104.382 187.589 100.73 189.697 96.6407C191.805 92.5512 195.296 92.3439 196.805 93.4152C197.807 94.1294 199.581 95.627 200.652 96.5256C200.911 96.7499 201.233 96.8882 201.573 96.9212C201.914 96.9543 202.256 96.8804 202.553 96.7099L203.463 96.18C203.68 96.0617 203.868 95.8961 204.012 95.6955C204.157 95.4948 204.254 95.2642 204.297 95.0208C204.341 94.7774 204.328 94.5274 204.262 94.2893C204.195 94.0513 204.076 93.8313 203.913 93.6456C203.568 93.208 203.296 92.718 203.106 92.1941C203.106 92.1941 209.338 86.8144 207.196 83.8077C205.053 80.8011 199.235 76.2738 199.881 73.9122C200.526 71.5507 209.096 68.5325 212.783 68.5325C214.154 68.4864 216.953 68.6362 217.402 68.0371Z" fill="white"/>
<path d="M207.136 83.7754C209.279 86.782 203.047 92.1618 203.047 92.1618C203.236 92.6856 203.509 93.1757 203.853 93.6133C204.017 93.7989 204.136 94.0189 204.202 94.257C204.269 94.4951 204.281 94.7451 204.238 94.9885C204.195 95.2319 204.098 95.4625 203.953 95.6631C203.809 95.8638 203.621 96.0294 203.404 96.1476L202.494 96.6775C202.197 96.848 201.855 96.9219 201.514 96.8889C201.173 96.8559 200.852 96.7176 200.593 96.4932C199.522 95.5947 197.748 94.0971 196.746 93.3829C195.236 92.3115 191.792 92.5189 189.638 96.6084C187.484 100.698 192.437 104.35 196.746 106.297C197.6 106.729 198.549 106.942 199.506 106.916C200.464 106.89 201.4 106.626 202.229 106.147C202.612 105.919 203.071 105.853 203.503 105.964C203.935 106.074 204.305 106.351 204.533 106.734C206.468 110.19 210.846 117.69 212.666 117.528C215.039 117.309 234.83 110.616 235.901 110.213C236.993 109.687 237.842 108.764 238.274 107.633C238.274 107.633 229.727 111.676 225.073 107.483C220.419 103.29 214.359 97.242 212.493 94.4427C210.627 91.6434 214.509 85.4573 210.627 79.5361C206.745 73.6149 199.764 73.8568 199.764 73.8568C199.176 76.2299 204.982 80.7457 207.136 83.7754Z" fill="#AA4337"/>
<path opacity="0.5" d="M207.136 83.7754C209.279 86.782 203.047 92.1618 203.047 92.1618C203.236 92.6856 203.509 93.1757 203.853 93.6133C204.017 93.7989 204.136 94.0189 204.202 94.257C204.269 94.4951 204.281 94.7451 204.238 94.9885C204.195 95.2319 204.098 95.4625 203.953 95.6631C203.809 95.8638 203.621 96.0294 203.404 96.1476L202.494 96.6775C202.197 96.848 201.855 96.9219 201.514 96.8889C201.173 96.8559 200.852 96.7176 200.593 96.4932C199.522 95.5947 197.748 94.0971 196.746 93.3829C195.236 92.3115 191.792 92.5189 189.638 96.6084C187.484 100.698 192.437 104.35 196.746 106.297C197.6 106.729 198.549 106.942 199.506 106.916C200.464 106.89 201.4 106.626 202.229 106.147C202.612 105.919 203.071 105.853 203.503 105.964C203.935 106.074 204.305 106.351 204.533 106.734C206.468 110.19 210.846 117.69 212.666 117.528C215.039 117.309 234.83 110.616 235.901 110.213C236.993 109.687 237.842 108.764 238.274 107.633C238.274 107.633 229.727 111.676 225.073 107.483C220.419 103.29 214.359 97.242 212.493 94.4427C210.627 91.6434 214.509 85.4573 210.627 79.5361C206.745 73.6149 199.764 73.8568 199.764 73.8568C199.176 76.2299 204.982 80.7457 207.136 83.7754Z" fill="white"/>
<path d="M217.402 68.0371C218.013 67.2423 225.973 75.5135 226.284 76.4466C226.598 77.5836 226.848 78.7374 227.033 79.9025C227.069 80.1203 227.149 80.3285 227.268 80.5146C227.386 80.7007 227.542 80.8609 227.724 80.9854L233.288 84.7984C233.647 85.0497 233.893 85.4321 233.973 85.8631C234.052 86.2941 233.96 86.7392 233.714 87.1024L231.779 89.8902C231.61 90.1272 231.509 90.4051 231.484 90.6949C231.46 90.9847 231.514 91.2757 231.641 91.5375C233.196 94.8782 238.702 106.744 238.334 107.665C237.901 108.797 237.052 109.72 235.961 110.246C234.889 110.672 215.098 117.342 212.725 117.561C210.905 117.722 206.528 110.246 204.592 106.767C204.364 106.383 203.994 106.106 203.562 105.996C203.13 105.886 202.672 105.952 202.288 106.179C201.459 106.658 200.523 106.923 199.565 106.949C198.608 106.975 197.659 106.762 196.805 106.329C192.496 104.382 187.589 100.73 189.697 96.6407C191.805 92.5512 195.296 92.3439 196.805 93.4152C197.807 94.1294 199.581 95.627 200.652 96.5256C200.911 96.7499 201.233 96.8882 201.573 96.9212C201.914 96.9543 202.256 96.8804 202.553 96.7099L203.463 96.18C203.68 96.0617 203.868 95.8961 204.012 95.6955C204.157 95.4948 204.254 95.2642 204.297 95.0208C204.341 94.7774 204.328 94.5274 204.262 94.2893C204.195 94.0513 204.076 93.8313 203.913 93.6456V93.6456C203.568 93.208 203.296 92.718 203.106 92.1941C203.106 92.1941 209.338 86.8144 207.196 83.8077C205.053 80.8011 199.235 76.2738 199.881 73.9122C200.526 71.5507 209.096 68.5325 212.783 68.5325C214.154 68.4864 216.953 68.6362 217.402 68.0371Z" stroke="#182F43" stroke-width="2" stroke-miterlimit="10" stroke-linecap="round"/>
<path d="M223.437 79.5566C223.437 79.5566 218.829 79.5566 217.527 80.2132C216.225 80.8699 214.566 85.4663 214.566 85.4663L218.84 82.8397L223.759 81.8606L225.072 78.2549L223.437 79.5566Z" fill="#182F43"/>
<path d="M223.761 84.1523L219.821 86.1222H223.761" fill="white"/>
<path d="M223.761 84.1523L219.821 86.1222H223.761" stroke="#182F43" stroke-miterlimit="10" stroke-linecap="round"/>
<path d="M219.614 295.023C212.162 297.316 205.011 300.491 198.313 304.481C188.222 310.713 171.415 320.62 163.892 321.081C156.37 321.542 153.997 319.146 149.481 317.429C144.965 315.713 142.569 321.3 142.569 324.526C142.569 327.751 142.569 329.26 140.415 332.278C138.261 335.297 132.697 346.425 132.697 346.425C132.697 346.425 129.679 358.474 132.697 358.901C135.715 359.327 137.639 355.249 143.883 350.088C150.126 344.927 160.01 333.73 168.834 332.877C177.659 332.025 217.033 327.924 233.345 320.206C249.657 312.487 248.62 314.607 253.355 310.99C258.09 307.373 256.362 300.449 254 295.715C252.744 293.039 250.906 290.677 248.62 288.803" fill="white"/>
<path d="M243.068 315.85C241.132 315.504 239.612 314.997 239.612 314.283C239.612 312.417 245.199 312.417 247.998 308.696C250.798 304.975 247.526 301.243 243.805 297.049C242.377 295.448 240.614 293.156 238.713 290.921L219.66 295.022C212.208 297.315 205.057 300.49 198.36 304.48C188.222 310.712 171.415 320.619 163.892 321.08C156.37 321.54 153.997 319.144 149.481 317.428C144.965 315.711 142.569 321.299 142.569 324.524C142.569 327.75 142.569 329.259 140.415 332.277C138.261 335.295 132.697 346.423 132.697 346.423C132.697 346.423 129.679 358.473 132.697 358.899C135.715 359.325 137.639 355.247 143.883 350.086C150.126 344.926 160.01 333.728 168.834 332.876C177.659 332.023 217.033 327.922 233.345 320.204C237.677 318.154 240.752 316.806 243.068 315.85Z" fill="#AA4337"/>
<path opacity="0.5" d="M243.068 315.85C241.132 315.504 239.612 314.997 239.612 314.283C239.612 312.417 245.199 312.417 247.998 308.696C250.798 304.975 247.526 301.243 243.805 297.049C242.377 295.448 240.614 293.156 238.713 290.921L219.66 295.022C212.208 297.315 205.057 300.49 198.36 304.48C188.222 310.712 171.415 320.619 163.892 321.08C156.37 321.54 153.997 319.144 149.481 317.428C144.965 315.711 142.569 321.299 142.569 324.524C142.569 327.75 142.569 329.259 140.415 332.277C138.261 335.295 132.697 346.423 132.697 346.423C132.697 346.423 129.679 358.473 132.697 358.899C135.715 359.325 137.639 355.247 143.883 350.086C150.126 344.926 160.01 333.728 168.834 332.876C177.659 332.023 217.033 327.922 233.345 320.204C237.677 318.154 240.752 316.806 243.068 315.85Z" fill="white"/>
<path d="M219.614 295.023C212.162 297.316 205.011 300.491 198.313 304.481C188.222 310.713 171.415 320.62 163.892 321.081C156.37 321.542 153.997 319.146 149.481 317.429C144.965 315.713 142.569 321.3 142.569 324.526C142.569 327.751 142.569 329.26 140.415 332.278C138.261 335.297 132.697 346.425 132.697 346.425C132.697 346.425 129.679 358.474 132.697 358.901C135.715 359.327 137.639 355.249 143.883 350.088C150.126 344.927 160.01 333.73 168.834 332.877C177.659 332.025 217.033 327.924 233.345 320.206C249.657 312.487 248.62 314.607 253.355 310.99C258.09 307.373 256.362 300.449 254 295.715C252.744 293.039 250.906 290.677 248.62 288.803" stroke="#182F43" stroke-width="2" stroke-miterlimit="10" stroke-linecap="round"/>
<path d="M254.931 298.04C254.931 298.04 249.805 278.007 215.522 249.035C192.483 229.544 182.173 225.374 169.052 236.986C155.931 248.598 158.511 256.143 163.292 263.481C168.072 270.819 187.38 284.781 203.3 291.889C219.22 298.997 235.359 308.88 244.391 308.017" fill="white"/>
<path d="M229.325 283.538C224.659 283.077 233.046 292.396 223.265 290.058C213.485 287.719 179.49 258.862 172.498 249.543C166.738 241.871 171.726 235.477 173.65 233.415C172.02 234.436 170.478 235.592 169.042 236.871C155.921 248.494 158.501 256.017 163.282 263.366C168.063 270.716 187.37 284.667 203.29 291.774C219.21 298.882 235.35 308.766 244.381 307.902L248.678 303.87C247.906 301.681 245.925 299.435 243.794 297.027C240.061 292.857 233.979 284.01 229.325 283.538Z" fill="#AA4337"/>
<path opacity="0.5" d="M229.325 283.538C224.659 283.077 233.046 292.396 223.265 290.058C213.485 287.719 179.49 258.862 172.498 249.543C166.738 241.871 171.726 235.477 173.65 233.415C172.02 234.436 170.478 235.592 169.042 236.871C155.921 248.494 158.501 256.017 163.282 263.366C168.063 270.716 187.37 284.667 203.29 291.774C219.21 298.882 235.35 308.766 244.381 307.902L248.678 303.87C247.906 301.681 245.925 299.435 243.794 297.027C240.061 292.857 233.979 284.01 229.325 283.538Z" fill="white"/>
<path d="M254.931 298.04C254.931 298.04 249.805 278.007 215.522 249.035C192.483 229.544 182.173 225.374 169.052 236.986C155.931 248.598 158.511 256.143 163.292 263.481C168.072 270.819 187.38 284.781 203.3 291.889C219.22 298.997 235.359 308.88 244.391 308.017" stroke="#182F43" stroke-width="2" stroke-miterlimit="10" stroke-linecap="round"/>
<path d="M202.184 316.967C200.007 312.164 200.537 306.761 201.585 302.591C200.491 303.19 199.396 303.812 198.313 304.48C188.222 310.712 171.415 320.619 163.892 321.08C156.37 321.541 153.997 319.145 149.481 317.428C144.965 315.712 142.569 321.299 142.569 324.524C142.569 327.75 142.569 329.259 140.415 332.277C138.261 335.295 132.697 346.424 132.697 346.424C132.697 346.424 129.679 358.473 132.697 358.899C135.715 359.326 137.639 355.248 143.883 350.087C150.126 344.926 160.01 333.729 168.834 332.876C183.596 331.475 198.276 329.318 212.817 326.414C208.165 324.792 204.343 321.396 202.184 316.967Z" fill="#AA4337"/>
<path d="M202.184 316.967C200.007 312.164 200.537 306.761 201.585 302.591C200.491 303.19 199.396 303.812 198.313 304.48C188.222 310.712 171.415 320.619 163.892 321.08C156.37 321.541 153.997 319.145 149.481 317.428C144.965 315.712 142.569 321.299 142.569 324.524C142.569 327.75 142.569 329.259 140.415 332.277C138.261 335.295 132.697 346.424 132.697 346.424C132.697 346.424 129.679 358.473 132.697 358.899C135.715 359.326 137.639 355.248 143.883 350.087C150.126 344.926 160.01 333.729 168.834 332.876C183.596 331.475 198.276 329.318 212.817 326.414C208.165 324.792 204.343 321.396 202.184 316.967V316.967Z" stroke="#182F43" stroke-linecap="round" stroke-linejoin="round"/>
<path d="M164.85 260.521C164.85 260.521 211.908 290.633 225.709 295.656C239.509 300.678 236.376 291.255 236.376 291.255" stroke="#182F43" stroke-linecap="round" stroke-linejoin="round"/>
<path d="M206.884 319.49C206.884 319.49 220.062 320.746 228.84 312.578" stroke="#182F43" stroke-linecap="round" stroke-linejoin="round"/>
<path d="M202.141 150.828C202.141 150.828 185.665 139.931 166.595 142.233C147.524 144.534 124.881 164.256 110.203 181.125C95.5242 197.993 30.2681 290 30.2681 290L28.2427 274.961C27.2947 267.876 29.1467 260.699 33.3972 254.986L43.7631 241.028C43.7631 241.028 44.7985 223.86 54.0038 215.046C60.116 209.265 66.7567 204.083 73.8366 199.57C76.2147 197.913 100.007 173.807 116.791 156.57C133.574 139.333 153.942 126.986 172.398 132.21C190.854 137.434 198.25 141.416 202.551 145.259C206.852 149.102 207 148.711 207 148.711L202.141 150.828Z" fill="#AA4337" stroke="#182F43" stroke-miterlimit="10" stroke-linecap="round"/>
<path d="M90.752 191.805L94.6341 187.439" stroke="#182F43" stroke-miterlimit="10" stroke-linecap="round"/>
<path d="M43.6484 241.168L89.1515 193.304" stroke="#182F43" stroke-miterlimit="10" stroke-linecap="round"/>
<path d="M154.296 139.7C153.075 140.184 151.854 140.725 150.621 141.359" stroke="#182F43" stroke-miterlimit="10" stroke-linecap="round"/>
<path d="M205 150C205 150 182.028 131.735 158 138.505" stroke="#182F43" stroke-miterlimit="10" stroke-linecap="round"/>
<path d="M165.183 286.418C165.183 286.418 167.118 282.755 165.828 281.038C164.538 279.322 163.455 279.103 161.094 276.949C158.732 274.794 157.442 274.149 154.643 274.149C151.843 274.149 148.883 274.368 148.883 274.368C148.883 274.368 144.574 272.64 144.574 260.164C144.688 252.462 145.954 244.821 148.33 237.493C144.559 239.725 140.334 241.08 135.969 241.456C133.35 241.74 130.702 241.356 128.273 240.338C125.843 239.321 123.711 237.704 122.076 235.639C122.776 242.415 124.094 249.113 126.016 255.649C130.751 271.35 133.976 278.239 135.232 280.992C136.487 283.745 147.708 297.984 149.643 298.421C151.578 298.859 153.514 299.274 155.023 298.421C156.532 297.569 167.694 294.966 167.291 291.752C167.208 290.035 166.605 288.384 165.563 287.017L165.183 286.418Z" fill="#AA4337"/>
<path opacity="0.2" d="M167.336 291.796C167.336 291.45 167.232 291.139 167.175 290.851C167.175 290.759 167.175 290.667 167.175 290.575C167.175 290.482 167.083 290.16 167.036 289.976C166.99 289.791 166.944 289.664 166.91 289.526C162.786 290.045 155.24 292.683 153.213 292.683C151.001 292.683 148.778 289.353 145.448 285.644C142.119 281.935 136.935 272.327 136.233 260.485C135.783 253.389 137.465 246.569 138.882 241.028C137.961 241.212 137.016 241.351 136.002 241.454C133.384 241.738 130.735 241.354 128.306 240.337C125.876 239.319 123.744 237.702 122.109 235.637C122.109 235.936 122.178 236.247 122.213 236.547C122.271 237.077 122.34 237.607 122.409 238.16C122.409 238.517 122.513 238.897 122.559 239.312C122.605 239.726 122.708 240.302 122.778 240.809C122.847 241.316 122.904 241.581 122.962 241.961C123.019 242.341 123.135 242.975 123.227 243.482L123.434 244.634L123.711 246.2L123.953 247.352C124.068 247.894 124.194 248.447 124.321 249C124.402 249.368 124.482 249.737 124.575 250.094C124.724 250.716 124.886 251.338 125.047 251.949C125.116 252.26 125.197 252.571 125.277 252.87C125.531 253.803 125.796 254.737 126.072 255.658C130.807 271.36 134.032 278.248 135.288 281.002C135.393 281.224 135.512 281.44 135.645 281.647C135.876 282.038 136.175 282.511 136.544 283.052C137.154 283.951 137.938 285.022 138.848 286.197L139.389 286.9C143.214 291.934 148.467 298.143 149.757 298.419C151.692 298.846 153.627 299.272 155.137 298.419C155.696 298.156 156.273 297.933 156.865 297.751L157.752 297.463C161.438 296.265 167.659 294.215 167.336 291.796Z" fill="#182F43"/>
<path d="M163.949 282.579L161.242 284.825C161.242 284.825 163.247 284.687 165.608 287.06" stroke="#182F43" stroke-linecap="round" stroke-linejoin="round"/>
<path d="M165.183 286.418C165.183 286.418 167.118 282.755 165.828 281.038C164.538 279.322 163.455 279.103 161.094 276.949C158.732 274.794 157.442 274.149 154.643 274.149C151.843 274.149 148.883 274.368 148.883 274.368C148.883 274.368 144.574 272.64 144.574 260.164C144.688 252.462 145.954 244.821 148.33 237.493C144.559 239.725 140.334 241.08 135.969 241.456C133.35 241.74 130.702 241.356 128.273 240.338C125.843 239.321 123.711 237.704 122.076 235.639C122.776 242.415 124.094 249.113 126.016 255.649C130.751 271.35 133.976 278.239 135.232 280.992C136.487 283.745 147.708 297.984 149.643 298.421C151.578 298.859 153.514 299.274 155.023 298.421C156.532 297.569 167.694 294.966 167.291 291.752C167.208 290.035 166.605 288.384 165.563 287.017L165.183 286.418Z" stroke="#182F43" stroke-linecap="round" stroke-linejoin="round"/>
<path d="M333.19 61.8389L296.097 96.6631" stroke="#182F43" stroke-linecap="round" stroke-linejoin="round"/>
<path d="M292.616 99.9238L286.603 105.569" stroke="#182F43" stroke-linecap="round" stroke-linejoin="round"/>
<path d="M64.4429 282.467L57.9688 288.549" stroke="#182F43" stroke-linecap="round" stroke-linejoin="round"/>
<path d="M112.343 237.515L69.6504 277.58" stroke="#182F43" stroke-linecap="round" stroke-linejoin="round"/>
<path d="M152.512 362.183L148.227 366.203" stroke="#182F43" stroke-linecap="round" stroke-linejoin="round"/>
<path d="M179.261 337.068L156.844 358.103" stroke="#182F43" stroke-linecap="round" stroke-linejoin="round"/>
<path d="M6.17238 293.935L1 298.796" stroke="#182F43" stroke-linecap="round" stroke-linejoin="round"/>
<path d="M47.0941 255.922L9.36914 291.319" stroke="#182F43" stroke-linecap="round" stroke-linejoin="round"/>
<path d="M122.169 136.902L115.684 142.985" stroke="#182F43" stroke-linecap="round" stroke-linejoin="round"/>
<path d="M170.069 91.9521L127.791 131.638" stroke="#182F43" stroke-linecap="round" stroke-linejoin="round"/>
<path d="M323.995 79.4062L269.61 130.439" stroke="#182F43" stroke-linecap="round" stroke-linejoin="round"/>
<path d="M403.886 201.1C396.041 196.826 392.481 200.386 389.636 196.826C386.79 193.266 397.469 183.993 376.088 174.777C376.088 174.777 374.66 154.813 345.434 154.042C316.209 153.27 324.054 174.005 316.209 178.993C308.364 183.981 306.233 176.136 298.388 181.136C290.543 186.136 294.114 196.112 287.697 197.529C281.281 198.946 272.722 191.112 264.888 196.1C257.055 201.088 257.043 205.316 253.483 205.316C249.924 205.316 242.793 202.471 238.508 205.316C234.222 208.161 229.234 211.733 229.234 211.733H409.588C409.588 211.733 411.708 205.374 403.886 201.1Z" fill="white"/>
<path d="M142.605 85.7413C139.576 84.094 138.205 85.4648 137.099 84.0939C135.993 82.7231 140.129 79.1405 131.88 75.5693C131.88 75.5693 131.327 67.8626 120.05 67.5861C108.772 67.3096 111.801 75.2928 108.772 77.2166C105.742 79.1404 104.924 76.0647 101.86 78.0346C98.7956 80.0044 100.213 83.7944 97.7358 84.3704C95.259 84.9464 91.9759 81.8937 88.9347 83.8175C85.8935 85.7413 85.905 87.3886 84.5341 87.3886C83.1633 87.3886 80.4101 86.2942 78.7743 87.3886C77.1385 88.483 75.2031 89.8654 75.2031 89.8654H144.794C144.794 89.8654 145.6 87.3886 142.605 85.7413Z" fill="white"/>
<path d="M206.73 160.826L212.124 156.265L212.148 157.71L209.534 159.92L209.578 163.605L211.769 161.752L211.79 163.18L209.599 165.033L209.655 169.112L212.269 166.902L212.309 168.353L206.915 172.914L206.73 160.826Z" fill="#182F43"/>
<path d="M219.882 152.617C220.001 153.275 219.969 154.002 219.788 154.799C219.607 155.595 219.217 156.412 218.62 157.251L221.008 160.997L218.151 163.413L216.188 159.732L216.047 159.851L216.126 165.125L213.359 167.465L213.174 155.378L216.544 152.528C216.937 152.196 217.314 151.915 217.677 151.686C218.037 151.446 218.362 151.312 218.653 151.285C218.95 151.24 219.205 151.319 219.419 151.524C219.631 151.717 219.786 152.082 219.882 152.617ZM216.623 158.13C216.845 157.942 217.016 157.689 217.136 157.369C217.262 157.031 217.347 156.683 217.39 156.324C217.443 155.959 217.462 155.602 217.448 155.253C217.433 154.894 217.404 154.597 217.362 154.363C217.309 154.073 217.227 153.86 217.114 153.724C216.999 153.577 216.813 153.612 216.557 153.829L215.98 154.316L216.021 158.639L216.623 158.13Z" fill="#182F43"/>
<path d="M233.731 158.251L228.726 162.482L227.634 158.335L223.678 161.68L222.952 167.364L220.878 169.118L224.02 146.21L229.088 141.924L233.731 158.251ZM224.019 159.063L227.12 156.441L225.272 149.329L224.019 159.063Z" fill="#182F43"/>
<path d="M237.278 158.466L234.66 160.68L234.488 149.382L236.579 147.614L237.002 148.482L237.079 148.416C237.311 147.735 237.599 147.147 237.943 146.652C238.294 146.138 238.654 145.726 239.022 145.415C239.321 145.162 239.58 145.013 239.799 144.968C240.024 144.905 240.215 144.923 240.37 145.021C240.526 145.119 240.654 145.285 240.756 145.518C240.857 145.751 240.935 146.023 240.991 146.333C241.019 146.488 241.052 146.728 241.091 147.052C241.13 147.376 241.154 147.758 241.164 148.196C241.172 148.623 241.157 149.088 241.12 149.592C241.081 150.084 240.997 150.576 240.868 151.067C240.749 151.551 240.567 152.018 240.322 152.467C240.086 152.909 239.776 153.292 239.391 153.618C239.177 153.799 238.962 153.943 238.744 154.05C238.536 154.15 238.34 154.213 238.158 154.24C237.975 154.267 237.807 154.262 237.652 154.227C237.505 154.173 237.387 154.094 237.299 153.99L237.222 154.055L237.278 158.466ZM237.869 153.049C238.074 152.875 238.22 152.592 238.307 152.2C238.392 151.796 238.444 151.37 238.461 150.921C238.477 150.461 238.468 150.029 238.435 149.623C238.408 149.2 238.377 148.894 238.343 148.706C238.303 148.484 238.24 148.327 238.155 148.234C238.077 148.133 237.966 148.144 237.821 148.267C237.658 148.405 237.518 148.612 237.401 148.89C237.281 149.157 237.197 149.375 237.149 149.544L237.196 153.006C237.286 153.069 237.389 153.123 237.505 153.165C237.619 153.196 237.741 153.157 237.869 153.049Z" fill="#182F43"/>
<path d="M244.771 152.131L242.154 154.344L241.981 143.047L244.072 141.278L244.495 142.146L244.572 142.081C244.804 141.4 245.092 140.811 245.437 140.316C245.788 139.802 246.147 139.39 246.515 139.079C246.814 138.826 247.073 138.677 247.292 138.632C247.517 138.569 247.708 138.587 247.863 138.685C248.019 138.783 248.148 138.949 248.249 139.182C248.35 139.415 248.429 139.687 248.484 139.997C248.512 140.152 248.546 140.392 248.584 140.716C248.623 141.041 248.647 141.422 248.657 141.86C248.665 142.287 248.651 142.752 248.613 143.256C248.574 143.749 248.49 144.24 248.362 144.732C248.242 145.216 248.06 145.682 247.815 146.131C247.58 146.573 247.269 146.957 246.884 147.282C246.67 147.463 246.455 147.607 246.238 147.714C246.029 147.814 245.833 147.877 245.651 147.904C245.468 147.931 245.3 147.926 245.146 147.891C244.998 147.837 244.88 147.758 244.792 147.654L244.715 147.719L244.771 152.131ZM245.362 146.713C245.568 146.539 245.714 146.256 245.801 145.864C245.886 145.46 245.937 145.034 245.955 144.585C245.97 144.126 245.961 143.693 245.928 143.288C245.901 142.864 245.87 142.558 245.836 142.37C245.797 142.149 245.734 141.991 245.648 141.898C245.571 141.797 245.459 141.809 245.314 141.932C245.151 142.069 245.011 142.277 244.894 142.555C244.774 142.822 244.69 143.039 244.642 143.208L244.689 146.67C244.779 146.734 244.883 146.787 244.999 146.829C245.113 146.86 245.234 146.821 245.362 146.713Z" fill="#182F43"/>
</svg>
