<svg width="55" height="55" viewBox="0 0 55 55" fill="none" xmlns="http://www.w3.org/2000/svg">
<path fill-rule="evenodd" clip-rule="evenodd" d="M24.8993 8.00643C19.9326 8.00217 14.966 7.99791 10 8.00112C10.4297 12.7879 10.8691 17.5735 11.3084 22.3589C11.9649 29.5095 12.6214 36.6596 13.2455 43.8124C17.7615 45.064 22.2738 46.3308 26.7823 47.6127C27.2133 47.7379 27.6667 47.8403 28.1052 47.6772C29.8594 47.1885 31.6119 46.6937 33.3644 46.199C36.2361 45.3884 39.1078 44.5777 41.9868 43.7934C42.9068 33.257 43.8706 22.7235 44.8344 12.1904C44.9621 10.7952 45.0897 9.40007 45.2173 8.00492C38.4454 8.01805 31.6723 8.01224 24.8993 8.00643ZM17.1663 17.258C17.0796 16.3576 17.0069 15.4813 17.0044 15.3105L17 15H27.4999H38L37.9314 16.1008C37.8937 16.7062 37.8181 17.4776 37.7634 17.8151C37.7089 18.1524 37.6641 18.6732 37.6641 18.9723V19.516H29.5774H21.4908L21.5643 20.6168C21.6048 21.2222 21.6839 21.997 21.7402 22.3385C21.7964 22.6801 21.8698 23.2009 21.9033 23.4958L21.964 24.032H29.5449C33.7146 24.032 37.1256 24.0702 37.1252 24.1167C37.1213 24.5297 36.7856 28.9417 36.6976 29.7335C36.6356 30.2924 36.4853 32.1213 36.3637 33.7979C36.242 35.4745 36.1168 37.0073 36.0851 37.2042C36.0189 37.6173 35.8776 37.695 34.5968 38.0215C34.1232 38.1423 33.2757 38.3758 32.7133 38.5404C32.151 38.705 31.3519 38.9322 30.9375 39.0453C29.6497 39.3968 28.4814 39.7384 28.0066 39.9024C27.6653 40.0204 27.4766 40.0297 27.2533 39.9395C27.0895 39.8733 26.4953 39.6929 25.9329 39.5385C24.1118 39.0383 23.4222 38.8461 22.3813 38.5492C21.8189 38.3887 20.9714 38.1541 20.4978 38.0276C20.0243 37.9013 19.4828 37.74 19.2946 37.6692C19.2198 37.641 19.16 37.624 19.1102 37.5916C18.8913 37.4492 18.8659 37.0096 18.6136 34.0237C18.4983 32.6576 18.3722 31.3494 18.3336 31.1165L18.2633 30.6932H20.3592H22.455L22.5756 32.199C22.73 34.1262 22.7759 34.253 23.3552 34.3502C23.604 34.392 24.08 34.5201 24.4129 34.6351C24.7458 34.7499 25.5746 35.0081 26.2549 35.2087C27.3093 35.5197 27.5553 35.5566 27.9231 35.4592C28.4757 35.313 29.7717 34.9294 30.6684 34.6466C31.0532 34.5252 31.5672 34.3735 31.8108 34.3092C32.2354 34.1975 32.2567 34.1705 32.3273 33.6566C32.4199 32.9822 32.7062 29.3124 32.7103 28.7464L32.7133 28.3238L25.4217 28.2948L18.1301 28.2658L18.0551 27.1932C18.0138 26.6033 17.9264 25.6634 17.8608 25.1046C17.7951 24.5457 17.6475 22.92 17.5325 21.4918C17.4176 20.0636 17.2528 18.1584 17.1663 17.258Z" fill="#182F43"/>
</svg>
