<svg width="105" height="105" viewBox="0 0 105 105" fill="none" xmlns="http://www.w3.org/2000/svg">
<path d="M58.6468 46.52L58.6385 46.5299L58.6307 46.5402C57.9032 47.509 56.9722 48.2892 55.9107 48.8218C54.9898 49.2839 53.9915 49.5493 52.9747 49.6048C52.9383 48.5423 53.0806 47.4804 53.3962 46.4671C53.7583 45.3048 54.3408 44.231 55.1083 43.3088C56.602 41.5158 58.6664 40.3595 60.9079 40.0402C60.9275 41.1302 60.7687 42.217 60.4372 43.2535C60.0528 44.4553 59.4441 45.5653 58.6468 46.52ZM64.1246 63.9951H64.1246L64.1246 64.0012C64.1321 66.0818 64.726 68.116 65.8349 69.8527C66.862 71.4614 68.2901 72.7504 69.9661 73.5836C69.2758 75.7195 68.3094 77.7483 67.0932 79.6141C66.1599 81.0108 65.2108 82.362 64.1515 83.374C63.0962 84.3823 61.9771 85.0098 60.7057 85.0403C59.4158 85.0712 58.5378 84.6814 57.5157 84.2277L57.4491 84.1981C56.3882 83.7274 55.199 83.2182 53.3921 83.2182C51.5895 83.2182 50.4254 83.6953 49.3733 84.1638C49.3146 84.1899 49.2564 84.2159 49.1986 84.2418C48.2322 84.674 47.3701 85.0594 46.0913 85.1097C44.825 85.1596 43.6647 84.5059 42.5657 83.4251C41.4675 82.3451 40.4951 80.9019 39.6068 79.506L39.6022 79.4987L39.5973 79.4916C37.6862 76.705 36.0088 72.7255 35.2935 68.576C34.5776 64.4225 34.8358 60.1626 36.7144 56.7691L36.7145 56.7691L36.718 56.7625C37.5941 55.1223 38.8632 53.7483 40.3997 52.7728C41.9346 51.7982 43.6848 51.2541 45.4797 51.1919C46.809 51.1717 48.0941 51.6344 49.3319 52.1407C49.4759 52.1996 49.6202 52.2595 49.7641 52.3192C50.225 52.5105 50.6817 52.7 51.1115 52.8504C51.6759 53.048 52.2472 53.1985 52.7927 53.1985C53.3485 53.1985 53.9654 53.0157 54.5842 52.7879C54.9399 52.657 55.3339 52.4959 55.7387 52.3305C56.0296 52.2116 56.3261 52.0904 56.6179 51.9765C58.0682 51.4104 59.6372 50.926 61.2418 51.0969L61.2589 51.0988L61.276 51.0994C62.8012 51.1567 64.2935 51.5824 65.6347 52.3438C66.8337 53.0245 67.883 53.9572 68.7163 55.0818C67.3863 56.0217 66.2812 57.2666 65.4876 58.7211C64.6088 60.3314 64.1402 62.1464 64.1246 63.9951Z" fill="#FFC100" stroke="#182F43"/>
<path d="M27.2709 20.6552C27.7228 20.6552 28.1644 20.5187 28.5401 20.2629C28.9158 20.0071 29.2086 19.6436 29.3815 19.2183C29.5544 18.793 29.5997 18.325 29.5115 17.8735C29.4234 17.422 29.2058 17.0073 28.8863 16.6817C28.5668 16.3562 28.1598 16.1345 27.7166 16.0447C27.2735 15.9549 26.8141 16.001 26.3967 16.1772C25.9793 16.3533 25.6225 16.6517 25.3715 17.0344C25.1204 17.4172 24.9865 17.8672 24.9865 18.3276C24.9871 18.9447 25.228 19.5363 25.6563 19.9727C26.0846 20.409 26.6653 20.6545 27.2709 20.6552ZM27.2709 17.1638C27.4968 17.1638 27.7177 17.232 27.9055 17.3599C28.0934 17.4878 28.2398 17.6696 28.3262 17.8822C28.4127 18.0949 28.4353 18.3289 28.3912 18.5546C28.3471 18.7804 28.2384 18.9878 28.0786 19.1505C27.9189 19.3133 27.7153 19.4241 27.4938 19.469C27.2722 19.5139 27.0425 19.4909 26.8338 19.4028C26.6251 19.3147 26.4467 19.1655 26.3212 18.9742C26.1957 18.7828 26.1287 18.5578 26.1287 18.3276C26.129 18.019 26.2494 17.7232 26.4636 17.505C26.6777 17.2868 26.9681 17.1641 27.2709 17.1638ZM86.4354 41.234C86.1341 41.234 85.8397 41.325 85.5892 41.4955C85.3388 41.666 85.1436 41.9084 85.0283 42.1919C84.913 42.4755 84.8829 42.7875 84.9416 43.0885C85.0004 43.3895 85.1454 43.666 85.3584 43.883C85.5714 44.1 85.8428 44.2478 86.1382 44.3077C86.4337 44.3675 86.7399 44.3368 87.0182 44.2194C87.2965 44.1019 87.5343 43.903 87.7017 43.6478C87.869 43.3927 87.9583 43.0927 87.9583 42.7858C87.9579 42.3744 87.7973 41.9799 87.5118 41.689C87.2262 41.3981 86.8391 41.2345 86.4354 41.234ZM86.4354 43.5616C86.2848 43.5616 86.1375 43.5161 86.0123 43.4309C85.8871 43.3456 85.7895 43.2244 85.7318 43.0827C85.6742 42.9409 85.6591 42.7849 85.6885 42.6344C85.7179 42.4839 85.7904 42.3456 85.8969 42.2371C86.0034 42.1286 86.1391 42.0547 86.2868 42.0248C86.4345 41.9949 86.5876 42.0102 86.7268 42.0689C86.8659 42.1277 86.9848 42.2271 87.0685 42.3547C87.1522 42.4823 87.1968 42.6323 87.1968 42.7858C87.1966 42.9915 87.1163 43.1887 86.9736 43.3341C86.8308 43.4796 86.6373 43.5614 86.4354 43.5616ZM86.4354 17.9397C86.1341 17.9397 85.8397 18.0307 85.5892 18.2012C85.3388 18.3717 85.1436 18.614 85.0283 18.8976C84.913 19.1811 84.8829 19.4931 84.9416 19.7941C85.0004 20.0951 85.1454 20.3716 85.3584 20.5886C85.5714 20.8056 85.8428 20.9534 86.1382 21.0133C86.4337 21.0732 86.7399 21.0424 87.0182 20.925C87.2965 20.8075 87.5343 20.6087 87.7017 20.3535C87.869 20.0983 87.9583 19.7983 87.9583 19.4914C87.9579 19.08 87.7973 18.6856 87.5118 18.3947C87.2262 18.1038 86.8391 17.9401 86.4354 17.9397ZM86.4354 20.2672C86.2848 20.2672 86.1375 20.2217 86.0123 20.1365C85.8871 20.0512 85.7895 19.9301 85.7318 19.7883C85.6742 19.6465 85.6591 19.4905 85.6885 19.34C85.7179 19.1895 85.7904 19.0513 85.8969 18.9428C86.0034 18.8343 86.1391 18.7604 86.2868 18.7304C86.4345 18.7005 86.5876 18.7159 86.7268 18.7746C86.8659 18.8333 86.9848 18.9327 87.0685 19.0603C87.1522 19.1879 87.1968 19.3379 87.1968 19.4914C87.1966 19.6971 87.1163 19.8943 86.9736 20.0398C86.8308 20.1852 86.6373 20.267 86.4354 20.2672ZM97.477 57.8965C97.1758 57.8965 96.8813 57.9876 96.6309 58.1581C96.3804 58.3286 96.1852 58.5709 96.0699 58.8545C95.9547 59.138 95.9245 59.45 95.9833 59.751C96.0421 60.052 96.1871 60.3285 96.4001 60.5455C96.6131 60.7625 96.8845 60.9103 97.1799 60.9702C97.4753 61.0301 97.7815 60.9993 98.0598 60.8819C98.3381 60.7644 98.576 60.5655 98.7433 60.3104C98.9107 60.0552 99 59.7552 99 59.4483C98.9995 59.0369 98.8389 58.6425 98.5534 58.3516C98.2679 58.0607 97.8808 57.897 97.477 57.8965ZM97.477 60.2241C97.3264 60.2241 97.1792 60.1786 97.0539 60.0934C96.9287 60.0081 96.8311 59.887 96.7735 59.7452C96.7158 59.6034 96.7008 59.4474 96.7301 59.2969C96.7595 59.1464 96.8321 59.0082 96.9386 58.8997C97.0451 58.7911 97.1807 58.7173 97.3285 58.6873C97.4762 58.6574 97.6293 58.6727 97.7684 58.7315C97.9076 58.7902 98.0265 58.8896 98.1102 59.0172C98.1938 59.1448 98.2385 59.2948 98.2385 59.4483C98.2383 59.654 98.158 59.8512 98.0152 59.9967C97.8725 60.1421 97.6789 60.2239 97.477 60.2241ZM10.046 43.0901C10.046 42.7832 9.95665 42.4832 9.78931 42.228C9.62196 41.9728 9.3841 41.7739 9.10581 41.6565C8.82752 41.539 8.5213 41.5083 8.22587 41.5682C7.93044 41.6281 7.65907 41.7758 7.44607 41.9929C7.23308 42.2099 7.08803 42.4864 7.02926 42.7874C6.9705 43.0884 7.00066 43.4004 7.11593 43.6839C7.2312 43.9675 7.42641 44.2098 7.67686 44.3803C7.92731 44.5508 8.22177 44.6418 8.52299 44.6418C8.92677 44.6413 9.31388 44.4777 9.59939 44.1868C9.88491 43.8959 10.0455 43.5015 10.046 43.0901ZM7.76149 43.0901C7.76149 42.9366 7.80615 42.7866 7.88983 42.659C7.9735 42.5315 8.09243 42.432 8.23158 42.3733C8.37072 42.3146 8.52383 42.2992 8.67155 42.3291C8.81926 42.3591 8.95495 42.433 9.06144 42.5415C9.16794 42.65 9.24047 42.7882 9.26985 42.9387C9.29923 43.0892 9.28415 43.2452 9.22651 43.387C9.16888 43.5288 9.07128 43.6499 8.94605 43.7352C8.82082 43.8204 8.6736 43.866 8.52299 43.866C8.32109 43.8657 8.12752 43.7839 7.98475 43.6385C7.84199 43.493 7.7617 43.2958 7.76149 43.0901Z" fill="#182F43"/>
<path d="M12.0621 71.9629L10.5608 71.7664L10.2783 71.7294V72.0142V72.9858V73.2704L10.5606 73.2337L12.0719 73.0371L11.0764 74.3327L10.9105 74.5485L11.1397 74.6955L11.9427 75.2104L12.1857 75.3663L12.3052 75.1035L12.9997 73.5771L13.6362 75.0827L13.7465 75.3437L13.9917 75.2017L14.8794 74.6877L15.1291 74.5431L14.9504 74.3165L13.9488 73.0463L15.4983 73.2339L15.7783 73.2679V72.9858V72.0142V71.7285L15.4951 71.7665L13.936 71.9753L14.9406 70.6357L15.1101 70.4097L14.8652 70.269L14.0198 69.7832L13.7764 69.6433L13.6656 69.9013L13.0196 71.4053L12.3642 69.9132L12.2516 69.6569L12.0096 69.7976L11.149 70.2979L10.9044 70.4401L11.0756 70.6654L12.0621 71.9629Z" fill="#FFC100" stroke="#182F43" stroke-width="0.5"/>
<path d="M94.97 32.2331L95.25 32.2669V31.9849V31.0141V30.7283L94.9667 30.7664L93.4074 30.9759L94.4125 29.6359L94.582 29.4099L94.3371 29.2691L93.4919 28.7833L93.2485 28.6433L93.1376 28.9013L92.4912 30.4056L91.8359 28.9134L91.7233 28.6571L91.4813 28.7979L90.6204 29.2986L90.3759 29.4409L90.5472 29.6661L91.5338 30.9633L90.0325 30.7663L89.75 30.7292V31.0141V31.9849V32.2695L90.0322 32.2328L91.5443 32.0364L90.5479 33.333L90.382 33.5488L90.6112 33.6958L91.4143 34.2105L91.6572 34.3662L91.7767 34.1035L92.4714 32.5768L93.1076 34.0824L93.2179 34.3433L93.4631 34.2015L94.3515 33.6877L94.6015 33.5432L94.4226 33.3165L93.42 32.0459L94.97 32.2331Z" fill="#FFC100" stroke="#182F43" stroke-width="0.5"/>
<path d="M59.012 21.9013L58.017 24.218L57.0066 21.919L56.894 21.6628L56.652 21.8035L55.4469 22.5044L55.2024 22.6467L55.3736 22.8718L56.8988 24.8782L54.5607 24.5724L54.2783 24.5354V24.8202V26.1798V26.4645L54.5607 26.4277L56.9158 26.1204L55.3743 28.1272L55.2085 28.3431L55.4377 28.49L56.5624 29.2105L56.8054 29.3662L56.9249 29.1035L57.9917 26.7577L58.9727 29.0763L59.083 29.3371L59.3282 29.1952L60.5705 28.4762L60.8204 28.3316L60.6416 28.105L59.0881 26.1356L61.4982 26.4279L61.7783 26.4619V26.1798V24.8202V24.5345L61.4951 24.5725L59.0767 24.8965L60.626 22.8297L60.7955 22.6036L60.5504 22.4629L59.3661 21.7832L59.1227 21.6435L59.012 21.9013Z" fill="#FFC100" stroke="#182F43" stroke-width="0.5"/>
</svg>
