<svg width="80" height="80" viewBox="0 0 80 80" fill="none" xmlns="http://www.w3.org/2000/svg">
<path d="M37.62 62.3812C39.8803 62.3812 42.0899 61.711 43.9693 60.4552C45.8487 59.1995 47.3135 57.4146 48.1785 55.3264C49.0436 53.2381 49.2699 50.9403 48.829 48.7234C48.3881 46.5065 47.2998 44.4701 45.7016 42.8718C44.1033 41.2734 42.0671 40.1849 39.8502 39.7438C37.6333 39.3027 35.3355 39.5289 33.2471 40.3937C31.1588 41.2586 29.3739 42.7233 28.118 44.6026C26.8621 46.4819 26.1916 48.6914 26.1914 50.9517C26.1914 53.9828 27.3954 56.8899 29.5387 59.0333C31.6819 61.1767 34.5889 62.381 37.62 62.3812ZM37.62 41.4288C39.5037 41.4288 41.345 41.9874 42.9112 43.034C44.4774 44.0805 45.6981 45.568 46.4189 47.3083C47.1398 49.0486 47.3283 50.9635 46.9607 52.811C46.5932 54.6585 45.686 56.3554 44.354 57.6873C43.022 59.0192 41.3249 59.9262 39.4774 60.2936C37.6299 60.6609 35.715 60.4722 33.9747 59.7512C32.2345 59.0302 30.7472 57.8094 29.7008 56.2431C28.6544 54.6768 28.096 52.8354 28.0962 50.9517C28.0991 48.4268 29.1035 46.0062 30.8889 44.2209C32.6744 42.4356 35.0951 41.4315 37.62 41.4288ZM10.6697 28.657C10.7825 28.1683 11.0815 27.7427 11.5031 27.4708C11.9246 27.1989 12.4356 27.1021 12.9274 27.2008L45.0117 33.6612H54.7629L13.2971 25.3116C12.5313 25.1577 11.7369 25.241 11.0197 25.5503C10.3025 25.8596 9.69663 26.3802 9.28295 27.0427C9.05979 27.425 8.89992 27.8409 8.80952 28.2743L7.5 34.8375C8.13285 34.3491 8.86236 34.0009 9.6401 33.8161C9.6401 33.8161 10.6692 28.6603 10.6697 28.657Z" fill="#FBFBFF"/>
<path d="M34.3721 54.9936C34.6134 55.4044 34.946 55.7541 35.3441 56.0158C35.7422 56.2774 36.1952 56.444 36.668 56.5027V57.7727C36.668 58.214 37.1995 58.5716 37.6204 58.5716C38.0407 58.5716 38.5728 58.214 38.5728 57.7727V56.5143C39.1437 56.4286 39.6845 56.2028 40.1469 55.8572C40.482 55.6425 40.7674 55.3586 40.9838 55.0245C41.2002 54.6905 41.3426 54.314 41.4015 53.9203C41.5092 53.2083 41.3548 52.4814 40.9669 51.8746C40.579 51.2679 39.9841 50.8226 39.2926 50.6214C38.9904 50.5298 38.8778 50.4358 38.5728 50.3461V47.3681C38.7791 47.4462 38.9662 47.568 39.121 47.7252C39.4785 48.0174 39.7463 48.4043 39.8939 48.8418C39.944 49.0151 40.0338 49.1745 40.1563 49.307C40.2788 49.4396 40.4305 49.5417 40.5994 49.6053C40.6885 49.6274 40.7813 49.6308 40.8718 49.6152C40.9623 49.5996 41.0486 49.5654 41.1253 49.5148C41.2019 49.4641 41.2671 49.3981 41.3169 49.3209C41.3667 49.2437 41.4 49.1571 41.4146 49.0664C41.4519 48.4406 41.2563 47.8232 40.8654 47.3332C40.6098 46.9418 40.2739 46.6092 39.8799 46.3576C39.49 46.0809 39.0436 45.8943 38.5728 45.8111V44.1333C38.5728 43.6911 38.0407 43.3335 37.6204 43.3335C37.1995 43.3335 36.668 43.6911 36.668 44.1333V45.7842C36.5336 45.8047 36.5922 45.8325 36.4647 45.8693C35.3854 46.179 34.3758 46.8872 34.1266 48.0772C34.0164 48.4937 34.0035 48.9299 34.0887 49.3522C34.1739 49.7744 34.355 50.1715 34.6181 50.5126C35.1659 51.0944 35.8832 51.4886 36.668 51.6394V54.9559C36.2669 54.8237 35.927 54.551 35.7109 54.1882C35.4514 53.8259 35.3542 53.3693 35.0776 53.0168C35.0124 52.9191 34.9235 52.8394 34.8192 52.7854C34.7148 52.7313 34.5985 52.7046 34.4811 52.7076C34.3636 52.7107 34.2489 52.7435 34.1475 52.8029C34.0462 52.8623 33.9615 52.9465 33.9015 53.0475C33.7644 53.4591 33.796 53.9082 33.9894 54.2965C34.0967 54.5395 34.2247 54.7727 34.3721 54.9936ZM38.5728 52.0128C38.7197 52.0565 38.6741 52.1025 38.8164 52.1569C39.0387 52.23 39.2403 52.3554 39.4041 52.5226C39.5679 52.6898 39.6892 52.8939 39.7577 53.1176C39.8262 53.3414 39.8401 53.5784 39.798 53.8086C39.7559 54.0389 39.6591 54.2556 39.5158 54.4407C39.4112 54.6057 39.2733 54.747 39.1109 54.8556C38.9485 54.9642 38.7652 55.0376 38.5728 55.0713V52.0128ZM35.7314 49.197C35.2831 48.4181 35.9797 47.6094 36.668 47.3616V49.9587C36.465 49.9095 36.2757 49.8155 36.1136 49.6837C35.9516 49.552 35.821 49.3857 35.7314 49.197V49.197ZM9.04894 23.9768C9.70866 23.5559 10.4457 23.2707 11.2169 23.1379L11.7075 20.9972C11.7938 20.6 12.013 20.2441 12.3289 19.9883C12.6447 19.7325 13.0384 19.5921 13.4448 19.5902C13.5872 19.5902 64.7702 32.2032 64.7702 32.2032C65.1744 32.3074 65.5322 32.5438 65.7864 32.8749C66.0407 33.206 66.1768 33.6127 66.1732 34.0301C66.8274 34.1681 67.4536 34.4156 68.0254 34.762C68.2178 33.7978 68.0344 32.7964 67.5127 31.963C66.9909 31.1296 66.1704 30.5271 65.2189 30.2789C65.2189 30.2789 14.3507 17.7256 14.3228 17.7189C13.5208 17.5217 12.6754 17.6037 11.9262 17.9514C11.177 18.299 10.5686 18.8916 10.2013 19.6314C9.95575 20.1627 9.08522 23.8141 9.04894 23.9768ZM42.3823 21.6668C42.6648 21.6668 42.941 21.583 43.1759 21.426C43.4109 21.2691 43.594 21.046 43.7021 20.7849C43.8102 20.5239 43.8385 20.2367 43.7834 19.9595C43.7283 19.6824 43.5922 19.4279 43.3924 19.2281C43.1926 19.0283 42.9381 18.8922 42.661 18.8371C42.3839 18.782 42.0966 18.8103 41.8356 18.9184C41.5746 19.0265 41.3514 19.2096 41.1945 19.4446C41.0375 19.6795 40.9537 19.9557 40.9537 20.2382C40.9541 20.617 41.1048 20.9801 41.3726 21.2479C41.6404 21.5157 42.0035 21.6664 42.3823 21.6668ZM42.3823 19.5239C42.5236 19.5239 42.6617 19.5658 42.7791 19.6443C42.8966 19.7228 42.9881 19.8344 43.0422 19.9649C43.0963 20.0954 43.1104 20.239 43.0828 20.3776C43.0553 20.5161 42.9872 20.6434 42.8874 20.7433C42.7875 20.8432 42.6602 20.9112 42.5216 20.9388C42.3831 20.9664 42.2394 20.9522 42.1089 20.8981C41.9784 20.8441 41.8669 20.7525 41.7884 20.6351C41.7099 20.5176 41.668 20.3795 41.668 20.2382C41.6682 20.0489 41.7435 19.8673 41.8774 19.7334C42.0113 19.5995 42.1929 19.5241 42.3823 19.5239ZM37.1442 9.76204C37.3325 9.76204 37.5167 9.70619 37.6733 9.60154C37.8299 9.49689 37.952 9.34815 38.0241 9.17412C38.0961 9.0001 38.115 8.80861 38.0783 8.62386C38.0415 8.43912 37.9508 8.26942 37.8176 8.13623C37.6844 8.00304 37.5147 7.91233 37.33 7.87558C37.1452 7.83883 36.9537 7.8577 36.7797 7.92978C36.6057 8.00186 36.457 8.12393 36.3523 8.28055C36.2477 8.43717 36.1918 8.6213 36.1918 8.80966C36.1921 9.06216 36.2925 9.30424 36.4711 9.48278C36.6496 9.66132 36.8917 9.76176 37.1442 9.76204ZM37.1442 8.33347C37.2384 8.33347 37.3304 8.3614 37.4087 8.41373C37.487 8.46605 37.5481 8.54042 37.5841 8.62743C37.6202 8.71445 37.6296 8.81019 37.6112 8.90256C37.5928 8.99494 37.5475 9.07979 37.4809 9.14638C37.4143 9.21298 37.3295 9.25833 37.2371 9.2767C37.1447 9.29508 37.049 9.28565 36.962 9.24961C36.8749 9.21356 36.8006 9.15253 36.7482 9.07422C36.6959 8.99591 36.668 8.90385 36.668 8.80966C36.6681 8.68341 36.7183 8.56236 36.8076 8.47309C36.8969 8.38381 37.0179 8.3336 37.1442 8.33347ZM59.0489 9.76204C59.3315 9.76204 59.6077 9.67826 59.8426 9.52129C60.0775 9.36431 60.2606 9.1412 60.3688 8.88016C60.4769 8.61913 60.5052 8.33189 60.4501 8.05477C60.3949 7.77766 60.2589 7.52311 60.0591 7.32332C59.8593 7.12353 59.6048 6.98747 59.3276 6.93235C59.0505 6.87723 58.7633 6.90552 58.5023 7.01365C58.2412 7.12177 58.0181 7.30487 57.8611 7.5398C57.7042 7.77473 57.6204 8.05093 57.6204 8.33347C57.6208 8.71222 57.7715 9.07533 58.0393 9.34315C58.3071 9.61096 58.6702 9.76161 59.0489 9.76204ZM59.0489 7.61919C59.1902 7.61919 59.3283 7.66108 59.4458 7.73957C59.5632 7.81805 59.6548 7.92961 59.7089 8.06013C59.7629 8.19065 59.7771 8.33427 59.7495 8.47282C59.7219 8.61138 59.6539 8.73865 59.554 8.83855C59.4541 8.93844 59.3269 9.00647 59.1883 9.03403C59.0497 9.0616 58.9061 9.04745 58.7756 8.99339C58.6451 8.93932 58.5335 8.84777 58.455 8.73031C58.3765 8.61285 58.3347 8.47475 58.3347 8.33347C58.3348 8.14409 58.4102 7.96252 58.5441 7.8286C58.678 7.69469 58.8596 7.61937 59.0489 7.61919ZM76.1918 28.8097C76.1918 28.5271 76.108 28.2509 75.951 28.016C75.7941 27.7811 75.571 27.598 75.3099 27.4898C75.0489 27.3817 74.7617 27.3534 74.4845 27.4085C74.2074 27.4637 73.9529 27.5997 73.7531 27.7995C73.5533 27.9993 73.4172 28.2538 73.3621 28.531C73.307 28.8081 73.3353 29.0953 73.4434 29.3564C73.5515 29.6174 73.7346 29.8405 73.9696 29.9975C74.2045 30.1544 74.4807 30.2382 74.7632 30.2382C75.142 30.2378 75.5051 30.0872 75.7729 29.8193C76.0407 29.5515 76.1914 29.1884 76.1918 28.8097ZM74.0489 28.8097C74.0489 28.6684 74.0908 28.5303 74.1693 28.4128C74.2478 28.2954 74.3594 28.2038 74.4899 28.1497C74.6204 28.0957 74.764 28.0815 74.9026 28.1091C75.0411 28.1367 75.1684 28.2047 75.2683 28.3046C75.3682 28.4045 75.4362 28.5318 75.4638 28.6703C75.4913 28.8089 75.4772 28.9525 75.4231 29.083C75.3691 29.2135 75.2775 29.3251 75.1601 29.4036C75.0426 29.4821 74.9045 29.5239 74.7632 29.5239C74.5738 29.5238 74.3923 29.4484 74.2584 29.3145C74.1244 29.1806 74.0491 28.999 74.0489 28.8097ZM9.52513 8.33347C9.7135 8.33347 9.89763 8.27762 10.0542 8.17297C10.2109 8.06832 10.3329 7.91958 10.405 7.74555C10.4771 7.57153 10.496 7.38004 10.4592 7.19529C10.4225 7.01055 10.3318 6.84085 10.1986 6.70766C10.0654 6.57446 9.89568 6.48376 9.71094 6.44701C9.52619 6.41026 9.3347 6.42912 9.16067 6.50121C8.98665 6.57329 8.83791 6.69536 8.73326 6.85198C8.62861 7.0086 8.57275 7.19273 8.57275 7.38109C8.57304 7.63359 8.67348 7.87566 8.85202 8.05421C9.03056 8.23275 9.27264 8.33318 9.52513 8.33347ZM9.52513 6.9049C9.61932 6.9049 9.71138 6.93283 9.78969 6.98515C9.868 7.03748 9.92904 7.11185 9.96508 7.19886C10.0011 7.28587 10.0105 7.38162 9.99218 7.47399C9.9738 7.56636 9.92845 7.65121 9.86185 7.71781C9.79526 7.78441 9.71041 7.82976 9.61804 7.84813C9.52566 7.86651 9.42992 7.85708 9.3429 7.82104C9.25589 7.78499 9.18152 7.72396 9.1292 7.64565C9.07687 7.56734 9.04894 7.47527 9.04894 7.38109C9.04907 7.25484 9.09928 7.13379 9.18856 7.04451C9.27783 6.95524 9.39888 6.90503 9.52513 6.9049Z" fill="#FBFBFF"/>
<path d="M0.952381 66.4282C1.47837 66.4282 1.90476 66.0018 1.90476 65.4758C1.90476 64.9498 1.47837 64.5234 0.952381 64.5234C0.426395 64.5234 0 64.9498 0 65.4758C0 66.0018 0.426395 66.4282 0.952381 66.4282Z" fill="#FBFBFF"/>
<path d="M5.23496 64.5234H3.80638C3.5538 64.5234 3.31156 64.6238 3.13295 64.8024C2.95434 64.981 2.854 65.2232 2.854 65.4758C2.854 65.7284 2.95434 65.9706 3.13295 66.1492C3.31156 66.3279 3.5538 66.4282 3.80638 66.4282H5.23496C5.48754 66.4282 5.72979 66.3279 5.90839 66.1492C6.087 65.9706 6.18734 65.7284 6.18734 65.4758C6.18734 65.2232 6.087 64.981 5.90839 64.8024C5.72979 64.6238 5.48754 64.5234 5.23496 64.5234ZM76.1873 64.5234H74.7588C74.5062 64.5234 74.2639 64.6238 74.0853 64.8024C73.9067 64.981 73.8064 65.2232 73.8064 65.4758C73.8064 65.7284 73.9067 65.9706 74.0853 66.1492C74.2639 66.3279 74.5062 66.4282 74.7588 66.4282H76.1873C76.4399 66.4282 76.6822 66.3279 76.8608 66.1492C77.0394 65.9706 77.1397 65.7284 77.1397 65.4758C77.1397 65.2232 77.0394 64.981 76.8608 64.8024C76.6822 64.6238 76.4399 64.5234 76.1873 64.5234Z" fill="#FBFBFF"/>
<path d="M79.0461 66.4282C79.5721 66.4282 79.9985 66.0018 79.9985 65.4758C79.9985 64.9498 79.5721 64.5234 79.0461 64.5234C78.5201 64.5234 78.0938 64.9498 78.0938 65.4758C78.0938 66.0018 78.5201 66.4282 79.0461 66.4282Z" fill="#FBFBFF"/>
<path d="M71.7752 64.5234H67.438C67.8692 63.892 68.0994 63.1451 68.0984 62.3805V39.5234C68.0983 38.5131 67.697 37.5441 66.9825 36.8297C66.2681 36.1153 65.2992 35.7139 64.2889 35.7139H10.9555C9.94518 35.7139 8.97624 36.1153 8.26182 36.8297C7.54741 37.5441 7.14604 38.5131 7.146 39.5234V62.3805C7.14567 63.1715 7.39299 63.9428 7.85325 64.5861C7.6564 64.6405 7.48189 64.7559 7.3548 64.9158C7.22771 65.0757 7.15461 65.2717 7.146 65.4758C7.16473 65.7455 7.28926 65.997 7.49249 66.1753C7.69572 66.3537 7.96118 66.4446 8.23109 66.4282H71.7752C71.9107 66.4459 72.0484 66.4344 72.1791 66.3947C72.3098 66.3549 72.4306 66.2877 72.5333 66.1976C72.636 66.1074 72.7182 65.9964 72.7746 65.872C72.831 65.7475 72.8601 65.6124 72.8601 65.4758C72.8601 65.3391 72.831 65.2041 72.7746 65.0796C72.7182 64.9551 72.636 64.8441 72.5333 64.754C72.4306 64.6638 72.3098 64.5966 72.1791 64.5569C72.0484 64.5171 71.9107 64.5057 71.7752 64.5234ZM9.05076 39.5234C9.05129 39.0184 9.25214 38.5342 9.60923 38.1771C9.96633 37.82 10.4505 37.6192 10.9555 37.6186H64.2889C64.7939 37.6192 65.278 37.82 65.6351 38.1771C65.9922 38.5342 66.1931 39.0184 66.1936 39.5234V62.3805C66.1931 62.8856 65.9923 63.3697 65.6352 63.7268C65.2781 64.0839 64.7939 64.2848 64.2889 64.2853H10.9555C10.4505 64.2848 9.9663 64.084 9.6092 63.7269C9.25209 63.3698 9.05125 62.8856 9.05076 62.3805V39.5234Z" fill="#FBFBFF"/>
<path d="M24.2826 60.4766C24.2826 60.224 24.1822 59.9817 24.0036 59.8031C23.825 59.6245 23.5828 59.5242 23.3302 59.5242H20.187C19.8519 58.3644 19.1194 57.3595 18.1177 56.6856C17.1106 56.0616 15.9431 55.7458 14.7588 55.777V46.1285C15.9429 46.1587 17.1102 45.8429 18.1177 45.2198C19.1194 44.546 19.8519 43.5411 20.187 42.3813H23.3302C23.5828 42.3813 23.825 42.281 24.0036 42.1024C24.1822 41.9238 24.2826 41.6815 24.2826 41.4289C24.2826 41.1764 24.1822 40.9341 24.0036 40.7555C23.825 40.5769 23.5828 40.4766 23.3302 40.4766H19.45C19.2302 40.4765 19.0173 40.5525 18.8471 40.6915C18.677 40.8306 18.5603 41.0243 18.5167 41.2396C17.794 44.8065 14.3826 44.234 13.9998 44.1596C13.8613 44.1307 13.7181 44.1331 13.5806 44.1666C13.4431 44.2001 13.3148 44.2638 13.205 44.3531C13.0953 44.4424 13.0068 44.5551 12.9461 44.6829C12.8854 44.8107 12.8539 44.9505 12.854 45.092V56.8135C12.8545 56.9545 12.8863 57.0936 12.9469 57.2209C13.0076 57.3482 13.0956 57.4604 13.2048 57.5497C13.314 57.6389 13.4415 57.7028 13.5783 57.7369C13.7152 57.771 13.8578 57.7744 13.9961 57.7468C14.3835 57.6705 17.7935 57.0995 18.5167 60.6658C18.5603 60.8812 18.677 61.0748 18.8471 61.2139C19.0173 61.353 19.2302 61.429 19.45 61.4289H23.3302C23.5828 61.4289 23.825 61.3286 24.0036 61.15C24.1822 60.9714 24.2826 60.7291 24.2826 60.4766ZM61.232 44.1596C60.1784 44.3411 59.0945 44.1541 58.1628 43.6299C57.7728 43.3496 57.4436 42.9934 57.1948 42.5826C56.9461 42.1719 56.7829 41.7151 56.7151 41.2397C56.6715 41.0243 56.5548 40.8306 56.3846 40.6916C56.2145 40.5525 56.0015 40.4765 55.7818 40.4766H51.9016C51.649 40.4766 51.4068 40.5769 51.2282 40.7555C51.0496 40.9341 50.9492 41.1764 50.9492 41.4289C50.9492 41.6815 51.0496 41.9238 51.2282 42.1024C51.4068 42.281 51.649 42.3813 51.9016 42.3813H55.0448C55.3799 43.5411 56.1124 44.546 57.1141 45.2198C58.1216 45.8429 59.2889 46.1587 60.473 46.1285V55.777C59.2888 55.7465 58.1215 56.0623 57.1141 56.6856C56.1124 57.3595 55.3799 58.3644 55.0448 59.5242H51.9016C51.649 59.5242 51.4068 59.6245 51.2282 59.8031C51.0496 59.9817 50.9492 60.224 50.9492 60.4766C50.9492 60.7291 51.0496 60.9714 51.2282 61.15C51.4068 61.3286 51.649 61.4289 51.9016 61.4289H55.7818C56.0015 61.429 56.2145 61.353 56.3846 61.2139C56.5548 61.0748 56.6715 60.8812 56.7151 60.6658C57.4378 57.1 60.8492 57.671 61.232 57.7459C61.3705 57.7747 61.5137 57.7724 61.6512 57.7389C61.7887 57.7054 61.917 57.6417 62.0268 57.5524C62.1366 57.4631 62.225 57.3504 62.2857 57.2226C62.3465 57.0948 62.3779 56.955 62.3778 56.8135V45.092C62.3779 44.9505 62.3465 44.8107 62.2857 44.6829C62.225 44.5551 62.1366 44.4424 62.0268 44.3531C61.917 44.2638 61.7887 44.2001 61.6512 44.1666C61.5137 44.1331 61.3705 44.1307 61.232 44.1596Z" fill="#FFC100"/>
<path d="M4.67433 29.4332L5.32766 28.5737L4.91481 28.3398L4.49576 29.3027H4.48147L4.05528 28.347L3.63528 28.5875L4.28242 29.4265V29.4403L3.271 29.3098V29.777L4.28909 29.647V29.6603L3.63528 30.4994L4.02766 30.747L4.47481 29.777H4.48814L4.901 30.7403L5.33433 30.4927L4.67433 29.667V29.6537L5.71242 29.777V29.3098L4.67433 29.447V29.4332Z" fill="#FFC100"/>
<path d="M20.9643 15.7314L20.2586 16.6375L20.6819 16.9052L21.1652 15.8575H21.18L21.6257 16.8975L22.0938 16.6304L21.3805 15.7385V15.7237L22.5024 15.8575V15.3523L21.3805 15.5009V15.4861L22.0867 14.5575L21.6409 14.3047L21.1876 15.3447H21.1724L20.7124 14.3123L20.2586 14.5723L20.9571 15.479V15.4937L19.8647 15.3523V15.8575L20.9643 15.7166V15.7314Z" fill="#FFC100"/>
<path d="M25.6094 5.03182L25.2013 5.55515L25.446 5.70944L25.7251 5.10467H25.7336L25.9908 5.70515L26.2613 5.55087L25.8494 5.03563V5.02706L26.497 5.10467V4.81277L25.8494 4.89848V4.88991L26.257 4.35372L25.9998 4.20801L25.7379 4.80848H25.7294L25.4636 4.21182L25.2013 4.36229L25.6051 4.88563V4.8942L24.9741 4.81277V5.10467L25.6094 5.02325V5.03182Z" fill="#FFC100"/>
<path d="M57.5346 21.8828L56.8403 22.7743L57.2569 23.0376L57.7322 22.0066H57.7465L58.185 23.03L58.6455 22.7671L57.9441 21.89V21.8752L59.0474 22.0066V21.51L57.9441 21.6562V21.6414L58.6388 20.7281L58.2003 20.4795L57.7546 21.5023H57.7393L57.2865 20.4866L56.8403 20.7428L57.5274 21.6343V21.649L56.4531 21.51V22.0066L57.5346 21.8681V21.8828Z" fill="#FFC100"/>
<path d="M74.2871 15.8152V15.3186L73.1838 15.4648V15.45L73.8786 14.5367L73.44 14.2881L72.9943 15.3109H72.9791L72.5262 14.2952L72.08 14.5514L72.7671 15.4428V15.4576L71.6929 15.3186V15.8152L72.7743 15.6767V15.6914L72.08 16.5828L72.4967 16.8462L72.9719 15.8152H72.9862L73.4248 16.8386L73.8852 16.5757L73.1838 15.6986V15.6838L74.2871 15.8152Z" fill="#FFC100"/>
<path d="M46.0642 1.19253L45.5152 1.89777L45.8442 2.10586L46.2204 1.29063H46.2318L46.5785 2.10015L46.9428 1.89206L46.388 1.19825V1.18682L47.2609 1.29063V0.89777L46.388 1.01348V1.00158L46.9376 0.279198L46.5904 0.0830078L46.238 0.892055H46.2261L45.868 0.0882459L45.5152 0.290627L46.0585 0.996341V1.00777L45.2085 0.89777V1.29063L46.0642 1.1811V1.19253Z" fill="#FFC100"/>
<path d="M56.2606 68.8096H52.3046C52.0651 68.8288 51.8417 68.9374 51.6788 69.1139C51.5159 69.2904 51.4254 69.5218 51.4254 69.762C51.4254 70.0021 51.5159 70.2335 51.6788 70.41C51.8417 70.5865 52.0651 70.6952 52.3046 70.7143H56.2606C56.5 70.6952 56.7234 70.5865 56.8864 70.41C57.0493 70.2335 57.1397 70.0021 57.1397 69.762C57.1397 69.5218 57.0493 69.2904 56.8864 69.1139C56.7234 68.9374 56.5 68.8288 56.2606 68.8096ZM27.6892 68.8096H23.7331C23.4937 68.8288 23.2703 68.9374 23.1074 69.1139C22.9445 69.2904 22.854 69.5218 22.854 69.762C22.854 70.0021 22.9445 70.2335 23.1074 70.41C23.2703 70.5865 23.4937 70.6952 23.7331 70.7143H27.6892C27.9286 70.6952 28.152 70.5865 28.3149 70.41C28.4779 70.2335 28.5683 70.0021 28.5683 69.762C28.5683 69.5218 28.4779 69.2904 28.3149 69.1139C28.152 68.9374 27.9286 68.8288 27.6892 68.8096ZM49.5207 68.8096H30.4731C30.2205 68.8096 29.9782 68.9099 29.7996 69.0885C29.621 69.2671 29.5207 69.5094 29.5207 69.762C29.5207 70.0145 29.621 70.2568 29.7996 70.4354C29.9782 70.614 30.2205 70.7143 30.4731 70.7143H38.0635V71.6667H34.2826C34.03 71.6667 33.7878 71.7671 33.6092 71.9457C33.4305 72.1243 33.3302 72.3665 33.3302 72.6191C33.3302 72.8717 33.4305 73.1139 33.6092 73.2925C33.7878 73.4711 34.03 73.5715 34.2826 73.5715H46.1873C46.4399 73.5715 46.6822 73.4711 46.8608 73.2925C47.0394 73.1139 47.1397 72.8717 47.1397 72.6191C47.1397 72.3665 47.0394 72.1243 46.8608 71.9457C46.6822 71.7671 46.4399 71.6667 46.1873 71.6667H41.9302V70.7143H49.5207C49.7733 70.7143 50.0155 70.614 50.1941 70.4354C50.3727 70.2568 50.4731 70.0145 50.4731 69.762C50.4731 69.5094 50.3727 69.2671 50.1941 69.0885C50.0155 68.9099 49.7733 68.8096 49.5207 68.8096Z" fill="#FFC100"/>
</svg>
