<svg width="80" height="80" viewBox="0 0 80 80" fill="none" xmlns="http://www.w3.org/2000/svg">
<path d="M0.952381 72.3813C1.47837 72.3813 1.90476 71.9549 1.90476 71.4289C1.90476 70.903 1.47837 70.4766 0.952381 70.4766C0.426395 70.4766 0 70.903 0 71.4289C0 71.9549 0.426395 72.3813 0.952381 72.3813Z" fill="#FBFBFF"/>
<path d="M5.23496 70.4766H3.80638C3.5538 70.4766 3.31156 70.5769 3.13295 70.7555C2.95434 70.9341 2.854 71.1764 2.854 71.4289C2.854 71.6815 2.95434 71.9238 3.13295 72.1024C3.31156 72.281 3.5538 72.3813 3.80638 72.3813H5.23496C5.48754 72.3813 5.72979 72.281 5.90839 72.1024C6.087 71.9238 6.18734 71.6815 6.18734 71.4289C6.18734 71.1764 6.087 70.9341 5.90839 70.7555C5.72979 70.5769 5.48754 70.4766 5.23496 70.4766ZM76.1873 70.4766H74.7588C74.5062 70.4766 74.2639 70.5769 74.0853 70.7555C73.9067 70.9341 73.8064 71.1764 73.8064 71.4289C73.8064 71.6815 73.9067 71.9238 74.0853 72.1024C74.2639 72.281 74.5062 72.3813 74.7588 72.3813H76.1873C76.4399 72.3813 76.6822 72.281 76.8608 72.1024C77.0394 71.9238 77.1397 71.6815 77.1397 71.4289C77.1397 71.1764 77.0394 70.9341 76.8608 70.7555C76.6822 70.5769 76.4399 70.4766 76.1873 70.4766Z" fill="#FBFBFF"/>
<path d="M79.0461 72.3813C79.5721 72.3813 79.9985 71.9549 79.9985 71.4289C79.9985 70.903 79.5721 70.4766 79.0461 70.4766C78.5201 70.4766 78.0938 70.903 78.0938 71.4289C78.0938 71.9549 78.5201 72.3813 79.0461 72.3813Z" fill="#FBFBFF"/>
<path d="M56.2606 74.2861H52.3046C52.0651 74.3053 51.8417 74.414 51.6788 74.5905C51.5159 74.7669 51.4254 74.9983 51.4254 75.2385C51.4254 75.4787 51.5159 75.7101 51.6788 75.8866C51.8417 76.0631 52.0651 76.1717 52.3046 76.1909H56.2606C56.5 76.1717 56.7234 76.0631 56.8864 75.8866C57.0493 75.7101 57.1397 75.4787 57.1397 75.2385C57.1397 74.9983 57.0493 74.7669 56.8864 74.5905C56.7234 74.414 56.5 74.3053 56.2606 74.2861ZM27.6892 74.2861H23.7331C23.4937 74.3053 23.2703 74.414 23.1074 74.5905C22.9445 74.7669 22.854 74.9983 22.854 75.2385C22.854 75.4787 22.9445 75.7101 23.1074 75.8866C23.2703 76.0631 23.4937 76.1717 23.7331 76.1909H27.6892C27.9286 76.1717 28.152 76.0631 28.3149 75.8866C28.4779 75.7101 28.5683 75.4787 28.5683 75.2385C28.5683 74.9983 28.4779 74.7669 28.3149 74.5905C28.152 74.414 27.9286 74.3053 27.6892 74.2861ZM49.5207 74.2861H30.4731C30.2205 74.2861 29.9782 74.3865 29.7996 74.5651C29.621 74.7437 29.5207 74.9859 29.5207 75.2385C29.5207 75.4911 29.621 75.7333 29.7996 75.912C29.9782 76.0906 30.2205 76.1909 30.4731 76.1909H38.0635V77.1433H34.2826C34.03 77.1433 33.7878 77.2436 33.6092 77.4222C33.4305 77.6008 33.3302 77.8431 33.3302 78.0957C33.3302 78.3482 33.4305 78.5905 33.6092 78.7691C33.7878 78.9477 34.03 79.048 34.2826 79.048H46.1873C46.4399 79.048 46.6822 78.9477 46.8608 78.7691C47.0394 78.5905 47.1397 78.3482 47.1397 78.0957C47.1397 77.8431 47.0394 77.6008 46.8608 77.4222C46.6822 77.2436 46.4399 77.1433 46.1873 77.1433H41.9302V76.1909H49.5207C49.7733 76.1909 50.0155 76.0906 50.1941 75.912C50.3727 75.7333 50.4731 75.4911 50.4731 75.2385C50.4731 74.9859 50.3727 74.7437 50.1941 74.5651C50.0155 74.3865 49.7733 74.2861 49.5207 74.2861Z" fill="#FFC100"/>
<path d="M15.239 63.8092H64.7628C65.0154 63.8092 65.2576 63.7089 65.4362 63.5303C65.6148 63.3517 65.7152 63.1094 65.7152 62.8569V19.9997C65.7144 19.2422 65.4131 18.516 64.8774 17.9803C64.3418 17.4447 63.6156 17.1434 62.8581 17.1426H17.1438C16.3863 17.1434 15.66 17.4447 15.1244 17.9803C14.5887 18.516 14.2874 19.2422 14.2866 19.9997V62.8569C14.2866 63.1094 14.387 63.3517 14.5656 63.5303C14.7442 63.7089 14.9864 63.8092 15.239 63.8092ZM16.1914 19.9997C16.1916 19.7472 16.2921 19.5051 16.4706 19.3266C16.6492 19.148 16.8913 19.0476 17.1438 19.0473H62.8581C63.1106 19.0476 63.3527 19.148 63.5312 19.3266C63.7098 19.5051 63.8102 19.7472 63.8104 19.9997V24.7616H16.1914V19.9997ZM16.1914 26.6664H63.8104V61.9045H16.1914V26.6664Z" fill="#FBFBFF"/>
<path d="M60.9494 20.9521H59.0446C58.7921 20.9521 58.5498 21.0525 58.3712 21.2311C58.1926 21.4097 58.0923 21.6519 58.0923 21.9045C58.0923 22.1571 58.1926 22.3994 58.3712 22.578C58.5498 22.7566 58.7921 22.8569 59.0446 22.8569H60.9494C61.202 22.8569 61.4442 22.7566 61.6228 22.578C61.8014 22.3994 61.9018 22.1571 61.9018 21.9045C61.9018 21.6519 61.8014 21.4097 61.6228 21.2311C61.4442 21.0525 61.202 20.9521 60.9494 20.9521ZM55.2351 20.9521H53.3304C53.0778 20.9521 52.8355 21.0525 52.6569 21.2311C52.4783 21.4097 52.378 21.6519 52.378 21.9045C52.378 22.1571 52.4783 22.3994 52.6569 22.578C52.8355 22.7566 53.0778 22.8569 53.3304 22.8569H55.2351C55.4877 22.8569 55.7299 22.7566 55.9086 22.578C56.0872 22.3994 56.1875 22.1571 56.1875 21.9045C56.1875 21.6519 56.0872 21.4097 55.9086 21.2311C55.7299 21.0525 55.4877 20.9521 55.2351 20.9521ZM22.1399 38.095H24.8462C24.8066 37.4765 24.7824 36.8415 24.7734 36.1902H22.1399C21.8873 36.1902 21.6451 36.2906 21.4664 36.4692C21.2878 36.6478 21.1875 36.89 21.1875 37.1426C21.1875 37.3952 21.2878 37.6375 21.4664 37.8161C21.6451 37.9947 21.8873 38.095 22.1399 38.095ZM57.8542 36.1902H55.2207C55.2117 36.8416 55.1875 37.4765 55.148 38.095H57.8542C58.1068 38.095 58.349 37.9947 58.5276 37.8161C58.7062 37.6375 58.8065 37.3952 58.8065 37.1426C58.8065 36.89 58.7062 36.6478 58.5276 36.4692C58.349 36.2906 58.1068 36.1902 57.8542 36.1902Z" fill="#FFC100"/>
<path d="M22.1399 45.2378H26.0762C25.895 44.6291 25.7348 43.989 25.5861 43.333H22.1399C21.8873 43.333 21.6451 43.4333 21.4664 43.612C21.2878 43.7906 21.1875 44.0328 21.1875 44.2854C21.1875 44.538 21.2878 44.7802 21.4664 44.9588C21.6451 45.1374 21.8873 45.2378 22.1399 45.2378ZM57.8542 43.333H54.4081C54.2594 43.989 54.0993 44.6292 53.9181 45.2378H57.8542C58.1068 45.2378 58.349 45.1374 58.5276 44.9588C58.7062 44.7802 58.8065 44.538 58.8065 44.2854C58.8065 44.0328 58.7062 43.7906 58.5276 43.612C58.349 43.4333 58.1068 43.333 57.8542 43.333Z" fill="#FBFBFF"/>
<path d="M22.3796 50.4766C22.127 50.4766 21.8848 50.5769 21.7062 50.7555C21.5276 50.9341 21.4272 51.1764 21.4272 51.4289C21.4272 51.6815 21.5276 51.9238 21.7062 52.1024C21.8848 52.281 22.127 52.3813 22.3796 52.3813H29.4164C29.0178 51.7899 28.6274 51.1572 28.2534 50.4766H22.3796ZM57.6177 50.4766H51.7433C51.3694 51.1568 50.9797 51.7904 50.5815 52.3813H57.6177C57.8703 52.3813 58.1126 52.281 58.2912 52.1024C58.4698 51.9238 58.5701 51.6815 58.5701 51.4289C58.5701 51.1764 58.4698 50.9341 58.2912 50.7555C58.1126 50.5769 57.8703 50.4766 57.6177 50.4766Z" fill="#FFC100"/>
<path d="M53.3254 34.8709C53.32 34.5989 53.2563 34.3312 53.1388 34.0858C53.0212 33.8404 52.8525 33.6231 52.6439 33.4484C52.4352 33.2737 52.1916 33.1457 51.9294 33.0731C51.6672 33.0005 51.3925 32.9849 51.1237 33.0273C50.5654 33.0977 50.0029 33.1307 49.4402 33.126C47.5522 33.126 43.9754 32.7786 41.2317 30.452C40.8876 30.1602 40.451 30 39.9998 30C39.5486 30 39.112 30.1602 38.7679 30.452C36.0242 32.7786 32.4474 33.126 30.5594 33.126C29.9947 33.1308 29.4303 33.0975 28.87 33.0264C28.6017 32.9856 28.3278 33.0024 28.0666 33.0758C27.8053 33.1492 27.5627 33.2775 27.3549 33.452C27.1471 33.6266 26.979 33.8434 26.8616 34.0881C26.7442 34.3327 26.6803 34.5996 26.6742 34.8709C26.4722 45.0455 30.2664 51.0949 33.485 54.378C35.6948 56.6321 38.2182 58.1315 39.5028 58.4889L39.4986 58.5042C39.66 58.5481 39.8264 58.5707 39.9936 58.5714L39.9987 58.5714H40.0005L40.006 58.5714C40.1783 58.5707 40.3497 58.5468 40.5155 58.5002L40.5112 58.4849C41.8003 58.1203 44.313 56.6239 46.5145 54.3784C49.7331 51.0951 53.5274 45.0457 53.3254 34.8709ZM40.0009 56.6667L39.9998 56.6666L39.9987 56.6667C39.8436 56.6667 28.2367 52.1219 28.5786 34.9087C29.2352 34.9962 29.8971 35.0369 30.5594 35.0308C32.8929 35.0308 36.8504 34.5755 39.9998 31.9048C43.1489 34.5752 47.1066 35.0308 49.4402 35.0308C50.1025 35.037 50.7644 34.9962 51.4209 34.9087C51.7628 52.1208 40.1574 56.6667 40.0009 56.6667Z" fill="#FBFBFF"/>
<path d="M44.2848 40.9358C44.2804 39.8021 43.8269 38.7164 43.0236 37.9163C42.2204 37.1162 41.1328 36.667 39.9991 36.667C38.8654 36.667 37.7779 37.1162 36.9746 37.9163C36.1714 38.7164 35.7179 39.8021 35.7134 40.9358C35.7113 41.538 35.8377 42.1337 36.0843 42.6831C36.3308 43.2325 36.6918 43.723 37.143 44.1218L36.7585 48.8951C36.7374 49.1573 36.7708 49.421 36.8567 49.6697C36.9425 49.9183 37.0789 50.1464 37.2572 50.3397C37.4356 50.5331 37.6521 50.6873 37.893 50.7928C38.1339 50.8984 38.3941 50.9528 38.6571 50.9528H41.3411C41.6041 50.9528 41.8643 50.8984 42.1052 50.7928C42.3462 50.6873 42.5626 50.5331 42.741 50.3397C42.9194 50.1464 43.0558 49.9183 43.1416 49.6697C43.2274 49.421 43.2609 49.1573 43.2397 48.8951L42.8552 44.1218C43.3065 43.723 43.6674 43.2325 43.914 42.6831C44.1605 42.1337 44.2869 41.538 44.2848 40.9358ZM40.8649 43.1361L41.3411 49.0481H38.6571L39.1333 43.1361C38.6163 42.9342 38.186 42.5581 37.9168 42.0727C37.6476 41.5872 37.5565 41.023 37.6592 40.4775C37.7619 39.9321 38.0519 39.4396 38.4792 39.0853C38.9064 38.7309 39.4441 38.537 39.9991 38.537C40.5542 38.537 41.0918 38.7309 41.5191 39.0853C41.9463 39.4396 42.2363 39.9321 42.339 40.4775C42.4417 41.023 42.3506 41.5872 42.0814 42.0727C41.8123 42.5581 41.382 42.9342 40.8649 43.1361H40.8649Z" fill="#FFC100"/>
<path d="M71.775 70.476H48.0982V68.5712H66.6696C67.6796 68.5701 68.6479 68.1683 69.3621 67.4542C70.0763 66.74 70.478 65.7717 70.4792 64.7617V28.095C70.4776 27.2513 70.1963 26.432 69.6793 25.7654C69.1623 25.0987 68.4387 24.6223 67.622 24.4109V26.4544C67.9108 26.6202 68.1509 26.8591 68.318 27.1471C68.4852 27.4351 68.5736 27.762 68.5744 28.095V64.7617C68.5744 65.2668 68.3737 65.7513 68.0165 66.1085C67.6593 66.4658 67.1748 66.6664 66.6696 66.6664H13.3363C12.8311 66.6664 12.3466 66.4658 11.9894 66.1085C11.6322 65.7513 11.4315 65.2668 11.4315 64.7617V28.095C11.4323 27.762 11.5207 27.4351 11.6879 27.1471C11.8551 26.8591 12.0951 26.6202 12.3839 26.4544V24.4109C11.5672 24.6223 10.8436 25.0987 10.3266 25.7653C9.8096 26.432 9.5283 27.2513 9.52677 28.095V64.7617C9.52792 65.7717 9.92965 66.74 10.6438 67.4541C11.358 68.1683 12.3263 68.57 13.3363 68.5712H31.9077V70.476H8.23091C8.09542 70.4583 7.95772 70.4697 7.82699 70.5094C7.69626 70.5492 7.57552 70.6164 7.47283 70.7065C7.37015 70.7967 7.28787 70.9077 7.23151 71.0322C7.17515 71.1566 7.146 71.2917 7.146 71.4283C7.146 71.565 7.17515 71.7 7.23151 71.8245C7.28787 71.949 7.37015 72.06 7.47283 72.1501C7.57552 72.2403 7.69626 72.3075 7.82699 72.3472C7.95772 72.387 8.09542 72.3984 8.23091 72.3807H71.775C71.9105 72.3984 72.0482 72.387 72.1789 72.3472C72.3097 72.3075 72.4304 72.2403 72.5331 72.1501C72.6358 72.06 72.7181 71.949 72.7744 71.8245C72.8308 71.7 72.8599 71.565 72.8599 71.4283C72.8599 71.2917 72.8308 71.1566 72.7744 71.0322C72.7181 70.9077 72.6358 70.7967 72.5331 70.7065C72.4304 70.6164 72.3097 70.5492 72.1789 70.5094C72.0482 70.4697 71.9105 70.4583 71.775 70.476ZM33.8125 70.476V68.5712H46.1934V70.476H33.8125ZM16.1934 13.1823C16.476 13.1823 16.7522 13.0985 16.9871 12.9415C17.222 12.7845 17.4051 12.5614 17.5133 12.3004C17.6214 12.0394 17.6497 11.7521 17.5946 11.475C17.5394 11.1979 17.4034 10.9433 17.2036 10.7436C17.0038 10.5438 16.7493 10.4077 16.4721 10.3526C16.195 10.2975 15.9078 10.3258 15.6467 10.4339C15.3857 10.542 15.1626 10.7251 15.0056 10.96C14.8487 11.195 14.7649 11.4712 14.7649 11.7537C14.7653 12.1325 14.916 12.4956 15.1838 12.7634C15.4516 13.0312 15.8147 13.1818 16.1934 13.1823ZM16.1934 11.0394C16.3347 11.0394 16.4728 11.0813 16.5903 11.1598C16.7077 11.2383 16.7993 11.3498 16.8534 11.4804C16.9074 11.6109 16.9216 11.7545 16.894 11.8931C16.8664 12.0316 16.7984 12.1589 16.6985 12.2588C16.5986 12.3587 16.4713 12.4267 16.3328 12.4543C16.1942 12.4818 16.0506 12.4677 15.9201 12.4136C15.7896 12.3596 15.678 12.268 15.5995 12.1505C15.521 12.0331 15.4792 11.895 15.4792 11.7537C15.4793 11.5643 15.5547 11.3827 15.6886 11.2488C15.8225 11.1149 16.0041 11.0396 16.1934 11.0394ZM75.4791 29.2358C75.2908 29.2358 75.1067 29.2917 74.95 29.3964C74.7934 29.501 74.6713 29.6497 74.5993 29.8238C74.5272 29.9978 74.5083 30.1893 74.5451 30.374C74.5818 30.5588 74.6725 30.7285 74.8057 30.8617C74.9389 30.9949 75.1086 31.0856 75.2934 31.1223C75.4781 31.1591 75.6696 31.1402 75.8436 31.0681C76.0176 30.996 76.1664 30.874 76.271 30.7173C76.3757 30.5607 76.4315 30.3766 76.4315 30.1882C76.4312 29.9357 76.3308 29.6937 76.1523 29.5151C75.9737 29.3366 75.7317 29.2361 75.4791 29.2358ZM75.4791 30.6644C75.385 30.6644 75.2929 30.6365 75.2146 30.5842C75.1363 30.5318 75.0753 30.4575 75.0392 30.3705C75.0032 30.2834 74.9937 30.1877 75.0121 30.0953C75.0305 30.003 75.0758 29.9181 75.1424 29.8515C75.209 29.7849 75.2939 29.7396 75.3863 29.7212C75.4786 29.7028 75.5744 29.7122 75.6614 29.7483C75.7484 29.7843 75.8228 29.8454 75.8751 29.9237C75.9274 30.002 75.9553 30.094 75.9553 30.1882C75.9552 30.3145 75.905 30.4355 75.8157 30.5248C75.7265 30.6141 75.6054 30.6643 75.4791 30.6644ZM60.003 7.30135C59.8146 7.30135 59.6305 7.35721 59.4739 7.46186C59.3172 7.56651 59.1952 7.71525 59.1231 7.88927C59.051 8.0633 59.0321 8.25479 59.0689 8.43953C59.1056 8.62428 59.1963 8.79398 59.3295 8.92717C59.4627 9.06036 59.6324 9.15107 59.8172 9.18781C60.0019 9.22456 60.1934 9.2057 60.3674 9.13362C60.5414 9.06154 60.6902 8.93947 60.7948 8.78285C60.8995 8.62623 60.9553 8.4421 60.9553 8.25373C60.9551 8.00124 60.8546 7.75916 60.6761 7.58062C60.4975 7.40207 60.2555 7.30164 60.003 7.30135ZM60.003 8.72992C59.9088 8.72992 59.8167 8.702 59.7384 8.64967C59.6601 8.59735 59.5991 8.52298 59.563 8.43596C59.527 8.34895 59.5175 8.25321 59.5359 8.16083C59.5543 8.06846 59.5996 7.98361 59.6662 7.91702C59.7328 7.85042 59.8177 7.80507 59.9101 7.78669C60.0024 7.76832 60.0982 7.77775 60.1852 7.81379C60.2722 7.84983 60.3466 7.91087 60.3989 7.98918C60.4512 8.06749 60.4792 8.15955 60.4792 8.25373C60.479 8.37999 60.4288 8.50104 60.3395 8.59031C60.2503 8.67959 60.1292 8.7298 60.003 8.72992ZM73.8125 0.952148C73.6241 0.952148 73.44 1.008 73.2834 1.11265C73.1267 1.2173 73.0047 1.36604 72.9326 1.54007C72.8605 1.71409 72.8417 1.90559 72.8784 2.09033C72.9152 2.27507 73.0059 2.44477 73.139 2.57796C73.2722 2.71116 73.4419 2.80186 73.6267 2.83861C73.8114 2.87536 74.0029 2.8565 74.1769 2.78441C74.351 2.71233 74.4997 2.59026 74.6044 2.43364C74.709 2.27703 74.7649 2.09289 74.7649 1.90453C74.7646 1.65203 74.6641 1.40996 74.4856 1.23141C74.3071 1.05287 74.065 0.952437 73.8125 0.952148ZM73.8125 2.38072C73.7183 2.38072 73.6262 2.35279 73.5479 2.30047C73.4696 2.24814 73.4086 2.17377 73.3725 2.08676C73.3365 1.99975 73.3271 1.904 73.3454 1.81163C73.3638 1.71926 73.4092 1.63441 73.4758 1.56781C73.5424 1.50122 73.6272 1.45586 73.7196 1.43749C73.812 1.41911 73.9077 1.42854 73.9947 1.46459C74.0817 1.50063 74.1561 1.56166 74.2084 1.63997C74.2607 1.71828 74.2887 1.81035 74.2887 1.90453C74.2886 2.03078 74.2383 2.15183 74.1491 2.24111C74.0598 2.33038 73.9387 2.38059 73.8125 2.38072ZM30.373 2.38072C30.373 2.19236 30.3172 2.00822 30.2125 1.85161C30.1079 1.69499 29.9591 1.57292 29.7851 1.50083C29.6111 1.42875 29.4196 1.40989 29.2349 1.44664C29.0501 1.48339 28.8804 1.57409 28.7472 1.70728C28.614 1.84048 28.5233 2.01018 28.4866 2.19492C28.4498 2.37966 28.4687 2.57116 28.5408 2.74518C28.6129 2.91921 28.7349 3.06795 28.8915 3.1726C29.0482 3.27724 29.2323 3.3331 29.4207 3.3331C29.6732 3.33281 29.9152 3.23238 30.0938 3.05384C30.2723 2.87529 30.3728 2.63322 30.373 2.38072ZM28.9445 2.38072C28.9445 2.28654 28.9724 2.19447 29.0247 2.11616C29.077 2.03785 29.1514 1.97682 29.2384 1.94078C29.3254 1.90474 29.4212 1.89531 29.5136 1.91368C29.6059 1.93205 29.6908 1.97741 29.7574 2.044C29.824 2.1106 29.8693 2.19545 29.8877 2.28782C29.9061 2.38019 29.8966 2.47594 29.8606 2.56295C29.8246 2.64996 29.7635 2.72433 29.6852 2.77666C29.6069 2.82898 29.5148 2.85691 29.4207 2.85691C29.2944 2.85678 29.1734 2.80657 29.0841 2.7173C28.9948 2.62802 28.9446 2.50697 28.9445 2.38072Z" fill="#FBFBFF"/>
<path d="M5.18698 32.862L5.89507 31.9311L5.44793 31.6777L4.99317 32.7206H4.97841L4.5165 31.6849L4.06174 31.9458L4.76222 32.8549V32.8696L3.6665 32.7282V33.2349L4.76936 33.0934V33.1082L4.06174 34.0168L4.48603 34.2854L4.97079 33.2349H4.98555L5.43269 34.2777L5.90222 34.0096L5.18698 33.1154V33.1006L6.31174 33.2349V32.7282L5.18698 32.8768V32.862Z" fill="#FFC100"/>
<path d="M2.72851 3.8824L2.32089 4.40574L2.56565 4.5605L2.8447 3.95526H2.85327L3.11042 4.55621L3.38089 4.40145L2.96899 3.88669V3.87812L3.61661 3.95526V3.66383L2.96899 3.74955V3.74097L3.37661 3.20478L3.11946 3.05859L2.85756 3.65907H2.84899L2.58327 3.06288L2.32089 3.21288L2.7247 3.73669V3.74526L2.09375 3.66383V3.95526L2.72851 3.87383V3.8824Z" fill="#FFC100"/>
<path d="M77.6358 17.3914V16.8947L76.5325 17.0409V17.0262L77.2267 16.1128L76.7882 15.8643L76.3425 16.8871H76.3277L75.8748 15.8714L75.4286 16.1276L76.1158 17.019V17.0338L75.0415 16.8947V17.3914L76.1229 17.2528V17.2676L75.4286 18.159L75.8453 18.4224L76.3206 17.3914H76.3348L76.7734 18.4147L77.2339 18.1519L76.5325 17.2747V17.26L77.6358 17.3914Z" fill="#FFC100"/>
<path d="M44.4527 12.7563L45.0517 11.9682L44.6736 11.7539L44.2894 12.6363H44.2765L43.8856 11.7601L43.5008 11.981L44.0936 12.7501V12.7625L43.1665 12.643V13.0715L44.0998 12.952V12.9644L43.5008 13.7334L43.8598 13.9606L44.2703 13.0715H44.2827L44.6608 13.9539L45.0579 13.7272L44.4527 12.9706V12.9582L45.4046 13.0715V12.643L44.4527 12.7687V12.7563Z" fill="#FFC100"/>
</svg>
