<svg width="105" height="105" viewBox="0 0 105 105" fill="none" xmlns="http://www.w3.org/2000/svg">
<path d="M64.2041 54.5264C64.2041 52.2115 63.5177 49.9487 62.2316 48.0239C60.9455 46.0992 59.1176 44.599 56.979 43.7132C54.8403 42.8273 52.487 42.5956 50.2166 43.0472C47.9463 43.4988 45.8608 44.6135 44.224 46.2503C42.5871 47.8872 41.4724 49.9726 41.0208 52.243C40.5692 54.5134 40.801 56.8667 41.6868 59.0053C42.5727 61.144 44.0728 62.9719 45.9976 64.258C47.9223 65.544 50.1851 66.2305 52.5 66.2305C55.603 66.227 58.578 64.9927 60.7722 62.7985C62.9664 60.6044 64.2006 57.6294 64.2041 54.5264ZM43.0253 54.5264C43.0253 52.6524 43.5809 50.8206 44.622 49.2625C45.6631 47.7044 47.1429 46.49 48.8742 45.7728C50.6055 45.0557 52.5105 44.8681 54.3484 45.2337C56.1864 45.5993 57.8746 46.5016 59.1997 47.8267C60.5247 49.1518 61.4271 50.84 61.7927 52.6779C62.1583 54.5159 61.9706 56.4209 61.2535 58.1522C60.5364 59.8835 59.322 61.3632 57.7639 62.4043C56.2058 63.4454 54.3739 64.0011 52.5 64.0011C49.9871 64.0011 47.5772 63.0029 45.8003 61.226C44.0235 59.4492 43.0253 57.0392 43.0253 54.5264Z" fill="#FFC100" stroke="#182F43"/>
<path d="M6.79827 90.1971C7.41389 90.1971 7.91295 89.6981 7.91295 89.0825C7.91295 88.4668 7.41389 87.9678 6.79827 87.9678C6.18265 87.9678 5.68359 88.4668 5.68359 89.0825C5.68359 89.6981 6.18265 90.1971 6.79827 90.1971Z" fill="#182F43"/>
<path d="M11.817 87.9678H10.1449C9.84932 87.9678 9.5658 88.0852 9.35675 88.2943C9.14771 88.5033 9.03027 88.7868 9.03027 89.0825C9.03027 89.3781 9.14771 89.6616 9.35675 89.8707C9.5658 90.0797 9.84932 90.1971 10.1449 90.1971H11.817C12.1126 90.1971 12.3961 90.0797 12.6052 89.8707C12.8142 89.6616 12.9316 89.3781 12.9316 89.0825C12.9316 88.7868 12.8142 88.5033 12.6052 88.2943C12.3961 88.0852 12.1126 87.9678 11.817 87.9678ZM94.8603 87.9678H93.1883C92.8927 87.9678 92.6091 88.0852 92.4001 88.2943C92.1911 88.5033 92.0736 88.7868 92.0736 89.0825C92.0736 89.3781 92.1911 89.6616 92.4001 89.8707C92.6091 90.0797 92.8927 90.1971 93.1883 90.1971H94.8603C95.1559 90.1971 95.4395 90.0797 95.6485 89.8707C95.8575 89.6616 95.975 89.3781 95.975 89.0825C95.975 88.7868 95.8575 88.5033 95.6485 88.2943C95.4395 88.0852 95.1559 87.9678 94.8603 87.9678Z" fill="#182F43"/>
<path d="M98.1998 90.1971C98.8154 90.1971 99.3144 89.6981 99.3144 89.0825C99.3144 88.4668 98.8154 87.9678 98.1998 87.9678C97.5841 87.9678 97.0851 88.4668 97.0851 89.0825C97.0851 89.6981 97.5841 90.1971 98.1998 90.1971Z" fill="#182F43"/>
<path d="M71.5379 92.4252H66.9077C66.6275 92.4477 66.366 92.5748 66.1753 92.7814C65.9846 92.988 65.8787 93.2588 65.8787 93.5399C65.8787 93.821 65.9846 94.0918 66.1753 94.2984C66.366 94.5049 66.6275 94.6321 66.9077 94.6546H71.5379C71.8181 94.6321 72.0796 94.5049 72.2703 94.2984C72.4609 94.0918 72.5668 93.821 72.5668 93.5399C72.5668 93.2588 72.4609 92.988 72.2703 92.7814C72.0796 92.5748 71.8181 92.4477 71.5379 92.4252ZM38.0976 92.4252H33.4674C33.1872 92.4477 32.9257 92.5748 32.735 92.7814C32.5444 92.988 32.4385 93.2588 32.4385 93.5399C32.4385 93.821 32.5444 94.0918 32.735 94.2984C32.9257 94.5049 33.1872 94.6321 33.4674 94.6546H38.0976C38.3778 94.6321 38.6393 94.5049 38.83 94.2984C39.0207 94.0918 39.1266 93.821 39.1266 93.5399C39.1266 93.2588 39.0207 92.988 38.83 92.7814C38.6393 92.5748 38.3778 92.4477 38.0976 92.4252ZM63.6494 92.4252H41.3559C41.0603 92.4252 40.7767 92.5427 40.5677 92.7517C40.3587 92.9607 40.2412 93.2443 40.2412 93.5399C40.2412 93.8355 40.3587 94.119 40.5677 94.3281C40.7767 94.5371 41.0603 94.6546 41.3559 94.6546H50.2399V95.7692H45.8146C45.519 95.7692 45.2354 95.8867 45.0264 96.0957C44.8174 96.3048 44.6999 96.5883 44.6999 96.8839C44.6999 97.1795 44.8174 97.4631 45.0264 97.6721C45.2354 97.8812 45.519 97.9986 45.8146 97.9986H59.748C60.0437 97.9986 60.3272 97.8812 60.5362 97.6721C60.7453 97.4631 60.8627 97.1795 60.8627 96.8839C60.8627 96.5883 60.7453 96.3048 60.5362 96.0957C60.3272 95.8867 60.0437 95.7692 59.748 95.7692H54.7654V94.6546H63.6494C63.945 94.6546 64.2286 94.5371 64.4376 94.3281C64.6466 94.119 64.7641 93.8355 64.7641 93.5399C64.7641 93.2443 64.6466 92.9607 64.4376 92.7517C64.2286 92.5427 63.945 92.4252 63.6494 92.4252ZM57.5187 77.9344H64.2067C64.5024 77.9344 64.7859 77.817 64.9949 77.6079C65.204 77.3989 65.3214 77.1154 65.3214 76.8198C65.3214 76.5241 65.204 76.2406 64.9949 76.0316C64.7859 75.8225 64.5024 75.7051 64.2067 75.7051H57.5187C57.2231 75.7051 56.9395 75.8225 56.7305 76.0316C56.5215 76.2406 56.404 76.5241 56.404 76.8198C56.404 77.1154 56.5215 77.3989 56.7305 77.6079C56.9395 77.817 57.2231 77.9344 57.5187 77.9344Z" fill="#FFC100" stroke="#182F43"/>
<path d="M89.6835 87.9675H67.1778C67.4148 87.6742 67.5732 87.3253 67.638 86.9539C67.9429 85.8255 68.5059 84.7834 69.2824 83.9098C70.069 83.6607 70.7563 83.1684 71.2453 82.5039C71.7344 81.8394 72 81.0368 72.004 80.2117V33.0105C72.0028 32.3077 71.8345 31.6153 71.5131 30.9903L67.9385 23.4735C67.9207 23.4359 67.8974 23.4022 67.8776 23.366L68.0907 21.3175C68.123 21.007 68.0897 20.6931 67.9929 20.3963C67.8962 20.0994 67.7382 19.8262 67.5292 19.5943C67.3201 19.3624 67.0647 19.177 66.7795 19.05C66.4942 18.9231 66.1855 18.8576 65.8733 18.8576H39.121C38.8088 18.8576 38.5001 18.9231 38.2148 19.05C37.9296 19.177 37.6742 19.3624 37.4651 19.5943C37.2561 19.8262 37.0981 20.0994 37.0014 20.3963C36.9046 20.6931 36.8714 21.007 36.9037 21.3175L37.1167 23.3659C37.0969 23.4022 37.0736 23.4359 37.0558 23.4735L33.4813 30.9903C33.1598 31.6153 32.9915 32.3077 32.9903 33.0105V80.2062C32.9943 81.0295 33.2588 81.8305 33.746 82.4942C34.2332 83.158 34.9181 83.6504 35.7024 83.9009C36.4723 84.7728 37.0337 85.8085 37.3441 86.9295C37.414 87.3125 37.5833 87.6704 37.8351 87.9675H15.3108C15.1522 87.9467 14.9911 87.9601 14.8381 88.0066C14.6851 88.0532 14.5437 88.1318 14.4236 88.2373C14.3034 88.3428 14.2071 88.4727 14.1411 88.6184C14.0751 88.7641 14.041 88.9222 14.041 89.0821C14.041 89.2421 14.0751 89.4001 14.1411 89.5458C14.2071 89.6915 14.3034 89.8214 14.4236 89.9269C14.5437 90.0325 14.6851 90.1111 14.8381 90.1576C14.9911 90.2042 15.1522 90.2175 15.3108 90.1968H89.6835C89.842 90.2175 90.0032 90.2042 90.1562 90.1576C90.3092 90.1111 90.4505 90.0325 90.5707 89.9269C90.6909 89.8214 90.7872 89.6915 90.8532 89.5458C90.9191 89.4001 90.9533 89.2421 90.9533 89.0821C90.9533 88.9222 90.9191 88.7641 90.8532 88.6184C90.7872 88.4727 90.6909 88.3428 90.5707 88.2373C90.4505 88.1318 90.3092 88.0532 90.1562 88.0066C90.0032 87.9601 89.842 87.9467 89.6835 87.9675ZM65.8733 21.0869L65.7573 22.2016H39.237L39.121 21.0869H65.8733ZM36.4506 81.8089C36.098 81.7137 35.7865 81.5053 35.5641 81.2157C35.3417 80.926 35.2207 80.5713 35.2197 80.2062V74.5662C40.8726 73.8174 44.8883 70.2628 47.3105 67.4555C46.5983 67.1698 45.911 66.8256 45.2556 66.4264C43.0858 68.852 39.7706 71.6112 35.2197 72.3106V70.0452C37.9608 69.4629 40.5018 67.7454 43.0383 64.7459C42.4878 64.2353 41.9791 63.6814 41.5171 63.0896C39.4088 65.6391 37.3574 67.1552 35.2197 67.7492V33.0105C35.2206 32.6526 35.309 32.3005 35.4771 31.9845L39.0691 24.4309H65.9252L69.5173 31.9845C69.6853 32.3005 69.7736 32.6527 69.7746 33.0105V34.8179C65.5036 36.4708 61.5289 38.8055 58.0056 41.7312C58.7451 42.0513 59.4555 42.4351 60.1286 42.8781C63.0637 40.5477 66.3105 38.6397 69.7746 37.2095V39.8125C67.0667 41.0745 64.523 42.6624 62.2 44.5411C62.7353 45.06 63.2283 45.6207 63.6746 46.2179C65.5643 44.6978 67.6089 43.3812 69.7746 42.2899V80.2117C69.7737 80.5769 69.6526 80.9316 69.4302 81.2212C69.2078 81.5108 68.8963 81.7193 68.5437 81.8145C68.1185 81.9309 67.4639 82.064 66.6526 82.2138C61.9911 83.0756 57.2605 83.509 52.52 83.5088C47.7641 83.5087 43.0183 83.0733 38.3418 82.2082C37.5304 82.0585 36.8758 81.9254 36.4506 81.8089ZM39.5381 86.5346C39.399 85.841 39.1551 85.1726 38.8147 84.5525C43.3409 85.3385 47.9261 85.7352 52.52 85.7381C57.0948 85.7355 61.6611 85.3414 66.1686 84.5599C65.8219 85.1906 65.5762 85.8718 65.4405 86.5787C62.4828 87.4208 57.8132 87.9675 52.5626 87.9675C47.223 87.9675 42.4854 87.4031 39.5381 86.5346V86.5346ZM72.5613 12.8821C72.892 12.8821 73.2153 12.7841 73.4902 12.6003C73.7652 12.4166 73.9795 12.1555 74.1061 11.85C74.2326 11.5444 74.2657 11.2082 74.2012 10.8839C74.1367 10.5596 73.9774 10.2616 73.7436 10.0278C73.5098 9.79397 73.2118 9.63473 72.8875 9.57021C72.5632 9.5057 72.227 9.53881 71.9215 9.66536C71.6159 9.79191 71.3548 10.0062 71.1711 10.2812C70.9874 10.5561 70.8893 10.8794 70.8893 11.2101C70.8898 11.6534 71.0661 12.0784 71.3796 12.3918C71.693 12.7053 72.118 12.8816 72.5613 12.8821ZM72.5613 10.3741C72.7267 10.3741 72.8883 10.4231 73.0258 10.515C73.1633 10.6068 73.2704 10.7374 73.3337 10.8902C73.397 11.0429 73.4135 11.211 73.3813 11.3732C73.349 11.5354 73.2694 11.6843 73.1525 11.8012C73.0355 11.9182 72.8866 11.9978 72.7244 12.03C72.5622 12.0623 72.3941 12.0457 72.2414 11.9825C72.0886 11.9192 71.9581 11.812 71.8662 11.6746C71.7743 11.5371 71.7253 11.3754 71.7253 11.2101C71.7255 10.9884 71.8137 10.7759 71.9704 10.6192C72.1271 10.4625 72.3397 10.3743 72.5613 10.3741ZM95.0247 33.4411C94.8042 33.4411 94.5887 33.5065 94.4054 33.629C94.2221 33.7515 94.0792 33.9256 93.9948 34.1293C93.9105 34.3329 93.8884 34.5571 93.9314 34.7733C93.9744 34.9895 94.0806 35.1881 94.2365 35.344C94.3924 35.4999 94.591 35.6061 94.8072 35.6491C95.0234 35.6921 95.2476 35.67 95.4512 35.5856C95.6549 35.5013 95.829 35.3584 95.9515 35.1751C96.074 34.9918 96.1393 34.7763 96.1393 34.5558C96.139 34.2603 96.0215 33.977 95.8125 33.768C95.6035 33.559 95.3202 33.4415 95.0247 33.4411ZM95.0247 35.1132C94.9144 35.1132 94.8067 35.0805 94.715 35.0192C94.6234 34.958 94.5519 34.8709 94.5097 34.7691C94.4676 34.6673 94.4565 34.5552 94.478 34.4471C94.4995 34.339 94.5526 34.2397 94.6306 34.1617C94.7085 34.0838 94.8078 34.0307 94.9159 34.0092C95.024 33.9877 95.1361 33.9987 95.2379 34.0409C95.3398 34.0831 95.4268 34.1545 95.4881 34.2462C95.5493 34.3378 95.582 34.4456 95.582 34.5558C95.5818 34.7036 95.5231 34.8453 95.4186 34.9498C95.3141 35.0542 95.1724 35.113 95.0247 35.1132Z" fill="#182F43"/>
<path d="M76.4655 42.8221C76.245 42.8221 76.0295 42.8875 75.8462 43.01C75.6629 43.1325 75.52 43.3065 75.4357 43.5102C75.3513 43.7139 75.3292 43.938 75.3722 44.1543C75.4152 44.3705 75.5214 44.5691 75.6773 44.725C75.8332 44.8809 76.0318 44.987 76.248 45.03C76.4643 45.0731 76.6884 45.051 76.8921 44.9666C77.0957 44.8822 77.2698 44.7394 77.3923 44.5561C77.5148 44.3728 77.5802 44.1572 77.5802 43.9368C77.5798 43.6413 77.4623 43.3579 77.2533 43.149C77.0443 42.94 76.761 42.8224 76.4655 42.8221ZM76.4655 44.4941C76.3553 44.4941 76.2475 44.4614 76.1558 44.4002C76.0642 44.339 75.9928 44.2519 75.9506 44.1501C75.9084 44.0482 75.8974 43.9362 75.9189 43.8281C75.9404 43.7199 75.9935 43.6206 76.0714 43.5427C76.1493 43.4647 76.2486 43.4117 76.3568 43.3902C76.4649 43.3687 76.5769 43.3797 76.6788 43.4219C76.7806 43.4641 76.8677 43.5355 76.9289 43.6271C76.9901 43.7188 77.0228 43.8266 77.0228 43.9368C77.0227 44.0846 76.9639 44.2262 76.8594 44.3307C76.7549 44.4352 76.6133 44.494 76.4655 44.4941ZM93.9128 13.2832C93.6923 13.2832 93.4768 13.3486 93.2935 13.4711C93.1102 13.5935 92.9673 13.7676 92.883 13.9713C92.7986 14.175 92.7765 14.3991 92.8195 14.6153C92.8625 14.8316 92.9687 15.0302 93.1246 15.1861C93.2805 15.342 93.4791 15.4481 93.6953 15.4911C93.9116 15.5341 94.1357 15.5121 94.3394 15.4277C94.543 15.3433 94.7171 15.2005 94.8396 15.0172C94.9621 14.8339 95.0275 14.6183 95.0275 14.3979C95.0271 14.1024 94.9096 13.819 94.7006 13.6101C94.4916 13.4011 94.2083 13.2835 93.9128 13.2832ZM93.9128 14.9552C93.8026 14.9552 93.6948 14.9225 93.6032 14.8613C93.5115 14.8 93.4401 14.713 93.3979 14.6112C93.3557 14.5093 93.3447 14.3973 93.3662 14.2891C93.3877 14.181 93.4408 14.0817 93.5187 14.0038C93.5966 13.9258 93.6959 13.8728 93.8041 13.8513C93.9122 13.8297 94.0242 13.8408 94.1261 13.883C94.2279 13.9251 94.315 13.9966 94.3762 14.0882C94.4374 14.1799 94.4701 14.2876 94.4701 14.3979C94.47 14.5456 94.4112 14.6873 94.3067 14.7918C94.2022 14.8963 94.0606 14.9551 93.9128 14.9552ZM23.1468 28.8011C23.1468 28.5806 23.0815 28.3651 22.959 28.1818C22.8365 27.9985 22.6624 27.8556 22.4587 27.7713C22.255 27.6869 22.0309 27.6648 21.8147 27.7078C21.5985 27.7508 21.3999 27.857 21.244 28.0129C21.0881 28.1688 20.9819 28.3674 20.9389 28.5836C20.8959 28.7998 20.918 29.024 21.0023 29.2277C21.0867 29.4313 21.2296 29.6054 21.4129 29.7279C21.5962 29.8504 21.8117 29.9158 22.0322 29.9158C22.3277 29.9154 22.611 29.7979 22.82 29.5889C23.0289 29.3799 23.1465 29.0966 23.1468 28.8011ZM21.4748 28.8011C21.4748 28.6909 21.5075 28.5831 21.5687 28.4914C21.63 28.3998 21.717 28.3284 21.8189 28.2862C21.9207 28.244 22.0328 28.233 22.1409 28.2545C22.249 28.276 22.3483 28.329 22.4263 28.407C22.5042 28.4849 22.5573 28.5842 22.5788 28.6924C22.6003 28.8005 22.5893 28.9125 22.5471 29.0144C22.5049 29.1162 22.4335 29.2033 22.3418 29.2645C22.2501 29.3257 22.1424 29.3584 22.0322 29.3584C21.8844 29.3583 21.7427 29.2995 21.6382 29.195C21.5337 29.0905 21.475 28.9489 21.4748 28.8011Z" fill="#182F43"/>
<path d="M14.0859 46.8184L12.717 46.6391L12.4346 46.6022V46.887V47.7963V48.0808L12.7167 48.0443L14.0952 47.8655L13.1862 49.0495L13.0206 49.2652L13.2494 49.4121L14.0007 49.8946L14.2438 50.0507L14.3634 49.7877L14.9993 48.389L15.5819 49.7678L15.6922 50.0289L15.9375 49.8869L16.7689 49.4053L17.0185 49.2607L16.8399 49.0341L15.9252 47.8739L17.3388 48.0445L17.6188 48.0783V47.7963V46.887V46.6013L17.3356 46.6392L15.9126 46.8299L16.831 45.6051L17.0004 45.3791L16.7555 45.2383L15.9637 44.7832L15.7203 44.6434L15.6095 44.9013L15.0183 46.2764L14.4186 44.9122L14.3059 44.6559L14.064 44.7968L13.2587 45.2655L13.0144 45.4077L13.1854 45.6328L14.0859 46.8184Z" fill="#FFC100" stroke="#182F43" stroke-width="0.5"/>
<path d="M13.4492 15.4926L13.3396 15.3557L13.5009 15.3749L13.7805 15.4081V15.1266V14.785V14.4997L13.4977 14.5371L13.3263 14.5598L13.4486 14.399L13.6219 14.1711L13.3727 14.0301L13.0711 13.8595L12.8298 13.723L12.7189 13.9772L12.6341 14.1717L12.5488 13.9804L12.4363 13.7278L12.1963 13.8652L11.8897 14.0408L11.6411 14.1832L11.8159 14.4102L11.9284 14.5563L11.7797 14.537L11.4976 14.5004V14.785V15.1266V15.4107L11.7793 15.3746L11.9296 15.3553L11.8167 15.5002L11.6474 15.7176L11.8802 15.865L12.1661 16.0462L12.4073 16.199L12.5269 15.9397L12.6234 15.7305L12.7083 15.9285L12.8188 16.1864L13.0624 16.0469L13.3784 15.8657L13.6316 15.7206L13.4492 15.4926Z" fill="#FFC100" stroke="#182F43" stroke-width="0.5"/>
<path d="M40.3032 11.0356L40.5828 11.0689V10.7874V10.2061V9.92075L40.2999 9.95825L39.5898 10.0524L40.0536 9.44222L40.2267 9.21449L39.9778 9.07343L39.4645 8.7825L39.223 8.6456L39.1121 8.90013L38.8084 9.59695L38.5006 8.90656L38.388 8.65391L38.148 8.79146L37.6257 9.09075L37.3771 9.23323L37.552 9.46023L38.0028 10.0454L37.3285 9.95815L37.0464 9.92165V10.2061V10.7874V11.0714L37.3281 11.0354L38.0076 10.9483L37.5528 11.5322L37.3834 11.7497L37.6164 11.8971L38.1035 12.2053L38.3446 12.3578L38.4642 12.0988L38.7942 11.3836L39.0942 12.0836L39.2046 12.3411L39.4479 12.2022L39.9869 11.8946L40.2408 11.7496L40.0582 11.5213L39.6031 10.9522L40.3032 11.0356Z" fill="#FFC100" stroke="#182F43" stroke-width="0.5"/>
<path d="M83.8107 19.9014L82.9904 21.8117L82.1565 19.9162L82.0437 19.6599L81.8018 19.8008L80.7703 20.4016L80.5261 20.5438L80.6971 20.7689L81.9525 22.4205L80.0324 22.1695L79.75 22.1325V22.4174V23.5826V23.8674L80.0323 23.8306L81.9665 23.5783L80.6979 25.2301L80.5321 25.446L80.7613 25.5929L81.7251 26.2105L81.9681 26.3662L82.0876 26.1035L82.968 24.1673L83.7757 26.0792L83.886 26.3402L84.1312 26.1982L85.1959 25.5819L85.4455 25.4374L85.267 25.2108L83.9903 23.5907L85.9699 23.8308L86.25 23.8648V23.5826V22.4174V22.1316L85.9668 22.1696L83.9785 22.436L85.2542 20.7325L85.4233 20.5066L85.1786 20.3659L84.165 19.7833L83.9215 19.6433L83.8107 19.9014Z" fill="#FFC100" stroke="#182F43" stroke-width="0.5"/>
</svg>
