<svg width="105" height="105" viewBox="0 0 105 105" fill="none" xmlns="http://www.w3.org/2000/svg">
<mask id="path-1-inside-1_323_3970" fill="white">
<path d="M60.0612 41.4957L62.1777 37.6396C62.2049 37.5901 62.2221 37.5357 62.2285 37.4795C62.2348 37.4233 62.2302 37.3664 62.2147 37.312C62.1993 37.2577 62.1734 37.2069 62.1385 37.1626C62.1037 37.1183 62.0605 37.0814 62.0115 37.054C61.9126 36.9986 61.7959 36.9852 61.6872 37.0167C61.5784 37.0482 61.4865 37.122 61.4317 37.2219L59.2917 41.1207C57.4657 40.3124 55.4937 39.895 53.5 39.895C51.5064 39.895 49.5343 40.3124 47.7084 41.1207L45.5683 37.2219C45.5135 37.122 45.4216 37.0482 45.3128 37.0167C45.2041 36.9852 45.0874 36.9986 44.9885 37.054C44.8896 37.1094 44.8165 37.2022 44.7853 37.312C44.7541 37.4218 44.7674 37.5397 44.8223 37.6396L46.9389 41.4957C44.9241 42.4986 43.2217 44.0425 42.0185 45.9581C40.8153 47.8736 40.1577 50.0868 40.1179 52.3549H66.8822C66.8424 50.0868 66.1848 47.8736 64.9816 45.9581C63.7784 44.0425 62.076 42.4986 60.0612 41.4957ZM47.3235 47.4094C47.1025 47.4094 46.8864 47.3432 46.7026 47.2192C46.5189 47.0952 46.3756 46.919 46.291 46.7127C46.2064 46.5065 46.1843 46.2796 46.2274 46.0607C46.2706 45.8417 46.377 45.6406 46.5333 45.4828C46.6896 45.325 46.8887 45.2175 47.1055 45.1739C47.3223 45.1304 47.547 45.1527 47.7512 45.2381C47.9554 45.3236 48.13 45.4682 48.2528 45.6538C48.3756 45.8394 48.4411 46.0576 48.4411 46.2808C48.4408 46.5801 48.3229 46.8669 48.1134 47.0785C47.9039 47.2901 47.6198 47.4091 47.3235 47.4094ZM59.6765 47.4094C59.4554 47.4094 59.2393 47.3432 59.0556 47.2192C58.8718 47.0952 58.7285 46.919 58.6439 46.7127C58.5594 46.5065 58.5372 46.2796 58.5803 46.0607C58.6235 45.8417 58.7299 45.6406 58.8862 45.4828C59.0425 45.325 59.2416 45.2175 59.4584 45.1739C59.6752 45.1304 59.8999 45.1527 60.1041 45.2381C60.3083 45.3236 60.4829 45.4682 60.6057 45.6538C60.7285 45.8394 60.794 46.0576 60.794 46.2808C60.7937 46.5801 60.6759 46.8669 60.4663 47.0785C60.2568 47.2901 59.9728 47.4091 59.6765 47.4094ZM40.1177 73.0122C40.1177 73.8787 40.4586 74.7097 41.0653 75.3224C41.6721 75.9351 42.495 76.2793 43.353 76.2793H45.5V82.9622C45.4989 83.3607 45.5757 83.7556 45.726 84.1241C45.8763 84.4926 46.0971 84.8275 46.3758 85.1097C46.6545 85.3919 46.9855 85.6158 47.3501 85.7686C47.7146 85.9214 48.1054 86 48.5 86C48.8947 86 49.2854 85.9214 49.65 85.7686C50.0145 85.6158 50.3456 85.3919 50.6242 85.1097C50.9029 84.8275 51.1237 84.4926 51.274 84.1241C51.4243 83.7556 51.5011 83.3607 51.5001 82.9622V76.2793H55.4999V82.9622C55.4989 83.3607 55.5757 83.7556 55.726 84.1241C55.8763 84.4926 56.0971 84.8275 56.3757 85.1097C56.6544 85.3919 56.9855 85.6158 57.35 85.7686C57.7145 85.9214 58.1053 86 58.5 86C58.8946 86 59.2854 85.9214 59.6499 85.7686C60.0144 85.6158 60.3455 85.3919 60.6242 85.1097C60.9029 84.8275 61.1237 84.4926 61.274 84.1241C61.4243 83.7556 61.5011 83.3607 61.5 82.9622V76.2793H63.6471C64.5051 76.2793 65.328 75.9351 65.9348 75.3224C66.5415 74.7097 66.8824 73.8787 66.8824 73.0122V53.424H40.1177V73.0122ZM36 52.9042C35.2047 52.9051 34.4421 53.2246 33.8797 53.7926C33.3173 54.3605 33.0009 55.1306 33 55.9338V68.557C32.9989 68.9555 33.0757 69.3503 33.226 69.7189C33.3763 70.0874 33.5971 70.4223 33.8758 70.7045C34.1545 70.9867 34.4856 71.2106 34.8501 71.3634C35.2146 71.5162 35.6054 71.5948 36.0001 71.5948C36.3947 71.5948 36.7855 71.5162 37.15 71.3634C37.5145 71.2106 37.8456 70.9867 38.1243 70.7045C38.403 70.4223 38.6238 70.0874 38.7741 69.7189C38.9244 69.3503 39.0012 68.9555 39.0001 68.557V55.9338C38.9992 55.1306 38.6828 54.3605 38.1204 53.7926C37.558 53.2246 36.7954 52.9051 36 52.9042ZM71 52.9042C70.2046 52.9051 69.442 53.2246 68.8796 53.7926C68.3172 54.3605 68.0008 55.1306 67.9999 55.9338V68.557C67.9988 68.9555 68.0756 69.3503 68.2259 69.7189C68.3762 70.0874 68.597 70.4223 68.8757 70.7045C69.1544 70.9867 69.4855 71.2106 69.85 71.3634C70.2145 71.5162 70.6053 71.5948 70.9999 71.5948C71.3946 71.5948 71.7854 71.5162 72.1499 71.3634C72.5144 71.2106 72.8455 70.9867 73.1242 70.7045C73.4029 70.4223 73.6237 70.0874 73.774 69.7189C73.9242 69.3503 74.0011 68.9555 74 68.557V55.9338C73.9991 55.1306 73.6827 54.3605 73.1203 53.7926C72.5579 53.2246 71.7953 52.9051 71 52.9042Z"/>
</mask>
<path d="M60.0612 41.4957L62.1777 37.6396C62.2049 37.5901 62.2221 37.5357 62.2285 37.4795C62.2348 37.4233 62.2302 37.3664 62.2147 37.312C62.1993 37.2577 62.1734 37.2069 62.1385 37.1626C62.1037 37.1183 62.0605 37.0814 62.0115 37.054C61.9126 36.9986 61.7959 36.9852 61.6872 37.0167C61.5784 37.0482 61.4865 37.122 61.4317 37.2219L59.2917 41.1207C57.4657 40.3124 55.4937 39.895 53.5 39.895C51.5064 39.895 49.5343 40.3124 47.7084 41.1207L45.5683 37.2219C45.5135 37.122 45.4216 37.0482 45.3128 37.0167C45.2041 36.9852 45.0874 36.9986 44.9885 37.054C44.8896 37.1094 44.8165 37.2022 44.7853 37.312C44.7541 37.4218 44.7674 37.5397 44.8223 37.6396L46.9389 41.4957C44.9241 42.4986 43.2217 44.0425 42.0185 45.9581C40.8153 47.8736 40.1577 50.0868 40.1179 52.3549H66.8822C66.8424 50.0868 66.1848 47.8736 64.9816 45.9581C63.7784 44.0425 62.076 42.4986 60.0612 41.4957ZM47.3235 47.4094C47.1025 47.4094 46.8864 47.3432 46.7026 47.2192C46.5189 47.0952 46.3756 46.919 46.291 46.7127C46.2064 46.5065 46.1843 46.2796 46.2274 46.0607C46.2706 45.8417 46.377 45.6406 46.5333 45.4828C46.6896 45.325 46.8887 45.2175 47.1055 45.1739C47.3223 45.1304 47.547 45.1527 47.7512 45.2381C47.9554 45.3236 48.13 45.4682 48.2528 45.6538C48.3756 45.8394 48.4411 46.0576 48.4411 46.2808C48.4408 46.5801 48.3229 46.8669 48.1134 47.0785C47.9039 47.2901 47.6198 47.4091 47.3235 47.4094ZM59.6765 47.4094C59.4554 47.4094 59.2393 47.3432 59.0556 47.2192C58.8718 47.0952 58.7285 46.919 58.6439 46.7127C58.5594 46.5065 58.5372 46.2796 58.5803 46.0607C58.6235 45.8417 58.7299 45.6406 58.8862 45.4828C59.0425 45.325 59.2416 45.2175 59.4584 45.1739C59.6752 45.1304 59.8999 45.1527 60.1041 45.2381C60.3083 45.3236 60.4829 45.4682 60.6057 45.6538C60.7285 45.8394 60.794 46.0576 60.794 46.2808C60.7937 46.5801 60.6759 46.8669 60.4663 47.0785C60.2568 47.2901 59.9728 47.4091 59.6765 47.4094ZM40.1177 73.0122C40.1177 73.8787 40.4586 74.7097 41.0653 75.3224C41.6721 75.9351 42.495 76.2793 43.353 76.2793H45.5V82.9622C45.4989 83.3607 45.5757 83.7556 45.726 84.1241C45.8763 84.4926 46.0971 84.8275 46.3758 85.1097C46.6545 85.3919 46.9855 85.6158 47.3501 85.7686C47.7146 85.9214 48.1054 86 48.5 86C48.8947 86 49.2854 85.9214 49.65 85.7686C50.0145 85.6158 50.3456 85.3919 50.6242 85.1097C50.9029 84.8275 51.1237 84.4926 51.274 84.1241C51.4243 83.7556 51.5011 83.3607 51.5001 82.9622V76.2793H55.4999V82.9622C55.4989 83.3607 55.5757 83.7556 55.726 84.1241C55.8763 84.4926 56.0971 84.8275 56.3757 85.1097C56.6544 85.3919 56.9855 85.6158 57.35 85.7686C57.7145 85.9214 58.1053 86 58.5 86C58.8946 86 59.2854 85.9214 59.6499 85.7686C60.0144 85.6158 60.3455 85.3919 60.6242 85.1097C60.9029 84.8275 61.1237 84.4926 61.274 84.1241C61.4243 83.7556 61.5011 83.3607 61.5 82.9622V76.2793H63.6471C64.5051 76.2793 65.328 75.9351 65.9348 75.3224C66.5415 74.7097 66.8824 73.8787 66.8824 73.0122V53.424H40.1177V73.0122ZM36 52.9042C35.2047 52.9051 34.4421 53.2246 33.8797 53.7926C33.3173 54.3605 33.0009 55.1306 33 55.9338V68.557C32.9989 68.9555 33.0757 69.3503 33.226 69.7189C33.3763 70.0874 33.5971 70.4223 33.8758 70.7045C34.1545 70.9867 34.4856 71.2106 34.8501 71.3634C35.2146 71.5162 35.6054 71.5948 36.0001 71.5948C36.3947 71.5948 36.7855 71.5162 37.15 71.3634C37.5145 71.2106 37.8456 70.9867 38.1243 70.7045C38.403 70.4223 38.6238 70.0874 38.7741 69.7189C38.9244 69.3503 39.0012 68.9555 39.0001 68.557V55.9338C38.9992 55.1306 38.6828 54.3605 38.1204 53.7926C37.558 53.2246 36.7954 52.9051 36 52.9042ZM71 52.9042C70.2046 52.9051 69.442 53.2246 68.8796 53.7926C68.3172 54.3605 68.0008 55.1306 67.9999 55.9338V68.557C67.9988 68.9555 68.0756 69.3503 68.2259 69.7189C68.3762 70.0874 68.597 70.4223 68.8757 70.7045C69.1544 70.9867 69.4855 71.2106 69.85 71.3634C70.2145 71.5162 70.6053 71.5948 70.9999 71.5948C71.3946 71.5948 71.7854 71.5162 72.1499 71.3634C72.5144 71.2106 72.8455 70.9867 73.1242 70.7045C73.4029 70.4223 73.6237 70.0874 73.774 69.7189C73.9242 69.3503 74.0011 68.9555 74 68.557V55.9338C73.9991 55.1306 73.6827 54.3605 73.1203 53.7926C72.5579 53.2246 71.7953 52.9051 71 52.9042Z" fill="#FFC100" stroke="#182F43" stroke-width="2" mask="url(#path-1-inside-1_323_3970)"/>
<path d="M26.5929 18.9655C27.0742 18.9655 27.5447 18.8199 27.9449 18.5471C28.3451 18.2743 28.657 17.8865 28.8412 17.4329C29.0254 16.9792 29.0735 16.48 28.9797 15.9984C28.8858 15.5168 28.654 15.0744 28.3137 14.7272C27.9733 14.38 27.5397 14.1435 27.0677 14.0477C26.5956 13.9519 26.1064 14.0011 25.6617 14.189C25.217 14.3769 24.837 14.6951 24.5696 15.1034C24.3022 15.5117 24.1595 15.9917 24.1595 16.4828C24.1602 17.141 24.4168 17.7721 24.873 18.2375C25.3292 18.7029 25.9478 18.9648 26.5929 18.9655ZM26.5929 15.2414C26.8336 15.2414 27.0688 15.3142 27.2689 15.4506C27.469 15.587 27.625 15.7809 27.7171 16.0077C27.8092 16.2345 27.8332 16.4841 27.7863 16.7249C27.7394 16.9657 27.6235 17.1869 27.4533 17.3605C27.2831 17.5342 27.0663 17.6524 26.8303 17.7003C26.5943 17.7482 26.3496 17.7236 26.1273 17.6296C25.905 17.5357 25.715 17.3766 25.5813 17.1724C25.4476 16.9683 25.3762 16.7283 25.3762 16.4828C25.3765 16.1536 25.5048 15.8381 25.7329 15.6053C25.961 15.3726 26.2703 15.2417 26.5929 15.2414ZM89.6159 40.9163C89.2951 40.9163 88.9814 41.0134 88.7146 41.1952C88.4478 41.3771 88.2399 41.6356 88.1171 41.9381C87.9943 42.2405 87.9622 42.5733 88.0248 42.8944C88.0874 43.2154 88.2419 43.5104 88.4688 43.7419C88.6957 43.9733 88.9847 44.131 89.2994 44.1948C89.6141 44.2587 89.9403 44.2259 90.2368 44.1007C90.5332 43.9754 90.7866 43.7632 90.9648 43.491C91.1431 43.2188 91.2382 42.8988 91.2382 42.5715C91.2377 42.1326 91.0667 41.7119 90.7625 41.4016C90.4584 41.0913 90.046 40.9168 89.6159 40.9163ZM89.6159 43.3991C89.4555 43.3991 89.2987 43.3505 89.1653 43.2596C89.0319 43.1686 88.9279 43.0394 88.8665 42.8882C88.8051 42.7369 88.789 42.5706 88.8204 42.41C88.8516 42.2495 88.9289 42.102 89.0424 41.9863C89.1558 41.8705 89.3003 41.7917 89.4577 41.7598C89.615 41.7279 89.7781 41.7442 89.9263 41.8069C90.0746 41.8695 90.2012 41.9756 90.2904 42.1117C90.3795 42.2478 90.4271 42.4078 90.4271 42.5715C90.4269 42.7909 90.3413 43.0013 90.1893 43.1564C90.0372 43.3116 89.831 43.3988 89.6159 43.3991ZM89.6159 16.069C89.2951 16.069 88.9814 16.166 88.7146 16.3479C88.4478 16.5298 88.2399 16.7883 88.1171 17.0907C87.9943 17.3932 87.9622 17.726 88.0248 18.047C88.0874 18.3681 88.2419 18.663 88.4688 18.8945C88.6957 19.126 88.9847 19.2836 89.2994 19.3475C89.6141 19.4114 89.9403 19.3786 90.2368 19.2533C90.5332 19.128 90.7866 18.9159 90.9648 18.6437C91.1431 18.3715 91.2382 18.0515 91.2382 17.7241C91.2377 17.2853 91.0667 16.8646 90.7625 16.5543C90.4584 16.244 90.046 16.0695 89.6159 16.069ZM89.6159 18.5517C89.4555 18.5517 89.2987 18.5032 89.1653 18.4123C89.0319 18.3213 88.9279 18.1921 88.8665 18.0408C88.8051 17.8896 88.789 17.7232 88.8204 17.5627C88.8516 17.4021 88.9289 17.2547 89.0424 17.1389C89.1558 17.0232 89.3003 16.9444 89.4577 16.9125C89.615 16.8805 89.7781 16.8969 89.9263 16.9595C90.0746 17.0222 90.2012 17.1283 90.2904 17.2644C90.3795 17.4005 90.4271 17.5605 90.4271 17.7241C90.4269 17.9436 90.3413 18.1539 90.1893 18.3091C90.0372 18.4642 89.831 18.5515 89.6159 18.5517ZM101.378 58.6897C101.057 58.6897 100.743 58.7867 100.476 58.9686C100.21 59.1505 100.002 59.409 99.8789 59.7114C99.7561 60.0139 99.724 60.3467 99.7866 60.6677C99.8492 60.9888 100.004 61.2837 100.231 61.5152C100.457 61.7467 100.746 61.9043 101.061 61.9682C101.376 62.0321 101.702 61.9993 101.999 61.874C102.295 61.7487 102.548 61.5366 102.727 61.2644C102.905 60.9922 103 60.6722 103 60.3448C103 59.906 102.828 59.4853 102.524 59.175C102.22 58.8647 101.808 58.6902 101.378 58.6897ZM101.378 61.1724C101.217 61.1724 101.06 61.1239 100.927 61.0329C100.794 60.942 100.69 60.8128 100.628 60.6615C100.567 60.5103 100.551 60.3439 100.582 60.1834C100.613 60.0228 100.691 59.8754 100.804 59.7596C100.918 59.6439 101.062 59.5651 101.219 59.5331C101.377 59.5012 101.54 59.5176 101.688 59.5802C101.836 59.6429 101.963 59.749 102.052 59.8851C102.141 60.0211 102.189 60.1811 102.189 60.3448C102.189 60.5643 102.103 60.7746 101.951 60.9298C101.799 61.0849 101.593 61.1722 101.378 61.1724ZM8.24462 42.8961C8.24462 42.5687 8.14948 42.2487 7.97122 41.9765C7.79295 41.7043 7.53958 41.4922 7.24314 41.3669C6.9467 41.2416 6.62051 41.2089 6.30581 41.2727C5.99112 41.3366 5.70205 41.4942 5.47516 41.7257C5.24828 41.9572 5.09377 42.2521 5.03117 42.5732C4.96858 42.8943 5.0007 43.2271 5.12349 43.5295C5.24628 43.8319 5.45422 44.0905 5.721 44.2723C5.98779 44.4542 6.30145 44.5513 6.62231 44.5513C7.05243 44.5508 7.46478 44.3762 7.76892 44.0659C8.07305 43.7556 8.24413 43.3349 8.24462 42.8961ZM5.81116 42.8961C5.81116 42.7324 5.85873 42.5724 5.94786 42.4363C6.03699 42.3002 6.16368 42.1941 6.3119 42.1315C6.46012 42.0689 6.62321 42.0525 6.78056 42.0844C6.93791 42.1163 7.08244 42.1952 7.19589 42.3109C7.30933 42.4266 7.38658 42.5741 7.41788 42.7346C7.44918 42.8952 7.43311 43.0616 7.37172 43.2128C7.31033 43.364 7.20636 43.4933 7.07296 43.5842C6.93957 43.6751 6.78274 43.7237 6.62231 43.7237C6.40725 43.7235 6.20105 43.6362 6.04898 43.481C5.8969 43.3259 5.81137 43.1155 5.81116 42.8961Z" fill="#182F43"/>
<path d="M13.5338 70.9629L12.0325 70.7664L11.75 70.7294V71.0142V71.9858V72.2704L12.0322 72.2337L13.5436 72.0371L12.5481 73.3327L12.3822 73.5485L12.6114 73.6955L13.4144 74.2104L13.6574 74.3663L13.7769 74.1035L14.4714 72.5771L15.1079 74.0827L15.2182 74.3437L15.4634 74.2017L16.3511 73.6877L16.6007 73.5431L16.4221 73.3165L15.4205 72.0463L16.9699 72.2339L17.25 72.2679V71.9858V71.0142V70.7285L16.9668 70.7665L15.4077 70.9753L16.4123 69.6357L16.5818 69.4097L16.3368 69.269L15.4915 68.7832L15.248 68.6433L15.1372 68.9013L14.4913 70.4053L13.8358 68.9132L13.7233 68.6569L13.4813 68.7976L12.6207 69.2979L12.3761 69.4401L12.5473 69.6654L13.5338 70.9629Z" fill="#FFC100" stroke="#182F43" stroke-width="0.5"/>
<path d="M96.97 34.2331L97.25 34.2669V33.9849V33.0141V32.7283L96.9667 32.7664L95.4074 32.9759L96.4125 31.6359L96.582 31.4099L96.3371 31.2691L95.4919 30.7833L95.2485 30.6433L95.1376 30.9013L94.4912 32.4056L93.8359 30.9134L93.7233 30.6571L93.4813 30.7979L92.6204 31.2986L92.3759 31.4409L92.5472 31.6661L93.5338 32.9633L92.0325 32.7663L91.75 32.7292V33.0141V33.9849V34.2695L92.0322 34.2328L93.5443 34.0364L92.5479 35.333L92.382 35.5488L92.6112 35.6958L93.4143 36.2105L93.6572 36.3662L93.7767 36.1035L94.4714 34.5768L95.1076 36.0824L95.2179 36.3433L95.4631 36.2015L96.3515 35.6877L96.6015 35.5432L96.4226 35.3165L95.42 34.0459L96.97 34.2331Z" fill="#FFC100" stroke="#182F43" stroke-width="0.5"/>
<path d="M60.4836 13.9013L59.4887 16.218L58.4783 13.919L58.3657 13.6628L58.1237 13.8035L56.9186 14.5044L56.6741 14.6467L56.8453 14.8718L58.3705 16.8782L56.0324 16.5724L55.75 16.5354V16.8202V18.1798V18.4645L56.0323 18.4277L58.3875 18.1204L56.846 20.1272L56.6801 20.3431L56.9094 20.49L58.0341 21.2105L58.2771 21.3662L58.3965 21.1035L59.4634 18.7577L60.4444 21.0763L60.5547 21.3371L60.7998 21.1952L62.0422 20.4762L62.292 20.3316L62.1133 20.105L60.5598 18.1356L62.9699 18.4279L63.25 18.4619V18.1798V16.8202V16.5345L62.9668 16.5725L60.5484 16.8965L62.0977 14.8297L62.2672 14.6036L62.0221 14.4629L60.8378 13.7832L60.5944 13.6435L60.4836 13.9013Z" fill="#FFC100" stroke="#182F43" stroke-width="0.5"/>
</svg>
