<svg width="105" height="105" viewBox="0 0 105 105" fill="none" xmlns="http://www.w3.org/2000/svg">
<g clip-path="url(#clip0_151_855)">
<path d="M1.25 94.3291C1.94036 94.3291 2.5 93.7695 2.5 93.0791C2.5 92.3887 1.94036 91.8291 1.25 91.8291C0.559644 91.8291 0 92.3887 0 93.0791C0 93.7695 0.559644 94.3291 1.25 94.3291Z" fill="#182F43"/>
<path d="M6.87451 91.8291H4.99951C4.66799 91.8291 4.35005 91.9608 4.11563 92.1952C3.88121 92.4296 3.74951 92.7476 3.74951 93.0791C3.74951 93.4106 3.88121 93.7286 4.11563 93.963C4.35005 94.1974 4.66799 94.3291 4.99951 94.3291H6.87451C7.20603 94.3291 7.52397 94.1974 7.75839 93.963C7.99282 93.7286 8.12451 93.4106 8.12451 93.0791C8.12451 92.7476 7.99282 92.4296 7.75839 92.1952C7.52397 91.9608 7.20603 91.8291 6.87451 91.8291ZM99.9995 91.8291H98.1245C97.793 91.8291 97.475 91.9608 97.2406 92.1952C97.0062 92.4296 96.8745 92.7476 96.8745 93.0791C96.8745 93.4106 97.0062 93.7286 97.2406 93.963C97.475 94.1974 97.793 94.3291 98.1245 94.3291H99.9995C100.331 94.3291 100.649 94.1974 100.883 93.963C101.118 93.7286 101.25 93.4106 101.25 93.0791C101.25 92.7476 101.118 92.4296 100.883 92.1952C100.649 91.9608 100.331 91.8291 99.9995 91.8291Z" fill="#182F43"/>
<path d="M103.75 94.3291C104.44 94.3291 105 93.7695 105 93.0791C105 92.3887 104.44 91.8291 103.75 91.8291C103.06 91.8291 102.5 92.3887 102.5 93.0791C102.5 93.7695 103.06 94.3291 103.75 94.3291Z" fill="#182F43"/>
<path d="M73.8457 96.8291H68.6534C68.3391 96.8543 68.0459 96.9969 67.8321 97.2285C67.6183 97.4602 67.4995 97.7639 67.4995 98.0791C67.4995 98.3943 67.6183 98.698 67.8321 98.9297C68.0459 99.1613 68.3391 99.3039 68.6534 99.3291H73.8457C74.1599 99.3039 74.4532 99.1613 74.667 98.9297C74.8808 98.698 74.9996 98.3943 74.9996 98.0791C74.9996 97.7639 74.8808 97.4602 74.667 97.2285C74.4532 96.9969 74.1599 96.8543 73.8457 96.8291ZM36.3457 96.8291H31.1534C30.8391 96.8543 30.5459 96.9969 30.3321 97.2285C30.1182 97.4602 29.9995 97.7639 29.9995 98.0791C29.9995 98.3943 30.1182 98.698 30.3321 98.9297C30.5459 99.1613 30.8391 99.3039 31.1534 99.3291H36.3457C36.6599 99.3039 36.9532 99.1613 37.167 98.9297C37.3808 98.698 37.4995 98.3943 37.4995 98.0791C37.4995 97.7639 37.3808 97.4602 37.167 97.2285C36.9532 96.9969 36.6599 96.8543 36.3457 96.8291ZM64.9995 96.8291H39.9995C39.668 96.8291 39.3501 96.9608 39.1156 97.1952C38.8812 97.4296 38.7495 97.7476 38.7495 98.0791C38.7495 98.4106 38.8812 98.7286 39.1156 98.963C39.3501 99.1974 39.668 99.3291 39.9995 99.3291H49.962V100.579H44.9995C44.668 100.579 44.3501 100.711 44.1156 100.945C43.8812 101.18 43.7495 101.498 43.7495 101.829C43.7495 102.161 43.8812 102.479 44.1156 102.713C44.3501 102.947 44.668 103.079 44.9995 103.079H60.6245C60.9561 103.079 61.274 102.947 61.5084 102.713C61.7428 102.479 61.8745 102.161 61.8745 101.829C61.8745 101.498 61.7428 101.18 61.5084 100.945C61.274 100.711 60.9561 100.579 60.6245 100.579H55.037V99.3291H64.9995C65.3311 99.3291 65.649 99.1974 65.8834 98.963C66.1178 98.7286 66.2495 98.4106 66.2495 98.0791C66.2495 97.7476 66.1178 97.4296 65.8834 97.1952C65.649 96.9608 65.3311 96.8291 64.9995 96.8291Z" fill="#FFC100" stroke="#182F43"/>
<path d="M40.0005 23.0791C40.8658 23.0791 41.7116 22.8225 42.4311 22.3418C43.1506 21.8611 43.7113 21.1778 44.0425 20.3783C44.3736 19.5789 44.4602 18.6992 44.2914 17.8506C44.1226 17.0019 43.7059 16.2224 43.0941 15.6105C42.4822 14.9987 41.7027 14.582 40.854 14.4132C40.0053 14.2444 39.1257 14.331 38.3262 14.6621C37.5268 14.9933 36.8435 15.554 36.3628 16.2735C35.8821 16.9929 35.6255 17.8388 35.6255 18.7041C35.6268 19.864 36.0881 20.9761 36.9083 21.7963C37.7285 22.6164 38.8406 23.0778 40.0005 23.0791ZM40.0005 16.8291C40.3713 16.8291 40.7338 16.9391 41.0422 17.1451C41.3505 17.3511 41.5908 17.644 41.7328 17.9866C41.8747 18.3292 41.9118 18.7062 41.8395 19.0699C41.7671 19.4336 41.5885 19.7677 41.3263 20.0299C41.0641 20.2922 40.73 20.4707 40.3663 20.5431C40.0026 20.6154 39.6256 20.5783 39.283 20.4364C38.9403 20.2945 38.6475 20.0541 38.4415 19.7458C38.2355 19.4375 38.1255 19.0749 38.1255 18.7041C38.126 18.207 38.3237 17.7304 38.6753 17.3789C39.0268 17.0274 39.5034 16.8296 40.0005 16.8291Z" fill="#182F43"/>
<path d="M32.292 30.9951C32.6235 30.9951 32.9414 30.8634 33.1759 30.629C33.4103 30.3946 33.542 30.0766 33.542 29.7451V24.7451C33.542 24.4136 33.4103 24.0957 33.1759 23.8612C32.9415 23.6268 32.6235 23.4951 32.292 23.4951C31.9605 23.4951 31.6425 23.6268 31.4081 23.8612C31.1737 24.0957 31.042 24.4136 31.042 24.7451V29.7451C31.042 30.0766 31.1737 30.3946 31.4081 30.629C31.6425 30.8634 31.9605 30.9951 32.292 30.9951Z" fill="#FFC100" stroke="#182F43"/>
<path d="M94.2005 91.8291H58.4693L57.8505 90.3604L68.2443 84.8041C68.4141 84.7144 68.5608 84.5864 68.6725 84.4302C68.7843 84.274 68.8581 84.0938 68.888 83.9041C68.9191 83.7139 68.906 83.5192 68.8496 83.3349C68.7933 83.1506 68.6952 82.9818 68.563 82.8416L61.3068 75.1854L68.6942 59.5979L76.4255 67.3979C76.5488 67.5227 76.6971 67.6201 76.8607 67.6837C77.0242 67.7472 77.1994 67.7755 77.3746 67.7667C77.5499 67.7578 77.7213 67.712 77.8776 67.6323C78.034 67.5526 78.1717 67.4408 78.2818 67.3041L82.2443 62.4541H91.2505C91.582 62.4541 91.9 62.3224 92.1344 62.088C92.3688 61.8536 92.5005 61.5356 92.5005 61.2041C92.5005 60.8726 92.3688 60.5546 92.1344 60.3202C91.9 60.0858 91.582 59.9541 91.2505 59.9541H86.8755V53.7041H84.3755V59.9541H81.6505C81.4648 59.954 81.2814 59.9956 81.1137 60.0756C80.9461 60.1556 80.7985 60.2721 80.6818 60.4166L77.2255 64.6479L69.2193 56.5729C69.0776 56.4309 68.9039 56.325 68.7128 56.2641C68.5217 56.2031 68.3187 56.1889 68.121 56.2225C67.9232 56.2562 67.7365 56.3368 67.5763 56.4576C67.4161 56.5783 67.2873 56.7358 67.2005 56.9166L58.6818 74.8854C58.5744 75.1143 58.5384 75.3703 58.5786 75.62C58.6187 75.8697 58.7331 76.1016 58.9068 76.2854L65.6193 83.3729L55.663 88.6979C55.3863 88.8427 55.1745 89.0868 55.0702 89.3812C54.9658 89.6756 54.9767 89.9986 55.1005 90.2854L55.7568 91.8291H49.2443L49.9005 90.2854C50.0244 89.9986 50.0352 89.6756 49.9309 89.3812C49.8266 89.0868 49.6148 88.8427 49.338 88.6979L39.3818 83.3729L46.0943 76.2854C46.268 76.1016 46.3824 75.8697 46.4225 75.62C46.4626 75.3703 46.4267 75.1143 46.3193 74.8854L37.8005 56.9166C37.7138 56.7358 37.5849 56.5783 37.4247 56.4576C37.2646 56.3368 37.0778 56.2562 36.8801 56.2225C36.6823 56.1889 36.4794 56.2031 36.2883 56.2641C36.0972 56.325 35.9235 56.4309 35.7818 56.5729L27.7755 64.6479L24.3193 60.4166C24.2025 60.2721 24.0549 60.1556 23.8873 60.0756C23.7197 59.9956 23.5363 59.954 23.3505 59.9541H21.2505V53.7041H18.7505V59.9541H13.7505C13.419 59.9541 13.1011 60.0858 12.8666 60.3202C12.6322 60.5546 12.5005 60.8726 12.5005 61.2041C12.5005 61.5356 12.6322 61.8536 12.8666 62.088C13.1011 62.3224 13.419 62.4541 13.7505 62.4541H22.7568L26.7193 67.3041C26.8294 67.4408 26.9671 67.5526 27.1234 67.6323C27.2797 67.712 27.4512 67.7578 27.6264 67.7667C27.8017 67.7755 27.9768 67.7472 28.1404 67.6837C28.3039 67.6201 28.4522 67.5227 28.5755 67.3979L36.3068 59.5978L43.6942 75.1853L36.438 82.8416C36.3058 82.9818 36.2078 83.1506 36.1514 83.3349C36.095 83.5192 36.0819 83.7139 36.113 83.9041C36.143 84.0938 36.2168 84.274 36.3285 84.4302C36.4402 84.5864 36.5869 84.7144 36.7567 84.8041L47.1505 90.3604L46.5317 91.8291H10.8005C10.6226 91.8057 10.4418 91.8206 10.2701 91.8727C10.0984 91.9248 9.93976 92.013 9.80486 92.1313C9.66997 92.2496 9.56188 92.3954 9.48784 92.5588C9.41379 92.7223 9.37549 92.8997 9.37549 93.0791C9.37549 93.2585 9.41379 93.4359 9.48784 93.5994C9.56188 93.7628 9.66997 93.9086 9.80486 94.0269C9.93976 94.1452 10.0984 94.2334 10.2701 94.2855C10.4418 94.3376 10.6226 94.3525 10.8005 94.3291H94.2005C94.3784 94.3525 94.5593 94.3376 94.731 94.2855C94.9027 94.2334 95.0613 94.1452 95.1962 94.0269C95.3311 93.9086 95.4392 93.7628 95.5132 93.5994C95.5873 93.4359 95.6256 93.2585 95.6256 93.0791C95.6256 92.8997 95.5873 92.7223 95.5132 92.5588C95.4392 92.3954 95.3311 92.2496 95.1962 92.1313C95.0613 92.013 94.9027 91.9248 94.731 91.8727C94.5593 91.8206 94.3784 91.8057 94.2005 91.8291V91.8291ZM86.8755 49.3291C86.8755 48.9976 86.7438 48.6796 86.5094 48.4452C86.275 48.2108 85.957 48.0791 85.6255 48.0791C85.294 48.0791 84.9761 48.2108 84.7416 48.4452C84.5072 48.6796 84.3755 48.9976 84.3755 49.3291V51.2041H86.8755V49.3291ZM30.3005 51.0854C30.4666 51.1638 30.6481 51.2044 30.8318 51.2041H30.838C31.0744 51.2034 31.3057 51.1355 31.505 51.0082C31.7042 50.8809 31.8631 50.6996 31.963 50.4854L35.3005 43.4041C35.3381 43.3175 35.3674 43.2275 35.388 43.1354L36.638 37.3166L39.688 41.9916V49.9541C39.688 50.2856 39.8197 50.6036 40.0541 50.838C40.2886 51.0724 40.6065 51.2041 40.938 51.2041C41.2695 51.2041 41.5875 51.0724 41.8219 50.838C42.0563 50.6036 42.188 50.2856 42.188 49.9541V41.6229C42.1891 41.3783 42.1173 41.139 41.9818 40.9354L37.2943 33.7479V26.9041L40.838 30.0541C41.0658 30.2601 41.3622 30.3738 41.6693 30.3729H46.6693C47.0008 30.3729 47.3187 30.2412 47.5532 30.0067C47.7876 29.7723 47.9193 29.4544 47.9193 29.1229C47.9193 28.7913 47.7876 28.4734 47.5532 28.239C47.3187 28.0045 47.0008 27.8729 46.6693 27.8729H42.1443L36.8755 23.1854C36.6952 23.0249 36.4723 22.9201 36.2337 22.8835C35.9951 22.847 35.7511 22.8803 35.531 22.9794C35.3109 23.0786 35.1243 23.2393 34.9935 23.4422C34.8628 23.6451 34.7936 23.8815 34.7943 24.1229V33.9854L32.9755 42.4666L29.7005 49.4228C29.6307 49.5714 29.5908 49.7322 29.5832 49.8962C29.5756 50.0602 29.6003 50.224 29.656 50.3784C29.7117 50.5328 29.7973 50.6747 29.9079 50.796C30.0185 50.9173 30.1519 51.0156 30.3005 51.0854ZM21.2505 49.3291C21.2505 48.9976 21.1188 48.6796 20.8844 48.4452C20.65 48.2108 20.332 48.0791 20.0005 48.0791C19.669 48.0791 19.3511 48.2108 19.1166 48.4452C18.8822 48.6796 18.7505 48.9976 18.7505 49.3291V51.2041H21.2505V49.3291Z" fill="#182F43"/>
<path d="M88.751 52.4541C88.75 52.7853 88.618 53.1027 88.3838 53.3369C88.1496 53.5711 87.8322 53.7031 87.501 53.7041H17.501C17.1695 53.7041 16.8515 53.5724 16.6171 53.338C16.3827 53.1036 16.251 52.7856 16.251 52.4541C16.251 52.1226 16.3827 51.8046 16.6171 51.5702C16.8515 51.3358 17.1695 51.2041 17.501 51.2041H87.501C87.8322 51.2051 88.1496 51.3371 88.3838 51.5713C88.618 51.8055 88.75 52.1229 88.751 52.4541Z" fill="#FFC100" stroke="#182F43"/>
<path d="M59.0957 41.8291C59.4665 41.8291 59.8291 41.7191 60.1374 41.5131C60.4457 41.3071 60.6861 41.0142 60.828 40.6716C60.9699 40.329 61.007 39.952 60.9347 39.5883C60.8623 39.2246 60.6838 38.8905 60.4215 38.6283C60.1593 38.3661 59.8252 38.1875 59.4615 38.1151C59.0978 38.0428 58.7208 38.0799 58.3782 38.2218C58.0356 38.3637 57.7427 38.6041 57.5367 38.9124C57.3307 39.2207 57.2207 39.5833 57.2207 39.9541C57.2213 40.4512 57.419 40.9278 57.7705 41.2793C58.122 41.6308 58.5986 41.8285 59.0957 41.8291ZM59.0957 39.0166C59.2811 39.0166 59.4624 39.0716 59.6166 39.1746C59.7707 39.2776 59.8909 39.424 59.9618 39.5953C60.0328 39.7666 60.0514 39.9551 60.0152 40.137C59.979 40.3189 59.8897 40.4859 59.7586 40.617C59.6275 40.7481 59.4605 40.8374 59.2786 40.8736C59.0967 40.9098 58.9082 40.8912 58.7369 40.8202C58.5656 40.7493 58.4192 40.6291 58.3162 40.4749C58.2132 40.3208 58.1582 40.1395 58.1582 39.9541C58.1585 39.7055 58.2573 39.4672 58.4331 39.2915C58.6088 39.1157 58.8471 39.0168 59.0957 39.0166ZM101.405 22.2979C101.158 22.2979 100.916 22.3712 100.711 22.5085C100.505 22.6459 100.345 22.8411 100.25 23.0695C100.156 23.2979 100.131 23.5492 100.179 23.7917C100.228 24.0342 100.347 24.2569 100.521 24.4317C100.696 24.6066 100.919 24.7256 101.161 24.7738C101.404 24.8221 101.655 24.7973 101.884 24.7027C102.112 24.6081 102.307 24.4479 102.445 24.2423C102.582 24.0368 102.655 23.7951 102.655 23.5479C102.655 23.2164 102.523 22.8987 102.289 22.6644C102.054 22.43 101.737 22.2982 101.405 22.2979ZM101.405 24.1729C101.282 24.1729 101.161 24.1362 101.058 24.0675C100.955 23.9988 100.875 23.9012 100.828 23.787C100.781 23.6728 100.768 23.5472 100.792 23.4259C100.816 23.3047 100.876 23.1933 100.963 23.1059C101.051 23.0185 101.162 22.959 101.283 22.9349C101.405 22.9107 101.53 22.9231 101.644 22.9704C101.759 23.0177 101.856 23.0978 101.925 23.2006C101.994 23.3034 102.03 23.4242 102.03 23.5479C102.03 23.7136 101.964 23.8724 101.847 23.9896C101.73 24.1068 101.571 24.1727 101.405 24.1729ZM68.749 14.4854C68.5018 14.4854 68.2601 14.5587 68.0546 14.696C67.849 14.8334 67.6888 15.0286 67.5942 15.257C67.4996 15.4854 67.4748 15.7367 67.523 15.9792C67.5713 16.2217 67.6903 16.4444 67.8651 16.6192C68.0399 16.7941 68.2627 16.9131 68.5051 16.9613C68.7476 17.0096 68.999 16.9848 69.2274 16.8902C69.4558 16.7956 69.651 16.6354 69.7884 16.4298C69.9257 16.2243 69.999 15.9826 69.999 15.7354C69.9986 15.4039 69.8668 15.0862 69.6325 14.8519C69.3981 14.6175 69.0804 14.4857 68.749 14.4854ZM68.749 16.3604C68.6254 16.3604 68.5046 16.3237 68.4018 16.255C68.299 16.1863 68.2189 16.0887 68.1716 15.9745C68.1243 15.8603 68.1119 15.7347 68.136 15.6134C68.1601 15.4922 68.2197 15.3808 68.3071 15.2934C68.3945 15.206 68.5058 15.1465 68.6271 15.1224C68.7483 15.0982 68.874 15.1106 68.9882 15.1579C69.1024 15.2052 69.2 15.2853 69.2687 15.3881C69.3374 15.4909 69.374 15.6117 69.374 15.7354C69.3738 15.9011 69.3079 16.0599 69.1908 16.1771C69.0736 16.2943 68.9147 16.3602 68.749 16.3604ZM87.6895 3.86035C87.4422 3.86035 87.2006 3.93366 86.995 4.07101C86.7894 4.20837 86.6292 4.40359 86.5346 4.632C86.44 4.86041 86.4152 5.11174 86.4635 5.35421C86.5117 5.59669 86.6308 5.81942 86.8056 5.99424C86.9804 6.16905 87.2031 6.2881 87.4456 6.33633C87.6881 6.38457 87.9394 6.35981 88.1678 6.2652C88.3962 6.17059 88.5914 6.01038 88.7288 5.80481C88.8661 5.59925 88.9395 5.35758 88.9395 5.11035C88.9391 4.77895 88.8073 4.46122 88.5729 4.22689C88.3386 3.99255 88.0209 3.86073 87.6895 3.86035ZM87.6895 5.73535C87.5658 5.73535 87.445 5.6987 87.3422 5.63002C87.2394 5.56134 87.1593 5.46373 87.112 5.34953C87.0647 5.23532 87.0524 5.10966 87.0765 4.98842C87.1006 4.86718 87.1601 4.75582 87.2475 4.66841C87.3349 4.581 87.4463 4.52148 87.5675 4.49736C87.6888 4.47325 87.8144 4.48562 87.9286 4.53293C88.0428 4.58023 88.1405 4.66034 88.2091 4.76312C88.2778 4.8659 88.3145 4.98674 88.3145 5.11035C88.3143 5.27606 88.2484 5.43494 88.1312 5.55211C88.014 5.66928 87.8552 5.73519 87.6895 5.73535ZM24.5645 28.8604C24.5645 28.6131 24.4911 28.3715 24.3538 28.1659C24.2164 27.9603 24.0212 27.8001 23.7928 27.7055C23.5644 27.6109 23.3131 27.5861 23.0706 27.6344C22.8281 27.6826 22.6054 27.8017 22.4306 27.9765C22.2558 28.1513 22.1367 28.374 22.0885 28.6165C22.0402 28.859 22.065 29.1103 22.1596 29.3387C22.2542 29.5671 22.4144 29.7623 22.62 29.8997C22.8256 30.037 23.0672 30.1104 23.3145 30.1104C23.6459 30.11 23.9636 29.9782 24.1979 29.7438C24.4323 29.5095 24.5641 29.1918 24.5645 28.8604ZM22.6895 28.8604C22.6895 28.7367 22.7261 28.6159 22.7948 28.5131C22.8635 28.4103 22.9611 28.3302 23.0753 28.2829C23.1895 28.2356 23.3151 28.2232 23.4364 28.2474C23.5576 28.2715 23.669 28.331 23.7564 28.4184C23.8438 28.5058 23.9033 28.6172 23.9274 28.7384C23.9516 28.8597 23.9392 28.9853 23.8919 29.0995C23.8446 29.2137 23.7645 29.3113 23.6617 29.38C23.5589 29.4487 23.4381 29.4854 23.3145 29.4854C23.1487 29.4852 22.9899 29.4193 22.8727 29.3021C22.7555 29.1849 22.6896 29.0261 22.6895 28.8604Z" fill="#182F43"/>
<path d="M6.80471 42.4613L7.73408 41.2388L7.14721 40.9062L6.55033 42.275H6.53096L5.92471 40.9163L5.32783 41.2581L6.24721 42.4513V42.4713L4.80908 42.285V42.95L6.25658 42.7644V42.7838L5.32783 43.9769L5.88471 44.3288L6.52096 42.95H6.54033L7.12721 44.3194L7.74346 43.9669L6.80471 42.7938V42.7738L8.28096 42.95V42.285L6.80471 42.4806V42.4613Z" fill="#FFC100"/>
<path d="M7.3943 9.99531L6.8593 10.6822L7.18055 10.8853L7.5468 10.0909H7.55742L7.89555 10.8797L8.25055 10.6766L7.70992 10.0009V9.98969L8.55992 10.0909V9.70781L7.70992 9.82094V9.80969L8.24492 9.10531L7.90742 8.91406L7.56367 9.70219H7.55242L7.20305 8.91969L6.8593 9.11656L7.38867 9.80406V9.81531L6.56055 9.70781V10.0909L7.3943 9.98406V9.99531Z" fill="#FFC100"/>
<path d="M87.8308 35.5519V34.8994L86.3833 35.0912V35.0719L87.2945 33.8731L86.7189 33.5469L86.1339 34.89H86.1145L85.5202 33.5563L84.9345 33.8925L85.8364 35.0625V35.0819L84.4258 34.8994V35.5519L85.8458 35.3694V35.3887L84.9345 36.5587L85.4808 36.9044L86.1052 35.5519H86.1239L86.6995 36.8944L87.3039 36.5494L86.3833 35.3981V35.3787L87.8308 35.5519Z" fill="#FFC100"/>
<path d="M48.5123 3.2359L49.2986 2.20215L48.8017 1.9209L48.2973 3.0784H48.2805L47.768 1.92902L47.2623 2.2184L48.0405 3.22777V3.24465L46.8242 3.08715V3.64965L48.0486 3.49277V3.50902L47.2623 4.5184L47.7342 4.81652L48.2723 3.64965H48.2886L48.7848 4.80777L49.3067 4.51027L48.5123 3.51715V3.5009L49.7611 3.64965V3.08715L48.5123 3.25277V3.2359Z" fill="#FFC100"/>
</g>
<defs>
<clipPath id="clip0_151_855">
<rect width="105" height="105" fill="white"/>
</clipPath>
</defs>
</svg>
