<svg width="105" height="105" viewBox="0 0 105 105" fill="none" xmlns="http://www.w3.org/2000/svg">
<g clip-path="url(#clip0_358_1922)">
<path d="M73.8462 96.25H68.6538C68.3396 96.2752 68.0464 96.4178 67.8326 96.6494C67.6187 96.8811 67.5 97.1848 67.5 97.5C67.5 97.8152 67.6187 98.1189 67.8326 98.3506C68.0464 98.5822 68.3396 98.7248 68.6538 98.75H73.8462C74.1604 98.7248 74.4536 98.5822 74.6675 98.3506C74.8813 98.1189 75 97.8152 75 97.5C75 97.1848 74.8813 96.8811 74.6675 96.6494C74.4536 96.4178 74.1604 96.2752 73.8462 96.25ZM36.3462 96.25H31.1538C30.8396 96.2752 30.5464 96.4178 30.3326 96.6494C30.1187 96.8811 30 97.1848 30 97.5C30 97.8152 30.1187 98.1189 30.3326 98.3506C30.5464 98.5822 30.8396 98.7248 31.1538 98.75H36.3462C36.6604 98.7248 36.9536 98.5822 37.1675 98.3506C37.3813 98.1189 37.5 97.8152 37.5 97.5C37.5 97.1848 37.3813 96.8811 37.1675 96.6494C36.9536 96.4178 36.6604 96.2752 36.3462 96.25ZM65 96.25H40C39.6685 96.25 39.3506 96.3817 39.1161 96.6161C38.8817 96.8505 38.75 97.1685 38.75 97.5C38.75 97.8315 38.8817 98.1495 39.1161 98.3839C39.3506 98.6183 39.6685 98.75 40 98.75H49.9625V100H45C44.6685 100 44.3506 100.132 44.1161 100.366C43.8817 100.601 43.75 100.918 43.75 101.25C43.75 101.582 43.8817 101.899 44.1161 102.134C44.3506 102.368 44.6685 102.5 45 102.5H60.625C60.9565 102.5 61.2745 102.368 61.5089 102.134C61.7433 101.899 61.875 101.582 61.875 101.25C61.875 100.918 61.7433 100.601 61.5089 100.366C61.2745 100.132 60.9565 100 60.625 100H55.0375V98.75H65C65.3315 98.75 65.6495 98.6183 65.8839 98.3839C66.1183 98.1495 66.25 97.8315 66.25 97.5C66.25 97.1685 66.1183 96.8505 65.8839 96.6161C65.6495 96.3817 65.3315 96.25 65 96.25Z" fill="#FFC100" stroke="#182F43"/>
<path d="M103.75 93.75C104.44 93.75 105 93.1904 105 92.5C105 91.8096 104.44 91.25 103.75 91.25C103.06 91.25 102.5 91.8096 102.5 92.5C102.5 93.1904 103.06 93.75 103.75 93.75Z" fill="#182F43"/>
<path d="M1.25 93.75C1.94036 93.75 2.5 93.1904 2.5 92.5C2.5 91.8096 1.94036 91.25 1.25 91.25C0.559644 91.25 0 91.8096 0 92.5C0 93.1904 0.559644 93.75 1.25 93.75Z" fill="#182F43"/>
<path d="M6.875 91.25H5C4.66848 91.25 4.35054 91.3817 4.11612 91.6161C3.8817 91.8505 3.75 92.1685 3.75 92.5C3.75 92.8315 3.8817 93.1495 4.11612 93.3839C4.35054 93.6183 4.66848 93.75 5 93.75H6.875C7.20652 93.75 7.52446 93.6183 7.75888 93.3839C7.9933 93.1495 8.125 92.8315 8.125 92.5C8.125 92.1685 7.9933 91.8505 7.75888 91.6161C7.52446 91.3817 7.20652 91.25 6.875 91.25ZM100 91.25H98.125C97.7935 91.25 97.4755 91.3817 97.2411 91.6161C97.0067 91.8505 96.875 92.1685 96.875 92.5C96.875 92.8315 97.0067 93.1495 97.2411 93.3839C97.4755 93.6183 97.7935 93.75 98.125 93.75H100C100.332 93.75 100.649 93.6183 100.884 93.3839C101.118 93.1495 101.25 92.8315 101.25 92.5C101.25 92.1685 101.118 91.8505 100.884 91.6161C100.649 91.3817 100.332 91.25 100 91.25Z" fill="#182F43"/>
<path d="M13.4375 54.0952C13.7777 53.9476 14.0665 53.7024 14.2674 53.3907C14.4683 53.079 14.5723 52.7147 14.5662 52.3439C14.56 51.9732 14.4441 51.6125 14.233 51.3076C14.0218 51.0027 13.7251 50.7673 13.3802 50.6311C13.0352 50.4948 12.6577 50.464 12.2952 50.5423C11.9327 50.6207 11.6016 50.8048 11.3438 51.0713C11.086 51.3378 10.9129 51.6748 10.8466 52.0397C10.7803 52.4046 10.8237 52.7809 10.9713 53.1211C11.1696 53.5769 11.5406 53.9355 12.003 54.1181C12.4653 54.3007 12.9812 54.2924 13.4375 54.0952ZM12.3183 51.5149C12.4884 51.4411 12.6766 51.4194 12.859 51.4526C13.0415 51.4858 13.21 51.5723 13.3432 51.7012C13.4765 51.8301 13.5685 51.9957 13.6077 52.1769C13.6469 52.3581 13.6315 52.5469 13.5634 52.7194C13.4952 52.8918 13.3775 53.0402 13.2251 53.1458C13.0726 53.2513 12.8923 53.3093 12.7069 53.3124C12.5215 53.3154 12.3394 53.2635 12.1835 53.163C12.0277 53.0626 11.9051 52.9182 11.8313 52.7481C11.7326 52.5199 11.7285 52.262 11.8198 52.0308C11.9111 51.7996 12.0904 51.6141 12.3183 51.5149ZM99.5664 56.75C99.3192 56.75 99.0775 56.8233 98.8719 56.9607C98.6664 57.098 98.5062 57.2932 98.4116 57.5216C98.3169 57.7501 98.2922 58.0014 98.3404 58.2439C98.3886 58.4863 98.5077 58.7091 98.6825 58.8839C98.8573 59.0587 99.0801 59.1777 99.3225 59.226C99.565 59.2742 99.8163 59.2495 100.045 59.1548C100.273 59.0602 100.468 58.9 100.606 58.6945C100.743 58.4889 100.816 58.2472 100.816 58C100.816 57.6686 100.684 57.3509 100.45 57.1165C100.216 56.8822 99.8978 56.7504 99.5664 56.75ZM99.5664 58.625C99.4428 58.625 99.322 58.5883 99.2192 58.5197C99.1164 58.451 99.0363 58.3534 98.989 58.2392C98.9417 58.125 98.9293 57.9993 98.9534 57.8781C98.9775 57.7568 99.037 57.6455 99.1245 57.5581C99.2119 57.4707 99.3232 57.4111 99.4445 57.387C99.5657 57.3629 99.6914 57.3753 99.8056 57.4226C99.9198 57.4699 100.017 57.55 100.086 57.6528C100.155 57.7555 100.191 57.8764 100.191 58C100.191 58.1657 100.125 58.3246 100.008 58.4418C99.891 58.5589 99.7321 58.6248 99.5664 58.625ZM80.1914 46.125C79.9442 46.125 79.7025 46.1983 79.4969 46.3357C79.2914 46.473 79.1312 46.6682 79.0365 46.8966C78.9419 47.1251 78.9172 47.3764 78.9654 47.6189C79.0136 47.8613 79.1327 48.0841 79.3075 48.2589C79.4823 48.4337 79.7051 48.5527 79.9475 48.601C80.19 48.6492 80.4413 48.6245 80.6698 48.5298C80.8982 48.4352 81.0934 48.275 81.2307 48.0695C81.3681 47.8639 81.4414 47.6222 81.4414 47.375C81.441 47.0436 81.3092 46.7259 81.0749 46.4915C80.8405 46.2572 80.5228 46.1254 80.1914 46.125ZM80.1914 48C80.0678 48 79.9469 47.9633 79.8442 47.8947C79.7414 47.826 79.6613 47.7284 79.614 47.6142C79.5667 47.5 79.5543 47.3743 79.5784 47.2531C79.6025 47.1318 79.662 47.0205 79.7495 46.9331C79.8369 46.8457 79.9482 46.7861 80.0695 46.762C80.1907 46.7379 80.3164 46.7503 80.4306 46.7976C80.5448 46.8449 80.6424 46.925 80.7111 47.0278C80.7797 47.1305 80.8164 47.2514 80.8164 47.375C80.8162 47.5407 80.7503 47.6996 80.6332 47.8168C80.516 47.9339 80.3571 47.9998 80.1914 48ZM98.9414 10.5C98.6942 10.5 98.4525 10.5733 98.2469 10.7107C98.0414 10.848 97.8812 11.0432 97.7866 11.2716C97.6919 11.5001 97.6672 11.7514 97.7154 11.9939C97.7636 12.2363 97.8827 12.4591 98.0575 12.6339C98.2323 12.8087 98.4551 12.9278 98.6975 12.976C98.94 13.0242 99.1913 12.9995 99.4198 12.9049C99.6482 12.8102 99.8434 12.65 99.9807 12.4445C100.118 12.2389 100.191 11.9972 100.191 11.75C100.191 11.4186 100.059 11.1009 99.8249 10.8665C99.5905 10.6322 99.2728 10.5004 98.9414 10.5ZM98.9414 12.375C98.8178 12.375 98.697 12.3383 98.5942 12.2697C98.4914 12.201 98.4113 12.1034 98.364 11.9892C98.3167 11.875 98.3043 11.7493 98.3284 11.6281C98.3525 11.5068 98.412 11.3955 98.4995 11.3081C98.5869 11.2207 98.6982 11.1611 98.8195 11.137C98.9407 11.1129 99.0664 11.1253 99.1806 11.1726C99.2948 11.2199 99.3924 11.3 99.4611 11.4028C99.5297 11.5055 99.5664 11.6264 99.5664 11.75C99.5662 11.9157 99.5003 12.0746 99.3832 12.1918C99.266 12.3089 99.1071 12.3748 98.9414 12.375ZM43.3164 9.25C43.3164 9.00277 43.2431 8.7611 43.1057 8.55554C42.9684 8.34998 42.7731 8.18976 42.5447 8.09515C42.3163 8.00054 42.065 7.97579 41.8225 8.02402C41.58 8.07225 41.3573 8.1913 41.1825 8.36612C41.0077 8.54093 40.8886 8.76366 40.8404 9.00614C40.7922 9.24861 40.8169 9.49995 40.9115 9.72836C41.0061 9.95676 41.1664 10.152 41.3719 10.2893C41.5775 10.4267 41.8192 10.5 42.0664 10.5C42.3978 10.4996 42.7155 10.3678 42.9499 10.1335C43.1842 9.89913 43.316 9.58141 43.3164 9.25ZM41.4414 9.25C41.4414 9.12639 41.478 9.00555 41.5467 8.90277C41.6154 8.79999 41.713 8.71988 41.8272 8.67258C41.9414 8.62527 42.0671 8.61289 42.1883 8.63701C42.3096 8.66113 42.4209 8.72065 42.5083 8.80806C42.5957 8.89547 42.6553 9.00683 42.6794 9.12807C42.7035 9.24931 42.6911 9.37497 42.6438 9.48918C42.5965 9.60338 42.5164 9.70099 42.4136 9.76967C42.3108 9.83835 42.19 9.875 42.0664 9.875C41.9007 9.87484 41.7418 9.80893 41.6246 9.69176C41.5075 9.57459 41.4416 9.41571 41.4414 9.25Z" fill="#182F43"/>
<path d="M24.9302 25.6325L25.8596 24.4106L25.2727 24.0781L24.6758 25.4469H24.6564L24.0502 24.0875L23.4533 24.43L24.3727 25.6231V25.6425L22.9346 25.4569V26.1219L24.3821 25.9363V25.9556L23.4533 27.1481L24.0102 27.5006L24.6464 26.1219H24.6658L25.2527 27.4906L25.8689 27.1388L24.9302 25.965V25.9456L26.4064 26.1219V25.4569L24.9302 25.6519V25.6325Z" fill="#FFC100"/>
<path d="M6.30055 10.6672L5.76555 11.3541L6.0868 11.5566L6.45305 10.7628H6.46367L6.8018 11.5509L7.1568 11.3484L6.61617 10.6722V10.6609L7.46617 10.7628V10.3797L6.61617 10.4922V10.4809L7.15117 9.77719L6.81367 9.58594L6.46992 10.3741H6.45867L6.1093 9.59094L5.76555 9.78844L6.29492 10.4753V10.4866L5.4668 10.3797V10.7628L6.30055 10.6559V10.6672Z" fill="#FFC100"/>
<path d="M88.3148 21.0708V20.4189L86.8667 20.6108V20.5914L87.7779 19.3927L87.2023 19.0664L86.6173 20.4089H86.5979L86.0035 19.0758L85.4179 19.412L86.3198 20.582V20.6014L84.9092 20.4189V21.0708L86.3292 20.8889V20.9083L85.4179 22.0783L85.9648 22.4239L86.5886 21.0708H86.6073L87.1829 22.4139L87.7873 22.0689L86.8667 20.9177V20.8983L88.3148 21.0708Z" fill="#FFC100"/>
<path d="M71.7154 9.7377L72.4879 8.69332L71.9879 8.41895L71.4985 9.58332H71.4816L70.9541 8.4402L70.4529 8.73645L71.2435 9.73582L71.2441 9.75269L70.0254 9.61082L70.0329 10.1733L71.2554 10.0008V10.0171L70.4829 11.0364L70.9579 11.3283L71.481 10.1546H71.4973L72.0085 11.3064L72.526 11.0014L71.7191 10.0189V10.0027L72.9698 10.1352L72.9623 9.5727L71.7154 9.75457V9.7377Z" fill="#FFC100"/>
<path d="M10 92.5H95" stroke="#182F43" stroke-width="2.5" stroke-linecap="round"/>
<path d="M4 92.5H7" stroke="#182F43" stroke-width="2.5" stroke-linecap="round"/>
<path d="M98 92.5H101" stroke="#182F43" stroke-width="2.5" stroke-linecap="round"/>
<path fill-rule="evenodd" clip-rule="evenodd" d="M44.1026 20.176C41.4732 20.765 39.3234 22.1743 37.8421 24.2801C35.3136 27.8743 35.4143 32.7641 38.0877 36.2069L38.3712 36.572C38.5946 36.8597 38.6339 37.2497 38.4725 37.5763C37.5775 39.3865 38.5608 41.6201 40.4887 42.1566L41.2753 42.3755L41.4941 43.1627C41.7969 44.2527 42.5916 45.048 43.6808 45.3511L44.4674 45.5701L44.6862 46.3572C44.9875 47.4417 45.7846 48.2428 46.8601 48.542L47.6338 48.7573L47.8671 49.5499C48.3092 51.051 50.4433 51.983 51.95 51.8043V53.4578V55.1112L42.2737 55.1486L32.5975 55.186L31.8516 55.1578C31.6908 55.1518 31.5295 55.1822 31.3894 55.2614C30.2992 55.8776 29.666 57.0216 29.1189 58.1294C28.6958 58.9859 28.6291 59.2583 28.5713 60.3618L28.529 61.1728C28.5154 61.4344 28.3245 61.6527 28.067 61.701C27.2002 61.8637 25.8108 62.6827 25.0534 63.4773C22.6424 66.0068 22.6182 69.7322 24.9964 72.2655C25.449 72.7477 25.6211 73.0158 25.5041 73.0565C25.4066 73.0905 24.8904 73.4103 24.3569 73.7674C22.5244 74.994 21.1562 76.7927 20.4685 78.8788C20.1408 79.8734 20.1137 80.1435 20.0588 82.9718L20.0586 85.5C20.0586 86.0523 20.5063 86.5 21.0586 86.5H29.6048H38.1813C38.7336 86.5 39.1813 86.0523 39.1813 85.5V83.4827C39.1813 80.7106 39.0212 79.5292 38.4572 78.1384C37.7523 76.4001 36.4282 74.7985 34.8252 73.7448C34.2946 73.3961 33.7859 73.0847 33.6946 73.0528C33.5928 73.0173 33.7935 72.7126 34.2132 72.2655C36.5914 69.7322 36.5672 66.0068 34.1562 63.4773C33.393 62.6765 32.0081 61.8634 31.1251 61.6977C30.8605 61.648 30.6689 61.4169 30.6689 61.1478V60.8104C30.6689 60.3694 30.7416 59.7622 30.8306 59.4608C31.0465 58.7297 32.1483 57.627 32.8789 57.411C33.2858 57.2907 35.8052 57.2492 42.6882 57.2492H51.95V59.4306V61.1478C51.95 61.4169 51.7583 61.648 51.4938 61.6977C50.6108 61.8634 49.2259 62.6765 48.4627 63.4773C46.0517 66.0068 46.0275 69.7322 48.4056 72.2655C48.8583 72.7477 49.0304 73.0158 48.9133 73.0565C48.8158 73.0905 48.2996 73.4103 47.7661 73.7674C45.9337 74.994 44.5655 76.7927 43.8778 78.8788C43.5501 79.8734 43.5229 80.1435 43.468 82.9718L43.4909 85.509C43.4958 86.0578 43.9421 86.5 44.4909 86.5H53.0141H61.5295C62.07 86.5 62.5128 86.0704 62.529 85.5301L62.5906 83.4827C62.5906 80.7106 62.4304 79.5292 61.8665 78.1384C61.1616 76.4001 59.8375 74.7985 58.2345 73.7448C57.7039 73.3961 57.1951 73.0847 57.1039 73.0528C57.002 73.0173 57.2027 72.7126 57.6225 72.2655C60.0007 69.7322 59.9765 66.0068 57.5654 63.4773C56.8022 62.6765 55.4174 61.8634 54.5343 61.6977C54.2698 61.648 54.0781 61.4169 54.0781 61.1478V59.4306V57.2492H63.3399C70.2229 57.2492 72.7423 57.2907 73.1492 57.411C73.8798 57.627 74.9817 58.7297 75.1975 59.4608C75.2865 59.7622 75.3593 60.3694 75.3593 60.8104V61.1478C75.3593 61.4169 75.1676 61.648 74.903 61.6977C74.02 61.8634 72.6351 62.6765 71.872 63.4773C69.4609 66.0068 69.4367 69.7322 71.8149 72.2655C72.2675 72.7477 72.4396 73.0158 72.3226 73.0565C72.2251 73.0905 71.7089 73.4103 71.1754 73.7674C69.343 74.994 67.9747 76.7927 67.2871 78.8788C66.9593 79.8734 66.9322 80.1435 66.8773 82.9718V85.5C66.8773 86.0523 67.325 86.5 67.8773 86.5H76.4233H84.9998C85.5521 86.5 85.9998 86.0523 85.9998 85.5V83.4827C85.9998 80.7106 85.8397 79.5292 85.2757 78.1384C84.5708 76.4001 83.2467 74.7985 81.6437 73.7448C81.1132 73.3961 80.6044 73.0847 80.5132 73.0528C80.4113 73.0173 80.612 72.7126 81.0318 72.2655C83.4099 69.7322 83.3857 66.0068 80.9747 63.4773C80.2174 62.6827 78.828 61.8637 77.9611 61.701C77.7037 61.6527 77.5127 61.4344 77.4991 61.1728L77.4568 60.3618C77.3991 59.2583 77.3323 58.9859 76.9092 58.1294C76.3268 56.9499 75.5445 56.1882 74.3191 55.6073L73.6322 55.2816C73.4995 55.2186 73.3545 55.1857 73.2076 55.1852L63.7544 55.1486L54.0781 55.1112V53.2019V51.7284C55.8997 52.6303 58.676 51.4877 59.2138 49.5518L59.4326 48.7646L60.1998 48.5511C61.2657 48.2545 62.1151 47.4045 62.4114 46.3378L62.6248 45.5701L63.3919 45.3566C64.4579 45.06 65.3073 44.21 65.6036 43.1433L65.8169 42.3755L66.6035 42.1566C68.853 41.5307 69.7058 38.6942 68.1904 36.8777L67.8148 36.4274L68.3277 35.6756C69.3533 34.1718 69.8618 32.6295 69.9927 30.6253C70.2656 26.4445 67.7558 22.4108 63.8768 20.7965C60.5105 19.3956 56.7478 19.8629 53.8813 22.0382C53.4437 22.3701 53.0502 22.6417 53.0066 22.6417C52.9631 22.6417 52.5766 22.3689 52.1477 22.0356C51.232 21.324 49.8132 20.6188 48.6913 20.3178C47.5437 20.0096 45.1718 19.9364 44.1026 20.176ZM47.7603 22.3086C48.7797 22.5219 50.2887 23.2298 51.019 23.8373L51.4845 24.2247L48.7316 26.9939C46.9851 28.7508 45.9032 29.944 45.7722 30.2578C45.1991 31.6306 45.9755 33.2702 47.4005 33.6968C47.7125 33.7901 48.8447 33.828 50.4869 33.8C53.4704 33.7493 53.4922 33.7427 54.8091 32.4892L55.345 31.9791C55.5147 31.8176 55.7358 31.7207 55.9697 31.7055L56.8048 31.6513C57.4632 31.6086 58.3265 31.4752 58.7233 31.355L59.4447 31.1363L63.1457 34.8469C66.4907 38.2005 66.8468 38.5997 66.8468 38.9954C66.8468 39.592 66.232 40.2116 65.64 40.2116C65.2739 40.2116 65.0033 40.0069 63.7938 38.814C63.0142 38.0453 62.322 37.4164 62.2554 37.4164C62.0906 37.4164 60.8615 38.638 60.8615 38.8018C60.8615 38.8736 61.4899 39.5707 62.2581 40.3508C63.4501 41.5613 63.6546 41.832 63.6546 42.1985C63.6546 42.7863 63.0352 43.4062 62.4479 43.4062C62.0817 43.4062 61.8112 43.2014 60.6016 42.0085C59.822 41.2399 59.1299 40.6109 59.0632 40.6109C58.8984 40.6109 57.6693 41.8326 57.6693 41.9963C57.6693 42.0682 58.2978 42.7653 59.0659 43.5454C60.2579 44.7558 60.4625 45.0266 60.4625 45.393C60.4625 45.9808 59.8431 46.6007 59.2557 46.6007C58.8895 46.6007 58.619 46.396 57.4094 45.2031C56.6299 44.4344 55.9377 43.8055 55.8711 43.8055C55.7063 43.8055 54.4771 45.0271 54.4771 45.1908C54.4771 45.2627 55.1056 45.9598 55.8737 46.7399C57.0657 47.9504 57.2703 48.2211 57.2703 48.5876C57.2703 48.8848 57.1506 49.1369 56.8815 49.4062C56.3736 49.9145 55.8202 49.9221 55.2683 49.4284C54.8998 49.0991 54.8726 49.0235 55.0001 48.6877C55.5819 47.1563 54.4732 45.1472 52.7689 44.6444L51.9769 44.411L51.7618 43.6367C51.4628 42.5604 50.6622 41.7627 49.5786 41.4612L48.792 41.2423L48.5732 40.4551C48.2704 39.3651 47.4756 38.5698 46.3865 38.2667L45.5998 38.0477L45.3811 37.2605C44.8425 35.3221 42.613 34.3472 40.7867 35.2516C40.4667 35.41 40.0793 35.3194 39.8627 35.0355L39.772 34.9165C38.306 32.9952 37.7889 30.4916 38.38 28.1783C38.7643 26.6748 39.3548 25.6536 40.5069 24.5006C42.5053 22.5008 45.0307 21.7376 47.7603 22.3086ZM61.8463 22.3721C63.3487 22.7568 64.3692 23.3476 65.5213 24.5006C67.5184 26.4993 68.2818 29.0294 67.7116 31.7594C67.5255 32.65 66.719 34.4738 66.3905 34.7467C66.2799 34.8385 65.5252 34.1658 63.8007 32.438L61.3668 29.9996L61.7792 29.7058C61.8682 29.6424 61.9507 29.5586 62.0183 29.4801C62.1413 29.3371 62.2005 29.1484 62.173 28.9618C62.1418 28.7501 62.0589 28.4667 61.8391 28.25C61.3668 27.6607 60.8095 27.8062 60.6829 27.9017C59.083 29.1085 58.1415 29.4509 56.2062 29.5303L55.0584 29.5773C54.8126 29.5874 54.5791 29.6877 54.4026 29.8592L53.5924 30.6461L52.8057 31.4101C52.6151 31.5952 52.3587 31.6969 52.0931 31.6926L50.2149 31.6628C48.1834 31.6304 47.9051 31.5993 47.7746 31.3892C47.647 31.1837 48.1411 30.641 51.4845 27.3158C55.012 23.8075 55.4269 23.4379 56.3392 22.9915C58.1358 22.1124 60.0085 21.9019 61.8463 22.3721ZM43.0488 37.4061C43.6816 38.0395 43.5933 38.5011 42.6608 39.4343C41.7283 40.3675 41.267 40.4559 40.6342 39.8225C40.0013 39.1892 40.0896 38.7276 41.0221 37.7944C41.9547 36.8612 42.4159 36.7728 43.0488 37.4061ZM46.2409 40.6007C46.8738 41.234 46.7855 41.6956 45.853 42.6288C44.9205 43.562 44.4592 43.6504 43.8263 43.0171C43.1935 42.3838 43.2818 41.9222 44.2143 40.989C45.1468 40.0557 45.6081 39.9674 46.2409 40.6007ZM49.4331 43.7952C50.066 44.4285 49.9776 44.8902 49.0451 45.8234C48.1126 46.7566 47.6514 46.8449 47.0185 46.2116C46.3857 45.5783 46.474 45.1167 47.4065 44.1835C48.339 43.2503 48.8003 43.1619 49.4331 43.7952ZM52.6253 46.9898C53.2581 47.6231 53.1698 48.0847 52.2373 49.0179C51.3048 49.9511 50.8435 50.0395 50.2107 49.4062C49.5778 48.7728 49.6661 48.3112 50.5987 47.378C51.5312 46.4448 51.9924 46.3564 52.6253 46.9898ZM35.9892 60.4437V60.5085C35.9892 61.0608 36.4369 61.5085 36.9892 61.5085H37.0532H37.1173C37.6695 61.5085 38.1173 61.0608 38.1173 60.5085V60.4437V60.3788C38.1173 59.8266 37.6695 59.3788 37.1173 59.3788H37.0532H36.9892C36.4369 59.3788 35.9892 59.8266 35.9892 60.3788V60.4437ZM40.2454 60.4437V60.5085C40.2454 61.0608 40.6931 61.5085 41.2454 61.5085H41.3094H41.3735C41.9258 61.5085 42.3735 61.0608 42.3735 60.5085V60.4437V60.3788C42.3735 59.8266 41.9258 59.3788 41.3735 59.3788H41.3094H41.2454C40.6931 59.3788 40.2454 59.8266 40.2454 60.3788V60.4437ZM44.5016 60.4437V60.5085C44.5016 61.0608 44.9493 61.5085 45.5016 61.5085H45.5657H45.6297C46.182 61.5085 46.6297 61.0608 46.6297 60.5085V60.4437V60.3788C46.6297 59.8266 46.182 59.3788 45.6297 59.3788H45.5657H45.5016C44.9493 59.3788 44.5016 59.8266 44.5016 60.3788V60.4437ZM59.3984 60.4437V60.5085C59.3984 61.0608 59.8461 61.5085 60.3984 61.5085H60.4625H60.5265C61.0788 61.5085 61.5265 61.0608 61.5265 60.5085V60.4437V60.3788C61.5265 59.8266 61.0788 59.3788 60.5265 59.3788H60.4625H60.3984C59.8461 59.3788 59.3984 59.8266 59.3984 60.3788V60.4437ZM63.6546 60.4437V60.5085C63.6546 61.0608 64.1024 61.5085 64.6546 61.5085H64.7187H64.7827C65.335 61.5085 65.7827 61.0608 65.7827 60.5085V60.4437V60.3788C65.7827 59.8266 65.335 59.3788 64.7827 59.3788H64.7187H64.6546C64.1024 59.3788 63.6546 59.8266 63.6546 60.3788V60.4437ZM67.9109 60.4437V60.5085C67.9109 61.0608 68.3586 61.5085 68.9109 61.5085H68.9749H69.039C69.5913 61.5085 70.039 61.0608 70.039 60.5085V60.4437V60.3788C70.039 59.8266 69.5913 59.3788 69.039 59.3788H68.9749H68.9109C68.3586 59.3788 67.9109 59.8266 67.9109 60.3788V60.4437ZM31.6068 64.1852C32.5062 64.6649 32.9124 65.0883 33.4308 66.0864C33.7307 66.6641 33.7842 66.9362 33.7867 67.8976C33.7893 68.9337 33.7514 69.0997 33.3377 69.8677C32.8344 70.8018 32.417 71.2052 31.4146 71.7264C30.8354 72.0276 30.569 72.0797 29.6048 72.0797C28.6406 72.0797 28.3742 72.0276 27.795 71.7264C26.7926 71.2052 26.3753 70.8018 25.872 69.8677C25.4576 69.0988 25.4204 68.935 25.4244 67.8976C25.4293 66.5626 25.7449 65.7639 26.609 64.8999C27.9368 63.5722 29.9247 63.2878 31.6068 64.1852ZM55.0161 64.1852C55.9155 64.6649 56.3217 65.0883 56.84 66.0864C57.1399 66.6641 57.1934 66.9362 57.1959 67.8976C57.1986 68.9337 57.1607 69.0997 56.7469 69.8677C56.2436 70.8018 55.8262 71.2052 54.8239 71.7264C54.2446 72.0276 53.9782 72.0797 53.0141 72.0797C52.0499 72.0797 51.7835 72.0276 51.2042 71.7264C50.2019 71.2052 49.7845 70.8018 49.2812 69.8677C48.8669 69.0988 48.8297 68.935 48.8337 67.8976C48.8386 66.5626 49.1542 65.7639 50.0182 64.8999C51.346 63.5722 53.3339 63.2878 55.0161 64.1852ZM78.4253 64.1852C79.3247 64.6649 79.7309 65.0883 80.2493 66.0864C80.5492 66.6641 80.6027 66.9362 80.6052 67.8976C80.6079 68.9337 80.5699 69.0997 80.1562 69.8677C79.6529 70.8018 79.2355 71.2052 78.2331 71.7264C77.6539 72.0276 77.3875 72.0797 76.4233 72.0797C75.4592 72.0797 75.1927 72.0276 74.6135 71.7264C73.6111 71.2052 73.1938 70.8018 72.6905 69.8677C72.2762 69.0988 72.2389 68.935 72.2429 67.8976C72.2478 66.5626 72.5635 65.7639 73.4275 64.8999C74.7553 63.5722 76.7432 63.2878 78.4253 64.1852ZM31.0102 74.429C33.1702 74.8183 35.2842 76.4481 36.2548 78.4723C36.8722 79.7597 37.0532 80.6726 37.0532 82.4972V83.8703H35.9892H34.9251H34.7313H34.3729H34H33.6874H33.4069H32.797H29.6048H26.4126H26.0849H25.7367H25.4486H25H24.6202H24.2845H23.2205H22.1564V82.4972C22.1564 80.7506 22.337 79.7806 22.8797 78.6126C24.3179 75.5171 27.6202 73.8179 31.0102 74.429ZM54.4194 74.429C56.5795 74.8183 58.6935 76.4481 59.664 78.4723C60.2814 79.7597 60.4625 80.6726 60.4625 82.4972V83.8703H59.3984H58.3344H57.2712H56.8757H56.2062H53.0141H49.8219H48.7578H47.6938H46.6297H45.5657V82.4972C45.5657 80.7506 45.7463 79.7806 46.289 78.6126C47.7272 75.5171 51.0295 73.8179 54.4194 74.429ZM77.8287 74.429C79.9887 74.8183 82.1027 76.4481 83.0733 78.4723C83.6907 79.7597 83.8717 80.6726 83.8717 82.4972V83.8703H82.8077H81.7436H81.5H81H80.6141H80.1446H79.6155H76.4233H73.2311H72.3226H71.8149H71.103H70.039H68.9749V82.4972C68.9749 80.7506 69.1555 79.7806 69.6982 78.6126C71.1364 75.5171 74.4387 73.8179 77.8287 74.429Z" fill="#FFC100" stroke="#182F43" stroke-width="0.9"/>
</g>
<defs>
<clipPath id="clip0_358_1922">
<rect width="105" height="105" fill="white"/>
</clipPath>
</defs>
</svg>
