<svg width="80" height="80" viewBox="0 0 80 80" fill="none" xmlns="http://www.w3.org/2000/svg">
<path d="M52.8579 23.214C54.0822 23.214 55.2791 22.8509 56.2971 22.1707C57.3152 21.4905 58.1086 20.5236 58.5771 19.3925C59.0457 18.2613 59.1683 17.0166 58.9294 15.8158C58.6906 14.615 58.101 13.5119 57.2352 12.6462C56.3695 11.7804 55.2664 11.1908 54.0656 10.952C52.8648 10.7131 51.6201 10.8357 50.4889 11.3042C49.3577 11.7728 48.3909 12.5662 47.7107 13.5842C47.0305 14.6023 46.6674 15.7991 46.6674 17.0235C46.6693 18.6647 47.3221 20.2382 48.4826 21.3988C49.6432 22.5593 51.2166 23.2121 52.8579 23.214ZM52.8579 12.7378C53.7055 12.7378 54.5341 12.9891 55.2389 13.46C55.9437 13.931 56.493 14.6003 56.8174 15.3834C57.1418 16.1665 57.2266 17.0282 57.0613 17.8596C56.8959 18.6909 56.4877 19.4546 55.8883 20.0539C55.289 20.6533 54.5253 21.0615 53.694 21.2269C52.8626 21.3922 52.0009 21.3073 51.2178 20.983C50.4347 20.6586 49.7654 20.1093 49.2944 19.4045C48.8235 18.6997 48.5722 17.8711 48.5722 17.0235C48.5722 15.8868 49.0237 14.7968 49.8274 13.993C50.6312 13.1893 51.7212 12.7378 52.8579 12.7378ZM27.1436 23.214C28.368 23.214 29.5648 22.8509 30.5828 22.1707C31.6009 21.4905 32.3943 20.5236 32.8629 19.3925C33.3314 18.2613 33.454 17.0166 33.2151 15.8158C32.9763 14.615 32.3867 13.5119 31.5209 12.6462C30.6552 11.7804 29.5521 11.1908 28.3513 10.952C27.1505 10.7131 25.9058 10.8357 24.7746 11.3042C23.6434 11.7728 22.6766 12.5662 21.9964 13.5842C21.3162 14.6023 20.9531 15.7991 20.9531 17.0235C20.955 18.6647 21.6078 20.2382 22.7683 21.3988C23.9289 22.5593 25.5024 23.2121 27.1436 23.214ZM27.1436 12.7378C27.9912 12.7378 28.8198 12.9891 29.5246 13.46C30.2294 13.931 30.7787 14.6003 31.1031 15.3834C31.4275 16.1665 31.5123 17.0282 31.347 17.8596C31.1816 18.6909 30.7734 19.4546 30.1741 20.0539C29.5747 20.6533 28.8111 21.0615 27.9797 21.2269C27.1484 21.3922 26.2866 21.3073 25.5035 20.983C24.7204 20.6586 24.0511 20.1093 23.5802 19.4045C23.1092 18.6997 22.8579 17.8711 22.8579 17.0235C22.8579 15.8868 23.3094 14.7968 24.1131 13.993C24.9169 13.1893 26.007 12.7378 27.1436 12.7378Z" fill="#FFC100"/>
<path d="M0.952381 72.2622C1.47837 72.2622 1.90476 71.8358 1.90476 71.3098C1.90476 70.7838 1.47837 70.3574 0.952381 70.3574C0.426395 70.3574 0 70.7838 0 71.3098C0 71.8358 0.426395 72.2622 0.952381 72.2622Z" fill="#FBFBFF"/>
<path d="M5.24033 70.3574H3.81176C3.55917 70.3574 3.31693 70.4578 3.13832 70.6364C2.95971 70.815 2.85938 71.0572 2.85938 71.3098C2.85938 71.5624 2.95971 71.8046 3.13832 71.9832C3.31693 72.1618 3.55917 72.2622 3.81176 72.2622H5.24033C5.49291 72.2622 5.73516 72.1618 5.91376 71.9832C6.09237 71.8046 6.19271 71.5624 6.19271 71.3098C6.19271 71.0572 6.09237 70.815 5.91376 70.6364C5.73516 70.4578 5.49291 70.3574 5.24033 70.3574ZM76.1927 70.3574H74.7641C74.5116 70.3574 74.2693 70.4578 74.0907 70.6364C73.9121 70.815 73.8118 71.0572 73.8118 71.3098C73.8118 71.5624 73.9121 71.8046 74.0907 71.9832C74.2693 72.1618 74.5116 72.2622 74.7641 72.2622H76.1927C76.4453 72.2622 76.6875 72.1618 76.8661 71.9832C77.0448 71.8046 77.1451 71.5624 77.1451 71.3098C77.1451 71.0572 77.0448 70.815 76.8661 70.6364C76.6875 70.4578 76.4453 70.3574 76.1927 70.3574Z" fill="#FBFBFF"/>
<path d="M79.0461 72.2622C79.5721 72.2622 79.9985 71.8358 79.9985 71.3098C79.9985 70.7838 79.5721 70.3574 79.0461 70.3574C78.5201 70.3574 78.0938 70.7838 78.0938 71.3098C78.0938 71.8358 78.5201 72.2622 79.0461 72.2622Z" fill="#FBFBFF"/>
<path d="M56.266 74.167H52.3099C52.0705 74.1862 51.8471 74.2948 51.6842 74.4713C51.5213 74.6478 51.4308 74.8792 51.4308 75.1194C51.4308 75.3596 51.5213 75.5909 51.6842 75.7674C51.8471 75.9439 52.0705 76.0526 52.3099 76.0718H56.266C56.5054 76.0526 56.7288 75.9439 56.8917 75.7674C57.0546 75.5909 57.1451 75.3596 57.1451 75.1194C57.1451 74.8792 57.0546 74.6478 56.8917 74.4713C56.7288 74.2948 56.5054 74.1862 56.266 74.167ZM27.6946 74.167H23.7385C23.4991 74.1862 23.2757 74.2948 23.1128 74.4713C22.9498 74.6478 22.8594 74.8792 22.8594 75.1194C22.8594 75.3596 22.9498 75.5909 23.1128 75.7674C23.2757 75.9439 23.4991 76.0526 23.7385 76.0718H27.6946C27.934 76.0526 28.1574 75.9439 28.3203 75.7674C28.4832 75.5909 28.5737 75.3596 28.5737 75.1194C28.5737 74.8792 28.4832 74.6478 28.3203 74.4713C28.1574 74.2948 27.934 74.1862 27.6946 74.167ZM49.5261 74.167H30.4784C30.2258 74.167 29.9836 74.2673 29.805 74.4459C29.6264 74.6245 29.5261 74.8668 29.5261 75.1194C29.5261 75.372 29.6264 75.6142 29.805 75.7928C29.9836 75.9714 30.2258 76.0718 30.4784 76.0718H38.0689V77.0241H34.288C34.0354 77.0241 33.7931 77.1245 33.6145 77.3031C33.4359 77.4817 33.3356 77.7239 33.3356 77.9765C33.3356 78.2291 33.4359 78.4714 33.6145 78.65C33.7931 78.8286 34.0354 78.9289 34.288 78.9289H46.1927C46.4453 78.9289 46.6875 78.8286 46.8662 78.65C47.0448 78.4714 47.1451 78.2291 47.1451 77.9765C47.1451 77.7239 47.0448 77.4817 46.8662 77.3031C46.6875 77.1245 46.4453 77.0241 46.1927 77.0241H41.9356V76.0718H49.5261C49.7786 76.0718 50.0209 75.9714 50.1995 75.7928C50.3781 75.6142 50.4784 75.372 50.4784 75.1194C50.4784 74.8668 50.3781 74.6245 50.1995 74.4459C50.0209 74.2673 49.7786 74.167 49.5261 74.167Z" fill="#FFC100"/>
<path d="M71.775 70.357H59.2683L61.2542 49.8506C61.7012 49.7805 62.1086 49.5532 62.403 49.2095C62.6974 48.8659 62.8594 48.4284 62.8601 47.9759V29.4045C62.8583 27.9954 62.4886 26.6112 61.7876 25.3889C61.0866 24.1665 60.0785 23.1485 58.8631 22.4354C58.4074 22.9436 57.8896 23.3925 57.3219 23.7715C58.4047 24.2622 59.3232 25.0543 59.9676 26.0533C60.612 27.0523 60.9549 28.2158 60.9553 29.4045V47.9759H58.0982V28.4521C58.0982 28.1995 57.9978 27.9573 57.8192 27.7787C57.6406 27.6001 57.3984 27.4997 57.1458 27.4997C56.8932 27.4997 56.651 27.6001 56.4724 27.7787C56.2938 27.9573 56.1934 28.1995 56.1934 28.4521V48.9283C56.1934 49.3072 56.0429 49.6706 55.775 49.9385C55.5071 50.2064 55.1437 50.3569 54.7649 50.3569C54.386 50.3569 54.0226 50.2064 53.7547 49.9385C53.4868 49.6706 53.3363 49.3072 53.3363 48.9283V28.4521C53.3363 28.1995 53.2359 27.9573 53.0573 27.7787C52.8787 27.6001 52.6365 27.4997 52.3839 27.4997C52.1313 27.4997 51.8891 27.6001 51.7105 27.7787C51.5319 27.9573 51.4315 28.1995 51.4315 28.4521V47.9759H48.5744V29.4045C48.5743 28.5352 48.7579 27.6756 49.1133 26.8823C49.4687 26.0889 49.9878 25.3796 50.6365 24.8009C49.9798 24.6122 49.3498 24.3406 48.7618 23.9927C47.4162 25.474 46.6704 27.4033 46.6696 29.4045V38.6543L42.3096 39.9111C42.8068 40.3723 43.1984 40.9357 43.4575 41.5625L46.6696 40.6366V42.9741L43.8065 43.5205C43.7806 44.2398 43.5829 44.9425 43.2298 45.5696L46.6696 44.9131V47.9759C46.6703 48.4284 46.8323 48.8659 47.1267 49.2095C47.4211 49.5532 47.8285 49.7805 48.2755 49.8506L50.2614 70.357H29.7445L31.7304 49.8506C32.1774 49.7805 32.5848 49.5532 32.8792 49.2095C33.1735 48.8659 33.3356 48.4284 33.3363 47.9759V45.004L38.6729 46.0226C38.8431 46.0553 39.0159 46.0718 39.1891 46.0719C39.7534 46.0715 40.3033 45.8937 40.7609 45.5636C41.1795 45.2634 41.5052 44.8516 41.701 44.3753C41.8968 43.8989 41.9549 43.3771 41.8685 42.8693C41.7821 42.3616 41.5548 41.8883 41.2124 41.5035C40.8701 41.1187 40.4265 40.8378 39.9323 40.6929L33.3363 38.7916V29.4045C33.3355 27.4033 32.5897 25.474 31.2441 23.9927C30.6561 24.3406 30.0261 24.6122 29.3694 24.8009C30.0181 25.3796 30.5372 26.0889 30.8926 26.8823C31.248 27.6756 31.4316 28.5352 31.4315 29.4045V38.2425L28.6692 37.4463L29.1147 28.0208C29.1261 27.7688 29.0371 27.5225 28.8671 27.3361C28.6971 27.1496 28.4601 27.0382 28.2081 27.0263C27.9561 27.0144 27.7096 27.103 27.5228 27.2727C27.3361 27.4423 27.2242 27.6791 27.2118 27.9311L26.731 38.108C26.721 38.3221 26.7834 38.5332 26.9082 38.7074C27.033 38.8816 27.2129 39.0087 27.4188 39.0681L39.4049 42.5232C39.5551 42.5691 39.6896 42.656 39.7931 42.7741C39.8966 42.8922 39.9652 43.0368 39.991 43.1917C40.0168 43.3467 39.9988 43.5057 39.9392 43.651C39.8795 43.7963 39.7805 43.922 39.6532 44.0141C39.5643 44.0784 39.4631 44.1238 39.3559 44.1475C39.2488 44.1712 39.1379 44.1726 39.0301 44.1518L23.7701 41.2391L22.8578 27.9108C22.8495 27.7858 22.8167 27.6637 22.7612 27.5514C22.7056 27.4392 22.6285 27.339 22.5342 27.2565C22.4399 27.1741 22.3302 27.1111 22.2115 27.0711C22.0928 27.0311 21.9674 27.015 21.8424 27.0235C21.7175 27.0321 21.5954 27.0652 21.4833 27.121C21.3712 27.1768 21.2712 27.2542 21.189 27.3487C21.1068 27.4432 21.044 27.553 21.0043 27.6718C20.9647 27.7906 20.9488 27.9161 20.9577 28.041L21.9203 42.1019C21.9346 42.3118 22.0181 42.5111 22.1576 42.6686C22.2972 42.826 22.485 42.9328 22.6918 42.9722L31.4315 44.6404V47.9759H19.0506V29.4045C19.051 28.2158 19.3939 27.0523 20.0383 26.0533C20.6827 25.0543 21.6012 24.2622 22.684 23.7715C22.1163 23.3925 21.5985 22.9436 21.1428 22.4354C19.9274 23.1485 18.9193 24.1665 18.2183 25.3889C17.5173 26.6112 17.1476 27.9954 17.1458 29.4045V47.9759C17.1464 48.4284 17.3085 48.8659 17.6029 49.2095C17.8973 49.5532 18.3047 49.7805 18.7517 49.8506L20.7376 70.357H8.23091C8.09542 70.3393 7.95772 70.3507 7.82699 70.3905C7.69626 70.4302 7.57552 70.4974 7.47283 70.5876C7.37015 70.6777 7.28787 70.7887 7.23151 70.9132C7.17515 71.0377 7.146 71.1727 7.146 71.3094C7.146 71.446 7.17515 71.5811 7.23151 71.7056C7.28787 71.83 7.37015 71.9411 7.47283 72.0312C7.57552 72.1213 7.69626 72.1885 7.82699 72.2283C7.95772 72.2681 8.09542 72.2795 8.23091 72.2618H71.775C71.9105 72.2795 72.0482 72.2681 72.1789 72.2283C72.3096 72.1885 72.4304 72.1213 72.5331 72.0312C72.6358 71.9411 72.718 71.83 72.7744 71.7056C72.8308 71.5811 72.8599 71.446 72.8599 71.3094C72.8599 71.1727 72.8308 71.0377 72.7744 70.9132C72.718 70.7887 72.6358 70.6777 72.5331 70.5876C72.4304 70.4974 72.3096 70.4302 72.1789 70.3905C72.0482 70.3507 71.9105 70.3393 71.775 70.357ZM50.1919 49.8807H51.5719C51.7767 50.5685 52.1981 51.1719 52.7734 51.6009C53.3487 52.0299 54.0472 52.2616 54.7648 52.2616C55.4825 52.2616 56.181 52.0299 56.7563 51.6009C57.3316 51.1719 57.753 50.5685 57.9578 49.8807H59.3378L57.3551 70.357H52.1746L50.1919 49.8807ZM20.6681 49.8807H29.814L27.8313 70.357H22.6508L20.6681 49.8807ZM32.529 3.92843C32.8115 3.92843 33.0877 3.84465 33.3227 3.68767C33.5576 3.5307 33.7407 3.30759 33.8488 3.04655C33.957 2.78551 33.9852 2.49828 33.9301 2.22116C33.875 1.94405 33.7389 1.6895 33.5392 1.48971C33.3394 1.28992 33.0848 1.15386 32.8077 1.09874C32.5306 1.04362 32.2433 1.07191 31.9823 1.18003C31.7213 1.28816 31.4982 1.47126 31.3412 1.70619C31.1842 1.94112 31.1004 2.21732 31.1004 2.49986C31.1009 2.87861 31.2515 3.24172 31.5193 3.50953C31.7871 3.77735 32.1503 3.928 32.529 3.92843ZM32.529 1.78558C32.6703 1.78558 32.8084 1.82747 32.9258 1.90595C33.0433 1.98444 33.1349 2.096 33.1889 2.22652C33.243 2.35703 33.2571 2.50065 33.2296 2.63921C33.202 2.77777 33.134 2.90504 33.0341 3.00494C32.9342 3.10483 32.8069 3.17286 32.6684 3.20042C32.5298 3.22798 32.3862 3.21384 32.2557 3.15978C32.1251 3.10571 32.0136 3.01416 31.9351 2.8967C31.8566 2.77923 31.8147 2.64113 31.8147 2.49986C31.8149 2.31048 31.8902 2.12891 32.0241 1.99499C32.158 1.86108 32.3396 1.78576 32.529 1.78558ZM76.3385 24.7618C76.1502 24.7618 75.966 24.8176 75.8094 24.9223C75.6528 25.0269 75.5307 25.1757 75.4586 25.3497C75.3866 25.5237 75.3677 25.7152 75.4044 25.8999C75.4412 26.0847 75.5319 26.2544 75.6651 26.3876C75.7983 26.5208 75.968 26.6115 76.1527 26.6482C76.3375 26.685 76.529 26.6661 76.703 26.594C76.877 26.5219 77.0257 26.3999 77.1304 26.2433C77.235 26.0866 77.2909 25.9025 77.2909 25.7141C77.2906 25.4616 77.1902 25.2196 77.0116 25.041C76.8331 24.8625 76.591 24.7621 76.3385 24.7618ZM76.3385 26.1903C76.2443 26.1903 76.1523 26.1624 76.074 26.1101C75.9957 26.0578 75.9346 25.9834 75.8986 25.8964C75.8625 25.8094 75.8531 25.7136 75.8715 25.6212C75.8899 25.5289 75.9352 25.444 76.0018 25.3774C76.0684 25.3108 76.1533 25.2655 76.2456 25.2471C76.338 25.2287 76.4337 25.2382 76.5208 25.2742C76.6078 25.3102 76.6821 25.3713 76.7345 25.4496C76.7868 25.5279 76.8147 25.62 76.8147 25.7141C76.8146 25.8404 76.7644 25.9614 76.6751 26.0507C76.5858 26.14 76.4648 26.1902 76.3385 26.1903ZM58.0982 4.40462C57.9098 4.40462 57.7257 4.46048 57.5691 4.56513C57.4125 4.66978 57.2904 4.81852 57.2183 4.99254C57.1462 5.16657 57.1274 5.35806 57.1641 5.5428C57.2009 5.72755 57.2916 5.89725 57.4248 6.03044C57.5579 6.16363 57.7276 6.25434 57.9124 6.29109C58.0971 6.32783 58.2886 6.30897 58.4626 6.23689C58.6367 6.16481 58.7854 6.04274 58.8901 5.88612C58.9947 5.7295 59.0506 5.54537 59.0506 5.357C59.0503 5.10451 58.9498 4.86243 58.7713 4.68389C58.5928 4.50534 58.3507 4.40491 58.0982 4.40462ZM58.0982 5.83319C58.004 5.83319 57.9119 5.80527 57.8336 5.75294C57.7553 5.70062 57.6943 5.62625 57.6582 5.53923C57.6222 5.45222 57.6128 5.35648 57.6311 5.2641C57.6495 5.17173 57.6949 5.08688 57.7615 5.02029C57.8281 4.95369 57.9129 4.90834 58.0053 4.88996C58.0977 4.87159 58.1934 4.88102 58.2804 4.91706C58.3674 4.9531 58.4418 5.01414 58.4941 5.09245C58.5464 5.17076 58.5744 5.26282 58.5744 5.357C58.5742 5.48326 58.524 5.60431 58.4348 5.69358C58.3455 5.78286 58.2244 5.83307 58.0982 5.83319ZM66.4315 20.3569C66.2432 20.3569 66.059 20.4128 65.9024 20.5174C65.7458 20.6221 65.6237 20.7708 65.5516 20.9448C65.4795 21.1189 65.4607 21.3103 65.4974 21.4951C65.5342 21.6798 65.6249 21.8495 65.7581 21.9827C65.8913 22.1159 66.061 22.2066 66.2457 22.2434C66.4305 22.2801 66.622 22.2613 66.796 22.1892C66.97 22.1171 67.1187 21.995 67.2234 21.8384C67.328 21.6818 67.3839 21.4977 67.3839 21.3093C67.3836 21.0568 67.2832 20.8147 67.1046 20.6362C66.9261 20.4576 66.684 20.3572 66.4315 20.3569ZM66.4315 21.7855C66.3373 21.7855 66.2453 21.7576 66.167 21.7052C66.0886 21.6529 66.0276 21.5785 65.9916 21.4915C65.9555 21.4045 65.9461 21.3088 65.9645 21.2164C65.9828 21.124 66.0282 21.0392 66.0948 20.9726C66.1614 20.906 66.2463 20.8606 66.3386 20.8422C66.431 20.8239 66.5267 20.8333 66.6138 20.8693C66.7008 20.9054 66.7751 20.9664 66.8275 21.0447C66.8798 21.123 66.9077 21.2151 66.9077 21.3093C66.9076 21.4355 66.8574 21.5566 66.7681 21.6459C66.6788 21.7351 66.5578 21.7854 66.4315 21.7855ZM15.122 17.976C15.122 17.7876 15.0661 17.6035 14.9615 17.4468C14.8568 17.2902 14.7081 17.1682 14.5341 17.0961C14.3601 17.024 14.1686 17.0051 13.9838 17.0419C13.7991 17.0786 13.6294 17.1693 13.4962 17.3025C13.363 17.4357 13.2723 17.6054 13.2355 17.7902C13.1988 17.9749 13.2176 18.1664 13.2897 18.3404C13.3618 18.5144 13.4839 18.6632 13.6405 18.7678C13.7971 18.8725 13.9813 18.9283 14.1696 18.9283C14.4221 18.928 14.6642 18.8276 14.8427 18.6491C15.0213 18.4705 15.1217 18.2285 15.122 17.976ZM13.6934 17.976C13.6934 17.8818 13.7214 17.7897 13.7737 17.7114C13.826 17.6331 13.9004 17.5721 13.9874 17.536C14.0744 17.5 14.1701 17.4905 14.2625 17.5089C14.3549 17.5273 14.4397 17.5726 14.5063 17.6392C14.5729 17.7058 14.6183 17.7907 14.6367 17.8831C14.655 17.9754 14.6456 18.0712 14.6096 18.1582C14.5735 18.2452 14.5125 18.3196 14.4342 18.3719C14.3559 18.4242 14.2638 18.4521 14.1696 18.4521C14.0434 18.452 13.9223 18.4018 13.833 18.3125C13.7438 18.2233 13.6936 18.1022 13.6934 17.976Z" fill="#FBFBFF"/>
<path d="M5.18698 32.9812L5.89507 32.0502L5.44793 31.7969L4.99317 32.8397H4.97841L4.5165 31.804L4.06174 32.065L4.76222 32.974V32.9888L3.6665 32.8474V33.354L4.76936 33.2126V33.2274L4.06174 34.1359L4.48603 34.4045L4.97079 33.354H4.98555L5.43269 34.3969L5.90222 34.1288L5.18698 33.2345V33.2197L6.31174 33.354V32.8474L5.18698 32.9959V32.9812Z" fill="#FFC100"/>
<path d="M4.30174 4.00154L3.89412 4.52488L4.13888 4.67964L4.41793 4.0744H4.42603L4.68365 4.67535L4.95412 4.52059L4.54222 4.00583V3.99726L5.18984 4.0744V3.78297L4.54222 3.86869V3.86012L4.94984 3.32392L4.69222 3.17773L4.43079 3.77821H4.42174L4.15603 3.18202L3.89412 3.33202L4.29746 3.85583V3.8644L3.6665 3.78297V4.0744L4.30174 3.99297V4.00154Z" fill="#FFC100"/>
<path d="M77.6309 5.60527V5.1086L76.5276 5.25479V5.24003L77.2219 4.3267L76.7833 4.07812L76.3376 5.10098H76.3228L75.87 4.08527L75.4238 4.34146L76.1109 5.23289V5.24765L75.0366 5.1086V5.60527L76.1181 5.4667V5.48146L75.4238 6.37289L75.8404 6.63622L76.3157 5.60527H76.33L76.7685 6.6286L77.229 6.36574L76.5276 5.4886V5.47384L77.6309 5.60527Z" fill="#FFC100"/>
<path d="M40.1666 12.6371L40.7656 11.8491L40.3875 11.6348L40.0032 12.5171H39.9904L39.5994 11.641L39.2147 11.8619L39.8075 12.631V12.6433L38.8804 12.5238V12.9524L39.8137 12.8324V12.8452L39.2147 13.6143L39.5737 13.8414L39.9842 12.9524H39.9966L40.3747 13.8348L40.7718 13.6081L40.1666 12.8514V12.8386L41.1185 12.9524V12.5238L40.1666 12.6495V12.6371Z" fill="#FFC100"/>
</svg>
