<svg width="105" height="105" viewBox="0 0 105 105" fill="none" xmlns="http://www.w3.org/2000/svg">
<mask id="path-1-outside-1_323_3993" maskUnits="userSpaceOnUse" x="31" y="41" width="46" height="43" fill="black">
<rect fill="white" x="31" y="41" width="46" height="43"/>
<path d="M45.0597 63.5692C44.9127 63.8687 44.7807 64.146 44.6638 64.4011C44.5468 64.6561 44.4294 64.9186 44.3113 65.1885C43.7244 66.4786 43.1966 67.7904 42.7277 69.1238C42.3084 70.2648 41.9292 71.6449 41.6553 73.066L41.6269 73.2385C41.5099 74.0185 41.4292 74.7985 41.3847 75.5785C41.378 75.6998 41.3746 75.8433 41.3746 75.9868C41.3746 76.6888 41.4665 77.3703 41.6402 78.0159L41.6285 77.9613C41.7371 78.5557 42.0194 79.0698 42.4187 79.4592L42.4203 79.4609C42.8096 79.8025 43.3157 80.0143 43.8703 80.0229H43.872C43.9572 80.0331 44.0541 80.0382 44.1543 80.0382C44.3514 80.0382 44.5418 80.016 44.7256 79.975L44.7089 79.9785L45.5007 79.7991C46.2474 79.5771 46.8955 79.285 47.4986 78.9212L47.4585 78.9434C48.0598 78.5836 48.654 78.1936 49.2408 77.7734C49.3678 77.6931 49.5131 77.6248 49.6668 77.5752L49.6802 77.5718C49.742 77.553 49.8138 77.5428 49.8873 77.5428C49.9859 77.5428 50.0811 77.5616 50.168 77.5957L50.1629 77.594C50.4603 77.6965 50.6841 77.9493 50.7493 78.2636L50.7509 78.2687C50.7677 78.3268 50.776 78.3951 50.776 78.4651C50.776 78.7179 50.6541 78.9417 50.467 79.0766L50.4653 79.0783C49.61 79.7428 48.6462 80.3696 47.6305 80.9128L47.5169 80.9674C46.5314 81.4901 45.3687 81.8044 44.1342 81.8214H44.1292C44.0591 81.8266 43.9789 81.8283 43.897 81.8283C43.0267 81.8283 42.2232 81.5447 41.5667 81.0631L41.5784 81.0716C40.8618 80.5182 40.3239 79.7564 40.0466 78.8768L40.0383 78.846C39.7927 78.1816 39.634 77.413 39.5989 76.6136V76.5982C39.5923 76.4308 39.5872 76.2344 39.5872 76.0363C39.5872 75.4419 39.624 74.856 39.6925 74.2804L39.6858 74.3487C39.9681 71.9541 40.5177 69.7746 41.3095 67.7198L41.2477 67.9008C42.1715 65.472 43.0819 63.4838 44.0975 61.5623L43.9538 61.8595C44.0307 61.716 44.0791 61.5469 44.0858 61.3659V61.3641C44.0825 61.1865 44.0507 61.0157 43.9939 60.8586L43.9973 60.8688C43.7333 60.1195 43.4839 59.3697 43.2489 58.6193L42.5456 56.3698C42.539 56.2485 42.4838 56.1426 42.4003 56.0709C42.3435 56.0436 42.2767 56.0282 42.2065 56.0282C42.1581 56.0282 42.1113 56.035 42.0679 56.0487L42.0712 56.047C41.0745 56.2873 40.0917 56.5645 39.1229 56.8788C38.0588 57.229 37.1417 57.6474 36.2797 58.1547L36.3499 58.1171C35.974 58.3426 35.65 58.5732 35.3459 58.826L35.361 58.814C35.0336 59.0873 34.7396 59.3589 34.4589 59.6458C34.0647 60.0404 33.8058 60.5716 33.7557 61.166V61.1746V61.2395C33.7557 61.8287 33.9544 62.3719 34.2885 62.7989L34.2852 62.7938C34.5992 63.2942 34.9784 63.7178 35.4178 64.068L35.4295 64.0765C35.8693 64.4216 36.3237 64.7438 36.7926 65.0433C36.9685 65.1332 37.13 65.2232 37.277 65.3132L37.7163 65.583C37.9268 65.7094 38.0872 65.9058 38.169 66.1381L38.1707 66.145C38.1974 66.2201 38.2125 66.3089 38.2125 66.3995C38.2125 66.5464 38.1724 66.683 38.1022 66.8009L38.1039 66.7974C38.0036 67.0195 37.8132 67.1852 37.581 67.2467L37.576 67.2484C37.5042 67.2672 37.424 67.2774 37.3388 67.2774C37.1684 67.2774 37.0064 67.233 36.8661 67.1561L36.8711 67.1596C36.1344 66.794 35.5046 66.408 34.9133 65.9708L34.9517 65.9981C34.3253 65.5386 33.7774 65.0347 33.2879 64.4779L33.2796 64.4677C32.9856 64.1175 32.7233 63.7247 32.5045 63.3028L32.4878 63.2686C32.2907 62.8843 32.1386 62.4402 32.0518 61.9705L32.0468 61.9415C32.0167 61.7587 32 61.5486 32 61.3351C32 60.9457 32.0568 60.5682 32.162 60.2146L32.1554 60.242C32.3358 59.6561 32.598 59.1488 32.9338 58.7013L32.9254 58.7133C33.2846 58.2265 33.6905 57.8046 34.1432 57.4425L34.1582 57.4305C34.5942 57.0787 35.0837 56.7575 35.6032 56.4877L35.6533 56.4638C36.4635 56.0094 37.4156 55.5841 38.4062 55.2408L38.5349 55.2015C39.5126 54.8713 40.5171 54.5866 41.5484 54.3475C41.6135 54.3236 41.6937 54.3014 41.7772 54.2826L41.7906 54.2809C41.8875 54.2604 41.9677 54.2365 42.0462 54.2091L42.0311 54.2143C41.9721 53.9444 41.9231 53.6745 41.8841 53.4046C41.8452 53.1348 41.8084 52.8649 41.7739 52.595C41.6135 51.6231 41.4949 50.4617 41.4465 49.2814L41.4448 49.2216C41.4398 49.0952 41.4364 48.9449 41.4364 48.7963C41.4364 47.763 41.5751 46.7637 41.8374 45.8158L41.819 45.8926C41.9142 45.4058 42.0512 44.9771 42.2299 44.5723L42.2149 44.6099C42.4087 44.1709 42.6442 43.7935 42.9248 43.4553L42.9198 43.4621C43.4276 42.8352 44.1075 42.3706 44.886 42.1469L44.9144 42.1401C45.2618 42.0512 45.6594 42 46.0686 42C46.5096 42 46.939 42.0598 47.3449 42.1708L47.3098 42.1623C48.1985 42.3826 48.9819 42.7242 49.6919 43.1717L49.6568 43.1512C50.4603 43.6568 51.1418 44.147 51.7933 44.6731L51.7465 44.6372C51.9136 44.7961 52.0222 45.0181 52.0389 45.2641V45.2675C52.0405 45.2846 52.0405 45.3034 52.0405 45.3222C52.0405 45.5493 51.947 45.7526 51.7967 45.8978C51.663 46.0669 51.4709 46.183 51.2504 46.212H51.2454C51.2153 46.2155 51.1786 46.2189 51.1435 46.2189C50.9414 46.2189 50.7543 46.1489 50.6056 46.031L50.6073 46.0327C50.2554 45.7924 49.9179 45.5527 49.595 45.3136C49.311 45.0984 48.9803 44.8764 48.6395 44.6697L48.5844 44.6389C48.2369 44.4169 47.8377 44.2188 47.4167 44.0667L47.3733 44.0531C46.9724 43.9096 46.5096 43.8276 46.0269 43.8276C46.0135 43.8276 45.9985 43.8276 45.9851 43.8276H45.9868C45.9801 43.8276 45.9718 43.8276 45.9634 43.8276C45.5976 43.8276 45.2518 43.9198 44.9478 44.0804L44.9595 44.0753C44.6404 44.2529 44.3798 44.504 44.1944 44.808L44.1894 44.8166C43.9121 45.1787 43.6999 45.6074 43.5797 46.0737L43.5746 46.0976C43.4711 46.487 43.3775 46.9687 43.3157 47.4589L43.3107 47.5153C43.2506 48.0089 43.2172 48.5794 43.2172 49.1584C43.2172 49.6657 43.2439 50.1645 43.294 50.6581L43.289 50.5966C43.4059 51.7717 43.5696 52.8068 43.7851 53.8231L43.7517 53.6335V53.6489C43.7517 53.724 43.7868 53.7907 43.8402 53.8351C43.897 53.8778 43.9689 53.9034 44.0474 53.9034H44.0607C44.8815 53.8134 45.6883 53.7309 46.4812 53.6557C47.2742 53.5806 48.066 53.5128 48.8566 53.4525C49.0203 53.4268 49.169 53.3807 49.306 53.3141L49.296 53.3175C49.4363 53.2373 49.5532 53.1314 49.6451 53.005L49.6468 53.0015C50.7259 51.589 51.7916 50.3353 52.9159 49.1414L52.9025 49.1567C54.0368 47.9543 55.2579 46.8543 56.5625 45.8619L56.641 45.8038C57.2992 45.2863 58.0459 44.767 58.821 44.2905L58.9295 44.229C59.6629 43.7781 60.5098 43.3938 61.4035 43.1239L61.482 43.1034C61.9815 42.9343 62.5595 42.8216 63.1591 42.7891H63.1759C63.236 42.7857 63.3078 42.784 63.378 42.784C63.9292 42.784 64.4571 42.8848 64.9449 43.0692L64.9131 43.059C65.588 43.2759 66.156 43.6756 66.5803 44.2L66.5853 44.2068C66.9929 44.7346 67.3103 45.358 67.5007 46.0361L67.509 46.0737C67.7329 46.7586 67.8615 47.5477 67.8615 48.3659V48.3676V48.3864C67.8615 49.1875 67.8131 49.9783 67.7212 50.7537L67.7295 50.6615C67.7006 50.871 67.6711 51.0709 67.641 51.261C67.6043 51.4968 67.5575 51.6983 67.5007 51.8964L67.509 51.8606C67.4857 52.0963 67.3604 52.2961 67.1816 52.4208L67.1783 52.4225C67.038 52.5233 66.8626 52.5831 66.6738 52.5831C66.627 52.5831 66.5803 52.5797 66.5352 52.5728H66.5402C66.308 52.5472 66.1075 52.4311 65.9689 52.2602L65.9672 52.2585C65.8519 52.1116 65.7801 51.9238 65.7801 51.7188C65.7801 51.671 65.7834 51.6249 65.7918 51.5787V51.5839C65.8208 51.224 65.8647 50.8568 65.9238 50.4822C65.9789 50.1508 66.0106 49.7699 66.0123 49.3805C66.0257 49.1823 66.034 48.9501 66.034 48.7178C66.034 48.4855 66.0257 48.2532 66.0106 48.0226L66.0123 48.0533C65.9772 47.5563 65.9154 47.1019 65.8252 46.6596L65.8369 46.7279C65.7333 45.9575 65.3057 45.3068 64.7027 44.9122L64.6926 44.9054C64.3017 44.697 63.8374 44.574 63.3462 44.574C63.0422 44.574 62.7482 44.6219 62.4709 44.709L62.4926 44.7038C61.7777 44.8627 61.1446 45.095 60.5549 45.4007L60.6 45.3785C60.0131 45.678 59.4268 46.0077 58.841 46.3675C57.6399 47.1908 56.5909 48.0499 55.617 48.9876L55.6287 48.9757C54.632 49.9356 53.6787 50.9405 52.7689 51.9904C52.5929 52.1703 52.417 52.365 52.241 52.5745C52.065 52.784 51.9036 52.9788 51.7566 53.1587V53.1655C51.7566 53.1894 51.7482 53.2099 51.7348 53.2253C51.7198 53.2509 51.7115 53.2817 51.7115 53.3141C51.7115 53.3227 51.7115 53.3295 51.7131 53.338V53.3363H52.1976C54.6966 53.3688 57.1204 53.5481 59.5025 53.8658L59.1918 53.8317C61.8111 54.1784 64.1481 54.6976 66.4082 55.3996L66.0975 55.3159C67.3704 55.6798 68.4144 56.0555 69.4317 56.4894L69.2447 56.4176C70.4173 56.9113 71.4096 57.4322 72.3517 58.0249L72.2582 57.9703C72.7994 58.3307 73.2654 58.6859 73.7098 59.0685L73.6881 59.0497C74.1491 59.446 74.5584 59.8747 74.9292 60.3376L74.9426 60.3547C75.6008 61.1558 76 62.1977 76 63.3352C76 63.3865 76 63.4377 75.9983 63.4873V63.4804C75.9048 64.6521 75.3819 65.6838 74.5935 66.4234L74.5901 66.4268C74.0289 67.0007 73.3924 67.4978 72.6975 67.9026L72.6541 67.9265C72.026 68.2937 71.286 68.6456 70.5192 68.9393L70.4106 68.9752C70.3371 68.9974 70.2503 69.0111 70.1634 69.0111C70.0298 69.0111 69.9028 68.982 69.7892 68.9274L69.7942 68.9291C69.5854 68.8334 69.4284 68.6575 69.3566 68.4406L69.3549 68.4355C69.3131 68.3398 69.2881 68.2271 69.2881 68.1092C69.2881 67.9914 69.3131 67.8786 69.3566 67.7779L69.3549 67.783C69.4484 67.5524 69.6188 67.3714 69.8327 67.2689L69.8377 67.2672C70.1896 67.0872 70.5487 66.9147 70.9151 66.7496C71.3144 66.5686 71.6518 66.3807 71.9725 66.1689L71.9424 66.1877C72.2515 65.9981 72.5171 65.8051 72.7677 65.5933L72.756 65.6018C73.0054 65.3923 73.2499 65.1674 73.4893 64.9271C73.9052 64.5172 74.1809 63.9604 74.236 63.3404V63.3301C74.236 63.3267 74.236 63.3216 74.236 63.3164C74.236 62.6947 74.0222 62.1225 73.6647 61.675L73.668 61.6801C73.369 61.2531 73.0316 60.8842 72.6507 60.5631L72.6407 60.5545C72.2732 60.2454 71.8639 59.9482 71.4346 59.6817L71.3879 59.6544C70.4357 59.0207 69.3415 58.4451 68.1889 57.9873L68.0653 57.9446C67.1666 57.5757 65.9872 57.176 64.7828 56.8378L64.5239 56.7763C63.2622 56.4461 61.9943 56.1614 60.7203 55.9223C59.6395 55.7054 58.3198 55.5295 56.9801 55.4338L56.8715 55.427C55.8447 55.3666 54.8107 55.3165 53.7695 55.2767C52.7282 55.2368 51.6942 55.1992 50.6674 55.1639C50.6624 55.1639 50.6557 55.1639 50.6507 55.1639C50.5154 55.1639 50.3851 55.1896 50.2632 55.234L50.2715 55.2305C50.1546 55.275 50.061 55.3638 50.0093 55.4748L50.0076 55.4782L48.135 58.3443C47.5192 59.3042 46.9178 60.2642 46.3309 61.2241C46.2708 61.289 46.2307 61.3744 46.2207 61.47V61.4718C46.2156 61.5008 46.2123 61.5367 46.2123 61.5708C46.2123 61.6391 46.2223 61.7058 46.2424 61.769L46.2407 61.7638C46.7686 62.9936 47.3187 64.208 47.8911 65.4071C48.4635 66.6061 49.0866 67.783 49.7604 68.9376C50.4341 70.0923 51.1452 71.2167 51.8935 72.311C52.6419 73.4053 53.441 74.462 54.2907 75.4812C55.039 76.3676 55.7941 77.1738 56.5859 77.9408L56.6009 77.9544C57.3777 78.7077 58.233 79.3892 59.15 79.9819L59.2185 80.0229C59.6161 80.2979 60.0721 80.5541 60.5499 80.7659L60.605 80.7881C61.051 80.9879 61.5689 81.116 62.1118 81.1468H62.1235C62.1853 81.1519 62.2554 81.1553 62.3289 81.1553C62.7298 81.1553 63.1057 81.0511 63.4348 80.8701L63.4231 80.8769C63.8039 80.6497 64.1113 80.3286 64.3185 79.9443L64.3251 79.9323C64.544 79.5771 64.7177 79.1637 64.8246 78.7248L64.8313 78.6957C64.9232 78.3251 65.0084 77.8588 65.0668 77.3856L65.0735 77.3242C65.1119 76.8886 65.132 76.383 65.132 75.8723C65.132 74.8526 65.0468 73.8517 64.8831 72.8798L64.8981 72.984C64.6631 71.5595 64.3697 70.1429 64.0178 68.7344C63.6068 67.2951 63.1374 65.8859 62.6096 64.507C62.0817 63.128 61.5098 61.7627 60.894 60.4111C60.8355 60.3137 60.7854 60.2027 60.7503 60.0831L60.747 60.0729C60.7219 60.0131 60.7086 59.9431 60.7086 59.8696C60.7086 59.8218 60.7153 59.7757 60.727 59.7313V59.7347C60.727 59.7313 60.727 59.7278 60.727 59.7244C60.727 59.516 60.8105 59.3282 60.9475 59.1949C61.0844 59.0514 61.2665 58.9541 61.4703 58.9251H61.4753C61.5154 58.9182 61.5605 58.9148 61.6073 58.9148C61.7526 58.9148 61.8879 58.9524 62.0082 59.0173L62.0032 59.0156C62.1836 59.1129 62.3222 59.2684 62.3974 59.4597L62.3991 59.4648C62.604 59.9442 62.8239 60.4316 63.0589 60.9269C63.2939 61.4222 63.5138 61.9221 63.7188 62.4266C64.3346 63.9558 64.892 65.5147 65.3909 67.1032C65.8336 68.4491 66.2311 70.0837 66.5084 71.7628L66.5352 71.9609C66.6938 72.943 66.8191 74.1421 66.8826 75.3599L66.886 75.4487C66.896 75.6349 66.901 75.8552 66.901 76.0756C66.901 77.0902 66.7824 78.0774 66.5602 79.022L66.5769 78.9366C66.5179 79.1768 66.4444 79.4268 66.3564 79.6864C66.2545 79.987 66.1493 80.2347 66.0323 80.4738L66.0491 80.4362C65.6598 81.3671 64.9833 82.1101 64.1364 82.561L64.113 82.573C63.5801 82.8412 62.9537 83 62.2922 83C61.923 83 61.5655 82.9505 61.2248 82.8599L61.2532 82.8668C60.3678 82.6789 59.5827 82.3595 58.8727 81.9256L58.9078 81.9461C58.1077 81.4576 57.4261 80.976 56.7763 80.4516L56.8181 80.484C55.5686 79.4763 54.461 78.4002 53.4554 77.2285L53.4304 77.1995C52.4036 76.0004 51.4358 74.7564 50.5271 73.4674C49.6184 72.1778 48.6812 70.6833 47.8226 69.1358L47.6957 68.8881C46.8304 67.3133 46.0313 65.6866 45.2986 64.0082L45.21 63.8289L45.0597 63.5692ZM44.181 55.6507L45.2802 59.3401C45.7201 58.6205 46.1527 57.9304 46.5781 57.27C47.0035 56.6095 47.4507 55.9348 47.9195 55.2459L44.181 55.6507ZM54.1654 65.0979C54.157 65.0979 54.147 65.0979 54.1353 65.0979C53.4337 65.0979 52.7973 64.8059 52.3396 64.3327C51.8902 63.9057 51.6096 63.2977 51.6096 62.623C51.6096 62.5752 51.6112 62.529 51.6129 62.4812V62.488C51.6129 62.4761 51.6129 62.4624 51.6129 62.4488C51.6129 61.7399 51.9002 61.1011 52.3613 60.6434C52.809 60.1719 53.4337 59.8781 54.127 59.8781H54.167H54.1654H54.1954C54.897 59.8781 55.5335 60.1702 55.9912 60.6434C56.4656 61.096 56.7613 61.7399 56.7613 62.4556V62.4897V62.488V62.5205C56.7613 63.2345 56.4656 63.8784 55.9929 64.331L55.9912 64.3327C55.5318 64.8059 54.897 65.0979 54.1954 65.0979C54.1871 65.0979 54.1787 65.0979 54.1704 65.0979H54.1721H54.1654Z"/>
</mask>
<path d="M45.0597 63.5692C44.9127 63.8687 44.7807 64.146 44.6638 64.4011C44.5468 64.6561 44.4294 64.9186 44.3113 65.1885C43.7244 66.4786 43.1966 67.7904 42.7277 69.1238C42.3084 70.2648 41.9292 71.6449 41.6553 73.066L41.6269 73.2385C41.5099 74.0185 41.4292 74.7985 41.3847 75.5785C41.378 75.6998 41.3746 75.8433 41.3746 75.9868C41.3746 76.6888 41.4665 77.3703 41.6402 78.0159L41.6285 77.9613C41.7371 78.5557 42.0194 79.0698 42.4187 79.4592L42.4203 79.4609C42.8096 79.8025 43.3157 80.0143 43.8703 80.0229H43.872C43.9572 80.0331 44.0541 80.0382 44.1543 80.0382C44.3514 80.0382 44.5418 80.016 44.7256 79.975L44.7089 79.9785L45.5007 79.7991C46.2474 79.5771 46.8955 79.285 47.4986 78.9212L47.4585 78.9434C48.0598 78.5836 48.654 78.1936 49.2408 77.7734C49.3678 77.6931 49.5131 77.6248 49.6668 77.5752L49.6802 77.5718C49.742 77.553 49.8138 77.5428 49.8873 77.5428C49.9859 77.5428 50.0811 77.5616 50.168 77.5957L50.1629 77.594C50.4603 77.6965 50.6841 77.9493 50.7493 78.2636L50.7509 78.2687C50.7677 78.3268 50.776 78.3951 50.776 78.4651C50.776 78.7179 50.6541 78.9417 50.467 79.0766L50.4653 79.0783C49.61 79.7428 48.6462 80.3696 47.6305 80.9128L47.5169 80.9674C46.5314 81.4901 45.3687 81.8044 44.1342 81.8214H44.1292C44.0591 81.8266 43.9789 81.8283 43.897 81.8283C43.0267 81.8283 42.2232 81.5447 41.5667 81.0631L41.5784 81.0716C40.8618 80.5182 40.3239 79.7564 40.0466 78.8768L40.0383 78.846C39.7927 78.1816 39.634 77.413 39.5989 76.6136V76.5982C39.5923 76.4308 39.5872 76.2344 39.5872 76.0363C39.5872 75.4419 39.624 74.856 39.6925 74.2804L39.6858 74.3487C39.9681 71.9541 40.5177 69.7746 41.3095 67.7198L41.2477 67.9008C42.1715 65.472 43.0819 63.4838 44.0975 61.5623L43.9538 61.8595C44.0307 61.716 44.0791 61.5469 44.0858 61.3659V61.3641C44.0825 61.1865 44.0507 61.0157 43.9939 60.8586L43.9973 60.8688C43.7333 60.1195 43.4839 59.3697 43.2489 58.6193L42.5456 56.3698C42.539 56.2485 42.4838 56.1426 42.4003 56.0709C42.3435 56.0436 42.2767 56.0282 42.2065 56.0282C42.1581 56.0282 42.1113 56.035 42.0679 56.0487L42.0712 56.047C41.0745 56.2873 40.0917 56.5645 39.1229 56.8788C38.0588 57.229 37.1417 57.6474 36.2797 58.1547L36.3499 58.1171C35.974 58.3426 35.65 58.5732 35.3459 58.826L35.361 58.814C35.0336 59.0873 34.7396 59.3589 34.4589 59.6458C34.0647 60.0404 33.8058 60.5716 33.7557 61.166V61.1746V61.2395C33.7557 61.8287 33.9544 62.3719 34.2885 62.7989L34.2852 62.7938C34.5992 63.2942 34.9784 63.7178 35.4178 64.068L35.4295 64.0765C35.8693 64.4216 36.3237 64.7438 36.7926 65.0433C36.9685 65.1332 37.13 65.2232 37.277 65.3132L37.7163 65.583C37.9268 65.7094 38.0872 65.9058 38.169 66.1381L38.1707 66.145C38.1974 66.2201 38.2125 66.3089 38.2125 66.3995C38.2125 66.5464 38.1724 66.683 38.1022 66.8009L38.1039 66.7974C38.0036 67.0195 37.8132 67.1852 37.581 67.2467L37.576 67.2484C37.5042 67.2672 37.424 67.2774 37.3388 67.2774C37.1684 67.2774 37.0064 67.233 36.8661 67.1561L36.8711 67.1596C36.1344 66.794 35.5046 66.408 34.9133 65.9708L34.9517 65.9981C34.3253 65.5386 33.7774 65.0347 33.2879 64.4779L33.2796 64.4677C32.9856 64.1175 32.7233 63.7247 32.5045 63.3028L32.4878 63.2686C32.2907 62.8843 32.1386 62.4402 32.0518 61.9705L32.0468 61.9415C32.0167 61.7587 32 61.5486 32 61.3351C32 60.9457 32.0568 60.5682 32.162 60.2146L32.1554 60.242C32.3358 59.6561 32.598 59.1488 32.9338 58.7013L32.9254 58.7133C33.2846 58.2265 33.6905 57.8046 34.1432 57.4425L34.1582 57.4305C34.5942 57.0787 35.0837 56.7575 35.6032 56.4877L35.6533 56.4638C36.4635 56.0094 37.4156 55.5841 38.4062 55.2408L38.5349 55.2015C39.5126 54.8713 40.5171 54.5866 41.5484 54.3475C41.6135 54.3236 41.6937 54.3014 41.7772 54.2826L41.7906 54.2809C41.8875 54.2604 41.9677 54.2365 42.0462 54.2091L42.0311 54.2143C41.9721 53.9444 41.9231 53.6745 41.8841 53.4046C41.8452 53.1348 41.8084 52.8649 41.7739 52.595C41.6135 51.6231 41.4949 50.4617 41.4465 49.2814L41.4448 49.2216C41.4398 49.0952 41.4364 48.9449 41.4364 48.7963C41.4364 47.763 41.5751 46.7637 41.8374 45.8158L41.819 45.8926C41.9142 45.4058 42.0512 44.9771 42.2299 44.5723L42.2149 44.6099C42.4087 44.1709 42.6442 43.7935 42.9248 43.4553L42.9198 43.4621C43.4276 42.8352 44.1075 42.3706 44.886 42.1469L44.9144 42.1401C45.2618 42.0512 45.6594 42 46.0686 42C46.5096 42 46.939 42.0598 47.3449 42.1708L47.3098 42.1623C48.1985 42.3826 48.9819 42.7242 49.6919 43.1717L49.6568 43.1512C50.4603 43.6568 51.1418 44.147 51.7933 44.6731L51.7465 44.6372C51.9136 44.7961 52.0222 45.0181 52.0389 45.2641V45.2675C52.0405 45.2846 52.0405 45.3034 52.0405 45.3222C52.0405 45.5493 51.947 45.7526 51.7967 45.8978C51.663 46.0669 51.4709 46.183 51.2504 46.212H51.2454C51.2153 46.2155 51.1786 46.2189 51.1435 46.2189C50.9414 46.2189 50.7543 46.1489 50.6056 46.031L50.6073 46.0327C50.2554 45.7924 49.9179 45.5527 49.595 45.3136C49.311 45.0984 48.9803 44.8764 48.6395 44.6697L48.5844 44.6389C48.2369 44.4169 47.8377 44.2188 47.4167 44.0667L47.3733 44.0531C46.9724 43.9096 46.5096 43.8276 46.0269 43.8276C46.0135 43.8276 45.9985 43.8276 45.9851 43.8276H45.9868C45.9801 43.8276 45.9718 43.8276 45.9634 43.8276C45.5976 43.8276 45.2518 43.9198 44.9478 44.0804L44.9595 44.0753C44.6404 44.2529 44.3798 44.504 44.1944 44.808L44.1894 44.8166C43.9121 45.1787 43.6999 45.6074 43.5797 46.0737L43.5746 46.0976C43.4711 46.487 43.3775 46.9687 43.3157 47.4589L43.3107 47.5153C43.2506 48.0089 43.2172 48.5794 43.2172 49.1584C43.2172 49.6657 43.2439 50.1645 43.294 50.6581L43.289 50.5966C43.4059 51.7717 43.5696 52.8068 43.7851 53.8231L43.7517 53.6335V53.6489C43.7517 53.724 43.7868 53.7907 43.8402 53.8351C43.897 53.8778 43.9689 53.9034 44.0474 53.9034H44.0607C44.8815 53.8134 45.6883 53.7309 46.4812 53.6557C47.2742 53.5806 48.066 53.5128 48.8566 53.4525C49.0203 53.4268 49.169 53.3807 49.306 53.3141L49.296 53.3175C49.4363 53.2373 49.5532 53.1314 49.6451 53.005L49.6468 53.0015C50.7259 51.589 51.7916 50.3353 52.9159 49.1414L52.9025 49.1567C54.0368 47.9543 55.2579 46.8543 56.5625 45.8619L56.641 45.8038C57.2992 45.2863 58.0459 44.767 58.821 44.2905L58.9295 44.229C59.6629 43.7781 60.5098 43.3938 61.4035 43.1239L61.482 43.1034C61.9815 42.9343 62.5595 42.8216 63.1591 42.7891H63.1759C63.236 42.7857 63.3078 42.784 63.378 42.784C63.9292 42.784 64.4571 42.8848 64.9449 43.0692L64.9131 43.059C65.588 43.2759 66.156 43.6756 66.5803 44.2L66.5853 44.2068C66.9929 44.7346 67.3103 45.358 67.5007 46.0361L67.509 46.0737C67.7329 46.7586 67.8615 47.5477 67.8615 48.3659V48.3676V48.3864C67.8615 49.1875 67.8131 49.9783 67.7212 50.7537L67.7295 50.6615C67.7006 50.871 67.6711 51.0709 67.641 51.261C67.6043 51.4968 67.5575 51.6983 67.5007 51.8964L67.509 51.8606C67.4857 52.0963 67.3604 52.2961 67.1816 52.4208L67.1783 52.4225C67.038 52.5233 66.8626 52.5831 66.6738 52.5831C66.627 52.5831 66.5803 52.5797 66.5352 52.5728H66.5402C66.308 52.5472 66.1075 52.4311 65.9689 52.2602L65.9672 52.2585C65.8519 52.1116 65.7801 51.9238 65.7801 51.7188C65.7801 51.671 65.7834 51.6249 65.7918 51.5787V51.5839C65.8208 51.224 65.8647 50.8568 65.9238 50.4822C65.9789 50.1508 66.0106 49.7699 66.0123 49.3805C66.0257 49.1823 66.034 48.9501 66.034 48.7178C66.034 48.4855 66.0257 48.2532 66.0106 48.0226L66.0123 48.0533C65.9772 47.5563 65.9154 47.1019 65.8252 46.6596L65.8369 46.7279C65.7333 45.9575 65.3057 45.3068 64.7027 44.9122L64.6926 44.9054C64.3017 44.697 63.8374 44.574 63.3462 44.574C63.0422 44.574 62.7482 44.6219 62.4709 44.709L62.4926 44.7038C61.7777 44.8627 61.1446 45.095 60.5549 45.4007L60.6 45.3785C60.0131 45.678 59.4268 46.0077 58.841 46.3675C57.6399 47.1908 56.5909 48.0499 55.617 48.9876L55.6287 48.9757C54.632 49.9356 53.6787 50.9405 52.7689 51.9904C52.5929 52.1703 52.417 52.365 52.241 52.5745C52.065 52.784 51.9036 52.9788 51.7566 53.1587V53.1655C51.7566 53.1894 51.7482 53.2099 51.7348 53.2253C51.7198 53.2509 51.7115 53.2817 51.7115 53.3141C51.7115 53.3227 51.7115 53.3295 51.7131 53.338V53.3363H52.1976C54.6966 53.3688 57.1204 53.5481 59.5025 53.8658L59.1918 53.8317C61.8111 54.1784 64.1481 54.6976 66.4082 55.3996L66.0975 55.3159C67.3704 55.6798 68.4144 56.0555 69.4317 56.4894L69.2447 56.4176C70.4173 56.9113 71.4096 57.4322 72.3517 58.0249L72.2582 57.9703C72.7994 58.3307 73.2654 58.6859 73.7098 59.0685L73.6881 59.0497C74.1491 59.446 74.5584 59.8747 74.9292 60.3376L74.9426 60.3547C75.6008 61.1558 76 62.1977 76 63.3352C76 63.3865 76 63.4377 75.9983 63.4873V63.4804C75.9048 64.6521 75.3819 65.6838 74.5935 66.4234L74.5901 66.4268C74.0289 67.0007 73.3924 67.4978 72.6975 67.9026L72.6541 67.9265C72.026 68.2937 71.286 68.6456 70.5192 68.9393L70.4106 68.9752C70.3371 68.9974 70.2503 69.0111 70.1634 69.0111C70.0298 69.0111 69.9028 68.982 69.7892 68.9274L69.7942 68.9291C69.5854 68.8334 69.4284 68.6575 69.3566 68.4406L69.3549 68.4355C69.3131 68.3398 69.2881 68.2271 69.2881 68.1092C69.2881 67.9914 69.3131 67.8786 69.3566 67.7779L69.3549 67.783C69.4484 67.5524 69.6188 67.3714 69.8327 67.2689L69.8377 67.2672C70.1896 67.0872 70.5487 66.9147 70.9151 66.7496C71.3144 66.5686 71.6518 66.3807 71.9725 66.1689L71.9424 66.1877C72.2515 65.9981 72.5171 65.8051 72.7677 65.5933L72.756 65.6018C73.0054 65.3923 73.2499 65.1674 73.4893 64.9271C73.9052 64.5172 74.1809 63.9604 74.236 63.3404V63.3301C74.236 63.3267 74.236 63.3216 74.236 63.3164C74.236 62.6947 74.0222 62.1225 73.6647 61.675L73.668 61.6801C73.369 61.2531 73.0316 60.8842 72.6507 60.5631L72.6407 60.5545C72.2732 60.2454 71.8639 59.9482 71.4346 59.6817L71.3879 59.6544C70.4357 59.0207 69.3415 58.4451 68.1889 57.9873L68.0653 57.9446C67.1666 57.5757 65.9872 57.176 64.7828 56.8378L64.5239 56.7763C63.2622 56.4461 61.9943 56.1614 60.7203 55.9223C59.6395 55.7054 58.3198 55.5295 56.9801 55.4338L56.8715 55.427C55.8447 55.3666 54.8107 55.3165 53.7695 55.2767C52.7282 55.2368 51.6942 55.1992 50.6674 55.1639C50.6624 55.1639 50.6557 55.1639 50.6507 55.1639C50.5154 55.1639 50.3851 55.1896 50.2632 55.234L50.2715 55.2305C50.1546 55.275 50.061 55.3638 50.0093 55.4748L50.0076 55.4782L48.135 58.3443C47.5192 59.3042 46.9178 60.2642 46.3309 61.2241C46.2708 61.289 46.2307 61.3744 46.2207 61.47V61.4718C46.2156 61.5008 46.2123 61.5367 46.2123 61.5708C46.2123 61.6391 46.2223 61.7058 46.2424 61.769L46.2407 61.7638C46.7686 62.9936 47.3187 64.208 47.8911 65.4071C48.4635 66.6061 49.0866 67.783 49.7604 68.9376C50.4341 70.0923 51.1452 71.2167 51.8935 72.311C52.6419 73.4053 53.441 74.462 54.2907 75.4812C55.039 76.3676 55.7941 77.1738 56.5859 77.9408L56.6009 77.9544C57.3777 78.7077 58.233 79.3892 59.15 79.9819L59.2185 80.0229C59.6161 80.2979 60.0721 80.5541 60.5499 80.7659L60.605 80.7881C61.051 80.9879 61.5689 81.116 62.1118 81.1468H62.1235C62.1853 81.1519 62.2554 81.1553 62.3289 81.1553C62.7298 81.1553 63.1057 81.0511 63.4348 80.8701L63.4231 80.8769C63.8039 80.6497 64.1113 80.3286 64.3185 79.9443L64.3251 79.9323C64.544 79.5771 64.7177 79.1637 64.8246 78.7248L64.8313 78.6957C64.9232 78.3251 65.0084 77.8588 65.0668 77.3856L65.0735 77.3242C65.1119 76.8886 65.132 76.383 65.132 75.8723C65.132 74.8526 65.0468 73.8517 64.8831 72.8798L64.8981 72.984C64.6631 71.5595 64.3697 70.1429 64.0178 68.7344C63.6068 67.2951 63.1374 65.8859 62.6096 64.507C62.0817 63.128 61.5098 61.7627 60.894 60.4111C60.8355 60.3137 60.7854 60.2027 60.7503 60.0831L60.747 60.0729C60.7219 60.0131 60.7086 59.9431 60.7086 59.8696C60.7086 59.8218 60.7153 59.7757 60.727 59.7313V59.7347C60.727 59.7313 60.727 59.7278 60.727 59.7244C60.727 59.516 60.8105 59.3282 60.9475 59.1949C61.0844 59.0514 61.2665 58.9541 61.4703 58.9251H61.4753C61.5154 58.9182 61.5605 58.9148 61.6073 58.9148C61.7526 58.9148 61.8879 58.9524 62.0082 59.0173L62.0032 59.0156C62.1836 59.1129 62.3222 59.2684 62.3974 59.4597L62.3991 59.4648C62.604 59.9442 62.8239 60.4316 63.0589 60.9269C63.2939 61.4222 63.5138 61.9221 63.7188 62.4266C64.3346 63.9558 64.892 65.5147 65.3909 67.1032C65.8336 68.4491 66.2311 70.0837 66.5084 71.7628L66.5352 71.9609C66.6938 72.943 66.8191 74.1421 66.8826 75.3599L66.886 75.4487C66.896 75.6349 66.901 75.8552 66.901 76.0756C66.901 77.0902 66.7824 78.0774 66.5602 79.022L66.5769 78.9366C66.5179 79.1768 66.4444 79.4268 66.3564 79.6864C66.2545 79.987 66.1493 80.2347 66.0323 80.4738L66.0491 80.4362C65.6598 81.3671 64.9833 82.1101 64.1364 82.561L64.113 82.573C63.5801 82.8412 62.9537 83 62.2922 83C61.923 83 61.5655 82.9505 61.2248 82.8599L61.2532 82.8668C60.3678 82.6789 59.5827 82.3595 58.8727 81.9256L58.9078 81.9461C58.1077 81.4576 57.4261 80.976 56.7763 80.4516L56.8181 80.484C55.5686 79.4763 54.461 78.4002 53.4554 77.2285L53.4304 77.1995C52.4036 76.0004 51.4358 74.7564 50.5271 73.4674C49.6184 72.1778 48.6812 70.6833 47.8226 69.1358L47.6957 68.8881C46.8304 67.3133 46.0313 65.6866 45.2986 64.0082L45.21 63.8289L45.0597 63.5692ZM44.181 55.6507L45.2802 59.3401C45.7201 58.6205 46.1527 57.9304 46.5781 57.27C47.0035 56.6095 47.4507 55.9348 47.9195 55.2459L44.181 55.6507ZM54.1654 65.0979C54.157 65.0979 54.147 65.0979 54.1353 65.0979C53.4337 65.0979 52.7973 64.8059 52.3396 64.3327C51.8902 63.9057 51.6096 63.2977 51.6096 62.623C51.6096 62.5752 51.6112 62.529 51.6129 62.4812V62.488C51.6129 62.4761 51.6129 62.4624 51.6129 62.4488C51.6129 61.7399 51.9002 61.1011 52.3613 60.6434C52.809 60.1719 53.4337 59.8781 54.127 59.8781H54.167H54.1654H54.1954C54.897 59.8781 55.5335 60.1702 55.9912 60.6434C56.4656 61.096 56.7613 61.7399 56.7613 62.4556V62.4897V62.488V62.5205C56.7613 63.2345 56.4656 63.8784 55.9929 64.331L55.9912 64.3327C55.5318 64.8059 54.897 65.0979 54.1954 65.0979C54.1871 65.0979 54.1787 65.0979 54.1704 65.0979H54.1721H54.1654Z" fill="#FFC100"/>
<path d="M45.0597 63.5692C44.9127 63.8687 44.7807 64.146 44.6638 64.4011C44.5468 64.6561 44.4294 64.9186 44.3113 65.1885C43.7244 66.4786 43.1966 67.7904 42.7277 69.1238C42.3084 70.2648 41.9292 71.6449 41.6553 73.066L41.6269 73.2385C41.5099 74.0185 41.4292 74.7985 41.3847 75.5785C41.378 75.6998 41.3746 75.8433 41.3746 75.9868C41.3746 76.6888 41.4665 77.3703 41.6402 78.0159L41.6285 77.9613C41.7371 78.5557 42.0194 79.0698 42.4187 79.4592L42.4203 79.4609C42.8096 79.8025 43.3157 80.0143 43.8703 80.0229H43.872C43.9572 80.0331 44.0541 80.0382 44.1543 80.0382C44.3514 80.0382 44.5418 80.016 44.7256 79.975L44.7089 79.9785L45.5007 79.7991C46.2474 79.5771 46.8955 79.285 47.4986 78.9212L47.4585 78.9434C48.0598 78.5836 48.654 78.1936 49.2408 77.7734C49.3678 77.6931 49.5131 77.6248 49.6668 77.5752L49.6802 77.5718C49.742 77.553 49.8138 77.5428 49.8873 77.5428C49.9859 77.5428 50.0811 77.5616 50.168 77.5957L50.1629 77.594C50.4603 77.6965 50.6841 77.9493 50.7493 78.2636L50.7509 78.2687C50.7677 78.3268 50.776 78.3951 50.776 78.4651C50.776 78.7179 50.6541 78.9417 50.467 79.0766L50.4653 79.0783C49.61 79.7428 48.6462 80.3696 47.6305 80.9128L47.5169 80.9674C46.5314 81.4901 45.3687 81.8044 44.1342 81.8214H44.1292C44.0591 81.8266 43.9789 81.8283 43.897 81.8283C43.0267 81.8283 42.2232 81.5447 41.5667 81.0631L41.5784 81.0716C40.8618 80.5182 40.3239 79.7564 40.0466 78.8768L40.0383 78.846C39.7927 78.1816 39.634 77.413 39.5989 76.6136V76.5982C39.5923 76.4308 39.5872 76.2344 39.5872 76.0363C39.5872 75.4419 39.624 74.856 39.6925 74.2804L39.6858 74.3487C39.9681 71.9541 40.5177 69.7746 41.3095 67.7198L41.2477 67.9008C42.1715 65.472 43.0819 63.4838 44.0975 61.5623L43.9538 61.8595C44.0307 61.716 44.0791 61.5469 44.0858 61.3659V61.3641C44.0825 61.1865 44.0507 61.0157 43.9939 60.8586L43.9973 60.8688C43.7333 60.1195 43.4839 59.3697 43.2489 58.6193L42.5456 56.3698C42.539 56.2485 42.4838 56.1426 42.4003 56.0709C42.3435 56.0436 42.2767 56.0282 42.2065 56.0282C42.1581 56.0282 42.1113 56.035 42.0679 56.0487L42.0712 56.047C41.0745 56.2873 40.0917 56.5645 39.1229 56.8788C38.0588 57.229 37.1417 57.6474 36.2797 58.1547L36.3499 58.1171C35.974 58.3426 35.65 58.5732 35.3459 58.826L35.361 58.814C35.0336 59.0873 34.7396 59.3589 34.4589 59.6458C34.0647 60.0404 33.8058 60.5716 33.7557 61.166V61.1746V61.2395C33.7557 61.8287 33.9544 62.3719 34.2885 62.7989L34.2852 62.7938C34.5992 63.2942 34.9784 63.7178 35.4178 64.068L35.4295 64.0765C35.8693 64.4216 36.3237 64.7438 36.7926 65.0433C36.9685 65.1332 37.13 65.2232 37.277 65.3132L37.7163 65.583C37.9268 65.7094 38.0872 65.9058 38.169 66.1381L38.1707 66.145C38.1974 66.2201 38.2125 66.3089 38.2125 66.3995C38.2125 66.5464 38.1724 66.683 38.1022 66.8009L38.1039 66.7974C38.0036 67.0195 37.8132 67.1852 37.581 67.2467L37.576 67.2484C37.5042 67.2672 37.424 67.2774 37.3388 67.2774C37.1684 67.2774 37.0064 67.233 36.8661 67.1561L36.8711 67.1596C36.1344 66.794 35.5046 66.408 34.9133 65.9708L34.9517 65.9981C34.3253 65.5386 33.7774 65.0347 33.2879 64.4779L33.2796 64.4677C32.9856 64.1175 32.7233 63.7247 32.5045 63.3028L32.4878 63.2686C32.2907 62.8843 32.1386 62.4402 32.0518 61.9705L32.0468 61.9415C32.0167 61.7587 32 61.5486 32 61.3351C32 60.9457 32.0568 60.5682 32.162 60.2146L32.1554 60.242C32.3358 59.6561 32.598 59.1488 32.9338 58.7013L32.9254 58.7133C33.2846 58.2265 33.6905 57.8046 34.1432 57.4425L34.1582 57.4305C34.5942 57.0787 35.0837 56.7575 35.6032 56.4877L35.6533 56.4638C36.4635 56.0094 37.4156 55.5841 38.4062 55.2408L38.5349 55.2015C39.5126 54.8713 40.5171 54.5866 41.5484 54.3475C41.6135 54.3236 41.6937 54.3014 41.7772 54.2826L41.7906 54.2809C41.8875 54.2604 41.9677 54.2365 42.0462 54.2091L42.0311 54.2143C41.9721 53.9444 41.9231 53.6745 41.8841 53.4046C41.8452 53.1348 41.8084 52.8649 41.7739 52.595C41.6135 51.6231 41.4949 50.4617 41.4465 49.2814L41.4448 49.2216C41.4398 49.0952 41.4364 48.9449 41.4364 48.7963C41.4364 47.763 41.5751 46.7637 41.8374 45.8158L41.819 45.8926C41.9142 45.4058 42.0512 44.9771 42.2299 44.5723L42.2149 44.6099C42.4087 44.1709 42.6442 43.7935 42.9248 43.4553L42.9198 43.4621C43.4276 42.8352 44.1075 42.3706 44.886 42.1469L44.9144 42.1401C45.2618 42.0512 45.6594 42 46.0686 42C46.5096 42 46.939 42.0598 47.3449 42.1708L47.3098 42.1623C48.1985 42.3826 48.9819 42.7242 49.6919 43.1717L49.6568 43.1512C50.4603 43.6568 51.1418 44.147 51.7933 44.6731L51.7465 44.6372C51.9136 44.7961 52.0222 45.0181 52.0389 45.2641V45.2675C52.0405 45.2846 52.0405 45.3034 52.0405 45.3222C52.0405 45.5493 51.947 45.7526 51.7967 45.8978C51.663 46.0669 51.4709 46.183 51.2504 46.212H51.2454C51.2153 46.2155 51.1786 46.2189 51.1435 46.2189C50.9414 46.2189 50.7543 46.1489 50.6056 46.031L50.6073 46.0327C50.2554 45.7924 49.9179 45.5527 49.595 45.3136C49.311 45.0984 48.9803 44.8764 48.6395 44.6697L48.5844 44.6389C48.2369 44.4169 47.8377 44.2188 47.4167 44.0667L47.3733 44.0531C46.9724 43.9096 46.5096 43.8276 46.0269 43.8276C46.0135 43.8276 45.9985 43.8276 45.9851 43.8276H45.9868C45.9801 43.8276 45.9718 43.8276 45.9634 43.8276C45.5976 43.8276 45.2518 43.9198 44.9478 44.0804L44.9595 44.0753C44.6404 44.2529 44.3798 44.504 44.1944 44.808L44.1894 44.8166C43.9121 45.1787 43.6999 45.6074 43.5797 46.0737L43.5746 46.0976C43.4711 46.487 43.3775 46.9687 43.3157 47.4589L43.3107 47.5153C43.2506 48.0089 43.2172 48.5794 43.2172 49.1584C43.2172 49.6657 43.2439 50.1645 43.294 50.6581L43.289 50.5966C43.4059 51.7717 43.5696 52.8068 43.7851 53.8231L43.7517 53.6335V53.6489C43.7517 53.724 43.7868 53.7907 43.8402 53.8351C43.897 53.8778 43.9689 53.9034 44.0474 53.9034H44.0607C44.8815 53.8134 45.6883 53.7309 46.4812 53.6557C47.2742 53.5806 48.066 53.5128 48.8566 53.4525C49.0203 53.4268 49.169 53.3807 49.306 53.3141L49.296 53.3175C49.4363 53.2373 49.5532 53.1314 49.6451 53.005L49.6468 53.0015C50.7259 51.589 51.7916 50.3353 52.9159 49.1414L52.9025 49.1567C54.0368 47.9543 55.2579 46.8543 56.5625 45.8619L56.641 45.8038C57.2992 45.2863 58.0459 44.767 58.821 44.2905L58.9295 44.229C59.6629 43.7781 60.5098 43.3938 61.4035 43.1239L61.482 43.1034C61.9815 42.9343 62.5595 42.8216 63.1591 42.7891H63.1759C63.236 42.7857 63.3078 42.784 63.378 42.784C63.9292 42.784 64.4571 42.8848 64.9449 43.0692L64.9131 43.059C65.588 43.2759 66.156 43.6756 66.5803 44.2L66.5853 44.2068C66.9929 44.7346 67.3103 45.358 67.5007 46.0361L67.509 46.0737C67.7329 46.7586 67.8615 47.5477 67.8615 48.3659V48.3676V48.3864C67.8615 49.1875 67.8131 49.9783 67.7212 50.7537L67.7295 50.6615C67.7006 50.871 67.6711 51.0709 67.641 51.261C67.6043 51.4968 67.5575 51.6983 67.5007 51.8964L67.509 51.8606C67.4857 52.0963 67.3604 52.2961 67.1816 52.4208L67.1783 52.4225C67.038 52.5233 66.8626 52.5831 66.6738 52.5831C66.627 52.5831 66.5803 52.5797 66.5352 52.5728H66.5402C66.308 52.5472 66.1075 52.4311 65.9689 52.2602L65.9672 52.2585C65.8519 52.1116 65.7801 51.9238 65.7801 51.7188C65.7801 51.671 65.7834 51.6249 65.7918 51.5787V51.5839C65.8208 51.224 65.8647 50.8568 65.9238 50.4822C65.9789 50.1508 66.0106 49.7699 66.0123 49.3805C66.0257 49.1823 66.034 48.9501 66.034 48.7178C66.034 48.4855 66.0257 48.2532 66.0106 48.0226L66.0123 48.0533C65.9772 47.5563 65.9154 47.1019 65.8252 46.6596L65.8369 46.7279C65.7333 45.9575 65.3057 45.3068 64.7027 44.9122L64.6926 44.9054C64.3017 44.697 63.8374 44.574 63.3462 44.574C63.0422 44.574 62.7482 44.6219 62.4709 44.709L62.4926 44.7038C61.7777 44.8627 61.1446 45.095 60.5549 45.4007L60.6 45.3785C60.0131 45.678 59.4268 46.0077 58.841 46.3675C57.6399 47.1908 56.5909 48.0499 55.617 48.9876L55.6287 48.9757C54.632 49.9356 53.6787 50.9405 52.7689 51.9904C52.5929 52.1703 52.417 52.365 52.241 52.5745C52.065 52.784 51.9036 52.9788 51.7566 53.1587V53.1655C51.7566 53.1894 51.7482 53.2099 51.7348 53.2253C51.7198 53.2509 51.7115 53.2817 51.7115 53.3141C51.7115 53.3227 51.7115 53.3295 51.7131 53.338V53.3363H52.1976C54.6966 53.3688 57.1204 53.5481 59.5025 53.8658L59.1918 53.8317C61.8111 54.1784 64.1481 54.6976 66.4082 55.3996L66.0975 55.3159C67.3704 55.6798 68.4144 56.0555 69.4317 56.4894L69.2447 56.4176C70.4173 56.9113 71.4096 57.4322 72.3517 58.0249L72.2582 57.9703C72.7994 58.3307 73.2654 58.6859 73.7098 59.0685L73.6881 59.0497C74.1491 59.446 74.5584 59.8747 74.9292 60.3376L74.9426 60.3547C75.6008 61.1558 76 62.1977 76 63.3352C76 63.3865 76 63.4377 75.9983 63.4873V63.4804C75.9048 64.6521 75.3819 65.6838 74.5935 66.4234L74.5901 66.4268C74.0289 67.0007 73.3924 67.4978 72.6975 67.9026L72.6541 67.9265C72.026 68.2937 71.286 68.6456 70.5192 68.9393L70.4106 68.9752C70.3371 68.9974 70.2503 69.0111 70.1634 69.0111C70.0298 69.0111 69.9028 68.982 69.7892 68.9274L69.7942 68.9291C69.5854 68.8334 69.4284 68.6575 69.3566 68.4406L69.3549 68.4355C69.3131 68.3398 69.2881 68.2271 69.2881 68.1092C69.2881 67.9914 69.3131 67.8786 69.3566 67.7779L69.3549 67.783C69.4484 67.5524 69.6188 67.3714 69.8327 67.2689L69.8377 67.2672C70.1896 67.0872 70.5487 66.9147 70.9151 66.7496C71.3144 66.5686 71.6518 66.3807 71.9725 66.1689L71.9424 66.1877C72.2515 65.9981 72.5171 65.8051 72.7677 65.5933L72.756 65.6018C73.0054 65.3923 73.2499 65.1674 73.4893 64.9271C73.9052 64.5172 74.1809 63.9604 74.236 63.3404V63.3301C74.236 63.3267 74.236 63.3216 74.236 63.3164C74.236 62.6947 74.0222 62.1225 73.6647 61.675L73.668 61.6801C73.369 61.2531 73.0316 60.8842 72.6507 60.5631L72.6407 60.5545C72.2732 60.2454 71.8639 59.9482 71.4346 59.6817L71.3879 59.6544C70.4357 59.0207 69.3415 58.4451 68.1889 57.9873L68.0653 57.9446C67.1666 57.5757 65.9872 57.176 64.7828 56.8378L64.5239 56.7763C63.2622 56.4461 61.9943 56.1614 60.7203 55.9223C59.6395 55.7054 58.3198 55.5295 56.9801 55.4338L56.8715 55.427C55.8447 55.3666 54.8107 55.3165 53.7695 55.2767C52.7282 55.2368 51.6942 55.1992 50.6674 55.1639C50.6624 55.1639 50.6557 55.1639 50.6507 55.1639C50.5154 55.1639 50.3851 55.1896 50.2632 55.234L50.2715 55.2305C50.1546 55.275 50.061 55.3638 50.0093 55.4748L50.0076 55.4782L48.135 58.3443C47.5192 59.3042 46.9178 60.2642 46.3309 61.2241C46.2708 61.289 46.2307 61.3744 46.2207 61.47V61.4718C46.2156 61.5008 46.2123 61.5367 46.2123 61.5708C46.2123 61.6391 46.2223 61.7058 46.2424 61.769L46.2407 61.7638C46.7686 62.9936 47.3187 64.208 47.8911 65.4071C48.4635 66.6061 49.0866 67.783 49.7604 68.9376C50.4341 70.0923 51.1452 71.2167 51.8935 72.311C52.6419 73.4053 53.441 74.462 54.2907 75.4812C55.039 76.3676 55.7941 77.1738 56.5859 77.9408L56.6009 77.9544C57.3777 78.7077 58.233 79.3892 59.15 79.9819L59.2185 80.0229C59.6161 80.2979 60.0721 80.5541 60.5499 80.7659L60.605 80.7881C61.051 80.9879 61.5689 81.116 62.1118 81.1468H62.1235C62.1853 81.1519 62.2554 81.1553 62.3289 81.1553C62.7298 81.1553 63.1057 81.0511 63.4348 80.8701L63.4231 80.8769C63.8039 80.6497 64.1113 80.3286 64.3185 79.9443L64.3251 79.9323C64.544 79.5771 64.7177 79.1637 64.8246 78.7248L64.8313 78.6957C64.9232 78.3251 65.0084 77.8588 65.0668 77.3856L65.0735 77.3242C65.1119 76.8886 65.132 76.383 65.132 75.8723C65.132 74.8526 65.0468 73.8517 64.8831 72.8798L64.8981 72.984C64.6631 71.5595 64.3697 70.1429 64.0178 68.7344C63.6068 67.2951 63.1374 65.8859 62.6096 64.507C62.0817 63.128 61.5098 61.7627 60.894 60.4111C60.8355 60.3137 60.7854 60.2027 60.7503 60.0831L60.747 60.0729C60.7219 60.0131 60.7086 59.9431 60.7086 59.8696C60.7086 59.8218 60.7153 59.7757 60.727 59.7313V59.7347C60.727 59.7313 60.727 59.7278 60.727 59.7244C60.727 59.516 60.8105 59.3282 60.9475 59.1949C61.0844 59.0514 61.2665 58.9541 61.4703 58.9251H61.4753C61.5154 58.9182 61.5605 58.9148 61.6073 58.9148C61.7526 58.9148 61.8879 58.9524 62.0082 59.0173L62.0032 59.0156C62.1836 59.1129 62.3222 59.2684 62.3974 59.4597L62.3991 59.4648C62.604 59.9442 62.8239 60.4316 63.0589 60.9269C63.2939 61.4222 63.5138 61.9221 63.7188 62.4266C64.3346 63.9558 64.892 65.5147 65.3909 67.1032C65.8336 68.4491 66.2311 70.0837 66.5084 71.7628L66.5352 71.9609C66.6938 72.943 66.8191 74.1421 66.8826 75.3599L66.886 75.4487C66.896 75.6349 66.901 75.8552 66.901 76.0756C66.901 77.0902 66.7824 78.0774 66.5602 79.022L66.5769 78.9366C66.5179 79.1768 66.4444 79.4268 66.3564 79.6864C66.2545 79.987 66.1493 80.2347 66.0323 80.4738L66.0491 80.4362C65.6598 81.3671 64.9833 82.1101 64.1364 82.561L64.113 82.573C63.5801 82.8412 62.9537 83 62.2922 83C61.923 83 61.5655 82.9505 61.2248 82.8599L61.2532 82.8668C60.3678 82.6789 59.5827 82.3595 58.8727 81.9256L58.9078 81.9461C58.1077 81.4576 57.4261 80.976 56.7763 80.4516L56.8181 80.484C55.5686 79.4763 54.461 78.4002 53.4554 77.2285L53.4304 77.1995C52.4036 76.0004 51.4358 74.7564 50.5271 73.4674C49.6184 72.1778 48.6812 70.6833 47.8226 69.1358L47.6957 68.8881C46.8304 67.3133 46.0313 65.6866 45.2986 64.0082L45.21 63.8289L45.0597 63.5692ZM44.181 55.6507L45.2802 59.3401C45.7201 58.6205 46.1527 57.9304 46.5781 57.27C47.0035 56.6095 47.4507 55.9348 47.9195 55.2459L44.181 55.6507ZM54.1654 65.0979C54.157 65.0979 54.147 65.0979 54.1353 65.0979C53.4337 65.0979 52.7973 64.8059 52.3396 64.3327C51.8902 63.9057 51.6096 63.2977 51.6096 62.623C51.6096 62.5752 51.6112 62.529 51.6129 62.4812V62.488C51.6129 62.4761 51.6129 62.4624 51.6129 62.4488C51.6129 61.7399 51.9002 61.1011 52.3613 60.6434C52.809 60.1719 53.4337 59.8781 54.127 59.8781H54.167H54.1654H54.1954C54.897 59.8781 55.5335 60.1702 55.9912 60.6434C56.4656 61.096 56.7613 61.7399 56.7613 62.4556V62.4897V62.488V62.5205C56.7613 63.2345 56.4656 63.8784 55.9929 64.331L55.9912 64.3327C55.5318 64.8059 54.897 65.0979 54.1954 65.0979C54.1871 65.0979 54.1787 65.0979 54.1704 65.0979H54.1721H54.1654Z" stroke="#182F43" stroke-width="2" mask="url(#path-1-outside-1_323_3993)"/>
<path d="M58.97 19.2331L59.25 19.2669V18.9849V18.0141V17.7283L58.9667 17.7664L57.4074 17.9759L58.4125 16.6359L58.582 16.4099L58.3371 16.2691L57.4919 15.7833L57.2485 15.6433L57.1376 15.9013L56.4912 17.4056L55.8359 15.9134L55.7233 15.6571L55.4813 15.7979L54.6204 16.2986L54.3759 16.4409L54.5472 16.6661L55.5338 17.9633L54.0325 17.7663L53.75 17.7292V18.0141V18.9849V19.2695L54.0322 19.2328L55.5443 19.0364L54.5479 20.333L54.382 20.5488L54.6112 20.6958L55.4143 21.2105L55.6572 21.3662L55.7767 21.1035L56.4714 19.5768L57.1076 21.0824L57.2179 21.3433L57.4631 21.2015L58.3515 20.6877L58.6015 20.5432L58.4226 20.3165L57.42 19.0459L58.97 19.2331Z" fill="#FFC100" stroke="#182F43" stroke-width="0.5"/>
<path d="M27.2709 20.6552C27.7228 20.6552 28.1644 20.5187 28.5401 20.2629C28.9158 20.0071 29.2086 19.6436 29.3815 19.2183C29.5544 18.793 29.5997 18.325 29.5115 17.8735C29.4234 17.422 29.2058 17.0073 28.8863 16.6817C28.5668 16.3562 28.1598 16.1345 27.7166 16.0447C27.2735 15.9549 26.8141 16.001 26.3967 16.1772C25.9793 16.3533 25.6225 16.6517 25.3715 17.0344C25.1204 17.4172 24.9865 17.8672 24.9865 18.3276C24.9871 18.9447 25.228 19.5363 25.6563 19.9727C26.0846 20.409 26.6653 20.6545 27.2709 20.6552ZM27.2709 17.1638C27.4968 17.1638 27.7177 17.232 27.9055 17.3599C28.0934 17.4878 28.2398 17.6696 28.3262 17.8822C28.4127 18.0949 28.4353 18.3289 28.3912 18.5546C28.3471 18.7804 28.2384 18.9878 28.0786 19.1505C27.9189 19.3133 27.7153 19.4241 27.4938 19.469C27.2722 19.5139 27.0425 19.4909 26.8338 19.4028C26.6251 19.3147 26.4467 19.1655 26.3212 18.9742C26.1957 18.7828 26.1287 18.5578 26.1287 18.3276C26.129 18.019 26.2494 17.7232 26.4636 17.505C26.6777 17.2868 26.9681 17.1641 27.2709 17.1638ZM86.4354 41.234C86.1341 41.234 85.8397 41.325 85.5892 41.4955C85.3388 41.666 85.1436 41.9084 85.0283 42.1919C84.913 42.4755 84.8829 42.7875 84.9416 43.0885C85.0004 43.3895 85.1454 43.666 85.3584 43.883C85.5714 44.1 85.8428 44.2478 86.1382 44.3077C86.4337 44.3675 86.7399 44.3368 87.0182 44.2194C87.2965 44.1019 87.5343 43.903 87.7017 43.6478C87.869 43.3927 87.9583 43.0927 87.9583 42.7858C87.9579 42.3744 87.7973 41.9799 87.5118 41.689C87.2262 41.3981 86.8391 41.2345 86.4354 41.234ZM86.4354 43.5616C86.2848 43.5616 86.1375 43.5161 86.0123 43.4309C85.8871 43.3456 85.7895 43.2244 85.7318 43.0827C85.6742 42.9409 85.6591 42.7849 85.6885 42.6344C85.7179 42.4839 85.7904 42.3456 85.8969 42.2371C86.0034 42.1286 86.1391 42.0547 86.2868 42.0248C86.4345 41.9949 86.5876 42.0102 86.7268 42.0689C86.8659 42.1277 86.9848 42.2271 87.0685 42.3547C87.1522 42.4823 87.1968 42.6323 87.1968 42.7858C87.1966 42.9915 87.1163 43.1887 86.9736 43.3341C86.8308 43.4796 86.6373 43.5614 86.4354 43.5616ZM86.4354 17.9397C86.1341 17.9397 85.8397 18.0307 85.5892 18.2012C85.3388 18.3717 85.1436 18.614 85.0283 18.8976C84.913 19.1811 84.8829 19.4931 84.9416 19.7941C85.0004 20.0951 85.1454 20.3716 85.3584 20.5886C85.5714 20.8056 85.8428 20.9534 86.1382 21.0133C86.4337 21.0732 86.7399 21.0424 87.0182 20.925C87.2965 20.8075 87.5343 20.6087 87.7017 20.3535C87.869 20.0983 87.9583 19.7983 87.9583 19.4914C87.9579 19.08 87.7973 18.6856 87.5118 18.3947C87.2262 18.1038 86.8391 17.9401 86.4354 17.9397ZM86.4354 20.2672C86.2848 20.2672 86.1375 20.2217 86.0123 20.1365C85.8871 20.0512 85.7895 19.9301 85.7318 19.7883C85.6742 19.6465 85.6591 19.4905 85.6885 19.34C85.7179 19.1895 85.7904 19.0513 85.8969 18.9428C86.0034 18.8343 86.1391 18.7604 86.2868 18.7304C86.4345 18.7005 86.5876 18.7159 86.7268 18.7746C86.8659 18.8333 86.9848 18.9327 87.0685 19.0603C87.1522 19.1879 87.1968 19.3379 87.1968 19.4914C87.1966 19.6971 87.1163 19.8943 86.9736 20.0398C86.8308 20.1852 86.6373 20.267 86.4354 20.2672ZM97.477 57.8965C97.1758 57.8965 96.8813 57.9876 96.6309 58.1581C96.3804 58.3286 96.1852 58.5709 96.0699 58.8545C95.9547 59.138 95.9245 59.45 95.9833 59.751C96.0421 60.052 96.1871 60.3285 96.4001 60.5455C96.6131 60.7625 96.8845 60.9103 97.1799 60.9702C97.4753 61.0301 97.7815 60.9993 98.0598 60.8819C98.3381 60.7644 98.576 60.5655 98.7433 60.3104C98.9107 60.0552 99 59.7552 99 59.4483C98.9995 59.0369 98.8389 58.6425 98.5534 58.3516C98.2679 58.0607 97.8808 57.897 97.477 57.8965ZM97.477 60.2241C97.3264 60.2241 97.1792 60.1786 97.0539 60.0934C96.9287 60.0081 96.8311 59.887 96.7735 59.7452C96.7158 59.6034 96.7008 59.4474 96.7301 59.2969C96.7595 59.1464 96.8321 59.0082 96.9386 58.8997C97.0451 58.7911 97.1807 58.7173 97.3285 58.6873C97.4762 58.6574 97.6293 58.6727 97.7684 58.7315C97.9076 58.7902 98.0265 58.8896 98.1102 59.0172C98.1938 59.1448 98.2385 59.2948 98.2385 59.4483C98.2383 59.654 98.158 59.8512 98.0152 59.9967C97.8725 60.1421 97.6789 60.2239 97.477 60.2241ZM10.046 43.0901C10.046 42.7832 9.95665 42.4832 9.78931 42.228C9.62196 41.9728 9.3841 41.7739 9.10581 41.6565C8.82752 41.539 8.5213 41.5083 8.22587 41.5682C7.93044 41.6281 7.65907 41.7758 7.44607 41.9929C7.23308 42.2099 7.08803 42.4864 7.02926 42.7874C6.9705 43.0884 7.00066 43.4004 7.11593 43.6839C7.2312 43.9675 7.42641 44.2098 7.67686 44.3803C7.92731 44.5508 8.22177 44.6418 8.52299 44.6418C8.92677 44.6413 9.31388 44.4777 9.59939 44.1868C9.88491 43.8959 10.0455 43.5015 10.046 43.0901ZM7.76149 43.0901C7.76149 42.9366 7.80615 42.7866 7.88983 42.659C7.9735 42.5315 8.09243 42.432 8.23158 42.3733C8.37072 42.3146 8.52383 42.2992 8.67155 42.3291C8.81926 42.3591 8.95495 42.433 9.06144 42.5415C9.16794 42.65 9.24047 42.7882 9.26985 42.9387C9.29923 43.0892 9.28415 43.2452 9.22651 43.387C9.16888 43.5288 9.07128 43.6499 8.94605 43.7352C8.82082 43.8204 8.6736 43.866 8.52299 43.866C8.32109 43.8657 8.12752 43.7839 7.98475 43.6385C7.84199 43.493 7.7617 43.2958 7.76149 43.0901Z" fill="#182F43"/>
<path d="M12.0621 68.9629L10.5608 68.7664L10.2783 68.7294V69.0142V69.9858V70.2704L10.5606 70.2337L12.0719 70.0371L11.0764 71.3327L10.9105 71.5485L11.1397 71.6955L11.9427 72.2104L12.1857 72.3663L12.3052 72.1035L12.9997 70.5771L13.6362 72.0827L13.7465 72.3437L13.9917 72.2017L14.8794 71.6877L15.1291 71.5431L14.9504 71.3165L13.9488 70.0463L15.4983 70.2339L15.7783 70.2679V69.9858V69.0142V68.7285L15.4951 68.7665L13.936 68.9753L14.9406 67.6357L15.1101 67.4097L14.8652 67.269L14.0198 66.7832L13.7764 66.6433L13.6656 66.9013L13.0196 68.4053L12.3642 66.9132L12.2516 66.6569L12.0096 66.7976L11.149 67.2979L10.9044 67.4401L11.0756 67.6654L12.0621 68.9629Z" fill="#FFC100" stroke="#182F43" stroke-width="0.5"/>
<path d="M83.4836 84.9013L82.4887 87.218L81.4783 84.919L81.3657 84.6628L81.1237 84.8035L79.9186 85.5044L79.6741 85.6467L79.8453 85.8718L81.3705 87.8782L79.0324 87.5724L78.75 87.5354V87.8202V89.1798V89.4645L79.0323 89.4277L81.3875 89.1204L79.846 91.1272L79.6801 91.3431L79.9094 91.49L81.0341 92.2105L81.2771 92.3662L81.3965 92.1035L82.4634 89.7577L83.4444 92.0763L83.5547 92.3371L83.7998 92.1952L85.0422 91.4762L85.292 91.3316L85.1133 91.105L83.5598 89.1356L85.9699 89.4279L86.25 89.4619V89.1798V87.8202V87.5345L85.9668 87.5725L83.5484 87.8965L85.0977 85.8297L85.2672 85.6036L85.0221 85.4629L83.8378 84.7832L83.5944 84.6435L83.4836 84.9013Z" fill="#FFC100" stroke="#182F43" stroke-width="0.5"/>
</svg>
