<svg width="105" height="105" viewBox="0 0 105 105" fill="none" xmlns="http://www.w3.org/2000/svg">
<path d="M28.8425 69.0605H22.9279C22.3004 69.0605 21.6986 69.3098 21.255 69.7535C20.8113 70.1972 20.562 70.7989 20.562 71.4264V77.341C20.562 77.9685 20.8113 78.5703 21.255 79.0139C21.6986 79.4576 22.3004 79.7069 22.9279 79.7069H28.8425C29.47 79.7069 30.0717 79.4576 30.5154 79.0139C30.9591 78.5703 31.2084 77.9685 31.2084 77.341V71.4264C31.2084 70.7989 30.9591 70.1972 30.5154 69.7535C30.0717 69.3098 29.47 69.0605 28.8425 69.0605ZM28.8425 77.341H22.9279V71.4264H28.8425V77.341Z" fill="#182F43"/>
<path d="M41.8518 69.0605H35.9371C35.3097 69.0605 34.7079 69.3098 34.2642 69.7535C33.8205 70.1972 33.5713 70.7989 33.5713 71.4264V77.341C33.5713 77.9685 33.8205 78.5703 34.2642 79.0139C34.7079 79.4576 35.3097 79.7069 35.9371 79.7069H41.8518C42.4792 79.7069 43.081 79.4576 43.5247 79.0139C43.9684 78.5703 44.2176 77.9685 44.2176 77.341V71.4264C44.2176 70.7989 43.9684 70.1972 43.5247 69.7535C43.081 69.3098 42.4792 69.0605 41.8518 69.0605ZM41.8518 77.341H35.9371V71.4264H41.8518V77.341Z" fill="#FFC100" stroke="#182F43"/>
<path d="M46.5874 77.341C46.5874 77.9685 46.8367 78.5703 47.2803 79.0139C47.724 79.4576 48.3258 79.7069 48.9533 79.7069H54.8679C55.4954 79.7069 56.0971 79.4576 56.5408 79.0139C56.9845 78.5703 57.2337 77.9685 57.2337 77.341V71.4264C57.2337 70.7989 56.9845 70.1972 56.5408 69.7535C56.0971 69.3098 55.4954 69.0605 54.8679 69.0605H48.9533C48.3258 69.0605 47.724 69.3098 47.2803 69.7535C46.8367 70.1972 46.5874 70.7989 46.5874 71.4264V77.341ZM48.9533 71.4264H54.8679V77.341H48.9533V71.4264Z" fill="#182F43"/>
<path d="M31.2083 58.4147C31.2083 57.7872 30.959 57.1855 30.5153 56.7418C30.0717 56.2981 29.4699 56.0488 28.8424 56.0488H22.9278C22.3003 56.0488 21.6986 56.2981 21.2549 56.7418C20.8112 57.1855 20.562 57.7872 20.562 58.4147V64.3293C20.562 64.9568 20.8112 65.5585 21.2549 66.0022C21.6986 66.4459 22.3003 66.6952 22.9278 66.6952H28.8424C29.4699 66.6952 30.0717 66.4459 30.5153 66.0022C30.959 65.5585 31.2083 64.9568 31.2083 64.3293V58.4147ZM28.8424 64.3293H22.9278V58.4147H28.8424V64.3293Z" fill="#FFC100" stroke="#182F43"/>
<path d="M44.2206 58.4142C44.2206 57.7867 43.9713 57.1849 43.5276 56.7413C43.0839 56.2976 42.4822 56.0483 41.8547 56.0483H35.9401C35.3126 56.0483 34.7108 56.2976 34.2672 56.7413C33.8235 57.1849 33.5742 57.7867 33.5742 58.4142V64.3288C33.5742 64.9563 33.8235 65.558 34.2672 66.0017C34.7108 66.4454 35.3126 66.6947 35.9401 66.6947H41.8547C42.4822 66.6947 43.0839 66.4454 43.5276 66.0017C43.9713 65.558 44.2206 64.9563 44.2206 64.3288V58.4142ZM41.8547 64.3288H35.9401V58.4142H41.8547V64.3288ZM31.2084 45.402C31.2084 44.7745 30.9591 44.1728 30.5154 43.7291C30.0717 43.2854 29.47 43.0361 28.8425 43.0361H22.9279C22.3004 43.0361 21.6986 43.2854 21.255 43.7291C20.8113 44.1728 20.562 44.7745 20.562 45.402V51.3166C20.562 51.9441 20.8113 52.5458 21.255 52.9895C21.6986 53.4332 22.3004 53.6825 22.9279 53.6825H28.8425C29.47 53.6825 30.0717 53.4332 30.5154 52.9895C30.9591 52.5458 31.2084 51.9441 31.2084 51.3166V45.402ZM28.8425 51.3166H22.9279V45.402H28.8425V51.3166Z" fill="#182F43"/>
<path d="M31.2083 32.3903C31.2083 31.7628 30.959 31.161 30.5153 30.7174C30.0717 30.2737 29.4699 30.0244 28.8424 30.0244H22.9278C22.3003 30.0244 21.6986 30.2737 21.2549 30.7174C20.8112 31.161 20.562 31.7628 20.562 32.3903V38.3049C20.562 38.9324 20.8112 39.5341 21.2549 39.9778C21.6986 40.4215 22.3003 40.6708 22.9278 40.6708H28.8424C29.4699 40.6708 30.0717 40.4215 30.5153 39.9778C30.959 39.5341 31.2083 38.9324 31.2083 38.3049V32.3903ZM28.8424 38.3049H22.9278V32.3903H28.8424V38.3049Z" fill="#FFC100" stroke="#182F43"/>
<path d="M44.2177 32.3903C44.2177 31.7628 43.9685 31.161 43.5248 30.7174C43.0811 30.2737 42.4794 30.0244 41.8519 30.0244H35.9373C35.3098 30.0244 34.708 30.2737 34.2644 30.7174C33.8207 31.161 33.5714 31.7628 33.5714 32.3903V38.3049C33.5714 38.9324 33.8207 39.5341 34.2644 39.9778C34.708 40.4215 35.3098 40.6708 35.9373 40.6708H41.8519C42.1819 40.6701 42.5081 40.6 42.8092 40.465C43.1103 40.33 43.3797 40.133 43.5997 39.8871C42.9554 38.516 42.8657 36.949 43.3493 35.5134L44.0915 33.3329C44.1269 33.229 44.177 33.1339 44.2177 33.0331L44.2177 32.3903ZM41.8519 38.3049H35.9373V32.3903H41.8519V38.3049Z" fill="#182F43"/>
<path d="M44.2176 45.402C44.2176 44.7745 43.9684 44.1728 43.5247 43.7291C43.081 43.2854 42.4792 43.0361 41.8518 43.0361H35.9371C35.3097 43.0361 34.7079 43.2854 34.2642 43.7291C33.8205 44.1728 33.5713 44.7745 33.5713 45.402V51.3166C33.5713 51.9441 33.8205 52.5458 34.2642 52.9895C34.7079 53.4332 35.3097 53.6825 35.9371 53.6825H41.8518C42.4043 53.682 42.9393 53.488 43.3636 53.1341C43.788 52.7801 44.0749 52.2887 44.1745 51.7452C43.7206 50.4455 43.7358 49.0279 44.2176 47.7383V45.402ZM41.8518 51.3166H35.9371V45.402H41.8518V51.3166ZM51.3189 58.4142C51.1036 58.1987 50.8887 57.9827 50.6819 57.7583C49.4875 57.7445 48.3255 57.369 47.3488 56.6815C47.1081 56.9015 46.9158 57.1691 46.784 57.4674C46.6523 57.7657 46.584 58.0881 46.5835 58.4142V64.3288C46.5835 64.9563 46.8327 65.558 47.2764 66.0017C47.7201 66.4454 48.3219 66.6947 48.9493 66.6947H54.864C55.3511 66.6937 55.8259 66.542 56.2234 66.2603C56.6208 65.9787 56.9213 65.5809 57.0837 65.1217C56.14 64.5628 55.3712 63.7514 54.864 62.779V64.3288H48.9493V58.4142H51.3189Z" fill="#FFC100" stroke="#182F43"/>
<path d="M58.374 21.7235L56.3072 22.7405C55.5762 23.1014 54.9927 23.7042 54.6558 24.4466C54.3189 25.189 54.2494 26.0251 54.4591 26.8129C52.7584 28.2076 51.2969 29.871 50.1326 31.7371C49.3244 31.6307 48.5043 31.8073 47.8116 32.237C47.1188 32.6667 46.5962 33.3229 46.3325 34.0943L45.5901 36.2748C45.3284 37.0469 45.3421 37.8857 45.6287 38.6488C45.9154 39.412 46.4574 40.0523 47.1627 40.4611C46.9465 42.65 47.0895 44.8595 47.5859 47.0023C46.9391 47.4984 46.484 48.2033 46.2979 48.997C46.1119 49.7907 46.2063 50.6243 46.5652 51.3563L47.5823 53.4232C47.9426 54.1548 48.5454 54.7389 49.2881 55.076C50.0307 55.4131 50.8672 55.4823 51.6552 55.2718C53.0499 56.9723 54.713 58.4335 56.5789 59.5977C56.4725 60.4059 56.6491 61.226 57.0788 61.9188C57.5085 62.6115 58.1647 63.1341 58.9361 63.3978L61.1166 64.1402C61.8887 64.4019 62.7275 64.3883 63.4906 64.1016C64.2538 63.8149 64.8941 63.2729 65.3029 62.5676C65.8856 62.6252 66.4701 62.6554 67.0546 62.6621L66.1088 60.2554C65.3207 60.2029 64.5369 60.098 63.7627 59.9413L63.3423 61.1764C63.2935 61.3195 63.2171 61.4517 63.1173 61.5653C63.0174 61.679 62.8962 61.7718 62.7605 61.8386C62.6248 61.9054 62.4773 61.9448 62.3263 61.9545C62.1754 61.9643 62.024 61.9442 61.8808 61.8955L59.7002 61.1531C59.4111 61.0547 59.1729 60.8454 59.038 60.5713C58.9032 60.2972 58.8827 59.9808 58.9811 59.6916L59.4016 58.4566C56.5723 57.0684 54.1634 54.9522 52.4223 52.3252L51.2518 52.9012C50.9777 53.036 50.6613 53.0565 50.3722 52.958C50.083 52.8596 49.8448 52.6503 49.7099 52.3763L48.6929 50.3095C48.5581 50.0354 48.5376 49.719 48.6361 49.4298C48.7345 49.1406 48.9438 48.9024 49.2179 48.7676L50.3883 48.1916C49.3694 45.2093 49.1626 42.0096 49.789 38.9209L48.554 38.5005C48.2648 38.402 48.0266 38.1927 47.8917 37.9187C47.7569 37.6446 47.7364 37.3282 47.8348 37.039L48.5772 34.8584C48.6259 34.7152 48.7024 34.5831 48.8022 34.4694C48.9021 34.3558 49.0233 34.263 49.159 34.1962C49.2947 34.1294 49.4422 34.09 49.5932 34.0803C49.7441 34.0705 49.8955 34.0906 50.0386 34.1393L51.2737 34.5598C52.662 31.7305 54.7782 29.3216 57.4051 27.5805L56.8291 26.41C56.6943 26.1359 56.6738 25.8195 56.7723 25.5303C56.8707 25.2412 57.08 25.0029 57.3541 24.8681L59.4209 23.8511C59.5566 23.7843 59.7041 23.7449 59.855 23.7352C60.006 23.7254 60.1574 23.7455 60.3005 23.7942C60.4437 23.843 60.5759 23.9194 60.6895 24.0193C60.8031 24.1191 60.896 24.2403 60.9628 24.376L61.5387 25.5465C64.521 24.5276 67.7207 24.3207 70.8094 24.9472L71.2299 23.7122C71.2786 23.569 71.3551 23.4368 71.4549 23.3232C71.5547 23.2095 71.6759 23.1167 71.8116 23.0499C71.9474 22.9831 72.0949 22.9437 72.2458 22.934C72.3968 22.9242 72.5481 22.9443 72.6913 22.993L74.8719 23.7354C75.0151 23.7841 75.1473 23.8606 75.2609 23.9604C75.3745 24.0603 75.4674 24.1815 75.5341 24.3172C75.6009 24.4529 75.6403 24.6004 75.6501 24.7514C75.6598 24.9023 75.6398 25.0537 75.591 25.1968L75.1706 26.4319C77.9999 27.8201 80.4088 29.9363 82.1499 32.5632L83.3204 31.9873C83.5944 31.8525 83.9109 31.832 84.2 31.9304C84.4892 32.0289 84.7274 32.2382 84.8623 32.5122L85.8792 34.5791C86.0141 34.8532 86.0345 35.1696 85.9361 35.4587C85.8377 35.7479 85.6284 35.9861 85.3543 36.121L84.1839 36.6969C85.2028 39.6792 85.4096 42.8789 84.7831 45.9676L86.0182 46.388C86.3074 46.4865 86.5456 46.6957 86.6804 46.9698C86.8153 47.2439 86.8357 47.5603 86.7373 47.8495L85.9949 50.0301C85.8965 50.3192 85.6872 50.5574 85.4132 50.6923C85.1391 50.8272 84.8227 50.8476 84.5335 50.7492L83.2984 50.3287C82.5286 51.8916 81.5326 53.3325 80.3424 54.6049L81.2931 57.0244C82.4981 55.8685 83.5549 54.5676 84.4395 53.1514C85.2477 53.2579 86.0678 53.0812 86.7606 52.6516C87.4533 52.2219 87.9759 51.5656 88.2396 50.7942L88.982 48.6137C89.2437 47.8416 89.2301 47.0028 88.9434 46.2397C88.6567 45.4766 88.1147 44.8362 87.4094 44.4274C87.6255 42.2388 87.4826 40.0295 86.9864 37.8869C87.6339 37.3911 88.0895 36.6861 88.2756 35.8921C88.4616 35.098 88.3667 34.264 88.0068 33.5321L86.9898 31.4653C86.6295 30.7337 86.0267 30.1496 85.2841 29.8125C84.5415 29.4754 83.7049 29.4062 82.917 29.6167C81.5223 27.9162 79.8591 26.455 77.9932 25.2908C78.0997 24.4826 77.923 23.6625 77.4934 22.9698C77.0637 22.277 76.4074 21.7544 75.6361 21.4907L73.4555 20.7484C72.6835 20.4866 71.8446 20.5003 71.0815 20.7869C70.3184 21.0736 69.678 21.6156 69.2692 22.3209C67.0806 22.1048 64.8713 22.2477 62.7288 22.7439C62.2329 22.0964 61.5279 21.6408 60.7339 21.4548C59.9398 21.2687 59.1058 21.3637 58.374 21.7235Z" fill="#182F43"/>
<path d="M84.6227 86.4409C85.2696 86.1898 85.8606 85.8135 86.3618 85.3336C86.863 84.8537 87.2646 84.2796 87.5436 83.6442C87.8225 83.0089 87.9734 82.3247 87.9875 81.6309C88.0016 80.9371 87.8787 80.2474 87.6257 79.6012L76.6074 51.5617C78.3441 49.8696 79.5881 47.7372 80.2063 45.3925C80.8245 43.0479 80.7936 40.5793 80.117 38.2509C79.4403 35.9225 78.1433 33.8218 76.3648 32.1737C74.5863 30.5256 72.3932 29.392 70.02 28.8943C69.6018 28.8047 69.1672 28.8301 68.7622 28.9679C68.3573 29.1057 67.9974 29.3507 67.7206 29.6768C67.4439 30.0029 67.2607 30.3979 67.1906 30.8199C67.1205 31.2418 67.1661 31.6748 67.3225 32.0729L70.3076 39.6694L67.5852 43.0567L63.2685 42.4116L60.2815 34.8101C60.1253 34.4126 59.8644 34.0648 59.5265 33.8036C59.1886 33.5424 58.7863 33.3775 58.3623 33.3265C57.9383 33.2754 57.5083 33.3401 57.1181 33.5137C56.7279 33.6872 56.3919 33.9632 56.1458 34.3123C54.7452 36.293 53.9094 38.6172 53.7279 41.0363C53.5464 43.4554 54.026 45.8784 55.1154 48.0459C56.2048 50.2135 57.863 52.0441 59.9126 53.3418C61.9621 54.6396 64.326 55.3558 66.7512 55.4137L77.7719 83.4593C78.2869 84.7616 79.2972 85.8066 80.5813 86.3655C81.8654 86.9244 83.3187 86.9515 84.6227 86.4409ZM79.9738 82.594L68.3402 52.9887C65.9253 53.2501 63.4912 52.7137 61.4099 51.4613C59.3286 50.2089 57.7146 48.3095 56.8145 46.0534C56.1472 44.3545 55.9134 42.5162 56.1343 40.7044C56.3551 38.8926 57.0237 37.1642 58.0795 35.6754L61.5666 44.5493L68.5787 45.5972L73.0115 40.0816L69.5245 31.2076C71.6067 31.6428 73.5182 32.6717 75.0282 34.17C76.5381 35.6683 77.5817 37.5719 78.0329 39.6506C78.4841 41.7294 78.3235 43.8944 77.5706 45.8838C76.8177 47.8733 75.5046 49.6021 73.7902 50.8612L85.4238 80.4665C85.7003 81.188 85.6801 81.9896 85.3676 82.6963C85.0552 83.403 84.4758 83.9574 83.756 84.2384C83.0362 84.5194 82.2344 84.5041 81.5258 84.196C80.8172 83.888 80.2593 83.312 79.9738 82.594Z" fill="#FFC100" stroke="#182F43"/>
<path d="M4.00007 92.7194C4.65338 92.7194 5.18299 92.1898 5.18299 91.5364C5.18299 90.8831 4.65338 90.3535 4.00007 90.3535C3.34675 90.3535 2.81714 90.8831 2.81714 91.5364C2.81714 92.1898 3.34675 92.7194 4.00007 92.7194Z" fill="#182F43"/>
<path d="M9.32597 90.3535H7.55158C7.23785 90.3535 6.93697 90.4781 6.71512 90.7C6.49328 90.9218 6.36865 91.2227 6.36865 91.5364C6.36865 91.8502 6.49328 92.1511 6.71512 92.3729C6.93697 92.5947 7.23785 92.7194 7.55158 92.7194H9.32597C9.6397 92.7194 9.94058 92.5947 10.1624 92.3729C10.3843 92.1511 10.5089 91.8502 10.5089 91.5364C10.5089 91.2227 10.3843 90.9218 10.1624 90.7C9.94058 90.4781 9.6397 90.3535 9.32597 90.3535ZM97.454 90.3535H95.6796C95.3659 90.3535 95.065 90.4781 94.8432 90.7C94.6213 90.9218 94.4967 91.2227 94.4967 91.5364C94.4967 91.8502 94.6213 92.1511 94.8432 92.3729C95.065 92.5947 95.3659 92.7194 95.6796 92.7194H97.454C97.7678 92.7194 98.0686 92.5947 98.2905 92.3729C98.5123 92.1511 98.6369 91.8502 98.6369 91.5364C98.6369 91.2227 98.5123 90.9218 98.2905 90.7C98.0686 90.4781 97.7678 90.3535 97.454 90.3535Z" fill="#182F43"/>
<path d="M100.998 92.7194C101.651 92.7194 102.181 92.1898 102.181 91.5364C102.181 90.8831 101.651 90.3535 100.998 90.3535C100.345 90.3535 99.8152 90.8831 99.8152 91.5364C99.8152 92.1898 100.345 92.7194 100.998 92.7194Z" fill="#182F43"/>
<path d="M72.7037 95.085H67.7899C67.4926 95.1088 67.2151 95.2437 67.0127 95.463C66.8104 95.6822 66.698 95.9696 66.698 96.2679C66.698 96.5662 66.8104 96.8536 67.0127 97.0728C67.2151 97.292 67.4926 97.427 67.7899 97.4508H72.7037C73.001 97.427 73.2785 97.292 73.4809 97.0728C73.6832 96.8536 73.7956 96.5662 73.7956 96.2679C73.7956 95.9696 73.6832 95.6822 73.4809 95.463C73.2785 95.2437 73.001 95.1088 72.7037 95.085ZM37.2159 95.085H32.3021C32.0048 95.1088 31.7273 95.2437 31.5249 95.463C31.3226 95.6822 31.2102 95.9696 31.2102 96.2679C31.2102 96.5662 31.3226 96.8536 31.5249 97.0728C31.7273 97.292 32.0048 97.427 32.3021 97.4508H37.2159C37.5132 97.427 37.7907 97.292 37.9931 97.0728C38.1954 96.8536 38.3078 96.5662 38.3078 96.2679C38.3078 95.9696 38.1954 95.6822 37.9931 95.463C37.7907 95.2437 37.5132 95.1088 37.2159 95.085ZM64.3322 95.085H40.6736C40.3599 95.085 40.059 95.2096 39.8372 95.4314C39.6153 95.6533 39.4907 95.9542 39.4907 96.2679C39.4907 96.5816 39.6153 96.8825 39.8372 97.1043C40.059 97.3262 40.3599 97.4508 40.6736 97.4508H50.1016V98.6337H45.4053C45.0916 98.6337 44.7907 98.7584 44.5689 98.9802C44.347 99.2021 44.2224 99.5029 44.2224 99.8167C44.2224 100.13 44.347 100.431 44.5689 100.653C44.7907 100.875 45.0916 101 45.4053 101H60.1919C60.5057 101 60.8065 100.875 61.0284 100.653C61.2502 100.431 61.3749 100.13 61.3749 99.8167C61.3749 99.5029 61.2502 99.2021 61.0284 98.9802C60.8065 98.7584 60.5057 98.6337 60.1919 98.6337H54.9042V97.4508H64.3322C64.6459 97.4508 64.9468 97.3262 65.1686 97.1043C65.3905 96.8825 65.5151 96.5816 65.5151 96.2679C65.5151 95.9542 65.3905 95.6533 65.1686 95.4314C64.9468 95.2096 64.6459 95.085 64.3322 95.085Z" fill="#FFC100" stroke="#182F43"/>
<path d="M91.9668 90.3537H61.3289C61.7469 89.6353 61.9671 88.819 61.967 87.9878V66.6834C61.4193 66.658 60.8779 66.5561 60.3584 66.3806L59.6012 66.1229V85.6219H18.1988V24.1098H52.2693C52.5572 23.2175 53.0532 22.4066 53.7163 21.7439H18.1988C18.1995 21.1167 18.4489 20.5153 18.8925 20.0718C19.336 19.6282 19.9374 19.3788 20.5646 19.3781H57.2353C57.4027 19.3786 57.5694 19.397 57.7329 19.4328C58.8236 18.979 60.0284 18.8747 61.1809 19.1345C60.7501 18.482 60.1642 17.9465 59.4756 17.5761C58.787 17.2057 58.0172 17.0119 57.2353 17.0122H20.5646C19.3097 17.0122 18.1061 17.5107 17.2188 18.3981C16.3314 19.2854 15.8329 20.489 15.8329 21.7439V87.9878C15.8329 88.819 16.0531 89.6353 16.4711 90.3537H13.0404C12.8721 90.3317 12.7011 90.3458 12.5387 90.3952C12.3763 90.4446 12.2264 90.5281 12.0988 90.64C11.9713 90.752 11.8691 90.8899 11.7991 91.0445C11.7291 91.1991 11.6929 91.3669 11.6929 91.5366C11.6929 91.7063 11.7291 91.8741 11.7991 92.0287C11.8691 92.1833 11.9713 92.3212 12.0988 92.4331C12.2264 92.5451 12.3763 92.6286 12.5387 92.6779C12.7011 92.7273 12.8721 92.7415 13.0404 92.7195H91.9668C92.1351 92.7415 92.3062 92.7273 92.4686 92.6779C92.6309 92.6286 92.7809 92.5451 92.9084 92.4331C93.036 92.3212 93.1382 92.1833 93.2082 92.0287C93.2782 91.8741 93.3144 91.7063 93.3144 91.5366C93.3144 91.3669 93.2782 91.1991 93.2082 91.0445C93.1382 90.8899 93.036 90.752 92.9084 90.64C92.7809 90.5281 92.6309 90.4446 92.4686 90.3952C92.3062 90.3458 92.1351 90.3317 91.9668 90.3537ZM20.5646 90.3537C19.9374 90.3529 19.336 90.1035 18.8925 89.6599C18.4489 89.2164 18.1995 88.6151 18.1988 87.9878H59.6012C59.6005 88.6151 59.351 89.2164 58.9075 89.6599C58.4639 90.1035 57.8626 90.3529 57.2353 90.3537H20.5646ZM43.2204 7.54878C43.5714 7.54878 43.9144 7.44472 44.2062 7.24974C44.498 7.05477 44.7255 6.77765 44.8598 6.45342C44.9941 6.12919 45.0292 5.77242 44.9607 5.42822C44.8923 5.08403 44.7233 4.76786 44.4751 4.51971C44.227 4.27155 43.9108 4.10256 43.5666 4.0341C43.2224 3.96563 42.8656 4.00077 42.5414 4.13507C42.2172 4.26937 41.9401 4.4968 41.7451 4.78859C41.5501 5.08039 41.4461 5.42345 41.4461 5.77439C41.4466 6.24482 41.6337 6.69583 41.9664 7.02848C42.299 7.36113 42.75 7.54824 43.2204 7.54878ZM43.2204 4.8872C43.3959 4.8872 43.5674 4.93923 43.7133 5.03672C43.8592 5.1342 43.9729 5.27276 44.0401 5.43488C44.1073 5.59699 44.1248 5.77538 44.0906 5.94747C44.0564 6.11957 43.9719 6.27766 43.8478 6.40173C43.7237 6.52581 43.5656 6.61031 43.3935 6.64454C43.2214 6.67877 43.043 6.6612 42.8809 6.59405C42.7188 6.5269 42.5802 6.41319 42.4828 6.26729C42.3853 6.12139 42.3332 5.94986 42.3332 5.77439C42.3335 5.53916 42.427 5.31364 42.5934 5.14731C42.7597 4.98097 42.9852 4.88743 43.2204 4.8872ZM89.1744 23.2367C88.9404 23.2367 88.7117 23.306 88.5172 23.436C88.3226 23.566 88.171 23.7508 88.0815 23.9669C87.9919 24.1831 87.9685 24.4209 88.0142 24.6504C88.0598 24.8798 88.1725 25.0906 88.3379 25.2561C88.5033 25.4215 88.7141 25.5342 88.9436 25.5798C89.173 25.6254 89.4109 25.602 89.6271 25.5125C89.8432 25.4229 90.0279 25.2713 90.1579 25.0768C90.2879 24.8823 90.3573 24.6536 90.3573 24.4196C90.3569 24.106 90.2322 23.8053 90.0104 23.5835C89.7887 23.3618 89.488 23.237 89.1744 23.2367ZM89.1744 25.0111C89.0574 25.0111 88.943 24.9764 88.8458 24.9114C88.7485 24.8464 88.6727 24.754 88.6279 24.6459C88.5832 24.5379 88.5714 24.4189 88.5943 24.3042C88.6171 24.1895 88.6734 24.0841 88.7561 24.0014C88.8389 23.9187 88.9442 23.8623 89.059 23.8395C89.1737 23.8167 89.2926 23.8284 89.4007 23.8732C89.5088 23.9179 89.6012 23.9937 89.6661 24.091C89.7311 24.1883 89.7658 24.3026 89.7658 24.4196C89.7657 24.5764 89.7033 24.7268 89.5924 24.8377C89.4815 24.9485 89.3312 25.0109 89.1744 25.0111ZM89.1744 5.47866C88.9404 5.47866 88.7117 5.54804 88.5172 5.67802C88.3226 5.808 88.171 5.99275 88.0815 6.2089C87.9919 6.42505 87.9685 6.6629 88.0142 6.89236C88.0598 7.12183 88.1725 7.33261 88.3379 7.49804C88.5033 7.66348 88.7141 7.77614 88.9436 7.82178C89.173 7.86743 89.4109 7.844 89.6271 7.75447C89.8432 7.66494 90.0279 7.51332 90.1579 7.31878C90.2879 7.12425 90.3573 6.89555 90.3573 6.66159C90.3569 6.34796 90.2322 6.04729 90.0104 5.82553C89.7887 5.60376 89.488 5.47902 89.1744 5.47866ZM89.1744 7.25305C89.0574 7.25305 88.943 7.21836 88.8458 7.15337C88.7485 7.08838 88.6727 6.99601 88.6279 6.88793C88.5832 6.77985 88.5714 6.66093 88.5943 6.5462C88.6171 6.43146 88.6734 6.32608 88.7561 6.24336C88.8389 6.16064 88.9442 6.10431 89.059 6.08149C89.1737 6.05867 89.2926 6.07038 89.4007 6.11515C89.5088 6.15991 89.6012 6.23572 89.6661 6.33299C89.7311 6.43025 89.7658 6.54461 89.7658 6.66159C89.7657 6.8184 89.7033 6.96875 89.5924 7.07964C89.4815 7.19053 89.3312 7.25289 89.1744 7.25305ZM97.7506 35.939C97.5166 35.939 97.2879 36.0084 97.0934 36.1384C96.8988 36.2684 96.7472 36.4531 96.6577 36.6693C96.5682 36.8854 96.5447 37.1233 96.5904 37.3527C96.636 37.5822 96.7487 37.793 96.9141 37.9584C97.0796 38.1238 97.2903 38.2365 97.5198 38.2822C97.7493 38.3278 97.9871 38.3044 98.2033 38.2148C98.4194 38.1253 98.6042 37.9737 98.7341 37.7791C98.8641 37.5846 98.9335 37.3559 98.9335 37.122C98.9332 36.8083 98.8084 36.5077 98.5866 36.2859C98.3649 36.0641 98.0642 35.9394 97.7506 35.939ZM97.7506 37.7134C97.6336 37.7134 97.5192 37.6787 97.422 37.6137C97.3247 37.5487 97.2489 37.4564 97.2041 37.3483C97.1594 37.2402 97.1477 37.1213 97.1705 37.0066C97.1933 36.8918 97.2496 36.7864 97.3324 36.7037C97.4151 36.621 97.5205 36.5647 97.6352 36.5419C97.7499 36.519 97.8689 36.5307 97.9769 36.5755C98.085 36.6203 98.1774 36.6961 98.2424 36.7934C98.3074 36.8906 98.342 37.005 98.342 37.122C98.3419 37.2788 98.2795 37.4291 98.1686 37.54C98.0577 37.6509 97.9074 37.7133 97.7506 37.7134ZM27.0707 13.1565C27.0707 12.9226 27.0013 12.6939 26.8713 12.4993C26.7414 12.3048 26.5566 12.1532 26.3405 12.0637C26.1243 11.9741 25.8865 11.9507 25.657 11.9963C25.4275 12.042 25.2168 12.1546 25.0513 12.3201C24.8859 12.4855 24.7732 12.6963 24.7276 12.9258C24.6819 13.1552 24.7054 13.3931 24.7949 13.6092C24.8844 13.8254 25.036 14.0101 25.2306 14.1401C25.4251 14.2701 25.6538 14.3395 25.8878 14.3395C26.2014 14.3391 26.5021 14.2144 26.7238 13.9926C26.9456 13.7708 27.0703 13.4702 27.0707 13.1565ZM25.2963 13.1565C25.2963 13.0396 25.331 12.9252 25.396 12.8279C25.461 12.7307 25.5534 12.6549 25.6614 12.6101C25.7695 12.5653 25.8884 12.5536 26.0032 12.5764C26.1179 12.5993 26.2233 12.6556 26.306 12.7383C26.3887 12.821 26.4451 12.9264 26.4679 13.0412C26.4907 13.1559 26.479 13.2748 26.4342 13.3829C26.3894 13.491 26.3136 13.5833 26.2164 13.6483C26.1191 13.7133 26.0048 13.748 25.8878 13.748C25.731 13.7478 25.5806 13.6855 25.4697 13.5746C25.3588 13.4637 25.2965 13.3134 25.2963 13.1565Z" fill="#182F43"/>
<path d="M7.07757 37.7796L5.6887 37.5977L5.40625 37.5608V37.8456V38.765V39.0496L5.68849 39.0129L7.0867 38.8311L6.16428 40.0315L5.99843 40.2473L6.22756 40.3943L6.98749 40.8816L7.23047 41.0374L7.35 40.7747L7.99457 39.358L8.585 40.7547L8.69533 41.0157L8.94055 40.8737L9.78057 40.3872L10.0302 40.2426L9.85159 40.0161L8.92384 38.8395L10.3579 39.0132L10.638 39.0471V38.765V37.8456V37.5599L10.3548 37.5978L8.91101 37.7913L9.84251 36.5491L10.012 36.3231L9.76706 36.1824L8.96709 35.7227L8.72363 35.5828L8.61282 35.8408L8.01372 37.2357L7.40586 35.8519L7.2933 35.5956L7.05132 35.7363L6.23686 36.2098L5.99227 36.352L6.1635 36.5772L7.07757 37.7796Z" fill="#FFC100" stroke="#182F43" stroke-width="0.5"/>
<path d="M7.95899 8.78572L7.03104 7.60987L8.46516 7.78308L8.74513 7.8169V7.53488V6.61525V6.32946L8.46188 6.36747L7.01809 6.56122L7.94945 5.319L8.1189 5.09299L7.87397 4.95226L7.075 4.49319L6.83168 4.35339L6.7208 4.61117L6.12103 6.00546L5.51331 4.62286L5.40085 4.36702L5.15906 4.50717L4.34381 4.97974L4.09871 5.12182L4.27018 5.34734L5.18468 6.55016L3.79605 6.36738L3.51343 6.33018V6.61525V7.53488V7.81951L3.79567 7.7828L5.19336 7.601L4.27093 8.8018L4.10512 9.01765L4.33426 9.16456L5.09477 9.65213L5.33778 9.80793L5.45727 9.54515L6.10209 8.12707L6.69203 9.52393L6.80226 9.78492L7.0475 9.64308L7.88791 9.157L8.13789 9.01241L7.95899 8.78572Z" fill="#FFC100" stroke="#182F43" stroke-width="0.5"/>
<path d="M97.4214 17.6271L97.7014 17.661V17.3789V16.644V16.3582L97.4181 16.3962L96.3812 16.5356L97.0552 15.637L97.2247 15.411L96.9798 15.2702L96.3399 14.9024L96.0965 14.7625L95.9856 15.0204L95.5515 16.0309L95.1115 15.0292L94.999 14.7728L94.7569 14.9136L94.1052 15.2927L93.8606 15.435L94.0319 15.6602L94.6907 16.5263L93.6985 16.3961L93.416 16.3591V16.644V17.3789V17.6635L93.6982 17.6269L94.6978 17.497L94.0327 18.3625L93.8668 18.5784L94.096 18.7253L94.704 19.115L94.9469 19.2707L95.0664 19.008L95.535 17.9782L95.9628 18.9905L96.073 19.2514L96.3182 19.1096L96.9908 18.7207L97.2408 18.5761L97.0619 18.3494L96.3941 17.503L97.4214 17.6271Z" fill="#FFC100" stroke="#182F43" stroke-width="0.5"/>
<path d="M72.3455 7.45017L71.4161 9.61417L70.4723 7.46682L70.3597 7.21059L70.1178 7.3513L68.9773 8.0146L68.7328 8.15682L68.904 8.38201L70.3279 10.2551L68.1472 9.96985L67.8647 9.93291V10.2177V11.5043V11.789L68.1471 11.7522L70.3438 11.4657L68.9047 13.339L68.7389 13.555L68.9681 13.7018L70.0325 14.3837L70.2754 14.5394L70.3949 14.2767L71.3918 12.0846L72.3083 14.2506L72.4186 14.5114L72.6637 14.3696L73.8395 13.6891L74.0893 13.5445L73.9105 13.3179L72.4606 11.4798L74.709 11.7525L74.9891 11.7865V11.5043V10.2177V9.93201L74.7059 9.96995L72.449 10.2723L73.896 8.34206L74.0654 8.11596L73.8204 7.97529L72.6996 7.33201L72.4562 7.1923L72.3455 7.45017Z" fill="#FFC100" stroke="#182F43" stroke-width="0.5"/>
</svg>
