<svg width="105" height="105" viewBox="0 0 105 105" fill="none" xmlns="http://www.w3.org/2000/svg">
<g clip-path="url(#clip0_151_826)">
<path d="M73.8462 96.2498H68.6538C68.3396 96.275 68.0464 96.4176 67.8325 96.6492C67.6187 96.8809 67.5 97.1845 67.5 97.4998C67.5 97.815 67.6187 98.1187 67.8325 98.3504C68.0464 98.582 68.3396 98.7246 68.6538 98.7498H73.8462C74.1604 98.7246 74.4536 98.582 74.6675 98.3504C74.8813 98.1187 75 97.815 75 97.4998C75 97.1845 74.8813 96.8809 74.6675 96.6492C74.4536 96.4176 74.1604 96.275 73.8462 96.2498ZM36.3462 96.2498H31.1538C30.8396 96.275 30.5464 96.4176 30.3325 96.6492C30.1187 96.8809 30 97.1845 30 97.4998C30 97.815 30.1187 98.1187 30.3325 98.3504C30.5464 98.582 30.8396 98.7246 31.1538 98.7498H36.3462C36.6604 98.7246 36.9536 98.582 37.1675 98.3504C37.3813 98.1187 37.5 97.815 37.5 97.4998C37.5 97.1845 37.3813 96.8809 37.1675 96.6492C36.9536 96.4176 36.6604 96.275 36.3462 96.2498ZM65 96.2498H40C39.6685 96.2498 39.3505 96.3815 39.1161 96.6159C38.8817 96.8503 38.75 97.1683 38.75 97.4998C38.75 97.8313 38.8817 98.1493 39.1161 98.3837C39.3505 98.6181 39.6685 98.7498 40 98.7498H49.9625V99.9998H45C44.6685 99.9998 44.3505 100.131 44.1161 100.366C43.8817 100.6 43.75 100.918 43.75 101.25C43.75 101.581 43.8817 101.899 44.1161 102.134C44.3505 102.368 44.6685 102.5 45 102.5H60.625C60.9565 102.5 61.2745 102.368 61.5089 102.134C61.7433 101.899 61.875 101.581 61.875 101.25C61.875 100.918 61.7433 100.6 61.5089 100.366C61.2745 100.131 60.9565 99.9998 60.625 99.9998H55.0375V98.7498H65C65.3315 98.7498 65.6495 98.6181 65.8839 98.3837C66.1183 98.1493 66.25 97.8313 66.25 97.4998C66.25 97.1683 66.1183 96.8503 65.8839 96.6159C65.6495 96.3815 65.3315 96.2498 65 96.2498ZM16.9217 70.6286C17.3143 70.8442 17.7576 70.9504 18.2053 70.936C18.653 70.9216 19.0886 70.7872 19.4666 70.5468C19.5622 70.4862 29.3195 64.373 38.6323 64.3734C43.7916 64.3736 47.6751 66.1956 50.5048 69.9436C50.7379 70.2523 51.0393 70.5027 51.3856 70.6751C51.7318 70.8475 52.1133 70.9373 52.5 70.9373C52.8868 70.9373 53.2683 70.8475 53.6145 70.6751C53.9607 70.5027 54.2622 70.2523 54.4953 69.9436C57.325 66.1954 61.2079 64.3734 66.3658 64.3734C75.7165 64.3741 85.4366 70.4852 85.5337 70.547C85.9117 70.7873 86.3472 70.9216 86.7949 70.936C87.2426 70.9504 87.6859 70.8442 88.0785 70.6286C88.4711 70.413 88.7985 70.0958 89.0266 69.7103C89.2547 69.3249 89.375 68.8852 89.375 68.4373V68.1248C89.375 67.7964 89.3103 67.4712 89.1846 67.1679C89.0589 66.8645 88.8747 66.5888 88.6425 66.3567L71.8862 49.6067C71.4771 49.1978 70.9389 48.9433 70.3633 48.8868C69.9419 48.8391 69.5233 48.769 69.1093 48.6768C68.9659 49.4987 68.7601 50.3086 68.4936 51.0993C69.0297 51.2214 69.5723 51.3134 70.1187 51.3748L86.875 68.1248V68.4373C86.875 68.4373 76.5522 61.8742 66.3676 61.8734C61.8234 61.873 57.3107 63.1864 53.75 66.9648V63.8435C52.9422 64.1352 52.0578 64.1352 51.25 63.8435V66.9649C47.6895 63.1872 43.1757 61.8736 38.6324 61.8734C28.4469 61.873 18.125 68.4373 18.125 68.4373V68.1248L34.8812 51.3748C35.4086 51.3234 35.9616 51.2445 36.5252 51.1568C36.2547 50.3633 36.0454 49.5503 35.8991 48.7248C35.4624 48.7902 35.0386 48.8476 34.6391 48.8865C34.0626 48.9427 33.5235 49.1972 33.1138 49.6067L16.3576 66.3567C16.1253 66.5888 15.9411 66.8645 15.8154 67.1679C15.6897 67.4712 15.625 67.7964 15.625 68.1248V68.4373C15.625 68.8852 15.7453 69.3249 15.9735 69.7104C16.2016 70.0959 16.529 70.413 16.9217 70.6286Z" fill="#FFC100" stroke="#182F43"/>
<path d="M41.6308 54.375H41.6323C41.8399 54.375 42.0441 54.3233 42.2267 54.2247C42.4093 54.126 42.5644 53.9834 42.6782 53.8098L44.9272 50.3753C45.1975 51.073 45.4853 51.7801 45.7972 52.5H46.249V56.5625C46.249 56.894 46.3807 57.212 46.6151 57.4464C46.8496 57.6808 47.1675 57.8125 47.499 57.8125C47.8305 57.8125 48.1485 57.6808 48.3829 57.4464C48.6173 57.212 48.749 56.894 48.749 56.5625V52.5H51.249V60.3125C51.249 60.644 51.3807 60.962 51.6151 61.1964C51.8496 61.4308 52.1675 61.5625 52.499 61.5625C52.8306 61.5625 53.1485 61.4308 53.3829 61.1964C53.6173 60.962 53.749 60.644 53.749 60.3125V52.5H56.249V56.5625C56.249 56.894 56.3807 57.212 56.6151 57.4464C56.8496 57.6808 57.1675 57.8125 57.499 57.8125C57.8306 57.8125 58.1485 57.6808 58.3829 57.4464C58.6173 57.212 58.749 56.894 58.749 56.5625V52.5H59.2009C59.5128 51.78 59.8006 51.0727 60.071 50.3749L62.3202 53.8098C62.4338 53.9835 62.5889 54.1261 62.7714 54.2248C62.954 54.3234 63.1582 54.3751 63.3657 54.375H63.3676C63.5753 54.3748 63.7797 54.3227 63.9623 54.2235C64.1449 54.1243 64.2998 53.9812 64.4131 53.8071C69.7844 45.5607 64.8974 37.8421 63.1211 35.5008C63.1799 31.3136 62.2596 27.1706 60.4337 23.4021C58.6078 19.6335 55.9267 16.3437 52.6041 13.7948C52.5905 13.7807 52.5742 13.7694 52.5562 13.7617C52.5381 13.754 52.5187 13.75 52.499 13.75C52.4794 13.75 52.46 13.754 52.4419 13.7617C52.4239 13.7694 52.4076 13.7807 52.394 13.7948C49.0715 16.3436 46.3904 19.6334 44.5645 23.4019C42.7386 27.1703 41.8183 31.3133 41.877 35.5004C40.1009 37.8412 35.2131 45.5602 40.585 53.8074C40.6984 53.9814 40.8534 54.1245 41.036 54.2236C41.2186 54.3227 41.423 54.3747 41.6308 54.375ZM62.848 39.7777C64.1606 42.4358 65.2446 46.42 63.2778 50.7089L61.1194 47.413C61.9297 44.9266 62.5084 42.3706 62.848 39.7777ZM52.499 16.9828C61.1601 24.831 62.9354 36.4489 57.5335 50H47.4645C42.0627 36.4488 43.8379 24.831 52.499 16.9828ZM42.1435 39.7292C42.4822 42.3387 43.063 44.911 43.8786 47.4128L41.7184 50.712C39.7095 46.3677 40.8121 42.3772 42.1435 39.7292Z" fill="#182F43"/>
<path d="M52.4995 38.2129C53.4884 38.2129 54.4551 37.9196 55.2774 37.3702C56.0996 36.8208 56.7405 36.0399 57.1189 35.1263C57.4973 34.2127 57.5964 33.2073 57.4034 32.2374C57.2105 31.2675 56.7343 30.3766 56.035 29.6774C55.3358 28.9781 54.4449 28.5019 53.475 28.309C52.5051 28.116 51.4997 28.2151 50.5861 28.5935C49.6725 28.9719 48.8916 29.6128 48.3422 30.435C47.7928 31.2573 47.4995 32.224 47.4995 33.2129C47.501 34.5385 48.0283 35.8094 48.9656 36.7468C49.903 37.6841 51.1739 38.2114 52.4995 38.2129ZM52.4995 30.7129C52.994 30.7129 53.4773 30.8595 53.8884 31.1342C54.2996 31.4089 54.62 31.7994 54.8092 32.2562C54.9984 32.713 55.0479 33.2157 54.9515 33.7006C54.855 34.1856 54.6169 34.631 54.2673 34.9807C53.9176 35.3303 53.4722 35.5684 52.9872 35.6649C52.5023 35.7613 51.9996 35.7118 51.5428 35.5226C51.086 35.3334 50.6955 35.0129 50.4208 34.6018C50.1461 34.1907 49.9995 33.7073 49.9995 33.2129C49.9995 32.5499 50.2629 31.914 50.7317 31.4451C51.2006 30.9763 51.8365 30.7129 52.4995 30.7129ZM54.3745 42.5004H50.6245C50.293 42.5004 49.975 42.6321 49.7406 42.8665C49.5062 43.1009 49.3745 43.4189 49.3745 43.7504C49.3745 44.0819 49.5062 44.3999 49.7406 44.6343C49.975 44.8687 50.293 45.0004 50.6245 45.0004H54.3745C54.706 45.0004 55.024 44.8687 55.2584 44.6343C55.4928 44.3999 55.6245 44.0819 55.6245 43.7504C55.6245 43.4189 55.4928 43.1009 55.2584 42.8665C55.024 42.6321 54.706 42.5004 54.3745 42.5004Z" fill="#FFC100" stroke="#182F43"/>
<path d="M1.25 93.75C1.94036 93.75 2.5 93.1904 2.5 92.5C2.5 91.8096 1.94036 91.25 1.25 91.25C0.559644 91.25 0 91.8096 0 92.5C0 93.1904 0.559644 93.75 1.25 93.75Z" fill="#182F43"/>
<path d="M6.87451 91.25H4.99951C4.66799 91.25 4.35005 91.3817 4.11563 91.6161C3.88121 91.8505 3.74951 92.1685 3.74951 92.5C3.74951 92.8315 3.88121 93.1495 4.11563 93.3839C4.35005 93.6183 4.66799 93.75 4.99951 93.75H6.87451C7.20603 93.75 7.52397 93.6183 7.75839 93.3839C7.99282 93.1495 8.12451 92.8315 8.12451 92.5C8.12451 92.1685 7.99282 91.8505 7.75839 91.6161C7.52397 91.3817 7.20603 91.25 6.87451 91.25ZM99.9995 91.25H98.1245C97.793 91.25 97.475 91.3817 97.2406 91.6161C97.0062 91.8505 96.8745 92.1685 96.8745 92.5C96.8745 92.8315 97.0062 93.1495 97.2406 93.3839C97.475 93.6183 97.793 93.75 98.1245 93.75H99.9995C100.331 93.75 100.649 93.6183 100.883 93.3839C101.118 93.1495 101.25 92.8315 101.25 92.5C101.25 92.1685 101.118 91.8505 100.883 91.6161C100.649 91.3817 100.331 91.25 99.9995 91.25Z" fill="#182F43"/>
<path d="M103.75 93.75C104.44 93.75 105 93.1904 105 92.5C105 91.8096 104.44 91.25 103.75 91.25C103.06 91.25 102.5 91.8096 102.5 92.5C102.5 93.1904 103.06 93.75 103.75 93.75Z" fill="#182F43"/>
<path d="M94.2011 91.25H83.7503V85H86.2503C86.5818 85 86.8997 84.8683 87.1341 84.6339C87.3686 84.3995 87.5003 84.0815 87.5003 83.75C87.5003 83.4185 87.3686 83.1005 87.1341 82.8661C86.8997 82.6317 86.5818 82.5 86.2503 82.5H81.5491C82.1162 81.6535 82.4425 80.6689 82.4933 79.6513C82.544 78.6337 82.3173 77.6215 81.8372 76.7228C81.3572 75.8242 80.642 75.0728 79.768 74.5492C78.894 74.0256 77.8941 73.7493 76.8753 73.75H57.1442C67.722 63.5763 85.3447 75.8894 85.5252 76.0184C85.7952 76.21 86.1303 76.2867 86.4569 76.2316C86.7834 76.1764 87.0748 75.9939 87.2669 75.7242C87.4591 75.4545 87.5364 75.1195 87.4818 74.7929C87.4273 74.4662 87.2453 74.1746 86.976 73.9819C86.7721 73.837 66.4803 59.6289 54.5205 72.8626C54.2813 73.1355 53.9876 73.3555 53.6583 73.5083C53.3291 73.6611 52.9715 73.7434 52.6086 73.75H52.3919C52.029 73.7435 51.6715 73.6612 51.3423 73.5084C51.0131 73.3555 50.7195 73.1356 50.4803 72.8625C38.5189 59.6283 18.2284 73.837 18.0249 73.9819C17.7548 74.1742 17.5722 74.4659 17.5172 74.7929C17.4623 75.1198 17.5394 75.4552 17.7317 75.7252C17.924 75.9953 18.2158 76.1779 18.5427 76.2328C18.8696 76.2878 19.205 76.2107 19.4751 76.0184C19.6564 75.8897 37.2779 63.5757 47.856 73.75H25.0003C24.6687 73.75 24.3508 73.8817 24.1164 74.1161C23.882 74.3505 23.7503 74.6685 23.7503 75C23.7503 75.3315 23.882 75.6495 24.1164 75.8839C24.3508 76.1183 24.6687 76.25 25.0003 76.25H27.5003V82.5H25.0003C24.6687 82.5 24.3508 82.6317 24.1164 82.8661C23.882 83.1005 23.7503 83.4185 23.7503 83.75C23.7503 84.0815 23.882 84.3995 24.1164 84.6339C24.3508 84.8683 24.6687 85 25.0003 85H29.7015C29.0814 85.9242 28.7503 87.012 28.7503 88.125C28.7503 89.238 29.0814 90.3258 29.7015 91.25H10.7994C10.6216 91.2268 10.4409 91.2417 10.2693 91.2939C10.0977 91.3461 9.93924 91.4343 9.80446 91.5526C9.66969 91.6709 9.5617 91.8166 9.48773 91.98C9.41375 92.1434 9.37549 92.3206 9.37549 92.5C9.37549 92.6793 9.41375 92.8566 9.48773 93.02C9.5617 93.1834 9.66969 93.3291 9.80446 93.4474C9.93924 93.5657 10.0977 93.6539 10.2693 93.7061C10.4409 93.7582 10.6216 93.7732 10.7994 93.75H94.2011C94.3789 93.7732 94.5597 93.7582 94.7312 93.7061C94.9028 93.6539 95.0613 93.5657 95.1961 93.4474C95.3308 93.3291 95.4388 93.1834 95.5128 93.02C95.5868 92.8566 95.625 92.6793 95.625 92.5C95.625 92.3206 95.5868 92.1434 95.5128 91.98C95.4388 91.8166 95.3308 91.6709 95.1961 91.5526C95.0613 91.4343 94.9028 91.3461 94.7312 91.2939C94.5597 91.2417 94.3789 91.2268 94.2011 91.25V91.25ZM30.0003 76.25H76.8753C77.7041 76.25 78.4989 76.5792 79.085 77.1653C79.671 77.7513 80.0003 78.5462 80.0003 79.375C80.0003 80.2038 79.671 80.9987 79.085 81.5847C78.4989 82.1708 77.7041 82.5 76.8753 82.5H30.0003V76.25ZM34.3753 91.25C33.5465 91.25 32.7516 90.9208 32.1656 90.3347C31.5795 89.7487 31.2503 88.9538 31.2503 88.125C31.2503 87.2962 31.5795 86.5013 32.1656 85.9153C32.7516 85.3292 33.5465 85 34.3753 85H81.2503V91.25H34.3753ZM13.4368 48.5952C13.777 48.4476 14.0659 48.2024 14.2668 47.8907C14.4677 47.579 14.5716 47.2147 14.5655 46.8439C14.5593 46.4732 14.4434 46.1125 14.2323 45.8076C14.0212 45.5027 13.7244 45.2673 13.3795 45.1311C13.0346 44.9948 12.657 44.964 12.2945 45.0423C11.9321 45.1207 11.601 45.3048 11.3431 45.5713C11.0853 45.8378 10.9123 46.1748 10.8459 46.5397C10.7796 46.9046 10.823 47.2809 10.9706 47.6211C11.1689 48.0769 11.54 48.4355 12.0023 48.6181C12.4647 48.8007 12.9806 48.7924 13.4368 48.5952ZM12.3176 46.0149C12.4877 45.9411 12.6759 45.9194 12.8583 45.9526C13.0408 45.9858 13.2093 46.0723 13.3425 46.2012C13.4758 46.3301 13.5679 46.4957 13.607 46.6769C13.6462 46.8581 13.6308 47.0469 13.5627 47.2194C13.4946 47.3918 13.3768 47.5402 13.2244 47.6458C13.0719 47.7513 12.8916 47.8093 12.7062 47.8124C12.5208 47.8154 12.3387 47.7635 12.1828 47.663C12.027 47.5626 11.9044 47.4182 11.8306 47.248C11.7319 47.0199 11.7278 46.762 11.8191 46.5308C11.9104 46.2996 12.0897 46.1141 12.3176 46.0149ZM99.5657 51.25C99.3185 51.25 99.0768 51.3233 98.8713 51.4607C98.6657 51.598 98.5055 51.7932 98.4109 52.0216C98.3163 52.2501 98.2915 52.5014 98.3397 52.7439C98.388 52.9863 98.507 53.2091 98.6818 53.3839C98.8567 53.5587 99.0794 53.6777 99.3219 53.726C99.5643 53.7742 99.8157 53.7495 100.044 53.6548C100.272 53.5602 100.468 53.4 100.605 53.1945C100.742 52.9889 100.816 52.7472 100.816 52.5C100.815 52.1686 100.684 51.8509 100.449 51.6165C100.215 51.3822 99.8971 51.2504 99.5657 51.25ZM99.5657 53.125C99.4421 53.125 99.3213 53.0883 99.2185 53.0197C99.1157 52.951 99.0356 52.8534 98.9883 52.7392C98.941 52.625 98.9286 52.4993 98.9527 52.3781C98.9768 52.2568 99.0364 52.1455 99.1238 52.0581C99.2112 51.9706 99.3225 51.9111 99.4438 51.887C99.565 51.8629 99.6907 51.8753 99.8049 51.9226C99.9191 51.9699 100.017 52.05 100.085 52.1528C100.154 52.2555 100.191 52.3764 100.191 52.5C100.191 52.6657 100.125 52.8246 100.007 52.9418C99.8903 53.0589 99.7314 53.1248 99.5657 53.125ZM80.1907 40.625C79.9435 40.625 79.7018 40.6983 79.4962 40.8357C79.2907 40.973 79.1305 41.1682 79.0359 41.3966C78.9412 41.6251 78.9165 41.8764 78.9647 42.1189C79.013 42.3613 79.132 42.5841 79.3068 42.7589C79.4816 42.9337 79.7044 43.0527 79.9468 43.101C80.1893 43.1492 80.4407 43.1245 80.6691 43.0298C80.8975 42.9352 81.0927 42.775 81.23 42.5695C81.3674 42.3639 81.4407 42.1222 81.4407 41.875C81.4403 41.5436 81.3085 41.2259 81.0742 40.9915C80.8398 40.7572 80.5221 40.6254 80.1907 40.625ZM80.1907 42.5C80.0671 42.5 79.9463 42.4633 79.8435 42.3947C79.7407 42.326 79.6606 42.2284 79.6133 42.1142C79.566 42 79.5536 41.8743 79.5777 41.7531C79.6018 41.6318 79.6614 41.5205 79.7488 41.4331C79.8362 41.3456 79.9475 41.2861 80.0688 41.262C80.19 41.2379 80.3157 41.2503 80.4299 41.2976C80.5441 41.3449 80.6417 41.425 80.7104 41.5278C80.7791 41.6305 80.8157 41.7514 80.8157 41.875C80.8155 42.0407 80.7496 42.1996 80.6325 42.3168C80.5153 42.4339 80.3564 42.4998 80.1907 42.5ZM98.9407 5C98.6935 5 98.4518 5.07331 98.2463 5.21066C98.0407 5.34802 97.8805 5.54324 97.7859 5.77165C97.6913 6.00005 97.6665 6.25139 97.7147 6.49386C97.763 6.73634 97.882 6.95907 98.0568 7.13388C98.2317 7.3087 98.4544 7.42775 98.6969 7.47598C98.9393 7.52421 99.1907 7.49946 99.4191 7.40485C99.6475 7.31024 99.8427 7.15002 99.98 6.94446C100.117 6.7389 100.191 6.49723 100.191 6.25C100.19 5.9186 100.059 5.60087 99.8242 5.36654C99.5898 5.1322 99.2721 5.00038 98.9407 5ZM98.9407 6.875C98.8171 6.875 98.6963 6.83835 98.5935 6.76967C98.4907 6.70099 98.4106 6.60338 98.3633 6.48918C98.316 6.37497 98.3036 6.24931 98.3277 6.12807C98.3518 6.00683 98.4114 5.89547 98.4988 5.80806C98.5862 5.72065 98.6975 5.66113 98.8188 5.63701C98.94 5.61289 99.0657 5.62527 99.1799 5.67258C99.2941 5.71988 99.3917 5.79999 99.4604 5.90277C99.5291 6.00555 99.5657 6.12639 99.5657 6.25C99.5655 6.41571 99.4996 6.57459 99.3825 6.69176C99.2653 6.80893 99.1064 6.87484 98.9407 6.875ZM43.3157 3.75C43.3157 3.50277 43.2424 3.2611 43.105 3.05554C42.9677 2.84998 42.7725 2.68976 42.5441 2.59515C42.3157 2.50054 42.0643 2.47579 41.8218 2.52402C41.5794 2.57225 41.3566 2.6913 41.1818 2.86612C41.007 3.04093 40.888 3.26366 40.8397 3.50614C40.7915 3.74861 40.8162 3.99995 40.9109 4.22836C41.0055 4.45676 41.1657 4.65199 41.3712 4.78934C41.5768 4.92669 41.8185 5 42.0657 5C42.3971 4.99962 42.7148 4.8678 42.9492 4.63347C43.1835 4.39913 43.3153 4.08141 43.3157 3.75ZM41.4407 3.75C41.4407 3.62639 41.4774 3.50555 41.546 3.40277C41.6147 3.29999 41.7123 3.21988 41.8265 3.17258C41.9407 3.12527 42.0664 3.11289 42.1876 3.13701C42.3089 3.16113 42.4202 3.22065 42.5076 3.30806C42.5951 3.39547 42.6546 3.50683 42.6787 3.62807C42.7028 3.74931 42.6904 3.87497 42.6431 3.98918C42.5958 4.10338 42.5157 4.20099 42.4129 4.26967C42.3102 4.33835 42.1893 4.375 42.0657 4.375C41.9 4.37484 41.7411 4.30893 41.6239 4.19176C41.5068 4.07459 41.4409 3.91571 41.4407 3.75Z" fill="#182F43"/>
<path d="M24.9302 25.6325L25.8596 24.4106L25.2727 24.0781L24.6758 25.4469H24.6564L24.0502 24.0875L23.4533 24.43L24.3727 25.6231V25.6425L22.9346 25.4569V26.1219L24.3821 25.9363V25.9556L23.4533 27.1481L24.0102 27.5006L24.6464 26.1219H24.6658L25.2527 27.4906L25.8689 27.1388L24.9302 25.965V25.9456L26.4064 26.1219V25.4569L24.9302 25.6519V25.6325Z" fill="#FFC100"/>
<path d="M6.30055 10.6672L5.76555 11.3541L6.0868 11.5566L6.45305 10.7628H6.46367L6.8018 11.5509L7.1568 11.3484L6.61617 10.6722V10.6609L7.46617 10.7628V10.3797L6.61617 10.4922V10.4809L7.15117 9.77719L6.81367 9.58594L6.46992 10.3741H6.45867L6.1093 9.59094L5.76555 9.78844L6.29492 10.4753V10.4866L5.4668 10.3797V10.7628L6.30055 10.6559V10.6672Z" fill="#FFC100"/>
<path d="M88.3148 21.0708V20.4189L86.8667 20.6108V20.5914L87.7779 19.3927L87.2023 19.0664L86.6173 20.4089H86.5979L86.0035 19.0758L85.4179 19.412L86.3198 20.582V20.6014L84.9092 20.4189V21.0708L86.3292 20.8889V20.9083L85.4179 22.0783L85.9648 22.4239L86.5886 21.0708H86.6073L87.1829 22.4139L87.7873 22.0689L86.8667 20.9177V20.8983L88.3148 21.0708Z" fill="#FFC100"/>
<path d="M71.7154 9.7377L72.4879 8.69332L71.9879 8.41895L71.4985 9.58332H71.4816L70.9541 8.4402L70.4529 8.73645L71.2435 9.73582L71.2441 9.75269L70.0254 9.61082L70.0329 10.1733L71.2554 10.0008V10.0171L70.4829 11.0364L70.9579 11.3283L71.481 10.1546H71.4973L72.0085 11.3064L72.526 11.0014L71.7191 10.0189V10.0027L72.9698 10.1352L72.9623 9.5727L71.7154 9.75457V9.7377Z" fill="#FFC100"/>
</g>
<defs>
<clipPath id="clip0_151_826">
<rect width="105" height="105" fill="white"/>
</clipPath>
</defs>
</svg>
