<svg width="105" height="105" viewBox="0 0 105 105" fill="none" xmlns="http://www.w3.org/2000/svg">
<g clip-path="url(#clip0_358_1936)">
<path d="M1.25 86.875C1.94036 86.875 2.5 86.3154 2.5 85.625C2.5 84.9346 1.94036 84.375 1.25 84.375C0.559644 84.375 0 84.9346 0 85.625C0 86.3154 0.559644 86.875 1.25 86.875Z" fill="#182F43"/>
<path d="M6.875 84.375H5C4.66848 84.375 4.35054 84.5067 4.11612 84.7411C3.8817 84.9755 3.75 85.2935 3.75 85.625C3.75 85.9565 3.8817 86.2745 4.11612 86.5089C4.35054 86.7433 4.66848 86.875 5 86.875H6.875C7.20652 86.875 7.52446 86.7433 7.75888 86.5089C7.9933 86.2745 8.125 85.9565 8.125 85.625C8.125 85.2935 7.9933 84.9755 7.75888 84.7411C7.52446 84.5067 7.20652 84.375 6.875 84.375ZM100 84.375H98.125C97.7935 84.375 97.4755 84.5067 97.2411 84.7411C97.0067 84.9755 96.875 85.2935 96.875 85.625C96.875 85.9565 97.0067 86.2745 97.2411 86.5089C97.4755 86.7433 97.7935 86.875 98.125 86.875H100C100.332 86.875 100.649 86.7433 100.884 86.5089C101.118 86.2745 101.25 85.9565 101.25 85.625C101.25 85.2935 101.118 84.9755 100.884 84.7411C100.649 84.5067 100.332 84.375 100 84.375Z" fill="#182F43"/>
<path d="M103.75 86.875C104.44 86.875 105 86.3154 105 85.625C105 84.9346 104.44 84.375 103.75 84.375C103.06 84.375 102.5 84.9346 102.5 85.625C102.5 86.3154 103.06 86.875 103.75 86.875Z" fill="#182F43"/>
<path d="M94.2006 84.0106H91.2501L75.6248 84.0106L70.6251 84.0106L54.9998 84.0106L50.0001 84.0106L34.3748 84.0106L29.3751 84.0106L13.7498 84.0106L10.799 84.0106C10.6211 83.9874 10.4404 84.0024 10.2688 84.0546C10.0972 84.1067 9.93875 84.1949 9.80398 84.3132C9.6692 84.4316 9.56122 84.5773 9.48724 84.7406C9.41327 84.904 9.375 85.0813 9.375 85.2606C9.375 85.44 9.41327 85.6172 9.48724 85.7806C9.56122 85.944 9.6692 86.0897 9.80398 86.208C9.93875 86.3263 10.0972 86.4145 10.2688 86.4667C10.4404 86.5189 10.6211 86.5339 10.799 86.5106H94.2006C94.3784 86.5339 94.5591 86.5189 94.7307 86.4667C94.9023 86.4145 95.0608 86.3263 95.1956 86.208C95.3303 86.0897 95.4383 85.944 95.5123 85.7806C95.5863 85.6172 95.6245 85.44 95.6245 85.2606C95.6245 85.0813 95.5863 84.904 95.5123 84.7406C95.4383 84.5773 95.3303 84.4316 95.1956 84.3132C95.0608 84.1949 94.9023 84.1067 94.7307 84.0546C94.5591 84.0024 94.3784 83.9874 94.2006 84.0106Z" fill="#182F43"/>
<path d="M8.995 39.5544L9.92438 38.3325L9.3375 38L8.74125 39.3687H8.72125L8.115 38.0094L7.51813 38.3519L8.4375 39.545V39.5644L7 39.3788V40.0438L8.4475 39.8581V39.8775L7.51813 41.07L8.07563 41.4225L8.71188 40.0438H8.73063L9.3175 41.4125L9.93375 41.0606L8.995 39.8869V39.8675L10.4713 40.0438V39.3788L8.995 39.5738V39.5544Z" fill="#FFC100"/>
<path d="M46.7351 15.6662L46.1995 16.3531L46.5207 16.5556L46.887 15.7618H46.8982L47.2357 16.55L47.5907 16.3475L47.0501 15.6712V15.66L47.9001 15.7618V15.3787L47.0501 15.4912V15.48L47.5851 14.7762L47.2476 14.585L46.9039 15.3731H46.8926L46.5439 14.59L46.1995 14.7875L46.7295 15.4743V15.4856L45.9014 15.3787V15.7618L46.7351 15.655V15.6662Z" fill="#FFC100"/>
<path d="M98.1257 30.4458V29.7939L96.6776 29.9858V29.9664L97.5895 28.7677L97.0138 28.4414L96.4288 29.7839H96.4088L95.8145 28.4508L95.2288 28.787L96.1307 29.957V29.9764L94.7207 29.7939V30.4458L96.1401 30.2639V30.2833L95.2288 31.4533L95.7757 31.7989L96.3995 30.4458H96.4182L96.9938 31.7889L97.5982 31.4439L96.6776 30.2927V30.2733L98.1257 30.4458Z" fill="#FFC100"/>
<path d="M74.225 16.5887L73.4388 17.5981L73.91 17.8962L74.4487 16.7294H74.4644L74.9612 17.8875L75.4825 17.59L74.6881 16.5969V16.58L75.9375 16.7294V16.1669L74.6881 16.3319V16.3156L75.4744 15.2812L74.9781 15L74.4731 16.1581H74.4569L73.9438 15.0081L73.4388 15.2981L74.2169 16.3075V16.3237L73 16.1669V16.7294L74.225 16.5719V16.5887Z" fill="#FFC100"/>
<path d="M73.8462 90H68.6539C68.3396 90.0252 68.0464 90.1678 67.8326 90.3994C67.6187 90.6311 67.5 90.9348 67.5 91.25C67.5 91.5652 67.6187 91.8689 67.8326 92.1006C68.0464 92.3322 68.3396 92.4748 68.6539 92.5H73.8462C74.1604 92.4748 74.4537 92.3322 74.6675 92.1006C74.8813 91.8689 75 91.5652 75 91.25C75 90.9348 74.8813 90.6311 74.6675 90.3994C74.4537 90.1678 74.1604 90.0252 73.8462 90ZM36.3462 90H31.1538C30.8396 90.0252 30.5464 90.1678 30.3326 90.3994C30.1187 90.6311 30 90.9348 30 91.25C30 91.5652 30.1187 91.8689 30.3326 92.1006C30.5464 92.3322 30.8396 92.4748 31.1538 92.5H36.3462C36.6604 92.4748 36.9537 92.3322 37.1675 92.1006C37.3813 91.8689 37.5 91.5652 37.5 91.25C37.5 90.9348 37.3813 90.6311 37.1675 90.3994C36.9537 90.1678 36.6604 90.0252 36.3462 90ZM65 90H40C39.6685 90 39.3506 90.1317 39.1161 90.3661C38.8817 90.6005 38.75 90.9185 38.75 91.25C38.75 91.5815 38.8817 91.8995 39.1161 92.1339C39.3506 92.3683 39.6685 92.5 40 92.5H49.9625V93.75H45C44.6685 93.75 44.3506 93.8817 44.1161 94.1161C43.8817 94.3505 43.75 94.6685 43.75 95C43.75 95.3315 43.8817 95.6495 44.1161 95.8839C44.3506 96.1183 44.6685 96.25 45 96.25H60.625C60.9565 96.25 61.2745 96.1183 61.5089 95.8839C61.7433 95.6495 61.875 95.3315 61.875 95C61.875 94.6685 61.7433 94.3505 61.5089 94.1161C61.2745 93.8817 60.9565 93.75 60.625 93.75H55.0375V92.5H65C65.3315 92.5 65.6495 92.3683 65.8839 92.1339C66.1183 91.8995 66.25 91.5815 66.25 91.25C66.25 90.9185 66.1183 90.6005 65.8839 90.3661C65.6495 90.1317 65.3315 90 65 90Z" fill="#FFC100" stroke="#182F43"/>
<path d="M5.7376 52.5686C6.09294 52.4131 6.39459 52.1548 6.60442 51.8263C6.81424 51.4979 6.92281 51.1141 6.9164 50.7234C6.90999 50.3327 6.78888 49.9527 6.56839 49.6314C6.3479 49.3102 6.03794 49.0621 5.67769 48.9186C5.31745 48.7751 4.9231 48.7425 4.54452 48.8251C4.16595 48.9076 3.82014 49.1016 3.55084 49.3825C3.28153 49.6633 3.10082 50.0184 3.03156 50.4028C2.9623 50.7873 3.00761 51.1838 3.16174 51.5423C3.36889 52.0225 3.75642 52.4003 4.23932 52.5927C4.72222 52.7851 5.26104 52.7764 5.7376 52.5686ZM4.56867 49.8499C4.74634 49.7721 4.94287 49.7493 5.13341 49.7842C5.32395 49.8191 5.49994 49.9103 5.63913 50.0461C5.77832 50.182 5.87445 50.3564 5.91538 50.5474C5.9563 50.7383 5.94017 50.9372 5.86903 51.1189C5.79789 51.3007 5.67494 51.457 5.51572 51.5682C5.3565 51.6794 5.16816 51.7405 4.97453 51.7438C4.78089 51.747 4.59066 51.6922 4.42787 51.5864C4.26509 51.4806 4.13707 51.3284 4.06001 51.1492C3.95694 50.9088 3.95261 50.637 4.04798 50.3934C4.14334 50.1498 4.3306 49.9543 4.56867 49.8499ZM95.6945 55.3659C95.4362 55.3659 95.1838 55.4431 94.9691 55.5878C94.7544 55.7325 94.5871 55.9382 94.4883 56.1789C94.3895 56.4196 94.3636 56.6844 94.414 56.9399C94.4644 57.1954 94.5887 57.43 94.7713 57.6142C94.9539 57.7984 95.1865 57.9239 95.4398 57.9747C95.693 58.0255 95.9555 57.9994 96.1941 57.8997C96.4326 57.8001 96.6365 57.6312 96.78 57.4146C96.9234 57.1981 97 56.9434 97 56.6829C96.9996 56.3337 96.8619 55.999 96.6172 55.7521C96.3724 55.5051 96.0406 55.3662 95.6945 55.3659ZM95.6945 57.3415C95.5653 57.3415 95.4391 57.3028 95.3318 57.2305C95.2244 57.1581 95.1408 57.0553 95.0914 56.9349C95.042 56.8146 95.029 56.6822 95.0542 56.5544C95.0794 56.4267 95.1416 56.3094 95.2329 56.2173C95.3242 56.1252 95.4405 56.0625 95.5671 56.037C95.6937 56.0116 95.825 56.0247 95.9443 56.0745C96.0635 56.1244 96.1655 56.2088 96.2372 56.3171C96.309 56.4254 96.3472 56.5527 96.3472 56.6829C96.3471 56.8575 96.2782 57.0249 96.1558 57.1484C96.0335 57.2719 95.8675 57.3413 95.6945 57.3415ZM75.4583 44.1707C75.2001 44.1707 74.9477 44.248 74.733 44.3927C74.5183 44.5374 74.351 44.7431 74.2522 44.9838C74.1533 45.2244 74.1275 45.4893 74.1779 45.7448C74.2282 46.0002 74.3526 46.2349 74.5352 46.4191C74.7178 46.6033 74.9504 46.7288 75.2036 46.7796C75.4569 46.8304 75.7194 46.8043 75.958 46.7046C76.1965 46.6049 76.4004 46.4361 76.5439 46.2195C76.6873 46.0029 76.7639 45.7483 76.7639 45.4878C76.7635 45.1386 76.6258 44.8038 76.3811 44.5569C76.1363 44.31 75.8045 44.1711 75.4583 44.1707ZM75.4583 46.1463C75.3292 46.1463 75.203 46.1077 75.0957 46.0354C74.9883 45.963 74.9047 45.8601 74.8552 45.7398C74.8058 45.6195 74.7929 45.4871 74.8181 45.3593C74.8433 45.2316 74.9055 45.1142 74.9968 45.0221C75.0881 44.93 75.2044 44.8673 75.331 44.8419C75.4576 44.8165 75.5889 44.8295 75.7081 44.8794C75.8274 44.9292 75.9294 45.0136 76.0011 45.1219C76.0728 45.2302 76.1111 45.3576 76.1111 45.4878C76.1109 45.6624 76.0421 45.8298 75.9197 45.9533C75.7973 46.0767 75.6314 46.1462 75.4583 46.1463ZM95.0417 6.63415C94.7835 6.63415 94.5311 6.71139 94.3164 6.85611C94.1017 7.00084 93.9343 7.20653 93.8355 7.4472C93.7367 7.68786 93.7108 7.95268 93.7612 8.20817C93.8116 8.46366 93.9359 8.69834 94.1185 8.88253C94.3011 9.06673 94.5337 9.19217 94.787 9.24299C95.0402 9.29381 95.3027 9.26772 95.5413 9.16804C95.7799 9.06835 95.9838 8.89954 96.1272 8.68295C96.2707 8.46635 96.3472 8.21171 96.3472 7.95122C96.3468 7.60203 96.2092 7.26726 95.9644 7.02035C95.7197 6.77344 95.3878 6.63455 95.0417 6.63415ZM95.0417 8.60976C94.9126 8.60976 94.7864 8.57113 94.679 8.49877C94.5717 8.42641 94.488 8.32356 94.4386 8.20323C94.3892 8.0829 94.3763 7.95049 94.4014 7.82275C94.4266 7.695 94.4888 7.57766 94.5801 7.48556C94.6714 7.39347 94.7877 7.33075 94.9143 7.30534C95.041 7.27993 95.1722 7.29297 95.2915 7.34281C95.4108 7.39265 95.5127 7.47706 95.5844 7.58536C95.6562 7.69365 95.6945 7.82097 95.6945 7.95122C95.6943 8.12582 95.6255 8.29322 95.5031 8.41668C95.3807 8.54015 95.2147 8.60958 95.0417 8.60976ZM36.9444 5.31707C36.9444 5.05658 36.8679 4.80194 36.7244 4.58535C36.581 4.36876 36.3771 4.19994 36.1385 4.10026C35.8999 4.00057 35.6374 3.97449 35.3842 4.02531C35.1309 4.07613 34.8983 4.20157 34.7157 4.38576C34.5331 4.56996 34.4088 4.80464 34.3584 5.06013C34.308 5.31561 34.3339 5.58043 34.4327 5.8211C34.5315 6.06176 34.6989 6.26746 34.9136 6.41218C35.1283 6.5569 35.3807 6.63415 35.6389 6.63415C35.985 6.63375 36.3169 6.49486 36.5616 6.24794C36.8064 6.00103 36.944 5.66626 36.9444 5.31707ZM34.9861 5.31707C34.9861 5.18683 35.0244 5.05951 35.0961 4.95121C35.1678 4.84291 35.2698 4.75851 35.3891 4.70867C35.5084 4.65882 35.6396 4.64578 35.7662 4.67119C35.8929 4.6966 36.0092 4.75932 36.1005 4.85142C36.1918 4.94352 36.2539 5.06086 36.2791 5.1886C36.3043 5.31634 36.2914 5.44875 36.242 5.56908C36.1926 5.68942 36.1089 5.79227 36.0015 5.86463C35.8942 5.93699 35.768 5.97561 35.6389 5.97561C35.4658 5.97544 35.2999 5.906 35.1775 5.78254C35.0551 5.65908 34.9863 5.49168 34.9861 5.31707Z" fill="#182F43"/>
<mask id="path-11-outside-1_358_1936" maskUnits="userSpaceOnUse" x="26" y="21" width="49" height="49" fill="black">
<rect fill="white" x="26" y="21" width="49" height="49"/>
<path fill-rule="evenodd" clip-rule="evenodd" d="M50.1062 22.1245C49.8847 22.2925 49.7654 22.7495 49.7654 23.4301V23.9951L49.0078 24.0572C43.6644 24.4957 39.0113 26.6215 35.3115 30.3144C31.7065 33.9127 29.5547 38.5247 29.0939 43.6407L28.9844 44.8573H28.1753C27.4612 44.8573 27.3441 44.8809 27.1789 45.0583C26.9671 45.2856 26.9395 45.6532 27.1168 45.8867C27.301 46.1289 27.6796 46.2346 28.3632 46.2346H28.9882L29.051 46.9921C29.4904 52.2895 31.6282 56.987 35.2763 60.6708C36.9768 62.388 39.982 64.5067 40.7171 64.5067C41.0519 64.5067 41.3171 64.202 41.3171 63.8171C41.3171 63.4567 41.2887 63.4324 39.8019 62.5209C38.1313 61.4968 36.3729 59.9561 34.9947 58.3089C32.5877 55.4319 30.9738 51.6493 30.5288 47.842C30.3168 46.0281 30.1654 46.2346 31.7073 46.2346H33.0253L33.0857 47.0839C33.3172 50.3438 34.8303 54.0033 37.0404 56.6482L37.6476 57.3749L37.4467 57.5886C36.8301 58.245 37.7537 59.1685 38.4101 58.5519L38.6239 58.3511L39.3506 58.9574C41.9541 61.1293 45.3493 62.5621 48.6405 62.8775L49.7654 62.9854V64.297C49.7654 65.8302 49.9654 65.6804 48.1952 65.4734C46.8757 65.319 45.8147 65.0919 44.4587 64.6734C43.3901 64.3437 43.1058 64.3703 42.8903 64.8198C42.7814 65.0471 42.784 65.1241 42.9098 65.3879C43.0418 65.6646 43.1392 65.719 43.9539 65.972C45.3885 66.4173 46.7653 66.6999 48.3191 66.8681L49.7654 67.0247V67.5797C49.7654 68.5585 49.9937 69 50.5 69C51.008 69 51.2346 68.5588 51.2346 67.5699V67.0049L51.9922 66.9428C54.9792 66.6977 57.5376 65.9968 60.0962 64.7226C64.2274 62.6653 67.6671 59.226 69.7246 55.0952C70.9891 52.5566 71.7018 49.9557 71.945 46.9921L72.0072 46.2346H72.6345C73.3203 46.2346 73.699 46.1291 73.8832 45.8867C74.0605 45.6532 74.0329 45.2856 73.8211 45.0583C73.6559 44.8809 73.5388 44.8573 72.8247 44.8573H72.0156L71.9061 43.6407C71.3179 37.1108 67.9064 31.3275 62.4837 27.6679C59.3183 25.5318 55.9862 24.3849 51.9922 24.0572L51.2346 23.9951V23.4301C51.2346 22.4412 51.008 22 50.5 22C50.3737 22 50.1966 22.056 50.1062 22.1245ZM49.7654 26.7093V28.0271L48.9159 28.0875C45.6557 28.3189 41.9958 29.832 39.3506 32.0418L38.6239 32.6489L38.4101 32.4481C37.7537 31.8315 36.8301 32.755 37.4467 33.4114L37.6476 33.6251L37.0404 34.3518C34.8183 37.011 33.3484 40.5805 33.0733 43.985L33.0065 44.8113L31.6858 44.8369L30.3652 44.8625L30.429 44.1023C30.7677 40.0712 32.082 36.5691 34.4479 33.394C35.2954 32.2565 37.2552 30.297 38.3928 29.4495C41.1767 27.3755 44.5884 25.9719 47.791 25.5831C48.2456 25.5279 48.7208 25.4679 48.8471 25.4496C48.9733 25.4314 49.2317 25.4108 49.421 25.4039L49.7654 25.3915V26.7093ZM52.8422 25.5308C56.3814 25.9444 59.6861 27.2729 62.6215 29.4623C63.7442 30.2997 65.7071 32.2633 66.5374 33.3798C68.918 36.5808 70.2328 40.0759 70.571 44.1023L70.6348 44.8625L69.3142 44.8369L67.9935 44.8113L67.9259 43.985C67.7695 42.0748 67.1241 39.6 66.6939 39.2617C66.3903 39.0228 66.1987 39.0231 65.8938 39.263C65.5907 39.5013 65.5886 39.7109 65.8798 40.6661C66.2163 41.7707 66.4672 43.0478 66.5363 44.0079L66.5972 44.8573H65.5736C64.6723 44.8573 64.528 44.8792 64.3662 45.0409C64.1684 45.2388 64.1279 45.5937 64.2725 45.8637C64.4107 46.122 64.8657 46.2346 65.771 46.2346H66.5973L66.542 46.9462C66.4636 47.9515 66.1583 49.4557 65.8272 50.4672C65.5201 51.4052 64.7108 53.1687 64.2511 53.9015C63.8541 54.5344 62.6113 56.1424 62.3761 56.3544C62.3761 56.3544 62.3438 56.3593 61.8469 55.8894C61.5719 55.6294 61.2844 55.4165 61.208 55.4165C60.8103 55.4165 60.4176 55.8093 60.4176 56.2068C60.4176 56.2832 61.0556 57.1008 61.3149 57.3749C61.3149 57.3749 61.4674 57.3656 60.3744 58.2146C59.3671 58.997 58.6219 59.4522 57.3829 60.0422C55.6293 60.8772 53.7259 61.4017 51.9463 61.5403L51.2346 61.5956L51.2295 60.7786C51.2266 60.3293 51.1749 59.8179 51.1147 59.6422C50.984 59.2616 50.6362 59.098 50.2475 59.2342C49.9064 59.3539 49.7769 59.7694 49.7705 60.765L49.7654 61.5685H49.3636C48.63 61.5685 46.7043 61.1904 45.5752 60.8248C43.742 60.2312 41.9308 59.261 40.4355 58.0718C39.556 57.3724 39.5682 57.4181 40.1111 56.8441C40.3703 56.57 40.5824 56.2832 40.5824 56.2068C40.5824 55.8093 40.1897 55.4165 39.792 55.4165C39.7156 55.4165 39.4289 55.6286 39.1548 55.8879C38.5687 56.4421 38.6332 56.4662 37.7841 55.3734C37.0025 54.3671 36.547 53.622 35.9556 52.3822C35.1143 50.6179 34.597 48.7616 34.4637 47.0275L34.4028 46.2346H35.229C36.1343 46.2346 36.5893 46.122 36.7275 45.8637C36.8721 45.5937 36.8317 45.2388 36.6338 45.0409C36.472 44.8792 36.3277 44.8573 35.4262 44.8573H34.4024L34.4611 44.0301C34.6634 41.1805 35.9011 38.0506 37.7841 35.6266C38.6332 34.5338 38.5687 34.5579 39.1548 35.1121C39.4289 35.3714 39.7156 35.5835 39.792 35.5835C40.1897 35.5835 40.5824 35.1907 40.5824 34.7932C40.5824 34.7168 40.3703 34.43 40.1111 34.1559C39.5568 33.5699 39.5326 33.6344 40.6256 32.7854C43.0237 30.9229 46.1407 29.683 48.9723 29.4654L49.7654 29.4044L49.7705 30.2214C49.7769 31.2302 49.9053 31.6458 50.2475 31.7658C50.6362 31.902 50.984 31.7384 51.1147 31.3578C51.1749 31.1821 51.2266 30.6707 51.2295 30.2214L51.2346 29.4044L51.9603 29.4603C53.6469 29.5903 55.677 30.1514 57.3844 30.9595C58.5128 31.4935 60.1744 32.5571 60.9226 33.2241L61.3818 33.6336L60.8997 34.1439C60.6346 34.4246 60.4176 34.7168 60.4176 34.7932C60.4176 35.1907 60.8103 35.5835 61.208 35.5835C61.2844 35.5835 61.5763 35.3665 61.8566 35.1014L62.3665 34.6194L62.7465 35.0398C62.9556 35.2711 63.3828 35.8289 63.696 36.2794C64.6115 37.5964 64.6183 37.6035 64.9701 37.6035C65.3484 37.6035 65.6519 37.3348 65.6519 37.0001C65.6519 36.6152 64.6128 35.0374 63.7012 34.0379L63.3384 33.6401L63.5462 33.4189C64.1658 32.7594 63.2529 31.8254 62.5938 32.4444L62.384 32.6416L61.8176 32.1683C59.5116 30.2418 56.6838 28.8803 53.8542 28.3344C53.3054 28.2285 52.4915 28.1159 52.0455 28.0843L51.2346 28.0268V26.7091C51.2346 25.1676 51.0281 25.3189 52.8422 25.5308ZM70.5689 46.9462C70.2086 50.9888 68.908 54.4325 66.5374 57.6202C65.7031 58.742 63.7389 60.7053 62.6215 61.5342C59.4049 63.9204 56.0033 65.2054 51.9463 65.5668L51.2346 65.6301V64.3005V62.9709L52.1017 62.9073C55.3891 62.666 58.9978 61.1734 61.6494 58.9582L62.3761 58.3511L62.5899 58.5519C63.2463 59.1685 64.1699 58.245 63.5533 57.5886L63.3524 57.3749L63.9588 56.6482C66.1309 54.045 67.5638 50.6502 67.8794 47.3594L67.9873 46.2346H69.3097H70.6322L70.5689 46.9462Z"/>
</mask>
<path fill-rule="evenodd" clip-rule="evenodd" d="M50.1062 22.1245C49.8847 22.2925 49.7654 22.7495 49.7654 23.4301V23.9951L49.0078 24.0572C43.6644 24.4957 39.0113 26.6215 35.3115 30.3144C31.7065 33.9127 29.5547 38.5247 29.0939 43.6407L28.9844 44.8573H28.1753C27.4612 44.8573 27.3441 44.8809 27.1789 45.0583C26.9671 45.2856 26.9395 45.6532 27.1168 45.8867C27.301 46.1289 27.6796 46.2346 28.3632 46.2346H28.9882L29.051 46.9921C29.4904 52.2895 31.6282 56.987 35.2763 60.6708C36.9768 62.388 39.982 64.5067 40.7171 64.5067C41.0519 64.5067 41.3171 64.202 41.3171 63.8171C41.3171 63.4567 41.2887 63.4324 39.8019 62.5209C38.1313 61.4968 36.3729 59.9561 34.9947 58.3089C32.5877 55.4319 30.9738 51.6493 30.5288 47.842C30.3168 46.0281 30.1654 46.2346 31.7073 46.2346H33.0253L33.0857 47.0839C33.3172 50.3438 34.8303 54.0033 37.0404 56.6482L37.6476 57.3749L37.4467 57.5886C36.8301 58.245 37.7537 59.1685 38.4101 58.5519L38.6239 58.3511L39.3506 58.9574C41.9541 61.1293 45.3493 62.5621 48.6405 62.8775L49.7654 62.9854V64.297C49.7654 65.8302 49.9654 65.6804 48.1952 65.4734C46.8757 65.319 45.8147 65.0919 44.4587 64.6734C43.3901 64.3437 43.1058 64.3703 42.8903 64.8198C42.7814 65.0471 42.784 65.1241 42.9098 65.3879C43.0418 65.6646 43.1392 65.719 43.9539 65.972C45.3885 66.4173 46.7653 66.6999 48.3191 66.8681L49.7654 67.0247V67.5797C49.7654 68.5585 49.9937 69 50.5 69C51.008 69 51.2346 68.5588 51.2346 67.5699V67.0049L51.9922 66.9428C54.9792 66.6977 57.5376 65.9968 60.0962 64.7226C64.2274 62.6653 67.6671 59.226 69.7246 55.0952C70.9891 52.5566 71.7018 49.9557 71.945 46.9921L72.0072 46.2346H72.6345C73.3203 46.2346 73.699 46.1291 73.8832 45.8867C74.0605 45.6532 74.0329 45.2856 73.8211 45.0583C73.6559 44.8809 73.5388 44.8573 72.8247 44.8573H72.0156L71.9061 43.6407C71.3179 37.1108 67.9064 31.3275 62.4837 27.6679C59.3183 25.5318 55.9862 24.3849 51.9922 24.0572L51.2346 23.9951V23.4301C51.2346 22.4412 51.008 22 50.5 22C50.3737 22 50.1966 22.056 50.1062 22.1245ZM49.7654 26.7093V28.0271L48.9159 28.0875C45.6557 28.3189 41.9958 29.832 39.3506 32.0418L38.6239 32.6489L38.4101 32.4481C37.7537 31.8315 36.8301 32.755 37.4467 33.4114L37.6476 33.6251L37.0404 34.3518C34.8183 37.011 33.3484 40.5805 33.0733 43.985L33.0065 44.8113L31.6858 44.8369L30.3652 44.8625L30.429 44.1023C30.7677 40.0712 32.082 36.5691 34.4479 33.394C35.2954 32.2565 37.2552 30.297 38.3928 29.4495C41.1767 27.3755 44.5884 25.9719 47.791 25.5831C48.2456 25.5279 48.7208 25.4679 48.8471 25.4496C48.9733 25.4314 49.2317 25.4108 49.421 25.4039L49.7654 25.3915V26.7093ZM52.8422 25.5308C56.3814 25.9444 59.6861 27.2729 62.6215 29.4623C63.7442 30.2997 65.7071 32.2633 66.5374 33.3798C68.918 36.5808 70.2328 40.0759 70.571 44.1023L70.6348 44.8625L69.3142 44.8369L67.9935 44.8113L67.9259 43.985C67.7695 42.0748 67.1241 39.6 66.6939 39.2617C66.3903 39.0228 66.1987 39.0231 65.8938 39.263C65.5907 39.5013 65.5886 39.7109 65.8798 40.6661C66.2163 41.7707 66.4672 43.0478 66.5363 44.0079L66.5972 44.8573H65.5736C64.6723 44.8573 64.528 44.8792 64.3662 45.0409C64.1684 45.2388 64.1279 45.5937 64.2725 45.8637C64.4107 46.122 64.8657 46.2346 65.771 46.2346H66.5973L66.542 46.9462C66.4636 47.9515 66.1583 49.4557 65.8272 50.4672C65.5201 51.4052 64.7108 53.1687 64.2511 53.9015C63.8541 54.5344 62.6113 56.1424 62.3761 56.3544C62.3761 56.3544 62.3438 56.3593 61.8469 55.8894C61.5719 55.6294 61.2844 55.4165 61.208 55.4165C60.8103 55.4165 60.4176 55.8093 60.4176 56.2068C60.4176 56.2832 61.0556 57.1008 61.3149 57.3749C61.3149 57.3749 61.4674 57.3656 60.3744 58.2146C59.3671 58.997 58.6219 59.4522 57.3829 60.0422C55.6293 60.8772 53.7259 61.4017 51.9463 61.5403L51.2346 61.5956L51.2295 60.7786C51.2266 60.3293 51.1749 59.8179 51.1147 59.6422C50.984 59.2616 50.6362 59.098 50.2475 59.2342C49.9064 59.3539 49.7769 59.7694 49.7705 60.765L49.7654 61.5685H49.3636C48.63 61.5685 46.7043 61.1904 45.5752 60.8248C43.742 60.2312 41.9308 59.261 40.4355 58.0718C39.556 57.3724 39.5682 57.4181 40.1111 56.8441C40.3703 56.57 40.5824 56.2832 40.5824 56.2068C40.5824 55.8093 40.1897 55.4165 39.792 55.4165C39.7156 55.4165 39.4289 55.6286 39.1548 55.8879C38.5687 56.4421 38.6332 56.4662 37.7841 55.3734C37.0025 54.3671 36.547 53.622 35.9556 52.3822C35.1143 50.6179 34.597 48.7616 34.4637 47.0275L34.4028 46.2346H35.229C36.1343 46.2346 36.5893 46.122 36.7275 45.8637C36.8721 45.5937 36.8317 45.2388 36.6338 45.0409C36.472 44.8792 36.3277 44.8573 35.4262 44.8573H34.4024L34.4611 44.0301C34.6634 41.1805 35.9011 38.0506 37.7841 35.6266C38.6332 34.5338 38.5687 34.5579 39.1548 35.1121C39.4289 35.3714 39.7156 35.5835 39.792 35.5835C40.1897 35.5835 40.5824 35.1907 40.5824 34.7932C40.5824 34.7168 40.3703 34.43 40.1111 34.1559C39.5568 33.5699 39.5326 33.6344 40.6256 32.7854C43.0237 30.9229 46.1407 29.683 48.9723 29.4654L49.7654 29.4044L49.7705 30.2214C49.7769 31.2302 49.9053 31.6458 50.2475 31.7658C50.6362 31.902 50.984 31.7384 51.1147 31.3578C51.1749 31.1821 51.2266 30.6707 51.2295 30.2214L51.2346 29.4044L51.9603 29.4603C53.6469 29.5903 55.677 30.1514 57.3844 30.9595C58.5128 31.4935 60.1744 32.5571 60.9226 33.2241L61.3818 33.6336L60.8997 34.1439C60.6346 34.4246 60.4176 34.7168 60.4176 34.7932C60.4176 35.1907 60.8103 35.5835 61.208 35.5835C61.2844 35.5835 61.5763 35.3665 61.8566 35.1014L62.3665 34.6194L62.7465 35.0398C62.9556 35.2711 63.3828 35.8289 63.696 36.2794C64.6115 37.5964 64.6183 37.6035 64.9701 37.6035C65.3484 37.6035 65.6519 37.3348 65.6519 37.0001C65.6519 36.6152 64.6128 35.0374 63.7012 34.0379L63.3384 33.6401L63.5462 33.4189C64.1658 32.7594 63.2529 31.8254 62.5938 32.4444L62.384 32.6416L61.8176 32.1683C59.5116 30.2418 56.6838 28.8803 53.8542 28.3344C53.3054 28.2285 52.4915 28.1159 52.0455 28.0843L51.2346 28.0268V26.7091C51.2346 25.1676 51.0281 25.3189 52.8422 25.5308ZM70.5689 46.9462C70.2086 50.9888 68.908 54.4325 66.5374 57.6202C65.7031 58.742 63.7389 60.7053 62.6215 61.5342C59.4049 63.9204 56.0033 65.2054 51.9463 65.5668L51.2346 65.6301V64.3005V62.9709L52.1017 62.9073C55.3891 62.666 58.9978 61.1734 61.6494 58.9582L62.3761 58.3511L62.5899 58.5519C63.2463 59.1685 64.1699 58.245 63.5533 57.5886L63.3524 57.3749L63.9588 56.6482C66.1309 54.045 67.5638 50.6502 67.8794 47.3594L67.9873 46.2346H69.3097H70.6322L70.5689 46.9462Z" fill="#FFC100"/>
<path fill-rule="evenodd" clip-rule="evenodd" d="M50.1062 22.1245C49.8847 22.2925 49.7654 22.7495 49.7654 23.4301V23.9951L49.0078 24.0572C43.6644 24.4957 39.0113 26.6215 35.3115 30.3144C31.7065 33.9127 29.5547 38.5247 29.0939 43.6407L28.9844 44.8573H28.1753C27.4612 44.8573 27.3441 44.8809 27.1789 45.0583C26.9671 45.2856 26.9395 45.6532 27.1168 45.8867C27.301 46.1289 27.6796 46.2346 28.3632 46.2346H28.9882L29.051 46.9921C29.4904 52.2895 31.6282 56.987 35.2763 60.6708C36.9768 62.388 39.982 64.5067 40.7171 64.5067C41.0519 64.5067 41.3171 64.202 41.3171 63.8171C41.3171 63.4567 41.2887 63.4324 39.8019 62.5209C38.1313 61.4968 36.3729 59.9561 34.9947 58.3089C32.5877 55.4319 30.9738 51.6493 30.5288 47.842C30.3168 46.0281 30.1654 46.2346 31.7073 46.2346H33.0253L33.0857 47.0839C33.3172 50.3438 34.8303 54.0033 37.0404 56.6482L37.6476 57.3749L37.4467 57.5886C36.8301 58.245 37.7537 59.1685 38.4101 58.5519L38.6239 58.3511L39.3506 58.9574C41.9541 61.1293 45.3493 62.5621 48.6405 62.8775L49.7654 62.9854V64.297C49.7654 65.8302 49.9654 65.6804 48.1952 65.4734C46.8757 65.319 45.8147 65.0919 44.4587 64.6734C43.3901 64.3437 43.1058 64.3703 42.8903 64.8198C42.7814 65.0471 42.784 65.1241 42.9098 65.3879C43.0418 65.6646 43.1392 65.719 43.9539 65.972C45.3885 66.4173 46.7653 66.6999 48.3191 66.8681L49.7654 67.0247V67.5797C49.7654 68.5585 49.9937 69 50.5 69C51.008 69 51.2346 68.5588 51.2346 67.5699V67.0049L51.9922 66.9428C54.9792 66.6977 57.5376 65.9968 60.0962 64.7226C64.2274 62.6653 67.6671 59.226 69.7246 55.0952C70.9891 52.5566 71.7018 49.9557 71.945 46.9921L72.0072 46.2346H72.6345C73.3203 46.2346 73.699 46.1291 73.8832 45.8867C74.0605 45.6532 74.0329 45.2856 73.8211 45.0583C73.6559 44.8809 73.5388 44.8573 72.8247 44.8573H72.0156L71.9061 43.6407C71.3179 37.1108 67.9064 31.3275 62.4837 27.6679C59.3183 25.5318 55.9862 24.3849 51.9922 24.0572L51.2346 23.9951V23.4301C51.2346 22.4412 51.008 22 50.5 22C50.3737 22 50.1966 22.056 50.1062 22.1245ZM49.7654 26.7093V28.0271L48.9159 28.0875C45.6557 28.3189 41.9958 29.832 39.3506 32.0418L38.6239 32.6489L38.4101 32.4481C37.7537 31.8315 36.8301 32.755 37.4467 33.4114L37.6476 33.6251L37.0404 34.3518C34.8183 37.011 33.3484 40.5805 33.0733 43.985L33.0065 44.8113L31.6858 44.8369L30.3652 44.8625L30.429 44.1023C30.7677 40.0712 32.082 36.5691 34.4479 33.394C35.2954 32.2565 37.2552 30.297 38.3928 29.4495C41.1767 27.3755 44.5884 25.9719 47.791 25.5831C48.2456 25.5279 48.7208 25.4679 48.8471 25.4496C48.9733 25.4314 49.2317 25.4108 49.421 25.4039L49.7654 25.3915V26.7093ZM52.8422 25.5308C56.3814 25.9444 59.6861 27.2729 62.6215 29.4623C63.7442 30.2997 65.7071 32.2633 66.5374 33.3798C68.918 36.5808 70.2328 40.0759 70.571 44.1023L70.6348 44.8625L69.3142 44.8369L67.9935 44.8113L67.9259 43.985C67.7695 42.0748 67.1241 39.6 66.6939 39.2617C66.3903 39.0228 66.1987 39.0231 65.8938 39.263C65.5907 39.5013 65.5886 39.7109 65.8798 40.6661C66.2163 41.7707 66.4672 43.0478 66.5363 44.0079L66.5972 44.8573H65.5736C64.6723 44.8573 64.528 44.8792 64.3662 45.0409C64.1684 45.2388 64.1279 45.5937 64.2725 45.8637C64.4107 46.122 64.8657 46.2346 65.771 46.2346H66.5973L66.542 46.9462C66.4636 47.9515 66.1583 49.4557 65.8272 50.4672C65.5201 51.4052 64.7108 53.1687 64.2511 53.9015C63.8541 54.5344 62.6113 56.1424 62.3761 56.3544C62.3761 56.3544 62.3438 56.3593 61.8469 55.8894C61.5719 55.6294 61.2844 55.4165 61.208 55.4165C60.8103 55.4165 60.4176 55.8093 60.4176 56.2068C60.4176 56.2832 61.0556 57.1008 61.3149 57.3749C61.3149 57.3749 61.4674 57.3656 60.3744 58.2146C59.3671 58.997 58.6219 59.4522 57.3829 60.0422C55.6293 60.8772 53.7259 61.4017 51.9463 61.5403L51.2346 61.5956L51.2295 60.7786C51.2266 60.3293 51.1749 59.8179 51.1147 59.6422C50.984 59.2616 50.6362 59.098 50.2475 59.2342C49.9064 59.3539 49.7769 59.7694 49.7705 60.765L49.7654 61.5685H49.3636C48.63 61.5685 46.7043 61.1904 45.5752 60.8248C43.742 60.2312 41.9308 59.261 40.4355 58.0718C39.556 57.3724 39.5682 57.4181 40.1111 56.8441C40.3703 56.57 40.5824 56.2832 40.5824 56.2068C40.5824 55.8093 40.1897 55.4165 39.792 55.4165C39.7156 55.4165 39.4289 55.6286 39.1548 55.8879C38.5687 56.4421 38.6332 56.4662 37.7841 55.3734C37.0025 54.3671 36.547 53.622 35.9556 52.3822C35.1143 50.6179 34.597 48.7616 34.4637 47.0275L34.4028 46.2346H35.229C36.1343 46.2346 36.5893 46.122 36.7275 45.8637C36.8721 45.5937 36.8317 45.2388 36.6338 45.0409C36.472 44.8792 36.3277 44.8573 35.4262 44.8573H34.4024L34.4611 44.0301C34.6634 41.1805 35.9011 38.0506 37.7841 35.6266C38.6332 34.5338 38.5687 34.5579 39.1548 35.1121C39.4289 35.3714 39.7156 35.5835 39.792 35.5835C40.1897 35.5835 40.5824 35.1907 40.5824 34.7932C40.5824 34.7168 40.3703 34.43 40.1111 34.1559C39.5568 33.5699 39.5326 33.6344 40.6256 32.7854C43.0237 30.9229 46.1407 29.683 48.9723 29.4654L49.7654 29.4044L49.7705 30.2214C49.7769 31.2302 49.9053 31.6458 50.2475 31.7658C50.6362 31.902 50.984 31.7384 51.1147 31.3578C51.1749 31.1821 51.2266 30.6707 51.2295 30.2214L51.2346 29.4044L51.9603 29.4603C53.6469 29.5903 55.677 30.1514 57.3844 30.9595C58.5128 31.4935 60.1744 32.5571 60.9226 33.2241L61.3818 33.6336L60.8997 34.1439C60.6346 34.4246 60.4176 34.7168 60.4176 34.7932C60.4176 35.1907 60.8103 35.5835 61.208 35.5835C61.2844 35.5835 61.5763 35.3665 61.8566 35.1014L62.3665 34.6194L62.7465 35.0398C62.9556 35.2711 63.3828 35.8289 63.696 36.2794C64.6115 37.5964 64.6183 37.6035 64.9701 37.6035C65.3484 37.6035 65.6519 37.3348 65.6519 37.0001C65.6519 36.6152 64.6128 35.0374 63.7012 34.0379L63.3384 33.6401L63.5462 33.4189C64.1658 32.7594 63.2529 31.8254 62.5938 32.4444L62.384 32.6416L61.8176 32.1683C59.5116 30.2418 56.6838 28.8803 53.8542 28.3344C53.3054 28.2285 52.4915 28.1159 52.0455 28.0843L51.2346 28.0268V26.7091C51.2346 25.1676 51.0281 25.3189 52.8422 25.5308ZM70.5689 46.9462C70.2086 50.9888 68.908 54.4325 66.5374 57.6202C65.7031 58.742 63.7389 60.7053 62.6215 61.5342C59.4049 63.9204 56.0033 65.2054 51.9463 65.5668L51.2346 65.6301V64.3005V62.9709L52.1017 62.9073C55.3891 62.666 58.9978 61.1734 61.6494 58.9582L62.3761 58.3511L62.5899 58.5519C63.2463 59.1685 64.1699 58.245 63.5533 57.5886L63.3524 57.3749L63.9588 56.6482C66.1309 54.045 67.5638 50.6502 67.8794 47.3594L67.9873 46.2346H69.3097H70.6322L70.5689 46.9462Z" stroke="#182F43" stroke-width="1.6" mask="url(#path-11-outside-1_358_1936)"/>
<path fill-rule="evenodd" clip-rule="evenodd" d="M49.6098 36.0077C49.5583 36.0151 49.4059 36.0361 49.2709 36.0544C48.5019 36.1587 47.5822 36.5923 46.9567 37.1454C46.1666 37.8441 45.6092 38.8502 45.4394 39.884C45.3782 40.2566 45.3862 41.1028 45.4541 41.445C45.6782 42.5736 46.3136 43.6181 47.172 44.2691L47.3856 44.4312L47.296 44.4653C46.9205 44.6082 46.7555 44.6802 46.4365 44.8402C45.0497 45.5362 43.9214 46.5889 43.12 47.9345C42.4636 49.0366 42.0979 50.2649 42.0212 51.6247V51.6247C42.0097 51.8285 42.1718 52 42.3759 52H42.5714V52C42.9506 52 43.2576 51.6919 43.3073 51.316C43.4378 50.3288 43.8147 49.1445 44.2873 48.4224C45.1972 47.0322 46.4137 46.0786 47.8974 45.5924C49.3068 45.1306 50.6932 45.1306 52.1026 45.5924C53.5863 46.0786 54.8028 47.0322 55.7127 48.4224C56.1422 49.0787 56.5539 50.6802 56.7453 51.4994C56.8134 51.7909 57.0717 52 57.3711 52V52H57.6241C57.8282 52 57.9903 51.8285 57.9788 51.6247V51.6247C57.9021 50.2649 57.5364 49.0366 56.88 47.9345C56.0786 46.5889 54.9503 45.5362 53.5635 44.8402C53.2445 44.6802 53.0795 44.6082 52.704 44.4653L52.6144 44.4312L52.828 44.2691C53.6864 43.6181 54.3218 42.5736 54.5459 41.445C54.6138 41.1028 54.6218 40.2566 54.5606 39.884C54.425 39.0589 54.012 38.1876 53.4601 37.5631C52.7782 36.7914 51.8156 36.2462 50.8139 36.0645C50.573 36.0208 49.7796 35.9834 49.6098 36.0077ZM50.528 37.2882C52.3642 37.5866 53.619 39.3186 53.3231 41.1465C53.0253 42.986 51.2965 44.2431 49.472 43.9467C47.6358 43.6484 46.381 41.9163 46.6769 40.0885C46.9746 38.2492 48.7038 36.9919 50.528 37.2882Z" fill="#182F43"/>
<path fill-rule="evenodd" clip-rule="evenodd" d="M20.183 56.0062C20.1411 56.0122 20.0173 56.0293 19.9076 56.0442C19.2828 56.1289 18.5355 56.4812 18.0273 56.9307C17.3854 57.4983 16.9325 58.3158 16.7945 59.1558C16.7448 59.4585 16.7513 60.146 16.8065 60.4241C16.9886 61.341 17.5048 62.1897 18.2023 62.7187L18.3758 62.8503L18.303 62.878C17.9979 62.9941 17.8638 63.0526 17.6047 63.1827C16.4779 63.7481 15.5611 64.6035 14.91 65.6968C14.3767 66.5923 14.0795 67.5902 14.0172 68.6951V68.6951C14.0079 68.8606 14.1396 69 14.3054 69H14.4643V69C14.7723 69 15.0218 68.7496 15.0622 68.4443C15.1682 67.6421 15.4745 66.6799 15.8584 66.0932C16.5977 64.9637 17.5861 64.1888 18.7916 63.7938C19.9368 63.4186 21.0632 63.4186 22.2084 63.7938C23.4139 64.1888 24.4023 64.9637 25.1416 66.0932C25.4906 66.6265 25.825 67.9277 25.9806 68.5933C26.0359 68.8301 26.2458 69 26.489 69V69H26.6946C26.8604 69 26.9921 68.8606 26.9828 68.6951V68.6951C26.9205 67.5902 26.6233 66.5923 26.09 65.6968C25.4389 64.6035 24.5221 63.7481 23.3953 63.1827C23.1362 63.0526 23.0021 62.9941 22.697 62.878L22.6242 62.8503L22.7977 62.7187C23.4952 62.1897 24.0114 61.341 24.1935 60.4241C24.2487 60.146 24.2552 59.4585 24.2055 59.1558C24.0953 58.4853 23.7597 57.7774 23.3113 57.27C22.7573 56.643 21.9752 56.2 21.1613 56.0524C20.9655 56.0169 20.3209 55.9865 20.183 56.0062ZM20.929 57.0467C22.4209 57.2891 23.4404 58.6964 23.2 60.1815C22.9581 61.6762 21.5534 62.6975 20.071 62.4567C18.5791 62.2143 17.5596 60.807 17.8 59.3219C18.0419 57.8275 19.4468 56.8059 20.929 57.0467Z" fill="#182F43"/>
<path fill-rule="evenodd" clip-rule="evenodd" d="M80.183 56.0062C80.1411 56.0122 80.0173 56.0293 79.9076 56.0442C79.2828 56.1289 78.5355 56.4812 78.0273 56.9307C77.3854 57.4983 76.9325 58.3158 76.7945 59.1558C76.7448 59.4585 76.7513 60.146 76.8065 60.4241C76.9886 61.341 77.5048 62.1897 78.2023 62.7187L78.3758 62.8503L78.303 62.878C77.9979 62.9941 77.8638 63.0526 77.6047 63.1827C76.4779 63.7481 75.5611 64.6035 74.91 65.6968C74.3767 66.5923 74.0795 67.5902 74.0172 68.6951V68.6951C74.0079 68.8606 74.1396 69 74.3054 69H74.4643V69C74.7723 69 75.0218 68.7496 75.0622 68.4443C75.1682 67.6421 75.4745 66.6799 75.8584 66.0932C76.5977 64.9637 77.5861 64.1888 78.7916 63.7938C79.9368 63.4186 81.0632 63.4186 82.2084 63.7938C83.4139 64.1888 84.4023 64.9637 85.1416 66.0932C85.4906 66.6265 85.825 67.9277 85.9806 68.5933C86.0359 68.8301 86.2458 69 86.489 69V69H86.6946C86.8604 69 86.9921 68.8606 86.9828 68.6951V68.6951C86.9205 67.5902 86.6233 66.5923 86.09 65.6968C85.4389 64.6035 84.5221 63.7481 83.3953 63.1827C83.1362 63.0526 83.0021 62.9941 82.697 62.878L82.6242 62.8503L82.7977 62.7187C83.4952 62.1897 84.0114 61.341 84.1935 60.4241C84.2487 60.146 84.2552 59.4585 84.2055 59.1558C84.0953 58.4853 83.7597 57.7774 83.3113 57.27C82.7573 56.643 81.9752 56.2 81.1613 56.0524C80.9655 56.0169 80.3209 55.9865 80.183 56.0062ZM80.929 57.0467C82.4209 57.2891 83.4404 58.6964 83.2 60.1815C82.9581 61.6762 81.5534 62.6975 80.071 62.4567C78.5791 62.2143 77.5596 60.807 77.8 59.3219C78.0419 57.8275 79.4468 56.8059 80.929 57.0467Z" fill="#182F43"/>
</g>
<defs>
<clipPath id="clip0_358_1936">
<rect width="105" height="105" fill="white"/>
</clipPath>
</defs>
</svg>
