<svg width="80" height="80" viewBox="0 0 80 80" fill="none" xmlns="http://www.w3.org/2000/svg">
<path d="M20.9533 53.333H16.1914C15.6862 53.333 15.2017 53.5337 14.8445 53.8909C14.4873 54.2481 14.2866 54.7326 14.2866 55.2378V59.9997C14.2866 60.5048 14.4873 60.9893 14.8445 61.3465C15.2017 61.7038 15.6862 61.9044 16.1914 61.9044H20.9533C21.4585 61.9044 21.9429 61.7038 22.3002 61.3465C22.6574 60.9893 22.858 60.5048 22.858 59.9997V55.2378C22.858 54.7326 22.6574 54.2481 22.3002 53.8909C21.9429 53.5337 21.4585 53.333 20.9533 53.333ZM20.9533 59.9997H16.1914V55.2378H20.9533V59.9997Z" fill="#FBFBFF"/>
<path d="M31.4269 53.333H26.665C26.1598 53.333 25.6754 53.5337 25.3181 53.8909C24.9609 54.2481 24.7603 54.7326 24.7603 55.2378V59.9997C24.7603 60.5048 24.9609 60.9893 25.3181 61.3465C25.6754 61.7038 26.1598 61.9044 26.665 61.9044H31.4269C31.9321 61.9044 32.4166 61.7038 32.7738 61.3465C33.131 60.9893 33.3317 60.5048 33.3317 59.9997V55.2378C33.3317 54.7326 33.131 54.2481 32.7738 53.8909C32.4166 53.5337 31.9321 53.333 31.4269 53.333ZM31.4269 59.9997H26.665V55.2378H31.4269V59.9997Z" fill="#FFC100"/>
<path d="M35.2397 59.9997C35.2397 60.5048 35.4404 60.9893 35.7976 61.3465C36.1548 61.7038 36.6393 61.9044 37.1445 61.9044H41.9064C42.4116 61.9044 42.8961 61.7038 43.2533 61.3465C43.6105 60.9893 43.8112 60.5048 43.8112 59.9997V55.2378C43.8112 54.7326 43.6105 54.2481 43.2533 53.8909C42.8961 53.5337 42.4116 53.333 41.9064 53.333H37.1445C36.6393 53.333 36.1548 53.5337 35.7976 53.8909C35.4404 54.2481 35.2397 54.7326 35.2397 55.2378V59.9997ZM37.1445 55.2378H41.9064V59.9997H37.1445V55.2378Z" fill="#FBFBFF"/>
<path d="M22.858 44.7622C22.858 44.257 22.6574 43.7725 22.3002 43.4153C21.9429 43.0581 21.4585 42.8574 20.9533 42.8574H16.1914C15.6862 42.8574 15.2017 43.0581 14.8445 43.4153C14.4873 43.7725 14.2866 44.257 14.2866 44.7622V49.5241C14.2866 50.0293 14.4873 50.5137 14.8445 50.871C15.2017 51.2282 15.6862 51.4288 16.1914 51.4288H20.9533C21.4585 51.4288 21.9429 51.2282 22.3002 50.871C22.6574 50.5137 22.858 50.0293 22.858 49.5241V44.7622ZM20.9533 49.5241H16.1914V44.7622H20.9533V49.5241Z" fill="#FFC100"/>
<path d="M33.3342 44.7618C33.3342 44.2566 33.1336 43.7721 32.7763 43.4149C32.4191 43.0577 31.9346 42.857 31.4295 42.857H26.6676C26.1624 42.857 25.6779 43.0577 25.3207 43.4149C24.9635 43.7721 24.7628 44.2566 24.7628 44.7618V49.5237C24.7628 50.0289 24.9635 50.5134 25.3207 50.8706C25.6779 51.2278 26.1624 51.4285 26.6676 51.4285H31.4295C31.9346 51.4285 32.4191 51.2278 32.7763 50.8706C33.1336 50.5134 33.3342 50.0289 33.3342 49.5237V44.7618ZM31.4295 49.5237H26.6676V44.7618H31.4295V49.5237ZM22.858 34.2856C22.858 33.7804 22.6574 33.296 22.3002 32.9387C21.9429 32.5815 21.4585 32.3809 20.9533 32.3809H16.1914C15.6862 32.3809 15.2017 32.5815 14.8445 32.9387C14.4873 33.296 14.2866 33.7804 14.2866 34.2856V39.0475C14.2866 39.5527 14.4873 40.0372 14.8445 40.3944C15.2017 40.7516 15.6862 40.9523 16.1914 40.9523H20.9533C21.4585 40.9523 21.9429 40.7516 22.3002 40.3944C22.6574 40.0372 22.858 39.5527 22.858 39.0475V34.2856ZM20.9533 39.0475H16.1914V34.2856H20.9533V39.0475Z" fill="#FBFBFF"/>
<path d="M22.858 23.81C22.858 23.3049 22.6574 22.8204 22.3002 22.4632C21.9429 22.106 21.4585 21.9053 20.9533 21.9053H16.1914C15.6862 21.9053 15.2017 22.106 14.8445 22.4632C14.4873 22.8204 14.2866 23.3049 14.2866 23.81V28.5719C14.2866 29.0771 14.4873 29.5616 14.8445 29.9188C15.2017 30.276 15.6862 30.4767 16.1914 30.4767H20.9533C21.4585 30.4767 21.9429 30.276 22.3002 29.9188C22.6574 29.5616 22.858 29.0771 22.858 28.5719V23.81ZM20.9533 28.5719H16.1914V23.81H20.9533V28.5719Z" fill="#FFC100"/>
<path d="M33.3317 23.81C33.3317 23.3049 33.131 22.8204 32.7738 22.4632C32.4166 22.106 31.9321 21.9053 31.4269 21.9053H26.665C26.1598 21.9053 25.6754 22.106 25.3181 22.4632C24.9609 22.8204 24.7603 23.3049 24.7603 23.81V28.5719C24.7603 29.0771 24.9609 29.5616 25.3181 29.9188C25.6754 30.276 26.1598 30.4767 26.665 30.4767H31.4269C31.6926 30.4762 31.9552 30.4197 32.1977 30.311C32.4401 30.2023 32.6569 30.0438 32.8341 29.8458C32.3153 28.7419 32.2431 27.4803 32.6325 26.3245L33.2301 24.569C33.2585 24.4853 33.2989 24.4088 33.3317 24.3276L33.3317 23.81ZM31.4269 28.5719H26.665V23.81H31.4269V28.5719Z" fill="#FBFBFF"/>
<path d="M33.3317 34.2856C33.3317 33.7804 33.131 33.296 32.7738 32.9387C32.4166 32.5815 31.9321 32.3809 31.4269 32.3809H26.665C26.1598 32.3809 25.6754 32.5815 25.3181 32.9387C24.9609 33.296 24.7603 33.7804 24.7603 34.2856V39.0475C24.7603 39.5527 24.9609 40.0372 25.3181 40.3944C25.6754 40.7516 26.1598 40.9523 26.665 40.9523H31.4269C31.8718 40.9519 32.3025 40.7957 32.6441 40.5108C32.9857 40.2258 33.2167 39.8302 33.2969 39.3926C32.9315 38.3462 32.9438 37.2049 33.3317 36.1666V34.2856ZM31.4269 39.0475H26.665V34.2856H31.4269V39.0475ZM39.049 44.7618C38.8756 44.5883 38.7026 44.4145 38.5361 44.2338C37.5745 44.2226 36.6389 43.9204 35.8526 43.3668C35.6588 43.5439 35.504 43.7594 35.3979 43.9995C35.2918 44.2397 35.2368 44.4993 35.2364 44.7618V49.5237C35.2364 50.0289 35.4371 50.5134 35.7943 50.8706C36.1515 51.2278 36.636 51.4285 37.1412 51.4285H41.9031C42.2953 51.4277 42.6776 51.3056 42.9976 51.0788C43.3176 50.8521 43.5595 50.5318 43.6902 50.1621C42.9304 49.7121 42.3115 49.0588 41.9031 48.2759V49.5237H37.1412V44.7618H39.049Z" fill="#FFC100"/>
<path d="M44.7294 15.2226L43.0654 16.0414C42.4768 16.332 42.0071 16.8173 41.7358 17.415C41.4646 18.0127 41.4087 18.6858 41.5775 19.3201C40.2082 20.443 39.0316 21.7822 38.0942 23.2846C37.4435 23.1989 36.7832 23.3411 36.2255 23.6871C35.6678 24.033 35.247 24.5614 35.0347 25.1824L34.437 26.938C34.2263 27.5596 34.2373 28.2349 34.4681 28.8493C34.6989 29.4637 35.1353 29.9792 35.7031 30.3084C35.5291 32.0706 35.6442 33.8495 36.0439 35.5747C35.5231 35.9742 35.1567 36.5416 35.0069 37.1806C34.8571 37.8197 34.9331 38.4908 35.2221 39.0801L36.0409 40.7442C36.331 41.3333 36.8163 41.8035 37.4142 42.0749C38.0122 42.3463 38.6856 42.402 39.32 42.2325C40.4429 43.6016 41.7819 44.778 43.2842 45.7153C43.1984 46.366 43.3406 47.0263 43.6866 47.5841C44.0325 48.1418 44.5609 48.5626 45.1819 48.7749L46.9375 49.3726C47.5591 49.5833 48.2344 49.5723 48.8488 49.3415C49.4632 49.1107 49.9787 48.6743 50.3079 48.1065C50.777 48.1528 51.2476 48.1771 51.7181 48.1825L50.9567 46.2449C50.3222 46.2026 49.6912 46.1181 49.0679 45.992L48.7294 46.9863C48.6901 47.1016 48.6286 47.208 48.5482 47.2995C48.4678 47.391 48.3702 47.4658 48.261 47.5195C48.1517 47.5733 48.0329 47.605 47.9114 47.6129C47.7899 47.6207 47.668 47.6045 47.5528 47.5653L45.7972 46.9676C45.5643 46.8884 45.3726 46.7199 45.264 46.4992C45.1554 46.2785 45.1389 46.0238 45.2182 45.791L45.5567 44.7966C43.2788 43.679 41.3394 41.9752 39.9377 39.8603L38.9953 40.324C38.7746 40.4325 38.5199 40.449 38.2871 40.3697C38.0543 40.2905 37.8625 40.122 37.7539 39.9013L36.9351 38.2373C36.8265 38.0167 36.8101 37.7619 36.8893 37.5291C36.9686 37.2963 37.1371 37.1045 37.3577 36.9959L38.3001 36.5323C37.4797 34.1312 37.3132 31.5551 37.8176 29.0684L36.8232 28.7298C36.5904 28.6506 36.3986 28.4821 36.2901 28.2614C36.1815 28.0408 36.165 27.786 36.2442 27.5532L36.8419 25.7976C36.8812 25.6823 36.9427 25.5759 37.0231 25.4845C37.1035 25.393 37.2011 25.3182 37.3103 25.2645C37.4196 25.2107 37.5384 25.179 37.6599 25.1711C37.7814 25.1633 37.9033 25.1794 38.0185 25.2187L39.0129 25.5572C40.1306 23.2793 41.8344 21.3399 43.9493 19.9381L43.4856 18.9957C43.377 18.7751 43.3606 18.5203 43.4398 18.2875C43.5191 18.0547 43.6876 17.8629 43.9082 17.7543L45.5722 16.9356C45.6815 16.8818 45.8003 16.8501 45.9218 16.8422C46.0433 16.8344 46.1652 16.8505 46.2805 16.8898C46.3957 16.929 46.5021 16.9906 46.5936 17.071C46.6851 17.1513 46.7599 17.2489 46.8136 17.3582L47.2773 18.3005C49.6784 17.4802 52.2545 17.3137 54.7412 17.818L55.0797 16.8237C55.119 16.7084 55.1805 16.602 55.2609 16.5105C55.3412 16.419 55.4389 16.3443 55.5481 16.2905C55.6574 16.2368 55.7761 16.2051 55.8977 16.1972C56.0192 16.1893 56.1411 16.2055 56.2563 16.2447L58.0119 16.8424C58.1272 16.8817 58.2336 16.9432 58.3251 17.0236C58.4166 17.104 58.4914 17.2016 58.5451 17.3108C58.5989 17.4201 58.6306 17.5389 58.6384 17.6604C58.6463 17.7819 58.6301 17.9038 58.5909 18.019L58.2524 19.0134C60.5303 20.131 62.4697 21.8348 63.8715 23.9498L64.8138 23.4861C65.0345 23.3775 65.2892 23.361 65.5221 23.4403C65.7549 23.5195 65.9467 23.688 66.0552 23.9087L66.874 25.5727C66.9826 25.7934 66.999 26.0481 66.9198 26.2809C66.8405 26.5137 66.672 26.7055 66.4514 26.8141L65.5091 27.2778C66.3294 29.6788 66.4959 32.255 65.9915 34.7416L66.9859 35.0802C67.2187 35.1594 67.4105 35.3279 67.519 35.5486C67.6276 35.7692 67.6441 36.024 67.5648 36.2568L66.9672 38.0124C66.8879 38.2452 66.7194 38.437 66.4988 38.5456C66.2781 38.6541 66.0233 38.6706 65.7905 38.5914L64.7962 38.2528C64.1764 39.5112 63.3745 40.6712 62.4163 41.6956L63.1817 43.6435C64.1518 42.7129 65.0027 41.6656 65.7149 40.5254C66.3655 40.6111 67.0258 40.4689 67.5836 40.123C68.1413 39.777 68.5621 39.2487 68.7744 38.6276L69.3721 36.872C69.5828 36.2505 69.5718 35.5751 69.341 34.9607C69.1102 34.3463 68.6738 33.8308 68.106 33.5017C68.28 31.7396 68.1649 29.9609 67.7654 28.2359C68.2867 27.8367 68.6535 27.2691 68.8033 26.6298C68.9531 25.9905 68.8766 25.3191 68.5869 24.7298L67.7681 23.0658C67.4781 22.4768 66.9928 22.0065 66.3949 21.7351C65.797 21.4637 65.1235 21.408 64.4891 21.5775C63.3662 20.2084 62.0272 19.032 60.5249 18.0947C60.6106 17.444 60.4684 16.7837 60.1225 16.226C59.7765 15.6683 59.2482 15.2475 58.6272 15.0352L56.8716 14.4375C56.25 14.2268 55.5747 14.2378 54.9603 14.4686C54.3459 14.6994 53.8303 15.1358 53.5012 15.7036C51.7391 15.5296 49.9604 15.6446 48.2354 16.0442C47.8362 15.5229 47.2686 15.1561 46.6293 15.0063C45.9901 14.8565 45.3186 14.9329 44.7294 15.2226Z" fill="#FBFBFF"/>
<path d="M65.8623 67.3255C66.3831 67.1233 66.8589 66.8204 67.2624 66.434C67.6659 66.0476 67.9892 65.5854 68.2138 65.0739C68.4384 64.5623 68.5599 64.0115 68.5712 63.4529C68.5826 62.8944 68.4836 62.3391 68.28 61.8188L59.4091 39.2441C60.8073 37.8817 61.8089 36.1649 62.3066 34.2772C62.8043 32.3896 62.7794 30.4021 62.2347 28.5275C61.6899 26.6528 60.6457 24.9616 59.2138 23.6347C57.7819 22.3078 56.0162 21.3951 54.1056 20.9944C53.7689 20.9223 53.4189 20.9428 53.0929 21.0537C52.7669 21.1646 52.4771 21.3619 52.2543 21.6244C52.0315 21.887 51.884 22.205 51.8276 22.5447C51.7711 22.8844 51.8078 23.233 51.9338 23.5535L54.3371 29.6695L52.1453 32.3967L48.6698 31.8773L46.265 25.7573C46.1392 25.4372 45.9292 25.1572 45.6571 24.9469C45.3851 24.7366 45.0612 24.6039 44.7198 24.5628C44.3785 24.5217 44.0323 24.5738 43.7181 24.7135C43.404 24.8532 43.1335 25.0754 42.9354 25.3565C41.8077 26.9511 41.1348 28.8224 40.9887 30.77C40.8426 32.7177 41.2287 34.6684 42.1058 36.4135C42.9828 38.1586 44.3178 39.6324 45.968 40.6773C47.6181 41.7221 49.5212 42.2987 51.4738 42.3453L60.3466 64.925C60.7613 65.9735 61.5746 66.8149 62.6085 67.2648C63.6423 67.7148 64.8123 67.7366 65.8623 67.3256V67.3255ZM62.1194 64.2283L52.7531 40.393C50.8089 40.6034 48.8491 40.1715 47.1735 39.1632C45.4978 38.1549 44.1984 36.6257 43.4737 34.8093C42.9365 33.4415 42.7483 31.9615 42.9261 30.5028C43.1039 29.0441 43.6421 27.6526 44.4922 26.4539L47.2996 33.5984L52.9451 34.4421L56.514 30.0013L53.7066 22.8569C55.383 23.2072 56.922 24.0356 58.1376 25.2419C59.3533 26.4482 60.1935 27.9808 60.5568 29.6544C60.92 31.328 60.7907 33.071 60.1845 34.6728C59.5784 36.2745 58.5212 37.6663 57.1409 38.6801L66.5072 62.5155C66.7298 63.0964 66.7136 63.7418 66.462 64.3107C66.2104 64.8797 65.7439 65.326 65.1644 65.5522C64.5849 65.7785 63.9394 65.7662 63.3689 65.5182C62.7984 65.2701 62.3492 64.8064 62.1194 64.2283L62.1194 64.2283Z" fill="#FFC100"/>
<path d="M0.952381 72.3813C1.47837 72.3813 1.90476 71.9549 1.90476 71.429C1.90476 70.903 1.47837 70.4766 0.952381 70.4766C0.426395 70.4766 0 70.903 0 71.429C0 71.9549 0.426395 72.3813 0.952381 72.3813Z" fill="#FBFBFF"/>
<path d="M5.24033 70.4766H3.81176C3.55917 70.4766 3.31693 70.5769 3.13832 70.7555C2.95971 70.9341 2.85938 71.1764 2.85938 71.4289C2.85938 71.6815 2.95971 71.9238 3.13832 72.1024C3.31693 72.281 3.55917 72.3813 3.81176 72.3813H5.24033C5.49291 72.3813 5.73516 72.281 5.91376 72.1024C6.09237 71.9238 6.19271 71.6815 6.19271 71.4289C6.19271 71.1764 6.09237 70.9341 5.91376 70.7555C5.73516 70.5769 5.49291 70.4766 5.24033 70.4766ZM76.1927 70.4766H74.7641C74.5116 70.4766 74.2693 70.5769 74.0907 70.7555C73.9121 70.9341 73.8118 71.1764 73.8118 71.4289C73.8118 71.6815 73.9121 71.9238 74.0907 72.1024C74.2693 72.281 74.5116 72.3813 74.7641 72.3813H76.1927C76.4453 72.3813 76.6875 72.281 76.8661 72.1024C77.0448 71.9238 77.1451 71.6815 77.1451 71.4289C77.1451 71.1764 77.0448 70.9341 76.8661 70.7555C76.6875 70.5769 76.4453 70.4766 76.1927 70.4766Z" fill="#FBFBFF"/>
<path d="M79.0461 72.3813C79.5721 72.3813 79.9985 71.9549 79.9985 71.4289C79.9985 70.903 79.5721 70.4766 79.0461 70.4766C78.5201 70.4766 78.0938 70.903 78.0938 71.4289C78.0938 71.9549 78.5201 72.3813 79.0461 72.3813Z" fill="#FBFBFF"/>
<path d="M56.266 74.2861H52.3099C52.0705 74.3053 51.8471 74.414 51.6842 74.5905C51.5213 74.7669 51.4308 74.9983 51.4308 75.2385C51.4308 75.4787 51.5213 75.7101 51.6842 75.8866C51.8471 76.0631 52.0705 76.1717 52.3099 76.1909H56.266C56.5054 76.1717 56.7288 76.0631 56.8917 75.8866C57.0546 75.7101 57.1451 75.4787 57.1451 75.2385C57.1451 74.9983 57.0546 74.7669 56.8917 74.5905C56.7288 74.414 56.5054 74.3053 56.266 74.2861ZM27.6946 74.2861H23.7385C23.4991 74.3053 23.2757 74.414 23.1128 74.5905C22.9498 74.7669 22.8594 74.9983 22.8594 75.2385C22.8594 75.4787 22.9498 75.7101 23.1128 75.8866C23.2757 76.0631 23.4991 76.1717 23.7385 76.1909H27.6946C27.934 76.1717 28.1574 76.0631 28.3203 75.8866C28.4832 75.7101 28.5737 75.4787 28.5737 75.2385C28.5737 74.9983 28.4832 74.7669 28.3203 74.5905C28.1574 74.414 27.934 74.3053 27.6946 74.2861ZM49.5261 74.2861H30.4784C30.2258 74.2861 29.9836 74.3865 29.805 74.5651C29.6264 74.7437 29.5261 74.9859 29.5261 75.2385C29.5261 75.4911 29.6264 75.7333 29.805 75.9119C29.9836 76.0906 30.2258 76.1909 30.4784 76.1909H38.0689V77.1433H34.288C34.0354 77.1433 33.7931 77.2436 33.6145 77.4222C33.4359 77.6008 33.3356 77.8431 33.3356 78.0956C33.3356 78.3482 33.4359 78.5905 33.6145 78.7691C33.7931 78.9477 34.0354 79.048 34.288 79.048H46.1927C46.4453 79.048 46.6876 78.9477 46.8662 78.7691C47.0448 78.5905 47.1451 78.3482 47.1451 78.0956C47.1451 77.8431 47.0448 77.6008 46.8662 77.4222C46.6876 77.2436 46.4453 77.1433 46.1927 77.1433H41.9356V76.1909H49.5261C49.7786 76.1909 50.0209 76.0906 50.1995 75.9119C50.3781 75.7333 50.4784 75.4911 50.4784 75.2385C50.4784 74.9859 50.3781 74.7437 50.1995 74.5651C50.0209 74.3865 49.7786 74.2861 49.5261 74.2861Z" fill="#FFC100"/>
<path d="M71.775 70.4759H47.1082C47.4448 69.8976 47.622 69.2403 47.622 68.5712V51.4189C47.181 51.3984 46.7451 51.3164 46.3269 51.1751L45.7173 50.9676V66.6664H12.3839V17.1426H39.8143C40.0461 16.4243 40.4454 15.7714 40.9793 15.2379H12.3839C12.3845 14.7329 12.5853 14.2487 12.9424 13.8916C13.2995 13.5345 13.7837 13.3337 14.2887 13.3331H43.8125C43.9472 13.3336 44.0815 13.3484 44.2131 13.3772C45.0912 13.0118 46.0612 12.9279 46.9891 13.137C46.6423 12.6117 46.1705 12.1805 45.6161 11.8823C45.0617 11.5841 44.442 11.4281 43.8125 11.4283H14.2887C13.2783 11.4283 12.3094 11.8297 11.5949 12.5441C10.8805 13.2585 10.4792 14.2275 10.4792 15.2379V68.5712C10.4791 69.2403 10.6564 69.8976 10.993 70.4759H8.23091C8.09542 70.4582 7.95772 70.4697 7.82699 70.5094C7.69626 70.5492 7.57552 70.6164 7.47283 70.7065C7.37015 70.7967 7.28788 70.9077 7.23151 71.0321C7.17515 71.1566 7.146 71.2917 7.146 71.4283C7.146 71.565 7.17515 71.7 7.23151 71.8245C7.28788 71.949 7.37015 72.06 7.47283 72.1501C7.57552 72.2403 7.69626 72.3075 7.82699 72.3472C7.95772 72.387 8.09542 72.3984 8.23091 72.3807H71.775C71.9105 72.3984 72.0482 72.387 72.1789 72.3472C72.3097 72.3075 72.4304 72.2403 72.5331 72.1501C72.6358 72.06 72.7181 71.949 72.7744 71.8245C72.8308 71.7 72.8599 71.565 72.8599 71.4283C72.8599 71.2917 72.8308 71.1566 72.7744 71.0321C72.7181 70.9077 72.6358 70.7967 72.5331 70.7065C72.4304 70.6164 72.3097 70.5492 72.1789 70.5094C72.0482 70.4697 71.9105 70.4582 71.775 70.4759ZM14.2887 70.4759C13.7837 70.4754 13.2995 70.2745 12.9424 69.9174C12.5854 69.5603 12.3845 69.0762 12.3839 68.5712H45.7173C45.7167 69.0762 45.5158 69.5603 45.1587 69.9174C44.8016 70.2745 44.3175 70.4754 43.8125 70.4759H14.2887ZM32.529 3.80929C32.8116 3.80929 33.0878 3.72551 33.3227 3.56853C33.5576 3.41156 33.7407 3.18845 33.8488 2.92741C33.957 2.66637 33.9853 2.37914 33.9301 2.10202C33.875 1.8249 33.739 1.57036 33.5392 1.37057C33.3394 1.17078 33.0848 1.03472 32.8077 0.979599C32.5306 0.924477 32.2434 0.952767 31.9823 1.06089C31.7213 1.16902 31.4982 1.35212 31.3412 1.58705C31.1842 1.82198 31.1004 2.09818 31.1004 2.38072C31.1009 2.75947 31.2515 3.12258 31.5193 3.39039C31.7872 3.65821 32.1503 3.80886 32.529 3.80929ZM32.529 1.66643C32.6703 1.66643 32.8084 1.70833 32.9259 1.78681C33.0433 1.8653 33.1349 1.97686 33.1889 2.10738C33.243 2.23789 33.2571 2.38151 33.2296 2.52007C33.202 2.65863 33.134 2.7859 33.0341 2.8858C32.9342 2.98569 32.8069 3.05372 32.6684 3.08128C32.5298 3.10884 32.3862 3.0947 32.2557 3.04063C32.1252 2.98657 32.0136 2.89502 31.9351 2.77756C31.8566 2.66009 31.8147 2.52199 31.8147 2.38072C31.8149 2.19134 31.8902 2.00976 32.0241 1.87585C32.1581 1.74194 32.3396 1.66662 32.529 1.66643ZM69.5268 16.4397C69.3384 16.4397 69.1543 16.4956 68.9977 16.6002C68.841 16.7049 68.719 16.8536 68.6469 17.0276C68.5748 17.2016 68.556 17.3931 68.5927 17.5779C68.6294 17.7626 68.7201 17.9323 68.8533 18.0655C68.9865 18.1987 69.1562 18.2894 69.341 18.3262C69.5257 18.3629 69.7172 18.344 69.8912 18.272C70.0653 18.1999 70.214 18.0778 70.3186 17.9212C70.4233 17.7646 70.4792 17.5804 70.4792 17.3921C70.4789 17.1396 70.3784 16.8975 70.1999 16.719C70.0213 16.5404 69.7793 16.44 69.5268 16.4397ZM69.5268 17.8683C69.4326 17.8683 69.3405 17.8403 69.2622 17.788C69.1839 17.7357 69.1229 17.6613 69.0868 17.5743C69.0508 17.4873 69.0414 17.3916 69.0597 17.2992C69.0781 17.2068 69.1235 17.122 69.1901 17.0554C69.2567 16.9888 69.3415 16.9434 69.4339 16.925C69.5262 16.9067 69.622 16.9161 69.709 16.9521C69.796 16.9882 69.8704 17.0492 69.9227 17.1275C69.975 17.2058 70.003 17.2979 70.003 17.3921C70.0028 17.5183 69.9526 17.6394 69.8634 17.7287C69.7741 17.8179 69.653 17.8681 69.5268 17.8683ZM69.5268 2.14263C69.3384 2.14263 69.1543 2.19848 68.9977 2.30313C68.841 2.40778 68.719 2.55652 68.6469 2.73055C68.5748 2.90457 68.556 3.09606 68.5927 3.28081C68.6294 3.46555 68.7201 3.63525 68.8533 3.76844C68.9865 3.90163 69.1562 3.99234 69.341 4.02909C69.5257 4.06583 69.7172 4.04697 69.8912 3.97489C70.0653 3.90281 70.214 3.78074 70.3186 3.62412C70.4233 3.4675 70.4792 3.28337 70.4792 3.09501C70.4789 2.84251 70.3784 2.60043 70.1999 2.42189C70.0213 2.24335 69.7793 2.14291 69.5268 2.14263ZM69.5268 3.5712C69.4326 3.5712 69.3405 3.54327 69.2622 3.49094C69.1839 3.43862 69.1229 3.36425 69.0868 3.27724C69.0508 3.19022 69.0414 3.09448 69.0597 3.00211C69.0781 2.90973 69.1235 2.82488 69.1901 2.75829C69.2567 2.69169 69.3415 2.64634 69.4339 2.62797C69.5262 2.60959 69.622 2.61902 69.709 2.65506C69.796 2.69111 69.8704 2.75214 69.9227 2.83045C69.975 2.90876 70.003 3.00082 70.003 3.09501C70.0028 3.22126 69.9526 3.34231 69.8634 3.43158C69.7741 3.52086 69.653 3.57107 69.5268 3.5712ZM76.4315 26.6664C76.2432 26.6664 76.059 26.7223 75.9024 26.8269C75.7458 26.9316 75.6237 27.0803 75.5517 27.2544C75.4796 27.4284 75.4607 27.6199 75.4975 27.8046C75.5342 27.9894 75.6249 28.1591 75.7581 28.2922C75.8913 28.4254 76.061 28.5161 76.2457 28.5529C76.4305 28.5896 76.622 28.5708 76.796 28.4987C76.97 28.4266 77.1188 28.3045 77.2234 28.1479C77.3281 27.9913 77.3839 27.8072 77.3839 27.6188C77.3836 27.3663 77.2832 27.1242 77.1047 26.9457C76.9261 26.7672 76.684 26.6667 76.4315 26.6664ZM76.4315 28.095C76.3374 28.095 76.2453 28.0671 76.167 28.0147C76.0887 27.9624 76.0276 27.8881 75.9916 27.801C75.9556 27.714 75.9461 27.6183 75.9645 27.5259C75.9829 27.4335 76.0282 27.3487 76.0948 27.2821C76.1614 27.2155 76.2463 27.1701 76.3386 27.1518C76.431 27.1334 76.5268 27.1428 76.6138 27.1789C76.7008 27.2149 76.7751 27.2759 76.8275 27.3543C76.8798 27.4326 76.9077 27.5246 76.9077 27.6188C76.9076 27.7451 76.8574 27.8661 76.7681 27.9554C76.6788 28.0447 76.5578 28.0949 76.4315 28.095ZM19.5268 8.32413C19.5268 8.13577 19.4709 7.95163 19.3663 7.79501C19.2616 7.6384 19.1129 7.51633 18.9389 7.44424C18.7648 7.37216 18.5733 7.3533 18.3886 7.39005C18.2038 7.4268 18.0341 7.5175 17.901 7.65069C17.7678 7.78389 17.6771 7.95358 17.6403 8.13833C17.6036 8.32307 17.6224 8.51456 17.6945 8.68859C17.7666 8.86261 17.8887 9.01136 18.0453 9.116C18.2019 9.22065 18.386 9.27651 18.5744 9.27651C18.8269 9.27622 19.069 9.17579 19.2475 8.99725C19.4261 8.8187 19.5265 8.57663 19.5268 8.32413ZM18.0982 8.32413C18.0982 8.22995 18.1261 8.13788 18.1785 8.05957C18.2308 7.98126 18.3052 7.92023 18.3922 7.88419C18.4792 7.84814 18.5749 7.83871 18.6673 7.85709C18.7597 7.87546 18.8445 7.92081 18.9111 7.98741C18.9777 8.05401 19.0231 8.13886 19.0414 8.23123C19.0598 8.3236 19.0504 8.41935 19.0143 8.50636C18.9783 8.59337 18.9173 8.66774 18.8389 8.72007C18.7606 8.77239 18.6686 8.80032 18.5744 8.80032C18.4481 8.80019 18.3271 8.74998 18.2378 8.66071C18.1485 8.57143 18.0983 8.45038 18.0982 8.32413Z" fill="#FBFBFF"/>
<path d="M4.72312 19.529L5.43122 18.5981L4.98408 18.3447L4.52979 19.3876H4.51455L4.05312 18.3519L3.59789 18.6128L4.29884 19.5219V19.5366L3.20312 19.3952V19.9019L4.30598 19.7604V19.7752L3.59789 20.6838L4.02265 20.9523L4.50741 19.9019H4.5217L4.96884 20.9447L5.43836 20.6766L4.72312 19.7823V19.7676L5.84789 19.9019V19.3952L4.72312 19.5438V19.529Z" fill="#FFC100"/>
<path d="M2.72851 4.87166L2.32089 5.39499L2.56566 5.54976L2.8447 4.94452H2.85327L3.11042 5.54499L3.38089 5.39071L2.96899 4.87595V4.86738L3.61661 4.94452V4.65261L2.96899 4.73833V4.72976L3.37661 4.19357L3.11946 4.04785L2.85756 4.64833H2.84899L2.58327 4.05214L2.32089 4.20214L2.7247 4.72595V4.73452L2.09375 4.65261V4.94452L2.72851 4.86309V4.87166Z" fill="#FFC100"/>
<path d="M78.438 12.6287V12.132L77.3347 12.2782V12.2635L78.0295 11.3501L77.5909 11.1016L77.1452 12.1244H77.1299L76.6776 11.1087L76.2309 11.3649L76.9185 12.2563V12.2711L75.8438 12.132V12.6287L76.9257 12.4901V12.5049L76.2309 13.3963L76.6476 13.6597L77.1233 12.6287H77.1371L77.5756 13.652L78.0366 13.3892L77.3347 12.512V12.4973L78.438 12.6287Z" fill="#FFC100"/>
<path d="M55.5933 9.3266L56.1924 8.5385L55.8138 8.32422L55.4295 9.2066H55.4167L55.0262 8.33041L54.6409 8.55136L55.2338 9.32041V9.33279L54.3071 9.21326V9.64184L55.24 9.52184V9.53469L54.6409 10.3037L55.0005 10.5309L55.4105 9.64184H55.4228L55.8014 10.5242L56.1986 10.2975L55.5933 9.54088V9.52803L56.5447 9.64184V9.21326L55.5933 9.33898V9.3266Z" fill="#FFC100"/>
</svg>
