<svg width="106" height="105" viewBox="0 0 106 105" fill="none" xmlns="http://www.w3.org/2000/svg">
<g clip-path="url(#clip0_151_840)">
<path d="M14.2495 76.875H29.8745C30.206 76.875 30.524 76.7433 30.7584 76.5089C30.9928 76.2745 31.1245 75.9565 31.1245 75.625C31.1245 75.2935 30.9928 74.9755 30.7584 74.7411C30.524 74.5067 30.206 74.375 29.8745 74.375H14.2495C13.918 74.375 13.6 74.5067 13.3656 74.7411C13.1312 74.9755 12.9995 75.2935 12.9995 75.625C12.9995 75.9565 13.1312 76.2745 13.3656 76.5089C13.6 76.7433 13.918 76.875 14.2495 76.875ZM71.1245 74.375H55.4995C55.168 74.375 54.85 74.5067 54.6156 74.7411C54.3812 74.9755 54.2495 75.2935 54.2495 75.625C54.2495 75.9565 54.3812 76.2745 54.6156 76.5089C54.85 76.7433 55.168 76.875 55.4995 76.875H71.1245C71.456 76.875 71.774 76.7433 72.0084 76.5089C72.2428 76.2745 72.3745 75.9565 72.3745 75.625C72.3745 75.2935 72.2428 74.9755 72.0084 74.7411C71.774 74.5067 71.456 74.375 71.1245 74.375ZM71.1245 64.375H55.4995C55.168 64.375 54.85 64.5067 54.6156 64.7411C54.3812 64.9755 54.2495 65.2935 54.2495 65.625C54.2495 65.9565 54.3812 66.2745 54.6156 66.5089C54.85 66.7433 55.168 66.875 55.4995 66.875H71.1245C71.456 66.875 71.774 66.7433 72.0084 66.5089C72.2428 66.2745 72.3745 65.9565 72.3745 65.625C72.3745 65.2935 72.2428 64.9755 72.0084 64.7411C71.774 64.5067 71.456 64.375 71.1245 64.375ZM71.1245 54.375H55.4995C55.168 54.375 54.85 54.5067 54.6156 54.7411C54.3812 54.9755 54.2495 55.2935 54.2495 55.625C54.2495 55.9565 54.3812 56.2745 54.6156 56.5089C54.85 56.7433 55.168 56.875 55.4995 56.875H71.1245C71.456 56.875 71.774 56.7433 72.0084 56.5089C72.2428 56.2745 72.3745 55.9565 72.3745 55.625C72.3745 55.2935 72.2428 54.9755 72.0084 54.7411C71.774 54.5067 71.456 54.375 71.1245 54.375ZM71.1245 44.375H55.4995C55.168 44.375 54.85 44.5067 54.6156 44.7411C54.3812 44.9755 54.2495 45.2935 54.2495 45.625C54.2495 45.9565 54.3812 46.2745 54.6156 46.5089C54.85 46.7433 55.168 46.875 55.4995 46.875H71.1245C71.456 46.875 71.774 46.7433 72.0084 46.5089C72.2428 46.2745 72.3745 45.9565 72.3745 45.625C72.3745 45.2935 72.2428 44.9755 72.0084 44.7411C71.774 44.5067 71.456 44.375 71.1245 44.375ZM50.4995 79.375H34.8745C34.543 79.375 34.225 79.5067 33.9906 79.7411C33.7562 79.9755 33.6245 80.2935 33.6245 80.625C33.6245 80.9565 33.7562 81.2745 33.9906 81.5089C34.225 81.7433 34.543 81.875 34.8745 81.875H50.4995C50.831 81.875 51.149 81.7433 51.3834 81.5089C51.6178 81.2745 51.7495 80.9565 51.7495 80.625C51.7495 80.2935 51.6178 79.9755 51.3834 79.7411C51.149 79.5067 50.831 79.375 50.4995 79.375ZM50.4995 69.375H34.8745C34.543 69.375 34.225 69.5067 33.9906 69.7411C33.7562 69.9755 33.6245 70.2935 33.6245 70.625C33.6245 70.9565 33.7562 71.2745 33.9906 71.5089C34.225 71.7433 34.543 71.875 34.8745 71.875H50.4995C50.831 71.875 51.149 71.7433 51.3834 71.5089C51.6178 71.2745 51.7495 70.9565 51.7495 70.625C51.7495 70.2935 51.6178 69.9755 51.3834 69.7411C51.149 69.5067 50.831 69.375 50.4995 69.375ZM50.4995 59.375H34.8745C34.543 59.375 34.225 59.5067 33.9906 59.7411C33.7562 59.9755 33.6245 60.2935 33.6245 60.625C33.6245 60.9565 33.7562 61.2745 33.9906 61.5089C34.225 61.7433 34.543 61.875 34.8745 61.875H50.4995C50.831 61.875 51.149 61.7433 51.3834 61.5089C51.6178 61.2745 51.7495 60.9565 51.7495 60.625C51.7495 60.2935 51.6178 59.9755 51.3834 59.7411C51.149 59.5067 50.831 59.375 50.4995 59.375ZM91.7495 79.375H76.1245C75.793 79.375 75.475 79.5067 75.2406 79.7411C75.0062 79.9755 74.8745 80.2935 74.8745 80.625C74.8745 80.9565 75.0062 81.2745 75.2406 81.5089C75.475 81.7433 75.793 81.875 76.1245 81.875H91.7495C92.081 81.875 92.399 81.7433 92.6334 81.5089C92.8678 81.2745 92.9995 80.9565 92.9995 80.625C92.9995 80.2935 92.8678 79.9755 92.6334 79.7411C92.399 79.5067 92.081 79.375 91.7495 79.375ZM91.7495 69.375H76.1245C75.793 69.375 75.475 69.5067 75.2406 69.7411C75.0062 69.9755 74.8745 70.2935 74.8745 70.625C74.8745 70.9565 75.0062 71.2745 75.2406 71.5089C75.475 71.7433 75.793 71.875 76.1245 71.875H91.7495C92.081 71.875 92.399 71.7433 92.6334 71.5089C92.8678 71.2745 92.9995 70.9565 92.9995 70.625C92.9995 70.2935 92.8678 69.9755 92.6334 69.7411C92.399 69.5067 92.081 69.375 91.7495 69.375ZM91.7495 59.375H76.1245C75.793 59.375 75.475 59.5067 75.2406 59.7411C75.0062 59.9755 74.8745 60.2935 74.8745 60.625C74.8745 60.9565 75.0062 61.2745 75.2406 61.5089C75.475 61.7433 75.793 61.875 76.1245 61.875H91.7495C92.081 61.875 92.399 61.7433 92.6334 61.5089C92.8678 61.2745 92.9995 60.9565 92.9995 60.625C92.9995 60.2935 92.8678 59.9755 92.6334 59.7411C92.399 59.5067 92.081 59.375 91.7495 59.375ZM91.7495 49.375H76.1245C75.793 49.375 75.475 49.5067 75.2406 49.7411C75.0062 49.9755 74.8745 50.2935 74.8745 50.625C74.8745 50.9565 75.0062 51.2745 75.2406 51.5089C75.475 51.7433 75.793 51.875 76.1245 51.875H91.7495C92.081 51.875 92.399 51.7433 92.6334 51.5089C92.8678 51.2745 92.9995 50.9565 92.9995 50.625C92.9995 50.2935 92.8678 49.9755 92.6334 49.7411C92.399 49.5067 92.081 49.375 91.7495 49.375ZM91.7495 39.375H76.1245C75.793 39.375 75.475 39.5067 75.2406 39.7411C75.0062 39.9755 74.8745 40.2935 74.8745 40.625C74.8745 40.9565 75.0062 41.2745 75.2406 41.5089C75.475 41.7433 75.793 41.875 76.1245 41.875H91.7495C92.081 41.875 92.399 41.7433 92.6334 41.5089C92.8678 41.2745 92.9995 40.9565 92.9995 40.625C92.9995 40.2935 92.8678 39.9755 92.6334 39.7411C92.399 39.5067 92.081 39.375 91.7495 39.375ZM74.8745 30.625C74.8745 30.9565 75.0062 31.2744 75.2406 31.5089C75.4751 31.7433 75.793 31.875 76.1245 31.875H91.7495C92.081 31.875 92.399 31.7433 92.6334 31.5089C92.8678 31.2745 92.9995 30.9565 92.9995 30.625C92.9995 30.2935 92.8678 29.9755 92.6334 29.7411C92.399 29.5067 92.081 29.375 91.7495 29.375H76.1245C75.793 29.375 75.4751 29.5067 75.2406 29.7411C75.0062 29.9756 74.8745 30.2935 74.8745 30.625Z" fill="#182F43"/>
<path d="M21.1255 71.875C21.457 71.8749 21.7749 71.7432 22.0094 71.5088C22.2438 71.2744 22.3755 70.9565 22.3755 70.625C22.6687 66.6676 24.4646 62.9723 27.3951 60.2966C30.7959 57.2876 35.5237 56.1328 41.4502 56.8603C41.6238 56.8816 41.8 56.8662 41.9673 56.8152C42.1346 56.7642 42.2893 56.6786 42.4215 56.564C42.5537 56.4494 42.6604 56.3084 42.7347 56.15C42.809 55.9916 42.8492 55.8195 42.8528 55.6446C42.854 55.5701 43.0634 48.1177 48.2715 43.9673C51.6834 41.2472 56.5301 40.516 62.6721 41.7923C62.858 41.8309 63.0502 41.8267 63.2341 41.78C63.4181 41.7332 63.589 41.6452 63.7339 41.5226C63.8788 41.4 63.9939 41.2459 64.0704 41.0722C64.1469 40.8985 64.1828 40.7096 64.1754 40.52C64.1724 40.4413 63.93 32.615 69.1077 27.717C72.174 24.8165 76.5608 23.5003 82.1543 23.7932L80.614 24.4845C80.4639 24.5515 80.3286 24.6474 80.2157 24.7668C80.1028 24.8862 80.0145 25.0266 79.9559 25.1801C79.8974 25.3336 79.8696 25.4972 79.8743 25.6614C79.879 25.8256 79.916 25.9873 79.9833 26.1372C80.0505 26.2871 80.1466 26.4223 80.2662 26.5351C80.3857 26.6478 80.5263 26.7358 80.6799 26.7942C80.8335 26.8525 80.997 26.88 81.1613 26.8751C81.3255 26.8701 81.4871 26.8329 81.6369 26.7654L86.6369 24.5217C86.8261 24.4369 86.9913 24.3062 87.1174 24.1417C87.2436 23.9771 87.3268 23.7837 87.3596 23.5789C87.3924 23.3742 87.3738 23.1645 87.3054 22.9687C87.237 22.7729 87.121 22.5973 86.9678 22.4575L82.5744 18.4512C82.3295 18.2278 82.0057 18.1109 81.6745 18.1261C81.3433 18.1414 81.0318 18.2876 80.8084 18.5326C80.585 18.7776 80.4681 19.1013 80.4834 19.4325C80.4986 19.7637 80.6448 20.0753 80.8898 20.2987L81.971 21.2845C75.8156 21.0222 70.9142 22.567 67.3895 25.9008C62.8356 30.2087 61.8964 36.2551 61.7139 39.0715C55.4858 38.0501 50.4455 39.0377 46.7132 42.0119C41.9891 45.7769 40.7727 51.6191 40.4602 54.2455C34.389 53.7493 29.4397 55.15 25.7385 58.424C22.273 61.5746 20.1702 65.9506 19.8755 70.625C19.8755 70.9565 20.0072 71.2744 20.2416 71.5088C20.476 71.7432 20.794 71.8749 21.1255 71.875ZM100.5 9.375C100.5 9.00416 100.391 8.64165 100.184 8.33331C99.9785 8.02496 99.6856 7.78464 99.343 7.64273C99.0004 7.50081 98.6234 7.46368 98.2597 7.53603C97.896 7.60837 97.5619 7.78695 97.2997 8.04917C97.0374 8.3114 96.8589 8.64549 96.7865 9.00921C96.7142 9.37292 96.7513 9.74992 96.8932 10.0925C97.0351 10.4351 97.2754 10.728 97.5838 10.934C97.8921 11.14 98.2546 11.25 98.6255 11.25C99.1226 11.2494 99.5992 11.0517 99.9507 10.7002C100.302 10.3487 100.5 9.87211 100.5 9.375ZM97.688 9.375C97.688 9.18958 97.743 9.00832 97.846 8.85415C97.949 8.69998 98.0954 8.57982 98.2667 8.50886C98.438 8.43791 98.6265 8.41934 98.8084 8.45551C98.9902 8.49169 99.1573 8.58098 99.2884 8.71209C99.4195 8.8432 99.5088 9.01025 99.545 9.1921C99.5811 9.37396 99.5626 9.56246 99.4916 9.73377C99.4207 9.90507 99.3005 10.0515 99.1463 10.1545C98.9922 10.2575 98.8109 10.3125 98.6255 10.3125C98.3769 10.3123 98.1386 10.2134 97.9628 10.0376C97.7871 9.86188 97.6882 9.62356 97.688 9.375ZM34.8755 31.875C35.2463 31.875 35.6088 31.765 35.9172 31.559C36.2255 31.353 36.4658 31.0601 36.6078 30.7175C36.7497 30.3749 36.7868 29.9979 36.7145 29.6342C36.6421 29.2705 36.4635 28.9364 36.2013 28.6742C35.9391 28.4119 35.605 28.2334 35.2413 28.161C34.8776 28.0887 34.5006 28.1258 34.158 28.2677C33.8153 28.4096 33.5225 28.65 33.3165 28.9583C33.1105 29.2666 33.0005 29.6292 33.0005 30C33.0011 30.4971 33.1988 30.9737 33.5503 31.3252C33.9018 31.6767 34.3784 31.8744 34.8755 31.875ZM34.8755 29.0625C35.0609 29.0625 35.2422 29.1175 35.3963 29.2205C35.5505 29.3235 35.6707 29.4699 35.7416 29.6412C35.8126 29.8125 35.8311 30.001 35.795 30.1829C35.7588 30.3648 35.6695 30.5318 35.5384 30.6629C35.4073 30.794 35.2402 30.8833 35.0584 30.9195C34.8765 30.9557 34.688 30.9371 34.5167 30.8661C34.3454 30.7952 34.199 30.675 34.096 30.5208C33.993 30.3667 33.938 30.1854 33.938 30C33.9382 29.7514 34.0371 29.5131 34.2128 29.3374C34.3886 29.1616 34.6269 29.0627 34.8755 29.0625ZM23.0005 49.375C23.3713 49.375 23.7338 49.265 24.0422 49.059C24.3505 48.853 24.5908 48.5601 24.7328 48.2175C24.8747 47.8749 24.9118 47.4979 24.8395 47.1342C24.7671 46.7705 24.5885 46.4364 24.3263 46.1742C24.0641 45.9119 23.73 45.7334 23.3663 45.661C23.0026 45.5887 22.6256 45.6258 22.283 45.7677C21.9403 45.9096 21.6475 46.15 21.4415 46.4583C21.2355 46.7666 21.1255 47.1292 21.1255 47.5C21.1261 47.9971 21.3238 48.4737 21.6753 48.8252C22.0268 49.1767 22.5034 49.3744 23.0005 49.375ZM23.0005 46.5625C23.1859 46.5625 23.3672 46.6175 23.5213 46.7205C23.6755 46.8235 23.7957 46.9699 23.8666 47.1412C23.9376 47.3125 23.9561 47.501 23.92 47.6829C23.8838 47.8647 23.7945 48.0318 23.6634 48.1629C23.5323 48.294 23.3652 48.3833 23.1834 48.4195C23.0015 48.4557 22.813 48.4371 22.6417 48.3661C22.4704 48.2952 22.324 48.175 22.221 48.0208C22.118 47.8667 22.063 47.6854 22.063 47.5C22.0632 47.2514 22.1621 47.0131 22.3378 46.8374C22.5136 46.6616 22.7519 46.5627 23.0005 46.5625ZM45.5005 3.75C45.7477 3.75 45.9894 3.67669 46.195 3.53934C46.4005 3.40199 46.5607 3.20676 46.6553 2.97835C46.7499 2.74995 46.7747 2.49861 46.7265 2.25614C46.6782 2.01366 46.5592 1.79093 46.3844 1.61612C46.2096 1.4413 45.9868 1.32225 45.7444 1.27402C45.5019 1.22579 45.2505 1.25054 45.0221 1.34515C44.7937 1.43976 44.5985 1.59998 44.4612 1.80554C44.3238 2.0111 44.2505 2.25277 44.2505 2.5C44.2509 2.8314 44.3827 3.14913 44.617 3.38347C44.8514 3.6178 45.1691 3.74962 45.5005 3.75ZM45.5005 1.875C45.6241 1.875 45.7449 1.91166 45.8477 1.98033C45.9505 2.04901 46.0306 2.14662 46.0779 2.26082C46.1252 2.37503 46.1376 2.50069 46.1135 2.62193C46.0894 2.74317 46.0298 2.85453 45.9424 2.94194C45.855 3.02935 45.7437 3.08888 45.6224 3.11299C45.5012 3.13711 45.3755 3.12473 45.2613 3.07743C45.1471 3.03012 45.0495 2.95001 44.9808 2.84723C44.9121 2.74445 44.8755 2.62361 44.8755 2.5C44.8757 2.33429 44.9416 2.17542 45.0587 2.05824C45.1759 1.94107 45.3348 1.87517 45.5005 1.875ZM63.0005 28.125C63.2477 28.125 63.4894 28.0517 63.695 27.9143C63.9005 27.777 64.0607 27.5818 64.1553 27.3534C64.2499 27.1249 64.2747 26.8736 64.2265 26.6311C64.1782 26.3887 64.0592 26.1659 63.8844 25.9911C63.7096 25.8163 63.4868 25.6972 63.2444 25.649C63.0019 25.6008 62.7505 25.6255 62.5221 25.7201C62.2937 25.8148 62.0985 25.975 61.9612 26.1805C61.8238 26.3861 61.7505 26.6278 61.7505 26.875C61.7509 27.2064 61.8827 27.5241 62.117 27.7585C62.3514 27.9928 62.6691 28.1246 63.0005 28.125ZM63.0005 26.25C63.1241 26.25 63.2449 26.2867 63.3477 26.3553C63.4505 26.424 63.5306 26.5216 63.5779 26.6358C63.6252 26.75 63.6376 26.8757 63.6135 26.9969C63.5894 27.1182 63.5298 27.2295 63.4424 27.3169C63.355 27.4043 63.2437 27.4639 63.1224 27.488C63.0012 27.5121 62.8755 27.4997 62.7613 27.4524C62.6471 27.4051 62.5495 27.325 62.4808 27.2222C62.4121 27.1194 62.3755 26.9986 62.3755 26.875C62.3757 26.7093 62.4416 26.5504 62.5587 26.4332C62.6759 26.3161 62.8348 26.2502 63.0005 26.25ZM11.1255 19.375C11.3727 19.375 11.6144 19.3017 11.82 19.1643C12.0255 19.027 12.1857 18.8318 12.2803 18.6034C12.3749 18.3749 12.3997 18.1236 12.3515 17.8811C12.3032 17.6387 12.1842 17.4159 12.0094 17.2411C11.8346 17.0663 11.6118 16.9472 11.3694 16.899C11.1269 16.8508 10.8755 16.8755 10.6471 16.9701C10.4187 17.0648 10.2235 17.225 10.0862 17.4305C9.9488 17.6361 9.87549 17.8778 9.87549 18.125C9.87587 18.4564 10.0077 18.7741 10.242 19.0085C10.4764 19.2428 10.7941 19.3746 11.1255 19.375ZM11.1255 17.5C11.2491 17.5 11.3699 17.5367 11.4727 17.6053C11.5755 17.674 11.6556 17.7716 11.7029 17.8858C11.7502 18 11.7626 18.1257 11.7385 18.2469C11.7144 18.3682 11.6548 18.4795 11.5674 18.5669C11.48 18.6543 11.3687 18.7139 11.2474 18.738C11.1262 18.7621 11.0005 18.7497 10.8863 18.7024C10.7721 18.6551 10.6745 18.575 10.6058 18.4722C10.5371 18.3694 10.5005 18.2486 10.5005 18.125C10.5007 17.9593 10.5666 17.8004 10.6837 17.6832C10.8009 17.5661 10.9598 17.5002 11.1255 17.5Z" fill="#182F43"/>
<path d="M1.75 86.875C2.44036 86.875 3 86.3154 3 85.625C3 84.9346 2.44036 84.375 1.75 84.375C1.05964 84.375 0.5 84.9346 0.5 85.625C0.5 86.3154 1.05964 86.875 1.75 86.875Z" fill="#182F43"/>
<path d="M7.37451 84.375H5.49951C5.16799 84.375 4.85005 84.5067 4.61563 84.7411C4.38121 84.9755 4.24951 85.2935 4.24951 85.625C4.24951 85.9565 4.38121 86.2745 4.61563 86.5089C4.85005 86.7433 5.16799 86.875 5.49951 86.875H7.37451C7.70603 86.875 8.02397 86.7433 8.25839 86.5089C8.49282 86.2745 8.62451 85.9565 8.62451 85.625C8.62451 85.2935 8.49282 84.9755 8.25839 84.7411C8.02397 84.5067 7.70603 84.375 7.37451 84.375ZM100.5 84.375H98.6245C98.293 84.375 97.975 84.5067 97.7406 84.7411C97.5062 84.9755 97.3745 85.2935 97.3745 85.625C97.3745 85.9565 97.5062 86.2745 97.7406 86.5089C97.975 86.7433 98.293 86.875 98.6245 86.875H100.5C100.831 86.875 101.149 86.7433 101.383 86.5089C101.618 86.2745 101.75 85.9565 101.75 85.625C101.75 85.2935 101.618 84.9755 101.383 84.7411C101.149 84.5067 100.831 84.375 100.5 84.375Z" fill="#182F43"/>
<path d="M104.25 86.875C104.94 86.875 105.5 86.3154 105.5 85.625C105.5 84.9346 104.94 84.375 104.25 84.375C103.56 84.375 103 84.9346 103 85.625C103 86.3154 103.56 86.875 104.25 86.875Z" fill="#182F43"/>
<path d="M94.7011 84.3749H91.7506L91.7504 84.3748H76.1252L76.1249 84.3749H71.1256L71.1254 84.3748H55.5003L55.4999 84.3749H50.5006L50.5004 84.3748H34.8753L34.8749 84.3749H29.8756L29.8754 84.3748H14.2503L14.2499 84.3749H11.2994C11.1216 84.3516 10.9409 84.3666 10.7693 84.4188C10.5977 84.471 10.4392 84.5592 10.3045 84.6775C10.1697 84.7958 10.0617 84.9415 9.98773 85.1049C9.91375 85.2683 9.87549 85.4455 9.87549 85.6249C9.87549 85.8042 9.91375 85.9815 9.98773 86.1449C10.0617 86.3082 10.1697 86.4539 10.3045 86.5723C10.4392 86.6906 10.5977 86.7788 10.7693 86.831C10.9409 86.8831 11.1216 86.8981 11.2994 86.8749H94.7011C94.8789 86.8981 95.0596 86.8831 95.2312 86.831C95.4028 86.7788 95.5613 86.6906 95.696 86.5723C95.8308 86.4539 95.9388 86.3082 96.0128 86.1449C96.0868 85.9815 96.125 85.8042 96.125 85.6249C96.125 85.4455 96.0868 85.2683 96.0128 85.1049C95.9388 84.9415 95.8308 84.7958 95.696 84.6775C95.5613 84.5592 95.4028 84.471 95.2312 84.4188C95.0596 84.3666 94.8789 84.3516 94.7011 84.3749Z" fill="#182F43"/>
<path d="M31.1245 80.625C31.1245 80.2935 30.9928 79.9756 30.7584 79.7411C30.524 79.5067 30.206 79.375 29.8745 79.375H14.2495C13.918 79.375 13.6 79.5067 13.3656 79.7411C13.1312 79.9755 12.9995 80.2935 12.9995 80.625C12.9995 80.9565 13.1312 81.2745 13.3656 81.5089C13.6 81.7433 13.918 81.875 14.2495 81.875H29.8745C30.206 81.875 30.524 81.7433 30.7584 81.5089C30.9928 81.2744 31.1245 80.9565 31.1245 80.625ZM55.4995 81.875H71.1245C71.456 81.875 71.774 81.7433 72.0084 81.5089C72.2428 81.2745 72.3745 80.9565 72.3745 80.625C72.3745 80.2935 72.2428 79.9755 72.0084 79.7411C71.774 79.5067 71.456 79.375 71.1245 79.375H55.4995C55.168 79.375 54.85 79.5067 54.6156 79.7411C54.3812 79.9755 54.2495 80.2935 54.2495 80.625C54.2495 80.9565 54.3812 81.2745 54.6156 81.5089C54.85 81.7433 55.168 81.875 55.4995 81.875ZM55.4995 71.875H71.1245C71.456 71.875 71.774 71.7433 72.0084 71.5089C72.2428 71.2745 72.3745 70.9565 72.3745 70.625C72.3745 70.2935 72.2428 69.9755 72.0084 69.7411C71.774 69.5067 71.456 69.375 71.1245 69.375H55.4995C55.168 69.375 54.85 69.5067 54.6156 69.7411C54.3812 69.9755 54.2495 70.2935 54.2495 70.625C54.2495 70.9565 54.3812 71.2745 54.6156 71.5089C54.85 71.7433 55.168 71.875 55.4995 71.875ZM55.4995 61.875H71.1245C71.456 61.875 71.774 61.7433 72.0084 61.5089C72.2428 61.2745 72.3745 60.9565 72.3745 60.625C72.3745 60.2935 72.2428 59.9755 72.0084 59.7411C71.774 59.5067 71.456 59.375 71.1245 59.375H55.4995C55.168 59.375 54.85 59.5067 54.6156 59.7411C54.3812 59.9755 54.2495 60.2935 54.2495 60.625C54.2495 60.9565 54.3812 61.2745 54.6156 61.5089C54.85 61.7433 55.168 61.875 55.4995 61.875ZM55.4995 51.875H71.1245C71.456 51.875 71.774 51.7433 72.0084 51.5089C72.2428 51.2745 72.3745 50.9565 72.3745 50.625C72.3745 50.2935 72.2428 49.9755 72.0084 49.7411C71.774 49.5067 71.456 49.375 71.1245 49.375H55.4995C55.168 49.375 54.85 49.5067 54.6156 49.7411C54.3812 49.9755 54.2495 50.2935 54.2495 50.625C54.2495 50.9565 54.3812 51.2745 54.6156 51.5089C54.85 51.7433 55.168 51.875 55.4995 51.875ZM34.8745 76.875H50.4995C50.831 76.875 51.149 76.7433 51.3834 76.5089C51.6178 76.2745 51.7495 75.9565 51.7495 75.625C51.7495 75.2935 51.6178 74.9755 51.3834 74.7411C51.149 74.5067 50.831 74.375 50.4995 74.375H34.8745C34.543 74.375 34.225 74.5067 33.9906 74.7411C33.7562 74.9755 33.6245 75.2935 33.6245 75.625C33.6245 75.9565 33.7562 76.2745 33.9906 76.5089C34.225 76.7433 34.543 76.875 34.8745 76.875ZM34.8745 66.875H50.4995C50.831 66.875 51.149 66.7433 51.3834 66.5089C51.6178 66.2745 51.7495 65.9565 51.7495 65.625C51.7495 65.2935 51.6178 64.9755 51.3834 64.7411C51.149 64.5067 50.831 64.375 50.4995 64.375H34.8745C34.543 64.375 34.225 64.5067 33.9906 64.7411C33.7562 64.9755 33.6245 65.2935 33.6245 65.625C33.6245 65.9565 33.7562 66.2745 33.9906 66.5089C34.225 66.7433 34.543 66.875 34.8745 66.875ZM91.7495 74.375H76.1245C75.793 74.375 75.475 74.5067 75.2406 74.7411C75.0062 74.9755 74.8745 75.2935 74.8745 75.625C74.8745 75.9565 75.0062 76.2745 75.2406 76.5089C75.475 76.7433 75.793 76.875 76.1245 76.875H91.7495C92.081 76.875 92.399 76.7433 92.6334 76.5089C92.8678 76.2745 92.9995 75.9565 92.9995 75.625C92.9995 75.2935 92.8678 74.9755 92.6334 74.7411C92.399 74.5067 92.081 74.375 91.7495 74.375ZM91.7495 64.375H76.1245C75.793 64.375 75.475 64.5067 75.2406 64.7411C75.0062 64.9755 74.8745 65.2935 74.8745 65.625C74.8745 65.9565 75.0062 66.2745 75.2406 66.5089C75.475 66.7433 75.793 66.875 76.1245 66.875H91.7495C92.081 66.875 92.399 66.7433 92.6334 66.5089C92.8678 66.2745 92.9995 65.9565 92.9995 65.625C92.9995 65.2935 92.8678 64.9755 92.6334 64.7411C92.399 64.5067 92.081 64.375 91.7495 64.375ZM91.7495 54.375H76.1245C75.793 54.375 75.475 54.5067 75.2406 54.7411C75.0062 54.9755 74.8745 55.2935 74.8745 55.625C74.8745 55.9565 75.0062 56.2745 75.2406 56.5089C75.475 56.7433 75.793 56.875 76.1245 56.875H91.7495C92.081 56.875 92.399 56.7433 92.6334 56.5089C92.8678 56.2745 92.9995 55.9565 92.9995 55.625C92.9995 55.2935 92.8678 54.9755 92.6334 54.7411C92.399 54.5067 92.081 54.375 91.7495 54.375ZM91.7495 44.375H76.1245C75.793 44.375 75.475 44.5067 75.2406 44.7411C75.0062 44.9755 74.8745 45.2935 74.8745 45.625C74.8745 45.9565 75.0062 46.2745 75.2406 46.5089C75.475 46.7433 75.793 46.875 76.1245 46.875H91.7495C92.081 46.875 92.399 46.7433 92.6334 46.5089C92.8678 46.2745 92.9995 45.9565 92.9995 45.625C92.9995 45.2935 92.8678 44.9755 92.6334 44.7411C92.399 44.5067 92.081 44.375 91.7495 44.375ZM91.7495 34.375H76.1245C75.793 34.375 75.475 34.5067 75.2406 34.7411C75.0062 34.9755 74.8745 35.2935 74.8745 35.625C74.8745 35.9565 75.0062 36.2745 75.2406 36.5089C75.475 36.7433 75.793 36.875 76.1245 36.875H91.7495C92.081 36.875 92.399 36.7433 92.6334 36.5089C92.8678 36.2745 92.9995 35.9565 92.9995 35.625C92.9995 35.2935 92.8678 34.9755 92.6334 34.7411C92.399 34.5067 92.081 34.375 91.7495 34.375Z" fill="#FFC100" stroke="#182F43"/>
<path d="M8.36365 43.7565L9.29303 42.5346L8.70615 42.2021L8.1099 43.5709H8.0899L7.48365 42.2115L6.88678 42.554L7.80615 43.7472V43.7665L6.36865 43.5809V44.2459L7.81615 44.0603V44.0797L6.88678 45.2722L7.44428 45.6247L8.08053 44.2459H8.09928L8.68615 45.6147L9.3024 45.2628L8.36365 44.089V44.0697L9.8399 44.2459V43.5809L8.36365 43.7759V43.7565Z" fill="#FFC100"/>
<path d="M47.2351 15.6662L46.6995 16.3531L47.0207 16.5556L47.387 15.7618H47.3982L47.7357 16.55L48.0907 16.3475L47.5501 15.6712V15.66L48.4001 15.7618V15.3787L47.5501 15.4912V15.48L48.0851 14.7762L47.7476 14.585L47.4039 15.3731H47.3926L47.0439 14.59L46.6995 14.7875L47.2295 15.4743V15.4856L46.4014 15.3787V15.7618L47.2351 15.655V15.6662Z" fill="#FFC100"/>
<path d="M98.6257 30.4458V29.7939L97.1776 29.9858V29.9664L98.0895 28.7677L97.5138 28.4414L96.9288 29.7839H96.9088L96.3145 28.4508L95.7288 28.787L96.6307 29.957V29.9764L95.2207 29.7939V30.4458L96.6401 30.2639V30.2833L95.7288 31.4533L96.2757 31.7989L96.8995 30.4458H96.9182L97.4938 31.7889L98.0982 31.4439L97.1776 30.2927V30.2733L98.6257 30.4458Z" fill="#FFC100"/>
<path d="M74.0648 13.1395L73.2786 14.1489L73.7498 14.447L74.2886 13.2802H74.3042L74.8011 14.4383L75.3223 14.1408L74.528 13.1477V13.1308L75.7773 13.2802V12.7177L74.528 12.8827V12.8664L75.3142 11.832L74.818 11.5508L74.313 12.7089H74.2967L73.7836 11.5589L73.2786 11.8489L74.0567 12.8583V12.8745L72.8398 12.7177V13.2802L74.0648 13.1227V13.1395Z" fill="#FFC100"/>
<path d="M74.3457 90H69.1534C68.8391 90.0252 68.5459 90.1678 68.3321 90.3994C68.1183 90.6311 67.9995 90.9348 67.9995 91.25C67.9995 91.5652 68.1183 91.8689 68.3321 92.1006C68.5459 92.3322 68.8391 92.4748 69.1534 92.5H74.3457C74.6599 92.4748 74.9532 92.3322 75.167 92.1006C75.3808 91.8689 75.4996 91.5652 75.4996 91.25C75.4996 90.9348 75.3808 90.6311 75.167 90.3994C74.9532 90.1678 74.6599 90.0252 74.3457 90ZM36.8457 90H31.6534C31.3391 90.0252 31.0459 90.1678 30.8321 90.3994C30.6182 90.6311 30.4995 90.9348 30.4995 91.25C30.4995 91.5652 30.6182 91.8689 30.8321 92.1006C31.0459 92.3322 31.3391 92.4748 31.6534 92.5H36.8457C37.1599 92.4748 37.4532 92.3322 37.667 92.1006C37.8808 91.8689 37.9995 91.5652 37.9995 91.25C37.9995 90.9348 37.8808 90.6311 37.667 90.3994C37.4532 90.1678 37.1599 90.0252 36.8457 90ZM65.4995 90H40.4995C40.168 90 39.8501 90.1317 39.6156 90.3661C39.3812 90.6005 39.2495 90.9185 39.2495 91.25C39.2495 91.5815 39.3812 91.8995 39.6156 92.1339C39.8501 92.3683 40.168 92.5 40.4995 92.5H50.462V93.75H45.4995C45.168 93.75 44.8501 93.8817 44.6156 94.1161C44.3812 94.3505 44.2495 94.6685 44.2495 95C44.2495 95.3315 44.3812 95.6495 44.6156 95.8839C44.8501 96.1183 45.168 96.25 45.4995 96.25H61.1245C61.4561 96.25 61.774 96.1183 62.0084 95.8839C62.2428 95.6495 62.3745 95.3315 62.3745 95C62.3745 94.6685 62.2428 94.3505 62.0084 94.1161C61.774 93.8817 61.4561 93.75 61.1245 93.75H55.537V92.5H65.4995C65.8311 92.5 66.149 92.3683 66.3834 92.1339C66.6178 91.8995 66.7495 91.5815 66.7495 91.25C66.7495 90.9185 66.6178 90.6005 66.3834 90.3661C66.149 90.1317 65.8311 90 65.4995 90Z" fill="#FFC100" stroke="#182F43"/>
</g>
<defs>
<clipPath id="clip0_151_840">
<rect width="105" height="105" fill="white" transform="translate(0.5)"/>
</clipPath>
</defs>
</svg>
