<svg width="80" height="80" viewBox="0 0 80 80" fill="none" xmlns="http://www.w3.org/2000/svg">
<path d="M39.4132 9.755C39.5004 9.62523 39.6181 9.51888 39.7561 9.44533C39.894 9.37178 40.0479 9.33328 40.2043 9.33322L40.2168 9.33322C40.3752 9.33529 40.5306 9.37686 40.6689 9.45417C40.8072 9.53147 40.924 9.64207 41.0087 9.77593L47.9474 20.7283C48.0387 20.8724 48.0896 21.0382 48.0949 21.2087C48.1001 21.3791 48.0595 21.5478 47.9773 21.6972C47.8951 21.8465 47.7744 21.9711 47.6276 22.0579C47.4808 22.1446 47.3134 22.1904 47.1429 22.1904L44.762 22.1904L44.762 27.9047C44.762 28.1573 44.6616 28.3995 44.483 28.5781C44.3044 28.7567 44.0622 28.8571 43.8096 28.8571C43.557 28.8571 43.3148 28.7567 43.1362 28.5781C42.9576 28.3995 42.8572 28.1573 42.8572 27.9047L42.8572 21.238C42.8572 20.9854 42.9576 20.7432 43.1362 20.5646C43.3148 20.386 43.557 20.2856 43.8096 20.2856L45.4121 20.2856L40.1815 12.029L34.643 20.2856L36.1906 20.2856C36.4432 20.2856 36.6854 20.386 36.864 20.5646C37.0426 20.7432 37.143 20.9854 37.143 21.238L37.143 36.9523C37.143 37.2049 37.0426 37.4471 36.864 37.6257C36.6854 37.8043 36.4432 37.9047 36.1906 37.9047C35.938 37.9047 35.6958 37.8043 35.5172 37.6257C35.3385 37.4471 35.2382 37.2049 35.2382 36.9523L35.2382 22.1904L32.8573 22.1904C32.6846 22.1904 32.5153 22.1435 32.3672 22.0547C32.2192 21.9659 32.0981 21.8385 32.0169 21.6862C31.9356 21.5339 31.8973 21.3624 31.906 21.19C31.9147 21.0176 31.9701 20.8508 32.0662 20.7074L39.4132 9.755ZM21.4286 35.0208L20.0001 35.0208L20.0001 39.3065C20.0001 39.5591 19.8997 39.8013 19.7211 39.9799C19.5425 40.1585 19.3003 40.2589 19.0477 40.2589C18.7951 40.2589 18.5529 40.1585 18.3743 39.9799C18.1957 39.8013 18.0953 39.5591 18.0953 39.3065L18.0953 34.0684C18.0953 33.8158 18.1957 33.5736 18.3743 33.395C18.5529 33.2164 18.7951 33.116 19.0477 33.116L19.705 33.116L16.3175 27.7263L12.7303 33.116L13.3334 33.116C13.586 33.116 13.8282 33.2164 14.0068 33.395C14.1854 33.5736 14.2858 33.8158 14.2858 34.0684L14.2858 46.9255C14.2858 47.1781 14.1855 47.4204 14.0068 47.599C13.8282 47.7776 13.586 47.8779 13.3334 47.8779C13.0808 47.8779 12.8386 47.7776 12.66 47.599C12.4814 47.4204 12.381 47.1781 12.381 46.9255L12.381 35.0208L10.9525 35.0208C10.7801 35.0208 10.611 34.974 10.4632 34.8855C10.3153 34.797 10.1942 34.67 10.1129 34.5181C10.0315 34.3662 9.99285 34.195 10.0011 34.0229C10.0093 33.8507 10.0641 33.684 10.1596 33.5406L15.5474 25.4454C15.6344 25.3147 15.7522 25.2076 15.8906 25.1336C16.0289 25.0595 16.1834 25.0207 16.3403 25.0208L16.3526 25.0208C16.5116 25.0229 16.6676 25.0647 16.8063 25.1425C16.945 25.2204 17.062 25.3317 17.1467 25.4663L22.235 33.5615C22.3256 33.7056 22.3759 33.8714 22.3807 34.0416C22.3855 34.2117 22.3447 34.38 22.2623 34.529C22.18 34.678 22.0592 34.8022 21.9126 34.8887C21.766 34.9752 21.5989 35.0208 21.4286 35.0208ZM69.8813 33.3966C69.7989 33.5455 69.6781 33.6697 69.5315 33.7561C69.3849 33.8426 69.2179 33.8882 69.0477 33.8882L67.6191 33.8882L67.6191 38.1739C67.6191 38.4265 67.5188 38.6687 67.3402 38.8473C67.1616 39.0259 66.9193 39.1263 66.6667 39.1263C66.4141 39.1263 66.1719 39.0259 65.9933 38.8473C65.8147 38.6687 65.7144 38.4265 65.7144 38.1739L65.7144 32.9358C65.7144 32.6832 65.8147 32.441 65.9933 32.2624C66.1719 32.0838 66.4142 31.9834 66.6667 31.9834L67.3241 31.9834L63.9365 26.5937L60.3493 31.9834L60.9524 31.9834C61.205 31.9834 61.4473 32.0838 61.6259 32.2624C61.8045 32.441 61.9048 32.6832 61.9048 32.9358L61.9048 45.7929C61.9048 46.0455 61.8045 46.2878 61.6259 46.4664C61.4473 46.645 61.205 46.7453 60.9524 46.7453C60.6999 46.7453 60.4576 46.645 60.279 46.4664C60.1004 46.2878 60.0001 46.0455 60.0001 45.7929L60.0001 33.8882L58.5715 33.8882C58.3992 33.8882 58.2301 33.8414 58.0822 33.7529C57.9343 33.6644 57.8133 33.5374 57.7319 33.3855C57.6505 33.2335 57.6119 33.0624 57.6201 32.8903C57.6284 32.7181 57.6831 32.5514 57.7786 32.408L63.1665 24.3127C63.2534 24.1821 63.3713 24.075 63.5096 24.0009C63.6479 23.9269 63.8024 23.8881 63.9593 23.8882L63.9717 23.8882C64.1307 23.8903 64.2866 23.9321 64.4253 24.0099C64.564 24.0878 64.681 24.199 64.7657 24.3337L69.854 32.4289C69.9446 32.5731 69.9949 32.7389 69.9997 32.9091C70.0044 33.0792 69.9636 33.2476 69.8813 33.3966Z" fill="#FFC100"/>
<path d="M0.952381 71.645C1.47837 71.645 1.90476 71.2186 1.90476 70.6926C1.90476 70.1666 1.47837 69.7402 0.952381 69.7402C0.426395 69.7402 0 70.1666 0 70.6926C0 71.2186 0.426395 71.645 0.952381 71.645Z" fill="#FBFBFF"/>
<path d="M5.24033 69.7402H3.81176C3.55917 69.7402 3.31693 69.8406 3.13832 70.0192C2.95971 70.1978 2.85938 70.44 2.85938 70.6926C2.85938 70.9452 2.95971 71.1875 3.13832 71.3661C3.31693 71.5447 3.55917 71.645 3.81176 71.645H5.24033C5.49291 71.645 5.73516 71.5447 5.91376 71.3661C6.09237 71.1875 6.19271 70.9452 6.19271 70.6926C6.19271 70.44 6.09237 70.1978 5.91376 70.0192C5.73516 69.8406 5.49291 69.7402 5.24033 69.7402ZM76.1927 69.7402H74.7641C74.5116 69.7402 74.2693 69.8406 74.0907 70.0192C73.9121 70.1978 73.8118 70.44 73.8118 70.6926C73.8118 70.9452 73.9121 71.1875 74.0907 71.3661C74.2693 71.5447 74.5116 71.645 74.7641 71.645H76.1927C76.4453 71.645 76.6875 71.5447 76.8661 71.3661C77.0448 71.1875 77.1451 70.9452 77.1451 70.6926C77.1451 70.44 77.0448 70.1978 76.8661 70.0192C76.6875 69.8406 76.4453 69.7402 76.1927 69.7402Z" fill="#FBFBFF"/>
<path d="M79.0461 71.645C79.5721 71.645 79.9985 71.2186 79.9985 70.6926C79.9985 70.1666 79.5721 69.7402 79.0461 69.7402C78.5201 69.7402 78.0938 70.1666 78.0938 70.6926C78.0938 71.2186 78.5201 71.645 79.0461 71.645Z" fill="#FBFBFF"/>
<path d="M56.266 73.5498H52.3099C52.0705 73.569 51.8471 73.6776 51.6842 73.8541C51.5213 74.0306 51.4308 74.262 51.4308 74.5022C51.4308 74.7424 51.5213 74.9737 51.6842 75.1502C51.8471 75.3267 52.0705 75.4354 52.3099 75.4546H56.266C56.5054 75.4354 56.7288 75.3267 56.8917 75.1502C57.0546 74.9737 57.1451 74.7424 57.1451 74.5022C57.1451 74.262 57.0546 74.0306 56.8917 73.8541C56.7288 73.6776 56.5054 73.569 56.266 73.5498ZM27.6946 73.5498H23.7385C23.4991 73.569 23.2757 73.6776 23.1128 73.8541C22.9498 74.0306 22.8594 74.262 22.8594 74.5022C22.8594 74.7424 22.9498 74.9737 23.1128 75.1502C23.2757 75.3267 23.4991 75.4354 23.7385 75.4546H27.6946C27.934 75.4354 28.1574 75.3267 28.3203 75.1502C28.4832 74.9737 28.5737 74.7424 28.5737 74.5022C28.5737 74.262 28.4832 74.0306 28.3203 73.8541C28.1574 73.6776 27.934 73.569 27.6946 73.5498ZM49.5261 73.5498H30.4784C30.2258 73.5498 29.9836 73.6501 29.805 73.8288C29.6264 74.0074 29.5261 74.2496 29.5261 74.5022C29.5261 74.7548 29.6264 74.997 29.805 75.1756C29.9836 75.3542 30.2258 75.4546 30.4784 75.4546H38.0689V76.407H34.288C34.0354 76.407 33.7931 76.5073 33.6145 76.6859C33.4359 76.8645 33.3356 77.1068 33.3356 77.3593C33.3356 77.6119 33.4359 77.8542 33.6145 78.0328C33.7931 78.2114 34.0354 78.3117 34.288 78.3117H46.1927C46.4453 78.3117 46.6875 78.2114 46.8662 78.0328C47.0448 77.8542 47.1451 77.6119 47.1451 77.3593C47.1451 77.1068 47.0448 76.8645 46.8662 76.6859C46.6875 76.5073 46.4453 76.407 46.1927 76.407H41.9356V75.4546H49.5261C49.7786 75.4546 50.0209 75.3542 50.1995 75.1756C50.3781 74.997 50.4784 74.7548 50.4784 74.5022C50.4784 74.2496 50.3781 74.0074 50.1995 73.8288C50.0209 73.6501 49.7786 73.5498 49.5261 73.5498Z" fill="#FFC100"/>
<path d="M71.77 69.7409H50.6334C53.7708 68.3989 55.7122 66.4547 55.7122 64.2577V36.1764C55.7122 33.5848 53.011 31.3446 48.8312 30.0303L47.7752 31.6972C51.5224 32.7675 53.8075 34.531 53.8075 36.1764C53.8075 38.7694 48.1362 41.6591 39.9979 41.6591C31.8597 41.6591 26.1884 38.7694 26.1884 36.1764C26.1884 34.5184 28.509 32.7405 32.3076 31.6728L31.199 30.0201C27 31.3329 24.2837 33.5778 24.2837 36.1764V64.2577C24.2837 66.4547 26.225 68.3989 29.3625 69.7409H8.22584C8.09036 69.7232 7.95265 69.7346 7.82192 69.7743C7.69119 69.8141 7.57045 69.8813 7.46777 69.9714C7.36508 70.0616 7.28281 70.1726 7.22645 70.2971C7.17008 70.4215 7.14093 70.5566 7.14093 70.6932C7.14093 70.8299 7.17008 70.965 7.22645 71.0894C7.28281 71.2139 7.36508 71.3249 7.46777 71.4151C7.57045 71.5052 7.69119 71.5724 7.82192 71.6122C7.95265 71.6519 8.09036 71.6633 8.22584 71.6456H71.77C71.9055 71.6633 72.0432 71.6519 72.1739 71.6122C72.3046 71.5724 72.4254 71.5052 72.528 71.4151C72.6307 71.3249 72.713 71.2139 72.7694 71.0894C72.8257 70.965 72.8549 70.8299 72.8549 70.6932C72.8549 70.5566 72.8257 70.4215 72.7694 70.2971C72.713 70.1726 72.6307 70.0616 72.528 69.9714C72.4254 69.8813 72.3046 69.8141 72.1739 69.7743C72.0432 69.7346 71.9055 69.7232 71.77 69.7409V69.7409ZM26.1884 39.7543C28.8292 42.0427 33.9655 43.5639 39.9979 43.5639C46.0304 43.5639 51.1666 42.0427 53.8075 39.7543V45.6919C53.8075 48.1309 48.1362 50.8486 39.9979 50.8486C31.8597 50.8486 26.1884 48.1309 26.1884 45.6919V39.7543ZM26.1884 49.1651C28.8046 51.3405 33.8878 52.7533 39.9979 52.7533C46.1081 52.7533 51.1913 51.3405 53.8075 49.1651V55.0603C53.8075 57.4994 48.1362 60.2171 39.9979 60.2171C31.8597 60.2171 26.1884 57.4994 26.1884 55.0603V49.1651ZM26.1884 64.2577V58.5336C28.8046 60.7089 33.8878 62.1218 39.9979 62.1218C46.1081 62.1218 51.1913 60.709 53.8075 58.5336V64.2577C53.8075 66.8512 48.1362 69.7409 39.9979 69.7409C31.8597 69.7409 26.1884 66.8512 26.1884 64.2577V64.2577ZM22.3789 20.6932C22.6614 20.6932 22.9376 20.6095 23.1725 20.4525C23.4075 20.2955 23.5906 20.0724 23.6987 19.8114C23.8068 19.5503 23.8351 19.2631 23.78 18.986C23.7249 18.7089 23.5888 18.4543 23.389 18.2545C23.1892 18.0547 22.9347 17.9187 22.6576 17.8635C22.3805 17.8084 22.0932 17.8367 21.8322 17.9448C21.5711 18.053 21.348 18.2361 21.1911 18.471C21.0341 18.7059 20.9503 18.9821 20.9503 19.2647C20.9507 19.6434 21.1014 20.0065 21.3692 20.2743C21.637 20.5422 22.0001 20.6928 22.3789 20.6932ZM22.3789 18.5504C22.5201 18.5504 22.6582 18.5923 22.7757 18.6708C22.8932 18.7492 22.9847 18.8608 23.0388 18.9913C23.0928 19.1218 23.107 19.2655 23.0794 19.404C23.0519 19.5426 22.9838 19.6698 22.8839 19.7697C22.7841 19.8696 22.6568 19.9377 22.5182 19.9652C22.3797 19.9928 22.236 19.9786 22.1055 19.9246C21.975 19.8705 21.8635 19.779 21.785 19.6615C21.7065 19.544 21.6646 19.4059 21.6646 19.2647C21.6648 19.0753 21.7401 18.8937 21.874 18.7598C22.0079 18.6259 22.1895 18.5506 22.3789 18.5504ZM75.3811 32.1218C75.1927 32.1218 75.0086 32.1777 74.852 32.2823C74.6954 32.387 74.5733 32.5357 74.5012 32.7097C74.4291 32.8838 74.4103 33.0753 74.447 33.26C74.4838 33.4447 74.5745 33.6144 74.7077 33.7476C74.8409 33.8808 75.0106 33.9715 75.1953 34.0083C75.3801 34.045 75.5715 34.0262 75.7456 33.9541C75.9196 33.882 76.0683 33.7599 76.173 33.6033C76.2776 33.4467 76.3335 33.2626 76.3335 33.0742C76.3332 32.8217 76.2328 32.5796 76.0542 32.4011C75.8757 32.2225 75.6336 32.1221 75.3811 32.1218ZM75.3811 33.5504C75.2869 33.5504 75.1949 33.5225 75.1166 33.4701C75.0382 33.4178 74.9772 33.3434 74.9412 33.2564C74.9051 33.1694 74.8957 33.0737 74.9141 32.9813C74.9324 32.8889 74.9778 32.8041 75.0444 32.7375C75.111 32.6709 75.1958 32.6255 75.2882 32.6072C75.3806 32.5888 75.4763 32.5982 75.5633 32.6342C75.6504 32.6703 75.7247 32.7313 75.7771 32.8096C75.8294 32.8879 75.8573 32.98 75.8573 33.0742C75.8572 33.2004 75.807 33.3215 75.7177 33.4108C75.6284 33.5 75.5074 33.5503 75.3811 33.5504ZM42.2201 1.68848C42.0318 1.68848 41.8476 1.74433 41.691 1.84898C41.5344 1.95363 41.4123 2.10237 41.3403 2.2764C41.2682 2.45042 41.2493 2.64191 41.2861 2.82666C41.3228 3.0114 41.4135 3.1811 41.5467 3.31429C41.6799 3.44749 41.8496 3.53819 42.0343 3.57494C42.2191 3.61169 42.4106 3.59283 42.5846 3.52074C42.7586 3.44866 42.9074 3.32659 43.012 3.16997C43.1167 3.01335 43.1725 2.82922 43.1725 2.64086C43.1722 2.38836 43.0718 2.14628 42.8933 1.96774C42.7147 1.7892 42.4726 1.68877 42.2201 1.68848ZM42.2201 3.11705C42.126 3.11705 42.0339 3.08912 41.9556 3.0368C41.8773 2.98447 41.8162 2.9101 41.7802 2.82309C41.7442 2.73608 41.7347 2.64033 41.7531 2.54796C41.7715 2.45559 41.8168 2.37074 41.8834 2.30414C41.95 2.23754 42.0349 2.19219 42.1272 2.17382C42.2196 2.15544 42.3154 2.16487 42.4024 2.20091C42.4894 2.23696 42.5638 2.29799 42.6161 2.3763C42.6684 2.45461 42.6963 2.54668 42.6963 2.64086C42.6962 2.76711 42.646 2.88816 42.5567 2.97744C42.4674 3.06671 42.3464 3.11692 42.2201 3.11705ZM55.4248 19.5058C55.2365 19.5058 55.0524 19.5616 54.8957 19.6663C54.7391 19.7709 54.617 19.9197 54.545 20.0937C54.4729 20.2677 54.454 20.4592 54.4908 20.6439C54.5275 20.8287 54.6182 20.9984 54.7514 21.1316C54.8846 21.2648 55.0543 21.3555 55.239 21.3922C55.4238 21.429 55.6153 21.4101 55.7893 21.338C55.9633 21.2659 56.1121 21.1439 56.2167 20.9873C56.3214 20.8306 56.3772 20.6465 56.3772 20.4581C56.3769 20.2056 56.2765 19.9636 56.098 19.785C55.9194 19.6065 55.6773 19.506 55.4248 19.5058ZM55.4248 20.9343C55.3307 20.9343 55.2386 20.9064 55.1603 20.8541C55.082 20.8018 55.0209 20.7274 54.9849 20.6404C54.9489 20.5534 54.9394 20.4576 54.9578 20.3652C54.9762 20.2729 55.0215 20.188 55.0881 20.1214C55.1547 20.0548 55.2396 20.0095 55.3319 19.9911C55.4243 19.9727 55.5201 19.9822 55.6071 20.0182C55.6941 20.0542 55.7685 20.1153 55.8208 20.1936C55.8731 20.2719 55.901 20.364 55.901 20.4581C55.9009 20.5844 55.8507 20.7054 55.7614 20.7947C55.6721 20.884 55.5511 20.9342 55.4248 20.9343ZM8.23826 12.598C8.23826 12.4096 8.1824 12.2255 8.07775 12.0689C7.9731 11.9123 7.82436 11.7902 7.65034 11.7181C7.47631 11.646 7.28482 11.6272 7.10008 11.6639C6.91533 11.7007 6.74564 11.7914 6.61244 11.9246C6.47925 12.0578 6.38854 12.2275 6.3518 12.4122C6.31505 12.5969 6.33391 12.7884 6.40599 12.9625C6.47808 13.1365 6.60014 13.2852 6.75676 13.3899C6.91338 13.4945 7.09751 13.5504 7.28588 13.5504C7.53838 13.5501 7.78045 13.4497 7.95899 13.2711C8.13754 13.0926 8.23797 12.8505 8.23826 12.598ZM6.80969 12.598C6.80969 12.5038 6.83762 12.4118 6.88994 12.3334C6.94226 12.2551 7.01663 12.1941 7.10365 12.1581C7.19066 12.122 7.28641 12.1126 7.37878 12.131C7.47115 12.1493 7.556 12.1947 7.62259 12.2613C7.68919 12.3279 7.73454 12.4127 7.75292 12.5051C7.77129 12.5975 7.76186 12.6932 7.72582 12.7802C7.68978 12.8672 7.62874 12.9416 7.55043 12.9939C7.47213 13.0463 7.38006 13.0742 7.28588 13.0742C7.15962 13.0741 7.03857 13.0239 6.9493 12.9346C6.86002 12.8453 6.80981 12.7243 6.80969 12.598Z" fill="#FBFBFF"/>
<path d="M5.18698 32.1267L5.89507 31.1957L5.44793 30.9424L4.99317 31.9852H4.97841L4.5165 30.9495L4.06174 31.2105L4.76222 32.1195V32.1343L3.6665 31.9929V32.4995L4.76936 32.3581V32.3729L4.06174 33.2814L4.48603 33.55L4.97079 32.4995H4.98555L5.43269 33.5424L5.90222 33.2743L5.18698 32.38V32.3652L6.31174 32.4995V31.9929L5.18698 32.1419V32.1267Z" fill="#FFC100"/>
<path d="M16.8281 2.71346L16.4205 3.23679L16.6648 3.39155L16.9438 2.78632H16.9524L17.21 3.38727L17.4805 3.23251L17.0686 2.71774V2.70917L17.7162 2.78632V2.49441L17.0686 2.5806V2.57203L17.4762 2.03584L17.2186 1.88965L16.9567 2.49012H16.9481L16.6824 1.89393L16.4205 2.04393L16.8238 2.56774V2.57632L16.1929 2.49441V2.78632L16.8281 2.70489V2.71346Z" fill="#FFC100"/>
<path d="M73.9541 21.9851V21.4885L72.8508 21.6347V21.6199L73.5451 20.7066L73.1065 20.458L72.6608 21.4809H72.646L72.1932 20.4652L71.747 20.7213L72.4341 21.6128V21.6275L71.3594 21.4885V21.9851L72.4413 21.8466V21.8613L71.747 22.7528L72.1637 23.0161L72.6389 21.9851H72.6532L73.0918 23.0085L73.5522 22.7456L72.8508 21.8685V21.8537L73.9541 21.9851Z" fill="#FFC100"/>
<path d="M65.0933 3.49164L65.6924 2.70354L65.3143 2.48926L64.9295 3.37164H64.9167L64.5262 2.49545L64.1414 2.7164L64.7343 3.48545V3.49783L63.8071 3.37831V3.80688L64.7405 3.68735V3.69973L64.1414 4.46878L64.5005 4.69592L64.9105 3.80688H64.9228L65.3014 4.68926L65.6986 4.46259L65.0933 3.70592V3.69354L66.0452 3.80688V3.37831L65.0933 3.50402V3.49164Z" fill="#FFC100"/>
</svg>
