<svg width="105" height="105" viewBox="0 0 105 105" fill="none" xmlns="http://www.w3.org/2000/svg">
<g clip-path="url(#clip0_358_1936)">
<path d="M1.25 86.875C1.94036 86.875 2.5 86.3154 2.5 85.625C2.5 84.9346 1.94036 84.375 1.25 84.375C0.559644 84.375 0 84.9346 0 85.625C0 86.3154 0.559644 86.875 1.25 86.875Z" fill="#182F43"/>
<path d="M6.875 84.375H5C4.66848 84.375 4.35054 84.5067 4.11612 84.7411C3.8817 84.9755 3.75 85.2935 3.75 85.625C3.75 85.9565 3.8817 86.2745 4.11612 86.5089C4.35054 86.7433 4.66848 86.875 5 86.875H6.875C7.20652 86.875 7.52446 86.7433 7.75888 86.5089C7.9933 86.2745 8.125 85.9565 8.125 85.625C8.125 85.2935 7.9933 84.9755 7.75888 84.7411C7.52446 84.5067 7.20652 84.375 6.875 84.375ZM100 84.375H98.125C97.7935 84.375 97.4755 84.5067 97.2411 84.7411C97.0067 84.9755 96.875 85.2935 96.875 85.625C96.875 85.9565 97.0067 86.2745 97.2411 86.5089C97.4755 86.7433 97.7935 86.875 98.125 86.875H100C100.332 86.875 100.649 86.7433 100.884 86.5089C101.118 86.2745 101.25 85.9565 101.25 85.625C101.25 85.2935 101.118 84.9755 100.884 84.7411C100.649 84.5067 100.332 84.375 100 84.375Z" fill="#182F43"/>
<path d="M103.75 86.875C104.44 86.875 105 86.3154 105 85.625C105 84.9346 104.44 84.375 103.75 84.375C103.06 84.375 102.5 84.9346 102.5 85.625C102.5 86.3154 103.06 86.875 103.75 86.875Z" fill="#182F43"/>
<path d="M94.2006 84.0106H91.2501L75.6248 84.0106L70.6251 84.0106L54.9998 84.0106L50.0001 84.0106L34.3748 84.0106L29.3751 84.0106L13.7498 84.0106L10.799 84.0106C10.6211 83.9874 10.4404 84.0024 10.2688 84.0546C10.0972 84.1067 9.93875 84.1949 9.80398 84.3132C9.6692 84.4316 9.56122 84.5773 9.48724 84.7406C9.41327 84.904 9.375 85.0813 9.375 85.2606C9.375 85.44 9.41327 85.6172 9.48724 85.7806C9.56122 85.944 9.6692 86.0897 9.80398 86.208C9.93875 86.3263 10.0972 86.4145 10.2688 86.4667C10.4404 86.5189 10.6211 86.5339 10.799 86.5106H94.2006C94.3784 86.5339 94.5591 86.5189 94.7307 86.4667C94.9023 86.4145 95.0608 86.3263 95.1956 86.208C95.3303 86.0897 95.4383 85.944 95.5123 85.7806C95.5863 85.6172 95.6245 85.44 95.6245 85.2606C95.6245 85.0813 95.5863 84.904 95.5123 84.7406C95.4383 84.5773 95.3303 84.4316 95.1956 84.3132C95.0608 84.1949 94.9023 84.1067 94.7307 84.0546C94.5591 84.0024 94.3784 83.9874 94.2006 84.0106Z" fill="#182F43"/>
<path d="M8.995 39.5544L9.92438 38.3325L9.3375 38L8.74125 39.3687H8.72125L8.115 38.0094L7.51813 38.3519L8.4375 39.545V39.5644L7 39.3788V40.0438L8.4475 39.8581V39.8775L7.51813 41.07L8.07563 41.4225L8.71188 40.0438H8.73063L9.3175 41.4125L9.93375 41.0606L8.995 39.8869V39.8675L10.4713 40.0438V39.3788L8.995 39.5738V39.5544Z" fill="#FFC100"/>
<path d="M46.7351 15.6662L46.1995 16.3531L46.5207 16.5556L46.887 15.7618H46.8982L47.2357 16.55L47.5907 16.3475L47.0501 15.6712V15.66L47.9001 15.7618V15.3787L47.0501 15.4912V15.48L47.5851 14.7762L47.2476 14.585L46.9039 15.3731H46.8926L46.5439 14.59L46.1995 14.7875L46.7295 15.4743V15.4856L45.9014 15.3787V15.7618L46.7351 15.655V15.6662Z" fill="#FFC100"/>
<path d="M98.1257 30.4458V29.7939L96.6776 29.9858V29.9664L97.5895 28.7677L97.0138 28.4414L96.4288 29.7839H96.4088L95.8145 28.4508L95.2288 28.787L96.1307 29.957V29.9764L94.7207 29.7939V30.4458L96.1401 30.2639V30.2833L95.2288 31.4533L95.7757 31.7989L96.3995 30.4458H96.4182L96.9938 31.7889L97.5982 31.4439L96.6776 30.2927V30.2733L98.1257 30.4458Z" fill="#FFC100"/>
<path d="M74.225 16.5887L73.4388 17.5981L73.91 17.8962L74.4487 16.7294H74.4644L74.9612 17.8875L75.4825 17.59L74.6881 16.5969V16.58L75.9375 16.7294V16.1669L74.6881 16.3319V16.3156L75.4744 15.2812L74.9781 15L74.4731 16.1581H74.4569L73.9438 15.0081L73.4388 15.2981L74.2169 16.3075V16.3237L73 16.1669V16.7294L74.225 16.5719V16.5887Z" fill="#FFC100"/>
<path d="M73.8462 90H68.6539C68.3396 90.0252 68.0464 90.1678 67.8326 90.3994C67.6187 90.6311 67.5 90.9348 67.5 91.25C67.5 91.5652 67.6187 91.8689 67.8326 92.1006C68.0464 92.3322 68.3396 92.4748 68.6539 92.5H73.8462C74.1604 92.4748 74.4537 92.3322 74.6675 92.1006C74.8813 91.8689 75 91.5652 75 91.25C75 90.9348 74.8813 90.6311 74.6675 90.3994C74.4537 90.1678 74.1604 90.0252 73.8462 90ZM36.3462 90H31.1538C30.8396 90.0252 30.5464 90.1678 30.3326 90.3994C30.1187 90.6311 30 90.9348 30 91.25C30 91.5652 30.1187 91.8689 30.3326 92.1006C30.5464 92.3322 30.8396 92.4748 31.1538 92.5H36.3462C36.6604 92.4748 36.9537 92.3322 37.1675 92.1006C37.3813 91.8689 37.5 91.5652 37.5 91.25C37.5 90.9348 37.3813 90.6311 37.1675 90.3994C36.9537 90.1678 36.6604 90.0252 36.3462 90ZM65 90H40C39.6685 90 39.3506 90.1317 39.1161 90.3661C38.8817 90.6005 38.75 90.9185 38.75 91.25C38.75 91.5815 38.8817 91.8995 39.1161 92.1339C39.3506 92.3683 39.6685 92.5 40 92.5H49.9625V93.75H45C44.6685 93.75 44.3506 93.8817 44.1161 94.1161C43.8817 94.3505 43.75 94.6685 43.75 95C43.75 95.3315 43.8817 95.6495 44.1161 95.8839C44.3506 96.1183 44.6685 96.25 45 96.25H60.625C60.9565 96.25 61.2745 96.1183 61.5089 95.8839C61.7433 95.6495 61.875 95.3315 61.875 95C61.875 94.6685 61.7433 94.3505 61.5089 94.1161C61.2745 93.8817 60.9565 93.75 60.625 93.75H55.0375V92.5H65C65.3315 92.5 65.6495 92.3683 65.8839 92.1339C66.1183 91.8995 66.25 91.5815 66.25 91.25C66.25 90.9185 66.1183 90.6005 65.8839 90.3661C65.6495 90.1317 65.3315 90 65 90Z" fill="#FFC100" stroke="#182F43"/>
<path d="M5.7376 52.5686C6.09294 52.4131 6.39459 52.1548 6.60442 51.8263C6.81424 51.4979 6.92281 51.1141 6.9164 50.7234C6.90999 50.3327 6.78888 49.9527 6.56839 49.6314C6.3479 49.3102 6.03794 49.0621 5.67769 48.9186C5.31745 48.7751 4.9231 48.7425 4.54452 48.8251C4.16595 48.9076 3.82014 49.1016 3.55084 49.3825C3.28153 49.6633 3.10082 50.0184 3.03156 50.4028C2.9623 50.7873 3.00761 51.1838 3.16174 51.5423C3.36889 52.0225 3.75642 52.4003 4.23932 52.5927C4.72222 52.7851 5.26104 52.7764 5.7376 52.5686ZM4.56867 49.8499C4.74634 49.7721 4.94287 49.7493 5.13341 49.7842C5.32395 49.8191 5.49994 49.9103 5.63913 50.0461C5.77832 50.182 5.87445 50.3564 5.91538 50.5474C5.9563 50.7383 5.94017 50.9372 5.86903 51.1189C5.79789 51.3007 5.67494 51.457 5.51572 51.5682C5.3565 51.6794 5.16816 51.7405 4.97453 51.7438C4.78089 51.747 4.59066 51.6922 4.42787 51.5864C4.26509 51.4806 4.13707 51.3284 4.06001 51.1492C3.95694 50.9088 3.95261 50.637 4.04798 50.3934C4.14334 50.1498 4.3306 49.9543 4.56867 49.8499ZM95.6945 55.3659C95.4362 55.3659 95.1838 55.4431 94.9691 55.5878C94.7544 55.7325 94.5871 55.9382 94.4883 56.1789C94.3895 56.4196 94.3636 56.6844 94.414 56.9399C94.4644 57.1954 94.5887 57.43 94.7713 57.6142C94.9539 57.7984 95.1865 57.9239 95.4398 57.9747C95.693 58.0255 95.9555 57.9994 96.1941 57.8997C96.4326 57.8001 96.6365 57.6312 96.78 57.4146C96.9234 57.1981 97 56.9434 97 56.6829C96.9996 56.3337 96.8619 55.999 96.6172 55.7521C96.3724 55.5051 96.0406 55.3662 95.6945 55.3659ZM95.6945 57.3415C95.5653 57.3415 95.4391 57.3028 95.3318 57.2305C95.2244 57.1581 95.1408 57.0553 95.0914 56.9349C95.042 56.8146 95.029 56.6822 95.0542 56.5544C95.0794 56.4267 95.1416 56.3094 95.2329 56.2173C95.3242 56.1252 95.4405 56.0625 95.5671 56.037C95.6937 56.0116 95.825 56.0247 95.9443 56.0745C96.0635 56.1244 96.1655 56.2088 96.2372 56.3171C96.309 56.4254 96.3472 56.5527 96.3472 56.6829C96.3471 56.8575 96.2782 57.0249 96.1558 57.1484C96.0335 57.2719 95.8675 57.3413 95.6945 57.3415ZM75.4583 44.1707C75.2001 44.1707 74.9477 44.248 74.733 44.3927C74.5183 44.5374 74.351 44.7431 74.2522 44.9838C74.1533 45.2244 74.1275 45.4893 74.1779 45.7448C74.2282 46.0002 74.3526 46.2349 74.5352 46.4191C74.7178 46.6033 74.9504 46.7288 75.2036 46.7796C75.4569 46.8304 75.7194 46.8043 75.958 46.7046C76.1965 46.6049 76.4004 46.4361 76.5439 46.2195C76.6873 46.0029 76.7639 45.7483 76.7639 45.4878C76.7635 45.1386 76.6258 44.8038 76.3811 44.5569C76.1363 44.31 75.8045 44.1711 75.4583 44.1707ZM75.4583 46.1463C75.3292 46.1463 75.203 46.1077 75.0957 46.0354C74.9883 45.963 74.9047 45.8601 74.8552 45.7398C74.8058 45.6195 74.7929 45.4871 74.8181 45.3593C74.8433 45.2316 74.9055 45.1142 74.9968 45.0221C75.0881 44.93 75.2044 44.8673 75.331 44.8419C75.4576 44.8165 75.5889 44.8295 75.7081 44.8794C75.8274 44.9292 75.9294 45.0136 76.0011 45.1219C76.0728 45.2302 76.1111 45.3576 76.1111 45.4878C76.1109 45.6624 76.0421 45.8298 75.9197 45.9533C75.7973 46.0767 75.6314 46.1462 75.4583 46.1463ZM95.0417 6.63415C94.7835 6.63415 94.5311 6.71139 94.3164 6.85611C94.1017 7.00084 93.9343 7.20653 93.8355 7.4472C93.7367 7.68786 93.7108 7.95268 93.7612 8.20817C93.8116 8.46366 93.9359 8.69834 94.1185 8.88253C94.3011 9.06673 94.5337 9.19217 94.787 9.24299C95.0402 9.29381 95.3027 9.26772 95.5413 9.16804C95.7799 9.06835 95.9838 8.89954 96.1272 8.68295C96.2707 8.46635 96.3472 8.21171 96.3472 7.95122C96.3468 7.60203 96.2092 7.26726 95.9644 7.02035C95.7197 6.77344 95.3878 6.63455 95.0417 6.63415ZM95.0417 8.60976C94.9126 8.60976 94.7864 8.57113 94.679 8.49877C94.5717 8.42641 94.488 8.32356 94.4386 8.20323C94.3892 8.0829 94.3763 7.95049 94.4014 7.82275C94.4266 7.695 94.4888 7.57766 94.5801 7.48556C94.6714 7.39347 94.7877 7.33075 94.9143 7.30534C95.041 7.27993 95.1722 7.29297 95.2915 7.34281C95.4108 7.39265 95.5127 7.47706 95.5844 7.58536C95.6562 7.69365 95.6945 7.82097 95.6945 7.95122C95.6943 8.12582 95.6255 8.29322 95.5031 8.41668C95.3807 8.54015 95.2147 8.60958 95.0417 8.60976ZM36.9444 5.31707C36.9444 5.05658 36.8679 4.80194 36.7244 4.58535C36.581 4.36876 36.3771 4.19994 36.1385 4.10026C35.8999 4.00057 35.6374 3.97449 35.3842 4.02531C35.1309 4.07613 34.8983 4.20157 34.7157 4.38576C34.5331 4.56996 34.4088 4.80464 34.3584 5.06013C34.308 5.31561 34.3339 5.58043 34.4327 5.8211C34.5315 6.06176 34.6989 6.26746 34.9136 6.41218C35.1283 6.5569 35.3807 6.63415 35.6389 6.63415C35.985 6.63375 36.3169 6.49486 36.5616 6.24794C36.8064 6.00103 36.944 5.66626 36.9444 5.31707ZM34.9861 5.31707C34.9861 5.18683 35.0244 5.05951 35.0961 4.95121C35.1678 4.84291 35.2698 4.75851 35.3891 4.70867C35.5084 4.65882 35.6396 4.64578 35.7662 4.67119C35.8929 4.6966 36.0092 4.75932 36.1005 4.85142C36.1918 4.94352 36.2539 5.06086 36.2791 5.1886C36.3043 5.31634 36.2914 5.44875 36.242 5.56908C36.1926 5.68942 36.1089 5.79227 36.0015 5.86463C35.8942 5.93699 35.768 5.97561 35.6389 5.97561C35.4658 5.97544 35.2999 5.906 35.1775 5.78254C35.0551 5.65908 34.9863 5.49168 34.9861 5.31707Z" fill="#182F43"/>
<mask id="path-11-outside-1_358_1936" maskUnits="userSpaceOnUse" x="26" y="21" width="49" height="49" fill="black">
<rect fill="white" x="26" y="21" width="49" height="49"/>
<path fill-rule="evenodd" clip-rule="evenodd" d="M50.1062 22.1245C49.8847 22.2925 49.7654 22.7495 49.7654 23.4301V23.9951L49.0078 24.0572C43.6644 24.4957 39.0113 26.6215 35.3115 30.3144C31.7065 33.9127 29.5547 38.5247 29.0939 43.6407L28.9844 44.8573H28.1753C27.4612 44.8573 27.3441 44.8809 27.1789 45.0583C26.9671 45.2856 26.9395 45.6532 27.1168 45.8867C27.301 46.1289 27.6796 46.2346 28.3632 46.2346H28.9882L29.051 46.9921C29.4904 52.2895 31.6282 56.987 35.2763 60.6708C36.9768 62.388 39.982 64.5067 40.7171 64.5067C41.0519 64.5067 41.3171 64.202 41.3171 63.8171C41.3171 63.4567 41.2887 63.4324 39.8019 62.5209C38.1313 61.4968 36.3729 59.9561 34.9947 58.3089C32.5877 55.4319 30.9738 51.6493 30.5288 47.842C30.3168 46.0281 30.1654 46.2346 31.7073 46.2346H33.0253L33.0857 47.0839C33.3172 50.3438 34.8303 54.0033 37.0404 56.6482L37.6476 57.3749L37.4467 57.5886C36.8301 58.245 37.7537 59.1685 38.4101 58.5519L38.6239 58.3511L39.3506 58.9574C41.9541 61.1293 45.3493 62.5621 48.6405 62.8775L49.7654 62.9854V64.297C49.7654 65.8302 49.9654 65.6804 48.1952 65.4734C46.8757 65.319 45.8147 65.0919 44.4587 64.6734C43.3901 64.3437 43.1058 64.3703 42.8903 64.8198C42.7814 65.0471 42.784 65.1241 42.9098 65.3879C43.0418 65.6646 43.1392 65.719 43.9539 65.972C45.3885 66.4173 46.7653 66.6999 48.3191 66.8681L49.7654 67.0247V67.5797C49.7654 68.5585 49.9937 69 50.5 69C51.008 69 51.2346 68.5588 51.2346 67.5699V67.0049L51.9922 66.9428C54.9792 66.6977 57.5376 65.9968 60.0962 64.7226C64.2274 62.6653 67.6671 59.226 69.7246 55.0952C70.9891 52.5566 71.7018 49.9557 71.945 46.9921L72.0072 46.2346H72.6345C73.3203 46.2346 73.699 46.1291 73.8832 45.8867C74.0605 45.6532 74.0329 45.2856 73.8211 45.0583C73.6559 44.8809 73.5388 44.8573 72.8247 44.8573H72.0156L71.9061 43.6407C71.3179 37.1108 67.9064 31.3275 62.4837 27.6679C59.3183 25.5318 55.9862 24.3849 51.9922 24.0572L51.2346 23.9951V23.4301C51.2346 22.4412 51.008 22 50.5 22C50.3737 22 50.1966 22.056 50.1062 22.1245ZM49.7654 26.7093V28.0271L48.9159 28.0875C45.6557 28.3189 41.9958 29.832 39.3506 32.0418L38.6239 32.6489L38.4101 32.4481C37.7537 31.8315 36.8301 32.755 37.4467 33.4114L37.6476 33.6251L37.0404 34.3518C34.8183 37.011 33.3484 40.5805 33.0733 43.985L33.0065 44.8113L31.6858 44.8369L30.3652 44.8625L30.429 44.1023C30.7677 40.0712 32.082 36.5691 34.4479 33.394C35.2954 32.2565 37.2552 30.297 38.3928 29.4495C41.1767 27.3755 44.5884 25.9719 47.791 25.5831C48.2456 25.5279 48.7208 25.4679 48.8471 25.4496C48.9733 25.4314 49.2317 25.4108 49.421 25.4039L49.7654 25.3915V26.7093ZM52.8422 25.5308C56.3814 25.9444 59.6861 27.2729 62.6215 29.4623C63.7442 30.2997 65.7071 32.2633 66.5374 33.3798C68.918 36.5808 70.2328 40.0759 70.571 44.1023L70.6348 44.8625L69.3142 44.8369L67.9935 44.8113L67.9259 43.985C67.7695 42.0748 67.1241 39.6 66.6939 39.2617C66.3903 39.0228 66.1987 39.0231 65.8938 39.263C65.5907 39.5013 65.5886 39.7109 65.8798 40.6661C66.2163 41.7707 66.4672 43.0478 66.5363 44.0079L66.5972 44.8573H65.5736C64.6723 44.8573 64.528 44.8792 64.3662 45.0409C64.1684 45.2388 64.1279 45.5937 64.2725 45.8637C64.4107 46.122 64.8657 46.2346 65.771 46.2346H66.5973L66.542 46.9462C66.4636 47.9515 66.1583 49.4557 65.8272 50.4672C65.5201 51.4052 64.7108 53.1687 64.2511 53.9015C63.8541 54.5344 62.6113 56.1424 62.3761 56.3544C62.3761 56.3544 62.3438 56.3593 61.8469 55.8894C61.5719 55.6294 61.2844 55.4165 61.208 55.4165C60.8103 55.4165 60.4176 55.8093 60.4176 56.2068C60.4176 56.2832 61.0556 57.1008 61.3149 57.3749C61.3149 57.3749 61.4674 57.3656 60.3744 58.2146C59.3671 58.997 58.6219 59.4522 57.3829 60.0422C55.6293 60.8772 53.7259 61.4017 51.9463 61.5403L51.2346 61.5956L51.2295 60.7786C51.2266 60.3293 51.1749 59.8179 51.1147 59.6422C50.984 59.2616 50.6362 59.098 50.2475 59.2342C49.9064 59.3539 49.7769 59.7694 49.7705 60.765L49.7654 61.5685H49.3636C48.63 61.5685 46.7043 61.1904 45.5752 60.8248C43.742 60.2312 41.9308 59.261 40.4355 58.0718C39.556 57.3724 39.5682 57.4181 40.1111 56.8441C40.3703 56.57 40.5824 56.2832 40.5824 56.2068C40.5824 55.8093 40.1897 55.4165 39.792 55.4165C39.7156 55.4165 39.4289 55.6286 39.1548 55.8879C38.5687 56.4421 38.6332 56.4662 37.7841 55.3734C37.0025 54.3671 36.547 53.622 35.9556 52.3822C35.1143 50.6179 34.597 48.7616 34.4637 47.0275L34.4028 46.2346H35.229C36.1343 46.2346 36.5893 46.122 36.7275 45.8637C36.8721 45.5937 36.8317 45.2388 36.6338 45.0409C36.472 44.8792 36.3277 44.8573 35.4262 44.8573H34.4024L34.4611 44.0301C34.6634 41.1805 35.9011 38.0506 37.7841 35.6266C38.6332 34.5338 38.5687 34.5579 39.1548 35.1121C39.4289 35.3714 39.7156 35.5835 39.792 35.5835C40.1897 35.5835 40.5824 35.1907 40.5824 34.7932C40.5824 34.7168 40.3703 34.43 40.1111 34.1559C39.5568 33.5699 39.5326 33.6344 40.6256 32.7854C43.0237 30.9229 46.1407 29.683 48.9723 29.4654L49.7654 29.4044L49.7705 30.2214C49.7769 31.2302 49.9053 31.6458 50.2475 31.7658C50.6362 31.902 50.984 31.7384 51.1147 31.3578C51.1749 31.1821 51.2266 30.6707 51.2295 30.2214L51.2346 29.4044L51.9603 29.4603C53.6469 29.5903 55.677 30.1514 57.3844 30.9595C58.5128 31.4935 60.1744 32.5571 60.9226 33.2241L61.3818 33.6336L60.8997 34.1439C60.6346 34.4246 60.4176 34.7168 60.4176 34.7932C60.4176 35.1907 60.8103 35.5835 61.208 35.5835C61.2844 35.5835 61.5763 35.3665 61.8566 35.1014L62.3665 34.6194L62.7465 35.0398C62.9556 35.2711 63.3828 35.8289 63.696 36.2794C64.6115 37.5964 64.6183 37.6035 64.9701 37.6035C65.3484 37.6035 65.6519 37.3348 65.6519 37.0001C65.6519 36.6152 64.6128 35.0374 63.7012 34.0379L63.3384 33.6401L63.5462 33.4189C64.1658 32.7594 63.2529 31.8254 62.5938 32.4444L62.384 32.6416L61.8176 32.1683C59.5116 30.2418 56.6838 28.8803 53.8542 28.3344C53.3054 28.2285 52.4915 28.1159 52.0455 28.0843L51.2346 28.0268V26.7091C51.2346 25.1676 51.0281 25.3189 52.8422 25.5308ZM70.5689 46.9462C70.2086 50.9888 68.908 54.4325 66.5374 57.6202C65.7031 58.742 63.7389 60.7053 62.6215 61.5342C59.4049 63.9204 56.0033 65.2054 51.9463 65.5668L51.2346 65.6301V64.3005V62.9709L52.1017 62.9073C55.3891 62.666 58.9978 61.1734 61.6494 58.9582L62.3761 58.3511L62.5899 58.5519C63.2463 59.1685 64.1699 58.245 63.5533 57.5886L63.3524 57.3749L63.9588 56.6482C66.1309 54.045 67.5638 50.6502 67.8794 47.3594L67.9873 46.2346H69.3097H70.6322L70.5689 46.9462Z"/>
</mask>
<path fill-rule="evenodd" clip-rule="evenodd" d="M50.1062 22.1245C49.8847 22.2925 49.7654 22.7495 49.7654 23.4301V23.9951L49.0078 24.0572C43.6644 24.4957 39.0113 26.6215 35.3115 30.3144C31.7065 33.9127 29.5547 38.5247 29.0939 43.6407L28.9844 44.8573H28.1753C27.4612 44.8573 27.3441 44.8809 27.1789 45.0583C26.9671 45.2856 26.9395 45.6532 27.1168 45.8867C27.301 46.1289 27.6796 46.2346 28.3632 46.2346H28.9882L29.051 46.9921C29.4904 52.2895 31.6282 56.987 35.2763 60.6708C36.9768 62.388 39.982 64.5067 40.7171 64.5067C41.0519 64.5067 41.3171 64.202 41.3171 63.8171C41.3171 63.4567 41.2887 63.4324 39.8019 62.5209C38.1313 61.4968 36.3729 59.9561 34.9947 58.3089C32.5877 55.4319 30.9738 51.6493 30.5288 47.842C30.3168 46.0281 30.1654 46.2346 31.7073 46.2346H33.0253L33.0857 47.0839C33.3172 50.3438 34.8303 54.0033 37.0404 56.6482L37.6476 57.3749L37.4467 57.5886C36.8301 58.245 37.7537 59.1685 38.4101 58.5519L38.6239 58.3511L39.3506 58.9574C41.9541 61.1293 45.3493 62.5621 48.6405 62.8775L49.7654 62.9854V64.297C49.7654 65.8302 49.9654 65.6804 48.1952 65.4734C46.8757 65.319 45.8147 65.0919 44.4587 64.6734C43.3901 64.3437 43.1058 64.3703 42.8903 64.8198C42.7814 65.0471 42.784 65.1241 42.9098 65.3879C43.0418 65.6646 43.1392 65.719 43.9539 65.972C45.3885 66.4173 46.7653 66.6999 48.3191 66.8681L49.7654 67.0247V67.5797C49.7654 68.5585 49.9937 69 50.5 69C51.008 69 51.2346 68.5588 51.2346 67.5699V67.0049L51.9922 66.9428C54.9792 66.6977 57.5376 65.9968 60.0962 64.7226C64.2274 62.6653 67.6671 59.226 69.7246 55.0952C70.9891 52.5566 71.7018 49.9557 71.945 46.9921L72.0072 46.2346H72.6345C73.3203 46.2346 73.699 46.1291 73.8832 45.8867C74.0605 45.6532 74.0329 45.2856 73.8211 45.0583C73.6559 44.8809 73.5388 44.8573 72.8247 44.8573H72.0156L71.9061 43.6407C71.3179 37.1108 67.9064 31.3275 62.4837 27.6679C59.3183 25.5318 55.9862 24.3849 51.9922 24.0572L51.2346 23.9951V23.4301C51.2346 22.4412 51.008 22 50.5 22C50.3737 22 50.1966 22.056 50.1062 22.1245ZM49.7654 26.7093V28.0271L48.9159 28.0875C45.6557 28.3189 41.9958 29.832 39.3506 32.0418L38.6239 32.6489L38.4101 32.4481C37.7537 31.8315 36.8301 32.755 37.4467 33.4114L37.6476 33.6251L37.0404 34.3518C34.8183 37.011 33.3484 40.5805 33.0733 43.985L33.0065 44.8113L31.6858 44.8369L30.3652 44.8625L30.429 44.1023C30.7677 40.0712 32.082 36.5691 34.4479 33.394C35.2954 32.2565 37.2552 30.297 38.3928 29.4495C41.1767 27.3755 44.5884 25.9719 47.791 25.5831C48.2456 25.5279 48.7208 25.4679 48.8471 25.4496C48.9733 25.4314 49.2317 25.4108 49.421 25.4039L49.7654 25.3915V26.7093ZM52.8422 25.5308C56.3814 25.9444 59.6861 27.2729 62.6215 29.4623C63.7442 30.2997 65.7071 32.2633 66.5374 33.3798C68.918 36.5808 70.2328 40.0759 70.571 44.1023L70.6348 44.8625L69.3142 44.8369L67.9935 44.8113L67.9259 43.985C67.7695 42.0748 67.1241 39.6 66.6939 39.2617C66.3903 39.0228 66.1987 39.0231 65.8938 39.263C65.5907 39.5013 65.5886 39.7109 65.8798 40.6661C66.2163 41.7707 66.4672 43.0478 66.5363 44.0079L66.5972 44.8573H65.5736C64.6723 44.8573 64.528 44.8792 64.3662 45.0409C64.1684 45.2388 64.1279 45.5937 64.2725 45.8637C64.4107 46.122 64.8657 46.2346 65.771 46.2346H66.5973L66.542 46.9462C66.4636 47.9515 66.1583 49.4557 65.8272 50.4672C65.5201 51.4052 64.7108 53.1687 64.2511 53.9015C63.8541 54.5344 62.6113 56.1424 62.3761 56.3544C62.3761 56.3544 62.3438 56.3593 61.8469 55.8894C61.5719 55.6294 61.2844 55.4165 61.208 55.4165C60.8103 55.4165 60.4176 55.8093 60.4176 56.2068C60.4176 56.2832 61.0556 57.1008 61.3149 57.3749C61.3149 57.3749 61.4674 57.3656 60.3744 58.2146C59.3671 58.997 58.6219 59.4522 57.3829 60.0422C55.6293 60.8772 53.7259 61.4017 51.9463 61.5403L51.2346 61.5956L51.2295 60.7786C51.2266 60.3293 51.1749 59.8179 51.1147 59.6422C50.984 59.2616 50.6362 59.098 50.2475 59.2342C49.9064 59.3539 49.7769 59.7694 49.7705 60.765L49.7654 61.5685H49.3636C48.63 61.5685 46.7043 61.1904 45.5752 60.8248C43.742 60.2312 41.9308 59.261 40.4355 58.0718C39.556 57.3724 39.5682 57.4181 40.1111 56.8441C40.3703 56.57 40.5824 56.2832 40.5824 56.2068C40.5824 55.8093 40.1897 55.4165 39.792 55.4165C39.7156 55.4165 39.4289 55.6286 39.1548 55.8879C38.5687 56.4421 38.6332 56.4662 37.7841 55.3734C37.0025 54.3671 36.547 53.622 35.9556 52.3822C35.1143 50.6179 34.597 48.7616 34.4637 47.0275L34.4028 46.2346H35.229C36.1343 46.2346 36.5893 46.122 36.7275 45.8637C36.8721 45.5937 36.8317 45.2388 36.6338 45.0409C36.472 44.8792 36.3277 44.8573 35.4262 44.8573H34.4024L34.4611 44.0301C34.6634 41.1805 35.9011 38.0506 37.7841 35.6266C38.6332 34.5338 38.5687 34.5579 39.1548 35.1121C39.4289 35.3714 39.7156 35.5835 39.792 35.5835C40.1897 35.5835 40.5824 35.1907 40.5824 34.7932C40.5824 34.7168 40.3703 34.43 40.1111 34.1559C39.5568 33.5699 39.5326 33.6344 40.6256 32.7854C43.0237 30.9229 46.1407 29.683 48.9723 29.4654L49.7654 29.4044L49.7705 30.2214C49.7769 31.2302 49.9053 31.6458 50.2475 31.7658C50.6362 31.902 50.984 31.7384 51.1147 31.3578C51.1749 31.1821 51.2266 30.6707 51.2295 30.2214L51.2346 29.4044L51.9603 29.4603C53.6469 29.5903 55.677 30.1514 57.3844 30.9595C58.5128 31.4935 60.1744 32.5571 60.9226 33.2241L61.3818 33.6336L60.8997 34.1439C60.6346 34.4246 60.4176 34.7168 60.4176 34.7932C60.4176 35.1907 60.8103 35.5835 61.208 35.5835C61.2844 35.5835 61.5763 35.3665 61.8566 35.1014L62.3665 34.6194L62.7465 35.0398C62.9556 35.2711 63.3828 35.8289 63.696 36.2794C64.6115 37.5964 64.6183 37.6035 64.9701 37.6035C65.3484 37.6035 65.6519 37.3348 65.6519 37.0001C65.6519 36.6152 64.6128 35.0374 63.7012 34.0379L63.3384 33.6401L63.5462 33.4189C64.1658 32.7594 63.2529 31.8254 62.5938 32.4444L62.384 32.6416L61.8176 32.1683C59.5116 30.2418 56.6838 28.8803 53.8542 28.3344C53.3054 28.2285 52.4915 28.1159 52.0455 28.0843L51.2346 28.0268V26.7091C51.2346 25.1676 51.0281 25.3189 52.8422 25.5308ZM70.5689 46.9462C70.2086 50.9888 68.908 54.4325 66.5374 57.6202C65.7031 58.742 63.7389 60.7053 62.6215 61.5342C59.4049 63.9204 56.0033 65.2054 51.9463 65.5668L51.2346 65.6301V64.3005V62.9709L52.1017 62.9073C55.3891 62.666 58.9978 61.1734 61.6494 58.9582L62.3761 58.3511L62.5899 58.5519C63.2463 59.1685 64.1699 58.245 63.5533 57.5886L63.3524 57.3749L63.9588 56.6482C66.1309 54.045 67.5638 50.6502 67.8794 47.3594L67.9873 46.2346H69.3097H70.6322L70.5689 46.9462Z" fill="#FFC100"/>
<path fill-rule="evenodd" clip-rule="evenodd" d="M50.1062 22.1245C49.8847 22.2925 49.7654 22.7495 49.7654 23.4301V23.9951L49.0078 24.0572C43.6644 24.4957 39.0113 26.6215 35.3115 30.3144C31.7065 33.9127 29.5547 38.5247 29.0939 43.6407L28.9844 44.8573H28.1753C27.4612 44.8573 27.3441 44.8809 27.1789 45.0583C26.9671 45.2856 26.9395 45.6532 27.1168 45.8867C27.301 46.1289 27.6796 46.2346 28.3632 46.2346H28.9882L29.051 46.9921C29.4904 52.2895 31.6282 56.987 35.2763 60.6708C36.9768 62.388 39.982 64.5067 40.7171 64.5067C41.0519 64.5067 41.3171 64.202 41.3171 63.8171C41.3171 63.4567 41.2887 63.4324 39.8019 62.5209C38.1313 61.4968 36.3729 59.9561 34.9947 58.3089C32.5877 55.4319 30.9738 51.6493 30.5288 47.842C30.3168 46.0281 30.1654 46.2346 31.7073 46.2346H33.0253L33.0857 47.0839C33.3172 50.3438 34.8303 54.0033 37.0404 56.6482L37.6476 57.3749L37.4467 57.5886C36.8301 58.245 37.7537 59.1685 38.4101 58.5519L38.6239 58.3511L39.3506 58.9574C41.9541 61.1293 45.3493 62.5621 48.6405 62.8775L49.7654 62.9854V64.297C49.7654 65.8302 49.9654 65.6804 48.1952 65.4734C46.8757 65.319 45.8147 65.0919 44.4587 64.6734C43.3901 64.3437 43.1058 64.3703 42.8903 64.8198C42.7814 65.0471 42.784 65.1241 42.9098 65.3879C43.0418 65.6646 43.1392 65.719 43.9539 65.972C45.3885 66.4173 46.7653 66.6999 48.3191 66.8681L49.7654 67.0247V67.5797C49.7654 68.5585 49.9937 69 50.5 69C51.008 69 51.2346 68.5588 51.2346 67.5699V67.0049L51.9922 66.9428C54.9792 66.6977 57.5376 65.9968 60.0962 64.7226C64.2274 62.6653 67.6671 59.226 69.7246 55.0952C70.9891 52.5566 71.7018 49.9557 71.945 46.9921L72.0072 46.2346H72.6345C73.3203 46.2346 73.699 46.1291 73.8832 45.8867C74.0605 45.6532 74.0329 45.2856 73.8211 45.0583C73.6559 44.8809 73.5388 44.8573 72.8247 44.8573H72.0156L71.9061 43.6407C71.3179 37.1108 67.9064 31.3275 62.4837 27.6679C59.3183 25.5318 55.9862 24.3849 51.9922 24.0572L51.2346 23.9951V23.4301C51.2346 22.4412 51.008 22 50.5 22C50.3737 22 50.1966 22.056 50.1062 22.1245ZM49.7654 26.7093V28.0271L48.9159 28.0875C45.6557 28.3189 41.9958 29.832 39.3506 32.0418L38.6239 32.6489L38.4101 32.4481C37.7537 31.8315 36.8301 32.755 37.4467 33.4114L37.6476 33.6251L37.0404 34.3518C34.8183 37.011 33.3484 40.5805 33.0733 43.985L33.0065 44.8113L31.6858 44.8369L30.3652 44.8625L30.429 44.1023C30.7677 40.0712 32.082 36.5691 34.4479 33.394C35.2954 32.2565 37.2552 30.297 38.3928 29.4495C41.1767 27.3755 44.5884 25.9719 47.791 25.5831C48.2456 25.5279 48.7208 25.4679 48.8471 25.4496C48.9733 25.4314 49.2317 25.4108 49.421 25.4039L49.7654 25.3915V26.7093ZM52.8422 25.5308C56.3814 25.9444 59.6861 27.2729 62.6215 29.4623C63.7442 30.2997 65.7071 32.2633 66.5374 33.3798C68.918 36.5808 70.2328 40.0759 70.571 44.1023L70.6348 44.8625L69.3142 44.8369L67.9935 44.8113L67.9259 43.985C67.7695 42.0748 67.1241 39.6 66.6939 39.2617C66.3903 39.0228 66.1987 39.0231 65.8938 39.263C65.5907 39.5013 65.5886 39.7109 65.8798 40.6661C66.2163 41.7707 66.4672 43.0478 66.5363 44.0079L66.5972 44.8573H65.5736C64.6723 44.8573 64.528 44.8792 64.3662 45.0409C64.1684 45.2388 64.1279 45.5937 64.2725 45.8637C64.4107 46.122 64.8657 46.2346 65.771 46.2346H66.5973L66.542 46.9462C66.4636 47.9515 66.1583 49.4557 65.8272 50.4672C65.5201 51.4052 64.7108 53.1687 64.2511 53.9015C63.8541 54.5344 62.6113 56.1424 62.3761 56.3544C62.3761 56.3544 62.3438 56.3593 61.8469 55.8894C61.5719 55.6294 61.2844 55.4165 61.208 55.4165C60.8103 55.4165 60.4176 55.8093 60.4176 56.2068C60.4176 56.2832 61.0556 57.1008 61.3149 57.3749C61.3149 57.3749 61.4674 57.3656 60.3744 58.2146C59.3671 58.997 58.6219 59.4522 57.3829 60.0422C55.6293 60.8772 53.7259 61.4017 51.9463 61.5403L51.2346 61.5956L51.2295 60.7786C51.2266 60.3293 51.1749 59.8179 51.1147 59.6422C50.984 59.2616 50.6362 59.098 50.2475 59.2342C49.9064 59.3539 49.7769 59.7694 49.7705 60.765L49.7654 61.5685H49.3636C48.63 61.5685 46.7043 61.1904 45.5752 60.8248C43.742 60.2312 41.9308 59.261 40.4355 58.0718C39.556 57.3724 39.5682 57.4181 40.1111 56.8441C40.3703 56.57 40.5824 56.2832 40.5824 56.2068C40.5824 55.8093 40.1897 55.4165 39.792 55.4165C39.7156 55.4165 39.4289 55.6286 39.1548 55.8879C38.5687 56.4421 38.6332 56.4662 37.7841 55.3734C37.0025 54.3671 36.547 53.622 35.9556 52.3822C35.1143 50.6179 34.597 48.7616 34.4637 47.0275L34.4028 46.2346H35.229C36.1343 46.2346 36.5893 46.122 36.7275 45.8637C36.8721 45.5937 36.8317 45.2388 36.6338 45.0409C36.472 44.8792 36.3277 44.8573 35.4262 44.8573H34.4024L34.4611 44.0301C34.6634 41.1805 35.9011 38.0506 37.7841 35.6266C38.6332 34.5338 38.5687 34.5579 39.1548 35.1121C39.4289 35.3714 39.7156 35.5835 39.792 35.5835C40.1897 35.5835 40.5824 35.1907 40.5824 34.7932C40.5824 34.7168 40.3703 34.43 40.1111 34.1559C39.5568 33.5699 39.5326 33.6344 40.6256 32.7854C43.0237 30.9229 46.1407 29.683 48.9723 29.4654L49.7654 29.4044L49.7705 30.2214C49.7769 31.2302 49.9053 31.6458 50.2475 31.7658C50.6362 31.902 50.984 31.7384 51.1147 31.3578C51.1749 31.1821 51.2266 30.6707 51.2295 30.2214L51.2346 29.4044L51.9603 29.4603C53.6469 29.5903 55.677 30.1514 57.3844 30.9595C58.5128 31.4935 60.1744 32.5571 60.9226 33.2241L61.3818 33.6336L60.8997 34.1439C60.6346 34.4246 60.4176 34.7168 60.4176 34.7932C60.4176 35.1907 60.8103 35.5835 61.208 35.5835C61.2844 35.5835 61.5763 35.3665 61.8566 35.1014L62.3665 34.6194L62.7465 35.0398C62.9556 35.2711 63.3828 35.8289 63.696 36.2794C64.6115 37.5964 64.6183 37.6035 64.9701 37.6035C65.3484 37.6035 65.6519 37.3348 65.6519 37.0001C65.6519 36.6152 64.6128 35.0374 63.7012 34.0379L63.3384 33.6401L63.5462 33.4189C64.1658 32.7594 63.2529 31.8254 62.5938 32.4444L62.384 32.6416L61.8176 32.1683C59.5116 30.2418 56.6838 28.8803 53.8542 28.3344C53.3054 28.2285 52.4915 28.1159 52.0455 28.0843L51.2346 28.0268V26.7091C51.2346 25.1676 51.0281 25.3189 52.8422 25.5308ZM70.5689 46.9462C70.2086 50.9888 68.908 54.4325 66.5374 57.6202C65.7031 58.742 63.7389 60.7053 62.6215 61.5342C59.4049 63.9204 56.0033 65.2054 51.9463 65.5668L51.2346 65.6301V64.3005V62.9709L52.1017 62.9073C55.3891 62.666 58.9978 61.1734 61.6494 58.9582L62.3761 58.3511L62.5899 58.5519C63.2463 59.1685 64.1699 58.245 63.5533 57.5886L63.3524 57.3749L63.9588 56.6482C66.1309 54.045 67.5638 50.6502 67.8794 47.3594L67.9873 46.2346H69.3097H70.6322L70.5689 46.9462Z" stroke="#182F43" stroke-width="1.6" mask="url(#path-11-outside-1_358_1936)"/>
<path d="M49.1462 34.8134L49.1462 34.8134C49.298 34.7928 49.4687 34.7693 49.5256 34.7612L49.1462 34.8134ZM49.1462 34.8134C48.2283 34.938 47.1485 35.4489 46.4107 36.1013L46.4107 36.1013M49.1462 34.8134L46.4107 36.1013M46.4107 36.1013C45.4791 36.9252 44.8231 38.1087 44.6226 39.329L44.8693 39.3695M46.4107 36.1013L44.8693 39.3695M44.8693 39.3695L44.6226 39.329C44.5846 39.5603 44.5699 39.9204 44.5731 40.2628C44.5763 40.604 44.5976 40.9577 44.6407 41.1743L44.6407 41.1743M44.8693 39.3695L44.6407 41.1743M44.6407 41.1743C44.8939 42.4496 45.5941 43.6372 46.5537 44.4129M44.6407 41.1743L46.5537 44.4129M46.5537 44.4129C46.3171 44.5085 46.1429 44.5893 45.879 44.7218C44.2758 45.5263 42.9709 46.744 42.0452 48.2984C41.2849 49.575 40.8626 50.9963 40.7742 52.5637L41.0238 52.5778L40.7742 52.5637C40.7532 52.9363 41.0497 53.25 41.4229 53.25H41.6429C42.2124 53.25 42.6486 52.7921 42.7185 52.2633C42.8621 51.1773 43.2772 49.884 43.7824 49.1122L43.7824 49.1122C44.7771 47.5924 46.1008 46.5571 47.7124 46.029C49.2474 45.5261 50.7526 45.5261 52.2876 46.029C53.8992 46.5571 55.2229 47.5924 56.2176 49.1122L56.2176 49.1122C56.4378 49.4486 56.6659 50.0524 56.8692 50.7111C57.0699 51.3611 57.238 52.0357 57.345 52.4938C57.4475 52.9323 57.8371 53.25 58.2924 53.25H58.5771C58.9503 53.25 59.2468 52.9363 59.2258 52.5637C59.1374 50.9963 58.7151 49.575 57.9548 48.2984C57.0291 46.744 55.7242 45.5263 54.121 44.7218C53.8571 44.5893 53.6829 44.5085 53.4463 44.4129C54.4059 43.6372 55.1061 42.4496 55.3593 41.1743L55.3593 41.1743C55.4024 40.9577 55.4237 40.604 55.4269 40.2628C55.4301 39.9204 55.4154 39.5603 55.3774 39.329C55.2173 38.3544 54.7321 37.3309 54.08 36.5929C53.2761 35.6832 52.1431 35.0412 50.9603 34.8266C50.8063 34.7986 50.4998 34.7754 50.2201 34.7622C50.0773 34.7554 49.9359 34.7511 49.817 34.7502C49.7045 34.7493 49.5947 34.7513 49.5256 34.7612L46.5537 44.4129ZM50.5539 36.696C52.4845 37.0097 53.8024 38.8308 53.4917 40.7498C53.1785 42.6849 51.3604 44.0043 49.4461 43.6933C47.5155 43.3796 46.1976 41.5585 46.5083 39.6395C46.8215 37.7047 48.6399 36.3851 50.5539 36.696Z" fill="#182F43" stroke="#182F43" stroke-width="0.5"/>
<path d="M19.7829 54.8032L19.7829 54.8032C19.9094 54.7861 20.0515 54.7665 20.0987 54.7597L19.7829 54.8032ZM19.7829 54.8032C19.0092 54.9082 18.1018 55.3378 17.4813 55.8866L17.4813 55.8866M19.7829 54.8032L17.4813 55.8866M17.4813 55.8866C16.6978 56.5794 16.1464 57.5743 15.9778 58.6007L16.2244 58.6413M17.4813 55.8866L16.2244 58.6413M16.2244 58.6413L15.9778 58.6007C15.9455 58.7971 15.9332 59.1001 15.9359 59.386C15.9386 59.6708 15.9564 59.9688 15.993 60.1534L15.993 60.1534M16.2244 58.6413L15.993 60.1534M15.993 60.1534C16.201 61.2009 16.7679 62.1786 17.5477 62.8319C17.3807 62.9013 17.2435 62.9657 17.0471 63.0643C15.7039 63.7383 14.6107 64.7586 13.8352 66.0606C13.198 67.1306 12.8443 68.3216 12.7702 69.6341L12.7702 69.6341M15.993 60.1534L12.7702 69.6341M12.7702 69.6341C12.7514 69.9685 13.0175 70.25 13.3524 70.25H13.5357C14.0342 70.25 14.4128 69.8499 14.4734 69.3915C14.5925 68.4907 14.9369 67.4194 15.3535 66.783L15.3535 66.783C16.1776 65.5239 17.2732 64.6674 18.6066 64.2305C19.8774 63.8141 21.1226 63.8141 22.3934 64.2305C23.7268 64.6674 24.8224 65.5239 25.6465 66.783L25.6465 66.783C25.8264 67.0578 26.015 67.5558 26.1845 68.1048C26.3513 68.6452 26.4912 69.2063 26.5803 69.5876C26.67 69.9716 27.0111 70.25 27.4104 70.25H27.6476C27.9825 70.25 28.2486 69.9685 28.2298 69.6341C28.1557 68.3216 27.802 67.1306 27.1648 66.0606C26.3893 64.7586 25.2961 63.7383 23.9529 63.0643C23.7565 62.9657 23.6193 62.9012 23.4523 62.8319M12.7702 69.6341L23.4523 62.8319M23.4523 62.8319C24.2321 62.1786 24.799 61.2009 25.007 60.1534L25.007 60.1534C25.0436 59.9688 25.0614 59.6708 25.0641 59.386C25.0668 59.1001 25.0545 58.7971 25.0222 58.6007C24.8876 57.7809 24.4798 56.9207 23.9312 56.2999C23.2552 55.5348 22.3027 54.995 21.3077 54.8145C21.1763 54.7906 20.9183 54.7712 20.6854 54.7602C20.566 54.7546 20.4476 54.7509 20.3479 54.7501C20.2545 54.7494 20.1599 54.751 20.0988 54.7597L23.4523 62.8319ZM20.0451 62.2033C18.4588 61.9455 17.3762 60.4492 17.6313 58.8729C17.8887 57.283 19.383 56.1991 20.9549 56.4545C22.5412 56.7122 23.6238 58.2086 23.3687 59.7849C23.1112 61.375 21.6173 62.4587 20.0451 62.2033Z" fill="#182F43" stroke="#182F43" stroke-width="0.5"/>
<path d="M79.7829 54.8032L79.7829 54.8032C79.9094 54.7861 80.0515 54.7665 80.0987 54.7597L79.7829 54.8032ZM79.7829 54.8032C79.0092 54.9082 78.1018 55.3378 77.4813 55.8866L77.4813 55.8866M79.7829 54.8032L77.4813 55.8866M77.4813 55.8866C76.6978 56.5794 76.1464 57.5743 75.9778 58.6007L76.2244 58.6413M77.4813 55.8866L76.2244 58.6413M76.2244 58.6413L75.9778 58.6007C75.9455 58.7971 75.9332 59.1001 75.9359 59.386C75.9386 59.6708 75.9564 59.9688 75.993 60.1534L75.993 60.1534M76.2244 58.6413L75.993 60.1534M75.993 60.1534C76.201 61.2009 76.7679 62.1786 77.5477 62.8319C77.3807 62.9013 77.2435 62.9657 77.0471 63.0643C75.7039 63.7383 74.6107 64.7586 73.8352 66.0606C73.198 67.1306 72.8443 68.3216 72.7702 69.6341L72.7702 69.6341M75.993 60.1534L72.7702 69.6341M72.7702 69.6341C72.7514 69.9685 73.0175 70.25 73.3524 70.25H73.5357C74.0342 70.25 74.4128 69.8499 74.4734 69.3915C74.5925 68.4907 74.9369 67.4194 75.3535 66.783L75.3535 66.783C76.1776 65.5239 77.2732 64.6674 78.6066 64.2305C79.8774 63.8141 81.1226 63.8141 82.3934 64.2305C83.7268 64.6674 84.8224 65.5239 85.6465 66.783L85.6465 66.783C85.8264 67.0578 86.015 67.5558 86.1845 68.1048C86.3513 68.6452 86.4912 69.2063 86.5803 69.5876C86.67 69.9716 87.0111 70.25 87.4104 70.25H87.6476C87.9825 70.25 88.2486 69.9685 88.2298 69.6341C88.1557 68.3216 87.802 67.1306 87.1648 66.0606C86.3893 64.7586 85.2961 63.7383 83.9529 63.0643C83.7565 62.9657 83.6193 62.9012 83.4523 62.8319M72.7702 69.6341L83.4523 62.8319M83.4523 62.8319C84.2321 62.1786 84.799 61.2009 85.007 60.1534L85.007 60.1534C85.0436 59.9688 85.0614 59.6708 85.0641 59.386C85.0668 59.1001 85.0545 58.7971 85.0222 58.6007C84.8876 57.7809 84.4798 56.9207 83.9312 56.2999C83.2552 55.5348 82.3027 54.995 81.3077 54.8145C81.1763 54.7906 80.9183 54.7712 80.6854 54.7602C80.566 54.7546 80.4476 54.7509 80.3479 54.7501C80.2545 54.7494 80.1599 54.751 80.0988 54.7597L83.4523 62.8319ZM80.0451 62.2033C78.4588 61.9455 77.3762 60.4492 77.6313 58.8729C77.8887 57.283 79.383 56.1991 80.9549 56.4545C82.5412 56.7122 83.6238 58.2086 83.3687 59.7849C83.1112 61.375 81.6173 62.4587 80.0451 62.2033Z" fill="#182F43" stroke="#182F43" stroke-width="0.5"/>
</g>
<defs>
<clipPath id="clip0_358_1936">
<rect width="105" height="105" fill="white"/>
</clipPath>
</defs>
</svg>
