<svg width="105" height="105" viewBox="0 0 105 105" fill="none" xmlns="http://www.w3.org/2000/svg">
<g clip-path="url(#clip0_358_1951)">
<path d="M1.25 86.5C1.94036 86.5 2.5 85.9404 2.5 85.25C2.5 84.5596 1.94036 84 1.25 84C0.559644 84 0 84.5596 0 85.25C0 85.9404 0.559644 86.5 1.25 86.5Z" fill="#182F43"/>
<path d="M6.875 84H5C4.66848 84 4.35054 84.1317 4.11612 84.3661C3.8817 84.6005 3.75 84.9185 3.75 85.25C3.75 85.5815 3.8817 85.8995 4.11612 86.1339C4.35054 86.3683 4.66848 86.5 5 86.5H6.875C7.20652 86.5 7.52446 86.3683 7.75888 86.1339C7.9933 85.8995 8.125 85.5815 8.125 85.25C8.125 84.9185 7.9933 84.6005 7.75888 84.3661C7.52446 84.1317 7.20652 84 6.875 84ZM100 84H98.125C97.7935 84 97.4755 84.1317 97.2411 84.3661C97.0067 84.6005 96.875 84.9185 96.875 85.25C96.875 85.5815 97.0067 85.8995 97.2411 86.1339C97.4755 86.3683 97.7935 86.5 98.125 86.5H100C100.332 86.5 100.649 86.3683 100.884 86.1339C101.118 85.8995 101.25 85.5815 101.25 85.25C101.25 84.9185 101.118 84.6005 100.884 84.3661C100.649 84.1317 100.332 84 100 84Z" fill="#182F43"/>
<path d="M103.75 86.5C104.44 86.5 105 85.9404 105 85.25C105 84.5596 104.44 84 103.75 84C103.06 84 102.5 84.5596 102.5 85.25C102.5 85.9404 103.06 86.5 103.75 86.5Z" fill="#182F43"/>
<path d="M73.8462 90H68.6539C68.3396 90.0252 68.0464 90.1678 67.8326 90.3994C67.6187 90.6311 67.5 90.9348 67.5 91.25C67.5 91.5652 67.6187 91.8689 67.8326 92.1006C68.0464 92.3322 68.3396 92.4748 68.6539 92.5H73.8462C74.1604 92.4748 74.4537 92.3322 74.6675 92.1006C74.8813 91.8689 75 91.5652 75 91.25C75 90.9348 74.8813 90.6311 74.6675 90.3994C74.4537 90.1678 74.1604 90.0252 73.8462 90ZM36.3462 90H31.1538C30.8396 90.0252 30.5464 90.1678 30.3326 90.3994C30.1187 90.6311 30 90.9348 30 91.25C30 91.5652 30.1187 91.8689 30.3326 92.1006C30.5464 92.3322 30.8396 92.4748 31.1538 92.5H36.3462C36.6604 92.4748 36.9537 92.3322 37.1675 92.1006C37.3813 91.8689 37.5 91.5652 37.5 91.25C37.5 90.9348 37.3813 90.6311 37.1675 90.3994C36.9537 90.1678 36.6604 90.0252 36.3462 90ZM65 90H40C39.6685 90 39.3506 90.1317 39.1161 90.3661C38.8817 90.6005 38.75 90.9185 38.75 91.25C38.75 91.5815 38.8817 91.8995 39.1161 92.1339C39.3506 92.3683 39.6685 92.5 40 92.5H49.9625V93.75H45C44.6685 93.75 44.3506 93.8817 44.1161 94.1161C43.8817 94.3505 43.75 94.6685 43.75 95C43.75 95.3315 43.8817 95.6495 44.1161 95.8839C44.3506 96.1183 44.6685 96.25 45 96.25H60.625C60.9565 96.25 61.2745 96.1183 61.5089 95.8839C61.7433 95.6495 61.875 95.3315 61.875 95C61.875 94.6685 61.7433 94.3505 61.5089 94.1161C61.2745 93.8817 60.9565 93.75 60.625 93.75H55.0375V92.5H65C65.3315 92.5 65.6495 92.3683 65.8839 92.1339C66.1183 91.8995 66.25 91.5815 66.25 91.25C66.25 90.9185 66.1183 90.6005 65.8839 90.3661C65.6495 90.1317 65.3315 90 65 90Z" fill="#FFC100" stroke="#182F43"/>
<path d="M32 13C32.3956 13 32.7822 12.8827 33.1111 12.6629C33.44 12.4432 33.6964 12.1308 33.8478 11.7654C33.9991 11.3999 34.0387 10.9978 33.9616 10.6098C33.8844 10.2219 33.6939 9.86549 33.4142 9.58579C33.1345 9.30608 32.7781 9.1156 32.3902 9.03843C32.0022 8.96126 31.6001 9.00087 31.2346 9.15224C30.8692 9.30362 30.5568 9.55996 30.3371 9.88886C30.1173 10.2178 30 10.6044 30 11C30.0006 11.5303 30.2115 12.0386 30.5864 12.4136C30.9614 12.7885 31.4697 12.9994 32 13ZM32 10.1429C32.1695 10.1429 32.3352 10.1931 32.4762 10.2873C32.6172 10.3815 32.727 10.5154 32.7919 10.672C32.8568 10.8286 32.8737 11.001 32.8407 11.1672C32.8076 11.3335 32.726 11.4862 32.6061 11.6061C32.4862 11.726 32.3335 11.8076 32.1672 11.8407C32.001 11.8737 31.8286 11.8568 31.672 11.7919C31.5154 11.727 31.3815 11.6172 31.2873 11.4762C31.1931 11.3352 31.1429 11.1695 31.1429 11C31.1431 10.7727 31.2335 10.5549 31.3942 10.3942C31.5549 10.2335 31.7727 10.1431 32 10.1429Z" fill="#182F43"/>
<path d="M101.405 22.2979C101.158 22.2979 100.916 22.3712 100.711 22.5085C100.505 22.6459 100.345 22.8411 100.25 23.0695C100.156 23.2979 100.131 23.5492 100.179 23.7917C100.228 24.0342 100.347 24.2569 100.521 24.4317C100.696 24.6066 100.919 24.7256 101.161 24.7738C101.404 24.8221 101.655 24.7973 101.884 24.7027C102.112 24.6081 102.307 24.4479 102.445 24.2423C102.582 24.0368 102.655 23.7951 102.655 23.5479C102.655 23.2164 102.523 22.8987 102.289 22.6644C102.054 22.43 101.737 22.2982 101.405 22.2979ZM101.405 24.1729C101.282 24.1729 101.161 24.1362 101.058 24.0675C100.955 23.9988 100.875 23.9012 100.828 23.787C100.781 23.6728 100.768 23.5472 100.792 23.4259C100.816 23.3047 100.876 23.1933 100.963 23.1059C101.051 23.0185 101.162 22.959 101.283 22.9349C101.405 22.9107 101.53 22.9231 101.644 22.9704C101.759 23.0177 101.856 23.0978 101.925 23.2006C101.994 23.3034 102.03 23.4242 102.03 23.5479C102.03 23.7136 101.964 23.8724 101.847 23.9896C101.73 24.1068 101.571 24.1727 101.405 24.1729ZM68.749 14.4854C68.5018 14.4854 68.2601 14.5587 68.0546 14.696C67.849 14.8334 67.6888 15.0286 67.5942 15.257C67.4996 15.4854 67.4748 15.7367 67.523 15.9792C67.5713 16.2217 67.6903 16.4444 67.8651 16.6192C68.0399 16.7941 68.2627 16.9131 68.5051 16.9613C68.7476 17.0096 68.999 16.9848 69.2274 16.8902C69.4558 16.7956 69.651 16.6354 69.7884 16.4298C69.9257 16.2243 69.999 15.9826 69.999 15.7354C69.9986 15.4039 69.8668 15.0862 69.6325 14.8519C69.3981 14.6175 69.0804 14.4857 68.749 14.4854ZM68.749 16.3604C68.6254 16.3604 68.5046 16.3237 68.4018 16.255C68.299 16.1863 68.2189 16.0887 68.1716 15.9745C68.1243 15.8603 68.1119 15.7347 68.136 15.6134C68.1601 15.4922 68.2197 15.3808 68.3071 15.2934C68.3945 15.206 68.5058 15.1465 68.6271 15.1224C68.7483 15.0982 68.874 15.1106 68.9882 15.1579C69.1024 15.2052 69.2 15.2853 69.2687 15.3881C69.3374 15.4909 69.374 15.6117 69.374 15.7354C69.3738 15.9011 69.3079 16.0599 69.1908 16.1771C69.0736 16.2943 68.9147 16.3602 68.749 16.3604ZM87.6895 3.86035C87.4422 3.86035 87.2006 3.93366 86.995 4.07101C86.7894 4.20837 86.6292 4.40359 86.5346 4.632C86.44 4.86041 86.4152 5.11174 86.4635 5.35421C86.5117 5.59669 86.6308 5.81942 86.8056 5.99424C86.9804 6.16905 87.2031 6.2881 87.4456 6.33633C87.6881 6.38457 87.9394 6.35981 88.1678 6.2652C88.3962 6.17059 88.5914 6.01038 88.7288 5.80481C88.8661 5.59925 88.9395 5.35758 88.9395 5.11035C88.9391 4.77895 88.8073 4.46122 88.5729 4.22689C88.3386 3.99255 88.0209 3.86073 87.6895 3.86035ZM87.6895 5.73535C87.5658 5.73535 87.445 5.6987 87.3422 5.63002C87.2394 5.56134 87.1593 5.46373 87.112 5.34953C87.0647 5.23532 87.0524 5.10966 87.0765 4.98842C87.1006 4.86718 87.1601 4.75582 87.2475 4.66841C87.3349 4.581 87.4463 4.52148 87.5675 4.49736C87.6888 4.47325 87.8144 4.48562 87.9286 4.53293C88.0428 4.58023 88.1405 4.66034 88.2091 4.76312C88.2778 4.8659 88.3145 4.98674 88.3145 5.11035C88.3143 5.27606 88.2484 5.43494 88.1312 5.55211C88.014 5.66928 87.8552 5.73519 87.6895 5.73535ZM24.5645 28.8604C24.5645 28.6131 24.4911 28.3714 24.3538 28.1659C24.2164 27.9603 24.0212 27.8001 23.7928 27.7055C23.5644 27.6109 23.3131 27.5861 23.0706 27.6344C22.8281 27.6826 22.6054 27.8017 22.4306 27.9765C22.2558 28.1513 22.1367 28.374 22.0885 28.6165C22.0402 28.859 22.065 29.1103 22.1596 29.3387C22.2542 29.5671 22.4144 29.7623 22.62 29.8997C22.8256 30.037 23.0672 30.1104 23.3145 30.1104C23.6459 30.11 23.9636 29.9782 24.1979 29.7438C24.4323 29.5095 24.5641 29.1918 24.5645 28.8604ZM22.6895 28.8604C22.6895 28.7367 22.7261 28.6159 22.7948 28.5131C22.8635 28.4103 22.9611 28.3302 23.0753 28.2829C23.1895 28.2356 23.3151 28.2232 23.4364 28.2474C23.5576 28.2715 23.669 28.331 23.7564 28.4184C23.8438 28.5058 23.9033 28.6172 23.9274 28.7384C23.9516 28.8597 23.9392 28.9853 23.8919 29.0995C23.8446 29.2137 23.7645 29.3113 23.6617 29.38C23.5589 29.4487 23.4381 29.4854 23.3145 29.4854C23.1487 29.4852 22.9899 29.4193 22.8727 29.3021C22.7555 29.1849 22.6896 29.0261 22.6895 28.8604Z" fill="#182F43"/>
<path d="M6.80422 42.4613L7.73359 41.2388L7.14672 40.9062L6.54984 42.275H6.53047L5.92422 40.9163L5.32734 41.2581L6.24672 42.4513V42.4713L4.80859 42.285V42.95L6.25609 42.7644V42.7838L5.32734 43.9769L5.88422 44.3288L6.52047 42.95H6.53984L7.12672 44.3194L7.74297 43.9669L6.80422 42.7938V42.7738L8.28047 42.95V42.285L6.80422 42.4806V42.4613Z" fill="#FFC100"/>
<path d="M7.3943 9.99531L6.8593 10.6822L7.18055 10.8853L7.5468 10.0909H7.55742L7.89555 10.8797L8.25055 10.6766L7.70992 10.0009V9.98969L8.55992 10.0909V9.70781L7.70992 9.82094V9.80969L8.24492 9.10531L7.90742 8.91406L7.56367 9.70219H7.55242L7.20305 8.91969L6.8593 9.11656L7.38867 9.80406V9.81531L6.56055 9.70781V10.0909L7.3943 9.98406V9.99531Z" fill="#FFC100"/>
<path d="M87.8308 35.5519V34.8994L86.3833 35.0912V35.0719L87.2945 33.8731L86.7189 33.5469L86.1339 34.89H86.1145L85.5202 33.5563L84.9345 33.8925L85.8364 35.0625V35.0819L84.4258 34.8994V35.5519L85.8458 35.3694V35.3887L84.9345 36.5587L85.4808 36.9044L86.1052 35.5519H86.1239L86.6995 36.8944L87.3039 36.5494L86.3833 35.3981V35.3787L87.8308 35.5519Z" fill="#FFC100"/>
<path d="M48.5123 3.2359L49.2986 2.20215L48.8017 1.9209L48.2973 3.0784H48.2805L47.768 1.92902L47.2623 2.2184L48.0405 3.22777V3.24465L46.8242 3.08715V3.64965L48.0486 3.49277V3.50902L47.2623 4.5184L47.7342 4.81652L48.2723 3.64965H48.2886L48.7848 4.80777L49.3067 4.51027L48.5123 3.51715V3.5009L49.7611 3.64965V3.08715L48.5123 3.25277V3.2359Z" fill="#FFC100"/>
<path d="M93.5967 84.0084H90.689L75.29 84.0084L70.3628 84.0084L54.9638 84.0084L50.0366 84.0084L34.6376 84.0084L29.7104 84.0084L14.3114 84.0084L11.4033 84.0084C11.2281 83.99 11.0499 84.0019 10.8809 84.0433C10.7118 84.0847 10.5556 84.1546 10.4228 84.2485C10.2899 84.3423 10.1835 84.4579 10.1106 84.5875C10.0377 84.7171 10 84.8577 10 85C10 85.1423 10.0377 85.2829 10.1106 85.4125C10.1835 85.5421 10.2899 85.6577 10.4228 85.7515C10.5556 85.8454 10.7118 85.9153 10.8809 85.9567C11.0499 85.9981 11.2281 86.01 11.4033 85.9916H93.5967C93.7719 86.01 93.9501 85.9981 94.1191 85.9567C94.2882 85.9153 94.4444 85.8454 94.5772 85.7515C94.7101 85.6577 94.8165 85.5421 94.8894 85.4125C94.9623 85.2829 95 85.1423 95 85C95 84.8577 94.9623 84.7171 94.8894 84.5875C94.8165 84.4579 94.7101 84.3423 94.5772 84.2485C94.4444 84.1546 94.2882 84.0847 94.1191 84.0433C93.9501 84.0019 93.7719 83.99 93.5967 84.0084Z" fill="#182F43"/>
<mask id="path-12-outside-1_358_1951" maskUnits="userSpaceOnUse" x="26" y="16" width="53" height="66" fill="black">
<rect fill="white" x="26" y="16" width="53" height="66"/>
<path fill-rule="evenodd" clip-rule="evenodd" d="M51.9538 17.2341C51.7994 17.4078 51.7457 17.714 51.7457 18.4216C51.7457 19.5463 51.9427 19.944 52.5 19.944C53.0491 19.944 53.2543 19.5436 53.2543 18.472C53.2543 17.4093 53.048 17 52.5123 17C52.3196 17 52.0682 17.1053 51.9538 17.2341ZM51.3057 22.7135C49.3017 22.9308 47.6018 23.4468 45.8371 24.3737C44.4398 25.1075 43.3561 25.95 42.1231 27.2612C40.6034 28.8772 39.7124 30.3403 38.9783 32.424L38.5725 33.576L34.3162 33.64C30.1159 33.7031 30.0517 33.7081 29.4345 34.0173C28.1608 34.6554 27.3258 35.8536 27.0942 37.375C27.0173 37.8804 26.9846 44.166 27.0069 54.12L27.0427 70.056L27.3948 70.824C27.82 71.7514 28.5822 72.5818 29.4313 73.0428L30.0598 73.384L38.0428 73.448L46.0257 73.512L46.0594 76.488L46.0932 79.464H44.7626C43.1448 79.464 42.7009 79.6454 42.6961 80.3082C42.6951 80.4556 42.7977 80.6717 42.9241 80.7882C43.1337 80.9813 43.9814 81 52.5219 81C61.4376 81 61.8997 80.9887 62.0977 80.7659C62.3807 80.4475 62.3591 80.065 62.0415 79.7718C61.8213 79.5686 61.5392 79.5208 60.3444 79.485L58.9115 79.442V76.445V73.448H66.701C74.3707 73.448 74.5019 73.4438 75.2151 73.172C76.1873 72.8017 77.1271 71.8861 77.596 70.8524L77.9573 70.056L77.9931 54.12C78.0154 44.166 77.9827 37.8804 77.9058 37.375C77.6742 35.8536 76.8392 34.6554 75.5655 34.0173C74.9483 33.7081 74.8845 33.7031 70.6774 33.64L66.4145 33.576L66.136 32.744C64.4555 27.7273 60.2373 23.9198 55.3041 22.967C54.2311 22.7597 52.1162 22.6257 51.3057 22.7135ZM38.366 22.9611C38.0287 23.3046 38.133 23.7506 38.6962 24.3727C38.9865 24.6933 39.39 25.0431 39.5931 25.15C39.9333 25.3291 39.9879 25.3249 40.291 25.0954C40.8388 24.6806 40.7793 24.3801 39.9809 23.5279C39.2154 22.7106 38.7667 22.5532 38.366 22.9611ZM65.0191 23.5279C64.2207 24.3801 64.1612 24.6806 64.709 25.0954C65.0121 25.3249 65.0667 25.3291 65.4069 25.15C65.9676 24.8548 66.8315 23.8396 66.8315 23.476C66.8315 23.0609 66.5187 22.76 66.0874 22.76C65.8246 22.76 65.5607 22.9496 65.0191 23.5279ZM55.6485 24.6C60.9209 25.9704 64.7606 30.5145 65.3123 36.0368C65.9459 42.3796 61.9454 48.2557 55.8136 49.9891C54.6942 50.3055 54.3735 50.3395 52.5 50.3402C50.7249 50.3408 50.2716 50.2983 49.3571 50.0456C45.5642 48.9977 42.6236 46.5546 40.9342 43.048C38.5036 38.0024 39.5083 31.9638 43.4359 28.013C45.4343 26.0026 48.0232 24.6908 50.7714 24.2955C52.0553 24.1108 54.3075 24.2515 55.6485 24.6ZM51.1266 29.128C50.9362 29.2861 50.8162 29.6031 50.7187 30.2051C50.5812 31.055 50.5786 31.0591 50.0315 31.2719L49.4823 31.4854L48.8472 31.0108C47.9428 30.3348 47.7323 30.3743 46.7047 31.4125C45.6772 32.4508 45.6312 32.6886 46.2888 33.5655C46.6475 34.0438 46.7234 34.2387 46.6574 34.5119C46.4932 35.1924 46.2692 35.3917 45.5627 35.486C44.3929 35.6423 44.3285 35.736 44.3285 37.2819C44.3285 38.8267 44.3973 38.9542 45.3043 39.0899C46.2395 39.2296 46.4034 39.3323 46.5847 39.8914C46.7485 40.3967 46.7422 40.4218 46.2946 41.0562C45.6341 41.9924 45.6762 42.2242 46.6955 43.262C47.292 43.8695 47.6466 44.1347 47.8583 44.1319C48.0258 44.1296 48.4662 43.9043 48.837 43.6313L49.5111 43.1348L50.0296 43.3589C50.4927 43.5592 50.5586 43.6432 50.648 44.1475C50.9186 45.6738 50.9165 45.672 52.5 45.672C54.0835 45.672 54.0814 45.6738 54.352 44.1475C54.4414 43.6432 54.5073 43.5592 54.9704 43.3589L55.4889 43.1348L56.163 43.6313C56.5338 43.9043 56.9742 44.1296 57.1417 44.1319C57.3534 44.1347 57.708 43.8695 58.3045 43.262C59.3238 42.2242 59.3659 41.9924 58.7054 41.0562C58.2578 40.4218 58.2515 40.3967 58.4153 39.8914C58.5966 39.3323 58.7605 39.2296 59.6957 39.0899C60.6027 38.9542 60.6715 38.8267 60.6715 37.2819C60.6715 35.7611 60.6077 35.6606 59.5401 35.4989C58.6262 35.3606 58.5725 35.3244 58.4105 34.7347C58.2591 34.1843 58.2653 34.1602 58.7094 33.5679C59.3689 32.6884 59.3234 32.4513 58.2953 31.4125C57.2677 30.3743 57.0572 30.3348 56.1528 31.0108L55.5177 31.4854L54.9685 31.2719C54.4214 31.0591 54.4188 31.055 54.2813 30.2051C54.0913 29.031 53.9173 28.904 52.5 28.904C51.6356 28.904 51.3379 28.9525 51.1266 29.128ZM52.9366 31.1612C53.0294 31.9167 53.4129 32.488 53.8274 32.488C53.9416 32.488 54.3165 32.632 54.6607 32.808C55.48 33.2269 55.6852 33.213 56.4019 32.6887C56.9926 32.2567 57.006 32.2536 57.2231 32.4979C57.4353 32.7366 57.428 32.7687 57.0384 33.3212C56.8154 33.6373 56.6251 34.0029 56.6154 34.1334C56.5997 34.3462 57.0338 35.4984 57.4385 36.3178C57.5952 36.6352 57.86 36.7576 58.6991 36.9008C59.1259 36.9736 59.174 37.0191 59.1391 37.3178C59.1043 37.6168 59.0196 37.6696 58.3578 37.8035C57.6235 37.9519 57.2827 38.2097 57.272 38.6244C57.2693 38.7343 57.1056 39.1677 56.9083 39.5876C56.5119 40.4316 56.5321 40.6297 57.0887 41.3729C57.4528 41.8587 57.4734 41.9971 57.2143 42.216C57.0588 42.3475 56.9041 42.2899 56.3281 41.886C55.7064 41.4499 55.5935 41.4123 55.2909 41.5396C55.1042 41.6182 54.5837 41.8369 54.1343 42.0254C53.6849 42.214 53.2527 42.4515 53.1738 42.5533C53.095 42.655 52.9919 43.0529 52.9448 43.4371C52.8634 44.1002 52.8406 44.136 52.5 44.136C52.1594 44.136 52.1366 44.1002 52.0552 43.4371C52.0081 43.0529 51.905 42.655 51.8262 42.5533C51.7473 42.4515 51.3151 42.214 50.8657 42.0254C50.4163 41.8369 49.8958 41.6182 49.7091 41.5396C49.4065 41.4123 49.2936 41.4499 48.6718 41.886C48.0959 42.2899 47.9412 42.3475 47.7857 42.216C47.5239 41.9948 47.5441 41.8925 47.9743 41.256C48.431 40.5802 48.4414 40.2951 48.0399 39.464C47.8698 39.112 47.7289 38.7343 47.7267 38.6244C47.7185 38.2108 47.377 37.9521 46.6422 37.8035C45.9926 37.672 45.8953 37.6135 45.8624 37.3343C45.8278 37.0403 45.8862 37.0013 46.6139 36.8318C47.4768 36.6308 47.4312 36.6827 48.0584 35.1894C48.2474 34.7391 48.3943 34.264 48.3846 34.1334C48.3749 34.0029 48.1846 33.6373 47.9616 33.3212C47.572 32.7687 47.5647 32.7366 47.7769 32.4979C47.994 32.2536 48.0074 32.2567 48.5981 32.6887C49.3148 33.213 49.52 33.2269 50.3393 32.808C50.6835 32.632 51.0584 32.488 51.1726 32.488C51.5871 32.488 51.9706 31.9167 52.0634 31.1612C52.1469 30.4802 52.1713 30.44 52.5 30.44C52.8287 30.44 52.8531 30.4802 52.9366 31.1612ZM51.4828 34.0949C50.7353 34.3293 49.8375 35.1404 49.4884 35.8966C49.0829 36.7747 49.1024 37.9129 49.5383 38.8199C50.7539 41.35 54.4144 41.2642 55.5373 38.6795C55.8816 37.8868 55.8698 36.6723 55.51 35.8931C55.1491 35.1112 54.2625 34.3286 53.4645 34.0874C52.6967 33.8553 52.2413 33.857 51.4828 34.0949ZM38.2328 37.384C38.2341 39.5409 38.2609 39.8175 38.5819 40.9926C38.9901 42.4867 39.795 44.2756 40.6434 45.5745C41.9222 47.5322 44.3058 49.5727 46.5074 50.5942L47.4714 51.0416V52.8775C47.4714 54.963 47.6356 55.748 48.2041 56.3802C48.8362 57.0832 49.4581 57.32 50.6721 57.32H51.7457V58.152C51.7457 59.0536 51.994 59.496 52.5 59.496C53.006 59.496 53.2543 59.0536 53.2543 58.152V57.32H54.3279C55.5419 57.32 56.1638 57.0832 56.7959 56.3802C57.3638 55.7487 57.5286 54.9625 57.5286 52.8847V51.0558L58.4882 50.6044C60.582 49.6194 62.6319 47.9213 64.0565 45.992C64.9523 44.7787 66.0036 42.5543 66.4155 41C66.7243 39.8356 66.7556 39.5083 66.7618 37.3759L66.7687 35.0317L70.603 35.0719C74.2482 35.1101 74.4621 35.1256 74.9402 35.3876C75.5228 35.7068 75.8843 36.0826 76.214 36.712C76.4383 37.14 76.4502 37.7633 76.4824 50.696V63.6885H52.5H28.5176V50.696C28.5498 37.7633 28.5617 37.14 28.786 36.712C29.2294 35.8655 29.8258 35.3816 30.6884 35.1677C30.8958 35.1162 32.6779 35.0684 34.6484 35.0611L38.2313 35.048L38.2328 37.384ZM53.3943 35.7116C53.8897 35.9949 54.3886 36.7948 54.383 37.2964C54.3815 37.4326 54.2716 37.7876 54.1388 38.0853C53.3963 39.7507 51.0108 39.3999 50.6747 37.5759C50.4909 36.5784 51.4505 35.4421 52.4829 35.4349C52.7155 35.4333 53.1256 35.5578 53.3943 35.7116ZM38.8874 50.1237C38.0852 50.9491 37.9633 51.3991 38.4479 51.7447C38.9091 52.0737 39.1589 51.9801 39.9385 51.1862C40.7182 50.3924 40.8101 50.138 40.487 49.6685C40.1427 49.1679 39.6916 49.2963 38.8874 50.1237ZM64.4949 49.7031C64.1933 50.1717 64.3478 50.5497 65.1436 51.2902C65.8941 51.9887 66.1117 52.0589 66.5521 51.7447C67.0437 51.3941 66.9176 50.9348 66.105 50.116C65.2742 49.2788 64.8396 49.1674 64.4949 49.7031ZM50.3 51.7501C51.603 51.9898 53.2808 51.9912 54.7 51.7538C55.3223 51.6496 55.8738 51.5635 55.9257 51.5622C55.9777 51.561 56.02 52.2828 56.02 53.1664C56.02 55.823 55.9059 55.912 52.5 55.912C49.0941 55.912 48.98 55.823 48.98 53.1664C48.98 51.9652 49.0196 51.5606 49.1371 51.5626C49.2236 51.5638 49.7468 51.6483 50.3 51.7501ZM76.4931 67.848C76.4502 69.8576 76.4368 69.9487 76.0961 70.5388C75.9021 70.8748 75.5103 71.3068 75.2253 71.4988L74.7071 71.848H52.5H30.2929L29.7747 71.4988C29.4897 71.3068 29.0979 70.8748 28.9039 70.5388C28.5632 69.9487 28.5498 69.8576 28.5069 67.848L28.6452 65.2623H52.5H76.4931V67.848ZM40.9342 68.328C40.8968 68.3661 40.8706 68.4081 40.8533 68.4518C40.7227 68.7808 41.1514 69 41.5053 69H52.5H63.5C63.5685 69 64.5 69 64.0658 68.328C63.874 68.0311 63.6468 68.072 52.5 68.072C41.3532 68.072 41.1819 68.0758 40.9342 68.328ZM57.4029 76.456V79.464H52.4371H47.4714V76.5414C47.4714 74.9338 47.5091 73.5802 47.5552 73.5334C47.6013 73.4864 49.8358 73.448 52.521 73.448H57.4029V76.456Z"/>
</mask>
<path fill-rule="evenodd" clip-rule="evenodd" d="M51.9538 17.2341C51.7994 17.4078 51.7457 17.714 51.7457 18.4216C51.7457 19.5463 51.9427 19.944 52.5 19.944C53.0491 19.944 53.2543 19.5436 53.2543 18.472C53.2543 17.4093 53.048 17 52.5123 17C52.3196 17 52.0682 17.1053 51.9538 17.2341ZM51.3057 22.7135C49.3017 22.9308 47.6018 23.4468 45.8371 24.3737C44.4398 25.1075 43.3561 25.95 42.1231 27.2612C40.6034 28.8772 39.7124 30.3403 38.9783 32.424L38.5725 33.576L34.3162 33.64C30.1159 33.7031 30.0517 33.7081 29.4345 34.0173C28.1608 34.6554 27.3258 35.8536 27.0942 37.375C27.0173 37.8804 26.9846 44.166 27.0069 54.12L27.0427 70.056L27.3948 70.824C27.82 71.7514 28.5822 72.5818 29.4313 73.0428L30.0598 73.384L38.0428 73.448L46.0257 73.512L46.0594 76.488L46.0932 79.464H44.7626C43.1448 79.464 42.7009 79.6454 42.6961 80.3082C42.6951 80.4556 42.7977 80.6717 42.9241 80.7882C43.1337 80.9813 43.9814 81 52.5219 81C61.4376 81 61.8997 80.9887 62.0977 80.7659C62.3807 80.4475 62.3591 80.065 62.0415 79.7718C61.8213 79.5686 61.5392 79.5208 60.3444 79.485L58.9115 79.442V76.445V73.448H66.701C74.3707 73.448 74.5019 73.4438 75.2151 73.172C76.1873 72.8017 77.1271 71.8861 77.596 70.8524L77.9573 70.056L77.9931 54.12C78.0154 44.166 77.9827 37.8804 77.9058 37.375C77.6742 35.8536 76.8392 34.6554 75.5655 34.0173C74.9483 33.7081 74.8845 33.7031 70.6774 33.64L66.4145 33.576L66.136 32.744C64.4555 27.7273 60.2373 23.9198 55.3041 22.967C54.2311 22.7597 52.1162 22.6257 51.3057 22.7135ZM38.366 22.9611C38.0287 23.3046 38.133 23.7506 38.6962 24.3727C38.9865 24.6933 39.39 25.0431 39.5931 25.15C39.9333 25.3291 39.9879 25.3249 40.291 25.0954C40.8388 24.6806 40.7793 24.3801 39.9809 23.5279C39.2154 22.7106 38.7667 22.5532 38.366 22.9611ZM65.0191 23.5279C64.2207 24.3801 64.1612 24.6806 64.709 25.0954C65.0121 25.3249 65.0667 25.3291 65.4069 25.15C65.9676 24.8548 66.8315 23.8396 66.8315 23.476C66.8315 23.0609 66.5187 22.76 66.0874 22.76C65.8246 22.76 65.5607 22.9496 65.0191 23.5279ZM55.6485 24.6C60.9209 25.9704 64.7606 30.5145 65.3123 36.0368C65.9459 42.3796 61.9454 48.2557 55.8136 49.9891C54.6942 50.3055 54.3735 50.3395 52.5 50.3402C50.7249 50.3408 50.2716 50.2983 49.3571 50.0456C45.5642 48.9977 42.6236 46.5546 40.9342 43.048C38.5036 38.0024 39.5083 31.9638 43.4359 28.013C45.4343 26.0026 48.0232 24.6908 50.7714 24.2955C52.0553 24.1108 54.3075 24.2515 55.6485 24.6ZM51.1266 29.128C50.9362 29.2861 50.8162 29.6031 50.7187 30.2051C50.5812 31.055 50.5786 31.0591 50.0315 31.2719L49.4823 31.4854L48.8472 31.0108C47.9428 30.3348 47.7323 30.3743 46.7047 31.4125C45.6772 32.4508 45.6312 32.6886 46.2888 33.5655C46.6475 34.0438 46.7234 34.2387 46.6574 34.5119C46.4932 35.1924 46.2692 35.3917 45.5627 35.486C44.3929 35.6423 44.3285 35.736 44.3285 37.2819C44.3285 38.8267 44.3973 38.9542 45.3043 39.0899C46.2395 39.2296 46.4034 39.3323 46.5847 39.8914C46.7485 40.3967 46.7422 40.4218 46.2946 41.0562C45.6341 41.9924 45.6762 42.2242 46.6955 43.262C47.292 43.8695 47.6466 44.1347 47.8583 44.1319C48.0258 44.1296 48.4662 43.9043 48.837 43.6313L49.5111 43.1348L50.0296 43.3589C50.4927 43.5592 50.5586 43.6432 50.648 44.1475C50.9186 45.6738 50.9165 45.672 52.5 45.672C54.0835 45.672 54.0814 45.6738 54.352 44.1475C54.4414 43.6432 54.5073 43.5592 54.9704 43.3589L55.4889 43.1348L56.163 43.6313C56.5338 43.9043 56.9742 44.1296 57.1417 44.1319C57.3534 44.1347 57.708 43.8695 58.3045 43.262C59.3238 42.2242 59.3659 41.9924 58.7054 41.0562C58.2578 40.4218 58.2515 40.3967 58.4153 39.8914C58.5966 39.3323 58.7605 39.2296 59.6957 39.0899C60.6027 38.9542 60.6715 38.8267 60.6715 37.2819C60.6715 35.7611 60.6077 35.6606 59.5401 35.4989C58.6262 35.3606 58.5725 35.3244 58.4105 34.7347C58.2591 34.1843 58.2653 34.1602 58.7094 33.5679C59.3689 32.6884 59.3234 32.4513 58.2953 31.4125C57.2677 30.3743 57.0572 30.3348 56.1528 31.0108L55.5177 31.4854L54.9685 31.2719C54.4214 31.0591 54.4188 31.055 54.2813 30.2051C54.0913 29.031 53.9173 28.904 52.5 28.904C51.6356 28.904 51.3379 28.9525 51.1266 29.128ZM52.9366 31.1612C53.0294 31.9167 53.4129 32.488 53.8274 32.488C53.9416 32.488 54.3165 32.632 54.6607 32.808C55.48 33.2269 55.6852 33.213 56.4019 32.6887C56.9926 32.2567 57.006 32.2536 57.2231 32.4979C57.4353 32.7366 57.428 32.7687 57.0384 33.3212C56.8154 33.6373 56.6251 34.0029 56.6154 34.1334C56.5997 34.3462 57.0338 35.4984 57.4385 36.3178C57.5952 36.6352 57.86 36.7576 58.6991 36.9008C59.1259 36.9736 59.174 37.0191 59.1391 37.3178C59.1043 37.6168 59.0196 37.6696 58.3578 37.8035C57.6235 37.9519 57.2827 38.2097 57.272 38.6244C57.2693 38.7343 57.1056 39.1677 56.9083 39.5876C56.5119 40.4316 56.5321 40.6297 57.0887 41.3729C57.4528 41.8587 57.4734 41.9971 57.2143 42.216C57.0588 42.3475 56.9041 42.2899 56.3281 41.886C55.7064 41.4499 55.5935 41.4123 55.2909 41.5396C55.1042 41.6182 54.5837 41.8369 54.1343 42.0254C53.6849 42.214 53.2527 42.4515 53.1738 42.5533C53.095 42.655 52.9919 43.0529 52.9448 43.4371C52.8634 44.1002 52.8406 44.136 52.5 44.136C52.1594 44.136 52.1366 44.1002 52.0552 43.4371C52.0081 43.0529 51.905 42.655 51.8262 42.5533C51.7473 42.4515 51.3151 42.214 50.8657 42.0254C50.4163 41.8369 49.8958 41.6182 49.7091 41.5396C49.4065 41.4123 49.2936 41.4499 48.6718 41.886C48.0959 42.2899 47.9412 42.3475 47.7857 42.216C47.5239 41.9948 47.5441 41.8925 47.9743 41.256C48.431 40.5802 48.4414 40.2951 48.0399 39.464C47.8698 39.112 47.7289 38.7343 47.7267 38.6244C47.7185 38.2108 47.377 37.9521 46.6422 37.8035C45.9926 37.672 45.8953 37.6135 45.8624 37.3343C45.8278 37.0403 45.8862 37.0013 46.6139 36.8318C47.4768 36.6308 47.4312 36.6827 48.0584 35.1894C48.2474 34.7391 48.3943 34.264 48.3846 34.1334C48.3749 34.0029 48.1846 33.6373 47.9616 33.3212C47.572 32.7687 47.5647 32.7366 47.7769 32.4979C47.994 32.2536 48.0074 32.2567 48.5981 32.6887C49.3148 33.213 49.52 33.2269 50.3393 32.808C50.6835 32.632 51.0584 32.488 51.1726 32.488C51.5871 32.488 51.9706 31.9167 52.0634 31.1612C52.1469 30.4802 52.1713 30.44 52.5 30.44C52.8287 30.44 52.8531 30.4802 52.9366 31.1612ZM51.4828 34.0949C50.7353 34.3293 49.8375 35.1404 49.4884 35.8966C49.0829 36.7747 49.1024 37.9129 49.5383 38.8199C50.7539 41.35 54.4144 41.2642 55.5373 38.6795C55.8816 37.8868 55.8698 36.6723 55.51 35.8931C55.1491 35.1112 54.2625 34.3286 53.4645 34.0874C52.6967 33.8553 52.2413 33.857 51.4828 34.0949ZM38.2328 37.384C38.2341 39.5409 38.2609 39.8175 38.5819 40.9926C38.9901 42.4867 39.795 44.2756 40.6434 45.5745C41.9222 47.5322 44.3058 49.5727 46.5074 50.5942L47.4714 51.0416V52.8775C47.4714 54.963 47.6356 55.748 48.2041 56.3802C48.8362 57.0832 49.4581 57.32 50.6721 57.32H51.7457V58.152C51.7457 59.0536 51.994 59.496 52.5 59.496C53.006 59.496 53.2543 59.0536 53.2543 58.152V57.32H54.3279C55.5419 57.32 56.1638 57.0832 56.7959 56.3802C57.3638 55.7487 57.5286 54.9625 57.5286 52.8847V51.0558L58.4882 50.6044C60.582 49.6194 62.6319 47.9213 64.0565 45.992C64.9523 44.7787 66.0036 42.5543 66.4155 41C66.7243 39.8356 66.7556 39.5083 66.7618 37.3759L66.7687 35.0317L70.603 35.0719C74.2482 35.1101 74.4621 35.1256 74.9402 35.3876C75.5228 35.7068 75.8843 36.0826 76.214 36.712C76.4383 37.14 76.4502 37.7633 76.4824 50.696V63.6885H52.5H28.5176V50.696C28.5498 37.7633 28.5617 37.14 28.786 36.712C29.2294 35.8655 29.8258 35.3816 30.6884 35.1677C30.8958 35.1162 32.6779 35.0684 34.6484 35.0611L38.2313 35.048L38.2328 37.384ZM53.3943 35.7116C53.8897 35.9949 54.3886 36.7948 54.383 37.2964C54.3815 37.4326 54.2716 37.7876 54.1388 38.0853C53.3963 39.7507 51.0108 39.3999 50.6747 37.5759C50.4909 36.5784 51.4505 35.4421 52.4829 35.4349C52.7155 35.4333 53.1256 35.5578 53.3943 35.7116ZM38.8874 50.1237C38.0852 50.9491 37.9633 51.3991 38.4479 51.7447C38.9091 52.0737 39.1589 51.9801 39.9385 51.1862C40.7182 50.3924 40.8101 50.138 40.487 49.6685C40.1427 49.1679 39.6916 49.2963 38.8874 50.1237ZM64.4949 49.7031C64.1933 50.1717 64.3478 50.5497 65.1436 51.2902C65.8941 51.9887 66.1117 52.0589 66.5521 51.7447C67.0437 51.3941 66.9176 50.9348 66.105 50.116C65.2742 49.2788 64.8396 49.1674 64.4949 49.7031ZM50.3 51.7501C51.603 51.9898 53.2808 51.9912 54.7 51.7538C55.3223 51.6496 55.8738 51.5635 55.9257 51.5622C55.9777 51.561 56.02 52.2828 56.02 53.1664C56.02 55.823 55.9059 55.912 52.5 55.912C49.0941 55.912 48.98 55.823 48.98 53.1664C48.98 51.9652 49.0196 51.5606 49.1371 51.5626C49.2236 51.5638 49.7468 51.6483 50.3 51.7501ZM76.4931 67.848C76.4502 69.8576 76.4368 69.9487 76.0961 70.5388C75.9021 70.8748 75.5103 71.3068 75.2253 71.4988L74.7071 71.848H52.5H30.2929L29.7747 71.4988C29.4897 71.3068 29.0979 70.8748 28.9039 70.5388C28.5632 69.9487 28.5498 69.8576 28.5069 67.848L28.6452 65.2623H52.5H76.4931V67.848ZM40.9342 68.328C40.8968 68.3661 40.8706 68.4081 40.8533 68.4518C40.7227 68.7808 41.1514 69 41.5053 69H52.5H63.5C63.5685 69 64.5 69 64.0658 68.328C63.874 68.0311 63.6468 68.072 52.5 68.072C41.3532 68.072 41.1819 68.0758 40.9342 68.328ZM57.4029 76.456V79.464H52.4371H47.4714V76.5414C47.4714 74.9338 47.5091 73.5802 47.5552 73.5334C47.6013 73.4864 49.8358 73.448 52.521 73.448H57.4029V76.456Z" fill="#FFC100"/>
<path fill-rule="evenodd" clip-rule="evenodd" d="M51.9538 17.2341C51.7994 17.4078 51.7457 17.714 51.7457 18.4216C51.7457 19.5463 51.9427 19.944 52.5 19.944C53.0491 19.944 53.2543 19.5436 53.2543 18.472C53.2543 17.4093 53.048 17 52.5123 17C52.3196 17 52.0682 17.1053 51.9538 17.2341ZM51.3057 22.7135C49.3017 22.9308 47.6018 23.4468 45.8371 24.3737C44.4398 25.1075 43.3561 25.95 42.1231 27.2612C40.6034 28.8772 39.7124 30.3403 38.9783 32.424L38.5725 33.576L34.3162 33.64C30.1159 33.7031 30.0517 33.7081 29.4345 34.0173C28.1608 34.6554 27.3258 35.8536 27.0942 37.375C27.0173 37.8804 26.9846 44.166 27.0069 54.12L27.0427 70.056L27.3948 70.824C27.82 71.7514 28.5822 72.5818 29.4313 73.0428L30.0598 73.384L38.0428 73.448L46.0257 73.512L46.0594 76.488L46.0932 79.464H44.7626C43.1448 79.464 42.7009 79.6454 42.6961 80.3082C42.6951 80.4556 42.7977 80.6717 42.9241 80.7882C43.1337 80.9813 43.9814 81 52.5219 81C61.4376 81 61.8997 80.9887 62.0977 80.7659C62.3807 80.4475 62.3591 80.065 62.0415 79.7718C61.8213 79.5686 61.5392 79.5208 60.3444 79.485L58.9115 79.442V76.445V73.448H66.701C74.3707 73.448 74.5019 73.4438 75.2151 73.172C76.1873 72.8017 77.1271 71.8861 77.596 70.8524L77.9573 70.056L77.9931 54.12C78.0154 44.166 77.9827 37.8804 77.9058 37.375C77.6742 35.8536 76.8392 34.6554 75.5655 34.0173C74.9483 33.7081 74.8845 33.7031 70.6774 33.64L66.4145 33.576L66.136 32.744C64.4555 27.7273 60.2373 23.9198 55.3041 22.967C54.2311 22.7597 52.1162 22.6257 51.3057 22.7135ZM38.366 22.9611C38.0287 23.3046 38.133 23.7506 38.6962 24.3727C38.9865 24.6933 39.39 25.0431 39.5931 25.15C39.9333 25.3291 39.9879 25.3249 40.291 25.0954C40.8388 24.6806 40.7793 24.3801 39.9809 23.5279C39.2154 22.7106 38.7667 22.5532 38.366 22.9611ZM65.0191 23.5279C64.2207 24.3801 64.1612 24.6806 64.709 25.0954C65.0121 25.3249 65.0667 25.3291 65.4069 25.15C65.9676 24.8548 66.8315 23.8396 66.8315 23.476C66.8315 23.0609 66.5187 22.76 66.0874 22.76C65.8246 22.76 65.5607 22.9496 65.0191 23.5279ZM55.6485 24.6C60.9209 25.9704 64.7606 30.5145 65.3123 36.0368C65.9459 42.3796 61.9454 48.2557 55.8136 49.9891C54.6942 50.3055 54.3735 50.3395 52.5 50.3402C50.7249 50.3408 50.2716 50.2983 49.3571 50.0456C45.5642 48.9977 42.6236 46.5546 40.9342 43.048C38.5036 38.0024 39.5083 31.9638 43.4359 28.013C45.4343 26.0026 48.0232 24.6908 50.7714 24.2955C52.0553 24.1108 54.3075 24.2515 55.6485 24.6ZM51.1266 29.128C50.9362 29.2861 50.8162 29.6031 50.7187 30.2051C50.5812 31.055 50.5786 31.0591 50.0315 31.2719L49.4823 31.4854L48.8472 31.0108C47.9428 30.3348 47.7323 30.3743 46.7047 31.4125C45.6772 32.4508 45.6312 32.6886 46.2888 33.5655C46.6475 34.0438 46.7234 34.2387 46.6574 34.5119C46.4932 35.1924 46.2692 35.3917 45.5627 35.486C44.3929 35.6423 44.3285 35.736 44.3285 37.2819C44.3285 38.8267 44.3973 38.9542 45.3043 39.0899C46.2395 39.2296 46.4034 39.3323 46.5847 39.8914C46.7485 40.3967 46.7422 40.4218 46.2946 41.0562C45.6341 41.9924 45.6762 42.2242 46.6955 43.262C47.292 43.8695 47.6466 44.1347 47.8583 44.1319C48.0258 44.1296 48.4662 43.9043 48.837 43.6313L49.5111 43.1348L50.0296 43.3589C50.4927 43.5592 50.5586 43.6432 50.648 44.1475C50.9186 45.6738 50.9165 45.672 52.5 45.672C54.0835 45.672 54.0814 45.6738 54.352 44.1475C54.4414 43.6432 54.5073 43.5592 54.9704 43.3589L55.4889 43.1348L56.163 43.6313C56.5338 43.9043 56.9742 44.1296 57.1417 44.1319C57.3534 44.1347 57.708 43.8695 58.3045 43.262C59.3238 42.2242 59.3659 41.9924 58.7054 41.0562C58.2578 40.4218 58.2515 40.3967 58.4153 39.8914C58.5966 39.3323 58.7605 39.2296 59.6957 39.0899C60.6027 38.9542 60.6715 38.8267 60.6715 37.2819C60.6715 35.7611 60.6077 35.6606 59.5401 35.4989C58.6262 35.3606 58.5725 35.3244 58.4105 34.7347C58.2591 34.1843 58.2653 34.1602 58.7094 33.5679C59.3689 32.6884 59.3234 32.4513 58.2953 31.4125C57.2677 30.3743 57.0572 30.3348 56.1528 31.0108L55.5177 31.4854L54.9685 31.2719C54.4214 31.0591 54.4188 31.055 54.2813 30.2051C54.0913 29.031 53.9173 28.904 52.5 28.904C51.6356 28.904 51.3379 28.9525 51.1266 29.128ZM52.9366 31.1612C53.0294 31.9167 53.4129 32.488 53.8274 32.488C53.9416 32.488 54.3165 32.632 54.6607 32.808C55.48 33.2269 55.6852 33.213 56.4019 32.6887C56.9926 32.2567 57.006 32.2536 57.2231 32.4979C57.4353 32.7366 57.428 32.7687 57.0384 33.3212C56.8154 33.6373 56.6251 34.0029 56.6154 34.1334C56.5997 34.3462 57.0338 35.4984 57.4385 36.3178C57.5952 36.6352 57.86 36.7576 58.6991 36.9008C59.1259 36.9736 59.174 37.0191 59.1391 37.3178C59.1043 37.6168 59.0196 37.6696 58.3578 37.8035C57.6235 37.9519 57.2827 38.2097 57.272 38.6244C57.2693 38.7343 57.1056 39.1677 56.9083 39.5876C56.5119 40.4316 56.5321 40.6297 57.0887 41.3729C57.4528 41.8587 57.4734 41.9971 57.2143 42.216C57.0588 42.3475 56.9041 42.2899 56.3281 41.886C55.7064 41.4499 55.5935 41.4123 55.2909 41.5396C55.1042 41.6182 54.5837 41.8369 54.1343 42.0254C53.6849 42.214 53.2527 42.4515 53.1738 42.5533C53.095 42.655 52.9919 43.0529 52.9448 43.4371C52.8634 44.1002 52.8406 44.136 52.5 44.136C52.1594 44.136 52.1366 44.1002 52.0552 43.4371C52.0081 43.0529 51.905 42.655 51.8262 42.5533C51.7473 42.4515 51.3151 42.214 50.8657 42.0254C50.4163 41.8369 49.8958 41.6182 49.7091 41.5396C49.4065 41.4123 49.2936 41.4499 48.6718 41.886C48.0959 42.2899 47.9412 42.3475 47.7857 42.216C47.5239 41.9948 47.5441 41.8925 47.9743 41.256C48.431 40.5802 48.4414 40.2951 48.0399 39.464C47.8698 39.112 47.7289 38.7343 47.7267 38.6244C47.7185 38.2108 47.377 37.9521 46.6422 37.8035C45.9926 37.672 45.8953 37.6135 45.8624 37.3343C45.8278 37.0403 45.8862 37.0013 46.6139 36.8318C47.4768 36.6308 47.4312 36.6827 48.0584 35.1894C48.2474 34.7391 48.3943 34.264 48.3846 34.1334C48.3749 34.0029 48.1846 33.6373 47.9616 33.3212C47.572 32.7687 47.5647 32.7366 47.7769 32.4979C47.994 32.2536 48.0074 32.2567 48.5981 32.6887C49.3148 33.213 49.52 33.2269 50.3393 32.808C50.6835 32.632 51.0584 32.488 51.1726 32.488C51.5871 32.488 51.9706 31.9167 52.0634 31.1612C52.1469 30.4802 52.1713 30.44 52.5 30.44C52.8287 30.44 52.8531 30.4802 52.9366 31.1612ZM51.4828 34.0949C50.7353 34.3293 49.8375 35.1404 49.4884 35.8966C49.0829 36.7747 49.1024 37.9129 49.5383 38.8199C50.7539 41.35 54.4144 41.2642 55.5373 38.6795C55.8816 37.8868 55.8698 36.6723 55.51 35.8931C55.1491 35.1112 54.2625 34.3286 53.4645 34.0874C52.6967 33.8553 52.2413 33.857 51.4828 34.0949ZM38.2328 37.384C38.2341 39.5409 38.2609 39.8175 38.5819 40.9926C38.9901 42.4867 39.795 44.2756 40.6434 45.5745C41.9222 47.5322 44.3058 49.5727 46.5074 50.5942L47.4714 51.0416V52.8775C47.4714 54.963 47.6356 55.748 48.2041 56.3802C48.8362 57.0832 49.4581 57.32 50.6721 57.32H51.7457V58.152C51.7457 59.0536 51.994 59.496 52.5 59.496C53.006 59.496 53.2543 59.0536 53.2543 58.152V57.32H54.3279C55.5419 57.32 56.1638 57.0832 56.7959 56.3802C57.3638 55.7487 57.5286 54.9625 57.5286 52.8847V51.0558L58.4882 50.6044C60.582 49.6194 62.6319 47.9213 64.0565 45.992C64.9523 44.7787 66.0036 42.5543 66.4155 41C66.7243 39.8356 66.7556 39.5083 66.7618 37.3759L66.7687 35.0317L70.603 35.0719C74.2482 35.1101 74.4621 35.1256 74.9402 35.3876C75.5228 35.7068 75.8843 36.0826 76.214 36.712C76.4383 37.14 76.4502 37.7633 76.4824 50.696V63.6885H52.5H28.5176V50.696C28.5498 37.7633 28.5617 37.14 28.786 36.712C29.2294 35.8655 29.8258 35.3816 30.6884 35.1677C30.8958 35.1162 32.6779 35.0684 34.6484 35.0611L38.2313 35.048L38.2328 37.384ZM53.3943 35.7116C53.8897 35.9949 54.3886 36.7948 54.383 37.2964C54.3815 37.4326 54.2716 37.7876 54.1388 38.0853C53.3963 39.7507 51.0108 39.3999 50.6747 37.5759C50.4909 36.5784 51.4505 35.4421 52.4829 35.4349C52.7155 35.4333 53.1256 35.5578 53.3943 35.7116ZM38.8874 50.1237C38.0852 50.9491 37.9633 51.3991 38.4479 51.7447C38.9091 52.0737 39.1589 51.9801 39.9385 51.1862C40.7182 50.3924 40.8101 50.138 40.487 49.6685C40.1427 49.1679 39.6916 49.2963 38.8874 50.1237ZM64.4949 49.7031C64.1933 50.1717 64.3478 50.5497 65.1436 51.2902C65.8941 51.9887 66.1117 52.0589 66.5521 51.7447C67.0437 51.3941 66.9176 50.9348 66.105 50.116C65.2742 49.2788 64.8396 49.1674 64.4949 49.7031ZM50.3 51.7501C51.603 51.9898 53.2808 51.9912 54.7 51.7538C55.3223 51.6496 55.8738 51.5635 55.9257 51.5622C55.9777 51.561 56.02 52.2828 56.02 53.1664C56.02 55.823 55.9059 55.912 52.5 55.912C49.0941 55.912 48.98 55.823 48.98 53.1664C48.98 51.9652 49.0196 51.5606 49.1371 51.5626C49.2236 51.5638 49.7468 51.6483 50.3 51.7501ZM76.4931 67.848C76.4502 69.8576 76.4368 69.9487 76.0961 70.5388C75.9021 70.8748 75.5103 71.3068 75.2253 71.4988L74.7071 71.848H52.5H30.2929L29.7747 71.4988C29.4897 71.3068 29.0979 70.8748 28.9039 70.5388C28.5632 69.9487 28.5498 69.8576 28.5069 67.848L28.6452 65.2623H52.5H76.4931V67.848ZM40.9342 68.328C40.8968 68.3661 40.8706 68.4081 40.8533 68.4518C40.7227 68.7808 41.1514 69 41.5053 69H52.5H63.5C63.5685 69 64.5 69 64.0658 68.328C63.874 68.0311 63.6468 68.072 52.5 68.072C41.3532 68.072 41.1819 68.0758 40.9342 68.328ZM57.4029 76.456V79.464H52.4371H47.4714V76.5414C47.4714 74.9338 47.5091 73.5802 47.5552 73.5334C47.6013 73.4864 49.8358 73.448 52.521 73.448H57.4029V76.456Z" stroke="#182F43" stroke-width="2" mask="url(#path-12-outside-1_358_1951)"/>
</g>
<defs>
<clipPath id="clip0_358_1951">
<rect width="105" height="105" fill="white"/>
</clipPath>
</defs>
</svg>
