<svg width="105" height="105" viewBox="0 0 105 105" fill="none" xmlns="http://www.w3.org/2000/svg">
<path d="M4.53773 90.8113C5.1838 90.8113 5.70754 90.2876 5.70754 89.6415C5.70754 88.9954 5.1838 88.4717 4.53773 88.4717C3.89166 88.4717 3.36792 88.9954 3.36792 89.6415C3.36792 90.2876 3.89166 90.8113 4.53773 90.8113Z" fill="#182F43"/>
<path d="M9.80466 88.4717H8.04994C7.73969 88.4717 7.44214 88.5949 7.22276 88.8143C7.00337 89.0337 6.88013 89.3312 6.88013 89.6415C6.88013 89.9517 7.00337 90.2493 7.22276 90.4687C7.44214 90.6881 7.73969 90.8113 8.04994 90.8113H9.80466C10.1149 90.8113 10.4125 90.6881 10.6318 90.4687C10.8512 90.2493 10.9745 89.9517 10.9745 89.6415C10.9745 89.3312 10.8512 89.0337 10.6318 88.8143C10.4125 88.5949 10.1149 88.4717 9.80466 88.4717ZM96.9556 88.4717H95.2009C94.8906 88.4717 94.5931 88.5949 94.3737 88.8143C94.1543 89.0337 94.0311 89.3312 94.0311 89.6415C94.0311 89.9517 94.1543 90.2493 94.3737 90.4687C94.5931 90.6881 94.8906 90.8113 95.2009 90.8113H96.9556C97.2659 90.8113 97.5634 90.6881 97.7828 90.4687C98.0022 90.2493 98.1254 89.9517 98.1254 89.6415C98.1254 89.3312 98.0022 89.0337 97.7828 88.8143C97.5634 88.5949 97.2659 88.4717 96.9556 88.4717Z" fill="#182F43"/>
<path d="M100.46 90.8113C101.107 90.8113 101.63 90.2876 101.63 89.6415C101.63 88.9954 101.107 88.4717 100.46 88.4717C99.8144 88.4717 99.2906 88.9954 99.2906 89.6415C99.2906 90.2876 99.8144 90.8113 100.46 90.8113Z" fill="#182F43"/>
<path d="M72.4758 93.1511H67.6166C67.3225 93.1746 67.0481 93.3081 66.848 93.5249C66.6479 93.7416 66.5368 94.0258 66.5368 94.3209C66.5368 94.6159 66.6479 94.9001 66.848 95.1169C67.0481 95.3337 67.3225 95.4671 67.6166 95.4907H72.4758C72.7699 95.4671 73.0443 95.3337 73.2444 95.1169C73.4445 94.9001 73.5557 94.6159 73.5557 94.3209C73.5557 94.0258 73.4445 93.7416 73.2444 93.5249C73.0443 93.3081 72.7699 93.1746 72.4758 93.1511ZM37.3815 93.1511H32.5222C32.2282 93.1746 31.9537 93.3081 31.7536 93.5249C31.5535 93.7416 31.4424 94.0258 31.4424 94.3209C31.4424 94.6159 31.5535 94.9001 31.7536 95.1169C31.9537 95.3337 32.2282 95.4671 32.5222 95.4907H37.3815C37.6756 95.4671 37.95 95.3337 38.1501 95.1169C38.3502 94.9001 38.4613 94.6159 38.4613 94.3209C38.4613 94.0258 38.3502 93.7416 38.1501 93.5249C37.95 93.3081 37.6756 93.1746 37.3815 93.1511ZM64.1971 93.1511H40.8009C40.4907 93.1511 40.1931 93.2743 39.9737 93.4937C39.7544 93.7131 39.6311 94.0106 39.6311 94.3209C39.6311 94.6311 39.7544 94.9287 39.9737 95.148C40.1931 95.3674 40.4907 95.4907 40.8009 95.4907H50.1243V96.6605H45.4802C45.1699 96.6605 44.8724 96.7837 44.653 97.0031C44.4336 97.2225 44.3104 97.5201 44.3104 97.8303C44.3104 98.1406 44.4336 98.4381 44.653 98.6575C44.8724 98.8769 45.1699 99.0001 45.4802 99.0001H60.1028C60.4131 99.0001 60.7106 98.8769 60.93 98.6575C61.1494 98.4381 61.2726 98.1406 61.2726 97.8303C61.2726 97.5201 61.1494 97.2225 60.93 97.0031C60.7106 96.7837 60.4131 96.6605 60.1028 96.6605H54.8737V95.4907H64.1971C64.5074 95.4907 64.8049 95.3674 65.0243 95.148C65.2437 94.9287 65.367 94.6311 65.367 94.3209C65.367 94.0106 65.2437 93.7131 65.0243 93.4937C64.8049 93.2743 64.5074 93.1511 64.1971 93.1511ZM70.0462 40.5095H72.3858C72.6961 40.5095 72.9936 40.3863 73.213 40.1669C73.4324 39.9475 73.5556 39.65 73.5556 39.3397C73.5556 39.0295 73.4324 38.7319 73.213 38.5126C72.9936 38.2932 72.6961 38.1699 72.3858 38.1699H70.0462C69.736 38.1699 69.4384 38.2932 69.219 38.5126C68.9996 38.7319 68.8764 39.0295 68.8764 39.3397C68.8764 39.65 68.9996 39.9475 69.219 40.1669C69.4384 40.3863 69.736 40.5095 70.0462 40.5095ZM77.0651 40.5095H79.4047C79.7149 40.5095 80.0125 40.3863 80.2319 40.1669C80.4513 39.9475 80.5745 39.65 80.5745 39.3397C80.5745 39.0295 80.4513 38.7319 80.2319 38.5126C80.0125 38.2932 79.7149 38.1699 79.4047 38.1699H77.0651C76.7548 38.1699 76.4573 38.2932 76.2379 38.5126C76.0185 38.7319 75.8953 39.0295 75.8953 39.3397C75.8953 39.65 76.0185 39.9475 76.2379 40.1669C76.4573 40.3863 76.7548 40.5095 77.0651 40.5095ZM75.8953 51.0378H64.1971C63.5766 51.0378 62.9815 51.2843 62.5428 51.7231C62.104 52.1619 61.8575 52.757 61.8575 53.3775H59.1943C59.0954 53.2009 58.9738 53.038 58.8326 52.8929L54.1534 48.2137C53.9361 47.9964 53.6782 47.8241 53.3944 47.7065C53.1105 47.5889 52.8063 47.5284 52.499 47.5284C52.1918 47.5284 51.8876 47.5889 51.6037 47.7065C51.3198 47.8241 51.0619 47.9964 50.8447 48.2137L46.1654 52.8929C46.0242 53.038 45.9027 53.2009 45.8038 53.3775H43.1405C43.1405 52.757 42.894 52.1619 42.4553 51.7231C42.0165 51.2843 41.4214 51.0378 40.8009 51.0378H29.1028C28.4823 51.0378 27.8872 51.2843 27.4484 51.7231C27.0097 52.1619 26.7632 52.757 26.7632 53.3775V55.7171C26.7632 56.3376 27.0097 56.9327 27.4484 57.3715C27.8872 57.8102 28.4823 58.0567 29.1028 58.0567H33.7821V60.3963H29.1028C28.4823 60.3963 27.8872 60.6428 27.4484 61.0816C27.0097 61.5204 26.7632 62.1155 26.7632 62.736V65.0756C26.7632 65.6961 27.0097 66.2912 27.4484 66.7299C27.8872 67.1687 28.4823 67.4152 29.1028 67.4152H33.7821V69.7548H29.1028C28.4823 69.7548 27.8872 70.0013 27.4484 70.4401C27.0097 70.8789 26.7632 71.4739 26.7632 72.0945V74.4341C26.7632 75.0546 27.0097 75.6497 27.4484 76.0884C27.8872 76.5272 28.4823 76.7737 29.1028 76.7737H40.8009C41.4214 76.7737 42.0165 76.5272 42.4553 76.0884C42.894 75.6497 43.1405 75.0546 43.1405 74.4341H61.8575C61.8575 75.0546 62.104 75.6497 62.5428 76.0884C62.9815 76.5272 63.5766 76.7737 64.1971 76.7737H75.8953C76.5158 76.7737 77.1109 76.5272 77.5496 76.0884C77.9884 75.6497 78.2349 75.0546 78.2349 74.4341V72.0945C78.2349 71.4739 77.9884 70.8789 77.5496 70.4401C77.1109 70.0013 76.5158 69.7548 75.8953 69.7548H71.216V67.4152H75.8953C76.5158 67.4152 77.1109 67.1687 77.5496 66.7299C77.9884 66.2912 78.2349 65.6961 78.2349 65.0756V62.736C78.2349 62.1155 77.9884 61.5204 77.5496 61.0816C77.1109 60.6428 76.5158 60.3963 75.8953 60.3963H71.216V58.0567H75.8953C76.5158 58.0567 77.1109 57.8102 77.5496 57.3715C77.9884 56.9327 78.2349 56.3376 78.2349 55.7171V53.3775C78.2349 52.757 77.9884 52.1619 77.5496 51.7231C77.1109 51.2843 76.5158 51.0378 75.8953 51.0378ZM52.499 49.868L57.1783 54.5473L52.499 59.2265L47.8198 54.5473L52.499 49.868ZM29.1028 55.7171V53.3775H40.8009V55.7171H29.1028ZM29.1028 65.0756V62.736H40.8009V65.0756H29.1028ZM40.8009 74.4341H29.1028V72.0945H40.8009V74.4341ZM61.8575 72.0945H43.1405C43.1405 71.4739 42.894 70.8789 42.4553 70.4401C42.0165 70.0013 41.4214 69.7548 40.8009 69.7548H36.1217V67.4152H40.8009C41.4214 67.4152 42.0165 67.1687 42.4553 66.7299C42.894 66.2912 43.1405 65.6961 43.1405 65.0756V62.736C43.1405 62.1155 42.894 61.5204 42.4553 61.0816C42.0165 60.6428 41.4214 60.3963 40.8009 60.3963H36.1217V58.0567H40.8009C41.4214 58.0567 42.0165 57.8102 42.4553 57.3715C42.894 56.9327 43.1405 56.3376 43.1405 55.7171H45.8038C45.9027 55.8937 46.0242 56.0566 46.1654 56.2016L50.8447 60.8809C51.0619 61.0981 51.3198 61.2705 51.6037 61.3881C51.8876 61.5056 52.1918 61.5662 52.499 61.5662C52.8063 61.5662 53.1105 61.5056 53.3944 61.3881C53.6782 61.2705 53.9361 61.0981 54.1534 60.8809L58.8326 56.2016C58.9738 56.0566 59.0954 55.8937 59.1943 55.7171H61.8575C61.8575 56.3376 62.104 56.9327 62.5428 57.3715C62.9815 57.8102 63.5766 58.0567 64.1971 58.0567H68.8764V60.3963H64.1971C63.5766 60.3963 62.9815 60.6428 62.5428 61.0816C62.104 61.5204 61.8575 62.1155 61.8575 62.736V65.0756C61.8575 65.6961 62.104 66.2912 62.5428 66.7299C62.9815 67.1687 63.5766 67.4152 64.1971 67.4152H68.8764V69.7548H64.1971C63.5766 69.7548 62.9815 70.0013 62.5428 70.4401C62.104 70.8789 61.8575 71.4739 61.8575 72.0945ZM75.8953 72.0945V74.4341H64.1971V72.0945H75.8953ZM75.8953 62.736V65.0756H64.1971V62.736H75.8953ZM75.8953 55.7171H64.1971V53.3775H75.8953V55.7171Z" fill="#FFC100" stroke="#182F43"/>
<path d="M82.9149 33.4902H22.0847C21.4642 33.4902 20.8691 33.7367 20.4304 34.1755C19.9916 34.6143 19.7451 35.2094 19.7451 35.8299V76.7733H22.0847V45.0421H82.9149V76.7733H85.2546V35.8299C85.2546 35.2094 85.0081 34.6143 84.5693 34.1755C84.1305 33.7367 83.5354 33.4902 82.9149 33.4902ZM82.9149 42.7025H22.0847V35.8299H82.9149V42.7025Z" fill="#182F43"/>
<path d="M91.5285 88.4717H62.4462V86.1321H85.2575C86.4981 86.1307 87.6875 85.6372 88.5647 84.76C89.4419 83.8828 89.9354 82.6934 89.9367 81.4528V33.4906C89.9354 32.25 89.4419 31.0606 88.5647 30.1834C87.6875 29.3061 86.4981 28.8127 85.2575 28.8113H19.7481C18.5075 28.8127 17.3181 29.3061 16.4409 30.1834C15.5636 31.0606 15.0702 32.25 15.0688 33.4906V81.4528C15.0702 82.6934 15.5637 83.8828 16.4409 84.76C17.3181 85.6372 18.5075 86.1307 19.7481 86.1321H42.5594V88.4717H13.4771C13.3107 88.4499 13.1415 88.464 12.981 88.5128C12.8204 88.5616 12.6721 88.6442 12.546 88.7549C12.4198 88.8656 12.3188 89.002 12.2495 89.1549C12.1803 89.3078 12.1445 89.4737 12.1445 89.6415C12.1445 89.8093 12.1803 89.9752 12.2495 90.1281C12.3188 90.281 12.4198 90.4174 12.546 90.5281C12.6721 90.6388 12.8204 90.7214 12.981 90.7702C13.1415 90.819 13.3107 90.8331 13.4771 90.8113H91.5285C91.6949 90.8331 91.864 90.819 92.0246 90.7702C92.1852 90.7214 92.3335 90.6388 92.4596 90.5281C92.5857 90.4174 92.6868 90.281 92.756 90.1281C92.8252 89.9752 92.8611 89.8093 92.8611 89.6415C92.8611 89.4737 92.8252 89.3078 92.756 89.1549C92.6868 89.002 92.5857 88.8656 92.4596 88.7549C92.3335 88.6442 92.1852 88.5616 92.0246 88.5128C91.864 88.464 91.6949 88.4499 91.5285 88.4717ZM17.4084 33.4906C17.4084 32.8701 17.6549 32.275 18.0937 31.8362C18.5325 31.3974 19.1276 31.1509 19.7481 31.1509H85.2575C85.878 31.1509 86.4731 31.3974 86.9119 31.8362C87.3506 32.275 87.5971 32.8701 87.5971 33.4906V79.1132H17.4084V33.4906ZM19.7481 83.7924C19.1276 83.7924 18.5325 83.5459 18.0937 83.1072C17.6549 82.6684 17.4084 82.0733 17.4084 81.4528H87.5971C87.5971 82.0733 87.3506 82.6684 86.9119 83.1072C86.4731 83.5459 85.878 83.7924 85.2575 83.7924H19.7481ZM44.899 88.4717V86.1321H60.1066V88.4717H44.899ZM43.3225 9.50943C43.6696 9.50943 44.0088 9.40652 44.2974 9.21371C44.5859 9.0209 44.8108 8.74685 44.9437 8.42622C45.0765 8.10559 45.1112 7.75277 45.0435 7.41239C44.9758 7.07201 44.8087 6.75935 44.5633 6.51395C44.3179 6.26854 44.0052 6.10142 43.6648 6.03372C43.3245 5.96601 42.9716 6.00076 42.651 6.13357C42.3304 6.26638 42.0563 6.49129 41.8635 6.77985C41.6707 7.06841 41.5678 7.40767 41.5678 7.75472C41.5683 8.21993 41.7534 8.66594 42.0823 8.9949C42.4113 9.32386 42.8573 9.5089 43.3225 9.50943ZM43.3225 6.87736C43.496 6.87736 43.6657 6.92882 43.8099 7.02522C43.9542 7.12163 44.0667 7.25865 44.1331 7.41897C44.1995 7.57928 44.2169 7.75569 44.183 7.92588C44.1492 8.09607 44.0656 8.2524 43.9429 8.3751C43.8202 8.4978 43.6639 8.58136 43.4937 8.61522C43.3235 8.64907 43.1471 8.6317 42.9868 8.56529C42.8264 8.49889 42.6894 8.38643 42.593 8.24215C42.4966 8.09787 42.4452 7.92824 42.4452 7.75472C42.4454 7.5221 42.5379 7.29907 42.7024 7.13458C42.8669 6.9701 43.0899 6.87759 43.3225 6.87736ZM95.964 45.1887C95.7327 45.1887 95.5065 45.2573 95.3141 45.3858C95.1217 45.5144 94.9718 45.6971 94.8833 45.9108C94.7947 46.1246 94.7716 46.3598 94.8167 46.5867C94.8618 46.8136 94.9733 47.0221 95.1368 47.1857C95.3005 47.3493 95.5089 47.4607 95.7358 47.5058C95.9627 47.551 96.1979 47.5278 96.4117 47.4392C96.6255 47.3507 96.8082 47.2008 96.9367 47.0084C97.0652 46.816 97.1338 46.5899 97.1338 46.3585C97.1335 46.0483 97.0101 45.751 96.7908 45.5317C96.5715 45.3124 96.2742 45.189 95.964 45.1887ZM95.964 46.9434C95.8483 46.9434 95.7353 46.9091 95.6391 46.8448C95.5429 46.7805 95.4679 46.6892 95.4236 46.5823C95.3794 46.4754 95.3678 46.3578 95.3904 46.2444C95.4129 46.1309 95.4686 46.0267 95.5504 45.9449C95.6322 45.8631 95.7365 45.8074 95.8499 45.7848C95.9634 45.7622 96.081 45.7738 96.1879 45.8181C96.2947 45.8624 96.3861 45.9373 96.4504 46.0335C96.5146 46.1297 96.5489 46.2428 96.5489 46.3585C96.5488 46.5136 96.4871 46.6622 96.3774 46.7719C96.2678 46.8816 96.1191 46.9432 95.964 46.9434ZM7.05836 11.2642C6.82699 11.2642 6.60082 11.3328 6.40845 11.4613C6.21607 11.5898 6.06614 11.7725 5.9776 11.9863C5.88906 12.2 5.86589 12.4353 5.91103 12.6622C5.95617 12.8891 6.06758 13.0975 6.23118 13.2611C6.39478 13.4247 6.60322 13.5362 6.83014 13.5813C7.05706 13.6264 7.29227 13.6033 7.50603 13.5147C7.71978 13.4262 7.90248 13.2762 8.03102 13.0839C8.15956 12.8915 8.22817 12.6653 8.22817 12.434C8.22782 12.1238 8.10446 11.8265 7.88515 11.6072C7.66585 11.3879 7.36851 11.2645 7.05836 11.2642ZM7.05836 13.0189C6.94268 13.0189 6.82959 12.9846 6.73341 12.9203C6.63722 12.856 6.56225 12.7647 6.51798 12.6578C6.47371 12.5509 6.46213 12.4333 6.48469 12.3199C6.50726 12.2064 6.56297 12.1022 6.64477 12.0204C6.72657 11.9386 6.83079 11.8829 6.94425 11.8603C7.05771 11.8377 7.17532 11.8493 7.2822 11.8936C7.38907 11.9378 7.48042 12.0128 7.54469 12.109C7.60896 12.2052 7.64327 12.3183 7.64327 12.434C7.64311 12.589 7.58144 12.7377 7.47178 12.8474C7.36212 12.957 7.21344 13.0187 7.05836 13.0189ZM89.5301 6.58491C89.2987 6.58491 89.0725 6.65351 88.8802 6.78206C88.6878 6.9106 88.5378 7.09329 88.4493 7.30705C88.3608 7.52081 88.3376 7.75602 88.3827 7.98294C88.4279 8.20986 88.5393 8.4183 88.7029 8.5819C88.8665 8.7455 89.0749 8.85691 89.3018 8.90205C89.5288 8.94719 89.764 8.92402 89.9777 8.83548C90.1915 8.74694 90.3742 8.597 90.5027 8.40463C90.6313 8.21226 90.6999 7.98608 90.6999 7.75472C90.6995 7.44457 90.5762 7.14723 90.3569 6.92793C90.1376 6.70862 89.8402 6.58526 89.5301 6.58491ZM89.5301 8.33962C89.4144 8.33962 89.3013 8.30532 89.2051 8.24105C89.1089 8.17678 89.034 8.08543 88.9897 7.97855C88.9454 7.87167 88.9338 7.75407 88.9564 7.64061C88.979 7.52715 89.0347 7.42293 89.1165 7.34113C89.1983 7.25933 89.3025 7.20362 89.416 7.18105C89.5294 7.15848 89.647 7.17006 89.7539 7.21434C89.8608 7.25861 89.9521 7.33357 90.0164 7.42976C90.0807 7.52595 90.115 7.63903 90.115 7.75472C90.1148 7.9098 90.0531 8.05848 89.9435 8.16814C89.8338 8.27779 89.6851 8.33947 89.5301 8.33962ZM21.0961 18.8679C21.0961 18.6366 21.0275 18.4104 20.8989 18.218C20.7704 18.0256 20.5877 17.8757 20.374 17.7872C20.1602 17.6986 19.925 17.6755 19.6981 17.7206C19.4711 17.7657 19.2627 17.8771 19.0991 18.0407C18.9355 18.2043 18.8241 18.4128 18.779 18.6397C18.7338 18.8666 18.757 19.1018 18.8455 19.3156C18.9341 19.5293 19.084 19.712 19.2764 19.8406C19.4687 19.9691 19.6949 20.0377 19.9263 20.0377C20.2364 20.0374 20.5338 19.914 20.7531 19.6947C20.9724 19.4754 21.0957 19.1781 21.0961 18.8679ZM19.3414 18.8679C19.3414 18.7522 19.3757 18.6392 19.44 18.543C19.5042 18.4468 19.5956 18.3718 19.7025 18.3275C19.8093 18.2833 19.9269 18.2717 20.0404 18.2943C20.1539 18.3168 20.2581 18.3725 20.3399 18.4543C20.4217 18.5361 20.4774 18.6404 20.5 18.7538C20.5225 18.8673 20.5109 18.9849 20.4667 19.0918C20.4224 19.1986 20.3474 19.29 20.2512 19.3543C20.1551 19.4185 20.042 19.4528 19.9263 19.4528C19.7712 19.4527 19.6225 19.391 19.5129 19.2813C19.4032 19.1717 19.3415 19.023 19.3414 18.8679Z" fill="#182F43"/>
<path d="M6.53344 48.9629L5.03221 48.7664L4.74976 48.7294V49.0142V49.9858V50.2704L5.03201 50.2337L6.54332 50.0371L5.54853 51.3328L5.38294 51.5485L5.61175 51.6954L6.41373 52.2104L6.65677 52.3664L6.77637 52.1035L7.47116 50.5762L8.10791 52.0827L8.21825 52.3438L8.4635 52.2017L9.35098 51.6877L9.6006 51.5431L9.422 51.3165L8.42054 50.0463L9.9697 50.2339L10.2498 50.2679V49.9858V49.0142V48.7285L9.96655 48.7665L8.40777 48.9753L9.4122 47.6357L9.58164 47.4097L9.33675 47.269L8.49157 46.7832L8.24818 46.6434L8.13731 46.9013L7.49104 48.4047L6.83528 46.9131L6.7226 46.6568L6.48065 46.7976L5.62106 47.298L5.37678 47.4402L5.54775 47.6653L6.53344 48.9629Z" fill="#FFC100" stroke="#182F43" stroke-width="0.5"/>
<path d="M35.5772 25.4228L34.8508 24.501L35.9696 24.637L36.2498 24.6711V24.3888V23.6112V23.3253L35.9665 23.3634L34.8377 23.515L35.5696 22.5381L35.7389 22.3122L35.4942 22.1715L34.819 21.7833L34.5756 21.6433L34.4647 21.9013L33.9929 22.9986L33.514 21.9095L33.4013 21.6531L33.1593 21.7942L32.4715 22.1951L32.2275 22.3373L32.3984 22.5623L33.1145 23.505L32.0322 23.3633L31.7498 23.3263V23.6112V24.3888V24.6735L32.032 24.6367L33.1221 24.495L32.3991 25.4367L32.2333 25.6528L32.4627 25.7996L33.1054 26.2106L33.3483 26.366L33.4677 26.1035L33.9756 24.9868L34.4403 26.0859L34.5507 26.3468L34.7958 26.205L35.506 25.7939L35.7557 25.6494L35.5772 25.4228Z" fill="#FFC100" stroke="#182F43" stroke-width="0.5"/>
<path d="M100.612 29.4766L100.892 29.5099V29.2283V28.6183V28.333L100.609 28.3704L99.8336 28.4732L100.338 27.8092L100.511 27.5814L100.263 27.4404L99.7239 27.135L99.4823 26.9981L99.3714 27.2527L99.0416 28.0097L98.7071 27.2595L98.5944 27.0067L98.3543 27.1445L97.8062 27.4592L97.5579 27.6018L97.7327 27.8286L98.2238 28.4657L97.4867 28.3703L97.2046 28.3338V28.6183V29.2283V29.5124L97.4864 29.4763L98.2291 29.3812L97.7335 30.0176L97.564 30.2352L97.7971 30.3825L98.3089 30.706L98.5501 30.8584L98.6695 30.5993L99.027 29.8238L99.3527 30.5838L99.4631 30.8413L99.7064 30.7024L100.272 30.3795L100.526 30.2346L100.343 30.0063L99.8468 29.3854L100.612 29.4766Z" fill="#FFC100" stroke="#182F43" stroke-width="0.5"/>
<path d="M71.5325 16.9628L70.0322 16.7666L69.7498 16.7296V17.0145V17.9855V18.2703L70.0321 18.2334L71.5435 18.0363L70.5474 19.333L70.3815 19.549L70.6108 19.6958L71.4142 20.2105L71.6571 20.3662L71.7766 20.1035L72.4712 18.5761L73.1085 20.0823L73.2189 20.3431L73.464 20.2013L74.3514 19.6877L74.6012 19.5431L74.4225 19.3165L73.4201 18.0458L74.9697 18.2337L75.2498 18.2677V17.9855V17.0145V16.7287L74.9666 16.7667L73.4079 16.9755L74.4124 15.6355L74.5819 15.4094L74.3368 15.2687L73.4909 14.7832L73.2475 14.6435L73.1367 14.9013L72.4909 16.4051L71.8354 14.9134L71.7227 14.6572L71.4808 14.7979L70.62 15.2986L70.3754 15.4408L70.5466 15.666L71.5325 16.9628Z" fill="#FFC100" stroke="#182F43" stroke-width="0.5"/>
</svg>
