<svg width="54" height="54" viewBox="0 0 54 54" fill="none" xmlns="http://www.w3.org/2000/svg">
<path d="M27 53C20.1043 53 13.4911 50.2607 8.6152 45.3847C3.73926 40.5088 1 33.8956 1 27C1 20.1044 3.73926 13.4912 8.6152 8.61526C13.4911 3.73932 20.1043 1.00002 27 1.00002C30.4167 0.996238 33.8008 1.66596 36.9585 2.97089C40.1163 4.27582 42.9859 6.19039 45.4033 8.60509C47.8207 11.0198 49.7384 13.8873 51.0468 17.0436C52.3552 20.2 53.0287 23.5832 53.0287 27C53.0287 30.4168 52.3552 33.8 51.0468 36.9564C49.7384 40.1127 47.8207 42.9802 45.4033 45.3949C42.9859 47.8096 40.1163 49.7242 36.9585 51.0291C33.8008 52.334 30.4167 53.0038 27 53Z" fill="#182F43" stroke="#182F43" stroke-linecap="round" stroke-linejoin="round"/>
<path d="M26.9978 15.3159C30.8065 15.3159 31.3096 15.3159 32.7468 15.4021C33.6505 15.4056 34.5462 15.5711 35.3914 15.8908C36.0059 16.1268 36.5639 16.4893 37.0294 16.9548C37.4949 17.4202 37.8574 17.9783 38.0934 18.5928C38.4131 19.438 38.5786 20.3337 38.5821 21.2374C38.5821 22.6746 38.6683 23.192 38.6683 26.9864C38.6683 30.7807 38.6683 31.2981 38.5821 32.7354C38.5767 33.6389 38.4113 34.5342 38.0934 35.38C37.8574 35.9945 37.4949 36.5525 37.0294 37.018C36.5639 37.4834 36.0059 37.846 35.3914 38.082C34.5462 38.4016 33.6505 38.5671 32.7468 38.5707C31.2377 38.6425 30.7922 38.6569 26.9978 38.6569C23.2035 38.6569 22.686 38.6569 21.2488 38.5707C20.3453 38.5653 19.45 38.3999 18.6042 38.082C17.9857 37.8539 17.4259 37.4906 16.9658 37.0184C16.4984 36.5545 16.1357 35.9958 15.9022 35.38C15.5843 34.5342 15.4189 33.6389 15.4135 32.7354C15.4135 31.2263 15.3273 30.7807 15.3273 26.9864C15.3273 23.192 15.3273 22.6746 15.4135 21.2374C15.4171 20.3337 15.5826 19.438 15.9022 18.5928C16.1357 17.977 16.4984 17.4183 16.9658 16.9543C17.4259 16.4822 17.9857 16.1189 18.6042 15.8908C19.45 15.5729 20.3453 15.4075 21.2488 15.4021C22.7579 15.3302 23.2035 15.3159 26.9978 15.3159ZM26.9978 12.7432C23.1316 12.7432 22.6861 12.7432 21.1194 12.8294C19.9411 12.8582 18.7755 13.0815 17.67 13.4905C16.7176 13.8528 15.8547 14.4166 15.1404 15.1434C14.4167 15.8517 13.8573 16.7103 13.502 17.6586C13.0793 18.7658 12.8508 19.9375 12.8265 21.1223C12.8265 22.6458 12.7402 23.1345 12.7402 27.0008C12.7402 30.867 12.7402 31.3125 12.8265 32.8791C12.8539 34.0637 13.0823 35.2349 13.502 36.3429C13.8573 37.2912 14.4167 38.1499 15.1404 38.8581C15.8547 39.5849 16.7176 40.1487 17.67 40.511C18.7755 40.92 19.9411 41.1433 21.1194 41.1721C22.6429 41.244 23.1316 41.2583 26.9978 41.2583C30.864 41.2583 31.3096 41.2583 32.8762 41.1721C34.0594 41.1447 35.2299 40.9213 36.34 40.511C37.2856 40.1437 38.1428 39.5804 38.8552 38.8581C39.5831 38.1504 40.1472 37.2919 40.508 36.3429C40.9153 35.232 41.1386 34.062 41.1692 32.8791C41.241 31.3556 41.2554 30.867 41.2554 27.0008C41.2554 23.1345 41.2554 22.689 41.1692 21.1223C41.1417 19.9391 40.9183 18.7687 40.508 17.6586C40.1472 16.7096 39.5831 15.8511 38.8552 15.1434C38.1428 14.4211 37.2856 13.8578 36.34 13.4905C35.2299 13.0802 34.0594 12.8568 32.8762 12.8294C31.3527 12.7575 30.8784 12.7432 26.9978 12.7432Z" fill="#FFB700"/>
<path d="M26.9973 19.6846C25.5504 19.6846 24.136 20.1136 22.9329 20.9175C21.7299 21.7213 20.7922 22.8639 20.2385 24.2006C19.6848 25.5374 19.5399 27.0084 19.8222 28.4275C20.1045 29.8466 20.8012 31.15 21.8244 32.1731C22.8475 33.1963 24.151 33.893 25.5701 34.1753C26.9892 34.4576 28.4601 34.3127 29.7969 33.759C31.1336 33.2053 32.2762 32.2676 33.08 31.0646C33.8839 29.8615 34.3129 28.4471 34.3129 27.0002C34.3129 25.06 33.5422 23.1992 32.1702 21.8273C30.7983 20.4553 28.9375 19.6846 26.9973 19.6846ZM26.9973 31.7432C26.0558 31.7432 25.1354 31.4638 24.3528 30.9404C23.5701 30.417 22.9604 29.6732 22.6007 28.803C22.2411 27.9329 22.1477 26.9757 22.3325 26.0524C22.5172 25.1292 22.9717 24.2816 23.6385 23.6168C24.3052 22.9521 25.1542 22.5001 26.078 22.3182C27.0018 22.1363 27.9588 22.2325 28.8278 22.5948C29.6968 22.9571 30.4388 23.5691 30.9598 24.3533C31.4809 25.1375 31.7574 26.0587 31.7546 27.0002C31.7546 27.6243 31.6314 28.2422 31.3922 28.8186C31.1529 29.395 30.8023 29.9185 30.3603 30.3591C29.9184 30.7997 29.3938 31.1488 28.8167 31.3863C28.2396 31.6238 27.6213 31.7451 26.9973 31.7432Z" fill="#FFB700"/>
<path d="M36.3269 19.3978C36.3269 19.8514 36.1467 20.2865 35.826 20.6072C35.5052 20.928 35.0702 21.1082 34.6166 21.1082C34.163 21.1082 33.7279 20.928 33.4072 20.6072C33.0864 20.2865 32.9062 19.8514 32.9062 19.3978C32.9062 18.9442 33.0864 18.5092 33.4072 18.1884C33.7279 17.8677 34.163 17.6875 34.6166 17.6875C35.0702 17.6875 35.5052 17.8677 35.826 18.1884C36.1467 18.5092 36.3269 18.9442 36.3269 19.3978Z" fill="#FFB700"/>
</svg>
