<svg width="55" height="55" viewBox="0 0 55 55" fill="none" xmlns="http://www.w3.org/2000/svg">
<path fill-rule="evenodd" clip-rule="evenodd" d="M30.9713 0.00263102C30.9713 0.0263088 31.0689 0.468936 31.188 0.986165C31.3899 1.86213 31.4046 1.98879 31.4021 2.83298C31.3998 3.57259 31.3767 3.81929 31.2764 4.17406C30.8675 5.6214 30.0928 6.69336 28.4698 8.05761C26.0992 10.0504 22.87 12.9484 22.4103 13.4955C22.2627 13.6713 22.0779 13.9376 21.9997 14.0872C21.2576 15.5074 21.8815 17.5695 23.7041 19.7204C24.1263 20.2187 27.1463 23.1385 27.2887 23.1861C27.386 23.2186 28.0591 22.6679 28.0341 22.5762C28.021 22.5282 27.4512 21.6733 26.768 20.6765C26.0848 19.6796 25.4237 18.6671 25.299 18.4266C24.6624 17.1988 24.6069 16.0292 25.1332 14.9328C25.5326 14.1007 26.2559 13.3162 27.8463 11.9903C29.2916 10.7851 30.0459 10.1034 30.5921 9.50852C31.8828 8.1027 32.5701 6.93546 32.972 5.46699C33.1278 4.89747 33.1509 4.71581 33.1559 4.02253C33.1602 3.42917 33.1357 3.13677 33.0589 2.8613C32.9237 2.37658 32.6099 1.76204 32.301 1.37674C32.0082 1.01154 30.9713 -0.0599622 30.9713 0.00263102ZM36.9586 8.84039L35.9924 8.95229C35.8972 8.96332 35.804 8.988 35.7157 9.02556L34.3009 9.62793C32.2226 10.5127 30.7655 11.212 30.1 11.644C29.1375 12.2688 28.1126 13.3835 27.6155 14.3462C26.9149 15.7029 27.0456 17.3206 27.9814 18.8737C28.1095 19.0862 28.5056 19.6552 28.8618 20.1382C29.6054 21.1464 29.7713 21.4927 29.725 21.94C29.692 22.2593 29.47 22.7697 29.1229 23.3237C28.9163 23.6536 28.9126 23.6697 28.9507 24.0774L28.9716 24.3005C28.9817 24.4092 28.9055 24.5069 28.7976 24.5234C28.5298 24.5645 24.3943 24.8389 23.4361 24.879C22.2634 24.9282 20.5809 24.7558 20.3856 24.5665C20.2929 24.4766 21.0624 24.0196 21.8936 23.6707C22.2845 23.5067 22.6734 23.3557 22.758 23.3351C22.9648 23.2848 22.9768 23.2542 22.9325 22.8893C22.8944 22.5748 22.8938 22.5739 22.6931 22.5739C22.2966 22.5739 20.2969 23.1316 19.1385 23.5653C17.8834 24.0352 17.2234 24.442 17.0045 24.8806C16.7533 25.3838 16.9563 25.7492 17.6721 26.0824C18.2317 26.3429 19.1481 26.5506 20.3915 26.6988L20.7783 26.7449C20.9216 26.762 20.9596 26.9522 20.834 27.0231C20.317 27.3146 19.753 27.8631 19.5424 28.2789C19.2177 28.9201 19.3614 29.6189 19.8996 30.0171C20.3965 30.3846 21.3144 30.6797 22.5689 30.8752C23.3783 31.0014 26.2574 31.0513 27.5437 30.9616C29.6531 30.8142 32.338 30.4397 34.5294 29.9873L34.9174 29.9071C35.0346 29.8829 35.1186 29.7797 35.1186 29.6601C35.1186 29.547 35.0726 29.3715 35.0164 29.2699C34.8474 28.9648 34.6216 27.7106 33.8668 27.7853C33.8323 27.7853 33.4887 27.8472 33.1033 27.9228C30.6476 28.4048 27.8833 28.673 24.8088 28.7278C22.747 28.7644 22.1524 28.7246 21.7444 28.5228C21.2633 28.2848 21.2181 27.982 21.5607 27.2949C21.8314 26.7521 21.7953 26.7657 22.9615 26.7656C24.9849 26.7654 28.3269 26.3954 31.416 25.8295C33.2384 25.4957 35.9501 24.885 36.0729 24.7808C36.1243 24.7371 36.0692 24.163 36.0038 24.0613C35.9776 24.0206 35.0541 24.0709 33.0742 24.2206C31.4839 24.341 30.0923 24.4403 29.9818 24.4413C29.7843 24.4431 29.7981 24.4263 30.8025 23.4377C31.9196 22.3383 32.1712 22.0353 32.434 21.4732C32.9144 20.4458 32.7731 19.4574 31.9894 18.3627C31.3072 17.4098 30.716 16.4879 30.5668 16.1446C30.4511 15.8782 30.4189 15.7068 30.4178 15.3516C30.4165 14.9444 30.4361 14.8633 30.6102 14.5519C30.8705 14.0868 31.5871 13.3 32.2603 12.7403C33.0515 12.0825 33.8156 11.5448 35.3207 10.5865C37.2772 9.34091 38.2495 8.69476 38.1536 8.70382C38.1068 8.70824 37.569 8.7697 36.9586 8.84039ZM38.5358 22.2667C37.6888 22.3814 37.2619 22.6705 37.1351 22.7475C36.7892 22.9575 36.1669 23.3861 36.2102 23.423C36.2576 23.4633 36.6246 23.5169 37.9516 23.6772C38.7122 23.7691 39.3818 23.9295 39.7358 24.1046C40.1605 24.3147 40.4345 24.8227 40.4338 25.3992C40.4334 25.8334 40.3544 26.0758 40.087 26.4641C39.6252 27.1344 38.0488 28.5591 37.1618 29.1077C36.9215 29.2562 36.2913 29.646 35.7612 29.9738C35.2311 30.3016 34.7637 30.6014 34.7226 30.6399C34.6395 30.7178 34.8267 30.7144 36.0587 30.6159C37.6726 30.4868 39.409 29.8046 40.9046 28.7122C41.8784 28.0008 42.5017 27.2591 42.8144 26.4395C42.9915 25.9755 43.0539 25.1459 42.9487 24.6547C42.7903 23.9146 42.1853 23.0936 41.5195 22.7152C40.9429 22.3875 40.4929 22.2833 39.5649 22.2622C39.0952 22.2516 38.6321 22.2536 38.5358 22.2667ZM20.5245 32.2237L19.7953 32.8344C19.6776 32.9329 19.6772 33.1137 19.7945 33.2127C22.0037 35.0789 26.577 35.6459 31.4678 34.6597C32.67 34.4173 35.6268 33.6405 35.5672 33.5827C35.5559 33.5718 34.359 33.284 32.9073 32.9432L30.4735 32.3719C30.3379 32.34 30.1972 32.3369 30.0603 32.3626L29.6882 32.4325C27.6346 32.8186 25.3141 32.8273 23.8289 32.4546C23.0134 32.25 22.2393 31.9317 21.7293 31.5914C21.581 31.4924 21.3852 31.5031 21.2484 31.6176L20.5245 32.2237ZM17.0107 34.2787C16.9304 34.29 16.6281 34.3275 16.339 34.3621C15.6484 34.4447 14.5216 34.7194 13.9733 34.9386C12.45 35.5479 11.8218 36.3408 12.0432 37.3749C12.2541 38.3603 13.5871 38.9043 16.4507 39.1735L16.7868 39.205C16.9834 39.2235 17.1701 39.2998 17.3234 39.4242L17.619 39.6641C18.2619 40.1858 18.6379 40.4246 19.2567 40.7044C20.2539 41.1553 21.7824 41.5433 23.2901 41.7283C24.0406 41.8204 26.7643 41.8215 27.6126 41.73C30.3192 41.4382 32.7463 40.9154 36.6081 39.7924C38.9253 39.1186 42.4541 37.9108 42.644 37.7266C42.6633 37.7079 42.4256 36.9609 42.4008 36.9625C42.3954 36.9628 42.2596 37.0022 42.0989 37.0499C40.0241 37.6669 36.2154 38.844 33.5415 39.2911C28.0148 40.2153 22.7222 40.0844 19.172 39.4815C18.2702 39.3284 18.2543 39.2819 19.1136 39.3109C21.3413 39.3863 26.4453 39.1467 31.205 38.7433C35.151 38.4088 36.1198 38.2914 37.2923 38.0056C39.1341 37.5566 40.5184 36.729 40.8085 35.9035C41.0039 35.3473 40.9006 35.0736 40.3092 34.5796L40.2143 34.5003C40.0776 34.3861 39.8692 34.4786 39.8622 34.6567L39.8587 34.7452C39.8503 34.9612 39.7298 35.1571 39.5409 35.2621C38.7602 35.6963 36.576 36.2452 34.0357 36.6455C29.7851 37.3154 27.712 37.3727 20.6031 37.0164C19.3502 36.9536 18.0885 36.8678 17.7993 36.8257C17.2034 36.7389 16.8355 36.6101 16.8355 36.4883C16.8355 36.3526 17.546 35.7628 18.0392 35.4891C18.2918 35.3489 18.9062 35.0761 19.4047 34.883C19.9032 34.6898 20.2918 34.5305 20.2683 34.529C20.2448 34.5274 19.8251 34.4624 19.3357 34.3845C18.5153 34.2539 17.5133 34.2084 17.0107 34.2787ZM16.0437 41.3515C15.6272 41.3515 15.3536 41.6261 15.3643 42.0425C15.3864 42.9064 15.4254 44.5101 15.4198 46.4537L15.4049 51.5819C15.4046 51.6932 15.3857 51.8037 15.3489 51.9088L15.2429 52.2123C14.9939 52.9247 14.5352 53.4657 13.8687 53.8328C13.7474 53.8996 13.7178 54.061 13.8076 54.1665L14.0753 54.4811L14.2599 54.698C14.4111 54.8757 14.6635 54.9283 14.873 54.8258C15.8038 54.3703 16.6021 53.6795 16.9124 53.0609C17.0029 52.8806 17.1343 52.5246 17.2045 52.2699C17.3313 51.8091 17.332 51.7781 17.332 46.4254L17.0773 42.1878C17.0491 41.718 16.6598 41.3515 16.1892 41.3515H16.0437ZM36.9878 43.7725C36.412 43.861 35.8157 43.9987 35.2647 44.1704C34.9113 44.2806 34.6149 44.3769 34.6062 44.3845C34.5804 44.4066 34.8094 45.323 34.8506 45.363C34.8713 45.383 35.3146 45.3301 35.8358 45.2454C36.8466 45.081 37.7717 45.0464 38.1839 45.1573C38.4817 45.2376 38.826 45.5714 38.9087 45.8602C38.9442 45.9841 38.9733 46.2686 38.9735 46.4924C38.9738 46.8312 38.9568 46.904 38.8716 46.9281C38.8154 46.944 38.3226 47.0484 37.7764 47.1601C35.414 47.6434 34.8709 47.9006 34.4488 48.7367C33.8302 49.9619 34.2416 51.466 35.3377 51.986C35.5884 52.105 35.7723 52.1451 36.1579 52.1647C36.7678 52.1957 37.2295 52.119 38.3567 51.7992C38.8365 51.6631 39.2353 51.5518 39.2429 51.5518C39.2506 51.5518 39.2875 51.6419 39.325 51.752C39.4351 52.0756 39.5903 52.1378 40.1558 52.0855C40.4214 52.0609 40.6727 52.0468 40.7143 52.0543C40.7756 52.0652 40.7864 51.4398 40.7713 48.7367C40.7497 44.8709 40.779 45.0802 40.1759 44.4944C39.7773 44.1074 39.4221 43.946 38.6818 43.8158C38.2763 43.7444 37.3286 43.7203 36.9878 43.7725ZM21.9174 43.829C20.9616 43.8938 19.6522 44.1101 19.2642 44.2673C18.9811 44.382 18.9464 44.5587 19.1103 45.0519C19.2256 45.3992 19.2557 45.4422 19.3671 45.4183C20.6723 45.1383 21.0599 45.0811 21.6545 45.0807C22.3508 45.0802 22.7063 45.1656 22.9582 45.3935C23.2682 45.6738 23.4185 46.2026 23.3467 46.7599C23.3241 46.9351 23.1803 47.0695 23.0041 47.0803L22.8024 47.0926C22.0121 47.1408 20.3698 47.5481 19.7269 47.8551C18.6105 48.3885 18.1662 49.8232 18.74 51.042C19.1395 51.8906 20.2324 52.3495 21.4712 52.1887C22.0557 52.1129 22.46 51.97 23.0287 51.6384C23.2688 51.4983 23.495 51.3833 23.5312 51.3828C23.5675 51.3823 23.6564 51.5356 23.7289 51.7235C23.8079 51.9284 24.0073 52.0615 24.2268 52.0558L24.4803 52.0492L24.926 52.0377C25.0282 52.0351 25.1154 51.9631 25.1373 51.8633C25.1964 51.5945 25.1915 47.5483 25.1307 46.4537C25.0975 45.8566 25.038 45.3406 24.9811 45.1563C24.7234 44.3217 24.1789 43.9553 23.0358 43.8474C22.7259 43.8182 22.4066 43.7981 22.3263 43.8027C22.246 43.8073 22.062 43.8192 21.9174 43.829ZM26.2032 43.948C26.1572 43.977 26.2771 44.4268 26.5994 45.4341C27.2182 47.3681 27.9297 49.6555 28.1966 50.5695C28.4705 51.5071 28.657 51.8371 29.0055 52.0007C29.244 52.1127 29.3203 52.1191 29.9828 52.0828C30.6806 52.0445 30.7071 52.0383 30.8953 51.8684C31.0465 51.7319 31.1672 51.4939 31.4441 50.7871C32.0656 49.2 32.2589 48.6556 32.5199 47.7565C32.7968 46.8025 33.5415 44.0295 33.5415 43.9523C33.5415 43.9261 33.1353 43.9046 32.6388 43.9046H31.9357C31.8176 43.9046 31.7139 43.983 31.6816 44.0965C31.6515 44.202 31.3027 45.5668 30.9064 47.1293C30.2572 49.689 30.1749 49.9686 30.0749 49.9538C29.9543 49.936 29.921 49.839 28.8324 46.3404C28.5271 45.359 28.2139 44.4507 28.1364 44.3221C27.9361 43.9894 27.6831 43.9044 26.8959 43.9055C26.5511 43.906 26.2395 43.9251 26.2032 43.948ZM23.3552 48.5354C23.3796 48.7146 23.3997 49.0905 23.3998 49.3709C23.4003 50.1982 23.2092 50.4387 22.3163 50.7342C21.6731 50.947 21.3051 50.9667 20.9836 50.8053C20.8327 50.7296 20.6468 50.5695 20.5455 50.4281C20.3825 50.2007 20.3695 50.1459 20.3695 49.6876C20.3695 49.2575 20.3879 49.1666 20.5102 48.9935C20.799 48.5848 21.0412 48.4993 22.4139 48.3214C22.8316 48.2673 23.2042 48.22 23.2421 48.2163C23.2832 48.2123 23.3287 48.3406 23.3552 48.5354ZM39.0056 48.9886C38.9832 49.417 38.935 49.8676 38.8986 49.9899C38.768 50.4284 38.3074 50.7139 37.4742 50.8729C36.3852 51.0807 35.6085 50.1129 36.0786 49.1338C36.2475 48.7821 36.5273 48.583 36.9878 48.4869C37.3653 48.4081 38.6369 48.2263 38.8787 48.2165C38.9687 48.2128 39.0423 48.2873 39.0376 48.3772L39.0056 48.9886Z" fill="#182F43"/>
</svg>
