<svg width="60" height="60" viewBox="0 0 60 60" fill="none" xmlns="http://www.w3.org/2000/svg">
<path d="M1 26.1787C0.734792 26.1787 0.480453 26.2841 0.292923 26.4716C0.105392 26.6592 2.65169e-05 26.9135 0 27.1787V47.5459C2.65169e-05 47.8111 0.105392 48.0654 0.292923 48.253C0.480453 48.4405 0.734792 48.5459 1 48.5459H6.46875H11.9414C12.2066 48.5459 12.461 48.4405 12.6485 48.253C12.836 48.0654 12.9414 47.8111 12.9414 47.5459V46.0732L31.6211 52.4014C31.6469 52.4089 31.6729 52.4154 31.6992 52.4209C33.8743 52.9727 36.3833 52.6453 38.2813 51.3701L57.625 40.8584C57.6302 40.8584 57.6354 40.8584 57.6406 40.8584L58.1133 40.5889C59.7276 39.6757 60.4198 37.6878 59.6992 35.9834C59.0859 34.5328 57.8801 33.8671 56.9375 33.7295V33.7217C55.9949 33.5837 55.2227 33.8506 55.2227 33.8506C55.1894 33.8632 55.1568 33.8775 55.125 33.8936L44.4609 38.8389C44.4747 38.704 44.5039 38.575 44.5039 38.4365C44.5039 36.1897 42.6427 34.3623 40.3867 34.3623H31.5078C31.4695 34.2943 31.4257 34.1983 31.3906 34.1357C31.2319 33.8489 31.06 33.5725 30.875 33.3037C30.5047 32.7659 30.083 32.2642 29.6172 31.8076C27.7538 29.982 25.171 28.8584 22.332 28.8584H12.9414V27.1787C12.9414 26.9135 12.836 26.6592 12.6485 26.4716C12.461 26.2841 12.2066 26.1787 11.9414 26.1787H6.46875H1ZM2 28.1787H6.46875H10.9414V46.5459H6.46875H2V28.1787ZM12.9414 30.8584H22.332C24.6453 30.8584 26.7163 31.7691 28.2148 33.2373C28.5895 33.6045 28.9297 34.0055 29.2266 34.4365C29.3751 34.6523 29.5136 34.8749 29.6406 35.1045C29.7973 35.3879 29.9037 35.5604 29.9883 35.7568L30.2461 36.3623H31.125H40.3867C41.5846 36.3623 42.5039 37.2785 42.5039 38.4365C42.5039 39.305 41.9866 40.0319 41.2227 40.3428L41.2109 40.3467C40.9592 40.4475 40.6819 40.5068 40.3867 40.5068H26.4766V42.5068H40.3867C40.8047 42.5068 41.2005 42.4239 41.582 42.3076C41.7008 42.2996 41.8172 42.2705 41.9258 42.2217L55.8828 35.749C55.8998 35.749 56.2299 35.6401 56.6484 35.7021C57.0777 35.7641 57.4899 35.8822 57.8594 36.7568C58.1896 37.5378 57.8921 38.4112 57.1289 38.8428L56.6602 39.1045L37.2461 49.6592C37.218 49.6748 37.1906 49.6917 37.1641 49.71C35.8452 50.5962 33.7971 50.8886 32.1953 50.4834H32.1914L12.9414 43.9639V30.8584Z" fill="#182F43"/>
<path d="M36.3425 6.66699C34.3762 6.66699 32.408 7.41187 30.9089 8.90527C27.9106 11.8917 27.9106 16.7507 30.9089 19.7373C30.9178 19.7453 30.927 19.7531 30.9362 19.7607L41.9518 30.0186C42.1363 30.191 42.3791 30.2873 42.6315 30.2881H42.6432H42.6511C42.9035 30.2873 43.1463 30.191 43.3307 30.0186L54.3503 19.7607C57.4777 16.8491 57.3722 11.8919 54.3737 8.90527C54.2799 8.8113 54.1684 8.73694 54.0456 8.68652H54.0417C51.0272 5.98552 46.4109 6.01547 43.5104 8.90527L42.6393 9.77246L41.7721 8.90527C40.273 7.41187 38.3087 6.66699 36.3425 6.66699ZM36.3425 8.64746V8.65137C37.7931 8.65137 39.2432 9.20864 40.362 10.3232L41.9362 11.8897C42.1236 12.0759 42.3771 12.1805 42.6413 12.1805C42.9055 12.1805 43.159 12.0759 43.3464 11.8897L44.9206 10.3232C47.1583 8.09364 50.722 8.09404 52.9596 10.3232C52.9623 10.3233 52.9649 10.3233 52.9675 10.3232C55.2009 12.552 55.2684 16.1719 52.987 18.2959L42.6432 27.9248L32.3229 18.3193C30.0853 16.0903 30.0854 12.5479 32.3229 10.3193C33.4418 9.20474 34.8918 8.64746 36.3425 8.64746Z" fill="#AA4337"/>
</svg>
