<svg width="60" height="60" viewBox="0 0 60 60" fill="none" xmlns="http://www.w3.org/2000/svg">
<g clip-path="url(#clip0_45_930)">
<path d="M27.4625 43.1762L27.9338 42.7049L30 40.6568V40.6387" fill="#FFD9AA"/>
<path d="M32.5371 43.1764L32.0659 42.7051L30.9965 41.6357" fill="#FFD9AA"/>
<path d="M29.9816 40.6211L30 40.6395V40.6579" fill="#FFD9AA"/>
<path d="M2.61681 46.385L7.74437 41.2574L10.1187 38.8813C10.3447 37.8095 10.5646 36.7455 10.7785 35.6894L11.3422 32.8819C11.6358 31.4047 11.9312 29.9221 12.1832 28.4268C12.2979 27.6262 12.5808 26.859 13.0133 26.1756C13.2402 25.8682 13.5287 25.6116 13.8605 25.4221C14.1923 25.2327 14.56 25.1146 14.94 25.0754C15.2995 25.039 15.6626 25.0783 16.0059 25.1906C16.3493 25.303 16.6654 25.486 16.9338 25.7279C17.2921 26.1136 17.5668 26.5692 17.7409 27.066C17.9149 27.5628 17.9844 28.0903 17.9451 28.6153C17.9941 29.3801 18.0357 30.1486 18.0811 30.9171L19.4404 29.5578C19.3044 29.4616 19.1782 29.3523 19.0634 29.2315C18.8375 28.938 18.6743 28.6012 18.5839 28.2421C18.4934 27.8829 18.4778 27.509 18.5378 27.1435C18.7072 26.3524 19.0515 25.6092 19.5456 24.9685C20.4862 23.649 21.3816 22.2969 22.277 20.9466L25.4688 16.1326V5.53125C25.4688 4.32949 25.9462 3.17695 26.796 2.32717C27.6458 1.4774 28.7983 1 30.0001 1L37.2501 1C38.4518 1 39.6044 1.4774 40.4541 2.32717C41.3039 3.17695 41.7813 4.32949 41.7813 5.53125V30.4948L42.2072 30.9208L42.3432 28.5029C42.3158 27.9991 42.391 27.495 42.5642 27.0211C42.7374 26.5472 43.0051 26.1134 43.3509 25.7461C43.6218 25.4997 43.9418 25.3134 44.2898 25.1994C44.6377 25.0854 45.0059 25.0462 45.3701 25.0845C45.7491 25.1258 46.1153 25.2464 46.4447 25.4384C46.7742 25.6305 47.0595 25.8897 47.2822 26.1992C47.7204 26.8777 48.0016 27.6456 48.1051 28.4467C48.3752 30.0616 48.7014 31.6675 49.0277 33.2734L50.1732 38.8921L52.5294 41.2484L57.6733 46.385C58.5228 47.2347 59 48.3871 59 49.5886C59 50.7901 58.5228 51.9425 57.6733 52.7922L52.5457 57.9125C51.696 58.762 50.5437 59.2392 49.3422 59.2392C48.1406 59.2392 46.9883 58.762 46.1386 57.9125L41.0201 52.7994L32.0482 43.8276L32.0337 43.8058L30.5656 42.3377C30.3848 42.2566 30.2139 42.155 30.0562 42.035L28.2582 43.8203L21.8583 50.2384L19.2991 52.7759L19.2882 52.7922L14.1516 57.9125C13.3018 58.762 12.1495 59.2392 10.948 59.2392C9.74644 59.2392 8.59411 58.762 7.74437 57.9125L2.61681 52.7849C1.76733 51.9352 1.29012 50.7829 1.29012 49.5813C1.29012 48.3798 1.76733 47.2275 2.61681 46.3778V46.385ZM39.9688 5.53125C39.9688 4.81019 39.6824 4.11867 39.1725 3.6088C38.6626 3.09894 37.9711 2.8125 37.2501 2.8125H30.0001C29.279 2.8125 28.5875 3.09894 28.0776 3.6088C27.5678 4.11867 27.2813 4.81019 27.2813 5.53125V11.875H39.9688V5.53125ZM27.2813 13.6875V15.5H39.9688V13.6875H27.2813ZM47.42 56.6437C47.9379 57.138 48.6263 57.4138 49.3422 57.4138C50.0581 57.4138 50.7464 57.138 51.2643 56.6437L56.3919 51.5107C56.9016 51.0009 57.1879 50.3095 57.1879 49.5886C57.1879 48.8677 56.9016 48.1763 56.3919 47.6664L51.9059 43.1805L42.9341 52.1524L47.42 56.6437ZM41.6508 50.8782L50.6263 41.9009L49.3449 40.6194L40.373 49.5913L41.6508 50.8782ZM33.3242 42.5407L33.3387 42.5624L39.0879 48.3063L48.3552 39.0408L47.2532 33.6359C46.9234 32.0046 46.5935 30.3843 46.3216 28.7566C46.258 28.2278 46.0852 27.718 45.8141 27.2595C45.7408 27.1573 45.647 27.0715 45.5387 27.0075C45.4305 26.9436 45.3101 26.9028 45.1852 26.8879C45.0713 26.8762 44.9562 26.889 44.8477 26.9256C44.7392 26.9622 44.6398 27.0217 44.5562 27.1C44.2282 27.3882 44.1937 27.9845 44.1448 28.7313L43.9019 33.0504C43.8839 33.224 43.8162 33.3887 43.7069 33.5247C43.5976 33.6607 43.4513 33.7622 43.2857 33.8171C43.2159 33.8261 43.1452 33.8261 43.0754 33.8171C43.0309 33.8296 42.9854 33.8387 42.9395 33.8443C42.9087 33.8443 42.8797 33.8298 42.8489 33.8262C42.7961 33.8205 42.744 33.8102 42.693 33.7954C42.5447 33.7583 42.4085 33.6834 42.2979 33.5779L41.7777 33.0577V34.5312C41.7777 35.2523 41.4912 35.9438 40.9814 36.4537C40.4715 36.9636 39.78 37.25 39.0589 37.25C38.7495 37.247 38.4429 37.1906 38.1527 37.0833V38.1562C38.1545 38.6011 38.0467 39.0395 37.8389 39.4327C37.631 39.826 37.3295 40.162 36.961 40.411C36.5924 40.6601 36.1682 40.8145 35.7258 40.8607C35.2834 40.9068 34.8364 40.8433 34.4244 40.6756C34.3881 40.8205 34.3359 40.961 34.2685 41.0943C34.0293 41.6211 33.6236 42.0548 33.1139 42.3286L33.3242 42.5407ZM30.0001 30.0344C30.2432 30.0406 30.4742 30.1418 30.6436 30.3163C30.813 30.4908 30.9073 30.7247 30.9063 30.9679V39.9688C30.9091 40.0646 30.9268 40.1594 30.9589 40.2497L30.9752 40.295L30.9897 40.3349C30.9897 40.3584 31.0078 40.3802 31.0151 40.4019L31.0441 40.4545C31.1533 40.628 31.3212 40.7566 31.5171 40.817C31.735 40.8972 31.9756 40.8883 32.187 40.7923C32.3983 40.6963 32.5634 40.5209 32.6463 40.3041C32.6982 40.2021 32.7232 40.0885 32.7188 39.9742V29.0992C32.7193 28.9816 32.7432 28.8652 32.7892 28.757C32.8353 28.6488 32.9025 28.5508 32.9869 28.4689C33.0713 28.387 33.1713 28.3228 33.2809 28.2801C33.3905 28.2374 33.5075 28.217 33.6251 28.2201C33.8682 28.2263 34.0992 28.3275 34.2686 28.5019C34.438 28.6764 34.5323 28.9104 34.5313 29.1536V38.1562C34.5313 38.3966 34.6268 38.6271 34.7967 38.7971C34.9667 38.967 35.1972 39.0625 35.4376 39.0625C35.6779 39.0625 35.9084 38.967 36.0784 38.7971C36.2483 38.6271 36.3438 38.3966 36.3438 38.1562V27.2812C36.3438 27.0409 36.4393 26.8104 36.6092 26.6404C36.7792 26.4705 37.0097 26.375 37.2501 26.375C37.4904 26.375 37.7209 26.4705 37.8909 26.6404C38.0608 26.8104 38.1563 27.0409 38.1563 27.2812V34.5312C38.1563 34.7716 38.2518 35.0021 38.4217 35.1721C38.5917 35.342 38.8222 35.4375 39.0626 35.4375C39.3029 35.4375 39.5334 35.342 39.7034 35.1721C39.8733 35.0021 39.9688 34.7716 39.9688 34.5312V17.3125H26.8626L23.7814 21.9579C22.8751 23.3264 21.9689 24.6948 21.0209 26.0234C20.6907 26.4427 20.4523 26.9269 20.3213 27.4444C20.3011 27.5635 20.3056 27.6854 20.3346 27.8027C20.3636 27.9199 20.4165 28.03 20.4899 28.1259C20.5544 28.2113 20.6362 28.2822 20.7298 28.334C20.8235 28.3859 20.927 28.4174 21.0336 28.4268C21.0727 28.4301 21.1114 28.4362 21.1496 28.4449C21.5701 28.4449 22.0051 28.057 22.5398 27.5858L25.7661 24.7039C25.8965 24.587 26.058 24.5104 26.2311 24.4834C26.4041 24.4563 26.5813 24.4801 26.7412 24.5516C26.8507 24.6055 26.9478 24.6817 27.0262 24.7754C27.1045 24.869 27.1624 24.978 27.1961 25.0954C27.2061 25.1245 27.2145 25.1542 27.2215 25.1842C27.2477 25.2458 27.2665 25.3103 27.2777 25.3763V38.1562C27.2801 38.2717 27.3028 38.3858 27.3447 38.4934C27.3775 38.5355 27.4066 38.5804 27.4317 38.6275C27.4922 38.7305 27.573 38.8201 27.6692 38.8909C27.7655 38.9616 27.8751 39.012 27.9915 39.039C28.1078 39.066 28.2284 39.069 28.346 39.0477C28.4635 39.0265 28.5755 38.9816 28.6751 38.9157C28.8025 38.834 28.9074 38.7217 28.9802 38.589C29.053 38.4564 29.0914 38.3076 29.092 38.1562V30.9063C29.0924 30.7885 29.1164 30.672 29.1626 30.5636C29.2087 30.4553 29.2761 30.3572 29.3607 30.2753C29.4454 30.1934 29.5455 30.1292 29.6553 30.0866C29.7651 30.044 29.8823 30.0238 30.0001 30.0272V30.0344ZM26.9641 42.5407L28.7005 40.8152C28.5324 40.8549 28.3603 40.8749 28.1876 40.875C27.7209 40.8794 27.2614 40.7601 26.8559 40.5293C26.4503 40.2985 26.113 39.9644 25.8784 39.5609C25.7944 39.4559 25.7283 39.3377 25.6827 39.2111C25.5422 38.8772 25.4695 38.5186 25.4688 38.1562V27.4027L23.6563 29.0158C23.0369 29.6729 22.2148 30.1031 21.3218 30.2374L17.9832 33.5761C17.9723 33.5869 17.9578 33.5906 17.9469 33.6014C17.9361 33.6123 17.9469 33.6232 17.9306 33.6304C17.8889 33.6721 17.8273 33.6794 17.7784 33.712C17.738 33.7384 17.6956 33.7614 17.6515 33.7809C17.5466 33.8368 17.4313 33.8705 17.3128 33.8799C17.1943 33.8892 17.0751 33.874 16.9627 33.8353C16.7991 33.7724 16.6572 33.6634 16.5543 33.5215C16.4514 33.3797 16.3918 33.211 16.3827 33.0359C16.3102 31.6077 16.2196 30.1613 16.1272 28.6986C16.0982 28.057 16.0674 27.3918 15.7176 27.0819C15.636 27.0085 15.54 26.9529 15.4358 26.9186C15.3316 26.8843 15.2214 26.872 15.1122 26.8825C14.9871 26.8956 14.8661 26.9346 14.7568 26.997C14.6476 27.0594 14.5526 27.1439 14.4778 27.245C14.2069 27.7112 14.0302 28.226 13.9576 28.7603C13.7075 30.2501 13.4139 31.7491 13.1112 33.2444L12.5457 36.061C12.3439 37.0482 12.1385 38.0427 11.9294 39.0444L15.1919 42.3069L21.2094 48.3063L26.9641 42.5407ZM18.6375 50.8782L19.9244 49.5986L15.4276 45.1018L10.9507 40.6231L9.66743 41.9063L18.1101 50.3489L18.6375 50.8782ZM3.89825 51.5198L9.02581 56.6437C9.54369 57.138 10.2321 57.4138 10.948 57.4138C11.6639 57.4138 12.3522 57.138 12.8701 56.6437L17.3561 52.1578L16.97 51.7718L8.37693 43.1932L3.89825 47.6719C3.38856 48.1817 3.10223 48.8731 3.10223 49.594C3.10223 50.3149 3.38856 51.0063 3.89825 51.5162V51.5198Z" fill="#182F43"/>
<path fill-rule="evenodd" clip-rule="evenodd" d="M19.4404 29.5577C19.3044 29.4616 19.1782 29.3523 19.0634 29.2315C18.8375 28.938 18.6743 28.6012 18.5839 28.2421C18.4934 27.8829 18.4778 27.509 18.5378 27.1435C18.7072 26.3524 19.0515 25.6092 19.5456 24.9685C20.4119 23.7532 21.2399 22.5103 22.0648 21.2666L22.2297 21.0178L22.277 20.9466L25.4688 16.1326V5.53125C25.4688 4.32949 25.9462 3.17695 26.796 2.32717C27.6458 1.4774 28.7983 1 30.0001 1H37.2501C38.4518 1 39.6044 1.4774 40.4541 2.32717C41.3039 3.17695 41.7813 4.32949 41.7813 5.53125V30.4948L41.7777 33.0577V34.5312C41.7777 35.2523 41.4912 35.9438 40.9814 36.4537C40.4715 36.9636 39.78 37.25 39.0589 37.25C38.7495 37.247 38.4429 37.1906 38.1527 37.0833V38.1562C38.1545 38.6011 38.0467 39.0395 37.8389 39.4327C37.631 39.826 37.3295 40.162 36.961 40.411C36.5924 40.6601 36.1682 40.8145 35.7258 40.8607C35.2834 40.9068 34.8364 40.8433 34.4244 40.6756C34.3881 40.8205 34.3359 40.961 34.2685 41.0943C34.0293 41.6211 33.6236 42.0548 33.1139 42.3286C31.4429 42.3572 30.6813 42.1209 30.0001 40.6194C29.4777 40.8319 29.1893 40.8471 28.7005 40.8152C28.5324 40.8549 28.3603 40.8749 28.1876 40.875C27.7209 40.8794 27.2614 40.7601 26.8559 40.5293C26.4503 40.2984 26.113 39.9644 25.8784 39.5609C25.7944 39.4559 25.7283 39.3377 25.6827 39.2111C25.5422 38.8772 25.4695 38.5186 25.4688 38.1562V27.4027L23.6563 29.0158C23.0369 29.6729 22.2148 30.1031 21.3218 30.2374L21.295 30.2643C20.7381 30.2252 19.5902 30.0561 19.4404 29.5577ZM39.1725 3.6088C39.6824 4.11867 39.9688 4.81019 39.9688 5.53125V11.875H27.2813V5.53125C27.2813 4.81019 27.5678 4.11867 28.0776 3.6088C28.5875 3.09894 29.279 2.8125 30.0001 2.8125H37.2501C37.9711 2.8125 38.6626 3.09894 39.1725 3.6088ZM27.2813 15.5V13.6875H39.9688V15.5H27.2813ZM30.6436 30.3163C30.4742 30.1418 30.2432 30.0406 30.0001 30.0344V30.0272C29.8823 30.0238 29.7651 30.044 29.6553 30.0866C29.5455 30.1292 29.4454 30.1934 29.3607 30.2753C29.2761 30.3572 29.2087 30.4553 29.1626 30.5636C29.1164 30.672 29.0924 30.7885 29.092 30.9062V38.1562C29.0914 38.3076 29.053 38.4564 28.9802 38.589C28.9074 38.7217 28.8025 38.834 28.6751 38.9157C28.5755 38.9816 28.4635 39.0265 28.346 39.0477C28.2284 39.069 28.1078 39.066 27.9915 39.039C27.8751 39.012 27.7655 38.9616 27.6692 38.8909C27.573 38.8201 27.4922 38.7305 27.4317 38.6275C27.4066 38.5804 27.3775 38.5355 27.3447 38.4934C27.3028 38.3858 27.2801 38.2717 27.2777 38.1562V25.3763C27.2665 25.3103 27.2477 25.2458 27.2215 25.1842C27.2145 25.1542 27.2061 25.1245 27.1961 25.0954C27.1624 24.978 27.1045 24.869 27.0262 24.7754C26.9478 24.6817 26.8507 24.6055 26.7412 24.5516C26.5813 24.4801 26.4041 24.4563 26.2311 24.4834C26.058 24.5104 25.8965 24.587 25.7661 24.7039L22.5398 27.5858L22.5209 27.6025C21.9948 28.0661 21.5651 28.4449 21.1496 28.4449C21.1114 28.4362 21.0727 28.4301 21.0336 28.4268C20.927 28.4174 20.8235 28.3859 20.7298 28.334C20.6362 28.2822 20.5544 28.2113 20.4899 28.1259C20.4165 28.03 20.3636 27.9199 20.3346 27.8027C20.3056 27.6854 20.3011 27.5635 20.3213 27.4444C20.4523 26.9269 20.6907 26.4427 21.0209 26.0234C21.9689 24.6948 22.8751 23.3264 23.7814 21.9579L26.8626 17.3125H39.9688V34.5312C39.9688 34.7716 39.8733 35.0021 39.7034 35.1721C39.5334 35.342 39.3029 35.4375 39.0626 35.4375C38.8222 35.4375 38.5917 35.342 38.4217 35.1721C38.2518 35.0021 38.1563 34.7716 38.1563 34.5312V27.2812C38.1563 27.0409 38.0608 26.8104 37.8909 26.6404C37.7209 26.4705 37.4904 26.375 37.2501 26.375C37.0097 26.375 36.7792 26.4705 36.6092 26.6404C36.4393 26.8104 36.3438 27.0409 36.3438 27.2812V38.1562C36.3438 38.3966 36.2483 38.6271 36.0784 38.7971C35.9084 38.967 35.6779 39.0625 35.4376 39.0625C35.1972 39.0625 34.9667 38.967 34.7967 38.7971C34.6268 38.6271 34.5313 38.3966 34.5313 38.1562V29.1536C34.5323 28.9104 34.438 28.6764 34.2686 28.5019C34.0992 28.3275 33.8682 28.2263 33.6251 28.2201C33.5075 28.217 33.3905 28.2374 33.2809 28.2801C33.1713 28.3228 33.0713 28.387 32.9869 28.4689C32.9025 28.5508 32.8353 28.6487 32.7892 28.757C32.7432 28.8652 32.7193 28.9816 32.7188 29.0992V39.9742C32.7232 40.0885 32.6982 40.2021 32.6463 40.3041C32.5634 40.5209 32.3983 40.6963 32.187 40.7923C31.9756 40.8883 31.735 40.8972 31.5171 40.817C31.3212 40.7566 31.1533 40.628 31.0441 40.4545L31.0151 40.4019C31.0078 40.3802 30.9897 40.3584 30.9897 40.3349L30.9752 40.295L30.9589 40.2497C30.9268 40.1594 30.9091 40.0646 30.9063 39.9688V30.9679C30.9073 30.7247 30.813 30.4908 30.6436 30.3163Z" fill="#AA4337"/>
</g>
<defs>
<clipPath id="clip0_45_930">
<rect width="58" height="59" fill="white" transform="matrix(-1 0 0 1 59 1)"/>
</clipPath>
</defs>
</svg>
