<svg width="60" height="60" viewBox="0 0 60 60" fill="none" xmlns="http://www.w3.org/2000/svg">
<path d="M26.5305 3.76139C26.4139 3.73866 26.2696 3.73309 26.0691 3.76872V3.77604C25.6684 3.84729 25.5395 3.99409 25.3843 4.12028C25.2291 4.2459 25.0867 4.38495 24.9412 4.53776C24.6502 4.84357 24.3462 5.20879 24.0439 5.57047C23.7417 5.93216 23.443 6.28876 23.209 6.54826C23.1106 6.65701 23.0349 6.73212 22.9709 6.79362C22.8835 6.79362 22.7799 6.772 22.6377 6.757C22.2939 6.71012 21.8396 6.62963 21.3779 6.54826C20.9163 6.46763 20.4484 6.38508 20.0303 6.33952C19.8212 6.31702 19.626 6.30281 19.426 6.30656C19.226 6.30656 19.0295 6.28529 18.679 6.48966C18.3282 6.69423 18.258 6.87474 18.1553 7.0463C18.0525 7.2188 17.9691 7.39442 17.8843 7.5883C17.7146 7.97586 17.5476 8.42566 17.3862 8.87003C17.2248 9.31441 17.0679 9.75359 16.9358 10.0785C16.88 10.2154 16.8324 10.3167 16.793 10.3971C16.7086 10.4215 16.6045 10.4495 16.4634 10.4814C16.1243 10.5564 15.6724 10.6371 15.2109 10.7194C14.7494 10.8019 14.2791 10.888 13.8706 10.9904C13.6663 11.041 13.4785 11.0931 13.292 11.1662C13.1055 11.2393 12.913 11.2805 12.6548 11.591C12.3963 11.9019 12.3928 12.0976 12.3545 12.2941C12.3162 12.4904 12.2953 12.6834 12.2812 12.8947C12.2531 13.3173 12.2531 13.798 12.252 14.2716C12.2508 14.7451 12.2514 15.2132 12.2373 15.5644C12.2313 15.7144 12.2179 15.8228 12.208 15.9123C12.1368 15.9648 12.0508 16.0305 11.926 16.11C11.6323 16.2979 11.2294 16.5313 10.8237 16.7692C10.4181 17.0071 10.0084 17.2504 9.65918 17.487C9.48456 17.6051 9.32582 17.7208 9.17578 17.8532C9.02574 17.9863 8.86176 18.0899 8.72534 18.4684C8.58899 18.8468 8.64725 19.0323 8.67773 19.2301C8.70822 19.4278 8.75855 19.6165 8.81689 19.8197C8.93358 20.2266 9.09351 20.6785 9.25269 21.1235C9.41186 21.5682 9.56822 22.0084 9.67383 22.3429C9.71887 22.4854 9.74813 22.5927 9.76904 22.6798C9.71995 22.7548 9.65524 22.8505 9.56396 22.9692C9.3516 23.2472 9.05482 23.6017 8.75464 23.9652C8.45446 24.3288 8.1525 24.6993 7.90503 25.0419C7.78129 25.2125 7.67114 25.3753 7.57544 25.5509C7.47974 25.7272 7.35938 25.8819 7.35938 26.2834C7.35938 26.6848 7.47974 26.8401 7.57544 27.0158C7.67114 27.192 7.78129 27.3536 7.90503 27.5248C8.1525 27.8674 8.45446 28.2379 8.75464 28.6015C9.05482 28.9652 9.35161 29.3195 9.56396 29.5976C9.65524 29.7176 9.71995 29.8119 9.76904 29.8869C9.74812 29.975 9.71887 30.0811 9.67383 30.2238C9.56821 30.5583 9.41186 30.9983 9.25269 31.4433C9.09351 31.888 8.93358 32.3366 8.81689 32.7433C8.75855 32.9468 8.70821 33.139 8.67773 33.3366C8.64725 33.5344 8.58898 33.7199 8.72534 34.0983C8.86175 34.4769 9.02574 34.5812 9.17578 34.7135C9.32582 34.8467 9.48455 34.9614 9.65918 35.0798C10.0084 35.3164 10.4181 35.5596 10.8237 35.7975C11.2294 36.0356 11.6323 36.2654 11.926 36.453C12.0502 36.5318 12.1368 36.5974 12.208 36.6508C12.218 36.7408 12.2313 36.8518 12.2373 37.0024C12.2514 37.3537 12.2508 37.8215 12.252 38.2951C12.2531 38.7685 12.2531 39.2456 12.2812 39.6684C12.2953 39.8797 12.3162 40.0761 12.3545 40.2726C12.3928 40.4689 12.3965 40.6647 12.6548 40.9757C12.9131 41.2866 13.1055 41.3278 13.292 41.4006C13.4784 41.4737 13.6663 41.5294 13.8706 41.58C14.2791 41.6812 14.7495 41.7677 15.2109 41.851C15.6724 41.9335 16.1243 42.0142 16.4634 42.089C16.6045 42.1209 16.7086 42.1489 16.793 42.1733C16.8324 42.2539 16.88 42.3552 16.9358 42.4919C17.0207 42.7006 17.1251 42.9941 17.2251 43.2682L12.2739 51.7021C12.1725 51.8746 12.1247 52.0734 12.1368 52.2732C12.1488 52.473 12.2201 52.6647 12.3415 52.8238C12.4629 52.9829 12.6289 53.1023 12.8184 53.1666C13.0079 53.231 13.2123 53.2375 13.4055 53.1852L17.9355 51.9694L19.1514 56.5031C19.2037 56.6945 19.3115 56.8661 19.461 56.9966C19.6106 57.127 19.7953 57.2103 19.9921 57.2361C20.1888 57.2619 20.3888 57.2291 20.5669 57.1417C20.7451 57.0543 20.8934 56.9162 20.9934 56.7448L25.6663 48.6552C25.7647 48.711 25.8837 48.7613 26.0691 48.7944C26.4703 48.8656 26.6416 48.7721 26.8308 48.7065C27.02 48.6408 27.1988 48.5622 27.3875 48.4684C27.7648 48.2809 28.1786 48.0447 28.585 47.8092C28.9913 47.5736 29.3909 47.3385 29.6982 47.1757C29.827 47.1082 29.9216 47.0612 30.0022 47.0256C30.0828 47.0612 30.1782 47.1082 30.3062 47.1757C30.6139 47.3388 31.0126 47.5736 31.4194 47.8092C31.8263 48.0447 32.2393 48.2815 32.6169 48.4684C32.8058 48.5622 32.9844 48.6408 33.1736 48.7065C33.3628 48.7721 33.5341 48.8656 33.9353 48.7944C34.119 48.7617 34.2363 48.7104 34.3345 48.6552L39.0037 56.7448C39.1034 56.9165 39.2517 57.0549 39.4299 57.1425C39.6081 57.2301 39.8083 57.2631 40.0052 57.2373C40.2021 57.2114 40.3869 57.1279 40.5365 56.9973C40.686 56.8667 40.7936 56.6947 40.8457 56.5031L42.0615 51.9731L46.5879 53.1889C46.7809 53.2405 46.9849 53.2336 47.174 53.1689C47.363 53.1043 47.5286 52.9848 47.6495 52.8258C47.7705 52.6667 47.8414 52.4753 47.8532 52.2758C47.865 52.0764 47.8172 51.8779 47.7158 51.7057L42.7756 43.2829C42.8776 43.0031 42.9822 42.7044 43.0686 42.4919C43.1244 42.355 43.172 42.2535 43.2114 42.1733C43.2958 42.1489 43.3999 42.1209 43.541 42.089C43.8801 42.014 44.332 41.9352 44.7935 41.851C45.2549 41.7685 45.7253 41.6822 46.1338 41.58C46.338 41.5294 46.526 41.4737 46.7124 41.4006C46.8989 41.3274 47.0913 41.2861 47.3496 40.9757C47.6079 40.6647 47.6116 40.4689 47.6499 40.2726C47.6882 40.0761 47.7091 39.8797 47.7231 39.6684C47.7513 39.2456 47.7512 38.7685 47.7524 38.2951C47.7536 37.8215 47.753 37.3537 47.7671 37.0024C47.7731 36.8524 47.7864 36.7404 47.7964 36.6508C47.8676 36.5983 47.9543 36.5327 48.0784 36.453C48.3718 36.2654 48.7718 36.0356 49.177 35.7975C49.5822 35.5596 49.9926 35.3166 50.3416 35.0798C50.516 34.9616 50.675 34.8461 50.825 34.7135C50.9749 34.5804 51.1391 34.4765 51.2754 34.0983C51.4117 33.7199 51.3535 33.5344 51.323 33.3366C51.2925 33.139 51.2422 32.9468 51.1838 32.7433C51.0672 32.3366 50.9072 31.888 50.748 31.4433C50.5889 30.9983 50.4325 30.5583 50.3269 30.2238C50.2819 30.0813 50.2526 29.9743 50.2317 29.8869C50.2808 29.8119 50.3454 29.7163 50.4368 29.5976C50.6494 29.3195 50.9455 28.9652 51.2461 28.6015C51.5467 28.2379 51.8515 27.8674 52.0994 27.5248C52.2233 27.3542 52.3331 27.1915 52.429 27.0158C52.5248 26.8395 52.645 26.6852 52.645 26.2834C52.645 25.8816 52.5248 25.7266 52.429 25.5509C52.3331 25.3747 52.2233 25.2131 52.0994 25.0419C51.8515 24.6993 51.5467 24.3288 51.2461 23.9652C50.9455 23.6017 50.6494 23.2436 50.4368 22.9655C50.3455 22.8455 50.2808 22.7548 50.2317 22.6798C50.2526 22.5917 50.2819 22.4856 50.3269 22.3429C50.4325 22.0084 50.5889 21.5682 50.748 21.1235C50.9072 20.6785 51.0672 20.2266 51.1838 19.8197C51.2422 19.6165 51.2925 19.4278 51.323 19.2301C51.3535 19.0323 51.4118 18.8468 51.2754 18.4684C51.1391 18.0902 50.9749 17.9858 50.825 17.8532C50.675 17.7201 50.516 17.6053 50.3416 17.487C49.9926 17.2504 49.5822 17.0071 49.177 16.7692C48.7718 16.5311 48.3718 16.2979 48.0784 16.11C47.9537 16.0294 47.8676 15.9655 47.7964 15.9123C47.7864 15.8223 47.7731 15.7134 47.7671 15.5644C47.753 15.2132 47.7536 14.7451 47.7524 14.2716C47.7513 13.798 47.7513 13.3173 47.7231 12.8947C47.7091 12.6834 47.6882 12.4904 47.6499 12.2941C47.6116 12.0976 47.608 11.9019 47.3496 11.591C47.0914 11.2799 46.8989 11.2391 46.7124 11.1662C46.5259 11.0931 46.3381 11.041 46.1338 10.9904C45.7252 10.8891 45.2549 10.8026 44.7935 10.7194C44.332 10.6369 43.8801 10.5562 43.541 10.4814C43.3999 10.4495 43.2958 10.4215 43.2114 10.3971C43.172 10.3165 43.1244 10.2154 43.0686 10.0785C42.9365 9.75359 42.7795 9.31441 42.6182 8.87003C42.4568 8.42566 42.2898 7.97586 42.1201 7.5883C42.0353 7.39442 41.9519 7.21805 41.8491 7.0463C41.7467 6.87568 41.6732 6.69329 41.3254 6.48966C40.9749 6.28491 40.7784 6.31031 40.5784 6.30656C40.3783 6.30656 40.1832 6.32452 39.9741 6.33952C39.5559 6.38452 39.0881 6.46707 38.6265 6.54826C38.1648 6.62888 37.7105 6.71125 37.3667 6.757C37.2245 6.77575 37.1209 6.78612 37.0334 6.79362C36.9695 6.73174 36.8938 6.65663 36.7954 6.54826C36.5613 6.28876 36.2627 5.93216 35.9604 5.57047C35.6582 5.20879 35.3506 4.83991 35.0596 4.5341C34.9141 4.38035 34.7754 4.24647 34.6201 4.12028C34.4648 3.99465 34.3364 3.84363 33.9353 3.77238C33.534 3.70113 33.3628 3.79098 33.1736 3.85661C32.9843 3.92223 32.8058 4.00474 32.6169 4.09831C32.2393 4.28581 31.8263 4.52199 31.4194 4.75749C31.0126 4.99317 30.6139 5.22828 30.3062 5.39103C30.1783 5.45853 30.0828 5.49823 30.0022 5.53385C29.9216 5.49823 29.8269 5.45853 29.6982 5.39103C29.3909 5.22791 28.9913 4.99317 28.585 4.75749C28.1786 4.52199 27.7648 4.28543 27.3875 4.09831C27.1988 4.00456 27.02 3.92204 26.8308 3.85661C26.7362 3.82379 26.6472 3.78413 26.5305 3.76139ZM26.4133 5.72428C26.4644 5.74678 26.494 5.75288 26.5562 5.78288C26.8505 5.92913 27.2431 6.15115 27.6438 6.38346C28.0445 6.61577 28.453 6.8559 28.8193 7.04997C29.0025 7.14747 29.1736 7.23544 29.3467 7.30631C29.5197 7.37756 29.6583 7.46012 30.0022 7.46012C30.3461 7.46012 30.481 7.37756 30.6541 7.30631C30.8272 7.23506 30.9981 7.14709 31.1814 7.04997C31.548 6.85609 31.9595 6.61577 32.3606 6.38346C32.7617 6.15115 33.1536 5.92875 33.4482 5.78288C33.511 5.751 33.5396 5.74678 33.5911 5.72428C33.6314 5.76366 33.6565 5.77986 33.7046 5.83048C33.9322 6.06955 34.2268 6.41868 34.5249 6.77531C34.823 7.13212 35.1254 7.4994 35.4038 7.80802C35.543 7.96177 35.6722 8.09894 35.8103 8.2255C35.9484 8.353 36.0486 8.47688 36.3706 8.59538C36.6927 8.7135 36.8501 8.68344 37.0371 8.67594C37.2241 8.67594 37.4143 8.64914 37.6194 8.62101C38.0295 8.56476 38.4973 8.48041 38.9524 8.40128C39.4075 8.32066 39.8535 8.24573 40.1792 8.21085C40.2483 8.21085 40.2772 8.21129 40.333 8.19254C40.3586 8.24504 40.3732 8.27153 40.4026 8.33903C40.5356 8.64297 40.6975 9.07253 40.8567 9.5109C41.0159 9.94928 41.1758 10.3993 41.3328 10.7853C41.4112 10.9783 41.4878 11.1537 41.5745 11.32C41.6611 11.4869 41.7128 11.6371 41.9736 11.8583C42.2347 12.0796 42.3923 12.1047 42.5706 12.1623C42.7488 12.2204 42.9323 12.2674 43.1345 12.3124C43.539 12.4024 44.0052 12.483 44.4602 12.5651C44.9152 12.6476 45.3614 12.7282 45.6797 12.8068C45.7501 12.8256 45.7782 12.8394 45.8335 12.8544C45.8399 12.9125 45.8467 12.9442 45.8518 13.0192C45.8739 13.3511 45.8763 13.8082 45.8774 14.2753C45.8786 14.7424 45.8789 15.2206 45.8958 15.6376C45.9042 15.8461 45.9146 16.0375 45.9397 16.2235C45.9648 16.4092 45.9646 16.5687 46.1338 16.8644C46.3026 17.1597 46.4404 17.2396 46.5879 17.3551C46.7354 17.4714 46.8929 17.5801 47.0676 17.6921C47.4171 17.9157 47.829 18.1531 48.2285 18.3879C48.6281 18.6226 49.018 18.8548 49.2905 19.0397C49.3518 19.081 49.3753 19.103 49.4224 19.1386C49.4083 19.1967 49.4031 19.2303 49.3821 19.3034C49.2906 19.6223 49.1399 20.0548 48.9829 20.4936C48.8259 20.9325 48.6652 21.378 48.5398 21.7753C48.4771 21.9741 48.4218 22.1597 48.3823 22.3429C48.3429 22.5267 48.2874 22.6753 48.3457 23.0094C48.4041 23.3439 48.5063 23.4657 48.6057 23.6247C48.7051 23.784 48.8199 23.9427 48.9463 24.1081C49.1991 24.4386 49.5031 24.8006 49.7996 25.1591C50.096 25.5178 50.3855 25.8724 50.5796 26.1405C50.6249 26.2024 50.6415 26.2327 50.6748 26.2834C50.6415 26.334 50.6249 26.3643 50.5796 26.4262C50.3855 26.6945 50.096 27.0453 49.7996 27.404C49.5031 27.7625 49.1991 28.1279 48.9463 28.4587C48.8199 28.6237 48.7051 28.7757 48.6057 28.9347C48.5063 29.0941 48.4041 29.2228 48.3457 29.5573C48.2874 29.8914 48.3429 30.0404 48.3823 30.2238C48.4218 30.4075 48.4771 30.589 48.5398 30.7878C48.6653 31.1851 48.8259 31.6344 48.9829 32.0732C49.1399 32.5119 49.2906 32.9444 49.3821 33.2633C49.4031 33.3365 49.4083 33.37 49.4224 33.4281C49.3753 33.4638 49.3518 33.4839 49.2905 33.527C49.018 33.7126 48.6281 33.9441 48.2285 34.1789C47.829 34.4134 47.4171 34.6512 47.0676 34.8747C46.8929 34.9872 46.7354 35.0924 46.5879 35.2079C46.4404 35.3242 46.3026 35.4033 46.1338 35.6986C45.9649 35.9943 45.9647 36.1499 45.9397 36.3359C45.9146 36.5215 45.9041 36.7171 45.8958 36.9255C45.8791 37.3425 45.8788 37.8168 45.8774 38.2841C45.8763 38.7512 45.8739 39.2083 45.8518 39.5402C45.8467 39.6152 45.8401 39.6487 45.8335 39.7087C45.7783 39.7274 45.7499 39.7339 45.6797 39.7526C45.3614 39.8314 44.9152 39.9158 44.4602 39.998C44.0052 40.0805 43.539 40.161 43.1345 40.2506C42.9323 40.2956 42.7488 40.339 42.5706 40.3971C42.3923 40.4553 42.2347 40.4833 41.9736 40.7048C41.7127 40.9258 41.6611 41.0768 41.5745 41.2431C41.4878 41.41 41.4112 41.5848 41.3328 41.7777C41.1758 42.1638 41.0159 42.6138 40.8567 43.0522C40.6975 43.4905 40.5356 43.9164 40.4026 44.2204C40.3726 44.2879 40.3554 44.318 40.3293 44.3705C40.2745 44.3705 40.2467 44.371 40.1792 44.3522C39.8535 44.3166 39.4075 44.2417 38.9524 44.1618C38.4973 44.0812 38.0295 43.9968 37.6194 43.9421C37.4143 43.9139 37.2241 43.891 37.0371 43.8835C36.8501 43.8835 36.6927 43.8496 36.3706 43.9677C36.0485 44.0858 35.9484 44.2073 35.8103 44.3339C35.6722 44.4614 35.543 44.6007 35.4038 44.755C35.1254 45.0637 34.823 45.4311 34.5249 45.7878C34.2268 46.1446 33.9322 46.4897 33.7046 46.7289C33.656 46.7795 33.6317 46.7994 33.5911 46.8388C33.5398 46.8163 33.5107 46.8065 33.4482 46.7765C33.1535 46.6303 32.7617 46.4046 32.3606 46.1723C31.9595 45.94 31.5481 45.6998 31.1814 45.5058C30.9981 45.4083 30.8271 45.3238 30.6541 45.2531C30.481 45.1818 30.3461 45.0993 30.0022 45.0993C29.6583 45.0993 29.5197 45.1818 29.3467 45.2531C29.1736 45.3243 29.0025 45.4125 28.8193 45.5094C28.453 45.7035 28.0445 45.9438 27.6438 46.1759C27.2431 46.4083 26.8505 46.6305 26.5562 46.7765C26.4938 46.8065 26.4645 46.8163 26.4133 46.8388C26.3727 46.7994 26.3483 46.7814 26.2998 46.7289C26.0722 46.4897 25.7776 46.1446 25.4795 45.7878C25.1814 45.4311 24.879 45.0637 24.6006 44.755C24.4613 44.6013 24.3322 44.4607 24.1941 44.3339C24.056 44.2083 23.956 44.0862 23.6338 43.9677C23.3117 43.8496 23.1543 43.876 22.9673 43.8835C22.7803 43.8835 22.5901 43.9139 22.385 43.9421C21.9749 43.9983 21.5071 44.0827 21.052 44.1618C20.5969 44.2424 20.1509 44.3173 19.8252 44.3522C19.7577 44.3522 19.7299 44.3518 19.6751 44.3705C19.649 44.318 19.6318 44.2898 19.6018 44.2204C19.4688 43.9164 19.3069 43.4905 19.1477 43.0522C18.9885 42.6138 18.8286 42.1638 18.6716 41.7777C18.5932 41.5848 18.5166 41.4094 18.4299 41.2431C18.3433 41.0762 18.2917 40.9258 18.0308 40.7048C17.7697 40.4833 17.6121 40.4547 17.4338 40.3971C17.2556 40.339 17.0721 40.2956 16.8699 40.2506C16.4653 40.1606 15.9992 40.0801 15.5442 39.998C15.0892 39.9155 14.643 39.831 14.3247 39.7526C14.2545 39.7339 14.2261 39.7255 14.1709 39.7087C14.1644 39.6487 14.1576 39.6152 14.1526 39.5402C14.1305 39.2083 14.1281 38.7512 14.127 38.2841C14.1258 37.8168 14.1254 37.3425 14.1086 36.9255C14.1003 36.7171 14.0897 36.5219 14.0647 36.3359C14.0396 36.1502 14.0395 35.9943 13.8706 35.6986C13.7016 35.403 13.5641 35.3232 13.4165 35.2079C13.2689 35.0917 13.108 34.9866 12.9331 34.8747C12.5833 34.6512 12.1722 34.4134 11.7722 34.1789C11.3722 33.9441 10.983 33.7119 10.7102 33.527C10.6488 33.4858 10.6255 33.4638 10.5784 33.4281C10.5924 33.37 10.5976 33.3365 10.6187 33.2633C10.7102 32.9444 10.8608 32.5119 11.0178 32.0732C11.1748 31.6344 11.3355 31.1851 11.4609 30.7878C11.5237 30.589 11.579 30.4072 11.6184 30.2238C11.6578 30.04 11.7133 29.8914 11.655 29.5573C11.5967 29.2234 11.4943 29.0937 11.395 28.9347C11.2958 28.7754 11.1807 28.6238 11.0544 28.4587C10.802 28.1279 10.4972 27.7627 10.2012 27.404C9.90514 27.0455 9.6186 26.6945 9.4248 26.4262C9.37957 26.3643 9.3628 26.334 9.32959 26.2834C9.3628 26.2327 9.37957 26.2024 9.4248 26.1405C9.6186 25.8724 9.90514 25.5178 10.2012 25.1591C10.4972 24.8004 10.802 24.435 11.0544 24.1044C11.1807 23.9394 11.2958 23.7837 11.395 23.6247C11.4943 23.4653 11.5967 23.3436 11.655 23.0094C11.7134 22.6753 11.6578 22.5263 11.6184 22.3429C11.579 22.1592 11.5237 21.9741 11.4609 21.7753C11.3355 21.378 11.1748 20.9325 11.0178 20.4936C10.8608 20.0548 10.7102 19.6223 10.6187 19.3034C10.5976 19.2303 10.5924 19.1967 10.5784 19.1386C10.6255 19.103 10.6488 19.081 10.7102 19.0397C10.983 18.8541 11.3722 18.6224 11.7722 18.3879C12.1722 18.1531 12.5833 17.9157 12.9331 17.6921C13.108 17.5796 13.2689 17.4706 13.4165 17.3551C13.5641 17.2389 13.7017 17.1601 13.8706 16.8644C14.0398 16.5685 14.0396 16.4094 14.0647 16.2235C14.0897 16.0379 14.1003 15.8461 14.1086 15.6376C14.1254 15.2206 14.1258 14.7424 14.127 14.2753C14.1281 13.8082 14.1305 13.3511 14.1526 13.0192C14.1576 12.9442 14.1644 12.9144 14.1709 12.8544C14.2262 12.8357 14.2543 12.8237 14.3247 12.8068C14.643 12.7281 15.0892 12.6474 15.5442 12.5651C15.9992 12.4826 16.4654 12.402 16.8699 12.3124C17.0721 12.2674 17.2556 12.2204 17.4338 12.1623C17.6121 12.1041 17.7697 12.0798 18.0308 11.8583C18.2916 11.6371 18.3433 11.4863 18.4299 11.32C18.5165 11.1531 18.5932 10.9783 18.6716 10.7853C18.8286 10.3993 18.9885 9.94928 19.1477 9.5109C19.3069 9.07253 19.4688 8.64297 19.6018 8.33903C19.6312 8.27153 19.6458 8.24504 19.6714 8.19254C19.7272 8.19254 19.7561 8.1921 19.8252 8.21085C20.1509 8.24648 20.5969 8.32141 21.052 8.40128C21.5071 8.48191 21.9749 8.56626 22.385 8.62101C22.5901 8.64914 22.7803 8.6721 22.9673 8.6796C23.1543 8.6796 23.3117 8.7135 23.6338 8.59538C23.9559 8.47725 24.056 8.35573 24.1941 8.22917C24.3322 8.10167 24.4614 7.96234 24.6006 7.80802C24.879 7.4994 25.1814 7.13212 25.4795 6.77531C25.7776 6.41868 26.0722 6.06973 26.2998 5.83048C26.3479 5.77986 26.3729 5.76366 26.4133 5.72428ZM30.0022 10.3532C21.2106 10.3532 14.0647 17.4992 14.0647 26.2907C14.0647 35.0824 21.2106 42.2282 30.0022 42.2282C38.7938 42.2282 45.9397 35.0824 45.9397 26.2907C45.9397 17.4992 38.7938 10.3532 30.0022 10.3532ZM30.0022 12.122C37.8367 12.122 44.1672 18.4562 44.1672 26.2907C44.1672 34.1252 37.8367 40.4557 30.0022 40.4557C22.1677 40.4557 15.8372 34.1252 15.8372 26.2907C15.8372 18.4562 22.1677 12.122 30.0022 12.122ZM18.1956 45.59C18.2827 45.743 18.3713 45.9013 18.679 46.0807C19.0295 46.2851 19.226 46.2582 19.426 46.2638C19.626 46.2638 19.8212 46.2459 20.0303 46.2309C20.4484 46.1859 20.9163 46.1033 21.3779 46.0221C21.8396 45.9415 22.2939 45.8608 22.6377 45.8134C22.7799 45.7946 22.8835 45.7843 22.9709 45.7768C23.0349 45.8386 23.1106 45.9136 23.209 46.0221C23.4431 46.2814 23.7417 46.6382 24.0439 46.9999C24.0944 47.0603 24.1436 47.1117 24.1941 47.172L20.4661 53.632L19.6201 50.4753C19.5505 50.2175 19.3815 49.9978 19.1501 49.8646C18.9187 49.7314 18.6438 49.6955 18.386 49.7648L15.2549 50.6034L18.1956 45.59ZM41.8015 45.601L44.7385 50.6071L41.6074 49.7685C41.3496 49.7002 41.0752 49.7371 40.8445 49.871C40.6137 50.0049 40.4456 50.2248 40.377 50.4826L39.531 53.632L35.803 47.1794C35.8558 47.1163 35.9077 47.0631 35.9604 46.9999C36.2627 46.6382 36.5613 46.2814 36.7954 46.0221C36.8938 45.9134 36.9695 45.8385 37.0334 45.7768C37.1209 45.7768 37.2245 45.7984 37.3667 45.8134C37.7105 45.8603 38.1648 45.9409 38.6265 46.0221C39.0881 46.1028 39.556 46.1853 39.9741 46.2309C40.1832 46.2534 40.3784 46.2676 40.5784 46.2638C40.7784 46.2638 40.9749 46.2851 41.3254 46.0807C41.6257 45.9056 41.7161 45.7503 41.8015 45.601Z" fill="#F6F8FF"/>
<path d="M29.9567 16.875C29.3929 16.875 29.1482 17.1661 28.9606 17.3694C28.773 17.5726 28.6307 17.7936 28.4846 18.0359C28.1923 18.5206 27.909 19.1029 27.6313 19.6948C27.3535 20.2866 27.0836 20.8832 26.8586 21.3354C26.7461 21.5616 26.6445 21.7546 26.5693 21.8774C26.5542 21.9023 26.5475 21.9099 26.5327 21.9287C26.5121 21.9365 26.5042 21.9397 26.4777 21.947C26.3379 21.9826 26.1269 22.0212 25.8771 22.0605C25.3776 22.1412 24.7277 22.2209 24.079 22.3096C23.4304 22.3977 22.7838 22.497 22.2333 22.6318C21.9581 22.6993 21.7109 22.7704 21.4606 22.8882C21.2104 23.0063 20.8625 23.1503 20.6916 23.6865C20.5207 24.223 20.717 24.5442 20.8527 24.7852C20.9885 25.0259 21.1541 25.2269 21.3398 25.4407C21.7113 25.8678 22.1801 26.3199 22.6581 26.7664C23.1362 27.213 23.6224 27.6544 23.9838 28.0078C24.1645 28.1841 24.3148 28.3379 24.4086 28.4473C24.4246 28.4657 24.426 28.474 24.4379 28.4912C24.4391 28.5152 24.4436 28.5242 24.4416 28.5535C24.4318 28.6978 24.4074 28.9155 24.3684 29.165C24.2902 29.664 24.1656 30.3017 24.0497 30.9448C23.9339 31.5881 23.8244 32.23 23.7824 32.7942C23.7614 33.0762 23.7544 33.3367 23.7897 33.6108C23.8252 33.8851 23.8553 34.2607 24.3134 34.5886C24.7717 34.9166 25.1369 34.8257 25.4084 34.7717C25.6799 34.7173 25.9239 34.6256 26.1848 34.5154C26.7066 34.2947 27.2815 33.989 27.8547 33.6731C28.4279 33.3572 28.9957 33.0317 29.444 32.7978C29.6682 32.6816 29.8639 32.5895 29.997 32.5342C30.0246 32.5225 30.0359 32.5225 30.0593 32.5159C30.0792 32.5221 30.0882 32.5202 30.1105 32.5305C30.2444 32.5849 30.4415 32.6773 30.6672 32.7905C31.1184 33.0189 31.6868 33.335 32.2639 33.6438C32.8409 33.9526 33.4203 34.2573 33.9448 34.4714C34.207 34.5783 34.4527 34.6658 34.7248 34.7168C34.9969 34.7674 35.362 34.8534 35.8161 34.519C36.2702 34.1853 36.3004 33.8084 36.3325 33.5339C36.3645 33.2592 36.3533 33.0026 36.3288 32.7209C36.2798 32.1573 36.1596 31.5134 36.0358 30.8716C35.912 30.2298 35.7832 29.5935 35.6989 29.0955C35.6568 28.8466 35.6262 28.6312 35.6147 28.4875C35.6125 28.4607 35.6139 28.4516 35.6147 28.429C35.6272 28.4099 35.6302 28.4022 35.6476 28.3813C35.7401 28.2707 35.8866 28.1098 36.0651 27.9309C36.4221 27.5732 36.9036 27.1274 37.3762 26.6748C37.8487 26.2226 38.3137 25.7698 38.6799 25.3381C38.8629 25.1221 39.0232 24.9143 39.1559 24.6716C39.2887 24.429 39.4837 24.111 39.3061 23.5767C39.1285 23.0425 38.7777 22.8973 38.5261 22.782C38.2744 22.6657 38.0221 22.5975 37.746 22.533C37.194 22.4055 36.5501 22.3208 35.9003 22.24C35.2506 22.1594 34.599 22.087 34.0986 22.0129C33.8483 21.9754 33.6346 21.9405 33.4943 21.9067C33.4699 21.9009 33.4633 21.8957 33.4431 21.8884C33.4275 21.8695 33.4188 21.8626 33.4028 21.8372C33.3261 21.7153 33.2251 21.5271 33.1098 21.3025C32.8792 20.8529 32.6002 20.2612 32.3151 19.6728C32.0301 19.0845 31.7417 18.5022 31.4435 18.0212C31.2944 17.7807 31.1466 17.5631 30.9565 17.3621C30.7664 17.1611 30.5205 16.8753 29.9567 16.8787V16.875ZM29.9714 19.2371C30.1734 19.5875 30.394 20.0016 30.6269 20.4822C30.9037 21.0535 31.1792 21.6513 31.4362 22.1521C31.5647 22.4028 31.6862 22.6275 31.8134 22.8296C31.9406 23.0317 32.0235 23.2037 32.3298 23.4229C32.636 23.6422 32.8259 23.664 33.0585 23.7195C33.2912 23.7757 33.545 23.8174 33.8239 23.8586C34.3817 23.9411 35.0387 24.0141 35.6696 24.093C36.1993 24.1586 36.6604 24.2344 37.0576 24.3127C36.7861 24.6124 36.4612 24.9512 36.0761 25.3198C35.6173 25.7593 35.1337 26.2064 34.7358 26.6052C34.5369 26.8045 34.3618 26.9895 34.2084 27.1728C34.0551 27.3566 33.9125 27.4882 33.7983 27.8467C33.684 28.2052 33.7242 28.3924 33.7434 28.6304C33.7625 28.8683 33.7989 29.1219 33.8459 29.3994C33.9398 29.9544 34.0772 30.5999 34.1975 31.2231C34.2985 31.747 34.3691 32.2096 34.4172 32.6111C34.0474 32.4461 33.6249 32.2405 33.1538 31.9885C32.5934 31.6887 32.016 31.3679 31.5131 31.1133C31.2617 30.9858 31.0319 30.8764 30.81 30.7873C30.5881 30.6973 30.4178 30.6042 30.041 30.6079C29.664 30.6079 29.4964 30.7074 29.2756 30.7983C29.0547 30.8902 28.826 31.0049 28.5761 31.1352C28.0764 31.3959 27.5031 31.7222 26.9465 32.0288C26.4785 32.2868 26.0581 32.4963 25.6904 32.666C25.7334 32.2638 25.8008 31.8 25.8955 31.2744C26.008 30.6498 26.1343 30.0031 26.2214 29.447C26.2649 29.169 26.2968 28.9161 26.3129 28.678C26.3291 28.4397 26.3657 28.2515 26.247 27.8943C26.1283 27.5373 25.9888 27.4091 25.8332 27.2278C25.6776 27.0459 25.4963 26.8609 25.2949 26.6638C24.8921 26.2701 24.4041 25.8304 23.9399 25.3967C23.5499 25.0324 23.2227 24.6971 22.9475 24.4006C23.3437 24.3181 23.8063 24.2348 24.3354 24.1626C24.9653 24.0763 25.6171 23.9993 26.1738 23.9099C26.4521 23.8649 26.7036 23.8179 26.9355 23.7598C27.1674 23.7016 27.3607 23.6793 27.6643 23.4558C27.9678 23.2329 28.045 23.059 28.1696 22.8552C28.2943 22.6516 28.4141 22.4226 28.5395 22.1704C28.7903 21.6664 29.0608 21.0678 29.3305 20.4932C29.5571 20.0104 29.7739 19.5899 29.9714 19.2371Z" fill="#FFB700"/>
</svg>
