<svg width="60" height="60" viewBox="0 0 60 60" fill="none" xmlns="http://www.w3.org/2000/svg">
<path d="M34.9891 9.43303C34.8676 9.43971 34.7465 9.47153 34.6302 9.52825C34.1652 9.75512 33.973 10.3157 34.2018 10.7807C35.1299 12.6894 35.6227 14.8178 35.6227 16.944C35.6227 20.5721 34.2457 24.0181 31.7445 26.6449C31.3882 27.0199 31.4006 27.6125 31.7774 27.9706C31.9593 28.1431 32.1931 28.227 32.4256 28.227C32.6731 28.227 32.9194 28.1308 33.1031 27.9377C35.9363 24.9602 37.4977 21.054 37.4977 16.944C37.4977 14.5346 36.9401 12.1223 35.8863 9.96038C35.7148 9.61022 35.3537 9.41299 34.9891 9.43303ZM15.9352 11.319C14.3845 11.319 13.1227 12.5809 13.1227 14.1315C13.1227 14.8515 13.3942 15.5078 13.8404 16.0065C13.3942 16.5034 13.1227 17.1615 13.1227 17.8815C13.1227 18.6015 13.3942 19.2578 13.8404 19.7565C13.3942 20.2534 13.1227 20.9115 13.1227 21.6315C13.1227 23.1821 14.3845 24.444 15.9352 24.444C16.4527 24.444 16.8727 24.024 16.8727 23.5065C16.8727 22.989 16.4527 22.569 15.9352 22.569C15.4195 22.569 14.9977 22.149 14.9977 21.6315C14.9977 21.114 15.4195 20.694 15.9352 20.694C16.4527 20.694 16.8727 20.274 16.8727 19.7565C16.8727 19.239 16.4527 18.819 15.9352 18.819C15.4195 18.819 14.9977 18.399 14.9977 17.8815C14.9977 17.364 15.4195 16.944 15.9352 16.944C16.4527 16.944 16.8727 16.524 16.8727 16.0065C16.8727 15.489 16.4527 15.069 15.9352 15.069C15.4195 15.069 14.9977 14.649 14.9977 14.1315C14.9977 13.614 15.4195 13.194 15.9352 13.194C16.4527 13.194 16.8727 12.774 16.8727 12.2565C16.8727 11.739 16.4527 11.319 15.9352 11.319ZM22.4574 11.6413C22.2202 11.6767 21.9959 11.7994 21.8421 12.0075C21.5346 12.4237 21.6236 13.011 22.0399 13.3185C22.1786 13.4235 22.3151 13.5285 22.4464 13.6335C22.5795 13.7422 22.7125 13.856 22.8419 13.9704C23.02 14.1298 23.2413 14.2084 23.4645 14.2084C23.7213 14.2084 23.9764 14.1016 24.1639 13.8935C24.5089 13.5072 24.4769 12.9165 24.0907 12.5715C23.9426 12.4383 23.7886 12.3053 23.6293 12.176C23.4736 12.0541 23.3144 11.9334 23.1532 11.8134C22.9451 11.6606 22.6946 11.6059 22.4574 11.6413ZM25.5628 15.0763C25.4419 15.0913 25.3201 15.1325 25.2076 15.1972C24.7576 15.4559 24.6083 16.0271 24.867 16.4753C25.7708 18.039 26.2477 19.8221 26.2477 21.6315C26.2477 22.7303 26.058 23.8318 25.713 24.8761L23.8233 22.9865C23.6115 22.7746 23.3139 22.6778 23.0177 22.7228C22.7214 22.7678 22.468 22.9492 22.3292 23.2136L7.74668 51.0566C7.55731 51.4203 7.62639 51.8628 7.91514 52.1515C8.09514 52.3315 8.33423 52.4262 8.57798 52.4262C8.72611 52.4262 8.87502 52.3913 9.01377 52.32L36.8568 37.7375C37.1212 37.5987 37.3025 37.3416 37.3475 37.0453C37.3925 36.751 37.2957 36.4515 37.0838 36.2397L34.2054 33.3649C35.771 32.4574 37.5651 31.9404 39.3763 31.9404C42.3426 31.9404 45.1678 33.2211 47.1253 35.4523C47.311 35.6623 47.5678 35.7709 47.8285 35.7709C48.0478 35.7709 48.2692 35.694 48.4474 35.5365C48.8355 35.1953 48.8765 34.6009 48.5353 34.2109C46.2178 31.5802 42.8789 30.069 39.3727 30.069C37.0664 30.069 34.793 30.7743 32.8468 32.0099L27.1632 26.3263C27.7801 24.8413 28.1227 23.2365 28.1227 21.6315C28.1227 19.494 27.5581 17.3884 26.4894 15.5378C26.2953 15.2017 25.9257 15.0314 25.5628 15.0763ZM48.3155 16.0505C48.0755 16.0502 47.8355 16.1423 47.6527 16.3251C47.2871 16.6926 47.2871 17.2833 47.6527 17.6508C47.8308 17.8271 47.9273 18.0624 47.9273 18.3136C47.9273 18.563 47.8289 18.7984 47.6527 18.9765C47.2983 19.329 46.6814 19.329 46.327 18.9765C45.9614 18.6109 45.3669 18.6109 45.0013 18.9765C44.8176 19.1602 44.7267 19.403 44.7267 19.643C44.7267 19.883 44.8194 20.1221 45.0013 20.3058C45.3669 20.6715 45.3669 21.2659 45.0013 21.6315C44.6357 21.9971 44.0413 21.9971 43.6756 21.6315C43.31 21.2659 42.7156 21.2659 42.35 21.6315C42.1662 21.8153 42.0753 22.0544 42.0753 22.2944C42.0753 22.5344 42.1681 22.7735 42.35 22.9572C42.5281 23.1353 42.6246 23.3725 42.6246 23.6237C42.6246 23.875 42.5262 24.1084 42.35 24.2865C41.9843 24.6522 41.3899 24.6522 41.0243 24.2865C40.6586 23.9228 40.0642 23.9209 39.6986 24.2865C39.333 24.654 39.333 25.2447 39.6986 25.6122C40.2442 26.156 40.9653 26.4325 41.6834 26.4325C42.4035 26.4325 43.1245 26.1561 43.672 25.6086C44.1801 25.1004 44.4548 24.445 44.4923 23.7775C45.1579 23.74 45.8133 23.4672 46.3233 22.9572C46.8333 22.4472 47.1062 21.79 47.1437 21.1225C47.8093 21.085 48.4684 20.8122 48.9784 20.3022C49.509 19.7715 49.8023 19.0655 49.8023 18.3136C49.8023 17.5618 49.509 16.8557 48.9784 16.3251C48.7956 16.1432 48.5555 16.0507 48.3155 16.0505ZM23.3985 25.2131L26.3319 28.1501L22.4867 26.9452L23.3985 25.2131ZM21.6078 28.6335L29.192 31.0029L31.891 33.7055C31.9041 33.728 31.9089 33.7526 31.9239 33.7751C32.0046 33.8857 32.1063 33.9677 32.2169 34.0314L33.9271 35.7416L20.1393 31.435L21.6078 28.6335ZM19.2567 33.1232L33.2643 37.4994L29.3714 39.5392L17.7882 35.9211L19.2567 33.1232ZM16.9056 37.6093L27.024 40.7697L23.1312 42.8095L15.4408 40.4072L16.9056 37.6093ZM39.4752 40.2167C38.9249 40.1862 38.3783 40.3166 37.8932 40.6049C37.2913 40.9612 36.8506 41.5177 36.6444 42.1796C35.9825 42.0484 35.2837 42.1508 34.6668 42.5202C34.0481 42.8877 33.6187 43.4537 33.4181 44.0912C32.7337 43.9525 32.0424 44.0737 31.4405 44.4318C30.7937 44.8162 30.3334 45.4255 30.1478 46.153C29.9622 46.8805 30.071 47.6411 30.4554 48.288C30.6317 48.5824 30.946 48.7458 31.2647 48.7458C31.4279 48.7458 31.5908 48.7039 31.7408 48.6139C32.1871 48.3496 32.3348 47.7729 32.0704 47.3285C31.9429 47.1129 31.9079 46.8636 31.9679 46.6218C32.0297 46.3799 32.1826 46.1743 32.3963 46.0468C32.6101 45.9193 32.863 45.8843 33.1068 45.9443C33.3505 46.0061 33.5542 46.159 33.6817 46.3727C33.9461 46.819 34.519 46.9648 34.9671 46.7023C35.2615 46.5279 35.4249 46.2136 35.4249 45.893C35.4249 45.7317 35.3849 45.5669 35.2967 45.4169C35.0324 44.9725 35.1801 44.3959 35.6263 44.1315C36.0707 43.869 36.6455 44.0149 36.9117 44.4611C37.178 44.9055 37.7491 45.0514 38.1935 44.787C38.4878 44.6127 38.6549 44.2983 38.6549 43.9777C38.6549 43.8146 38.6131 43.6516 38.5231 43.5016C38.3955 43.286 38.3605 43.0331 38.4205 42.7912C38.4824 42.5493 38.6352 42.3474 38.849 42.2199C39.0627 42.0943 39.3157 42.0574 39.5594 42.1174C39.8032 42.1792 40.0069 42.3321 40.1344 42.5458C40.4006 42.9902 40.9735 43.1324 41.4198 42.8718C41.8642 42.6074 42.0119 42.0363 41.7494 41.59C41.3631 40.9469 40.7501 40.4866 40.0245 40.301C39.8426 40.2541 39.6586 40.2269 39.4752 40.2167ZM14.5582 42.0954L20.7838 44.04L16.8873 46.0798L13.0897 44.8932L14.5582 42.0954ZM12.2071 46.5815L14.5399 47.3102L10.8009 49.2695L12.2071 46.5815Z" fill="#F6F8FF"/>
<path d="M29.0625 6.875C27.5119 6.875 26.25 8.135 26.25 9.6875C26.25 11.24 27.5119 12.5 29.0625 12.5C30.6131 12.5 31.875 11.2381 31.875 9.6875C31.875 8.13688 30.6131 6.875 29.0625 6.875ZM44.0625 6.875C42.5119 6.875 41.25 8.135 41.25 9.6875C41.25 11.24 42.5119 12.5 44.0625 12.5C45.6131 12.5 46.875 11.2381 46.875 9.6875C46.875 8.13688 45.6131 6.875 44.0625 6.875ZM29.0625 8.75C29.5781 8.75 30 9.17 30 9.6875C30 10.205 29.5781 10.625 29.0625 10.625C28.5469 10.625 28.125 10.2031 28.125 9.6875C28.125 9.17188 28.5469 8.75 29.0625 8.75ZM44.0625 8.75C44.5781 8.75 45 9.17 45 9.6875C45 10.205 44.5781 10.625 44.0625 10.625C43.5469 10.625 43.125 10.2031 43.125 9.6875C43.125 9.17188 43.5469 8.75 44.0625 8.75ZM15.9375 25.625C15.6889 25.625 15.4504 25.7238 15.2746 25.8996C15.0988 26.0754 15 26.3139 15 26.5625C15 26.8111 15.0988 27.0496 15.2746 27.2254C15.4504 27.4012 15.6889 27.5 15.9375 27.5C16.1861 27.5 16.4246 27.4012 16.6004 27.2254C16.7762 27.0496 16.875 26.8111 16.875 26.5625C16.875 26.3139 16.7762 26.0754 16.6004 25.8996C16.4246 25.7238 16.1861 25.625 15.9375 25.625ZM51.5625 25.625C50.0119 25.625 48.75 26.8869 48.75 28.4375C48.75 29.9881 50.0119 31.25 51.5625 31.25C53.1131 31.25 54.375 29.9881 54.375 28.4375C54.375 26.8869 53.1131 25.625 51.5625 25.625ZM51.5625 27.5C52.0781 27.5 52.5 27.92 52.5 28.4375C52.5 28.955 52.0781 29.375 51.5625 29.375C51.0469 29.375 50.625 28.955 50.625 28.4375C50.625 27.92 51.0469 27.5 51.5625 27.5ZM8.4375 33.125C6.88688 33.125 5.625 34.385 5.625 35.9375C5.625 37.49 6.88688 38.75 8.4375 38.75C9.98812 38.75 11.25 37.4881 11.25 35.9375C11.25 34.3869 9.98812 33.125 8.4375 33.125ZM8.4375 35C8.95312 35 9.375 35.42 9.375 35.9375C9.375 36.455 8.95312 36.875 8.4375 36.875C7.92188 36.875 7.5 36.4531 7.5 35.9375C7.5 35.42 7.92188 35 8.4375 35ZM50.0354 36.8677C49.9137 36.8601 49.7883 36.8758 49.6655 36.9189C49.1762 37.0914 48.9236 37.6271 49.0942 38.1165C49.1974 38.409 49.2884 38.7064 49.3652 39.0027C49.4402 39.3027 49.5033 39.6016 49.552 39.9072C49.627 40.3685 50.0266 40.6982 50.4785 40.6982C50.5273 40.6982 50.578 40.6948 50.6287 40.6873C51.1387 40.6066 51.4857 40.1225 51.405 39.6106C51.3469 39.2506 51.2716 38.8938 51.1816 38.5376C51.0898 38.1832 50.983 37.837 50.863 37.4939C50.7337 37.1283 50.4005 36.8905 50.0354 36.8677ZM45.9375 44.375C44.3869 44.375 43.125 45.6369 43.125 47.1875C43.125 48.7381 44.3869 50 45.9375 50C47.4881 50 48.75 48.7381 48.75 47.1875C48.75 45.6369 47.4881 44.375 45.9375 44.375ZM45.9375 46.25C46.4531 46.25 46.875 46.67 46.875 47.1875C46.875 47.705 46.4531 48.125 45.9375 48.125C45.4219 48.125 45 47.705 45 47.1875C45 46.67 45.4219 46.25 45.9375 46.25Z" fill="#FFB700"/>
</svg>
