<svg width="60" height="60" viewBox="0 0 60 60" fill="none" xmlns="http://www.w3.org/2000/svg">
<path fill-rule="evenodd" clip-rule="evenodd" d="M58.9648 8.13776e-05C58.9123 0.00247494 58.8601 0.00900542 58.8086 0.019612C53.2878 0.0452298 48.2031 1.18737 43.5864 3.11717C43.5599 3.12648 43.5339 3.13691 43.5083 3.14842C43.4653 3.16649 43.4184 3.17708 43.3755 3.19529C43.2897 3.23211 43.2095 3.28076 43.1372 3.33982C42.7589 3.51892 42.3431 3.73314 41.899 3.97651C41.8724 3.98711 41.8464 3.99884 41.8208 4.01167C41.7728 4.03601 41.7281 4.0653 41.6802 4.08979C41.4875 4.19648 41.3757 4.25224 41.192 4.35541C34.6833 7.78161 29.1937 12.6068 24.7667 18.0229C23.9159 17.6671 23.0421 17.4 22.1379 17.2886V17.2925C18.7646 16.8767 15.0955 18.0969 11.6851 20.4838C7.1379 23.6665 2.92864 28.9495 0.0800193 35.6161C-0.00669673 35.8197 -0.0234588 36.0462 0.0323576 36.2603C0.088174 36.4744 0.213417 36.664 0.388477 36.7993C0.563536 36.9346 0.778527 37.0081 0.999787 37.0081C1.22105 37.0082 1.43608 36.9349 1.61122 36.7997C5.73827 33.5986 8.94717 31.873 11.1929 31.4678C12.3158 31.2652 13.172 31.3698 13.8882 31.71C14.5055 32.0028 15.0487 32.5043 15.5444 33.2529C15.4158 33.5517 15.2569 33.8534 15.1342 34.1513C15.0588 34.3342 15.0393 34.5354 15.0782 34.7294C15.1172 34.9234 15.2128 35.1015 15.353 35.2411L17.5013 37.3895C15.636 40.2004 13.715 43.4002 11.6382 46.9868C11.6347 46.9868 11.6301 46.9864 11.6265 47.0064C11.6184 47.0205 11.6105 47.0348 11.6031 47.0493C11.599 47.0584 11.5951 47.0675 11.5914 47.0767C11.5887 47.0832 11.5861 47.0897 11.5835 47.0962C11.572 47.1218 11.5616 47.1479 11.5523 47.1743C11.5496 47.1808 11.547 47.1873 11.5445 47.1939C11.537 47.2183 11.5305 47.2431 11.525 47.2681C11.5168 47.3003 11.5103 47.3329 11.5054 47.3657C11.5022 47.3852 11.4996 47.4047 11.4976 47.4243C11.4961 47.4373 11.4948 47.4503 11.4937 47.4634C11.4936 47.4712 11.4936 47.479 11.4937 47.4868C11.4933 47.5207 11.4946 47.5546 11.4976 47.5884C11.4992 47.6145 11.5018 47.6406 11.5054 47.6665C11.5067 47.673 11.508 47.6795 11.5093 47.686C11.5155 47.719 11.5233 47.7515 11.5328 47.7837C11.5418 47.8141 11.5522 47.8441 11.564 47.8735C11.5734 47.8987 11.5839 47.9234 11.5953 47.9477C11.6083 47.9757 11.6227 48.0031 11.6382 48.0298H11.6421C11.646 48.0363 11.6499 48.0428 11.6539 48.0493C11.6687 48.0707 11.6843 48.0916 11.7007 48.1118C11.7046 48.1184 11.7085 48.1249 11.7125 48.1313C11.7298 48.1529 11.7481 48.1738 11.7671 48.1938C11.7835 48.21 11.8005 48.2257 11.8179 48.2407C11.8243 48.2486 11.8308 48.2564 11.8374 48.2641C11.8426 48.2707 11.8478 48.2772 11.8531 48.2837C11.8733 48.3001 11.8941 48.3157 11.9156 48.3305C11.9207 48.3371 11.9259 48.3436 11.9312 48.3501C11.954 48.3667 11.9774 48.3823 12.0015 48.3969C12.0306 48.4141 12.0606 48.4297 12.0913 48.4438C12.1068 48.4507 12.1224 48.4572 12.1382 48.4633C12.1524 48.4702 12.1667 48.4767 12.1812 48.4829C12.1877 48.4829 12.1942 48.4829 12.2007 48.4829C12.2265 48.4904 12.2525 48.497 12.2788 48.5024C12.302 48.5098 12.3255 48.5163 12.3491 48.5219C12.3648 48.5223 12.3804 48.5223 12.396 48.5219C12.4234 48.5231 12.4507 48.5231 12.4781 48.5219C12.4833 48.522 12.4885 48.522 12.4937 48.5219C12.5606 48.5221 12.6273 48.5156 12.6929 48.5024C12.7245 48.4961 12.7558 48.4883 12.7866 48.479C12.8198 48.469 12.8524 48.4572 12.8843 48.4438C12.9218 48.4278 12.9584 48.4096 12.9937 48.3891C13.0169 48.3691 13.033 48.3641 13.0562 48.3501C16.6242 46.2795 19.8125 44.3624 22.6144 42.5026L24.6886 44.5768C24.8282 44.7169 25.0063 44.8125 25.2003 44.8515C25.3943 44.8904 25.5955 44.8709 25.7784 44.7955C26.0705 44.6752 26.368 44.5191 26.6612 44.3932C28.2693 45.4463 28.8422 46.6769 28.4853 48.7719C28.0992 51.0391 26.3991 54.2647 23.2004 58.3888C23.0651 58.5639 22.9918 58.779 22.9919 59.0002C22.992 59.2215 23.0654 59.4365 23.2007 59.6116C23.336 59.7866 23.5256 59.9119 23.7397 59.9677C23.9538 60.0235 24.1804 60.0067 24.3839 59.92C31.0506 57.0713 36.3335 52.8622 39.5162 48.3149C42.5537 43.9754 43.6635 39.2237 41.9576 35.1903C47.3414 30.8366 52.1576 25.4545 55.586 19.0776C55.725 18.8342 55.81 18.6727 55.961 18.4096C56.2758 17.8613 56.5511 17.3475 56.7774 16.8706C56.8108 16.82 56.8396 16.7664 56.8633 16.7105C56.8649 16.7067 56.8656 16.7025 56.8672 16.6988C56.884 16.6613 56.9181 16.6103 56.9336 16.5738C56.9652 16.4986 56.9875 16.4199 57 16.3394C58.9152 11.695 59.9961 6.52742 59.996 1.00005C59.996 0.868406 59.97 0.73806 59.9195 0.616489C59.869 0.494918 59.795 0.384514 59.7017 0.29161C59.6085 0.198706 59.4978 0.12513 59.376 0.0751024C59.2542 0.0250749 59.1238 -0.000419591 58.9922 8.13776e-05H58.9883C58.9804 -1.01701e-05 58.9726 -1.01701e-05 58.9648 8.13776e-05ZM57.8867 2.11329C57.764 6.4677 56.9254 10.5379 55.5352 14.2887L45.7699 4.52728C49.5168 3.12051 53.5413 2.24279 57.8867 2.11329ZM43.5981 5.36319L54.715 16.5035C54.6265 16.6744 54.5211 16.8664 54.422 17.0503C54.4207 17.0516 54.4194 17.0529 54.4181 17.0542C54.3839 17.101 54.3538 17.1507 54.3282 17.2026C54.1571 17.5401 53.9647 17.8628 53.7853 18.1948C53.5936 18.5294 53.3747 18.9024 53.2423 19.1635C53.2228 19.2027 53.2058 19.2432 53.1916 19.2846C46.7882 30.3788 35.8416 38.3114 25.5948 42.6549L24.2863 41.3464C25.9631 40.1702 27.5258 39.0049 28.8213 37.8387C32.5785 34.4564 34.7095 30.8599 34.2352 26.757C34.2275 26.6839 34.2118 26.6119 34.1883 26.5422L34.1688 26.4953C34.0925 26.2753 33.942 26.0888 33.743 25.968L33.6649 25.9211C33.5424 25.8459 33.4052 25.7979 33.2625 25.7805V25.761C29.1598 25.2864 25.5571 27.419 22.173 31.1748C21.0036 32.4728 19.8359 34.0375 18.6575 35.7177L17.2748 34.3349C21.6136 24.1062 29.5281 13.3298 40.6139 6.94126C40.658 6.92607 40.7011 6.90779 40.7428 6.88658C41.482 6.51158 42.7397 5.80595 43.5981 5.36319ZM41.0709 13.9879C39.803 13.9879 38.5319 14.4684 37.571 15.4293C35.6491 17.3512 35.653 20.4993 37.5749 22.4212C39.4968 24.3432 42.6411 24.3432 44.5629 22.4212C46.4848 20.4993 46.4887 17.3512 44.5668 15.4293C43.6059 14.4684 42.3388 13.9879 41.0709 13.9879ZM41.0709 15.9761C41.8228 15.9761 42.574 16.2645 43.1528 16.8433C44.3104 18.0008 44.3066 19.8496 43.1489 21.0072C41.9913 22.1648 40.1465 22.1648 38.9889 21.0072C37.8313 19.8496 37.8274 18.0008 38.985 16.8433C39.5638 16.2645 40.319 15.9761 41.0709 15.9761ZM20.0989 19.2807C21.1912 19.2921 22.2154 19.5881 23.2277 19.9057C22.9003 20.3514 22.5839 20.8214 22.2629 21.2806C22.2383 21.3151 22.2171 21.3516 22.1926 21.3861C21.4114 22.5078 20.6467 23.6635 19.9114 24.8704C19.2922 25.8734 18.7262 26.88 18.1732 27.8937C18.0756 28.0748 17.9766 28.2498 17.8802 28.4328C17.3382 29.4488 16.8319 30.4591 16.3568 31.4756C15.8448 30.9086 15.4131 30.217 14.7475 29.9015C13.6002 29.3575 12.2662 29.2413 10.8375 29.4991C8.89398 29.8497 6.58647 31.088 4.06036 32.7256C6.58902 28.2411 9.57139 24.401 12.8296 22.1205C14.9129 20.6623 17.0009 19.7326 18.9817 19.3745C19.363 19.3055 19.7348 19.2769 20.0989 19.2807ZM32.0634 27.9367C32.0377 30.8344 30.6437 33.4881 27.4815 36.3348C24.6449 38.8884 20.3706 41.6039 15.4623 44.5338C18.3899 39.6227 21.1027 35.3463 23.6574 32.5107C26.5064 29.3486 29.1631 27.9603 32.0634 27.9367ZM40.0943 36.7528C41.0751 39.8595 40.4654 43.4722 37.8796 47.1665C35.5956 50.4296 31.7452 53.417 27.251 55.9475C28.8898 53.4018 30.1234 51.0722 30.4579 49.1079C30.8443 46.8392 29.9321 45.0122 28.4307 43.5846C29.4809 43.0957 30.5267 42.5745 31.579 42.0143C31.6309 41.9874 31.6796 41.9594 31.7313 41.9323C32.6593 41.4353 33.5869 40.9531 34.5086 40.4011C36.4818 39.2496 38.3414 38.0292 40.0943 36.7528Z" fill="#F6F8FF"/>
<path fill-rule="evenodd" clip-rule="evenodd" d="M9.89995 49L3.19556 55.7074L4.29561 56.8034L11 50.096C10.9711 50.096 10.9415 50.0737 10.914 50.0598C10.9048 50.0524 10.8958 50.0448 10.8868 50.0371C10.85 50.014 10.8138 49.9924 10.7782 49.9692L10.7918 49.9918C10.7486 49.9663 10.7063 49.9359 10.665 49.9058C10.6153 49.871 10.567 49.832 10.5201 49.7926C10.5109 49.7837 10.5019 49.7746 10.493 49.7654C10.4744 49.7494 10.4562 49.7328 10.4387 49.7156C10.4341 49.7156 10.4296 49.7156 10.4251 49.7156H10.4206C10.4159 49.7081 10.4114 49.7005 10.407 49.6929C10.3907 49.6697 10.373 49.6708 10.3572 49.6476C10.351 49.6387 10.345 49.6296 10.3391 49.6205C10.3196 49.5973 10.2989 49.5893 10.2802 49.5661C10.2458 49.529 10.2125 49.4923 10.1806 49.4529C10.1775 49.4439 10.1745 49.4348 10.1716 49.4257C10.1307 49.3747 10.0991 49.3183 10.0629 49.2627C10.0079 49.1943 9.96082 49.1198 9.92259 49.0408C9.91589 49.0194 9.90655 49.0137 9.89995 49ZM2.09552 56.8034L1 57.904L2.09552 59L3.19556 57.904L2.09552 56.8034Z" fill="#FFB700"/>
<path d="M3.15304 51.7953L12 43C10.9993 44.6496 9.97383 46.3911 8.91663 48.2032L4.22513 52.865L3.15304 51.7953Z" fill="#FFB700"/>
<path d="M1 53.9303L2.07652 52.865L3.14861 53.9303L2.07652 55L1 53.9303Z" fill="#FFB700"/>
<path d="M8.2047 56.847L17 48C15.3504 49.0007 13.6089 50.0262 11.7968 51.0834L7.135 55.7749L8.2047 56.847Z" fill="#FFB700"/>
<path d="M6.0697 59L7.135 57.9235L6.0697 56.8514L5 57.9235L6.0697 59Z" fill="#FFB700"/>
</svg>
