<svg width="55" height="55" viewBox="0 0 55 55" fill="none" xmlns="http://www.w3.org/2000/svg">
<path d="M10 8.00112C21.7379 7.99354 33.4795 8.02767 45.2173 8.00492C44.1267 19.9331 43.0286 31.8614 41.9868 43.7934C37.3508 45.0564 32.7337 46.3876 28.1052 47.6772C27.6667 47.8403 27.2133 47.7379 26.7823 47.6127C22.2738 46.3307 17.7615 45.064 13.2455 43.8124C12.2037 31.8728 11.0718 19.9407 10 8.00112ZM28.6411 15.3932C28.6899 20.6083 28.7311 25.8271 28.7798 31.0459C31.0772 30.6439 33.367 30.2191 35.6644 29.8209C35.6381 30.989 35.6007 32.1534 35.5594 33.3216C33.2471 33.9398 30.9422 34.577 28.6374 35.2104C28.6599 36.6365 28.6786 38.0587 28.7049 39.4848C31.9017 38.6352 35.0947 37.7781 38.2915 36.9247C38.6176 33.003 38.9399 29.0813 39.2547 25.1558C36.8974 25.4061 34.5401 25.6716 32.179 25.9067C32.179 23.8283 32.1752 21.7537 32.179 19.6752C34.6937 19.6677 37.2047 19.679 39.7157 19.6714C39.8356 18.2112 39.9405 16.7548 40.0267 15.2946C36.2303 15.3249 32.4338 15.3553 28.6411 15.3932ZM22.776 15.6777C22.7497 21.8068 22.7497 27.9321 22.731 34.0612C20.4674 33.4505 18.215 32.7944 15.9514 32.1875C15.9439 33.5795 15.9476 34.9714 15.9589 36.3634C19.4068 37.2964 22.8397 38.2673 26.2876 39.1966C26.2876 31.3569 26.2988 23.5135 26.2838 15.6739C25.1145 15.6701 23.9453 15.6701 22.776 15.6777Z" fill="#182F43"/>
</svg>
