<svg width="43" height="48" viewBox="0 0 43 48" fill="none" xmlns="http://www.w3.org/2000/svg">
<path d="M0.457031 0.00135C14.5565 -0.00776172 28.6605 0.0332411 42.76 0.00590597C41.45 14.3341 40.131 28.6623 38.8795 42.995C33.3109 44.5121 27.7647 46.1112 22.205 47.6602C21.6783 47.8561 21.1336 47.7331 20.6159 47.5828C15.2003 46.0429 9.78017 44.5212 4.35555 43.0178C3.10406 28.6759 1.74453 14.3432 0.457031 0.00135ZM22.8488 8.88073C22.9073 15.145 22.9568 21.4139 23.0153 27.6828C25.7749 27.1998 28.5255 26.6896 31.2851 26.2112C31.2536 27.6144 31.2085 29.0131 31.159 30.4163C28.3814 31.1589 25.6129 31.9243 22.8443 32.6851C22.8713 34.3981 22.8938 36.1066 22.9253 37.8196C26.7653 36.799 30.6008 35.7694 34.4408 34.7444C34.8325 30.0336 35.2196 25.3228 35.5978 20.6075C32.7661 20.9082 29.9345 21.2271 27.0984 21.5096C27.0984 19.013 27.0939 16.5209 27.0984 14.0243C30.1191 14.0152 33.1353 14.0289 36.1515 14.0197C36.2955 12.2657 36.4216 10.5163 36.5251 8.76227C31.9648 8.79872 27.4046 8.83517 22.8488 8.88073ZM15.8035 9.22242C15.772 16.5847 15.772 23.9424 15.7495 31.3047C13.0304 30.5712 10.3249 29.783 7.60582 29.0541C7.59682 30.7261 7.60132 32.3981 7.61483 34.0701C11.7564 35.1908 15.8801 36.3571 20.0217 37.4733C20.0217 28.0563 20.0352 18.6348 20.0172 9.21786C18.6126 9.2133 17.2081 9.2133 15.8035 9.22242Z" fill="#FFC121"/>
</svg>
