<svg width="75" height="75" viewBox="0 0 75 75" fill="none" xmlns="http://www.w3.org/2000/svg">
<path d="M37.5 74C27.8196 74 18.5357 70.1545 11.6906 63.3094C4.84553 56.4643 1 47.1804 1 37.5C1 27.8196 4.84553 18.5357 11.6906 11.6906C18.5357 4.84552 27.8196 1 37.5 1C47.1804 1 56.4643 4.84552 63.3094 11.6906C70.1545 18.5357 74 27.8196 74 37.5C74 47.1804 70.1545 56.4643 63.3094 63.3094C56.4643 70.1545 47.1804 74 37.5 74Z" fill="#182F43" stroke="#182F43" stroke-miterlimit="10"/>
<path d="M51.8027 7.58203C55.225 9.21592 58.3413 11.4253 61.0157 14.1139" stroke="white" stroke-width="0.75" stroke-linecap="round" stroke-linejoin="round"/>
<path d="M16.9512 11.4786C17.7068 10.8782 18.5039 10.3089 19.3321 9.76024C23.7469 6.86495 28.7899 5.06687 34.0407 4.51586C39.2914 3.96486 44.5978 4.6769 49.5175 6.59263" stroke="white" stroke-width="0.75" stroke-linecap="round" stroke-linejoin="round"/>
<path d="M33.462 70.4056C28.6797 69.8189 24.0829 68.196 19.9923 65.6501C15.9016 63.1042 12.4156 59.6965 9.77739 55.6648V55.6648C6.04889 49.9811 4.15921 43.288 4.36476 36.4936C4.57032 29.6992 6.86115 23.1325 10.9264 17.6846" stroke="white" stroke-width="0.75" stroke-linecap="round" stroke-linejoin="round"/>
<path d="M45.719 69.6318C43.5621 70.2012 41.3526 70.5481 39.125 70.667" stroke="white" stroke-width="0.75" stroke-linecap="round" stroke-linejoin="round"/>
<path d="M61.0177 14.1162C62.5905 15.7 64.0051 17.4335 65.2412 19.292V19.292C67.6317 22.9338 69.2804 27.0112 70.0929 31.2909C70.9055 35.5707 70.8659 39.9686 69.9765 44.233C69.0871 48.4975 67.3653 52.5446 64.9096 56.1427C62.454 59.7408 59.3129 62.8192 55.6659 65.2017C53.2715 66.7667 50.6868 68.0191 47.9746 68.9283" stroke="white" stroke-width="0.75" stroke-linecap="round" stroke-linejoin="round"/>
<path d="M21.7578 20.3068C33.3554 20.2993 44.9567 20.333 56.5543 20.3105C55.4767 32.0962 54.3918 43.8819 53.3624 55.6713C48.7818 56.9192 44.2198 58.2346 39.6467 59.5087C39.2134 59.6699 38.7654 59.5687 38.3396 59.445C33.8849 58.1784 29.4266 56.9267 24.9646 55.6901C23.9351 43.8931 22.8169 32.1037 21.7578 20.3068ZM40.1762 27.6105C40.2243 32.7633 40.2651 37.9197 40.3132 43.0762C42.5831 42.679 44.8456 42.2593 47.1155 41.8658C47.0896 43.02 47.0526 44.1705 47.0118 45.3247C44.7271 45.9355 42.4498 46.5651 40.1725 47.1909C40.1947 48.5999 40.2132 50.0052 40.2392 51.4143C43.3978 50.5748 46.5527 49.7279 49.7113 48.8847C50.0334 45.0099 50.3519 41.135 50.6629 37.2564C48.3338 37.5038 46.0046 37.7661 43.6718 37.9984C43.6718 35.9448 43.6681 33.895 43.6718 31.8414C46.1564 31.8339 48.6374 31.8451 51.1184 31.8376C51.2369 30.3949 51.3406 28.9559 51.4257 27.5131C47.6747 27.5431 43.9236 27.5731 40.1762 27.6105ZM34.3811 27.8916C34.3552 33.9475 34.3552 39.9996 34.3367 46.0554C32.1001 45.4521 29.8746 44.8038 27.6381 44.2042C27.6307 45.5795 27.6344 46.9548 27.6455 48.3301C31.0522 49.252 34.4441 50.2113 37.8508 51.1295C37.8508 43.3835 37.8619 35.6338 37.8471 27.8878C36.6917 27.8841 35.5364 27.8841 34.3811 27.8916Z" fill="#FFC121"/>
</svg>
