<svg width="29" height="43" viewBox="0 0 29 43" fill="none" xmlns="http://www.w3.org/2000/svg">
<path d="M27.8978 13.8541C27.7401 10.441 26.2919 7.21513 23.8461 4.82931C21.4002 2.44349 18.1394 1.07583 14.7234 1.00306C11.3074 0.930288 7.9913 2.15784 5.44607 4.43733C2.90083 6.71682 1.31651 9.87805 1.01368 13.2814C0.870001 16.4482 1.86159 19.5623 3.8099 22.0631C5.92992 24.6961 7.11498 27.959 7.17884 31.3388V32.0576H21.7775V31.3388C21.8006 27.9995 22.9523 24.7661 25.0454 22.1641C26.9088 19.7965 27.9143 16.867 27.8978 13.8541Z" fill="#AA4337" stroke="#8E95A7" stroke-miterlimit="10"/>
<path d="M17.4414 34.415H11.5907C10.4123 34.415 9.45703 35.3703 9.45703 36.5487V39.4011C9.45703 40.5794 10.4123 41.5347 11.5907 41.5347H17.4414C18.6198 41.5347 19.5751 40.5794 19.5751 39.4011V36.5487C19.5751 35.3703 18.6198 34.415 17.4414 34.415Z" fill="white" stroke="#8E95A7" stroke-linecap="round" stroke-linejoin="round"/>
<path d="M21.8428 32.0576H7.1543V35.3928H21.8428V32.0576Z" fill="white" stroke="#8E95A7" stroke-linecap="round" stroke-linejoin="round"/>
<path d="M20.3605 38.9969H8.61417L7.1543 35.6504H21.8316L20.3605 38.9969Z" fill="white" stroke="#8E95A7" stroke-linecap="round" stroke-linejoin="round"/>
</svg>
