<svg width="75" height="72" viewBox="0 0 75 72" fill="none" xmlns="http://www.w3.org/2000/svg">
<path d="M41.0094 68C31.9895 68 23.3391 64.4169 16.9611 58.0389C10.5831 51.6609 7 43.0104 7 33.9906C7.00498 24.974 10.5903 16.3284 16.9678 9.95447C23.3452 3.58053 31.9928 -1.37764e-06 41.0094 0C50.0227 0.00498112 58.6655 3.58773 65.0389 9.96112C71.4123 16.3345 74.995 24.9772 75 33.9906C75 43.0072 71.4195 51.6548 65.0455 58.0322C58.6716 64.4097 50.026 67.995 41.0094 68Z" fill="#033757"/>
<g clip-path="url(#clip0_526_4772)">
<path d="M29.153 53.4632L20.3323 44.6493C19.9674 44.2847 19.4265 44.2326 19.123 44.5335L18.7639 44.8993C18.4604 45.2014 18.5126 45.7431 18.8798 46.1077L27.7005 54.9215C28.0653 55.2861 28.6063 55.3371 28.9086 55.0373L29.2735 54.6727C29.5688 54.3683 29.5179 53.8278 29.153 53.4632Z" fill="#AA4337"/>
<path d="M27.5017 55.1131L18.681 46.2992C18.3161 45.9346 17.774 45.8837 17.4717 46.1835L17.1068 46.5481C16.8045 46.8501 16.8566 47.3907 17.2227 47.7553L26.0445 56.5691C26.4094 56.9337 26.9503 56.9847 27.2526 56.6849L27.6164 56.3214C27.914 56.0182 27.8666 55.4777 27.5017 55.1131Z" fill="#AA4337"/>
<path d="M25.852 56.7635L17.0279 47.9496C16.663 47.585 16.122 47.5317 15.8186 47.8338L15.4549 48.1984C15.1525 48.5005 15.2035 49.041 15.5707 49.4056L24.3914 58.2195C24.7563 58.5841 25.2983 58.6362 25.5995 58.3353L25.9644 57.9707C26.269 57.6674 26.2169 57.128 25.852 56.7635Z" fill="#AA4337"/>
<path d="M16.4834 50.6992L23.0986 57.3093C22.004 58.4043 19.5078 57.3695 17.9672 55.8278C16.4266 54.2861 15.3887 51.793 16.4834 50.6992Z" fill="#AA4337"/>
<path d="M41.8064 18.8682C41.8064 18.8682 47.1509 18.8878 51.0557 22.2247C51.0557 22.2247 57.8099 27.6855 54.5735 37.3408C54.5735 37.3408 52.6736 42.1719 47.8344 44.076C47.8344 44.076 39.8071 46.7184 39.309 47.2879L32.7807 50.4731C32.7807 50.4731 30.3169 52.5009 29.3752 51.56L22.636 44.826C22.636 44.826 21.385 43.613 23.2152 41.7842C23.2152 41.7842 26.6716 35.6498 27.1292 33.5294C27.1292 33.5294 30.0991 25.3463 31.839 23.609C31.8436 23.609 34.0143 19.2675 41.8064 18.8682Z" fill="#FFB700"/>
<path d="M23.3266 44.4412C23.8949 44.2516 24.4525 44.0314 24.9969 43.7814C25.8321 43.4111 26.6545 43.0152 27.4676 42.6009C28.4198 42.1147 29.3569 41.602 30.2789 41.0626C31.238 40.5001 32.1797 39.9052 33.0879 39.2651C33.9209 38.6884 34.7089 38.0492 35.4451 37.353C36.0161 36.8033 36.5652 36.1898 36.9185 35.4734C37.1791 34.9433 37.303 34.3298 37.0841 33.7638C36.9161 33.3286 36.6926 32.846 36.1794 32.7684C35.6663 32.6909 35.1369 32.9826 34.7837 33.3472C34.4229 33.7357 34.1468 34.1949 33.9728 34.6956C33.7956 35.1782 33.6798 35.7211 33.7527 36.2361C33.8251 36.6644 33.9912 37.0715 34.2392 37.4283C34.5371 37.8875 34.8995 38.3014 35.3153 38.6575C36.169 39.3878 37.2995 39.8809 38.4266 39.536C39.4506 39.2235 40.4421 38.1945 40.3089 37.0556C40.2939 36.8786 40.2392 36.7073 40.1487 36.5544C40.0583 36.4015 39.9344 36.2709 39.7865 36.1725C39.3602 35.919 38.8239 36.0127 38.3965 36.2176C37.8509 36.4792 37.4698 36.9931 37.1965 37.5139C36.8663 38.1308 36.6092 38.8103 36.5594 39.5128C36.4852 40.5615 36.9381 41.6853 38.0351 41.9805C38.6988 42.1587 39.4066 42.036 40.0402 41.8045C40.8267 41.5203 41.5393 41.063 42.1252 40.4666C42.3649 40.2131 42.7043 39.7466 42.3939 39.4191C42.2464 39.2909 42.0608 39.2148 41.8657 39.2026C41.5881 39.1704 41.3071 39.184 41.034 39.2431C40.2579 39.3948 39.5826 39.757 38.9305 40.1899C38.215 40.6654 37.528 41.1825 36.8733 41.7386C35.6439 42.8031 34.4962 43.9584 33.44 45.1947C32.3766 46.4158 31.3654 47.6797 30.3125 48.9066C29.7843 49.5212 29.2445 50.1254 28.6908 50.7133C28.575 50.8291 28.7881 50.8696 28.8669 50.8673C29.0379 50.8672 29.2029 50.8042 29.3302 50.6902C31.4477 48.4621 33.2628 45.9702 35.3825 43.7456C36.4422 42.6181 37.6057 41.5927 38.8575 40.683C39.1876 40.4457 39.5235 40.2108 39.871 40.0013C40.0169 39.9128 40.1677 39.8328 40.3228 39.7617L40.4618 39.7038C40.4973 39.6891 40.5332 39.6752 40.5695 39.6621C40.5811 39.6621 40.7143 39.6124 40.6529 39.632C40.7201 39.61 40.7884 39.5915 40.8568 39.5742L40.9552 39.551C40.8742 39.5684 40.9784 39.551 40.9877 39.551L41.0803 39.536C41.0896 39.536 41.1892 39.5244 41.1116 39.536C41.1765 39.5302 41.2425 39.5267 41.3074 39.5267C41.3931 39.5267 41.2506 39.5267 41.334 39.5267L41.407 39.5337C41.4232 39.5337 41.5228 39.5556 41.4788 39.5441C41.5515 39.5578 41.6208 39.5857 41.6827 39.6263C41.7331 39.6602 41.773 39.7075 41.7978 39.763C41.8225 39.8185 41.8312 39.8798 41.8228 39.9399C41.7796 40.1331 41.6805 40.3094 41.5379 40.4469C41.2961 40.7003 41.0238 40.9227 40.7271 41.1089C40.4223 41.316 40.0932 41.4848 39.7471 41.6113C39.5244 41.6931 39.2894 41.7369 39.0521 41.7409C38.7167 41.7461 38.3875 41.6507 38.107 41.4668C37.8265 41.2829 37.6078 41.0191 37.4791 40.7096C36.966 39.5892 37.3945 38.2674 37.9783 37.2628C38.1194 37.0112 38.297 36.7818 38.5054 36.5822C38.5274 36.5625 38.5668 36.529 38.6004 36.5023L38.6664 36.4549C38.6722 36.4549 38.7463 36.4028 38.6884 36.4375C38.7301 36.4121 38.7729 36.3901 38.817 36.3681C38.7173 36.4178 38.817 36.3681 38.817 36.3681L38.8598 36.353C38.8019 36.3715 38.7926 36.375 38.8297 36.3646C38.8668 36.3542 38.9235 36.3542 38.8181 36.3646L38.8784 36.3553C38.7417 36.3785 38.9838 36.3669 38.8714 36.3553L38.9652 36.3669C39.0266 36.3762 38.9166 36.3507 38.9757 36.3669C38.9988 36.375 39.022 36.3808 39.0452 36.3901C39.1053 36.4086 39.1612 36.4389 39.2096 36.4792C39.2748 36.528 39.3332 36.5852 39.3834 36.6493C39.4837 36.7909 39.5548 36.951 39.5928 37.1203C39.6308 37.2895 39.6348 37.4646 39.6046 37.6355C39.5188 38.1245 39.2746 38.5718 38.9096 38.9086C38.8195 38.9944 38.7218 39.0719 38.6177 39.1401C38.6583 39.1135 38.5714 39.1667 38.5749 39.1656L38.4926 39.2096C38.4857 39.2096 38.3942 39.2547 38.4625 39.2246C38.4254 39.2408 38.3884 39.2547 38.3467 39.2686C38.2552 39.3056 38.4208 39.2512 38.327 39.2755L38.2413 39.2987C38.1486 39.3242 38.3177 39.2906 38.2227 39.2987C38.1938 39.2987 38.1648 39.3068 38.137 39.3126C38.1092 39.3184 38.0722 39.3195 38.137 39.3126L38.0501 39.3184H37.9644H37.9065C37.9343 39.3184 37.9308 39.3184 37.8961 39.3184C37.4158 39.2712 36.9547 39.1062 36.5536 38.838C35.737 38.3241 34.9864 37.5336 34.6111 36.6389C34.2497 35.7731 34.4952 34.7963 34.9331 34.0023C35.0455 33.7925 35.1811 33.5961 35.3373 33.4166C35.3948 33.3515 35.4559 33.2897 35.5204 33.2314C35.5543 33.2036 35.5891 33.177 35.6246 33.1516C35.6431 33.1377 35.6628 33.1249 35.6825 33.1122C35.6153 33.155 35.7011 33.1053 35.7126 33.0983C35.7763 33.0578 35.642 33.1261 35.7126 33.0983C35.7416 33.0867 35.8018 33.0775 35.6976 33.0983C35.7289 33.0914 35.7868 33.0891 35.6802 33.0983C35.7161 33.0983 35.7509 33.1041 35.6698 33.0983C35.6883 33.0983 35.7092 33.0925 35.7265 33.0983C35.6397 33.0786 35.7138 33.0983 35.7265 33.0983C35.7879 33.1168 35.6779 33.081 35.7393 33.0983C35.7641 33.1052 35.7885 33.1138 35.8123 33.1238C35.9699 33.2118 36.0989 33.3432 36.1841 33.5023C36.3456 33.7605 36.446 34.0522 36.4775 34.3551C36.509 34.658 36.4709 34.9641 36.3659 35.25C36.1343 35.8958 35.7103 36.4283 35.2412 36.9341C34.6286 37.5773 33.9603 38.1652 33.2442 38.691C31.6064 39.9283 29.892 40.948 28.0827 41.918C27.2672 42.3555 26.4421 42.7722 25.6074 43.168C25.4298 43.2521 25.2521 43.3347 25.0745 43.4157L25.0108 43.4446C25.0965 43.4064 25.0224 43.4446 25.0108 43.4446L24.8869 43.5002L24.6274 43.6159C24.3448 43.7398 24.061 43.8602 23.7749 43.9724C23.6683 44.0152 23.5606 44.0558 23.4529 44.0951C23.4042 44.1136 23.3556 44.131 23.3069 44.1472L23.2397 44.1703C23.1505 44.2004 23.3289 44.1414 23.2583 44.1703C23.1876 44.1993 22.9166 44.2699 22.9455 44.4018C22.9745 44.5338 23.2664 44.4667 23.3312 44.4458L23.3266 44.4412Z" fill="#033757"/>
<path d="M8.85144 71.183C8.79445 71.2173 8.72879 71.2346 8.66226 71.2328C8.59573 71.2309 8.53113 71.21 8.47614 71.1725C8.41985 71.1372 8.37322 71.0885 8.34047 71.0307C8.30771 70.9729 8.28985 70.9079 8.28849 70.8415C8.29715 69.8224 8.51888 68.8163 8.93947 67.8877C4.02931 71.933 0.542735 72.0001 0.377094 72.0001H0.355086C0.295433 71.9945 0.237778 71.9757 0.186293 71.945C0.134808 71.9144 0.0907799 71.8727 0.0573949 71.823C0.0239729 71.7668 0.00453088 71.7034 0.000701317 71.6382C-0.00312824 71.5729 0.00876643 71.5077 0.0353866 71.448C0.973634 69.5637 3.2903 66.8727 4.96756 65.0416C3.98708 65.4307 2.97583 65.7373 1.94432 65.9583C1.87284 65.974 1.79836 65.9688 1.72975 65.9434C1.66114 65.9179 1.60132 65.8733 1.55743 65.8148C1.51484 65.7565 1.48926 65.6876 1.48354 65.6156C1.47781 65.5437 1.49217 65.4716 1.525 65.4074C6.07145 56.2555 12.8349 55.3967 13.1222 55.3631C13.1786 55.3561 13.2358 55.3624 13.2893 55.3815C13.3428 55.4006 13.3911 55.432 13.4303 55.4731L13.9504 55.9916C13.055 56.5206 11.9639 57.4905 11.0801 59.266C11.0683 59.2904 11.0631 59.3175 11.0652 59.3445C11.0672 59.3715 11.0763 59.3976 11.0917 59.4199C11.1077 59.4421 11.1297 59.4592 11.1552 59.4692C11.1806 59.4793 11.2084 59.4818 11.2353 59.4766C11.6338 59.3894 12.0249 59.2713 12.4052 59.1236C11.7531 59.8297 10.86 60.8771 10.4963 61.6052C10.484 61.6274 10.4785 61.6526 10.4803 61.6779C10.4822 61.7032 10.4913 61.7274 10.5067 61.7475C10.5173 61.7688 10.5339 61.7865 10.5545 61.7985C10.5751 61.8104 10.5988 61.816 10.6225 61.8147H10.6341C10.7001 61.8147 12.0461 61.7915 13.9562 60.2151C13.7926 60.5757 13.7059 60.9663 13.7014 61.3621C13.7015 61.3876 13.7089 61.4126 13.7226 61.4341C13.7364 61.4556 13.7559 61.4727 13.779 61.4836C13.8005 61.4972 13.8254 61.5044 13.8508 61.5044C13.8762 61.5044 13.9011 61.4972 13.9226 61.4836C14.0327 61.4177 15.9856 60.3586 16.9563 58.9697L17.971 59.9732C18.033 60.0315 18.0738 60.1089 18.0868 60.1931C18.8803 65.6921 9.26612 70.963 8.85144 71.183Z" fill="#F8AB0F"/>
<path d="M39.2942 24.0671C38.5992 24 35.1034 23.9143 34.0134 28.8473C33.9978 28.9328 33.9652 29.0144 33.9174 29.087C33.8697 29.1597 33.8078 29.222 33.7354 29.2703C33.6631 29.3186 33.5817 29.3518 33.4963 29.3681C33.4108 29.3843 33.3229 29.3832 33.2379 29.3648C33.1529 29.3463 33.0724 29.311 33.0013 29.2609C32.9302 29.2108 32.8699 29.1469 32.8241 29.073C32.7782 28.9992 32.7476 28.9168 32.7343 28.8309C32.7209 28.745 32.725 28.6573 32.7462 28.573C34.0736 22.5705 38.5378 22.6967 39.4205 22.7858C39.5915 22.8025 39.7488 22.8865 39.8578 23.0191C39.9669 23.1517 40.0187 23.3222 40.002 23.493C39.9852 23.6638 39.9013 23.821 39.7685 23.93C39.6358 24.039 39.4652 24.0908 39.2942 24.074V24.0671Z" fill="white"/>
<path d="M58.4495 47.7868L55.2293 44.5703C55.1355 44.4765 55.0082 44.4238 54.8754 44.4238C54.7427 44.4238 54.6154 44.4765 54.5216 44.5703C54.4277 44.6641 54.375 44.7913 54.375 44.9239C54.375 45.0565 54.4277 45.1837 54.5216 45.2775L57.7394 48.4917C57.833 48.5858 57.9601 48.6389 58.0928 48.6393C58.1585 48.6395 58.2237 48.6268 58.2845 48.6019C58.3453 48.5769 58.4005 48.5403 58.4472 48.494C58.4938 48.4477 58.5308 48.3927 58.5562 48.3321C58.5815 48.2715 58.5947 48.2066 58.5949 48.1409C58.5951 48.0752 58.5824 48.0102 58.5574 47.9494C58.5325 47.8887 58.4958 47.8334 58.4495 47.7868Z" fill="#F8AB0F" stroke="#F8AB0F" stroke-width="1.5" stroke-miterlimit="10"/>
<path d="M59.3769 37.3984C59.4393 37.4603 59.5167 37.505 59.6016 37.528L64.0033 38.6854C64.1315 38.7195 64.2681 38.7013 64.3829 38.6347C64.4977 38.5682 64.5813 38.4588 64.6154 38.3307C64.6495 38.2025 64.6313 38.0661 64.5647 37.9513C64.4981 37.8366 64.3887 37.753 64.2604 37.719L59.8588 36.5615C59.7524 36.5334 59.6398 36.5411 59.5383 36.5834C59.4367 36.6258 59.352 36.7003 59.2971 36.7956C59.2423 36.8908 59.2204 37.0015 59.2348 37.1105C59.2492 37.2194 59.2991 37.3206 59.3769 37.3984Z" fill="#F8AB0F" stroke="#F8AB0F" stroke-width="1.5" stroke-miterlimit="10"/>
<path d="M60.2204 27.5431C60.2451 27.6267 60.2905 27.7027 60.3525 27.7641C60.4149 27.8264 60.4926 27.871 60.5779 27.8936C60.6631 27.9162 60.7528 27.9158 60.8378 27.8926L65.2302 26.6923C65.2935 26.6752 65.3528 26.6457 65.4046 26.6056C65.4565 26.5656 65.5 26.5157 65.5326 26.4588C65.5652 26.402 65.5863 26.3393 65.5946 26.2743C65.6029 26.2093 65.5984 26.1433 65.5812 26.0801C65.564 26.0168 65.5345 25.9576 65.4944 25.9058C65.4543 25.8539 65.4044 25.8105 65.3475 25.7779C65.2906 25.7453 65.2278 25.7243 65.1628 25.716C65.0977 25.7076 65.0317 25.7122 64.9684 25.7294L60.5749 26.9285C60.5112 26.9455 60.4515 26.9749 60.3992 27.0151C60.3469 27.0552 60.303 27.1052 60.2701 27.1623C60.2372 27.2194 60.2159 27.2824 60.2073 27.3478C60.1988 27.4131 60.2033 27.4795 60.2204 27.5431V27.5431Z" fill="#F8AB0F" stroke="#F8AB0F" stroke-width="1.5" stroke-miterlimit="10"/>
<path d="M37.0981 12.754L35.9398 8.35579C35.9058 8.22778 35.8224 8.11849 35.7078 8.05196C35.5932 7.98543 35.4568 7.96711 35.3287 8.00103C35.2006 8.03495 35.0913 8.11834 35.0247 8.23284C34.9581 8.34734 34.9398 8.48357 34.9737 8.61158L36.132 13.0098C36.1539 13.0952 36.1983 13.1732 36.2606 13.2355C36.3384 13.3132 36.4397 13.3631 36.5487 13.3775C36.6578 13.3919 36.7685 13.37 36.8639 13.3152C36.9592 13.2604 37.0338 13.1757 37.0762 13.0743C37.1185 12.9729 37.1262 12.8603 37.0981 12.754V12.754Z" fill="#F8AB0F" stroke="#F8AB0F" stroke-width="1.5" stroke-miterlimit="10"/>
<path d="M48.7485 54.1173L47.5901 49.7191C47.5733 49.6557 47.5442 49.5962 47.5044 49.5441C47.4646 49.492 47.4149 49.4482 47.3582 49.4152C47.3014 49.3823 47.2387 49.3608 47.1737 49.3521C47.1087 49.3434 47.0426 49.3475 46.9791 49.3643C46.9157 49.3811 46.8562 49.4102 46.804 49.45C46.7518 49.4898 46.708 49.5394 46.6751 49.5961C46.6421 49.6528 46.6206 49.7154 46.6119 49.7804C46.6031 49.8454 46.6073 49.9115 46.6241 49.9749L47.7824 54.3731C47.8046 54.4581 47.8489 54.5356 47.911 54.5977C47.9888 54.6751 48.0899 54.7249 48.1987 54.7393C48.3076 54.7536 48.4181 54.7318 48.5134 54.6772C48.6086 54.6226 48.6832 54.5382 48.7257 54.437C48.7682 54.3358 48.7762 54.2235 48.7485 54.1173V54.1173Z" fill="#F8AB0F" stroke="#F8AB0F" stroke-width="1.5" stroke-miterlimit="10"/>
<path d="M24.4258 24.9109L20.0242 23.7535C19.8984 23.7263 19.7671 23.7486 19.6573 23.8156C19.5476 23.8827 19.4679 23.9894 19.4348 24.1136C19.4017 24.2378 19.4178 24.37 19.4796 24.4827C19.5415 24.5954 19.6444 24.6799 19.767 24.7188L24.1687 25.8762C24.2944 25.9034 24.4258 25.8812 24.5355 25.8141C24.6453 25.7471 24.7249 25.6404 24.758 25.5161C24.7911 25.3919 24.7751 25.2598 24.7132 25.1471C24.6513 25.0344 24.5484 24.9498 24.4258 24.9109V24.9109Z" fill="#F8AB0F" stroke="#F8AB0F" stroke-width="1.5" stroke-miterlimit="10"/>
<path d="M46.6313 12.7423C46.6107 12.8066 46.6033 12.8745 46.6096 12.9417C46.616 13.009 46.6359 13.0743 46.6682 13.1337C46.7004 13.193 46.7444 13.2452 46.7975 13.2871C46.8505 13.329 46.9115 13.3598 46.9768 13.3775C47.0421 13.3952 47.1102 13.3995 47.1772 13.3901C47.2442 13.3807 47.3085 13.3579 47.3664 13.323C47.4243 13.288 47.4745 13.2418 47.514 13.1869C47.5535 13.1321 47.5815 13.0698 47.5962 13.0038L48.7962 8.61484C48.8135 8.55161 48.8181 8.4856 48.8099 8.42058C48.8016 8.35556 48.7806 8.2928 48.7481 8.23589C48.7155 8.17898 48.6721 8.12903 48.6202 8.0889C48.5684 8.04876 48.5091 8.01923 48.4458 8.00197C48.3826 7.98472 48.3165 7.98009 48.2514 7.98835C48.1864 7.99661 48.1235 8.0176 48.0666 8.05011C48.0096 8.08262 47.9597 8.12602 47.9195 8.17784C47.8793 8.22965 47.8498 8.28887 47.8325 8.3521L46.6313 12.7423Z" fill="#F8AB0F" stroke="#F8AB0F" stroke-width="1.5" stroke-miterlimit="10"/>
<path d="M55.4946 18.9502C55.541 18.9966 55.5961 19.0334 55.6567 19.0585C55.7173 19.0836 55.7823 19.0966 55.8479 19.0966C55.9136 19.0966 55.9785 19.0836 56.0392 19.0585C56.0998 19.0334 56.1549 18.9966 56.2012 18.9502L59.4225 15.7302C59.5162 15.6366 59.5689 15.5096 59.5689 15.3772C59.5689 15.2448 59.5162 15.1178 59.4225 15.0242C59.3288 14.9305 59.2018 14.8779 59.0693 14.8779C58.9367 14.8779 58.8097 14.9305 58.716 15.0242L55.4946 18.2441C55.4481 18.2904 55.4111 18.3454 55.3859 18.406C55.3606 18.4666 55.3477 18.5315 55.3477 18.5972C55.3477 18.6628 55.3606 18.7278 55.3859 18.7883C55.4111 18.8489 55.4481 18.9039 55.4946 18.9502V18.9502Z" fill="#F8AB0F" stroke="#F8AB0F" stroke-width="1.5" stroke-miterlimit="10"/>
<path d="M29.3171 17.9614C29.3637 17.9152 29.4006 17.8602 29.4259 17.7996C29.4511 17.739 29.4641 17.674 29.4641 17.6084C29.4641 17.5428 29.4511 17.4778 29.4259 17.4172C29.4006 17.3566 29.3637 17.3016 29.3171 17.2554L26.1004 14.04C26.0066 13.9462 25.8793 13.8936 25.7465 13.8936C25.6138 13.8936 25.4865 13.9462 25.3927 14.04C25.2988 14.1338 25.2461 14.261 25.2461 14.3936C25.2461 14.5262 25.2988 14.6534 25.3927 14.7472L28.6105 17.9614C28.6568 18.008 28.7118 18.0449 28.7725 18.0701C28.8331 18.0953 28.8981 18.1083 28.9638 18.1083C29.0295 18.1083 29.0945 18.0953 29.1551 18.0701C29.2158 18.0449 29.2708 18.008 29.3171 17.9614V17.9614Z" fill="#F8AB0F" stroke="#F8AB0F" stroke-width="1.5" stroke-miterlimit="10"/>
</g>
<defs>
<clipPath id="clip0_526_4772">
<rect width="67" height="65" fill="white" transform="translate(0 7)"/>
</clipPath>
</defs>
</svg>
