<svg width="52" height="52" viewBox="0 0 52 52" fill="none" xmlns="http://www.w3.org/2000/svg">
<path d="M26 52C40.3594 52 52 40.3594 52 26C52 11.6406 40.3594 0 26 0C11.6406 0 0 11.6406 0 26C0 40.3594 11.6406 52 26 52Z" fill="#182F43"/>
<path d="M42.6699 24.0651C42.9255 24.0453 43.1823 24.0453 43.4379 24.0651C44.2056 24.0651 44.9418 23.7601 45.4846 23.2173C46.0274 22.6745 46.3323 21.9383 46.3323 21.1706C46.3323 20.403 46.0274 19.6668 45.4846 19.124C44.9418 18.5812 44.2056 18.2762 43.4379 18.2762H32.4718C32.4718 18.2762 33.1403 14.3222 33.1403 12.9709C33.1403 11.6197 33.823 9.5716 32.0167 6.96876C30.2103 4.36591 26.0287 5.39001 26.0287 5.39001L26.6545 10.7664C26.7546 11.6091 26.5959 12.4624 26.1994 13.2128L21.2782 22.4578L19.0167 24.3922L18.334 35.7707C19.7563 39.2696 24.4357 40.4075 24.4357 40.4075H39.2705C40.0523 40.4271 40.8108 40.1408 41.3846 39.6094C41.9584 39.0781 42.3022 38.3438 42.3427 37.5629C42.3372 37.0689 42.2032 36.5848 41.9538 36.1583C41.7044 35.7318 41.3483 35.3777 40.9204 35.1307C41.1094 35.1525 41.3003 35.1525 41.4893 35.1307C42.2721 35.154 43.0327 34.8688 43.6073 34.3368C44.1819 33.8047 44.5246 33.0683 44.5615 32.2861C44.5512 31.7969 44.4149 31.3187 44.1657 30.8976C43.9165 30.4765 43.563 30.1269 43.1392 29.8824C43.8323 29.7879 44.4692 29.4498 44.9357 28.9286C45.4022 28.4074 45.6679 27.737 45.6852 27.0377C45.6833 26.6443 45.6038 26.2551 45.451 25.8925C45.2983 25.5298 45.0754 25.201 44.7953 24.9248C44.5151 24.6485 44.1831 24.4304 43.8183 24.2828C43.4536 24.1353 43.0633 24.0613 42.6699 24.0651Z" fill="white"/>
<path d="M39.2419 40.8351H24.3075C24.1084 40.8351 19.429 39.5977 17.8929 35.9281C17.8795 35.8624 17.8795 35.7946 17.8929 35.729L18.5756 24.3504C18.5761 24.2877 18.5903 24.2259 18.6174 24.1694C18.6444 24.1129 18.6836 24.063 18.7321 24.0233L20.9224 22.1601L25.8152 12.9861C26.1712 12.3145 26.3151 11.5507 26.2277 10.7957L25.5876 5.43357C25.5739 5.32321 25.601 5.21163 25.6639 5.11992C25.7268 5.0282 25.8211 4.96269 25.929 4.93574C26.1139 4.93574 30.4377 3.88321 32.4005 6.69941C33.5161 8.27018 33.9707 10.216 33.6664 12.1184C33.6664 12.4171 33.6664 12.7016 33.6664 12.9576C33.5559 14.584 33.3565 16.2031 33.069 17.8077H43.5089H43.6653C44.5537 17.8221 45.4021 18.1796 46.033 18.8052C46.664 19.4308 47.0285 20.2762 47.0504 21.1644C47.0416 21.8478 46.8245 22.5121 46.428 23.0688C46.0315 23.6254 45.4746 24.0477 44.8316 24.2793C45.2717 24.5823 45.6313 24.9881 45.8792 25.4615C46.127 25.9349 46.2556 26.4616 46.2539 26.9959C46.2472 27.6498 46.048 28.2871 45.6812 28.8284C45.3144 29.3697 44.7963 29.791 44.1916 30.0397C44.7537 30.6366 45.0688 31.4244 45.0734 32.2443C45.0546 33.0521 44.7498 33.8271 44.2133 34.4313C43.6768 35.0355 42.9434 35.4298 42.1434 35.544C42.586 36.108 42.8265 36.8042 42.8262 37.5211C42.8097 37.9744 42.7038 38.4201 42.5145 38.8323C42.3252 39.2446 42.0562 39.6154 41.7231 39.9234C41.3901 40.2314 40.9994 40.4705 40.5735 40.6269C40.1477 40.7834 39.6952 40.8541 39.2419 40.8351ZM24.4925 39.9248H39.2704C39.9409 39.944 40.5919 39.6979 41.082 39.2398C41.572 38.7817 41.8615 38.1487 41.8874 37.4784C41.8824 37.0645 41.7712 36.6589 41.5645 36.3003C41.3578 35.9416 41.0625 35.6421 40.7069 35.4303C40.6169 35.3768 40.549 35.293 40.5151 35.194C40.4812 35.095 40.4836 34.9872 40.522 34.8898C40.5574 34.7908 40.6271 34.7078 40.7183 34.6556C40.8096 34.6035 40.9165 34.5856 41.0198 34.6054H41.5176C42.1882 34.6246 42.8392 34.3784 43.3292 33.9203C43.8193 33.4622 44.1087 32.8293 44.1347 32.159C44.1305 31.7521 44.0225 31.353 43.8209 30.9995C43.6192 30.6461 43.3307 30.3499 42.9826 30.1392C42.9049 30.0913 42.844 30.0204 42.8083 29.9363C42.7727 29.8522 42.764 29.7591 42.7835 29.6699C42.8022 29.5803 42.8475 29.4985 42.9135 29.435C42.9795 29.3716 43.063 29.3295 43.1533 29.3143C43.7396 29.2339 44.2785 28.9483 44.6743 28.5082C45.0701 28.0682 45.2972 27.5022 45.3152 26.9106C45.3042 26.5781 45.2277 26.2509 45.0902 25.948C44.9527 25.645 44.7568 25.3721 44.5137 25.1449C44.2707 24.9177 43.9853 24.7407 43.6737 24.6239C43.3622 24.507 43.0306 24.4528 42.6981 24.4642C42.5824 24.457 42.4738 24.4058 42.3945 24.3212C42.3153 24.2366 42.2712 24.125 42.2714 24.0091C42.2714 23.5112 42.6839 23.5112 43.5089 23.5112C43.8449 23.5369 44.1825 23.4929 44.5007 23.382C44.8189 23.271 45.1107 23.0955 45.3579 22.8665C45.6051 22.6375 45.8023 22.3599 45.9372 22.0511C46.0721 21.7423 46.1416 21.4089 46.1416 21.072C46.1416 20.735 46.0721 20.4017 45.9372 20.0929C45.8023 19.7841 45.6051 19.5064 45.3579 19.2774C45.1107 19.0484 44.8189 18.8729 44.5007 18.7619C44.1825 18.651 43.8449 18.607 43.5089 18.6327H43.3524H32.5428C32.4759 18.6326 32.4098 18.6186 32.3486 18.5917C32.2874 18.5648 32.2324 18.5255 32.1872 18.4762C32.147 18.4242 32.1175 18.3648 32.1004 18.3013C32.0834 18.2378 32.079 18.1716 32.0876 18.1064C32.405 16.3746 32.6329 14.6276 32.7704 12.8723C32.7704 12.5736 32.7704 12.2749 32.7704 11.9478C32.9115 11.1106 32.8861 10.2539 32.6958 9.4265C32.5054 8.59914 32.1538 7.81743 31.661 7.12613C30.3524 5.26289 27.5647 5.49046 26.5406 5.70381L27.1238 10.6535C27.2342 11.59 27.0555 12.538 26.6117 13.3701L21.6905 22.6152C21.6607 22.6685 21.6222 22.7166 21.5767 22.7574L19.4717 24.5495L18.8032 35.6721C20.0975 38.6305 23.9804 39.7968 24.4925 39.9248Z" fill="#182F43"/>
<path d="M17.2944 20.127H11.4344C9.75339 20.127 8.39062 21.4897 8.39062 23.1707V39.1292C8.39062 40.8102 9.75339 42.1729 11.4344 42.1729H17.2944C18.9754 42.1729 20.3381 40.8102 20.3381 39.1292V23.1707C20.3381 21.4897 18.9754 20.127 17.2944 20.127Z" fill="#AA4337" stroke="#182F43" stroke-linecap="round" stroke-linejoin="round"/>
</svg>
