<svg width="27" height="27" viewBox="0 0 27 27" fill="none" xmlns="http://www.w3.org/2000/svg">
<path d="M14.9439 11.4195V11.3867C14.9371 11.3975 14.9284 11.409 14.9219 11.4195H14.9439Z" fill="#FBFBFF"/>
<path d="M13.5 0C6.04423 0 0 6.04423 0 13.5C0 20.9558 6.04423 27 13.5 27C20.9558 27 27 20.9558 27 13.5C27 6.04423 20.9558 0 13.5 0ZM9.88518 19.7945H6.62872V9.99797H9.88518V19.7945ZM8.25709 8.66117H8.23519C7.14286 8.66117 6.43489 7.90803 6.43489 6.96764C6.43489 6.00645 7.16394 5.27522 8.27844 5.27522C9.39295 5.27522 10.0782 6.00617 10.0995 6.96764C10.0995 7.90831 9.39322 8.66117 8.25709 8.66117ZM21.6295 19.7945H18.3728V14.5532C18.3728 13.2366 17.9016 12.3381 16.7231 12.3381C15.8232 12.3381 15.2877 12.9437 15.052 13.5296C14.966 13.739 14.9438 14.0306 14.9438 14.3235V19.7945H11.686C11.686 19.7945 11.7298 10.9176 11.686 9.99797H14.9433V11.3865C15.3761 10.7199 16.149 9.76773 17.8789 9.76773C20.0222 9.76773 21.629 11.1678 21.629 14.177V19.7945H21.6295Z" fill="#FBFBFF"/>
</svg>
