<svg width="41" height="56" viewBox="0 0 41 56" fill="none" xmlns="http://www.w3.org/2000/svg">
<path d="M20.5 55.2161C20.3671 55.0545 20.2017 54.8524 20.0072 54.6131C19.4485 53.9254 18.6498 52.9299 17.6912 51.7C15.7736 49.2397 13.2178 45.8438 10.663 42.0992C8.10699 38.3529 5.55852 34.2672 3.65095 30.4259C1.73463 26.567 0.5 23.0221 0.5 20.3363C0.5 17.7319 1.01709 15.1529 2.02185 12.7466C3.02663 10.3402 4.49947 8.1535 6.35646 6.31134C8.21345 4.46918 10.4182 3.00769 12.845 2.0105C15.2718 1.01331 17.873 0.5 20.5 0.5C25.8056 0.5 30.8932 2.59086 34.6436 6.31134C38.3939 10.0317 40.5 15.0767 40.5 20.3363C40.5 23.0221 39.2654 26.567 37.3491 30.4259C35.4415 34.2672 32.893 38.3529 30.337 42.0992C27.7822 45.8438 25.2264 49.2397 23.3088 51.7C22.3502 52.9299 21.5515 53.9254 20.9928 54.6131C20.7983 54.8524 20.6329 55.0545 20.5 55.2161ZM14.1965 30.2882C16.0627 31.5252 18.2563 32.1851 20.5 32.1851C21.9898 32.1851 23.4651 31.8941 24.8417 31.3284C26.2183 30.7628 27.4693 29.9336 28.5233 28.888C29.5773 27.8424 30.4136 26.6009 30.9843 25.2342C31.5549 23.8675 31.8487 22.4026 31.8487 20.9231C31.8487 18.6948 31.1826 16.5168 29.9351 14.6647C28.6876 12.8126 26.9149 11.3696 24.8417 10.5177C22.7684 9.66584 20.4874 9.443 18.2867 9.87724C16.0861 10.3115 14.0641 11.3835 12.4767 12.9582C10.8892 14.533 9.80773 16.5398 9.36953 18.7252C8.93133 20.9106 9.15625 23.1758 10.0157 25.2342C10.8752 27.2925 12.3303 29.0512 14.1965 30.2882Z" fill="#AA4337" stroke="#182F43"/>
</svg>
