<svg width="320" height="72" viewBox="0 0 320 72" fill="none" xmlns="http://www.w3.org/2000/svg">
<path d="M20 0.5H70.6114V51.1114C70.6114 61.881 61.881 70.6114 51.1114 70.6114H15C6.99188 70.6114 0.5 64.1196 0.5 56.1114V20C0.5 9.23046 9.23045 0.5 20 0.5Z" fill="#D5D7E9"/>
<path d="M20 0.5H70.6114V51.1114C70.6114 61.881 61.881 70.6114 51.1114 70.6114H15C6.99188 70.6114 0.5 64.1196 0.5 56.1114V20C0.5 9.23046 9.23045 0.5 20 0.5Z" fill="#F4F5FF"/>
<path d="M20 0.5H70.6114V51.1114C70.6114 61.881 61.881 70.6114 51.1114 70.6114H15C6.99188 70.6114 0.5 64.1196 0.5 56.1114V20C0.5 9.23046 9.23045 0.5 20 0.5Z" fill="url(#paint0_radial_1536_5696)" fill-opacity="0.5"/>
<path d="M20 0.5H70.6114V51.1114C70.6114 61.881 61.881 70.6114 51.1114 70.6114H15C6.99188 70.6114 0.5 64.1196 0.5 56.1114V20C0.5 9.23046 9.23045 0.5 20 0.5Z" fill="url(#paint1_radial_1536_5696)" fill-opacity="0.7"/>
<path d="M20 0.5H70.6114V51.1114C70.6114 61.881 61.881 70.6114 51.1114 70.6114H15C6.99188 70.6114 0.5 64.1196 0.5 56.1114V20C0.5 9.23046 9.23045 0.5 20 0.5Z" stroke="#747AA2"/>
<path d="M33.8203 37.2905L13.8744 52.0331V46.8849L17.4412 44.0767V30.0362L14.4689 27.6961V22.5479L33.8203 33.118V37.2905ZM20.7388 32.3763V41.2686L26.9527 37.0565L20.7388 32.3763Z" fill="white" stroke="#747AA2"/>
<path d="M36.4238 37.2905L46.2638 44.5448L56.3697 52.0331V46.8849L52.8029 44.0767V30.0362L55.7753 27.6961V22.5479L36.4238 33.118V37.2905ZM49.5053 32.3763V41.2686L43.2915 37.0565L49.5053 32.3763Z" fill="white" stroke="#747AA2"/>
<path d="M116.551 55.6879H85.8535V18.2119H116.551V25.3465H94.292V33.056H113.076V39.9031H94.292V48.5795H116.551V55.6879Z" fill="#747AA1"/>
<path d="M140.037 42.7778H132.226V55.6879H123.787V18.2119H139.828C145.14 18.2119 149.024 19.205 151.48 21.1912C153.953 23.1599 155.19 26.2176 155.19 30.3642C155.19 31.9496 154.963 33.4306 154.51 34.807C154.075 36.1659 153.509 37.2374 152.812 38.0214C151.419 39.572 150.217 40.539 149.207 40.9223L148.502 41.1314L157.802 55.6879H148.293L140.037 42.7778ZM146.359 30.521C146.359 27.0539 144.182 25.329 139.828 25.3465H132.226V35.6694H139.828C142.04 35.6694 143.677 35.2512 144.74 34.4149C145.82 33.5787 146.359 32.2807 146.359 30.521Z" fill="#747AA1"/>
<path d="M174.261 18.2119H185.103L200.203 55.6879H191.321L188.682 49.2067H170.604L168.043 55.6879H159.161L174.261 18.2119ZM173.399 42.3597H185.913L179.93 26.5748H179.382L173.399 42.3597Z" fill="#747AA1"/>
<path d="M221.031 19.0791H231.54L246.177 55.502H237.567L235.009 49.2029H217.486L215.004 55.502H206.395L221.031 19.0791ZM220.196 42.5483H232.325L226.526 27.207H225.994L220.196 42.5483Z" fill="#FBFBFF"/>
<path d="M265.549 46.0788H258.484V55.502H250.304V19.0791H265.549C275.982 19.0791 281.198 23.5918 281.198 32.6171C281.198 41.5916 275.982 46.0788 265.549 46.0788ZM272.665 32.6171C272.665 28.2145 270.293 26.0132 265.549 26.0132H258.484V39.1701H265.549C270.293 39.1701 272.665 36.9858 272.665 32.6171Z" fill="#FBFBFF"/>
<path d="M303.483 46.0788H296.418V55.502H288.238V19.0791H303.483C313.916 19.0791 319.132 23.5918 319.132 32.6171C319.132 41.5916 313.916 46.0788 303.483 46.0788ZM310.598 32.6171C310.598 28.2145 308.226 26.0132 303.483 26.0132H296.418V39.1701H303.483C308.226 39.1701 310.598 36.9858 310.598 32.6171Z" fill="#FBFBFF"/>
<path fill-rule="evenodd" clip-rule="evenodd" d="M220.797 18.2119H232.411L247.681 56.3693H237.283L234.733 50.0639H218.405L215.932 56.3693H205.527L220.797 18.2119ZM221.935 19.9099L208.024 54.6713H214.785L217.259 48.3659H235.867L238.417 54.6713H245.184L231.273 19.9099H221.935ZM249.704 18.2119H265.743C271.045 18.2119 275.179 19.3606 277.993 21.8059C280.832 24.2718 282.186 27.9289 282.186 32.6124C282.186 37.272 280.831 40.9105 277.992 43.3633C275.177 45.7946 271.044 46.9366 265.743 46.9366H259.543V56.3693H249.704V18.2119ZM251.39 19.9099V54.6713H257.857V45.2387H265.743C270.842 45.2387 274.509 44.1347 276.894 42.0744C279.255 40.0354 280.5 36.9363 280.5 32.6124C280.5 28.2615 279.254 25.1429 276.892 23.0917C274.507 21.0197 270.841 19.9099 265.743 19.9099H251.39ZM287.517 18.2119H303.557C308.858 18.2119 312.992 19.3606 315.807 21.8059C318.646 24.2718 319.999 27.9289 319.999 32.6124C319.999 37.272 318.645 40.9105 315.805 43.3633C312.99 45.7946 308.857 46.9366 303.557 46.9366H297.357V56.3693H287.517V18.2119ZM289.203 19.9099V54.6713H295.671V45.2387H303.557C308.656 45.2387 312.323 44.1347 314.708 42.0744C317.068 40.0354 318.314 36.9363 318.314 32.6124C318.314 28.2615 317.067 25.1429 314.706 23.0917C312.321 21.0197 308.655 19.9099 303.557 19.9099H289.203ZM257.857 25.1529H265.743C268.222 25.1529 270.238 25.7291 271.635 27.0314C273.045 28.3452 273.679 30.2604 273.679 32.6124C273.679 34.9493 273.044 36.8526 271.633 38.1575C270.235 39.4498 268.22 40.021 265.743 40.021H257.857V25.1529ZM259.543 26.8509V38.3231H265.743C267.994 38.3231 269.526 37.801 270.493 36.9068C271.446 36.0251 271.993 34.6486 271.993 32.6124C271.993 30.5574 271.445 29.1674 270.49 28.2777C269.523 27.3765 267.993 26.8509 265.743 26.8509H259.543ZM295.671 25.1529H303.557C306.035 25.1529 308.051 25.7291 309.449 27.0314C310.859 28.3452 311.493 30.2604 311.493 32.6124C311.493 34.9493 310.858 36.8526 309.446 38.1575C308.049 39.4498 306.034 40.021 303.557 40.021H295.671V25.1529ZM297.357 26.8509V38.3231H303.557C305.808 38.3231 307.339 37.801 308.306 36.9068C309.26 36.0251 309.807 34.6486 309.807 32.6124C309.807 30.5574 309.259 29.1674 308.304 28.2777C307.337 27.3765 305.807 26.8509 303.557 26.8509H297.357ZM225.732 26.3479H227.426L233.845 43.4025H219.312L225.732 26.3479ZM226.579 28.8875L221.754 41.7046H231.403L226.579 28.8875Z" fill="#747AA1"/>
<path d="M33.8203 32.7205L13.8744 47.6971V42.5489L17.3943 39.7408V25.7002L14.4611 23.3601V18.2119L33.8203 32.7205ZM20.6485 28.0403V36.9327L26.7806 32.7205L20.6485 28.0403Z" fill="#747AA1" stroke="#747AA2"/>
<path d="M36.4238 32.7205L56.3697 47.6971V42.5489L52.8499 39.7408V25.7002L55.7831 23.3601V18.2119L36.4238 32.7205ZM49.5956 28.0403V36.9327L43.4636 32.7205L49.5956 28.0403Z" fill="#747AA1" stroke="#747AA2"/>
<defs>
<radialGradient id="paint0_radial_1536_5696" cx="0" cy="0" r="1" gradientUnits="userSpaceOnUse" gradientTransform="translate(10.0901 92.2527) rotate(-52.6098) scale(84.6645)">
<stop offset="0.0864582" stop-color="#FFF500"/>
<stop offset="0.952491" stop-color="#FFE03E" stop-opacity="0"/>
</radialGradient>
<radialGradient id="paint1_radial_1536_5696" cx="0" cy="0" r="1" gradientUnits="userSpaceOnUse" gradientTransform="translate(48.5546 -31.9237) rotate(131.842) scale(76.3886)">
<stop stop-color="#5200FF"/>
<stop offset="0.842561" stop-color="#DADFFE" stop-opacity="0"/>
</radialGradient>
</defs>
</svg>
