<svg width="123" height="34" viewBox="0 0 123 34" fill="none" xmlns="http://www.w3.org/2000/svg">
<path d="M5.325 28.05H18.15V33H0.15V1.5H5.325V28.05ZM46.2943 28.86C43.1443 32.01 39.2893 33.585 34.7293 33.585C30.1693 33.585 26.2993 32.01 23.1193 28.86C19.9693 25.68 18.3943 21.81 18.3943 17.25C18.3943 12.69 19.9693 8.835 23.1193 5.685C26.2993 2.505 30.1693 0.914997 34.7293 0.914997C39.2893 0.914997 43.1443 2.505 46.2943 5.685C49.4743 8.835 51.0643 12.69 51.0643 17.25C51.0643 21.81 49.4743 25.68 46.2943 28.86ZM26.7643 25.35C28.9243 27.48 31.5793 28.545 34.7293 28.545C37.8793 28.545 40.5193 27.48 42.6493 25.35C44.8093 23.19 45.8893 20.49 45.8893 17.25C45.8893 14.01 44.8093 11.325 42.6493 9.195C40.5193 7.035 37.8793 5.955 34.7293 5.955C31.5793 5.955 28.9243 7.035 26.7643 9.195C24.6343 11.325 23.5693 14.01 23.5693 17.25C23.5693 20.49 24.6343 23.19 26.7643 25.35ZM86.4298 16.71V18.87C86.4298 23.19 85.0048 26.73 82.1548 29.49C79.3048 32.22 75.5848 33.585 70.9948 33.585C66.1348 33.585 62.1148 32.01 58.9348 28.86C55.7848 25.71 54.2098 21.84 54.2098 17.25C54.2098 12.69 55.7848 8.835 58.9348 5.685C62.1148 2.505 66.0448 0.914997 70.7248 0.914997C73.6648 0.914997 76.3498 1.59 78.7798 2.94C81.2098 4.29 83.0998 6.105 84.4498 8.385L79.9948 10.95C79.1548 9.45 77.9098 8.25 76.2598 7.35C74.6098 6.42 72.7648 5.955 70.7248 5.955C67.4248 5.955 64.7098 7.035 62.5798 9.195C60.4498 11.355 59.3848 14.055 59.3848 17.295C59.3848 20.535 60.4498 23.22 62.5798 25.35C64.7398 27.48 67.5598 28.545 71.0398 28.545C73.8298 28.545 76.0948 27.9 77.8348 26.61C79.6048 25.29 80.7298 23.535 81.2098 21.345H70.6798V16.71H86.4298ZM117.486 28.86C114.336 32.01 110.481 33.585 105.921 33.585C101.361 33.585 97.4907 32.01 94.3107 28.86C91.1607 25.68 89.5857 21.81 89.5857 17.25C89.5857 12.69 91.1607 8.835 94.3107 5.685C97.4907 2.505 101.361 0.914997 105.921 0.914997C110.481 0.914997 114.336 2.505 117.486 5.685C120.666 8.835 122.256 12.69 122.256 17.25C122.256 21.81 120.666 25.68 117.486 28.86ZM97.9557 25.35C100.116 27.48 102.771 28.545 105.921 28.545C109.071 28.545 111.711 27.48 113.841 25.35C116.001 23.19 117.081 20.49 117.081 17.25C117.081 14.01 116.001 11.325 113.841 9.195C111.711 7.035 109.071 5.955 105.921 5.955C102.771 5.955 100.116 7.035 97.9557 9.195C95.8257 11.325 94.7607 14.01 94.7607 17.25C94.7607 20.49 95.8257 23.19 97.9557 25.35Z" fill="#FFC100"/>
</svg>
