<svg width="166" height="109" viewBox="0 0 166 109" fill="none" xmlns="http://www.w3.org/2000/svg">
<rect x="7.55469" y="-82.5" width="157" height="191" rx="78.5" stroke="black"/>
<path d="M75.0547 15.8398L67.5547 16.3398L63.5547 30.8398L60.0547 42.8398L58.5547 49.3398L57.5547 51.8398L65.0547 51.3398L67.5547 43.3398L75.0547 42.8398L77.5547 50.8398L85.5547 50.3398L75.0547 15.8398Z" fill="#FFB700"/>
<path d="M0.0546875 16.8398L19.5547 15.3398V22.3398L8.55469 23.8398V29.3398L17.5547 28.3398V35.8398L9.05469 36.8398V43.8398L20.5547 42.8398V49.8398L0.0546875 51.3398V16.8398Z" fill="#FFB700"/>
<path fill-rule="evenodd" clip-rule="evenodd" d="M29.5547 16.8398L40.5547 15.8398H43.0547C43.5547 16.0065 44.6547 16.3398 45.0547 16.3398C45.4547 16.3398 46.888 16.6732 47.5547 16.8398L52.0547 22.3398C52.5547 24.1732 53.4547 27.9398 53.0547 28.3398C52.6547 28.7398 50.888 32.1732 50.0547 33.8398L47.0547 36.3398L53.5547 50.3398L45.0547 50.8398L40.0547 41.8398V51.8398H29.5547V50.8398V16.8398ZM43.5547 25.3398H41.0547V31.3398C42.2997 30.7173 43.1387 29.5 43.2772 28.1149L43.5547 25.3398Z" fill="#FFB700"/>
<path d="M0 51.708V16.748L19.826 15L24.426 17.3V24.844L12.466 25.902V28.662L17.388 28.202L21.988 30.502V37.954L12.466 38.828V43.152L20.608 42.416L25.208 44.716V52.214L4.6 54.008L0 51.708ZM7.406 44.072V36.114L16.928 35.24V28.708L7.406 29.582V23.188L19.366 22.13V15.506L0.46 17.162V51.248L20.148 49.5V42.922L7.406 44.072Z" fill="#182F43"/>
<path d="M44.9772 50.88L41.7112 44.992V53.364L33.7992 54.054L29.1992 51.754V16.794L40.7452 15.782C40.9906 15.7513 41.2206 15.736 41.4352 15.736C41.6806 15.736 41.9106 15.736 42.1252 15.736C43.9039 15.736 45.6212 16.012 47.2772 16.564C48.9332 17.116 50.4206 17.9287 51.7392 19.002C53.0579 20.0753 54.1006 21.3787 54.8672 22.912C55.6339 24.4147 56.0172 26.132 56.0172 28.064C56.0172 32.94 54.2386 36.4513 50.6812 38.598L58.4552 52.444L49.5772 53.18L44.9772 50.88ZM45.4372 36.114C47.3386 35.0713 48.7339 33.6913 49.6232 31.974C50.5126 30.2567 50.9572 28.1867 50.9572 25.764C50.9572 22.912 50.1599 20.612 48.5652 18.864C47.0012 17.0853 44.7932 16.196 41.9412 16.196C41.7572 16.196 41.5732 16.196 41.3892 16.196C41.2052 16.196 41.0059 16.2113 40.7912 16.242L29.6592 17.208V51.294L36.6512 50.696V38.552L38.6292 38.368L45.2072 50.42L53.0732 49.73L45.4372 36.114ZM36.6512 23.234L39.6872 22.958H40.1932C41.2052 22.958 42.0486 23.2647 42.7232 23.878C43.4286 24.4607 43.7812 25.488 43.7812 26.96C43.7812 28.4933 43.4132 29.6893 42.6772 30.548C41.9412 31.376 40.9446 31.8513 39.6872 31.974L36.6512 32.25V23.234ZM41.7112 30.824C42.7846 30.0573 43.3212 28.7693 43.3212 26.96C43.3212 26.7453 43.3059 26.546 43.2752 26.362C43.2752 26.178 43.2599 25.994 43.2292 25.81L41.7112 25.948V30.824Z" fill="#182F43"/>
<path d="M77.2387 50.788L75.5367 45.314L71.9027 45.636L69.6487 53.686L61.8287 54.376L57.2287 52.076L67.3027 16.15L74.8927 15.506L79.4927 17.806L89.7507 52.444L81.8387 53.088L77.2387 50.788ZM67.6707 16.61L57.9187 51.524L64.6347 50.972L66.9347 42.922L75.1227 42.186L77.5607 50.328L84.5067 49.73L74.5247 16.012L67.6707 16.61ZM68.5447 36.206C69.1273 34.3047 69.6027 32.4953 69.9707 30.778C70.3693 29.0607 70.7067 27.3433 70.9827 25.626H71.1667C71.412 27.3127 71.7187 28.9687 72.0867 30.594C72.4853 32.1887 72.9607 33.906 73.5127 35.746L68.5447 36.206Z" fill="#182F43"/>
<path d="M88.5215 60.5L81.5215 61L77.5215 75.5L74.0215 87.5L72.0215 95L71.5215 97L78.5215 96.5L81.0215 88.5L89.0215 88L91.0215 95L99.0215 95.5L88.5215 60.5Z" fill="#AA4337"/>
<path fill-rule="evenodd" clip-rule="evenodd" d="M159.021 77.5C161.021 72.7 159.854 65.3333 158.521 64L156.521 62L151.021 60.5L138.021 61.5V68L138.021 78L138.021 80C137.934 80.2599 137.966 85.5575 137.995 90.3162C138.009 92.5061 138.021 94.5818 138.021 96H145.021V84.5C153.021 84.5 156.521 83.5 159.021 77.5ZM149.021 69C147.917 69 147.021 69.8954 147.021 71V74C147.021 75.1046 147.917 76 149.021 76H150.021C151.126 76 152.021 75.1046 152.021 74V71C152.021 69.8954 151.126 69 150.021 69H149.021Z" fill="#AA4337"/>
<path fill-rule="evenodd" clip-rule="evenodd" d="M127.078 77.5C129.078 72.7 127.911 65.3333 126.578 64L124.578 62L119.078 60.5L106.078 61.5V68L106.078 78L106.078 80C105.991 80.2599 106.023 85.5575 106.052 90.3162C106.065 92.5061 106.078 94.5818 106.078 96L113.521 95.5V84.5C121.521 84.5 124.578 83.5 127.078 77.5ZM117.203 69.1983C116.031 69.0918 115.021 70.014 115.021 71.1901V74.19C115.021 75.2175 115.8 76.0779 116.822 76.1801L117.974 76.2953C119.095 76.4074 120.088 75.5716 120.168 74.4477L120.382 71.4567C120.459 70.37 119.653 69.421 118.568 69.3224L117.203 69.1983Z" fill="#AA4337"/>
<path d="M91.0647 95.448L89.3627 89.974L85.7287 90.296L83.4747 98.346L75.6547 99.036L71.0547 96.736L81.1287 60.81L88.7187 60.166L93.3187 62.466L103.577 97.104L95.6647 97.748L91.0647 95.448ZM81.4967 61.27L71.7447 96.184L78.4607 95.632L80.7607 87.582L88.9487 86.846L91.3867 94.988L98.3327 94.39L88.3507 60.672L81.4967 61.27ZM82.3707 80.866C82.9534 78.9647 83.4287 77.1553 83.7967 75.438C84.1954 73.7207 84.5327 72.0033 84.8087 70.286H84.9927C85.238 71.9727 85.5447 73.6287 85.9127 75.254C86.3114 76.8487 86.7867 78.566 87.3387 80.406L82.3707 80.866Z" fill="#182F43"/>
<path d="M105.826 96.46V61.5L117.74 60.442C117.924 60.4113 118.093 60.396 118.246 60.396C118.43 60.396 118.614 60.396 118.798 60.396C120.025 60.396 121.205 60.58 122.34 60.948C123.475 61.316 124.671 61.7913 125.928 62.374C128.289 63.4167 130.083 64.8273 131.31 66.606C132.537 68.354 133.15 70.6387 133.15 73.46C133.15 77.324 132.169 80.3907 130.206 82.66C128.243 84.9294 125.575 86.202 122.202 86.478L118.338 86.8V98.07L110.426 98.76L105.826 96.46ZM117.556 83.718C120.837 83.442 123.413 82.2153 125.284 80.038C127.155 77.83 128.09 74.8707 128.09 71.16C128.09 69.1053 127.722 67.3113 126.986 65.778C126.25 64.2447 125.192 63.0487 123.812 62.19C122.463 61.3007 120.822 60.856 118.89 60.856C118.706 60.856 118.522 60.856 118.338 60.856C118.154 60.856 117.97 60.8713 117.786 60.902L106.286 61.914V96L113.278 95.402V84.086L117.556 83.718ZM113.278 67.94L116.406 67.664C116.529 67.664 116.636 67.664 116.728 67.664C116.851 67.6333 116.958 67.618 117.05 67.618C118.185 67.618 119.074 67.9553 119.718 68.63C120.393 69.274 120.73 70.4087 120.73 72.034C120.73 73.7207 120.316 74.978 119.488 75.806C118.66 76.634 117.633 77.1093 116.406 77.232L113.278 77.508V67.94ZM118.338 76.174C118.951 75.7447 119.427 75.208 119.764 74.564C120.101 73.92 120.27 73.0767 120.27 72.034C120.27 71.39 120.224 70.884 120.132 70.516L118.338 70.654V76.174Z" fill="#182F43"/>
<path d="M137.586 96.46V61.5L149.5 60.442C149.684 60.4113 149.852 60.396 150.006 60.396C150.19 60.396 150.374 60.396 150.558 60.396C151.784 60.396 152.965 60.58 154.1 60.948C155.234 61.316 156.43 61.7913 157.688 62.374C160.049 63.4167 161.843 64.8273 163.07 66.606C164.296 68.354 164.91 70.6387 164.91 73.46C164.91 77.324 163.928 80.3907 161.966 82.66C160.003 84.9294 157.335 86.202 153.962 86.478L150.098 86.8V98.07L142.186 98.76L137.586 96.46ZM149.316 83.718C152.597 83.442 155.173 82.2153 157.044 80.038C158.914 77.83 159.85 74.8707 159.85 71.16C159.85 69.1053 159.482 67.3113 158.746 65.778C158.01 64.2447 156.952 63.0487 155.572 62.19C154.222 61.3007 152.582 60.856 150.65 60.856C150.466 60.856 150.282 60.856 150.098 60.856C149.914 60.856 149.73 60.8713 149.546 60.902L138.046 61.914V96L145.038 95.402V84.086L149.316 83.718ZM145.038 67.94L148.166 67.664C148.288 67.664 148.396 67.664 148.488 67.664C148.61 67.6333 148.718 67.618 148.81 67.618C149.944 67.618 150.834 67.9553 151.478 68.63C152.152 69.274 152.49 70.4087 152.49 72.034C152.49 73.7207 152.076 74.978 151.248 75.806C150.42 76.634 149.392 77.1093 148.166 77.232L145.038 77.508V67.94ZM150.098 76.174C150.711 75.7447 151.186 75.208 151.524 74.564C151.861 73.92 152.03 73.0767 152.03 72.034C152.03 71.39 151.984 70.884 151.892 70.516L150.098 70.654V76.174Z" fill="#182F43"/>
</svg>
