<svg width="224" height="88" viewBox="0 0 224 88" fill="none" xmlns="http://www.w3.org/2000/svg">
<path d="M1 45.1496V46.1496H2H30.3122H31.3122V45.1496V41.674V40.674H30.3122H7.27233V27.1193H28.3992H29.3992V26.1193V22.7006V21.7006H28.3992H7.27233V10.311H30.3122H31.3122V9.31105V5.83545V4.83545H30.3122H2H1V5.83545V45.1496ZM38.363 45.1496V46.1496H39.363H43.6353H44.6353V45.1496V29.9681H56.954L65.849 45.6431L66.1364 46.1496H66.7187H70.2258H71.414H73.1319L72.2836 44.6557L63.7085 29.556C65.6578 29.1336 67.2547 28.3017 68.4202 27C69.8669 25.3842 70.5244 23.1833 70.5244 20.5355V14.325C70.5244 11.3101 69.6757 8.87437 67.8154 7.21215C65.9765 5.56909 63.3184 4.83545 60.0232 4.83545H39.363H38.363V5.83545V45.1496ZM60.2783 24.5495H44.6353V10.311H60.2783C61.8081 10.311 62.7687 10.6552 63.3423 11.1678C63.8945 11.6612 64.2521 12.4589 64.2521 13.7553V21.0483C64.2521 22.3674 63.8923 23.1808 63.3376 23.6827C62.764 24.2018 61.8054 24.5495 60.2783 24.5495Z" fill="#AA4337" stroke="#AA4337" stroke-width="2"/>
<path d="M160.715 85.9996V86.9996H161.715H165.496H166.496V85.9996V76.2197H178.339C181.39 76.2197 183.866 75.5321 185.581 73.9807C187.316 72.4119 188.101 70.1192 188.101 67.2965V55.223C188.101 52.4004 187.316 50.1076 185.581 48.5389C183.866 46.9874 181.39 46.2998 178.339 46.2998H161.715H160.715V47.2998V85.9996ZM195.528 85.9996V86.9996H196.528H200.309H201.309V85.9996V76.2197H213.152C216.204 76.2197 218.679 75.5321 220.395 73.9807C222.13 72.4119 222.915 70.1192 222.915 67.2965V55.223C222.915 52.4004 222.13 50.1076 220.395 48.5389C218.679 46.9874 216.204 46.2998 213.152 46.2998H196.528H195.528V47.2998V85.9996ZM178.459 71.2553H166.496V51.3182H178.459C179.95 51.3182 180.882 51.6553 181.437 52.1536C181.971 52.6336 182.32 53.4123 182.32 54.684V67.8355C182.32 69.1288 181.969 69.9224 181.432 70.4104C180.877 70.9149 179.948 71.2553 178.459 71.2553ZM213.272 71.2553H201.309V51.3182H213.272C214.764 51.3182 215.695 51.6553 216.25 52.1536C216.785 52.6336 217.134 53.4123 217.134 54.684V67.8355C217.134 69.1288 216.782 69.9224 216.246 70.4104C215.691 70.9149 214.761 71.2553 213.272 71.2553Z" fill="#182F43" stroke="#182F43" stroke-width="2"/>
<path d="M113.577 6.29203L119.316 15.7072C120.973 18.4248 120.057 21.9032 117.278 23.4525C114.532 24.9832 110.999 24.0527 109.363 21.3677L103.624 11.9525C101.967 9.23491 102.882 5.75652 105.661 4.20722C108.407 2.67648 111.94 3.60702 113.577 6.29203Z" fill="#182F43" stroke="#182F43" stroke-width="2"/>
<path d="M136.53 47.3348L147.228 47.2911C150.261 47.2787 152.726 49.734 152.726 52.7671C152.726 55.7828 150.288 58.2309 147.272 58.2432L136.575 58.2869C133.542 58.2993 131.076 55.844 131.076 52.8108C131.076 49.7952 133.514 47.3471 136.53 47.3348Z" fill="#FBFBFF" stroke="#182F43" stroke-width="2"/>
<path d="M130.51 34.8531L148.402 64.635C150.033 67.3504 149.111 70.8067 146.345 72.349C143.586 73.8869 140.036 72.94 138.41 70.2326L120.518 40.4506C118.887 37.7352 119.808 34.279 122.575 32.7366C125.333 31.1988 128.883 32.1457 130.51 34.8531Z" fill="#182F43" stroke="#182F43" stroke-width="2"/>
<rect x="0.360253" y="1.3452" width="11.4538" height="60.8677" rx="5.72689" transform="matrix(0.873445 0.486923 -0.513192 0.858274 121.998 0.0943357)" fill="#AA4337" stroke="#182F43" stroke-width="2"/>
<path d="M82.7905 47.3472L114.681 47.2785C117.71 47.272 120.169 49.7256 120.169 52.7546C120.169 55.7744 117.724 58.2242 114.704 58.2307L82.8141 58.2995C79.7851 58.306 77.3262 55.8524 77.3262 52.8234C77.3262 49.8036 79.7707 47.3537 82.7905 47.3472Z" fill="#FBFBFF" stroke="#182F43" stroke-width="2"/>
<rect x="0.351353" y="1.34738" width="11.7307" height="11.4978" rx="5.74889" transform="matrix(0.870278 0.49256 -0.518925 0.85482 86.5241 59.252)" fill="#AA4337" stroke="#182F43" stroke-width="2"/>
</svg>
