<svg width="256" height="56" viewBox="0 0 256 56" fill="none" xmlns="http://www.w3.org/2000/svg">
<path d="M149.709 8H160.989L176.698 47H167.457L164.712 40.2552H145.904L143.241 47H134L149.709 8ZM148.812 33.1297H161.831L155.607 16.7029H155.036L148.812 33.1297Z" fill="#FBFBFF"/>
<path d="M197.49 36.91H189.907V47H181.128V8H197.49C208.687 8 214.286 12.8319 214.286 22.4958C214.286 32.1053 208.687 36.91 197.49 36.91ZM205.127 22.4958C205.127 17.7817 202.581 15.4247 197.49 15.4247H189.907V29.5126H197.49C202.581 29.5126 205.127 27.1736 205.127 22.4958Z" fill="#FBFBFF"/>
<path d="M238.203 36.91H230.621V47H221.842V8H238.203C249.401 8 255 12.8319 255 22.4958C255 32.1053 249.401 36.91 238.203 36.91ZM245.841 22.4958C245.841 17.7817 243.295 15.4247 238.203 15.4247H230.621V29.5126H238.203C243.295 29.5126 245.841 27.1736 245.841 22.4958Z" fill="#FBFBFF"/>
<path fill-rule="evenodd" clip-rule="evenodd" d="M149.407 7H161.886L178.294 48H167.121L164.382 41.2249H146.837L144.179 48H133L149.407 7ZM150.63 8.82444L135.683 46.1756H142.948L145.606 39.4004H165.6L168.339 46.1756H175.611L160.664 8.82444H150.63ZM180.468 7H197.701C203.398 7 207.84 8.23431 210.865 10.8617C213.915 13.5114 215.369 17.4409 215.369 22.4733C215.369 27.48 213.914 31.3896 210.863 34.0251C207.838 36.6376 203.397 37.8646 197.701 37.8646H191.04V48H180.468V7ZM182.279 8.82444V46.1756H189.228V36.0402H197.701C203.18 36.0402 207.121 34.854 209.684 32.6402C212.22 30.4493 213.558 27.1193 213.558 22.4733C213.558 17.7983 212.219 14.4473 209.682 12.2433C207.119 10.017 203.179 8.82444 197.701 8.82444H182.279ZM221.098 7H238.332C244.029 7 248.471 8.23431 251.495 10.8617C254.545 13.5114 256 17.4409 256 22.4733C256 27.48 254.544 31.3896 251.493 34.0251C248.469 36.6376 244.028 37.8646 238.332 37.8646H231.67V48H221.098V7ZM222.91 8.82444V46.1756H229.859V36.0402H238.332C243.811 36.0402 247.751 34.854 250.314 32.6402C252.85 30.4493 254.189 27.1193 254.189 22.4733C254.189 17.7983 252.849 14.4473 250.312 12.2433C247.749 10.017 243.81 8.82444 238.332 8.82444H222.91ZM189.228 14.4581H197.701C200.365 14.4581 202.531 15.0772 204.033 16.4765C205.548 17.8882 206.229 19.946 206.229 22.4733C206.229 24.9843 205.546 27.0294 204.03 28.4315C202.529 29.8201 200.363 30.4338 197.701 30.4338H189.228V14.4581ZM191.04 16.2825V28.6094H197.701C200.121 28.6094 201.766 28.0484 202.805 27.0876C203.83 26.1403 204.417 24.6611 204.417 22.4733C204.417 20.2652 203.828 18.7716 202.803 17.8156C201.764 16.8473 200.119 16.2825 197.701 16.2825H191.04ZM229.859 14.4581H238.332C240.996 14.4581 243.162 15.0772 244.663 16.4765C246.178 17.8882 246.859 19.946 246.859 22.4733C246.859 24.9843 246.177 27.0294 244.661 28.4315C243.159 29.8201 240.994 30.4338 238.332 30.4338H229.859V14.4581ZM231.67 16.2825V28.6094H238.332C240.751 28.6094 242.397 28.0484 243.436 27.0876C244.46 26.1403 245.048 24.6611 245.048 22.4733C245.048 20.2652 244.459 18.7716 243.433 17.8156C242.394 16.8473 240.75 16.2825 238.332 16.2825H231.67ZM154.71 15.7421H156.53L163.428 34.0673H147.812L154.71 15.7421ZM155.62 18.4709L150.436 32.2428H160.804L155.62 18.4709Z" fill="#6C74A4"/>
<path d="M32.9594 47.6188H0V7.38086H32.9594V15.0412H9.06034V23.3189H29.2287V30.6706H9.06034V39.9865H32.9594V47.6188Z" fill="#6C74A4"/>
<path d="M58.1769 33.7572H49.7898V47.6188H40.7294V7.38086H57.9525C63.6561 7.38086 67.8263 8.44714 70.4631 10.5797C73.1185 12.6935 74.4462 15.9766 74.4462 20.4287C74.4462 22.131 74.2031 23.7211 73.7169 25.1989C73.2494 26.658 72.6417 27.8085 71.8936 28.6503C70.3976 30.3152 69.1073 31.3534 68.0227 31.765L67.2653 31.9894L77.2513 47.6188H67.0409L58.1769 33.7572ZM64.9651 20.5971C64.9651 16.8745 62.6276 15.0225 57.9525 15.0412H49.7898V26.1249H57.9525C60.3275 26.1249 62.0853 25.676 63.226 24.778C64.3854 23.8801 64.9651 22.4865 64.9651 20.5971Z" fill="#6C74A4"/>
<path d="M94.9232 7.38086H106.564L122.777 47.6188H113.24L110.407 40.66H90.9961L88.2471 47.6188H78.7099L94.9232 7.38086ZM93.9975 33.3083H107.434L101.01 16.36H100.421L93.9975 33.3083Z" fill="#6C74A4"/>
</svg>
