<svg width="451" height="402" viewBox="0 0 451 402" fill="none" xmlns="http://www.w3.org/2000/svg">
<path d="M388.78 45.4729C381.204 41.333 377.768 44.7809 375.012 41.333C372.256 37.8851 382.588 28.9372 361.888 19.9893C361.888 19.9893 360.516 0.709522 332.277 0.0175511C304.037 -0.67442 311.649 19.2973 304.073 24.1172C296.497 28.9372 294.433 21.409 286.857 26.1812C279.281 30.9534 282.729 40.641 276.537 42.013C270.345 43.385 262.066 35.8211 254.49 40.641C246.914 45.461 246.914 49.5889 243.478 49.5889C240.042 49.5889 233.146 46.833 229.018 49.5889C224.89 52.3449 220.058 55.7928 220.058 55.7928H394.244C394.244 55.7928 396.356 49.6008 388.78 45.4729Z" fill="#FFC100" fill-opacity="0.21"/>
<path d="M191.246 214.939C185.925 212.039 183.503 214.449 181.57 212.039C179.638 209.63 186.892 203.33 172.384 197.043C172.384 197.043 171.418 183.502 151.577 183.012C131.737 182.523 137.07 196.554 131.749 199.942C126.428 203.33 124.984 198.009 119.663 201.397C114.342 204.786 116.752 211.55 112.409 212.517C108.066 213.483 102.244 208.162 96.8995 211.55C91.5546 214.939 91.5785 217.838 89.1685 217.838C86.7585 217.838 81.9028 215.905 79.0037 217.838C76.1046 219.77 72.7163 222.192 72.7163 222.192H195.112C195.112 222.192 196.567 217.838 191.246 214.939Z" fill="white"/>
<path opacity="0.5" d="M191.246 214.939C185.925 212.039 183.503 214.449 181.57 212.039C179.638 209.63 186.892 203.33 172.384 197.043C172.384 197.043 171.418 183.502 151.577 183.012C131.737 182.523 137.07 196.554 131.749 199.942C126.428 203.33 124.984 198.009 119.663 201.397C114.342 204.786 116.752 211.55 112.409 212.517C108.066 213.483 102.244 208.162 96.8995 211.55C91.5546 214.939 91.5785 217.838 89.1685 217.838C86.7585 217.838 81.9028 215.905 79.0037 217.838C76.1046 219.77 72.7163 222.192 72.7163 222.192H195.112C195.112 222.192 196.567 217.838 191.246 214.939Z" fill="white"/>
<path d="M239.266 401.274V160.062H251.996V401.274" fill="#2E353A"/>
<path d="M239.266 401.274V160.062H251.996V401.274" stroke="#2E353A" stroke-linecap="round" stroke-linejoin="round"/>
<path d="M232.907 401.274V160.062H245.637V401.274" fill="#FFC100"/>
<path d="M232.907 401.274V160.062H245.637V401.274" stroke="#2E353A" stroke-linecap="round" stroke-linejoin="round"/>
<g style="mix-blend-mode:multiply" opacity="0.3">
<path d="M245.637 160.062H232.907V188.696H245.637V160.062Z" fill="#2E353A"/>
</g>
<path d="M287.227 65.8926H192.904L234.017 166.873H328.352V107.005C328.352 101.605 327.288 96.2581 325.221 91.2693C323.154 86.2806 320.125 81.7478 316.306 77.93C312.487 74.1122 307.953 71.0841 302.964 69.0187C297.975 66.9533 292.627 65.891 287.227 65.8926Z" fill="#FFC100" stroke="#2E353A" stroke-linecap="round" stroke-linejoin="round"/>
<g style="mix-blend-mode:multiply" opacity="0.3">
<path d="M226.823 149.191L233.982 166.873H328.352V107.005C328.352 106.098 328.352 105.192 328.257 104.297H226.847L226.823 149.191Z" fill="black"/>
</g>
<path d="M286.535 104.297H276.608" stroke="#2E353A" stroke-linecap="round" stroke-linejoin="round"/>
<path d="M328.255 104.297H298.214" stroke="#2E353A" stroke-linecap="round" stroke-linejoin="round"/>
<path d="M192.904 65.8926C203.811 65.8926 214.271 70.2253 221.984 77.9377C229.696 85.65 234.029 96.1102 234.029 107.017V166.885H151.78V107.005C151.783 96.1004 156.117 85.6432 163.829 77.9335C171.541 70.2237 182 65.8926 192.904 65.8926V65.8926Z" fill="#2E353A" stroke="#2E353A" stroke-linecap="round" stroke-linejoin="round"/>
<path d="M234.016 160.062H163.149V166.875H234.016V160.062Z" fill="#FFC100" stroke="#2E353A" stroke-linecap="round" stroke-linejoin="round"/>
<path d="M234.017 160.062H87.3545V166.875H234.017V160.062Z" fill="#FFC100" stroke="#2E353A" stroke-linecap="round" stroke-linejoin="round"/>
<path opacity="0.3" d="M234.016 160.062H163.149V166.875H234.016V160.062Z" fill="black"/>
<path d="M293.359 41.5586H263.926V62.2342H293.359V41.5586Z" fill="#2E353A" stroke="#2E353A" stroke-linecap="round" stroke-linejoin="round"/>
<path d="M266.313 41.5586H259.954V105.983H266.313V41.5586Z" fill="white" stroke="#2E353A" stroke-linecap="round" stroke-linejoin="round"/>
<path d="M263.127 114.733C267.081 114.733 270.285 111.528 270.285 107.574C270.285 103.621 267.081 100.416 263.127 100.416C259.174 100.416 255.969 103.621 255.969 107.574C255.969 111.528 259.174 114.733 263.127 114.733Z" fill="#2E353A" stroke="#2E353A" stroke-linecap="round" stroke-linejoin="round"/>
<path d="M158.15 82.4316C174.758 90.8665 203.63 104.384 230.259 111.184" stroke="white" stroke-linecap="round" stroke-linejoin="round" stroke-dasharray="2 4"/>
<path d="M144.216 75.0957C144.216 75.0957 149.537 78.1022 158.151 82.4807" stroke="#2E353A" stroke-linecap="round" stroke-linejoin="round" stroke-dasharray="2 4"/>
<path d="M138.238 74.6521L150.181 46.2813L63.5771 25.1523L138.238 74.6521Z" fill="white" stroke="#2E353A" stroke-width="1.2629" stroke-linecap="round" stroke-linejoin="round"/>
<path d="M144.061 49.7173L138.238 74.6521L63.5771 25.1523L144.061 49.7173Z" fill="#FFC100" stroke="#2E353A" stroke-width="1.2629" stroke-linecap="round" stroke-linejoin="round"/>
<path d="M144.061 49.7173L130.472 61.3615L63.5771 25.1523L144.061 49.7173Z" fill="white" stroke="#2E353A" stroke-width="1.2629" stroke-linecap="round" stroke-linejoin="round"/>
<path d="M150.181 46.2813L162.278 41.3659L63.5771 25.1523L150.181 46.2813Z" fill="white" stroke="#2E353A" stroke-width="1.2629" stroke-linecap="round" stroke-linejoin="round"/>
<path d="M121.417 70.2383L124.22 71.9563" stroke="#2E353A" stroke-linecap="round" stroke-linejoin="round"/>
<path d="M106.122 60.8594L115.511 66.6099" stroke="#2E353A" stroke-linecap="round" stroke-linejoin="round"/>
<path d="M95.5752 128.958V98.1895L183.599 112.339L95.5752 128.958Z" fill="white" stroke="#2E353A" stroke-width="1.2629" stroke-linecap="round" stroke-linejoin="round"/>
<path d="M99.8821 103.727L95.5752 128.96L183.599 112.34L99.8821 103.727Z" fill="#FFC100" stroke="#2E353A" stroke-width="1.2629" stroke-linecap="round" stroke-linejoin="round"/>
<path d="M99.8818 103.727L107.887 119.725L183.598 112.34L99.8818 103.727Z" fill="white" stroke="#2E353A" stroke-width="1.2629" stroke-linecap="round" stroke-linejoin="round"/>
<path d="M95.5746 98.1913L86.3403 88.957L183.598 112.341L95.5746 98.1913Z" fill="white" stroke="#2E353A" stroke-width="1.2629" stroke-linecap="round" stroke-linejoin="round"/>
<path d="M127.096 128.387L134.731 126.836" stroke="#2E353A" stroke-linecap="round" stroke-linejoin="round"/>
<path d="M100.276 133.839L119.472 129.938" stroke="#2E353A" stroke-linecap="round" stroke-linejoin="round"/>
<path d="M84.9688 127.064C84.9688 127.064 15.7717 138.995 2.64814 201.034C-10.4754 263.073 58.7216 266.652 70.6522 236.825C82.5827 206.999 30.0884 195.069 18.1578 223.702C6.2273 252.335 42.0189 301.25 90.9341 303.636C131.581 305.617 245.542 258.169 316.421 246.179C316.421 246.179 368.916 231.648 450.043 234.833" stroke="#2E353A" stroke-linecap="round" stroke-linejoin="round" stroke-dasharray="2 4"/>
</svg>
