<svg width="39" height="39" viewBox="0 0 39 39" fill="none" xmlns="http://www.w3.org/2000/svg">
<path d="M38.1481 23.089V16.4409H33.7348C33.3937 14.9164 32.8017 13.4592 31.9829 12.1287L35.1722 8.92822L30.4445 4.23418L27.2664 7.41221C25.9581 6.59509 24.5239 5.9994 23.0216 5.64913V1H16.3848V5.61544C14.9153 5.95757 13.5117 6.53796 12.2298 7.33359L8.86084 3.96466L4.16681 8.66994L7.53574 12.0389C6.75299 13.3006 6.16965 14.6756 5.80634 16.1153H1V22.7633H5.73897C6.06619 24.211 6.6195 25.598 7.37852 26.8734L4.00959 30.2423L8.70363 34.9364L12.0052 31.646C13.2759 32.4605 14.6666 33.0706 16.1265 33.454V38.1481H22.7633V33.6562C24.2701 33.332 25.7149 32.767 27.0419 31.9829L30.276 35.2059L34.9701 30.5118L31.837 27.3675C32.681 26.0558 33.3032 24.6141 33.6787 23.1002L38.1481 23.089ZM19.7425 27.1766C18.2423 27.1788 16.7753 26.7359 15.527 25.9038C14.2787 25.0718 13.3054 23.888 12.7303 22.5025C12.1552 21.1169 12.0042 19.5919 12.2963 18.1205C12.5884 16.649 13.3106 15.2973 14.3713 14.2366C15.4321 13.1758 16.7838 12.4536 18.2552 12.1615C19.7267 11.8694 21.2517 12.0205 22.6372 12.5956C24.0228 13.1707 25.2065 14.144 26.0386 15.3922C26.8706 16.6405 27.3136 18.1076 27.3114 19.6077C27.3084 21.6142 26.51 23.5377 25.0912 24.9565C23.6724 26.3752 21.749 27.1736 19.7425 27.1766Z" fill="#AA4337" stroke="#8E95A7" stroke-miterlimit="10"/>
</svg>
