<svg width="66" height="61" viewBox="0 0 66 61" fill="none" xmlns="http://www.w3.org/2000/svg">
<path d="M53.9608 1H11.0293V54.2884H53.9608V1Z" fill="white" stroke="#FFB700" stroke-linecap="round" stroke-linejoin="round"/>
<path d="M41.6455 15.4986C41.6455 21.6843 38.808 25.2312 35.9705 25.2312C35.6662 25.2734 35.3564 25.2505 35.0616 25.1641C34.7668 25.0777 34.4938 24.9297 34.2604 24.7299C34.0271 24.5301 33.8388 24.283 33.708 24.005C33.5773 23.727 33.507 23.4244 33.5019 23.1173C33.2559 23.7609 32.8142 24.3111 32.239 24.6903C31.6637 25.0696 30.984 25.2588 30.2955 25.2312C27.9545 25.2312 27.1459 23.2308 27.458 20.4642L27.7985 17.3429C28.0681 14.5054 29.3591 12.732 31.6575 12.7887C32.2764 12.7551 32.887 12.944 33.3788 13.3213C33.8706 13.6986 34.2112 14.2394 34.3389 14.8459L34.566 12.9164H36.6799L35.7435 21.8687C35.6442 22.5781 35.8712 23.2024 36.6515 23.2024C39.0492 23.2024 39.8579 18.6198 39.8295 15.5695C39.8295 11.2281 37.8007 8.4757 33.1188 8.4757C26.8905 8.4757 23.9962 13.64 23.9962 20.6344C23.9962 26.0257 26.4507 29.2605 31.8845 29.2605C34.095 29.3547 36.2671 28.6609 38.0135 27.3026L37.8291 29.4591C36.0335 30.6464 33.9071 31.2327 31.7568 31.1332C24.89 31.1332 21.8965 26.877 21.8965 20.5068C21.8965 13.0867 25.4576 6.57457 33.2465 6.57457C39.4039 6.53201 41.6455 10.3627 41.6455 15.4986ZM29.8273 17.5557L29.5436 20.3933C29.3591 22.0248 29.8557 23.2308 31.317 23.2308C32.7783 23.2308 33.5303 22.1383 33.7289 20.3933L34.041 17.3997C34.1971 15.9809 33.6012 14.9169 32.225 14.9169C30.8488 14.9169 30.0118 15.8816 29.8273 17.5557Z" fill="#182F43"/>
<path d="M1 22.5215V59.6219H65V22.5215L33.0071 41.0646L1 22.5215Z" fill="#FFB700" stroke="#182F43" stroke-linecap="round" stroke-linejoin="round"/>
<path d="M1 59.6227L33.0071 41.0654L65 59.6227" stroke="#182F43" stroke-linecap="round" stroke-linejoin="round"/>
</svg>
