<svg width="402" height="365" viewBox="0 0 402 365" fill="none" xmlns="http://www.w3.org/2000/svg">
<path d="M343.5 234C337.538 234.017 331.825 236.38 327.609 240.571C323.394 244.762 321.018 250.441 321 256.369C321 268.721 343.5 292 343.5 292C343.5 292 366 268.668 366 256.369C365.982 250.441 363.606 244.762 359.391 240.571C355.175 236.38 349.462 234.017 343.5 234ZM343.5 264.353C341.623 264.355 339.787 263.804 338.225 262.77C336.662 261.735 335.444 260.263 334.723 258.54C334.002 256.817 333.812 254.92 334.175 253.089C334.539 251.258 335.441 249.576 336.766 248.254C338.092 246.933 339.782 246.032 341.622 245.665C343.463 245.298 345.371 245.483 347.107 246.194C348.842 246.906 350.326 248.114 351.371 249.664C352.416 251.214 352.975 253.038 352.978 254.904C352.98 256.143 352.736 257.37 352.26 258.516C351.785 259.661 351.087 260.702 350.207 261.58C349.327 262.457 348.282 263.154 347.131 263.629C345.98 264.105 344.746 264.351 343.5 264.353Z" fill="#182F43"/>
<path d="M343.498 292.5L343.488 292.5C343.467 292.5 343.446 292.497 343.427 292.489C343.408 292.481 343.391 292.469 343.377 292.454L343.374 292.452C342.909 291.971 337.171 286.006 331.553 278.595C328.743 274.888 325.972 270.831 323.906 266.925C321.832 263.006 320.5 259.297 320.5 256.272C320.5 250.234 322.922 244.442 327.235 240.171C331.548 235.9 337.398 233.5 343.5 233.5C349.602 233.5 355.452 235.9 359.765 240.171C364.078 244.442 366.5 250.234 366.5 256.272C366.5 259.297 365.168 263.006 363.094 266.925C361.028 270.831 358.257 274.888 355.447 278.595C349.831 286.004 344.095 291.967 343.626 292.452C343.611 292.467 343.593 292.479 343.573 292.487C343.552 292.496 343.53 292.5 343.507 292.5L343.498 292.5ZM344 233.839V233.82L343.499 233.82C337.495 233.827 331.738 236.193 327.491 240.398C323.244 244.604 320.854 250.308 320.847 256.258V256.258C320.847 259.148 322.07 262.593 323.9 266.148C325.736 269.716 328.212 273.453 330.784 276.94C335.927 283.915 341.481 289.936 343.136 291.689L343.501 292.075L343.864 291.689C345.512 289.936 351.066 283.918 356.211 276.945C358.783 273.459 361.261 269.723 363.098 266.154C364.929 262.598 366.153 259.151 366.153 256.258V256.258C366.146 250.309 363.755 244.607 359.508 240.403C355.378 236.316 349.822 233.97 344 233.839ZM344 264.494V264.493L343.499 264.494C341.56 264.496 339.663 263.929 338.049 262.864C336.436 261.8 335.178 260.286 334.435 258.514C333.691 256.743 333.495 254.794 333.87 252.912C334.245 251.03 335.176 249.301 336.544 247.942C337.913 246.583 339.659 245.656 341.561 245.278C343.463 244.901 345.435 245.091 347.227 245.824C349.02 246.556 350.552 247.798 351.631 249.393C352.71 250.987 353.286 252.861 353.289 254.779V254.779C353.292 256.054 353.042 257.317 352.552 258.496C352.062 259.674 351.342 260.746 350.433 261.65C349.524 262.554 348.444 263.271 347.254 263.762C346.219 264.188 345.118 264.436 344 264.494ZM344 245.503V245.437L343.501 245.436C341.632 245.433 339.803 245.979 338.247 247.006C336.691 248.033 335.476 249.494 334.757 251.205C334.038 252.916 333.848 254.801 334.21 256.62C334.573 258.438 335.471 260.109 336.792 261.421C338.113 262.733 339.796 263.627 341.629 263.991C343.462 264.355 345.362 264.172 347.09 263.466C348.819 262.76 350.297 261.562 351.339 260.023C352.381 258.484 352.939 256.673 352.942 254.819L352.942 254.816C352.931 252.339 351.93 249.969 350.161 248.222C348.51 246.592 346.315 245.628 344 245.503Z" fill="#182F43" stroke="#FFC100"/>
<path d="M80.7847 26.9121L80.8942 26.9698H80.9081C81.3636 27.2428 81.704 27.675 81.8618 28.1849C82.0312 28.7325 81.9761 29.3249 81.7087 29.8319C81.4413 30.3389 80.9834 30.7189 80.4359 30.8883C79.8883 31.0577 79.2958 31.0026 78.7889 30.7352L78.7887 30.7351C71.7663 27.0341 62.5143 26.3523 53.7489 28.9285C44.9828 31.5049 37.4366 37.2076 33.5766 44.2104L33.5766 44.2104L33.5738 44.2156C33.4412 44.4631 33.2604 44.6815 33.0421 44.8582C32.8239 45.0348 32.5725 45.166 32.3028 45.2441L32.3028 45.2441L32.2947 45.2466C31.8825 45.3735 31.4418 45.3742 31.0293 45.2484C30.6168 45.1226 30.2514 44.8761 29.9802 44.5408C29.709 44.2054 29.5445 43.7966 29.5078 43.3669C29.4711 42.9371 29.564 42.5063 29.7744 42.1299L29.7744 42.1299L29.7768 42.1256C34.1114 34.189 42.7673 27.6525 52.5105 24.7767C62.2518 21.9013 72.834 22.7178 80.7847 26.9121Z" fill="#182F43" stroke="#FFC100"/>
<path d="M41.3885 50.6416L41.3804 50.6437L41.3724 50.6461C40.9475 50.7732 40.4938 50.7664 40.0729 50.6265C39.652 50.4867 39.2845 50.2206 39.0201 49.8645C38.7558 49.5083 38.6075 49.0795 38.5955 48.6361C38.5835 48.1944 38.7074 47.7596 38.9504 47.3905C42.9471 41.6019 48.8026 37.3536 55.5457 35.3503C62.1834 33.3783 69.2884 33.6984 75.7174 36.2534V36.2957L76.0182 36.4264C76.2786 36.5395 76.5142 36.7028 76.7116 36.9069C76.9089 37.1111 77.064 37.3521 77.1682 37.6162C77.2724 37.8804 77.3235 38.1624 77.3187 38.4463C77.3138 38.7302 77.2531 39.0104 77.14 39.2708C77.0269 39.5312 76.8636 39.7668 76.6594 39.9641C76.4553 40.1615 76.2143 40.3166 75.9501 40.4208L76.1336 40.8859L75.9501 40.4208C75.686 40.525 75.4039 40.5761 75.12 40.5713C74.8362 40.5664 74.556 40.5057 74.2956 40.3926L74.2956 40.3925L74.2837 40.3876C68.7129 38.1364 62.543 37.8419 56.783 39.5525C51.0231 41.263 46.014 44.8773 42.5749 49.8043L42.5749 49.8043L42.5725 49.8078C42.2907 50.2188 41.8704 50.5148 41.3885 50.6416Z" fill="#182F43" stroke="#FFC100"/>
<path d="M58.2564 45.1224C62.4937 43.8125 67.0565 44.0345 71.1465 45.7495L71.1457 45.7535C71.6772 45.9685 72.1015 46.3859 72.3253 46.9139C72.5491 47.4418 72.554 48.037 72.3389 48.5685C72.1239 49.1 71.7065 49.5243 71.1785 49.7481C70.6517 49.9714 70.0579 49.9767 69.5272 49.763C66.3515 48.4236 62.804 48.2523 59.514 49.2797C56.227 50.3062 53.4094 52.4628 51.5602 55.3675C51.2301 55.8289 50.7344 56.1451 50.1765 56.2498C49.6154 56.3551 49.0353 56.2382 48.5588 55.9238C48.0835 55.604 47.754 55.1091 47.6423 54.5472C47.5304 53.9846 47.6458 53.4007 47.9634 52.923L47.9634 52.9231L47.9669 52.9177C50.3755 49.1921 54.018 46.4326 58.2564 45.1224Z" fill="#182F43" stroke="#FFC100"/>
<path d="M58.2705 55.9239C59.0207 55.0321 60.0185 54.3827 61.1377 54.0579C61.8817 53.8419 62.6609 53.7747 63.4309 53.8602C64.2008 53.9456 64.9463 54.182 65.6248 54.5558C66.3034 54.9296 66.9015 55.4335 67.3851 56.0386C67.8688 56.6438 68.2283 57.3384 68.4433 58.0826C68.7667 59.2022 68.751 60.3926 68.398 61.5033C68.0451 62.614 67.3708 63.5951 66.4604 64.3226C65.55 65.0502 64.4443 65.4915 63.2832 65.5909C62.122 65.6902 60.9574 65.4431 59.9367 64.8807C58.9159 64.3184 58.0848 63.4661 57.5483 62.4315C57.0119 61.3969 56.7941 60.2265 56.9227 59.0682C57.0512 57.9099 57.5203 56.8157 58.2705 55.9239Z" fill="#182F43" stroke="#FFC100"/>
<path d="M391.94 78.5068H345.702C343.885 78.5068 342.143 79.2285 340.859 80.5129C339.574 81.7974 338.853 83.5396 338.853 85.3561V110.074C338.853 111.89 339.574 113.632 340.859 114.917C342.143 116.201 343.885 116.923 345.702 116.923H347.14C345.702 120.11 342.94 124.962 338.501 127.849C338.501 127.849 347.875 127.197 357.642 116.923H374.78H391.919C393.736 116.923 395.478 116.201 396.762 114.917C398.047 113.632 398.769 111.89 398.769 110.074V85.3561C398.769 83.5432 398.05 81.8041 396.77 80.5202C395.49 79.2363 393.753 78.5123 391.94 78.5068Z" fill="#AA4337"/>
<path d="M344.75 118.382C343.201 121.278 340.897 124.492 337.688 126.575L337.681 126.58L337.673 126.585C337.399 126.771 337.192 127.04 337.083 127.354L338.029 127.68L337.083 127.354C336.975 127.667 336.972 128.007 337.074 128.322L337.074 128.323L337.078 128.334C337.181 128.638 337.377 128.902 337.639 129.087C337.898 129.271 338.209 129.368 338.527 129.366L344.75 118.382ZM344.75 118.382C344.923 118.058 345.087 117.738 345.241 117.424C343.461 117.305 341.778 116.543 340.51 115.272C339.134 113.892 338.359 112.023 338.357 110.074V85.3563L344.75 118.382ZM357.644 115.426C357.433 115.426 357.225 115.47 357.032 115.555M357.644 115.426C357.645 115.426 357.646 115.426 357.647 115.426L357.032 115.555M357.644 115.426H391.92C393.334 115.426 394.69 114.865 395.69 113.865C396.69 112.865 397.252 111.509 397.252 110.094V85.3563C397.252 83.9421 396.69 82.5859 395.69 81.586C394.69 80.5861 393.334 80.0243 391.92 80.0243M357.644 115.426L391.92 80.0243M357.032 115.555C356.845 115.639 356.677 115.759 356.538 115.91L357.032 115.555ZM391.92 80.0243C391.92 80.0243 391.92 80.0243 391.92 80.0243L345.703 80.0346H345.703C344.289 80.0346 342.932 80.5964 341.932 81.5963C340.932 82.5963 340.371 83.9525 340.371 85.3666V110.074C340.371 111.488 340.932 112.844 341.932 113.844C342.932 114.844 344.289 115.406 345.703 115.406H347.132C347.387 115.402 347.638 115.463 347.863 115.583L347.863 115.583C348.093 115.706 348.287 115.886 348.426 116.106L347.898 116.44L348.426 116.106C348.566 116.326 348.646 116.578 348.659 116.838C348.671 117.085 348.622 117.331 348.517 117.554L391.92 80.0243Z" fill="#182F43" stroke="#182F43" stroke-width="2"/>
<path d="M360.881 96.8299C360.881 96.1321 360.674 95.4499 360.287 94.8698C359.899 94.2896 359.348 93.8374 358.703 93.5703C358.059 93.3033 357.349 93.2334 356.665 93.3696C355.981 93.5057 355.352 93.8417 354.859 94.3351C354.365 94.8285 354.029 95.4572 353.893 96.1416C353.757 96.8259 353.827 97.5353 354.094 98.18C354.361 98.8247 354.813 99.3757 355.393 99.7634C355.973 100.151 356.656 100.358 357.353 100.358C357.815 100.358 358.273 100.267 358.699 100.09C359.126 99.9134 359.514 99.6543 359.841 99.3276C360.167 99.001 360.427 98.6132 360.603 98.1864C360.78 97.7596 360.871 97.3022 360.871 96.8402L360.881 96.8299Z" fill="white"/>
<path d="M369.345 100.358C371.293 100.358 372.873 98.7784 372.873 96.8299C372.873 94.8813 371.293 93.3018 369.345 93.3018C367.396 93.3018 365.816 94.8813 365.816 96.8299C365.816 98.7784 367.396 100.358 369.345 100.358Z" fill="white"/>
<path d="M384.853 96.8299C384.853 96.1321 384.646 95.4499 384.259 94.8698C383.871 94.2896 383.32 93.8374 382.675 93.5703C382.03 93.3033 381.321 93.2334 380.637 93.3696C379.952 93.5057 379.324 93.8417 378.83 94.3351C378.337 94.8285 378.001 95.4572 377.865 96.1416C377.729 96.8259 377.798 97.5353 378.065 98.18C378.332 98.8247 378.785 99.3757 379.365 99.7634C379.945 100.151 380.627 100.358 381.325 100.358C382.261 100.358 383.158 99.9863 383.82 99.3246C384.481 98.663 384.853 97.7656 384.853 96.8299Z" fill="white"/>
<path d="M26.7749 175.179C36.8232 174.19 44.1674 165.243 43.1786 155.194C42.1899 145.146 33.2425 137.802 23.1941 138.791C13.1458 139.779 5.80157 148.727 6.79036 158.775C7.77915 168.824 16.7265 176.168 26.7749 175.179Z" fill="#AA4337"/>
<path d="M25.0054 175.773C21.2872 175.773 17.6526 174.671 14.561 172.605C11.4695 170.54 9.05995 167.603 7.63707 164.168C6.2142 160.733 5.84191 156.953 6.56729 153.307C7.29266 149.66 9.08313 146.31 11.7123 143.681C14.3414 141.052 17.6911 139.261 21.3378 138.536C24.9845 137.811 28.7645 138.183 32.1996 139.606C35.6347 141.029 38.5708 143.438 40.6365 146.53C42.7022 149.621 43.8047 153.256 43.8047 156.974C43.8061 159.443 43.3208 161.888 42.3765 164.17C41.4322 166.451 40.0475 168.524 38.3016 170.27C36.5556 172.016 34.4826 173.401 32.2012 174.345C29.9197 175.29 27.4745 175.775 25.0054 175.773ZM25.0054 139.209C21.4919 139.209 18.0573 140.251 15.1359 142.203C12.2145 144.155 9.93752 146.93 8.59296 150.176C7.24839 153.422 6.89658 156.994 7.58204 160.44C8.26749 163.886 9.95942 167.051 12.4439 169.536C14.9283 172.02 18.0937 173.712 21.5397 174.397C24.9857 175.083 28.5576 174.731 31.8036 173.387C35.0497 172.042 37.8242 169.765 39.7762 166.844C41.7282 163.922 42.7701 160.488 42.7701 156.974C42.7701 152.263 40.8985 147.744 37.5669 144.413C34.2354 141.081 29.7169 139.209 25.0054 139.209Z" fill="#AA4337" stroke="#182F43" stroke-width="2"/>
<path d="M18.8828 148.196L34.8828 157.196L18.8828 166.196V148.196Z" fill="white"/>
<path d="M18.3314 167.196C18.2519 167.199 18.1736 167.177 18.1071 167.135C18.0381 167.099 17.9807 167.045 17.9411 166.979C17.9016 166.913 17.8815 166.837 17.8829 166.761V147.628C17.8815 147.552 17.9016 147.477 17.9411 147.411C17.9807 147.345 18.0381 147.291 18.1071 147.255C18.1753 147.216 18.2527 147.196 18.3314 147.196C18.4101 147.196 18.4875 147.216 18.5556 147.255L35.6524 156.821C35.7543 156.874 35.8303 156.965 35.8639 157.072C35.8975 157.18 35.886 157.296 35.8318 157.395C35.7914 157.469 35.7289 157.53 35.6524 157.569L18.5556 167.135C18.4887 167.176 18.4107 167.198 18.3314 167.196ZM18.7799 148.368V166.005L34.5312 157.186L18.7799 148.368Z" fill="#182F43"/>
<path d="M36.3178 356.314L36.3165 356.313C21.6922 350.665 11.8391 340.226 5.94113 325.85L5.93697 325.84L5.93236 325.83C4.60431 322.958 3.96499 319.816 4.06533 316.654L4.06536 316.654C4.14292 314.077 4.9541 311.576 6.40365 309.444C7.8532 307.312 9.88092 305.638 12.2487 304.619L12.2721 304.609L12.2943 304.596C13.0685 304.165 13.9802 304.052 14.8363 304.282C15.6906 304.511 16.4223 305.063 16.877 305.822C18.7127 309.052 20.3739 312.379 21.8535 315.788C22.0934 316.435 22.1013 317.145 21.8755 317.798C21.6485 318.454 21.1993 319.01 20.6057 319.37L20.5852 319.383L20.566 319.397C19.1631 320.444 17.7035 321.413 16.1939 322.3C15.9459 322.406 15.72 322.557 15.528 322.747C15.3267 322.945 15.1668 323.182 15.0574 323.443L15.5184 323.636L15.0574 323.443C14.948 323.704 14.8912 323.983 14.8905 324.266C14.8898 324.547 14.9441 324.825 15.0504 325.084C15.1262 325.281 15.2319 325.464 15.3636 325.628C19.9045 333.655 26.2472 340.518 33.8922 345.676C34.5076 346.094 35.1188 346.313 35.7301 346.138C36.3158 345.971 36.7487 345.481 37.1217 344.897L37.1218 344.897L37.1271 344.888C38.0104 343.44 39.0321 342.081 40.1777 340.83L40.1865 340.82L40.1947 340.81C40.6986 340.2 41.4017 339.786 42.1804 339.642C42.9591 339.499 43.7635 339.634 44.4522 340.025L44.4632 340.031L44.4746 340.037C47.3293 341.47 50.1003 343.065 52.7739 344.813C54.2711 345.847 54.9965 346.915 55.1467 348.016C55.2984 349.127 54.8824 350.405 53.802 351.894L53.8019 351.893L53.796 351.902C51.9061 354.623 49.0398 356.51 45.7937 357.171C42.6174 357.784 39.3324 357.487 36.3178 356.314Z" fill="#AA4337" stroke="#FBFBFF"/>
<path d="M36.1946 356.804L36.1943 356.804C21.9638 351.314 11.6407 340.975 5.50634 326.046L5.50208 326.035L5.49735 326.025C4.12969 323.08 3.47568 319.854 3.58842 316.608L3.5885 316.605C3.66605 313.939 4.50168 311.35 5.99758 309.141C7.49347 306.932 9.58771 305.195 12.0351 304.133L12.0568 304.124L12.0776 304.112C12.9737 303.618 14.0271 303.492 15.0144 303.761C16.0003 304.03 16.8429 304.672 17.3639 305.551C19.2164 308.81 20.8839 312.17 22.3586 315.616C22.6541 316.373 22.6731 317.21 22.4121 317.98C22.1504 318.752 21.6239 319.406 20.926 319.827L20.905 319.84L20.8853 319.855C19.4897 320.895 18.0004 321.899 16.456 322.836C15.9991 323.11 15.5998 323.444 15.4749 323.937C15.3506 324.428 15.5393 324.915 15.8083 325.382C20.3183 333.335 26.6042 340.139 34.1759 345.264C34.5246 345.543 34.9588 345.694 35.4059 345.691L35.4474 345.691L35.4883 345.684C35.7523 345.638 35.9706 345.488 36.1475 345.317C36.3266 345.143 36.4976 344.915 36.6662 344.647L36.6663 344.647L36.67 344.641C37.5714 343.165 38.6141 341.781 39.7835 340.507L39.792 340.498L39.8 340.488C40.3818 339.786 41.192 339.312 42.0886 339.147C42.9852 338.983 43.9109 339.14 44.7037 339.59L44.7037 339.59L44.7124 339.594L45.7949 340.181L45.7948 340.181L45.807 340.187C48.2993 341.45 50.7125 342.864 53.0331 344.42L53.0482 344.431L53.064 344.44C53.7094 344.807 54.2726 345.304 54.7189 345.897C55.1582 346.482 55.475 347.149 55.6506 347.859C55.7207 348.631 55.6356 349.41 55.4 350.15C55.1609 350.9 54.7718 351.594 54.2563 352.19L54.2402 352.208L54.2261 352.228C52.2419 355.036 49.2584 356.978 45.8877 357.657L45.5155 357.731L45.513 357.766C42.379 358.282 39.1615 357.951 36.1946 356.804ZM3.59586 316.663L3.59584 316.663C3.50022 319.893 4.15475 323.101 5.50798 326.036C11.6258 340.912 21.9768 351.257 36.13 356.747C39.2251 357.959 42.6012 358.265 45.8636 357.629L45.8661 357.628C49.2138 356.958 52.1761 355.029 54.1421 352.238C54.6478 351.654 55.0332 350.975 55.2761 350.241C55.5219 349.499 55.6168 348.715 55.5554 347.936L55.5521 347.894L55.542 347.854C55.3643 347.142 55.0438 346.475 54.5999 345.891C54.1597 345.312 53.6072 344.828 52.9757 344.467C50.6458 342.922 48.2274 341.514 45.7327 340.251L44.6595 339.67C43.8727 339.229 42.9558 339.079 42.0695 339.246C41.1866 339.413 40.3902 339.884 39.8189 340.577C38.6542 341.848 37.6174 343.231 36.7235 344.705L36.712 344.724L36.7023 344.744C36.582 344.989 36.4121 345.206 36.2032 345.381C36.0017 345.55 35.7682 345.677 35.5168 345.754C35.2863 345.789 35.0508 345.775 34.826 345.712C34.5921 345.647 34.3755 345.532 34.1916 345.373L34.1695 345.354L34.1454 345.338C26.557 340.202 20.2589 333.382 15.7434 325.409L15.7236 325.374L15.6984 325.343C15.5628 325.173 15.4619 324.979 15.4015 324.771C15.3411 324.563 15.3224 324.345 15.3464 324.129C15.3704 323.914 15.4367 323.705 15.5415 323.516C15.6454 323.327 15.7851 323.161 15.9526 323.027C16.0745 322.935 16.2071 322.858 16.3476 322.797L16.3799 322.783L16.41 322.765C17.9408 321.834 19.4311 320.843 20.8196 319.815C21.5097 319.413 22.0377 318.781 22.3113 318.03C22.5884 317.269 22.5866 316.435 22.3062 315.675L22.3014 315.662L22.2959 315.649C20.8013 312.201 19.1213 308.836 17.2633 305.57L17.2633 305.57L17.2604 305.565C16.8692 304.895 16.2786 304.365 15.5713 304.047C14.8659 303.731 14.0795 303.641 13.3212 303.792C12.8885 303.868 12.4679 304.001 12.0706 304.189C9.62077 305.248 7.52295 306.983 6.02228 309.19C4.52 311.4 3.67834 313.992 3.59586 316.663Z" fill="#AA4337" stroke="#FBFBFF"/>
<path d="M58.9847 328.61L58.984 328.635L58.9857 328.659C59.0042 328.923 58.9705 329.188 58.8864 329.439C58.8023 329.69 58.6696 329.922 58.4958 330.122C58.322 330.321 58.1105 330.485 57.8735 330.602C57.6391 330.719 57.3842 330.788 57.1233 330.807C56.9912 330.811 56.859 330.806 56.7276 330.793L56.7175 330.792L56.7073 330.791C56.1232 330.756 55.6567 330.506 55.3309 330.095C55 329.677 54.7895 329.06 54.7985 328.265C54.8708 322.707 52.825 317.33 49.0766 313.225C45.3281 309.12 40.158 306.596 34.6161 306.165L34.6032 306.164L34.5903 306.164C34.1266 306.152 33.665 306.098 33.211 306.004L33.211 306.004L33.2055 306.002C32.7341 305.91 32.3128 305.648 32.0209 305.266C31.729 304.885 31.5867 304.409 31.6207 303.93L31.6231 303.896L31.6208 303.862C31.605 303.623 31.6364 303.383 31.7133 303.157C31.7902 302.93 31.911 302.721 32.0689 302.541C32.2267 302.361 32.4185 302.214 32.6331 302.109C32.8478 302.003 33.0812 301.941 33.3201 301.926L33.3469 301.924L33.3735 301.919L33.5743 301.885C35.9331 301.989 38.274 302.344 40.5573 302.945C45.1986 304.363 49.3583 307.035 52.5777 310.666C55.7917 314.291 57.9437 318.733 58.7973 323.501C58.8197 324.046 58.851 324.583 58.882 325.115C58.9505 326.289 59.0176 327.441 58.9847 328.61Z" fill="#182F43" stroke="#FBFBFF"/>
<path d="M57.4424 331.314L57.4397 331.315C57.1758 331.357 56.9083 331.372 56.6414 331.358C55.238 331.264 54.219 330.114 54.2354 328.285C54.3076 322.862 52.3129 317.616 48.6567 313.61C45.0002 309.605 39.9561 307.142 34.549 306.721L34.549 306.721L34.5367 306.72L34.1517 306.7L34.1409 306.699L34.13 306.699C33.7687 306.695 33.4093 306.646 33.0604 306.553L33.047 306.549L33.0335 306.546C32.4449 306.422 31.9208 306.091 31.5575 305.611C31.1941 305.132 31.016 304.538 31.0559 303.938L31.0571 303.918L31.0569 303.899C31.0526 303.529 31.1235 303.163 31.2654 302.822C31.4064 302.483 31.6145 302.176 31.8771 301.919C32.0999 301.716 32.3628 301.562 32.6488 301.467C32.9371 301.372 33.2424 301.338 33.5446 301.369L33.5589 301.37L33.5733 301.371C35.9879 301.476 38.3845 301.837 40.723 302.448C45.4545 303.877 49.6973 306.59 52.9804 310.285C56.2653 313.982 58.4608 318.518 59.3228 323.388L59.3303 323.431C59.3564 323.952 59.3861 324.494 59.4171 324.983C59.492 326.17 59.5618 327.379 59.5247 328.58L59.5242 328.596L59.5248 328.612C59.5376 328.994 59.4734 329.374 59.3362 329.731C59.2001 330.085 58.9948 330.408 58.7325 330.681C58.3769 331.018 57.9269 331.239 57.4424 331.314ZM33.4699 301.497L33.4602 301.441L32.9734 301.518C32.5849 301.579 32.2227 301.753 31.9311 302.017L31.9228 302.024L31.9148 302.032C31.6629 302.282 31.4637 302.58 31.329 302.908C31.1971 303.229 31.1296 303.573 31.1305 303.92C31.0889 304.519 31.2686 305.113 31.6359 305.589C32.0047 306.067 32.5364 306.392 33.1295 306.502C33.4685 306.583 33.8161 306.623 34.1646 306.622L34.5617 306.646C39.9793 307.081 45.0296 309.557 48.691 313.574C52.3535 317.592 54.3528 322.851 54.2843 328.287C54.2739 329.098 54.4676 329.819 54.8729 330.36C55.2831 330.907 55.884 331.233 56.598 331.281C56.9505 331.322 57.3075 331.291 57.6479 331.191C57.993 331.09 58.3138 330.919 58.5908 330.69L58.6136 330.671L58.634 330.649C58.8941 330.376 59.0971 330.054 59.2313 329.701C59.3635 329.354 59.4263 328.984 59.4161 328.613C59.4481 327.555 59.3891 326.471 59.3325 325.43C59.3252 325.296 59.3179 325.162 59.3109 325.029L59.3109 325.029L59.3105 325.023C59.3046 324.934 59.2985 324.844 59.2924 324.753C59.2629 324.319 59.233 323.879 59.2292 323.507L59.2287 323.465L59.2213 323.423C58.3518 318.569 56.1534 314.051 52.8704 310.371C49.5874 306.691 45.3483 303.993 40.6242 302.577L40.616 302.575L40.6078 302.573C38.2751 301.96 35.8833 301.599 33.4735 301.497L33.4699 301.497Z" fill="#182F43" stroke="#FBFBFF"/>
<path d="M50.3674 329.383L50.3667 329.403L50.3677 329.423C50.3816 329.697 50.3411 329.971 50.2486 330.229C50.1561 330.487 50.0135 330.724 49.829 330.927C49.6445 331.129 49.4217 331.293 49.1734 331.41C48.9252 331.526 48.6564 331.592 48.3826 331.603L48.3504 331.605L48.3187 331.61L48.2727 331.618C47.9942 331.608 47.7201 331.545 47.4648 331.432C47.1957 331.314 46.9528 331.143 46.7503 330.93C46.5479 330.717 46.3898 330.465 46.2854 330.19C46.181 329.915 46.1323 329.623 46.1421 329.329L46.1427 329.312L46.1421 329.294C46.085 327.68 45.841 326.077 45.4148 324.518L45.4099 324.501L45.4038 324.484C44.3725 321.568 42.7923 319.28 40.6765 317.639C38.5615 315.999 35.9403 315.028 32.862 314.701L32.8617 314.701C31.9522 314.605 31.2866 314.328 30.866 313.95C30.4595 313.585 30.2484 313.099 30.2823 312.481C30.3163 311.858 30.5883 311.35 31.05 310.997C31.5184 310.639 32.2173 310.416 33.1321 310.451C41.3402 310.824 48.7129 317.407 50.2533 326.332C50.2615 326.525 50.2767 326.754 50.2935 327.008C50.3378 327.676 50.394 328.522 50.3674 329.383Z" fill="#182F43" stroke="#FBFBFF"/>
<path d="M45.5818 329.474L45.5816 329.431L45.5744 329.39C45.539 329.186 45.5271 328.986 45.5133 328.756C45.5071 328.652 45.5005 328.543 45.4913 328.425C45.4349 327.193 45.2232 325.974 44.8612 324.796L44.8581 324.786L44.8546 324.776C43.8678 321.99 42.3595 319.782 40.3251 318.192C38.2912 316.603 35.7606 315.654 32.7649 315.34C31.7323 315.23 30.9428 314.886 30.4307 314.408C29.9285 313.939 29.6645 313.316 29.7069 312.56C29.7373 312.02 29.9243 311.521 30.2508 311.111C29.9687 311.509 29.8077 311.983 29.7919 312.476C29.7355 313.566 30.3103 314.249 30.9808 314.639C31.6225 315.013 32.3689 315.136 32.7998 315.178C35.8584 315.498 38.3886 316.46 40.4049 318.031C42.4188 319.6 43.9487 321.799 44.9739 324.643C45.3362 325.83 45.5484 327.057 45.6056 328.297L45.607 328.328L45.6124 328.359C45.6357 328.493 45.6471 328.637 45.6568 328.801C45.6586 328.831 45.6603 328.862 45.6621 328.894C45.6689 329.016 45.6764 329.15 45.6895 329.283C45.6718 329.627 45.7214 329.971 45.8355 330.296C45.9545 330.635 46.1413 330.946 46.3845 331.211C46.6278 331.475 46.9223 331.687 47.2502 331.834C47.5781 331.982 47.9325 332.06 48.2918 332.066L48.3006 332.066L48.3093 332.066C48.6461 332.059 48.9783 331.987 49.287 331.852C49.5957 331.717 49.8747 331.522 50.108 331.279C50.3413 331.036 50.5245 330.75 50.647 330.436C50.7694 330.122 50.8288 329.787 50.8216 329.45L50.8208 329.413L50.8144 329.375L50.8144 329.375L50.8144 329.375L50.8144 329.375L50.8144 329.375L50.8144 329.375L50.8144 329.375L50.8144 329.375L50.8144 329.375L50.8144 329.375L50.8144 329.375L50.8144 329.375L50.8144 329.375L50.8144 329.375L50.8143 329.375L50.8143 329.375L50.8143 329.375L50.8143 329.375L50.8143 329.375L50.8143 329.375L50.8143 329.375L50.8143 329.375L50.8143 329.375L50.8143 329.375L50.8143 329.375L50.8143 329.375L50.8143 329.375L50.8143 329.375L50.8143 329.375L50.8143 329.375L50.8143 329.375L50.8142 329.375L50.8142 329.374L50.8142 329.374L50.8142 329.374L50.8142 329.374L50.8142 329.374L50.8142 329.374L50.8142 329.374L50.8142 329.374L50.8142 329.374L50.8142 329.374L50.8141 329.374L50.8141 329.374L50.8141 329.374L50.8141 329.374L50.8141 329.374L50.8141 329.374L50.8141 329.374L50.8141 329.374L50.8141 329.373L50.8141 329.373L50.814 329.373L50.814 329.373L50.814 329.373L50.814 329.373L50.814 329.373L50.814 329.373L50.814 329.373L50.814 329.373L50.8139 329.373L50.8139 329.373L50.8139 329.373L50.8139 329.373L50.8139 329.372L50.8139 329.372L50.8139 329.372L50.8138 329.372L50.8138 329.372L50.8138 329.372L50.8138 329.372L50.8138 329.372L50.8138 329.372L50.8138 329.372L50.8137 329.372L50.8137 329.372L50.8137 329.371L50.8137 329.371L50.8137 329.371L50.8137 329.371L50.8137 329.371L50.8136 329.371L50.8136 329.371L50.8136 329.371L50.8136 329.371L50.8136 329.371L50.8135 329.371L50.8135 329.37L50.8135 329.37L50.8135 329.37L50.8135 329.37L50.8135 329.37L50.8134 329.37L50.8134 329.37L50.8134 329.37L50.8134 329.37L50.8134 329.369L50.8134 329.369L50.8133 329.369L50.8133 329.369L50.8133 329.369L50.8133 329.369L50.8133 329.369L50.8132 329.369L50.8132 329.369L50.8132 329.368L50.8132 329.368L50.8132 329.368L50.8131 329.368L50.8131 329.368L50.8131 329.368L50.8131 329.368L50.8131 329.368L50.813 329.368L50.813 329.367L50.813 329.367L50.813 329.367L50.8129 329.367L50.8129 329.367L50.8129 329.367L50.8129 329.367L50.8129 329.367L50.8128 329.366L50.8128 329.366L50.8128 329.366L50.8128 329.366L50.8127 329.366L50.8127 329.366L50.8127 329.366L50.8127 329.365L50.8127 329.365L50.8126 329.365L50.8126 329.365L50.8126 329.365L50.8126 329.365L50.8125 329.365L50.8125 329.364L50.8125 329.364L50.8125 329.364L50.8124 329.364L50.8124 329.364L50.8124 329.364L50.8124 329.364L50.8123 329.363L50.8123 329.363L50.8123 329.363L50.8123 329.363L50.8122 329.363L50.8122 329.363L50.8122 329.363L50.8122 329.362L50.8121 329.362L50.8121 329.362L50.8121 329.362L50.812 329.362L50.812 329.362L50.812 329.362L50.812 329.361L50.8119 329.361L50.8119 329.361L50.8119 329.361L50.8119 329.361L50.8118 329.361L50.8118 329.36L50.8118 329.36L50.8118 329.36L50.8117 329.36L50.8117 329.36L50.8117 329.36L50.8116 329.359L50.8116 329.359L50.8116 329.359L50.8116 329.359L50.8115 329.359L50.8115 329.359L50.8115 329.359L50.8114 329.358L50.8114 329.358L50.8114 329.358L50.8114 329.358L50.8113 329.358L50.8113 329.358L50.8113 329.357L50.8112 329.357L50.8112 329.357L50.8112 329.357L50.8111 329.357L50.8111 329.356L50.8111 329.356L50.8111 329.356L50.811 329.356L50.811 329.356L50.811 329.356L50.8109 329.355L50.8109 329.355L50.8109 329.355L50.8108 329.355L50.8108 329.355L50.8108 329.355L50.8107 329.354L50.8107 329.354L50.8107 329.354L50.8107 329.354L50.8106 329.354L50.8106 329.353L50.8106 329.353L50.8105 329.353L50.8105 329.353L50.8105 329.353L50.8104 329.353L50.8104 329.352L50.8104 329.352L50.8103 329.352L50.8103 329.352L50.8103 329.352L50.8102 329.351L50.8102 329.351L50.8102 329.351L50.8101 329.351L50.8101 329.351L50.8101 329.35L50.81 329.35L50.81 329.35L50.81 329.35L50.8099 329.35L50.8099 329.35L50.8099 329.349L50.8098 329.349L50.8098 329.349L50.8098 329.349L50.8097 329.349L50.8097 329.348L50.8097 329.348L50.8096 329.348L50.8096 329.348L50.8096 329.348L50.8095 329.347L50.8095 329.347L50.8095 329.347L50.8094 329.347L50.8094 329.347L50.8094 329.346L50.8093 329.346L50.8093 329.346L50.8093 329.346L50.8092 329.346L50.8092 329.345L50.8092 329.345L50.8091 329.345L50.8091 329.345L50.8091 329.345L50.809 329.344L50.809 329.344L50.8089 329.344L50.8089 329.344L50.8089 329.344L50.8088 329.343L50.8088 329.343L50.8088 329.343L50.8087 329.343L50.8087 329.343L50.8087 329.342L50.8086 329.342L50.8086 329.342L50.8086 329.342L50.8085 329.342L50.8085 329.341L50.8084 329.341L50.8084 329.341L50.8084 329.341L50.8083 329.34L50.8083 329.34L50.8083 329.34L50.8082 329.34L50.8082 329.34L50.8082 329.339L50.8081 329.339L50.8081 329.339C50.8263 328.524 50.7778 327.692 50.7413 327.066C50.7382 327.012 50.7351 326.959 50.7322 326.908L50.7296 326.863L50.7188 326.819C50.6845 326.678 50.6751 326.532 50.6908 326.387L50.6985 326.317L50.6864 326.248C49.8248 321.277 47.2013 316.966 43.5716 314.034C47.2491 316.976 49.9191 321.325 50.7937 326.371L50.8047 326.434L50.8063 326.444L50.8083 326.453C50.8402 326.603 50.8478 326.757 50.8309 326.91L50.8257 326.956L50.8293 327.003C50.8807 327.673 50.9313 328.582 50.908 329.489L50.9078 329.496L50.9078 329.503C50.9097 330.118 50.6967 330.714 50.3054 331.188C49.915 331.662 49.3717 331.984 48.7693 332.1L48.2769 332.185C47.9328 332.182 47.5923 332.113 47.2735 331.983C46.9424 331.847 46.6412 331.648 46.3872 331.396C46.1332 331.145 45.9313 330.845 45.7931 330.515C45.6549 330.185 45.5831 329.831 45.5818 329.474Z" fill="#182F43" stroke="#FBFBFF"/>
<path d="M37.4298 329.763C37.4258 329.696 37.4212 329.621 37.4143 329.547C37.3351 327.95 36.6704 326.438 35.5472 325.3C34.4251 324.164 32.9242 323.48 31.3307 323.379C30.4726 323.268 29.8602 322.965 29.4821 322.564C29.1102 322.169 28.9234 321.636 28.9901 320.966C29.0561 320.304 29.3473 319.837 29.7973 319.538C30.2612 319.23 30.9452 319.067 31.8374 319.138C34.498 319.38 36.9748 320.599 38.7897 322.56C40.6043 324.52 41.6287 327.083 41.6654 329.754C41.6624 330.648 41.4677 331.255 41.1555 331.643C40.8533 332.019 40.3854 332.258 39.6752 332.305C38.9727 332.351 38.4912 332.167 38.1551 331.824C37.8042 331.466 37.5455 330.868 37.4439 329.961C37.4384 329.903 37.4345 329.84 37.4301 329.767L37.4298 329.763Z" fill="#182F43" stroke="#FBFBFF"/>
<path d="M36.9252 330.051L36.9234 330.034L36.9205 330.017L36.8488 329.603C36.7739 328.136 36.1613 326.748 35.1273 325.703C34.09 324.655 32.702 324.028 31.2304 323.941C30.2108 323.811 29.4765 323.439 29.0184 322.936C28.5639 322.437 28.3387 321.763 28.4179 320.933C28.4956 320.118 28.8604 319.524 29.4221 319.14C29.995 318.748 30.8182 318.546 31.8464 318.625C34.6391 318.886 37.2374 320.168 39.1441 322.226C41.0513 324.283 42.1325 326.972 42.181 329.777C42.1891 330.7 41.9849 331.395 41.6384 331.881C41.298 332.357 40.7888 332.676 40.0884 332.797L39.6912 332.866C38.8797 332.917 38.2626 332.688 37.8188 332.252C37.3606 331.803 37.0322 331.079 36.9252 330.051ZM31.274 323.873L31.2895 323.875L31.3051 323.876C32.7773 323.975 34.1625 324.609 35.1993 325.658C36.2361 326.708 36.8529 328.101 36.9331 329.574L36.9347 329.604L36.9397 329.633L37.0103 330.04C37.1529 331.349 37.6325 332.098 38.2595 332.479C38.8444 332.835 39.454 332.798 39.7033 332.783C39.7102 332.783 39.7169 332.783 39.7233 332.782L39.7233 332.782L39.7288 332.782C40.1758 332.751 40.8124 332.657 41.3282 332.189C41.8567 331.709 42.1589 330.933 42.1551 329.762L42.1551 329.762L42.1551 329.758C42.1228 326.969 41.0553 324.293 39.1599 322.248C37.2652 320.204 34.6786 318.936 31.9022 318.692C31.5102 318.652 31.1149 318.66 30.7249 318.715C30.1521 318.763 29.6146 319.012 29.2085 319.419C28.8001 319.829 28.5518 320.371 28.5085 320.948C28.4312 321.727 28.6462 322.421 29.1589 322.946C29.6604 323.459 30.3968 323.759 31.274 323.873Z" fill="#182F43" stroke="#FBFBFF"/>
<path d="M19.0265 318.377L19.0168 318.36L19.0056 318.344C19.0002 318.335 18.9981 318.325 19 318.316C19.0018 318.306 19.0074 318.298 19.0155 318.292L19.0155 318.292L19.0214 318.288L19.0583 318.353L19.9647 319.953C19.9695 319.964 19.9705 319.975 19.9673 319.987L20.4479 320.124L19.9673 319.987C19.9649 319.995 19.9602 320.003 19.9538 320.008C19.9474 320.005 19.9419 320 19.9382 319.994L19.0265 318.377Z" fill="white" stroke="#FBFBFF"/>
<path d="M18.1242 316.607L18.0885 316.609L18.0535 316.616C18.0502 316.617 18.0468 316.617 18.0438 316.615L17.8306 317.067L18.0438 316.615C18.0408 316.614 18.0383 316.611 18.0368 316.608L18.0369 316.608L18.0311 316.598L11.7338 305.403C11.7308 305.397 11.729 305.39 11.7283 305.384C11.7276 305.376 11.7284 305.368 11.7307 305.361C11.7331 305.353 11.7369 305.346 11.7419 305.34C11.7469 305.334 11.753 305.33 11.7599 305.326L11.77 305.321L11.7798 305.315C11.7854 305.312 11.7916 305.31 11.798 305.309C11.8044 305.309 11.8109 305.309 11.8171 305.311C11.8232 305.313 11.829 305.316 11.8339 305.32L11.8339 305.32C11.8389 305.324 11.8429 305.329 11.8458 305.335L11.8506 305.345L11.8558 305.354L18.1572 316.556L18.1572 316.556L18.1586 316.558C18.1635 316.567 18.1647 316.577 18.1622 316.586C18.1606 316.592 18.1577 316.597 18.1537 316.602C18.1442 316.605 18.1343 316.607 18.1242 316.607Z" fill="white" stroke="#FBFBFF"/>
<path d="M42.9674 343.77L42.9674 343.77L42.9662 343.769C42.9617 343.766 42.9577 343.762 42.9546 343.758C42.9514 343.754 42.9491 343.749 42.9479 343.744C42.9466 343.739 42.9463 343.733 42.9471 343.728C42.9479 343.723 42.9497 343.718 42.9525 343.713C42.9553 343.709 42.9589 343.705 42.9632 343.702C42.9675 343.698 42.9724 343.696 42.9775 343.695C42.9826 343.694 42.988 343.693 42.9932 343.694C42.9984 343.695 43.0033 343.697 43.0078 343.699C43.0079 343.699 43.008 343.699 43.0081 343.7L54.8082 350.883C54.8106 350.886 54.8123 350.89 54.813 350.894C54.8141 350.901 54.8126 350.908 54.8088 350.913L54.7898 350.941L54.7838 350.953L42.9674 343.77ZM54.9085 351.455L54.8332 351.045L54.9085 351.455Z" fill="white" stroke="#FBFBFF"/>
<path d="M41.798 343.482C41.6703 343.505 41.5385 343.482 41.4268 343.415L41.798 343.482ZM41.798 343.482L41.7089 342.997L42.1459 343.225C42.11 343.291 42.0602 343.348 42.0001 343.392C41.9401 343.436 41.8711 343.467 41.798 343.482ZM39.7562 341.776L39.7693 341.758L39.7807 341.739C39.7842 341.732 39.79 341.728 39.7966 341.726C39.8028 341.725 39.8094 341.725 39.8151 341.728L41.7287 342.885C41.7347 342.891 41.7388 342.9 41.7404 342.909C41.7425 342.921 41.7398 342.933 41.7328 342.944L41.7193 342.963L41.7078 342.984C41.7067 342.986 41.7052 342.988 41.7034 342.989C41.7028 342.99 41.7021 342.99 41.7014 342.991C41.6949 342.991 41.6885 342.989 41.6828 342.986L39.76 341.824C39.7582 341.822 39.7566 341.82 39.7552 341.818C39.7526 341.814 39.7508 341.809 39.75 341.804C39.7491 341.799 39.7492 341.794 39.7503 341.79C39.7514 341.785 39.7534 341.78 39.7562 341.776Z" fill="white" stroke="#FBFBFF"/>
<path d="M283.622 11.8506L219.206 19.1655L235.481 31.2914L283.622 11.8506Z" fill="white"/>
<path d="M235.48 31.8088C235.37 31.8097 235.262 31.7773 235.17 31.7157L218.906 19.5794C218.821 19.5183 218.758 19.4333 218.723 19.3355C218.688 19.2377 218.683 19.1316 218.709 19.031C218.735 18.9301 218.792 18.8399 218.871 18.7731C218.951 18.7062 219.05 18.6662 219.154 18.6586L283.56 11.4161C283.685 11.4025 283.811 11.435 283.913 11.5073C284.016 11.5797 284.089 11.687 284.119 11.8093C284.153 11.9287 284.141 12.0566 284.085 12.1676C284.03 12.2787 283.935 12.365 283.819 12.4094L235.677 31.8605C235.609 31.8538 235.543 31.8364 235.48 31.8088ZM220.571 19.538L235.563 30.7121L279.918 12.7922L220.571 19.538Z" fill="#182F43"/>
<path d="M235.481 31.2914L235.356 44.4416L283.622 11.8506L235.481 31.2914Z" fill="#F6F8FF"/>
<path d="M235.356 44.9594C235.273 44.9599 235.191 44.9385 235.118 44.8973C235.035 44.8532 234.966 44.7877 234.917 44.7077C234.868 44.6276 234.841 44.536 234.839 44.4421L234.963 31.2919C234.964 31.1897 234.994 31.09 235.051 31.0053C235.108 30.9206 235.189 30.8547 235.284 30.8159L283.425 11.3855C283.544 11.3348 283.677 11.3313 283.798 11.3755C283.919 11.4197 284.019 11.5083 284.077 11.6234C284.138 11.7362 284.154 11.8673 284.124 11.9915C284.093 12.1157 284.018 12.2241 283.912 12.296L235.646 44.8766C235.561 44.9349 235.459 44.9639 235.356 44.9594ZM235.998 31.6436L235.884 43.4592L279.266 14.1686L235.998 31.6436Z" fill="#182F43"/>
<path d="M235.356 44.4416L242.909 33.7849L283.622 11.8506L235.356 44.4416Z" fill="white"/>
<path d="M235.358 44.9591C235.29 44.96 235.222 44.9466 235.16 44.9198C235.098 44.8931 235.042 44.8536 234.995 44.8039C234.91 44.7172 234.859 44.6033 234.849 44.4823C234.84 44.3612 234.873 44.2407 234.944 44.1418L242.486 33.485C242.532 33.4205 242.592 33.3674 242.662 33.3298L283.375 11.3852C283.493 11.3231 283.63 11.3078 283.758 11.3423C283.887 11.3768 283.997 11.4587 284.068 11.5714C284.134 11.6871 284.154 11.8231 284.126 11.953C284.097 12.083 284.021 12.1977 283.913 12.275L235.647 44.8557C235.564 44.9199 235.463 44.9562 235.358 44.9591ZM243.262 34.1472L237.427 42.4243L274.746 17.2205L243.262 34.1472Z" fill="#182F43"/>
<path d="M242.909 33.7849L264.119 49.6355L283.622 11.8506L242.909 33.7849Z" fill="#F6F8FF"/>
<path d="M264.12 50.1535C264.007 50.1559 263.898 50.1193 263.809 50.05L242.599 34.1994C242.527 34.1486 242.471 34.0797 242.434 33.9997C242.398 33.9198 242.383 33.8316 242.392 33.7442C242.398 33.658 242.426 33.5747 242.473 33.5023C242.52 33.4299 242.585 33.3707 242.661 33.3303L283.374 11.3857C283.472 11.3353 283.583 11.3162 283.692 11.3311C283.802 11.3459 283.903 11.3938 283.985 11.4685C284.064 11.5467 284.115 11.6483 284.132 11.7583C284.149 11.8682 284.13 11.9806 284.078 12.0789L264.585 49.8741C264.55 49.9422 264.5 50.0017 264.439 50.0482C264.379 50.0947 264.308 50.1271 264.233 50.1431L264.12 50.1535ZM243.841 33.858L263.923 48.8602L282.37 13.1032L243.841 33.858Z" fill="#182F43"/>
<path d="M153.971 163.91H153.965C153.62 163.91 153.284 163.796 153.009 163.585C152.735 163.375 152.538 163.08 152.448 162.746L152.412 162.613C151.351 158.664 128.298 72.8623 124.173 45.3753C121.448 27.1996 126.857 16.5079 131.818 10.754L131.818 10.754C134.644 7.47595 138.156 4.85877 142.105 3.08753C146.054 1.3163 150.344 0.434269 154.672 0.503815L154.672 0.50388H154.68C163.718 0.50388 170.551 4.59829 175.436 9.801C180.329 15.0123 183.248 21.3189 184.432 25.6654C185.842 30.8977 187.941 38.7921 189.148 43.3309C189.671 45.2966 190.026 46.633 190.086 46.8511C190.169 47.2453 190.098 47.6566 189.887 48C189.674 48.3463 189.335 48.5967 188.941 48.6984C188.547 48.8002 188.129 48.7454 187.775 48.5456C187.429 48.3503 187.17 48.0312 187.049 47.6529C187.046 47.6385 187.043 47.6227 187.039 47.6073C187.031 47.5738 187.021 47.5289 187.007 47.4746C186.98 47.3654 186.94 47.2097 186.89 47.013C186.788 46.6192 186.641 46.0562 186.458 45.3613C186.092 43.9712 185.582 42.0505 185.007 39.8938C183.856 35.5804 182.444 30.321 181.398 26.4707C180.333 22.5548 177.715 16.8666 173.344 12.1484C168.965 7.42264 162.806 3.64974 154.684 3.64848C150.809 3.58615 146.967 4.37328 143.429 5.95456C139.889 7.53639 136.739 9.87451 134.201 12.8045L134.201 12.8046C129.614 18.1005 124.738 28.0093 127.287 44.9124C129.364 58.8428 136.365 87.8816 142.866 113.524C146.118 126.352 149.248 138.339 151.577 147.176C152.742 151.594 153.707 155.225 154.388 157.78C154.728 159.058 154.997 160.066 155.185 160.769C155.279 161.121 155.352 161.396 155.403 161.59C155.429 161.687 155.449 161.764 155.464 161.819L155.481 161.886L155.487 161.906L155.488 161.912L155.489 161.915L155.49 161.922L155.492 161.929C155.6 162.331 155.544 162.76 155.336 163.121C155.129 163.482 154.786 163.746 154.384 163.855L154.379 163.856C154.246 163.893 154.109 163.911 153.971 163.91Z" fill="#182F43" stroke="#FFC100"/>
<path d="M37.1803 263.756C28.5181 263.756 21.4723 260.762 17.9183 252.079C10.7792 234.682 32.9943 223.284 58.7116 210.073C67.0008 205.825 75.5594 201.421 83.7242 196.603C114.695 178.15 112.457 165.85 112.426 165.726C112.311 165.202 112.404 164.655 112.685 164.198C112.966 163.742 113.413 163.412 113.932 163.278C114.451 163.144 115.001 163.216 115.468 163.479C115.935 163.743 116.282 164.176 116.436 164.69C116.84 166.223 119.399 180.232 85.8483 200.178C77.5591 205.11 68.9384 209.503 60.6077 213.824C36.7037 226.092 16.0532 236.692 21.7521 250.566C28.0933 266.036 49.7799 258.69 70.762 251.602C83.7553 247.209 96.0233 243.054 103.68 245.137C110.498 247.002 111.897 251.727 112.643 254.265C112.747 254.669 112.882 255.064 113.047 255.446C113.404 255.854 113.588 256.385 113.558 256.926C113.528 257.467 113.288 257.975 112.888 258.341C112.488 258.707 111.961 258.901 111.42 258.883C110.878 258.865 110.365 258.636 109.991 258.244C109.332 257.428 108.88 256.464 108.675 255.436C108.012 253.188 107.183 250.39 102.593 249.136C96.158 247.375 84.4703 251.343 72.0883 255.529C60.2554 259.456 47.5522 263.756 37.1803 263.756Z" fill="#182F43"/>
<path d="M254.927 223.005C254.565 223.01 254.208 222.921 253.891 222.746C253.653 222.614 253.443 222.436 253.274 222.223C253.104 222.01 252.978 221.766 252.903 221.504C252.828 221.242 252.805 220.968 252.836 220.698C252.867 220.427 252.951 220.165 253.083 219.927C263.9 200.468 283.401 194.718 300.622 189.651C306.629 188.003 312.541 186.024 318.329 183.724C324.93 180.937 328.691 174.098 326.898 168.182C323.842 158.069 305.647 150.091 263.755 158.028C244.98 161.582 230.599 160.1 220.993 153.479C212.704 147.811 211.264 140.444 211.202 140.133C211.113 139.599 211.237 139.051 211.548 138.607C211.858 138.163 212.33 137.858 212.863 137.757C213.395 137.657 213.946 137.769 214.396 138.07C214.847 138.371 215.162 138.836 215.274 139.367C215.471 140.34 220.31 162.037 262.937 153.956C319.055 143.325 329.095 161.209 330.825 166.98C333.26 175.041 328.567 183.89 319.904 187.548C313.975 189.921 307.914 191.952 301.751 193.63C284.489 198.717 266.657 203.991 256.668 221.948C256.493 222.259 256.241 222.52 255.937 222.705C255.632 222.89 255.284 222.993 254.927 223.005Z" fill="#182F43"/>
<path d="M190.68 59.3729L190.676 59.3728C189.879 59.3715 189.104 59.1087 188.471 58.6249C187.837 58.1411 187.38 57.463 187.169 56.6945C187.168 56.6943 187.168 56.6942 187.168 56.6941L182.931 41.1528L182.931 41.1525C182.805 40.6906 182.77 40.2084 182.831 39.7333C182.891 39.2583 183.044 38.7997 183.281 38.3839C183.519 37.968 183.835 37.6029 184.214 37.3095C184.592 37.0162 185.025 36.8002 185.487 36.6739C185.949 36.5477 186.431 36.5137 186.906 36.5738C187.381 36.6339 187.839 36.787 188.255 37.0243L188.502 36.5918L188.255 37.0243C188.671 37.2617 189.036 37.5786 189.33 37.957C189.623 38.3354 189.839 38.7678 189.965 39.2296C189.965 39.2297 189.965 39.2297 189.965 39.2298L194.203 54.7716C194.203 54.7716 194.203 54.7717 194.203 54.7718C194.329 55.2336 194.362 55.7156 194.301 56.1903C194.241 56.6651 194.087 57.1233 193.849 57.5387C193.612 57.9542 193.294 58.3187 192.916 58.6115C192.537 58.9043 192.104 59.1197 191.643 59.2453L191.639 59.2462C191.327 59.3333 191.004 59.3759 190.68 59.3729Z" fill="#182F43" stroke="#FFC100"/>
<path d="M249.342 220.227C249.342 220.227 254.285 211.751 259.227 215.284C264.169 218.818 253.58 225.874 257.818 227.283C262.056 228.692 270.521 225.211 273.36 234.35C276.199 243.488 267.703 247.757 259.237 245.644C250.772 243.53 243.695 235.054 249.342 220.227Z" fill="white"/>
<path d="M263.465 246.691C261.994 246.689 260.529 246.505 259.103 246.141C256.89 245.639 254.811 244.667 253.007 243.29C251.204 241.913 249.717 240.165 248.648 238.163C246.11 233.314 246.193 227.045 248.855 220.041V219.968C248.98 219.751 251.891 214.788 255.632 214.01C256.298 213.867 256.987 213.869 257.652 214.016C258.317 214.162 258.943 214.45 259.486 214.86C262.595 217.067 260.388 220.466 258.803 222.952C257.953 224.289 257.072 225.667 257.3 226.32C257.3 226.392 257.404 226.62 257.932 226.797C259.289 227.12 260.684 227.249 262.077 227.18C266.325 227.18 271.609 227.18 273.754 234.195C275.205 238.909 273.682 241.831 272.138 243.458C270.98 244.547 269.617 245.394 268.128 245.949C266.638 246.504 265.053 246.756 263.465 246.691ZM249.809 220.455C247.26 227.159 247.177 233.117 249.56 237.687C250.565 239.556 251.96 241.188 253.649 242.473C255.338 243.758 257.282 244.666 259.352 245.136C264.191 246.349 268.946 245.406 271.475 242.743C273.402 240.671 273.879 237.852 272.853 234.454C270.925 228.237 266.273 228.237 262.16 228.175C260.644 228.248 259.126 228.101 257.652 227.739C257.365 227.667 257.1 227.528 256.876 227.333C256.653 227.139 256.479 226.895 256.368 226.62C255.963 225.491 256.896 224.04 257.974 222.351C259.859 219.388 261.082 217.171 258.927 215.668C258.502 215.339 258.01 215.107 257.485 214.988C256.96 214.87 256.416 214.869 255.891 214.984C252.783 215.699 250.068 220.02 249.809 220.455Z" fill="#182F43"/>
<path d="M269.755 245.167C269.652 245.167 269.552 245.138 269.465 245.084C269.351 245.008 269.272 244.891 269.245 244.757C269.218 244.623 269.245 244.484 269.32 244.369C275.257 235.313 265.672 228.568 265.258 228.288C265.145 228.209 265.068 228.088 265.043 227.953C265.018 227.817 265.047 227.678 265.123 227.563C265.161 227.506 265.209 227.458 265.266 227.421C265.322 227.383 265.386 227.357 265.452 227.345C265.519 227.332 265.587 227.333 265.654 227.347C265.72 227.362 265.783 227.389 265.838 227.428C265.942 227.501 276.676 235.034 270.169 244.929C270.125 245 270.064 245.058 269.992 245.1C269.92 245.141 269.838 245.164 269.755 245.167Z" fill="#182F43"/>
<path d="M253.062 334.234L149.831 350.346C142.951 351.382 135.936 345.662 134.174 337.477L80.5639 88.7385C77.4554 77.0093 88.0138 70.7613 94.8938 69.6837L193.059 55.8614C199.939 54.8253 206.943 60.5448 208.715 68.7304L269.216 317.065C270.977 325.261 266.739 332.192 253.062 334.234Z" fill="white"/>
<path d="M148.173 351C141.634 351 135.345 345.343 133.666 337.592L80.056 88.8434C79.4711 86.9016 79.3164 84.8555 79.6027 82.8478C79.889 80.84 80.6094 78.9188 81.7138 77.2178C84.9466 72.2857 90.7905 69.799 94.8211 69.1773L192.986 55.3447C200.115 54.236 207.399 60.1939 209.212 68.6281L269.713 316.952C270.179 318.7 270.27 320.527 269.981 322.312C269.692 324.098 269.028 325.802 268.034 327.314C265.382 331.147 260.377 333.634 253.135 334.722L149.913 350.834C149.338 350.936 148.756 350.991 148.173 351ZM194.716 56.2461C194.186 56.2463 193.655 56.2879 193.131 56.3705L94.9662 70.2031C91.1635 70.7937 85.6408 73.1354 82.5842 77.7877C81.557 79.3707 80.8884 81.1592 80.6253 83.0278C80.3622 84.8964 80.5109 86.8 81.061 88.6051L134.682 337.364C136.391 345.28 143.147 350.834 149.747 349.798L252.979 333.644C259.932 332.608 264.708 330.256 267.174 326.671C268.092 325.274 268.703 323.699 268.967 322.048C269.231 320.398 269.143 318.711 268.708 317.097L208.207 68.8561C206.643 61.5719 200.788 56.2461 194.716 56.2461Z" fill="#182F43"/>
<path d="M260.119 331.416L156.908 347.528C150.028 348.564 143.024 342.834 141.263 334.649L87.621 85.9102C85.8596 77.7246 90.0042 70.2229 96.8842 69.1453L200.116 53.0331C206.996 51.997 214.011 57.7269 215.772 65.9125L269.383 314.651C271.154 322.836 266.999 330.338 260.119 331.416Z" fill="#182F43"/>
<path d="M155.239 348.151C148.691 348.151 142.401 342.493 140.733 334.743L87.1124 86.0047C86.6102 83.896 86.5394 81.7075 86.9044 79.5708C87.2695 77.4341 88.0627 75.3932 89.2365 73.5709C90.094 72.281 91.2083 71.1819 92.5097 70.3422C93.8112 69.5025 95.2718 68.9402 96.8004 68.6906L200.032 52.5784C207.171 51.4594 214.455 57.4173 216.279 65.8515L269.848 314.528C270.367 316.644 270.451 318.844 270.094 320.993C269.738 323.143 268.949 325.198 267.776 327.034C266.915 328.323 265.799 329.422 264.496 330.261C263.193 331.101 261.731 331.664 260.201 331.914L156.97 348.026C156.397 348.115 155.819 348.156 155.239 348.151ZM201.783 53.4074C201.252 53.4076 200.722 53.4491 200.198 53.5317L96.9662 69.6438C95.5752 69.8712 94.2461 70.3834 93.0622 71.1483C91.8783 71.9132 90.8652 72.9143 90.0861 74.0889C88.9874 75.8058 88.2475 77.7273 87.9109 79.7378C87.5744 81.7482 87.6481 83.8059 88.1278 85.7871L141.738 334.525C143.448 342.431 150.204 347.995 156.814 346.959L260.046 330.837C261.436 330.609 262.763 330.097 263.945 329.332C265.127 328.567 266.139 327.566 266.916 326.392C268.019 324.677 268.762 322.756 269.101 320.745C269.439 318.734 269.366 316.675 268.884 314.693L215.264 66.0173C213.699 58.7643 207.845 53.4281 201.794 53.4281L201.783 53.4074Z" fill="#182F43"/>
<path d="M260.627 301.866L144.091 320.05L95.2988 93.6616L211.824 75.4668L260.627 301.866Z" fill="#FFC100"/>
<path d="M144.091 320.569C143.975 320.569 143.861 320.529 143.771 320.455C143.68 320.381 143.618 320.279 143.594 320.165L94.7912 93.7657C94.7633 93.6267 94.7892 93.4822 94.8637 93.3616C94.9048 93.3035 94.9571 93.2542 95.0177 93.2169C95.0782 93.1795 95.1457 93.1547 95.216 93.144L211.742 74.9596C211.873 74.9406 212.006 74.9716 212.116 75.0464C212.225 75.1213 212.302 75.2345 212.332 75.3637L261.135 301.752C261.15 301.822 261.151 301.893 261.136 301.963C261.122 302.033 261.093 302.099 261.052 302.156C260.971 302.271 260.848 302.349 260.71 302.374L144.174 320.569H144.091ZM95.9206 94.0869L144.475 319.47L259.985 301.441L211.42 76.0579L95.9206 94.0869Z" fill="#182F43"/>
<path d="M161.539 145.646C162.73 151.355 161.995 156.298 159.922 156.681C157.85 157.064 155.208 152.744 154.027 147.035C152.846 141.325 153.571 136.383 155.643 136C157.715 135.616 160.358 139.885 161.539 145.646Z" fill="#182F43"/>
<path d="M187.131 140.857C188.312 146.566 187.587 151.509 185.504 151.903C183.422 152.296 180.79 147.965 179.609 142.256C178.428 136.547 179.153 131.604 181.225 131.221C183.297 130.838 185.919 135.148 187.131 140.857Z" fill="#182F43"/>
<path d="M174.046 191.495C161.798 191.495 149.727 183.983 142.215 171.269C142.004 170.801 141.974 170.272 142.13 169.784C142.286 169.295 142.618 168.882 143.062 168.624C143.505 168.366 144.029 168.282 144.531 168.388C145.033 168.494 145.478 168.782 145.779 169.197C153.509 182.273 166.409 189.246 178.688 186.967C190.634 184.76 199.753 174.015 201.897 159.612C201.938 159.34 202.031 159.079 202.172 158.843C202.313 158.606 202.5 158.401 202.721 158.236C202.941 158.072 203.192 157.953 203.459 157.886C203.726 157.819 204.003 157.806 204.275 157.846C204.548 157.886 204.809 157.979 205.045 158.12C205.281 158.262 205.487 158.448 205.651 158.669C205.815 158.89 205.934 159.141 206.001 159.407C206.068 159.674 206.082 159.951 206.042 160.224C203.628 176.408 193.204 188.5 179.486 191.049C177.69 191.363 175.869 191.512 174.046 191.495Z" fill="#182F43"/>
<path d="M123.9 177.456L118.593 188.31L119.524 188.765L124.831 177.912L123.9 177.456Z" fill="white"/>
<path d="M168.41 86.506L128.681 167.747L129.611 168.202L169.341 86.9612L168.41 86.506Z" fill="white"/>
<path d="M156 87.2428L139.373 119.087L140.292 119.566L156.918 87.7224L156 87.2428Z" fill="white"/>
<path d="M234.009 267.534L215.566 304.013L216.491 304.48L234.934 268.001L234.009 267.534Z" fill="white"/>
<path d="M242.559 250.677L236.827 262.014L237.752 262.481L243.483 251.144L242.559 250.677Z" fill="white"/>
<path d="M167.424 71.6953L135.231 76.6791C134.546 76.7169 133.872 76.4962 133.343 76.0605C132.813 75.6249 132.466 75.0062 132.371 74.3271C132.268 74.0298 132.225 73.7151 132.244 73.401C132.262 73.087 132.343 72.7797 132.48 72.4967C132.618 72.2138 132.81 71.9608 133.046 71.7521C133.281 71.5435 133.555 71.3833 133.853 71.2808L134.06 71.2186L166.233 66.3176C166.917 66.2798 167.591 66.5006 168.121 66.9363C168.65 67.3719 168.997 67.9905 169.092 68.6697C169.28 69.2756 169.22 69.9314 168.925 70.4929C168.629 71.0544 168.123 71.4757 167.517 71.6642L167.424 71.6953Z" fill="white"/>
<path d="M134.932 77.2591C134.338 77.1916 133.771 76.975 133.284 76.6296C132.797 76.2842 132.404 75.8212 132.144 75.2836C131.883 74.746 131.763 74.1512 131.794 73.5546C131.825 72.958 132.006 72.3789 132.321 71.8711C132.51 71.5928 132.755 71.357 133.041 71.1786C133.326 71.0002 133.646 70.8832 133.979 70.835L166.234 65.7682C167.048 65.7169 167.851 65.971 168.487 66.4807C169.124 66.9904 169.547 67.7192 169.674 68.5244C169.78 68.9671 169.795 69.4268 169.719 69.8756C169.642 70.3244 169.475 70.753 169.229 71.1355C169.037 71.4141 168.79 71.65 168.503 71.8284C168.216 72.0067 167.895 72.1236 167.56 72.1716L135.357 77.1969C135.217 77.2285 135.075 77.2493 134.932 77.2591ZM166.576 66.7836H166.348L134.113 71.8193C133.718 71.8931 133.368 72.1204 133.139 72.4514C132.97 72.718 132.857 73.0163 132.807 73.3281C132.757 73.6399 132.772 73.9586 132.849 74.2646C132.923 74.8111 133.195 75.3114 133.613 75.6706C134.031 76.0297 134.567 76.2226 135.118 76.2126L167.322 71.1873C167.518 71.1521 167.705 71.0769 167.871 70.9664C168.036 70.8559 168.178 70.7124 168.286 70.5449C168.628 69.9746 168.729 69.2919 168.568 68.6468C168.407 68.0016 167.996 67.447 167.426 67.1048C167.154 66.9461 166.855 66.8373 166.545 66.7836H166.576Z" fill="#182F43"/>
<path d="M208.716 320.475C208.125 317.75 205.794 315.823 203.535 316.185C201.276 316.548 199.867 319.045 200.426 321.77C200.986 324.495 203.348 326.423 205.607 326.06C207.866 325.697 209.296 323.2 208.716 320.475Z" fill="white"/>
<path d="M205.068 326.619C202.726 326.619 200.478 324.62 199.887 321.884C199.708 321.132 199.684 320.35 199.816 319.588C199.948 318.826 200.233 318.098 200.654 317.449C200.965 316.978 201.37 316.578 201.845 316.273C202.32 315.967 202.853 315.765 203.41 315.678C205.969 315.274 208.591 317.377 209.213 320.371C209.393 321.122 209.419 321.901 209.289 322.661C209.159 323.422 208.876 324.148 208.456 324.796C208.141 325.266 207.733 325.667 207.257 325.973C206.782 326.28 206.248 326.486 205.69 326.578C205.484 326.607 205.276 326.621 205.068 326.619ZM204.032 316.662H203.534C203.116 316.732 202.716 316.886 202.36 317.116C202.004 317.346 201.698 317.646 201.462 317.999C201.123 318.534 200.896 319.131 200.792 319.756C200.689 320.381 200.713 321.02 200.861 321.636C201.39 324.091 203.472 325.842 205.493 325.521C205.912 325.455 206.313 325.302 206.67 325.072C207.027 324.842 207.332 324.539 207.565 324.184C207.909 323.653 208.139 323.058 208.243 322.434C208.346 321.81 208.32 321.171 208.166 320.558C208.002 319.542 207.506 318.609 206.757 317.905C206.007 317.2 205.045 316.763 204.021 316.662H204.032Z" fill="#182F43"/>
<path d="M194.852 238.039L147.272 246.235C144.163 246.773 142.091 249.343 142.588 251.954L148.722 281.495L148.888 282.262L152.09 297.7L161.053 285.08L203.141 277.827C206.249 277.288 208.322 274.718 207.814 272.118L201.462 241.8C200.955 239.189 197.981 237.5 194.852 238.039Z" fill="white"/>
<path d="M151.821 298.974L142.081 252.057C141.952 251.424 141.955 250.77 142.089 250.138C142.222 249.505 142.484 248.907 142.858 248.379C143.365 247.672 144.009 247.072 144.751 246.617C145.493 246.161 146.318 245.859 147.179 245.727L194.769 237.531C198.157 236.95 201.411 238.815 202.022 241.675L208.311 271.993C208.439 272.624 208.436 273.275 208.305 273.906C208.173 274.536 207.914 275.133 207.545 275.661C207.036 276.37 206.39 276.971 205.647 277.428C204.903 277.885 204.076 278.189 203.214 278.324L161.343 285.525L151.821 298.974ZM196.023 238.463C195.675 238.463 195.328 238.494 194.987 238.556L147.396 246.752C146.671 246.86 145.975 247.112 145.349 247.493C144.722 247.874 144.179 248.376 143.749 248.97C143.457 249.381 143.252 249.848 143.147 250.342C143.042 250.835 143.039 251.345 143.138 251.84L152.401 296.394L160.773 284.572L203.069 277.319C204.506 277.081 205.792 276.284 206.643 275.101C206.936 274.688 207.142 274.22 207.249 273.725C207.356 273.23 207.361 272.718 207.265 272.221L200.965 241.914C200.571 239.872 198.447 238.463 196.023 238.463Z" fill="#182F43"/>
<path d="M191.442 255.788C191.473 255.378 191.442 254.966 191.349 254.566V254.338C190.541 250.421 186.085 247.914 181.412 248.711C177.734 249.343 175.019 251.82 174.418 254.794C173.39 253.453 172.005 252.429 170.422 251.838C168.838 251.248 167.121 251.116 165.466 251.457C160.793 252.265 157.664 256.089 158.472 259.995C158.472 259.995 158.348 263.342 166.284 268.201C172.802 272.201 178.304 275.454 178.407 275.32C178.542 275.392 182.5 270.553 187.153 264.616C188.968 262.489 190.345 260.024 191.204 257.363C191.315 257.005 191.392 256.638 191.432 256.265C191.424 256.106 191.428 255.947 191.442 255.788Z" fill="#AA4337"/>
<path d="M178.324 275.827C178.255 275.822 178.187 275.801 178.127 275.764C177.164 275.443 174.49 273.899 165.963 268.667C158.42 264.035 157.933 260.637 157.902 260.077C157.728 259.17 157.739 258.238 157.933 257.336C158.127 256.433 158.501 255.579 159.031 254.824C159.775 253.798 160.715 252.929 161.796 252.268C162.877 251.606 164.079 251.165 165.331 250.969C166.912 250.668 168.544 250.76 170.081 251.237C171.619 251.713 173.015 252.561 174.149 253.705C174.759 252.253 175.736 250.985 176.984 250.024C178.232 249.063 179.707 248.443 181.267 248.223C186.209 247.374 190.934 250.078 191.805 254.254V254.42C191.91 254.885 191.948 255.363 191.919 255.839C191.925 256.003 191.908 256.167 191.867 256.326C191.823 256.73 191.744 257.129 191.628 257.518C190.742 260.236 189.334 262.756 187.484 264.937C181.443 272.666 179.474 275.018 178.697 275.64C178.663 275.689 178.616 275.729 178.561 275.754C178.507 275.78 178.446 275.79 178.386 275.785L178.324 275.827ZM167.175 251.788C166.623 251.784 166.071 251.833 165.528 251.933C164.41 252.097 163.337 252.485 162.372 253.072C161.408 253.659 160.571 254.435 159.912 255.352C159.457 255.998 159.137 256.73 158.972 257.502C158.806 258.275 158.798 259.073 158.948 259.849V259.973C158.948 259.973 159.041 263.134 166.512 267.724C172.501 271.392 177.143 274.117 178.262 274.687C179.112 273.775 182.458 269.672 186.696 264.253C188.466 262.174 189.814 259.77 190.665 257.176C190.765 256.837 190.834 256.491 190.872 256.14V255.715C190.899 255.368 190.875 255.019 190.799 254.679C190.789 254.624 190.789 254.568 190.799 254.513C190.033 250.793 185.847 248.451 181.474 249.218C178.117 249.788 175.475 252.068 174.905 254.886C174.891 254.952 174.865 255.015 174.827 255.071C174.788 255.127 174.739 255.175 174.682 255.212C174.625 255.248 174.562 255.273 174.495 255.285C174.428 255.297 174.36 255.295 174.294 255.28C174.229 255.269 174.167 255.245 174.112 255.209C174.057 255.173 174.009 255.127 173.972 255.072C173.185 254.021 172.157 253.174 170.974 252.602C169.791 252.031 168.488 251.751 167.175 251.788Z" fill="#182F43"/>
<path d="M118.042 257.716C118.042 257.716 115.057 248.391 109.473 250.743C103.888 253.095 112.674 262.306 108.24 262.762C103.805 263.218 96.2927 257.934 91.5368 266.275C86.7809 274.616 94.1375 280.594 102.862 280.377C111.586 280.159 120.331 273.414 118.042 257.716Z" fill="white"/>
<path d="M102.395 280.893C97.2147 280.893 92.666 278.821 90.6558 275.412C89.5057 273.495 88.6457 270.304 91.091 266.025C94.6968 259.683 99.8672 260.844 104.012 261.714C105.362 262.085 106.757 262.266 108.156 262.253C108.706 262.191 108.83 261.984 108.871 261.922C109.244 261.331 108.685 259.849 108.146 258.305C107.11 255.539 105.753 251.746 109.234 250.265C109.854 249.983 110.527 249.838 111.208 249.838C111.889 249.838 112.562 249.983 113.182 250.265C116.653 251.86 118.425 257.321 118.508 257.518V257.601C119.596 265.02 118.3 271.154 114.777 275.34C113.297 277.06 111.464 278.443 109.403 279.394C107.342 280.345 105.101 280.842 102.831 280.852L102.395 280.893ZM99.1212 262.046C96.5308 262.046 94.0026 262.999 91.9925 266.532C90.2517 269.579 90.0963 272.47 91.5366 274.884C93.4224 277.992 97.8571 279.982 102.851 279.857C104.976 279.846 107.073 279.377 109 278.483C110.928 277.589 112.64 276.291 114.021 274.677C117.347 270.739 118.559 264.906 117.534 257.808C117.368 257.321 115.7 252.524 112.778 251.187C112.291 250.961 111.76 250.845 111.223 250.845C110.687 250.845 110.156 250.961 109.669 251.187C107.276 252.223 107.949 254.617 109.151 257.922C109.835 259.797 110.426 261.424 109.783 262.44C109.614 262.681 109.392 262.88 109.133 263.02C108.874 263.16 108.586 263.238 108.291 263.248C106.773 263.288 105.258 263.103 103.794 262.699C102.264 262.316 100.698 262.097 99.1212 262.046Z" fill="#182F43"/>
<path d="M98.4892 266.554C98.1887 267.673 97.4531 268.44 96.7899 268.264C96.1268 268.088 95.8678 267.051 96.1786 265.932C96.4894 264.813 97.2147 264.036 97.8779 264.212C98.541 264.389 98.7897 265.435 98.4892 266.554Z" fill="#182F43"/>
<path d="M94.3349 268.367C94.0344 269.486 93.2987 270.253 92.6356 270.087C91.9724 269.921 91.7134 268.865 92.0139 267.746C92.3144 266.627 93.05 265.86 93.7235 266.036C94.397 266.212 94.6353 267.217 94.3349 268.367Z" fill="#182F43"/>
<path d="M96.9349 272.915C96.6344 274.034 95.8987 274.811 95.2356 274.635C94.5725 274.459 94.3238 273.412 94.6243 272.293C94.9248 271.174 95.6604 270.408 96.3236 270.584C96.9867 270.76 97.2354 271.796 96.9349 272.915Z" fill="#182F43"/>
<path d="M97.3699 279.298C97.2673 279.299 97.1668 279.269 97.0818 279.212C96.9967 279.154 96.931 279.072 96.8933 278.977C96.8662 278.916 96.8517 278.85 96.8506 278.783C96.8496 278.716 96.862 278.65 96.8872 278.588C96.9123 278.526 96.9497 278.47 96.997 278.423C97.0443 278.376 97.1007 278.339 97.1627 278.314C98.0275 277.952 98.8233 277.444 99.5147 276.811C99.6177 276.729 99.7484 276.688 99.8801 276.699C100.012 276.709 100.135 276.77 100.223 276.868C100.312 276.966 100.36 277.094 100.357 277.226C100.354 277.358 100.301 277.484 100.209 277.578C99.4308 278.295 98.5331 278.87 97.5564 279.277C97.4956 279.293 97.4327 279.3 97.3699 279.298Z" fill="#182F43"/>
<path d="M101.152 276.293C101.039 276.296 100.93 276.259 100.841 276.19C100.787 276.149 100.741 276.098 100.706 276.039C100.671 275.981 100.649 275.916 100.639 275.848C100.629 275.781 100.633 275.712 100.65 275.647C100.667 275.581 100.697 275.519 100.737 275.464C101.53 274.411 102.13 273.225 102.509 271.962C102.954 270.669 103.129 269.298 103.022 267.934C102.915 266.571 102.529 265.244 101.888 264.036C101.819 263.916 101.8 263.774 101.835 263.64C101.87 263.506 101.956 263.392 102.074 263.321C102.195 263.257 102.335 263.241 102.468 263.276C102.6 263.31 102.714 263.393 102.789 263.507C103.497 264.841 103.925 266.306 104.048 267.811C104.171 269.317 103.986 270.831 103.504 272.263C103.09 273.642 102.434 274.937 101.566 276.086C101.517 276.149 101.454 276.201 101.383 276.236C101.311 276.272 101.232 276.292 101.152 276.293Z" fill="#182F43"/>
</svg>
