<svg width="400" height="365" viewBox="0 0 400 365" fill="none" xmlns="http://www.w3.org/2000/svg">
<path d="M282.936 11.8506L218.52 19.1655L234.794 31.2914L282.936 11.8506Z" fill="white"/>
<path d="M234.794 31.8088C234.683 31.8097 234.575 31.7773 234.483 31.7157L218.219 19.5794C218.135 19.5183 218.071 19.4333 218.036 19.3355C218.001 19.2377 217.996 19.1316 218.022 19.031C218.048 18.9301 218.105 18.8399 218.185 18.7731C218.265 18.7062 218.364 18.6662 218.467 18.6586L282.873 11.4161C282.998 11.4025 283.124 11.435 283.227 11.5073C283.33 11.5797 283.403 11.687 283.432 11.8093C283.466 11.9287 283.454 12.0566 283.399 12.1676C283.343 12.2787 283.248 12.365 283.132 12.4094L234.99 31.8605C234.923 31.8538 234.856 31.8364 234.794 31.8088V31.8088ZM219.885 19.538L234.877 30.7121L279.231 12.7922L219.885 19.538Z" fill="#182F43"/>
<path d="M234.794 31.2914L234.67 44.4416L282.936 11.8506L234.794 31.2914Z" fill="#F6F8FF"/>
<path d="M234.67 44.9594C234.586 44.9599 234.504 44.9385 234.432 44.8973C234.349 44.8532 234.279 44.7877 234.23 44.7077C234.181 44.6276 234.154 44.536 234.152 44.4421L234.277 31.2919C234.277 31.1897 234.308 31.09 234.365 31.0053C234.422 30.9206 234.503 30.8547 234.597 30.8159L282.739 11.3855C282.857 11.3348 282.991 11.3313 283.112 11.3755C283.233 11.4197 283.333 11.5083 283.391 11.6234C283.451 11.7362 283.468 11.8673 283.437 11.9915C283.406 12.1157 283.331 12.2241 283.225 12.296L234.959 44.8766C234.874 44.9349 234.773 44.9639 234.67 44.9594ZM235.311 31.6436L235.197 43.4592L278.58 14.1686L235.311 31.6436Z" fill="#182F43"/>
<path d="M234.67 44.4416L242.223 33.7849L282.936 11.8506L234.67 44.4416Z" fill="white"/>
<path d="M234.671 44.9591C234.603 44.96 234.536 44.9466 234.474 44.9199C234.411 44.8931 234.355 44.8536 234.309 44.8039C234.224 44.7172 234.172 44.6033 234.163 44.4823C234.153 44.3612 234.187 44.2407 234.257 44.1418L241.8 33.485C241.846 33.4205 241.906 33.3674 241.976 33.3298L282.688 11.3852C282.806 11.3231 282.943 11.3078 283.072 11.3423C283.2 11.3768 283.311 11.4587 283.382 11.5714C283.447 11.6871 283.468 11.8231 283.439 11.953C283.411 12.083 283.335 12.1977 283.226 12.275L234.961 44.8557C234.878 44.9199 234.776 44.9562 234.671 44.9591V44.9591ZM242.576 34.1472L236.74 42.4243L274.06 17.2205L242.576 34.1472Z" fill="#182F43"/>
<path d="M242.223 33.7849L263.433 49.6355L282.936 11.8506L242.223 33.7849Z" fill="#F6F8FF"/>
<path d="M263.433 50.1535C263.321 50.1559 263.211 50.1193 263.123 50.05L241.913 34.1994C241.841 34.1486 241.784 34.0797 241.748 33.9997C241.711 33.9198 241.697 33.8316 241.706 33.7442C241.712 33.658 241.739 33.5747 241.786 33.5023C241.833 33.4299 241.898 33.3707 241.975 33.3303L282.688 11.3857C282.786 11.3353 282.897 11.3162 283.006 11.3311C283.115 11.3459 283.217 11.3938 283.298 11.4685C283.377 11.5467 283.429 11.6483 283.446 11.7583C283.462 11.8682 283.443 11.9806 283.391 12.0789L263.899 49.8741C263.864 49.9422 263.814 50.0017 263.753 50.0482C263.692 50.0947 263.622 50.1271 263.547 50.1431L263.433 50.1535ZM243.154 33.858L263.236 48.8602L281.684 13.1032L243.154 33.858Z" fill="#182F43"/>
<path d="M342.813 234C336.851 234.017 331.139 236.38 326.923 240.571C322.707 244.762 320.331 250.441 320.313 256.369C320.313 268.721 342.813 292 342.813 292C342.813 292 365.313 268.668 365.313 256.369C365.296 250.441 362.92 244.762 358.704 240.571C354.488 236.38 348.775 234.017 342.813 234ZM342.813 264.353C340.936 264.355 339.101 263.804 337.538 262.77C335.976 261.735 334.757 260.263 334.037 258.54C333.316 256.817 333.125 254.92 333.489 253.089C333.852 251.258 334.754 249.576 336.08 248.254C337.405 246.933 339.095 246.032 340.936 245.665C342.776 245.298 344.685 245.483 346.42 246.194C348.155 246.906 349.639 248.114 350.684 249.664C351.73 251.214 352.289 253.038 352.291 254.904V254.904C352.293 256.143 352.049 257.37 351.574 258.516C351.099 259.661 350.401 260.702 349.521 261.58C348.641 262.457 347.595 263.154 346.445 263.629C345.294 264.105 344.06 264.351 342.813 264.353V264.353Z" fill="#182F43"/>
<path d="M342.811 292.5L342.802 292.5C342.781 292.5 342.76 292.497 342.74 292.489C342.721 292.481 342.704 292.469 342.69 292.454L342.688 292.452C342.222 291.971 336.484 286.006 330.866 278.595C328.057 274.888 325.286 270.831 323.219 266.925C321.145 263.006 319.813 259.297 319.813 256.272C319.813 250.234 322.235 244.442 326.548 240.171C330.861 235.9 336.712 233.5 342.813 233.5C348.915 233.5 354.766 235.9 359.079 240.171C363.391 244.442 365.813 250.234 365.813 256.272C365.813 259.297 364.482 263.006 362.408 266.925C360.341 270.831 357.57 274.888 354.761 278.595C349.144 286.005 343.407 291.969 342.939 292.452C342.924 292.467 342.906 292.479 342.886 292.487C342.866 292.496 342.843 292.5 342.821 292.5L342.811 292.5ZM343.313 233.839V233.82L342.813 233.82C336.809 233.827 331.052 236.193 326.805 240.398C322.558 244.604 320.167 250.308 320.16 256.258V256.258C320.16 259.148 321.384 262.593 323.213 266.148C325.049 269.716 327.526 273.453 330.097 276.94C335.24 283.915 340.794 289.936 342.45 291.689L342.814 292.075L343.178 291.689C344.826 289.936 350.38 283.918 355.525 276.945C358.097 273.459 360.575 269.723 362.412 266.154C364.242 262.598 365.467 259.151 365.467 256.258V256.258C365.459 250.309 363.069 244.607 358.821 240.403C354.692 236.316 349.135 233.97 343.313 233.839ZM352.602 254.779L353.102 254.778L352.602 254.779C352.606 256.054 352.355 257.317 351.865 258.496C351.375 259.674 350.656 260.746 349.747 261.65C348.838 262.554 347.757 263.271 346.568 263.762C345.532 264.188 344.431 264.436 343.313 264.494V264.493L342.813 264.494C340.873 264.496 338.976 263.929 337.363 262.864C335.749 261.8 334.492 260.286 333.748 258.514C333.004 256.743 332.808 254.794 333.183 252.912C333.559 251.03 334.489 249.301 335.858 247.942C337.227 246.583 338.972 245.656 340.874 245.278C342.776 244.901 344.748 245.091 346.541 245.824C348.334 246.556 349.866 247.798 350.944 249.393C352.023 250.987 352.6 252.861 352.602 254.779ZM343.313 245.503V245.437L342.814 245.436C340.945 245.433 339.117 245.979 337.56 247.006C336.004 248.033 334.789 249.494 334.07 251.205C333.351 252.916 333.161 254.801 333.524 256.62C333.886 258.438 334.785 260.109 336.106 261.421C337.426 262.733 339.11 263.627 340.942 263.991C342.775 264.355 344.676 264.172 346.404 263.466C348.132 262.76 349.611 261.562 350.653 260.023C351.695 258.484 352.253 256.673 352.256 254.819L351.756 254.818L352.256 254.816C352.244 252.339 351.244 249.969 349.474 248.222C347.823 246.592 345.628 245.628 343.313 245.503Z" fill="#182F43" stroke="#FFC100"/>
<path d="M80.0982 26.9121L80.2077 26.9698H80.2215C80.6771 27.2428 81.0175 27.675 81.1753 28.1849C81.3447 28.7325 81.2896 29.3249 81.0222 29.8319C80.7548 30.3389 80.2969 30.7189 79.7493 30.8883C79.2018 31.0577 78.6093 31.0026 78.1023 30.7352L78.1022 30.7351C71.0797 27.0341 61.8277 26.3523 53.0624 28.9285C44.2963 31.5049 36.7501 37.2076 32.8901 44.2104L32.8901 44.2104L32.8873 44.2156C32.7547 44.4631 32.5739 44.6815 32.3556 44.8582C32.1373 45.0348 31.886 45.166 31.6163 45.2441L31.6162 45.2441L31.6081 45.2466C31.196 45.3735 30.7553 45.3742 30.3427 45.2484C29.9302 45.1226 29.5648 44.8761 29.2937 44.5408C29.0225 44.2054 28.858 43.7966 28.8213 43.3669C28.7846 42.9371 28.8775 42.5063 29.0879 42.1299L29.0879 42.1299L29.0903 42.1256C33.4248 34.189 42.0808 27.6525 51.824 24.7767C61.5653 21.9013 72.1475 22.7178 80.0982 26.9121Z" fill="#182F43" stroke="#FFC100"/>
<path d="M40.7019 50.6416L40.6939 50.6437L40.6859 50.6461C40.261 50.7732 39.8073 50.7664 39.3864 50.6265C38.9655 50.4867 38.5979 50.2206 38.3336 49.8645C38.0693 49.5083 37.921 49.0795 37.909 48.6361C37.897 48.1944 38.0209 47.7596 38.2639 47.3905C42.2605 41.6019 48.1161 37.3536 54.8591 35.3503C61.4969 33.3783 68.6019 33.6984 75.0309 36.2534V36.2957L75.3317 36.4264C75.5921 36.5395 75.8277 36.7028 76.025 36.9069C76.2223 37.1111 76.3775 37.3521 76.4817 37.6162C76.5859 37.8804 76.637 38.1624 76.6321 38.4463C76.6273 38.7302 76.5666 39.0104 76.4535 39.2708C76.3404 39.5312 76.1771 39.7668 75.9729 39.9641C75.7688 40.1615 75.5277 40.3166 75.2636 40.4208C74.9995 40.525 74.7174 40.5761 74.4335 40.5713C74.1496 40.5664 73.8695 40.5057 73.6091 40.3926L73.6091 40.3925L73.5972 40.3876C68.0263 38.1364 61.8564 37.8419 56.0965 39.5525C50.3366 41.263 45.3275 44.8773 41.8884 49.8043L41.8883 49.8043L41.886 49.8078C41.6042 50.2188 41.1839 50.5148 40.7019 50.6416Z" fill="#182F43" stroke="#FFC100"/>
<path d="M57.5699 45.1224C61.8074 43.8124 66.3705 44.0346 70.4607 45.7498L70.4592 45.7535C70.9907 45.9685 71.415 46.3859 71.6388 46.9139C71.8626 47.4418 71.8675 48.037 71.6524 48.5685C71.4373 49.1 71.0199 49.5243 70.492 49.7481C69.9652 49.9714 69.3713 49.9767 68.8406 49.763C65.665 48.4236 62.1175 48.2523 58.8275 49.2797C55.5405 50.3062 52.7229 52.4628 50.8737 55.3674C50.5436 55.8289 50.0479 56.1451 49.49 56.2498C48.9289 56.3551 48.3488 56.2382 47.8722 55.9238C47.397 55.6039 47.0675 55.1091 46.9557 54.5472C46.8439 53.9846 46.9593 53.4007 47.2768 52.923L47.2769 52.9231L47.2803 52.9177C49.689 49.1921 53.3314 46.4326 57.5699 45.1224Z" fill="#182F43" stroke="#FFC100"/>
<path d="M57.584 55.9239C58.3342 55.0321 59.332 54.3827 60.4512 54.0579C61.1952 53.8419 61.9744 53.7747 62.7443 53.8602C63.5143 53.9456 64.2598 54.182 64.9383 54.5558C65.6168 54.9296 66.215 55.4335 66.6986 56.0386C67.1822 56.6438 67.5418 57.3384 67.7568 58.0826C68.0802 59.2022 68.0645 60.3926 67.7115 61.5033C67.3586 62.614 66.6843 63.5951 65.7739 64.3226C64.8635 65.0502 63.7578 65.4915 62.5966 65.5909C61.4355 65.6902 60.2709 65.4431 59.2502 64.8807C58.2294 64.3184 57.3983 63.4661 56.8618 62.4315C56.3253 61.3969 56.1076 60.2265 56.2362 59.0682C56.3647 57.9099 56.8337 56.8157 57.584 55.9239Z" fill="#182F43" stroke="#FFC100"/>
<path d="M391.253 78.5068H345.016C343.199 78.5068 341.457 79.2285 340.172 80.5129C338.888 81.7974 338.166 83.5396 338.166 85.3561V110.074C338.166 111.89 338.888 113.632 340.172 114.917C341.457 116.201 343.199 116.923 345.016 116.923H346.454C345.016 120.11 342.253 124.962 337.814 127.849C337.814 127.849 347.188 127.197 356.955 116.923H374.094H391.233C393.049 116.923 394.791 116.201 396.076 114.917C397.36 113.632 398.082 111.89 398.082 110.074V85.3561C398.082 83.5432 397.363 81.8041 396.083 80.5202C394.803 79.2363 393.066 78.5123 391.253 78.5068Z" fill="#AA4337"/>
<path d="M337.5 128.5C337.5 128.5 336.908 128.389 336.704 128.144C336.5 127.898 336.496 127.835 336.496 127.835C336.461 127.726 336.462 127.608 336.5 127.5C336.537 127.392 336.608 127.299 336.703 127.235C340.656 124.669 343.448 121.269 345 118H344.5C342.551 117.992 340.376 117.38 339 116C337.624 114.62 336.673 112.023 336.67 110.074V85.3563C336.673 83.4079 338.123 80.4133 339.5 79.0346C340.877 77.656 343.067 77.0055 345.016 77H391.233C392.2 77 393.606 77.1298 394.5 77.5C395.394 77.8702 396.881 78.8159 397.565 79.5C398.249 80.1841 398.63 81.1062 399 82C399.37 82.8938 399.6 84.3992 399.6 85.3666V110.074C399.6 112.027 398.946 114.618 397.565 116C396.183 117.382 393.187 118.44 391.233 118.44H358C347.502 130.171 337.5 128.5 337.5 128.5ZM345.016 79.0346C343.336 79.0346 341.726 79.7018 340.538 80.8892C339.351 82.0767 338.684 83.6873 338.684 85.3666V110.074C338.684 111.753 339.351 113.364 340.538 114.551C341.726 115.739 343.336 116.406 345.016 116.406H346.454C346.542 116.403 346.628 116.424 346.705 116.465C346.783 116.507 346.848 116.567 346.895 116.641C346.942 116.715 346.969 116.8 346.973 116.887C346.977 116.975 346.959 117.062 346.92 117.14C345.324 120.879 342.929 124.223 339.905 126.938C343.185 126.121 349.817 123.69 356.583 116.592C356.63 116.54 356.687 116.498 356.752 116.469C356.816 116.441 356.885 116.426 356.956 116.426H391.233C392.912 116.426 394.523 115.759 395.71 114.572C396.898 113.384 397.565 111.774 397.565 110.094V85.3563C397.565 83.6769 396.898 82.0663 395.71 80.8789C394.523 79.6914 392.912 79.0243 391.233 79.0243L345.016 79.0346Z" fill="#182F43"/>
<path d="M360.195 96.8299C360.195 96.1321 359.988 95.4499 359.6 94.8698C359.213 94.2896 358.662 93.8374 358.017 93.5703C357.372 93.3033 356.663 93.2334 355.978 93.3696C355.294 93.5057 354.665 93.8417 354.172 94.3351C353.679 94.8285 353.343 95.4572 353.206 96.1416C353.07 96.8259 353.14 97.5353 353.407 98.18C353.674 98.8247 354.126 99.3757 354.707 99.7634C355.287 100.151 355.969 100.358 356.667 100.358C357.129 100.358 357.586 100.267 358.013 100.09C358.44 99.9134 358.828 99.6543 359.154 99.3276C359.481 99.001 359.74 98.6132 359.917 98.1864C360.094 97.7596 360.185 97.3022 360.185 96.8402L360.195 96.8299Z" fill="white"/>
<path d="M368.658 100.358C370.607 100.358 372.186 98.7784 372.186 96.8299C372.186 94.8813 370.607 93.3018 368.658 93.3018C366.709 93.3018 365.13 94.8813 365.13 96.8299C365.13 98.7784 366.709 100.358 368.658 100.358Z" fill="white"/>
<path d="M384.167 96.8299C384.167 96.1321 383.96 95.4499 383.572 94.8698C383.184 94.2896 382.633 93.8374 381.989 93.5703C381.344 93.3033 380.635 93.2334 379.95 93.3696C379.266 93.5057 378.637 93.8417 378.144 94.3351C377.65 94.8285 377.314 95.4572 377.178 96.1416C377.042 96.8259 377.112 97.5353 377.379 98.18C377.646 98.8247 378.098 99.3757 378.678 99.7634C379.259 100.151 379.941 100.358 380.638 100.358C381.574 100.358 382.472 99.9863 383.133 99.3246C383.795 98.663 384.167 97.7656 384.167 96.8299Z" fill="white"/>
<path d="M26.0883 175.179C36.1367 174.19 43.4809 165.243 42.4921 155.194C41.5033 145.146 32.556 137.802 22.5076 138.791C12.4593 139.779 5.11505 148.727 6.10384 158.775C7.09263 168.824 16.04 176.168 26.0883 175.179Z" fill="#AA4337"/>
<path d="M24.3189 175.773C20.6007 175.773 16.9661 174.671 13.8745 172.605C10.783 170.54 8.37343 167.603 6.95055 164.168C5.52767 160.733 5.15539 156.953 5.88076 153.307C6.60614 149.66 8.39661 146.31 11.0257 143.681C13.6549 141.052 17.0046 139.261 20.6513 138.536C24.298 137.811 28.0779 138.183 31.5131 139.606C34.9482 141.029 37.8843 143.438 39.9499 146.53C42.0156 149.621 43.1182 153.256 43.1182 156.974C43.1196 159.443 42.6342 161.888 41.69 164.17C40.7457 166.451 39.361 168.524 37.615 170.27C35.8691 172.016 33.7961 173.401 31.5147 174.345C29.2332 175.29 26.788 175.775 24.3189 175.773V175.773ZM24.3189 139.209C20.8053 139.209 17.3707 140.251 14.4493 142.203C11.5279 144.155 9.251 146.93 7.90643 150.176C6.56186 153.422 6.21006 156.994 6.89552 160.44C7.58097 163.886 9.2729 167.051 11.7573 169.536C14.2418 172.02 17.4071 173.712 20.8532 174.397C24.2992 175.083 27.8711 174.731 31.1171 173.387C34.3632 172.042 37.1377 169.765 39.0897 166.844C41.0417 163.922 42.0836 160.488 42.0836 156.974C42.0836 152.263 40.2119 147.744 36.8804 144.413C33.5489 141.081 29.0304 139.209 24.3189 139.209Z" fill="#AA4337" stroke="#182F43" stroke-width="2"/>
<path d="M18.1963 148.196L34.1963 157.196L18.1963 166.196V148.196Z" fill="white"/>
<path d="M17.6449 167.196C17.5654 167.199 17.4871 167.177 17.4206 167.135C17.3516 167.099 17.2942 167.045 17.2546 166.979C17.2151 166.913 17.1949 166.837 17.1964 166.761V147.628C17.1949 147.552 17.2151 147.477 17.2546 147.411C17.2942 147.345 17.3516 147.291 17.4206 147.255C17.4888 147.216 17.5661 147.196 17.6449 147.196C17.7236 147.196 17.8009 147.216 17.8691 147.255L34.9659 156.821C35.0678 156.874 35.1438 156.965 35.1774 157.072C35.211 157.18 35.1995 157.296 35.1453 157.395C35.1049 157.469 35.0424 157.53 34.9659 157.569L17.8691 167.135C17.8022 167.176 17.7242 167.198 17.6449 167.196V167.196ZM18.0934 148.368V166.005L33.8447 157.186L18.0934 148.368Z" fill="#182F43"/>
<path d="M35.6312 356.314L35.63 356.313C21.0057 350.665 11.1526 340.226 5.25461 325.85L5.25044 325.84L5.24584 325.83C3.91778 322.958 3.27847 319.816 3.37881 316.654L3.37883 316.654C3.4564 314.077 4.26758 311.576 5.71713 309.444C7.16667 307.312 9.1944 305.638 11.5622 304.619L11.5855 304.609L11.6078 304.596C12.382 304.165 13.2937 304.052 14.1497 304.282C15.004 304.511 15.7358 305.063 16.1905 305.822C18.0262 309.052 19.6874 312.379 21.167 315.788C21.4069 316.435 21.4148 317.145 21.189 317.798C20.962 318.454 20.5128 319.01 19.9192 319.37L19.8987 319.383L19.8795 319.397C18.4766 320.444 17.017 321.413 15.5074 322.3C15.2594 322.406 15.0334 322.557 14.8415 322.747C14.6402 322.945 14.4802 323.182 14.3708 323.443C14.2614 323.704 14.2047 323.983 14.204 324.266C14.2033 324.547 14.2576 324.825 14.3639 325.084C14.4397 325.281 14.5454 325.464 14.6771 325.628C19.218 333.655 25.5606 340.518 33.2057 345.676C33.821 346.094 34.4323 346.313 35.0436 346.138C35.6293 345.971 36.0622 345.481 36.4351 344.897L36.4352 344.897L36.4406 344.888C37.3239 343.44 38.3456 342.081 39.4912 340.83L39.4999 340.82L39.5082 340.81C40.0121 340.2 40.7152 339.786 41.4939 339.642C42.2726 339.499 43.077 339.634 43.7657 340.025L43.7767 340.031L43.788 340.037C46.6428 341.47 49.4136 343.065 52.0872 344.813C53.5845 345.847 54.31 346.915 54.4602 348.016C54.6119 349.127 54.1958 350.405 53.1154 351.894L53.1154 351.893L53.1095 351.902C51.2196 354.623 48.3535 356.51 45.1075 357.171C41.9312 357.784 38.646 357.487 35.6312 356.314Z" fill="#AA4337" stroke="#FBFBFF"/>
<path d="M35.5081 356.804L35.5078 356.804C21.2773 351.314 10.9542 340.975 4.81982 326.046L4.81555 326.035L4.81083 326.025C3.44316 323.08 2.78916 319.854 2.9019 316.608L2.90198 316.605C2.97952 313.939 3.81516 311.35 5.31105 309.141C6.80695 306.932 8.90118 305.195 11.3486 304.133L11.3703 304.124L11.3911 304.112C12.2871 303.618 13.3405 303.492 14.3278 303.761C15.3138 304.03 16.1564 304.672 16.6774 305.551C18.5299 308.81 20.1974 312.17 21.6721 315.616C21.9675 316.373 21.9865 317.21 21.7256 317.98C21.4639 318.752 20.9374 319.406 20.2395 319.827L20.2185 319.84L20.1988 319.855C18.8031 320.895 17.3137 321.899 15.7692 322.836C15.3125 323.111 14.9133 323.444 14.7884 323.937C14.6641 324.428 14.8528 324.915 15.1218 325.382C19.6318 333.335 25.9177 340.139 33.4893 345.264C33.8381 345.543 34.2723 345.694 34.7194 345.691L34.7609 345.691L34.8017 345.684C35.0658 345.638 35.2841 345.488 35.461 345.317C35.6401 345.143 35.8111 344.915 35.9797 344.647L35.9798 344.647L35.9835 344.641C36.8849 343.165 37.9276 341.781 39.0969 340.507L39.1054 340.498L39.1135 340.488C39.6953 339.786 40.5055 339.312 41.4021 339.147C42.2986 338.983 43.2244 339.14 44.0172 339.59L44.0171 339.59L44.0259 339.594L45.1084 340.181L45.1083 340.181L45.1204 340.187C47.6128 341.45 50.026 342.864 52.3465 344.42L52.3617 344.431L52.3775 344.44C53.0229 344.807 53.5861 345.304 54.0324 345.897C54.4717 346.482 54.7885 347.149 54.964 347.859C55.0342 348.631 54.9491 349.41 54.7135 350.15C54.4744 350.9 54.0853 351.594 53.5698 352.19L53.5537 352.208L53.5395 352.228C51.5553 355.036 48.5719 356.978 45.2012 357.657L44.829 357.731L44.8265 357.766C41.6925 358.282 38.475 357.951 35.5081 356.804ZM11.3841 304.189C8.93425 305.248 6.83642 306.983 5.33576 309.19C3.83348 311.4 2.99182 313.992 2.90934 316.663L2.90932 316.663C2.8137 319.893 3.46823 323.101 4.82145 326.036C10.9393 340.912 21.2902 351.257 35.4435 356.747C38.5386 357.959 41.9146 358.265 45.1771 357.629L45.1796 357.628C48.5273 356.958 51.4896 355.029 53.4555 352.238C53.9613 351.654 54.3467 350.975 54.5896 350.241C54.8353 349.499 54.9303 348.715 54.8689 347.936L54.8656 347.894L54.8555 347.854C54.6778 347.142 54.3573 346.475 53.9134 345.891C53.4731 345.312 52.9207 344.828 52.2891 344.467C49.9593 342.922 47.5409 341.514 45.0462 340.251L43.973 339.67C43.1862 339.229 42.2693 339.079 41.3829 339.246C40.5 339.413 39.7037 339.884 39.1324 340.577C37.9677 341.848 36.9308 343.231 36.037 344.705L36.0255 344.724L36.0157 344.744C35.8955 344.989 35.7255 345.206 35.5167 345.381C35.3151 345.55 35.0817 345.677 34.8302 345.754C34.5998 345.789 34.3643 345.775 34.1394 345.712C33.9056 345.647 33.6889 345.532 33.505 345.373L33.483 345.354L33.4589 345.338C25.8705 340.202 19.5724 333.382 15.0569 325.409L15.037 325.374L15.0119 325.343C14.8763 325.173 14.7754 324.979 14.715 324.771C14.6546 324.563 14.6359 324.345 14.6599 324.129C14.6839 323.914 14.7502 323.705 14.855 323.516C14.9589 323.327 15.0986 323.161 15.2661 323.027C15.388 322.935 15.5206 322.858 15.661 322.797L15.6934 322.783L15.7235 322.765C17.2543 321.834 18.7446 320.843 20.133 319.815C20.8232 319.413 21.3512 318.781 21.6248 318.03C21.9019 317.269 21.9001 316.435 21.6197 315.675L21.6149 315.662L21.6094 315.649C20.1148 312.201 18.4348 308.836 16.5768 305.57L16.5768 305.57L16.5739 305.565C16.1827 304.895 15.5921 304.365 14.8847 304.047C14.1794 303.731 13.3929 303.641 12.6347 303.792C12.202 303.868 11.7814 304.001 11.3841 304.189Z" fill="#AA4337" stroke="#FBFBFF"/>
<path d="M32.8878 301.885C35.2465 301.989 37.5875 302.344 39.8708 302.945C44.5121 304.363 48.6718 307.035 51.8912 310.666C55.1052 314.291 57.2571 318.733 58.1108 323.501C58.1332 324.046 58.1645 324.583 58.1955 325.115C58.2639 326.289 58.3311 327.441 58.2981 328.61L58.2975 328.635L58.2992 328.659C58.3177 328.923 58.2839 329.188 58.1999 329.439C58.1158 329.69 57.9831 329.922 57.8093 330.122C57.6355 330.321 57.424 330.485 57.187 330.602C56.9526 330.719 56.6977 330.788 56.4367 330.807C56.3047 330.811 56.1725 330.806 56.0411 330.793L56.0309 330.792L56.0208 330.791C55.4366 330.756 54.9701 330.506 54.6443 330.095C54.3135 329.677 54.103 329.06 54.112 328.265C54.1843 322.707 52.1385 317.33 48.3901 313.225C44.6416 309.12 39.4715 306.596 33.9296 306.165L33.9167 306.164L33.9037 306.164C33.4401 306.152 32.9785 306.098 32.5245 306.004L32.5245 306.004L32.519 306.002C32.0476 305.91 31.6262 305.648 31.3344 305.266C31.0425 304.885 30.9001 304.409 30.9341 303.93L30.9366 303.896L30.9343 303.862C30.9185 303.623 30.9499 303.383 31.0268 303.157C31.1037 302.93 31.2245 302.721 31.3823 302.541C31.5402 302.361 31.7319 302.214 31.9466 302.109C32.1613 302.003 32.3947 301.941 32.6335 301.926L32.6604 301.924L32.6869 301.919L32.8878 301.885Z" fill="#182F43" stroke="#FBFBFF"/>
<path d="M56.7558 331.314L56.7531 331.315C56.4893 331.357 56.2218 331.372 55.9549 331.358C54.5515 331.264 53.5326 330.114 53.5489 328.285C53.621 322.862 51.6264 317.616 47.9701 313.61C44.3137 309.605 39.2695 307.142 33.8625 306.721L33.8625 306.721L33.8502 306.72L33.4652 306.7L33.4543 306.699L33.4435 306.699C33.0822 306.695 32.7228 306.646 32.3739 306.553L32.3605 306.549L32.3469 306.546C31.7584 306.422 31.2343 306.091 30.8709 305.611C30.5076 305.132 30.3295 304.538 30.3693 303.938L30.3706 303.918L30.3704 303.899C30.366 303.529 30.437 303.163 30.5789 302.822C30.7199 302.483 30.9279 302.176 31.1906 301.919C31.4134 301.716 31.6762 301.562 31.9623 301.467C32.2506 301.372 32.5559 301.338 32.8581 301.369L32.8724 301.37L32.8868 301.371C35.3014 301.476 37.698 301.837 40.0365 302.448C44.7679 303.877 49.0107 306.59 52.2938 310.285C55.5788 313.982 57.7743 318.518 58.6363 323.388L58.6438 323.431C58.6699 323.952 58.6995 324.494 58.7306 324.983C58.8054 326.17 58.8753 327.379 58.8382 328.58L58.8377 328.596L58.8382 328.612C58.851 328.994 58.7869 329.374 58.6496 329.731C58.5135 330.085 58.3083 330.408 58.0459 330.681C57.6904 331.018 57.2403 331.239 56.7558 331.314ZM32.7834 301.497L32.7737 301.441L32.2869 301.518C31.8984 301.579 31.5362 301.753 31.2446 302.017L31.2363 302.024L31.2283 302.032C30.9764 302.282 30.7772 302.58 30.6425 302.908C30.5105 303.229 30.4431 303.573 30.4439 303.92C30.4024 304.519 30.5821 305.113 30.9494 305.589C31.3182 306.067 31.8499 306.392 32.4429 306.502C32.782 306.583 33.1295 306.623 33.4781 306.622L33.8751 306.646C39.2927 307.081 44.343 309.557 48.0045 313.574C51.667 317.592 53.6663 322.851 53.5978 328.287C53.5874 329.098 53.7811 329.819 54.1864 330.36C54.5966 330.908 55.1974 331.233 55.9115 331.281C56.2639 331.322 56.621 331.291 56.9614 331.191C57.3065 331.09 57.6273 330.919 57.9043 330.69L57.9271 330.671L57.9475 330.649C58.2075 330.376 58.4106 330.054 58.5448 329.701C58.677 329.354 58.7397 328.984 58.7296 328.613C58.7616 327.555 58.7026 326.471 58.646 325.43C58.6386 325.296 58.6314 325.162 58.6244 325.029L58.6244 325.029L58.624 325.023C58.6181 324.934 58.612 324.844 58.6058 324.753C58.5764 324.319 58.5464 323.879 58.5426 323.507L58.5422 323.465L58.5348 323.423C57.6653 318.569 55.4669 314.051 52.1839 310.371C48.9008 306.691 44.6618 303.993 39.9377 302.577L39.9295 302.575L39.9213 302.573C37.5886 301.96 35.1968 301.599 32.787 301.497L32.7834 301.497Z" fill="#182F43" stroke="#FBFBFF"/>
<path d="M45.4556 329.329L44.9559 329.312L45.4556 329.294C45.3985 327.68 45.1544 326.077 44.7282 324.518L44.7234 324.501L44.7173 324.484C43.686 321.568 42.1058 319.28 39.99 317.639C37.875 315.999 35.2538 315.028 32.1755 314.701L32.1752 314.701C31.2656 314.605 30.6 314.328 30.1795 313.95C29.773 313.585 29.5619 313.099 29.5957 312.481C29.6298 311.858 29.9018 311.35 30.3635 310.997C30.8319 310.639 31.5308 310.416 32.4456 310.451C40.6537 310.824 48.0264 317.407 49.5668 326.332C49.575 326.525 49.5901 326.754 49.607 327.008C49.6513 327.676 49.7074 328.522 49.6808 329.383L49.6802 329.403L49.6812 329.423C49.695 329.697 49.6545 329.971 49.5621 330.229C49.4696 330.487 49.327 330.724 49.1425 330.927C48.958 331.129 48.7351 331.293 48.4869 331.41C48.2386 331.526 47.9699 331.592 47.696 331.603L47.6639 331.605L47.6322 331.61L47.5862 331.618C47.3077 331.608 47.0336 331.545 46.7783 331.432C46.5092 331.314 46.2663 331.143 46.0638 330.93C45.8613 330.717 45.7033 330.465 45.5989 330.19C45.4945 329.915 45.4458 329.623 45.4556 329.329Z" fill="#182F43" stroke="#FBFBFF"/>
<path d="M44.8953 329.474L44.8951 329.431L44.8879 329.39C44.8525 329.186 44.8405 328.986 44.8267 328.756C44.8205 328.652 44.814 328.543 44.8048 328.425C44.7483 327.193 44.5366 325.974 44.1747 324.796L44.1716 324.786L44.1681 324.776C43.1813 321.99 41.6729 319.782 39.6386 318.192C37.6047 316.603 35.0741 315.654 32.0785 315.34C31.0458 315.23 30.2563 314.886 29.7442 314.408C29.2419 313.939 28.978 313.316 29.0204 312.56C29.0508 312.02 29.2378 311.521 29.5643 311.111C29.2822 311.509 29.1211 311.983 29.1054 312.476C29.049 313.566 29.6238 314.249 30.2943 314.639C30.9359 315.013 31.6824 315.136 32.1132 315.178C35.1719 315.498 37.7021 316.46 39.7184 318.031C41.7322 319.6 43.2622 321.799 44.2874 324.643C44.6496 325.83 44.8619 327.057 44.9191 328.297L44.9205 328.328L44.9259 328.359C44.9492 328.493 44.9606 328.637 44.9703 328.801C44.9721 328.831 44.9738 328.862 44.9756 328.894C44.9824 329.016 44.9899 329.15 45.0029 329.283C44.9853 329.627 45.0349 329.971 45.1489 330.296C45.268 330.635 45.4548 330.946 45.698 331.211C45.9412 331.475 46.2358 331.687 46.5637 331.834C46.8916 331.981 47.246 332.06 47.6053 332.066L47.614 332.066L47.6228 332.066C47.9596 332.059 48.2918 331.987 48.6005 331.852C48.9092 331.717 49.1881 331.522 49.4215 331.279C49.6548 331.036 49.838 330.75 49.9604 330.436C50.0829 330.122 50.1423 329.787 50.1351 329.45L49.6352 329.461L50.0586 329.387L50.1204 329.389C50.1205 329.385 50.1206 329.381 50.1207 329.377L50.1279 329.375L50.1279 329.375L50.1279 329.375L50.1279 329.375L50.1279 329.375L50.1279 329.375L50.1279 329.375L50.1279 329.375L50.1278 329.375L50.1278 329.375L50.1278 329.375L50.1278 329.375L50.1278 329.375L50.1278 329.375L50.1278 329.375L50.1278 329.375L50.1278 329.375L50.1278 329.375L50.1278 329.375L50.1278 329.375L50.1278 329.375L50.1278 329.375L50.1278 329.375L50.1278 329.375L50.1278 329.375L50.1278 329.375L50.1278 329.375L50.1277 329.375L50.1277 329.375L50.1277 329.375L50.1277 329.375L50.1277 329.375L50.1277 329.374L50.1277 329.374L50.1277 329.374L50.1277 329.374L50.1277 329.374L50.1277 329.374L50.1277 329.374L50.1277 329.374L50.1276 329.374L50.1276 329.374L50.1276 329.374L50.1276 329.374L50.1276 329.374L50.1276 329.374L50.1276 329.374L50.1276 329.374L50.1276 329.374L50.1276 329.374L50.1275 329.373L50.1275 329.373L50.1275 329.373L50.1275 329.373L50.1275 329.373L50.1275 329.373L50.1275 329.373L50.127 329.37L50.127 329.37L50.127 329.37L50.1269 329.37L50.1269 329.37L50.1269 329.37L50.1269 329.37L50.1269 329.37L50.1268 329.369L50.1268 329.369L50.1268 329.369L50.1268 329.369L50.1268 329.369L50.1268 329.369L50.1267 329.369L50.1267 329.369L50.1267 329.369L50.1267 329.368L50.1267 329.368L50.1266 329.368L50.1266 329.368L50.1266 329.368L50.1266 329.368L50.1265 329.368L50.1265 329.368L50.1265 329.368L50.1265 329.367L50.1265 329.367L50.1264 329.367L50.1264 329.367L50.1264 329.367L50.1264 329.367L50.1264 329.367L50.1226 329.345L50.1216 329.339C50.1398 328.524 50.0913 327.692 50.0548 327.066C50.0516 327.012 50.0486 326.959 50.0456 326.908L50.043 326.863L50.0323 326.819C49.998 326.678 49.9885 326.532 50.0043 326.387L50.0119 326.317L49.9999 326.248C49.1382 321.277 46.5148 316.966 42.885 314.034C46.5625 316.976 49.2326 321.325 50.1071 326.371L50.1181 326.434L50.1198 326.444L50.1217 326.453C50.1537 326.603 50.1613 326.757 50.1443 326.91L50.1391 326.956L50.1427 327.003C50.1942 327.673 50.2448 328.582 50.2214 329.489L50.2212 329.496L50.2213 329.503C50.2232 330.118 50.0101 330.714 49.6189 331.188C49.2285 331.662 48.6852 331.984 48.0828 332.1L47.5904 332.185C47.2462 332.182 46.9058 332.113 46.587 331.983C46.2559 331.847 45.9547 331.648 45.7007 331.396C45.4467 331.145 45.2448 330.845 45.1066 330.515C44.9684 330.185 44.8966 329.831 44.8953 329.474Z" fill="#182F43" stroke="#FBFBFF"/>
<path d="M36.7433 329.763C36.7392 329.696 36.7346 329.621 36.7278 329.547C36.6485 327.95 35.9839 326.438 34.8607 325.3C33.7386 324.164 32.2377 323.48 30.6442 323.379C29.786 323.268 29.1736 322.965 28.7956 322.564C28.4236 322.169 28.2369 321.636 28.3036 320.966C28.3695 320.304 28.6608 319.837 29.1108 319.538C29.5747 319.23 30.2587 319.067 31.1508 319.138C33.8115 319.38 36.2882 320.599 38.1032 322.56C39.9178 324.52 40.9422 327.083 40.9789 329.754C40.9759 330.648 40.7812 331.255 40.469 331.643C40.1668 332.019 39.6989 332.258 38.9887 332.305C38.2862 332.351 37.8047 332.167 37.4686 331.824C37.1177 331.466 36.859 330.868 36.7574 329.961C36.7519 329.903 36.748 329.84 36.7435 329.767L36.7433 329.763Z" fill="#182F43" stroke="#FBFBFF"/>
<path d="M36.2387 330.051L36.2369 330.034L36.234 330.017L36.1622 329.603C36.0874 328.136 35.4748 326.748 34.4408 325.703C33.4034 324.655 32.0155 324.028 30.5439 323.941C29.5242 323.811 28.79 323.439 28.3319 322.936C27.8774 322.437 27.6522 321.763 27.7314 320.933C27.8091 320.118 28.1739 319.524 28.7356 319.14C29.3084 318.748 30.1316 318.546 31.1599 318.625C33.9526 318.886 36.5509 320.168 38.4576 322.226C40.3648 324.283 41.446 326.972 41.4944 329.777C41.5026 330.7 41.2984 331.395 40.9518 331.881C40.6114 332.357 40.1023 332.676 39.4018 332.797L39.0047 332.866C38.1932 332.917 37.576 332.688 37.1322 332.252C36.6741 331.803 36.3457 331.079 36.2387 330.051ZM31.2157 318.692C30.8237 318.652 30.4284 318.66 30.0383 318.715C29.4656 318.763 28.928 319.012 28.522 319.419C28.1136 319.829 27.8653 320.371 27.8219 320.948C27.7447 321.727 27.9597 322.421 28.4724 322.946C28.9738 323.459 29.7103 323.759 30.5875 323.873L30.603 323.875L30.6186 323.876C32.0907 323.975 33.4759 324.609 34.5128 325.658C35.5496 326.708 36.1664 328.101 36.2466 329.574L36.2482 329.604L36.2532 329.633L36.3238 330.04C36.4664 331.349 36.946 332.098 37.573 332.479C38.1579 332.835 38.7675 332.798 39.0167 332.783C39.0237 332.783 39.0304 332.783 39.0368 332.782L39.0368 332.782L39.0422 332.782C39.4893 332.751 40.1259 332.657 40.6417 332.189C41.1702 331.709 41.4724 330.933 41.4686 329.762L41.4686 329.762L41.4686 329.758C41.4363 326.969 40.3688 324.293 38.4733 322.248C36.5787 320.204 33.9921 318.936 31.2157 318.692Z" fill="#182F43" stroke="#FBFBFF"/>
<path d="M19.2808 319.987C19.2784 319.995 19.2737 320.003 19.2673 320.008C19.2608 320.005 19.2554 320 19.2517 319.994L18.34 318.377L18.3302 318.36L18.3191 318.344C18.3136 318.335 18.3116 318.325 18.3135 318.316C18.3153 318.306 18.3209 318.298 18.329 318.292L18.329 318.292L18.3349 318.288L18.3718 318.353L19.2782 319.953C19.283 319.964 19.284 319.975 19.2808 319.987Z" fill="white" stroke="#FBFBFF"/>
<path d="M17.3502 316.608L17.3504 316.608L17.3446 316.598L11.0473 305.403C11.0443 305.397 11.0424 305.39 11.0418 305.384C11.0411 305.376 11.0419 305.368 11.0442 305.361C11.0466 305.353 11.0503 305.346 11.0553 305.34C11.0603 305.334 11.0665 305.33 11.0734 305.326L11.0834 305.321L11.0932 305.315C11.0988 305.312 11.105 305.31 11.1114 305.309C11.1179 305.309 11.1244 305.309 11.1305 305.311C11.1367 305.313 11.1424 305.316 11.1474 305.32C11.1524 305.324 11.1564 305.329 11.1593 305.335L11.1641 305.345L11.1693 305.354L17.4706 316.556L17.4706 316.556L17.4721 316.558C17.4769 316.567 17.4782 316.577 17.4756 316.586C17.4741 316.592 17.4711 316.597 17.4672 316.602C17.4576 316.605 17.4477 316.607 17.4377 316.607L17.4667 317.106L17.367 316.616C17.3637 316.617 17.3603 316.617 17.3573 316.615C17.3543 316.614 17.3518 316.611 17.3502 316.608Z" fill="white" stroke="#FBFBFF"/>
<path d="M54.5363 351.194L54.1377 350.996L54.1317 350.963C54.1232 350.965 54.1145 350.964 54.107 350.959L42.2809 343.77L42.2809 343.77L42.2797 343.769C42.2752 343.766 42.2712 343.762 42.268 343.758C42.2648 343.754 42.2626 343.749 42.2613 343.744C42.2601 343.739 42.2598 343.733 42.2606 343.728C42.2614 343.723 42.2632 343.718 42.266 343.713C42.2687 343.709 42.2724 343.705 42.2766 343.702C42.281 343.698 42.2858 343.696 42.2909 343.695C42.2961 343.694 42.3014 343.693 42.3067 343.694C42.3119 343.695 42.3168 343.697 42.3213 343.699C42.3214 343.699 42.3215 343.699 42.3216 343.7L54.1217 350.883C54.1241 350.886 54.1257 350.89 54.1264 350.894C54.1276 350.901 54.1261 350.908 54.1223 350.913L54.5363 351.194Z" fill="white" stroke="#FBFBFF"/>
<path d="M38.6622 341.487L39.0942 341.739C39.0977 341.732 39.1035 341.728 39.1101 341.726C39.1163 341.725 39.1229 341.725 39.1286 341.728L41.0422 342.885C41.0482 342.891 41.0523 342.9 41.0538 342.909C41.0559 342.921 41.0532 342.933 41.0463 342.944L41.0328 342.963L41.0213 342.984C41.0202 342.986 41.0187 342.988 41.0169 342.989C41.0163 342.99 41.0156 342.99 41.0148 342.991C41.0084 342.991 41.002 342.989 40.9963 342.986L39.0734 341.824C39.0717 341.822 39.0701 341.82 39.0687 341.818C39.066 341.814 39.0643 341.809 39.0634 341.804C39.0626 341.799 39.0627 341.794 39.0638 341.79C39.0649 341.785 39.0669 341.78 39.0697 341.776L38.6622 341.487Z" fill="white" stroke="#FBFBFF"/>
<path d="M131.131 10.754L131.131 10.754C133.957 7.47595 137.469 4.85877 141.418 3.08753C145.368 1.3163 149.658 0.434269 153.985 0.503815V0.50388H153.993C163.031 0.50388 169.865 4.59829 174.749 9.801C179.642 15.0123 182.562 21.3189 183.746 25.6654C185.156 30.8984 187.255 38.7942 188.462 43.3328C188.985 45.2977 189.34 46.6333 189.399 46.8511C189.483 47.2453 189.411 47.6566 189.2 48C188.987 48.3463 188.648 48.5967 188.254 48.6984C187.861 48.8002 187.443 48.7454 187.089 48.5456C186.742 48.3503 186.483 48.0312 186.363 47.6529C186.36 47.6385 186.356 47.6227 186.353 47.6073C186.345 47.5738 186.334 47.5289 186.321 47.4746C186.293 47.3654 186.254 47.2097 186.203 47.013C186.101 46.6192 185.954 46.0562 185.771 45.3613C185.405 43.9712 184.895 42.0505 184.32 39.8938C183.17 35.5804 181.758 30.321 180.711 26.4707C179.647 22.5548 177.029 16.8666 172.657 12.1484C168.279 7.42264 162.12 3.64974 153.997 3.64848C150.122 3.58615 146.281 4.37328 142.742 5.95456C139.203 7.53639 136.053 9.87451 133.514 12.8045L133.514 12.8046C128.928 18.1005 124.051 28.0093 126.6 44.9124C128.677 58.8428 135.679 87.8816 142.18 113.524C145.432 126.352 148.561 138.339 150.891 147.176C152.056 151.594 153.021 155.225 153.701 157.78C154.042 159.058 154.311 160.066 154.498 160.769C154.592 161.121 154.665 161.396 154.717 161.59C154.743 161.687 154.763 161.764 154.778 161.819L154.795 161.886L154.8 161.906L154.802 161.912L154.802 161.915L154.804 161.922L154.806 161.929C154.914 162.331 154.858 162.76 154.65 163.121C154.442 163.482 154.099 163.746 153.697 163.855L153.692 163.856C153.559 163.893 153.422 163.911 153.284 163.91L153.278 164.41L153.279 163.91C152.933 163.91 152.597 163.796 152.323 163.585C152.049 163.375 151.851 163.08 151.761 162.746L151.726 162.613C150.663 158.657 127.612 72.8611 123.486 45.3753C120.762 27.1996 126.17 16.5079 131.131 10.754Z" fill="#182F43" stroke="#FFC100"/>
<path d="M36.4938 263.756C27.8316 263.756 20.7858 260.762 17.2318 252.079C10.0927 234.682 32.3078 223.284 58.025 210.073C66.3142 205.825 74.8728 201.421 83.0377 196.603C114.008 178.15 111.77 165.85 111.739 165.726C111.625 165.202 111.718 164.655 111.999 164.198C112.28 163.742 112.726 163.412 113.245 163.278C113.764 163.144 114.315 163.216 114.782 163.479C115.249 163.743 115.595 164.176 115.749 164.69C116.153 166.223 118.712 180.232 85.1618 200.178C76.8726 205.11 68.2518 209.503 59.9212 213.824C36.0172 226.092 15.3667 236.692 21.0655 250.566C27.4068 266.036 49.0934 258.69 70.0755 251.602C83.0688 247.209 95.3368 243.054 102.994 245.137C109.812 247.002 111.211 251.727 111.957 254.265C112.06 254.669 112.195 255.064 112.361 255.446C112.718 255.854 112.901 256.385 112.871 256.926C112.842 257.467 112.601 257.975 112.201 258.341C111.802 258.707 111.275 258.901 110.733 258.883C110.191 258.865 109.679 258.636 109.304 258.244C108.645 257.428 108.194 256.464 107.988 255.436C107.325 253.188 106.496 250.39 101.906 249.136C95.4715 247.375 83.7837 251.343 71.4017 255.529C59.5689 259.456 46.8657 263.756 36.4938 263.756Z" fill="#182F43"/>
<path d="M254.241 223.005C253.879 223.01 253.522 222.921 253.205 222.746C252.966 222.614 252.757 222.436 252.587 222.223C252.417 222.01 252.292 221.766 252.217 221.504C252.141 221.242 252.119 220.968 252.15 220.698C252.181 220.427 252.264 220.165 252.397 219.927C263.214 200.468 282.714 194.718 299.935 189.651C305.942 188.003 311.854 186.024 317.643 183.724C324.243 180.937 328.004 174.098 326.212 168.182C323.155 158.069 304.96 150.091 263.069 158.028C244.294 161.582 229.912 160.1 220.307 153.479C212.018 147.811 210.577 140.444 210.515 140.133C210.427 139.599 210.551 139.051 210.861 138.607C211.172 138.163 211.644 137.858 212.176 137.757C212.709 137.657 213.259 137.769 213.71 138.07C214.161 138.371 214.476 138.836 214.587 139.367C214.784 140.34 219.623 162.037 262.25 153.956C318.368 143.325 328.409 161.209 330.139 166.98C332.574 175.041 327.88 183.89 319.218 187.548C313.288 189.921 307.227 191.952 301.064 193.63C283.802 198.717 265.97 203.991 255.982 221.948C255.807 222.259 255.555 222.52 255.25 222.705C254.945 222.89 254.597 222.993 254.241 223.005Z" fill="#182F43"/>
<path d="M193.516 54.7718L193.999 54.6403L193.516 54.7716M193.516 54.7718L189.99 59.3728C189.193 59.3715 188.418 59.1087 187.784 58.6249C187.151 58.1411 186.693 57.463 186.482 56.6945C186.482 56.6943 186.482 56.6942 186.482 56.6941L182.244 41.1528L182.244 41.1525C182.118 40.6906 182.084 40.2084 182.144 39.7333C182.204 39.2583 182.357 38.7997 182.595 38.3839C182.832 37.968 183.149 37.6029 183.527 37.3095C183.906 37.0162 184.338 36.8002 184.8 36.6739C185.262 36.5477 185.744 36.5137 186.219 36.5738C186.694 36.6339 187.153 36.787 187.569 37.0243C187.985 37.2617 188.35 37.5786 188.643 37.957C188.936 38.3354 189.152 38.7678 189.279 39.2296C189.279 39.2297 189.279 39.2297 189.279 39.2298L193.516 54.7716M193.516 54.7718C193.516 54.7717 193.516 54.7716 193.516 54.7716M193.516 54.7718L193.516 54.7716" fill="#182F43" stroke="#FFC100"/>
<path d="M248.656 220.227C248.656 220.227 253.598 211.751 258.54 215.284C263.483 218.818 252.893 225.874 257.131 227.283C261.369 228.692 269.834 225.211 272.674 234.35C275.513 243.488 267.016 247.757 258.551 245.644C250.085 243.53 243.009 235.054 248.656 220.227Z" fill="white"/>
<path d="M262.779 246.691C261.307 246.689 259.842 246.505 258.417 246.141C256.204 245.639 254.125 244.667 252.321 243.29C250.517 241.913 249.03 240.165 247.962 238.163C245.423 233.314 245.506 227.045 248.169 220.041V219.968C248.293 219.751 251.205 214.788 254.945 214.01C255.611 213.867 256.3 213.869 256.965 214.016C257.63 214.162 258.256 214.45 258.8 214.86C261.908 217.067 259.701 220.466 258.116 222.952C257.266 224.289 256.386 225.667 256.614 226.32C256.614 226.392 256.717 226.62 257.246 226.797C258.602 227.12 259.998 227.249 261.39 227.18C265.638 227.18 270.923 227.18 273.068 234.195C274.518 238.909 272.995 241.831 271.451 243.458C270.294 244.547 268.93 245.394 267.441 245.949C265.952 246.504 264.367 246.756 262.779 246.691V246.691ZM249.122 220.455C246.573 227.159 246.49 233.117 248.874 237.687C249.879 239.556 251.273 241.188 252.962 242.473C254.651 243.758 256.596 244.666 258.665 245.136C263.504 246.349 268.26 245.406 270.788 242.743C272.715 240.671 273.192 237.852 272.166 234.454C270.239 228.237 265.587 228.237 261.473 228.175C259.958 228.248 258.439 228.101 256.966 227.739C256.679 227.667 256.413 227.528 256.19 227.333C255.967 227.139 255.792 226.895 255.681 226.62C255.277 225.491 256.21 224.04 257.287 222.351C259.173 219.388 260.396 217.171 258.24 215.668C257.815 215.339 257.323 215.107 256.798 214.988C256.274 214.87 255.73 214.869 255.204 214.984C252.096 215.699 249.381 220.02 249.122 220.455V220.455Z" fill="#182F43"/>
<path d="M269.068 245.167C268.966 245.167 268.865 245.138 268.778 245.084C268.665 245.008 268.586 244.891 268.558 244.757C268.531 244.623 268.558 244.484 268.633 244.369C274.57 235.313 264.986 228.568 264.571 228.288C264.459 228.209 264.382 228.088 264.357 227.953C264.331 227.817 264.36 227.678 264.437 227.563C264.474 227.506 264.523 227.458 264.579 227.421C264.636 227.383 264.699 227.357 264.766 227.345C264.832 227.332 264.901 227.333 264.967 227.347C265.033 227.362 265.096 227.389 265.152 227.428V227.428C265.255 227.501 275.99 235.034 269.483 244.929C269.439 245 269.378 245.058 269.305 245.1C269.233 245.141 269.152 245.164 269.068 245.167V245.167Z" fill="#182F43"/>
<path d="M252.376 334.234L149.144 350.346C142.264 351.382 135.249 345.662 133.488 337.477L79.8774 88.7385C76.7689 77.0093 87.3273 70.7613 94.2073 69.6837L192.372 55.8614C199.252 54.8253 206.257 60.5448 208.028 68.7304L268.529 317.065C270.291 325.261 266.053 332.192 252.376 334.234Z" fill="white"/>
<path d="M147.486 351C140.948 351 134.658 345.343 132.98 337.592L79.3694 88.8434C78.7845 86.9016 78.6298 84.8555 78.9161 82.8478C79.2025 80.84 79.9229 78.9188 81.0273 77.2178C84.2601 72.2857 90.104 69.799 94.1346 69.1773L192.3 55.3447C199.428 54.236 206.712 60.1939 208.526 68.6281L269.026 316.952C269.492 318.7 269.584 320.527 269.295 322.312C269.005 324.098 268.342 325.802 267.348 327.314C264.695 331.147 259.691 333.634 252.448 334.722L149.227 350.834C148.652 350.936 148.07 350.991 147.486 351V351ZM194.03 56.2461C193.499 56.2463 192.969 56.2879 192.445 56.3705L94.2796 70.2031C90.477 70.7937 84.9543 73.1354 81.8976 77.7877C80.8704 79.3707 80.2019 81.1592 79.9388 83.0278C79.6756 84.8964 79.8244 86.8 80.3745 88.6051L133.995 337.364C135.705 345.28 142.461 350.834 149.061 349.798L252.293 333.644C259.245 332.608 264.022 330.256 266.488 326.671C267.405 325.274 268.016 323.699 268.28 322.048C268.545 320.398 268.456 318.711 268.021 317.097L207.521 68.8561C205.956 61.5719 200.102 56.2461 194.03 56.2461V56.2461Z" fill="#182F43"/>
<path d="M259.433 331.416L156.222 347.528C149.342 348.564 142.337 342.834 140.576 334.649L86.9345 85.9102C85.1731 77.7246 89.3177 70.2229 96.1977 69.1453L199.429 53.0331C206.309 51.997 213.324 57.7269 215.086 65.9125L268.696 314.651C270.468 322.836 266.313 330.338 259.433 331.416Z" fill="#182F43"/>
<path d="M154.553 348.151C148.004 348.151 141.715 342.493 140.047 334.743L86.4259 86.0047C85.9236 83.896 85.8529 81.7075 86.2179 79.5708C86.5829 77.4341 87.3762 75.3932 88.55 73.5709C89.4075 72.281 90.5217 71.1819 91.8232 70.3422C93.1246 69.5025 94.5853 68.9402 96.1139 68.6906L199.346 52.5784C206.485 51.4594 213.769 57.4173 215.592 65.8515L269.161 314.528C269.68 316.644 269.764 318.844 269.408 320.993C269.052 323.143 268.263 325.198 267.089 327.034C266.229 328.323 265.112 329.422 263.809 330.261C262.506 331.101 261.044 331.664 259.515 331.914L156.283 348.026C155.711 348.115 155.132 348.156 154.553 348.151V348.151ZM201.097 53.4074C200.566 53.4076 200.036 53.4491 199.511 53.5317L96.2797 69.6438C94.8886 69.8712 93.5596 70.3834 92.3757 71.1483C91.1918 71.9132 90.1786 72.9143 89.3996 74.0889C88.3009 75.8058 87.5609 77.7273 87.2244 79.7378C86.8878 81.7482 86.9616 83.8059 87.4413 85.7871L141.052 334.525C142.761 342.431 149.517 347.995 156.128 346.959L259.359 330.837C260.749 330.609 262.077 330.097 263.259 329.332C264.441 328.567 265.452 327.566 266.229 326.392C267.332 324.677 268.076 322.756 268.414 320.745C268.753 318.734 268.679 316.675 268.198 314.693L214.577 66.0173C213.012 58.7643 207.158 53.4281 201.107 53.4281L201.097 53.4074Z" fill="#182F43"/>
<path d="M259.941 301.866L143.405 320.05L94.6123 93.6616L211.138 75.4668L259.941 301.866Z" fill="#FFC100"/>
<path d="M143.405 320.569C143.288 320.569 143.175 320.529 143.084 320.455C142.994 320.381 142.931 320.279 142.907 320.165L94.1047 93.7657C94.0768 93.6267 94.1027 93.4822 94.1772 93.3616C94.2183 93.3035 94.2706 93.2543 94.3312 93.2169C94.3917 93.1795 94.4592 93.1547 94.5295 93.144L211.055 74.9596C211.186 74.9406 211.32 74.9716 211.429 75.0464C211.539 75.1213 211.616 75.2345 211.646 75.3637L260.448 301.752C260.464 301.822 260.464 301.893 260.45 301.963C260.436 302.033 260.407 302.099 260.365 302.156C260.284 302.271 260.161 302.349 260.024 302.374L143.488 320.569H143.405ZM95.2341 94.0869L143.788 319.47L259.298 301.441L210.734 76.0579L95.2341 94.0869Z" fill="#182F43"/>
<path d="M160.852 145.646C162.044 151.355 161.308 156.298 159.236 156.681C157.164 157.064 154.521 152.744 153.34 147.035C152.159 141.325 152.884 136.383 154.957 136C157.029 135.616 159.671 139.885 160.852 145.646Z" fill="#182F43"/>
<path d="M186.445 140.857C187.626 146.566 186.901 151.509 184.818 151.903C182.735 152.296 180.103 147.965 178.922 142.256C177.741 136.547 178.466 131.604 180.539 131.221C182.611 130.838 185.232 135.148 186.445 140.857Z" fill="#182F43"/>
<path d="M173.359 191.495C161.112 191.495 149.041 183.983 141.529 171.269C141.317 170.801 141.287 170.272 141.443 169.784C141.6 169.295 141.932 168.882 142.375 168.624C142.819 168.366 143.342 168.282 143.844 168.388C144.346 168.494 144.791 168.782 145.093 169.197C152.823 182.273 165.723 189.246 178.001 186.967C189.948 184.76 199.066 174.015 201.211 159.612C201.251 159.34 201.344 159.079 201.486 158.843C201.627 158.606 201.813 158.401 202.034 158.236C202.255 158.072 202.506 157.953 202.773 157.886C203.039 157.819 203.317 157.806 203.589 157.846C203.861 157.886 204.123 157.979 204.359 158.12C204.595 158.262 204.801 158.448 204.965 158.669C205.129 158.89 205.248 159.141 205.315 159.407C205.382 159.674 205.396 159.951 205.356 160.224C202.941 176.408 192.518 188.5 178.799 191.049C177.003 191.363 175.182 191.512 173.359 191.495Z" fill="#182F43"/>
<path d="M123.214 177.456L117.906 188.31L118.837 188.765L124.145 177.912L123.214 177.456Z" fill="white"/>
<path d="M167.723 86.506L127.994 167.747L128.925 168.202L168.654 86.9612L167.723 86.506Z" fill="white"/>
<path d="M155.313 87.2428L138.687 119.087L139.605 119.566L156.231 87.7224L155.313 87.2428Z" fill="white"/>
<path d="M233.323 267.534L214.88 304.013L215.805 304.48L234.247 268.001L233.323 267.534Z" fill="white"/>
<path d="M241.872 250.677L236.141 262.014L237.065 262.481L242.797 251.144L241.872 250.677Z" fill="white"/>
<path d="M166.738 71.6953L134.544 76.6791C133.86 76.7169 133.186 76.4962 132.656 76.0605C132.126 75.6249 131.78 75.0062 131.685 74.3271V74.3271C131.582 74.0298 131.538 73.7151 131.557 73.401C131.576 73.087 131.656 72.7797 131.794 72.4967C131.931 72.2138 132.124 71.9608 132.359 71.7521C132.595 71.5435 132.869 71.3833 133.166 71.2808L133.374 71.2186L165.546 66.3176C166.231 66.2798 166.905 66.5006 167.434 66.9363C167.964 67.3719 168.311 67.9905 168.406 68.6697V68.6697C168.594 69.2756 168.533 69.9314 168.238 70.4929C167.943 71.0544 167.437 71.4757 166.831 71.6642L166.738 71.6953Z" fill="white"/>
<path d="M134.245 77.2591C133.652 77.1916 133.085 76.975 132.597 76.6296C132.11 76.2842 131.718 75.8212 131.457 75.2836C131.197 74.746 131.076 74.1512 131.107 73.5546C131.138 72.958 131.32 72.3789 131.634 71.8711C131.824 71.5928 132.069 71.357 132.354 71.1786C132.64 71.0002 132.959 70.8832 133.292 70.835L165.548 65.7682C166.361 65.7169 167.165 65.971 167.801 66.4807C168.437 66.9904 168.86 67.7192 168.988 68.5244C169.094 68.9671 169.109 69.4268 169.032 69.8756C168.956 70.3244 168.789 70.753 168.542 71.1355C168.351 71.4141 168.104 71.65 167.816 71.8284C167.529 72.0067 167.208 72.1236 166.874 72.1716V72.1716L134.67 77.1969C134.53 77.2285 134.388 77.2493 134.245 77.2591V77.2591ZM165.889 66.7836H165.661L133.427 71.8193C133.031 71.8931 132.681 72.1204 132.453 72.4514C132.284 72.718 132.171 73.0163 132.121 73.3281C132.071 73.6399 132.085 73.9586 132.163 74.2646C132.236 74.8111 132.508 75.3114 132.927 75.6706C133.345 76.0297 133.881 76.2226 134.432 76.2126L166.635 71.1873C166.832 71.1521 167.018 71.0769 167.184 70.9664C167.35 70.8559 167.491 70.7124 167.599 70.5449C167.941 69.9746 168.043 69.2919 167.881 68.6468C167.72 68.0016 167.309 67.447 166.739 67.1048C166.467 66.9461 166.169 66.8373 165.858 66.7836H165.889Z" fill="#182F43"/>
<path d="M208.029 320.475C207.438 317.75 205.107 315.823 202.848 316.185C200.59 316.548 199.18 319.045 199.74 321.77C200.299 324.495 202.662 326.423 204.921 326.06C207.179 325.697 208.609 323.2 208.029 320.475Z" fill="white"/>
<path d="M204.381 326.619C202.04 326.619 199.791 324.62 199.201 321.884C199.022 321.132 198.998 320.35 199.13 319.588C199.261 318.826 199.546 318.098 199.967 317.449C200.278 316.978 200.684 316.578 201.158 316.273C201.633 315.967 202.166 315.765 202.724 315.678C205.283 315.274 207.904 317.377 208.526 320.371C208.707 321.122 208.733 321.901 208.603 322.661C208.473 323.422 208.189 324.148 207.77 324.796C207.455 325.266 207.047 325.667 206.571 325.973C206.095 326.28 205.561 326.486 205.003 326.578C204.797 326.607 204.589 326.621 204.381 326.619ZM203.345 316.662H202.848C202.43 316.732 202.03 316.886 201.674 317.116C201.317 317.346 201.012 317.646 200.776 317.999C200.437 318.534 200.209 319.131 200.106 319.756C200.003 320.381 200.026 321.02 200.175 321.636C200.703 324.091 202.786 325.842 204.806 325.521C205.226 325.455 205.627 325.302 205.984 325.072C206.341 324.842 206.645 324.539 206.879 324.184C207.222 323.653 207.453 323.058 207.556 322.434C207.659 321.81 207.633 321.171 207.479 320.558V320.558C207.315 319.542 206.82 318.609 206.07 317.905C205.32 317.2 204.359 316.763 203.335 316.662H203.345Z" fill="#182F43"/>
<path d="M194.165 238.039L146.585 246.235C143.477 246.773 141.404 249.343 141.902 251.954L148.036 281.495L148.202 282.262L151.403 297.7L160.366 285.08L202.454 277.827C205.563 277.288 207.635 274.718 207.127 272.118L200.776 241.8C200.268 239.189 197.294 237.5 194.165 238.039Z" fill="white"/>
<path d="M151.134 298.974L141.394 252.057C141.266 251.424 141.268 250.77 141.402 250.138C141.536 249.505 141.798 248.907 142.171 248.379C142.679 247.672 143.322 247.072 144.064 246.617C144.806 246.161 145.632 245.859 146.492 245.727L194.082 237.531C197.471 236.95 200.724 238.815 201.336 241.675L207.625 271.993C207.752 272.624 207.75 273.275 207.618 273.906C207.486 274.536 207.228 275.133 206.858 275.661C206.349 276.37 205.704 276.971 204.96 277.428C204.217 277.885 203.39 278.189 202.527 278.324L160.656 285.525L151.134 298.974ZM195.336 238.463C194.989 238.463 194.642 238.494 194.3 238.556L146.71 246.752C145.985 246.86 145.289 247.112 144.662 247.493C144.036 247.874 143.492 248.376 143.062 248.97C142.771 249.381 142.566 249.848 142.461 250.342C142.356 250.835 142.352 251.345 142.451 251.84L151.714 296.394L160.086 284.572L202.382 277.319C203.82 277.081 205.105 276.284 205.957 275.101C206.249 274.688 206.455 274.22 206.562 273.725C206.669 273.23 206.675 272.718 206.578 272.221L200.279 241.914C199.885 239.872 197.761 238.463 195.336 238.463V238.463Z" fill="#182F43"/>
<path d="M190.756 255.788C190.787 255.378 190.756 254.966 190.662 254.566V254.338C189.854 250.421 185.399 247.914 180.726 248.711C177.047 249.343 174.333 251.82 173.732 254.794C172.704 253.453 171.319 252.429 169.735 251.838C168.152 251.248 166.434 251.116 164.779 251.457C160.106 252.265 156.977 256.089 157.785 259.995C157.785 259.995 157.661 263.342 165.598 268.201C172.115 272.201 177.617 275.454 177.721 275.32C177.856 275.392 181.814 270.553 186.466 264.616C188.281 262.489 189.658 260.024 190.517 257.363C190.629 257.005 190.705 256.638 190.745 256.265C190.738 256.106 190.741 255.947 190.756 255.788Z" fill="#AA4337"/>
<path d="M177.638 275.827C177.568 275.822 177.501 275.801 177.441 275.764V275.764C176.477 275.443 173.804 273.899 165.276 268.667C157.733 264.035 157.246 260.637 157.215 260.077C157.042 259.17 157.053 258.238 157.247 257.336C157.441 256.433 157.814 255.579 158.345 254.824C159.089 253.798 160.028 252.929 161.11 252.268C162.191 251.606 163.392 251.165 164.644 250.969C166.226 250.668 167.857 250.76 169.395 251.237C170.932 251.713 172.329 252.561 173.462 253.705C174.073 252.253 175.05 250.985 176.297 250.024C177.545 249.063 179.021 248.443 180.58 248.223C185.523 247.374 190.248 250.078 191.118 254.254V254.42C191.223 254.885 191.262 255.363 191.232 255.839C191.239 256.003 191.221 256.167 191.18 256.326C191.137 256.73 191.057 257.129 190.942 257.518C190.055 260.236 188.648 262.756 186.797 264.937C180.757 272.666 178.788 275.018 178.011 275.64C177.976 275.689 177.929 275.729 177.875 275.754C177.82 275.78 177.76 275.79 177.7 275.785L177.638 275.827ZM166.489 251.788C165.936 251.784 165.385 251.833 164.841 251.933C163.724 252.097 162.651 252.485 161.686 253.072C160.721 253.659 159.884 254.435 159.225 255.352C158.771 255.998 158.451 256.73 158.285 257.502C158.12 258.275 158.112 259.073 158.262 259.849V259.973C158.262 259.973 158.355 263.134 165.826 267.724C171.815 271.392 176.456 274.117 177.576 274.687C178.425 273.775 181.772 269.672 186.01 264.253C187.779 262.174 189.127 259.77 189.978 257.176C190.078 256.837 190.147 256.491 190.185 256.14V255.715C190.213 255.368 190.188 255.019 190.113 254.679C190.103 254.624 190.103 254.568 190.113 254.513C189.346 250.793 185.16 248.451 180.788 249.218C177.43 249.788 174.788 252.068 174.218 254.886C174.205 254.952 174.178 255.015 174.14 255.071C174.102 255.127 174.053 255.175 173.996 255.212C173.939 255.248 173.875 255.273 173.808 255.285C173.742 255.297 173.673 255.295 173.607 255.28C173.542 255.269 173.48 255.245 173.425 255.209C173.37 255.173 173.323 255.127 173.286 255.072C172.499 254.021 171.47 253.174 170.287 252.602C169.105 252.031 167.802 251.751 166.489 251.788Z" fill="#182F43"/>
<path d="M117.355 257.716C117.355 257.716 114.371 248.391 108.786 250.743C103.201 253.095 111.988 262.306 107.553 262.762C103.118 263.218 95.6062 257.934 90.8503 266.275C86.0943 274.616 93.451 280.594 102.175 280.377C110.9 280.159 119.645 273.414 117.355 257.716Z" fill="white"/>
<path d="M101.709 280.893C96.5282 280.893 91.9794 278.821 89.9693 275.412C88.8192 273.495 87.9592 270.304 90.4045 266.025C94.0103 259.683 99.1807 260.844 103.325 261.714C104.675 262.085 106.07 262.266 107.47 262.253C108.019 262.191 108.143 261.984 108.185 261.921C108.558 261.331 107.998 259.849 107.46 258.305C106.423 255.539 105.066 251.746 108.548 250.265C109.168 249.983 109.841 249.838 110.521 249.838C111.202 249.838 111.875 249.983 112.495 250.265C115.966 251.86 117.738 257.321 117.821 257.518V257.601C118.909 265.02 117.614 271.154 114.091 275.34C112.61 277.06 110.777 278.443 108.716 279.394C106.655 280.345 104.414 280.842 102.144 280.852L101.709 280.893ZM98.4347 262.046C95.8443 262.046 93.3161 262.999 91.306 266.532C89.5652 269.579 89.4098 272.47 90.8501 274.884C92.7358 277.992 97.1706 279.982 102.165 279.857C104.289 279.846 106.386 279.377 108.314 278.483C110.241 277.589 111.953 276.291 113.335 274.677C116.661 270.739 117.873 264.906 116.847 257.808C116.681 257.321 115.013 252.524 112.091 251.187C111.604 250.961 111.074 250.845 110.537 250.845C110 250.845 109.47 250.961 108.983 251.187C106.589 252.223 107.263 254.617 108.465 257.922C109.148 259.797 109.739 261.424 109.097 262.44C108.928 262.681 108.705 262.88 108.446 263.02C108.187 263.16 107.899 263.238 107.605 263.248C106.087 263.288 104.571 263.103 103.108 262.699C101.578 262.316 100.011 262.097 98.4347 262.046V262.046Z" fill="#182F43"/>
<path d="M97.8027 266.554C97.5022 267.673 96.7665 268.44 96.1034 268.264C95.4403 268.088 95.1812 267.051 95.4921 265.932C95.8029 264.813 96.5282 264.036 97.1914 264.212C97.8545 264.389 98.1032 265.435 97.8027 266.554Z" fill="#182F43"/>
<path d="M93.6483 268.367C93.3478 269.486 92.6122 270.253 91.949 270.087C91.2859 269.921 91.0269 268.865 91.3273 267.746C91.6278 266.627 92.3635 265.86 93.037 266.036C93.7105 266.212 93.9488 267.217 93.6483 268.367Z" fill="#182F43"/>
<path d="M96.2484 272.915C95.9479 274.034 95.2122 274.811 94.5491 274.635C93.8859 274.459 93.6373 273.412 93.9377 272.293C94.2382 271.174 94.9739 270.408 95.637 270.584C96.3002 270.76 96.5488 271.796 96.2484 272.915Z" fill="#182F43"/>
<path d="M96.6834 279.298C96.5808 279.299 96.4803 279.269 96.3952 279.212C96.3102 279.154 96.2444 279.072 96.2067 278.977C96.1797 278.916 96.1652 278.85 96.1641 278.783C96.1631 278.716 96.1755 278.65 96.2006 278.588C96.2258 278.526 96.2631 278.47 96.3105 278.423C96.3578 278.376 96.4141 278.339 96.4761 278.314V278.314C97.341 277.952 98.1367 277.444 98.8282 276.811C98.9312 276.729 99.0619 276.688 99.1936 276.699C99.3253 276.709 99.448 276.77 99.5366 276.868C99.6253 276.966 99.6732 277.094 99.6706 277.226C99.6679 277.358 99.6149 277.484 99.5224 277.578C98.7443 278.295 97.8466 278.87 96.8699 279.277C96.809 279.293 96.7462 279.3 96.6834 279.298V279.298Z" fill="#182F43"/>
<path d="M100.465 276.293C100.353 276.296 100.243 276.259 100.154 276.19C100.1 276.149 100.054 276.098 100.02 276.039C99.9849 275.981 99.9621 275.916 99.9525 275.848C99.9429 275.781 99.9466 275.712 99.9635 275.647C99.9804 275.581 100.01 275.519 100.051 275.464V275.464C100.844 274.411 101.443 273.225 101.823 271.962C102.268 270.669 102.442 269.298 102.335 267.934C102.229 266.571 101.842 265.244 101.201 264.036C101.133 263.916 101.114 263.774 101.149 263.64C101.183 263.506 101.269 263.392 101.388 263.321C101.509 263.257 101.649 263.241 101.781 263.276C101.913 263.31 102.028 263.393 102.102 263.507C102.81 264.841 103.238 266.306 103.361 267.811C103.484 269.317 103.299 270.831 102.817 272.263C102.404 273.642 101.748 274.937 100.88 276.086C100.83 276.149 100.768 276.201 100.696 276.236C100.624 276.272 100.545 276.292 100.465 276.293V276.293Z" fill="#182F43"/>
</svg>
