<svg width="55" height="55" viewBox="0 0 55 55" fill="none" xmlns="http://www.w3.org/2000/svg">
<path fill-rule="evenodd" clip-rule="evenodd" d="M27.7062 1.44608C27.5808 2.23186 27.2288 2.82661 26.4662 3.54168C23.0411 6.75293 21.2109 9.11763 19.4593 12.5946C17.5757 16.3339 16.4438 20.5155 16.0854 25.0586C15.58 31.4647 17.3172 37.3064 21.3447 42.7432C22.4624 44.252 24.5805 46.5019 25.9722 47.6585C26.9477 48.4692 26.9663 48.4939 27.1893 49.2755C27.544 50.5177 27.6518 51.2817 27.7233 53.0541L27.7897 54.7006L28.2953 54.8503L28.801 55L28.9384 54.542C29.0138 54.2902 29.1026 53.2058 29.1355 52.1325C29.2266 49.1657 29.4348 48.5533 30.6939 47.5499C34.4096 44.5893 37.4895 39.9434 38.9221 35.1383C39.6915 32.5575 40.0054 30.3126 39.9999 27.4305C39.9937 24.1819 39.5728 21.6969 38.4684 18.3851C36.8606 13.5636 34.6267 9.83883 31.0605 6.03273C29.5206 4.38913 29.2263 3.97393 28.4022 2.28249L27.7775 1L27.7062 1.44608Z" fill="#182F43"/>
<mask id="mask0_497_2881" style="mask-type:alpha" maskUnits="userSpaceOnUse" x="16" y="1" width="24" height="54">
<path fill-rule="evenodd" clip-rule="evenodd" d="M27.7062 1.44608C27.5808 2.23186 27.2288 2.82661 26.4662 3.54168C23.0411 6.75293 21.2109 9.11763 19.4593 12.5946C17.5757 16.3339 16.4438 20.5155 16.0854 25.0586C15.58 31.4647 17.3172 37.3064 21.3447 42.7432C22.4624 44.252 24.5805 46.5019 25.9722 47.6585C26.9477 48.4692 26.9663 48.4939 27.1893 49.2755C27.544 50.5177 27.6518 51.2817 27.7233 53.0541L27.7897 54.7006L28.2953 54.8503L28.801 55L28.9384 54.542C29.0138 54.2902 29.1026 53.2058 29.1355 52.1325C29.2266 49.1657 29.4348 48.5533 30.6939 47.5499C34.4096 44.5893 37.4895 39.9434 38.9221 35.1383C39.6915 32.5575 40.0054 30.3126 39.9999 27.4305C39.9937 24.1819 39.5728 21.6969 38.4684 18.3851C36.8606 13.5636 34.6267 9.83883 31.0605 6.03273C29.5206 4.38913 29.2263 3.97393 28.4022 2.28249L27.7775 1L27.7062 1.44608Z" fill="#182F43"/>
</mask>
<g mask="url(#mask0_497_2881)">
<rect x="28" y="-1" width="29" height="57" fill="white" fill-opacity="0.2"/>
</g>
</svg>
