<svg width="55" height="55" viewBox="0 0 55 55" fill="none" xmlns="http://www.w3.org/2000/svg">
<path fill-rule="evenodd" clip-rule="evenodd" d="M32.4348 49.5112C42.4693 47.3892 49.9999 38.4817 49.9999 27.8154C49.9999 15.5681 40.0715 5.63965 27.8242 5.63965C15.5769 5.63965 5.64844 15.5681 5.64844 27.8154C5.64844 38.6201 13.3756 47.6199 23.6052 49.5903L23.6865 47.5988C23.6865 47.5988 20.8803 46.4114 19.3806 45.2067C17.8322 43.9629 16.0316 41.3793 16.0316 41.3793C16.0316 41.3793 18.2786 42.9911 19.8591 43.7714C21.2457 44.456 23.5498 45.2067 23.5498 45.2067V39.8795C21.1804 39.2646 15.5532 36.9279 15.5532 32.5006C15.5532 28.8854 17.3302 26.9664 17.3302 26.9664C17.9226 26.0444 18.2187 23.278 18.2187 19.5881C18.2187 16.5104 20.5802 17.1127 21.7728 19.5881C22.6613 21.4322 23.5498 22.3558 23.5498 22.3558H33.3233C33.3233 22.3558 34.3897 21.0646 35.1003 19.5887C36.8773 15.8979 38.6544 17.744 38.6544 19.5881V26.9664C39.451 28.4267 40.4314 30.2869 40.4314 32.5006C40.4314 35.2677 37.7658 38.9571 32.4348 39.8795V49.5112Z" fill="#182F43"/>
</svg>
