<svg width="719" height="642" viewBox="0 0 719 642" fill="none" xmlns="http://www.w3.org/2000/svg">
<g clip-path="url(#clip0_347_2926)">
<path d="M196.292 285.859C245.281 285.859 284.995 246.185 284.995 197.246C284.995 148.306 245.281 108.633 196.292 108.633C147.302 108.633 107.588 148.306 107.588 197.246C107.588 246.185 147.302 285.859 196.292 285.859Z" stroke="#182F43" stroke-miterlimit="10" stroke-dasharray="4.65 4.65"/>
<path d="M527.297 117H404.783C402.142 117 400 119.139 400 121.779V197.169C400 199.808 402.142 201.948 404.783 201.948H527.297C529.939 201.948 532.08 199.808 532.08 197.169V121.779C532.08 119.139 529.939 117 527.297 117Z" stroke="#182F43" stroke-width="1.5" stroke-miterlimit="10"/>
<path d="M400 128.29H532.08" stroke="#182F43" stroke-width="1.5" stroke-miterlimit="10"/>
<path d="M409.534 122.568C409.534 123.718 408.601 124.651 407.449 124.651C406.296 124.651 405.363 123.718 405.363 122.568C405.363 121.418 406.296 120.485 407.449 120.485C408.601 120.485 409.534 121.418 409.534 122.568Z" fill="#182F43" stroke="#182F43"/>
<path d="M418.327 122.568C418.327 123.718 417.394 124.651 416.242 124.651C415.089 124.651 414.156 123.718 414.156 122.568C414.156 121.418 415.089 120.485 416.242 120.485C417.394 120.485 418.327 121.418 418.327 122.568Z" fill="#182F43" stroke="#182F43"/>
<path d="M427.135 122.568C427.135 122.98 427.013 123.382 426.784 123.725C426.555 124.067 426.229 124.334 425.848 124.492C425.467 124.65 425.048 124.691 424.643 124.611C424.239 124.53 423.867 124.332 423.575 124.04C423.284 123.749 423.085 123.378 423.005 122.974C422.924 122.57 422.966 122.152 423.124 121.771C423.281 121.391 423.548 121.065 423.891 120.836C424.234 120.608 424.638 120.485 425.05 120.485C425.603 120.485 426.134 120.705 426.525 121.096C426.916 121.486 427.135 122.016 427.135 122.568Z" fill="#182F43" stroke="#182F43"/>
<path d="M137.997 77.5233L214.041 55.0611L218.279 69.3573L142.234 91.8195L137.997 77.5233Z" fill="#FBFBFF" stroke="#182F43"/>
<path d="M149.627 73.9439L137.194 77.6539L140.904 90.0876L149.627 73.9439Z" fill="#182F43"/>
<path d="M169.308 68.6958L158.673 71.4528L147.306 91.3017L158.151 87.8568L169.308 68.6958Z" fill="#182F43"/>
<path d="M190.998 61.8062L179.253 65.7277L168.097 84.8885L179.63 81.6549L190.998 61.8062Z" fill="#182F43"/>
<path d="M211.1 55.1809L202.109 58.4423L190.474 78.2094L200.421 75.2415L211.1 55.1809Z" fill="#182F43"/>
<path d="M218.725 69.5717L216.766 63.6992L212.642 72.2208L218.514 70.2598L218.725 69.5717Z" fill="#182F43"/>
<path d="M142.036 92.0557L220.774 90.9891L221.431 137.414C221.469 140.148 220.389 142.788 218.422 144.753C216.455 146.719 213.762 147.847 210.935 147.885L153.481 148.663C150.654 148.702 147.93 147.647 145.908 145.735C143.886 143.825 142.732 141.214 142.693 138.48L142.036 92.0557Z" fill="#FFC100" stroke="#182F43"/>
<path d="M142.036 92.625L220.51 91.562L220.721 106.468L142.247 107.531L142.036 92.625Z" fill="#FBFBFF" stroke="#182F43"/>
<path d="M153.919 91.8255L140.956 92.3614L141.329 98.4998L141.648 102.363L153.919 91.8255Z" fill="#182F43"/>
<path d="M177.358 91.4965L165.084 92.2436L148.369 107.44L158.846 107.645L177.358 91.4965Z" fill="#182F43"/>
<path d="M197.624 91.698L187.147 91.4922L169.534 107.163L179.322 107.159L197.624 91.698Z" fill="#182F43"/>
<path d="M217.413 91.0012L206.725 91.4821L189.8 107.365L200.276 107.572L217.413 91.0012Z" fill="#182F43"/>
<path d="M221.409 106.605L221.422 100.385L213.293 106.861L217.351 106.733L221.409 106.605Z" fill="#182F43"/>
<path d="M192.745 125.189C193.068 125.371 193.338 125.631 193.529 125.944C193.72 126.257 193.824 126.611 193.831 126.973C193.838 127.334 193.749 127.689 193.571 128.003C193.393 128.316 193.133 128.578 192.817 128.761L185.058 133.258L177.314 137.704C176.998 137.895 176.633 137.999 176.259 138.005C175.884 138.011 175.513 137.92 175.183 137.74C174.854 137.561 174.578 137.299 174.384 136.983C174.19 136.667 174.086 136.308 174.081 135.943L173.892 127.101L173.707 118.243C173.695 117.875 173.785 117.512 173.966 117.192C174.147 116.872 174.413 116.606 174.736 116.423C175.06 116.239 175.43 116.143 175.807 116.146C176.185 116.148 176.557 116.249 176.884 116.438L184.823 120.816L192.745 125.189Z" fill="#FBFBFF"/>
<path d="M543.57 344.849H601.793V193.294H543.57V344.849ZM546.666 203.099V197.392H552.379V203.099H546.666ZM546.666 215.702V209.996H552.379V215.702H546.666ZM546.666 228.322V222.615H552.379V228.322H546.666ZM546.666 240.925V235.219H552.379V240.925H546.666ZM546.666 253.545V247.838H552.379V253.545H546.666ZM546.666 266.148V260.457H552.379V266.148H546.666ZM546.666 278.768V273.061H552.379V278.768H546.666ZM546.666 291.387V285.696H552.379V291.402L546.666 291.387ZM546.666 303.991V298.284H552.379V303.991H546.666ZM546.666 316.61V310.903H552.379V316.625L546.666 316.61ZM546.666 329.214V323.507H552.379V329.214H546.666ZM546.666 341.833V336.126H552.379V341.833H546.666ZM598 336.126V341.833H592.272V336.126H598ZM598 323.507V329.214H592.272V323.507H598ZM598 310.903V316.625H592.272V310.903H598ZM585.352 308.893C586.095 308.893 586.808 309.188 587.334 309.713C587.859 310.238 588.154 310.95 588.154 311.692V339.822C588.154 340.565 587.859 341.277 587.334 341.802C586.808 342.327 586.095 342.622 585.352 342.622H559.995C559.255 342.618 558.546 342.321 558.024 341.796C557.502 341.272 557.209 340.562 557.209 339.822V311.738C557.209 310.999 557.502 310.289 558.024 309.765C558.546 309.24 559.255 308.943 559.995 308.939L585.352 308.893ZM597.985 298.238V303.944H592.272V298.238H597.985ZM597.985 285.634V291.34H592.272V285.696L597.985 285.634ZM597.985 273.015V278.721H592.272V273.015H597.985ZM585.352 271.082C586.095 271.082 586.808 271.377 587.334 271.901C587.859 272.426 588.154 273.138 588.154 273.881V301.98C588.154 302.723 587.859 303.435 587.334 303.96C586.808 304.484 586.095 304.779 585.352 304.779H559.995C559.255 304.775 558.546 304.479 558.024 303.954C557.502 303.43 557.209 302.72 557.209 301.98V273.927C557.209 273.187 557.502 272.478 558.024 271.953C558.546 271.429 559.255 271.132 559.995 271.128L585.352 271.082ZM597.985 260.411V266.102H592.272V260.457L597.985 260.411ZM597.985 247.792V253.498H592.272V247.838L597.985 247.792ZM597.985 235.172V240.879H592.272V235.219L597.985 235.172ZM585.352 233.27C586.095 233.27 586.808 233.565 587.334 234.09C587.859 234.615 588.154 235.327 588.154 236.069V264.215C588.154 264.958 587.859 265.67 587.334 266.195C586.808 266.72 586.095 267.014 585.352 267.014H559.995C559.255 267.01 558.546 266.714 558.024 266.189C557.502 265.665 557.209 264.955 557.209 264.215V236.116C557.209 235.376 557.502 234.667 558.024 234.142C558.546 233.618 559.255 233.321 559.995 233.317L585.352 233.27ZM598 222.615V228.322H592.272V222.615H598ZM598 209.996V215.702H592.272V209.996H598ZM598 197.392V203.099H592.272V197.392H598ZM585.368 195.505C585.736 195.505 586.1 195.578 586.44 195.718C586.78 195.859 587.089 196.065 587.349 196.325C587.609 196.585 587.816 196.894 587.957 197.233C588.097 197.573 588.17 197.937 588.17 198.305V226.404C588.17 227.146 587.875 227.858 587.349 228.383C586.824 228.908 586.111 229.203 585.368 229.203H559.995C559.255 229.199 558.546 228.902 558.024 228.378C557.502 227.853 557.209 227.144 557.209 226.404V198.305C557.209 197.565 557.502 196.855 558.024 196.331C558.546 195.806 559.255 195.509 559.995 195.505H585.368Z" fill="#182F43"/>
<path d="M395.966 418.692H339.365V457.554H395.966V418.692Z" fill="#8A8D94"/>
<path d="M522.752 228.825H225.622C218.184 228.825 212.154 234.991 212.154 242.598V413.802C212.154 421.409 218.184 427.575 225.622 427.575H522.752C530.19 427.575 536.22 421.409 536.22 413.802V242.598C536.22 234.991 530.19 228.825 522.752 228.825Z" fill="#8A8D94"/>
<path d="M514.398 225.979H215.546C208.065 225.979 202 232.038 202 239.511V407.721C202 415.195 208.065 421.253 215.546 421.253H514.398C521.879 421.253 527.943 415.195 527.943 407.721V239.511C527.943 232.038 521.879 225.979 514.398 225.979Z" fill="#E1E5F1"/>
<path d="M518.889 406.005V241.228C518.889 237.068 515.513 233.696 511.35 233.696L218.612 233.696C214.448 233.696 211.073 237.068 211.073 241.228V406.005C211.073 410.164 214.448 413.536 218.612 413.536H511.35C515.513 413.536 518.889 410.164 518.889 406.005Z" fill="#FFC100"/>
<path d="M518.889 406.005V241.228C518.889 237.068 515.513 233.696 511.35 233.696L218.612 233.696C214.448 233.696 211.073 237.068 211.073 241.228V406.005C211.073 410.164 214.448 413.536 218.612 413.536H511.35C515.513 413.536 518.889 410.164 518.889 406.005Z" stroke="#182F43" stroke-width="1.51" stroke-miterlimit="10"/>
<path d="M398.218 418.871H331.729V457.378H398.218V418.871Z" fill="#E1E5F1"/>
<path d="M429.396 475.703H356.43V457.377L411.036 457.377C413.447 457.375 415.834 457.847 418.061 458.768C420.289 459.688 422.313 461.037 424.018 462.739C425.723 464.441 427.076 466.462 427.999 468.686C428.921 470.911 429.396 473.295 429.396 475.703Z" fill="#8A8D94"/>
<path d="M416.032 475.705H302.885C302.885 473.297 303.36 470.912 304.283 468.688C305.206 466.464 306.558 464.443 308.263 462.741C309.968 461.039 311.992 459.689 314.22 458.769C316.447 457.849 318.834 457.377 321.245 457.379H397.672C400.083 457.377 402.47 457.849 404.697 458.769C406.925 459.689 408.949 461.039 410.654 462.741C412.359 464.443 413.712 466.464 414.634 468.688C415.557 470.912 416.032 473.297 416.032 475.705V475.705Z" fill="#E1E5F1"/>
<path d="M407.802 180.188H158.472C152.086 180.188 146.908 185.361 146.908 191.741V330.367C146.908 336.747 152.086 341.919 158.472 341.919H407.802C414.189 341.919 419.366 336.747 419.366 330.367V191.741C419.366 185.361 414.189 180.188 407.802 180.188Z" fill="#182F43"/>
<path d="M414.631 193.813H175.131C168.992 193.813 164.016 198.785 164.016 204.917V338.069C164.016 344.201 168.992 349.172 175.131 349.172H414.631C420.769 349.172 425.746 344.201 425.746 338.069V204.917C425.746 198.785 420.769 193.813 414.631 193.813Z" stroke="#182F43" stroke-width="0.75" stroke-miterlimit="10" stroke-dasharray="4.62 4.62"/>
<path d="M419.382 191.741V214.289H146.924V191.741C146.922 190.223 147.22 188.72 147.8 187.318C148.38 185.915 149.232 184.641 150.306 183.568C151.381 182.495 152.656 181.644 154.06 181.064C155.464 180.484 156.969 180.187 158.488 180.189H407.725C409.251 180.177 410.765 180.466 412.179 181.041C413.593 181.616 414.878 182.465 415.962 183.539C417.046 184.613 417.906 185.891 418.493 187.299C419.08 188.706 419.382 190.216 419.382 191.741Z" fill="white" fill-opacity="0.1"/>
<path d="M147.482 302.182H418.981V322.143H147.482V302.182Z" fill="#E0E0E0" stroke="#182F43"/>
<path d="M146.436 272.836H417.934V291.749H146.436V272.836Z" fill="#E0E0E0" stroke="#182F43"/>
<path d="M419.366 238.861H146.908V264.425H419.366V238.861Z" fill="#AA4337"/>
<path d="M419.366 227.618H146.908V233.974H419.366V227.618Z" fill="#AA4337"/>
<path d="M158.984 221H155.842V230.279H158.984V221Z" fill="#AA4337"/>
<path d="M200.889 221H197.746V230.279H200.889V221Z" fill="#AA4337"/>
<path d="M242.795 221H239.652V230.279H242.795V221Z" fill="#AA4337"/>
<path d="M284.701 221H281.559V230.279H284.701V221Z" fill="#AA4337"/>
<path d="M326.607 221H323.465V230.279H326.607V221Z" fill="#AA4337"/>
<path d="M368.529 221H365.387V230.279H368.529V221Z" fill="#AA4337"/>
<path d="M410.433 221H407.291V230.279H410.433V221Z" fill="#AA4337"/>
<path d="M361 275H353L361 283V275Z" fill="#2F4456"/>
<path d="M361 275H353L361 283V275Z" fill="white" fill-opacity="0.2"/>
<path d="M369 275H361V283L369 275Z" fill="#2F4456"/>
<path d="M361 289H353L361 281V289Z" fill="#2F4456"/>
<path d="M361 289H353L361 281V289Z" fill="white" fill-opacity="0.2"/>
<path d="M369 289H361V281L369 289Z" fill="#2F4456"/>
<path d="M239 305H231L239 313V305Z" fill="#2F4456"/>
<path d="M239 305H231L239 313V305Z" fill="white" fill-opacity="0.2"/>
<path d="M247 305H239V313L247 305Z" fill="#2F4456"/>
<path d="M239 319H231L239 311V319Z" fill="#2F4456"/>
<path d="M239 319H231L239 311V319Z" fill="white" fill-opacity="0.2"/>
<path d="M247 319H239V311L247 319Z" fill="#2F4456"/>
<path d="M190 281.994L198 289V275L190 281.994Z" fill="#2F4456"/>
<path d="M190 281.994L198 289V275L190 281.994Z" fill="white" fill-opacity="0.2"/>
<path d="M198 275V289L205 281.994L198 275Z" fill="#2F4456"/>
<path d="M268 281.994L276 289V275L268 281.994Z" fill="#2F4456"/>
<path d="M268 281.994L276 289V275L268 281.994Z" fill="white" fill-opacity="0.2"/>
<path d="M276 275V289L283 281.994L276 275Z" fill="#2F4456"/>
<path d="M161 312.506L169 320V305L161 312.506Z" fill="#2F4456"/>
<path d="M161 312.506L169 320V305L161 312.506Z" fill="white" fill-opacity="0.2"/>
<path d="M169 305V320L176 312.506L169 305Z" fill="#2F4456"/>
<path d="M308 312.506L316 320V305L308 312.506Z" fill="#2F4456"/>
<path d="M308 312.506L316 320V305L308 312.506Z" fill="white" fill-opacity="0.2"/>
<path d="M316 305V320L323 312.506L316 305Z" fill="#2F4456"/>
<path d="M389 312.506L396 320V305L389 312.506Z" fill="#2F4456"/>
<path d="M389 312.506L396 320V305L389 312.506Z" fill="white" fill-opacity="0.2"/>
<path d="M396 305V320L404 312.506L396 305Z" fill="#2F4456"/>
<path d="M419.366 243.562H146.908V259.722H419.366V243.562Z" fill="#E0E0E0"/>
<path d="M266.232 243.562H146.908V259.722H266.232V243.562Z" fill="#AA4337"/>
<path d="M266.232 243.562H146.908V259.722H266.232V243.562Z" fill="black" fill-opacity="0.2"/>
<path d="M270.36 238.766L270.359 238.758L270.359 238.749C270.344 237.978 270.11 237.228 269.687 236.583C269.263 235.939 268.665 235.428 267.963 235.108C267.262 234.788 266.484 234.673 265.719 234.776C264.955 234.878 264.235 235.194 263.642 235.688C263.049 236.181 262.608 236.832 262.369 237.565C262.13 238.298 262.104 239.084 262.292 239.832C262.48 240.579 262.876 241.258 263.434 241.791C263.788 242.129 264.198 242.4 264.644 242.592V259.771V260.771H265.644H266.852H267.852V259.771V242.552C268.46 242.296 269.002 241.896 269.427 241.38C270.033 240.644 270.363 239.719 270.36 238.766Z" fill="#FBFBFF" stroke="#FBFBFF" stroke-width="2"/>
<path d="M487.898 162.667C487.898 174.869 477.997 184.761 465.781 184.761C453.566 184.761 443.664 174.869 443.664 162.667C443.664 150.466 453.566 140.573 465.781 140.573C477.997 140.573 487.898 150.466 487.898 162.667Z" fill="#AA4337" stroke="#182F43"/>
<path d="M454.967 154.472V170.682V154.472ZM454.967 154.472C454.966 154.14 455.054 153.814 455.222 153.526C455.389 153.239 455.63 153 455.921 152.835C456.211 152.669 456.541 152.582 456.876 152.583C457.211 152.584 457.54 152.672 457.83 152.839L454.967 154.472ZM457.582 171.892L457.58 171.894C457.366 172.017 457.121 172.083 456.872 172.083C456.623 172.083 456.379 172.018 456.164 171.895C455.95 171.771 455.772 171.594 455.65 171.382C455.528 171.17 455.465 170.93 455.467 170.686L455.467 170.686V170.682L455.467 154.472L455.467 154.471C455.466 154.228 455.531 153.989 455.654 153.778C455.777 153.567 455.954 153.391 456.169 153.269C456.383 153.147 456.627 153.082 456.875 153.083C457.123 153.084 457.366 153.149 457.58 153.272L457.58 153.272L457.582 153.274L464.676 157.323L471.767 161.371C471.767 161.371 471.767 161.371 471.768 161.371C471.981 161.495 472.158 161.672 472.28 161.883C472.402 162.094 472.467 162.333 472.467 162.577C472.467 162.82 472.402 163.059 472.28 163.271C472.157 163.482 471.981 163.658 471.767 163.782C471.767 163.782 471.767 163.782 471.767 163.783L464.676 167.843L464.675 167.843L457.582 171.892Z" fill="white" stroke="#182F43"/>
<path d="M473.974 153.083H473.974C474.668 153.083 475.317 153.301 475.781 153.666C476.241 154.029 476.467 154.492 476.467 154.94V170.226C476.467 170.674 476.241 171.137 475.781 171.5C475.317 171.865 474.668 172.083 473.974 172.083C473.277 172.083 472.627 171.865 472.161 171.5C471.698 171.137 471.47 170.674 471.467 170.224V154.942C471.47 154.492 471.698 154.029 472.161 153.666C472.627 153.301 473.277 153.083 473.974 153.083Z" fill="#FBFBFF" stroke="#182F43"/>
<path d="M537.715 475.66H208.621V477.756H537.715V475.66Z" fill="#182F43"/>
<path d="M472.434 460.455H462.712C454.275 460.455 449.863 467.275 449.863 475.703H487.713C487.713 473.7 487.318 471.716 486.55 469.865C485.782 468.013 484.656 466.332 483.237 464.916C481.818 463.5 480.134 462.377 478.28 461.611C476.426 460.846 474.44 460.453 472.434 460.455Z" fill="#B7BBC4"/>
<path d="M469.722 460.455H466.549C464.543 460.453 462.557 460.846 460.703 461.611C458.849 462.377 457.165 463.5 455.746 464.916C454.327 466.332 453.201 468.013 452.433 469.865C451.665 471.716 451.27 473.7 451.27 475.703H485.002C485.002 473.7 484.606 471.716 483.838 469.865C483.07 468.013 481.945 466.332 480.526 464.916C479.107 463.5 477.422 462.377 475.568 461.611C473.715 460.846 471.728 460.453 469.722 460.455Z" fill="#E1E5F1"/>
<path d="M468.545 460.455H467.709V475.719H468.545V460.455Z" fill="#8A8D94"/>
<g filter="url(#filter0_d_347_2926)">
<path d="M593.677 359.765H486.644C480.266 359.765 475.096 364.93 475.096 371.301V434.336C475.096 440.707 480.266 445.872 486.644 445.872H593.677C600.055 445.872 605.225 440.707 605.225 434.336V371.301C605.225 364.93 600.055 359.765 593.677 359.765Z" fill="#FBFBFF"/>
<path d="M486.644 360.765H593.677C599.503 360.765 604.225 365.483 604.225 371.301V434.336C604.225 440.154 599.503 444.872 593.677 444.872H486.644C480.817 444.872 476.096 440.154 476.096 434.336V371.301C476.096 365.483 480.817 360.765 486.644 360.765Z" stroke="#182F43" stroke-width="2"/>
</g>
<g clip-path="url(#clip1_347_2926)">
<path d="M512.531 396.226H561.867C563.428 396.226 564.924 396.847 566.028 397.954C567.131 399.06 567.751 400.561 567.751 402.125V427.226C567.751 428.79 567.131 430.291 566.028 431.398C564.924 432.504 563.428 433.126 561.867 433.126H512.531C511.05 433.126 509.63 432.536 508.583 431.485C507.536 430.435 506.947 429.011 506.947 427.526V401.825C506.947 400.34 507.536 398.916 508.583 397.866C509.63 396.816 511.05 396.226 512.531 396.226V396.226Z" fill="#567896"/>
<path d="M512.531 396.226H512.587V433.126H512.531C511.05 433.126 509.63 432.536 508.583 431.485C507.536 430.435 506.947 429.011 506.947 427.526V401.825C506.947 400.34 507.536 398.916 508.583 397.866C509.63 396.816 511.05 396.226 512.531 396.226V396.226Z" fill="#182F43"/>
<path d="M553.873 405.396H520.817C519.32 405.396 518.107 406.612 518.107 408.112V420.647C518.107 422.147 519.32 423.364 520.817 423.364H553.873C555.369 423.364 556.582 422.147 556.582 420.647V408.112C556.582 406.612 555.369 405.396 553.873 405.396Z" fill="#182F43"/>
<path d="M545.627 411.358H529.064C528.189 411.358 527.48 412.069 527.48 412.946V416.413C527.48 417.29 528.189 418.001 529.064 418.001H545.627C546.501 418.001 547.21 417.29 547.21 416.413V412.946C547.21 412.069 546.501 411.358 545.627 411.358Z" fill="#E0E0E0"/>
<path d="M567.751 410.174L578.037 405.514C578.269 405.409 578.524 405.363 578.779 405.382C579.033 405.401 579.279 405.483 579.493 405.621C579.708 405.759 579.884 405.949 580.007 406.173C580.129 406.397 580.194 406.649 580.195 406.904V422.448C580.184 422.7 580.113 422.946 579.988 423.164C579.863 423.383 579.688 423.569 579.476 423.706C579.265 423.843 579.024 423.927 578.774 423.951C578.523 423.976 578.271 423.939 578.037 423.846L567.751 419.178V410.174Z" fill="#567896"/>
<path d="M572.626 407.963L567.751 410.174V419.178L572.626 421.39V407.963Z" fill="#182F43"/>
<path d="M524.471 372.058C522.02 372.059 519.624 372.79 517.586 374.157C515.548 375.524 513.961 377.466 513.023 379.737C512.086 382.009 511.842 384.508 512.321 386.919C512.8 389.33 513.982 391.545 515.716 393.283C517.45 395.02 519.659 396.204 522.063 396.683C524.468 397.162 526.96 396.915 529.225 395.974C531.49 395.033 533.425 393.439 534.787 391.395C536.149 389.351 536.876 386.948 536.876 384.489C536.876 382.856 536.555 381.239 535.932 379.73C535.308 378.221 534.394 376.85 533.242 375.696C532.09 374.541 530.723 373.626 529.218 373.002C527.713 372.377 526.1 372.057 524.471 372.058V372.058ZM522.392 391.226C521.277 391.872 519.953 392.046 518.71 391.712C517.467 391.378 516.407 390.563 515.764 389.445C515.121 388.328 514.946 387 515.279 385.753C515.613 384.507 516.426 383.444 517.54 382.799C519.864 381.456 521.077 383.273 522.415 385.595C523.754 387.917 524.715 389.884 522.392 391.226ZM524.353 381.962C521.675 381.962 519.501 381.812 519.501 379.126C519.507 377.836 520.023 376.601 520.936 375.692C521.389 375.242 521.925 374.886 522.515 374.644C523.104 374.402 523.736 374.278 524.373 374.281C525.01 374.284 525.64 374.412 526.228 374.659C526.815 374.906 527.349 375.266 527.798 375.72C528.246 376.174 528.601 376.711 528.843 377.303C529.084 377.894 529.207 378.527 529.205 379.166C529.205 381.812 527.031 381.962 524.353 381.962ZM533.174 389.315C532.529 390.431 531.468 391.245 530.225 391.579C528.982 391.912 527.657 391.737 526.543 391.092C524.227 389.749 525.188 387.791 526.543 385.461C527.897 383.131 529.079 381.322 531.363 382.665C531.918 382.981 532.406 383.405 532.797 383.91C533.189 384.416 533.477 384.995 533.646 385.613C533.814 386.231 533.859 386.876 533.778 387.511C533.697 388.146 533.492 388.759 533.174 389.315Z" fill="#182F43"/>
<path d="M522.416 385.595C523.322 387.175 524.054 388.588 523.708 389.749C522.328 389.612 521.049 388.965 520.119 387.935C519.189 386.904 518.674 385.563 518.675 384.173C518.674 383.549 518.781 382.929 518.99 382.341C520.431 382.325 521.384 383.81 522.416 385.595Z" fill="#567896"/>
<path d="M524.354 381.962C522.345 381.962 520.62 381.875 519.88 380.706C520.41 380.029 521.088 379.484 521.861 379.113C522.635 378.742 523.484 378.554 524.341 378.565C525.199 378.576 526.043 378.784 526.807 379.175C527.571 379.565 528.236 380.127 528.748 380.817C527.969 381.883 526.299 381.962 524.354 381.962Z" fill="#567896"/>
<path d="M529.867 384.173C529.869 385.492 529.407 386.769 528.563 387.78C527.719 388.791 526.546 389.472 525.252 389.702C524.85 388.525 525.598 387.088 526.528 385.468C527.457 383.849 528.315 382.507 529.521 382.254C529.752 382.867 529.869 383.518 529.867 384.173V384.173Z" fill="#567896"/>
<path d="M548.305 375.501C546.193 375.501 544.128 376.129 542.372 377.306C540.615 378.483 539.246 380.155 538.438 382.112C537.63 384.069 537.418 386.223 537.83 388.3C538.242 390.378 539.259 392.286 540.753 393.784C542.247 395.282 544.15 396.302 546.221 396.715C548.293 397.128 550.441 396.916 552.392 396.105C554.344 395.295 556.012 393.922 557.185 392.161C558.359 390.4 558.985 388.329 558.985 386.211C558.985 383.37 557.86 380.646 555.857 378.638C553.854 376.629 551.138 375.501 548.305 375.501V375.501ZM546.517 392.016C545.557 392.571 544.417 392.721 543.347 392.433C542.277 392.145 541.364 391.442 540.811 390.48C540.257 389.517 540.108 388.374 540.395 387.301C540.682 386.227 541.383 385.313 542.343 384.758C544.343 383.597 545.383 385.16 546.541 387.167C547.699 389.173 548.518 390.855 546.517 392.016ZM548.21 384.031C545.903 384.031 544.028 383.905 544.028 381.59C544.075 380.511 544.536 379.491 545.314 378.743C546.093 377.996 547.129 377.578 548.207 377.578C549.284 377.578 550.32 377.996 551.099 378.743C551.877 379.491 552.338 380.511 552.385 381.59C552.385 383.905 550.518 384.031 548.21 384.031ZM555.803 390.349C555.529 390.827 555.164 391.245 554.728 391.58C554.293 391.915 553.795 392.161 553.265 392.304C552.735 392.446 552.181 392.482 551.637 392.41C551.093 392.337 550.568 392.158 550.093 391.882C548.1 390.729 548.927 389.038 550.093 387.032C551.259 385.026 552.29 383.47 554.291 384.623C554.765 384.901 555.181 385.271 555.512 385.71C555.844 386.15 556.086 386.651 556.225 387.184C556.363 387.718 556.395 388.273 556.318 388.819C556.242 389.365 556.059 389.891 555.779 390.365L555.803 390.349Z" fill="#182F43"/>
<path d="M546.541 387.166C547.328 388.525 547.95 389.741 547.651 390.744C546.463 390.626 545.362 390.069 544.561 389.182C543.76 388.294 543.317 387.139 543.319 385.942C543.319 385.404 543.409 384.87 543.587 384.362C544.832 384.347 545.651 385.626 546.541 387.166Z" fill="#567896"/>
<path d="M548.21 384.031C546.477 384.031 544.988 383.96 544.358 382.949C544.815 382.368 545.399 381.9 546.064 381.581C546.73 381.263 547.46 381.102 548.198 381.111C548.935 381.12 549.661 381.299 550.319 381.634C550.976 381.969 551.548 382.452 551.99 383.044C551.329 383.968 549.88 384.031 548.21 384.031Z" fill="#567896"/>
<path d="M552.952 385.943C552.95 387.07 552.556 388.16 551.836 389.026C551.117 389.891 550.119 390.477 549.014 390.682C548.667 389.663 549.313 388.423 550.109 387.033C550.904 385.643 551.684 384.482 552.692 384.269C552.877 384.807 552.965 385.374 552.952 385.943V385.943Z" fill="#567896"/>
</g>
<path d="M402.657 337.265L402.657 337.265L402.656 337.262L400.829 330.457L400.829 330.457L398.539 321.969C398.539 321.969 398.539 321.968 398.539 321.968C398.487 321.77 398.487 321.563 398.54 321.365C398.594 321.168 398.698 320.988 398.843 320.843C398.988 320.698 399.168 320.594 399.366 320.54C399.564 320.487 399.772 320.487 399.97 320.539C399.971 320.539 399.971 320.539 399.971 320.539L408.468 322.827L408.468 322.827L415.276 324.651C415.277 324.651 415.277 324.651 415.278 324.651C415.505 324.714 415.708 324.845 415.858 325.026C416.009 325.208 416.101 325.431 416.121 325.666C416.141 325.901 416.088 326.137 415.97 326.341C415.852 326.545 415.675 326.708 415.463 326.808L410.822 328.91L410.163 329.208L410.675 329.719L416.325 335.364C416.712 335.75 416.929 336.273 416.929 336.819C416.929 337.365 416.712 337.889 416.325 338.275C415.939 338.661 415.414 338.878 414.867 338.878C414.32 338.878 413.796 338.661 413.409 338.275L407.759 332.63L407.249 332.12L406.95 332.777L404.845 337.417L404.845 337.417L404.84 337.427C404.746 337.649 404.584 337.836 404.378 337.961C404.172 338.086 403.932 338.144 403.691 338.126C403.45 338.109 403.221 338.016 403.035 337.861C402.85 337.707 402.718 337.499 402.657 337.265Z" fill="white" stroke="black"/>
<path d="M281.79 124.846H281.789C280.08 124.844 278.388 125.179 276.809 125.832C275.23 126.484 273.796 127.442 272.588 128.65C271.381 129.858 270.424 131.292 269.772 132.87C269.12 134.447 268.787 136.138 268.791 137.845L268.791 137.847C268.788 140.18 269.421 142.47 270.624 144.471L270.741 144.665L270.671 144.881L267.126 155.891C267.126 155.891 267.126 155.892 267.126 155.892C266.981 156.347 266.979 156.835 267.119 157.292C267.26 157.748 267.537 158.151 267.913 158.446C268.289 158.742 268.746 158.915 269.224 158.944C269.701 158.972 270.176 158.855 270.585 158.606L281.79 124.846ZM281.79 124.846H342.737C344.445 124.846 346.135 125.182 347.713 125.836C349.29 126.49 350.722 127.448 351.928 128.655C353.134 129.863 354.09 131.296 354.741 132.873C355.391 134.45 355.724 136.14 355.72 137.845L356.22 137.846L355.72 137.846C355.717 141.283 354.347 144.578 351.913 147.007C349.478 149.436 346.178 150.801 342.737 150.801H283.508H283.368L283.248 150.874L270.585 158.606L281.79 124.846Z" fill="#AA4337" stroke="#182F43"/>
<path d="M289.171 137.66C289.171 140.749 286.665 143.254 283.572 143.254C280.479 143.254 277.973 140.749 277.973 137.66C277.973 134.572 280.479 132.067 283.572 132.067C286.665 132.067 289.171 134.572 289.171 137.66Z" fill="white" stroke="#182F43"/>
<path d="M308.072 137.66C308.072 140.749 305.565 143.254 302.472 143.254C299.379 143.254 296.873 140.749 296.873 137.66C296.873 134.572 299.379 132.067 302.472 132.067C305.565 132.067 308.072 134.572 308.072 137.66Z" fill="white" stroke="#182F43"/>
<path d="M326.989 137.648C326.992 138.754 326.666 139.836 326.055 140.757C325.443 141.68 324.571 142.401 323.549 142.83C322.528 143.258 321.402 143.376 320.314 143.166C319.226 142.957 318.224 142.431 317.434 141.654C316.645 140.878 316.103 139.885 315.878 138.802C315.652 137.718 315.752 136.592 316.166 135.565C316.579 134.538 317.288 133.657 318.202 133.031C319.115 132.407 320.193 132.065 321.3 132.051C322.794 132.051 324.228 132.639 325.293 133.686C326.357 134.733 326.966 136.156 326.989 137.648Z" fill="white" stroke="#182F43"/>
<path d="M345.861 137.66C345.861 140.749 343.354 143.254 340.261 143.254C337.169 143.254 334.662 140.749 334.662 137.66C334.662 134.572 337.169 132.067 340.261 132.067C343.354 132.067 345.861 134.572 345.861 137.66Z" fill="white" stroke="#182F43"/>
<path d="M121.499 381H182.493C184.265 381 186.019 381.349 187.656 382.027C189.293 382.705 190.78 383.698 192.032 384.951C193.285 386.203 194.277 387.69 194.954 389.326C195.631 390.962 195.978 392.715 195.976 394.485V394.485C195.98 396.91 195.321 399.289 194.072 401.367L197.633 412.378C197.834 412.945 197.851 413.562 197.68 414.139C197.509 414.716 197.159 415.224 196.681 415.59C196.203 415.956 195.621 416.161 195.018 416.176C194.416 416.191 193.825 416.014 193.329 415.672L180.666 407.94H121.499C117.919 407.94 114.485 406.519 111.954 403.99C109.422 401.461 108 398.031 108 394.454C108.002 392.685 108.353 390.934 109.032 389.301C109.712 387.667 110.707 386.184 111.96 384.934C113.214 383.685 114.701 382.694 116.338 382.019C117.975 381.344 119.728 380.998 121.499 381V381Z" fill="#FBFBFF" stroke="#182F43"/>
<path d="M176.704 398.24C175.655 397.192 175.057 395.778 175.037 394.297C175.061 392.819 175.66 391.408 176.709 390.363C177.757 389.319 179.171 388.723 180.651 388.703C182.129 388.727 183.54 389.324 184.585 390.368C185.63 391.412 186.227 392.821 186.251 394.297C186.231 395.775 185.635 397.188 184.59 398.235C183.544 399.282 182.132 399.881 180.651 399.905C179.169 399.885 177.752 399.287 176.704 398.24Z" fill="#AA4337" stroke="#182F43"/>
<path d="M161.827 399.905H161.827C160.329 399.905 158.892 399.316 157.827 398.265C156.763 397.215 156.155 395.79 156.135 394.297C156.159 392.806 156.768 391.385 157.832 390.338C158.897 389.29 160.332 388.703 161.827 388.703H161.827C163.312 388.703 164.736 389.293 165.787 390.341C166.837 391.39 167.426 392.813 167.426 394.296L167.426 394.298C167.428 395.033 167.285 395.762 167.004 396.442C166.724 397.122 166.312 397.741 165.792 398.261C165.271 398.782 164.654 399.196 163.973 399.478C163.293 399.76 162.564 399.905 161.827 399.905Z" fill="#AA4337" stroke="#182F43"/>
<path d="M148.447 394.296L148.447 394.298C148.449 395.033 148.305 395.762 148.025 396.442C147.744 397.122 147.332 397.741 146.812 398.261C146.292 398.782 145.674 399.196 144.994 399.478C144.313 399.76 143.584 399.905 142.847 399.905C142.111 399.905 141.381 399.76 140.701 399.478C140.021 399.196 139.403 398.782 138.883 398.261C138.363 397.741 137.951 397.122 137.67 396.442C137.39 395.762 137.246 395.033 137.248 394.298L136.748 394.296H137.248C137.248 392.813 137.838 391.39 138.888 390.341C139.938 389.293 141.362 388.703 142.847 388.703C144.333 388.703 145.757 389.293 146.807 390.341C147.857 391.39 148.447 392.813 148.447 394.296Z" fill="#AA4337" stroke="#182F43"/>
<path d="M120.009 398.235C118.964 397.188 118.368 395.775 118.348 394.297C118.371 392.821 118.969 391.412 120.014 390.368C121.06 389.323 122.472 388.726 123.951 388.703C125.445 388.704 126.878 389.291 127.942 390.338C129.006 391.385 129.615 392.806 129.639 394.297C129.619 395.79 129.011 397.215 127.947 398.265C126.883 399.315 125.447 399.904 123.951 399.905C122.469 399.882 121.055 399.283 120.009 398.235Z" fill="#AA4337" stroke="#182F43"/>
<path d="M240.496 373.184L236.09 387H232.012L238.328 369.938H240.906L240.496 373.184ZM244.152 387L239.734 373.184L239.277 369.938H241.891L248.23 387H244.152ZM243.965 380.648V383.602H235.07V380.648H243.965ZM261.25 384.047V387H252.168V384.047H261.25ZM253.469 369.938V387H249.648V369.938H253.469ZM260.078 376.805V379.664H252.168V376.805H260.078ZM261.262 369.938V372.902H252.168V369.938H261.262Z" fill="#182F43"/>
<path d="M479.855 265.805V268.758H471.02V265.805H479.855ZM472.227 258.938V276H468.406V258.938H472.227ZM482.492 258.938V276H478.684V258.938H482.492ZM490.73 276H486.98L487.004 273.047H490.73C491.582 273.047 492.301 272.852 492.887 272.461C493.473 272.062 493.918 271.477 494.223 270.703C494.527 269.922 494.68 268.973 494.68 267.855V267.07C494.68 266.227 494.594 265.484 494.422 264.844C494.25 264.195 493.996 263.652 493.66 263.215C493.324 262.777 492.906 262.449 492.406 262.23C491.914 262.012 491.348 261.902 490.707 261.902H486.91V258.938H490.707C491.863 258.938 492.918 259.133 493.871 259.523C494.832 259.914 495.66 260.473 496.355 261.199C497.059 261.926 497.602 262.785 497.984 263.777C498.367 264.77 498.559 265.875 498.559 267.094V267.855C498.559 269.066 498.367 270.172 497.984 271.172C497.602 272.164 497.059 273.023 496.355 273.75C495.66 274.469 494.836 275.023 493.883 275.414C492.93 275.805 491.879 276 490.73 276ZM489.148 258.938V276H485.328V258.938H489.148Z" fill="#182F43"/>
<rect x="225" y="357" width="44" height="44" rx="5" stroke="#182F43" stroke-width="2"/>
<rect x="462" y="245" width="44" height="44" rx="5" stroke="#182F43" stroke-width="2"/>
</g>
<defs>
<filter id="filter0_d_347_2926" x="475.096" y="359.765" width="134.13" height="90.1074" filterUnits="userSpaceOnUse" color-interpolation-filters="sRGB">
<feFlood flood-opacity="0" result="BackgroundImageFix"/>
<feColorMatrix in="SourceAlpha" type="matrix" values="0 0 0 0 0 0 0 0 0 0 0 0 0 0 0 0 0 0 127 0" result="hardAlpha"/>
<feOffset dx="4" dy="4"/>
<feComposite in2="hardAlpha" operator="out"/>
<feColorMatrix type="matrix" values="0 0 0 0 0.666667 0 0 0 0 0.262745 0 0 0 0 0.215686 0 0 0 1 0"/>
<feBlend mode="normal" in2="BackgroundImageFix" result="effect1_dropShadow_347_2926"/>
<feBlend mode="normal" in="SourceGraphic" in2="effect1_dropShadow_347_2926" result="shape"/>
</filter>
<clipPath id="clip0_347_2926">
<rect width="719" height="642" fill="white"/>
</clipPath>
<clipPath id="clip1_347_2926">
<rect width="73.2477" height="61.0683" fill="white" transform="translate(506.947 372.058)"/>
</clipPath>
</defs>
</svg>
