<svg width="934" height="721" viewBox="0 0 934 721" fill="none" xmlns="http://www.w3.org/2000/svg">
<g clip-path="url(#clip0_1513_9180)">
<g clip-path="url(#clip1_1513_9180)">
<path d="M196.292 428.859C245.281 428.859 284.995 389.185 284.995 340.246C284.995 291.306 245.281 251.633 196.292 251.633C147.302 251.633 107.588 291.306 107.588 340.246C107.588 389.185 147.302 428.859 196.292 428.859Z" stroke="#182F43" stroke-miterlimit="10" stroke-dasharray="4.65 4.65"/>
<path d="M527.297 260H404.783C402.142 260 400 262.14 400 264.779V340.17C400 342.809 402.142 344.948 404.783 344.948H527.297C529.939 344.948 532.08 342.809 532.08 340.17V264.779C532.08 262.14 529.939 260 527.297 260Z" stroke="#182F43" stroke-width="1.5" stroke-miterlimit="10"/>
<path d="M400 271.291H532.08" stroke="#182F43" stroke-width="1.5" stroke-miterlimit="10"/>
<path d="M409.534 265.568C409.534 266.718 408.601 267.651 407.449 267.651C406.296 267.651 405.363 266.718 405.363 265.568C405.363 264.419 406.296 263.486 407.449 263.486C408.601 263.486 409.534 264.419 409.534 265.568Z" fill="#182F43" stroke="#182F43"/>
<path d="M418.327 265.568C418.327 266.718 417.394 267.651 416.242 267.651C415.089 267.651 414.156 266.718 414.156 265.568C414.156 264.419 415.089 263.486 416.242 263.486C417.394 263.486 418.327 264.419 418.327 265.568Z" fill="#182F43" stroke="#182F43"/>
<path d="M427.135 265.568C427.135 265.98 427.013 266.383 426.784 266.725C426.555 267.068 426.229 267.335 425.848 267.492C425.467 267.65 425.048 267.691 424.643 267.611C424.239 267.531 423.867 267.332 423.575 267.041C423.284 266.75 423.085 266.379 423.005 265.975C422.924 265.571 422.966 265.152 423.124 264.772C423.281 264.391 423.548 264.066 423.891 263.837C424.234 263.608 424.638 263.486 425.05 263.486C425.603 263.486 426.134 263.705 426.525 264.096C426.916 264.487 427.135 265.016 427.135 265.568Z" fill="#182F43" stroke="#182F43"/>
<path d="M137.997 220.523L214.041 198.061L218.279 212.357L142.234 234.82L137.997 220.523Z" fill="#FBFBFF" stroke="#182F43"/>
<path d="M149.627 216.944L137.194 220.654L140.904 233.088L149.627 216.944Z" fill="#182F43"/>
<path d="M169.308 211.695L158.673 214.452L147.306 234.301L158.151 230.856L169.308 211.695Z" fill="#182F43"/>
<path d="M190.998 204.806L179.253 208.728L168.097 227.888L179.63 224.655L190.998 204.806Z" fill="#182F43"/>
<path d="M211.1 198.181L202.109 201.443L190.474 221.21L200.421 218.242L211.1 198.181Z" fill="#182F43"/>
<path d="M218.725 212.571L216.766 206.699L212.642 215.22L218.514 213.259L218.725 212.571Z" fill="#182F43"/>
<path d="M142.036 235.056L220.774 233.989L221.431 280.414C221.469 283.148 220.389 285.788 218.422 287.753C216.455 289.719 213.762 290.847 210.935 290.885L153.481 291.663C150.654 291.702 147.93 290.647 145.908 288.735C143.886 286.825 142.732 284.214 142.693 281.48L142.036 235.056Z" fill="#FFC100" stroke="#182F43"/>
<path d="M142.036 235.625L220.51 234.562L220.721 249.468L142.247 250.531L142.036 235.625Z" fill="#FBFBFF" stroke="#182F43"/>
<path d="M153.919 234.825L140.956 235.361L141.329 241.499L141.648 245.362L153.919 234.825Z" fill="#182F43"/>
<path d="M177.358 234.496L165.084 235.244L148.369 250.44L158.846 250.645L177.358 234.496Z" fill="#182F43"/>
<path d="M197.624 234.698L187.147 234.492L169.534 250.163L179.322 250.158L197.624 234.698Z" fill="#182F43"/>
<path d="M217.413 234.001L206.725 234.482L189.8 250.365L200.276 250.572L217.413 234.001Z" fill="#182F43"/>
<path d="M221.409 249.605L221.422 243.385L213.293 249.861L217.351 249.733L221.409 249.605Z" fill="#182F43"/>
<path d="M192.745 268.189C193.068 268.371 193.338 268.631 193.529 268.944C193.72 269.257 193.824 269.611 193.831 269.973C193.838 270.334 193.749 270.689 193.571 271.003C193.393 271.316 193.133 271.578 192.817 271.761L185.058 276.258L177.314 280.704C176.998 280.895 176.633 280.999 176.259 281.005C175.884 281.011 175.513 280.92 175.183 280.74C174.854 280.561 174.578 280.299 174.384 279.983C174.19 279.667 174.086 279.308 174.081 278.943L173.892 270.101L173.707 261.243C173.695 260.875 173.785 260.512 173.966 260.192C174.147 259.872 174.413 259.606 174.736 259.423C175.06 259.239 175.43 259.143 175.807 259.146C176.185 259.148 176.557 259.249 176.884 259.438L184.823 263.816L192.745 268.189Z" fill="#FBFBFF"/>
<path d="M543.57 487.849H601.793V336.294H543.57V487.849ZM546.666 346.099V340.392H552.379V346.099H546.666ZM546.666 358.702V352.996H552.379V358.702H546.666ZM546.666 371.322V365.615H552.379V371.322H546.666ZM546.666 383.925V378.219H552.379V383.925H546.666ZM546.666 396.545V390.838H552.379V396.545H546.666ZM546.666 409.148V403.457H552.379V409.148H546.666ZM546.666 421.768V416.061H552.379V421.768H546.666ZM546.666 434.387V428.696H552.379V434.402L546.666 434.387ZM546.666 446.991V441.284H552.379V446.991H546.666ZM546.666 459.61V453.903H552.379V459.625L546.666 459.61ZM546.666 472.214V466.507H552.379V472.214H546.666ZM546.666 484.833V479.126H552.379V484.833H546.666ZM598 479.126V484.833H592.272V479.126H598ZM598 466.507V472.214H592.272V466.507H598ZM598 453.903V459.625H592.272V453.903H598ZM585.352 451.893C586.095 451.893 586.808 452.188 587.334 452.713C587.859 453.238 588.154 453.95 588.154 454.692V482.822C588.154 483.565 587.859 484.277 587.334 484.802C586.808 485.327 586.095 485.622 585.352 485.622H559.995C559.255 485.618 558.546 485.321 558.024 484.796C557.502 484.272 557.209 483.562 557.209 482.822V454.738C557.209 453.999 557.502 453.289 558.024 452.765C558.546 452.24 559.255 451.943 559.995 451.939L585.352 451.893ZM597.985 441.238V446.944H592.272V441.238H597.985ZM597.985 428.634V434.34H592.272V428.696L597.985 428.634ZM597.985 416.015V421.721H592.272V416.015H597.985ZM585.352 414.082C586.095 414.082 586.808 414.377 587.334 414.901C587.859 415.426 588.154 416.138 588.154 416.881V444.98C588.154 445.723 587.859 446.435 587.334 446.96C586.808 447.484 586.095 447.779 585.352 447.779H559.995C559.255 447.775 558.546 447.479 558.024 446.954C557.502 446.43 557.209 445.72 557.209 444.98V416.927C557.209 416.187 557.502 415.478 558.024 414.953C558.546 414.429 559.255 414.132 559.995 414.128L585.352 414.082ZM597.985 403.411V409.102H592.272V403.457L597.985 403.411ZM597.985 390.792V396.498H592.272V390.838L597.985 390.792ZM597.985 378.172V383.879H592.272V378.219L597.985 378.172ZM585.352 376.27C586.095 376.27 586.808 376.565 587.334 377.09C587.859 377.615 588.154 378.327 588.154 379.069V407.215C588.154 407.958 587.859 408.67 587.334 409.195C586.808 409.72 586.095 410.014 585.352 410.014H559.995C559.255 410.01 558.546 409.714 558.024 409.189C557.502 408.665 557.209 407.955 557.209 407.215V379.116C557.209 378.376 557.502 377.667 558.024 377.142C558.546 376.618 559.255 376.321 559.995 376.317L585.352 376.27ZM598 365.615V371.322H592.272V365.615H598ZM598 352.996V358.702H592.272V352.996H598ZM598 340.392V346.099H592.272V340.392H598ZM585.368 338.505C585.736 338.505 586.1 338.578 586.44 338.718C586.78 338.859 587.089 339.065 587.349 339.325C587.609 339.585 587.816 339.894 587.957 340.233C588.097 340.573 588.17 340.937 588.17 341.305V369.404C588.17 370.146 587.875 370.858 587.349 371.383C586.824 371.908 586.111 372.203 585.368 372.203H559.995C559.255 372.199 558.546 371.902 558.024 371.378C557.502 370.853 557.209 370.144 557.209 369.404V341.305C557.209 340.565 557.502 339.855 558.024 339.331C558.546 338.806 559.255 338.509 559.995 338.505H585.368Z" fill="#182F43"/>
<path d="M395.966 561.692H339.365V600.554H395.966V561.692Z" fill="#8A8D94"/>
<path d="M522.752 371.826H225.622C218.184 371.826 212.154 377.992 212.154 385.598V556.803C212.154 564.409 218.184 570.575 225.622 570.575H522.752C530.19 570.575 536.22 564.409 536.22 556.803V385.598C536.22 377.992 530.19 371.826 522.752 371.826Z" fill="#8A8D94"/>
<path d="M514.398 368.98H215.546C208.065 368.98 202 375.038 202 382.512V550.722C202 558.195 208.065 564.253 215.546 564.253H514.398C521.879 564.253 527.943 558.195 527.943 550.722V382.512C527.943 375.038 521.879 368.98 514.398 368.98Z" fill="#E1E5F1"/>
<path d="M518.889 549.005V384.228C518.889 380.069 515.513 376.697 511.35 376.697H218.612C214.448 376.697 211.073 380.069 211.073 384.228V549.005C211.073 553.164 214.448 556.536 218.612 556.536H511.35C515.513 556.536 518.889 553.164 518.889 549.005Z" fill="#FFC100"/>
<path d="M518.889 549.005V384.228C518.889 380.069 515.513 376.697 511.35 376.697H218.612C214.448 376.697 211.073 380.069 211.073 384.228V549.005C211.073 553.164 214.448 556.536 218.612 556.536H511.35C515.513 556.536 518.889 553.164 518.889 549.005Z" stroke="#182F43" stroke-width="1.51" stroke-miterlimit="10"/>
<path d="M398.218 561.871H331.729V600.378H398.218V561.871Z" fill="#E1E5F1"/>
<path d="M429.396 618.703H356.43V600.377L411.036 600.377C413.447 600.375 415.834 600.847 418.061 601.768C420.289 602.688 422.313 604.037 424.018 605.739C425.723 607.441 427.076 609.462 427.999 611.686C428.921 613.911 429.396 616.295 429.396 618.703Z" fill="#8A8D94"/>
<path d="M416.032 618.705H302.885C302.885 616.297 303.36 613.912 304.283 611.688C305.206 609.464 306.558 607.443 308.263 605.741C309.968 604.039 311.992 602.689 314.22 601.769C316.447 600.849 318.834 600.377 321.245 600.379H397.672C400.083 600.377 402.47 600.849 404.697 601.769C406.925 602.689 408.949 604.039 410.654 605.741C412.359 607.443 413.712 609.464 414.634 611.688C415.557 613.912 416.032 616.297 416.032 618.705V618.705Z" fill="#E1E5F1"/>
<path d="M407.802 323.188H158.472C152.086 323.188 146.908 328.361 146.908 334.741V473.367C146.908 479.747 152.086 484.919 158.472 484.919H407.802C414.189 484.919 419.366 479.747 419.366 473.367V334.741C419.366 328.361 414.189 323.188 407.802 323.188Z" fill="#182F43"/>
<path d="M414.631 336.813H175.131C168.992 336.813 164.016 341.785 164.016 347.917V481.069C164.016 487.201 168.992 492.172 175.131 492.172H414.631C420.769 492.172 425.746 487.201 425.746 481.069V347.917C425.746 341.785 420.769 336.813 414.631 336.813Z" stroke="#182F43" stroke-width="0.75" stroke-miterlimit="10" stroke-dasharray="4.62 4.62"/>
<path d="M419.382 334.741V357.289H146.924V334.741C146.922 333.223 147.22 331.72 147.8 330.318C148.38 328.915 149.232 327.641 150.306 326.568C151.381 325.495 152.656 324.644 154.06 324.064C155.464 323.484 156.969 323.187 158.488 323.189H407.725C409.251 323.177 410.765 323.466 412.179 324.041C413.593 324.616 414.878 325.465 415.962 326.539C417.046 327.613 417.906 328.891 418.493 330.299C419.08 331.706 419.382 333.216 419.382 334.741Z" fill="white" fill-opacity="0.1"/>
<path d="M147.482 445.182H418.981V465.143H147.482V445.182Z" fill="#E0E0E0" stroke="#182F43"/>
<path d="M146.436 415.836H417.934V434.749H146.436V415.836Z" fill="#E0E0E0" stroke="#182F43"/>
<path d="M419.366 381.861H146.908V407.425H419.366V381.861Z" fill="#AA4337"/>
<path d="M419.366 370.618H146.908V376.974H419.366V370.618Z" fill="#AA4337"/>
<path d="M158.984 364H155.842V373.279H158.984V364Z" fill="#AA4337"/>
<path d="M200.889 364H197.746V373.279H200.889V364Z" fill="#AA4337"/>
<path d="M242.795 364H239.652V373.279H242.795V364Z" fill="#AA4337"/>
<path d="M284.701 364H281.559V373.279H284.701V364Z" fill="#AA4337"/>
<path d="M326.607 364H323.465V373.279H326.607V364Z" fill="#AA4337"/>
<path d="M368.529 364H365.387V373.279H368.529V364Z" fill="#AA4337"/>
<path d="M410.433 364H407.291V373.279H410.433V364Z" fill="#AA4337"/>
<path d="M361 418H353L361 426V418Z" fill="#2F4456"/>
<path d="M361 418H353L361 426V418Z" fill="white" fill-opacity="0.2"/>
<path d="M369 418H361V426L369 418Z" fill="#2F4456"/>
<path d="M361 432H353L361 424V432Z" fill="#2F4456"/>
<path d="M361 432H353L361 424V432Z" fill="white" fill-opacity="0.2"/>
<path d="M369 432H361V424L369 432Z" fill="#2F4456"/>
<path d="M239 448H231L239 456V448Z" fill="#2F4456"/>
<path d="M239 448H231L239 456V448Z" fill="white" fill-opacity="0.2"/>
<path d="M247 448H239V456L247 448Z" fill="#2F4456"/>
<path d="M239 462H231L239 454V462Z" fill="#2F4456"/>
<path d="M239 462H231L239 454V462Z" fill="white" fill-opacity="0.2"/>
<path d="M247 462H239V454L247 462Z" fill="#2F4456"/>
<path d="M190 424.995L198 432V418L190 424.995Z" fill="#2F4456"/>
<path d="M190 424.995L198 432V418L190 424.995Z" fill="white" fill-opacity="0.2"/>
<path d="M198 418V432L205 424.995L198 418Z" fill="#2F4456"/>
<path d="M268 424.995L276 432V418L268 424.995Z" fill="#2F4456"/>
<path d="M268 424.995L276 432V418L268 424.995Z" fill="white" fill-opacity="0.2"/>
<path d="M276 418V432L283 424.995L276 418Z" fill="#2F4456"/>
<path d="M161 455.506L169 463V448L161 455.506Z" fill="#2F4456"/>
<path d="M161 455.506L169 463V448L161 455.506Z" fill="white" fill-opacity="0.2"/>
<path d="M169 448V463L176 455.506L169 448Z" fill="#2F4456"/>
<path d="M308 455.506L316 463V448L308 455.506Z" fill="#2F4456"/>
<path d="M308 455.506L316 463V448L308 455.506Z" fill="white" fill-opacity="0.2"/>
<path d="M316 448V463L323 455.506L316 448Z" fill="#2F4456"/>
<path d="M389 455.506L396 463V448L389 455.506Z" fill="#2F4456"/>
<path d="M389 455.506L396 463V448L389 455.506Z" fill="white" fill-opacity="0.2"/>
<path d="M396 448V463L404 455.506L396 448Z" fill="#2F4456"/>
<path d="M419.366 386.562H146.908V402.722H419.366V386.562Z" fill="#E0E0E0"/>
<path d="M266.232 386.562H146.908V402.722H266.232V386.562Z" fill="#AA4337"/>
<path d="M266.232 386.562H146.908V402.722H266.232V386.562Z" fill="black" fill-opacity="0.2"/>
<path d="M270.36 381.766L270.359 381.758L270.359 381.749C270.344 380.978 270.11 380.228 269.687 379.583C269.263 378.939 268.665 378.428 267.963 378.108C267.262 377.788 266.484 377.673 265.719 377.776C264.955 377.878 264.235 378.194 263.642 378.688C263.049 379.181 262.608 379.832 262.369 380.565C262.13 381.298 262.104 382.084 262.292 382.832C262.48 383.579 262.876 384.258 263.434 384.791C263.788 385.129 264.198 385.4 264.644 385.592V402.771V403.771H265.644H266.852H267.852V402.771V385.552C268.46 385.296 269.002 384.896 269.427 384.38C270.033 383.644 270.363 382.719 270.36 381.766Z" fill="#FBFBFF" stroke="#FBFBFF" stroke-width="2"/>
<path d="M487.898 305.668C487.898 317.869 477.997 327.762 465.781 327.762C453.566 327.762 443.664 317.869 443.664 305.668C443.664 293.466 453.566 283.574 465.781 283.574C477.997 283.574 487.898 293.466 487.898 305.668Z" fill="#AA4337" stroke="#182F43"/>
<path d="M454.967 297.472V313.682V297.472ZM454.967 297.472C454.966 297.14 455.054 296.814 455.222 296.527C455.389 296.239 455.63 296.001 455.921 295.835C456.211 295.669 456.541 295.583 456.876 295.584C457.211 295.584 457.54 295.673 457.83 295.84L454.967 297.472ZM457.582 314.893L457.58 314.894C457.366 315.018 457.121 315.083 456.872 315.083C456.623 315.084 456.379 315.019 456.164 314.895C455.95 314.772 455.772 314.595 455.65 314.382C455.528 314.17 455.465 313.93 455.467 313.686L455.467 313.686V313.682L455.467 297.472L455.467 297.471C455.466 297.228 455.531 296.989 455.654 296.778C455.777 296.567 455.954 296.392 456.169 296.269C456.383 296.147 456.627 296.083 456.875 296.084C457.123 296.084 457.366 296.15 457.58 296.273L457.58 296.273L457.582 296.274L464.676 300.323L471.767 304.371C471.767 304.371 471.767 304.372 471.768 304.372C471.981 304.496 472.158 304.672 472.28 304.883C472.402 305.095 472.467 305.334 472.467 305.577C472.467 305.82 472.402 306.06 472.28 306.271C472.157 306.482 471.981 306.659 471.767 306.783C471.767 306.783 471.767 306.783 471.767 306.783L464.676 310.844L464.675 310.844L457.582 314.893Z" fill="white" stroke="#182F43"/>
<path d="M473.974 296.083H473.974C474.668 296.083 475.317 296.302 475.781 296.667C476.241 297.029 476.467 297.492 476.467 297.941V313.226C476.467 313.675 476.241 314.138 475.781 314.5C475.317 314.865 474.668 315.083 473.974 315.083C473.277 315.084 472.627 314.865 472.161 314.5C471.698 314.138 471.47 313.675 471.467 313.225V297.942C471.47 297.492 471.698 297.029 472.161 296.667C472.627 296.302 473.277 296.083 473.974 296.083Z" fill="#FBFBFF" stroke="#182F43"/>
<path d="M537.715 618.66H208.621V620.756H537.715V618.66Z" fill="#182F43"/>
<path d="M472.434 603.455H462.712C454.275 603.455 449.863 610.275 449.863 618.703H487.713C487.713 616.7 487.318 614.716 486.55 612.865C485.782 611.013 484.656 609.332 483.237 607.916C481.818 606.5 480.134 605.377 478.28 604.611C476.426 603.846 474.44 603.453 472.434 603.455Z" fill="#B7BBC4"/>
<path d="M469.722 603.455H466.549C464.543 603.453 462.557 603.846 460.703 604.611C458.849 605.377 457.165 606.5 455.746 607.916C454.327 609.332 453.201 611.013 452.433 612.865C451.665 614.716 451.27 616.7 451.27 618.703H485.002C485.002 616.7 484.606 614.716 483.838 612.865C483.07 611.013 481.945 609.332 480.526 607.916C479.107 606.5 477.422 605.377 475.568 604.611C473.715 603.846 471.728 603.453 469.722 603.455Z" fill="#E1E5F1"/>
<path d="M468.545 603.455H467.709V618.719H468.545V603.455Z" fill="#8A8D94"/>
<path d="M598.677 507.765H491.644C485.266 507.765 480.096 512.93 480.096 519.301V582.336C480.096 588.707 485.266 593.872 491.644 593.872H598.677C605.055 593.872 610.225 588.707 610.225 582.336V519.301C610.225 512.93 605.055 507.765 598.677 507.765Z" fill="#AA4337"/>
<path d="M595.108 501H484.892C478.324 501 473 506.399 473 513.058V578.942C473 585.601 478.324 591 484.892 591H595.108C601.676 591 607 585.601 607 578.942V513.058C607 506.399 601.676 501 595.108 501Z" fill="#182F43"/>
<path d="M593.677 502.765H486.644C480.266 502.765 475.096 507.93 475.096 514.301V577.336C475.096 583.707 480.266 588.872 486.644 588.872H593.677C600.055 588.872 605.225 583.707 605.225 577.336V514.301C605.225 507.93 600.055 502.765 593.677 502.765Z" fill="#FBFBFF"/>
<g clip-path="url(#clip2_1513_9180)">
<path d="M512.531 539.226H561.867C563.428 539.226 564.924 539.847 566.028 540.954C567.131 542.06 567.751 543.561 567.751 545.125V570.226C567.751 571.79 567.131 573.291 566.028 574.398C564.924 575.504 563.428 576.126 561.867 576.126H512.531C511.05 576.126 509.63 575.536 508.583 574.485C507.536 573.435 506.947 572.011 506.947 570.526V544.825C506.947 543.34 507.536 541.916 508.583 540.866C509.63 539.816 511.05 539.226 512.531 539.226V539.226Z" fill="#567896"/>
<path d="M512.531 539.226H512.587V576.126H512.531C511.05 576.126 509.63 575.536 508.583 574.485C507.536 573.435 506.947 572.011 506.947 570.526V544.825C506.947 543.34 507.536 541.916 508.583 540.866C509.63 539.816 511.05 539.226 512.531 539.226V539.226Z" fill="#182F43"/>
<path d="M553.873 548.396H520.817C519.32 548.396 518.107 549.612 518.107 551.112V563.647C518.107 565.147 519.32 566.364 520.817 566.364H553.873C555.369 566.364 556.582 565.147 556.582 563.647V551.112C556.582 549.612 555.369 548.396 553.873 548.396Z" fill="#182F43"/>
<path d="M545.627 554.358H529.064C528.189 554.358 527.48 555.069 527.48 555.946V559.413C527.48 560.29 528.189 561.001 529.064 561.001H545.627C546.501 561.001 547.21 560.29 547.21 559.413V555.946C547.21 555.069 546.501 554.358 545.627 554.358Z" fill="#E0E0E0"/>
<path d="M567.751 553.174L578.037 548.514C578.269 548.409 578.524 548.363 578.779 548.382C579.033 548.401 579.279 548.483 579.493 548.621C579.708 548.759 579.884 548.949 580.007 549.173C580.129 549.397 580.194 549.649 580.195 549.904V565.448C580.184 565.7 580.113 565.946 579.988 566.164C579.863 566.383 579.688 566.569 579.476 566.706C579.265 566.843 579.024 566.927 578.774 566.951C578.523 566.976 578.271 566.939 578.037 566.846L567.751 562.178V553.174Z" fill="#567896"/>
<path d="M572.626 550.963L567.751 553.174V562.178L572.626 564.39V550.963Z" fill="#182F43"/>
<path d="M524.471 515.058C522.02 515.059 519.624 515.79 517.586 517.157C515.548 518.524 513.961 520.466 513.023 522.737C512.086 525.009 511.842 527.508 512.321 529.919C512.8 532.33 513.982 534.545 515.716 536.283C517.45 538.02 519.659 539.204 522.063 539.683C524.468 540.162 526.96 539.915 529.225 538.974C531.49 538.033 533.425 536.439 534.787 534.395C536.149 532.351 536.876 529.948 536.876 527.489C536.876 525.856 536.555 524.239 535.932 522.73C535.308 521.221 534.394 519.85 533.242 518.696C532.09 517.541 530.723 516.626 529.218 516.002C527.713 515.377 526.1 515.057 524.471 515.058V515.058ZM522.392 534.226C521.277 534.872 519.953 535.046 518.71 534.712C517.467 534.378 516.407 533.563 515.764 532.445C515.121 531.328 514.946 530 515.279 528.753C515.613 527.507 516.426 526.444 517.54 525.799C519.864 524.456 521.077 526.273 522.415 528.595C523.754 530.917 524.715 532.884 522.392 534.226ZM524.353 524.962C521.675 524.962 519.501 524.812 519.501 522.126C519.507 520.836 520.023 519.601 520.936 518.692C521.389 518.242 521.925 517.886 522.515 517.644C523.104 517.402 523.736 517.278 524.373 517.281C525.01 517.284 525.64 517.412 526.228 517.659C526.815 517.906 527.349 518.266 527.798 518.72C528.246 519.174 528.601 519.711 528.843 520.303C529.084 520.894 529.207 521.527 529.205 522.166C529.205 524.812 527.031 524.962 524.353 524.962ZM533.174 532.315C532.529 533.431 531.468 534.245 530.225 534.579C528.982 534.912 527.657 534.737 526.543 534.092C524.227 532.749 525.188 530.791 526.543 528.461C527.897 526.131 529.079 524.322 531.363 525.665C531.918 525.981 532.406 526.405 532.797 526.91C533.189 527.416 533.477 527.995 533.646 528.613C533.814 529.231 533.859 529.876 533.778 530.511C533.697 531.146 533.492 531.759 533.174 532.315Z" fill="#182F43"/>
<path d="M522.416 528.595C523.322 530.175 524.054 531.588 523.708 532.749C522.328 532.612 521.049 531.965 520.119 530.935C519.189 529.904 518.674 528.563 518.675 527.173C518.674 526.549 518.781 525.929 518.99 525.341C520.431 525.325 521.384 526.81 522.416 528.595Z" fill="#567896"/>
<path d="M524.354 524.962C522.345 524.962 520.62 524.875 519.88 523.706C520.41 523.029 521.088 522.484 521.861 522.113C522.635 521.742 523.484 521.554 524.341 521.565C525.199 521.576 526.043 521.784 526.807 522.175C527.571 522.565 528.236 523.127 528.748 523.817C527.969 524.883 526.299 524.962 524.354 524.962Z" fill="#567896"/>
<path d="M529.867 527.173C529.869 528.492 529.407 529.769 528.563 530.78C527.719 531.791 526.546 532.472 525.252 532.702C524.85 531.525 525.598 530.088 526.528 528.468C527.457 526.849 528.315 525.507 529.521 525.254C529.752 525.867 529.869 526.518 529.867 527.173V527.173Z" fill="#567896"/>
<path d="M548.305 518.501C546.193 518.501 544.128 519.129 542.372 520.306C540.615 521.483 539.246 523.155 538.438 525.112C537.63 527.069 537.418 529.223 537.83 531.3C538.242 533.378 539.259 535.286 540.753 536.784C542.247 538.282 544.15 539.302 546.221 539.715C548.293 540.128 550.441 539.916 552.392 539.105C554.344 538.295 556.012 536.922 557.185 535.161C558.359 533.4 558.985 531.329 558.985 529.211C558.985 526.37 557.86 523.646 555.857 521.638C553.854 519.629 551.138 518.501 548.305 518.501V518.501ZM546.517 535.016C545.557 535.571 544.417 535.721 543.347 535.433C542.277 535.145 541.364 534.442 540.811 533.48C540.257 532.517 540.108 531.374 540.395 530.301C540.682 529.227 541.383 528.313 542.343 527.758C544.343 526.597 545.383 528.16 546.541 530.167C547.699 532.173 548.518 533.855 546.517 535.016ZM548.21 527.031C545.903 527.031 544.028 526.905 544.028 524.59C544.075 523.511 544.536 522.491 545.314 521.743C546.093 520.996 547.129 520.578 548.207 520.578C549.284 520.578 550.32 520.996 551.099 521.743C551.877 522.491 552.338 523.511 552.385 524.59C552.385 526.905 550.518 527.031 548.21 527.031ZM555.803 533.349C555.529 533.827 555.164 534.245 554.728 534.58C554.293 534.915 553.795 535.161 553.265 535.304C552.735 535.446 552.181 535.482 551.637 535.41C551.093 535.337 550.568 535.158 550.093 534.882C548.1 533.729 548.927 532.038 550.093 530.032C551.259 528.026 552.29 526.47 554.291 527.623C554.765 527.901 555.181 528.271 555.512 528.71C555.844 529.15 556.086 529.651 556.225 530.184C556.363 530.718 556.395 531.273 556.318 531.819C556.242 532.365 556.059 532.891 555.779 533.365L555.803 533.349Z" fill="#182F43"/>
<path d="M546.541 530.166C547.328 531.525 547.95 532.741 547.651 533.744C546.463 533.626 545.362 533.069 544.561 532.182C543.76 531.294 543.317 530.139 543.319 528.942C543.319 528.404 543.409 527.87 543.587 527.362C544.832 527.347 545.651 528.626 546.541 530.166Z" fill="#567896"/>
<path d="M548.21 527.031C546.477 527.031 544.988 526.96 544.358 525.949C544.815 525.368 545.399 524.9 546.064 524.581C546.73 524.263 547.46 524.102 548.198 524.111C548.935 524.12 549.661 524.299 550.319 524.634C550.976 524.969 551.548 525.452 551.99 526.044C551.329 526.968 549.88 527.031 548.21 527.031Z" fill="#567896"/>
<path d="M552.952 528.943C552.95 530.07 552.556 531.16 551.836 532.026C551.117 532.891 550.119 533.477 549.014 533.682C548.667 532.663 549.313 531.423 550.109 530.033C550.904 528.643 551.684 527.482 552.692 527.269C552.877 527.807 552.965 528.374 552.952 528.943V528.943Z" fill="#567896"/>
</g>
<path d="M402.657 480.265L402.657 480.265L402.656 480.262L400.829 473.457L400.829 473.457L398.539 464.969C398.539 464.969 398.539 464.968 398.539 464.968C398.487 464.77 398.487 464.563 398.54 464.365C398.594 464.168 398.698 463.988 398.843 463.843C398.988 463.698 399.168 463.594 399.366 463.54C399.564 463.487 399.772 463.487 399.97 463.539C399.971 463.539 399.971 463.539 399.971 463.539L408.468 465.827L408.468 465.827L415.276 467.651C415.277 467.651 415.277 467.651 415.278 467.651C415.505 467.714 415.708 467.845 415.858 468.026C416.009 468.208 416.101 468.431 416.121 468.666C416.141 468.901 416.088 469.137 415.97 469.341C415.852 469.545 415.675 469.708 415.463 469.808L410.822 471.91L410.163 472.208L410.675 472.719L416.325 478.364C416.712 478.75 416.929 479.273 416.929 479.819C416.929 480.365 416.712 480.889 416.325 481.275C415.939 481.661 415.414 481.878 414.867 481.878C414.32 481.878 413.796 481.661 413.409 481.275L407.759 475.63L407.249 475.12L406.95 475.777L404.845 480.417L404.845 480.417L404.84 480.427C404.746 480.649 404.584 480.836 404.378 480.961C404.172 481.086 403.932 481.144 403.691 481.126C403.45 481.109 403.221 481.016 403.035 480.861C402.85 480.707 402.718 480.499 402.657 480.265Z" fill="white" stroke="black"/>
<path d="M344.021 266H280.836C278.996 265.998 277.174 266.384 275.474 267.138C273.774 267.891 272.229 268.996 270.929 270.389C269.629 271.783 268.599 273.437 267.897 275.258C267.195 277.079 266.836 279.03 266.841 281C266.837 283.693 267.205 285.691 268.5 288L264.681 299.458C264.561 299.817 264.5 300.193 264.5 300.572V300.572C264.5 301.518 264.58 302.503 265.109 303.287C265.465 303.815 265.832 304.075 266.128 304.324C266.601 304.722 267.177 304.956 267.777 304.994C270 305.137 270.632 304.659 271.146 304.324L284 296.5H344.021C347.726 296.5 351.279 294.374 353.9 291.571C356.521 288.768 357.996 284.966 358 281C358.004 279.032 357.646 277.082 356.945 275.262C356.245 273.443 355.216 271.789 353.917 270.395C352.619 269.002 351.076 267.897 349.378 267.142C347.68 266.388 345.86 266 344.021 266Z" fill="#182F43"/>
<path d="M342.737 267.346H281.79C280.015 267.344 278.258 267.692 276.618 268.37C274.978 269.047 273.489 270.042 272.235 271.296C270.98 272.551 269.987 274.04 269.31 275.679C268.633 277.318 268.287 279.074 268.291 280.846C268.287 283.271 268.946 285.65 270.195 287.728L266.65 298.739C266.474 299.292 266.471 299.884 266.641 300.439C266.812 300.993 267.148 301.482 267.604 301.84C268.06 302.198 268.615 302.408 269.194 302.443C269.773 302.478 270.349 302.335 270.845 302.033L283.508 294.301H342.737C346.31 294.301 349.738 292.884 352.266 290.361C354.794 287.838 356.216 284.416 356.22 280.846C356.225 279.075 355.879 277.32 355.203 275.682C354.527 274.044 353.535 272.556 352.282 271.302C351.03 270.048 349.542 269.053 347.904 268.374C346.266 267.695 344.51 267.346 342.737 267.346Z" fill="#AA4337"/>
<path d="M289.171 280.66C289.171 283.749 286.665 286.254 283.572 286.254C280.479 286.254 277.973 283.749 277.973 280.66C277.973 277.572 280.479 275.067 283.572 275.067C286.665 275.067 289.171 277.572 289.171 280.66Z" fill="white" stroke="#182F43"/>
<path d="M308.072 280.66C308.072 283.749 305.565 286.254 302.472 286.254C299.379 286.254 296.873 283.749 296.873 280.66C296.873 277.572 299.379 275.067 302.472 275.067C305.565 275.067 308.072 277.572 308.072 280.66Z" fill="white" stroke="#182F43"/>
<path d="M326.989 280.648C326.992 281.754 326.666 282.836 326.055 283.757C325.443 284.68 324.571 285.401 323.549 285.83C322.528 286.258 321.402 286.376 320.314 286.166C319.226 285.957 318.224 285.431 317.434 284.654C316.645 283.878 316.103 282.885 315.878 281.802C315.652 280.718 315.752 279.592 316.166 278.565C316.579 277.538 317.288 276.657 318.202 276.031C319.115 275.407 320.193 275.065 321.3 275.051C322.794 275.051 324.228 275.639 325.293 276.686C326.357 277.733 326.966 279.156 326.989 280.648Z" fill="white" stroke="#182F43"/>
<path d="M345.861 280.66C345.861 283.749 343.354 286.254 340.261 286.254C337.169 286.254 334.662 283.749 334.662 280.66C334.662 277.572 337.169 275.067 340.261 275.067C343.354 275.067 345.861 277.572 345.861 280.66Z" fill="white" stroke="#182F43"/>
<path d="M121.499 524H182.493C184.265 524 186.019 524.349 187.656 525.027C189.293 525.705 190.78 526.698 192.032 527.951C193.285 529.203 194.277 530.69 194.954 532.326C195.631 533.962 195.978 535.715 195.976 537.485V537.485C195.98 539.91 195.321 542.289 194.072 544.367L197.633 555.378C197.834 555.945 197.851 556.562 197.68 557.139C197.509 557.716 197.159 558.224 196.681 558.59C196.203 558.956 195.621 559.161 195.018 559.176C194.416 559.191 193.825 559.014 193.329 558.672L180.666 550.94H121.499C117.919 550.94 114.485 549.519 111.954 546.99C109.422 544.461 108 541.031 108 537.454C108.002 535.685 108.353 533.934 109.032 532.301C109.712 530.667 110.707 529.184 111.96 527.934C113.214 526.685 114.701 525.694 116.338 525.019C117.975 524.344 119.728 523.998 121.499 524V524Z" fill="#FBFBFF" stroke="#182F43"/>
<path d="M176.704 541.24C175.655 540.192 175.057 538.778 175.037 537.297C175.061 535.819 175.66 534.408 176.709 533.363C177.757 532.319 179.171 531.723 180.651 531.703C182.129 531.727 183.54 532.324 184.585 533.368C185.63 534.412 186.227 535.821 186.251 537.297C186.231 538.775 185.635 540.188 184.59 541.235C183.544 542.282 182.132 542.881 180.651 542.905C179.169 542.885 177.752 542.287 176.704 541.24Z" fill="#AA4337" stroke="#182F43"/>
<path d="M161.827 542.905H161.827C160.329 542.905 158.892 542.316 157.827 541.265C156.763 540.215 156.155 538.79 156.135 537.297C156.159 535.806 156.768 534.385 157.832 533.338C158.897 532.29 160.332 531.703 161.827 531.703H161.827C163.312 531.703 164.736 532.293 165.787 533.341C166.837 534.39 167.426 535.813 167.426 537.296L167.426 537.298C167.428 538.033 167.285 538.762 167.004 539.442C166.724 540.122 166.312 540.741 165.792 541.261C165.271 541.782 164.654 542.196 163.973 542.478C163.293 542.76 162.564 542.905 161.827 542.905Z" fill="#AA4337" stroke="#182F43"/>
<path d="M148.447 537.296L148.447 537.298C148.449 538.033 148.305 538.762 148.025 539.442C147.744 540.122 147.332 540.741 146.812 541.261C146.292 541.782 145.674 542.196 144.994 542.478C144.313 542.76 143.584 542.905 142.847 542.905C142.111 542.905 141.381 542.76 140.701 542.478C140.021 542.196 139.403 541.782 138.883 541.261C138.363 540.741 137.951 540.122 137.67 539.442C137.39 538.762 137.246 538.033 137.248 537.298L136.748 537.296H137.248C137.248 535.813 137.838 534.39 138.888 533.341C139.938 532.293 141.362 531.703 142.847 531.703C144.333 531.703 145.757 532.293 146.807 533.341C147.857 534.39 148.447 535.813 148.447 537.296Z" fill="#AA4337" stroke="#182F43"/>
<path d="M120.009 541.235C118.964 540.188 118.368 538.775 118.348 537.297C118.371 535.821 118.969 534.412 120.014 533.368C121.06 532.323 122.472 531.726 123.951 531.703C125.445 531.704 126.878 532.291 127.942 533.338C129.006 534.385 129.615 535.806 129.639 537.297C129.619 538.79 129.011 540.215 127.947 541.265C126.883 542.315 125.447 542.904 123.951 542.905C122.469 542.882 121.055 542.283 120.009 541.235Z" fill="#AA4337" stroke="#182F43"/>
<path d="M240.496 516.184L236.09 530H232.012L238.328 512.938H240.906L240.496 516.184ZM244.152 530L239.734 516.184L239.277 512.938H241.891L248.23 530H244.152ZM243.965 523.648V526.602H235.07V523.648H243.965ZM261.25 527.047V530H252.168V527.047H261.25ZM253.469 512.938V530H249.648V512.938H253.469ZM260.078 519.805V522.664H252.168V519.805H260.078ZM261.262 512.938V515.902H252.168V512.938H261.262Z" fill="#182F43"/>
<path d="M479.855 408.805V411.758H471.02V408.805H479.855ZM472.227 401.938V419H468.406V401.938H472.227ZM482.492 401.938V419H478.684V401.938H482.492ZM490.73 419H486.98L487.004 416.047H490.73C491.582 416.047 492.301 415.852 492.887 415.461C493.473 415.062 493.918 414.477 494.223 413.703C494.527 412.922 494.68 411.973 494.68 410.855V410.07C494.68 409.227 494.594 408.484 494.422 407.844C494.25 407.195 493.996 406.652 493.66 406.215C493.324 405.777 492.906 405.449 492.406 405.23C491.914 405.012 491.348 404.902 490.707 404.902H486.91V401.938H490.707C491.863 401.938 492.918 402.133 493.871 402.523C494.832 402.914 495.66 403.473 496.355 404.199C497.059 404.926 497.602 405.785 497.984 406.777C498.367 407.77 498.559 408.875 498.559 410.094V410.855C498.559 412.066 498.367 413.172 497.984 414.172C497.602 415.164 497.059 416.023 496.355 416.75C495.66 417.469 494.836 418.023 493.883 418.414C492.93 418.805 491.879 419 490.73 419ZM489.148 401.938V419H485.328V401.938H489.148Z" fill="#182F43"/>
<rect x="225" y="500" width="44" height="44" rx="5" stroke="#182F43" stroke-width="2"/>
<rect x="462" y="388" width="44" height="44" rx="5" stroke="#182F43" stroke-width="2"/>
</g>
</g>
<defs>
<clipPath id="clip0_1513_9180">
<rect width="934" height="721" fill="white"/>
</clipPath>
<clipPath id="clip1_1513_9180">
<rect width="719" height="642" fill="white" transform="translate(0 143)"/>
</clipPath>
<clipPath id="clip2_1513_9180">
<rect width="73.2477" height="61.0683" fill="white" transform="translate(506.947 515.058)"/>
</clipPath>
</defs>
</svg>
