<svg width="55" height="55" viewBox="0 0 55 55" fill="none" xmlns="http://www.w3.org/2000/svg">
<path fill-rule="evenodd" clip-rule="evenodd" d="M17.9853 9.10052C17.7824 9.12893 17.091 9.21313 16.4487 9.28744C11.6858 9.83844 7.66454 11.4814 6.42274 13.3837L6 14.0312V17.0047C6 19.7564 6.01905 20.0188 6.25556 20.5226C7.01168 22.1342 9.90916 23.6421 13.89 24.4959C17.1893 25.2034 22.2773 25.3993 25.7296 24.9516C26.6761 24.8288 27.4613 24.7175 27.4744 24.7041C27.4876 24.6908 27.3124 24.1679 27.0851 23.542C26.8578 22.9163 26.5227 21.6339 26.3403 20.6923C26.0658 19.2749 25.9124 18.7948 25.4486 17.9024C24.1521 15.4075 23.9849 14.8691 24.1987 13.8761C24.6294 11.8757 26.4154 11.2606 28.5491 12.3779C29.062 12.6464 29.8267 13.192 30.2485 13.5902C30.926 14.23 31.1037 14.3304 31.7729 14.4515C32.9766 14.6695 34.2389 15.283 35.3515 16.1906C35.9072 16.6438 36.3897 17.0148 36.4238 17.0148C36.4578 17.0148 36.4851 16.4299 36.4844 15.7149C36.4834 14.6203 36.4379 14.3147 36.1959 13.7785C35.3032 11.8009 31.6813 10.1269 26.5901 9.3388C25.3064 9.14009 19.8292 8.84229 17.9853 9.10052ZM26.6691 14.4193C26.2143 14.8141 25.9859 15.4822 26.0933 16.1036C26.1378 16.3607 26.4958 17.1701 26.8889 17.9024C27.7129 19.4375 27.6846 19.3574 28.0617 21.232C28.4139 22.9824 28.7841 24.1535 29.186 24.789L29.4912 25.2715L29.0658 26.4577C28.4669 28.1278 28.3222 28.9238 28.3278 30.5203C28.3316 31.6235 28.39 32.0875 28.607 32.7395C29.1271 34.3018 29.8174 34.9697 30.5766 34.6453C30.9821 34.4721 31.2217 34.0171 31.4469 32.9931C31.683 31.9193 31.7535 31.8644 31.9973 32.5639C32.6118 34.3264 33.2391 35.2667 35.1013 37.2168C36.4379 38.6166 37.0422 39.0263 40.182 40.6625C44.154 42.7322 47.0224 43.9799 48.6368 44.34C49.0274 44.4271 49.0438 44.4166 48.9572 44.1337C48.8066 43.6418 47.6853 42.0081 47.0668 41.3797C46.7488 41.0565 46.1463 40.4776 45.728 40.0933C45.3097 39.709 44.9675 39.33 44.9675 39.251C44.9675 39.0532 45.4154 38.9549 46.9282 38.8208C48.2956 38.6995 48.7782 38.603 48.7782 38.4509C48.7782 38.4001 48.5658 38.0216 48.3063 37.6097C47.6267 36.5314 45.4726 34.4532 44.2106 33.6582C43.6288 33.2918 43.0988 32.9208 43.0329 32.834C42.8541 32.5985 41.7155 29.0817 41.2779 27.4134C40.5608 24.6806 39.1198 22.0619 37.1822 19.9713C35.1232 17.7493 33.5302 16.69 31.883 16.4474C31.3786 16.3731 31.1498 16.2404 30.5357 15.6672C30.1289 15.2874 29.4129 14.7789 28.9447 14.5373C27.8777 13.9867 27.2075 13.9519 26.6691 14.4193ZM32.4598 18.0404C32.9537 18.5858 32.936 19.3798 32.4163 19.9904C32.2064 20.2369 31.9897 20.4387 31.9345 20.4387C31.8793 20.4387 31.7385 20.1392 31.6214 19.7729C31.5044 19.4067 31.2787 18.9084 31.1198 18.6656C30.7607 18.1165 30.7589 17.9691 31.1076 17.7165C31.4855 17.443 32.0389 17.5755 32.4598 18.0404ZM6.00516 27.0063C5.99914 31.0098 5.9909 30.9737 7.17542 32.0906C8.74149 33.5672 12.0398 34.7458 16.3258 35.3603C18.5018 35.6724 23.8919 35.6734 26.0313 35.3622C26.8732 35.2397 27.5842 35.1167 27.6113 35.0888C27.6384 35.0608 27.5179 34.7348 27.3436 34.3643C26.7957 33.1999 26.5997 32.1857 26.6002 30.5203C26.6004 29.6833 26.6424 28.8347 26.6936 28.6344C26.7844 28.2789 26.7773 28.2721 26.381 28.3453C24.2116 28.7453 18.8575 28.7542 16.0818 28.3623C10.9164 27.633 7.33215 26.0257 6.22028 23.9395C6.01795 23.5599 6.01008 23.672 6.00516 27.0063ZM6.03049 37.5584L6.06146 41.1725L6.45839 41.7621C7.67019 43.5621 11.1285 45.0082 16.0185 45.7596C17.8912 46.0473 24.2052 46.0871 26.0369 45.8228C31.0844 45.0946 34.7376 43.575 35.9632 41.6937C36.5253 40.8309 36.4908 40.6053 35.7029 39.9916C35.3401 39.709 34.5629 38.9411 33.9758 38.2851L32.9085 37.0924L31.5317 37.5738C28.6319 38.5879 26.3282 38.9516 22.2262 39.0431C18.0189 39.1368 15.5768 38.8895 12.3936 38.0476C9.19447 37.2014 6.91395 35.8512 6.21229 34.388C6.00602 33.9579 6.00037 34.0559 6.03049 37.5584Z" fill="#182F43"/>
</svg>
