<svg width="55" height="55" viewBox="0 0 55 55" fill="none" xmlns="http://www.w3.org/2000/svg">
<path d="M25.3913 6.54365C26.5917 5.80322 28.1692 5.82475 29.361 6.57378C34.5485 9.46662 39.7186 12.3896 44.9018 15.2867C46.0589 15.8937 47.0643 17.0345 46.9906 18.4077C46.9993 24.4345 46.9993 30.4612 46.9906 36.4837C47.086 37.8741 46.1672 39.0838 44.9624 39.6951C39.6883 42.6482 34.4228 45.6142 29.14 48.5544C27.9699 49.2345 26.4661 49.17 25.335 48.4424C23.4238 47.3146 21.4259 46.3116 19.6101 45.033C20.6502 44.6068 21.6773 44.1505 22.6827 43.6469C24.2645 44.482 25.7727 45.4463 27.3632 46.2685C32.932 43.1432 38.5269 40.0653 44.0567 36.884C44.0654 30.6119 44.1 24.3398 44.0394 18.0676C38.4662 15.0112 32.984 11.7869 27.3718 8.80799C21.7076 11.7525 16.1995 15.0112 10.6176 18.1107C10.5656 24.3613 10.6003 30.6076 10.5959 36.8582C12.3208 37.8612 14.0153 38.9288 15.8398 39.7381C17.0922 40.302 19.0164 39.7984 19.1247 38.24C19.1984 32.0239 19.1074 25.7991 19.1681 19.5786C20.1692 19.4581 21.1832 19.4667 22.1843 19.5614C22.18 25.7862 22.193 32.0067 22.18 38.2314C22.1887 39.8629 21.4129 41.6322 19.8528 42.3382C17.8983 43.2594 15.5451 42.9021 13.6989 41.8862C12.1214 41.0209 10.4919 40.2245 8.99246 39.2215C7.97836 38.5241 7.60999 37.2585 7.662 36.0833C7.67933 30.2029 7.64466 24.3182 7.67933 18.4336C7.62299 17.0001 8.64142 15.8205 9.87654 15.2222C15.0597 12.3465 20.2082 9.41066 25.3913 6.54365Z" fill="#182F43"/>
<path d="M26.327 20.3528C29.1916 18.605 32.9057 18.7686 36.0433 19.621C38.4225 20.228 39.8266 22.5698 39.8786 24.9116C38.8992 25.1139 37.8938 25.1355 36.91 24.9805C36.5763 23.7493 35.9479 22.4105 34.5611 22.1178C32.65 21.6873 30.5481 21.6098 28.6846 22.2771C27.5145 22.6645 26.9901 24.7351 28.3292 25.2043C31.6489 26.315 35.3672 25.9405 38.5525 27.5203C41.0141 28.8333 40.9577 32.5354 39.1766 34.3908C37.4561 36.0826 34.8905 36.4184 32.5806 36.5002C30.1884 36.4959 27.5882 36.2591 25.625 34.761C24.2382 33.7236 23.6531 31.9285 23.8005 30.2539C24.7539 30.2496 25.703 30.2496 26.6521 30.2539C26.9554 31.3731 27.2718 32.7464 28.5459 33.1424C30.8385 33.9345 33.482 33.9388 35.8006 33.2285C37.183 32.9013 37.8764 30.7317 36.507 29.9655C33.2437 28.6137 29.456 29.2767 26.2707 27.6538C23.5405 26.2289 23.7528 21.838 26.327 20.3528Z" fill="#182F43"/>
</svg>
