<svg width="75" height="75" viewBox="0 0 75 75" fill="none" xmlns="http://www.w3.org/2000/svg">
<path d="M37.5 74C27.8196 74 18.5357 70.1545 11.6906 63.3094C4.84553 56.4643 1 47.1804 1 37.5C1 27.8196 4.84553 18.5357 11.6906 11.6906C18.5357 4.84552 27.8196 1 37.5 1C47.1804 1 56.4643 4.84552 63.3094 11.6906C70.1545 18.5357 74 27.8196 74 37.5C74 47.1804 70.1545 56.4643 63.3094 63.3094C56.4643 70.1545 47.1804 74 37.5 74Z" fill="#182F43" stroke="#182F43" stroke-miterlimit="10"/>
<path d="M20.1396 65.7278C16.9084 63.7418 14.0438 61.2134 11.6719 58.2539" stroke="white" stroke-width="0.75" stroke-linecap="round" stroke-linejoin="round"/>
<path d="M55.2121 65.5518C54.3839 66.0693 53.5351 66.5869 52.6552 67.0113C47.9595 69.4203 42.7562 70.6724 37.4786 70.6634C32.201 70.6544 27.0019 69.3845 22.3145 66.9596" stroke="white" stroke-width="0.75" stroke-linecap="round" stroke-linejoin="round"/>
<path d="M45.0664 5.21289C49.7595 6.30143 54.158 8.40245 57.9542 11.3689C61.7503 14.3353 64.8523 18.0955 67.043 22.3863V22.3863C70.1458 28.4333 71.3134 35.2883 70.3875 42.0214C69.4616 48.7546 66.487 55.04 61.8672 60.025" stroke="white" stroke-width="0.75" stroke-linecap="round" stroke-linejoin="round"/>
<path d="M32.7715 4.67658C34.9783 4.35672 37.2121 4.26308 39.438 4.3971" stroke="white" stroke-width="0.75" stroke-linecap="round" stroke-linejoin="round"/>
<path d="M11.6709 58.2539C10.2718 56.5028 9.0511 54.6164 8.02712 52.6226C6.03773 48.7484 4.83183 44.52 4.4784 40.1792C4.12497 35.8385 4.63097 31.4707 5.96743 27.3257C7.3039 23.1808 9.44459 19.34 12.267 16.0233C15.0895 12.7066 18.5382 9.97893 22.4159 7.99651V7.99651C24.9619 6.69246 27.6652 5.72177 30.4592 5.1084" stroke="white" stroke-width="0.75" stroke-linecap="round" stroke-linejoin="round"/>
<path d="M36.4473 15.5329C37.7016 14.7592 39.3498 14.7817 40.595 15.5644C46.0152 18.5869 51.4172 21.641 56.8327 24.668C58.0417 25.3022 59.0923 26.4942 59.0153 27.929C59.0243 34.226 59.0243 40.523 59.0153 46.8155C59.1149 48.2683 58.1549 49.5322 56.8961 50.1709C51.3855 53.2565 45.8838 56.3555 40.3641 59.4276C39.1415 60.1382 37.5703 60.0708 36.3885 59.3106C34.3916 58.1322 32.3041 57.0842 30.4069 55.7483C31.4936 55.303 32.5668 54.8262 33.6173 54.3C35.27 55.1726 36.8458 56.1801 38.5076 57.0392C44.3262 53.7737 50.1719 50.5578 55.9498 47.2338C55.9588 40.6804 55.995 34.1271 55.9316 27.5737C50.1085 24.3802 44.3805 21.0113 38.5167 17.8988C32.5985 20.9753 26.8433 24.3802 21.0111 27.6186C20.9568 34.1495 20.993 40.6759 20.9885 47.2069C22.7906 48.2549 24.5611 49.3703 26.4674 50.2159C27.7761 50.8051 29.7865 50.2789 29.8997 48.6507C29.9767 42.1557 29.8816 35.6518 29.945 29.1524C30.991 29.0265 32.0506 29.0355 33.0965 29.1344C33.092 35.6383 33.1056 42.1378 33.092 48.6417C33.1011 50.3464 32.2906 52.195 30.6604 52.9326C28.6183 53.8952 26.1595 53.5219 24.2306 52.4604C22.5823 51.5563 20.8798 50.7242 19.3131 49.6762C18.2535 48.9475 17.8686 47.6252 17.923 46.3972C17.9411 40.2532 17.9048 34.1046 17.9411 27.956C17.8822 26.4582 18.9463 25.2258 20.2368 24.6006C25.6524 21.596 31.0317 18.5285 36.4473 15.5329Z" fill="#FFC121"/>
<path d="M37.4247 29.9613C40.4178 28.1352 44.2984 28.3061 47.5767 29.1967C50.0626 29.8309 51.5297 32.2777 51.584 34.7246C50.5607 34.936 49.5102 34.9584 48.4823 34.7965C48.1337 33.5101 47.4771 32.1113 46.0281 31.8054C44.0312 31.3557 41.8351 31.2747 39.888 31.9719C38.6654 32.3767 38.1175 34.5401 39.5167 35.0304C42.9852 36.1909 46.8703 35.7995 50.1985 37.4503C52.7704 38.8221 52.7115 42.6903 50.8505 44.6289C49.0528 46.3965 46.3722 46.7474 43.9588 46.8328C41.4593 46.8283 38.7424 46.5809 36.6912 45.0157C35.2422 43.9317 34.6309 42.0561 34.7849 40.3064C35.7811 40.3019 36.7727 40.3019 37.7643 40.3064C38.0813 41.4759 38.4119 42.9107 39.7431 43.3245C42.1385 44.1521 44.9006 44.1566 47.3231 43.4144C48.7676 43.0726 49.4921 40.8057 48.0612 40.0051C44.6516 38.5927 40.694 39.2854 37.3659 37.5897C34.5132 36.1009 34.7351 31.5131 37.4247 29.9613Z" fill="#FFC121"/>
</svg>
