<svg width="55" height="55" viewBox="0 0 55 55" fill="none" xmlns="http://www.w3.org/2000/svg">
<path d="M29.8652 11.3365C30.7474 10.3344 31.4201 9.17045 31.8446 7.91143C32.2691 6.65242 32.437 5.32317 32.3388 4C29.6304 4.21547 27.1162 5.47088 25.3379 7.49577C24.4864 8.46625 23.8411 9.59525 23.4403 10.8159C23.0394 12.0366 22.8912 13.3241 23.0043 14.6023C24.3255 14.6131 25.6315 14.3242 26.8212 13.7579C28.0109 13.1916 29.0524 12.3631 29.8652 11.3365ZM35.7459 28.4474C35.7615 26.6851 36.2326 24.9558 37.1145 23.4227C37.9964 21.8896 39.2602 20.6032 40.7865 19.685C39.8233 18.3171 38.5498 17.1892 37.0673 16.3908C35.5847 15.5924 33.9338 15.1454 32.2455 15.0853C28.605 14.7173 25.2446 17.1781 23.3077 17.1781C21.3708 17.1781 18.6405 15.1313 15.6068 15.1773C13.6235 15.2416 11.691 15.8115 9.99777 16.8313C8.30456 17.851 6.90843 19.2859 5.94556 20.9959C1.83839 28.0334 4.89543 38.4977 9.00261 44.1783C10.8695 46.9611 13.2031 50.1119 16.2835 49.9969C19.3639 49.882 20.3673 48.1111 23.9378 48.1111C27.5082 48.1111 28.605 49.9969 31.6387 49.9279C34.6724 49.859 36.8194 47.0761 38.7796 44.2933C40.1682 42.273 41.2529 40.0652 42 37.7388C40.1506 36.9614 38.5727 35.6672 37.4612 34.016C36.3497 32.3648 35.7534 30.4289 35.7459 28.4474Z" fill="#182F43"/>
<path d="M18.2024 34.1513L18.2041 34.1496C19.0767 33.2464 19.5128 32.1354 19.5128 30.8477C19.5128 29.5603 19.0769 28.4524 18.2032 27.5563C17.3307 26.6536 16.2535 26.1954 15.0009 26.1954C13.7479 26.1954 12.6704 26.6539 11.7977 27.5572C10.9314 28.4537 10.5 29.5614 10.5 30.8477C10.5 32.134 10.9313 33.2444 11.7961 34.1479L11.796 34.148L11.7994 34.1513C12.6725 35.0465 13.7494 35.5 15.0009 35.5C16.2523 35.5 17.3293 35.0465 18.2024 34.1513ZM19.5818 34.8403V35.3403H20.0818H23.3553C24.149 35.3403 24.8433 35.0814 25.4054 34.555C25.5957 34.3769 25.7538 34.1814 25.8801 33.9702C26.146 34.4249 26.4951 34.7902 26.9314 35.0502C27.449 35.3586 28.0573 35.5 28.7332 35.5C29.631 35.5 30.4082 35.2343 31.0216 34.673C31.6541 34.0942 31.9445 33.2974 31.9445 32.3535V26.8551V26.3551H31.4445H29.9346H29.4346V26.8551V32.3535C29.4346 32.5942 29.3682 32.7254 29.284 32.8093C29.214 32.879 29.0638 32.96 28.7332 32.96C28.5159 32.96 28.3622 32.9136 28.2496 32.8449C28.1382 32.777 28.0351 32.6678 27.949 32.4896L27.7124 31.9999L27.2442 32.2767L26.2399 32.8707C26.252 32.7579 26.258 32.6425 26.258 32.5246C26.258 31.7578 25.9995 31.1173 25.4897 30.6367C25.811 30.2042 25.9714 29.6866 25.9714 29.1024C25.9714 28.3189 25.6925 27.6471 25.1294 27.1285C24.5819 26.6098 23.902 26.3551 23.1238 26.3551H20.0818H19.5818V26.8551V34.8403ZM22.1028 29.5834V28.8267H23.1238C23.2369 28.8267 23.2985 28.8592 23.3514 28.9166C23.4116 28.9818 23.4504 29.0657 23.4504 29.205C23.4504 29.3376 23.4125 29.4187 23.3484 29.485L23.3483 29.4849L23.3404 29.4935C23.2843 29.5544 23.2246 29.5834 23.1238 29.5834H22.1028ZM23.6277 32.1L23.6276 32.1001L23.635 32.1077C23.705 32.1802 23.748 32.272 23.748 32.4219C23.748 32.5809 23.7036 32.6828 23.6313 32.7627C23.5632 32.8316 23.4832 32.8687 23.3553 32.8687H22.1028V31.9865H23.3553C23.4785 31.9865 23.5569 32.0235 23.6277 32.1ZM37.3668 31.4071V31.9071H37.8668H42H42.5V31.4071V29.9926V29.4926H42H37.8668H37.3668V29.9926V31.4071ZM52.5689 28.3109L52.9887 28.059L52.7456 27.6339C52.3695 26.9765 51.8415 26.4569 51.1712 26.0793C50.5058 25.6927 49.7768 25.5 48.994 25.5C47.7047 25.5 46.6121 25.9494 45.7553 26.853C44.9027 27.7443 44.4821 28.856 44.4821 30.1523C44.4821 31.4424 44.9036 32.553 45.7545 33.4508C46.6114 34.3549 47.7043 34.8046 48.994 34.8046C49.7823 34.8046 50.5147 34.6166 51.1812 34.2372L51.1854 34.2348C51.8475 33.8494 52.3703 33.3266 52.7456 32.6707L52.9887 32.2456L52.5689 31.9936L51.2573 31.2065L50.8034 30.9342L50.5573 31.4028C50.4205 31.6634 50.2188 31.8724 49.9383 32.0327C49.6673 32.1843 49.3565 32.2646 48.994 32.2646C48.3648 32.2646 47.896 32.0659 47.5391 31.6913C47.1843 31.3115 46.9921 30.8133 46.9921 30.1523C46.9921 29.4822 47.1852 28.9807 47.5391 28.6019C47.896 28.2273 48.3648 28.0286 48.994 28.0286C49.3539 28.0286 49.6626 28.1114 49.9328 28.2687L49.9328 28.2688L49.9399 28.2727C50.2091 28.4237 50.4129 28.6316 50.559 28.905L50.8067 29.3684L51.2573 29.0981L52.5689 28.3109ZM15.0009 32.96C14.4252 32.96 13.9644 32.7674 13.5846 32.3811C13.2079 31.9905 13.01 31.4928 13.01 30.8477C13.01 30.2018 13.2084 29.7037 13.586 29.3129C13.9666 28.9189 14.4271 28.724 15.0009 28.724C15.5747 28.724 16.0352 28.9189 16.4158 29.3129C16.7934 29.7037 16.9918 30.2018 16.9918 30.8477C16.9918 31.4928 16.7939 31.9905 16.4171 32.3811C16.0374 32.7675 15.5765 32.96 15.0009 32.96Z" fill="#FBFBFF" stroke="#182F43"/>
</svg>
