<svg width="55" height="55" viewBox="0 0 55 55" fill="none" xmlns="http://www.w3.org/2000/svg">
<path fill-rule="evenodd" clip-rule="evenodd" d="M35.3144 9.19826C34.4643 9.30036 33.6602 9.41037 33.5273 9.44274C33.3945 9.47522 32.4817 9.59467 31.4988 9.70833C30.516 9.82199 29.5489 9.93941 29.3496 9.96925L28.9874 10.0235V27.0118C28.9874 36.3553 29.0221 44 29.0646 44C29.1071 44 29.1832 43.9588 29.2337 43.9085C29.2842 43.8581 29.521 43.7459 29.7601 43.659C30.319 43.4559 31.2179 43.0808 32.827 42.3791C33.0794 42.2691 33.684 42.0191 34.1707 41.8236C34.6573 41.6282 35.2007 41.3996 35.3781 41.3157C35.5556 41.2317 36.1137 41.0001 36.6184 40.8009C37.1231 40.6017 37.6665 40.3729 37.8258 40.2924C37.9852 40.2119 38.5286 39.9836 39.0333 39.785C39.538 39.5864 40.0813 39.358 40.2407 39.2776C40.4001 39.1971 40.9435 38.9687 41.4482 38.7701C41.9529 38.5715 42.4962 38.3432 42.6556 38.2627C43.0529 38.062 44.708 37.4034 44.8151 37.4034C45.066 37.4034 45.1674 36.9674 45.7006 33.5977C45.8066 32.9279 45.934 32.2429 45.9837 32.0754C46.0334 31.908 46.143 31.2686 46.2271 30.6546C46.3114 30.0406 46.4209 29.4013 46.4706 29.2338C46.5571 28.943 46.7552 27.7732 47.1496 25.2251C47.2489 24.5832 47.3739 23.8982 47.4273 23.7028C47.5213 23.3587 47.7419 22.0573 48.1156 19.6434C48.2149 19.0015 48.3399 18.3165 48.3933 18.1211C48.4739 17.8259 48.6576 16.7692 48.9505 14.9157L49 14.6027L48.0012 14.7891C47.0635 14.9641 46.2104 15.1332 43.2116 15.7383C38.3522 16.7189 36.6196 17.0398 36.5544 16.9715C36.4892 16.9029 36.6999 13.2591 36.8107 12.5394C36.9389 11.7067 37.0414 8.98534 36.944 9.00006C36.8977 9.00696 36.1644 9.09617 35.3144 9.19826ZM7.17242 15.6808C7.26728 16.2694 7.45187 17.3676 7.58266 18.1211C7.71345 18.8746 7.91225 20.062 8.02459 20.7597C8.13683 21.4574 8.27236 22.1881 8.32577 22.3835C8.37919 22.5789 8.50496 23.2639 8.60532 23.9058C9.03295 26.6411 9.20035 27.6308 9.29173 27.9652C9.34514 28.1606 9.47091 28.8456 9.57127 29.4875C10.0235 32.38 10.1637 33.212 10.2469 33.4962C10.2958 33.6637 10.4033 34.2802 10.4856 34.8663C10.5678 35.4524 10.6742 36.0689 10.7221 36.2363C10.7699 36.4038 10.8362 36.7083 10.8694 36.913C10.9253 37.2582 10.9701 37.3002 11.4823 37.4892C11.7862 37.6013 12.3609 37.8372 12.7593 38.0134C13.4436 38.316 14.2536 38.6513 15.1259 38.9929C15.3384 39.0761 15.6427 39.207 15.8021 39.2836C16.1078 39.4308 16.8935 39.7588 17.5408 40.0095C17.7533 40.0918 18.0576 40.2219 18.217 40.2985C18.5227 40.4457 19.3084 40.7737 19.9557 41.0243C20.1682 41.1066 20.4725 41.2367 20.6318 41.3134C20.9376 41.4605 21.7233 41.7885 22.3706 42.0392C22.5831 42.1215 22.8873 42.2512 23.0467 42.3275C23.2061 42.4037 23.7495 42.6327 24.2542 42.8362C24.7589 43.0397 25.3022 43.2673 25.4616 43.3419C25.621 43.4165 26.0231 43.5897 26.3551 43.7269L26.9588 43.9765V31.3134C26.9588 19.3494 26.9495 18.6461 26.7898 18.5755C26.6968 18.5343 26.0774 18.3968 25.4133 18.27C24.1453 18.0278 23.4172 17.8821 17.9022 16.7667C17.2252 16.6297 16.0846 16.4006 15.3674 16.2575C14.6502 16.1144 13.4765 15.8781 12.7593 15.7323C10.3024 15.2331 8.94302 14.9649 7.97185 14.7878L7 14.6105L7.17242 15.6808ZM14.8361 23.7813C15.2611 23.8877 15.761 24.0283 15.947 24.0936C16.3029 24.2187 17.3114 24.4921 18.6033 24.814C19.0284 24.9198 19.5392 25.0792 19.7383 25.1679C20.0747 25.3178 20.1009 25.3601 20.1039 25.7592C20.1084 26.3249 20.3766 30.5042 20.4832 31.6695C20.618 33.1433 20.606 34.1559 20.4536 34.1559C20.3822 34.1559 20.067 34.0624 19.7533 33.9482C19.4396 33.834 18.9221 33.6541 18.6033 33.5485C17.9204 33.3221 15.5912 32.493 15.0116 32.2701C14.5318 32.0855 14.5609 32.1873 14.3152 29.8266C14.2155 28.8689 14.1115 28.0468 14.084 27.9998C14.0567 27.9528 13.9633 27.1838 13.8766 26.2907C13.7901 25.3976 13.6718 24.4744 13.614 24.2392C13.4803 23.6952 13.5585 23.458 13.8472 23.5321C13.9661 23.5627 14.4111 23.6747 14.8361 23.7813ZM42.4077 23.8297C42.4042 24.011 42.3401 24.5934 42.2653 25.1236C42.1905 25.6539 42.0428 26.8641 41.9371 27.813C41.8315 28.7619 41.7031 29.6981 41.652 29.8935C41.6009 30.0888 41.5288 30.6499 41.4919 31.1404C41.4268 32.0048 41.4156 32.0371 41.1278 32.1934C40.9646 32.2821 40.5678 32.4385 40.2461 32.5408C39.289 32.8454 38.4244 33.1508 38.1156 33.2933C37.9562 33.367 37.6302 33.4797 37.3912 33.5438C37.1521 33.6078 36.8261 33.7227 36.6667 33.799C36.3271 33.9615 35.4666 34.1992 35.4191 34.1435C35.3602 34.0746 35.7375 27.6283 35.8413 26.9308C35.8968 26.5572 35.9422 26.0298 35.9422 25.7587C35.9422 25.193 35.9377 25.1961 37.3429 24.8256C37.7679 24.7135 38.5503 24.5019 39.0816 24.3553C39.6129 24.2086 40.4524 23.9837 40.9472 23.8555C41.4421 23.7271 41.8732 23.5946 41.9052 23.5609C41.9371 23.5274 42.0647 23.4999 42.1888 23.4999C42.3799 23.4999 42.4132 23.5499 42.4077 23.8297Z" fill="#182F43"/>
</svg>
