<svg width="948" height="734" viewBox="0 0 948 734" fill="none" xmlns="http://www.w3.org/2000/svg">
<path d="M189.304 396.242L190.9 401.154H196.064L191.886 404.189L193.482 409.1L189.304 406.065L185.126 409.1L186.722 404.189L182.544 401.154H187.708L189.304 396.242Z" fill="#FFC100"/>
<path d="M87 598.354H316" stroke="#182F43" stroke-miterlimit="10"/>
<g filter="url(#filter0_d_1513_7640)">
<path d="M256.027 320H139.068C132.001 320 126.271 325.729 126.271 332.797V585.398C126.271 592.466 132.001 598.195 139.068 598.195H256.027C263.094 598.195 268.824 592.466 268.824 585.398V332.797C268.824 325.729 263.094 320 256.027 320Z" fill="#182F43"/>
<path d="M202.399 590.182C202.399 589.223 202.115 588.286 201.582 587.489C201.049 586.692 200.292 586.071 199.407 585.704C198.521 585.337 197.546 585.241 196.606 585.428C195.666 585.615 194.802 586.077 194.124 586.755C193.446 587.433 192.985 588.296 192.798 589.237C192.611 590.177 192.707 591.151 193.074 592.037C193.44 592.923 194.062 593.68 194.859 594.212C195.656 594.745 196.593 595.029 197.552 595.029C198.837 595.029 200.07 594.519 200.979 593.61C201.888 592.701 202.399 591.468 202.399 590.182V590.182Z" stroke="#FBFBFF" stroke-linecap="round" stroke-linejoin="round"/>
<path d="M256.027 320H139.068C132.001 320 126.271 325.729 126.271 332.797V585.398C126.271 592.466 132.001 598.195 139.068 598.195H256.027C263.094 598.195 268.824 592.466 268.824 585.398V332.797C268.824 325.729 263.094 320 256.027 320Z" stroke="#182F43" stroke-linecap="round" stroke-linejoin="round"/>
<path d="M262.496 338.886H132.617V581.678H262.496V338.886Z" fill="#FBFBFF" stroke="#182F43" stroke-linecap="round" stroke-linejoin="round"/>
<path d="M258.072 341.407H247.302V347.312H258.072V341.407Z" stroke="#182F43" stroke-width="0.821067" stroke-linecap="round" stroke-linejoin="round"/>
<path d="M255.701 341.407H247.302V347.312H255.701V341.407Z" fill="#182F43" stroke="#182F43" stroke-width="0.725073" stroke-linecap="round" stroke-linejoin="round"/>
<path d="M259.561 343.063H258.045V345.663H259.561V343.063Z" fill="#182F43" stroke="#182F43" stroke-width="0.725073" stroke-linecap="round" stroke-linejoin="round"/>
<path d="M137.508 343.239H135.534V346.623H137.508V343.239Z" fill="#182F43" stroke="#182F43" stroke-width="0.883086" stroke-linecap="round" stroke-linejoin="round"/>
<path d="M140.61 342.05H138.636V346.624H140.61V342.05Z" fill="#182F43" stroke="#182F43" stroke-width="0.883086" stroke-linecap="round" stroke-linejoin="round"/>
<path d="M143.722 340.649H141.748V346.625H143.722V340.649Z" fill="#182F43" stroke="#182F43" stroke-width="0.883086" stroke-linecap="round" stroke-linejoin="round"/>
<path d="M259.262 350.685H134.735V367.98H259.262V350.685Z" fill="#182F43"/>
<path d="M229.514 355.527H139.578V363.137H229.514V355.527Z" fill="#FBFBFF"/>
<path d="M254.419 354.835H239.891V356.219H254.419V354.835Z" fill="#FBFBFF"/>
<path d="M254.419 358.294H239.891V359.678H254.419V358.294Z" fill="#FBFBFF"/>
<path d="M254.419 361.753H239.891V363.137H254.419V361.753Z" fill="#FBFBFF"/>
</g>
<path d="M165.495 380.173H139.536V405.514H165.495V380.173Z" fill="#AA4337" stroke="#182F43" stroke-miterlimit="10"/>
<path d="M218.428 380.864H174.369C173.223 380.864 172.294 381.793 172.294 382.94C172.294 384.086 173.223 385.015 174.369 385.015H218.428C219.574 385.015 220.504 384.086 220.504 382.94C220.504 381.793 219.574 380.864 218.428 380.864Z" fill="#182F43" stroke="#182F43" stroke-miterlimit="10"/>
<path d="M219.577 389.444H173.221C172.709 389.444 172.294 389.859 172.294 390.371C172.294 390.883 172.709 391.299 173.221 391.299H219.577C220.089 391.299 220.504 390.883 220.504 390.371C220.504 389.859 220.089 389.444 219.577 389.444Z" fill="#BDBDBD"/>
<path d="M177.048 397.446C177.108 397.261 177.369 397.261 177.429 397.446L178.165 399.712C178.192 399.794 178.269 399.85 178.355 399.85H180.738C180.932 399.85 181.012 400.098 180.855 400.212L178.928 401.612C178.858 401.663 178.828 401.753 178.855 401.836L179.591 404.102C179.651 404.286 179.44 404.439 179.284 404.325L177.356 402.925C177.286 402.874 177.191 402.874 177.121 402.925L175.194 404.325C175.037 404.439 174.826 404.286 174.886 404.102L175.622 401.836C175.649 401.753 175.619 401.663 175.549 401.612L173.622 400.212C173.465 400.098 173.546 399.85 173.739 399.85H176.122C176.209 399.85 176.285 399.794 176.312 399.712L177.048 397.446Z" fill="#FFC100"/>
<path d="M186.319 397.446C186.379 397.261 186.64 397.261 186.7 397.446L187.436 399.712C187.463 399.794 187.54 399.85 187.626 399.85H190.009C190.203 399.85 190.283 400.098 190.126 400.212L188.199 401.612C188.129 401.663 188.099 401.753 188.126 401.836L188.862 404.102C188.922 404.286 188.711 404.439 188.555 404.325L186.627 402.925C186.557 402.874 186.462 402.874 186.392 402.925L184.465 404.325C184.308 404.439 184.097 404.286 184.157 404.102L184.893 401.836C184.92 401.753 184.89 401.663 184.82 401.612L182.893 400.212C182.736 400.098 182.817 399.85 183.01 399.85H185.393C185.48 399.85 185.556 399.794 185.583 399.712L186.319 397.446Z" fill="#FFC100"/>
<path d="M195.59 397.446C195.65 397.261 195.911 397.261 195.971 397.446L196.707 399.712C196.734 399.794 196.811 399.85 196.897 399.85H199.28C199.474 399.85 199.554 400.098 199.397 400.212L197.47 401.612C197.4 401.663 197.37 401.753 197.397 401.836L198.133 404.102C198.193 404.286 197.982 404.439 197.826 404.325L195.898 402.925C195.828 402.874 195.733 402.874 195.663 402.925L193.736 404.325C193.579 404.439 193.368 404.286 193.428 404.102L194.164 401.836C194.191 401.753 194.161 401.663 194.091 401.612L192.164 400.212C192.007 400.098 192.088 399.85 192.281 399.85H194.664C194.751 399.85 194.827 399.794 194.854 399.712L195.59 397.446Z" fill="#FFC100"/>
<path d="M204.862 397.446C204.922 397.261 205.182 397.261 205.242 397.446L205.979 399.712C206.005 399.794 206.082 399.85 206.169 399.85H208.551C208.745 399.85 208.826 400.098 208.669 400.212L206.741 401.612C206.671 401.663 206.642 401.753 206.669 401.836L207.405 404.102C207.465 404.286 207.254 404.439 207.097 404.325L205.17 402.925C205.1 402.874 205.005 402.874 204.935 402.925L203.007 404.325C202.85 404.439 202.639 404.286 202.699 404.102L203.435 401.836C203.462 401.753 203.433 401.663 203.363 401.612L201.435 400.212C201.279 400.098 201.359 399.85 201.553 399.85H203.935C204.022 399.85 204.099 399.794 204.126 399.712L204.862 397.446Z" fill="#FFC100"/>
<path d="M214.133 397.446C214.193 397.261 214.453 397.261 214.513 397.446L215.25 399.712C215.276 399.794 215.353 399.85 215.44 399.85H217.822C218.016 399.85 218.097 400.098 217.94 400.212L216.012 401.612C215.942 401.663 215.913 401.753 215.94 401.836L216.676 404.102C216.736 404.286 216.525 404.439 216.368 404.325L214.441 402.925C214.371 402.874 214.276 402.874 214.206 402.925L212.278 404.325C212.121 404.439 211.91 404.286 211.97 404.102L212.706 401.836C212.733 401.753 212.704 401.663 212.634 401.612L210.706 400.212C210.55 400.098 210.63 399.85 210.824 399.85H213.206C213.293 399.85 213.37 399.794 213.397 399.712L214.133 397.446Z" fill="#E0E0E0"/>
<path d="M255.734 380.173H229.775V394.389H255.734V380.173Z" stroke="#BDBDBD" stroke-miterlimit="10"/>
<path d="M237.503 385.373H235.056V386.931H237.42V387.805H235.056V390.062H234.102V384.499H237.503V385.373Z" fill="#BDBDBD"/>
<path d="M241.705 390.062L240.478 388.035H239.349V390.062H238.395V384.499H240.718C241.238 384.499 241.678 384.674 242.037 385.024C242.402 385.368 242.585 385.789 242.585 386.287C242.585 386.642 242.477 386.968 242.261 387.264C242.051 387.556 241.774 387.768 241.432 387.9L242.751 390.062H241.705ZM239.349 385.357V387.217H240.718C240.972 387.217 241.188 387.127 241.365 386.947C241.542 386.766 241.631 386.547 241.631 386.287C241.631 386.027 241.542 385.808 241.365 385.627C241.188 385.447 240.972 385.357 240.718 385.357H239.349Z" fill="#BDBDBD"/>
<path d="M244.437 389.188H247.009V390.062H243.483V384.499H246.967V385.373H244.437V386.819H246.76V387.686H244.437V389.188Z" fill="#BDBDBD"/>
<path d="M248.836 389.188H251.408V390.062H247.882V384.499H251.366V385.373H248.836V386.819H251.159V387.686H248.836V389.188Z" fill="#BDBDBD"/>
<path d="M146.335 397.478V387.589H158.078V395.171M146.335 397.478H158.078V395.171M146.335 397.478L150.043 393.522L151.28 394.841L154.37 390.885L158.078 395.171M150.661 390.37C150.661 391.224 149.97 391.915 149.116 391.915C148.263 391.915 147.571 391.224 147.571 390.37C147.571 389.517 148.263 388.825 149.116 388.825C149.97 388.825 150.661 389.517 150.661 390.37Z" stroke="#FBFBFF"/>
<path d="M165.495 415.405H139.536V440.746H165.495V415.405Z" fill="#AA4337" stroke="#182F43" stroke-miterlimit="10"/>
<path d="M218.428 416.097H174.369C173.223 416.097 172.294 417.026 172.294 418.172C172.294 419.318 173.223 420.248 174.369 420.248H218.428C219.574 420.248 220.504 419.318 220.504 418.172C220.504 417.026 219.574 416.097 218.428 416.097Z" fill="#182F43" stroke="#182F43" stroke-miterlimit="10"/>
<path d="M219.577 424.677H173.221C172.709 424.677 172.294 425.092 172.294 425.604C172.294 426.116 172.709 426.531 173.221 426.531H219.577C220.089 426.531 220.504 426.116 220.504 425.604C220.504 425.092 220.089 424.677 219.577 424.677Z" fill="#BDBDBD"/>
<path d="M177.048 432.679C177.108 432.495 177.369 432.495 177.429 432.679L178.165 434.945C178.192 435.028 178.269 435.083 178.355 435.083H180.738C180.932 435.083 181.012 435.331 180.855 435.445L178.928 436.846C178.858 436.896 178.828 436.987 178.855 437.069L179.591 439.335C179.651 439.519 179.44 439.673 179.284 439.559L177.356 438.158C177.286 438.107 177.191 438.107 177.121 438.158L175.194 439.559C175.037 439.673 174.826 439.519 174.886 439.335L175.622 437.069C175.649 436.987 175.619 436.896 175.549 436.846L173.622 435.445C173.465 435.331 173.546 435.083 173.739 435.083H176.122C176.209 435.083 176.285 435.028 176.312 434.945L177.048 432.679Z" fill="#FFC100"/>
<path d="M186.319 432.679C186.379 432.495 186.64 432.495 186.7 432.679L187.436 434.945C187.463 435.028 187.54 435.083 187.626 435.083H190.009C190.203 435.083 190.283 435.331 190.126 435.445L188.199 436.846C188.129 436.896 188.099 436.987 188.126 437.069L188.862 439.335C188.922 439.519 188.711 439.673 188.555 439.559L186.627 438.158C186.557 438.107 186.462 438.107 186.392 438.158L184.465 439.559C184.308 439.673 184.097 439.519 184.157 439.335L184.893 437.069C184.92 436.987 184.89 436.896 184.82 436.846L182.893 435.445C182.736 435.331 182.817 435.083 183.01 435.083H185.393C185.48 435.083 185.556 435.028 185.583 434.945L186.319 432.679Z" fill="#FFC100"/>
<path d="M195.59 432.679C195.65 432.495 195.911 432.495 195.971 432.679L196.707 434.945C196.734 435.028 196.811 435.083 196.897 435.083H199.28C199.474 435.083 199.554 435.331 199.397 435.445L197.47 436.846C197.4 436.896 197.37 436.987 197.397 437.069L198.133 439.335C198.193 439.519 197.982 439.673 197.826 439.559L195.898 438.158C195.828 438.107 195.733 438.107 195.663 438.158L193.736 439.559C193.579 439.673 193.368 439.519 193.428 439.335L194.164 437.069C194.191 436.987 194.161 436.896 194.091 436.846L192.164 435.445C192.007 435.331 192.088 435.083 192.281 435.083H194.664C194.751 435.083 194.827 435.028 194.854 434.945L195.59 432.679Z" fill="#FFC100"/>
<path d="M204.862 432.679C204.922 432.495 205.182 432.495 205.242 432.679L205.979 434.945C206.005 435.028 206.082 435.083 206.169 435.083H208.551C208.745 435.083 208.826 435.331 208.669 435.445L206.741 436.846C206.671 436.896 206.642 436.987 206.669 437.069L207.405 439.335C207.465 439.519 207.254 439.673 207.097 439.559L205.17 438.158C205.1 438.107 205.005 438.107 204.935 438.158L203.007 439.559C202.85 439.673 202.639 439.519 202.699 439.335L203.435 437.069C203.462 436.987 203.433 436.896 203.363 436.846L201.435 435.445C201.279 435.331 201.359 435.083 201.553 435.083H203.935C204.022 435.083 204.099 435.028 204.126 434.945L204.862 432.679Z" fill="#FFC100"/>
<path d="M214.133 432.679C214.193 432.495 214.453 432.495 214.513 432.679L215.25 434.945C215.276 435.028 215.353 435.083 215.44 435.083H217.822C218.016 435.083 218.097 435.331 217.94 435.445L216.012 436.846C215.942 436.896 215.913 436.987 215.94 437.069L216.676 439.335C216.736 439.519 216.525 439.673 216.368 439.559L214.441 438.158C214.371 438.107 214.276 438.107 214.206 438.158L212.278 439.559C212.121 439.673 211.91 439.519 211.97 439.335L212.706 437.069C212.733 436.987 212.704 436.896 212.634 436.846L210.706 435.445C210.55 435.331 210.63 435.083 210.824 435.083H213.206C213.293 435.083 213.37 435.028 213.397 434.945L214.133 432.679Z" fill="#E0E0E0"/>
<path d="M255.734 415.405H229.775V429.621H255.734V415.405Z" stroke="#BDBDBD" stroke-miterlimit="10"/>
<path d="M237.503 420.605H235.056V422.162H237.42V423.036H235.056V425.293H234.102V419.73H237.503V420.605Z" fill="#BDBDBD"/>
<path d="M241.705 425.293L240.478 423.267H239.349V425.293H238.395V419.73H240.718C241.238 419.73 241.678 419.905 242.037 420.255C242.402 420.599 242.585 421.02 242.585 421.518C242.585 421.873 242.477 422.199 242.261 422.496C242.051 422.787 241.774 422.999 241.432 423.132L242.751 425.293H241.705ZM239.349 420.589V422.448H240.718C240.972 422.448 241.188 422.358 241.365 422.178C241.542 421.998 241.631 421.778 241.631 421.518C241.631 421.259 241.542 421.039 241.365 420.859C241.188 420.679 240.972 420.589 240.718 420.589H239.349Z" fill="#BDBDBD"/>
<path d="M244.437 424.419H247.009V425.293H243.483V419.73H246.967V420.605H244.437V422.051H246.76V422.917H244.437V424.419Z" fill="#BDBDBD"/>
<path d="M248.836 424.419H251.408V425.293H247.882V419.73H251.366V420.605H248.836V422.051H251.159V422.917H248.836V424.419Z" fill="#BDBDBD"/>
<path d="M146.335 432.71V422.821H158.078V430.403M146.335 432.71H158.078V430.403M146.335 432.71L150.043 428.755L151.28 430.073L154.37 426.117L158.078 430.403M150.661 425.603C150.661 426.456 149.97 427.148 149.116 427.148C148.263 427.148 147.571 426.456 147.571 425.603C147.571 424.749 148.263 424.057 149.116 424.057C149.97 424.057 150.661 424.749 150.661 425.603Z" stroke="#FBFBFF"/>
<path d="M165.495 450.634H139.536V475.975H165.495V450.634Z" fill="#AA4337" stroke="#182F43" stroke-miterlimit="10"/>
<path d="M218.428 451.325H174.369C173.223 451.325 172.294 452.254 172.294 453.401C172.294 454.547 173.223 455.476 174.369 455.476H218.428C219.574 455.476 220.504 454.547 220.504 453.401C220.504 452.254 219.574 451.325 218.428 451.325Z" fill="#182F43" stroke="#182F43" stroke-miterlimit="10"/>
<path d="M219.577 459.905H173.221C172.709 459.905 172.294 460.32 172.294 460.832C172.294 461.344 172.709 461.759 173.221 461.759H219.577C220.089 461.759 220.504 461.344 220.504 460.832C220.504 460.32 220.089 459.905 219.577 459.905Z" fill="#BDBDBD"/>
<path d="M177.048 467.908C177.108 467.723 177.369 467.723 177.429 467.908L178.165 470.174C178.192 470.256 178.269 470.312 178.355 470.312H180.738C180.932 470.312 181.012 470.56 180.855 470.674L178.928 472.074C178.858 472.125 178.828 472.215 178.855 472.298L179.591 474.564C179.651 474.748 179.44 474.901 179.284 474.787L177.356 473.387C177.286 473.336 177.191 473.336 177.121 473.387L175.194 474.787C175.037 474.901 174.826 474.748 174.886 474.564L175.622 472.298C175.649 472.215 175.619 472.125 175.549 472.074L173.622 470.674C173.465 470.56 173.546 470.312 173.739 470.312H176.122C176.209 470.312 176.285 470.256 176.312 470.174L177.048 467.908Z" fill="#FFC100"/>
<path d="M186.319 467.908C186.379 467.723 186.64 467.723 186.7 467.908L187.436 470.174C187.463 470.256 187.54 470.312 187.626 470.312H190.009C190.203 470.312 190.283 470.56 190.126 470.674L188.199 472.074C188.129 472.125 188.099 472.215 188.126 472.298L188.862 474.564C188.922 474.748 188.711 474.901 188.555 474.787L186.627 473.387C186.557 473.336 186.462 473.336 186.392 473.387L184.465 474.787C184.308 474.901 184.097 474.748 184.157 474.564L184.893 472.298C184.92 472.215 184.89 472.125 184.82 472.074L182.893 470.674C182.736 470.56 182.817 470.312 183.01 470.312H185.393C185.48 470.312 185.556 470.256 185.583 470.174L186.319 467.908Z" fill="#FFC100"/>
<path d="M195.59 467.908C195.65 467.723 195.911 467.723 195.971 467.908L196.707 470.174C196.734 470.256 196.811 470.312 196.897 470.312H199.28C199.474 470.312 199.554 470.56 199.397 470.674L197.47 472.074C197.4 472.125 197.37 472.215 197.397 472.298L198.133 474.564C198.193 474.748 197.982 474.901 197.826 474.787L195.898 473.387C195.828 473.336 195.733 473.336 195.663 473.387L193.736 474.787C193.579 474.901 193.368 474.748 193.428 474.564L194.164 472.298C194.191 472.215 194.161 472.125 194.091 472.074L192.164 470.674C192.007 470.56 192.088 470.312 192.281 470.312H194.664C194.751 470.312 194.827 470.256 194.854 470.174L195.59 467.908Z" fill="#FFC100"/>
<path d="M204.862 467.908C204.922 467.723 205.182 467.723 205.242 467.908L205.979 470.174C206.005 470.256 206.082 470.312 206.169 470.312H208.551C208.745 470.312 208.826 470.56 208.669 470.674L206.741 472.074C206.671 472.125 206.642 472.215 206.669 472.298L207.405 474.564C207.465 474.748 207.254 474.901 207.097 474.787L205.17 473.387C205.1 473.336 205.005 473.336 204.935 473.387L203.007 474.787C202.85 474.901 202.639 474.748 202.699 474.564L203.435 472.298C203.462 472.215 203.433 472.125 203.363 472.074L201.435 470.674C201.279 470.56 201.359 470.312 201.553 470.312H203.935C204.022 470.312 204.099 470.256 204.126 470.174L204.862 467.908Z" fill="#FFC100"/>
<path d="M214.133 467.908C214.193 467.723 214.453 467.723 214.513 467.908L215.25 470.174C215.276 470.256 215.353 470.312 215.44 470.312H217.822C218.016 470.312 218.097 470.56 217.94 470.674L216.012 472.074C215.942 472.125 215.913 472.215 215.94 472.298L216.676 474.564C216.736 474.748 216.525 474.901 216.368 474.787L214.441 473.387C214.371 473.336 214.276 473.336 214.206 473.387L212.278 474.787C212.121 474.901 211.91 474.748 211.97 474.564L212.706 472.298C212.733 472.215 212.704 472.125 212.634 472.074L210.706 470.674C210.55 470.56 210.63 470.312 210.824 470.312H213.206C213.293 470.312 213.37 470.256 213.397 470.174L214.133 467.908Z" fill="#E0E0E0"/>
<path d="M255.734 450.634H229.775V464.849H255.734V450.634Z" stroke="#BDBDBD" stroke-miterlimit="10"/>
<path d="M237.503 455.834H235.056V457.392H237.42V458.266H235.056V460.523H234.102V454.96H237.503V455.834Z" fill="#BDBDBD"/>
<path d="M241.705 460.523L240.478 458.496H239.349V460.523H238.395V454.96H240.718C241.238 454.96 241.678 455.135 242.037 455.484C242.402 455.829 242.585 456.25 242.585 456.748C242.585 457.103 242.477 457.429 242.261 457.725C242.051 458.017 241.774 458.229 241.432 458.361L242.751 460.523H241.705ZM239.349 455.818V457.678H240.718C240.972 457.678 241.188 457.588 241.365 457.408C241.542 457.227 241.631 457.008 241.631 456.748C241.631 456.488 241.542 456.269 241.365 456.088C241.188 455.908 240.972 455.818 240.718 455.818H239.349Z" fill="#BDBDBD"/>
<path d="M244.437 459.648H247.009V460.523H243.483V454.96H246.967V455.834H244.437V457.28H246.76V458.147H244.437V459.648Z" fill="#BDBDBD"/>
<path d="M248.836 459.648H251.408V460.523H247.882V454.96H251.366V455.834H248.836V457.28H251.159V458.147H248.836V459.648Z" fill="#BDBDBD"/>
<path d="M146.335 467.94V458.051H158.078V465.632M146.335 467.94H158.078V465.632M146.335 467.94L150.043 463.984L151.28 465.303L154.37 461.347L158.078 465.632M150.661 460.832C150.661 461.685 149.97 462.377 149.116 462.377C148.263 462.377 147.571 461.685 147.571 460.832C147.571 459.979 148.263 459.287 149.116 459.287C149.97 459.287 150.661 459.979 150.661 460.832Z" stroke="#FBFBFF"/>
<path d="M165.495 485.864H139.536V511.205H165.495V485.864Z" fill="#AA4337" stroke="#182F43" stroke-miterlimit="10"/>
<path d="M218.428 486.556H174.369C173.223 486.556 172.294 487.485 172.294 488.631C172.294 489.777 173.223 490.707 174.369 490.707H218.428C219.574 490.707 220.504 489.777 220.504 488.631C220.504 487.485 219.574 486.556 218.428 486.556Z" fill="#182F43" stroke="#182F43" stroke-miterlimit="10"/>
<path d="M219.577 495.136H173.221C172.709 495.136 172.294 495.551 172.294 496.063C172.294 496.575 172.709 496.99 173.221 496.99H219.577C220.089 496.99 220.504 496.575 220.504 496.063C220.504 495.551 220.089 495.136 219.577 495.136Z" fill="#BDBDBD"/>
<path d="M177.048 503.138C177.108 502.954 177.369 502.954 177.429 503.138L178.165 505.404C178.192 505.486 178.269 505.542 178.355 505.542H180.738C180.932 505.542 181.012 505.79 180.855 505.904L178.928 507.305C178.858 507.355 178.828 507.446 178.855 507.528L179.591 509.794C179.651 509.978 179.44 510.132 179.284 510.018L177.356 508.617C177.286 508.566 177.191 508.566 177.121 508.617L175.194 510.018C175.037 510.132 174.826 509.978 174.886 509.794L175.622 507.528C175.649 507.446 175.619 507.355 175.549 507.305L173.622 505.904C173.465 505.79 173.546 505.542 173.739 505.542H176.122C176.209 505.542 176.285 505.486 176.312 505.404L177.048 503.138Z" fill="#FFC100"/>
<path d="M186.319 503.138C186.379 502.954 186.64 502.954 186.7 503.138L187.436 505.404C187.463 505.486 187.54 505.542 187.626 505.542H190.009C190.203 505.542 190.283 505.79 190.126 505.904L188.199 507.305C188.129 507.355 188.099 507.446 188.126 507.528L188.862 509.794C188.922 509.978 188.711 510.132 188.555 510.018L186.627 508.617C186.557 508.566 186.462 508.566 186.392 508.617L184.465 510.018C184.308 510.132 184.097 509.978 184.157 509.794L184.893 507.528C184.92 507.446 184.89 507.355 184.82 507.305L182.893 505.904C182.736 505.79 182.817 505.542 183.01 505.542H185.393C185.48 505.542 185.556 505.486 185.583 505.404L186.319 503.138Z" fill="#FFC100"/>
<path d="M195.59 503.138C195.65 502.954 195.911 502.954 195.971 503.138L196.707 505.404C196.734 505.486 196.811 505.542 196.897 505.542H199.28C199.474 505.542 199.554 505.79 199.397 505.904L197.47 507.305C197.4 507.355 197.37 507.446 197.397 507.528L198.133 509.794C198.193 509.978 197.982 510.132 197.826 510.018L195.898 508.617C195.828 508.566 195.733 508.566 195.663 508.617L193.736 510.018C193.579 510.132 193.368 509.978 193.428 509.794L194.164 507.528C194.191 507.446 194.161 507.355 194.091 507.305L192.164 505.904C192.007 505.79 192.088 505.542 192.281 505.542H194.664C194.751 505.542 194.827 505.486 194.854 505.404L195.59 503.138Z" fill="#FFC100"/>
<path d="M204.862 503.138C204.922 502.954 205.182 502.954 205.242 503.138L205.979 505.404C206.005 505.486 206.082 505.542 206.169 505.542H208.551C208.745 505.542 208.826 505.79 208.669 505.904L206.741 507.305C206.671 507.355 206.642 507.446 206.669 507.528L207.405 509.794C207.465 509.978 207.254 510.132 207.097 510.018L205.17 508.617C205.1 508.566 205.005 508.566 204.935 508.617L203.007 510.018C202.85 510.132 202.639 509.978 202.699 509.794L203.435 507.528C203.462 507.446 203.433 507.355 203.363 507.305L201.435 505.904C201.279 505.79 201.359 505.542 201.553 505.542H203.935C204.022 505.542 204.099 505.486 204.126 505.404L204.862 503.138Z" fill="#E0E0E0"/>
<path d="M214.133 503.138C214.193 502.954 214.453 502.954 214.513 503.138L215.25 505.404C215.276 505.486 215.353 505.542 215.44 505.542H217.822C218.016 505.542 218.097 505.79 217.94 505.904L216.012 507.305C215.942 507.355 215.913 507.446 215.94 507.528L216.676 509.794C216.736 509.978 216.525 510.132 216.368 510.018L214.441 508.617C214.371 508.566 214.276 508.566 214.206 508.617L212.278 510.018C212.121 510.132 211.91 509.978 211.97 509.794L212.706 507.528C212.733 507.446 212.704 507.355 212.634 507.305L210.706 505.904C210.55 505.79 210.63 505.542 210.824 505.542H213.206C213.293 505.542 213.37 505.486 213.397 505.404L214.133 503.138Z" fill="#E0E0E0"/>
<path d="M255.734 485.864H229.775V500.08H255.734V485.864Z" stroke="#BDBDBD" stroke-miterlimit="10"/>
<path d="M237.503 491.065H235.056V492.622H237.42V493.496H235.056V495.753H234.102V490.19H237.503V491.065Z" fill="#BDBDBD"/>
<path d="M241.705 495.753L240.478 493.727H239.349V495.753H238.395V490.19H240.718C241.238 490.19 241.678 490.365 242.037 490.715C242.402 491.059 242.585 491.48 242.585 491.978C242.585 492.333 242.477 492.659 242.261 492.956C242.051 493.247 241.774 493.459 241.432 493.592L242.751 495.753H241.705ZM239.349 491.049V492.908H240.718C240.972 492.908 241.188 492.818 241.365 492.638C241.542 492.458 241.631 492.238 241.631 491.978C241.631 491.719 241.542 491.499 241.365 491.319C241.188 491.139 240.972 491.049 240.718 491.049H239.349Z" fill="#BDBDBD"/>
<path d="M244.437 494.879H247.009V495.753H243.483V490.19H246.967V491.065H244.437V492.511H246.76V493.377H244.437V494.879Z" fill="#BDBDBD"/>
<path d="M248.836 494.879H251.408V495.753H247.882V490.19H251.366V491.065H248.836V492.511H251.159V493.377H248.836V494.879Z" fill="#BDBDBD"/>
<path d="M146.335 503.17V493.281H158.078V500.863M146.335 503.17H158.078V500.863M146.335 503.17L150.043 499.215L151.28 500.533L154.37 496.577L158.078 500.863M150.661 496.063C150.661 496.916 149.97 497.608 149.116 497.608C148.263 497.608 147.571 496.916 147.571 496.063C147.571 495.209 148.263 494.517 149.116 494.517C149.97 494.517 150.661 495.209 150.661 496.063Z" stroke="#FBFBFF"/>
<path d="M165.495 521.095H139.536V546.436H165.495V521.095Z" fill="#AA4337" stroke="#182F43" stroke-miterlimit="10"/>
<path d="M218.428 521.786H174.369C173.223 521.786 172.294 522.715 172.294 523.862C172.294 525.008 173.223 525.937 174.369 525.937H218.428C219.574 525.937 220.504 525.008 220.504 523.862C220.504 522.715 219.574 521.786 218.428 521.786Z" fill="#182F43" stroke="#182F43" stroke-miterlimit="10"/>
<path d="M219.577 530.366H173.221C172.709 530.366 172.294 530.781 172.294 531.293C172.294 531.805 172.709 532.22 173.221 532.22H219.577C220.089 532.22 220.504 531.805 220.504 531.293C220.504 530.781 220.089 530.366 219.577 530.366Z" fill="#BDBDBD"/>
<path d="M177.048 538.369C177.108 538.184 177.369 538.184 177.429 538.369L178.165 540.635C178.192 540.717 178.269 540.773 178.355 540.773H180.738C180.932 540.773 181.012 541.021 180.855 541.135L178.928 542.535C178.858 542.586 178.828 542.676 178.855 542.759L179.591 545.025C179.651 545.209 179.44 545.362 179.284 545.248L177.356 543.848C177.286 543.797 177.191 543.797 177.121 543.848L175.194 545.248C175.037 545.362 174.826 545.209 174.886 545.025L175.622 542.759C175.649 542.676 175.619 542.586 175.549 542.535L173.622 541.135C173.465 541.021 173.546 540.773 173.739 540.773H176.122C176.209 540.773 176.285 540.717 176.312 540.635L177.048 538.369Z" fill="#FFC100"/>
<path d="M186.319 538.369C186.379 538.184 186.64 538.184 186.7 538.369L187.436 540.635C187.463 540.717 187.54 540.773 187.626 540.773H190.009C190.203 540.773 190.283 541.021 190.126 541.135L188.199 542.535C188.129 542.586 188.099 542.676 188.126 542.759L188.862 545.025C188.922 545.209 188.711 545.362 188.555 545.248L186.627 543.848C186.557 543.797 186.462 543.797 186.392 543.848L184.465 545.248C184.308 545.362 184.097 545.209 184.157 545.025L184.893 542.759C184.92 542.676 184.89 542.586 184.82 542.535L182.893 541.135C182.736 541.021 182.817 540.773 183.01 540.773H185.393C185.48 540.773 185.556 540.717 185.583 540.635L186.319 538.369Z" fill="#FFC100"/>
<path d="M195.59 538.369C195.65 538.184 195.911 538.184 195.971 538.369L196.707 540.635C196.734 540.717 196.811 540.773 196.897 540.773H199.28C199.474 540.773 199.554 541.021 199.397 541.135L197.47 542.535C197.4 542.586 197.37 542.676 197.397 542.759L198.133 545.025C198.193 545.209 197.982 545.362 197.826 545.248L195.898 543.848C195.828 543.797 195.733 543.797 195.663 543.848L193.736 545.248C193.579 545.362 193.368 545.209 193.428 545.025L194.164 542.759C194.191 542.676 194.161 542.586 194.091 542.535L192.164 541.135C192.007 541.021 192.088 540.773 192.281 540.773H194.664C194.751 540.773 194.827 540.717 194.854 540.635L195.59 538.369Z" fill="#E0E0E0"/>
<path d="M204.862 538.369C204.922 538.184 205.182 538.184 205.242 538.369L205.979 540.635C206.005 540.717 206.082 540.773 206.169 540.773H208.551C208.745 540.773 208.826 541.021 208.669 541.135L206.741 542.535C206.671 542.586 206.642 542.676 206.669 542.759L207.405 545.025C207.465 545.209 207.254 545.362 207.097 545.248L205.17 543.848C205.1 543.797 205.005 543.797 204.935 543.848L203.007 545.248C202.85 545.362 202.639 545.209 202.699 545.025L203.435 542.759C203.462 542.676 203.433 542.586 203.363 542.535L201.435 541.135C201.279 541.021 201.359 540.773 201.553 540.773H203.935C204.022 540.773 204.099 540.717 204.126 540.635L204.862 538.369Z" fill="#E0E0E0"/>
<path d="M214.133 538.369C214.193 538.184 214.453 538.184 214.513 538.369L215.25 540.635C215.276 540.717 215.353 540.773 215.44 540.773H217.822C218.016 540.773 218.097 541.021 217.94 541.135L216.012 542.535C215.942 542.586 215.913 542.676 215.94 542.759L216.676 545.025C216.736 545.209 216.525 545.362 216.368 545.248L214.441 543.848C214.371 543.797 214.276 543.797 214.206 543.848L212.278 545.248C212.121 545.362 211.91 545.209 211.97 545.025L212.706 542.759C212.733 542.676 212.704 542.586 212.634 542.535L210.706 541.135C210.55 541.021 210.63 540.773 210.824 540.773H213.206C213.293 540.773 213.37 540.717 213.397 540.635L214.133 538.369Z" fill="#E0E0E0"/>
<path d="M255.734 521.095H229.775V535.31H255.734V521.095Z" stroke="#BDBDBD" stroke-miterlimit="10"/>
<path d="M237.503 526.295H235.056V527.853H237.42V528.727H235.056V530.984H234.102V525.421H237.503V526.295Z" fill="#BDBDBD"/>
<path d="M241.705 530.984L240.478 528.957H239.349V530.984H238.395V525.421H240.718C241.238 525.421 241.678 525.596 242.037 525.945C242.402 526.29 242.585 526.711 242.585 527.209C242.585 527.564 242.477 527.89 242.261 528.186C242.051 528.478 241.774 528.69 241.432 528.822L242.751 530.984H241.705ZM239.349 526.279V528.139H240.718C240.972 528.139 241.188 528.049 241.365 527.868C241.542 527.688 241.631 527.468 241.631 527.209C241.631 526.949 241.542 526.729 241.365 526.549C241.188 526.369 240.972 526.279 240.718 526.279H239.349Z" fill="#BDBDBD"/>
<path d="M244.437 530.109H247.009V530.984H243.483V525.421H246.967V526.295H244.437V527.741H246.76V528.608H244.437V530.109Z" fill="#BDBDBD"/>
<path d="M248.836 530.109H251.408V530.984H247.882V525.421H251.366V526.295H248.836V527.741H251.159V528.608H248.836V530.109Z" fill="#BDBDBD"/>
<path d="M146.335 538.4V528.511H158.078V536.092M146.335 538.4H158.078V536.092M146.335 538.4L150.043 534.444L151.28 535.763L154.37 531.807L158.078 536.092M150.661 531.292C150.661 532.145 149.97 532.837 149.116 532.837C148.263 532.837 147.571 532.145 147.571 531.292C147.571 530.439 148.263 529.747 149.116 529.747C149.97 529.747 150.661 530.439 150.661 531.292Z" stroke="#FBFBFF"/>
<path d="M133.237 563.623H262.033V581.165H133.237L133.237 563.623Z" fill="#F2F2FE" stroke="#182F43"/>
<path d="M151.176 569.985L150.091 566.645C149.882 566 148.969 566 148.76 566.645L147.674 569.985H144.163C143.485 569.985 143.203 570.852 143.751 571.251L146.592 573.315L145.507 576.655C145.298 577.3 146.036 577.836 146.584 577.438L149.425 575.373L152.266 577.438C152.815 577.836 153.553 577.3 153.344 576.655L152.258 573.315L155.1 571.251C155.648 570.852 155.366 569.985 154.688 569.985H151.176Z" stroke="#828282"/>
<line x1="171.058" y1="568.186" x2="180.329" y2="568.186" stroke="#828282"/>
<line x1="167.968" y1="568.186" x2="169.822" y2="568.186" stroke="#828282"/>
<line x1="167.968" y1="571.895" x2="169.822" y2="571.895" stroke="#828282"/>
<line x1="167.968" y1="575.603" x2="169.822" y2="575.603" stroke="#828282"/>
<line x1="171.058" y1="571.895" x2="180.329" y2="571.895" stroke="#828282"/>
<line x1="171.058" y1="575.603" x2="180.329" y2="575.603" stroke="#828282"/>
<circle cx="197.944" cy="572.704" r="4.75362" stroke="#828282"/>
<path d="M200.107 570.54L195.163 572.394L197.944 572.703L198.253 575.176L200.107 570.54Z" fill="#828282"/>
<circle cx="220.068" cy="571.339" r="4.00915" stroke="#828282"/>
<path d="M222.892 574.088L227.082 577.58" stroke="#828282"/>
<path d="M241.973 570.076H239.444V577.956H248.715V570.076H246.608M244.08 567.449V574.579M244.08 574.579L246.187 572.703M244.08 574.579L241.973 572.703" stroke="#828282"/>
<path opacity="0.2" d="M297.693 214.038H209.725C206.563 214.038 204 216.601 204 219.763V283.243C204 286.405 206.563 288.968 209.725 288.968H297.693C300.855 288.968 303.418 286.405 303.418 283.243V219.763C303.418 216.601 300.855 214.038 297.693 214.038Z" fill="#182F43"/>
<path d="M293.693 210H205.725C202.563 210 200 212.563 200 215.725V279.205C200 282.367 202.563 284.93 205.725 284.93H293.693C296.855 284.93 299.418 282.367 299.418 279.205V215.725C299.418 212.563 296.855 210 293.693 210Z" fill="#FBFBFF" stroke="#182F43" stroke-linecap="round" stroke-linejoin="round"/>
<path d="M232.142 244.271L210.888 251.168C209.056 245.527 209.54 239.39 212.232 234.106C214.924 228.822 219.605 224.824 225.245 222.99C227.467 222.246 229.798 221.875 232.142 221.892V244.271Z" fill="#FFC100" stroke="#182F43" stroke-linecap="round" stroke-linejoin="round"/>
<path d="M232.142 244.271L245.286 262.351C240.489 265.835 234.505 267.27 228.65 266.342C222.794 265.414 217.547 262.199 214.062 257.403C212.667 255.514 211.595 253.408 210.888 251.169L232.142 244.271Z" fill="#FBFBFF" stroke="#182F43" stroke-linecap="round" stroke-linejoin="round"/>
<path d="M232.142 244.271L253.409 237.36C254.924 241.844 254.953 246.697 253.492 251.198C252.032 255.7 249.159 259.61 245.3 262.351L232.142 244.271Z" fill="#182F43" stroke="#182F43" stroke-linecap="round" stroke-linejoin="round"/>
<path d="M232.142 244.271V221.906C236.878 221.852 241.504 223.326 245.336 226.111C249.167 228.895 251.998 232.84 253.409 237.361L232.142 244.271Z" fill="#FBFBFF" stroke="#182F43" stroke-linecap="round" stroke-linejoin="round"/>
<path d="M232.175 258.199C239.875 258.199 246.116 251.958 246.116 244.258C246.116 236.558 239.875 230.316 232.175 230.316C224.475 230.316 218.233 236.558 218.233 244.258C218.233 251.958 224.475 258.199 232.175 258.199Z" fill="#FBFBFF" stroke="#182F43" stroke-linecap="round" stroke-linejoin="round"/>
<path d="M291.437 220.54H260.802V223.078H291.437V220.54Z" fill="#FFC100" stroke="#182F43" stroke-linecap="round" stroke-linejoin="round"/>
<path d="M284.848 225.971H260.802V228.509H284.848V225.971Z" fill="#182F43" stroke="#182F43" stroke-linecap="round" stroke-linejoin="round"/>
<path d="M278.473 231.401H260.802V233.939H278.473V231.401Z" fill="#FBFBFF" stroke="#182F43" stroke-linecap="round" stroke-linejoin="round"/>
<path d="M285.912 236.831H260.802V239.369H285.912V236.831Z" fill="#FFC100" stroke="#182F43" stroke-linecap="round" stroke-linejoin="round"/>
<path d="M272.734 242.263H260.802V244.801H272.734V242.263Z" fill="#182F43" stroke="#182F43" stroke-linecap="round" stroke-linejoin="round"/>
<path d="M291.437 247.699H260.802V250.237H291.437V247.699Z" fill="#FBFBFF" stroke="#182F43" stroke-linecap="round" stroke-linejoin="round"/>
<path d="M283.361 253.13H260.802V255.668H283.361V253.13Z" fill="#FFC100" stroke="#182F43" stroke-linecap="round" stroke-linejoin="round"/>
<path d="M280.515 258.561H260.802V261.098H280.515V258.561Z" fill="#182F43" stroke="#182F43" stroke-linecap="round" stroke-linejoin="round"/>
<path d="M291.437 263.991H260.802V266.529H291.437V263.991Z" fill="#FBFBFF" stroke="#182F43" stroke-linecap="round" stroke-linejoin="round"/>
<path d="M220.771 271.392H244.516" stroke="#182F43" stroke-linecap="round" stroke-linejoin="round"/>
<path d="M217.41 274.738H247.877" stroke="#182F43" stroke-linecap="round" stroke-linejoin="round"/>
<path d="M261.618 271.392H285.363" stroke="#182F43" stroke-linecap="round" stroke-linejoin="round"/>
<path d="M258.257 274.738H288.724" stroke="#182F43" stroke-linecap="round" stroke-linejoin="round"/>
<path opacity="0.2" d="M412.656 268.756H328.75C325.734 268.756 323.289 271.201 323.289 274.217V334.766C323.289 337.782 325.734 340.227 328.75 340.227H412.656C415.672 340.227 418.117 337.782 418.117 334.766V274.217C418.117 271.201 415.672 268.756 412.656 268.756Z" fill="#182F43"/>
<path d="M409.367 265H325.461C322.445 265 320 267.445 320 270.461V331.01C320 334.026 322.445 336.471 325.461 336.471H409.367C412.383 336.471 414.828 334.026 414.828 331.01V270.461C414.828 267.445 412.383 265 409.367 265Z" fill="#FBFBFF" stroke="#182F43" stroke-linecap="round" stroke-linejoin="round"/>
<path d="M408.856 320.918H403.938V326.372H408.856V320.918Z" fill="#AA4337" stroke="#182F43" stroke-width="0.75" stroke-linecap="round" stroke-linejoin="round"/>
<path d="M403.389 293.646H398.471V326.367H403.389V293.646Z" fill="#182F43" stroke="#182F43" stroke-width="0.75" stroke-linecap="round" stroke-linejoin="round"/>
<path d="M397.921 305.397H393.003V326.372H397.921V305.397Z" fill="#FBFBFF" stroke="#182F43" stroke-width="0.75" stroke-linecap="round" stroke-linejoin="round"/>
<path d="M392.461 289.033H387.543V326.372H392.461V289.033Z" fill="#AA4337" stroke="#182F43" stroke-width="0.75" stroke-linecap="round" stroke-linejoin="round"/>
<path d="M386.994 316.723H382.076V326.373H386.994V316.723Z" fill="#182F43" stroke="#182F43" stroke-width="0.75" stroke-linecap="round" stroke-linejoin="round"/>
<path d="M381.526 313.784H376.608V326.367H381.526V313.784Z" fill="#FBFBFF" stroke="#182F43" stroke-width="0.75" stroke-linecap="round" stroke-linejoin="round"/>
<path d="M376.065 301.202H371.147V326.373H376.065V301.202Z" fill="#AA4337" stroke="#182F43" stroke-width="0.75" stroke-linecap="round" stroke-linejoin="round"/>
<path d="M370.598 322.178H365.68V326.374H370.598V322.178Z" fill="#182F43" stroke="#182F43" stroke-width="0.75" stroke-linecap="round" stroke-linejoin="round"/>
<path d="M365.13 293.646H360.212V326.367H365.13V293.646Z" fill="#FBFBFF" stroke="#182F43" stroke-width="0.75" stroke-linecap="round" stroke-linejoin="round"/>
<path d="M359.67 299.943H354.752V326.373H359.67V299.943Z" fill="#AA4337" stroke="#182F43" stroke-width="0.75" stroke-linecap="round" stroke-linejoin="round"/>
<path d="M354.202 325.108H349.284V326.367H354.202V325.108Z" fill="#182F43" stroke="#182F43" stroke-width="0.75" stroke-linecap="round" stroke-linejoin="round"/>
<path d="M348.735 324.693H343.817V326.373H348.735V324.693Z" fill="#FBFBFF" stroke="#182F43" stroke-width="0.75" stroke-linecap="round" stroke-linejoin="round"/>
<path d="M343.268 305.397H338.35V326.372H343.268V305.397Z" fill="#AA4337" stroke="#182F43" stroke-width="0.75" stroke-linecap="round" stroke-linejoin="round"/>
<path d="M337.807 322.178H332.889V326.374H337.807V322.178Z" fill="#182F43" stroke="#182F43" stroke-width="0.75" stroke-linecap="round" stroke-linejoin="round"/>
<path d="M332.339 317.98H327.421V326.373H332.339V317.98Z" fill="#FBFBFF" stroke="#182F43" stroke-width="0.75" stroke-linecap="round" stroke-linejoin="round"/>
<path d="M409.175 279.934H328.06V284.085H409.175V279.934Z" fill="#AA4337" stroke="#182F43" stroke-miterlimit="10"/>
<path d="M362.588 280.232H349.431V283.777H362.588V280.232Z" fill="#182F43" stroke="#182F43" stroke-miterlimit="10"/>
<path d="M387.83 280.232H363.119V283.777H387.83V280.232Z" fill="#FBFBFF" stroke="#182F43" stroke-miterlimit="10"/>
<path d="M479.108 646.867C479.108 646.867 488.013 685.208 484.134 691.504C479.063 699.746 425.026 704.716 425.026 704.716H544.209C544.209 704.716 559.141 700.522 554.654 688.514C551.18 679.226 534.506 646.912 534.506 646.912L479.108 646.867Z" fill="#FBFBFF" stroke="#182F43" stroke-linecap="round" stroke-linejoin="round"/>
<path d="M476.489 646.867C476.489 646.867 486.001 685.523 481.526 691.504C477.051 697.486 425.026 702.062 425.026 702.062H544.749C544.749 702.062 554.812 697.992 552.012 688.57C549.212 679.148 531.875 646.968 531.875 646.968L476.489 646.867Z" fill="#FBFBFF" stroke="#182F43" stroke-linecap="round" stroke-linejoin="round"/>
<path d="M531.875 646.867H476.489C476.489 646.867 482.111 669.77 482.673 683.049H549.943C544.502 670.288 531.875 646.867 531.875 646.867Z" fill="#182F43" stroke="#182F43" stroke-linecap="round" stroke-linejoin="round"/>
<path d="M544.186 702.242H425.026V704.705H544.186V702.242Z" fill="#FBFBFF" stroke="#182F43" stroke-linecap="round" stroke-linejoin="round"/>
<path d="M678.469 381H338.012C332.746 381 328.477 385.269 328.477 390.535V641.11C328.477 646.376 332.746 650.645 338.012 650.645H678.469C683.735 650.645 688.004 646.376 688.004 641.11V390.535C688.004 385.269 683.735 381 678.469 381Z" fill="#FBFBFF" stroke="#182F43" stroke-linecap="round" stroke-linejoin="round"/>
<path d="M669.992 381H329.535C324.269 381 320 385.269 320 390.535V641.11C320 646.376 324.269 650.645 329.535 650.645H669.992C675.258 650.645 679.527 646.376 679.527 641.11V390.535C679.527 385.269 675.258 381 669.992 381Z" fill="#182F43" stroke="#182F43" stroke-linecap="round" stroke-linejoin="round"/>
<path d="M320 608.74H679.538V641.111C679.538 643.639 678.533 646.065 676.745 647.853C674.957 649.641 672.532 650.645 670.003 650.645H329.546C328.294 650.645 327.054 650.399 325.897 649.92C324.74 649.44 323.689 648.738 322.804 647.853C321.918 646.967 321.216 645.916 320.737 644.759C320.258 643.603 320.011 642.363 320.011 641.111V608.74H320Z" fill="#FBFBFF" stroke="#182F43" stroke-linecap="round" stroke-linejoin="round"/>
<path d="M661 398H338V595H661V398Z" fill="#FFC100" stroke="#182F43" stroke-linecap="round" stroke-linejoin="round"/>
<path d="M506.453 629.687C506.453 628.374 506.064 627.092 505.335 626.001C504.606 624.91 503.57 624.06 502.358 623.558C501.146 623.056 499.812 622.924 498.525 623.18C497.238 623.436 496.056 624.068 495.129 624.996C494.201 625.923 493.569 627.106 493.313 628.392C493.057 629.679 493.188 631.013 493.691 632.225C494.193 633.437 495.043 634.473 496.134 635.202C497.225 635.931 498.507 636.32 499.819 636.32C501.579 636.32 503.266 635.621 504.51 634.377C505.754 633.133 506.453 631.446 506.453 629.687Z" fill="#182F43" stroke="#182F43" stroke-linecap="round" stroke-linejoin="round"/>
<path d="M656 404H343V428H656V404Z" fill="#182F43" stroke="#182F43" stroke-linecap="round" stroke-linejoin="round"/>
<path d="M403.012 410H434.325C435.22 410 436.078 410.355 436.71 410.988C437.343 411.621 437.698 412.478 437.698 413.373V427.72H399.706V413.373C399.706 412.49 400.052 411.642 400.67 411.011C401.288 410.381 402.129 410.018 403.012 410V410Z" fill="#BDBDBD"/>
<path d="M445.288 410H476.601C477.496 410 478.354 410.355 478.986 410.988C479.619 411.621 479.974 412.478 479.974 413.373V427.72H441.937V413.373C441.937 412.482 442.289 411.628 442.917 410.996C443.545 410.364 444.397 410.006 445.288 410Z" fill="#BDBDBD"/>
<path d="M487.519 410H518.821C519.715 410 520.573 410.355 521.206 410.988C521.839 411.621 522.194 412.478 522.194 413.373V427.72H484.168V413.373C484.168 412.482 484.52 411.628 485.148 410.996C485.776 410.364 486.628 410.006 487.519 410V410Z" fill="#FFC100" stroke="#182F43" stroke-linecap="round" stroke-linejoin="round"/>
<path d="M529.75 410H561.064C561.958 410 562.816 410.355 563.449 410.988C564.081 411.621 564.437 412.478 564.437 413.373V427.72H526.399V413.373C526.399 412.482 526.752 411.628 527.379 410.996C528.007 410.364 528.859 410.006 529.75 410V410Z" fill="#BDBDBD"/>
<path d="M574.351 410H605.664C606.559 410 607.417 410.355 608.049 410.988C608.682 411.621 609.037 412.478 609.037 413.373V427.72H571V413.373C571 412.482 571.352 411.628 571.98 410.996C572.608 410.364 573.46 410.006 574.351 410V410Z" fill="#BDBDBD"/>
<path d="M394.641 421.3L390.897 410H343V421.3V436.269V588H656V421.3H394.641Z" fill="#FBFBFF" stroke="#182F43" stroke-linecap="round" stroke-linejoin="round"/>
<path d="M353 456H445" stroke="#999999" stroke-width="0.5" stroke-linecap="round" stroke-linejoin="round"/>
<path d="M353 461H445" stroke="#999999" stroke-width="0.5" stroke-linecap="round" stroke-linejoin="round"/>
<path d="M353 466H445" stroke="#999999" stroke-width="0.5" stroke-linecap="round" stroke-linejoin="round"/>
<path d="M591.017 508.469H606.353" stroke="#808080" stroke-miterlimit="10"/>
<path d="M586.058 506.985H575.669V517.374H586.058V506.985Z" fill="#BDBDBD"/>
<path d="M591.017 512.922H618.721" stroke="#808080" stroke-miterlimit="10"/>
<path d="M591.017 530.248H606.353" stroke="#808080" stroke-miterlimit="10"/>
<path d="M591.017 534.7H618.721" stroke="#808080" stroke-miterlimit="10"/>
<path d="M568.574 427.571V579.99" stroke="#182F43" stroke-linecap="round" stroke-linejoin="round"/>
<path d="M516.247 441.874H503.339L498.257 432.204L492.151 441.874H467.921C467.14 441.874 466.391 442.184 465.838 442.736C465.286 443.289 464.976 444.038 464.976 444.819V472.692C464.974 473.08 465.049 473.465 465.197 473.823C465.344 474.182 465.561 474.508 465.834 474.783C466.108 475.057 466.433 475.275 466.792 475.424C467.15 475.573 467.534 475.65 467.921 475.65H516.269C516.657 475.65 517.041 475.573 517.399 475.424C517.757 475.275 518.082 475.057 518.356 474.783C518.63 474.508 518.847 474.182 518.994 473.823C519.141 473.465 519.216 473.08 519.215 472.692V444.819C519.215 444.431 519.138 444.046 518.989 443.687C518.839 443.328 518.62 443.002 518.344 442.728C518.068 442.455 517.741 442.238 517.381 442.091C517.021 441.945 516.635 441.871 516.247 441.874V441.874Z" fill="#AA4337" stroke="#182F43" stroke-width="2" stroke-linecap="round" stroke-linejoin="round"/>
<path d="M470.339 448.844H513.829" stroke="#182F43" stroke-linecap="round" stroke-linejoin="round"/>
<path d="M470.339 456.007H513.829" stroke="#182F43" stroke-linecap="round" stroke-linejoin="round"/>
<path d="M470.339 463.168H513.829" stroke="#182F43" stroke-linecap="round" stroke-linejoin="round"/>
<path d="M470.339 470.319H513.829" stroke="#182F43" stroke-linecap="round" stroke-linejoin="round"/>
<path d="M579.968 441.873H592.865L597.958 432.215L604.063 441.884H628.293C629.075 441.884 629.824 442.195 630.376 442.747C630.929 443.3 631.239 444.049 631.239 444.83V472.692C631.241 473.08 631.166 473.464 631.018 473.823C630.871 474.181 630.654 474.508 630.38 474.782C630.107 475.057 629.781 475.275 629.423 475.424C629.065 475.572 628.681 475.649 628.293 475.649H579.946C579.558 475.649 579.174 475.572 578.816 475.424C578.458 475.275 578.132 475.057 577.859 474.782C577.585 474.508 577.368 474.181 577.221 473.823C577.074 473.464 576.998 473.08 577 472.692V444.819C577 444.43 577.077 444.045 577.226 443.686C577.376 443.328 577.595 443.002 577.871 442.728C578.147 442.454 578.474 442.238 578.834 442.091C579.194 441.944 579.579 441.87 579.968 441.873V441.873Z" fill="#FFC100" stroke="#182F43" stroke-width="2" stroke-linecap="round" stroke-linejoin="round"/>
<path d="M583 448.844H626.49" stroke="#182F43" stroke-linecap="round" stroke-linejoin="round"/>
<path d="M583 456.007H626.49" stroke="#182F43" stroke-linecap="round" stroke-linejoin="round"/>
<path d="M583 463.168H626.49" stroke="#182F43" stroke-linecap="round" stroke-linejoin="round"/>
<path d="M583 470.319H626.49" stroke="#182F43" stroke-linecap="round" stroke-linejoin="round"/>
<path d="M438.623 450H357.377C356.541 450.001 355.712 449.822 354.939 449.471C354.166 449.12 353.464 448.606 352.872 447.957C352.279 447.308 351.809 446.537 351.488 445.688C351.167 444.839 351.001 443.929 351 443.01V443.01C350.999 442.091 351.162 441.18 351.481 440.33C351.8 439.481 352.268 438.708 352.859 438.057C353.449 437.406 354.151 436.89 354.923 436.537C355.695 436.184 356.523 436.001 357.359 436H438.623C439.461 435.999 440.291 436.179 441.065 436.531C441.839 436.883 442.542 437.399 443.135 438.05C443.727 438.701 444.197 439.475 444.517 440.326C444.837 441.177 445.001 442.089 445 443.01V443.01C444.999 443.929 444.833 444.839 444.512 445.688C444.191 446.537 443.721 447.308 443.128 447.957C442.536 448.606 441.834 449.12 441.061 449.471C440.288 449.822 439.459 450.001 438.623 450Z" fill="#FBFBFF" stroke="#182F43" stroke-linecap="round" stroke-linejoin="round"/>
<path d="M438.797 450H428V436H438.797C439.612 435.999 440.419 436.179 441.172 436.53C441.925 436.882 442.609 437.397 443.186 438.047C443.762 438.698 444.219 439.47 444.53 440.32C444.841 441.17 445.001 442.08 445 443V443C445.001 443.92 444.841 444.83 444.53 445.68C444.219 446.53 443.762 447.302 443.186 447.953C442.609 448.603 441.925 449.118 441.172 449.47C440.419 449.821 439.612 450.001 438.797 450V450Z" fill="#182F43" stroke="#182F43" stroke-linecap="round" stroke-linejoin="round"/>
<path d="M436.887 438.946C436.382 438.472 435.749 438.16 435.066 438.047C434.384 437.934 433.683 438.026 433.053 438.312C432.423 438.598 431.892 439.064 431.527 439.652C431.162 440.24 430.979 440.924 431.002 441.616C431.025 442.308 431.252 442.977 431.655 443.54C432.058 444.103 432.619 444.533 433.267 444.776C433.914 445.02 434.619 445.066 435.293 444.908C435.966 444.75 436.578 444.396 437.05 443.891V443.891C437.365 443.557 437.611 443.164 437.774 442.735C437.936 442.306 438.013 441.849 437.998 441.39C437.984 440.932 437.879 440.48 437.69 440.062C437.501 439.644 437.231 439.268 436.896 438.954L436.887 438.946ZM436.544 443.418C436.164 443.821 435.674 444.102 435.135 444.227C434.596 444.351 434.032 444.313 433.514 444.117C432.997 443.922 432.549 443.577 432.227 443.126C431.905 442.676 431.724 442.14 431.706 441.586C431.688 441.033 431.834 440.486 432.126 440.016C432.418 439.545 432.843 439.172 433.346 438.943C433.85 438.714 434.41 438.639 434.957 438.729C435.503 438.818 436.01 439.067 436.415 439.445C436.958 439.955 437.276 440.659 437.301 441.404C437.325 442.149 437.052 442.874 436.544 443.418V443.418Z" fill="#FBFBFF"/>
<path d="M436.5 443.5L440.577 446.367" stroke="#FBFBFF"/>
<path d="M503.838 492H353.163V500.2H503.838V492Z" fill="#FBFBFF" stroke="#182F43" stroke-linecap="round" stroke-linejoin="round"/>
<path d="M378.026 500.082L376.219 495.075H353.163V500.082V506.722V574H503.838V500.082H378.026Z" fill="#FFC100" stroke="#182F43" stroke-linecap="round" stroke-linejoin="round"/>
<path d="M392.777 537.036H465.486" stroke="#182F43" stroke-width="2" stroke-linecap="round" stroke-linejoin="round"/>
<path d="M392.777 544.184H465.486" stroke="#182F43" stroke-width="2" stroke-linecap="round" stroke-linejoin="round"/>
<path d="M392.777 551.336H465.486" stroke="#182F43" stroke-width="2" stroke-linecap="round" stroke-linejoin="round"/>
<path d="M392.777 558.489H465.486" stroke="#182F43" stroke-width="2" stroke-linecap="round" stroke-linejoin="round"/>
<path d="M461.641 520.341H395.752C395.074 520.342 394.402 520.21 393.775 519.951C393.148 519.692 392.579 519.313 392.098 518.834C391.618 518.355 391.237 517.786 390.976 517.16C390.716 516.534 390.582 515.862 390.581 515.184V515.184C390.58 514.506 390.712 513.834 390.971 513.207C391.23 512.581 391.609 512.011 392.088 511.53C392.567 511.05 393.136 510.669 393.762 510.409C394.388 510.148 395.059 510.014 395.738 510.013H461.641C462.32 510.012 462.993 510.145 463.621 510.404C464.249 510.664 464.82 511.045 465.3 511.525C465.78 512.006 466.161 512.576 466.421 513.204C466.68 513.832 466.814 514.505 466.813 515.184V515.184C466.812 515.862 466.677 516.534 466.417 517.16C466.156 517.786 465.775 518.355 465.295 518.834C464.815 519.313 464.245 519.692 463.618 519.951C462.991 520.21 462.319 520.342 461.641 520.341Z" fill="#FBFBFF" stroke="#182F43" stroke-linecap="round" stroke-linejoin="round"/>
<path d="M461.643 520.343H452.642V510H461.643C462.322 509.999 462.995 510.132 463.623 510.392C464.251 510.651 464.821 511.032 465.302 511.513C465.782 511.993 466.163 512.564 466.423 513.191C466.682 513.819 466.815 514.492 466.814 515.172V515.172C466.815 515.851 466.682 516.524 466.423 517.152C466.163 517.78 465.782 518.35 465.302 518.831C464.821 519.311 464.251 519.692 463.623 519.952C462.995 520.211 462.322 520.344 461.643 520.343V520.343Z" fill="#182F43" stroke="#182F43" stroke-linecap="round" stroke-linejoin="round"/>
<path d="M460.156 511.595C459.727 511.194 459.189 510.928 458.61 510.833C458.03 510.737 457.435 510.815 456.901 511.058C456.366 511.3 455.915 511.696 455.605 512.194C455.295 512.693 455.139 513.273 455.159 513.86C455.178 514.447 455.371 515.015 455.714 515.492C456.056 515.969 456.532 516.334 457.082 516.541C457.631 516.747 458.23 516.786 458.802 516.652C459.374 516.519 459.893 516.218 460.294 515.789V515.789C460.562 515.506 460.77 515.173 460.908 514.809C461.046 514.445 461.111 514.058 461.099 513.669C461.087 513.28 460.998 512.897 460.837 512.542C460.677 512.188 460.447 511.868 460.163 511.603L460.156 511.595ZM459.864 515.388C459.542 515.73 459.126 515.969 458.668 516.075C458.21 516.18 457.731 516.148 457.292 515.982C456.853 515.816 456.472 515.523 456.199 515.141C455.926 514.759 455.772 514.304 455.756 513.835C455.741 513.365 455.865 512.902 456.113 512.503C456.361 512.104 456.722 511.787 457.149 511.593C457.577 511.398 458.053 511.335 458.516 511.411C458.98 511.487 459.411 511.698 459.755 512.018C460.216 512.451 460.486 513.049 460.507 513.681C460.527 514.313 460.296 514.927 459.864 515.388V515.388Z" fill="#FBFBFF"/>
<path d="M461.868 516.583C461.802 516.519 461.72 516.476 461.631 516.458C461.542 516.44 461.449 516.448 461.364 516.481L460.292 515.474C460.238 515.421 460.164 515.391 460.088 515.391C460.012 515.391 459.938 515.421 459.884 515.474L459.789 515.576C459.737 515.633 459.708 515.707 459.708 515.784C459.708 515.861 459.737 515.935 459.789 515.992L460.847 516.984C460.815 517.074 460.81 517.172 460.832 517.265C460.854 517.358 460.902 517.442 460.971 517.509L462.794 519.296C462.914 519.416 463.077 519.483 463.246 519.483C463.416 519.483 463.578 519.416 463.699 519.296V519.296C463.818 519.176 463.885 519.013 463.885 518.844C463.885 518.675 463.818 518.512 463.699 518.392L461.868 516.583Z" fill="#FBFBFF"/>
<path d="M479.426 548.781C479.634 549.296 479.943 549.765 480.335 550.158C480.728 550.552 481.195 550.863 481.71 551.072C482.514 551.4 483.589 551.328 484.827 552.026C487.624 553.598 494.605 552.197 499.665 552.737C504.724 553.278 511.542 547.678 511.542 547.678L531.617 548.781V528.855C531.617 528.855 510.666 529.73 506.126 527.98C501.586 526.229 496.526 522.571 494.256 522.742C491.986 522.913 473.306 525.012 473.306 525.012L479.419 548.781H479.426Z" fill="#FBFBFF" stroke="#182F43" stroke-linecap="round" stroke-linejoin="round"/>
<path d="M474.231 468.44C470.086 468.899 466.17 470.577 462.978 473.261C459.787 475.945 457.463 479.516 456.3 483.521C455.138 487.526 455.189 491.786 456.448 495.762C457.707 499.738 460.116 503.251 463.372 505.857C466.627 508.464 470.582 510.047 474.737 510.405C478.892 510.764 483.06 509.882 486.714 507.872C490.368 505.862 493.344 502.814 495.265 499.112C497.186 495.411 497.967 491.223 497.508 487.078V487.078C497.205 484.325 496.363 481.659 495.029 479.232C493.694 476.805 491.895 474.664 489.733 472.933C487.571 471.202 485.089 469.915 482.429 469.144C479.769 468.373 476.983 468.133 474.231 468.44ZM478.415 506.213C475.09 506.583 471.73 505.958 468.76 504.418C465.79 502.878 463.344 500.491 461.73 497.561C460.116 494.63 459.408 491.287 459.694 487.954C459.98 484.62 461.249 481.447 463.339 478.834C465.428 476.222 468.246 474.288 471.435 473.277C474.624 472.266 478.042 472.223 481.255 473.154C484.468 474.085 487.334 475.948 489.488 478.508C491.643 481.067 492.99 484.208 493.359 487.533C493.605 489.741 493.413 491.975 492.794 494.109C492.176 496.243 491.144 498.234 489.756 499.968C488.368 501.703 486.653 503.147 484.707 504.219C482.761 505.29 480.623 505.968 478.415 506.213V506.213Z" fill="#FBFBFF" stroke="#182F43" stroke-linecap="round" stroke-linejoin="round"/>
<path d="M474.766 468.127C470.621 468.586 466.705 470.264 463.513 472.948C460.322 475.633 457.998 479.203 456.836 483.208C455.673 487.213 455.725 491.473 456.983 495.449C458.242 499.425 460.651 502.938 463.907 505.545C467.162 508.151 471.117 509.734 475.272 510.093C479.427 510.451 483.595 509.57 487.249 507.56C490.903 505.549 493.879 502.501 495.8 498.799C497.722 495.098 498.502 490.91 498.043 486.765V486.765C497.426 481.207 494.628 476.122 490.263 472.628C485.898 469.133 480.324 467.514 474.766 468.127V468.127ZM478.95 505.901C475.625 506.27 472.265 505.645 469.295 504.105C466.325 502.565 463.879 500.179 462.265 497.248C460.651 494.317 459.943 490.974 460.229 487.641C460.515 484.308 461.784 481.134 463.874 478.522C465.964 475.909 468.781 473.975 471.97 472.964C475.16 471.953 478.577 471.91 481.79 472.842C485.004 473.773 487.869 475.636 490.023 478.195C492.178 480.755 493.525 483.895 493.894 487.22C494.14 489.428 493.948 491.663 493.33 493.796C492.711 495.93 491.679 497.921 490.291 499.656C488.904 501.39 487.188 502.835 485.242 503.906C483.296 504.978 481.158 505.655 478.95 505.901V505.901Z" fill="#FBFBFF" stroke="#182F43" stroke-linecap="round" stroke-linejoin="round"/>
<path d="M479.452 509.543L478.455 509.653C477.33 509.778 476.519 510.791 476.644 511.916L478.262 526.529C478.387 527.654 479.4 528.465 480.525 528.34L481.522 528.23C482.647 528.105 483.458 527.092 483.333 525.967L481.715 511.354C481.59 510.229 480.577 509.418 479.452 509.543Z" fill="#182F43" stroke="#182F43" stroke-linecap="round" stroke-linejoin="round"/>
<path d="M479.125 521.742L481.26 521.514C482.178 521.416 483.098 521.683 483.82 522.259C484.542 522.834 485.008 523.671 485.117 524.588L488.313 553.488C488.442 554.669 488.098 555.854 487.355 556.781C486.611 557.709 485.53 558.303 484.349 558.434H484.206C483.621 558.499 483.029 558.448 482.464 558.284C481.898 558.12 481.371 557.846 480.911 557.478C480.452 557.11 480.069 556.654 479.786 556.138C479.503 555.622 479.324 555.055 479.261 554.47L476.065 525.577C476.014 525.12 476.053 524.657 476.181 524.214C476.309 523.772 476.523 523.359 476.81 523C477.098 522.64 477.453 522.341 477.857 522.119C478.26 521.897 478.703 521.757 479.161 521.706L479.125 521.742Z" fill="#182F43" stroke="#182F43" stroke-linecap="round" stroke-linejoin="round"/>
<path d="M482.229 545.82C482.229 545.82 477.17 546.005 476.458 546.881C475.746 547.756 475.875 550.802 477.248 551.15C480.749 552.068 488.193 551.535 488.485 550.908C488.776 550.282 489.374 546.639 487.837 546.247C485.981 545.963 484.107 545.82 482.229 545.82V545.82Z" fill="#FBFBFF" stroke="#182F43" stroke-linecap="round" stroke-linejoin="round"/>
<path d="M480.771 538.762C480.771 538.762 474.885 538.542 473.967 539.602C473.049 540.662 472.871 544.626 474.423 545.224C478.379 546.74 487.282 546.149 487.688 545.366C488.093 544.583 488.976 540.52 487.232 539.865C485.489 539.211 480.771 538.762 480.771 538.762Z" fill="#FBFBFF" stroke="#182F43" stroke-linecap="round" stroke-linejoin="round"/>
<path d="M479.924 530.792C479.924 530.792 473.634 530.55 472.652 531.689C471.669 532.827 471.477 537.054 473.135 537.695C477.405 539.317 486.656 539.317 487.091 538.478C487.525 537.638 488.692 532.671 486.827 531.966C484.963 531.262 479.924 530.792 479.924 530.792Z" fill="#FBFBFF" stroke="#182F43" stroke-linecap="round" stroke-linejoin="round"/>
<path d="M476.296 523.333C476.296 523.333 470.005 523.098 469.023 524.229C468.041 525.361 467.806 529.723 469.507 530.236C471.207 530.748 483.028 531.858 483.462 531.025C483.896 530.193 485.063 525.211 483.198 524.507C481.334 523.802 476.296 523.333 476.296 523.333Z" fill="#FBFBFF" stroke="#182F43" stroke-linecap="round" stroke-linejoin="round"/>
<path d="M496.895 544.262C495.766 543.951 494.696 543.456 493.728 542.796C488.669 539.302 488.839 531.275 488.839 531.275L487.623 530.926C486.617 530.544 485.675 530.013 484.826 529.353C485.233 531.011 485.472 532.707 485.538 534.413C485.519 535.351 485.153 536.248 484.51 536.931C483.867 537.613 482.993 538.032 482.058 538.106C480.485 538.284 479.788 538.455 479.261 536.363C478.734 534.271 476.123 525.888 475.945 524.664C475.788 523.553 477.653 521.575 480.62 521.105C485.182 521.476 489.679 522.749 494.276 522.749C495.876 522.899 497.409 523.464 498.724 524.386" fill="#FBFBFF"/>
<path d="M496.895 544.262C495.766 543.951 494.696 543.456 493.728 542.796C488.669 539.302 488.839 531.275 488.839 531.275L487.623 530.926C486.617 530.544 485.675 530.013 484.826 529.353C485.233 531.011 485.472 532.707 485.538 534.413C485.519 535.351 485.153 536.248 484.51 536.931C483.867 537.613 482.993 538.032 482.058 538.106C480.485 538.284 479.788 538.455 479.261 536.363C478.734 534.271 476.123 525.888 475.945 524.664C475.788 523.553 477.653 521.575 480.62 521.105C485.182 521.476 489.679 522.749 494.276 522.749C495.876 522.899 497.409 523.464 498.724 524.386" stroke="#182F43" stroke-linecap="round" stroke-linejoin="round"/>
<path d="M501.707 544.704C501.153 544.733 500.597 544.733 500.042 544.704Z" fill="#FBFBFF"/>
<path d="M501.707 544.704C501.153 544.733 500.597 544.733 500.042 544.704" stroke="#182F43" stroke-linecap="round" stroke-linejoin="round"/>
<path d="M505.429 544.015C504.22 544.397 502.971 544.636 501.707 544.726Z" fill="#FBFBFF"/>
<path d="M505.429 544.015C504.22 544.397 502.971 544.636 501.707 544.726" stroke="#182F43" stroke-linecap="round" stroke-linejoin="round"/>
<path d="M511.714 541.751H517.998" stroke="#182F43" stroke-linecap="round" stroke-linejoin="round"/>
<path d="M512.239 543.495H514.858" stroke="#182F43" stroke-linecap="round" stroke-linejoin="round"/>
<path d="M488.84 531.277C488.84 531.277 492.313 531.277 494.59 529.206" stroke="#182F43" stroke-linecap="round" stroke-linejoin="round"/>
<path d="M484.748 529.127C484.648 528.179 484.45 527.244 484.158 526.337" stroke="#182F43" stroke-linecap="round" stroke-linejoin="round"/>
<path d="M479.212 535.448C479.212 535.448 478.55 533.611 479.354 532.95C480.159 532.288 482.294 531.334 482.664 532.067C483.034 532.8 483.838 536.18 483.617 536.842L483.397 537.504" stroke="#182F43" stroke-width="0.5" stroke-linecap="round" stroke-linejoin="round"/>
<path d="M569 557.584H515.007V528.041H569" fill="#182F43"/>
<path d="M569 557.584H515.007V528.041H569" stroke="#182F43" stroke-linecap="round" stroke-linejoin="round"/>
<path d="M519.916 555.735C520.662 555.735 521.268 555.13 521.268 554.383C521.268 553.637 520.662 553.031 519.916 553.031C519.169 553.031 518.563 553.637 518.563 554.383C518.563 555.13 519.169 555.735 519.916 555.735Z" fill="#FBFBFF" stroke="#182F43" stroke-linecap="round" stroke-linejoin="round"/>
<path d="M394.527 607.135C394.32 607.652 394.011 608.121 393.619 608.514C393.226 608.908 392.758 609.218 392.243 609.427C391.439 609.761 390.371 609.683 389.126 610.38C386.336 611.953 379.355 610.558 374.288 611.092C369.221 611.626 362.418 606.032 362.418 606.032L342.322 607.135V587.21C342.322 587.21 363.272 588.085 367.812 586.341C372.353 584.598 377.412 580.926 379.682 581.104C381.953 581.282 400.633 583.374 400.633 583.374L394.527 607.135Z" fill="#FBFBFF" stroke="#182F43" stroke-linecap="round" stroke-linejoin="round"/>
<path d="M399.688 526.834C403.833 527.293 407.749 528.97 410.94 531.655C414.132 534.339 416.456 537.91 417.618 541.915C418.78 545.92 418.729 550.18 417.47 554.156C416.212 558.131 413.802 561.645 410.547 564.251C407.291 566.858 403.336 568.44 399.181 568.799C395.026 569.158 390.858 568.276 387.204 566.266C383.55 564.256 380.575 561.207 378.653 557.506C376.732 553.805 375.951 549.617 376.41 545.472V545.472C377.026 539.915 379.823 534.831 384.187 531.337C388.551 527.843 394.124 526.226 399.681 526.841L399.688 526.834ZM395.503 564.607C398.83 564.978 402.191 564.354 405.163 562.814C408.134 561.274 410.583 558.888 412.198 555.957C413.814 553.026 414.524 549.681 414.238 546.346C413.953 543.012 412.685 539.836 410.596 537.222C408.506 534.608 405.688 532.672 402.498 531.659C399.308 530.647 395.889 530.603 392.674 531.533C389.459 532.463 386.592 534.326 384.436 536.885C382.279 539.445 380.93 542.586 380.559 545.913V545.913C380.063 550.373 381.359 554.848 384.161 558.354C386.964 561.859 391.043 564.108 395.503 564.607V564.607Z" fill="#FBFBFF" stroke="#182F43" stroke-linecap="round" stroke-linejoin="round"/>
<path d="M399.405 526.129C403.549 526.589 407.462 528.267 410.652 530.952C413.841 533.636 416.163 537.206 417.324 541.209C418.484 545.213 418.432 549.471 417.173 553.445C415.914 557.419 413.504 560.93 410.25 563.535C406.995 566.14 403.042 567.721 398.888 568.079C394.735 568.437 390.569 567.556 386.917 565.546C383.265 563.536 380.29 560.489 378.37 556.789C376.45 553.089 375.669 548.903 376.128 544.759C376.433 542.007 377.276 539.343 378.611 536.917C379.946 534.491 381.746 532.352 383.907 530.622C386.069 528.892 388.55 527.605 391.209 526.834C393.869 526.063 396.654 525.823 399.405 526.129V526.129ZM395.221 563.902C398.547 564.273 401.909 563.649 404.881 562.109C407.852 560.569 410.301 558.183 411.916 555.252C413.531 552.321 414.241 548.976 413.956 545.641C413.671 542.307 412.403 539.131 410.313 536.517C408.224 533.903 405.405 531.967 402.215 530.954C399.025 529.942 395.607 529.898 392.392 530.828C389.177 531.758 386.31 533.621 384.153 536.18C381.997 538.74 380.648 541.881 380.277 545.208C379.783 549.666 381.08 554.138 383.882 557.641C386.685 561.144 390.763 563.391 395.221 563.888V563.902Z" fill="#FBFBFF" stroke="#182F43" stroke-linecap="round" stroke-linejoin="round"/>
<path d="M392.214 569.752L390.595 584.365C390.471 585.49 391.282 586.503 392.407 586.628L393.404 586.738C394.529 586.863 395.542 586.052 395.667 584.927L397.285 570.314C397.41 569.189 396.599 568.176 395.474 568.051L394.476 567.941C393.351 567.816 392.338 568.627 392.214 569.752Z" fill="#182F43" stroke="#182F43" stroke-linecap="round" stroke-linejoin="round"/>
<path d="M389.738 616.855H389.595C389.007 616.79 388.437 616.61 387.919 616.324C387.401 616.038 386.944 615.653 386.576 615.19C386.207 614.727 385.934 614.195 385.772 613.626C385.61 613.057 385.562 612.461 385.631 611.873L388.827 582.981C388.876 582.523 389.016 582.079 389.237 581.675C389.459 581.27 389.758 580.914 390.118 580.626C390.478 580.337 390.891 580.123 391.333 579.995C391.776 579.866 392.24 579.827 392.698 579.878L394.833 580.113C395.758 580.215 396.604 580.68 397.186 581.406C397.768 582.132 398.037 583.06 397.936 583.984L394.74 612.912C394.674 613.5 394.492 614.069 394.206 614.586C393.92 615.103 393.534 615.559 393.072 615.927C392.609 616.295 392.078 616.569 391.51 616.731C390.941 616.894 390.346 616.943 389.759 616.876L389.738 616.855Z" fill="#182F43" stroke="#182F43" stroke-linecap="round" stroke-linejoin="round"/>
<path d="M391.681 604.213C391.681 604.213 396.733 604.405 397.445 605.273C398.157 606.141 398.029 609.194 396.655 609.543C393.161 610.468 385.71 609.927 385.426 609.301C385.141 608.675 384.529 605.031 386.073 604.64C387.929 604.355 389.803 604.213 391.681 604.213Z" fill="#FBFBFF" stroke="#182F43" stroke-linecap="round" stroke-linejoin="round"/>
<path d="M393.163 597.174C393.163 597.174 399.048 596.946 399.966 598.006C400.884 599.067 401.069 603.031 399.511 603.628C395.554 605.144 386.651 604.553 386.253 603.771C385.854 602.988 384.965 598.924 386.708 598.27C388.452 597.615 393.163 597.174 393.163 597.174Z" fill="#FBFBFF" stroke="#182F43" stroke-linecap="round" stroke-linejoin="round"/>
<path d="M394.023 589.181C394.023 589.181 400.313 588.947 401.295 590.078C402.277 591.209 402.47 595.451 400.812 596.084C396.542 597.714 387.291 597.707 386.856 596.874C386.422 596.041 385.255 591.06 387.12 590.356C388.984 589.651 394.023 589.181 394.023 589.181Z" fill="#FBFBFF" stroke="#182F43" stroke-linecap="round" stroke-linejoin="round"/>
<path d="M397.643 581.729C397.643 581.729 403.934 581.487 404.916 582.618C405.898 583.75 406.133 588.119 404.425 588.632C402.717 589.144 390.904 590.247 390.47 589.414C390.036 588.582 388.876 583.6 390.741 582.903C392.605 582.206 397.643 581.729 397.643 581.729Z" fill="#FBFBFF" stroke="#182F43" stroke-linecap="round" stroke-linejoin="round"/>
<path d="M373.179 603.132C375.66 603.23 378.111 602.551 380.188 601.189C385.255 597.695 385.077 589.668 385.077 589.668L386.301 589.319C387.305 588.94 388.246 588.409 389.091 587.747C388.683 589.405 388.445 591.1 388.379 592.806C388.406 593.742 388.778 594.634 389.423 595.312C390.068 595.99 390.941 596.405 391.873 596.478C393.446 596.649 394.143 596.827 394.67 594.728C395.197 592.628 397.808 584.253 397.986 583.036C398.164 581.819 396.278 579.94 393.311 579.478C388.749 579.855 384.245 581.129 379.655 581.129C378.054 581.278 376.519 581.839 375.2 582.758" fill="#FBFBFF"/>
<path d="M373.179 603.132C375.66 603.23 378.111 602.551 380.188 601.189C385.255 597.695 385.077 589.668 385.077 589.668L386.301 589.319C387.305 588.94 388.246 588.409 389.091 587.747C388.683 589.405 388.445 591.1 388.379 592.806C388.406 593.742 388.778 594.634 389.423 595.312C390.068 595.99 390.941 596.405 391.873 596.478C393.446 596.649 394.143 596.827 394.67 594.728C395.197 592.628 397.808 584.253 397.986 583.036C398.164 581.819 396.278 579.94 393.311 579.478C388.749 579.855 384.245 581.129 379.655 581.129C378.054 581.278 376.519 581.839 375.2 582.758" stroke="#182F43" stroke-linecap="round" stroke-linejoin="round"/>
<path d="M368.509 602.411C369.504 602.717 370.526 602.924 371.562 603.03Z" fill="#FBFBFF"/>
<path d="M368.509 602.411C369.504 602.717 370.526 602.924 371.562 603.03" stroke="#182F43" stroke-linecap="round" stroke-linejoin="round"/>
<path d="M362.22 600.141H355.937" stroke="#182F43" stroke-linecap="round" stroke-linejoin="round"/>
<path d="M361.701 601.884H359.082" stroke="#182F43" stroke-linecap="round" stroke-linejoin="round"/>
<path d="M385.092 589.666C385.092 589.666 381.62 589.666 379.342 587.595" stroke="#182F43" stroke-linecap="round" stroke-linejoin="round"/>
<path d="M389.19 587.514C389.288 586.567 389.484 585.632 389.774 584.725" stroke="#182F43" stroke-linecap="round" stroke-linejoin="round"/>
<path d="M394.698 593.835C394.698 593.835 395.36 591.999 394.548 591.337C393.737 590.676 391.609 589.722 391.246 590.455C390.883 591.188 390.072 594.575 390.293 595.23L390.513 595.892" stroke="#182F43" stroke-width="0.5" stroke-linecap="round" stroke-linejoin="round"/>
<path d="M262 616H358V587H262" fill="#ECECF0"/>
<path d="M262 616H358V587H262" stroke="#182F43" stroke-linecap="round" stroke-linejoin="round"/>
<path d="M352.662 612.772C352.662 613.039 352.741 613.301 352.89 613.523C353.039 613.746 353.25 613.919 353.497 614.021C353.744 614.124 354.016 614.15 354.278 614.098C354.54 614.046 354.781 613.917 354.97 613.728C355.159 613.539 355.288 613.298 355.34 613.036C355.393 612.774 355.366 612.502 355.263 612.255C355.161 612.008 354.988 611.796 354.765 611.648C354.543 611.499 354.282 611.42 354.014 611.42V611.42C353.656 611.42 353.312 611.562 353.058 611.816C352.805 612.07 352.662 612.413 352.662 612.772Z" fill="#FBFBFF" stroke="#182F43" stroke-linecap="round" stroke-linejoin="round"/>
<path opacity="0.2" d="M646.227 497.869H583.241C580.605 497.869 578.468 500.006 578.468 502.642V547.763C578.468 550.399 580.605 552.536 583.241 552.536H646.227C648.863 552.536 651 550.399 651 547.763V502.642C651 500.006 648.863 497.869 646.227 497.869Z" fill="black"/>
<path d="M643.759 496H580.773C578.137 496 576 498.137 576 500.773V545.894C576 548.53 578.137 550.667 580.773 550.667H643.759C646.395 550.667 648.532 548.53 648.532 545.894V500.773C648.532 498.137 646.395 496 643.759 496Z" fill="#FBFBFF" stroke="#182F43" stroke-linecap="round" stroke-linejoin="round"/>
<path d="M580.969 520.988H590.644" stroke="#182F43" stroke-linecap="round" stroke-linejoin="round"/>
<path d="M580.969 523.177H596.271" stroke="#182F43" stroke-linecap="round" stroke-linejoin="round"/>
<path d="M580.969 525.36H590.644" stroke="#182F43" stroke-linecap="round" stroke-linejoin="round"/>
<path d="M580.969 527.542H594.926" stroke="#182F43" stroke-linecap="round" stroke-linejoin="round"/>
<path d="M580.969 529.731H590.644" stroke="#182F43" stroke-linecap="round" stroke-linejoin="round"/>
<path d="M580.969 531.914H598.063" stroke="#182F43" stroke-linecap="round" stroke-linejoin="round"/>
<path d="M605.198 520.988H614.873" stroke="#182F43" stroke-linecap="round" stroke-linejoin="round"/>
<path d="M605.198 523.177H620.501" stroke="#182F43" stroke-linecap="round" stroke-linejoin="round"/>
<path d="M605.198 525.36H614.873" stroke="#182F43" stroke-linecap="round" stroke-linejoin="round"/>
<path d="M605.198 527.542H619.155" stroke="#182F43" stroke-linecap="round" stroke-linejoin="round"/>
<path d="M605.198 529.731H614.873" stroke="#182F43" stroke-linecap="round" stroke-linejoin="round"/>
<path d="M605.198 531.914H622.293" stroke="#182F43" stroke-linecap="round" stroke-linejoin="round"/>
<path d="M629.428 520.988H639.103" stroke="#182F43" stroke-linecap="round" stroke-linejoin="round"/>
<path d="M629.428 523.177H644.725" stroke="#182F43" stroke-linecap="round" stroke-linejoin="round"/>
<path d="M629.428 525.36H639.103" stroke="#182F43" stroke-linecap="round" stroke-linejoin="round"/>
<path d="M629.428 527.542H643.379" stroke="#182F43" stroke-linecap="round" stroke-linejoin="round"/>
<path d="M629.428 529.731H639.103" stroke="#182F43" stroke-linecap="round" stroke-linejoin="round"/>
<path d="M629.428 531.914H646.522" stroke="#182F43" stroke-linecap="round" stroke-linejoin="round"/>
<path d="M599.074 513.809H580.349V517.555H599.074V513.809Z" fill="#182F43"/>
<path d="M623.728 513.809H605.003V517.555H623.728V513.809Z" fill="#182F43"/>
<path d="M648.382 513.809H629.657V517.555H648.382V513.809Z" fill="#182F43"/>
<path d="M601.994 513.591V532.545" stroke="#182F43" stroke-linecap="round" stroke-linejoin="round"/>
<path d="M626.447 513.591V532.545" stroke="#182F43" stroke-linecap="round" stroke-linejoin="round"/>
<path d="M587.981 504.932L592.034 503.614C592.294 504.415 592.311 505.276 592.082 506.086C591.853 506.897 591.389 507.621 590.748 508.168C590.108 508.715 589.32 509.06 588.483 509.159C587.647 509.258 586.8 509.107 586.049 508.725C585.298 508.342 584.678 507.746 584.266 507.011C583.855 506.277 583.67 505.436 583.736 504.596C583.801 503.757 584.115 502.955 584.636 502.294C585.157 501.632 585.862 501.139 586.663 500.879C587.088 500.738 587.533 500.668 587.981 500.672V504.932Z" fill="#AA4337" stroke="#182F43" stroke-width="0.5" stroke-miterlimit="10"/>
<path d="M587.981 504.932V500.672C588.883 500.661 589.765 500.942 590.495 501.472C591.225 502.002 591.765 502.753 592.034 503.614L587.981 504.932Z" fill="#182F43" stroke="#182F43" stroke-width="0.5" stroke-miterlimit="10"/>
<path d="M629.015 504.932L633.068 503.614C633.328 504.416 633.345 505.276 633.116 506.087C632.888 506.898 632.423 507.623 631.783 508.17C631.142 508.717 630.353 509.062 629.516 509.161C628.68 509.26 627.832 509.108 627.082 508.726C626.331 508.343 625.711 507.746 625.299 507.011C624.888 506.275 624.704 505.435 624.77 504.595C624.837 503.755 625.151 502.953 625.673 502.292C626.195 501.63 626.901 501.139 627.703 500.879C628.126 500.738 628.569 500.668 629.015 500.672V504.932Z" fill="#AA4337" stroke="#182F43" stroke-width="0.5" stroke-miterlimit="10"/>
<path d="M629.015 504.932V500.672C629.917 500.66 630.799 500.94 631.53 501.471C632.26 502.001 632.8 502.753 633.068 503.614L629.015 504.932Z" fill="#182F43" stroke="#182F43" stroke-width="0.5" stroke-miterlimit="10"/>
<path d="M601.67 504.932V509.191C600.54 509.191 599.457 508.743 598.658 507.944C597.859 507.145 597.41 506.061 597.41 504.932C597.41 503.802 597.859 502.718 598.658 501.92C599.457 501.121 600.54 500.672 601.67 500.672V500.672V504.932Z" fill="#AA4337" stroke="#182F43" stroke-width="0.5" stroke-miterlimit="10"/>
<path d="M601.67 504.932V500.672C602.8 500.672 603.883 501.121 604.682 501.92C605.481 502.718 605.93 503.802 605.93 504.932C605.93 506.061 605.481 507.145 604.682 507.944C603.883 508.743 602.8 509.191 601.67 509.191V504.932Z" fill="#182F43" stroke="#182F43" stroke-width="0.5" stroke-miterlimit="10"/>
<path d="M615.337 504.932L619.39 506.249C619.217 506.782 618.941 507.275 618.577 507.7C618.214 508.126 617.77 508.476 617.271 508.73C616.772 508.984 616.228 509.137 615.67 509.181C615.112 509.225 614.551 509.158 614.019 508.985C613.487 508.812 612.994 508.536 612.568 508.172C612.143 507.809 611.793 507.365 611.539 506.866C611.285 506.368 611.132 505.824 611.088 505.266C611.044 504.708 611.11 504.147 611.283 503.614C611.553 502.753 612.092 502.002 612.822 501.472C613.553 500.942 614.434 500.661 615.337 500.672V504.932Z" fill="#AA4337" stroke="#182F43" stroke-width="0.5" stroke-miterlimit="10"/>
<path d="M615.337 504.932V500.672C615.897 500.671 616.451 500.781 616.969 500.995C617.486 501.208 617.956 501.522 618.353 501.918C618.749 502.313 619.063 502.783 619.277 503.3C619.492 503.817 619.602 504.372 619.602 504.932C619.604 505.379 619.533 505.825 619.39 506.249L615.337 504.932Z" fill="#182F43" stroke="#182F43" stroke-width="0.5" stroke-miterlimit="10"/>
<path d="M642.693 504.932L646.746 506.249C646.573 506.782 646.297 507.275 645.933 507.7C645.569 508.126 645.126 508.476 644.627 508.73C644.128 508.984 643.584 509.137 643.026 509.181C642.468 509.225 641.907 509.158 641.375 508.985C640.843 508.812 640.35 508.536 639.924 508.172C639.499 507.809 639.149 507.365 638.895 506.866C638.641 506.368 638.488 505.824 638.444 505.266C638.4 504.708 638.466 504.147 638.639 503.614C638.909 502.753 639.448 502.002 640.178 501.472C640.909 500.942 641.79 500.661 642.693 500.672V504.932Z" fill="#AA4337" stroke="#182F43" stroke-width="0.5" stroke-miterlimit="10"/>
<path d="M642.693 504.932V500.672C643.252 500.671 643.807 500.781 644.324 500.995C644.841 501.208 645.311 501.522 645.707 501.918C646.102 502.314 646.416 502.783 646.63 503.301C646.844 503.818 646.953 504.372 646.953 504.932C646.957 505.379 646.887 505.824 646.746 506.249L642.693 504.932Z" fill="#182F43" stroke="#182F43" stroke-width="0.5" stroke-miterlimit="10"/>
<path d="M643.53 543.604H639.801V544.866H643.53V543.604Z" fill="#AA4337" stroke="#182F43" stroke-width="0.75" stroke-linecap="round" stroke-linejoin="round"/>
<path d="M639.388 537.302H635.658V544.867H639.388V537.302Z" fill="#182F43" stroke="#182F43" stroke-width="0.75" stroke-linecap="round" stroke-linejoin="round"/>
<path d="M635.251 540.021H631.521V544.872H635.251V540.021Z" fill="#FBFBFF" stroke="#182F43" stroke-width="0.75" stroke-linecap="round" stroke-linejoin="round"/>
<path d="M631.108 536.235H627.379V544.866H631.108V536.235Z" fill="#AA4337" stroke="#182F43" stroke-width="0.75" stroke-linecap="round" stroke-linejoin="round"/>
<path d="M626.966 542.639H623.236V544.872H626.966V542.639Z" fill="#182F43" stroke="#182F43" stroke-width="0.75" stroke-linecap="round" stroke-linejoin="round"/>
<path d="M622.823 541.958H619.094V544.867H622.823V541.958Z" fill="#FBFBFF" stroke="#182F43" stroke-width="0.75" stroke-linecap="round" stroke-linejoin="round"/>
<path d="M618.681 539.049H614.952V544.872H618.681V539.049Z" fill="#AA4337" stroke="#182F43" stroke-width="0.75" stroke-linecap="round" stroke-linejoin="round"/>
<path d="M614.538 543.901H610.809V544.873H614.538V543.901Z" fill="#182F43" stroke="#182F43" stroke-width="0.75" stroke-linecap="round" stroke-linejoin="round"/>
<path d="M610.396 537.302H606.667V544.867H610.396V537.302Z" fill="#FBFBFF" stroke="#182F43" stroke-width="0.75" stroke-linecap="round" stroke-linejoin="round"/>
<path d="M606.254 538.758H602.524V544.871H606.254V538.758Z" fill="#AA4337" stroke="#182F43" stroke-width="0.75" stroke-linecap="round" stroke-linejoin="round"/>
<path d="M602.117 544.576H598.387V544.866H602.117V544.576Z" fill="#182F43" stroke="#182F43" stroke-width="0.75" stroke-linecap="round" stroke-linejoin="round"/>
<path d="M597.974 544.482H594.245V544.868H597.974V544.482Z" fill="#FBFBFF" stroke="#182F43" stroke-width="0.75" stroke-linecap="round" stroke-linejoin="round"/>
<path d="M593.832 540.021H590.103V544.872H593.832V540.021Z" fill="#AA4337" stroke="#182F43" stroke-width="0.75" stroke-linecap="round" stroke-linejoin="round"/>
<path d="M589.689 543.901H585.96V544.873H589.689V543.901Z" fill="#182F43" stroke="#182F43" stroke-width="0.75" stroke-linecap="round" stroke-linejoin="round"/>
<path d="M585.547 542.929H581.817V544.872H585.547V542.929Z" fill="#FBFBFF" stroke="#182F43" stroke-width="0.75" stroke-linecap="round" stroke-linejoin="round"/>
<path d="M338 705L672 705" stroke="#182F43"/>
<defs>
<filter id="filter0_d_1513_7640" x="120.771" y="314.5" width="148.552" height="284.195" filterUnits="userSpaceOnUse" color-interpolation-filters="sRGB">
<feFlood flood-opacity="0" result="BackgroundImageFix"/>
<feColorMatrix in="SourceAlpha" type="matrix" values="0 0 0 0 0 0 0 0 0 0 0 0 0 0 0 0 0 0 127 0" result="hardAlpha"/>
<feOffset dx="-5" dy="-5"/>
<feComposite in2="hardAlpha" operator="out"/>
<feColorMatrix type="matrix" values="0 0 0 0 0.666667 0 0 0 0 0.262745 0 0 0 0 0.215686 0 0 0 1 0"/>
<feBlend mode="normal" in2="BackgroundImageFix" result="effect1_dropShadow_1513_7640"/>
<feBlend mode="normal" in="SourceGraphic" in2="effect1_dropShadow_1513_7640" result="shape"/>
</filter>
</defs>
</svg>
