<svg width="602" height="497" viewBox="0 0 602 497" fill="none" xmlns="http://www.w3.org/2000/svg">
<path d="M102.304 187.242L103.9 192.154H109.064L104.886 195.189L106.482 200.1L102.304 197.065L98.1262 200.1L99.7221 195.189L95.5442 192.154H100.708L102.304 187.242Z" fill="#FFC100"/>
<path d="M0 389.354H229" stroke="#182F43" stroke-miterlimit="10"/>
<g filter="url(#filter0_d_959_5584)">
<path d="M169.027 111H52.0681C45.0007 111 39.2715 116.729 39.2715 123.797V376.398C39.2715 383.466 45.0007 389.195 52.0681 389.195H169.027C176.094 389.195 181.824 383.466 181.824 376.398V123.797C181.824 116.729 176.094 111 169.027 111Z" fill="#182F43"/>
<path d="M115.399 381.182C115.399 380.223 115.115 379.286 114.582 378.489C114.049 377.692 113.292 377.071 112.407 376.704C111.521 376.337 110.546 376.241 109.606 376.428C108.666 376.615 107.802 377.077 107.124 377.755C106.446 378.433 105.985 379.296 105.798 380.237C105.611 381.177 105.707 382.151 106.074 383.037C106.44 383.923 107.062 384.68 107.859 385.212C108.656 385.745 109.593 386.029 110.552 386.029C111.837 386.029 113.07 385.519 113.979 384.61C114.888 383.701 115.399 382.468 115.399 381.182V381.182Z" stroke="#FBFBFF" stroke-linecap="round" stroke-linejoin="round"/>
<path d="M169.027 111H52.0681C45.0007 111 39.2715 116.729 39.2715 123.797V376.398C39.2715 383.466 45.0007 389.195 52.0681 389.195H169.027C176.094 389.195 181.824 383.466 181.824 376.398V123.797C181.824 116.729 176.094 111 169.027 111Z" stroke="#182F43" stroke-linecap="round" stroke-linejoin="round"/>
<path d="M175.496 129.886H45.6172V372.678H175.496V129.886Z" fill="#FBFBFF" stroke="#182F43" stroke-linecap="round" stroke-linejoin="round"/>
<path d="M171.072 132.407H160.302V138.312H171.072V132.407Z" stroke="#182F43" stroke-width="0.821067" stroke-linecap="round" stroke-linejoin="round"/>
<path d="M168.701 132.407H160.302V138.312H168.701V132.407Z" fill="#182F43" stroke="#182F43" stroke-width="0.725073" stroke-linecap="round" stroke-linejoin="round"/>
<path d="M172.561 134.063H171.045V136.663H172.561V134.063Z" fill="#182F43" stroke="#182F43" stroke-width="0.725073" stroke-linecap="round" stroke-linejoin="round"/>
<path d="M50.5083 134.239H48.5342V137.623H50.5083V134.239Z" fill="#182F43" stroke="#182F43" stroke-width="0.883086" stroke-linecap="round" stroke-linejoin="round"/>
<path d="M53.6104 133.05H51.6362V137.624H53.6104V133.05Z" fill="#182F43" stroke="#182F43" stroke-width="0.883086" stroke-linecap="round" stroke-linejoin="round"/>
<path d="M56.7217 131.649H54.7476V137.625H56.7217V131.649Z" fill="#182F43" stroke="#182F43" stroke-width="0.883086" stroke-linecap="round" stroke-linejoin="round"/>
<path d="M172.262 141.685H47.7354V158.98H172.262V141.685Z" fill="#182F43"/>
<path d="M142.514 146.527H52.5781V154.137H142.514V146.527Z" fill="#FBFBFF"/>
<path d="M167.419 145.835H152.891V147.219H167.419V145.835Z" fill="#FBFBFF"/>
<path d="M167.419 149.294H152.891V150.678H167.419V149.294Z" fill="#FBFBFF"/>
<path d="M167.419 152.753H152.891V154.137H167.419V152.753Z" fill="#FBFBFF"/>
</g>
<path d="M78.4952 171.173H52.5361V196.514H78.4952V171.173Z" fill="#AA4337" stroke="#182F43" stroke-miterlimit="10"/>
<path d="M131.428 171.864H87.3694C86.2232 171.864 85.2939 172.793 85.2939 173.94C85.2939 175.086 86.2232 176.015 87.3694 176.015H131.428C132.574 176.015 133.504 175.086 133.504 173.94C133.504 172.793 132.574 171.864 131.428 171.864Z" fill="#182F43" stroke="#182F43" stroke-miterlimit="10"/>
<path d="M132.577 180.444H86.2211C85.709 180.444 85.2939 180.859 85.2939 181.371C85.2939 181.883 85.709 182.299 86.2211 182.299H132.577C133.089 182.299 133.504 181.883 133.504 181.371C133.504 180.859 133.089 180.444 132.577 180.444Z" fill="#BDBDBD"/>
<path d="M90.0484 188.446C90.1083 188.262 90.369 188.261 90.4288 188.446L91.1651 190.712C91.1919 190.794 91.2687 190.85 91.3553 190.85H93.7378C93.9316 190.85 94.0121 191.098 93.8554 191.212L91.9279 192.612C91.8578 192.663 91.8285 192.753 91.8552 192.836L92.5915 195.102C92.6513 195.286 92.4404 195.439 92.2837 195.325L90.3562 193.925C90.2861 193.874 90.1912 193.874 90.1211 193.925L88.1935 195.325C88.0368 195.439 87.8259 195.286 87.8858 195.102L88.622 192.836C88.6488 192.753 88.6195 192.663 88.5494 192.612L86.6218 191.212C86.4651 191.098 86.5457 190.85 86.7394 190.85H89.122C89.2086 190.85 89.2854 190.794 89.3122 190.712L90.0484 188.446Z" fill="#FFC100"/>
<path d="M99.3194 188.446C99.3793 188.262 99.64 188.261 99.6998 188.446L100.436 190.712C100.463 190.794 100.54 190.85 100.626 190.85H103.009C103.203 190.85 103.283 191.098 103.126 191.212L101.199 192.612C101.129 192.663 101.099 192.753 101.126 192.836L101.862 195.102C101.922 195.286 101.711 195.439 101.555 195.325L99.6272 193.925C99.5571 193.874 99.4622 193.874 99.3921 193.925L97.4645 195.325C97.3078 195.439 97.0969 195.286 97.1568 195.102L97.893 192.836C97.9198 192.753 97.8905 192.663 97.8204 192.612L95.8928 191.212C95.7361 191.098 95.8167 190.85 96.0104 190.85H98.3929C98.4796 190.85 98.5564 190.794 98.5832 190.712L99.3194 188.446Z" fill="#FFC100"/>
<path d="M108.59 188.446C108.65 188.262 108.911 188.261 108.971 188.446L109.707 190.712C109.734 190.794 109.811 190.85 109.897 190.85H112.28C112.474 190.85 112.554 191.098 112.397 191.212L110.47 192.612C110.4 192.663 110.37 192.753 110.397 192.836L111.133 195.102C111.193 195.286 110.982 195.439 110.826 195.325L108.898 193.925C108.828 193.874 108.733 193.874 108.663 193.925L106.736 195.325C106.579 195.439 106.368 195.286 106.428 195.102L107.164 192.836C107.191 192.753 107.161 192.663 107.091 192.612L105.164 191.212C105.007 191.098 105.088 190.85 105.281 190.85H107.664C107.751 190.85 107.827 190.794 107.854 190.712L108.59 188.446Z" fill="#FFC100"/>
<path d="M117.862 188.446C117.922 188.262 118.182 188.261 118.242 188.446L118.979 190.712C119.005 190.794 119.082 190.85 119.169 190.85H121.551C121.745 190.85 121.826 191.098 121.669 191.212L119.741 192.612C119.671 192.663 119.642 192.753 119.669 192.836L120.405 195.102C120.465 195.286 120.254 195.439 120.097 195.325L118.17 193.925C118.1 193.874 118.005 193.874 117.935 193.925L116.007 195.325C115.85 195.439 115.639 195.286 115.699 195.102L116.435 192.836C116.462 192.753 116.433 192.663 116.363 192.612L114.435 191.212C114.279 191.098 114.359 190.85 114.553 190.85H116.935C117.022 190.85 117.099 190.794 117.126 190.712L117.862 188.446Z" fill="#FFC100"/>
<path d="M127.133 188.446C127.193 188.262 127.453 188.261 127.513 188.446L128.25 190.712C128.276 190.794 128.353 190.85 128.44 190.85H130.822C131.016 190.85 131.097 191.098 130.94 191.212L129.012 192.612C128.942 192.663 128.913 192.753 128.94 192.836L129.676 195.102C129.736 195.286 129.525 195.439 129.368 195.325L127.441 193.925C127.371 193.874 127.276 193.874 127.206 193.925L125.278 195.325C125.121 195.439 124.91 195.286 124.97 195.102L125.706 192.836C125.733 192.753 125.704 192.663 125.634 192.612L123.706 191.212C123.55 191.098 123.63 190.85 123.824 190.85H126.206C126.293 190.85 126.37 190.794 126.397 190.712L127.133 188.446Z" fill="#E0E0E0"/>
<path d="M168.734 171.173H142.775V185.389H168.734V171.173Z" stroke="#BDBDBD" stroke-miterlimit="10"/>
<path d="M150.503 176.373H148.056V177.931H150.42V178.805H148.056V181.062H147.102V175.499H150.503V176.373Z" fill="#BDBDBD"/>
<path d="M154.705 181.062L153.478 179.035H152.349V181.062H151.395V175.499H153.718C154.238 175.499 154.678 175.674 155.037 176.024C155.402 176.368 155.585 176.789 155.585 177.287C155.585 177.642 155.477 177.968 155.261 178.264C155.051 178.556 154.774 178.768 154.432 178.9L155.751 181.062H154.705ZM152.349 176.357V178.217H153.718C153.972 178.217 154.188 178.127 154.365 177.947C154.542 177.766 154.631 177.547 154.631 177.287C154.631 177.027 154.542 176.808 154.365 176.627C154.188 176.447 153.972 176.357 153.718 176.357H152.349Z" fill="#BDBDBD"/>
<path d="M157.437 180.188H160.009V181.062H156.483V175.499H159.967V176.373H157.437V177.819H159.76V178.686H157.437V180.188Z" fill="#BDBDBD"/>
<path d="M161.836 180.188H164.408V181.062H160.882V175.499H164.366V176.373H161.836V177.819H164.159V178.686H161.836V180.188Z" fill="#BDBDBD"/>
<path d="M59.335 188.478V178.589H71.0784V186.171M59.335 188.478H71.0784V186.171M59.335 188.478L63.0434 184.522L64.2795 185.841L67.3699 181.885L71.0784 186.171M63.6615 181.37C63.6615 182.224 62.9697 182.915 62.1163 182.915C61.2629 182.915 60.5711 182.224 60.5711 181.37C60.5711 180.517 61.2629 179.825 62.1163 179.825C62.9697 179.825 63.6615 180.517 63.6615 181.37Z" stroke="#FBFBFF"/>
<path d="M78.4952 206.405H52.5361V231.746H78.4952V206.405Z" fill="#AA4337" stroke="#182F43" stroke-miterlimit="10"/>
<path d="M131.428 207.097H87.3694C86.2232 207.097 85.2939 208.026 85.2939 209.172C85.2939 210.318 86.2232 211.248 87.3694 211.248H131.428C132.574 211.248 133.504 210.318 133.504 209.172C133.504 208.026 132.574 207.097 131.428 207.097Z" fill="#182F43" stroke="#182F43" stroke-miterlimit="10"/>
<path d="M132.577 215.677H86.2211C85.709 215.677 85.2939 216.092 85.2939 216.604C85.2939 217.116 85.709 217.531 86.2211 217.531H132.577C133.089 217.531 133.504 217.116 133.504 216.604C133.504 216.092 133.089 215.677 132.577 215.677Z" fill="#BDBDBD"/>
<path d="M90.0484 223.679C90.1083 223.495 90.369 223.495 90.4288 223.679L91.1651 225.945C91.1919 226.028 91.2687 226.083 91.3553 226.083H93.7378C93.9316 226.083 94.0121 226.331 93.8554 226.445L91.9279 227.846C91.8578 227.896 91.8285 227.987 91.8552 228.069L92.5915 230.335C92.6513 230.519 92.4404 230.673 92.2837 230.559L90.3562 229.158C90.2861 229.107 90.1912 229.107 90.1211 229.158L88.1935 230.559C88.0368 230.673 87.8259 230.519 87.8858 230.335L88.622 228.069C88.6488 227.987 88.6195 227.896 88.5494 227.846L86.6218 226.445C86.4651 226.331 86.5457 226.083 86.7394 226.083H89.122C89.2086 226.083 89.2854 226.028 89.3122 225.945L90.0484 223.679Z" fill="#FFC100"/>
<path d="M99.3194 223.679C99.3793 223.495 99.64 223.495 99.6998 223.679L100.436 225.945C100.463 226.028 100.54 226.083 100.626 226.083H103.009C103.203 226.083 103.283 226.331 103.126 226.445L101.199 227.846C101.129 227.896 101.099 227.987 101.126 228.069L101.862 230.335C101.922 230.519 101.711 230.673 101.555 230.559L99.6272 229.158C99.5571 229.107 99.4622 229.107 99.3921 229.158L97.4645 230.559C97.3078 230.673 97.0969 230.519 97.1568 230.335L97.893 228.069C97.9198 227.987 97.8905 227.896 97.8204 227.846L95.8928 226.445C95.7361 226.331 95.8167 226.083 96.0104 226.083H98.3929C98.4796 226.083 98.5564 226.028 98.5832 225.945L99.3194 223.679Z" fill="#FFC100"/>
<path d="M108.59 223.679C108.65 223.495 108.911 223.495 108.971 223.679L109.707 225.945C109.734 226.028 109.811 226.083 109.897 226.083H112.28C112.474 226.083 112.554 226.331 112.397 226.445L110.47 227.846C110.4 227.896 110.37 227.987 110.397 228.069L111.133 230.335C111.193 230.519 110.982 230.673 110.826 230.559L108.898 229.158C108.828 229.107 108.733 229.107 108.663 229.158L106.736 230.559C106.579 230.673 106.368 230.519 106.428 230.335L107.164 228.069C107.191 227.987 107.161 227.896 107.091 227.846L105.164 226.445C105.007 226.331 105.088 226.083 105.281 226.083H107.664C107.751 226.083 107.827 226.028 107.854 225.945L108.59 223.679Z" fill="#FFC100"/>
<path d="M117.862 223.679C117.922 223.495 118.182 223.495 118.242 223.679L118.979 225.945C119.005 226.028 119.082 226.083 119.169 226.083H121.551C121.745 226.083 121.826 226.331 121.669 226.445L119.741 227.846C119.671 227.896 119.642 227.987 119.669 228.069L120.405 230.335C120.465 230.519 120.254 230.673 120.097 230.559L118.17 229.158C118.1 229.107 118.005 229.107 117.935 229.158L116.007 230.559C115.85 230.673 115.639 230.519 115.699 230.335L116.435 228.069C116.462 227.987 116.433 227.896 116.363 227.846L114.435 226.445C114.279 226.331 114.359 226.083 114.553 226.083H116.935C117.022 226.083 117.099 226.028 117.126 225.945L117.862 223.679Z" fill="#FFC100"/>
<path d="M127.133 223.679C127.193 223.495 127.453 223.495 127.513 223.679L128.25 225.945C128.276 226.028 128.353 226.083 128.44 226.083H130.822C131.016 226.083 131.097 226.331 130.94 226.445L129.012 227.846C128.942 227.896 128.913 227.987 128.94 228.069L129.676 230.335C129.736 230.519 129.525 230.673 129.368 230.559L127.441 229.158C127.371 229.107 127.276 229.107 127.206 229.158L125.278 230.559C125.121 230.673 124.91 230.519 124.97 230.335L125.706 228.069C125.733 227.987 125.704 227.896 125.634 227.846L123.706 226.445C123.55 226.331 123.63 226.083 123.824 226.083H126.206C126.293 226.083 126.37 226.028 126.397 225.945L127.133 223.679Z" fill="#E0E0E0"/>
<path d="M168.734 206.405H142.775V220.621H168.734V206.405Z" stroke="#BDBDBD" stroke-miterlimit="10"/>
<path d="M150.503 211.605H148.056V213.162H150.42V214.036H148.056V216.293H147.102V210.73H150.503V211.605Z" fill="#BDBDBD"/>
<path d="M154.705 216.293L153.478 214.267H152.349V216.293H151.395V210.73H153.718C154.238 210.73 154.678 210.905 155.037 211.255C155.402 211.599 155.585 212.02 155.585 212.518C155.585 212.873 155.477 213.199 155.261 213.496C155.051 213.787 154.774 213.999 154.432 214.132L155.751 216.293H154.705ZM152.349 211.589V213.448H153.718C153.972 213.448 154.188 213.358 154.365 213.178C154.542 212.998 154.631 212.778 154.631 212.518C154.631 212.259 154.542 212.039 154.365 211.859C154.188 211.679 153.972 211.589 153.718 211.589H152.349Z" fill="#BDBDBD"/>
<path d="M157.437 215.419H160.009V216.293H156.483V210.73H159.967V211.605H157.437V213.051H159.76V213.917H157.437V215.419Z" fill="#BDBDBD"/>
<path d="M161.836 215.419H164.408V216.293H160.882V210.73H164.366V211.605H161.836V213.051H164.159V213.917H161.836V215.419Z" fill="#BDBDBD"/>
<path d="M59.335 223.71V213.821H71.0784V221.403M59.335 223.71H71.0784V221.403M59.335 223.71L63.0434 219.755L64.2795 221.073L67.3699 217.117L71.0784 221.403M63.6615 216.603C63.6615 217.456 62.9697 218.148 62.1163 218.148C61.2629 218.148 60.5711 217.456 60.5711 216.603C60.5711 215.749 61.2629 215.057 62.1163 215.057C62.9697 215.057 63.6615 215.749 63.6615 216.603Z" stroke="#FBFBFF"/>
<path d="M78.4952 241.634H52.5361V266.975H78.4952V241.634Z" fill="#AA4337" stroke="#182F43" stroke-miterlimit="10"/>
<path d="M131.428 242.325H87.3694C86.2232 242.325 85.2939 243.254 85.2939 244.401C85.2939 245.547 86.2232 246.476 87.3694 246.476H131.428C132.574 246.476 133.504 245.547 133.504 244.401C133.504 243.254 132.574 242.325 131.428 242.325Z" fill="#182F43" stroke="#182F43" stroke-miterlimit="10"/>
<path d="M132.577 250.905H86.2211C85.709 250.905 85.2939 251.32 85.2939 251.832C85.2939 252.344 85.709 252.759 86.2211 252.759H132.577C133.089 252.759 133.504 252.344 133.504 251.832C133.504 251.32 133.089 250.905 132.577 250.905Z" fill="#BDBDBD"/>
<path d="M90.0484 258.908C90.1083 258.723 90.369 258.723 90.4288 258.908L91.1651 261.174C91.1919 261.256 91.2687 261.312 91.3553 261.312H93.7378C93.9316 261.312 94.0121 261.56 93.8554 261.674L91.9279 263.074C91.8578 263.125 91.8285 263.215 91.8552 263.298L92.5915 265.564C92.6513 265.748 92.4404 265.901 92.2837 265.787L90.3562 264.387C90.2861 264.336 90.1912 264.336 90.1211 264.387L88.1935 265.787C88.0368 265.901 87.8259 265.748 87.8858 265.564L88.622 263.298C88.6488 263.215 88.6195 263.125 88.5494 263.074L86.6218 261.674C86.4651 261.56 86.5457 261.312 86.7394 261.312H89.122C89.2086 261.312 89.2854 261.256 89.3122 261.174L90.0484 258.908Z" fill="#FFC100"/>
<path d="M99.3194 258.908C99.3793 258.723 99.64 258.723 99.6998 258.908L100.436 261.174C100.463 261.256 100.54 261.312 100.626 261.312H103.009C103.203 261.312 103.283 261.56 103.126 261.674L101.199 263.074C101.129 263.125 101.099 263.215 101.126 263.298L101.862 265.564C101.922 265.748 101.711 265.901 101.555 265.787L99.6272 264.387C99.5571 264.336 99.4622 264.336 99.3921 264.387L97.4645 265.787C97.3078 265.901 97.0969 265.748 97.1568 265.564L97.893 263.298C97.9198 263.215 97.8905 263.125 97.8204 263.074L95.8928 261.674C95.7361 261.56 95.8167 261.312 96.0104 261.312H98.3929C98.4796 261.312 98.5564 261.256 98.5832 261.174L99.3194 258.908Z" fill="#FFC100"/>
<path d="M108.59 258.908C108.65 258.723 108.911 258.723 108.971 258.908L109.707 261.174C109.734 261.256 109.811 261.312 109.897 261.312H112.28C112.474 261.312 112.554 261.56 112.397 261.674L110.47 263.074C110.4 263.125 110.37 263.215 110.397 263.298L111.133 265.564C111.193 265.748 110.982 265.901 110.826 265.787L108.898 264.387C108.828 264.336 108.733 264.336 108.663 264.387L106.736 265.787C106.579 265.901 106.368 265.748 106.428 265.564L107.164 263.298C107.191 263.215 107.161 263.125 107.091 263.074L105.164 261.674C105.007 261.56 105.088 261.312 105.281 261.312H107.664C107.751 261.312 107.827 261.256 107.854 261.174L108.59 258.908Z" fill="#FFC100"/>
<path d="M117.862 258.908C117.922 258.723 118.182 258.723 118.242 258.908L118.979 261.174C119.005 261.256 119.082 261.312 119.169 261.312H121.551C121.745 261.312 121.826 261.56 121.669 261.674L119.741 263.074C119.671 263.125 119.642 263.215 119.669 263.298L120.405 265.564C120.465 265.748 120.254 265.901 120.097 265.787L118.17 264.387C118.1 264.336 118.005 264.336 117.935 264.387L116.007 265.787C115.85 265.901 115.639 265.748 115.699 265.564L116.435 263.298C116.462 263.215 116.433 263.125 116.363 263.074L114.435 261.674C114.279 261.56 114.359 261.312 114.553 261.312H116.935C117.022 261.312 117.099 261.256 117.126 261.174L117.862 258.908Z" fill="#FFC100"/>
<path d="M127.133 258.908C127.193 258.723 127.453 258.723 127.513 258.908L128.25 261.174C128.276 261.256 128.353 261.312 128.44 261.312H130.822C131.016 261.312 131.097 261.56 130.94 261.674L129.012 263.074C128.942 263.125 128.913 263.215 128.94 263.298L129.676 265.564C129.736 265.748 129.525 265.901 129.368 265.787L127.441 264.387C127.371 264.336 127.276 264.336 127.206 264.387L125.278 265.787C125.121 265.901 124.91 265.748 124.97 265.564L125.706 263.298C125.733 263.215 125.704 263.125 125.634 263.074L123.706 261.674C123.55 261.56 123.63 261.312 123.824 261.312H126.206C126.293 261.312 126.37 261.256 126.397 261.174L127.133 258.908Z" fill="#E0E0E0"/>
<path d="M168.734 241.634H142.775V255.849H168.734V241.634Z" stroke="#BDBDBD" stroke-miterlimit="10"/>
<path d="M150.503 246.834H148.056V248.392H150.42V249.266H148.056V251.523H147.102V245.96H150.503V246.834Z" fill="#BDBDBD"/>
<path d="M154.705 251.523L153.478 249.496H152.349V251.523H151.395V245.96H153.718C154.238 245.96 154.678 246.135 155.037 246.484C155.402 246.829 155.585 247.25 155.585 247.748C155.585 248.103 155.477 248.429 155.261 248.725C155.051 249.017 154.774 249.229 154.432 249.361L155.751 251.523H154.705ZM152.349 246.818V248.678H153.718C153.972 248.678 154.188 248.588 154.365 248.408C154.542 248.227 154.631 248.008 154.631 247.748C154.631 247.488 154.542 247.269 154.365 247.088C154.188 246.908 153.972 246.818 153.718 246.818H152.349Z" fill="#BDBDBD"/>
<path d="M157.437 250.648H160.009V251.523H156.483V245.96H159.967V246.834H157.437V248.28H159.76V249.147H157.437V250.648Z" fill="#BDBDBD"/>
<path d="M161.836 250.648H164.408V251.523H160.882V245.96H164.366V246.834H161.836V248.28H164.159V249.147H161.836V250.648Z" fill="#BDBDBD"/>
<path d="M59.335 258.94V249.051H71.0784V256.632M59.335 258.94H71.0784V256.632M59.335 258.94L63.0434 254.984L64.2795 256.303L67.3699 252.347L71.0784 256.632M63.6615 251.832C63.6615 252.685 62.9697 253.377 62.1163 253.377C61.2629 253.377 60.5711 252.685 60.5711 251.832C60.5711 250.979 61.2629 250.287 62.1163 250.287C62.9697 250.287 63.6615 250.979 63.6615 251.832Z" stroke="#FBFBFF"/>
<path d="M78.4952 276.864H52.5361V302.205H78.4952V276.864Z" fill="#AA4337" stroke="#182F43" stroke-miterlimit="10"/>
<path d="M131.428 277.556H87.3694C86.2232 277.556 85.2939 278.485 85.2939 279.631C85.2939 280.777 86.2232 281.707 87.3694 281.707H131.428C132.574 281.707 133.504 280.777 133.504 279.631C133.504 278.485 132.574 277.556 131.428 277.556Z" fill="#182F43" stroke="#182F43" stroke-miterlimit="10"/>
<path d="M132.577 286.136H86.2211C85.709 286.136 85.2939 286.551 85.2939 287.063C85.2939 287.575 85.709 287.99 86.2211 287.99H132.577C133.089 287.99 133.504 287.575 133.504 287.063C133.504 286.551 133.089 286.136 132.577 286.136Z" fill="#BDBDBD"/>
<path d="M90.0484 294.138C90.1083 293.954 90.369 293.954 90.4288 294.138L91.1651 296.404C91.1919 296.486 91.2687 296.542 91.3553 296.542H93.7378C93.9316 296.542 94.0121 296.79 93.8554 296.904L91.9279 298.305C91.8578 298.355 91.8285 298.446 91.8552 298.528L92.5915 300.794C92.6513 300.978 92.4404 301.132 92.2837 301.018L90.3562 299.617C90.2861 299.566 90.1912 299.566 90.1211 299.617L88.1935 301.018C88.0368 301.132 87.8259 300.978 87.8858 300.794L88.622 298.528C88.6488 298.446 88.6195 298.355 88.5494 298.305L86.6218 296.904C86.4651 296.79 86.5457 296.542 86.7394 296.542H89.122C89.2086 296.542 89.2854 296.486 89.3122 296.404L90.0484 294.138Z" fill="#FFC100"/>
<path d="M99.3194 294.138C99.3793 293.954 99.64 293.954 99.6998 294.138L100.436 296.404C100.463 296.486 100.54 296.542 100.626 296.542H103.009C103.203 296.542 103.283 296.79 103.126 296.904L101.199 298.305C101.129 298.355 101.099 298.446 101.126 298.528L101.862 300.794C101.922 300.978 101.711 301.132 101.555 301.018L99.6272 299.617C99.5571 299.566 99.4622 299.566 99.3921 299.617L97.4645 301.018C97.3078 301.132 97.0969 300.978 97.1568 300.794L97.893 298.528C97.9198 298.446 97.8905 298.355 97.8204 298.305L95.8928 296.904C95.7361 296.79 95.8167 296.542 96.0104 296.542H98.3929C98.4796 296.542 98.5564 296.486 98.5832 296.404L99.3194 294.138Z" fill="#FFC100"/>
<path d="M108.59 294.138C108.65 293.954 108.911 293.954 108.971 294.138L109.707 296.404C109.734 296.486 109.811 296.542 109.897 296.542H112.28C112.474 296.542 112.554 296.79 112.397 296.904L110.47 298.305C110.4 298.355 110.37 298.446 110.397 298.528L111.133 300.794C111.193 300.978 110.982 301.132 110.826 301.018L108.898 299.617C108.828 299.566 108.733 299.566 108.663 299.617L106.736 301.018C106.579 301.132 106.368 300.978 106.428 300.794L107.164 298.528C107.191 298.446 107.161 298.355 107.091 298.305L105.164 296.904C105.007 296.79 105.088 296.542 105.281 296.542H107.664C107.751 296.542 107.827 296.486 107.854 296.404L108.59 294.138Z" fill="#FFC100"/>
<path d="M117.862 294.138C117.922 293.954 118.182 293.954 118.242 294.138L118.979 296.404C119.005 296.486 119.082 296.542 119.169 296.542H121.551C121.745 296.542 121.826 296.79 121.669 296.904L119.741 298.305C119.671 298.355 119.642 298.446 119.669 298.528L120.405 300.794C120.465 300.978 120.254 301.132 120.097 301.018L118.17 299.617C118.1 299.566 118.005 299.566 117.935 299.617L116.007 301.018C115.85 301.132 115.639 300.978 115.699 300.794L116.435 298.528C116.462 298.446 116.433 298.355 116.363 298.305L114.435 296.904C114.279 296.79 114.359 296.542 114.553 296.542H116.935C117.022 296.542 117.099 296.486 117.126 296.404L117.862 294.138Z" fill="#E0E0E0"/>
<path d="M127.133 294.138C127.193 293.954 127.453 293.954 127.513 294.138L128.25 296.404C128.276 296.486 128.353 296.542 128.44 296.542H130.822C131.016 296.542 131.097 296.79 130.94 296.904L129.012 298.305C128.942 298.355 128.913 298.446 128.94 298.528L129.676 300.794C129.736 300.978 129.525 301.132 129.368 301.018L127.441 299.617C127.371 299.566 127.276 299.566 127.206 299.617L125.278 301.018C125.121 301.132 124.91 300.978 124.97 300.794L125.706 298.528C125.733 298.446 125.704 298.355 125.634 298.305L123.706 296.904C123.55 296.79 123.63 296.542 123.824 296.542H126.206C126.293 296.542 126.37 296.486 126.397 296.404L127.133 294.138Z" fill="#E0E0E0"/>
<path d="M168.734 276.864H142.775V291.08H168.734V276.864Z" stroke="#BDBDBD" stroke-miterlimit="10"/>
<path d="M150.503 282.065H148.056V283.622H150.42V284.496H148.056V286.753H147.102V281.19H150.503V282.065Z" fill="#BDBDBD"/>
<path d="M154.705 286.753L153.478 284.727H152.349V286.753H151.395V281.19H153.718C154.238 281.19 154.678 281.365 155.037 281.715C155.402 282.059 155.585 282.48 155.585 282.978C155.585 283.333 155.477 283.659 155.261 283.956C155.051 284.247 154.774 284.459 154.432 284.592L155.751 286.753H154.705ZM152.349 282.049V283.908H153.718C153.972 283.908 154.188 283.818 154.365 283.638C154.542 283.458 154.631 283.238 154.631 282.978C154.631 282.719 154.542 282.499 154.365 282.319C154.188 282.139 153.972 282.049 153.718 282.049H152.349Z" fill="#BDBDBD"/>
<path d="M157.437 285.879H160.009V286.753H156.483V281.19H159.967V282.065H157.437V283.511H159.76V284.377H157.437V285.879Z" fill="#BDBDBD"/>
<path d="M161.836 285.879H164.408V286.753H160.882V281.19H164.366V282.065H161.836V283.511H164.159V284.377H161.836V285.879Z" fill="#BDBDBD"/>
<path d="M59.335 294.17V284.281H71.0784V291.863M59.335 294.17H71.0784V291.863M59.335 294.17L63.0434 290.215L64.2795 291.533L67.3699 287.577L71.0784 291.863M63.6615 287.063C63.6615 287.916 62.9697 288.608 62.1163 288.608C61.2629 288.608 60.5711 287.916 60.5711 287.063C60.5711 286.209 61.2629 285.517 62.1163 285.517C62.9697 285.517 63.6615 286.209 63.6615 287.063Z" stroke="#FBFBFF"/>
<path d="M78.4952 312.095H52.5361V337.436H78.4952V312.095Z" fill="#AA4337" stroke="#182F43" stroke-miterlimit="10"/>
<path d="M131.428 312.786H87.3694C86.2232 312.786 85.2939 313.715 85.2939 314.862C85.2939 316.008 86.2232 316.937 87.3694 316.937H131.428C132.574 316.937 133.504 316.008 133.504 314.862C133.504 313.715 132.574 312.786 131.428 312.786Z" fill="#182F43" stroke="#182F43" stroke-miterlimit="10"/>
<path d="M132.577 321.366H86.2211C85.709 321.366 85.2939 321.781 85.2939 322.293C85.2939 322.805 85.709 323.22 86.2211 323.22H132.577C133.089 323.22 133.504 322.805 133.504 322.293C133.504 321.781 133.089 321.366 132.577 321.366Z" fill="#BDBDBD"/>
<path d="M90.0484 329.369C90.1083 329.184 90.369 329.184 90.4288 329.369L91.1651 331.635C91.1919 331.717 91.2687 331.773 91.3553 331.773H93.7378C93.9316 331.773 94.0121 332.021 93.8554 332.135L91.9279 333.535C91.8578 333.586 91.8285 333.676 91.8552 333.759L92.5915 336.025C92.6513 336.209 92.4404 336.362 92.2837 336.248L90.3562 334.848C90.2861 334.797 90.1912 334.797 90.1211 334.848L88.1935 336.248C88.0368 336.362 87.8259 336.209 87.8858 336.025L88.622 333.759C88.6488 333.676 88.6195 333.586 88.5494 333.535L86.6218 332.135C86.4651 332.021 86.5457 331.773 86.7394 331.773H89.122C89.2086 331.773 89.2854 331.717 89.3122 331.635L90.0484 329.369Z" fill="#FFC100"/>
<path d="M99.3194 329.369C99.3793 329.184 99.64 329.184 99.6998 329.369L100.436 331.635C100.463 331.717 100.54 331.773 100.626 331.773H103.009C103.203 331.773 103.283 332.021 103.126 332.135L101.199 333.535C101.129 333.586 101.099 333.676 101.126 333.759L101.862 336.025C101.922 336.209 101.711 336.362 101.555 336.248L99.6272 334.848C99.5571 334.797 99.4622 334.797 99.3921 334.848L97.4645 336.248C97.3078 336.362 97.0969 336.209 97.1568 336.025L97.893 333.759C97.9198 333.676 97.8905 333.586 97.8204 333.535L95.8928 332.135C95.7361 332.021 95.8167 331.773 96.0104 331.773H98.3929C98.4796 331.773 98.5564 331.717 98.5832 331.635L99.3194 329.369Z" fill="#FFC100"/>
<path d="M108.59 329.369C108.65 329.184 108.911 329.184 108.971 329.369L109.707 331.635C109.734 331.717 109.811 331.773 109.897 331.773H112.28C112.474 331.773 112.554 332.021 112.397 332.135L110.47 333.535C110.4 333.586 110.37 333.676 110.397 333.759L111.133 336.025C111.193 336.209 110.982 336.362 110.826 336.248L108.898 334.848C108.828 334.797 108.733 334.797 108.663 334.848L106.736 336.248C106.579 336.362 106.368 336.209 106.428 336.025L107.164 333.759C107.191 333.676 107.161 333.586 107.091 333.535L105.164 332.135C105.007 332.021 105.088 331.773 105.281 331.773H107.664C107.751 331.773 107.827 331.717 107.854 331.635L108.59 329.369Z" fill="#E0E0E0"/>
<path d="M117.862 329.369C117.922 329.184 118.182 329.184 118.242 329.369L118.979 331.635C119.005 331.717 119.082 331.773 119.169 331.773H121.551C121.745 331.773 121.826 332.021 121.669 332.135L119.741 333.535C119.671 333.586 119.642 333.676 119.669 333.759L120.405 336.025C120.465 336.209 120.254 336.362 120.097 336.248L118.17 334.848C118.1 334.797 118.005 334.797 117.935 334.848L116.007 336.248C115.85 336.362 115.639 336.209 115.699 336.025L116.435 333.759C116.462 333.676 116.433 333.586 116.363 333.535L114.435 332.135C114.279 332.021 114.359 331.773 114.553 331.773H116.935C117.022 331.773 117.099 331.717 117.126 331.635L117.862 329.369Z" fill="#E0E0E0"/>
<path d="M127.133 329.369C127.193 329.184 127.453 329.184 127.513 329.369L128.25 331.635C128.276 331.717 128.353 331.773 128.44 331.773H130.822C131.016 331.773 131.097 332.021 130.94 332.135L129.012 333.535C128.942 333.586 128.913 333.676 128.94 333.759L129.676 336.025C129.736 336.209 129.525 336.362 129.368 336.248L127.441 334.848C127.371 334.797 127.276 334.797 127.206 334.848L125.278 336.248C125.121 336.362 124.91 336.209 124.97 336.025L125.706 333.759C125.733 333.676 125.704 333.586 125.634 333.535L123.706 332.135C123.55 332.021 123.63 331.773 123.824 331.773H126.206C126.293 331.773 126.37 331.717 126.397 331.635L127.133 329.369Z" fill="#E0E0E0"/>
<path d="M168.734 312.095H142.775V326.31H168.734V312.095Z" stroke="#BDBDBD" stroke-miterlimit="10"/>
<path d="M150.503 317.295H148.056V318.853H150.42V319.727H148.056V321.984H147.102V316.421H150.503V317.295Z" fill="#BDBDBD"/>
<path d="M154.705 321.984L153.478 319.957H152.349V321.984H151.395V316.421H153.718C154.238 316.421 154.678 316.596 155.037 316.945C155.402 317.29 155.585 317.711 155.585 318.209C155.585 318.564 155.477 318.89 155.261 319.186C155.051 319.478 154.774 319.69 154.432 319.822L155.751 321.984H154.705ZM152.349 317.279V319.139H153.718C153.972 319.139 154.188 319.049 154.365 318.868C154.542 318.688 154.631 318.468 154.631 318.209C154.631 317.949 154.542 317.729 154.365 317.549C154.188 317.369 153.972 317.279 153.718 317.279H152.349Z" fill="#BDBDBD"/>
<path d="M157.437 321.109H160.009V321.984H156.483V316.421H159.967V317.295H157.437V318.741H159.76V319.608H157.437V321.109Z" fill="#BDBDBD"/>
<path d="M161.836 321.109H164.408V321.984H160.882V316.421H164.366V317.295H161.836V318.741H164.159V319.608H161.836V321.109Z" fill="#BDBDBD"/>
<path d="M59.335 329.4V319.511H71.0784V327.092M59.335 329.4H71.0784V327.092M59.335 329.4L63.0434 325.444L64.2795 326.763L67.3699 322.807L71.0784 327.092M63.6615 322.292C63.6615 323.145 62.9697 323.837 62.1163 323.837C61.2629 323.837 60.5711 323.145 60.5711 322.292C60.5711 321.439 61.2629 320.747 62.1163 320.747C62.9697 320.747 63.6615 321.439 63.6615 322.292Z" stroke="#FBFBFF"/>
<path d="M46.2373 354.623H175.033V372.165H46.2373L46.2373 354.623Z" fill="#F2F2FE" stroke="#182F43"/>
<path d="M63.0911 357.645C62.8816 357 61.9692 357 61.7596 357.645L60.6744 360.985H57.1627C56.4846 360.985 56.2026 361.852 56.7512 362.251L59.5923 364.315L58.5071 367.655C58.2976 368.3 59.0357 368.836 59.5843 368.438L62.4254 366.373L65.2664 368.438C65.815 368.836 66.5532 368.3 66.3436 367.655L65.2584 364.315L68.0995 362.251C68.6481 361.852 68.3662 360.985 67.6881 360.985H64.1763L63.0911 357.645Z" stroke="#828282"/>
<line x1="84.0581" y1="359.186" x2="93.3292" y2="359.186" stroke="#828282"/>
<line x1="80.9678" y1="359.186" x2="82.822" y2="359.186" stroke="#828282"/>
<line x1="80.9678" y1="362.895" x2="82.822" y2="362.895" stroke="#828282"/>
<line x1="80.9678" y1="366.603" x2="82.822" y2="366.603" stroke="#828282"/>
<line x1="84.0581" y1="362.895" x2="93.3292" y2="362.895" stroke="#828282"/>
<line x1="84.0581" y1="366.603" x2="93.3292" y2="366.603" stroke="#828282"/>
<circle cx="110.944" cy="363.704" r="4.75362" stroke="#828282"/>
<path d="M113.107 361.54L108.163 363.394L110.944 363.703L111.253 366.176L113.107 361.54Z" fill="#828282"/>
<circle cx="133.068" cy="362.339" r="4.00915" stroke="#828282"/>
<path d="M135.892 365.088L140.082 368.58" stroke="#828282"/>
<path d="M154.973 361.076H152.444V368.956H161.715V361.076H159.608M157.08 358.449V365.579M157.08 365.579L159.187 363.703M157.08 365.579L154.973 363.703" stroke="#828282"/>
<path opacity="0.2" d="M210.693 5.03809H122.725C119.563 5.03809 117 7.60136 117 10.7633V74.2432C117 77.4051 119.563 79.9684 122.725 79.9684H210.693C213.855 79.9684 216.418 77.4051 216.418 74.2432V10.7633C216.418 7.60136 213.855 5.03809 210.693 5.03809Z" fill="#182F43"/>
<path d="M206.693 1H118.725C115.563 1 113 3.56328 113 6.72524V70.2051C113 73.367 115.563 75.9303 118.725 75.9303H206.693C209.855 75.9303 212.418 73.367 212.418 70.2051V6.72524C212.418 3.56328 209.855 1 206.693 1Z" fill="#FBFBFF" stroke="#182F43" stroke-linecap="round" stroke-linejoin="round"/>
<path d="M145.142 35.2708L123.888 42.1679C122.056 36.5275 122.54 30.3905 125.232 25.1064C127.924 19.8224 132.605 15.8239 138.245 13.9903C140.467 13.2461 142.798 12.875 145.142 12.8922V35.2708Z" fill="#FFC100" stroke="#182F43" stroke-linecap="round" stroke-linejoin="round"/>
<path d="M145.142 35.2715L158.286 53.3512C153.489 56.8345 147.505 58.27 141.65 57.342C135.794 56.4141 130.547 53.1986 127.062 48.4027C125.667 46.5142 124.595 44.4076 123.888 42.1686L145.142 35.2715Z" fill="#FBFBFF" stroke="#182F43" stroke-linecap="round" stroke-linejoin="round"/>
<path d="M145.142 35.2708L166.409 28.3604C167.924 32.844 167.953 37.6965 166.492 42.198C165.032 46.6996 162.159 50.6104 158.3 53.3505L145.142 35.2708Z" fill="#182F43" stroke="#182F43" stroke-linecap="round" stroke-linejoin="round"/>
<path d="M145.142 35.271V12.9057C149.878 12.8519 154.504 14.3264 158.336 17.1105C162.167 19.8946 164.998 23.8398 166.409 28.3605L145.142 35.271Z" fill="#FBFBFF" stroke="#182F43" stroke-linecap="round" stroke-linejoin="round"/>
<path d="M145.175 49.1993C152.875 49.1993 159.116 42.9575 159.116 35.2579C159.116 27.5582 152.875 21.3164 145.175 21.3164C137.475 21.3164 131.233 27.5582 131.233 35.2579C131.233 42.9575 137.475 49.1993 145.175 49.1993Z" fill="#FBFBFF" stroke="#182F43" stroke-linecap="round" stroke-linejoin="round"/>
<path d="M204.437 11.54H173.802V14.0779H204.437V11.54Z" fill="#FFC100" stroke="#182F43" stroke-linecap="round" stroke-linejoin="round"/>
<path d="M197.848 16.9707H173.802V19.5086H197.848V16.9707Z" fill="#182F43" stroke="#182F43" stroke-linecap="round" stroke-linejoin="round"/>
<path d="M191.473 22.4014H173.802V24.9392H191.473V22.4014Z" fill="#FBFBFF" stroke="#182F43" stroke-linecap="round" stroke-linejoin="round"/>
<path d="M198.912 27.8311H173.802V30.3689H198.912V27.8311Z" fill="#FFC100" stroke="#182F43" stroke-linecap="round" stroke-linejoin="round"/>
<path d="M185.734 33.2627H173.802V35.8005H185.734V33.2627Z" fill="#182F43" stroke="#182F43" stroke-linecap="round" stroke-linejoin="round"/>
<path d="M204.437 38.6992H173.802V41.2371H204.437V38.6992Z" fill="#FBFBFF" stroke="#182F43" stroke-linecap="round" stroke-linejoin="round"/>
<path d="M196.361 44.1299H173.802V46.6677H196.361V44.1299Z" fill="#FFC100" stroke="#182F43" stroke-linecap="round" stroke-linejoin="round"/>
<path d="M193.515 49.5605H173.802V52.0984H193.515V49.5605Z" fill="#182F43" stroke="#182F43" stroke-linecap="round" stroke-linejoin="round"/>
<path d="M204.437 54.9912H173.802V57.5291H204.437V54.9912Z" fill="#FBFBFF" stroke="#182F43" stroke-linecap="round" stroke-linejoin="round"/>
<path d="M133.771 62.3916H157.516" stroke="#182F43" stroke-linecap="round" stroke-linejoin="round"/>
<path d="M130.41 65.7383H160.877" stroke="#182F43" stroke-linecap="round" stroke-linejoin="round"/>
<path d="M174.618 62.3916H198.363" stroke="#182F43" stroke-linecap="round" stroke-linejoin="round"/>
<path d="M171.257 65.7383H201.724" stroke="#182F43" stroke-linecap="round" stroke-linejoin="round"/>
<path opacity="0.2" d="M325.656 59.7559H241.75C238.734 59.7559 236.289 62.2008 236.289 65.2168V125.766C236.289 128.782 238.734 131.227 241.75 131.227H325.656C328.672 131.227 331.117 128.782 331.117 125.766V65.2168C331.117 62.2008 328.672 59.7559 325.656 59.7559Z" fill="#182F43"/>
<path d="M322.367 56H238.461C235.445 56 233 58.4449 233 61.4609V122.01C233 125.026 235.445 127.471 238.461 127.471H322.367C325.383 127.471 327.828 125.026 327.828 122.01V61.4609C327.828 58.4449 325.383 56 322.367 56Z" fill="#FBFBFF" stroke="#182F43" stroke-linecap="round" stroke-linejoin="round"/>
<path d="M321.856 111.918H316.938V117.372H321.856V111.918Z" fill="#AA4337" stroke="#182F43" stroke-width="0.75" stroke-linecap="round" stroke-linejoin="round"/>
<path d="M316.389 84.6465H311.471V117.367H316.389V84.6465Z" fill="#182F43" stroke="#182F43" stroke-width="0.75" stroke-linecap="round" stroke-linejoin="round"/>
<path d="M310.921 96.3975H306.003V117.372H310.921V96.3975Z" fill="#FBFBFF" stroke="#182F43" stroke-width="0.75" stroke-linecap="round" stroke-linejoin="round"/>
<path d="M305.461 80.0332H300.543V117.372H305.461V80.0332Z" fill="#AA4337" stroke="#182F43" stroke-width="0.75" stroke-linecap="round" stroke-linejoin="round"/>
<path d="M299.994 107.723H295.076V117.373H299.994V107.723Z" fill="#182F43" stroke="#182F43" stroke-width="0.75" stroke-linecap="round" stroke-linejoin="round"/>
<path d="M294.526 104.784H289.608V117.367H294.526V104.784Z" fill="#FBFBFF" stroke="#182F43" stroke-width="0.75" stroke-linecap="round" stroke-linejoin="round"/>
<path d="M289.065 92.2021H284.147V117.373H289.065V92.2021Z" fill="#AA4337" stroke="#182F43" stroke-width="0.75" stroke-linecap="round" stroke-linejoin="round"/>
<path d="M283.598 113.178H278.68V117.374H283.598V113.178Z" fill="#182F43" stroke="#182F43" stroke-width="0.75" stroke-linecap="round" stroke-linejoin="round"/>
<path d="M278.13 84.6465H273.212V117.367H278.13V84.6465Z" fill="#FBFBFF" stroke="#182F43" stroke-width="0.75" stroke-linecap="round" stroke-linejoin="round"/>
<path d="M272.67 90.9434H267.752V117.373H272.67V90.9434Z" fill="#AA4337" stroke="#182F43" stroke-width="0.75" stroke-linecap="round" stroke-linejoin="round"/>
<path d="M267.202 116.108H262.284V117.367H267.202V116.108Z" fill="#182F43" stroke="#182F43" stroke-width="0.75" stroke-linecap="round" stroke-linejoin="round"/>
<path d="M261.735 115.693H256.817V117.373H261.735V115.693Z" fill="#FBFBFF" stroke="#182F43" stroke-width="0.75" stroke-linecap="round" stroke-linejoin="round"/>
<path d="M256.268 96.3975H251.35V117.372H256.268V96.3975Z" fill="#AA4337" stroke="#182F43" stroke-width="0.75" stroke-linecap="round" stroke-linejoin="round"/>
<path d="M250.807 113.178H245.889V117.374H250.807V113.178Z" fill="#182F43" stroke="#182F43" stroke-width="0.75" stroke-linecap="round" stroke-linejoin="round"/>
<path d="M245.339 108.98H240.421V117.373H245.339V108.98Z" fill="#FBFBFF" stroke="#182F43" stroke-width="0.75" stroke-linecap="round" stroke-linejoin="round"/>
<path d="M322.175 70.9336H241.06V75.0852H322.175V70.9336Z" fill="#AA4337" stroke="#182F43" stroke-miterlimit="10"/>
<path d="M275.588 71.2324H262.431V74.7772H275.588V71.2324Z" fill="#182F43" stroke="#182F43" stroke-miterlimit="10"/>
<path d="M300.83 71.2324H276.119V74.7772H300.83V71.2324Z" fill="#FBFBFF" stroke="#182F43" stroke-miterlimit="10"/>
<path d="M392.108 437.867C392.108 437.867 401.013 476.208 397.134 482.504C392.063 490.746 338.026 495.716 338.026 495.716H457.209C457.209 495.716 472.141 491.522 467.654 479.514C464.18 470.226 447.506 437.912 447.506 437.912L392.108 437.867Z" fill="#FBFBFF" stroke="#182F43" stroke-linecap="round" stroke-linejoin="round"/>
<path d="M389.489 437.867C389.489 437.867 399.001 476.523 394.526 482.504C390.051 488.486 338.026 493.062 338.026 493.062H457.749C457.749 493.062 467.812 488.992 465.012 479.57C462.212 470.148 444.875 437.968 444.875 437.968L389.489 437.867Z" fill="#FBFBFF" stroke="#182F43" stroke-linecap="round" stroke-linejoin="round"/>
<path d="M444.875 437.867H389.489C389.489 437.867 395.111 460.77 395.673 474.049H462.943C457.502 461.288 444.875 437.867 444.875 437.867Z" fill="#182F43" stroke="#182F43" stroke-linecap="round" stroke-linejoin="round"/>
<path d="M457.186 493.242H338.026V495.705H457.186V493.242Z" fill="#FBFBFF" stroke="#182F43" stroke-linecap="round" stroke-linejoin="round"/>
<path d="M591.469 172H251.012C245.746 172 241.477 176.269 241.477 181.535V432.11C241.477 437.376 245.746 441.645 251.012 441.645H591.469C596.735 441.645 601.004 437.376 601.004 432.11V181.535C601.004 176.269 596.735 172 591.469 172Z" fill="#FBFBFF" stroke="#182F43" stroke-linecap="round" stroke-linejoin="round"/>
<path d="M582.992 172H242.535C237.269 172 233 176.269 233 181.535V432.11C233 437.376 237.269 441.645 242.535 441.645H582.992C588.258 441.645 592.527 437.376 592.527 432.11V181.535C592.527 176.269 588.258 172 582.992 172Z" fill="#182F43" stroke="#182F43" stroke-linecap="round" stroke-linejoin="round"/>
<path d="M233 399.74H592.538V432.111C592.538 434.639 591.533 437.065 589.745 438.853C587.957 440.641 585.532 441.645 583.003 441.645H242.546C241.294 441.645 240.054 441.399 238.897 440.92C237.74 440.44 236.689 439.738 235.804 438.853C234.918 437.967 234.216 436.916 233.737 435.759C233.258 434.603 233.011 433.363 233.011 432.111V399.74H233Z" fill="#FBFBFF" stroke="#182F43" stroke-linecap="round" stroke-linejoin="round"/>
<path d="M574 189H251V386H574V189Z" fill="#FFC100" stroke="#182F43" stroke-linecap="round" stroke-linejoin="round"/>
<path d="M419.453 420.687C419.453 419.374 419.064 418.092 418.335 417.001C417.606 415.91 416.57 415.06 415.358 414.558C414.146 414.056 412.812 413.924 411.525 414.18C410.238 414.436 409.056 415.068 408.129 415.996C407.201 416.923 406.569 418.106 406.313 419.392C406.057 420.679 406.188 422.013 406.691 423.225C407.193 424.437 408.043 425.473 409.134 426.202C410.225 426.931 411.507 427.32 412.819 427.32C414.579 427.32 416.266 426.621 417.51 425.377C418.754 424.133 419.453 422.446 419.453 420.687Z" fill="#182F43" stroke="#182F43" stroke-linecap="round" stroke-linejoin="round"/>
<path d="M569 195H256V219H569V195Z" fill="#182F43" stroke="#182F43" stroke-linecap="round" stroke-linejoin="round"/>
<path d="M316.012 201H347.325C348.22 201 349.078 201.355 349.71 201.988C350.343 202.621 350.698 203.478 350.698 204.373V218.72H312.706V204.373C312.706 203.49 313.052 202.642 313.67 202.011C314.288 201.381 315.129 201.018 316.012 201Z" fill="#BDBDBD"/>
<path d="M358.288 201H389.601C390.496 201 391.354 201.355 391.986 201.988C392.619 202.621 392.974 203.478 392.974 204.373V218.72H354.937V204.373C354.937 203.482 355.289 202.628 355.917 201.996C356.545 201.364 357.397 201.006 358.288 201Z" fill="#BDBDBD"/>
<path d="M400.519 201H431.821C432.715 201 433.573 201.355 434.206 201.988C434.839 202.621 435.194 203.478 435.194 204.373V218.72H397.168V204.373C397.168 203.482 397.52 202.628 398.148 201.996C398.776 201.364 399.628 201.006 400.519 201Z" fill="#FFC100" stroke="#182F43" stroke-linecap="round" stroke-linejoin="round"/>
<path d="M442.75 201H474.064C474.958 201 475.816 201.355 476.449 201.988C477.081 202.621 477.437 203.478 477.437 204.373V218.72H439.399V204.373C439.399 203.482 439.752 202.628 440.379 201.996C441.007 201.364 441.859 201.006 442.75 201Z" fill="#BDBDBD"/>
<path d="M487.351 201H518.664C519.559 201 520.417 201.355 521.049 201.988C521.682 202.621 522.037 203.478 522.037 204.373V218.72H484V204.373C484 203.482 484.352 202.628 484.98 201.996C485.608 201.364 486.46 201.006 487.351 201Z" fill="#BDBDBD"/>
<path d="M307.641 212.3L303.897 201H256V212.3V227.269V379H569V212.3H307.641Z" fill="#FBFBFF" stroke="#182F43" stroke-linecap="round" stroke-linejoin="round"/>
<path d="M266 247H358" stroke="#999999" stroke-width="0.5" stroke-linecap="round" stroke-linejoin="round"/>
<path d="M266 252H358" stroke="#999999" stroke-width="0.5" stroke-linecap="round" stroke-linejoin="round"/>
<path d="M266 257H358" stroke="#999999" stroke-width="0.5" stroke-linecap="round" stroke-linejoin="round"/>
<path d="M504.017 299.469H519.353" stroke="#808080" stroke-miterlimit="10"/>
<path d="M499.058 297.985H488.669V308.374H499.058V297.985Z" fill="#BDBDBD"/>
<path d="M504.017 303.922H531.721" stroke="#808080" stroke-miterlimit="10"/>
<path d="M504.017 321.248H519.353" stroke="#808080" stroke-miterlimit="10"/>
<path d="M504.017 325.7H531.721" stroke="#808080" stroke-miterlimit="10"/>
<path d="M481.574 218.571V370.99" stroke="#182F43" stroke-linecap="round" stroke-linejoin="round"/>
<path d="M429.247 232.874H416.339L411.257 223.204L405.151 232.874H380.921C380.14 232.874 379.391 233.184 378.838 233.736C378.286 234.289 377.976 235.038 377.976 235.819V263.692C377.974 264.08 378.049 264.465 378.197 264.823C378.344 265.182 378.561 265.508 378.834 265.783C379.108 266.057 379.433 266.275 379.792 266.424C380.15 266.573 380.534 266.65 380.921 266.65H429.269C429.657 266.65 430.041 266.573 430.399 266.424C430.757 266.275 431.082 266.057 431.356 265.783C431.63 265.508 431.847 265.182 431.994 264.823C432.141 264.465 432.216 264.08 432.215 263.692V235.819C432.215 235.431 432.138 235.046 431.989 234.687C431.839 234.328 431.62 234.002 431.344 233.728C431.068 233.455 430.741 233.238 430.381 233.091C430.021 232.945 429.635 232.871 429.247 232.874Z" fill="#AA4337" stroke="#182F43" stroke-width="2" stroke-linecap="round" stroke-linejoin="round"/>
<path d="M383.339 239.844H426.829" stroke="#182F43" stroke-linecap="round" stroke-linejoin="round"/>
<path d="M383.339 247.007H426.829" stroke="#182F43" stroke-linecap="round" stroke-linejoin="round"/>
<path d="M383.339 254.168H426.829" stroke="#182F43" stroke-linecap="round" stroke-linejoin="round"/>
<path d="M383.339 261.319H426.829" stroke="#182F43" stroke-linecap="round" stroke-linejoin="round"/>
<path d="M492.968 232.873H505.865L510.958 223.215L517.063 232.884H541.293C542.075 232.884 542.824 233.195 543.376 233.747C543.929 234.3 544.239 235.049 544.239 235.83V263.692C544.241 264.08 544.166 264.464 544.018 264.823C543.871 265.181 543.654 265.508 543.38 265.782C543.107 266.057 542.781 266.275 542.423 266.424C542.065 266.572 541.681 266.649 541.293 266.649H492.946C492.558 266.649 492.174 266.572 491.816 266.424C491.458 266.275 491.132 266.057 490.859 265.782C490.585 265.508 490.368 265.181 490.221 264.823C490.074 264.464 489.998 264.08 490 263.692V235.819C490 235.43 490.077 235.045 490.226 234.686C490.376 234.328 490.595 234.002 490.871 233.728C491.147 233.454 491.474 233.238 491.834 233.091C492.194 232.944 492.579 232.87 492.968 232.873Z" fill="#FFC100" stroke="#182F43" stroke-width="2" stroke-linecap="round" stroke-linejoin="round"/>
<path d="M496 239.844H539.49" stroke="#182F43" stroke-linecap="round" stroke-linejoin="round"/>
<path d="M496 247.007H539.49" stroke="#182F43" stroke-linecap="round" stroke-linejoin="round"/>
<path d="M496 254.168H539.49" stroke="#182F43" stroke-linecap="round" stroke-linejoin="round"/>
<path d="M496 261.319H539.49" stroke="#182F43" stroke-linecap="round" stroke-linejoin="round"/>
<path d="M351.623 241H270.377C269.541 241.001 268.712 240.822 267.939 240.471C267.166 240.12 266.464 239.606 265.872 238.957C265.279 238.308 264.809 237.537 264.488 236.688C264.167 235.839 264.001 234.929 264 234.01C263.999 233.091 264.162 232.18 264.481 231.33C264.8 230.481 265.268 229.708 265.859 229.057C266.449 228.406 267.151 227.89 267.923 227.537C268.695 227.184 269.523 227.001 270.359 227H351.623C352.461 226.999 353.291 227.179 354.065 227.531C354.839 227.883 355.542 228.399 356.135 229.05C356.727 229.701 357.197 230.475 357.517 231.326C357.837 232.177 358.001 233.089 358 234.01C357.999 234.929 357.833 235.839 357.512 236.688C357.191 237.537 356.721 238.308 356.128 238.957C355.536 239.606 354.834 240.12 354.061 240.471C353.288 240.822 352.459 241.001 351.623 241Z" fill="#FBFBFF" stroke="#182F43" stroke-linecap="round" stroke-linejoin="round"/>
<path d="M351.797 241H341V227H351.797C352.612 226.999 353.419 227.179 354.172 227.53C354.925 227.882 355.609 228.397 356.186 229.047C356.762 229.698 357.219 230.47 357.53 231.32C357.841 232.17 358.001 233.08 358 234C358.001 234.92 357.841 235.83 357.53 236.68C357.219 237.53 356.762 238.302 356.186 238.953C355.609 239.603 354.925 240.118 354.172 240.47C353.419 240.821 352.612 241.001 351.797 241Z" fill="#182F43" stroke="#182F43" stroke-linecap="round" stroke-linejoin="round"/>
<path d="M349.887 229.946C349.382 229.472 348.749 229.16 348.066 229.047C347.384 228.934 346.683 229.026 346.053 229.312C345.423 229.598 344.892 230.064 344.527 230.652C344.162 231.24 343.979 231.924 344.002 232.616C344.025 233.308 344.252 233.977 344.655 234.54C345.058 235.103 345.619 235.533 346.267 235.776C346.914 236.02 347.619 236.066 348.293 235.908C348.966 235.75 349.578 235.396 350.05 234.891C350.365 234.557 350.611 234.164 350.774 233.735C350.936 233.306 351.013 232.849 350.998 232.39C350.984 231.932 350.879 231.48 350.69 231.062C350.501 230.644 350.231 230.268 349.896 229.954L349.887 229.946ZM349.544 234.418C349.164 234.821 348.674 235.102 348.135 235.227C347.596 235.351 347.032 235.313 346.514 235.117C345.997 234.922 345.549 234.577 345.227 234.126C344.905 233.676 344.724 233.14 344.706 232.586C344.688 232.033 344.834 231.486 345.126 231.016C345.418 230.545 345.843 230.172 346.346 229.943C346.85 229.714 347.41 229.639 347.957 229.729C348.503 229.818 349.01 230.067 349.415 230.445C349.958 230.955 350.276 231.659 350.301 232.404C350.325 233.149 350.052 233.874 349.544 234.418Z" fill="#FBFBFF"/>
<path d="M349.5 234.5L353.577 237.367" stroke="#FBFBFF"/>
<path d="M416.838 283H266.163V291.2H416.838V283Z" fill="#FBFBFF" stroke="#182F43" stroke-linecap="round" stroke-linejoin="round"/>
<path d="M291.026 291.082L289.219 286.075H266.163V291.082V297.722V365H416.838V291.082H291.026Z" fill="#FFC100" stroke="#182F43" stroke-linecap="round" stroke-linejoin="round"/>
<path d="M305.777 328.036H378.486" stroke="#182F43" stroke-width="2" stroke-linecap="round" stroke-linejoin="round"/>
<path d="M305.777 335.184H378.486" stroke="#182F43" stroke-width="2" stroke-linecap="round" stroke-linejoin="round"/>
<path d="M305.777 342.336H378.486" stroke="#182F43" stroke-width="2" stroke-linecap="round" stroke-linejoin="round"/>
<path d="M305.777 349.489H378.486" stroke="#182F43" stroke-width="2" stroke-linecap="round" stroke-linejoin="round"/>
<path d="M374.641 311.341H308.752C308.074 311.342 307.402 311.21 306.775 310.951C306.148 310.692 305.579 310.313 305.098 309.834C304.618 309.355 304.237 308.786 303.976 308.16C303.716 307.534 303.582 306.862 303.581 306.184C303.58 305.506 303.712 304.834 303.971 304.207C304.23 303.581 304.609 303.011 305.088 302.53C305.567 302.05 306.136 301.669 306.762 301.409C307.388 301.148 308.059 301.014 308.738 301.013H374.641C375.32 301.012 375.993 301.145 376.621 301.404C377.249 301.664 377.82 302.045 378.3 302.525C378.78 303.006 379.161 303.576 379.421 304.204C379.68 304.832 379.814 305.505 379.813 306.184C379.812 306.862 379.677 307.534 379.417 308.16C379.156 308.786 378.775 309.355 378.295 309.834C377.815 310.313 377.245 310.692 376.618 310.951C375.991 311.21 375.319 311.342 374.641 311.341Z" fill="#FBFBFF" stroke="#182F43" stroke-linecap="round" stroke-linejoin="round"/>
<path d="M374.643 311.343H365.642V301H374.643C375.322 300.999 375.995 301.132 376.623 301.392C377.251 301.651 377.821 302.032 378.302 302.513C378.782 302.993 379.163 303.564 379.423 304.191C379.682 304.819 379.815 305.492 379.814 306.172C379.815 306.851 379.682 307.524 379.423 308.152C379.163 308.78 378.782 309.35 378.302 309.831C377.821 310.311 377.251 310.692 376.623 310.952C375.995 311.211 375.322 311.344 374.643 311.343Z" fill="#182F43" stroke="#182F43" stroke-linecap="round" stroke-linejoin="round"/>
<path d="M373.156 302.595C372.727 302.194 372.189 301.928 371.61 301.833C371.03 301.737 370.435 301.815 369.901 302.058C369.366 302.3 368.915 302.696 368.605 303.194C368.295 303.693 368.139 304.273 368.159 304.86C368.178 305.447 368.371 306.015 368.714 306.492C369.056 306.969 369.532 307.334 370.082 307.541C370.631 307.747 371.23 307.786 371.802 307.652C372.374 307.519 372.893 307.218 373.294 306.789C373.562 306.506 373.77 306.173 373.908 305.809C374.046 305.445 374.111 305.058 374.099 304.669C374.087 304.28 373.998 303.897 373.837 303.542C373.677 303.188 373.447 302.868 373.163 302.603L373.156 302.595ZM372.864 306.388C372.542 306.73 372.126 306.969 371.668 307.075C371.21 307.18 370.731 307.148 370.292 306.982C369.853 306.816 369.472 306.523 369.199 306.141C368.926 305.759 368.772 305.304 368.756 304.835C368.741 304.365 368.865 303.902 369.113 303.503C369.361 303.104 369.722 302.787 370.149 302.593C370.577 302.398 371.053 302.335 371.516 302.411C371.98 302.487 372.411 302.698 372.755 303.018C373.216 303.451 373.486 304.049 373.507 304.681C373.527 305.313 373.296 305.927 372.864 306.388Z" fill="#FBFBFF"/>
<path d="M374.868 307.583C374.802 307.519 374.72 307.476 374.631 307.458C374.542 307.44 374.449 307.448 374.364 307.481L373.292 306.474C373.238 306.421 373.164 306.391 373.088 306.391C373.012 306.391 372.938 306.421 372.884 306.474L372.789 306.576C372.737 306.633 372.708 306.707 372.708 306.784C372.708 306.861 372.737 306.935 372.789 306.992L373.847 307.984C373.815 308.074 373.81 308.172 373.832 308.265C373.854 308.358 373.902 308.442 373.971 308.509L375.794 310.296C375.914 310.416 376.077 310.483 376.246 310.483C376.416 310.483 376.578 310.416 376.699 310.296C376.818 310.176 376.885 310.013 376.885 309.844C376.885 309.675 376.818 309.512 376.699 309.392L374.868 307.583Z" fill="#FBFBFF"/>
<path d="M392.426 339.781C392.634 340.296 392.943 340.765 393.335 341.158C393.728 341.552 394.195 341.863 394.71 342.072C395.514 342.4 396.589 342.328 397.827 343.026C400.624 344.598 407.605 343.197 412.665 343.737C417.724 344.278 424.542 338.678 424.542 338.678L444.617 339.781V319.855C444.617 319.855 423.666 320.73 419.126 318.98C414.586 317.229 409.526 313.571 407.256 313.742C404.986 313.913 386.306 316.012 386.306 316.012L392.419 339.781H392.426Z" fill="#FBFBFF" stroke="#182F43" stroke-linecap="round" stroke-linejoin="round"/>
<path d="M387.231 259.44C383.086 259.899 379.17 261.577 375.978 264.261C372.787 266.945 370.463 270.516 369.3 274.521C368.138 278.526 368.189 282.786 369.448 286.762C370.707 290.738 373.116 294.251 376.372 296.857C379.627 299.464 383.582 301.047 387.737 301.405C391.892 301.764 396.06 300.882 399.714 298.872C403.368 296.862 406.344 293.814 408.265 290.112C410.186 286.411 410.967 282.223 410.508 278.078C410.205 275.325 409.363 272.659 408.029 270.232C406.694 267.805 404.895 265.664 402.733 263.933C400.571 262.202 398.089 260.915 395.429 260.144C392.769 259.373 389.983 259.133 387.231 259.44ZM391.415 297.213C388.09 297.583 384.73 296.958 381.76 295.418C378.79 293.878 376.344 291.491 374.73 288.561C373.116 285.63 372.408 282.287 372.694 278.954C372.98 275.62 374.249 272.447 376.339 269.834C378.428 267.222 381.246 265.288 384.435 264.277C387.624 263.266 391.042 263.223 394.255 264.154C397.468 265.085 400.334 266.948 402.488 269.508C404.643 272.067 405.99 275.208 406.359 278.533C406.605 280.741 406.413 282.975 405.794 285.109C405.176 287.243 404.144 289.234 402.756 290.968C401.368 292.703 399.653 294.147 397.707 295.219C395.761 296.29 393.623 296.968 391.415 297.213Z" fill="#FBFBFF" stroke="#182F43" stroke-linecap="round" stroke-linejoin="round"/>
<path d="M387.766 259.127C383.621 259.586 379.705 261.264 376.513 263.948C373.322 266.633 370.998 270.203 369.836 274.208C368.673 278.213 368.725 282.473 369.983 286.449C371.242 290.425 373.651 293.938 376.907 296.545C380.162 299.151 384.117 300.734 388.272 301.093C392.427 301.451 396.595 300.57 400.249 298.56C403.903 296.549 406.879 293.501 408.8 289.799C410.722 286.098 411.502 281.91 411.043 277.765C410.426 272.207 407.628 267.122 403.263 263.628C398.898 260.133 393.324 258.514 387.766 259.127ZM391.95 296.901C388.625 297.27 385.265 296.645 382.295 295.105C379.325 293.565 376.879 291.179 375.265 288.248C373.651 285.317 372.943 281.974 373.229 278.641C373.515 275.308 374.784 272.134 376.874 269.522C378.964 266.909 381.781 264.975 384.97 263.964C388.16 262.953 391.577 262.91 394.79 263.842C398.004 264.773 400.869 266.636 403.023 269.195C405.178 271.755 406.525 274.895 406.894 278.22C407.14 280.428 406.948 282.663 406.33 284.796C405.711 286.93 404.679 288.921 403.291 290.656C401.904 292.39 400.188 293.835 398.242 294.906C396.296 295.978 394.158 296.655 391.95 296.901Z" fill="#FBFBFF" stroke="#182F43" stroke-linecap="round" stroke-linejoin="round"/>
<path d="M392.452 300.543L391.455 300.653C390.33 300.778 389.519 301.791 389.644 302.916L391.262 317.529C391.387 318.654 392.4 319.465 393.525 319.34L394.522 319.23C395.647 319.105 396.458 318.092 396.333 316.967L394.715 302.354C394.59 301.229 393.577 300.418 392.452 300.543Z" fill="#182F43" stroke="#182F43" stroke-linecap="round" stroke-linejoin="round"/>
<path d="M392.125 312.742L394.26 312.514C395.178 312.416 396.098 312.683 396.82 313.259C397.542 313.834 398.008 314.671 398.117 315.588L401.313 344.488C401.442 345.669 401.098 346.854 400.355 347.781C399.611 348.709 398.53 349.303 397.349 349.434H397.206C396.621 349.499 396.029 349.448 395.464 349.284C394.898 349.12 394.371 348.846 393.911 348.478C393.452 348.11 393.069 347.654 392.786 347.138C392.503 346.622 392.324 346.055 392.261 345.47L389.065 316.577C389.014 316.12 389.053 315.657 389.181 315.214C389.309 314.772 389.523 314.359 389.81 314C390.098 313.64 390.453 313.341 390.857 313.119C391.26 312.897 391.703 312.757 392.161 312.706L392.125 312.742Z" fill="#182F43" stroke="#182F43" stroke-linecap="round" stroke-linejoin="round"/>
<path d="M395.229 336.82C395.229 336.82 390.17 337.005 389.458 337.881C388.746 338.756 388.875 341.802 390.248 342.15C393.749 343.068 401.193 342.535 401.485 341.908C401.776 341.282 402.374 337.639 400.837 337.247C398.981 336.963 397.107 336.82 395.229 336.82Z" fill="#FBFBFF" stroke="#182F43" stroke-linecap="round" stroke-linejoin="round"/>
<path d="M393.771 329.762C393.771 329.762 387.885 329.542 386.967 330.602C386.049 331.662 385.871 335.626 387.423 336.224C391.379 337.74 400.282 337.149 400.688 336.366C401.093 335.583 401.976 331.52 400.232 330.865C398.489 330.211 393.771 329.762 393.771 329.762Z" fill="#FBFBFF" stroke="#182F43" stroke-linecap="round" stroke-linejoin="round"/>
<path d="M392.924 321.792C392.924 321.792 386.634 321.55 385.652 322.689C384.669 323.827 384.477 328.054 386.135 328.695C390.405 330.317 399.656 330.317 400.091 329.478C400.525 328.638 401.692 323.671 399.827 322.966C397.963 322.262 392.924 321.792 392.924 321.792Z" fill="#FBFBFF" stroke="#182F43" stroke-linecap="round" stroke-linejoin="round"/>
<path d="M389.296 314.333C389.296 314.333 383.005 314.098 382.023 315.229C381.041 316.361 380.806 320.723 382.507 321.236C384.207 321.748 396.028 322.858 396.462 322.025C396.896 321.193 398.063 316.211 396.198 315.507C394.334 314.802 389.296 314.333 389.296 314.333Z" fill="#FBFBFF" stroke="#182F43" stroke-linecap="round" stroke-linejoin="round"/>
<path d="M409.895 335.262C408.766 334.951 407.696 334.456 406.728 333.796C401.669 330.302 401.839 322.275 401.839 322.275L400.623 321.926C399.617 321.544 398.675 321.013 397.826 320.353C398.233 322.011 398.472 323.707 398.538 325.413C398.519 326.351 398.153 327.248 397.51 327.931C396.867 328.613 395.993 329.032 395.058 329.106C393.485 329.284 392.788 329.455 392.261 327.363C391.734 325.271 389.123 316.888 388.945 315.664C388.788 314.553 390.653 312.575 393.62 312.105C398.182 312.476 402.679 313.749 407.276 313.749C408.876 313.899 410.409 314.464 411.724 315.386" fill="#FBFBFF"/>
<path d="M409.895 335.262C408.766 334.951 407.696 334.456 406.728 333.796C401.669 330.302 401.839 322.275 401.839 322.275L400.623 321.926C399.617 321.544 398.675 321.013 397.826 320.353C398.233 322.011 398.472 323.707 398.538 325.413C398.519 326.351 398.153 327.248 397.51 327.931C396.867 328.613 395.993 329.032 395.058 329.106C393.485 329.284 392.788 329.455 392.261 327.363C391.734 325.271 389.123 316.888 388.945 315.664C388.788 314.553 390.653 312.575 393.62 312.105C398.182 312.476 402.679 313.749 407.276 313.749C408.876 313.899 410.409 314.464 411.724 315.386" stroke="#182F43" stroke-linecap="round" stroke-linejoin="round"/>
<path d="M414.707 335.704C414.153 335.733 413.597 335.733 413.042 335.704H414.707Z" fill="#FBFBFF"/>
<path d="M414.707 335.704C414.153 335.733 413.597 335.733 413.042 335.704" stroke="#182F43" stroke-linecap="round" stroke-linejoin="round"/>
<path d="M418.429 335.015C417.22 335.397 415.971 335.636 414.707 335.726L418.429 335.015Z" fill="#FBFBFF"/>
<path d="M418.429 335.015C417.22 335.397 415.971 335.636 414.707 335.726" stroke="#182F43" stroke-linecap="round" stroke-linejoin="round"/>
<path d="M424.714 332.751H430.998" stroke="#182F43" stroke-linecap="round" stroke-linejoin="round"/>
<path d="M425.239 334.495H427.858" stroke="#182F43" stroke-linecap="round" stroke-linejoin="round"/>
<path d="M401.84 322.277C401.84 322.277 405.313 322.277 407.59 320.206" stroke="#182F43" stroke-linecap="round" stroke-linejoin="round"/>
<path d="M397.748 320.127C397.648 319.179 397.45 318.244 397.158 317.337" stroke="#182F43" stroke-linecap="round" stroke-linejoin="round"/>
<path d="M392.212 326.448C392.212 326.448 391.55 324.611 392.354 323.95C393.159 323.288 395.294 322.334 395.664 323.067C396.034 323.8 396.838 327.18 396.617 327.842L396.397 328.504" stroke="#182F43" stroke-width="0.5" stroke-linecap="round" stroke-linejoin="round"/>
<path d="M482 348.584H428.007V319.041H482" fill="#182F43"/>
<path d="M482 348.584H428.007V319.041H482" stroke="#182F43" stroke-linecap="round" stroke-linejoin="round"/>
<path d="M432.916 346.735C433.662 346.735 434.268 346.13 434.268 345.383C434.268 344.637 433.662 344.031 432.916 344.031C432.169 344.031 431.563 344.637 431.563 345.383C431.563 346.13 432.169 346.735 432.916 346.735Z" fill="#FBFBFF" stroke="#182F43" stroke-linecap="round" stroke-linejoin="round"/>
<path d="M307.527 398.135C307.32 398.652 307.011 399.121 306.619 399.514C306.226 399.908 305.758 400.218 305.243 400.427C304.439 400.761 303.371 400.683 302.126 401.38C299.336 402.953 292.355 401.558 287.288 402.092C282.221 402.626 275.418 397.032 275.418 397.032L255.322 398.135V378.21C255.322 378.21 276.272 379.085 280.812 377.341C285.353 375.598 290.412 371.926 292.682 372.104C294.953 372.282 313.633 374.374 313.633 374.374L307.527 398.135Z" fill="#FBFBFF" stroke="#182F43" stroke-linecap="round" stroke-linejoin="round"/>
<path d="M312.688 317.834C316.833 318.293 320.749 319.97 323.94 322.655C327.132 325.339 329.456 328.91 330.618 332.915C331.78 336.92 331.729 341.18 330.47 345.156C329.212 349.131 326.802 352.645 323.547 355.251C320.291 357.858 316.336 359.44 312.181 359.799C308.026 360.158 303.858 359.276 300.204 357.266C296.55 355.256 293.575 352.207 291.653 348.506C289.732 344.805 288.951 340.617 289.41 336.472C290.026 330.915 292.823 325.831 297.187 322.337C301.551 318.843 307.124 317.226 312.681 317.841L312.688 317.834ZM308.503 355.607C311.83 355.978 315.191 355.354 318.163 353.814C321.134 352.274 323.583 349.888 325.198 346.957C326.814 344.026 327.524 340.681 327.238 337.346C326.953 334.012 325.685 330.836 323.596 328.222C321.506 325.608 318.688 323.672 315.498 322.659C312.308 321.647 308.889 321.603 305.674 322.533C302.459 323.463 299.592 325.326 297.436 327.885C295.279 330.445 293.93 333.586 293.559 336.913C293.063 341.373 294.359 345.848 297.161 349.354C299.964 352.859 304.043 355.108 308.503 355.607Z" fill="#FBFBFF" stroke="#182F43" stroke-linecap="round" stroke-linejoin="round"/>
<path d="M312.405 317.129C316.549 317.589 320.462 319.267 323.652 321.952C326.841 324.636 329.163 328.206 330.324 332.209C331.484 336.213 331.432 340.471 330.173 344.445C328.914 348.419 326.504 351.93 323.25 354.535C319.995 357.14 316.042 358.721 311.888 359.079C307.735 359.437 303.569 358.556 299.917 356.546C296.265 354.536 293.29 351.489 291.37 347.789C289.45 344.089 288.669 339.903 289.128 335.759C289.433 333.007 290.276 330.343 291.611 327.917C292.946 325.491 294.746 323.352 296.907 321.622C299.069 319.892 301.55 318.605 304.209 317.834C306.869 317.063 309.654 316.823 312.405 317.129ZM308.221 354.902C311.547 355.273 314.909 354.649 317.881 353.109C320.852 351.569 323.301 349.183 324.916 346.252C326.531 343.321 327.241 339.976 326.956 336.641C326.671 333.307 325.403 330.131 323.313 327.517C321.224 324.903 318.405 322.967 315.215 321.954C312.025 320.942 308.607 320.898 305.392 321.828C302.177 322.758 299.31 324.621 297.153 327.18C294.997 329.74 293.648 332.881 293.277 336.208C292.783 340.666 294.08 345.138 296.882 348.641C299.685 352.144 303.763 354.391 308.221 354.888V354.902Z" fill="#FBFBFF" stroke="#182F43" stroke-linecap="round" stroke-linejoin="round"/>
<path d="M305.214 360.752L303.595 375.365C303.471 376.49 304.282 377.503 305.407 377.628L306.404 377.738C307.529 377.863 308.542 377.052 308.667 375.927L310.285 361.314C310.41 360.189 309.599 359.176 308.474 359.051L307.476 358.941C306.351 358.816 305.338 359.627 305.214 360.752Z" fill="#182F43" stroke="#182F43" stroke-linecap="round" stroke-linejoin="round"/>
<path d="M302.738 407.855H302.595C302.007 407.79 301.437 407.61 300.919 407.324C300.401 407.038 299.944 406.653 299.576 406.19C299.207 405.727 298.934 405.195 298.772 404.626C298.61 404.057 298.562 403.461 298.631 402.873L301.827 373.981C301.876 373.523 302.016 373.079 302.237 372.675C302.459 372.27 302.758 371.914 303.118 371.626C303.478 371.337 303.891 371.123 304.333 370.995C304.776 370.866 305.24 370.827 305.698 370.878L307.833 371.113C308.758 371.215 309.604 371.68 310.186 372.406C310.768 373.132 311.037 374.06 310.936 374.984L307.74 403.912C307.674 404.5 307.492 405.069 307.206 405.586C306.92 406.103 306.534 406.559 306.072 406.927C305.609 407.295 305.078 407.569 304.51 407.731C303.941 407.894 303.346 407.943 302.759 407.876L302.738 407.855Z" fill="#182F43" stroke="#182F43" stroke-linecap="round" stroke-linejoin="round"/>
<path d="M304.681 395.213C304.681 395.213 309.733 395.405 310.445 396.273C311.157 397.141 311.029 400.194 309.655 400.543C306.161 401.468 298.71 400.927 298.426 400.301C298.141 399.675 297.529 396.031 299.073 395.64C300.929 395.355 302.803 395.213 304.681 395.213Z" fill="#FBFBFF" stroke="#182F43" stroke-linecap="round" stroke-linejoin="round"/>
<path d="M306.163 388.174C306.163 388.174 312.048 387.946 312.966 389.006C313.884 390.067 314.069 394.031 312.511 394.628C308.554 396.144 299.651 395.553 299.253 394.771C298.854 393.988 297.965 389.924 299.708 389.27C301.452 388.615 306.163 388.174 306.163 388.174Z" fill="#FBFBFF" stroke="#182F43" stroke-linecap="round" stroke-linejoin="round"/>
<path d="M307.023 380.181C307.023 380.181 313.313 379.947 314.295 381.078C315.277 382.209 315.47 386.451 313.812 387.084C309.542 388.714 300.291 388.707 299.856 387.874C299.422 387.041 298.255 382.06 300.12 381.356C301.984 380.651 307.023 380.181 307.023 380.181Z" fill="#FBFBFF" stroke="#182F43" stroke-linecap="round" stroke-linejoin="round"/>
<path d="M310.643 372.729C310.643 372.729 316.934 372.487 317.916 373.618C318.898 374.75 319.133 379.119 317.425 379.632C315.717 380.144 303.904 381.247 303.47 380.414C303.036 379.582 301.876 374.6 303.741 373.903C305.605 373.206 310.643 372.729 310.643 372.729Z" fill="#FBFBFF" stroke="#182F43" stroke-linecap="round" stroke-linejoin="round"/>
<path d="M286.179 394.132C288.66 394.23 291.111 393.551 293.188 392.189C298.255 388.695 298.077 380.668 298.077 380.668L299.301 380.319C300.305 379.94 301.246 379.409 302.091 378.747C301.683 380.405 301.445 382.1 301.379 383.806C301.406 384.742 301.778 385.634 302.423 386.312C303.068 386.99 303.941 387.405 304.873 387.478C306.446 387.649 307.143 387.827 307.67 385.728C308.197 383.628 310.808 375.253 310.986 374.036C311.164 372.819 309.278 370.94 306.311 370.478C301.749 370.855 297.245 372.129 292.655 372.129C291.054 372.278 289.519 372.839 288.2 373.758" fill="#FBFBFF"/>
<path d="M286.179 394.132C288.66 394.23 291.111 393.551 293.188 392.189C298.255 388.695 298.077 380.668 298.077 380.668L299.301 380.319C300.305 379.94 301.246 379.409 302.091 378.747C301.683 380.405 301.445 382.1 301.379 383.806C301.406 384.742 301.778 385.634 302.423 386.312C303.068 386.99 303.941 387.405 304.873 387.478C306.446 387.649 307.143 387.827 307.67 385.728C308.197 383.628 310.808 375.253 310.986 374.036C311.164 372.819 309.278 370.94 306.311 370.478C301.749 370.855 297.245 372.129 292.655 372.129C291.054 372.278 289.519 372.839 288.2 373.758" stroke="#182F43" stroke-linecap="round" stroke-linejoin="round"/>
<path d="M281.509 393.411C282.504 393.717 283.526 393.924 284.562 394.03L281.509 393.411Z" fill="#FBFBFF"/>
<path d="M281.509 393.411C282.504 393.717 283.526 393.924 284.562 394.03" stroke="#182F43" stroke-linecap="round" stroke-linejoin="round"/>
<path d="M275.22 391.141H268.937" stroke="#182F43" stroke-linecap="round" stroke-linejoin="round"/>
<path d="M274.701 392.884H272.082" stroke="#182F43" stroke-linecap="round" stroke-linejoin="round"/>
<path d="M298.092 380.666C298.092 380.666 294.62 380.666 292.342 378.595" stroke="#182F43" stroke-linecap="round" stroke-linejoin="round"/>
<path d="M302.19 378.514C302.288 377.567 302.484 376.632 302.774 375.725" stroke="#182F43" stroke-linecap="round" stroke-linejoin="round"/>
<path d="M307.698 384.835C307.698 384.835 308.36 382.999 307.548 382.337C306.737 381.676 304.609 380.722 304.246 381.455C303.883 382.188 303.072 385.575 303.293 386.23L303.513 386.892" stroke="#182F43" stroke-width="0.5" stroke-linecap="round" stroke-linejoin="round"/>
<path d="M175 407H271V378H175" fill="#ECECF0"/>
<path d="M175 407H271V378H175" stroke="#182F43" stroke-linecap="round" stroke-linejoin="round"/>
<path d="M265.662 403.772C265.662 404.039 265.741 404.301 265.89 404.523C266.039 404.746 266.25 404.919 266.497 405.021C266.744 405.124 267.016 405.15 267.278 405.098C267.54 405.046 267.781 404.917 267.97 404.728C268.159 404.539 268.288 404.298 268.34 404.036C268.393 403.774 268.366 403.502 268.263 403.255C268.161 403.008 267.988 402.796 267.765 402.648C267.543 402.499 267.282 402.42 267.014 402.42C266.656 402.42 266.312 402.562 266.058 402.816C265.805 403.07 265.662 403.413 265.662 403.772Z" fill="#FBFBFF" stroke="#182F43" stroke-linecap="round" stroke-linejoin="round"/>
<path opacity="0.2" d="M559.227 288.869H496.241C493.605 288.869 491.468 291.006 491.468 293.642V338.763C491.468 341.399 493.605 343.536 496.241 343.536H559.227C561.863 343.536 564 341.399 564 338.763V293.642C564 291.006 561.863 288.869 559.227 288.869Z" fill="black"/>
<path d="M556.759 287H493.773C491.137 287 489 289.137 489 291.773V336.894C489 339.53 491.137 341.667 493.773 341.667H556.759C559.395 341.667 561.532 339.53 561.532 336.894V291.773C561.532 289.137 559.395 287 556.759 287Z" fill="#FBFBFF" stroke="#182F43" stroke-linecap="round" stroke-linejoin="round"/>
<path d="M493.969 311.988H503.644" stroke="#182F43" stroke-linecap="round" stroke-linejoin="round"/>
<path d="M493.969 314.177H509.271" stroke="#182F43" stroke-linecap="round" stroke-linejoin="round"/>
<path d="M493.969 316.36H503.644" stroke="#182F43" stroke-linecap="round" stroke-linejoin="round"/>
<path d="M493.969 318.542H507.926" stroke="#182F43" stroke-linecap="round" stroke-linejoin="round"/>
<path d="M493.969 320.731H503.644" stroke="#182F43" stroke-linecap="round" stroke-linejoin="round"/>
<path d="M493.969 322.914H511.063" stroke="#182F43" stroke-linecap="round" stroke-linejoin="round"/>
<path d="M518.198 311.988H527.873" stroke="#182F43" stroke-linecap="round" stroke-linejoin="round"/>
<path d="M518.198 314.177H533.501" stroke="#182F43" stroke-linecap="round" stroke-linejoin="round"/>
<path d="M518.198 316.36H527.873" stroke="#182F43" stroke-linecap="round" stroke-linejoin="round"/>
<path d="M518.198 318.542H532.155" stroke="#182F43" stroke-linecap="round" stroke-linejoin="round"/>
<path d="M518.198 320.731H527.873" stroke="#182F43" stroke-linecap="round" stroke-linejoin="round"/>
<path d="M518.198 322.914H535.293" stroke="#182F43" stroke-linecap="round" stroke-linejoin="round"/>
<path d="M542.428 311.988H552.103" stroke="#182F43" stroke-linecap="round" stroke-linejoin="round"/>
<path d="M542.428 314.177H557.725" stroke="#182F43" stroke-linecap="round" stroke-linejoin="round"/>
<path d="M542.428 316.36H552.103" stroke="#182F43" stroke-linecap="round" stroke-linejoin="round"/>
<path d="M542.428 318.542H556.379" stroke="#182F43" stroke-linecap="round" stroke-linejoin="round"/>
<path d="M542.428 320.731H552.103" stroke="#182F43" stroke-linecap="round" stroke-linejoin="round"/>
<path d="M542.428 322.914H559.522" stroke="#182F43" stroke-linecap="round" stroke-linejoin="round"/>
<path d="M512.074 304.809H493.349V308.555H512.074V304.809Z" fill="#182F43"/>
<path d="M536.728 304.809H518.003V308.555H536.728V304.809Z" fill="#182F43"/>
<path d="M561.382 304.809H542.657V308.555H561.382V304.809Z" fill="#182F43"/>
<path d="M514.994 304.591V323.545" stroke="#182F43" stroke-linecap="round" stroke-linejoin="round"/>
<path d="M539.447 304.591V323.545" stroke="#182F43" stroke-linecap="round" stroke-linejoin="round"/>
<path d="M500.981 295.932L505.034 294.614C505.294 295.415 505.311 296.276 505.082 297.086C504.853 297.897 504.389 298.621 503.748 299.168C503.108 299.715 502.32 300.06 501.483 300.159C500.647 300.258 499.8 300.107 499.049 299.725C498.298 299.342 497.678 298.746 497.266 298.011C496.855 297.277 496.67 296.436 496.736 295.596C496.801 294.757 497.115 293.955 497.636 293.294C498.157 292.632 498.862 292.139 499.663 291.879C500.088 291.738 500.533 291.668 500.981 291.672V295.932Z" fill="#AA4337" stroke="#182F43" stroke-width="0.5" stroke-miterlimit="10"/>
<path d="M500.981 295.932V291.672C501.883 291.661 502.765 291.942 503.495 292.472C504.225 293.002 504.765 293.753 505.034 294.614L500.981 295.932Z" fill="#182F43" stroke="#182F43" stroke-width="0.5" stroke-miterlimit="10"/>
<path d="M542.015 295.932L546.068 294.614C546.328 295.416 546.345 296.276 546.116 297.087C545.888 297.898 545.423 298.623 544.783 299.17C544.142 299.717 543.353 300.062 542.516 300.161C541.68 300.26 540.832 300.108 540.082 299.726C539.331 299.343 538.711 298.746 538.299 298.011C537.888 297.275 537.704 296.435 537.77 295.595C537.837 294.755 538.151 293.953 538.673 293.292C539.195 292.63 539.901 292.139 540.703 291.879C541.126 291.738 541.569 291.668 542.015 291.672V295.932Z" fill="#AA4337" stroke="#182F43" stroke-width="0.5" stroke-miterlimit="10"/>
<path d="M542.015 295.932V291.672C542.917 291.66 543.799 291.94 544.53 292.471C545.26 293.001 545.8 293.753 546.068 294.614L542.015 295.932Z" fill="#182F43" stroke="#182F43" stroke-width="0.5" stroke-miterlimit="10"/>
<path d="M514.67 295.932V300.191C513.54 300.191 512.457 299.743 511.658 298.944C510.859 298.145 510.41 297.061 510.41 295.932C510.41 294.802 510.859 293.718 511.658 292.92C512.457 292.121 513.54 291.672 514.67 291.672V295.932Z" fill="#AA4337" stroke="#182F43" stroke-width="0.5" stroke-miterlimit="10"/>
<path d="M514.67 295.932V291.672C515.8 291.672 516.883 292.121 517.682 292.92C518.481 293.718 518.93 294.802 518.93 295.932C518.93 297.061 518.481 298.145 517.682 298.944C516.883 299.743 515.8 300.191 514.67 300.191V295.932Z" fill="#182F43" stroke="#182F43" stroke-width="0.5" stroke-miterlimit="10"/>
<path d="M528.337 295.932L532.39 297.249C532.217 297.782 531.941 298.275 531.577 298.7C531.214 299.126 530.77 299.476 530.271 299.73C529.772 299.984 529.228 300.137 528.67 300.181C528.112 300.225 527.551 300.158 527.019 299.985C526.487 299.812 525.994 299.536 525.568 299.172C525.143 298.809 524.793 298.365 524.539 297.866C524.285 297.368 524.132 296.824 524.088 296.266C524.044 295.708 524.11 295.147 524.283 294.614C524.553 293.753 525.092 293.002 525.822 292.472C526.553 291.942 527.434 291.661 528.337 291.672V295.932Z" fill="#AA4337" stroke="#182F43" stroke-width="0.5" stroke-miterlimit="10"/>
<path d="M528.337 295.932V291.672C528.897 291.671 529.451 291.781 529.969 291.995C530.486 292.208 530.956 292.522 531.353 292.918C531.749 293.313 532.063 293.783 532.277 294.3C532.492 294.817 532.602 295.372 532.602 295.932C532.604 296.379 532.533 296.825 532.39 297.249L528.337 295.932Z" fill="#182F43" stroke="#182F43" stroke-width="0.5" stroke-miterlimit="10"/>
<path d="M555.693 295.932L559.746 297.249C559.573 297.782 559.297 298.275 558.933 298.7C558.569 299.126 558.126 299.476 557.627 299.73C557.128 299.984 556.584 300.137 556.026 300.181C555.468 300.225 554.907 300.158 554.375 299.985C553.843 299.812 553.35 299.536 552.924 299.172C552.499 298.809 552.149 298.365 551.895 297.866C551.641 297.368 551.488 296.824 551.444 296.266C551.4 295.708 551.466 295.147 551.639 294.614C551.909 293.753 552.448 293.002 553.178 292.472C553.909 291.942 554.79 291.661 555.693 291.672V295.932Z" fill="#AA4337" stroke="#182F43" stroke-width="0.5" stroke-miterlimit="10"/>
<path d="M555.693 295.932V291.672C556.252 291.671 556.807 291.781 557.324 291.995C557.841 292.208 558.311 292.522 558.707 292.918C559.102 293.314 559.416 293.783 559.63 294.301C559.844 294.818 559.953 295.372 559.953 295.932C559.957 296.379 559.887 296.824 559.746 297.249L555.693 295.932Z" fill="#182F43" stroke="#182F43" stroke-width="0.5" stroke-miterlimit="10"/>
<path d="M556.53 334.604H552.801V335.866H556.53V334.604Z" fill="#AA4337" stroke="#182F43" stroke-width="0.75" stroke-linecap="round" stroke-linejoin="round"/>
<path d="M552.388 328.302H548.658V335.867H552.388V328.302Z" fill="#182F43" stroke="#182F43" stroke-width="0.75" stroke-linecap="round" stroke-linejoin="round"/>
<path d="M548.251 331.021H544.521V335.872H548.251V331.021Z" fill="#FBFBFF" stroke="#182F43" stroke-width="0.75" stroke-linecap="round" stroke-linejoin="round"/>
<path d="M544.108 327.235H540.379V335.866H544.108V327.235Z" fill="#AA4337" stroke="#182F43" stroke-width="0.75" stroke-linecap="round" stroke-linejoin="round"/>
<path d="M539.966 333.639H536.236V335.872H539.966V333.639Z" fill="#182F43" stroke="#182F43" stroke-width="0.75" stroke-linecap="round" stroke-linejoin="round"/>
<path d="M535.823 332.958H532.094V335.867H535.823V332.958Z" fill="#FBFBFF" stroke="#182F43" stroke-width="0.75" stroke-linecap="round" stroke-linejoin="round"/>
<path d="M531.681 330.049H527.952V335.872H531.681V330.049Z" fill="#AA4337" stroke="#182F43" stroke-width="0.75" stroke-linecap="round" stroke-linejoin="round"/>
<path d="M527.538 334.901H523.809V335.873H527.538V334.901Z" fill="#182F43" stroke="#182F43" stroke-width="0.75" stroke-linecap="round" stroke-linejoin="round"/>
<path d="M523.396 328.302H519.667V335.867H523.396V328.302Z" fill="#FBFBFF" stroke="#182F43" stroke-width="0.75" stroke-linecap="round" stroke-linejoin="round"/>
<path d="M519.254 329.758H515.524V335.871H519.254V329.758Z" fill="#AA4337" stroke="#182F43" stroke-width="0.75" stroke-linecap="round" stroke-linejoin="round"/>
<path d="M515.117 335.576H511.387V335.866H515.117V335.576Z" fill="#182F43" stroke="#182F43" stroke-width="0.75" stroke-linecap="round" stroke-linejoin="round"/>
<path d="M510.974 335.482H507.245V335.868H510.974V335.482Z" fill="#FBFBFF" stroke="#182F43" stroke-width="0.75" stroke-linecap="round" stroke-linejoin="round"/>
<path d="M506.832 331.021H503.103V335.872H506.832V331.021Z" fill="#AA4337" stroke="#182F43" stroke-width="0.75" stroke-linecap="round" stroke-linejoin="round"/>
<path d="M502.689 334.901H498.96V335.873H502.689V334.901Z" fill="#182F43" stroke="#182F43" stroke-width="0.75" stroke-linecap="round" stroke-linejoin="round"/>
<path d="M498.547 333.929H494.817V335.872H498.547V333.929Z" fill="#FBFBFF" stroke="#182F43" stroke-width="0.75" stroke-linecap="round" stroke-linejoin="round"/>
<path d="M251 496L585 496" stroke="#182F43"/>
<defs>
<filter id="filter0_d_959_5584" x="33.7715" y="105.5" width="148.552" height="284.195" filterUnits="userSpaceOnUse" color-interpolation-filters="sRGB">
<feFlood flood-opacity="0" result="BackgroundImageFix"/>
<feColorMatrix in="SourceAlpha" type="matrix" values="0 0 0 0 0 0 0 0 0 0 0 0 0 0 0 0 0 0 127 0" result="hardAlpha"/>
<feOffset dx="-5" dy="-5"/>
<feComposite in2="hardAlpha" operator="out"/>
<feColorMatrix type="matrix" values="0 0 0 0 0.666667 0 0 0 0 0.262745 0 0 0 0 0.215686 0 0 0 1 0"/>
<feBlend mode="normal" in2="BackgroundImageFix" result="effect1_dropShadow_959_5584"/>
<feBlend mode="normal" in="SourceGraphic" in2="effect1_dropShadow_959_5584" result="shape"/>
</filter>
</defs>
</svg>
