<svg width="586" height="430" viewBox="0 0 586 430" fill="none" xmlns="http://www.w3.org/2000/svg">
<ellipse cx="293" cy="398.5" rx="293" ry="31.5" fill="white" fill-opacity="0.15"/>
<path d="M552 262.441H60V264.441H552V262.441Z" fill="#3E4E5B"/>
<path d="M121.839 207.953C122.754 208.196 123.699 208.303 124.645 208.27C124.645 208.27 124.208 206.947 124.182 206.881C123.745 205.967 122.355 204.458 121.23 204.617C121.043 204.645 120.865 204.713 120.706 204.816C120.548 204.919 120.414 205.055 120.312 205.214C120.211 205.373 120.144 205.552 120.118 205.739C120.091 205.926 120.105 206.117 120.158 206.298C120.3 206.68 120.524 207.027 120.814 207.313C121.105 207.598 121.455 207.817 121.839 207.953Z" fill="#182F43"/>
<path d="M141.999 208.377C141.999 208.377 142.357 207.054 142.37 206.974C142.502 205.968 142.185 203.943 141.166 203.453C140.994 203.373 140.808 203.33 140.618 203.328C140.429 203.326 140.241 203.365 140.068 203.441C139.895 203.518 139.741 203.63 139.615 203.772C139.489 203.913 139.395 204.08 139.339 204.261C139.245 204.658 139.239 205.072 139.321 205.472C139.404 205.872 139.572 206.249 139.815 206.577C140.449 207.283 141.186 207.89 141.999 208.377Z" fill="#182F43"/>
<path d="M437.414 262.714V14.0781" stroke="#3E4E5B" stroke-linecap="round" stroke-linejoin="round"/>
<path d="M215.037 262.712V15.625" stroke="#3E4E5B" stroke-linecap="round" stroke-linejoin="round"/>
<path d="M97.2061 140.191L534.358 140.657" stroke="#3E4E5B" stroke-linecap="round" stroke-linejoin="round"/>
<path d="M142.713 30.0394H151.78C152.946 30.0394 154.063 30.5024 154.888 31.3265C155.712 32.1507 156.175 33.2684 156.175 34.4339V44.4805H138.266V34.4339C138.266 33.8524 138.381 33.2766 138.605 32.7399C138.829 32.2032 139.158 31.7164 139.571 31.3077C139.985 30.8989 140.476 30.5763 141.015 30.3586C141.554 30.1409 142.132 30.0324 142.713 30.0394Z" fill="#FFC100" stroke="#182F43"/>
<path d="M155.327 57.7969C155.327 59.441 154.84 61.0482 153.926 62.4152C153.013 63.7822 151.715 64.8476 150.196 65.4768C148.677 66.1059 147.006 66.2705 145.393 65.9498C143.781 65.6291 142.299 64.8374 141.137 63.6748C139.974 62.5123 139.183 61.0311 138.862 59.4187C138.541 57.8062 138.706 56.1348 139.335 54.6159C139.964 53.0969 141.03 51.7987 142.397 50.8853C143.764 49.9719 145.371 49.4844 147.015 49.4844C149.219 49.4844 151.334 50.3602 152.893 51.9191C154.452 53.478 155.327 55.5923 155.327 57.7969Z" fill="white" stroke="#182F43"/>
<path d="M182.595 58.1833H147.247H111.898L138.411 43.7422H156.016L182.595 58.1833Z" fill="#FFC100" stroke="#182F43"/>
<path d="M148.738 1H145.746V29.8955H148.738V1Z" fill="#FFC100" stroke="#182F43"/>
<path d="M482.18 30.0391H491.234C492.399 30.0391 493.517 30.5021 494.341 31.3262C495.165 32.1503 495.628 33.2681 495.628 34.4336V44.4802H477.785V34.4336C477.785 33.2681 478.248 32.1503 479.072 31.3262C479.896 30.5021 481.014 30.0391 482.18 30.0391Z" fill="#FFC100" stroke="#182F43"/>
<path d="M486.48 66.1095C491.07 66.1095 494.792 62.3879 494.792 57.7969C494.792 53.206 491.07 49.4844 486.48 49.4844C481.889 49.4844 478.167 53.206 478.167 57.7969C478.167 62.3879 481.889 66.1095 486.48 66.1095Z" fill="white" stroke="#182F43"/>
<path d="M522.062 58.1833H451.365L477.878 43.7422H495.483L522.062 58.1833Z" fill="#FFC100" stroke="#182F43"/>
<path d="M488.202 1H485.211V29.8955H488.202V1Z" fill="#FFC100" stroke="#182F43"/>
<path d="M279.95 94.9922L274.205 98.5264" stroke="#182F43" stroke-width="0.5" stroke-linecap="round" stroke-linejoin="round"/>
<path d="M376.922 35.2305L287.681 90.2285" stroke="#3E4E5B" stroke-width="0.5" stroke-linecap="round" stroke-linejoin="round"/>
<path d="M388.702 38.9492L317.198 83.0006" stroke="#3E4E5B" stroke-width="0.5" stroke-linecap="round" stroke-linejoin="round"/>
<path d="M419.926 19.7031L398.324 33.0059" stroke="#182F43" stroke-width="0.5" stroke-linecap="round" stroke-linejoin="round"/>
<path d="M308.144 250.76C308.144 250.76 305.841 266.022 307.456 274.109C309.071 282.197 315.08 321.761 316.722 337.923C318.363 354.085 326.199 378.599 326.662 379.764C327.126 380.929 325.974 384.145 325.974 385.535C325.974 386.925 326.437 390.168 326.437 390.168C326.437 390.168 319.727 394.549 316.259 396.64C312.791 398.732 314.419 399.645 317.648 400.095C320.878 400.545 366.624 400.095 366.624 400.095C366.624 400.095 367.775 399.87 366.385 397.792C364.996 395.714 355.518 389.241 355.518 389.241C355.335 387.704 355.26 386.156 355.293 384.608C355.293 381.379 352.513 375.594 352.513 375.594C352.513 375.594 357.61 338.611 356.484 328.896C355.359 319.18 354.87 309.253 356.723 300.463C358.576 291.674 355.796 252.613 356.259 250.76C356.497 249.42 356.335 248.039 355.796 246.789C355.796 246.789 341.236 252.56 328.979 253.487C321.918 254.134 314.801 253.202 308.144 250.76Z" fill="#182F43" stroke="white" stroke-width="0.5" stroke-miterlimit="10" stroke-linecap="round"/>
<path d="M366.398 397.791C365.008 395.713 355.531 389.241 355.531 389.241C355.531 389.241 355.531 389.069 355.531 388.777C349.842 390.654 344.529 393.517 339.832 397.236C339.832 397.236 340.587 396.23 336.325 392.722C333.49 390.585 329.934 389.635 326.411 390.075C326.411 390.075 319.7 394.456 316.232 396.547C312.764 398.639 314.392 399.552 317.621 400.002C320.851 400.452 366.597 400.002 366.597 400.002C366.597 400.002 367.788 399.883 366.398 397.791Z" fill="white" stroke="#182F43" stroke-linecap="round" stroke-linejoin="round"/>
<path d="M316.551 398.069C316.551 398.069 325.062 398.691 328.583 397.658" stroke="#182F43" stroke-width="0.75" stroke-linecap="round" stroke-linejoin="round"/>
<path d="M305.643 186.946C305.643 186.946 299.025 222.685 297.317 228.059C295.61 233.433 296.271 245.928 301.288 244.472C306.305 243.016 307.906 235.538 308.343 233.46C308.78 231.381 309.177 195.074 309.177 188.799C309.177 182.525 305.643 186.946 305.643 186.946Z" fill="#FFC100" stroke="#182F43" stroke-linecap="round" stroke-linejoin="round"/>
<path d="M328.188 170.933C328.188 170.933 311.113 175.949 308.334 176.532C305.554 177.114 304.177 181.27 304.032 184.712C303.886 188.153 304.468 223.297 304.323 233.78C304.177 244.263 302.748 247.837 307.473 251.702C312.199 255.567 325.554 256.295 337.745 255.435C349.936 254.575 355.403 250.842 355.403 245.402C355.403 239.961 354.542 214.124 354.542 214.124C354.542 214.124 355.866 199.06 358.844 192.601C361.823 186.141 363.57 184.129 361.28 181.84C358.99 179.55 344.774 171.369 339.188 169.781C335.495 168.944 331.628 169.349 328.188 170.933Z" fill="#FFC100" stroke="#182F43" stroke-linecap="round" stroke-linejoin="round"/>
<path d="M326.451 183.212L328.026 193.259L339.502 186.508L334.486 178.328C334.486 178.328 327.457 180.486 326.451 183.212Z" fill="#182F43" stroke="#182F43" stroke-linecap="round" stroke-linejoin="round"/>
<path d="M330.647 167.967C328.381 169.939 326.574 172.383 325.353 175.128C323.751 179.191 320.416 185.611 321.779 185.968C323.142 186.326 327.206 182.897 328.066 182.897C328.927 182.897 330.647 187.08 331.15 187.213C332.92 186.727 334.65 186.107 336.326 185.359C336.326 185.359 337.067 190.654 338.669 190.786C340.27 190.919 345.697 182.646 346.69 176.478C347.683 170.309 344.466 169.33 343.844 169.198C343.222 169.065 335.955 165.875 330.647 167.967Z" fill="#FFC100" stroke="#182F43" stroke-linecap="round" stroke-linejoin="round"/>
<path d="M329.787 147.86C329.787 147.86 329.549 142.194 329.549 138.74C329.549 135.285 330.039 133.445 332.13 132.69C334.221 131.936 334.843 135.166 334.777 136.886C334.711 138.607 329.787 147.86 329.787 147.86Z" fill="#182F43" stroke="#182F43" stroke-linecap="round" stroke-linejoin="round"/>
<path d="M329.788 146.509C329.788 146.509 329.669 142.313 328.187 144.537C326.704 146.76 327.207 151.936 328.187 151.446C329.166 150.956 329.788 146.509 329.788 146.509Z" fill="white" stroke="#182F43" stroke-linecap="round" stroke-linejoin="round"/>
<path d="M330.039 167.727C330.039 167.727 329.668 177.707 329.416 181.651C329.165 185.596 330.528 187.82 332.871 186.946C335.214 186.072 340.893 178.554 342.613 175.602C343.761 173.558 344.709 171.408 345.446 169.183C345.446 169.183 336.948 171.79 330.039 167.727Z" fill="white" stroke="#182F43" stroke-linecap="round" stroke-linejoin="round"/>
<path d="M332.844 135.653C332.844 135.653 328.41 150.333 327.179 155.627C325.948 160.922 326.557 165.383 328.781 168.864C329.823 170.467 331.277 171.761 332.991 172.608C334.705 173.456 336.616 173.827 338.523 173.682C342.494 173.549 347.405 172.57 350.356 166.402C351.926 162.993 353.287 159.492 354.433 155.918C355.042 154.687 357.266 148.268 358.497 144.204C359.728 140.14 357.292 135.243 352.58 132.49C351.151 131.603 341.514 125.514 332.844 135.653Z" fill="white" stroke="#182F43" stroke-linecap="round" stroke-linejoin="round"/>
<path d="M355.346 154.531C355.346 154.531 358.43 152.056 359.317 153.909C360.204 155.762 358.575 159.085 356.484 160.196C355.98 160.53 355.403 160.737 354.802 160.802C354.201 160.866 353.593 160.786 353.029 160.567C353.029 160.567 354.022 155.881 355.346 154.531Z" fill="white" stroke="#182F43" stroke-linecap="round" stroke-linejoin="round"/>
<path d="M359.383 130.479L358.059 128.997C358.059 128.997 357.94 128.004 353.982 126.535C350.024 125.066 345.471 125.291 343.869 123.318C342.268 121.346 340.415 120.856 335.729 121.598C331.043 122.339 329.111 127.144 329.111 131.088C329.111 135.033 337.622 140.592 343.538 141.453C349.455 142.313 355.266 140.46 354.022 141.572C352.778 142.684 349.217 146.628 350.448 147.991C351.679 149.355 352.42 150.202 352.42 151.817C352.42 152.915 352.195 155.457 352.248 156.992C351.772 157.959 350.501 160.54 350.21 160.963C349.918 161.387 346.384 158.501 344.28 157.389C343.306 156.789 342.213 156.409 341.076 156.278C341.076 156.278 340.957 158.131 340.097 158.369C339.237 158.607 336.271 158.62 335.398 157.76C335.126 157.381 334.932 156.952 334.828 156.497C334.723 156.043 334.71 155.572 334.789 155.113C331.772 155.221 328.907 156.464 326.768 158.594C326.27 162.137 327.014 165.742 328.872 168.799C329.914 170.403 331.369 171.696 333.083 172.544C334.797 173.392 336.708 173.762 338.614 173.618C342.585 173.485 347.496 172.506 350.448 166.337C351.888 163.323 353.083 160.198 354.022 156.992C354.41 156.419 354.717 155.796 354.935 155.139C356.078 152.564 357.57 150.159 359.369 147.991C361.771 144.696 363.069 140.725 363.076 136.648C363.107 135.375 362.776 134.121 362.123 133.029C361.469 131.937 360.519 131.053 359.383 130.479Z" fill="#182F43" stroke="#FBFBFF" stroke-width="0.5" stroke-linecap="round" stroke-linejoin="round"/>
<path d="M348.066 131.182C348.066 131.182 340.125 128.204 338.801 133.83C337.477 139.455 350.714 141.11 361.634 139.124" stroke="white" stroke-width="0.75" stroke-linecap="round" stroke-linejoin="round"/>
<path d="M352.037 145.741C352.037 145.741 354.354 146.403 359.648 144.748" stroke="white" stroke-width="0.75" stroke-linecap="round" stroke-linejoin="round"/>
<path d="M337.556 146.508L337.066 149.34C337.066 149.34 333.863 156.501 334.723 157.362C335.583 158.222 340.15 159.215 340.521 157.732C340.718 157.046 340.842 156.34 340.891 155.628L339.409 155.257" stroke="#182F43" stroke-linecap="round" stroke-linejoin="round"/>
<path d="M342.745 147.623C342.745 147.623 347.299 146.511 348.41 150.336" stroke="#182F43" stroke-linecap="round" stroke-linejoin="round"/>
<path d="M336.577 145.279C336.042 144.766 335.356 144.441 334.62 144.353C333.885 144.264 333.141 144.417 332.5 144.789" stroke="#182F43" stroke-linecap="round" stroke-linejoin="round"/>
<path d="M344.585 151.923C344.479 152.664 344.042 153.246 343.605 153.154C343.168 153.061 342.89 152.439 342.996 151.698C343.102 150.956 343.526 150.374 343.976 150.467C344.426 150.559 344.677 151.182 344.585 151.923Z" fill="#182F43"/>
<path d="M334.287 148.841C334.181 149.582 333.744 150.165 333.307 150.072C332.87 149.979 332.592 149.37 332.698 148.616C332.804 147.861 333.228 147.292 333.678 147.385C334.128 147.478 334.379 148.1 334.287 148.841Z" fill="#182F43"/>
<path d="M343.353 161.057C338.191 167.185 334.088 162.129 333.73 160.818L343.353 161.057Z" fill="white"/>
<path d="M328.026 193.262C328.026 193.262 322.004 217.22 320.852 228.696C320.17 235.177 319.834 241.69 319.846 248.207L322.864 253.501L327.311 248.207C327.311 248.207 327.166 222.673 327.166 214.493C327.166 206.313 328.026 193.262 328.026 193.262Z" fill="#182F43" stroke="#182F43" stroke-linecap="round" stroke-linejoin="round"/>
<path d="M356.458 198.245C356.458 198.245 352.765 206.571 354.155 210.727C355.544 214.884 367.325 232.224 368.477 232.925C369.628 233.627 378.655 235.692 379.807 230.384C380.959 225.076 371.256 193.626 368.251 189.006C365.247 184.387 362.957 184.837 361.779 185.763" fill="#FFC100"/>
<path d="M356.458 198.245C356.458 198.245 352.765 206.571 354.155 210.727C355.544 214.884 367.325 232.224 368.477 232.925C369.628 233.627 378.655 235.692 379.807 230.384C380.959 225.076 371.256 193.626 368.251 189.006C365.247 184.387 362.957 184.837 361.779 185.763" stroke="#182F43" stroke-linecap="round" stroke-linejoin="round"/>
<path d="M324.557 215.169L325.947 252.152L354.154 250.775L353.452 214.48L324.557 215.169Z" fill="white" stroke="#182F43" stroke-linecap="round" stroke-linejoin="round"/>
<path d="M374.261 223.491C374.261 223.491 367.1 224.179 362.931 226.495C358.761 228.812 342.586 232.266 342.586 232.266L343.513 241.281C350.803 242.211 358.182 242.211 365.472 241.281C375.876 239.666 381.885 240.129 382.349 237.124C382.812 234.12 378.881 222.789 378.881 222.789" fill="#FFC100"/>
<path d="M374.261 223.491C374.261 223.491 367.1 224.179 362.931 226.495C358.761 228.812 342.586 232.266 342.586 232.266L343.513 241.281C350.803 242.211 358.182 242.211 365.472 241.281C375.876 239.666 381.885 240.129 382.349 237.124C382.812 234.12 378.881 222.789 378.881 222.789" stroke="#182F43" stroke-linecap="round" stroke-linejoin="round"/>
<path d="M348.611 231.342L349.061 241.746" stroke="#182F43" stroke-linecap="round" stroke-linejoin="round"/>
<path d="M343.288 233.194L335.492 226.959C335.492 226.959 330.197 224.18 329.019 224.18C326.613 224.435 324.223 224.819 321.858 225.331C320.932 225.57 321.395 226.721 323.01 227.423C324.036 227.844 325.13 228.077 326.24 228.111C326.24 228.111 318.854 229.726 318.854 231.579C318.854 233.432 322.083 234.345 322.083 234.345C322.083 234.345 321.157 238.74 323.235 240.368C325.313 241.996 327.404 242.671 331.097 241.692C334.79 240.712 343.579 241.228 343.579 241.228L343.288 233.194Z" fill="white" stroke="#182F43" stroke-linecap="round" stroke-linejoin="round"/>
<path d="M304.373 229.723C304.373 229.723 298.972 223.29 297.318 218.299C295.663 213.309 291.917 203.739 291.917 203.739L285.895 203.527C285.895 203.527 286.517 222.217 289.866 232.82C293.214 243.422 297.543 248.81 299.833 247.777C302.123 246.745 305.445 241.755 305.445 241.755" fill="#FFC100"/>
<path d="M304.373 229.723C304.373 229.723 298.972 223.29 297.318 218.299C295.663 213.309 291.917 203.739 291.917 203.739L285.895 203.527C285.895 203.527 286.517 222.217 289.866 232.82C293.214 243.422 297.543 248.81 299.833 247.777C302.123 246.745 305.445 241.755 305.445 241.755" stroke="#182F43" stroke-linecap="round" stroke-linejoin="round"/>
<path d="M298.151 179.878C296.587 181.023 295.54 182.741 295.239 184.656C294.815 186.311 293.995 186.933 291.268 186.734C290.794 186.662 290.31 186.685 289.844 186.801C289.378 186.917 288.94 187.123 288.555 187.409C288.449 186.975 288.387 186.532 288.369 186.086C288.369 184.603 290.897 181.347 292.049 180.407C293.201 179.467 294.882 178.091 294.696 176.833C294.511 175.576 289.759 178.302 288.396 179.255C287.032 180.209 286.291 184.087 286.291 184.087C285.588 186.473 285.524 189.002 286.106 191.42C285.96 191.738 285.828 192.042 285.682 192.399C283.816 196.966 285.894 203.2 285.894 203.2L291.917 203.412C291.917 203.412 291.295 200.302 292.327 199.044C293.358 197.414 294.542 195.885 295.861 194.478C297.516 193.022 298.35 188.667 298.35 187.621C298.539 185.69 299.03 183.801 299.806 182.022C300.64 180.076 300.017 178.633 298.151 179.878Z" fill="white" stroke="#182F43" stroke-linecap="round" stroke-linejoin="round"/>
<path d="M284.716 188.005C284.716 188.005 285.457 184.127 286.821 183.174C288.184 182.221 292.923 179.494 293.121 180.765C293.32 182.036 291.652 183.412 290.474 184.326C289.296 185.239 286.794 188.535 286.794 190.004C286.895 191.231 287.181 192.436 287.642 193.578C287.642 193.578 286.318 196 285.325 196.305C284.332 196.609 283.565 191.897 284.716 188.005Z" fill="white" stroke="#182F43" stroke-linecap="round" stroke-linejoin="round"/>
<path d="M284.928 190.322C284.928 190.322 285.669 186.431 287.033 185.491C288.396 184.551 293.122 181.811 293.333 183.068C293.545 184.326 291.864 185.716 290.686 186.642C289.508 187.569 287.006 190.852 287.006 192.321C287.107 193.548 287.393 194.753 287.853 195.895C287.853 195.895 286.53 198.304 285.537 198.621C284.544 198.939 283.777 194.214 284.928 190.322Z" fill="white" stroke="#182F43" stroke-linecap="round" stroke-linejoin="round"/>
<path d="M285.193 200.724C285.193 200.724 283.512 194.94 283.724 192.637C283.935 190.334 284.769 188.322 285.934 188.216C287.099 188.11 292.023 186.323 292.023 187.686C292.023 189.05 287.509 190.532 287.509 190.532C287.509 190.532 290.342 194.212 290.236 196.092C290.124 197.436 289.88 198.766 289.508 200.063" fill="white"/>
<path d="M285.193 200.724C285.193 200.724 283.512 194.94 283.724 192.637C283.935 190.334 284.769 188.322 285.934 188.216C287.099 188.11 292.023 186.323 292.023 187.686C292.023 189.05 287.509 190.532 287.509 190.532C287.509 190.532 290.342 194.212 290.236 196.092C290.124 197.436 289.88 198.766 289.508 200.063" stroke="#182F43" stroke-linecap="round" stroke-linejoin="round"/>
<path d="M322.48 272.496L327.682 276.308L339.82 395.596" stroke="white" stroke-width="0.75" stroke-linecap="round" stroke-linejoin="round"/>
<path d="M158.863 214.283C158.863 214.283 162.966 224.621 163.151 228.327C163.336 232.033 162.383 231.438 163.932 236.269C165.481 241.1 169.981 252.643 172.523 262.001C174.537 269.636 175.521 277.507 175.448 285.403H146.579C146.579 285.403 148.723 279.553 142.873 263.179C137.022 246.805 134.693 237.076 134.693 232.417C134.693 227.758 132.151 223.059 131.172 217.791C130.192 212.523 133.316 213.105 133.316 213.105L156.917 213.304C156.917 213.304 158.479 213.105 158.863 214.283Z" fill="#182F43" stroke="#FBFBFF" stroke-linecap="round" stroke-linejoin="round"/>
<path d="M131.014 215.447C131.239 212.721 133.317 213.104 133.317 213.104L156.918 213.303C156.918 213.303 158.48 213.104 158.863 214.283C158.863 214.283 162.967 224.62 163.152 228.327C163.211 229.302 163.184 230.281 163.073 231.252L162.57 232.02C162.57 232.02 161.789 238.85 152.43 239.247C143.072 239.644 137.87 235.342 135.858 231.239C133.846 227.135 133.132 220.517 131.57 216.678C131.411 216.228 131.212 215.897 131.014 215.447Z" fill="white" stroke="#182F43" stroke-linecap="round" stroke-linejoin="round"/>
<path d="M134.692 232.419C134.692 227.733 132.151 223.06 131.172 217.792C130.496 214.152 131.78 213.305 132.641 213.133C132.972 213.252 134.176 213.953 135.659 218.573C137.419 224.027 136.44 231.24 137.419 237.104C138.399 242.968 143.27 255.834 146.777 265.391C149.663 273.253 150.312 280.851 149.134 285.471H146.579C146.579 285.471 148.723 279.62 142.873 263.246C137.022 246.873 134.692 237.078 134.692 232.419Z" fill="white" stroke="#182F43" stroke-linecap="round" stroke-linejoin="round"/>
<path d="M279.144 285.114H255.663C255.238 285.076 254.842 284.881 254.554 284.566C254.265 284.251 254.105 283.84 254.105 283.413C254.105 282.986 254.265 282.575 254.554 282.26C254.842 281.945 255.238 281.749 255.663 281.712H279.144C279.768 281.723 280.385 281.587 280.947 281.315C281.508 281.043 281.997 280.643 282.375 280.146C282.752 279.65 283.008 279.072 283.12 278.458C283.233 277.845 283.2 277.214 283.023 276.616L274.684 246.767C274.563 246.334 274.619 245.87 274.84 245.478C275.061 245.085 275.428 244.797 275.862 244.676C276.295 244.555 276.759 244.611 277.151 244.832C277.544 245.053 277.832 245.42 277.953 245.854L286.292 275.702C286.598 276.805 286.645 277.963 286.43 279.086C286.214 280.21 285.742 281.268 285.05 282.179C284.359 283.09 283.466 283.829 282.441 284.338C281.417 284.847 280.288 285.112 279.144 285.114Z" fill="white" stroke="#182F43" stroke-linecap="round" stroke-linejoin="round"/>
<path d="M276.204 207.519L270.881 206.881L262.635 275.629L267.957 276.267L276.204 207.519Z" fill="white" stroke="#182F43" stroke-linecap="round" stroke-linejoin="round"/>
<path d="M276.231 207.492C281.439 230.677 278.527 254.947 267.984 276.243L276.231 207.492Z" fill="white" stroke="#182F43" stroke-linecap="round" stroke-linejoin="round"/>
<path d="M294.577 284.955H62.2754V386.215H294.577V284.955Z" fill="#182F43"/>
<path opacity="0.72" d="M294.575 284.953H62.2734V386.213H294.575V284.953Z" fill="white"/>
<path d="M294.577 284.955H62.2754V386.215H294.577V284.955Z" stroke="#182F43" stroke-linecap="round" stroke-linejoin="round"/>
<path d="M294.629 287.828H62.3008V291.19H294.629V287.828Z" fill="#182F43"/>
<path d="M296.562 282.969H56.3184V288.263H296.562V282.969Z" fill="white" stroke="#182F43" stroke-linecap="round" stroke-linejoin="round"/>
<path d="M526.942 205.412L500.839 205.637C500.839 205.637 499.118 205.412 498.681 206.709C498.681 206.709 494.154 218.145 493.929 222.249C493.704 226.352 494.803 225.69 493.069 231.091C491.335 236.491 486.385 249.212 483.578 259.576C479.806 273.501 478.826 288.273 478.588 302.635C478.588 304.938 477.172 324.779 480.759 324.779C483.737 324.779 511.203 328.419 511.534 323.125C512.858 302.026 509.046 281.403 516.379 260.913C519.225 252.971 522.481 244.526 524.903 236.187C527.325 227.848 527.736 219.178 529.311 210.64C530.396 204.763 526.942 205.412 526.942 205.412Z" fill="#182F43" stroke="#FBFBFF" stroke-linecap="round" stroke-linejoin="round"/>
<path d="M529.497 207.953C529.245 204.948 526.942 205.372 526.942 205.372L500.84 205.597C500.84 205.597 499.119 205.372 498.682 206.669C498.682 206.669 494.155 218.106 493.93 222.209C493.874 223.291 493.905 224.375 494.023 225.452L494.579 226.299C494.579 226.299 495.439 233.857 505.803 234.241C516.168 234.625 521.979 229.926 524.136 225.399C526.294 220.872 527.154 213.486 528.888 209.224C529.06 208.867 529.272 208.43 529.497 207.953Z" fill="white" stroke="#182F43" stroke-linecap="round" stroke-linejoin="round"/>
<path d="M523.448 216.423C521.7 222.723 522.746 224.484 520.999 235.338C519.252 246.192 512.951 258.436 510.489 269.647C508.027 280.858 509.165 320.423 509.443 322.17C509.575 323.099 509.628 324.038 509.602 324.976C510.767 324.539 511.482 323.93 511.535 323.11C512.858 302.011 509.046 281.388 516.379 260.898C519.225 252.956 522.481 244.511 524.904 236.172C527.326 227.833 527.736 219.163 529.312 210.625C529.973 207.051 528.928 205.913 527.988 205.582C526.023 208.989 524.497 212.632 523.448 216.423Z" fill="white" stroke="#182F43" stroke-linecap="round" stroke-linejoin="round"/>
<path d="M452.354 217.06C448.48 218.812 444.734 220.833 441.143 223.109C437.9 225.479 438.496 231.303 438.496 232.812C438.496 234.321 429.865 248.351 431.374 253.315C432.883 258.279 436.55 271.436 436.775 274.494C437 277.551 436.338 286.142 436.338 286.142H477.12C477.017 278.503 477.379 270.864 478.205 263.269C479.529 253.567 482.309 250.112 482.309 235.234C482.309 220.356 466.12 217.537 462.03 217.1C458.81 216.853 455.576 216.84 452.354 217.06Z" fill="white" stroke="#182F43" stroke-linecap="round" stroke-linejoin="round"/>
<path d="M431.427 253.315C432.751 257.802 435.928 268.987 436.722 273.315C436.722 271.462 436.722 269.675 436.656 268.193C436.444 261.945 436.656 253.09 442.916 238.636C447.721 227.53 450.488 220.263 451.507 217.457C447.939 219.081 444.493 220.961 441.196 223.083C437.953 225.452 438.548 231.276 438.548 232.785C438.548 234.294 429.918 248.351 431.427 253.315Z" fill="#AA4337" stroke="#182F43" stroke-linecap="round" stroke-linejoin="round"/>
<path d="M398.852 284.381C398.852 284.381 396.033 288.644 394.047 291.357C392.062 294.071 388.859 299.299 391.082 299.524C393.306 299.749 395.781 297.552 398.257 296.307C399.935 295.259 401.234 293.7 401.963 291.86C401.963 291.86 401.222 296.559 402.956 295.566C404.69 294.573 404.69 291.119 404.69 288.882C404.749 286.981 404.912 285.086 405.179 283.203C405.179 283.203 401.923 280.357 398.852 284.381Z" fill="white" stroke="#182F43" stroke-linecap="round" stroke-linejoin="round"/>
<path d="M400.176 289.887C400.176 289.887 388.144 289.887 386.185 291.012C384.226 292.137 377.515 323.733 371.929 336.599C371.929 336.599 367.455 347.784 363.815 353.105C362.492 354.971 356.535 357.301 352.339 358.399C348.143 359.498 346.475 360.358 347.045 361.483C347.614 362.609 356.31 364.554 360.188 365.123C364.067 365.693 366.621 364.554 367.747 364.554C368.872 364.554 370.261 365.957 372.498 365.123C374.735 364.29 373.332 358.399 373.332 355.05C373.332 351.702 377.528 339.67 382.28 334.626C387.032 329.583 396.271 310.298 398.23 304.421C400.189 298.543 400.745 297.154 400.745 297.154" fill="white"/>
<path d="M400.176 289.887C400.176 289.887 388.144 289.887 386.185 291.012C384.226 292.137 377.515 323.733 371.929 336.599C371.929 336.599 367.455 347.784 363.815 353.105C362.492 354.971 356.535 357.301 352.339 358.399C348.143 359.498 346.475 360.358 347.045 361.483C347.614 362.609 356.31 364.554 360.188 365.123C364.067 365.693 366.621 364.554 367.747 364.554C368.872 364.554 370.261 365.957 372.498 365.123C374.735 364.29 373.332 358.399 373.332 355.05C373.332 351.702 377.528 339.67 382.28 334.626C387.032 329.583 396.271 310.298 398.23 304.421C400.189 298.543 400.745 297.154 400.745 297.154" stroke="#182F43" stroke-linecap="round" stroke-linejoin="round"/>
<path d="M397.278 296.639C395.096 297.561 393.247 299.125 391.975 301.123C390.703 303.12 390.069 305.457 390.156 307.824C390.156 316.481 402.877 371.426 402.877 374.47C403.029 377.158 402.556 379.843 401.495 382.317C400.434 384.791 398.814 386.984 396.761 388.726C395.848 389.56 390.54 393.293 391.149 395.013C392.155 397.846 399.263 395.093 400.997 394.352C404.134 393.028 407.615 387.495 411.017 387.733C414.631 387.945 415.081 386.211 415.081 382.637C415.081 379.063 411.11 374.603 410.633 369.507C410.157 364.41 408.502 346.448 410.025 337.858C411.428 329.916 404.399 309.889 404.399 309.889C404.399 309.889 426.001 323.126 445.049 318.506C464.096 313.886 427.285 305.825 421.699 301.748C416.113 297.672 401.858 293.555 397.278 296.639Z" fill="white" stroke="#182F43" stroke-linecap="round" stroke-linejoin="round"/>
<path d="M390.658 296.043C390.658 296.043 400.175 306.394 412.26 311.199L416.456 290.788C416.456 290.788 398.547 287.704 386.237 291.066" fill="white"/>
<path d="M390.658 296.043C390.658 296.043 400.175 306.394 412.26 311.199L416.456 290.788C416.456 290.788 398.547 287.704 386.237 291.066" stroke="#182F43" stroke-linecap="round" stroke-linejoin="round"/>
<path d="M477.12 286.046C477.017 278.407 477.38 270.769 478.206 263.174C479.529 253.471 482.309 250.016 482.309 235.138C482.309 221.28 468.291 217.931 463.05 217.137C461.828 219.133 460.833 221.259 460.085 223.477C459.648 225.635 450.369 244.404 448.172 258.435C446.451 269.646 447.894 281.665 448.542 286.046H436.312L436.881 290.441L413.982 289.435L408.29 312.268C408.29 312.268 420.627 317.563 429.548 321.216C438.469 324.869 456.418 328.284 467.18 324.896C476.048 322.116 482.653 317.324 481.449 307.331C480.546 300.137 479.099 293.021 477.12 286.046Z" fill="#AA4337" stroke="#182F43" stroke-linecap="round" stroke-linejoin="round"/>
<path d="M451.455 217.484L440.27 233.673L441.567 237.339L437.901 241.443L437.252 253.316" stroke="#182F43" stroke-linecap="round" stroke-linejoin="round"/>
<path d="M461.846 223.533L461.197 236.479L456.67 239.285L458.391 242.739L449.549 259.351" stroke="#182F43" stroke-linecap="round" stroke-linejoin="round"/>
<path d="M443.287 178.835C443.287 178.835 440.732 184.58 440.944 186.287C441.156 187.995 440.745 190.007 439.091 190.655C437.436 191.304 435.636 192.601 436.443 194.017C437.021 194.877 437.809 195.575 438.733 196.042C438.733 196.042 437.648 203.137 438.31 205.004C438.972 206.87 440.282 210.417 442.426 210.153C444.571 209.888 449.945 209.438 449.945 209.438C451.086 212.935 451.264 216.675 450.461 220.265C449.137 226.526 444.425 232.35 449.601 233.634C454.776 234.918 457.807 228.247 460.19 223.495C462.572 218.743 463.817 212.522 464.889 208.935C465.961 205.348 467.536 201.655 467.536 201.655C465.21 200.937 463.093 199.665 461.368 197.947C459.643 196.229 458.362 194.117 457.635 191.794C454.644 183.468 454.816 177.789 450.329 176.611C449.068 176.225 447.719 176.231 446.462 176.628C445.205 177.026 444.097 177.795 443.287 178.835Z" fill="white" stroke="#182F43" stroke-linecap="round" stroke-linejoin="round"/>
<path d="M447.207 203.504C447.207 203.504 447.657 207.144 451.747 205.119" stroke="#182F43" stroke-linecap="round" stroke-linejoin="round"/>
<path d="M452.102 172.691C452.102 172.691 447.496 172.387 444.425 172.109C441.354 171.831 440.136 176.08 440.851 178.422C441.566 180.765 442.267 181.07 442.267 181.07C442.267 181.07 446.53 178.595 446.953 180.276C447.377 181.957 443.432 185.279 445.51 188.072C447.589 190.865 450.911 193.049 449.203 195.008C447.496 196.967 448.356 198.807 449.865 198.621C451.374 198.436 453.399 195.577 454.22 198.727C455.041 201.878 451.215 204.313 452.036 205.743C452.857 207.172 460.706 209.012 462.903 207.437C465.101 205.862 470.567 204.326 473.148 195.312C475.73 186.298 473.148 179.878 467.721 174.24C462.294 168.601 453.016 173.009 453.016 173.009L452.102 172.691Z" fill="#182F43" stroke="#FBFBFF" stroke-width="0.5" stroke-linecap="round" stroke-linejoin="round"/>
<path d="M460.495 179.934C461.355 180.349 462.159 180.869 462.891 181.482" stroke="white" stroke-width="0.75" stroke-linecap="round" stroke-linejoin="round"/>
<path d="M447.006 178.501C450.795 177.835 454.686 178.029 458.389 179.07" stroke="white" stroke-width="0.75" stroke-linecap="round" stroke-linejoin="round"/>
<path d="M398.854 284.379L399.502 282.87C400.151 281.361 407.073 280.077 413.917 279.098C424.996 277.523 430.41 275.749 436.829 274.452C444.771 272.837 453.216 270.785 453.216 270.785C453.216 270.785 467.459 274.015 465.129 278.727C462.799 283.439 456.274 284.339 456.274 284.339H402.189C402.312 284.983 402.191 285.649 401.852 286.209C401.512 286.768 400.977 287.182 400.349 287.371" fill="white"/>
<path d="M398.854 284.379L399.502 282.87C400.151 281.361 407.073 280.077 413.917 279.098C424.996 277.523 430.41 275.749 436.829 274.452C444.771 272.837 453.216 270.785 453.216 270.785C453.216 270.785 467.459 274.015 465.129 278.727C462.799 283.439 456.274 284.339 456.274 284.339H402.189C402.312 284.983 402.191 285.649 401.852 286.209C401.512 286.768 400.977 287.182 400.349 287.371" stroke="#182F43" stroke-linecap="round" stroke-linejoin="round"/>
<path d="M462.072 245.107C462.072 245.107 459.265 257.629 457.531 260.859C455.797 264.089 452.144 263.017 452.356 264.962C452.541 266.298 452.906 267.603 453.441 268.841C453.441 268.841 450.794 268.841 450.794 269.926C450.794 271.011 453.812 274.89 457.703 276.822C461.595 278.755 464.388 280.926 466.109 278.768C467.829 276.61 469.563 272.507 469.352 271.647C469.14 270.786 470.861 272.295 472.37 270.323C472.919 269.631 473.32 268.833 473.547 267.979C473.775 267.125 473.825 266.233 473.693 265.359C473.693 263.639 479.292 249.621 479.941 248.324" fill="#AA4337"/>
<path d="M462.072 245.107C462.072 245.107 459.265 257.629 457.531 260.859C455.797 264.089 452.144 263.017 452.356 264.962C452.541 266.298 452.906 267.603 453.441 268.841C453.441 268.841 450.794 268.841 450.794 269.926C450.794 271.011 453.812 274.89 457.703 276.822C461.595 278.755 464.388 280.926 466.109 278.768C467.829 276.61 469.563 272.507 469.352 271.647C469.14 270.786 470.861 272.295 472.37 270.323C472.919 269.631 473.32 268.833 473.547 267.979C473.775 267.125 473.825 266.233 473.693 265.359C473.693 263.639 479.292 249.621 479.941 248.324" stroke="#182F43" stroke-linecap="round" stroke-linejoin="round"/>
<path d="M457.941 267.32C461.66 267.901 465.307 268.873 468.822 270.219" stroke="#182F43" stroke-width="0.75" stroke-linecap="round" stroke-linejoin="round"/>
<path d="M454.684 266.59C454.684 266.59 458.655 273.115 464.836 274.201" stroke="#182F43" stroke-width="0.75" stroke-linecap="round" stroke-linejoin="round"/>
<path d="M470.343 187.675C470.343 187.675 470.767 194.147 465.168 204.287C459.569 214.426 451.786 233.844 457.398 244.407C463.01 254.969 478.325 252.825 482.64 243.335C486.955 233.844 484.149 209.674 479.622 199.535C475.095 189.395 473.15 185.729 473.15 185.729C473.15 185.729 470.502 184.432 470.343 187.675Z" fill="#182F43" stroke="#FBFBFF" stroke-width="0.5" stroke-linecap="round" stroke-linejoin="round"/>
<path d="M472.41 245.798C474.498 245.776 476.514 245.033 478.115 243.693" stroke="white" stroke-width="0.75" stroke-linecap="round" stroke-linejoin="round"/>
<path d="M471.494 191.738C472.669 204.452 471.32 217.272 467.523 229.463C465.101 236.849 465.458 241.892 468.463 244.34" stroke="white" stroke-width="0.75" stroke-linecap="round" stroke-linejoin="round"/>
<path d="M470.833 199.68C470.833 199.68 464.215 216.556 458.92 228.138C453.625 239.72 458.258 247 466.2 248.655" stroke="white" stroke-width="0.75" stroke-linecap="round" stroke-linejoin="round"/>
<path d="M448.623 286.049C448.623 286.049 447.643 297.062 449.682 298.584C451.72 300.106 466.466 304.699 476.155 301.642" stroke="#182F43" stroke-linecap="round" stroke-linejoin="round"/>
<path d="M436.963 290.496L446.123 292.032" stroke="#182F43" stroke-linecap="round" stroke-linejoin="round"/>
<path d="M400.998 394.325C404.135 393.002 407.616 387.469 411.018 387.707C414.632 387.919 415.082 386.185 415.082 382.611C414.973 381.136 414.563 379.699 413.877 378.389C413.785 378.548 413.692 378.693 413.599 378.865C411.494 383.014 407.895 386.211 403.526 387.813C401.726 388.489 399.741 388.489 397.94 387.813L397.517 387.985C397.279 388.237 397.027 388.475 396.762 388.726C395.849 389.56 390.541 393.293 391.15 395.014C392.156 397.82 399.264 395.067 400.998 394.325Z" fill="#AA4337" stroke="#182F43" stroke-linecap="round" stroke-linejoin="round"/>
<path d="M356.165 357.223C354.841 357.699 353.517 358.109 352.339 358.414C348.143 359.539 346.475 360.373 347.045 361.498C347.614 362.623 356.31 364.569 360.188 365.138C364.067 365.707 366.621 364.569 367.747 364.569C368.872 364.569 370.261 365.972 372.498 365.138C374.378 364.423 373.69 360.188 373.425 356.865C370.488 357.808 367.456 358.425 364.384 358.705C358.693 359.155 356.668 357.765 356.165 357.223Z" fill="#AA4337" stroke="#182F43" stroke-linecap="round" stroke-linejoin="round"/>
<path d="M473.03 375.74L472.858 375.608V351.239H476.353V335.832H463.394V351.239H466.902V376.058L435.915 385.933V388.395C435.964 389.104 436.28 389.768 436.8 390.253C437.319 390.738 438.004 391.008 438.715 391.008C439.425 391.008 440.11 390.738 440.63 390.253C441.149 389.768 441.465 389.104 441.514 388.395V387.971L467.431 384.953V388.672C467.431 389.322 467.689 389.945 468.149 390.404C468.608 390.863 469.231 391.121 469.88 391.121C470.53 391.121 471.152 390.863 471.612 390.404C472.071 389.945 472.329 389.322 472.329 388.672V384.834L499.292 387.971V388.328C499.341 389.038 499.657 389.702 500.176 390.187C500.696 390.672 501.38 390.942 502.091 390.942C502.802 390.942 503.487 390.672 504.006 390.187C504.526 389.702 504.842 389.038 504.891 388.328V385.866L473.03 375.74Z" fill="#182F43" stroke="#182F43" stroke-linecap="round" stroke-linejoin="round"/>
<path d="M508.226 320.793H434.763C431.839 320.793 429.469 323.163 429.469 326.088V333.368C429.469 336.292 431.839 338.662 434.763 338.662H508.226C511.151 338.662 513.521 336.292 513.521 333.368V326.088C513.521 323.163 511.151 320.793 508.226 320.793Z" fill="#182F43" stroke="#182F43" stroke-linecap="round" stroke-linejoin="round"/>
<path d="M360.309 281.113H396.656V239.127H360.309V281.113Z" fill="white" stroke="#182F43" stroke-linecap="round" stroke-linejoin="round"/>
<path d="M399.477 282.996H358.431V245.086H377.862L399.477 282.996Z" fill="white" stroke="#182F43" stroke-linecap="round" stroke-linejoin="round"/>
<path d="M349.629 285.111H373.111C373.536 285.074 373.932 284.878 374.22 284.563C374.508 284.249 374.668 283.837 374.668 283.41C374.668 282.983 374.508 282.572 374.22 282.257C373.932 281.942 373.536 281.747 373.111 281.709H349.629C349.068 281.706 348.514 281.587 348.001 281.359C347.489 281.131 347.029 280.8 346.651 280.386C346.191 279.884 345.868 279.272 345.712 278.609C345.557 277.946 345.575 277.254 345.764 276.6L354.09 246.752C354.211 246.318 354.155 245.854 353.934 245.462C353.713 245.07 353.345 244.781 352.912 244.66C352.478 244.539 352.014 244.595 351.622 244.816C351.23 245.037 350.941 245.405 350.82 245.838L342.481 275.687C342.175 276.789 342.128 277.947 342.344 279.071C342.559 280.194 343.031 281.253 343.723 282.164C344.415 283.075 345.308 283.813 346.332 284.322C347.357 284.831 348.485 285.097 349.629 285.098V285.111Z" fill="white" stroke="#182F43" stroke-linecap="round" stroke-linejoin="round"/>
<path d="M360.746 276.275L366.068 275.637L357.822 206.889L352.499 207.527L360.746 276.275Z" fill="white" stroke="#182F43" stroke-linecap="round" stroke-linejoin="round"/>
<path d="M352.539 207.492C347.328 230.676 350.234 254.946 360.773 276.243L352.539 207.492Z" fill="white" stroke="#182F43" stroke-linecap="round" stroke-linejoin="round"/>
<path d="M544.391 284.951H329.627V406.066H544.391V284.951Z" fill="#182F43"/>
<path opacity="0.72" d="M544.391 284.953H329.627V406.068H544.391V284.953Z" fill="white"/>
<path d="M544.391 284.951H329.627V406.066H544.391V284.951Z" stroke="#182F43" stroke-linecap="round" stroke-linejoin="round"/>
<path d="M544.231 287.865H329.732V291.214H544.231V287.865Z" fill="#182F43"/>
<path d="M545.953 282.967H324.941V288.261H545.953V282.967Z" fill="white" stroke="#182F43" stroke-linecap="round" stroke-linejoin="round"/>
<path d="M192.919 272.877L189.61 275.524C189.61 275.524 180.185 280.488 178.359 281.971C176.532 283.453 177.869 284.949 178.862 286.775C179.854 288.602 184.646 290.574 186.301 290.574C187.955 290.574 195.566 286.934 196.731 284.79C197.896 282.646 199.047 275.021 199.047 275.021L192.919 272.877Z" fill="white" stroke="#182F43" stroke-linecap="round" stroke-linejoin="round"/>
<path d="M191.21 280.314L190.72 284.285C190.72 284.285 183.929 288.256 184.591 289.421C185.253 290.586 185.915 290.242 189.886 289.09C193.857 287.939 196.504 285.781 196.676 284.788" stroke="#182F43" stroke-linecap="round" stroke-linejoin="round"/>
<path d="M183.984 279.494L185.639 287.264" stroke="#182F43" stroke-linecap="round" stroke-linejoin="round"/>
<path d="M180.343 281.309L183.824 289.754" stroke="#182F43" stroke-linecap="round" stroke-linejoin="round"/>
<path d="M178.86 282.635C178.86 282.635 179.681 287.268 181.667 288.763" stroke="#182F43" stroke-linecap="round" stroke-linejoin="round"/>
<path d="M194.083 267.582L192.76 273.538L199.047 275.021L201.853 268.403L194.083 267.582Z" fill="#AA4337" stroke="#182F43" stroke-linecap="round" stroke-linejoin="round"/>
<path d="M184.592 200.484C184.051 204.37 184.226 208.322 185.108 212.145C186.591 217.281 192.878 242.761 193.712 244.575C194.546 246.388 194.374 249.208 193.871 252.186C193.368 255.164 195.367 262.285 195.367 262.775C195.367 263.265 192.547 265.264 192.388 267.249C192.23 269.235 195.526 270.558 198.504 270.889C201.482 271.22 203.468 270.889 205.294 262.616C207.121 254.343 201.813 243.251 198.504 230.187C195.195 217.122 190.734 207.512 190.072 204.865C189.41 202.218 185.598 197.426 184.592 200.484Z" fill="#AA4337" stroke="#182F43" stroke-linecap="round" stroke-linejoin="round"/>
<path d="M219.233 381.141C219.233 381.141 222.543 385.548 221.881 386.872C221.219 388.196 214.376 390.181 213.052 391.293C211.104 393.232 208.665 394.605 205.997 395.264C201.801 396.363 191.648 398.123 192.76 396.363C193.872 394.602 206.434 385.548 206.434 385.548C210.621 383.859 214.894 382.388 219.233 381.141Z" fill="white" stroke="#182F43" stroke-linecap="round" stroke-linejoin="round"/>
<path d="M221.046 385.877C221.046 385.877 213.62 388.524 211.238 390.377C209.829 391.486 208.323 392.465 206.737 393.303" stroke="#182F43" stroke-width="0.75" stroke-linecap="round" stroke-linejoin="round"/>
<path d="M212.827 367.24L219.234 381.139C219.234 381.139 219.009 382.025 215.038 383.786C212.301 384.891 209.385 385.488 206.434 385.546L203.562 375.182L212.827 367.24Z" fill="#182F43" stroke="#182F43" stroke-linecap="round" stroke-linejoin="round"/>
<path d="M202.025 264.218C202.025 264.218 196.942 267.302 196.73 268.625C196.806 270.563 197.099 272.485 197.604 274.357C197.604 274.357 187.239 295.985 184.155 301.492C181.071 306.998 176.65 317.813 181.058 324.656C185.466 331.499 198.716 363.704 198.716 363.704L194.295 388.416L205.546 391.289C205.546 391.289 212.389 372.758 214.811 365.914C217.234 359.071 222.978 341.427 223.865 335.245C224.752 329.064 225.401 320.248 225.626 319.586C225.851 318.924 245.044 290.903 247.691 284.509C250.338 278.116 250.113 264.654 248.79 261.782C247.466 258.91 202.025 264.218 202.025 264.218Z" fill="#182F43" stroke="white" stroke-width="0.5" stroke-linecap="round" stroke-linejoin="round"/>
<path d="M215.261 271.711L209.305 274.583L215.698 278.766L205.771 277.442L216.135 281.413" stroke="white" stroke-width="0.75" stroke-linecap="round" stroke-linejoin="round"/>
<path d="M231.582 274.586L219.444 279.431C219.444 279.431 234.666 276.558 241.51 276.783" stroke="#182F43" stroke-linecap="round" stroke-linejoin="round"/>
<path d="M217.684 282.527C217.684 282.527 202.461 315.844 202.461 322.012C202.461 328.18 200.251 362.172 200.251 362.172" stroke="white" stroke-width="0.75" stroke-linecap="round" stroke-linejoin="round"/>
<path d="M205.428 188.362C205.428 188.362 185.083 198.396 184.633 200.487C184.183 202.578 186.579 208.561 186.579 208.561C186.579 208.561 199.141 249.423 200.186 252.719C201.232 256.014 201.682 256.756 200.636 258.397C199.591 260.038 198.241 263.043 199.736 264.684C201.232 266.326 211.265 269.33 217.698 269.33C224.131 269.33 235.66 267.385 243.139 265.585C250.618 263.784 250.327 260.502 250.022 257.06C249.718 253.619 245.389 194.65 245.389 192.399C245.389 190.149 229.505 186.867 224.131 186.562C218.757 186.258 207.228 186.562 205.428 188.362Z" fill="#AA4337" stroke="#182F43" stroke-linecap="round" stroke-linejoin="round"/>
<path d="M207.624 198.553L212.773 213.114L221.046 198.355C221.046 198.355 218.809 191.207 212.773 191.657C206.737 192.107 207.624 198.553 207.624 198.553Z" fill="#182F43" stroke="#182F43" stroke-linecap="round" stroke-linejoin="round"/>
<path d="M212.774 213.086C212.774 213.086 210.126 253.55 210.126 255.562C210.126 257.574 208.114 264.06 208.114 264.06L212.588 269.196C212.588 269.196 219.736 264.06 220.861 260.261C221.986 256.462 212.774 213.086 212.774 213.086Z" fill="#182F43" stroke="#182F43" stroke-linecap="round" stroke-linejoin="round"/>
<path d="M205.428 187.011C205.428 187.011 204.382 193.298 204.978 195.999C205.573 198.699 203.032 204.827 204.237 205.569C205.441 206.31 209.465 198.236 209.465 198.236L213.965 205.873L216.957 197.785C216.957 197.785 221.14 206.019 222.344 205.277C223.549 204.536 221.59 199.44 223.39 196.899C224.333 195.322 224.938 193.566 225.166 191.743C225.394 189.92 225.24 188.07 224.714 186.309C223.655 182.272 219.326 182.272 215.726 182.709C212.126 183.146 207.969 183.119 205.428 187.011Z" fill="#AA4337" stroke="#182F43" stroke-linecap="round" stroke-linejoin="round"/>
<path d="M205.428 188.362C205.428 188.362 210.219 194.981 211.119 198.091C212.02 201.202 213.356 207.82 213.965 205.874C214.574 203.929 214.257 196.45 217.857 192.254C221.457 188.058 220.504 185.066 220.504 185.066C220.504 185.066 215.911 190.745 205.428 188.362Z" fill="white" stroke="#182F43" stroke-linecap="round" stroke-linejoin="round"/>
<path d="M195.857 176.395C195.857 176.395 201.682 187.911 207.678 190.956C213.674 194 219.948 190.81 221.589 186.177C223.231 181.544 221.735 175.588 221.735 175.588C221.735 175.588 225.031 173.642 225.481 171.101C225.931 168.559 226.381 167.659 222.939 165.713C221.618 164.868 220.211 164.163 218.743 163.609C218.743 163.609 218.598 158.526 215.606 156.885C212.615 155.243 206.341 156.13 202.582 160.167C198.822 164.204 195.857 176.395 195.857 176.395Z" fill="white" stroke="#182F43" stroke-linecap="round" stroke-linejoin="round"/>
<path d="M205.771 175.191C206.813 176.677 207.667 178.287 208.312 179.983C208.616 181.479 207.412 183.279 209.212 183.279C209.743 183.279 210.268 183.172 210.757 182.965C211.246 182.758 211.688 182.455 212.058 182.074" stroke="#182F43" stroke-linecap="round" stroke-linejoin="round"/>
<path d="M209.16 170.651C209.16 170.651 209.915 168.004 213.409 168.52" stroke="#182F43" stroke-linecap="round" stroke-linejoin="round"/>
<path d="M203.402 173.022C203.402 173.022 200.755 172.281 198.267 175.405" stroke="#182F43" stroke-linecap="round" stroke-linejoin="round"/>
<path d="M210.404 183.292L211.41 186.27C212.847 185.988 214.173 185.303 215.235 184.295C216.297 183.287 217.05 181.998 217.406 180.578" stroke="#182F43" stroke-linecap="round" stroke-linejoin="round"/>
<path d="M206.472 178.263C206.472 179.077 206.231 179.873 205.779 180.55C205.326 181.227 204.683 181.755 203.931 182.066C203.179 182.378 202.351 182.459 201.553 182.301C200.754 182.142 200.021 181.75 199.445 181.174C198.869 180.598 198.477 179.865 198.318 179.066C198.16 178.268 198.241 177.44 198.553 176.688C198.864 175.935 199.392 175.293 200.069 174.84C200.746 174.388 201.542 174.146 202.356 174.146C202.896 174.146 203.432 174.253 203.931 174.46C204.431 174.667 204.884 174.97 205.267 175.352C205.649 175.734 205.952 176.188 206.159 176.688C206.366 177.187 206.472 177.722 206.472 178.263V178.263Z" stroke="#182F43" stroke-width="0.5" stroke-linecap="round" stroke-linejoin="round"/>
<path d="M216.797 172.65L221.297 168.613" stroke="#182F43" stroke-width="0.5" stroke-linecap="round" stroke-linejoin="round"/>
<path d="M216.956 173.917C216.956 174.732 216.714 175.527 216.262 176.204C215.81 176.881 215.167 177.409 214.415 177.721C213.662 178.032 212.835 178.114 212.036 177.955C211.238 177.796 210.504 177.404 209.928 176.828C209.353 176.253 208.961 175.519 208.802 174.72C208.643 173.922 208.724 173.094 209.036 172.342C209.348 171.59 209.875 170.947 210.552 170.495C211.229 170.042 212.025 169.801 212.839 169.801C213.931 169.801 214.978 170.234 215.75 171.007C216.522 171.779 216.956 172.826 216.956 173.917V173.917Z" stroke="#182F43" stroke-width="0.5" stroke-linecap="round" stroke-linejoin="round"/>
<path d="M214.057 173.456C214.269 173.92 214.19 174.423 213.872 174.568C213.554 174.714 213.131 174.436 212.919 173.959C212.707 173.483 212.787 172.993 213.104 172.847C213.422 172.702 213.846 172.98 214.057 173.456Z" fill="#182F43"/>
<path d="M204.844 177.151C205.056 177.628 204.977 178.131 204.659 178.263C204.341 178.395 203.918 178.144 203.706 177.667C203.494 177.191 203.574 176.701 203.891 176.556C204.209 176.41 204.633 176.675 204.844 177.151Z" fill="#182F43"/>
<path d="M205.771 176.686C205.771 176.686 207.412 174.594 208.908 175.495" stroke="#182F43" stroke-width="0.5" stroke-linecap="round" stroke-linejoin="round"/>
<path d="M208.272 162.947C208.272 162.947 203.19 168.48 199.298 173.536C197.891 175.541 196.338 177.439 194.652 179.215C193.728 177.509 192.928 175.74 192.256 173.92C191.781 172.495 191.233 171.094 190.615 169.724L189.291 172.716C189.291 172.716 185.4 158.156 189.596 151.471C193.792 144.787 203.269 143.026 210.457 145.568C217.644 148.109 218.623 154.767 219.974 158.208C221.324 161.65 222.515 165.978 222.515 165.978L220.569 170.174C220.569 170.174 216.982 167.037 215.182 165.383C214.061 164.314 213.236 162.973 212.786 161.491C212.786 161.491 209.795 165.092 208.895 166.137C208.412 166.719 207.793 167.173 207.094 167.461L208.272 162.947Z" fill="#182F43" stroke="#FBFBFF" stroke-width="0.5" stroke-linecap="round" stroke-linejoin="round"/>
<path d="M209.662 148.824C208.037 155.505 204.66 161.632 199.88 166.574" stroke="white" stroke-width="0.75" stroke-linecap="round" stroke-linejoin="round"/>
<path d="M211.476 149.908C211.824 153.747 211.201 157.612 209.662 161.146" stroke="white" stroke-width="0.75" stroke-linecap="round" stroke-linejoin="round"/>
<path d="M244.157 190.941C244.157 190.941 249.928 192.45 251.94 195.217C253.952 197.983 267.507 236.144 268.01 242.67C268.513 249.196 266.501 262.75 267.004 264.259C267.507 265.768 269.016 267.78 267.507 268.534C266.134 269.381 264.867 270.39 263.734 271.539C260.458 271.379 257.193 271.043 253.952 270.533C252.443 270.03 250.431 266.774 251.94 264.762C253.033 263.409 253.652 261.735 253.701 259.997C253.701 258.991 250.564 246.641 250.564 244.113C250.573 241.813 250.449 239.515 250.193 237.23C249.309 233.55 248.222 229.922 246.937 226.363C242.908 219.048 240.907 210.791 241.139 202.444" fill="#AA4337"/>
<path d="M244.157 190.941C244.157 190.941 249.928 192.45 251.94 195.217C253.952 197.983 267.507 236.144 268.01 242.67C268.513 249.196 266.501 262.75 267.004 264.259C267.507 265.768 269.016 267.78 267.507 268.534C266.134 269.381 264.867 270.39 263.734 271.539C260.458 271.379 257.193 271.043 253.952 270.533C252.443 270.03 250.431 266.774 251.94 264.762C253.033 263.409 253.652 261.735 253.701 259.997C253.701 258.991 250.564 246.641 250.564 244.113C250.573 241.813 250.449 239.515 250.193 237.23C249.309 233.55 248.222 229.922 246.937 226.363C242.908 219.048 240.907 210.791 241.139 202.444" stroke="#182F43" stroke-linecap="round" stroke-linejoin="round"/>
<path d="M254.005 270.535L253.502 275.314L261.788 276.558L263.787 271.541L254.005 270.535Z" fill="#AA4337" stroke="#182F43" stroke-linecap="round" stroke-linejoin="round"/>
<path d="M253.502 275.312C253.502 275.312 243.958 279.575 243.204 280.832C242.449 282.09 240.94 288.112 239.934 288.867C238.928 289.621 237.936 290.627 240.689 290.376C243.442 290.124 244.21 288.615 244.21 288.615C244.079 289.542 244.079 290.482 244.21 291.408C246.278 291.659 248.36 291.787 250.444 291.792C251.068 291.874 251.7 291.874 252.324 291.792C252.324 291.792 251.821 292.997 252.76 293.394C253.7 293.791 253.647 292.891 254.256 292.07C254.989 290.705 255.613 289.284 256.123 287.821C256.429 287.076 256.651 286.299 256.784 285.505C258.295 284.688 259.674 283.649 260.875 282.421C262.198 280.819 261.483 276.186 261.483 276.186L253.502 275.312Z" fill="white" stroke="#182F43" stroke-linecap="round" stroke-linejoin="round"/>
<path d="M244.211 288.615L244.714 282.301" stroke="#182F43" stroke-linecap="round" stroke-linejoin="round"/>
<path d="M246.7 291.739L247.521 282.805" stroke="#182F43" stroke-linecap="round" stroke-linejoin="round"/>
<path d="M249.838 291.566L251.162 283.293" stroke="#182F43" stroke-linecap="round" stroke-linejoin="round"/>
<path d="M252.376 291.739C252.376 291.739 253.475 284.618 253.7 283.797" stroke="#182F43" stroke-linecap="round" stroke-linejoin="round"/>
<path d="M194.295 388.418C194.295 388.418 190.549 391.727 189.887 392.164C189.226 392.601 177.088 399.232 177.313 400.993C177.538 402.753 190.112 401.88 197.168 400.106C204.223 398.332 204.673 397.684 204.884 396.585C205.096 395.486 205.546 391.29 205.546 391.29L194.295 388.418Z" fill="white" stroke="#182F43" stroke-linecap="round" stroke-linejoin="round"/>
<path d="M179.708 400.188C179.708 400.188 196.399 399.923 203.031 395.688" stroke="#182F43" stroke-width="0.75" stroke-linecap="round" stroke-linejoin="round"/>
<path d="M104.458 390.542C104.458 390.542 118.542 394.341 121.904 397.253C125.266 400.165 115.193 401.051 108.932 400.826C102.671 400.601 102.009 398.815 97.5354 398.815C93.0614 398.815 89.0375 400.826 88.3624 396.803C87.6874 392.779 93.2864 391.217 97.0853 390.317C99.5252 389.797 102.055 389.874 104.458 390.542Z" fill="white" stroke="#182F43" stroke-linecap="round" stroke-linejoin="round"/>
<path d="M100.396 397.016C100.396 397.016 107.293 401.516 119.484 398.869" stroke="#182F43" stroke-width="0.75" stroke-linecap="round" stroke-linejoin="round"/>
<path d="M90.3752 392.777C93.795 394.994 97.3844 396.937 101.11 398.588C106.034 400.6 109.608 401.236 107.371 403.062C105.134 404.889 104.459 405.074 98.8731 406.186C93.2872 407.298 82.1023 404.399 80.9905 404.399C79.8786 404.399 78.7535 405.723 75.6958 404.624C72.6382 403.526 72.122 401.977 73.2338 398.363C74.3457 394.75 88.5883 391.652 90.3752 392.777Z" fill="white" stroke="#182F43" stroke-linecap="round" stroke-linejoin="round"/>
<path d="M78.9395 402.047C87.3885 405.036 96.56 405.314 105.174 402.841" stroke="#182F43" stroke-width="0.75" stroke-linecap="round" stroke-linejoin="round"/>
<path d="M121.454 237.859L124.102 266.027C124.102 266.027 120.29 306.491 115.604 319.675C110.918 332.858 106.656 347.392 105.094 352.766C103.532 358.14 101.97 379.147 103.307 383.382C104.061 385.383 104.438 387.506 104.419 389.643V390.543C104.419 390.543 105.319 391.218 102.182 393.005C99.9385 394.182 97.5279 395.008 95.0342 395.454L90.3352 392.807C90.3352 392.807 83.6375 397.718 81.1755 399.068C78.5921 400.133 75.8901 400.884 73.1276 401.305C72.1002 399.685 71.4991 397.832 71.3804 395.917V387.208C71.3804 384.071 69.1434 368.677 69.3684 359.265C69.5935 349.854 71.3804 339.583 73.1673 334.897C74.9543 330.211 80.9902 315.889 80.9902 315.889C80.6978 309.824 79.7209 303.812 78.0781 297.967C75.1793 286.57 74.5042 280.759 70.7053 268.462C66.9064 256.166 74.5042 238.018 74.5042 238.018C74.5042 238.018 92.1618 241.142 101.785 240.666C108.408 240.278 114.987 239.34 121.454 237.859Z" fill="#182F43" stroke="white" stroke-width="0.5" stroke-linecap="round" stroke-linejoin="round"/>
<path d="M87.9648 262.002C88.9422 263.734 90.0624 265.381 91.3137 266.926" stroke="white" stroke-width="0.75" stroke-linecap="round" stroke-linejoin="round"/>
<path d="M99.998 244.796L107.371 245.021L107.146 243.221" stroke="white" stroke-width="0.75" stroke-linecap="round" stroke-linejoin="round"/>
<path d="M110.059 243.695V245.482C110.059 245.482 116.306 247.057 121.23 244.37" stroke="white" stroke-width="0.75" stroke-linecap="round" stroke-linejoin="round"/>
<path d="M117.206 247.666L115.419 254.602L118.318 258.573C118.318 258.573 114.082 265.946 114.082 266.621" stroke="white" stroke-width="0.75" stroke-linecap="round" stroke-linejoin="round"/>
<path d="M118.544 268.039L111.171 274.141C111.171 274.141 106.697 312.143 104.235 321.978C101.773 331.813 92.6133 363.779 91.5014 370.953C90.8778 374.427 90.436 377.931 90.1777 381.45C90.1777 382.125 91.5014 384.587 91.5014 385.924V391.073" stroke="white" stroke-width="0.5" stroke-linecap="round" stroke-linejoin="round"/>
<path d="M96.6375 241.885C96.6375 241.885 110.059 243.672 116.095 243.208C122.131 242.745 123.018 240.31 123.693 238.073C124.368 235.836 115.645 182.638 115.195 179.501C114.745 176.364 115.42 171.228 111.224 169.441C107.028 167.654 97.9876 170.765 96.4654 176.827C94.9432 182.889 99.8275 217.953 98.4773 225.551C97.5792 230.96 96.9651 236.412 96.6375 241.885Z" fill="white" stroke="#182F43" stroke-linecap="round" stroke-linejoin="round"/>
<path d="M108.26 179.963L111.622 185.999L112.734 236.072L116.758 245.682L120.107 233.835L113.634 185.548L114.521 178.401L111.847 172.59L108.26 179.963Z" fill="#182F43" stroke="#182F43" stroke-linecap="round" stroke-linejoin="round"/>
<path d="M112.731 177.5L116.755 184.436L114.743 171.689L110.719 174.151L112.731 177.5Z" fill="white" stroke="#182F43" stroke-linecap="round" stroke-linejoin="round"/>
<path d="M102.897 157.831L101.785 162.967L110.945 179.287C110.945 179.287 113.685 173.198 114.744 171.689C115.803 170.181 120.038 163.549 120.038 163.549C120.038 163.549 113.248 164.092 112.096 160.068C110.945 156.044 112.096 150.458 107.848 150.008C103.599 149.558 102.897 157.831 102.897 157.831Z" fill="white" stroke="#182F43" stroke-linecap="round" stroke-linejoin="round"/>
<path d="M107.345 154.669L107.782 156.178C107.542 156.921 107.472 157.709 107.577 158.484C107.682 159.258 107.96 159.999 108.391 160.651C109.873 162.544 118.199 167.111 121.839 166.039C125.479 164.967 126.591 154.404 126.591 154.404C126.591 154.404 130.072 154.324 129.715 152.326C129.357 150.327 127.332 148.143 127.067 145.866C126.803 143.59 128.087 143.007 127.557 140.373C127.222 137.752 125.861 135.372 123.772 133.755C121.363 131.902 108.192 137.845 104.287 142.014C100.383 146.184 99.5751 150.605 100.541 153.12C101.508 155.635 107.345 154.669 107.345 154.669Z" fill="white" stroke="#182F43" stroke-linecap="round" stroke-linejoin="round"/>
<path d="M124.182 146.869C124.182 147.689 123.825 148.325 123.494 148.311C123.163 148.298 122.951 147.61 123.004 146.802C123.057 145.995 123.362 145.346 123.692 145.36C124.023 145.373 124.235 146.061 124.182 146.869Z" fill="#182F43"/>
<path d="M125.108 143.097C125.108 143.097 123.44 141.561 121.746 144.076" stroke="#182F43" stroke-linecap="round" stroke-linejoin="round"/>
<path d="M122.049 157.66C121.224 157.436 120.503 156.93 120.011 156.23" stroke="#182F43" stroke-linecap="round" stroke-linejoin="round"/>
<path d="M108.973 145.111L108.536 149.201L111.117 148.446C111.117 148.446 109.794 151.65 111.62 150.167C113.447 148.685 116.028 143.747 116.835 143.284C117.643 142.821 122.13 138.466 125.254 135.461C128.378 132.457 129.701 128.353 128.643 126.328C127.584 124.303 114.771 115.474 103.069 121.682C91.3683 127.89 88.2047 136.97 89.4357 141.974C90.6667 146.977 100.025 160.055 101.759 160.253C103.493 160.452 107.345 154.668 107.345 154.668C107.345 154.668 102.302 153.344 103.374 151.186C104.446 149.029 108.973 145.111 108.973 145.111Z" fill="#182F43" stroke="white" stroke-width="0.5" stroke-linecap="round" stroke-linejoin="round"/>
<path d="M101.336 146.223C99.8057 147.31 98.195 148.279 96.5176 149.121" stroke="white" stroke-width="0.75" stroke-linecap="round" stroke-linejoin="round"/>
<path d="M122.21 124.633C117.5 131.092 112.132 137.045 106.193 142.396" stroke="white" stroke-width="0.75" stroke-linecap="round" stroke-linejoin="round"/>
<path d="M97.8002 142.887C97.2972 143.35 96.781 143.827 96.2383 144.303" stroke="white" stroke-width="0.75" stroke-linecap="round" stroke-linejoin="round"/>
<path d="M112.561 125.189C109.109 130.724 105.017 135.833 100.37 140.412" stroke="white" stroke-width="0.75" stroke-linecap="round" stroke-linejoin="round"/>
<path d="M101.334 161.18L112.731 177.5L104.458 185.773L98.6475 163.417L101.334 161.18Z" fill="white" stroke="#182F43" stroke-linecap="round" stroke-linejoin="round"/>
<path d="M95.5243 164.768L79.8786 169.903C79.8786 169.903 67.5818 228.475 66.642 230.037C65.7022 231.599 49.6595 260.481 51.6715 263.565C53.6834 266.65 72.85 276.987 74.4648 276.312C76.0797 275.637 87.4367 253.956 94.3197 247.695C101.203 241.434 108.258 233.611 109.145 224.901L103.109 199.183L102.434 183.087L95.5243 164.768Z" fill="#FFB700"/>
<path d="M95.5243 164.768L79.8786 169.903C79.8786 169.903 67.5818 228.475 66.642 230.037C65.7022 231.599 49.6595 260.481 51.6715 263.565C53.6834 266.65 72.85 276.987 74.4648 276.312C76.0797 275.637 87.4367 253.956 94.3197 247.695C101.203 241.434 108.258 233.611 109.145 224.901L103.109 199.183L102.434 183.087L95.5243 164.768Z" fill="black" fill-opacity="0.15"/>
<path d="M95.5243 164.768L79.8786 169.903C79.8786 169.903 67.5818 228.475 66.642 230.037C65.7022 231.599 49.6595 260.481 51.6715 263.565C53.6834 266.65 72.85 276.987 74.4648 276.312C76.0797 275.637 87.4367 253.956 94.3197 247.695C101.203 241.434 108.258 233.611 109.145 224.901L103.109 199.183L102.434 183.087L95.5243 164.768Z" stroke="#182F43" stroke-linecap="round" stroke-linejoin="round"/>
<path d="M99.9975 163.418L95.5235 164.768L94.3984 186.675L102.009 190.924L97.5355 197.621L109.157 224.902L104.458 182.651L99.9975 163.418Z" fill="#FFB700"/>
<path d="M99.9975 163.418L95.5235 164.768L94.3984 186.675L102.009 190.924L97.5355 197.621L109.157 224.902L104.458 182.651L99.9975 163.418Z" fill="black" fill-opacity="0.05"/>
<path d="M99.9975 163.418L95.5235 164.768L94.3984 186.675L102.009 190.924L97.5355 197.621L109.157 224.902L104.458 182.651L99.9975 163.418Z" stroke="#182F43" stroke-linecap="round" stroke-linejoin="round"/>
<path d="M85.53 257.949L67.6738 273.489C67.6738 273.489 69.4343 275.607 74.5039 276.308C74.5039 276.308 82.4459 265.454 85.53 257.949Z" fill="#FFB700" stroke="#182F43" stroke-linecap="round" stroke-linejoin="round"/>
<path d="M88.3621 245.021C91.3548 245.073 94.3423 245.294 97.31 245.683C98.8719 246.133 104.908 252.394 104.908 252.394C104.908 252.394 104.908 253.069 102.671 253.718C100.434 254.367 96.4099 251.481 96.4099 251.481L87.7002 259.754L82.3262 253.056L88.3621 245.021Z" fill="white" stroke="#182F43" stroke-linecap="round" stroke-linejoin="round"/>
<path d="M87.7023 242.559L89.7143 245.232L82.3283 253.055L81.4414 250.156L87.7023 242.559Z" fill="white" stroke="#182F43" stroke-linecap="round" stroke-linejoin="round"/>
<path d="M93.2596 166.555C93.2596 166.555 72.2399 166.555 70.678 168.342C69.116 170.129 52.5703 220.203 52.5703 223.101C52.5703 226 80.9628 252.619 80.9628 252.619L89.0106 242.784L72.9414 217.516L85.6882 190.023" fill="#FFB700"/>
<path d="M93.2596 166.555C93.2596 166.555 72.2399 166.555 70.678 168.342C69.116 170.129 52.5703 220.203 52.5703 223.101C52.5703 226 80.9628 252.619 80.9628 252.619L89.0106 242.784L72.9414 217.516L85.6882 190.023" fill="black" fill-opacity="0.15"/>
<path d="M93.2596 166.555C93.2596 166.555 72.2399 166.555 70.678 168.342C69.116 170.129 52.5703 220.203 52.5703 223.101C52.5703 226 80.9628 252.619 80.9628 252.619L89.0106 242.784L72.9414 217.516L85.6882 190.023" stroke="#182F43" stroke-linecap="round" stroke-linejoin="round"/>
</svg>
