<svg width="380" height="321" viewBox="0 0 380 321" fill="none" xmlns="http://www.w3.org/2000/svg">
<path d="M378.172 209.426H6.73242V212.811H378.172V209.426Z" fill="#182F43"/>
<path d="M267.878 168.117C268.608 168.306 269.361 168.387 270.114 168.357C270.114 168.357 269.775 167.359 269.745 167.259C269.395 166.54 268.297 165.342 267.408 165.461C267.26 165.484 267.117 165.538 266.991 165.62C266.865 165.702 266.758 165.81 266.676 165.936C266.595 166.063 266.542 166.205 266.52 166.354C266.498 166.503 266.508 166.655 266.55 166.799C266.662 167.102 266.839 167.377 267.069 167.605C267.298 167.832 267.574 168.007 267.878 168.117Z" fill="#182F43"/>
<path d="M288.637 162.696C287.738 162.596 286.64 163.824 286.35 164.553C286.35 164.623 285.991 165.662 286.011 165.662L285.472 166.301C285.112 166.73 284.723 167.219 284.333 167.778C283.906 168.382 283.513 169.008 283.155 169.656C282.757 170.377 282.423 171.132 282.157 171.912C282.157 171.643 282.157 170.914 282.157 170.854C282.047 170.055 281.378 168.567 280.499 168.407C280.352 168.383 280.201 168.391 280.056 168.429C279.912 168.468 279.777 168.536 279.661 168.631C279.545 168.725 279.45 168.843 279.383 168.977C279.316 169.11 279.278 169.257 279.271 169.406C279.28 169.73 279.36 170.047 279.507 170.336C279.654 170.624 279.863 170.876 280.12 171.073C280.735 171.481 281.408 171.794 282.117 172.002C281.859 172.802 281.658 173.62 281.518 174.448C281.438 174.928 281.358 175.447 281.298 175.906C281.298 175.677 281.298 175.477 281.298 175.447C281.188 174.648 280.519 173.17 279.64 173.011C279.493 172.988 279.342 172.997 279.197 173.036C279.053 173.075 278.918 173.143 278.802 173.237C278.685 173.331 278.59 173.448 278.521 173.581C278.452 173.714 278.412 173.86 278.402 174.009C278.416 174.333 278.5 174.649 278.648 174.937C278.797 175.225 279.006 175.477 279.261 175.677C279.878 176.077 280.551 176.383 281.258 176.585C281.258 176.765 281.208 176.955 281.188 177.144C281.078 178.053 280.978 178.952 280.849 179.83C280.849 180.15 280.749 180.449 280.689 180.759C280.697 180.626 280.697 180.492 280.689 180.359C280.589 179.561 279.92 178.073 279.031 177.913C278.884 177.889 278.733 177.896 278.588 177.935C278.444 177.973 278.309 178.042 278.193 178.136C278.077 178.231 277.982 178.349 277.915 178.482C277.848 178.616 277.81 178.762 277.803 178.912C277.816 179.235 277.9 179.552 278.048 179.84C278.197 180.128 278.406 180.38 278.662 180.579C279.244 180.973 279.884 181.273 280.559 181.468C280.499 181.777 280.429 182.087 280.349 182.386C280.307 182.589 280.253 182.789 280.19 182.986C280.12 183.185 280.06 183.385 279.99 183.585C279.86 183.954 279.72 184.343 279.581 184.703L279.291 185.422C279.341 185.112 279.421 184.513 279.421 184.423C279.417 183.721 279.227 183.032 278.872 182.426C278.881 182.347 278.881 182.266 278.872 182.187C278.853 182.039 278.804 181.896 278.727 181.769C278.65 181.641 278.546 181.532 278.424 181.447C278.301 181.362 278.162 181.304 278.016 181.277C277.869 181.249 277.719 181.253 277.574 181.288C276.705 181.518 276.146 183.045 276.106 183.844C276.106 183.894 276.106 184.413 276.166 184.733C276.116 184.553 276.076 184.363 276.026 184.174C275.936 183.784 275.836 183.405 275.726 182.995L275.547 182.396C275.487 182.197 275.407 181.997 275.337 181.787C275.167 181.318 274.968 180.849 274.758 180.379C275.458 180.235 276.132 179.983 276.755 179.631C277.027 179.452 277.257 179.217 277.43 178.941C277.602 178.666 277.712 178.356 277.753 178.033C277.758 177.883 277.731 177.734 277.674 177.595C277.618 177.457 277.532 177.332 277.424 177.228C277.316 177.124 277.187 177.045 277.046 176.994C276.905 176.944 276.754 176.923 276.605 176.935C275.706 177.034 274.928 178.462 274.768 179.251C274.768 179.301 274.708 179.88 274.678 180.19C274.548 179.91 274.428 179.631 274.289 179.351C273.889 178.552 273.46 177.743 273.03 176.945L272.641 176.206C273.371 176.053 274.074 175.794 274.728 175.437C275.001 175.258 275.232 175.021 275.405 174.743C275.577 174.466 275.687 174.154 275.726 173.829C275.73 173.68 275.702 173.532 275.644 173.395C275.587 173.257 275.501 173.133 275.393 173.031C275.285 172.928 275.157 172.85 275.016 172.8C274.876 172.75 274.727 172.73 274.578 172.741C273.679 172.841 272.901 174.269 272.741 175.057C272.741 175.117 272.651 175.946 272.641 176.156C272.361 175.617 272.082 175.067 271.832 174.528C271.492 173.789 271.198 173.028 270.954 172.252C271.687 172.103 272.394 171.843 273.05 171.483C273.324 171.304 273.555 171.067 273.727 170.789C273.9 170.512 274.009 170.2 274.049 169.875C274.052 169.725 274.024 169.577 273.966 169.438C273.908 169.3 273.822 169.176 273.712 169.073C273.603 168.97 273.474 168.892 273.332 168.842C273.19 168.793 273.04 168.774 272.891 168.787C272.002 168.887 271.223 170.315 271.063 171.103C271.063 171.163 270.964 172.102 270.964 172.222C270.951 172.174 270.935 172.127 270.914 172.082C270.691 171.299 270.54 170.496 270.464 169.686C270.414 169.236 270.384 168.807 270.374 168.387C271.104 168.324 271.818 168.145 272.491 167.858C272.777 167.708 273.028 167.499 273.226 167.244C273.424 166.989 273.565 166.695 273.64 166.381C273.659 166.234 273.648 166.085 273.608 165.943C273.567 165.801 273.498 165.669 273.405 165.555C273.311 165.441 273.195 165.347 273.064 165.279C272.932 165.212 272.788 165.172 272.641 165.162C271.742 165.162 270.814 166.5 270.564 167.259C270.564 167.259 270.464 167.738 270.404 168.058C270.404 167.868 270.404 167.679 270.404 167.499C270.404 166.81 270.404 166.191 270.484 165.642C270.484 165.322 270.544 165.043 270.574 164.773C271.188 164.381 271.737 163.896 272.202 163.335C272.388 163.07 272.515 162.767 272.572 162.448C272.628 162.129 272.615 161.801 272.531 161.488C272.482 161.346 272.403 161.217 272.299 161.109C272.196 161 272.071 160.914 271.932 160.858C271.793 160.801 271.644 160.775 271.494 160.78C271.345 160.785 271.198 160.822 271.063 160.889C270.265 161.298 270.065 162.886 270.185 163.705C270.185 163.774 270.504 164.823 270.514 164.823C270.514 165.082 270.444 165.352 270.414 165.652C270.354 166.201 270.295 166.83 270.285 167.509C270.257 168.248 270.274 168.988 270.335 169.725C270.397 170.548 270.534 171.364 270.744 172.162C270.604 171.932 270.185 171.323 270.145 171.283C269.616 170.674 268.248 169.805 267.419 170.165C267.282 170.226 267.16 170.315 267.061 170.426C266.961 170.537 266.886 170.669 266.841 170.811C266.795 170.954 266.781 171.104 266.798 171.252C266.815 171.401 266.863 171.544 266.94 171.673C267.129 171.936 267.374 172.154 267.657 172.313C267.94 172.472 268.254 172.567 268.577 172.591C269.322 172.588 270.063 172.473 270.774 172.252C271.002 173.06 271.289 173.851 271.633 174.618C271.822 175.067 272.032 175.517 272.252 175.956C272.122 175.766 272.002 175.607 271.982 175.587C271.453 174.978 270.085 174.109 269.256 174.458C269.119 174.52 268.997 174.61 268.897 174.723C268.798 174.835 268.723 174.967 268.677 175.11C268.632 175.253 268.618 175.404 268.635 175.554C268.652 175.703 268.7 175.847 268.777 175.976C268.968 176.238 269.213 176.455 269.496 176.614C269.778 176.772 270.091 176.868 270.414 176.895C271.139 176.895 271.86 176.784 272.551 176.565C272.631 176.735 272.711 176.905 272.801 177.074C273.21 177.893 273.62 178.702 273.999 179.511C274.129 179.79 274.259 180.08 274.378 180.359L274.149 180.03C273.62 179.431 272.242 178.562 271.413 178.912C271.277 178.974 271.156 179.065 271.057 179.178C270.958 179.291 270.884 179.423 270.84 179.566C270.796 179.709 270.782 179.86 270.8 180.009C270.818 180.157 270.867 180.301 270.944 180.429C271.134 180.692 271.379 180.91 271.661 181.069C271.944 181.227 272.258 181.323 272.581 181.348C273.285 181.347 273.985 181.243 274.658 181.038C274.768 181.328 274.888 181.628 274.987 181.917C275.087 182.207 275.127 182.307 275.177 182.506L275.347 183.115C275.437 183.495 275.537 183.894 275.617 184.274C275.696 184.653 275.726 184.783 275.776 185.032L275.357 184.154C274.928 183.475 273.699 182.406 272.821 182.636C272.677 182.676 272.543 182.745 272.428 182.841C272.313 182.936 272.22 183.055 272.155 183.189C272.09 183.323 272.054 183.47 272.05 183.619C272.046 183.768 272.074 183.916 272.132 184.054C272.276 184.343 272.482 184.598 272.736 184.798C272.989 184.998 273.285 185.14 273.6 185.212C274.334 185.325 275.082 185.325 275.816 185.212C275.896 185.632 275.976 186.031 276.036 186.42C276.276 187.758 276.425 188.877 276.515 189.665C276.515 189.805 276.515 189.935 276.515 190.045H273.659L274.658 209.366H279.271L280.27 190.045H277.743L277.803 189.935C278.153 189.216 278.632 188.178 279.151 186.94L279.65 185.671C280.374 185.833 281.117 185.89 281.857 185.841C282.172 185.794 282.474 185.68 282.742 185.508C283.011 185.336 283.24 185.109 283.415 184.843C283.481 184.709 283.519 184.563 283.525 184.413C283.531 184.264 283.505 184.115 283.45 183.977C283.394 183.838 283.31 183.713 283.202 183.609C283.095 183.505 282.966 183.425 282.826 183.375C281.967 183.085 280.669 184.054 280.19 184.703C280.19 184.703 279.9 185.192 279.74 185.472L279.95 184.923C280.08 184.553 280.21 184.184 280.339 183.774L280.519 183.185C280.583 182.978 280.636 182.768 280.679 182.556C280.799 182.067 280.889 181.558 280.978 181.068C281.645 181.334 282.349 181.496 283.065 181.548C283.39 181.547 283.71 181.476 284.003 181.338C284.297 181.2 284.556 180.999 284.763 180.749C284.849 180.626 284.908 180.487 284.936 180.339C284.965 180.192 284.962 180.041 284.928 179.895C284.894 179.749 284.83 179.612 284.739 179.492C284.649 179.373 284.535 179.274 284.403 179.201C283.605 178.792 282.167 179.551 281.598 180.12C281.598 180.12 281.198 180.609 281.008 180.859C281.058 180.559 281.098 180.25 281.138 179.94C281.248 179.051 281.338 178.143 281.428 177.244C281.428 176.965 281.478 176.685 281.508 176.405C282.199 176.687 282.93 176.859 283.674 176.915C283.998 176.914 284.317 176.843 284.61 176.707C284.903 176.571 285.163 176.373 285.372 176.126C285.458 176.003 285.517 175.864 285.545 175.716C285.574 175.569 285.571 175.418 285.537 175.272C285.503 175.126 285.439 174.989 285.348 174.869C285.258 174.75 285.144 174.651 285.012 174.578C284.214 174.159 282.776 174.928 282.207 175.487C282.207 175.487 281.637 176.186 281.518 176.355C281.578 175.746 281.647 175.147 281.747 174.548C281.861 173.744 282.035 172.95 282.267 172.172C282.959 172.449 283.69 172.621 284.433 172.681C284.757 172.681 285.076 172.611 285.369 172.475C285.663 172.338 285.922 172.14 286.131 171.892C286.217 171.769 286.276 171.63 286.304 171.483C286.333 171.336 286.33 171.184 286.296 171.038C286.262 170.892 286.198 170.755 286.107 170.636C286.017 170.516 285.902 170.417 285.771 170.345C284.972 169.925 283.545 170.694 282.965 171.253C282.965 171.303 282.366 172.002 282.267 172.142C282.27 172.095 282.27 172.049 282.267 172.002C282.515 171.225 282.829 170.47 283.205 169.745C283.415 169.346 283.634 168.977 283.854 168.617C284.499 168.962 285.193 169.208 285.911 169.346C286.234 169.38 286.56 169.342 286.867 169.237C287.174 169.132 287.454 168.961 287.688 168.737C287.786 168.624 287.858 168.491 287.902 168.348C287.945 168.205 287.958 168.055 287.94 167.906C287.922 167.758 287.874 167.615 287.798 167.487C287.722 167.358 287.62 167.247 287.499 167.159C286.75 166.67 285.242 167.269 284.613 167.768C284.613 167.768 284.254 168.108 284.034 168.338L284.333 167.868C284.713 167.299 285.092 166.8 285.432 166.361L285.981 165.692C286.708 165.704 287.432 165.603 288.128 165.392C288.43 165.273 288.702 165.09 288.926 164.856C289.15 164.621 289.321 164.341 289.426 164.034C289.468 163.894 289.48 163.748 289.463 163.603C289.445 163.458 289.398 163.318 289.324 163.193C289.25 163.067 289.15 162.958 289.032 162.873C288.914 162.787 288.779 162.727 288.637 162.696ZM278.652 186.76C278.103 187.998 277.653 189.016 277.254 189.755L277.054 190.135H276.994C276.994 190.008 276.974 189.858 276.935 189.685C276.825 188.887 276.655 187.758 276.385 186.41C276.306 185.991 276.206 185.532 276.096 185.072C276.519 184.903 276.933 184.71 277.334 184.493C277.877 184.96 278.482 185.35 279.131 185.651C278.991 186.011 278.832 186.4 278.652 186.76Z" fill="#182F43"/>
<path d="M283.874 168.428C283.874 168.428 284.164 167.369 284.174 167.3C284.284 166.511 284.034 164.903 283.175 164.514C283.039 164.452 282.892 164.419 282.742 164.418C282.593 164.417 282.445 164.448 282.308 164.508C282.171 164.568 282.049 164.657 281.949 164.768C281.849 164.879 281.773 165.01 281.728 165.153C281.654 165.469 281.651 165.797 281.718 166.115C281.785 166.432 281.922 166.731 282.117 166.99C282.631 167.551 283.223 168.035 283.874 168.428Z" fill="#182F43"/>
<path d="M53.5818 170.115C54.2718 170.298 54.9851 170.379 55.6986 170.354C55.6986 170.354 55.3691 169.356 55.3492 169.306C55.0197 168.617 53.9712 167.479 53.1225 167.599C52.9817 167.62 52.847 167.671 52.7276 167.749C52.6081 167.826 52.5067 167.929 52.4301 168.049C52.3535 168.169 52.3035 168.304 52.2834 168.445C52.2633 168.586 52.2737 168.73 52.3137 168.867C52.4207 169.155 52.5897 169.416 52.8088 169.632C53.028 169.848 53.2919 170.012 53.5818 170.115Z" fill="#182F43"/>
<path d="M73.2719 164.991C72.4232 164.901 71.4047 166.059 71.0952 166.758C71.0952 166.828 70.7557 167.816 70.7757 167.816C70.6059 167.996 70.4362 168.196 70.2564 168.415C69.9269 168.825 69.5475 169.294 69.1781 169.823C68.8086 170.352 68.4192 170.952 68.0597 171.601C67.6672 172.29 67.3332 173.012 67.0613 173.757C67.0613 173.508 67.0613 172.809 67.0613 172.759C66.9614 172 66.3224 170.592 65.4836 170.442C65.339 170.417 65.1907 170.425 65.0492 170.463C64.9078 170.502 64.7766 170.572 64.665 170.667C64.5535 170.763 64.4643 170.881 64.4039 171.015C64.3435 171.149 64.3133 171.294 64.3154 171.441C64.3274 171.748 64.4059 172.049 64.5455 172.323C64.6852 172.597 64.8826 172.838 65.1242 173.028C65.7177 173.418 66.3677 173.715 67.0513 173.907C66.8089 174.669 66.6187 175.446 66.4821 176.234C66.4022 176.693 66.3324 177.162 66.2724 177.621C66.2724 177.402 66.2724 177.212 66.2724 177.182C66.1726 176.423 65.5336 175.015 64.6948 174.866C64.5543 174.841 64.4103 174.847 64.2723 174.883C64.1344 174.919 64.0057 174.984 63.8951 175.074C63.7844 175.164 63.6942 175.277 63.6307 175.404C63.5671 175.532 63.5316 175.672 63.5266 175.814C63.5386 176.122 63.6171 176.423 63.7567 176.697C63.8963 176.971 64.0938 177.211 64.3354 177.402C64.9089 177.784 65.539 178.074 66.2025 178.261C66.2025 178.44 66.1526 178.62 66.1327 178.8C66.0328 179.658 65.933 180.517 65.8131 181.356L65.6634 182.235C65.6634 182.035 65.6634 181.875 65.6634 181.855C65.5635 181.096 64.9245 179.688 64.0857 179.529C63.9412 179.504 63.7928 179.511 63.6514 179.55C63.5099 179.589 63.3787 179.658 63.2672 179.754C63.1556 179.849 63.0665 179.968 63.006 180.101C62.9456 180.235 62.9154 180.38 62.9175 180.527C62.9302 180.833 63.0091 181.132 63.1488 181.405C63.2884 181.677 63.4854 181.916 63.7263 182.105C64.2835 182.475 64.8925 182.761 65.5336 182.953C65.4736 183.243 65.4137 183.543 65.3339 183.822C65.2912 184.015 65.2379 184.205 65.1741 184.391L64.9944 184.96C64.8646 185.31 64.7348 185.679 64.605 186.019C64.4752 186.358 64.4152 186.488 64.3254 186.708C64.3753 186.418 64.4552 185.839 64.4552 185.789C64.4446 185.119 64.2624 184.462 63.926 183.882C63.931 183.806 63.931 183.729 63.926 183.652C63.9104 183.51 63.8645 183.373 63.7914 183.251C63.7184 183.128 63.6199 183.022 63.5025 182.941C63.3852 182.86 63.2517 182.804 63.1112 182.779C62.9706 182.754 62.8263 182.759 62.6878 182.794C61.8591 183.013 61.3299 184.471 61.29 185.23C61.29 185.28 61.29 185.769 61.29 186.079L61.1701 185.54C61.0803 185.17 60.9804 184.811 60.8806 184.421C60.8207 184.232 60.7707 184.042 60.7108 183.852C60.6509 183.662 60.571 183.463 60.5111 183.273C60.3414 182.824 60.1617 182.374 59.962 181.935C60.675 181.766 61.3561 181.483 61.9789 181.096C62.2332 180.924 62.4477 180.7 62.6079 180.438C62.768 180.176 62.8702 179.883 62.9075 179.579C62.9082 179.439 62.8795 179.3 62.8232 179.172C62.7669 179.044 62.6843 178.929 62.5807 178.835C62.4771 178.741 62.3549 178.669 62.222 178.625C62.0891 178.581 61.9484 178.566 61.8092 178.58C60.9605 178.67 60.2216 180.028 60.0718 180.777C60.0718 180.827 60.0019 181.376 59.9819 181.675C59.8621 181.416 59.7423 181.146 59.6125 180.877C59.2331 180.108 58.8237 179.349 58.4143 178.58L58.0548 177.881C58.7527 177.738 59.4257 177.492 60.0518 177.152C60.3073 176.979 60.5225 176.753 60.6827 176.49C60.843 176.226 60.9445 175.931 60.9804 175.624C60.9811 175.485 60.9524 175.346 60.8961 175.218C60.8398 175.09 60.7572 174.975 60.6536 174.881C60.55 174.787 60.4278 174.715 60.2949 174.671C60.162 174.627 60.0213 174.612 59.8821 174.626C59.0334 174.726 58.2945 176.084 58.1347 176.833C58.1347 176.883 58.0548 177.681 58.0448 177.881C57.7753 177.362 57.5156 176.883 57.276 176.323C56.9522 175.624 56.6753 174.903 56.4473 174.167C57.146 174.021 57.8191 173.772 58.4442 173.428C58.7018 173.259 58.9187 173.036 59.0793 172.773C59.2399 172.511 59.3402 172.216 59.3728 171.91C59.3735 171.77 59.3448 171.632 59.2885 171.503C59.2322 171.375 59.1496 171.26 59.046 171.166C58.9425 171.072 58.8202 171.001 58.6873 170.957C58.5544 170.913 58.4138 170.898 58.2745 170.912C57.4258 171.001 56.6869 172.359 56.5371 173.108C56.5371 173.168 56.4473 174.017 56.4473 174.177C56.4432 174.134 56.4432 174.09 56.4473 174.047C56.2357 173.303 56.092 172.541 56.0179 171.77C56.0179 171.341 55.948 170.932 55.928 170.532C56.6157 170.471 57.2895 170.302 57.925 170.033C58.1989 169.89 58.4382 169.689 58.6262 169.444C58.8142 169.2 58.9464 168.916 59.0134 168.615C59.0351 168.472 59.0255 168.326 58.9851 168.187C58.9447 168.048 58.8746 167.919 58.7797 167.81C58.6847 167.701 58.5671 167.614 58.435 167.554C58.303 167.495 58.1596 167.465 58.0149 167.467C57.1562 167.467 56.2675 168.735 56.0179 169.464C56.0179 169.464 55.9181 169.913 55.8581 170.223C55.8581 170.043 55.8581 169.853 55.8581 169.683C55.8581 169.034 55.8581 168.445 55.938 167.916C55.938 167.617 55.9979 167.347 56.0279 167.097C56.6087 166.724 57.1276 166.263 57.5656 165.729C57.7456 165.478 57.8676 165.191 57.9228 164.887C57.9781 164.583 57.9652 164.27 57.8851 163.972C57.8388 163.838 57.7645 163.715 57.6671 163.612C57.5696 163.509 57.4512 163.427 57.3199 163.373C57.1886 163.32 57.0472 163.294 56.9054 163.299C56.7635 163.305 56.6243 163.34 56.4972 163.403C55.7283 163.792 55.4987 165.33 55.6584 166.079C55.6584 166.149 55.958 167.147 55.968 167.137C55.968 167.377 55.8981 167.637 55.8681 167.926C55.8681 168.445 55.7583 169.044 55.7483 169.693C55.7044 170.392 55.7044 171.092 55.7483 171.79C55.8034 172.573 55.9338 173.349 56.1377 174.107L55.5686 173.278C55.0693 172.699 53.7613 171.87 52.9725 172.21C52.8417 172.267 52.7248 172.352 52.6296 172.458C52.5343 172.564 52.463 172.69 52.4205 172.826C52.3779 172.963 52.365 173.106 52.3827 173.248C52.4004 173.39 52.4483 173.526 52.5232 173.647C52.7024 173.896 52.9338 174.103 53.2011 174.253C53.4684 174.403 53.7652 174.493 54.0708 174.516C54.7788 174.518 55.4827 174.41 56.1577 174.197C56.3863 174.961 56.6597 175.711 56.9765 176.443C57.1562 176.873 57.3559 177.302 57.5656 177.721L57.3159 177.362C56.8167 176.783 55.5087 175.964 54.7199 176.293C54.5891 176.351 54.4722 176.436 54.3769 176.542C54.2817 176.648 54.2104 176.774 54.1678 176.91C54.1252 177.046 54.1124 177.19 54.1301 177.332C54.1478 177.474 54.1957 177.61 54.2705 177.731C54.4493 177.981 54.6803 178.189 54.9475 178.341C55.2148 178.493 55.5119 178.585 55.8182 178.61C56.4954 178.604 57.168 178.5 57.8152 178.3C57.9051 178.46 57.975 178.62 58.0548 178.78C58.4442 179.559 58.8436 180.327 59.2031 181.096L59.5626 181.905L59.3429 181.595C58.8436 181.016 57.5356 180.188 56.7468 180.527C56.6161 180.584 56.4991 180.669 56.4039 180.776C56.3087 180.882 56.2373 181.007 56.1948 181.144C56.1522 181.28 56.1393 181.424 56.157 181.565C56.1747 181.707 56.2226 181.843 56.2975 181.965C56.4762 182.215 56.7072 182.423 56.9745 182.575C57.2418 182.727 57.5389 182.818 57.8452 182.844C58.5224 182.849 59.1962 182.748 59.8421 182.544C59.952 182.824 60.0618 183.103 60.1617 183.383C60.2615 183.662 60.2915 183.752 60.3414 183.952C60.3913 184.152 60.4512 184.331 60.5011 184.521C60.591 184.881 60.6809 185.26 60.7608 185.619L60.9105 186.348C60.7907 186.079 60.5311 185.56 60.5111 185.51C60.1017 184.871 58.9335 183.852 58.1048 184.062C57.9656 184.098 57.8358 184.163 57.7244 184.254C57.6129 184.345 57.5223 184.458 57.4587 184.587C57.3952 184.716 57.3603 184.857 57.3563 185.001C57.3524 185.145 57.3795 185.287 57.4358 185.42C57.5768 185.694 57.7758 185.934 58.0189 186.124C58.262 186.313 58.5434 186.448 58.8436 186.518C59.5385 186.626 60.2457 186.626 60.9405 186.518C61.0204 186.907 61.1002 187.297 61.1602 187.666C61.3898 188.934 61.5196 190.003 61.6095 190.752C61.6095 190.891 61.6095 191.001 61.6095 191.121H59.0334L59.9719 209.483H64.3653L65.3738 191.081H62.9774V190.971C63.3069 190.282 63.7662 189.294 64.2555 188.086C64.4152 187.706 64.575 187.297 64.7348 186.868C65.4204 187.034 66.1281 187.091 66.8316 187.037C67.136 186.989 67.426 186.875 67.6813 186.702C67.9367 186.53 68.1511 186.303 68.3094 186.039C68.3744 185.912 68.4115 185.772 68.4182 185.63C68.4248 185.487 68.4008 185.345 68.3478 185.213C68.2948 185.08 68.2141 184.961 68.111 184.862C68.0079 184.763 67.8849 184.688 67.7502 184.641C66.9414 184.371 65.7033 185.29 65.244 185.909L64.8246 186.638C64.8845 186.468 64.9544 186.298 65.0143 186.119C65.1441 185.769 65.264 185.41 65.3938 185.03C65.4537 184.841 65.5036 184.651 65.5635 184.461C65.6234 184.271 65.6634 184.072 65.7133 183.872C65.8231 183.403 65.913 182.933 65.9929 182.454C66.632 182.704 67.3053 182.855 67.9899 182.904C68.2974 182.902 68.601 182.834 68.88 182.705C69.1591 182.576 69.4072 182.388 69.6074 182.155C69.693 182.039 69.7526 181.906 69.7819 181.765C69.8113 181.624 69.8098 181.478 69.7775 181.338C69.7453 181.197 69.683 181.066 69.5951 180.952C69.5071 180.837 69.3955 180.744 69.2679 180.677C68.5091 180.287 67.1411 181.016 66.602 181.556C66.602 181.556 66.2225 182.015 66.0328 182.255C66.0827 181.965 66.1227 181.675 66.1626 181.386C66.2724 180.537 66.3523 179.668 66.4322 178.81C66.4322 178.55 66.4821 178.29 66.5121 178.021C67.1695 178.284 67.863 178.446 68.569 178.5C68.8765 178.498 69.1801 178.431 69.4592 178.302C69.7382 178.172 69.9863 177.985 70.1865 177.751C70.2704 177.636 70.3284 177.503 70.3568 177.364C70.3852 177.224 70.3832 177.079 70.351 176.94C70.3189 176.801 70.2572 176.67 70.1703 176.557C70.0833 176.444 69.9731 176.351 69.8471 176.283C69.0782 175.884 67.7203 176.613 67.1711 177.152C67.1711 177.152 66.6419 177.811 66.5221 177.971C66.582 177.392 66.6419 176.823 66.7317 176.254C66.8488 175.491 67.0156 174.737 67.231 173.997C67.8916 174.261 68.5885 174.423 69.2979 174.476C69.6039 174.474 69.906 174.407 70.1835 174.277C70.4609 174.148 70.7072 173.96 70.9055 173.727C70.9911 173.612 71.0506 173.479 71.08 173.337C71.1093 173.196 71.1078 173.051 71.0756 172.91C71.0433 172.77 70.9811 172.638 70.8931 172.524C70.8051 172.41 70.6936 172.316 70.566 172.25C69.8071 171.86 68.4392 172.589 67.9 173.128C67.9 173.128 67.3209 173.837 67.241 173.967V173.827C67.4779 173.09 67.7786 172.375 68.1396 171.69C68.3293 171.311 68.539 170.952 68.7487 170.612C69.3716 170.951 70.0465 171.184 70.7457 171.301C71.0516 171.337 71.3617 171.305 71.6535 171.206C71.9454 171.108 72.2117 170.946 72.4332 170.732C72.5293 170.626 72.6015 170.501 72.645 170.364C72.6884 170.228 72.7021 170.084 72.685 169.942C72.668 169.8 72.6206 169.663 72.5462 169.541C72.4717 169.419 72.3719 169.314 72.2534 169.234C71.5445 168.755 70.1067 169.324 69.5076 169.803L68.9584 170.352C69.0583 170.203 69.1481 170.043 69.248 169.903C69.6074 169.364 69.9669 168.905 70.2465 168.475C70.4362 168.236 70.6059 168.026 70.7757 167.836C71.452 167.839 72.1249 167.741 72.7726 167.547C73.0591 167.433 73.3178 167.259 73.5314 167.037C73.7449 166.815 73.9084 166.549 74.0108 166.259C74.0513 166.127 74.064 165.988 74.0482 165.851C74.0324 165.714 73.9884 165.582 73.919 165.463C73.8496 165.344 73.7563 165.24 73.6449 165.159C73.5335 165.078 73.4065 165.02 73.2719 164.991ZM63.8461 187.866C63.3269 189.054 62.8476 190.023 62.5181 190.692C62.4482 190.832 62.3783 190.951 62.3284 191.061H62.2685C62.2685 190.921 62.2685 190.782 62.2086 190.622C62.1087 189.863 61.949 188.795 61.6894 187.517C61.6095 187.107 61.5196 186.678 61.4198 186.238C61.8196 186.078 62.2097 185.895 62.588 185.689C63.1062 186.129 63.6803 186.499 64.2954 186.788C64.149 187.167 63.9992 187.527 63.8461 187.866Z" fill="#182F43"/>
<path d="M68.7883 170.434C68.7883 170.434 69.0579 169.435 69.0679 169.375C69.1678 168.617 68.9281 167.089 68.1593 166.719C68.03 166.659 67.8892 166.627 67.7465 166.625C67.6037 166.623 67.4622 166.653 67.3316 166.71C67.201 166.768 67.0843 166.853 66.9894 166.96C66.8945 167.066 66.8235 167.192 66.7814 167.329C66.7105 167.628 66.7059 167.94 66.768 168.242C66.8301 168.544 66.9573 168.828 67.1408 169.076C67.619 169.608 68.1744 170.066 68.7883 170.434Z" fill="#182F43"/>
<path d="M291.633 211.421V23.8633" stroke="#182F43" stroke-linecap="round" stroke-linejoin="round"/>
<path d="M123.885 211.42V25.0312" stroke="#182F43" stroke-linecap="round" stroke-linejoin="round"/>
<path d="M35 119L364.763 119.352" stroke="#182F43" stroke-linecap="round" stroke-linejoin="round"/>
<path d="M69.3276 35.9065H76.1673C77.0465 35.9065 77.8897 36.2558 78.5114 36.8774C79.133 37.4991 79.4823 38.3423 79.4823 39.2215V46.8001H65.9727V39.2215C65.9726 38.7828 66.0597 38.3484 66.2288 37.9436C66.3978 37.5388 66.6456 37.1716 66.9577 36.8632C67.2698 36.5549 67.6399 36.3115 68.0467 36.1473C68.4536 35.9831 68.8889 35.9012 69.3276 35.9065Z" fill="#FFC100" stroke="#182F43"/>
<path d="M78.8419 56.8448C78.8419 58.085 78.4741 59.2973 77.7851 60.3285C77.0961 61.3597 76.1168 62.1634 74.971 62.638C73.8252 63.1126 72.5644 63.2368 71.348 62.9948C70.1316 62.7529 69.0143 62.1557 68.1374 61.2787C67.2604 60.4018 66.6632 59.2845 66.4213 58.0681C66.1793 56.8517 66.3035 55.5909 66.7781 54.4451C67.2527 53.2993 68.0564 52.32 69.0876 51.631C70.1188 50.942 71.3311 50.5742 72.5713 50.5742C74.2344 50.5742 75.8293 51.2349 77.0053 52.4108C78.1812 53.5868 78.8419 55.1817 78.8419 56.8448Z" fill="white" stroke="#182F43"/>
<path d="M99.4116 57.1358H72.7468H46.082L66.0819 46.2422H79.3619L99.4116 57.1358Z" fill="#FFC100" stroke="#182F43"/>
<path d="M73.8718 14H71.6152V35.7971H73.8718V14Z" fill="#FFC100" stroke="#182F43"/>
<path d="M325.402 35.9062H332.232C333.111 35.9062 333.954 36.2555 334.576 36.8772C335.197 37.4989 335.547 38.3421 335.547 39.2213V46.7998H322.087V39.2213C322.087 38.3421 322.436 37.4989 323.058 36.8772C323.68 36.2555 324.523 35.9062 325.402 35.9062Z" fill="#FFC100" stroke="#182F43"/>
<path d="M328.646 63.1153C332.109 63.1153 334.916 60.3079 334.916 56.8448C334.916 53.3816 332.109 50.5742 328.646 50.5742C325.182 50.5742 322.375 53.3816 322.375 56.8448C322.375 60.3079 325.182 63.1153 328.646 63.1153Z" fill="white" stroke="#182F43"/>
<path d="M355.487 57.1358H302.157L322.157 46.2422H335.437L355.487 57.1358Z" fill="#FFC100" stroke="#182F43"/>
<path d="M329.946 14H327.689V35.7971H329.946V14Z" fill="#FFC100" stroke="#182F43"/>
<path d="M172.851 84.9023L168.518 87.5683" stroke="#182F43" stroke-width="0.5" stroke-linecap="round" stroke-linejoin="round"/>
<path d="M246.002 39.8203L178.684 81.3078" stroke="#182F43" stroke-width="0.5" stroke-linecap="round" stroke-linejoin="round"/>
<path d="M254.888 42.627L200.949 75.8569" stroke="#182F43" stroke-width="0.5" stroke-linecap="round" stroke-linejoin="round"/>
<path d="M278.442 28.1094L262.146 38.1443" stroke="#182F43" stroke-width="0.5" stroke-linecap="round" stroke-linejoin="round"/>
<path d="M194.119 202.41C194.119 202.41 192.382 213.922 193.6 220.023C194.818 226.124 199.352 255.969 200.59 268.16C201.828 280.352 207.739 298.844 208.088 299.723C208.438 300.602 207.569 303.028 207.569 304.076C207.569 305.125 207.919 307.571 207.919 307.571C207.919 307.571 202.856 310.876 200.24 312.454C197.624 314.031 198.852 314.72 201.289 315.06C203.725 315.399 238.233 315.06 238.233 315.06C238.233 315.06 239.102 314.89 238.053 313.322C237.005 311.755 229.856 306.872 229.856 306.872C229.717 305.713 229.661 304.545 229.686 303.377C229.686 300.941 227.589 296.578 227.589 296.578C227.589 296.578 231.433 268.68 230.584 261.351C229.736 254.022 229.366 246.533 230.764 239.903C232.162 233.273 230.065 203.807 230.415 202.41C230.594 201.398 230.472 200.357 230.065 199.414C230.065 199.414 219.082 203.767 209.836 204.466C204.509 204.954 199.141 204.252 194.119 202.41Z" fill="#182F43" stroke="#182F43" stroke-miterlimit="10" stroke-linecap="round"/>
<path d="M238.063 313.319C237.014 311.752 229.865 306.869 229.865 306.869C229.865 306.869 229.865 306.739 229.865 306.52C225.574 307.935 221.566 310.095 218.023 312.9C218.023 312.9 218.592 312.141 215.377 309.495C213.238 307.883 210.556 307.167 207.898 307.498C207.898 307.498 202.836 310.803 200.22 312.381C197.604 313.958 198.832 314.647 201.268 314.987C203.705 315.326 238.213 314.987 238.213 314.987C238.213 314.987 239.111 314.897 238.063 313.319Z" fill="white" stroke="#182F43" stroke-linecap="round" stroke-linejoin="round"/>
<path d="M200.461 313.528C200.461 313.528 206.881 313.998 209.537 313.219" stroke="#182F43" stroke-width="0.75" stroke-linecap="round" stroke-linejoin="round"/>
<path d="M192.231 154.27C192.231 154.27 187.239 181.229 185.951 185.283C184.663 189.337 185.162 198.763 188.946 197.665C192.731 196.566 193.939 190.925 194.268 189.357C194.598 187.789 194.897 160.401 194.897 155.668C194.897 150.935 192.231 154.27 192.231 154.27Z" fill="#FFC100" stroke="#182F43" stroke-linecap="round" stroke-linejoin="round"/>
<path d="M209.241 142.19C209.241 142.19 196.36 145.974 194.263 146.413C192.166 146.853 191.128 149.988 191.018 152.584C190.908 155.18 191.347 181.69 191.238 189.598C191.128 197.506 190.049 200.202 193.614 203.118C197.179 206.033 207.254 206.583 216.45 205.934C225.646 205.285 229.77 202.469 229.77 198.365C229.77 194.261 229.121 174.771 229.121 174.771C229.121 174.771 230.119 163.408 232.366 158.535C234.612 153.662 235.93 152.145 234.203 150.417C232.476 148.69 221.752 142.519 217.538 141.321C214.752 140.69 211.835 140.995 209.241 142.19Z" fill="#FFC100" stroke="#182F43" stroke-linecap="round" stroke-linejoin="round"/>
<path d="M207.929 151.454L209.117 159.033L217.774 153.94L213.99 147.77C213.99 147.77 208.688 149.397 207.929 151.454Z" fill="#182F43" stroke="#182F43" stroke-linecap="round" stroke-linejoin="round"/>
<path d="M211.095 139.953C209.386 141.44 208.023 143.284 207.101 145.354C205.893 148.42 203.377 153.263 204.405 153.532C205.434 153.802 208.499 151.216 209.148 151.216C209.797 151.216 211.095 154.371 211.475 154.471C212.81 154.104 214.115 153.637 215.379 153.073C215.379 153.073 215.938 157.067 217.146 157.167C218.354 157.267 222.448 151.026 223.197 146.373C223.946 141.72 221.52 140.981 221.05 140.881C220.581 140.781 215.099 138.375 211.095 139.953Z" fill="#FFC100" stroke="#182F43" stroke-linecap="round" stroke-linejoin="round"/>
<path d="M210.445 124.785C210.445 124.785 210.266 120.512 210.266 117.906C210.266 115.3 210.635 113.912 212.213 113.343C213.79 112.773 214.26 115.21 214.21 116.508C214.16 117.806 210.445 124.785 210.445 124.785Z" fill="#182F43" stroke="#182F43" stroke-linecap="round" stroke-linejoin="round"/>
<path d="M210.446 123.765C210.446 123.765 210.356 120.6 209.238 122.277C208.119 123.955 208.499 127.859 209.238 127.49C209.977 127.12 210.446 123.765 210.446 123.765Z" fill="white" stroke="#182F43" stroke-linecap="round" stroke-linejoin="round"/>
<path d="M210.634 139.773C210.634 139.773 210.355 147.302 210.165 150.278C209.975 153.253 211.004 154.931 212.771 154.272C214.538 153.613 218.822 147.941 220.12 145.714C220.986 144.172 221.701 142.551 222.257 140.872C222.257 140.872 215.846 142.839 210.634 139.773Z" fill="white" stroke="#182F43" stroke-linecap="round" stroke-linejoin="round"/>
<path d="M212.752 115.578C212.752 115.578 209.407 126.651 208.478 130.645C207.55 134.639 208.009 138.004 209.687 140.63C210.473 141.84 211.57 142.815 212.863 143.455C214.156 144.094 215.597 144.374 217.035 144.265C220.031 144.165 223.735 143.426 225.962 138.773C227.146 136.201 228.173 133.561 229.037 130.865C229.497 129.936 231.174 125.094 232.103 122.028C233.031 118.963 231.194 115.268 227.64 113.192C226.561 112.523 219.292 107.93 212.752 115.578Z" fill="white" stroke="#182F43" stroke-linecap="round" stroke-linejoin="round"/>
<path d="M229.726 129.817C229.726 129.817 232.052 127.95 232.721 129.347C233.39 130.745 232.162 133.252 230.585 134.09C230.204 134.342 229.769 134.498 229.316 134.547C228.862 134.595 228.404 134.535 227.979 134.37C227.979 134.37 228.727 130.835 229.726 129.817Z" fill="white" stroke="#182F43" stroke-linecap="round" stroke-linejoin="round"/>
<path d="M232.771 111.674L231.773 110.556C231.773 110.556 231.683 109.807 228.697 108.699C225.712 107.59 222.277 107.76 221.069 106.272C219.861 104.784 218.463 104.415 214.928 104.974C211.393 105.533 209.936 109.158 209.936 112.133C209.936 115.109 216.356 119.303 220.819 119.952C225.282 120.601 229.666 119.203 228.727 120.041C227.789 120.88 225.103 123.856 226.031 124.884C226.96 125.913 227.519 126.552 227.519 127.77C227.519 128.599 227.349 130.516 227.389 131.674C227.03 132.403 226.071 134.35 225.852 134.669C225.632 134.989 222.966 132.812 221.378 131.973C220.644 131.52 219.819 131.234 218.962 131.135C218.962 131.135 218.872 132.533 218.223 132.712C217.574 132.892 215.337 132.902 214.678 132.253C214.473 131.967 214.327 131.643 214.248 131.301C214.17 130.958 214.16 130.603 214.219 130.256C211.943 130.338 209.782 131.276 208.168 132.882C207.793 135.555 208.354 138.274 209.756 140.58C210.542 141.79 211.639 142.766 212.932 143.405C214.225 144.045 215.666 144.324 217.105 144.215C220.1 144.115 223.805 143.376 226.031 138.723C227.118 136.45 228.019 134.092 228.727 131.674C229.02 131.242 229.252 130.771 229.416 130.276C230.278 128.334 231.404 126.519 232.761 124.884C234.573 122.398 235.552 119.403 235.557 116.327C235.58 115.367 235.331 114.421 234.838 113.597C234.345 112.773 233.628 112.107 232.771 111.674Z" fill="#182F43" stroke="#182F43" stroke-linecap="round" stroke-linejoin="round"/>
<path d="M224.235 112.204C224.235 112.204 218.244 109.957 217.245 114.201C216.247 118.444 226.232 119.692 234.469 118.195" stroke="white" stroke-width="0.75" stroke-linecap="round" stroke-linejoin="round"/>
<path d="M227.23 123.186C227.23 123.186 228.978 123.686 232.972 122.438" stroke="white" stroke-width="0.75" stroke-linecap="round" stroke-linejoin="round"/>
<path d="M216.306 123.766L215.937 125.902C215.937 125.902 213.52 131.304 214.169 131.953C214.818 132.602 218.263 133.351 218.543 132.233C218.692 131.715 218.785 131.183 218.822 130.645L217.704 130.366" stroke="#182F43" stroke-linecap="round" stroke-linejoin="round"/>
<path d="M220.221 124.606C220.221 124.606 223.656 123.767 224.494 126.652" stroke="#182F43" stroke-linecap="round" stroke-linejoin="round"/>
<path d="M215.568 122.838C215.164 122.451 214.646 122.206 214.092 122.139C213.537 122.073 212.976 122.188 212.492 122.469" stroke="#182F43" stroke-linecap="round" stroke-linejoin="round"/>
<path d="M221.608 127.85C221.528 128.409 221.198 128.848 220.869 128.778C220.539 128.709 220.33 128.239 220.41 127.68C220.489 127.121 220.809 126.682 221.148 126.751C221.488 126.821 221.678 127.291 221.608 127.85Z" fill="#182F43"/>
<path d="M213.84 125.524C213.76 126.083 213.431 126.522 213.101 126.452C212.772 126.382 212.562 125.923 212.642 125.354C212.722 124.785 213.041 124.356 213.381 124.425C213.72 124.495 213.91 124.965 213.84 125.524Z" fill="#182F43"/>
<path d="M220.679 134.74C216.785 139.363 213.69 135.549 213.42 134.561L220.679 134.74Z" fill="white"/>
<path d="M209.116 159.031C209.116 159.031 204.573 177.104 203.704 185.761C203.19 190.65 202.937 195.563 202.946 200.479L205.222 204.473L208.577 200.479C208.577 200.479 208.467 181.218 208.467 175.047C208.467 168.876 209.116 159.031 209.116 159.031Z" fill="#182F43" stroke="#182F43" stroke-linecap="round" stroke-linejoin="round"/>
<path d="M230.565 162.793C230.565 162.793 227.779 169.074 228.828 172.209C229.876 175.344 238.763 188.424 239.631 188.954C240.5 189.483 247.31 191.041 248.179 187.037C249.047 183.033 241.728 159.308 239.462 155.824C237.195 152.339 235.468 152.678 234.579 153.377" fill="#FFC100"/>
<path d="M230.565 162.793C230.565 162.793 227.779 169.074 228.828 172.209C229.876 175.344 238.763 188.424 239.631 188.954C240.5 189.483 247.31 191.041 248.179 187.037C249.047 183.033 241.728 159.308 239.462 155.824C237.195 152.339 235.468 152.678 234.579 153.377" stroke="#182F43" stroke-linecap="round" stroke-linejoin="round"/>
<path d="M206.5 175.558L207.548 203.456L228.826 202.418L228.297 175.039L206.5 175.558Z" fill="white" stroke="#182F43" stroke-linecap="round" stroke-linejoin="round"/>
<path d="M243.994 181.838C243.994 181.838 238.592 182.357 235.447 184.104C232.301 185.852 220.1 188.458 220.1 188.458L220.799 195.258C226.298 195.96 231.864 195.96 237.364 195.258C245.212 194.039 249.745 194.389 250.094 192.122C250.444 189.856 247.478 181.309 247.478 181.309" fill="#FFC100"/>
<path d="M243.994 181.838C243.994 181.838 238.592 182.357 235.447 184.104C232.301 185.852 220.1 188.458 220.1 188.458L220.799 195.258C226.298 195.96 231.864 195.96 237.364 195.258C245.212 194.039 249.745 194.389 250.094 192.122C250.444 189.856 247.478 181.309 247.478 181.309" stroke="#182F43" stroke-linecap="round" stroke-linejoin="round"/>
<path d="M224.645 187.758L224.984 195.606" stroke="#182F43" stroke-linecap="round" stroke-linejoin="round"/>
<path d="M220.63 189.155L214.748 184.452C214.748 184.452 210.754 182.355 209.866 182.355C208.051 182.548 206.248 182.838 204.464 183.224C203.765 183.404 204.114 184.273 205.333 184.802C206.107 185.119 206.932 185.295 207.769 185.321C207.769 185.321 202.197 186.539 202.197 187.937C202.197 189.335 204.634 190.024 204.634 190.024C204.634 190.024 203.935 193.339 205.502 194.567C207.07 195.795 208.648 196.304 211.433 195.566C214.219 194.827 220.849 195.216 220.849 195.216L220.63 189.155Z" fill="white" stroke="#182F43" stroke-linecap="round" stroke-linejoin="round"/>
<path d="M191.275 186.538C191.275 186.538 187.201 181.685 185.953 177.921C184.705 174.156 181.879 166.937 181.879 166.937L177.336 166.777C177.336 166.777 177.805 180.876 180.331 188.874C182.858 196.872 186.123 200.936 187.85 200.157C189.577 199.378 192.084 195.614 192.084 195.614" fill="#FFC100"/>
<path d="M191.275 186.538C191.275 186.538 187.201 181.685 185.953 177.921C184.705 174.156 181.879 166.937 181.879 166.937L177.336 166.777C177.336 166.777 177.805 180.876 180.331 188.874C182.858 196.872 186.123 200.936 187.85 200.157C189.577 199.378 192.084 195.614 192.084 195.614" stroke="#182F43" stroke-linecap="round" stroke-linejoin="round"/>
<path d="M186.581 148.938C185.401 149.802 184.611 151.098 184.384 152.543C184.064 153.791 183.445 154.26 181.388 154.111C181.03 154.056 180.665 154.074 180.314 154.161C179.963 154.248 179.632 154.404 179.341 154.62C179.262 154.293 179.215 153.958 179.202 153.621C179.202 152.503 181.109 150.047 181.977 149.338C182.846 148.629 184.114 147.59 183.974 146.642C183.835 145.693 180.25 147.75 179.222 148.469C178.193 149.188 177.634 152.114 177.634 152.114C177.103 153.913 177.055 155.821 177.494 157.645C177.384 157.885 177.285 158.115 177.175 158.384C175.767 161.829 177.334 166.532 177.334 166.532L181.878 166.692C181.878 166.692 181.408 164.345 182.187 163.397C182.965 162.167 183.858 161.014 184.853 159.952C186.101 158.854 186.73 155.568 186.73 154.78C186.873 153.323 187.244 151.898 187.829 150.556C188.458 149.088 187.988 148 186.581 148.938Z" fill="white" stroke="#182F43" stroke-linecap="round" stroke-linejoin="round"/>
<path d="M176.447 155.067C176.447 155.067 177.006 152.142 178.034 151.423C179.063 150.704 182.637 148.647 182.787 149.605C182.937 150.564 181.679 151.602 180.79 152.291C179.901 152.98 178.014 155.467 178.014 156.575C178.09 157.501 178.306 158.41 178.653 159.271C178.653 159.271 177.655 161.098 176.906 161.328C176.157 161.557 175.578 158.003 176.447 155.067Z" fill="white" stroke="#182F43" stroke-linecap="round" stroke-linejoin="round"/>
<path d="M176.607 156.816C176.607 156.816 177.166 153.88 178.194 153.171C179.223 152.463 182.788 150.396 182.947 151.344C183.107 152.293 181.839 153.341 180.95 154.04C180.062 154.739 178.174 157.215 178.174 158.324C178.25 159.249 178.466 160.158 178.813 161.02C178.813 161.02 177.815 162.837 177.066 163.077C176.317 163.316 175.738 159.752 176.607 156.816Z" fill="white" stroke="#182F43" stroke-linecap="round" stroke-linejoin="round"/>
<path d="M176.806 164.664C176.806 164.664 175.538 160.3 175.698 158.563C175.857 156.825 176.486 155.308 177.365 155.228C178.244 155.148 181.958 153.8 181.958 154.828C181.958 155.857 178.553 156.975 178.553 156.975C178.553 156.975 180.69 159.751 180.61 161.169C180.525 162.183 180.341 163.186 180.061 164.164" fill="white"/>
<path d="M176.806 164.664C176.806 164.664 175.538 160.3 175.698 158.563C175.857 156.825 176.486 155.308 177.365 155.228C178.244 155.148 181.958 153.8 181.958 154.828C181.958 155.857 178.553 156.975 178.553 156.975C178.553 156.975 180.69 159.751 180.61 161.169C180.525 162.183 180.341 163.186 180.061 164.164" stroke="#182F43" stroke-linecap="round" stroke-linejoin="round"/>
<path d="M204.934 218.803L208.858 221.678L218.014 311.663" stroke="white" stroke-width="0.75" stroke-linecap="round" stroke-linejoin="round"/>
<path d="M81.5105 174.887C81.5105 174.887 84.6058 182.686 84.7456 185.481C84.8854 188.277 84.1665 187.828 85.3347 191.472C86.5029 195.117 89.8978 203.824 91.8149 210.883C93.3347 216.643 94.0768 222.58 94.0216 228.537H72.2444C72.2444 228.537 73.862 224.123 69.4486 211.772C65.0353 199.42 63.2779 192.082 63.2779 188.567C63.2779 185.052 61.3608 181.507 60.6219 177.533C59.8831 173.559 62.2395 173.999 62.2395 173.999L80.0427 174.149C80.0427 174.149 81.2209 173.999 81.5105 174.887Z" fill="#182F43" stroke="#182F43" stroke-linecap="round" stroke-linejoin="round"/>
<path d="M60.502 175.766C60.6717 173.709 62.2393 173.998 62.2393 173.998L80.0425 174.148C80.0425 174.148 81.2207 173.998 81.5103 174.887C81.5103 174.887 84.6056 182.685 84.7454 185.481C84.7898 186.217 84.7697 186.955 84.6855 187.688L84.3061 188.267C84.3061 188.267 83.717 193.419 76.6576 193.719C69.5982 194.018 65.6742 190.773 64.1564 187.678C62.6387 184.582 62.0996 179.59 60.9213 176.694C60.8015 176.355 60.6517 176.105 60.502 175.766Z" fill="white" stroke="#182F43" stroke-linecap="round" stroke-linejoin="round"/>
<path d="M63.2772 188.568C63.2772 185.033 61.3601 181.508 60.6212 177.534C60.1119 174.788 61.0805 174.149 61.7295 174.02C61.9791 174.109 62.8877 174.639 64.0061 178.123C65.3341 182.237 64.5952 187.679 65.3341 192.102C66.0729 196.526 69.7474 206.231 72.3934 213.44C74.5701 219.371 75.0594 225.103 74.1707 228.587H72.2436C72.2436 228.587 73.8612 224.174 69.4479 211.823C65.0345 199.471 63.2772 192.082 63.2772 188.568Z" fill="white" stroke="#182F43" stroke-linecap="round" stroke-linejoin="round"/>
<path d="M172.244 228.319H154.53C154.209 228.291 153.911 228.143 153.694 227.906C153.476 227.668 153.355 227.358 153.355 227.036C153.355 226.714 153.476 226.403 153.694 226.166C153.911 225.928 154.209 225.781 154.53 225.753H172.244C172.714 225.761 173.18 225.658 173.603 225.453C174.026 225.248 174.395 224.946 174.68 224.572C174.965 224.197 175.158 223.761 175.243 223.299C175.328 222.836 175.302 222.36 175.169 221.908L168.879 199.392C168.787 199.065 168.83 198.715 168.996 198.42C169.163 198.124 169.44 197.906 169.767 197.815C170.094 197.723 170.444 197.766 170.74 197.932C171.036 198.099 171.254 198.376 171.345 198.703L177.635 221.22C177.866 222.051 177.902 222.925 177.739 223.772C177.577 224.62 177.221 225.418 176.699 226.105C176.177 226.792 175.503 227.35 174.73 227.734C173.958 228.118 173.106 228.318 172.244 228.319Z" fill="white" stroke="#182F43" stroke-linecap="round" stroke-linejoin="round"/>
<path d="M170.027 169.786L166.012 169.305L159.791 221.164L163.806 221.646L170.027 169.786Z" fill="white" stroke="#182F43" stroke-linecap="round" stroke-linejoin="round"/>
<path d="M170.047 169.766C173.975 187.255 171.779 205.563 163.826 221.627L170.047 169.766Z" fill="white" stroke="#182F43" stroke-linecap="round" stroke-linejoin="round"/>
<path d="M183.884 228.199H8.64844V304.584H183.884V228.199Z" fill="#182F43"/>
<path opacity="0.72" d="M183.884 228.199H8.64844V304.584H183.884V228.199Z" fill="white"/>
<path d="M183.884 228.199H8.64844V304.584H183.884V228.199Z" stroke="#182F43" stroke-linecap="round" stroke-linejoin="round"/>
<path d="M183.926 230.367H8.66992V232.903H183.926V230.367Z" fill="#182F43"/>
<path d="M185.383 226.701H4.15625V230.695H185.383V226.701Z" fill="white" stroke="#182F43" stroke-linecap="round" stroke-linejoin="round"/>
<path d="M359.169 168.196L339.479 168.365C339.479 168.365 338.181 168.196 337.851 169.174C337.851 169.174 334.437 177.801 334.267 180.897C334.097 183.992 334.926 183.493 333.618 187.567C332.31 191.64 328.575 201.236 326.459 209.054C323.613 219.558 322.874 230.701 322.694 241.535C322.694 243.273 321.626 258.24 324.332 258.24C326.578 258.24 347.297 260.986 347.547 256.992C348.545 241.076 345.67 225.519 351.201 210.063C353.348 204.072 355.804 197.701 357.632 191.411C359.459 185.12 359.768 178.58 360.957 172.14C361.775 167.706 359.169 168.196 359.169 168.196Z" fill="#182F43" stroke="#182F43" stroke-linecap="round" stroke-linejoin="round"/>
<path d="M361.096 170.115C360.906 167.848 359.169 168.168 359.169 168.168L339.479 168.338C339.479 168.338 338.181 168.168 337.851 169.146C337.851 169.146 334.436 177.773 334.266 180.869C334.224 181.685 334.248 182.503 334.336 183.315L334.756 183.954C334.756 183.954 335.405 189.655 343.223 189.945C351.041 190.235 355.425 186.69 357.052 183.275C358.68 179.86 359.329 174.289 360.637 171.073C360.766 170.804 360.926 170.474 361.096 170.115Z" fill="white" stroke="#182F43" stroke-linecap="round" stroke-linejoin="round"/>
<path d="M356.533 176.504C355.215 181.257 356.004 182.585 354.686 190.772C353.368 198.96 348.615 208.196 346.758 216.653C344.9 225.111 345.759 254.956 345.969 256.274C346.068 256.975 346.108 257.683 346.089 258.39C346.967 258.061 347.506 257.602 347.546 256.983C348.545 241.067 345.669 225.51 351.201 210.053C353.348 204.062 355.804 197.692 357.631 191.401C359.458 185.111 359.768 178.571 360.956 172.13C361.455 169.434 360.667 168.576 359.958 168.326C358.475 170.896 357.325 173.644 356.533 176.504Z" fill="white" stroke="#182F43" stroke-linecap="round" stroke-linejoin="round"/>
<path d="M302.905 176.985C299.983 178.306 297.157 179.831 294.448 181.548C292.001 183.335 292.451 187.729 292.451 188.867C292.451 190.005 285.941 200.589 287.079 204.333C288.217 208.078 290.983 218.003 291.153 220.309C291.322 222.616 290.823 229.096 290.823 229.096H321.587C321.509 223.334 321.782 217.572 322.406 211.842C323.404 204.523 325.501 201.917 325.501 190.694C325.501 179.471 313.289 177.344 310.204 177.015C307.775 176.829 305.336 176.819 302.905 176.985Z" fill="white" stroke="#182F43" stroke-linecap="round" stroke-linejoin="round"/>
<path d="M287.118 204.334C288.116 207.719 290.513 216.157 291.112 219.422C291.112 218.024 291.112 216.676 291.062 215.557C290.902 210.845 291.062 204.165 295.785 193.261C299.409 184.884 301.496 179.402 302.265 177.285C299.573 178.51 296.974 179.929 294.487 181.529C292.041 183.316 292.49 187.709 292.49 188.848C292.49 189.986 285.98 200.59 287.118 204.334Z" fill="#AA4337" stroke="#182F43" stroke-linecap="round" stroke-linejoin="round"/>
<path d="M262.545 227.766C262.545 227.766 260.418 230.981 258.921 233.028C257.423 235.075 255.006 239.019 256.684 239.189C258.361 239.359 260.229 237.701 262.096 236.762C263.362 235.972 264.342 234.796 264.892 233.408C264.892 233.408 264.332 236.952 265.64 236.203C266.948 235.454 266.948 232.848 266.948 231.161C266.993 229.727 267.116 228.297 267.318 226.877C267.318 226.877 264.862 224.731 262.545 227.766Z" fill="white" stroke="#182F43" stroke-linecap="round" stroke-linejoin="round"/>
<path d="M263.544 231.922C263.544 231.922 254.468 231.922 252.99 232.771C251.512 233.619 246.45 257.453 242.236 267.159C242.236 267.159 238.861 275.596 236.115 279.61C235.117 281.018 230.624 282.775 227.458 283.604C224.293 284.433 223.035 285.082 223.464 285.93C223.894 286.779 230.454 288.247 233.379 288.676C236.305 289.106 238.232 288.247 239.081 288.247C239.929 288.247 240.978 289.305 242.665 288.676C244.353 288.047 243.294 283.604 243.294 281.078C243.294 278.552 246.46 269.475 250.044 265.671C253.629 261.867 260.598 247.319 262.076 242.885C263.554 238.452 263.973 237.404 263.973 237.404" fill="white"/>
<path d="M263.544 231.922C263.544 231.922 254.468 231.922 252.99 232.771C251.512 233.619 246.45 257.453 242.236 267.159C242.236 267.159 238.861 275.596 236.115 279.61C235.117 281.018 230.624 282.775 227.458 283.604C224.293 284.433 223.035 285.082 223.464 285.93C223.894 286.779 230.454 288.247 233.379 288.676C236.305 289.106 238.232 288.247 239.081 288.247C239.929 288.247 240.978 289.305 242.665 288.676C244.353 288.047 243.294 283.604 243.294 281.078C243.294 278.552 246.46 269.475 250.044 265.671C253.629 261.867 260.598 247.319 262.076 242.885C263.554 238.452 263.973 237.404 263.973 237.404" stroke="#182F43" stroke-linecap="round" stroke-linejoin="round"/>
<path d="M261.358 237.013C259.713 237.709 258.318 238.888 257.358 240.395C256.399 241.902 255.92 243.665 255.986 245.451C255.986 251.981 265.582 293.428 265.582 295.725C265.697 297.752 265.34 299.778 264.54 301.644C263.739 303.51 262.517 305.165 260.969 306.479C260.28 307.108 256.276 309.923 256.735 311.221C257.494 313.358 262.856 311.281 264.164 310.722C266.531 309.724 269.157 305.55 271.723 305.73C274.449 305.89 274.788 304.581 274.788 301.886C274.788 299.19 271.793 295.825 271.433 291.98C271.074 288.136 269.826 274.587 270.974 268.106C272.032 262.116 266.73 247.008 266.73 247.008C266.73 247.008 283.026 256.993 297.394 253.508C311.762 250.024 283.994 243.943 279.781 240.868C275.567 237.792 264.813 234.687 261.358 237.013Z" fill="white" stroke="#182F43" stroke-linecap="round" stroke-linejoin="round"/>
<path d="M256.364 236.564C256.364 236.564 263.543 244.372 272.66 247.996L275.825 232.6C275.825 232.6 262.315 230.273 253.029 232.809" fill="white"/>
<path d="M256.364 236.564C256.364 236.564 263.543 244.372 272.66 247.996L275.825 232.6C275.825 232.6 262.315 230.273 253.029 232.809" stroke="#182F43" stroke-linecap="round" stroke-linejoin="round"/>
<path d="M321.586 229.025C321.508 223.262 321.781 217.5 322.405 211.771C323.403 204.452 325.5 201.846 325.5 190.623C325.5 180.168 314.926 177.642 310.972 177.043C310.05 178.549 309.3 180.153 308.735 181.826C308.406 183.453 301.406 197.612 299.749 208.196C298.451 216.653 299.539 225.72 300.028 229.025H290.802L291.232 232.34L273.958 231.581L269.664 248.805C269.664 248.805 278.97 252.799 285.7 255.555C292.43 258.31 305.969 260.887 314.087 258.33C320.777 256.234 325.759 252.619 324.851 245.08C324.17 239.654 323.079 234.286 321.586 229.025Z" fill="#AA4337" stroke="#182F43" stroke-linecap="round" stroke-linejoin="round"/>
<path d="M302.226 177.303L293.788 189.514L294.767 192.28L292.001 195.375L291.512 204.332" stroke="#182F43" stroke-linecap="round" stroke-linejoin="round"/>
<path d="M310.064 181.867L309.575 191.632L306.16 193.749L307.458 196.355L300.788 208.886" stroke="#182F43" stroke-linecap="round" stroke-linejoin="round"/>
<path d="M296.064 148.15C296.064 148.15 294.137 152.484 294.297 153.772C294.457 155.06 294.147 156.578 292.899 157.067C291.651 157.556 290.293 158.535 290.902 159.603C291.338 160.252 291.933 160.778 292.63 161.131C292.63 161.131 291.811 166.483 292.31 167.891C292.809 169.298 293.798 171.974 295.415 171.775C297.033 171.575 301.087 171.235 301.087 171.235C301.948 173.874 302.082 176.695 301.476 179.403C300.478 184.126 296.923 188.519 300.827 189.488C304.731 190.456 307.018 185.424 308.815 181.839C310.613 178.255 311.551 173.562 312.36 170.856C313.169 168.15 314.357 165.364 314.357 165.364C312.602 164.823 311.005 163.863 309.704 162.567C308.403 161.271 307.437 159.678 306.888 157.926C304.632 151.645 304.761 147.361 301.376 146.473C300.425 146.182 299.408 146.186 298.46 146.486C297.511 146.785 296.676 147.366 296.064 148.15Z" fill="white" stroke="#182F43" stroke-linecap="round" stroke-linejoin="round"/>
<path d="M299.021 166.758C299.021 166.758 299.361 169.504 302.446 167.976" stroke="#182F43" stroke-linecap="round" stroke-linejoin="round"/>
<path d="M302.714 143.515C302.714 143.515 299.24 143.285 296.923 143.075C294.607 142.866 293.688 146.071 294.227 147.838C294.766 149.606 295.295 149.835 295.295 149.835C295.295 149.835 298.511 147.968 298.83 149.236C299.15 150.504 296.174 153.01 297.742 155.117C299.309 157.224 301.816 158.872 300.528 160.349C299.24 161.827 299.889 163.215 301.027 163.075C302.165 162.935 303.693 160.779 304.312 163.155C304.931 165.532 302.045 167.369 302.664 168.447C303.283 169.525 309.205 170.913 310.862 169.725C312.52 168.537 316.643 167.379 318.59 160.579C320.537 153.779 318.59 148.937 314.497 144.683C310.403 140.429 303.403 143.754 303.403 143.754L302.714 143.515Z" fill="#182F43" stroke="#182F43" stroke-linecap="round" stroke-linejoin="round"/>
<path d="M309.045 148.977C309.693 149.29 310.3 149.682 310.852 150.145" stroke="white" stroke-width="0.75" stroke-linecap="round" stroke-linejoin="round"/>
<path d="M298.87 147.898C301.728 147.395 304.663 147.542 307.457 148.327" stroke="white" stroke-width="0.75" stroke-linecap="round" stroke-linejoin="round"/>
<path d="M262.546 227.766L263.035 226.628C263.524 225.49 268.747 224.521 273.909 223.782C282.266 222.594 286.35 221.256 291.193 220.278C297.184 219.059 303.554 217.512 303.554 217.512C303.554 217.512 314.298 219.948 312.541 223.503C310.783 227.057 305.861 227.736 305.861 227.736H265.062C265.155 228.222 265.064 228.724 264.808 229.146C264.551 229.569 264.147 229.881 263.674 230.023" fill="white"/>
<path d="M262.546 227.766L263.035 226.628C263.524 225.49 268.747 224.521 273.909 223.782C282.266 222.594 286.35 221.256 291.193 220.278C297.184 219.059 303.554 217.512 303.554 217.512C303.554 217.512 314.298 219.948 312.541 223.503C310.783 227.057 305.861 227.736 305.861 227.736H265.062C265.155 228.222 265.064 228.724 264.808 229.146C264.551 229.569 264.147 229.881 263.674 230.023" stroke="#182F43" stroke-linecap="round" stroke-linejoin="round"/>
<path d="M310.234 198.141C310.234 198.141 308.117 207.586 306.809 210.023C305.501 212.459 302.745 211.65 302.905 213.118C303.045 214.126 303.32 215.11 303.724 216.044C303.724 216.044 301.727 216.044 301.727 216.862C301.727 217.681 304.003 220.607 306.939 222.065C309.874 223.522 311.981 225.16 313.279 223.532C314.577 221.905 315.885 218.809 315.725 218.16C315.566 217.511 316.864 218.65 318.002 217.162C318.416 216.64 318.719 216.038 318.89 215.394C319.062 214.749 319.1 214.077 319.001 213.418C319.001 212.12 323.224 201.545 323.713 200.567" fill="#AA4337"/>
<path d="M310.234 198.141C310.234 198.141 308.117 207.586 306.809 210.023C305.501 212.459 302.745 211.65 302.905 213.118C303.045 214.126 303.32 215.11 303.724 216.044C303.724 216.044 301.727 216.044 301.727 216.862C301.727 217.681 304.003 220.607 306.939 222.065C309.874 223.522 311.981 225.16 313.279 223.532C314.577 221.905 315.885 218.809 315.725 218.16C315.566 217.511 316.864 218.65 318.002 217.162C318.416 216.64 318.719 216.038 318.89 215.394C319.062 214.749 319.1 214.077 319.001 213.418C319.001 212.12 323.224 201.545 323.713 200.567" stroke="#182F43" stroke-linecap="round" stroke-linejoin="round"/>
<path d="M307.119 214.896C309.924 215.335 312.675 216.068 315.327 217.083" stroke="#182F43" stroke-width="0.75" stroke-linecap="round" stroke-linejoin="round"/>
<path d="M304.662 214.348C304.662 214.348 307.658 219.27 312.321 220.089" stroke="#182F43" stroke-width="0.75" stroke-linecap="round" stroke-linejoin="round"/>
<path d="M316.474 154.817C316.474 154.817 316.794 159.7 312.57 167.348C308.347 174.997 302.475 189.645 306.709 197.613C310.943 205.581 322.495 203.963 325.75 196.804C329.005 189.645 326.889 171.412 323.474 163.764C320.059 156.115 318.591 153.35 318.591 153.35C318.591 153.35 316.594 152.371 316.474 154.817Z" fill="#182F43" stroke="#182F43" stroke-linecap="round" stroke-linejoin="round"/>
<path d="M318.033 198.662C319.608 198.645 321.129 198.084 322.337 197.074" stroke="white" stroke-width="0.75" stroke-linecap="round" stroke-linejoin="round"/>
<path d="M317.343 157.883C318.229 167.473 317.211 177.144 314.347 186.34C312.52 191.912 312.79 195.716 315.056 197.563" stroke="white" stroke-width="0.75" stroke-linecap="round" stroke-linejoin="round"/>
<path d="M316.844 163.875C316.844 163.875 311.851 176.606 307.857 185.343C303.863 194.079 307.358 199.571 313.349 200.819" stroke="white" stroke-width="0.75" stroke-linecap="round" stroke-linejoin="round"/>
<path d="M300.09 229.025C300.09 229.025 299.351 237.333 300.888 238.481C302.426 239.629 313.549 243.094 320.858 240.788" stroke="#182F43" stroke-linecap="round" stroke-linejoin="round"/>
<path d="M291.293 232.381L298.203 233.539" stroke="#182F43" stroke-linecap="round" stroke-linejoin="round"/>
<path d="M264.164 310.703C266.53 309.705 269.156 305.531 271.722 305.711C274.448 305.871 274.788 304.563 274.788 301.867C274.705 300.754 274.396 299.67 273.879 298.682C273.809 298.801 273.739 298.911 273.669 299.041C272.081 302.171 269.366 304.583 266.071 305.791C264.713 306.301 263.215 306.301 261.857 305.791L261.538 305.921C261.358 306.11 261.168 306.29 260.968 306.48C260.28 307.109 256.276 309.925 256.735 311.223C257.494 313.34 262.856 311.263 264.164 310.703Z" fill="#AA4337" stroke="#182F43" stroke-linecap="round" stroke-linejoin="round"/>
<path d="M230.344 282.715C229.345 283.074 228.347 283.384 227.458 283.614C224.293 284.462 223.035 285.091 223.464 285.94C223.894 286.789 230.454 288.257 233.379 288.686C236.305 289.115 238.232 288.257 239.081 288.257C239.929 288.257 240.978 289.315 242.665 288.686C244.083 288.147 243.564 284.952 243.364 282.445C241.149 283.157 238.862 283.622 236.545 283.833C232.251 284.173 230.723 283.124 230.344 282.715Z" fill="#AA4337" stroke="#182F43" stroke-linecap="round" stroke-linejoin="round"/>
<path d="M318.502 296.683L318.372 296.583V278.201H321.008V266.578H311.233V278.201H313.879V296.922L290.504 304.371V306.228C290.541 306.763 290.779 307.264 291.171 307.63C291.563 307.996 292.079 308.2 292.616 308.2C293.152 308.2 293.668 307.996 294.06 307.63C294.452 307.264 294.691 306.763 294.728 306.228V305.909L314.278 303.632V306.438C314.278 306.928 314.473 307.398 314.819 307.744C315.166 308.091 315.635 308.285 316.125 308.285C316.615 308.285 317.085 308.091 317.431 307.744C317.778 307.398 317.973 306.928 317.973 306.438V303.542L338.312 305.909V306.178C338.349 306.713 338.587 307.215 338.979 307.58C339.371 307.946 339.887 308.15 340.424 308.15C340.96 308.15 341.476 307.946 341.868 307.58C342.26 307.215 342.499 306.713 342.535 306.178V304.321L318.502 296.683Z" fill="#182F43" stroke="#182F43" stroke-linecap="round" stroke-linejoin="round"/>
<path d="M345.051 255.236H289.635C287.429 255.236 285.641 257.024 285.641 259.23V264.722C285.641 266.928 287.429 268.716 289.635 268.716H345.051C347.257 268.716 349.045 266.928 349.045 264.722V259.23C349.045 257.024 347.257 255.236 345.051 255.236Z" fill="#182F43" stroke="#182F43" stroke-linecap="round" stroke-linejoin="round"/>
<path d="M233.47 225.301H260.889V193.629H233.47V225.301Z" fill="white" stroke="#182F43" stroke-linecap="round" stroke-linejoin="round"/>
<path d="M263.017 226.72H232.054V198.123H246.712L263.017 226.72Z" fill="white" stroke="#182F43" stroke-linecap="round" stroke-linejoin="round"/>
<path d="M225.414 228.317H243.127C243.448 228.289 243.747 228.141 243.964 227.904C244.182 227.666 244.302 227.356 244.302 227.034C244.302 226.712 244.182 226.402 243.964 226.164C243.747 225.927 243.448 225.779 243.127 225.751H225.414C224.991 225.749 224.573 225.659 224.186 225.487C223.8 225.315 223.453 225.065 223.168 224.752C222.821 224.374 222.577 223.912 222.46 223.412C222.342 222.912 222.356 222.39 222.499 221.897L228.779 199.381C228.87 199.054 228.828 198.704 228.661 198.408C228.495 198.112 228.217 197.894 227.89 197.803C227.563 197.712 227.213 197.754 226.918 197.921C226.622 198.087 226.404 198.365 226.313 198.692L220.022 221.208C219.792 222.039 219.756 222.913 219.919 223.76C220.081 224.608 220.437 225.406 220.959 226.093C221.481 226.781 222.155 227.338 222.927 227.722C223.7 228.106 224.551 228.306 225.414 228.307V228.317Z" fill="white" stroke="#182F43" stroke-linecap="round" stroke-linejoin="round"/>
<path d="M233.799 221.65L237.814 221.168L231.594 169.308L227.579 169.79L233.799 221.65Z" fill="white" stroke="#182F43" stroke-linecap="round" stroke-linejoin="round"/>
<path d="M227.609 169.764C223.678 187.252 225.87 205.56 233.82 221.625L227.609 169.764Z" fill="white" stroke="#182F43" stroke-linecap="round" stroke-linejoin="round"/>
<path d="M372.331 228.197H210.325V319.56H372.331V228.197Z" fill="#182F43"/>
<path opacity="0.72" d="M372.331 228.197H210.325V319.56H372.331V228.197Z" fill="white"/>
<path d="M372.331 228.197H210.325V319.56H372.331V228.197Z" stroke="#182F43" stroke-linecap="round" stroke-linejoin="round"/>
<path d="M372.211 230.393H210.405V232.919H372.211V230.393Z" fill="#182F43"/>
<path d="M373.51 226.697H206.791V230.691H373.51V226.697Z" fill="white" stroke="#182F43" stroke-linecap="round" stroke-linejoin="round"/>
<path d="M107.2 219.092L104.704 221.089C104.704 221.089 97.5949 224.833 96.217 225.951C94.8391 227.07 95.8475 228.198 96.5964 229.576C97.3453 230.954 100.96 232.442 102.208 232.442C103.456 232.442 109.197 229.696 110.076 228.078C110.955 226.461 111.823 220.709 111.823 220.709L107.2 219.092Z" fill="white" stroke="#182F43" stroke-linecap="round" stroke-linejoin="round"/>
<path d="M105.911 224.703L105.542 227.699C105.542 227.699 100.42 230.694 100.919 231.573C101.418 232.451 101.918 232.192 104.913 231.323C107.908 230.454 109.905 228.827 110.035 228.078" stroke="#182F43" stroke-linecap="round" stroke-linejoin="round"/>
<path d="M100.461 224.082L101.709 229.943" stroke="#182F43" stroke-linecap="round" stroke-linejoin="round"/>
<path d="M97.7148 225.451L100.341 231.822" stroke="#182F43" stroke-linecap="round" stroke-linejoin="round"/>
<path d="M96.5957 226.453C96.5957 226.453 97.2148 229.948 98.7125 231.076" stroke="#182F43" stroke-linecap="round" stroke-linejoin="round"/>
<path d="M108.079 215.098L107.08 219.591L111.823 220.709L113.94 215.717L108.079 215.098Z" fill="#AA4337" stroke="#182F43" stroke-linecap="round" stroke-linejoin="round"/>
<path d="M100.919 164.482C100.511 167.413 100.643 170.395 101.308 173.279C102.427 177.153 107.17 196.374 107.799 197.742C108.428 199.11 108.298 201.237 107.919 203.483C107.539 205.73 109.047 211.102 109.047 211.471C109.047 211.841 106.92 213.348 106.8 214.846C106.68 216.344 109.167 217.342 111.413 217.592C113.66 217.841 115.158 217.592 116.536 211.351C117.913 205.111 113.909 196.743 111.413 186.888C108.917 177.033 105.552 169.784 105.053 167.787C104.554 165.79 101.678 162.175 100.919 164.482Z" fill="#AA4337" stroke="#182F43" stroke-linecap="round" stroke-linejoin="round"/>
<path d="M127.051 300.758C127.051 300.758 129.547 304.083 129.048 305.081C128.549 306.08 123.387 307.578 122.388 308.416C120.919 309.879 119.079 310.914 117.066 311.412C113.901 312.241 106.243 313.569 107.081 312.241C107.92 310.913 117.396 304.083 117.396 304.083C120.555 302.808 123.777 301.699 127.051 300.758Z" fill="white" stroke="#182F43" stroke-linecap="round" stroke-linejoin="round"/>
<path d="M128.419 304.332C128.419 304.332 122.817 306.329 121.02 307.727C119.957 308.563 118.821 309.302 117.625 309.934" stroke="#182F43" stroke-width="0.75" stroke-linecap="round" stroke-linejoin="round"/>
<path d="M122.218 290.273L127.051 300.758C127.051 300.758 126.881 301.427 123.885 302.755C121.821 303.588 119.621 304.038 117.395 304.083L115.229 296.264L122.218 290.273Z" fill="#182F43" stroke="#182F43" stroke-linecap="round" stroke-linejoin="round"/>
<path d="M114.069 212.56C114.069 212.56 110.235 214.887 110.075 215.885C110.132 217.347 110.353 218.797 110.734 220.209C110.734 220.209 102.916 236.524 100.589 240.678C98.263 244.832 94.928 252.989 98.253 258.152C101.578 263.314 111.573 287.607 111.573 287.607L108.238 306.249L116.725 308.416C116.725 308.416 121.887 294.437 123.715 289.275C125.542 284.112 129.875 270.803 130.544 266.14C131.213 261.477 131.703 254.827 131.872 254.327C132.042 253.828 146.52 232.69 148.517 227.867C150.514 223.044 150.344 212.89 149.346 210.723C148.347 208.556 114.069 212.56 114.069 212.56Z" fill="#182F43" stroke="#182F43" stroke-linecap="round" stroke-linejoin="round"/>
<path d="M124.054 218.211L119.561 220.378L124.383 223.533L116.895 222.534L124.713 225.53" stroke="white" stroke-width="0.75" stroke-linecap="round" stroke-linejoin="round"/>
<path d="M136.367 220.381L127.211 224.035C127.211 224.035 138.694 221.869 143.856 222.038" stroke="#182F43" stroke-linecap="round" stroke-linejoin="round"/>
<path d="M125.881 226.371C125.881 226.371 114.398 251.503 114.398 256.156C114.398 260.809 112.73 286.451 112.73 286.451" stroke="white" stroke-width="0.75" stroke-linecap="round" stroke-linejoin="round"/>
<path d="M116.637 155.338C116.637 155.338 101.29 162.907 100.951 164.484C100.611 166.062 102.418 170.575 102.418 170.575C102.418 170.575 111.894 201.399 112.683 203.885C113.472 206.371 113.811 206.93 113.022 208.168C112.234 209.407 111.215 211.673 112.344 212.911C113.472 214.149 121.04 216.416 125.893 216.416C130.746 216.416 139.443 214.948 145.084 213.59C150.726 212.232 150.506 209.756 150.276 207.16C150.047 204.564 146.782 160.081 146.782 158.383C146.782 156.686 134.8 154.21 130.746 153.98C126.692 153.75 117.995 153.98 116.637 155.338Z" fill="#AA4337" stroke="#182F43" stroke-linecap="round" stroke-linejoin="round"/>
<path d="M118.292 163.026L122.176 174.01L128.417 162.876C128.417 162.876 126.73 157.484 122.176 157.824C117.623 158.163 118.292 163.026 118.292 163.026Z" fill="#182F43" stroke="#182F43" stroke-linecap="round" stroke-linejoin="round"/>
<path d="M122.179 173.988C122.179 173.988 120.182 204.512 120.182 206.03C120.182 207.548 118.664 212.44 118.664 212.44L122.039 216.314C122.039 216.314 127.431 212.44 128.28 209.575C129.128 206.709 122.179 173.988 122.179 173.988Z" fill="#182F43" stroke="#182F43" stroke-linecap="round" stroke-linejoin="round"/>
<path d="M116.637 154.32C116.637 154.32 115.848 159.063 116.297 161.099C116.746 163.136 114.829 167.759 115.738 168.319C116.647 168.878 119.682 162.787 119.682 162.787L123.077 168.548L125.333 162.447C125.333 162.447 128.489 168.658 129.397 168.099C130.306 167.54 128.828 163.696 130.186 161.778C130.898 160.589 131.354 159.265 131.526 157.89C131.698 156.514 131.582 155.118 131.185 153.79C130.386 150.745 127.121 150.745 124.405 151.075C121.689 151.404 118.554 151.384 116.637 154.32Z" fill="#AA4337" stroke="#182F43" stroke-linecap="round" stroke-linejoin="round"/>
<path d="M116.637 155.338C116.637 155.338 120.251 160.33 120.93 162.677C121.609 165.023 122.618 170.016 123.077 168.548C123.536 167.08 123.297 161.439 126.013 158.273C128.728 155.108 128.01 152.852 128.01 152.852C128.01 152.852 124.545 157.135 116.637 155.338Z" fill="white" stroke="#182F43" stroke-linecap="round" stroke-linejoin="round"/>
<path d="M109.418 146.311C109.418 146.311 113.811 154.998 118.335 157.295C122.858 159.591 127.591 157.185 128.829 153.69C130.067 150.196 128.939 145.702 128.939 145.702C128.939 145.702 131.425 144.235 131.764 142.317C132.104 140.4 132.443 139.721 129.847 138.254C128.85 137.616 127.789 137.084 126.682 136.666C126.682 136.666 126.572 132.832 124.316 131.594C122.059 130.355 117.326 131.024 114.49 134.07C111.655 137.115 109.418 146.311 109.418 146.311Z" fill="white" stroke="#182F43" stroke-linecap="round" stroke-linejoin="round"/>
<path d="M116.895 145.402C117.681 146.523 118.325 147.737 118.812 149.017C119.041 150.145 118.133 151.503 119.491 151.503C119.891 151.503 120.287 151.422 120.656 151.266C121.025 151.11 121.358 150.882 121.637 150.595" stroke="#182F43" stroke-linecap="round" stroke-linejoin="round"/>
<path d="M119.453 141.978C119.453 141.978 120.022 139.981 122.658 140.371" stroke="#182F43" stroke-linecap="round" stroke-linejoin="round"/>
<path d="M115.109 143.765C115.109 143.765 113.112 143.206 111.234 145.562" stroke="#182F43" stroke-linecap="round" stroke-linejoin="round"/>
<path d="M120.391 151.514L121.149 153.76C122.233 153.547 123.234 153.031 124.035 152.27C124.835 151.51 125.404 150.538 125.673 149.467" stroke="#182F43" stroke-linecap="round" stroke-linejoin="round"/>
<path d="M117.425 147.719C117.425 148.333 117.243 148.933 116.902 149.444C116.561 149.954 116.076 150.353 115.509 150.588C114.941 150.823 114.317 150.884 113.714 150.764C113.112 150.644 112.559 150.349 112.124 149.914C111.69 149.48 111.394 148.927 111.275 148.324C111.155 147.722 111.216 147.098 111.451 146.53C111.686 145.963 112.084 145.478 112.595 145.137C113.106 144.795 113.706 144.613 114.32 144.613C114.728 144.613 115.132 144.694 115.509 144.85C115.885 145.006 116.228 145.234 116.516 145.523C116.804 145.811 117.033 146.153 117.189 146.53C117.345 146.907 117.425 147.311 117.425 147.719V147.719Z" stroke="#182F43" stroke-width="0.5" stroke-linecap="round" stroke-linejoin="round"/>
<path d="M125.213 143.487L128.608 140.441" stroke="#182F43" stroke-width="0.5" stroke-linecap="round" stroke-linejoin="round"/>
<path d="M125.332 144.443C125.332 145.057 125.15 145.658 124.808 146.168C124.467 146.679 123.982 147.077 123.415 147.312C122.847 147.547 122.223 147.609 121.621 147.489C121.018 147.369 120.465 147.073 120.031 146.639C119.596 146.205 119.301 145.651 119.181 145.049C119.061 144.447 119.122 143.822 119.357 143.255C119.593 142.687 119.991 142.202 120.501 141.861C121.012 141.52 121.612 141.338 122.226 141.338C123.05 141.338 123.84 141.665 124.422 142.247C125.005 142.83 125.332 143.62 125.332 144.443V144.443Z" stroke="#182F43" stroke-width="0.5" stroke-linecap="round" stroke-linejoin="round"/>
<path d="M123.145 144.094C123.305 144.443 123.245 144.823 123.005 144.933C122.766 145.043 122.446 144.833 122.286 144.473C122.127 144.114 122.187 143.745 122.426 143.635C122.666 143.525 122.985 143.735 123.145 144.094Z" fill="#182F43"/>
<path d="M116.198 146.882C116.358 147.241 116.298 147.621 116.058 147.721C115.818 147.82 115.499 147.631 115.339 147.271C115.179 146.912 115.239 146.542 115.479 146.432C115.719 146.323 116.038 146.522 116.198 146.882Z" fill="#182F43"/>
<path d="M116.895 146.531C116.895 146.531 118.133 144.954 119.261 145.633" stroke="#182F43" stroke-width="0.5" stroke-linecap="round" stroke-linejoin="round"/>
<path d="M118.782 136.167C118.782 136.167 114.948 140.34 112.012 144.155C110.951 145.667 109.78 147.099 108.508 148.438C107.811 147.152 107.207 145.817 106.7 144.444C106.342 143.369 105.929 142.312 105.462 141.279L104.464 143.536C104.464 143.536 101.528 132.552 104.693 127.51C107.859 122.467 115.008 121.139 120.43 123.056C125.852 124.974 126.59 129.996 127.609 132.592C128.627 135.188 129.526 138.453 129.526 138.453L128.058 141.618C128.058 141.618 125.352 139.252 123.994 138.004C123.149 137.197 122.527 136.186 122.187 135.068C122.187 135.068 119.931 137.784 119.252 138.573C118.887 139.012 118.421 139.355 117.894 139.572L118.782 136.167Z" fill="#182F43" stroke="#182F43" stroke-linecap="round" stroke-linejoin="round"/>
<path d="M119.83 125.512C118.604 130.552 116.057 135.173 112.451 138.902" stroke="white" stroke-width="0.75" stroke-linecap="round" stroke-linejoin="round"/>
<path d="M121.2 126.332C121.463 129.228 120.993 132.143 119.832 134.809" stroke="white" stroke-width="0.75" stroke-linecap="round" stroke-linejoin="round"/>
<path d="M145.853 157.285C145.853 157.285 150.206 158.423 151.724 160.51C153.242 162.597 163.466 191.384 163.846 196.306C164.225 201.229 162.707 211.454 163.087 212.592C163.466 213.73 164.605 215.248 163.466 215.817C162.43 216.456 161.475 217.217 160.621 218.084C158.149 217.963 155.686 217.71 153.242 217.325C152.103 216.945 150.586 214.489 151.724 212.971C152.548 211.951 153.015 210.688 153.052 209.377C153.052 208.618 150.685 199.302 150.685 197.395C150.692 195.66 150.599 193.926 150.406 192.203C149.739 189.427 148.919 186.69 147.95 184.005C144.911 178.488 143.401 172.259 143.576 165.962" fill="#AA4337"/>
<path d="M145.853 157.285C145.853 157.285 150.206 158.423 151.724 160.51C153.242 162.597 163.466 191.384 163.846 196.306C164.225 201.229 162.707 211.454 163.087 212.592C163.466 213.73 164.605 215.248 163.466 215.817C162.43 216.456 161.475 217.217 160.621 218.084C158.149 217.963 155.686 217.71 153.242 217.325C152.103 216.945 150.586 214.489 151.724 212.971C152.548 211.951 153.015 210.688 153.052 209.377C153.052 208.618 150.685 199.302 150.685 197.395C150.692 195.66 150.599 193.926 150.406 192.203C149.739 189.427 148.919 186.69 147.95 184.005C144.911 178.488 143.401 172.259 143.576 165.962" stroke="#182F43" stroke-linecap="round" stroke-linejoin="round"/>
<path d="M153.28 217.324L152.9 220.929L159.151 221.867L160.659 218.083L153.28 217.324Z" fill="#AA4337" stroke="#182F43" stroke-linecap="round" stroke-linejoin="round"/>
<path d="M152.901 220.93C152.901 220.93 145.702 224.145 145.133 225.093C144.564 226.042 143.425 230.585 142.667 231.154C141.908 231.723 141.159 232.482 143.236 232.293C145.313 232.103 145.892 230.965 145.892 230.965C145.793 231.663 145.793 232.373 145.892 233.071C147.452 233.26 149.023 233.357 150.595 233.361C151.065 233.423 151.542 233.423 152.013 233.361C152.013 233.361 151.633 234.27 152.342 234.569C153.051 234.869 153.011 234.19 153.47 233.571C154.023 232.541 154.493 231.469 154.878 230.365C155.109 229.804 155.277 229.217 155.377 228.618C156.517 228.002 157.557 227.218 158.463 226.292C159.461 225.083 158.922 221.589 158.922 221.589L152.901 220.93Z" fill="white" stroke="#182F43" stroke-linecap="round" stroke-linejoin="round"/>
<path d="M145.893 230.964L146.272 226.201" stroke="#182F43" stroke-linecap="round" stroke-linejoin="round"/>
<path d="M147.77 233.32L148.389 226.58" stroke="#182F43" stroke-linecap="round" stroke-linejoin="round"/>
<path d="M150.137 233.19L151.135 226.949" stroke="#182F43" stroke-linecap="round" stroke-linejoin="round"/>
<path d="M152.051 233.319C152.051 233.319 152.88 227.947 153.049 227.328" stroke="#182F43" stroke-linecap="round" stroke-linejoin="round"/>
<path d="M108.239 306.25C108.239 306.25 105.413 308.746 104.914 309.076C104.415 309.405 95.2584 314.408 95.4281 315.736C95.5979 317.064 105.084 316.405 110.406 315.067C115.728 313.729 116.067 313.239 116.227 312.411C116.387 311.582 116.726 308.417 116.726 308.417L108.239 306.25Z" fill="white" stroke="#182F43" stroke-linecap="round" stroke-linejoin="round"/>
<path d="M97.2344 315.127C97.2344 315.127 109.825 314.928 114.828 311.732" stroke="#182F43" stroke-width="0.75" stroke-linecap="round" stroke-linejoin="round"/>
<path d="M40.4709 307.848C40.4709 307.848 51.0949 310.714 53.6311 312.911C56.1672 315.107 48.5687 315.776 43.8458 315.606C39.1229 315.437 38.6237 314.089 35.2488 314.089C31.8739 314.089 28.8384 315.606 28.3292 312.571C27.82 309.536 32.0436 308.357 34.9093 307.678C36.7498 307.286 38.6578 307.344 40.4709 307.848Z" fill="white" stroke="#182F43" stroke-linecap="round" stroke-linejoin="round"/>
<path d="M37.4062 312.73C37.4062 312.73 42.6084 316.125 51.8045 314.128" stroke="#182F43" stroke-width="0.75" stroke-linecap="round" stroke-linejoin="round"/>
<path d="M29.8477 309.536C32.4274 311.208 35.1351 312.674 37.9455 313.92C41.6599 315.437 44.3558 315.917 42.6684 317.295C40.9809 318.672 40.4717 318.812 36.258 319.651C32.0444 320.49 23.6071 318.303 22.7684 318.303C21.9297 318.303 21.0809 319.302 18.7744 318.473C16.4679 317.644 16.0785 316.476 16.9172 313.75C17.7559 311.024 28.4997 308.688 29.8477 309.536Z" fill="white" stroke="#182F43" stroke-linecap="round" stroke-linejoin="round"/>
<path d="M21.2207 316.527C27.5942 318.782 34.5126 318.992 41.0109 317.126" stroke="#182F43" stroke-width="0.75" stroke-linecap="round" stroke-linejoin="round"/>
<path d="M53.2911 192.672L55.288 213.92C55.288 213.92 52.4124 244.444 48.8777 254.389C45.343 264.334 42.1279 275.297 40.9497 279.351C39.7714 283.405 38.5932 299.251 39.6017 302.446C40.1704 303.955 40.4548 305.557 40.4404 307.169V307.848C40.4404 307.848 41.1194 308.357 38.753 309.705C37.0607 310.593 35.2422 311.216 33.3611 311.553L29.8164 309.556C29.8164 309.556 24.7641 313.26 22.9069 314.279C20.9581 315.082 18.9199 315.649 16.836 315.966C16.0609 314.744 15.6075 313.346 15.518 311.902V305.332C15.518 302.966 13.8305 291.353 14.0003 284.254C14.17 277.155 15.518 269.406 16.866 265.872C18.2139 262.337 22.7671 251.533 22.7671 251.533C22.5465 246.958 21.8096 242.423 20.5704 238.014C18.3837 229.416 17.8744 225.033 15.0088 215.757C12.1431 206.481 17.8744 192.792 17.8744 192.792C17.8744 192.792 31.1944 195.148 38.4534 194.789C43.4495 194.497 48.4126 193.789 53.2911 192.672Z" fill="#182F43" stroke="#182F43" stroke-linecap="round" stroke-linejoin="round"/>
<path d="M28.0293 210.887C28.7666 212.193 29.6116 213.435 30.5555 214.601" stroke="white" stroke-width="0.75" stroke-linecap="round" stroke-linejoin="round"/>
<path d="M37.1055 197.907L42.6671 198.077L42.4973 196.719" stroke="white" stroke-width="0.75" stroke-linecap="round" stroke-linejoin="round"/>
<path d="M44.6953 197.076V198.424C44.6953 198.424 49.4082 199.612 53.1226 197.585" stroke="white" stroke-width="0.75" stroke-linecap="round" stroke-linejoin="round"/>
<path d="M50.0869 200.07L48.7389 205.302L50.9256 208.298C50.9256 208.298 47.7305 213.86 47.7305 214.369" stroke="white" stroke-width="0.75" stroke-linecap="round" stroke-linejoin="round"/>
<path d="M51.095 215.438L45.5334 220.041C45.5334 220.041 42.1585 248.707 40.3013 256.126C38.4441 263.545 31.5345 287.659 30.6958 293.07C30.2254 295.691 29.8921 298.334 29.6973 300.989C29.6973 301.498 30.6958 303.355 30.6958 304.363V308.248" stroke="white" stroke-width="0.75" stroke-linecap="round" stroke-linejoin="round"/>
<path d="M34.571 195.71C34.571 195.71 44.6957 197.058 49.2488 196.708C53.802 196.359 54.4709 194.521 54.9802 192.834C55.4894 191.146 48.9093 151.017 48.5698 148.65C48.2304 146.284 48.7396 142.41 45.5744 141.062C42.4091 139.714 35.5894 142.06 34.4411 146.634C33.2929 151.207 36.9773 177.657 35.9589 183.388C35.2814 187.468 34.8181 191.581 34.571 195.71Z" fill="white" stroke="#182F43" stroke-linecap="round" stroke-linejoin="round"/>
<path d="M43.3379 148.999L45.8741 153.552L46.7128 191.325L49.7482 198.574L52.2744 189.638L47.3918 153.213L48.0608 147.821L46.0438 143.438L43.3379 148.999Z" fill="#182F43" stroke="#182F43" stroke-linecap="round" stroke-linejoin="round"/>
<path d="M46.7111 147.141L49.7465 152.373L48.2288 142.758L45.1934 144.615L46.7111 147.141Z" fill="white" stroke="#182F43" stroke-linecap="round" stroke-linejoin="round"/>
<path d="M39.2919 132.305L38.4531 136.179L45.3627 148.491C45.3627 148.491 47.4296 143.898 48.2284 142.759C49.0272 141.621 52.2224 136.619 52.2224 136.619C52.2224 136.619 47.1001 137.028 46.2314 133.993C45.3627 130.957 46.2314 126.743 43.0262 126.404C39.8211 126.065 39.2919 132.305 39.2919 132.305Z" fill="white" stroke="#182F43" stroke-linecap="round" stroke-linejoin="round"/>
<path d="M42.6468 129.918L42.9763 131.056C42.7951 131.617 42.7423 132.212 42.8218 132.796C42.9013 133.38 43.1111 133.939 43.4357 134.431C44.554 135.859 50.8345 139.304 53.5804 138.495C56.3262 137.686 57.165 129.718 57.165 129.718C57.165 129.718 59.791 129.658 59.5214 128.151C59.2518 126.643 57.7241 124.995 57.5244 123.278C57.3247 121.561 58.2933 121.121 57.8939 119.134C57.6412 117.157 56.6141 115.362 55.0382 114.142C53.2209 112.744 43.2859 117.227 40.3403 120.372C37.3948 123.518 36.7857 126.853 37.5146 128.75C38.2435 130.647 42.6468 129.918 42.6468 129.918Z" fill="white" stroke="#182F43" stroke-linecap="round" stroke-linejoin="round"/>
<path d="M55.3498 124.037C55.3498 124.656 55.0802 125.135 54.8306 125.125C54.581 125.115 54.4212 124.596 54.4612 123.987C54.5011 123.378 54.7308 122.889 54.9804 122.899C55.23 122.909 55.3898 123.428 55.3498 124.037Z" fill="#182F43"/>
<path d="M56.0479 121.19C56.0479 121.19 54.7898 120.032 53.5117 121.929" stroke="#182F43" stroke-linecap="round" stroke-linejoin="round"/>
<path d="M53.7408 132.176C53.1182 132.007 52.5742 131.625 52.2031 131.098" stroke="#182F43" stroke-linecap="round" stroke-linejoin="round"/>
<path d="M43.8762 122.709L43.5467 125.794L45.4938 125.225C45.4938 125.225 44.4953 127.642 45.8732 126.523C47.2511 125.405 49.1982 121.68 49.8073 121.331C50.4163 120.982 53.8012 117.696 56.1577 115.43C58.5141 113.163 59.5126 110.068 58.7138 108.54C57.9151 107.013 48.2496 100.353 39.4229 105.036C30.5962 109.719 28.2098 116.568 29.1384 120.343C30.067 124.117 37.1264 133.982 38.4344 134.132C39.7424 134.282 42.6481 129.918 42.6481 129.918C42.6481 129.918 38.8438 128.92 39.6526 127.292C40.4614 125.664 43.8762 122.709 43.8762 122.709Z" fill="#182F43" stroke="#182F43" stroke-linecap="round" stroke-linejoin="round"/>
<path d="M38.115 123.547C36.9609 124.367 35.7458 125.098 34.4805 125.734" stroke="white" stroke-width="0.75" stroke-linecap="round" stroke-linejoin="round"/>
<path d="M53.8611 107.262C50.3084 112.134 46.2594 116.625 41.7793 120.662" stroke="white" stroke-width="0.75" stroke-linecap="round" stroke-linejoin="round"/>
<path d="M35.4478 121.031C35.0683 121.381 34.6789 121.74 34.2695 122.1" stroke="white" stroke-width="0.75" stroke-linecap="round" stroke-linejoin="round"/>
<path d="M46.5829 107.682C43.9786 111.857 40.892 115.711 37.3867 119.164" stroke="white" stroke-width="0.75" stroke-linecap="round" stroke-linejoin="round"/>
<path d="M38.1148 134.832L46.7119 147.143L40.4713 153.384L36.0879 136.519L38.1148 134.832Z" fill="white" stroke="#182F43" stroke-linecap="round" stroke-linejoin="round"/>
<path d="M33.7312 137.537L21.929 141.411C21.929 141.411 12.653 185.595 11.944 186.773C11.2351 187.951 -0.866637 209.738 0.651076 212.065C2.16879 214.391 16.627 222.19 17.8452 221.68C19.0633 221.171 27.6304 204.816 32.8226 200.093C38.0148 195.37 43.3367 189.469 44.0057 182.899L39.4526 163.498L38.9433 151.356L33.7312 137.537Z" fill="#FFB700"/>
<path d="M33.7312 137.537L21.929 141.411C21.929 141.411 12.653 185.595 11.944 186.773C11.2351 187.951 -0.866637 209.738 0.651076 212.065C2.16879 214.391 16.627 222.19 17.8452 221.68C19.0633 221.171 27.6304 204.816 32.8226 200.093C38.0148 195.37 43.3367 189.469 44.0057 182.899L39.4526 163.498L38.9433 151.356L33.7312 137.537Z" fill="black" fill-opacity="0.15"/>
<path d="M33.7312 137.537L21.929 141.411C21.929 141.411 12.653 185.595 11.944 186.773C11.2351 187.951 -0.866637 209.738 0.651076 212.065C2.16879 214.391 16.627 222.19 17.8452 221.68C19.0633 221.171 27.6304 204.816 32.8226 200.093C38.0148 195.37 43.3367 189.469 44.0057 182.899L39.4526 163.498L38.9433 151.356L33.7312 137.537Z" stroke="#182F43" stroke-linecap="round" stroke-linejoin="round"/>
<path d="M37.1064 136.52L33.7315 137.538L32.8828 154.063L38.6242 157.268L35.2492 162.321L44.016 182.9L40.4714 151.028L37.1064 136.52Z" fill="#FFB700"/>
<path d="M37.1064 136.52L33.7315 137.538L32.8828 154.063L38.6242 157.268L35.2492 162.321L44.016 182.9L40.4714 151.028L37.1064 136.52Z" fill="black" fill-opacity="0.05"/>
<path d="M37.1064 136.52L33.7315 137.538L32.8828 154.063L38.6242 157.268L35.2492 162.321L44.016 182.9L40.4714 151.028L37.1064 136.52Z" stroke="#182F43" stroke-linecap="round" stroke-linejoin="round"/>
<path d="M26.1924 207.828L12.7227 219.55C12.7227 219.55 14.0507 221.148 17.8749 221.677C17.8749 221.677 23.8659 213.49 26.1924 207.828Z" fill="#FFB700" stroke="#182F43" stroke-linecap="round" stroke-linejoin="round"/>
<path d="M28.3285 198.076C30.5861 198.115 32.8397 198.281 35.0784 198.575C36.2566 198.915 40.8097 203.638 40.8097 203.638C40.8097 203.638 40.8097 204.147 39.1223 204.636C37.4348 205.126 34.3994 202.949 34.3994 202.949L27.8293 209.189L23.7754 204.137L28.3285 198.076Z" fill="white" stroke="#182F43" stroke-linecap="round" stroke-linejoin="round"/>
<path d="M27.8303 196.219L29.348 198.236L23.7764 204.137L23.1074 201.95L27.8303 196.219Z" fill="white" stroke="#182F43" stroke-linecap="round" stroke-linejoin="round"/>
<path d="M32.0219 138.887C32.0219 138.887 16.1658 138.887 14.9875 140.235C13.8093 141.583 1.32812 179.356 1.32812 181.542C1.32812 183.729 22.7458 203.809 22.7458 203.809L28.8167 196.39L16.695 177.329L26.3105 156.59" fill="#FFB700"/>
<path d="M32.0219 138.887C32.0219 138.887 16.1658 138.887 14.9875 140.235C13.8093 141.583 1.32812 179.356 1.32812 181.542C1.32812 183.729 22.7458 203.809 22.7458 203.809L28.8167 196.39L16.695 177.329L26.3105 156.59" fill="black" fill-opacity="0.15"/>
<path d="M32.0219 138.887C32.0219 138.887 16.1658 138.887 14.9875 140.235C13.8093 141.583 1.32812 179.356 1.32812 181.542C1.32812 183.729 22.7458 203.809 22.7458 203.809L28.8167 196.39L16.695 177.329L26.3105 156.59" stroke="#182F43" stroke-linecap="round" stroke-linejoin="round"/>
</svg>
