<svg width="210" height="526" viewBox="0 0 210 526" fill="none" xmlns="http://www.w3.org/2000/svg">
<path d="M1.15039 33.5799C1.15039 19.2467 16.4157 10.0747 29.0709 16.8042L176.335 95.1124C185.846 100.17 191.769 110.082 191.719 120.853L190.098 467.135C190.047 477.904 182.83 487.321 172.444 490.168L166.215 491.876C158.467 494.001 150.185 492.816 143.343 488.604L14.9467 409.556C6.37279 404.277 1.15039 394.929 1.15039 384.861V33.5799Z" fill="#929DC4" stroke="#929DC4" stroke-width="2"/>
<path d="M2.34668 40.959C2.34668 30.3662 13.6557 23.6107 22.9829 28.6318L165.647 105.433C175.11 110.527 180.98 120.437 180.9 131.183L178.335 476.584C178.227 491.085 162.569 500.124 149.958 492.967L17.0334 417.533C7.95568 412.381 2.34668 402.749 2.34668 392.311V40.959Z" fill="#182F43" stroke="#E2E7FF" stroke-width="2"/>
<path d="M23.6316 26.7262L21.6895 24.9387C24.5589 21.9733 28.1926 19.8624 32.1874 18.8403L32.7648 21.4164C29.3043 22.3442 26.1523 24.1767 23.6316 26.7262Z" fill="#7781A3"/>
<path d="M191.323 120.287L181.688 125.084L182.856 127.438L192.491 122.641L191.323 120.287Z" fill="#7781A3"/>
<path d="M184.934 248.264C184.47 248.274 184.014 248.146 183.622 247.896C183.089 247.534 182.663 247.037 182.386 246.454C182.109 245.872 181.992 245.227 182.047 244.584V222.346C182.065 221.116 182.375 219.907 182.949 218.82C183.524 217.732 184.348 216.797 185.354 216.09H185.774C186.237 215.823 186.762 215.682 187.296 215.682C187.831 215.682 188.356 215.823 188.819 216.09C189.365 216.442 189.805 216.936 190.092 217.52C190.379 218.103 190.501 218.754 190.446 219.402V241.535C190.422 242.77 190.105 243.982 189.521 245.07C188.936 246.157 188.102 247.09 187.087 247.791H186.667C186.15 248.12 185.546 248.285 184.934 248.264ZM187.506 217.983H187.087H186.667C186.062 218.461 185.569 219.067 185.225 219.758C184.88 220.448 184.691 221.206 184.672 221.978V244.216C184.672 244.9 184.672 245.215 184.934 245.215C185.001 245.244 185.072 245.259 185.144 245.259C185.217 245.259 185.288 245.244 185.354 245.215H185.774C186.373 244.742 186.861 244.145 187.205 243.464C187.55 242.783 187.742 242.035 187.769 241.272V219.034C187.813 218.663 187.72 218.289 187.506 217.983Z" fill="#7781A3"/>
<path d="M184.934 207.574C184.474 207.558 184.024 207.432 183.622 207.206C183.089 206.844 182.663 206.346 182.386 205.764C182.109 205.182 181.992 204.536 182.047 203.894V191.382C182.065 190.151 182.375 188.943 182.949 187.855C183.524 186.768 184.348 185.832 185.354 185.125L185.774 184.863C186.24 184.605 186.764 184.47 187.296 184.47C187.829 184.47 188.353 184.605 188.819 184.863C189.361 185.231 189.797 185.735 190.083 186.326C190.369 186.917 190.494 187.573 190.446 188.227V200.529C190.43 201.773 190.117 202.995 189.533 204.093C188.948 205.191 188.109 206.132 187.087 206.838H186.667C186.167 207.236 185.568 207.491 184.934 207.574ZM187.506 187.018C187.37 186.974 187.223 186.974 187.087 187.018H186.667C186.062 187.497 185.569 188.103 185.225 188.793C184.88 189.484 184.691 190.242 184.672 191.014V203.526C184.672 204.209 184.672 204.525 184.934 204.525C185.073 204.556 185.216 204.556 185.354 204.525H185.774C186.379 204.046 186.872 203.44 187.216 202.75C187.561 202.059 187.75 201.301 187.769 200.529V188.07C187.769 187.334 187.769 187.018 187.506 187.018Z" fill="#7781A3"/>
<path d="M183.675 102L174.104 107.685L175.442 109.946L185.014 104.261L183.675 102Z" fill="#7781A3"/>
<path d="M118.655 478.023L112.409 481.65C112.018 481.845 111.587 481.946 111.149 481.946C110.712 481.946 110.281 481.845 109.89 481.65L103.958 478.233C103.223 477.76 103.119 477.129 103.958 476.761L110.257 473.134C110.649 472.939 111.08 472.838 111.517 472.838C111.954 472.838 112.385 472.939 112.777 473.134L118.708 476.551C119.285 476.866 119.39 477.655 118.655 478.023Z" fill="#150035" fill-opacity="0.1"/>
<path d="M117.919 495.371L111.673 498.998C111.281 499.193 110.85 499.294 110.413 499.294C109.976 499.294 109.545 499.193 109.153 498.998L103.222 495.581C102.487 495.16 102.382 494.477 103.222 494.109L109.521 490.481C109.912 490.287 110.343 490.186 110.781 490.186C111.218 490.186 111.649 490.287 112.04 490.481L117.972 493.899C118.654 494.372 118.654 495.003 117.919 495.371Z" fill="#150035" fill-opacity="0.1"/>
<path d="M133.351 486.485L127.052 490.113C126.661 490.308 126.23 490.409 125.793 490.409C125.356 490.409 124.924 490.308 124.533 490.113L118.654 486.591C117.919 486.117 117.867 485.487 118.654 485.119L124.953 481.491C125.344 481.297 125.775 481.195 126.213 481.195C126.65 481.195 127.081 481.297 127.472 481.491L133.404 484.908C133.928 485.434 133.981 486.065 133.351 486.485Z" fill="#150035" fill-opacity="0.1"/>
<path d="M133.403 504.307L127.105 507.935C126.729 508.151 126.304 508.266 125.871 508.266C125.438 508.266 125.013 508.151 124.637 507.935L118.654 504.412C117.919 503.992 117.814 503.361 118.654 502.993L124.952 499.365C125.34 499.158 125.773 499.05 126.212 499.05C126.652 499.05 127.084 499.158 127.472 499.365L133.403 502.835C133.981 503.15 134.086 503.939 133.403 504.307Z" fill="#150035" fill-opacity="0.1"/>
<path d="M148.836 495.422L142.537 499.05C142.146 499.244 141.715 499.346 141.278 499.346C140.841 499.346 140.409 499.244 140.018 499.05L134.087 495.633C133.352 495.212 133.299 494.529 134.087 494.161L140.385 490.533C140.777 490.339 141.208 490.237 141.645 490.237C142.082 490.237 142.513 490.339 142.905 490.533L148.784 493.95C149.414 494.371 149.466 495.054 148.836 495.422Z" fill="#150035" fill-opacity="0.1"/>
<path d="M148.049 512.773L141.75 516.4C141.363 516.608 140.93 516.716 140.491 516.716C140.051 516.716 139.619 516.608 139.231 516.4L133.3 512.983C132.565 512.563 132.512 511.932 133.3 511.564L139.598 507.884C139.99 507.689 140.421 507.588 140.858 507.588C141.295 507.588 141.726 507.689 142.118 507.884L147.997 511.353C148.627 511.774 148.679 512.405 148.049 512.773Z" fill="#150035" fill-opacity="0.1"/>
<path d="M163.428 503.888L157.182 507.516C156.79 507.71 156.359 507.811 155.922 507.811C155.485 507.811 155.054 507.71 154.662 507.516L148.731 504.098C147.996 503.625 147.891 502.994 148.731 502.626L154.977 498.999C155.369 498.804 155.8 498.703 156.237 498.703C156.674 498.703 157.105 498.804 157.497 498.999L163.428 502.416C164.005 502.837 164.11 503.52 163.428 503.888Z" fill="#150035" fill-opacity="0.1"/>
<path d="M162.693 521.236L156.395 524.863C156.003 525.058 155.572 525.159 155.135 525.159C154.698 525.159 154.267 525.058 153.875 524.863L147.944 521.446C147.209 521.026 147.104 520.342 147.944 519.974L154.19 516.347C154.581 516.152 155.013 516.051 155.45 516.051C155.887 516.051 156.318 516.152 156.709 516.347L162.641 519.764C163.218 520.237 163.323 520.868 162.693 521.236Z" fill="#150035" fill-opacity="0.1"/>
<path d="M73.9862 452.156L67.6874 455.783C67.2959 455.978 66.8647 456.079 66.4277 456.079C65.9906 456.079 65.5594 455.978 65.1679 455.783L59.2891 452.366C58.5017 451.893 58.4492 451.262 59.2891 450.894L65.5878 447.267C65.9794 447.072 66.4105 446.971 66.8476 446.971C67.2847 446.971 67.7158 447.072 68.1073 447.267L74.0387 450.684C74.5636 451.104 74.6161 451.788 73.9862 452.156Z" fill="#150035" fill-opacity="0.1"/>
<path d="M73.1991 469.505L66.9003 473.133C66.518 473.327 66.0954 473.428 65.6668 473.428C65.2382 473.428 64.8156 473.327 64.4333 473.133L58.502 469.716C57.7146 469.295 57.6621 468.612 58.502 468.244L64.8007 464.616C65.1923 464.422 65.6234 464.32 66.0605 464.32C66.4975 464.32 66.9287 464.422 67.3202 464.616L73.2516 468.033C73.7765 468.506 73.829 469.137 73.1991 469.505Z" fill="#150035" fill-opacity="0.1"/>
<path d="M88.6311 460.62L82.3324 464.247C81.9408 464.442 81.5097 464.543 81.0726 464.543C80.6356 464.543 80.2044 464.442 79.8129 464.247L73.8815 460.83C73.1467 460.357 73.0942 459.726 73.8815 459.358L80.1803 455.731C80.5626 455.537 80.9852 455.436 81.4138 455.436C81.8424 455.436 82.265 455.537 82.6473 455.731L88.5786 459.148C89.156 459.568 89.261 460.199 88.6311 460.62Z" fill="#150035" fill-opacity="0.1"/>
<path d="M88.6825 478.442L82.3837 482.069C81.999 482.286 81.5652 482.4 81.1239 482.4C80.6827 482.4 80.2489 482.286 79.8642 482.069L73.9854 478.652C73.198 478.232 73.1455 477.601 73.9854 477.233L80.2841 473.553C80.6756 473.358 81.1068 473.257 81.5439 473.257C81.9809 473.257 82.4121 473.358 82.8036 473.553L88.7349 477.022C89.2598 477.443 89.3123 478.074 88.6825 478.442Z" fill="#150035" fill-opacity="0.1"/>
<path d="M104.115 469.557L97.6592 473.185C97.2677 473.379 96.8365 473.48 96.3994 473.48C95.9624 473.48 95.5312 473.379 95.1397 473.185L89.2084 469.767C88.4735 469.347 88.3685 468.663 89.2084 468.295L95.4546 464.668C95.8462 464.473 96.2773 464.372 96.7144 464.372C97.1515 464.372 97.5826 464.473 97.9741 464.668L103.905 468.085C104.64 468.506 104.745 469.189 104.115 469.557Z" fill="#150035" fill-opacity="0.1"/>
<path d="M103.327 486.907L97.0283 490.534C96.6406 490.741 96.208 490.85 95.7686 490.85C95.3292 490.85 94.8965 490.741 94.5088 490.534L88.5775 487.117C87.8426 486.696 87.7377 486.066 88.5775 485.698L94.8238 482.017C95.2153 481.823 95.6465 481.722 96.0835 481.722C96.5206 481.722 96.9517 481.823 97.3433 482.017L103.275 485.487C103.852 485.908 103.957 486.539 103.327 486.907Z" fill="#150035" fill-opacity="0.1"/>
<path d="M29.4224 426.29L23.1236 429.918C22.7321 430.112 22.301 430.213 21.8639 430.213C21.4268 430.213 20.9957 430.112 20.6041 429.918L14.5153 426.395C13.7805 425.922 13.728 425.291 14.5153 424.923L20.8141 421.296C21.2056 421.101 21.6368 421 22.0739 421C22.5109 421 22.9421 421.101 23.3336 421.296L29.2125 424.713C29.8423 425.239 29.8948 425.922 29.4224 426.29Z" fill="#150035" fill-opacity="0.1"/>
<path d="M28.4766 443.64L22.1778 447.267C21.7863 447.462 21.3552 447.563 20.9181 447.563C20.481 447.563 20.0499 447.462 19.6583 447.267L13.6745 443.745C12.9397 443.324 12.8872 442.641 13.6745 442.273L19.9733 438.645C20.3648 438.451 20.796 438.35 21.233 438.35C21.6701 438.35 22.1013 438.451 22.4928 438.645L28.4241 442.063C29.054 442.641 29.1065 443.272 28.4766 443.64Z" fill="#150035" fill-opacity="0.1"/>
<path d="M43.9084 434.807L37.6096 438.434C37.2181 438.629 36.787 438.73 36.3499 438.73C35.9128 438.73 35.4817 438.629 35.0901 438.434L29.4212 434.807C28.6864 434.334 28.5814 433.703 29.4212 433.335L35.2476 429.55C35.6391 429.355 36.0703 429.254 36.5074 429.254C36.9444 429.254 37.3756 429.355 37.7671 429.55L43.6984 432.967C44.4333 433.703 44.5383 434.334 43.9084 434.807Z" fill="#150035" fill-opacity="0.1"/>
<path d="M43.9612 452.576L37.6625 456.204C37.2778 456.42 36.844 456.534 36.4027 456.534C35.9615 456.534 35.5277 456.42 35.143 456.204L29.4216 452.681C28.6867 452.261 28.6342 451.63 29.4216 451.262L35.7203 447.582C36.1119 447.387 36.543 447.286 36.9801 447.286C37.4172 447.286 37.8483 447.387 38.2399 447.582L44.1187 451.052C44.5386 451.577 44.5911 452.208 43.9612 452.576Z" fill="#150035" fill-opacity="0.1"/>
<path d="M59.342 443.692L53.0957 447.319C52.7042 447.514 52.2731 447.615 51.836 447.615C51.3989 447.615 50.9678 447.514 50.5762 447.319L44.6449 443.902C43.91 443.482 43.805 442.798 44.6449 442.43L50.9437 438.803C51.3352 438.608 51.7663 438.507 52.2034 438.507C52.6405 438.507 53.0716 438.608 53.4632 438.803L59.3945 442.22C59.9194 442.64 60.0244 443.324 59.342 443.692Z" fill="#150035" fill-opacity="0.1"/>
<path d="M58.6054 461.094L52.3067 464.722C51.9151 464.916 51.484 465.017 51.0469 465.017C50.6098 465.017 50.1787 464.916 49.7872 464.722L43.8558 461.094C43.121 460.673 43.016 460.043 43.8558 459.622L49.9446 455.837C50.3362 455.642 50.7673 455.541 51.2044 455.541C51.6414 455.541 52.0726 455.642 52.4641 455.837L58.3955 459.307C59.1303 460.043 59.2353 460.673 58.6054 461.094Z" fill="#150035" fill-opacity="0.1"/>
<path d="M178.073 512.351L171.774 515.979C171.383 516.173 170.952 516.274 170.515 516.274C170.078 516.274 169.646 516.173 169.255 515.979L163.376 512.561C162.589 512.088 162.536 511.457 163.376 511.089L169.675 507.462C170.066 507.267 170.497 507.166 170.934 507.166C171.372 507.166 171.803 507.267 172.194 507.462L178.126 510.879C178.65 511.3 178.703 511.93 178.073 512.351Z" fill="#150035" fill-opacity="0.1"/>
<path d="M193.505 503.415L187.206 507.042C186.815 507.237 186.383 507.338 185.946 507.338C185.509 507.338 185.078 507.237 184.687 507.042L178.755 503.625C178.02 503.204 177.915 502.521 178.755 502.153L185.054 498.526C185.436 498.332 185.859 498.23 186.287 498.23C186.716 498.23 187.139 498.332 187.521 498.526L193.452 501.943C194.03 502.416 194.135 503.152 193.505 503.415Z" fill="#150035" fill-opacity="0.1"/>
<path d="M208.884 494.529L202.638 498.156C202.246 498.351 201.815 498.452 201.378 498.452C200.941 498.452 200.51 498.351 200.118 498.156L194.187 494.739C193.452 494.266 193.347 493.635 194.187 493.267L200.486 489.64C200.877 489.445 201.308 489.344 201.745 489.344C202.182 489.344 202.614 489.445 203.005 489.64L208.936 493.057C209.461 493.477 209.566 494.108 208.884 494.529Z" fill="#150035" fill-opacity="0.1"/>
<path d="M193.557 521.289L187.258 524.917C186.867 525.112 186.436 525.213 185.998 525.213C185.561 525.213 185.13 525.112 184.739 524.917L178.807 521.5C178.072 521.079 178.02 520.396 178.807 520.028L185.106 516.4C185.498 516.206 185.929 516.104 186.366 516.104C186.803 516.104 187.234 516.206 187.626 516.4L193.557 519.817C194.134 520.238 194.187 520.921 193.557 521.289Z" fill="#150035" fill-opacity="0.1"/>
<path d="M208.991 512.351L202.692 515.979C202.308 516.195 201.874 516.309 201.433 516.309C200.991 516.309 200.558 516.195 200.173 515.979L194.242 512.562C193.507 512.141 193.402 511.51 194.242 511.142L200.488 507.515C200.876 507.308 201.308 507.199 201.748 507.199C202.187 507.199 202.62 507.308 203.007 507.515L208.939 510.984C209.516 511.352 209.621 511.983 208.991 512.351Z" fill="#150035" fill-opacity="0.1"/>
</svg>
