<svg width="237" height="513" viewBox="0 0 237 513" fill="none" xmlns="http://www.w3.org/2000/svg">
<path d="M131.238 465.673L124.991 469.301C124.6 469.495 124.169 469.597 123.731 469.597C123.294 469.597 122.863 469.495 122.472 469.301L116.54 465.884C115.806 465.41 115.701 464.78 116.54 464.412L122.839 460.784C123.231 460.59 123.662 460.488 124.099 460.488C124.536 460.488 124.967 460.59 125.359 460.784L131.29 464.201C131.867 464.517 131.972 465.305 131.238 465.673Z" fill="#182F43"/>
<path d="M130.501 483.021L124.255 486.648C123.863 486.843 123.432 486.944 122.995 486.944C122.558 486.944 122.127 486.843 121.735 486.648L115.804 483.231C115.069 482.811 114.964 482.127 115.804 481.759L122.103 478.132C122.494 477.937 122.926 477.836 123.363 477.836C123.8 477.836 124.231 477.937 124.622 478.132L130.554 481.549C131.236 482.022 131.236 482.653 130.501 483.021Z" fill="#182F43"/>
<path d="M145.934 474.137L139.635 477.764C139.244 477.959 138.813 478.06 138.376 478.06C137.939 478.06 137.507 477.959 137.116 477.764L131.237 474.242C130.502 473.769 130.45 473.138 131.237 472.77L137.536 469.142C137.927 468.948 138.358 468.847 138.796 468.847C139.233 468.847 139.664 468.948 140.055 469.142L145.987 472.56C146.512 473.085 146.564 473.716 145.934 474.137Z" fill="#182F43"/>
<path d="M145.985 491.958L139.687 495.586C139.312 495.803 138.886 495.917 138.453 495.917C138.02 495.917 137.595 495.803 137.22 495.586L131.236 492.064C130.501 491.643 130.396 491.012 131.236 490.644L137.534 487.017C137.922 486.809 138.355 486.701 138.794 486.701C139.234 486.701 139.666 486.809 140.054 487.017L145.985 490.486C146.563 490.802 146.668 491.59 145.985 491.958Z" fill="#182F43"/>
<path d="M161.418 483.074L155.119 486.701C154.728 486.896 154.297 486.997 153.86 486.997C153.423 486.997 152.992 486.896 152.6 486.701L146.669 483.284C145.934 482.863 145.881 482.18 146.669 481.812L152.967 478.184C153.359 477.99 153.79 477.889 154.227 477.889C154.664 477.889 155.095 477.99 155.487 478.184L161.366 481.602C161.996 482.022 162.048 482.706 161.418 483.074Z" fill="#182F43"/>
<path d="M160.631 500.423L154.332 504.051C153.945 504.258 153.512 504.366 153.073 504.366C152.633 504.366 152.201 504.258 151.813 504.051L145.882 500.634C145.147 500.213 145.094 499.582 145.882 499.214L152.18 495.534C152.572 495.34 153.003 495.238 153.44 495.238C153.877 495.238 154.308 495.34 154.7 495.534L160.579 499.004C161.209 499.424 161.261 500.055 160.631 500.423Z" fill="#182F43"/>
<path d="M176.011 491.539L169.765 495.166C169.373 495.361 168.942 495.462 168.505 495.462C168.068 495.462 167.637 495.361 167.245 495.166L161.314 491.749C160.579 491.276 160.474 490.645 161.314 490.277L167.56 486.649C167.952 486.455 168.383 486.354 168.82 486.354C169.257 486.354 169.688 486.455 170.08 486.649L176.011 490.067C176.588 490.487 176.693 491.171 176.011 491.539Z" fill="#182F43"/>
<path d="M175.276 508.887L168.978 512.515C168.586 512.709 168.155 512.811 167.718 512.811C167.281 512.811 166.85 512.709 166.458 512.515L160.527 509.098C159.792 508.677 159.687 507.993 160.527 507.625L166.773 503.998C167.165 503.803 167.596 503.702 168.033 503.702C168.47 503.702 168.901 503.803 169.292 503.998L175.224 507.415C175.801 507.888 175.906 508.519 175.276 508.887Z" fill="#182F43"/>
<path d="M86.5692 439.806L80.2704 443.434C79.8789 443.628 79.4477 443.729 79.0107 443.729C78.5736 443.729 78.1425 443.628 77.7509 443.434L71.8721 440.016C71.0847 439.543 71.0322 438.912 71.8721 438.544L78.1708 434.917C78.5624 434.722 78.9935 434.621 79.4306 434.621C79.8677 434.621 80.2988 434.722 80.6903 434.917L86.6217 438.334C87.1466 438.755 87.1991 439.438 86.5692 439.806Z" fill="#182F43"/>
<path d="M85.7821 457.156L79.4833 460.783C79.101 460.977 78.6784 461.078 78.2498 461.078C77.8212 461.078 77.3986 460.977 77.0163 460.783L71.085 457.366C70.2976 456.945 70.2451 456.262 71.085 455.894L77.3837 452.266C77.7753 452.072 78.2064 451.971 78.6435 451.971C79.0806 451.971 79.5117 452.072 79.9032 452.266L85.8346 455.684C86.3595 456.157 86.412 456.788 85.7821 457.156Z" fill="#182F43"/>
<path d="M101.213 448.271L94.9144 451.899C94.5229 452.093 94.0917 452.195 93.6547 452.195C93.2176 452.195 92.7864 452.093 92.3949 451.899L86.4636 448.482C85.7287 448.008 85.6762 447.378 86.4636 447.01L92.7623 443.382C93.1447 443.188 93.5672 443.087 93.9958 443.087C94.4244 443.087 94.847 443.188 95.2293 443.382L101.161 446.799C101.738 447.22 101.843 447.851 101.213 448.271Z" fill="#182F43"/>
<path d="M101.264 466.093L94.9657 469.721C94.581 469.937 94.1472 470.051 93.706 470.051C93.2647 470.051 92.8309 469.937 92.4462 469.721L86.5674 466.304C85.78 465.883 85.7275 465.252 86.5674 464.884L92.8661 461.204C93.2577 461.009 93.6888 460.908 94.1259 460.908C94.563 460.908 94.9941 461.009 95.3856 461.204L101.317 464.674C101.842 465.094 101.894 465.725 101.264 466.093Z" fill="#182F43"/>
<path d="M116.697 457.208L110.241 460.836C109.85 461.031 109.419 461.132 108.981 461.132C108.544 461.132 108.113 461.031 107.722 460.836L101.79 457.419C101.056 456.998 100.951 456.315 101.79 455.947L108.037 452.319C108.428 452.125 108.859 452.023 109.296 452.023C109.733 452.023 110.165 452.125 110.556 452.319L116.488 455.736C117.222 456.157 117.327 456.84 116.697 457.208Z" fill="#182F43"/>
<path d="M115.909 474.558L109.61 478.186C109.223 478.393 108.79 478.501 108.351 478.501C107.911 478.501 107.479 478.393 107.091 478.186L101.16 474.768C100.425 474.348 100.32 473.717 101.16 473.349L107.406 469.669C107.797 469.474 108.228 469.373 108.666 469.373C109.103 469.373 109.534 469.474 109.925 469.669L115.857 473.139C116.434 473.559 116.539 474.19 115.909 474.558Z" fill="#182F43"/>
<path d="M42.0054 413.941L35.7067 417.568C35.3151 417.763 34.884 417.864 34.4469 417.864C34.0098 417.864 33.5787 417.763 33.1871 417.568L27.0983 414.046C26.3635 413.573 26.311 412.942 27.0983 412.574L33.3971 408.946C33.7886 408.752 34.2198 408.65 34.6569 408.65C35.0939 408.65 35.5251 408.752 35.9166 408.946L41.7955 412.363C42.4253 412.889 42.4778 413.573 42.0054 413.941Z" fill="#182F43"/>
<path d="M41.0586 431.291L34.7599 434.919C34.3683 435.113 33.9372 435.214 33.5001 435.214C33.0631 435.214 32.6319 435.113 32.2404 434.919L26.2565 431.396C25.5217 430.976 25.4692 430.292 26.2565 429.924L32.5553 426.297C32.9468 426.102 33.378 426.001 33.8151 426.001C34.2521 426.001 34.6833 426.102 35.0748 426.297L41.0062 429.714C41.636 430.292 41.6885 430.923 41.0586 431.291Z" fill="#182F43"/>
<path d="M56.4904 422.458L50.1917 426.086C49.8001 426.28 49.369 426.381 48.9319 426.381C48.4948 426.381 48.0637 426.28 47.6722 426.086L42.0033 422.458C41.2684 421.985 41.1634 421.354 42.0033 420.986L47.8296 417.201C48.2212 417.007 48.6523 416.905 49.0894 416.905C49.5265 416.905 49.9576 417.007 50.3491 417.201L56.2805 420.618C57.0153 421.354 57.1203 421.985 56.4904 422.458Z" fill="#182F43"/>
<path d="M56.5442 440.228L50.2455 443.855C49.8608 444.072 49.427 444.185 48.9857 444.185C48.5445 444.185 48.1107 444.072 47.726 443.855L42.0046 440.333C41.2697 439.912 41.2172 439.281 42.0046 438.913L48.3034 435.233C48.6949 435.039 49.126 434.938 49.5631 434.938C50.0002 434.938 50.4313 435.039 50.8229 435.233L56.7017 438.703C57.1216 439.229 57.1741 439.86 56.5442 440.228Z" fill="#182F43"/>
<path d="M71.925 431.343L65.6787 434.971C65.2872 435.165 64.8561 435.267 64.419 435.267C63.9819 435.267 63.5508 435.165 63.1592 434.971L57.2279 431.554C56.493 431.133 56.388 430.449 57.2279 430.081L63.5267 426.454C63.9182 426.259 64.3493 426.158 64.7864 426.158C65.2235 426.158 65.6546 426.259 66.0462 426.454L71.9775 429.871C72.5024 430.292 72.6074 430.975 71.925 431.343Z" fill="#182F43"/>
<path d="M71.1884 448.744L64.8897 452.372C64.4981 452.566 64.067 452.668 63.6299 452.668C63.1928 452.668 62.7617 452.566 62.3702 452.372L56.4388 448.744C55.704 448.324 55.599 447.693 56.4388 447.272L62.5276 443.487C62.9192 443.293 63.3503 443.191 63.7874 443.191C64.2245 443.191 64.6556 443.293 65.0471 443.487L70.9785 446.957C71.7133 447.693 71.8183 448.324 71.1884 448.744Z" fill="#182F43"/>
<path d="M190.655 500.002L184.356 503.63C183.965 503.824 183.534 503.926 183.097 503.926C182.66 503.926 182.228 503.824 181.837 503.63L175.958 500.213C175.171 499.74 175.118 499.109 175.958 498.741L182.257 495.113C182.648 494.919 183.079 494.817 183.517 494.817C183.954 494.817 184.385 494.919 184.776 495.113L190.708 498.53C191.233 498.951 191.285 499.582 190.655 500.002Z" fill="#182F43"/>
<path d="M206.087 491.065L199.788 494.693C199.397 494.887 198.965 494.988 198.528 494.988C198.091 494.988 197.66 494.887 197.269 494.693L191.337 491.275C190.602 490.855 190.497 490.171 191.337 489.803L197.636 486.176C198.018 485.982 198.441 485.881 198.87 485.881C199.298 485.881 199.721 485.982 200.103 486.176L206.034 489.593C206.612 490.066 206.717 490.802 206.087 491.065Z" fill="#182F43"/>
<path d="M221.466 482.179L215.22 485.807C214.828 486.001 214.397 486.102 213.96 486.102C213.523 486.102 213.092 486.001 212.7 485.807L206.769 482.389C206.034 481.916 205.929 481.285 206.769 480.917L213.068 477.29C213.459 477.095 213.89 476.994 214.327 476.994C214.764 476.994 215.196 477.095 215.587 477.29L221.519 480.707C222.043 481.128 222.148 481.759 221.466 482.179Z" fill="#182F43"/>
<path d="M206.139 508.941L199.84 512.568C199.449 512.763 199.018 512.864 198.58 512.864C198.143 512.864 197.712 512.763 197.321 512.568L191.389 509.151C190.654 508.731 190.602 508.047 191.389 507.679L197.688 504.052C198.08 503.857 198.511 503.756 198.948 503.756C199.385 503.756 199.816 503.857 200.208 504.052L206.139 507.469C206.716 507.889 206.769 508.573 206.139 508.941Z" fill="#182F43"/>
<path d="M221.573 500.002L215.274 503.629C214.89 503.846 214.456 503.959 214.015 503.959C213.573 503.959 213.14 503.846 212.755 503.629L206.824 500.212C206.089 499.791 205.984 499.161 206.824 498.793L213.07 495.165C213.458 494.958 213.89 494.85 214.33 494.85C214.769 494.85 215.202 494.958 215.589 495.165L221.521 498.635C222.098 499.003 222.203 499.634 221.573 500.002Z" fill="#182F43"/>
<path d="M204.985 465.462C206.839 461.373 207.737 456.914 207.609 452.424V124.373C207.609 106.656 197.111 86.0476 183.569 78.3195L59.3259 6.50563C57.1829 5.01446 54.7035 4.08005 52.1106 3.7864C49.5177 3.49275 46.8926 3.84906 44.4713 4.82331C39.4772 6.82964 34.902 9.75388 30.9814 13.4452L35.4956 20.3847C35.4108 21.838 35.4108 23.295 35.4956 24.7482V352.747C35.4956 370.517 46.256 391.125 59.5359 398.8L183.727 470.614L188.031 479.078C191.532 478.227 194.821 476.663 197.693 474.483C200.565 472.304 202.958 469.555 204.722 466.409C204.749 466.129 204.749 465.847 204.722 465.567L204.985 465.462Z" fill="#182F43"/>
<path d="M187.431 480.251L187.596 480.574L187.955 480.517L189.267 480.307L189.287 480.303L189.306 480.299C193.151 479.364 196.76 477.64 199.905 475.236C203.05 472.832 205.663 469.801 207.577 466.333L207.582 466.324L207.587 466.315L208.007 465.474L208.01 465.467L208.014 465.46C210.038 461.062 211.024 456.257 210.894 451.417V123.372C210.894 114.13 208.072 104.154 203.528 95.4873C198.985 86.8246 192.695 79.4193 185.713 75.3622L185.711 75.3615L61.3779 3.60873C58.9571 1.98459 56.1847 0.961207 53.2903 0.623461C50.3902 0.28505 47.4513 0.644762 44.7179 1.67268L44.7107 1.67538L44.7036 1.6783C39.3704 3.87284 35.2514 7.16808 31.152 11.1409L31.152 11.1409L31.1464 11.1464L29.1464 13.1464L28.8326 13.4603L29.107 13.8091L34.0009 20.0306V20.0332V20.0411V20.0491V20.0571V20.065V20.0729V20.0809V20.0888V20.0968V20.1047V20.1126V20.1206V20.1285V20.1364V20.1444V20.1523V20.1602V20.1681V20.1761V20.184V20.1919V20.1998V20.2077V20.2156V20.2235V20.2314V20.2393V20.2472V20.2551V20.263V20.2709V20.2788V20.2867V20.2946V20.3024V20.3103V20.3182V20.3261V20.3339V20.3418V20.3497V20.3576V20.3654V20.3733V20.3811V20.389V20.3969V20.4047V20.4126V20.4204V20.4283V20.4361V20.444V20.4518V20.4596V20.4675V20.4753V20.4832V20.491V20.4988V20.5066V20.5145V20.5223V20.5301V20.5379V20.5458V20.5536V20.5614V20.5692V20.577V20.5848V20.5926V20.6004V20.6082V20.616V20.6238V20.6316V20.6394V20.6472V20.655V20.6628V20.6706V20.6784V20.6862V20.6939V20.7017V20.7095V20.7173V20.725V20.7328V20.7406V20.7484V20.7561V20.7639V20.7716V20.7794V20.7872V20.7949V20.8027V20.8104V20.8182V20.8259V20.8337V20.8414V20.8492V20.8569V20.8647V20.8724V20.8801V20.8879V20.8956V20.9033V20.9111V20.9188V20.9265V20.9342V20.942V20.9497V20.9574V20.9651V20.9728V20.9805V20.9883V20.996V21.0037V21.0114V21.0191V21.0268V21.0345V21.0422V21.0499V21.0576V21.0653V21.073V21.0807V21.0884V21.096V21.1037V21.1114V21.1191V21.1268V21.1345V21.1421V21.1498V21.1575V21.1652V21.1728V21.1805V21.1882V21.1958V21.2035V21.2112V21.2188V21.2265V21.2342V21.2418V21.2495V21.2571V21.2648V21.2724V21.2801V21.2877V21.2954V21.303V21.3107V21.3183V21.3259V21.3336V21.3412V21.3489V21.3565V21.3641V21.3718V21.3794V21.387V21.3946V21.4023V21.4099V21.4175V21.4251V21.4328V21.4404V21.448V21.4556V21.4632V21.4708V21.4784V21.486V21.4937V21.5013V21.5089V21.5165V21.5241V21.5317V21.5393V21.5469V21.5545V21.5621V21.5697V21.5773V21.5848V21.5924V21.6V21.6076V21.6152V21.6228V21.6304V21.6379V21.6455V21.6531V21.6607V21.6683V21.6758V21.6834V21.691V21.6986V21.7061V21.7137V21.7213V21.7288V21.7364V21.744V21.7515V21.7591V21.7666V21.7742V21.7818V21.7893V21.7969V21.8044V21.812V21.8195V21.8271V21.8346V21.8422V21.8497V21.8573V21.8648V21.8723V21.8799V21.8874V21.895V21.9025V21.91V21.9176V21.9251V21.9326V21.9402V21.9477V21.9552V21.9628V21.9703V21.9778V21.9853V21.9929V22.0004V22.0079V22.0154V22.023V22.0305V22.038V22.0455V22.053V22.0605V22.0681V22.0756V22.0831V22.0906V22.0981V22.1056V22.1131V22.1206V22.1281V22.1356V22.1431V22.1506V22.1581V22.1656V22.1731V22.1806V22.1881V22.1956V22.2031V22.2106V22.2181V22.2256V22.2331V22.2406V22.2481V22.2556V22.2631V22.2705V22.278V22.2855V22.293V22.3005V22.308V22.3154V22.3229V22.3304V22.3379V22.3454V22.3528V22.3603V22.3678V22.3753V22.3827V22.3902V22.3977V22.4051V22.4126V22.4201V22.4275V22.435V22.4425V22.4499V22.4574V22.4649V22.4723V22.4798V22.4873V22.4947V22.5022V22.5096V22.5171V22.5246V22.532V22.5395V22.5469V22.5544V22.5618V22.5693V22.5767V22.5842V22.5916V22.5991V22.6065V22.614V22.6214V22.6289V22.6363V22.6438V22.6512V22.6587V22.6661V22.6735V22.681V22.6884V22.6959V22.7033V22.7107V22.7182V22.7256V22.7331V22.7405V22.7479V22.7554V22.7628V22.7702V22.7777V22.7851V22.7925V22.8V22.8074V22.8148V22.8223V22.8297V22.8371V22.8445V22.852V22.8594V22.8668V22.8743V22.8817V22.8891V22.8965V22.904V22.9114V22.9188V22.9262V22.9336V22.9411V22.9485V22.9559V22.9633V22.9707V22.9782V22.9856V22.993V23.0004V23.0078V23.0152V23.0227V23.0301V23.0375V23.0449V23.0523V23.0597V23.0672V23.0746V23.082V23.0894V23.0968V23.1042V23.1116V23.119V23.1264V23.1339V23.1413V23.1487V23.1561V23.1635V23.1709V23.1783V23.1857V23.1931V23.2005V23.2079V23.2153V23.2227V23.2301V23.2375V23.2449V23.2523V23.2598V23.2672V23.2746V23.282V23.2894V23.2968V23.3042V23.3116V23.319V23.3264V23.3338V23.3412V23.3486V23.356V23.3634V23.3708V23.3782V23.3856V23.393V23.4004V23.4078V23.4152V23.4226V23.43V23.4374V23.4447V23.4521V23.4595V23.4669V23.4743V23.4817V23.4891V23.4965V23.5039V23.5113V23.5187V23.5261V23.5335V23.5409V23.5483V23.5557V23.5631V23.5705V23.5779V23.5853V23.5927V23.6V23.6074V23.6148V23.6222V23.6296V23.637V23.6444V23.6518V23.6592V23.6666V23.674V23.6814V23.6888V23.6962V23.7036V23.711V23.7183V23.7257V23.7331V23.7405V23.7479V351.747C34.0009 360.99 36.8361 370.979 41.3938 379.652C45.9492 388.321 52.253 395.727 59.2361 399.758L182.826 471.235L187.431 480.251ZM39.04 17.123L39.119 16.3628L38.3908 16.5948L37.6002 16.8468L35.0499 12.9033C38.2035 10.1566 41.7684 7.92161 45.615 6.28065L45.629 6.27466L45.6427 6.26782L46.4616 5.85772C48.546 5.04947 50.7975 4.76951 53.0161 5.04286C55.2423 5.31715 57.3659 6.14 59.1969 7.43783L59.2157 7.45116L59.2357 7.46271L183.372 79.2756C189.617 82.9197 195.36 89.6822 199.545 97.6924C203.727 105.698 206.325 114.898 206.325 123.372L206.324 451.424L206.325 451.438C206.438 455.554 205.62 459.643 203.934 463.398L203.7 463.334V463.989V464.433C200.692 469.611 195.894 473.502 190.219 475.372L186.322 468.116L186.255 467.991L186.132 467.92L61.6809 395.844C61.6807 395.844 61.6805 395.844 61.6802 395.844C55.4618 392.2 49.7318 385.437 45.5537 377.427C41.3779 369.421 38.7802 360.221 38.7802 351.747V23.7479V23.7347L38.7795 23.7215C38.7074 22.3599 38.7072 20.9954 38.7788 19.6338L39.04 17.123Z" fill="white" stroke="white"/>
<path d="M186.431 481.251L186.596 481.574L186.955 481.517L188.267 481.307L188.287 481.303L188.306 481.299C192.151 480.364 195.76 478.64 198.905 476.236C202.05 473.832 204.663 470.801 206.577 467.333L206.582 467.324L206.587 467.315L207.007 466.474L207.01 466.467L207.014 466.46C209.038 462.062 210.024 457.257 209.894 452.417V124.372C209.894 115.13 207.072 105.154 202.528 96.4873C197.985 87.8246 191.695 80.4193 184.713 76.3622L184.711 76.3615L60.3778 4.60872C57.9571 2.98458 55.1847 1.96121 52.2903 1.62346C49.3902 1.28505 46.4513 1.64476 43.7179 2.67268L43.7107 2.67538L43.7036 2.6783C38.355 4.87915 34.2277 8.69108 30.152 12.6409L30.1195 12.6725L30.0931 12.7094L27.5931 16.2094L27.3166 16.5965L27.6895 16.8919L33.0009 21.0994V21.1047V21.1126V21.1206V21.1285V21.1364V21.1444V21.1523V21.1602V21.1681V21.1761V21.184V21.1919V21.1998V21.2077V21.2156V21.2235V21.2314V21.2393V21.2472V21.2551V21.263V21.2709V21.2788V21.2867V21.2946V21.3024V21.3103V21.3182V21.3261V21.3339V21.3418V21.3497V21.3576V21.3654V21.3733V21.3811V21.389V21.3969V21.4047V21.4126V21.4204V21.4283V21.4361V21.444V21.4518V21.4596V21.4675V21.4753V21.4832V21.491V21.4988V21.5066V21.5145V21.5223V21.5301V21.5379V21.5458V21.5536V21.5614V21.5692V21.577V21.5848V21.5926V21.6004V21.6082V21.616V21.6238V21.6316V21.6394V21.6472V21.655V21.6628V21.6706V21.6784V21.6862V21.6939V21.7017V21.7095V21.7173V21.725V21.7328V21.7406V21.7484V21.7561V21.7639V21.7716V21.7794V21.7872V21.7949V21.8027V21.8104V21.8182V21.8259V21.8337V21.8414V21.8492V21.8569V21.8647V21.8724V21.8801V21.8879V21.8956V21.9033V21.9111V21.9188V21.9265V21.9342V21.942V21.9497V21.9574V21.9651V21.9728V21.9805V21.9883V21.996V22.0037V22.0114V22.0191V22.0268V22.0345V22.0422V22.0499V22.0576V22.0653V22.073V22.0807V22.0884V22.096V22.1037V22.1114V22.1191V22.1268V22.1345V22.1421V22.1498V22.1575V22.1652V22.1728V22.1805V22.1882V22.1958V22.2035V22.2112V22.2188V22.2265V22.2342V22.2418V22.2495V22.2571V22.2648V22.2724V22.2801V22.2877V22.2954V22.303V22.3107V22.3183V22.3259V22.3336V22.3412V22.3489V22.3565V22.3641V22.3718V22.3794V22.387V22.3946V22.4023V22.4099V22.4175V22.4251V22.4328V22.4404V22.448V22.4556V22.4632V22.4708V22.4784V22.486V22.4937V22.5013V22.5089V22.5165V22.5241V22.5317V22.5393V22.5469V22.5545V22.5621V22.5697V22.5773V22.5848V22.5924V22.6V22.6076V22.6152V22.6228V22.6304V22.6379V22.6455V22.6531V22.6607V22.6683V22.6758V22.6834V22.691V22.6986V22.7061V22.7137V22.7213V22.7288V22.7364V22.744V22.7515V22.7591V22.7666V22.7742V22.7818V22.7893V22.7969V22.8044V22.812V22.8195V22.8271V22.8346V22.8422V22.8497V22.8573V22.8648V22.8723V22.8799V22.8874V22.895V22.9025V22.91V22.9176V22.9251V22.9326V22.9402V22.9477V22.9552V22.9628V22.9703V22.9778V22.9853V22.9929V23.0004V23.0079V23.0154V23.023V23.0305V23.038V23.0455V23.053V23.0605V23.0681V23.0756V23.0831V23.0906V23.0981V23.1056V23.1131V23.1206V23.1281V23.1356V23.1431V23.1506V23.1581V23.1656V23.1731V23.1806V23.1881V23.1956V23.2031V23.2106V23.2181V23.2256V23.2331V23.2406V23.2481V23.2556V23.2631V23.2705V23.278V23.2855V23.293V23.3005V23.308V23.3154V23.3229V23.3304V23.3379V23.3454V23.3528V23.3603V23.3678V23.3753V23.3827V23.3902V23.3977V23.4051V23.4126V23.4201V23.4275V23.435V23.4425V23.4499V23.4574V23.4649V23.4723V23.4798V23.4873V23.4947V23.5022V23.5096V23.5171V23.5246V23.532V23.5395V23.5469V23.5544V23.5618V23.5693V23.5767V23.5842V23.5916V23.5991V23.6065V23.614V23.6214V23.6289V23.6363V23.6438V23.6512V23.6587V23.6661V23.6735V23.681V23.6884V23.6959V23.7033V23.7107V23.7182V23.7256V23.7331V23.7405V23.7479V23.7554V23.7628V23.7702V23.7777V23.7851V23.7925V23.8V23.8074V23.8148V23.8223V23.8297V23.8371V23.8445V23.852V23.8594V23.8668V23.8743V23.8817V23.8891V23.8965V23.904V23.9114V23.9188V23.9262V23.9336V23.9411V23.9485V23.9559V23.9633V23.9707V23.9782V23.9856V23.993V24.0004V24.0078V24.0152V24.0227V24.0301V24.0375V24.0449V24.0523V24.0597V24.0672V24.0746V24.082V24.0894V24.0968V24.1042V24.1116V24.119V24.1264V24.1339V24.1413V24.1487V24.1561V24.1635V24.1709V24.1783V24.1857V24.1931V24.2005V24.2079V24.2153V24.2227V24.2301V24.2375V24.2449V24.2523V24.2598V24.2672V24.2746V24.282V24.2894V24.2968V24.3042V24.3116V24.319V24.3264V24.3338V24.3412V24.3486V24.356V24.3634V24.3708V24.3782V24.3856V24.393V24.4004V24.4078V24.4152V24.4226V24.43V24.4374V24.4447V24.4521V24.4595V24.4669V24.4743V24.4817V24.4891V24.4965V24.5039V24.5113V24.5187V24.5261V24.5335V24.5409V24.5483V24.5557V24.5631V24.5705V24.5779V24.5853V24.5927V24.6V24.6074V24.6148V24.6222V24.6296V24.637V24.6444V24.6518V24.6592V24.6666V24.674V24.6814V24.6888V24.6962V24.7036V24.711V24.7183V24.7257V24.7331V24.7405V24.7479V352.747C33.0009 361.99 35.8361 371.979 40.3938 380.652C44.9492 389.321 51.253 396.727 58.2361 400.758L181.826 472.235L186.431 481.251ZM38.04 18.123L38.119 17.3628L37.3908 17.5948L36.6002 17.8468L34.0499 13.9033C37.2035 11.1566 40.7684 8.92161 44.615 7.28065L44.629 7.27466L44.6427 7.26782L45.4616 6.85772C47.546 6.04947 49.7975 5.76951 52.0161 6.04286C54.2423 6.31715 56.3659 7.14 58.1969 8.43783L58.2157 8.45116L58.2357 8.46271L182.372 80.2756C188.617 83.9197 194.36 90.6822 198.545 98.6924C202.727 106.698 205.325 115.898 205.325 124.372L205.324 452.424L205.325 452.438C205.438 456.554 204.62 460.643 202.934 464.398L202.7 464.334V464.989V465.433C199.692 470.611 194.894 474.502 189.219 476.372L185.322 469.116L185.255 468.991L185.132 468.92L60.6809 396.844C60.6807 396.844 60.6805 396.844 60.6802 396.844C54.4618 393.2 48.7318 386.437 44.5537 378.427C40.3779 370.421 37.7802 361.221 37.7802 352.747V24.7479V24.7347L37.7795 24.7215C37.7074 23.3599 37.7072 21.9954 37.7788 20.6338L38.04 18.123Z" fill="#182F43" stroke="black"/>
<path d="M173.229 477.291L48.8281 405.477C35.5482 397.802 24.7354 377.194 24.7354 359.372V31.4253C24.7354 13.6558 35.5482 5.50711 48.8281 13.1827L173.229 85.0491C186.561 92.7246 197.322 113.333 197.322 131.05V459.259C197.112 476.818 186.351 485.019 173.229 477.291Z" fill="white"/>
<path d="M182.624 481.969C178.913 481.883 175.29 480.813 172.126 478.868L47.9355 407.001C34.1832 399.063 23.0029 377.718 23.0029 359.686V31.4243C23.0029 21.4355 26.3623 13.76 32.1886 10.3953C34.9546 9.00903 38.0423 8.39459 41.1273 8.61662C44.2123 8.83864 47.1806 9.88893 49.7202 11.6571L173.911 83.4709C187.663 91.4619 198.843 112.806 198.843 131.049V459.258C198.843 469.247 195.484 476.87 189.658 480.287C187.497 481.445 185.074 482.025 182.624 481.969ZM39.2747 12.0777C37.4358 12.0649 35.6257 12.5363 34.0258 13.4445C29.2492 16.1783 26.5197 22.9076 26.5197 31.4243V359.371C26.5197 376.562 37.0177 396.539 49.7202 403.899L173.911 475.766C175.919 477.214 178.276 478.099 180.74 478.33C183.204 478.561 185.684 478.129 187.926 477.08C192.65 474.346 195.327 467.775 195.327 459.1V131.049C195.327 113.91 184.829 93.9328 172.179 86.5727L47.9355 14.7063C45.323 13.0972 42.3396 12.1917 39.2747 12.0777Z" fill="#182F43"/>
<path d="M165.513 91.2514L121.684 66.1744C121.545 66.1047 121.39 66.0706 121.234 66.0754C121.078 66.0801 120.926 66.1234 120.79 66.2015C120.655 66.2797 120.541 66.3901 120.459 66.5229C120.377 66.6558 120.329 66.807 120.319 66.963V69.7493C120.36 70.8118 120.112 71.8654 119.602 72.7982C119.093 73.7309 118.341 74.5081 117.426 75.0472C116.511 75.5863 115.467 75.8672 114.405 75.86C113.344 75.8529 112.304 75.5579 111.396 75.0066L108.824 73.4294C106.68 72.1349 104.906 70.3077 103.674 68.1248C102.441 65.9419 101.793 63.4774 101.791 60.9697V56.2908C101.781 55.7389 101.631 55.1985 101.356 54.7203C101.08 54.2421 100.688 53.8419 100.216 53.5571L46.1515 22.0136C39.4853 18.1759 34.0264 21.3302 34.0264 29.0583V360.685C34.4578 368.448 36.7006 376.002 40.5748 382.74C44.4491 389.478 49.8467 395.213 56.3345 399.483L175.696 468.458C182.362 472.348 187.874 469.194 187.874 461.466V129.787C187.4 122.063 185.132 114.557 181.25 107.867C177.368 101.176 171.979 95.4868 165.513 91.2514Z" fill="#2B445B"/>
<path d="M181.103 471.877C178.855 471.745 176.682 471.019 174.805 469.774L55.4431 401.009C48.6883 396.583 43.0684 390.626 39.038 383.621C35.0076 376.616 32.6797 368.759 32.2426 360.686V29.0598C32.077 27.2366 32.4096 25.4027 33.2048 23.7543C34 22.1059 35.2278 20.7051 36.7567 19.7019C38.4123 18.863 40.2652 18.4931 42.1153 18.6321C43.9655 18.7711 45.7426 19.4137 47.2547 20.4905L101.057 51.6134C101.804 52.0453 102.424 52.6657 102.857 53.4129C103.29 54.1601 103.52 55.0079 103.524 55.8717V60.5507C103.538 62.7584 104.115 64.926 105.199 66.8486C106.282 68.7712 107.838 70.3852 109.717 71.5383L112.342 73.0629C112.968 73.4309 113.679 73.628 114.404 73.6347C115.13 73.6413 115.844 73.4572 116.476 73.1007C117.109 72.7441 117.636 72.2277 118.007 71.603C118.377 70.9783 118.578 70.2671 118.588 69.5405V66.7542C118.576 66.2855 118.692 65.8224 118.923 65.4148C119.154 65.0072 119.492 64.6705 119.9 64.441C120.299 64.2103 120.752 64.0888 121.213 64.0888C121.673 64.0888 122.126 64.2103 122.525 64.441L166.406 89.518C173.154 93.9394 178.77 99.8878 182.8 106.883C186.83 113.878 189.162 121.724 189.607 129.788V461.467C189.778 463.285 189.453 465.116 188.668 466.764C187.882 468.412 186.664 469.816 185.145 470.825C183.922 471.546 182.522 471.91 181.103 471.877ZM40.7459 22.1728C39.9216 22.1915 39.12 22.447 38.4364 22.9089C37.4791 23.6348 36.7282 24.5991 36.2586 25.7059C35.7889 26.8127 35.6168 28.0234 35.7594 29.2175V360.686C36.1495 368.147 38.2983 375.41 42.0297 381.88C45.7612 388.349 50.9693 393.842 57.2277 397.907L176.589 466.935C177.473 467.749 178.589 468.264 179.781 468.408C180.973 468.551 182.18 468.316 183.231 467.734C184.281 467.153 185.123 466.255 185.636 465.168C186.149 464.081 186.308 462.86 186.09 461.678V129.788C185.679 122.332 183.522 115.077 179.792 108.611C176.062 102.145 170.866 96.6486 164.622 92.5672L122.105 68.2262V69.5405C122.103 70.897 121.741 72.2287 121.058 73.3998C120.374 74.5709 119.393 75.5398 118.214 76.2076C117.036 76.8754 115.701 77.2184 114.347 77.2016C112.992 77.1849 111.667 76.8089 110.505 76.1121L107.933 74.5349C105.521 73.0854 103.523 71.0363 102.135 68.5861C100.746 66.136 100.013 63.368 100.007 60.5507V55.8717C100.001 55.6295 99.936 55.3924 99.817 55.1815C99.698 54.9705 99.5288 54.7923 99.3245 54.6626L45.3126 23.5923C43.9361 22.737 42.3641 22.2483 40.7459 22.1728Z" fill="#182F43"/>
<path d="M113.968 67.5937C113.968 69.5389 112.603 70.3275 110.923 69.3812C110.045 68.7995 109.314 68.0222 108.786 67.1102C108.257 66.1981 107.947 65.1761 107.879 64.124C107.879 62.1262 109.244 61.3376 110.923 62.3365C111.801 62.9182 112.533 63.6955 113.061 64.6075C113.589 65.5196 113.9 66.5416 113.968 67.5937Z" fill="#182F43"/>
<path d="M205.252 111.609L195.616 116.406L196.784 118.76L206.42 113.963L205.252 111.609Z" fill="#2B445B"/>
<path d="M198.581 443.751L197.321 441.438C200.663 439.666 203.811 437.552 206.717 435.129L208.502 437.074C205.466 439.68 202.137 441.921 198.581 443.751Z" fill="#2B445B"/>
<path d="M198.581 465.514L197.321 463.201C200.663 461.43 203.811 459.315 206.717 456.893L208.502 458.838C205.452 461.424 202.124 463.663 198.581 465.514Z" fill="#2B445B"/>
<path d="M201.1 270.314C200.644 270.316 200.194 270.208 199.788 269.998C199.256 269.636 198.829 269.138 198.552 268.556C198.275 267.974 198.158 267.329 198.213 266.686V244.448C198.232 243.21 198.54 241.994 199.115 240.898C199.689 239.802 200.513 238.857 201.52 238.139H201.94C202.399 237.861 202.926 237.714 203.462 237.714C203.999 237.714 204.526 237.861 204.985 238.139C205.531 238.491 205.971 238.985 206.258 239.569C206.545 240.152 206.667 240.803 206.612 241.451V263.69C206.596 264.934 206.283 266.156 205.699 267.253C205.114 268.351 204.275 269.292 203.253 269.998H202.833C202.292 270.251 201.695 270.36 201.1 270.314ZM203.672 240.085C203.536 240.04 203.389 240.04 203.253 240.085H202.833C202.228 240.563 201.735 241.169 201.391 241.86C201.046 242.55 200.857 243.308 200.838 244.08V266.318C200.797 266.672 200.891 267.029 201.1 267.317C201.239 267.349 201.382 267.349 201.52 267.317H201.94C202.545 266.839 203.038 266.233 203.382 265.542C203.727 264.851 203.916 264.093 203.935 263.322V241.083C203.935 240.347 203.935 240.085 203.672 240.085Z" fill="#2B445B"/>
<path d="M201.1 234.669C200.636 234.678 200.18 234.55 199.788 234.301C199.256 233.939 198.829 233.441 198.552 232.859C198.275 232.277 198.158 231.631 198.213 230.989V208.751C198.231 207.52 198.541 206.312 199.115 205.224C199.69 204.137 200.514 203.201 201.52 202.494H201.94C202.403 202.227 202.928 202.086 203.462 202.086C203.997 202.086 204.522 202.227 204.985 202.494C205.531 202.846 205.971 203.34 206.258 203.924C206.545 204.507 206.667 205.158 206.612 205.807V227.939C206.588 229.174 206.271 230.386 205.687 231.474C205.102 232.562 204.268 233.495 203.253 234.196H202.833C202.316 234.524 201.712 234.689 201.1 234.669ZM203.672 204.387H203.253H202.833C202.228 204.865 201.735 205.472 201.391 206.162C201.046 206.853 200.857 207.611 200.838 208.383V230.621C200.838 231.304 200.838 231.62 201.1 231.62C201.167 231.648 201.238 231.663 201.31 231.663C201.383 231.663 201.454 231.648 201.52 231.62H201.94C202.539 231.147 203.027 230.549 203.371 229.868C203.716 229.187 203.908 228.439 203.935 227.677V205.439C203.979 205.068 203.886 204.694 203.672 204.387Z" fill="#2B445B"/>
<path d="M201.1 193.978C200.64 193.962 200.19 193.836 199.788 193.61C199.256 193.248 198.829 192.75 198.552 192.168C198.275 191.586 198.158 190.941 198.213 190.298V177.786C198.231 176.555 198.541 175.347 199.115 174.259C199.69 173.172 200.514 172.236 201.52 171.53L201.94 171.267C202.406 171.009 202.93 170.874 203.462 170.874C203.995 170.874 204.519 171.009 204.985 171.267C205.527 171.635 205.963 172.14 206.249 172.73C206.535 173.321 206.66 173.977 206.612 174.632V186.933C206.596 188.177 206.283 189.399 205.699 190.497C205.114 191.595 204.275 192.536 203.253 193.242H202.833C202.333 193.641 201.734 193.895 201.1 193.978ZM203.672 173.422C203.536 173.378 203.389 173.378 203.253 173.422H202.833C202.228 173.901 201.735 174.507 201.391 175.197C201.046 175.888 200.857 176.646 200.838 177.418V189.93C200.838 190.614 200.838 190.929 201.1 190.929C201.239 190.961 201.382 190.961 201.52 190.929H201.94C202.545 190.451 203.038 189.845 203.382 189.154C203.727 188.463 203.916 187.705 203.935 186.933V174.474C203.935 173.738 203.935 173.422 203.672 173.422Z" fill="#2B445B"/>
<path d="M197.604 93.3229L188.032 99.0078L189.371 101.269L198.942 95.5838L197.604 93.3229Z" fill="#2B445B"/>
<path d="M83.2089 181.256L45.8887 159.596C45.6289 159.411 45.4171 159.167 45.271 158.883C45.1249 158.6 45.0487 158.285 45.0488 157.966V115.172C45.0488 114.542 45.4163 114.279 45.8887 114.542L83.2089 136.096C83.4686 136.281 83.6804 136.525 83.8265 136.809C83.9727 137.092 84.0488 137.407 84.0487 137.726V180.625C83.9962 181.203 83.6813 181.519 83.2089 181.256Z" fill="#2B445B"/>
<path d="M82.631 182.465L65.4143 172.528L66.7791 170.215L83.9957 180.099L82.631 182.465ZM85.3604 171.95H82.7359V152.183H85.3604V171.95ZM56.806 167.482L45.2058 160.805C44.7519 160.492 44.3777 160.077 44.1133 159.593C43.8489 159.109 43.7017 158.57 43.6836 158.019V153.497H46.3606V158.019C46.3005 158.189 46.3005 158.374 46.3606 158.544L57.9083 165.221L56.806 167.482ZM46.3606 143.824H43.6836V123.741H46.3606V143.824ZM85.3604 142.51H82.7359V137.988C82.7738 137.833 82.7738 137.671 82.7359 137.515L71.1357 130.786L72.448 128.525L83.9957 134.939C84.4589 135.242 84.8402 135.655 85.1057 136.141C85.3713 136.627 85.5129 137.172 85.5179 137.726L85.3604 142.51ZM62.3699 125.844L45.2058 115.698L46.4656 113.332L63.6822 123.268L62.3699 125.844Z" fill="white"/>
<path d="M129.61 208.068L92.2898 186.461C92.0234 186.279 91.8037 186.037 91.6486 185.753C91.4936 185.47 91.4075 185.154 91.3975 184.831V141.985C91.3975 141.354 91.8174 141.091 92.2898 141.354L129.61 162.909C129.865 163.11 130.073 163.365 130.218 163.656C130.363 163.947 130.442 164.266 130.45 164.591V207.438C130.45 208.068 130.082 208.331 129.61 208.068Z" fill="#2B445B"/>
<path d="M129.924 209.486C129.577 209.473 129.236 209.383 128.927 209.223L91.6069 187.616C91.1404 187.317 90.7565 186.904 90.4906 186.418C90.2246 185.931 90.085 185.385 90.0847 184.83V141.983C90.0754 141.622 90.1571 141.264 90.3222 140.942C90.4874 140.621 90.7306 140.346 91.0295 140.143C91.3168 139.977 91.6426 139.89 91.9743 139.89C92.306 139.89 92.6319 139.977 92.9191 140.143L130.239 161.75C130.706 162.05 131.09 162.462 131.356 162.949C131.622 163.436 131.761 163.982 131.762 164.537V207.436C131.771 207.797 131.689 208.155 131.524 208.477C131.359 208.798 131.116 209.073 130.817 209.276C130.544 209.425 130.235 209.498 129.924 209.486ZM92.7617 143.14V184.83C92.727 184.913 92.7092 185.002 92.7092 185.093C92.7092 185.183 92.727 185.272 92.7617 185.355L128.927 206.384V164.852C128.974 164.68 128.974 164.499 128.927 164.326L92.7617 143.14Z" fill="white"/>
<path d="M175.959 234.88L138.639 213.326C138.379 213.141 138.167 212.897 138.021 212.613C137.875 212.33 137.799 212.015 137.799 211.696V168.85C137.799 168.219 138.166 167.903 138.639 168.166L175.959 189.773C176.225 189.955 176.445 190.198 176.6 190.481C176.755 190.764 176.841 191.08 176.851 191.403V234.25C176.851 234.88 176.431 235.143 175.959 234.88Z" fill="#2B445B"/>
<path d="M176.325 236.3C175.973 236.319 175.624 236.227 175.328 236.037L138.007 214.482C137.544 214.179 137.163 213.766 136.897 213.28C136.632 212.794 136.49 212.25 136.485 211.696V168.849C136.46 168.486 136.535 168.122 136.701 167.797C136.868 167.473 137.12 167.201 137.43 167.009C137.717 166.843 138.043 166.756 138.375 166.756C138.707 166.756 139.032 166.843 139.32 167.009L176.64 188.617C177.103 188.92 177.484 189.333 177.75 189.819C178.015 190.305 178.157 190.849 178.162 191.403V234.249C178.176 234.612 178.097 234.971 177.931 235.294C177.766 235.616 177.52 235.89 177.217 236.089C176.942 236.234 176.635 236.306 176.325 236.3ZM139.11 170.111V211.854C139.072 212.009 139.072 212.171 139.11 212.327L175.275 233.356V191.403C175.335 191.233 175.335 191.047 175.275 190.877L139.11 170.111Z" fill="white"/>
<path d="M129.61 315.631L45.8887 267.212C45.6289 267.027 45.4171 266.782 45.271 266.499C45.1249 266.215 45.0487 265.901 45.0488 265.582V168.954C45.0488 168.323 45.4163 168.008 45.8887 168.323L129.872 216.69C130.126 216.88 130.333 217.126 130.479 217.408C130.624 217.69 130.704 218.002 130.712 218.319V315C130.45 315.578 130.082 315.894 129.61 315.631Z" fill="#2B445B"/>
<path d="M129.924 317.313C129.576 317.3 129.236 317.21 128.927 317.05L45.2058 268.368C44.7519 268.055 44.3777 267.64 44.1133 267.156C43.8489 266.672 43.7017 266.133 43.6836 265.581V168.953C43.6636 168.584 43.7462 168.217 43.9223 167.892C44.0984 167.567 44.361 167.298 44.6809 167.113C44.9584 166.947 45.2759 166.858 45.5995 166.858C45.9231 166.858 46.2406 166.947 46.518 167.113L130.502 215.532C130.967 215.82 131.352 216.222 131.618 216.701C131.885 217.179 132.024 217.718 132.024 218.266V314.999C132.033 315.361 131.951 315.719 131.786 316.04C131.621 316.362 131.378 316.637 131.079 316.839C130.741 317.094 130.343 317.257 129.924 317.313ZM46.3606 170.11V265.581C46.311 265.753 46.311 265.935 46.3606 266.107L129.137 313.79V218.319C129.175 218.163 129.175 218.001 129.137 217.846L46.3606 170.11Z" fill="white"/>
<path d="M175.959 288.661L138.639 267.107C138.385 266.916 138.177 266.671 138.032 266.389C137.887 266.106 137.807 265.795 137.799 265.477V222.683C137.799 222.052 138.166 221.789 138.639 222.052L175.959 243.712C176.225 243.894 176.445 244.137 176.6 244.42C176.755 244.703 176.841 245.019 176.851 245.342V288.188C176.851 288.661 176.431 288.924 175.959 288.661Z" fill="#2B445B"/>
<path d="M175.434 289.871L158.322 279.987L159.634 277.726L176.798 287.61L175.434 289.871ZM178.163 279.356H175.486V259.484H178.163V279.356ZM149.609 274.888L138.009 268.158C137.543 267.871 137.158 267.469 136.892 266.99C136.625 266.511 136.486 265.972 136.486 265.424V260.903H139.111V265.424C139.073 265.58 139.073 265.742 139.111 265.898L150.711 272.574L149.609 274.888ZM139.111 250.967H136.486V231.147H139.111V250.967ZM178.163 249.6H175.486V245.132C175.521 245.048 175.539 244.959 175.539 244.869C175.539 244.778 175.521 244.689 175.486 244.606L163.938 237.929L165.251 235.616L176.851 242.345C177.317 242.645 177.701 243.057 177.967 243.544C178.233 244.031 178.373 244.577 178.373 245.132L178.163 249.6ZM155.12 233.198L138.009 223.314L139.216 220.948L156.38 230.884L155.12 233.198Z" fill="white"/>
<path d="M175.958 154.338L45.8887 79.0548C45.6289 78.8701 45.4171 78.6257 45.271 78.3422C45.1249 78.0586 45.0487 77.7441 45.0488 77.4251V61.6534C45.0488 61.0225 45.4163 60.7071 45.8887 60.9699L175.958 136.201C176.219 136.389 176.434 136.633 176.589 136.915C176.743 137.197 176.833 137.51 176.85 137.831V153.602C176.85 154.338 176.431 154.601 175.958 154.338Z" fill="#2B445B"/>
<path d="M176.326 155.76C175.969 155.76 175.621 155.65 175.329 155.444L45.2067 80.2132C44.7467 79.9069 44.3679 79.4933 44.1027 79.008C43.8376 78.5226 43.694 77.9801 43.6845 77.4269V61.6552C43.6369 61.2682 43.7066 60.8758 43.8844 60.529C44.0622 60.1821 44.34 59.8968 44.6818 59.71C44.9592 59.5432 45.2767 59.4551 45.6004 59.4551C45.924 59.4551 46.2415 59.5432 46.5189 59.71L176.641 135.099C177.107 135.386 177.491 135.788 177.758 136.267C178.024 136.746 178.164 137.285 178.163 137.833V153.604C178.177 153.967 178.098 154.326 177.932 154.649C177.767 154.971 177.521 155.245 177.218 155.444C176.951 155.622 176.645 155.73 176.326 155.76ZM46.3615 62.8118V77.4269C46.3268 77.5102 46.309 77.5995 46.309 77.6898C46.309 77.78 46.3268 77.8693 46.3615 77.9526L175.486 152.5V137.833C175.542 137.68 175.542 137.512 175.486 137.359L46.3615 62.8118Z" fill="white"/>
<path d="M175.958 431.816L45.8887 356.585C45.6289 356.4 45.4171 356.156 45.271 355.872C45.1249 355.588 45.0487 355.274 45.0488 354.955V339.183C45.0488 338.552 45.4163 338.289 45.8887 338.552L175.958 413.731C176.225 413.913 176.444 414.155 176.599 414.439C176.754 414.722 176.84 415.038 176.85 415.361V431.132C176.85 431.816 176.431 432.079 175.958 431.816Z" fill="#2B445B"/>
<path d="M176.327 433.236C175.999 433.314 175.657 433.314 175.329 433.236L45.2073 357.742C44.7535 357.43 44.3792 357.015 44.1149 356.531C43.8505 356.047 43.7033 355.507 43.6851 354.956V339.184C43.671 338.816 43.7561 338.451 43.9316 338.127C44.1071 337.803 44.3665 337.533 44.6824 337.344C44.9634 337.188 45.2795 337.105 45.601 337.105C45.9225 337.105 46.2386 337.188 46.5196 337.344L176.642 412.575C177.105 412.878 177.486 413.291 177.752 413.777C178.017 414.263 178.159 414.807 178.164 415.361V431.133C178.173 431.495 178.091 431.853 177.926 432.174C177.761 432.496 177.518 432.77 177.219 432.973C176.949 433.136 176.642 433.227 176.327 433.236ZM46.3621 340.288V354.956C46.3125 355.128 46.3125 355.31 46.3621 355.482L175.487 430.029V415.361C175.543 415.209 175.543 415.041 175.487 414.888L46.3621 340.288Z" fill="white"/>
<path d="M129.61 154.338L45.8887 105.656C45.6289 105.471 45.4171 105.227 45.271 104.943C45.1249 104.66 45.0487 104.345 45.0488 104.026V88.2545C45.0488 87.6237 45.4163 87.3608 45.8887 87.6236L129.872 136.043C130.132 136.228 130.344 136.472 130.49 136.755C130.636 137.039 130.712 137.353 130.712 137.673V153.444C130.45 154.338 130.082 154.338 129.61 154.338Z" fill="#2B445B"/>
<path d="M129.926 155.496C129.597 155.567 129.257 155.567 128.928 155.496L45.2073 107.024C44.7535 106.712 44.3792 106.297 44.1149 105.813C43.8505 105.329 43.7033 104.789 43.6851 104.238V88.4661C43.671 88.0979 43.7561 87.7328 43.9316 87.409C44.1071 87.0852 44.3665 86.8147 44.6824 86.626C44.9599 86.4592 45.2774 86.3711 45.601 86.3711C45.9246 86.3711 46.2421 86.4592 46.5196 86.626L130.503 135.045C130.966 135.348 131.348 135.761 131.613 136.247C131.879 136.733 132.02 137.277 132.025 137.832V153.603C132.035 153.965 131.953 154.323 131.788 154.644C131.623 154.966 131.379 155.241 131.081 155.443C130.713 155.593 130.305 155.611 129.926 155.496ZM46.3621 89.3598V104.027C46.3125 104.199 46.3125 104.381 46.3621 104.553L129.138 152.289V137.621C129.168 137.447 129.168 137.27 129.138 137.095L46.3621 89.3598Z" fill="white"/>
<path d="M175.959 180.888L138.639 159.596C138.379 159.412 138.167 159.167 138.021 158.884C137.875 158.6 137.799 158.286 137.799 157.967V142.195C137.799 141.564 138.166 141.249 138.639 141.564L175.959 163.119C176.225 163.301 176.445 163.543 176.6 163.827C176.755 164.11 176.841 164.426 176.851 164.749V180.52C176.851 180.888 176.431 181.151 175.959 180.888Z" fill="#2B445B"/>
<path d="M175.433 182.097L157.482 171.687L158.794 169.374L176.745 179.889L175.433 182.097ZM178.163 171.214H175.486V164.432C175.542 164.28 175.542 164.112 175.486 163.959L164.988 157.913L166.3 155.653L176.798 161.646C177.261 161.949 177.642 162.362 177.908 162.848C178.174 163.334 178.315 163.878 178.32 164.432L178.163 171.214ZM148.401 166.483L137.903 160.437C137.437 160.149 137.053 159.747 136.786 159.269C136.52 158.79 136.38 158.251 136.381 157.703V150.869H139.005V157.703C138.968 157.858 138.968 158.021 139.005 158.176L149.503 164.169L148.401 166.483ZM155.907 152.761L138.008 142.247L139.215 139.934L157.167 150.448L155.907 152.761Z" fill="white"/>
<path d="M175.959 342.443L138.639 320.889C138.388 320.696 138.182 320.449 138.037 320.168C137.892 319.886 137.811 319.576 137.799 319.259V276.36C137.799 275.729 138.166 275.466 138.639 275.729L175.959 297.336C176.225 297.518 176.445 297.761 176.6 298.044C176.755 298.327 176.841 298.643 176.851 298.966V341.812C176.851 342.443 176.431 342.706 175.959 342.443Z" fill="#2B445B"/>
<path d="M176.326 343.862C175.998 343.94 175.656 343.94 175.328 343.862L138.008 322.255C137.542 321.967 137.158 321.565 136.892 321.087C136.625 320.608 136.485 320.069 136.486 319.521V276.359C136.477 275.998 136.559 275.64 136.724 275.318C136.889 274.997 137.132 274.722 137.431 274.519C137.718 274.353 138.044 274.266 138.376 274.266C138.707 274.266 139.033 274.353 139.321 274.519L176.641 296.284C177.107 296.584 177.491 296.996 177.757 297.483C178.023 297.97 178.163 298.515 178.163 299.07V341.917C178.172 342.278 178.09 342.636 177.925 342.958C177.76 343.28 177.517 343.554 177.218 343.757C176.934 343.865 176.627 343.902 176.326 343.862ZM139.111 277.516V319.258C139.073 319.414 139.073 319.576 139.111 319.731L175.276 340.76V298.965C175.311 298.882 175.328 298.793 175.328 298.702C175.328 298.612 175.311 298.523 175.276 298.44L139.111 277.516Z" fill="white"/>
<path d="M83.2089 342.548L45.8887 320.994C45.6289 320.809 45.4171 320.565 45.271 320.281C45.1249 319.998 45.0487 319.683 45.0488 319.364V276.518C45.0488 275.887 45.4163 275.571 45.8887 275.834L83.2089 297.441C83.4686 297.626 83.6804 297.87 83.8265 298.154C83.9727 298.438 84.0488 298.752 84.0487 299.071V341.918C83.9962 342.548 83.6813 342.864 83.2089 342.548Z" fill="#2B445B"/>
<path d="M82.6835 343.601L65.5193 333.717L66.8841 331.404L83.9957 341.446L82.6835 343.601ZM85.3604 333.087H82.7359V313.477H85.3604V333.087ZM56.806 328.565L45.2058 322.152C44.7519 321.839 44.3777 321.424 44.1133 320.94C43.8489 320.456 43.7017 319.917 43.6836 319.365V314.844H46.3606V319.365C46.3043 319.518 46.3043 319.686 46.3606 319.838L57.9083 326.568L56.806 328.565ZM46.3081 304.645H43.6836V285.088H46.3606L46.3081 304.645ZM85.3079 303.331H82.6835V298.809C82.7213 298.654 82.7213 298.492 82.6835 298.336L71.0832 291.607L72.3955 289.294L83.9957 296.286C84.4589 296.589 84.8402 297.002 85.1057 297.488C85.3713 297.974 85.5129 298.518 85.5179 299.072L85.3079 303.331ZM62.3174 286.665L45.2058 276.992L46.4656 274.679L63.6822 284.615L62.3174 286.665Z" fill="white"/>
<path d="M175.958 396.171L92.2898 347.805C92.0234 347.623 91.8037 347.38 91.6486 347.097C91.4936 346.814 91.4075 346.498 91.3975 346.175V303.329C91.3975 302.698 91.8174 302.435 92.2898 302.698L175.958 351.064C176.216 351.255 176.43 351.499 176.584 351.781C176.738 352.062 176.829 352.374 176.851 352.694V395.593C176.851 396.171 176.431 396.487 175.958 396.171Z" fill="#2B445B"/>
<path d="M176.326 397.645C175.998 397.716 175.658 397.716 175.329 397.645L91.6078 348.858C91.1446 348.555 90.7633 348.142 90.4978 347.656C90.2322 347.169 90.0907 346.625 90.0856 346.071V303.33C90.0714 302.968 90.1509 302.608 90.3164 302.285C90.482 301.963 90.7279 301.689 91.0304 301.49C91.3177 301.324 91.6435 301.236 91.9752 301.236C92.3069 301.236 92.6328 301.324 92.9201 301.49L176.904 349.909C177.369 350.196 177.754 350.599 178.02 351.077C178.287 351.556 178.426 352.095 178.426 352.643V395.542C178.435 395.903 178.353 396.261 178.188 396.583C178.023 396.904 177.78 397.179 177.481 397.382C177.136 397.595 176.73 397.687 176.326 397.645ZM92.7626 304.487V346.176C92.713 346.348 92.713 346.53 92.7626 346.702L175.276 394.438V352.695C175.333 352.543 175.333 352.375 175.276 352.222L92.7626 304.487Z" fill="white"/>
<path d="M172.652 404.111L154.333 393.596L155.645 391.336L173.964 401.85L172.652 404.111ZM145.147 388.339L126.829 377.824L128.141 375.511L146.46 386.026L145.147 388.339ZM117.643 372.567L99.3239 362.053L100.689 359.74L119.008 370.254L117.643 372.567ZM90.1907 356.796L71.8718 346.281L73.184 344.02L91.503 354.535L90.1907 356.796ZM62.6861 341.024L44.3672 330.509L45.6794 327.828L63.9983 338.343L62.6861 341.024Z" fill="white"/>
<path d="M229.445 235.932L156.956 193.874C156.569 193.637 156.124 193.512 155.67 193.512C155.217 193.512 154.772 193.637 154.384 193.874H154.069L135.436 204.914V205.177L152.967 234.565V225.417C152.983 226.935 153.352 228.429 154.045 229.779C154.737 231.13 155.734 232.3 156.956 233.198L194.224 254.7L213.015 286.244L232.227 275.256C232.655 274.857 232.986 274.366 233.195 273.819C233.405 273.272 233.486 272.685 233.434 272.102V243.713C233.414 242.195 233.043 240.703 232.351 239.353C231.659 238.004 230.664 236.832 229.445 235.932Z" fill="white"/>
<path d="M213.583 289.305L213.783 289.353L213.958 289.246L233.957 277.049L233.984 277.032L234.008 277.013C234.814 276.37 235.453 275.542 235.869 274.598C236.283 273.66 236.466 272.635 236.401 271.611L236.401 243.291L236.401 243.286C236.383 241.285 235.874 239.319 234.92 237.56C233.966 235.802 232.595 234.305 230.928 233.201L230.916 233.193L230.903 233.185L158.469 191.129C158.469 191.128 158.469 191.128 158.468 191.128C157.652 190.649 156.722 190.396 155.776 190.396C154.829 190.396 153.899 190.649 153.082 191.129L153.082 191.129L153.079 191.13L134.131 202.38L134.119 202.387L134.108 202.394L132.061 203.761L131.668 204.024L131.908 204.431L150.542 235.975L150.777 236.372L151.192 236.17L153.135 235.222H155.167L155.612 235.546L155.633 235.562L155.656 235.575L192.286 256.802L210.696 287.708L210.701 287.715L210.706 287.723L211.283 288.617L211.392 288.786L211.588 288.832L213.583 289.305ZM150.71 224.916H150.32L150.256 225.173L138.904 206.191L155.309 196.423H155.457L227.799 238.396C228.602 239.03 229.257 239.832 229.718 240.747C230.183 241.67 230.439 242.685 230.467 243.718V271.995V272V272.005V272.01V272.015V272.02V272.025V272.03V272.035V272.039V272.044V272.049V272.054V272.059V272.063V272.068V272.073V272.078V272.082V272.087V272.092V272.096V272.101V272.106V272.11V272.115V272.12V272.124V272.129V272.133V272.138V272.143V272.147V272.152V272.156V272.161V272.165V272.17V272.174V272.179V272.183V272.188V272.192V272.196V272.201V272.205V272.21V272.214V272.218V272.223V272.227V272.231V272.236V272.24V272.244V272.249V272.253V272.257V272.261V272.266V272.27V272.274V272.278V272.283V272.287V272.291V272.295V272.299V272.303V272.307V272.312V272.316V272.32V272.324V272.328V272.332V272.336V272.34V272.344V272.348V272.352V272.356V272.36V272.364V272.368V272.372V272.376V272.38V272.384V272.388V272.391V272.395V272.399V272.403V272.407V272.411V272.415V272.418V272.422V272.426V272.43V272.434V272.437V272.441V272.445V272.448V272.452V272.456V272.46V272.463V272.467V272.471V272.474V272.478V272.481V272.485V272.489V272.492V272.496V272.499V272.503V272.507V272.51V272.514V272.517V272.521V272.524V272.528V272.531V272.535V272.538V272.541V272.545V272.548V272.552V272.555V272.558V272.562V272.565V272.569V272.572V272.575V272.579V272.582V272.585V272.588V272.592V272.595V272.598V272.601V272.605V272.608V272.611V272.614V272.618V272.621V272.624V272.627V272.63V272.633V272.636V272.64V272.643V272.646V272.649V272.652V272.655V272.658V272.661V272.664V272.667V272.67V272.673V272.676V272.679V272.682V272.685V272.688V272.691V272.694V272.697V272.7V272.703V272.706V272.708V272.711V272.714V272.717V272.72V272.723V272.725V272.728V272.731V272.734V272.737V272.739V272.742V272.745V272.748V272.75V272.753V272.756V272.758V272.761V272.764V272.767V272.769V272.772V272.774V272.777V272.78V272.782V272.785V272.787V272.79V272.793V272.795V272.798V272.8V272.803V272.805V272.808V272.81V272.813V272.815V272.818V272.82V272.823V272.825V272.827V272.83V272.832V272.835V272.837V272.839V272.842V272.844V272.846V272.849V272.851V272.853V272.856V272.858V272.86V272.863V272.865V272.867V272.869L214.238 282.612L196.701 253.181L196.685 253.155L196.666 253.131L196.299 252.658L196.239 252.58L196.154 252.531L158.445 230.732C157.642 230.098 156.986 229.295 156.526 228.381C156.06 227.456 155.804 226.439 155.777 225.403L155.764 224.916H155.277H150.71Z" fill="#182F43" stroke="white"/>
<path d="M190.865 244.395L191.39 252.912L194.277 254.594L212.963 286.137H213.488L232.227 275.255C232.655 274.856 232.987 274.365 233.196 273.818C233.405 273.271 233.487 272.684 233.434 272.101V244.027C233.434 244.027 233.434 243.764 233.434 244.027L214.696 254.857L190.865 244.395Z" fill="#182F43"/>
<path d="M213.908 288.714L212.071 288.241L211.074 287.295L192.65 256.435L188.976 254.227L188.398 243.712L189.816 241.241L214.276 252.124L232.962 240.979L235.482 242.293V243.817V271.786C235.544 272.735 235.376 273.685 234.992 274.555C234.609 275.424 234.02 276.188 233.277 276.78L213.908 288.714ZM193.595 251.651L195.852 252.965L196.219 253.438L214.013 283.299L230.968 273.153C230.968 273.153 230.968 272.837 230.968 271.996V247.708L216.113 256.54L215.326 257.802L193.175 247.971L193.595 251.651Z" fill="#182F43"/>
<path d="M210.601 286.243L138.165 244.185C136.937 243.301 135.932 242.142 135.23 240.8C134.529 239.458 134.149 237.971 134.123 236.457V208.278C134.123 205.334 135.908 203.967 138.165 205.229L210.601 247.287C211.829 248.171 212.833 249.33 213.535 250.671C214.237 252.013 214.616 253.5 214.642 255.015V283.141C214.642 286.137 212.858 287.504 210.601 286.243Z" fill="#F4B513"/>
<path d="M212.229 288.977C211.25 288.955 210.293 288.683 209.447 288.188L137.011 246.13C135.416 245.068 134.103 243.632 133.189 241.946C132.274 240.26 131.784 238.376 131.762 236.457V208.278C131.691 207.253 131.891 206.227 132.342 205.303C132.794 204.38 133.481 203.593 134.334 203.021C135.094 202.616 135.941 202.404 136.801 202.404C137.662 202.404 138.509 202.616 139.268 203.021L211.704 245.079C213.294 246.159 214.601 247.607 215.515 249.3C216.429 250.993 216.922 252.881 216.953 254.805V283.141C217.036 284.168 216.841 285.199 216.388 286.124C215.935 287.049 215.242 287.835 214.381 288.399C213.738 288.804 212.988 289.005 212.229 288.977ZM136.486 206.912C136.486 206.912 136.486 207.28 136.486 208.121V236.457C136.515 237.567 136.789 238.656 137.289 239.646C137.788 240.637 138.5 241.505 139.373 242.188L211.809 284.245C211.964 284.288 212.127 284.288 212.281 284.245C212.281 284.245 212.281 283.825 212.281 282.984V254.857C212.282 253.726 212.027 252.608 211.537 251.589C211.046 250.569 210.332 249.674 209.447 248.969L137.011 206.912C136.84 206.859 136.657 206.859 136.486 206.912Z" fill="#182F43"/>
<path d="M165.775 199.089L147.687 210.375L150.101 214.257L168.189 202.972L165.775 199.089Z" fill="#182F43"/>
<path d="M159.372 359.37L144.518 350.643C144.274 350.489 143.992 350.407 143.704 350.407C143.416 350.407 143.134 350.489 142.89 350.643L124.834 361.894C124.685 362.007 124.579 362.167 124.532 362.348C124.484 362.529 124.498 362.721 124.571 362.893L141.998 381.608C142.042 381.727 142.042 381.858 141.998 381.976V388.022C141.998 389.81 149.084 384.71 150.396 385.446L141.736 390.914C141.871 391.039 142.049 391.109 142.234 391.109C142.419 391.109 142.597 391.039 142.733 390.914L160.894 379.611C161.338 379.072 161.612 378.413 161.682 377.718V363.681C161.631 362.838 161.399 362.016 161 361.272C160.601 360.527 160.046 359.879 159.372 359.37Z" fill="white"/>
<path d="M142.471 393.595H141.736C140.948 393.381 140.272 392.873 139.846 392.176L138.691 390.231L140.056 389.39V387.812V382.555L122.839 363.997C122.446 363.317 122.329 362.51 122.515 361.746C122.701 360.982 123.175 360.319 123.837 359.897L141.736 348.383C142.338 348.022 143.028 347.831 143.73 347.831C144.433 347.831 145.122 348.022 145.725 348.383L160.579 357.11C161.645 357.846 162.521 358.827 163.132 359.969C163.744 361.112 164.074 362.385 164.096 363.682V377.981C164.069 379.223 163.604 380.415 162.784 381.346L162.259 381.819L144.15 393.122C143.647 393.438 143.064 393.602 142.471 393.595ZM127.668 362.525L143.993 380.4C144.26 380.864 144.404 381.389 144.413 381.924V385.184L145.095 384.868C147.877 383.502 149.872 382.503 151.499 383.344L159.372 378.455V363.682C159.358 363.187 159.238 362.702 159.021 362.257C158.803 361.813 158.494 361.42 158.112 361.106L143.678 352.536L127.668 362.525Z" fill="#182F43"/>
<path d="M129.189 378.666V379.875L141.839 390.389C141.925 390.525 142.036 390.642 142.167 390.734C142.298 390.826 142.446 390.891 142.602 390.925C142.759 390.959 142.92 390.962 143.078 390.933C143.235 390.905 143.385 390.845 143.519 390.757L161.208 379.717C161.652 379.178 161.926 378.52 161.996 377.824V364.629C162.001 364.541 161.981 364.453 161.939 364.376C161.897 364.298 161.835 364.234 161.758 364.19C161.682 364.147 161.595 364.125 161.507 364.128C161.419 364.131 161.334 364.159 161.261 364.208L143.257 375.143L129.189 378.666Z" fill="#182F43"/>
<path d="M142.784 393.439H141.944C141.194 393.236 140.531 392.793 140.055 392.177L126.67 380.927L127.09 376.879L142.102 373.461L159.948 362.316C160.368 362.061 160.849 361.926 161.339 361.926C161.83 361.926 162.311 362.061 162.73 362.316C163.169 362.551 163.536 362.899 163.795 363.324C164.053 363.75 164.193 364.237 164.2 364.734V378.14C164.129 379.373 163.67 380.551 162.888 381.505L162.31 381.978L144.621 393.018C144.06 393.326 143.424 393.472 142.784 393.439ZM133.021 380.401L142.942 388.813L159.476 378.298V367.836L144.779 377.036L144.464 377.51L133.021 380.401Z" fill="#182F43"/>
<path d="M140.633 391.493L125.989 382.766C125.253 382.25 124.651 381.566 124.231 380.771C123.811 379.976 123.586 379.092 123.574 378.192V363.893C123.574 362.158 124.676 361.317 125.989 362.105L140.843 370.832C141.579 371.349 142.181 372.032 142.601 372.828C143.021 373.623 143.246 374.507 143.258 375.406V389.706C143.048 391.441 141.736 392.282 140.633 391.493Z" fill="#AA4437"/>
<path d="M141.736 394.068C141 394.05 140.279 393.851 139.637 393.49L124.782 384.763C123.713 384.03 122.836 383.05 122.223 381.907C121.611 380.763 121.283 379.489 121.265 378.191V363.892C121.204 363.127 121.353 362.361 121.695 361.675C122.038 360.99 122.56 360.411 123.207 360.001C123.796 359.654 124.467 359.472 125.15 359.472C125.832 359.472 126.503 359.654 127.092 360.001L141.736 368.833C142.805 369.566 143.683 370.546 144.295 371.689C144.907 372.833 145.236 374.107 145.253 375.405V389.705C145.303 390.467 145.149 391.229 144.808 391.913C144.467 392.597 143.95 393.177 143.311 393.595C142.829 393.871 142.29 394.033 141.736 394.068ZM125.989 364.628V378.086C125.997 378.582 126.114 379.07 126.331 379.515C126.549 379.961 126.863 380.352 127.249 380.662L141.001 388.758V375.405C140.988 374.903 140.868 374.409 140.651 373.956C140.434 373.503 140.124 373.101 139.742 372.776L125.989 364.628Z" fill="#182F43"/>
<path d="M97.5904 232.671L25.1546 190.613C24.7654 190.382 24.3212 190.26 23.8686 190.26C23.416 190.26 22.9718 190.382 22.5826 190.613H22.2676L3.63379 201.653L21.0079 231.462V271.575C21.0259 273.091 21.4015 274.581 22.1039 275.924C22.8062 277.267 23.8156 278.425 25.0496 279.303L62.3698 300.91L81.1611 332.453L100.057 321.255C100.489 320.859 100.822 320.368 101.032 319.821C101.241 319.273 101.321 318.685 101.265 318.101V240.399C101.281 238.916 100.959 237.448 100.322 236.109C99.6851 234.769 98.7508 233.593 97.5904 232.671Z" fill="white"/>
<path d="M80.7419 335.714L79.3247 333.664L60.8483 302.646L24.1055 281.354C22.5153 280.274 21.2082 278.826 20.2946 277.134C19.3809 275.441 18.8877 273.552 18.8565 271.628V232.094L0.432617 201.234L2.47972 199.867L21.376 188.617C22.1243 188.178 22.9758 187.946 23.843 187.946C24.7102 187.946 25.5618 188.178 26.3101 188.617L98.7459 230.674C100.335 231.743 101.643 233.181 102.557 234.865C103.471 236.55 103.964 238.431 103.995 240.348V318.155C104.057 319.104 103.889 320.054 103.506 320.924C103.122 321.793 102.533 322.557 101.79 323.149L80.7419 335.714ZM6.6264 202.706L23.3706 230.832V271.628C23.3997 272.738 23.6737 273.827 24.1728 274.818C24.672 275.808 25.3839 276.676 26.2576 277.359L63.9977 299.176L64.3651 299.649L82.1591 329.511L99.1658 319.364C99.1658 319.364 99.1658 319.049 99.1658 318.207V240.4C99.1367 239.291 98.8627 238.202 98.3636 237.211C97.8645 236.22 97.1525 235.353 96.2789 234.67L23.843 192.612H23.4231L6.6264 202.706Z" fill="#182F43"/>
<path d="M59.0635 290.606L59.5359 299.123L62.4753 300.858L81.1616 332.401H81.6341L100.373 321.308C100.804 320.912 101.138 320.421 101.347 319.874C101.557 319.326 101.637 318.738 101.58 318.154V240.768H101.265L82.8938 251.597L59.0635 290.606Z" fill="#182F43"/>
<path d="M82.0537 334.926L80.2166 334.452L79.2193 333.506L60.8479 302.646L57.331 300.648L56.7012 290.134L57.1211 289.398L81.1089 249.969L81.6338 249.653L101.317 237.93L103.837 239.244V240.769V318.208C103.899 319.157 103.732 320.107 103.348 320.976C102.964 321.846 102.375 322.61 101.632 323.202L82.0537 334.926ZM61.7927 297.862L64.0497 299.176L64.4172 299.65L82.2112 329.511L99.2178 319.364C99.2178 319.364 99.2178 319.049 99.2178 318.208V244.606L84.3632 253.439L61.3728 291.028L61.7927 297.862Z" fill="#182F43"/>
<path d="M78.748 332.454L6.31222 290.397C5.08424 289.513 4.07937 288.354 3.37768 287.012C2.67598 285.67 2.29686 284.183 2.27051 282.668V205.019C2.27051 202.075 4.05516 200.708 6.31222 201.97L78.748 243.712C79.973 244.599 80.9757 245.759 81.6771 247.1C82.3784 248.441 82.7593 249.927 82.7897 251.44V329.405C82.8422 332.349 81.0051 333.716 78.748 332.454Z" fill="#F4B513"/>
<path d="M80.427 335.24C79.4412 335.214 78.4805 334.924 77.645 334.399L5.26169 292.551C3.66205 291.481 2.34769 290.035 1.4329 288.34C0.518109 286.645 0.030585 284.752 0.0127207 282.825V205.018C-0.0540358 203.999 0.14276 202.98 0.584101 202.059C1.02544 201.138 1.69642 200.347 2.53223 199.761C3.28052 199.322 4.13206 199.091 4.99924 199.091C5.86643 199.091 6.71796 199.322 7.46626 199.761L79.9545 241.819C81.5447 242.899 82.8518 244.347 83.7655 246.04C84.6791 247.733 85.1723 249.621 85.2035 251.545V329.405C85.2752 330.43 85.075 331.456 84.6234 332.38C84.1717 333.303 83.4846 334.09 82.6315 334.662C81.9573 335.038 81.1988 335.237 80.427 335.24ZM4.73679 203.809C4.69878 204.211 4.69878 204.616 4.73679 205.018V282.825C4.76589 283.935 5.03984 285.024 5.53898 286.015C6.03812 287.005 6.75007 287.873 7.62373 288.556L80.112 330.614C80.2502 330.645 80.3937 330.645 80.5319 330.614C80.57 330.212 80.57 329.807 80.5319 329.405V251.597C80.5028 250.488 80.2289 249.399 79.7298 248.408C79.2306 247.417 78.5187 246.55 77.645 245.867L5.26169 203.967C5.10757 203.861 4.92395 203.805 4.73679 203.809Z" fill="#182F43"/>
<path d="M33.9682 195.832L15.8799 207.117L18.2944 210.999L36.3828 199.714L33.9682 195.832Z" fill="#182F43"/>
<path d="M99.5079 306.405L83.584 315.996L85.3963 319.015L101.32 309.424L99.5079 306.405Z" fill="#2B445B"/>
<path d="M49.8254 297.703L38.5926 291.026V285.401C35.164 282.382 32.24 278.832 29.9318 274.887L25.5751 275.255L20.3262 261.586L24.8403 261.165C24.4783 259.436 24.2849 257.675 24.2629 255.908C24.2558 254.13 24.5032 252.359 24.9978 250.651L20.4836 244.605L26.2575 236.246L30.9291 242.029C33.3035 240.914 35.98 240.618 38.5401 241.188V234.984L49.7729 241.451V247.234C53.172 250.282 56.0919 253.827 58.4337 257.748L62.7903 257.328L68.0393 270.996L63.4727 271.417C63.8523 273.145 64.0633 274.906 64.1026 276.674C64.0849 278.451 63.8379 280.218 63.3677 281.931L67.8294 287.504L62.0555 296.284L57.4364 290.501C55.0609 291.612 52.3857 291.908 49.8254 291.342V297.703ZM41.1646 289.765L47.2534 293.287V288.03L48.8806 288.503C50.2087 289.014 51.635 289.218 53.0528 289.1C54.4707 288.981 55.8435 288.544 57.069 287.82L58.0663 287.241L61.898 292.078L64.7325 288.082L60.6383 282.825V282.194C61.1477 280.488 61.4128 278.718 61.4256 276.937C61.3848 274.792 61.1031 272.658 60.5858 270.576L60.2708 269.156L64.3125 268.841L60.9532 260.114L56.859 260.482L56.4391 259.746C54.1649 255.685 51.2186 252.041 47.7258 248.969L47.2534 248.443V243.186L41.1646 239.663V244.921L39.4849 244.447C38.2148 243.912 36.8441 243.659 35.467 243.704C34.0898 243.75 32.7387 244.093 31.5065 244.71L30.5092 245.341L26.2575 240.504L23.4756 244.5L27.5698 249.757V250.388C27.0359 252.089 26.7703 253.863 26.7824 255.645C26.8292 257.77 27.093 259.884 27.5698 261.954L27.8847 263.373L23.8955 263.741L27.2548 272.468L31.5065 271.995L31.9264 272.731C34.2286 276.94 37.2486 280.712 40.8496 283.877L41.3221 284.245L41.1646 289.765ZM47.6733 277.621C47.0163 277.633 46.3613 277.545 45.7312 277.358C42.2928 275.908 39.4137 273.385 37.5222 270.164C35.6307 266.944 34.8279 263.197 35.2332 259.483C35.3969 258.709 35.7134 257.975 36.1641 257.325C36.6148 256.675 37.1906 256.122 37.8577 255.698C38.5514 255.322 39.3159 255.095 40.1023 255.031C40.8886 254.968 41.6795 255.07 42.4243 255.33C45.8679 256.773 48.752 259.294 50.6445 262.517C52.5371 265.739 53.3363 269.489 52.9223 273.204C52.7931 273.984 52.4901 274.725 52.0357 275.371C51.5813 276.017 50.9873 276.553 50.2978 276.937C49.4978 277.391 48.5928 277.627 47.6733 277.621ZM40.7447 257.59C40.2625 257.567 39.7853 257.696 39.3799 257.958C39.0045 258.184 38.683 258.489 38.4382 258.852C38.1933 259.216 38.031 259.628 37.9627 260.061C37.6302 263.116 38.2745 266.197 39.8026 268.862C41.3308 271.526 43.664 273.636 46.466 274.887C46.8688 275.075 47.3077 275.172 47.752 275.172C48.1964 275.172 48.6353 275.075 49.038 274.887C49.4067 274.654 49.7231 274.346 49.967 273.984C50.211 273.622 50.3772 273.214 50.4553 272.784C50.8186 269.711 50.1954 266.602 48.6759 263.908C47.1564 261.214 44.8196 259.075 42.0044 257.801C41.6032 257.645 41.1745 257.574 40.7447 257.59Z" fill="white"/>
<path d="M60.0616 278.883C60.0052 276.652 59.7238 274.433 59.2218 272.259L63.4734 271.891L59.1168 260.693L54.9176 261.061C52.5465 256.719 49.4176 252.837 45.6794 249.6V243.712L37.0186 238.718V244.343C35.5102 243.802 33.9023 243.598 32.3069 243.743C30.7114 243.888 29.1667 244.38 27.7804 245.184L23.5288 239.927L19.2246 246.078L23.4763 251.335C22.9319 253.179 22.6492 255.09 22.6364 257.013C22.6929 259.244 22.9743 261.463 23.4763 263.637L19.2246 264.005L23.5288 275.256H27.7804C30.1516 279.598 33.2804 283.479 37.0186 286.716V292.394L45.6794 297.651V291.606C47.1691 292.186 48.7669 292.434 50.3621 292.335C51.9573 292.235 53.5117 291.789 54.9176 291.027L59.1168 296.284L63.4734 290.133L59.2218 284.876C59.7962 282.931 60.0792 280.911 60.0616 278.883ZM43.2649 277.884C40.1487 276.537 37.5505 274.217 35.8574 271.271C34.1643 268.325 33.4669 264.91 33.8692 261.534C33.9624 260.922 34.1908 260.339 34.5378 259.827C34.8848 259.315 35.3417 258.888 35.875 258.575C36.4082 258.263 37.0045 258.074 37.6201 258.022C38.2357 257.97 38.8552 258.056 39.4332 258.275C42.5494 259.622 45.1476 261.941 46.8407 264.888C48.5338 267.834 49.2311 271.249 48.8288 274.625C48.7357 275.236 48.5073 275.819 48.1602 276.331C47.8132 276.843 47.3564 277.271 46.8231 277.584C46.2898 277.896 45.6936 278.085 45.078 278.137C44.4623 278.189 43.8429 278.103 43.2649 277.884Z" fill="#182F43"/>
<path d="M109.715 170.11L65.6241 144.612C65.375 144.447 65.0829 144.359 64.7843 144.359C64.4856 144.359 64.1935 144.447 63.9444 144.612L45.4155 156.178C45.3278 156.222 45.2503 156.283 45.1884 156.359C45.1265 156.435 45.0815 156.523 45.0566 156.618C45.0318 156.712 45.0275 156.811 45.0441 156.908C45.0608 157.005 45.0979 157.096 45.1531 157.177L62.9996 187.249C63.0275 187.306 63.0419 187.369 63.0419 187.433C63.0419 187.496 63.0275 187.559 62.9996 187.617V193.82C63.0178 194.739 63.2504 195.64 63.6788 196.453C64.1072 197.265 64.7194 197.966 65.4666 198.499L71.6079 202.074C71.7198 202.133 71.8112 202.225 71.8704 202.337L91.6065 235.457C91.7423 235.583 91.9203 235.653 92.1051 235.653C92.29 235.653 92.468 235.583 92.6038 235.457L111.238 223.839C111.678 223.278 111.951 222.604 112.025 221.894V174.579C111.994 173.709 111.77 172.857 111.371 172.085C110.971 171.312 110.406 170.638 109.715 170.11Z" fill="white"/>
<path d="M92.3947 238.14H91.6598C91.2685 238.053 90.8989 237.887 90.574 237.652C90.249 237.417 89.9755 237.118 89.7702 236.773L70.2965 203.968L64.4702 200.603C63.3769 199.866 62.4801 198.872 61.858 197.708C61.2359 196.545 60.9073 195.246 60.9009 193.926V188.143L43.2118 158.282C42.8524 157.62 42.7554 156.846 42.9403 156.115C43.1251 155.385 43.5782 154.75 44.2091 154.339L63.0004 142.563C63.6093 142.192 64.3084 141.995 65.0213 141.995C65.7342 141.995 66.4333 142.192 67.0422 142.563L111.134 168.061C112.224 168.805 113.121 169.799 113.751 170.96C114.381 172.121 114.725 173.416 114.755 174.737V222.053C114.681 223.3 114.223 224.494 113.443 225.47L112.866 225.943L93.9694 237.666C93.5041 237.979 92.9552 238.144 92.3947 238.14ZM47.9359 157.231L65.0475 185.883C65.321 186.363 65.4657 186.907 65.4675 187.46V193.663C65.4923 194.184 65.6212 194.694 65.8466 195.164C66.072 195.633 66.3893 196.053 66.7797 196.397L72.921 199.92C73.3607 200.185 73.7369 200.544 74.0233 200.971L92.9196 233.198L109.769 222.683C109.759 222.578 109.759 222.473 109.769 222.368V175.053C109.753 174.538 109.627 174.033 109.401 173.571C109.175 173.108 108.853 172.7 108.457 172.372L64.5751 147.032L47.9359 157.231Z" fill="#182F43"/>
<path d="M78.7471 212.169V213.379L91.712 235.249C91.7981 235.39 91.9113 235.513 92.0449 235.611C92.1786 235.709 92.3302 235.779 92.4911 235.818C92.652 235.858 92.8189 235.864 92.9825 235.839C93.146 235.813 93.3029 235.756 93.4442 235.669L111.606 224.314C112.07 223.762 112.362 223.085 112.445 222.368V175.737C112.44 175.647 112.411 175.561 112.363 175.486C112.314 175.411 112.248 175.349 112.169 175.307C112.09 175.265 112.002 175.244 111.912 175.245C111.823 175.247 111.735 175.271 111.658 175.316L93.2867 186.777L78.7471 212.169Z" fill="#182F43"/>
<path d="M92.7086 237.93C92.4314 237.985 92.146 237.985 91.8687 237.93C91.4132 237.832 90.9826 237.641 90.6035 237.37C90.2243 237.099 89.9046 236.752 89.6642 236.353L76.2793 213.799L76.5417 211.328L91.2914 185.41L91.9212 184.937L110.24 173.371C110.667 173.111 111.158 172.974 111.657 172.974C112.157 172.974 112.647 173.111 113.075 173.371C113.511 173.617 113.873 173.976 114.122 174.411C114.372 174.846 114.499 175.34 114.492 175.842V222.158C114.418 223.406 113.959 224.6 113.18 225.575L112.602 226.049L94.4932 237.404C93.9596 237.744 93.341 237.926 92.7086 237.93ZM81.0034 212.695L93.0235 233.198L109.873 222.684C109.902 222.581 109.902 222.472 109.873 222.368V178.944L94.6507 188.459L81.0034 212.695Z" fill="#182F43"/>
<path d="M90.5584 233.733L46.4145 208.235C45.6759 207.685 45.0739 206.973 44.6551 206.152C44.2363 205.331 44.0122 204.425 44 203.504V156.188C44 154.348 45.1023 153.507 46.4145 154.296L90.5584 179.846C91.3148 180.37 91.9339 181.069 92.3634 181.883C92.7928 182.698 93.0199 183.604 93.0254 184.525V231.84C93.0254 233.68 91.9231 234.521 90.5584 233.733Z" fill="#AA4437"/>
<path d="M91.4486 238.455C90.7088 238.461 89.9818 238.26 89.349 237.876L45.2577 212.379C44.1538 211.636 43.2471 210.635 42.6161 209.463C41.985 208.29 41.6486 206.981 41.6359 205.649V158.334C41.5891 157.552 41.7488 156.77 42.099 156.069C42.4491 155.368 42.9773 154.771 43.6305 154.339C44.2154 153.981 44.8874 153.792 45.5726 153.792C46.2579 153.792 46.9299 153.981 47.5147 154.339L91.6586 179.836C92.7519 180.574 93.6487 181.567 94.2708 182.731C94.8929 183.895 95.2215 185.193 95.2279 186.513V233.828C95.2761 234.604 95.1166 235.378 94.7659 236.071C94.4153 236.765 93.8862 237.351 93.2333 237.771C92.7128 238.16 92.0951 238.396 91.4486 238.455ZM91.4486 233.881L90.2939 235.879L91.4486 233.933V233.881ZM46.255 159.176V205.807C46.2737 206.329 46.3999 206.841 46.6257 207.312C46.8516 207.782 47.1721 208.201 47.5672 208.541L90.6613 233.46V186.829C90.6365 186.308 90.5076 185.798 90.2821 185.328C90.0567 184.859 89.7394 184.439 89.349 184.095L46.255 159.176Z" fill="#182F43"/>
<path d="M74.696 148.58L56.1621 160.144L58.5766 164.026L77.1105 152.462L74.696 148.58Z" fill="#182F43"/>
<path d="M110.019 209.542L93.6953 219.385L95.5092 222.402L111.833 212.559L110.019 209.542Z" fill="#2B445B"/>
</svg>
