<svg width="75" height="75" viewBox="0 0 75 75" fill="none" xmlns="http://www.w3.org/2000/svg">
<path d="M37.5 74C57.6584 74 74 57.6584 74 37.5C74 17.3416 57.6584 1 37.5 1C17.3416 1 1 17.3416 1 37.5C1 57.6584 17.3416 74 37.5 74Z" fill="#FBFBFF" stroke="#182F43" stroke-width="2" stroke-miterlimit="10"/>
<path opacity="0.3" d="M37.5 74C57.6584 74 74 57.6584 74 37.5C74 17.3416 57.6584 1 37.5 1C17.3416 1 1 17.3416 1 37.5C1 57.6584 17.3416 74 37.5 74Z" stroke="#182F43" stroke-miterlimit="10"/>
<path d="M29.8731 23.0195C38.915 21.5667 48.5256 22.1259 56.9377 26.0808C60.9681 28.0755 65.1212 31.1945 66.1748 35.9449C67.1447 40.067 64.8313 44.166 61.7653 46.6392C56.6032 50.8477 49.9806 52.583 43.5531 53.2806C34.8456 53.9897 25.6364 53.0615 17.9267 48.5129C14.6377 46.5066 11.4825 43.4857 10.8136 39.4155C10.1279 35.7143 12.0511 32.0419 14.7158 29.6782C18.9524 25.8963 24.4434 24.0054 29.8731 23.0195ZM32.7217 41.4909C33.7418 41.4909 34.762 41.4967 35.7821 41.514C36.2615 39.0984 36.7577 36.6886 37.2482 34.2788C38.575 34.5959 40.9888 33.5293 41.4515 35.3453C41.2174 37.4323 40.6376 39.4559 40.2641 41.514C41.2954 41.5082 42.3323 41.5025 43.3691 41.4967C43.7426 39.0465 44.6067 36.6598 44.6513 34.1577C43.8709 31.0619 40.0021 32.0477 37.7054 31.8344C38.0343 30.2547 38.3576 28.6751 38.6586 27.0955C37.6552 27.0955 36.6462 27.0955 35.6372 27.0897C34.6393 31.8863 33.714 36.6944 32.7217 41.4909ZM19.9447 45.0999C20.9649 45.0999 21.9795 45.0999 22.9996 45.1057C23.1947 43.9123 23.3954 42.7189 23.5961 41.5198C26.0322 41.4621 28.825 41.7792 30.8542 40.09C32.9168 38.1933 33.5634 33.8868 30.7316 32.4051C28.0502 31.3674 25.0901 32.0246 22.2861 31.8459C21.5056 36.262 20.6806 40.6723 19.9447 45.0999ZM46.6693 32.0246C45.822 36.3658 45.1084 40.7415 44.328 45.0999C45.3481 45.0999 46.3738 45.1057 47.394 45.1114C47.5891 43.9123 47.7898 42.7132 47.9905 41.5198C50.4656 41.4679 53.3309 41.7792 55.3545 39.9863C57.4282 37.98 57.9077 33.4313 54.7636 32.2552C52.1603 31.5922 49.2838 31.7364 46.6693 32.0246Z" fill="#182F43"/>
<path d="M24.9048 34.2961C26.3598 34.3998 28.0879 33.9328 29.3254 34.9475C30.1672 36.4464 29.1248 38.8966 27.352 38.9889C26.2483 39.1157 25.1389 39.0638 24.0352 39.0638C24.325 37.4726 24.6149 35.8815 24.9048 34.2961Z" fill="#182F43"/>
<path d="M49.2954 34.2969C50.7058 34.3546 52.2499 34.026 53.5433 34.7755C54.5132 35.8824 53.8833 37.7791 52.8409 38.615C51.4807 39.3414 49.8919 38.984 48.4258 39.0589C48.7157 37.4678 49.0055 35.8824 49.2954 34.2969Z" fill="#182F43"/>
</svg>
