<svg width="55" height="55" viewBox="0 0 55 55" fill="none" xmlns="http://www.w3.org/2000/svg">
<path fill-rule="evenodd" clip-rule="evenodd" d="M15.3039 7.04882C13.7345 7.24102 12.1996 7.79425 10.957 8.61569C10.2535 9.08073 9.22341 10.1008 8.74474 10.8064C7.20745 13.0728 6.6919 16.0294 7.17489 19.8098C7.7172 24.0547 8.93668 28.5353 10.4703 31.9179C12.1714 35.6698 14.139 37.7069 16.0817 37.7275C16.4315 37.7311 16.8055 37.6526 16.9139 37.5526C16.9433 37.5255 16.86 37.3951 16.7138 37.2389C16.0388 36.518 15.8805 35.4618 16.3172 34.5932C16.7246 33.7827 17.5073 33.2607 19.0437 32.775C19.9199 32.498 20.3593 32.316 20.9869 31.9699L21.3885 31.7485L20.8775 31.4751C19.6644 30.8262 18.8155 29.9344 18.0729 28.5287C17.3288 27.1201 17.0882 25.659 17.3044 23.8604C17.4366 22.7606 17.4375 20.674 17.3064 19.0214C17.1647 17.2363 17.2165 15.9448 17.4712 14.9068C17.9468 12.9692 18.6384 11.3374 19.5741 9.94471C20.0071 9.30049 20.2844 8.95886 20.8462 8.37784C21.1125 8.10248 21.3105 7.86506 21.2862 7.8503C21.0914 7.73154 19.152 7.26529 18.2808 7.12778C17.6314 7.0252 15.8767 6.97867 15.3039 7.04882ZM28.4664 7.02985C26.8899 7.13379 25.1169 7.68659 23.9093 8.45067C21.9856 9.66782 20.5533 11.6899 19.7332 14.3461C19.5872 14.8191 19.2864 16.0742 19.3128 16.1005C19.325 16.1128 19.5548 16.0486 19.8234 15.9578C20.5417 15.7152 21.9331 15.3768 22.6448 15.2717C23.1 15.2045 23.436 15.1892 23.8965 15.2144C26.2412 15.343 26.8604 16.246 27.3133 20.197C27.449 21.3813 27.5248 22.9885 27.489 23.921C27.4015 26.1975 26.9846 27.881 25.8079 30.7093C25.6296 31.138 25.4836 31.5112 25.4836 31.5386C25.4836 31.566 25.6868 31.6555 25.9351 31.7375C26.6269 31.9658 27.0545 32.1849 27.2126 32.3919C27.5242 32.8002 27.5188 32.7077 27.5107 37.5574C27.5026 42.3345 27.5073 42.4375 27.7914 43.6541C28.3558 46.0712 29.4181 47.5056 30.9298 47.8919C32.3874 48.2643 34.0966 47.6477 34.9056 46.4574C35.1984 46.0266 35.4192 45.5322 35.5657 44.9787C35.6823 44.5385 35.6855 44.4305 35.7151 39.8813L35.7454 35.2336L35.8999 34.7967C36.12 34.1745 36.3839 33.7702 36.9194 33.235C37.4189 32.7358 38.1174 32.2446 39.0565 31.7322C39.3725 31.5597 39.6711 31.3841 39.7199 31.3419C39.8006 31.2721 39.7751 31.1848 39.4389 30.3787C39.2355 29.8912 38.8933 29.1725 38.6785 28.7815C37.1797 26.0542 36.3734 24.0231 35.9 21.7826C35.7641 21.1395 35.7497 20.9625 35.7481 19.9236C35.7467 18.98 35.764 18.712 35.8452 18.4199C36.0761 17.59 36.7422 16.5273 37.3202 16.0666C37.8494 15.6448 38.4373 15.4052 39.2744 15.2704C39.5597 15.2245 39.7981 15.182 39.8041 15.176C39.8252 15.1549 39.3959 14.0573 39.1679 13.5494C38.0432 11.044 36.315 9.12781 34.2402 8.08558C32.5747 7.24894 30.6049 6.88878 28.4664 7.02985ZM36.9084 7.02853C36.7352 7.04155 36.5937 7.07036 36.5937 7.09256C36.5937 7.11482 36.8512 7.33709 37.166 7.58653C38.9633 9.01085 40.4187 11.1003 41.4747 13.7722L41.7448 14.4557L41.7978 15.932C41.827 16.744 41.8748 17.542 41.904 17.7055C41.9802 18.1316 41.9694 18.9314 41.8755 19.8142C41.7637 20.8657 41.7728 21.6814 41.9077 22.7122C42.0004 23.4203 42.0167 23.7641 41.9934 24.5166C41.9598 25.6016 41.8943 25.9486 41.3945 27.6886L41.0487 28.8922L41.3251 29.5588C41.4995 29.9795 41.7219 30.3958 41.9281 30.6878L42.2549 31.1503L42.3987 31.048C42.5859 30.9149 43.0975 30.3669 43.5406 29.825C44.6439 28.4757 45.7123 26.461 46.439 24.3591C47.442 21.4582 47.9872 18.1886 47.9993 15.0025C48.0038 13.8223 47.9879 13.503 47.9058 13.1225C47.7041 12.1877 47.4214 11.674 46.6179 10.7821C44.8606 8.83134 42.3954 7.53705 39.6585 7.12827C39.0809 7.04199 37.4949 6.98452 36.9084 7.02853ZM23.0755 17.2806C22.2637 17.3635 20.7106 17.7772 19.8465 18.1407C19.3366 18.3552 19.3266 18.3629 19.3301 18.54C19.332 18.6393 19.366 19.1942 19.4057 19.773C19.496 21.0914 19.4576 23.1793 19.323 24.2698C19.2401 24.9415 19.2347 25.1451 19.288 25.6094C19.4775 27.2597 20.4844 28.9182 21.7233 29.6208C22.4106 30.0106 23.642 30.4585 23.7367 30.3532C23.7949 30.2884 24.5243 28.4007 24.7357 27.7675C25.3158 26.0304 25.5235 24.3913 25.424 22.3363C25.3784 21.3956 25.2282 19.7868 25.1816 19.7403C25.1696 19.7284 25.0788 19.787 24.9797 19.8705C24.5247 20.2542 23.9234 20.336 23.4159 20.0833C22.9636 19.8582 22.4927 19.2744 22.3937 18.8164C22.3177 18.4643 22.7955 18.1995 23.5023 18.2021C23.8484 18.2034 24.4684 18.3389 24.7381 18.4722C24.8589 18.5319 24.9684 18.5701 24.9815 18.557C25.0139 18.5247 24.8522 17.8924 24.7475 17.6421C24.701 17.5308 24.6112 17.412 24.5481 17.3783C24.3915 17.2946 23.5109 17.2362 23.0755 17.2806ZM39.2767 17.3593C38.8556 17.4724 38.5644 17.658 38.3581 17.945C38.2606 18.0807 38.1808 18.2062 38.1808 18.2238C38.1808 18.2414 38.2757 18.2559 38.3916 18.2559C38.8222 18.2559 39.2385 18.4822 39.3653 18.7854C39.5788 19.2961 38.9056 20.0755 38.1168 20.2305L37.7977 20.2932V20.502C37.7977 21.1164 38.2679 22.917 38.7675 24.2158C39.1136 25.1159 39.5992 26.1843 39.6622 26.1843C39.7307 26.1843 39.8746 25.4923 39.9447 24.8261C40.001 24.2907 39.9964 24.0894 39.9108 23.3498C39.7213 21.7127 39.707 21.5055 39.7386 20.8531C39.7561 20.4922 39.8106 19.8279 39.8597 19.3768C39.9471 18.5733 39.9323 18.1655 39.7884 17.422C39.755 17.2496 39.7072 17.2438 39.2767 17.3593ZM43.5443 32.749C43.0557 32.8683 41.8617 33.0191 41.4055 33.0191H40.9002L40.0468 33.5158C38.7052 34.2966 38.1691 34.7491 37.9104 35.3187C37.8193 35.5193 37.7999 35.6785 37.7989 36.2315L37.7977 36.9013H38.0095C38.3346 36.9013 39.1069 36.754 39.6131 36.5954C40.7139 36.2506 42.2567 35.5594 42.9298 35.1096C44.2673 34.2158 45.0692 33.0139 44.5008 32.7551C44.3411 32.6824 43.8304 32.6792 43.5443 32.749ZM22.7745 33.3231C21.8465 33.9019 20.7182 34.4169 19.7918 34.6846C18.6625 35.0109 18.2028 35.2852 18.1928 35.6385C18.1811 36.0478 18.7229 36.324 20.0728 36.5973C21.2816 36.842 22.0664 36.9236 22.8019 36.8811C23.7609 36.8258 24.5311 36.5928 25.1822 36.161L25.4836 35.9611V34.8497V33.7384L25.3057 33.6806C25.0382 33.5937 23.2028 33.1829 23.0909 33.1848C23.0373 33.1858 22.8949 33.248 22.7745 33.3231Z" fill="#182F43"/>
</svg>
