<svg width="665" height="470" viewBox="0 0 665 470" fill="none" xmlns="http://www.w3.org/2000/svg">
<g clip-path="url(#clip0_151_1103)">
<path d="M165.496 8.90649C165.496 8.90649 168.34 5.1799 185.067 6.06177C201.794 6.94363 249.827 12.6046 271.732 11.1823C293.636 9.7599 328.626 2.79034 334.628 6.51692C340.631 10.2435 332.296 16.8717 332.296 16.8717L172.024 16.4023L165.496 8.90649Z" fill="#FBFBFF" stroke="#182F43" stroke-linecap="round" stroke-linejoin="round"/>
<path d="M172.024 16.3599C172.024 16.3599 172.949 8.4374 165.496 8.90678C158.043 9.37616 155.24 18.2232 159.436 28.0091C163.632 37.7949 167.359 37.3255 173.888 60.6238C180.416 83.9221 176.206 169.648 176.206 191.083C176.206 212.518 176.675 218.108 176.675 218.108L192.99 215.775C192.99 215.775 189.718 69.9403 185.067 46.642C180.416 23.3437 172.024 16.3599 172.024 16.3599Z" fill="#182F43" stroke="#182F43" stroke-linecap="round" stroke-linejoin="round"/>
<path d="M213.998 212.204C213.998 214.067 207.029 418.944 207.029 418.944L214.937 417.522L222.348 215.333L213.998 212.204Z" fill="#FFC100" stroke="#182F43" stroke-linecap="round" stroke-linejoin="round"/>
<path d="M207.028 418.945L213.955 213.912L207.896 212.987L200.244 415.603L207.028 418.945Z" fill="#182F43" stroke="#182F43" stroke-linecap="round" stroke-linejoin="round"/>
<path d="M318.3 198.451C318.442 200.3 337.772 403.271 337.772 403.271L331.599 399.943L310.264 202.135L318.3 198.451Z" fill="#182F43" stroke="#182F43" stroke-linecap="round" stroke-linejoin="round"/>
<path d="M337.743 403.284L318.442 200.143L324.416 198.777L344.855 401.862L337.743 403.284Z" fill="#FFC100" stroke="#182F43" stroke-width="0.710934" stroke-linecap="round" stroke-linejoin="round"/>
<path d="M249.372 203.201C249.372 204.524 244.422 350.174 244.422 350.174L250.041 349.15L255.303 205.406L249.372 203.201Z" fill="#FFC100" stroke="#182F43" stroke-width="0.710934" stroke-linecap="round" stroke-linejoin="round"/>
<path d="M244.423 350.174L249.344 204.41L245.035 203.756L239.601 347.798L244.423 350.174Z" fill="#182F43" stroke="#182F43" stroke-width="0.710934" stroke-linecap="round" stroke-linejoin="round"/>
<path d="M172.024 16.3594C172.48 18.692 184.598 222.772 184.598 222.772L350.474 214.85L332.296 16.8714L172.024 16.3594Z" fill="#FBFBFF" stroke="#182F43" stroke-linecap="round" stroke-linejoin="round"/>
<path d="M218.601 43.0817L224.61 119.317L212.241 119.541L206.218 43.3054L218.601 43.0817Z" fill="#182F43" stroke="#182F43"/>
<path d="M239.95 65.6129L244.167 118.963L231.784 119.186L227.582 65.8366L239.95 65.6129Z" fill="#AA4337" stroke="#182F43"/>
<path d="M260.929 83.3639L263.709 118.607L251.341 118.831L248.561 83.5876L260.929 83.3639Z" fill="#182F43" stroke="#182F43"/>
<path d="M277.245 42.0021L283.254 118.251L270.885 118.475L264.862 42.2389L277.245 42.0021Z" fill="#FFC100" stroke="#182F43"/>
<path d="M191.582 46.8977L199.817 46.7412" stroke="#182F43" stroke-width="0.75" stroke-linecap="round" stroke-linejoin="round"/>
<path d="M192.406 57.3795L200.642 57.2373" stroke="#182F43" stroke-width="0.75" stroke-linecap="round" stroke-linejoin="round"/>
<path d="M193.232 67.8772L201.468 67.7207" stroke="#182F43" stroke-width="0.75" stroke-linecap="round" stroke-linejoin="round"/>
<path d="M194.071 78.3606L202.292 78.2041" stroke="#182F43" stroke-width="0.75" stroke-linecap="round" stroke-linejoin="round"/>
<path d="M194.896 88.8434L203.131 88.7012" stroke="#182F43" stroke-width="0.75" stroke-linecap="round" stroke-linejoin="round"/>
<path d="M195.721 99.3401L203.956 99.1836" stroke="#182F43" stroke-width="0.75" stroke-linecap="round" stroke-linejoin="round"/>
<path d="M196.545 109.824L204.781 109.682" stroke="#182F43" stroke-width="0.75" stroke-linecap="round" stroke-linejoin="round"/>
<path d="M197.385 120.321L205.606 120.164" stroke="#182F43" stroke-width="0.75" stroke-linecap="round" stroke-linejoin="round"/>
<path d="M272.201 166.775C272.201 166.405 272.201 166.021 272.201 165.652C272.212 157.979 269.426 150.565 264.364 144.8L240.511 165.652L272.201 166.775Z" fill="#AA4337" stroke="white" stroke-linecap="round" stroke-linejoin="round"/>
<path d="M243 134.045C242.175 134.045 241.35 133.932 240.511 133.932C233.355 133.936 226.411 136.36 220.807 140.81C215.203 145.259 211.268 151.473 209.642 158.441C208.016 165.41 208.793 172.723 211.849 179.194C214.904 185.664 220.058 190.912 226.472 194.083L240.511 165.636L243 134.045Z" fill="#182F43" stroke="white" stroke-linecap="round" stroke-linejoin="round"/>
<path d="M240.511 165.651L226.472 194.099C230.833 196.269 235.64 197.394 240.511 197.384C248.728 197.386 256.625 194.196 262.537 188.489C268.449 182.781 271.913 175.002 272.201 166.789L240.511 165.651Z" fill="#FFC100" stroke="white" stroke-linecap="round" stroke-linejoin="round"/>
<path d="M264.392 144.799C258.963 138.559 251.303 134.698 243.057 134.046L240.568 165.651L264.392 144.799Z" fill="#AA4337" stroke="white" stroke-linecap="round" stroke-linejoin="round"/>
<path d="M435.644 215.077C435.644 215.077 450.095 204.594 451.019 203.897C451.944 203.2 464.773 208.79 465.47 212.289C466.167 215.788 465.698 216.713 464.774 217.182C463.849 217.652 438.218 224.635 437.507 224.863C436.796 225.091 435.644 215.077 435.644 215.077Z" fill="#ECECF0" stroke="#182F43" stroke-linecap="round" stroke-linejoin="round"/>
<path d="M334.229 128.527C333.546 126.383 333.616 124.069 334.428 121.97C335.851 118.784 338.013 117.789 337.017 115.399C336.021 113.009 330.048 107.633 329.45 104.646C328.853 101.659 327.061 101.801 326.065 103.65C325.563 104.569 325.407 105.637 325.627 106.66C325.846 107.683 326.425 108.594 327.26 109.226C327.865 109.552 328.393 110.005 328.806 110.556C329.218 111.106 329.506 111.739 329.649 112.412C329.649 113.009 328.227 113.834 328.227 113.834C328.227 113.834 322.267 108.458 320.873 108.06C319.479 107.661 319.081 108.06 319.081 110.449C319.081 112.839 318.697 123.009 320.29 126.593C321.883 130.177 328.824 133.705 328.824 133.705L334.229 128.527Z" fill="white" stroke="#182F43" stroke-linecap="round" stroke-linejoin="round"/>
<path d="M328.596 125.724C329.083 125.519 329.47 125.132 329.674 124.646C329.879 124.159 329.885 123.612 329.692 123.121L298.897 44.5498L297.475 45.0192L325.922 124.543C326.016 124.803 326.162 125.04 326.351 125.241C326.54 125.443 326.767 125.603 327.02 125.714C327.273 125.824 327.546 125.882 327.821 125.884C328.097 125.885 328.371 125.831 328.625 125.724H328.596Z" fill="#182F43"/>
<path d="M384.566 125.31C384.55 125.267 384.521 125.229 384.483 125.203C384.445 125.176 384.399 125.162 384.353 125.162C384.306 125.162 384.261 125.176 384.223 125.203C384.185 125.229 384.156 125.267 384.14 125.31C381 131.967 378.357 138.846 376.231 145.892C373.501 154.282 369.619 162.252 364.696 169.574C364.696 169.574 348.367 149.078 343.588 142.308C338.809 135.537 334.229 128.568 334.229 128.568L327.458 132.949C330.535 141.621 334.058 150.129 338.012 158.437C342.991 168.18 354.412 184.466 361.382 191.038C368.351 197.609 373.301 198.263 377.625 195.461C379.517 194.238 386.159 182.518 386.159 182.518C386.159 182.518 389.004 162.42 387.951 147.684C387.568 140.132 386.434 132.638 384.566 125.31Z" fill="#ECECF0" stroke="#182F43" stroke-linecap="round" stroke-linejoin="round"/>
<path d="M439.342 254.533C439.342 238.019 438.943 215.119 438.943 215.119C429.436 216.476 419.865 217.34 410.269 217.708C398.136 217.907 384.993 208.149 384.993 208.149C384.993 208.149 383.201 213.725 383.201 229.058C383.201 244.391 384.993 298.498 384.993 298.498C384.993 298.498 387.639 318.553 388.393 329.79C389.147 341.026 399.672 404.193 399.672 404.193C399.672 404.193 392.148 411.703 386.871 416.212C381.594 420.721 374.852 423.722 379.361 425.984C383.87 428.245 393.997 425.614 396.258 424.874C397.439 424.476 400.625 421.447 403.74 419.882C404.724 419.355 405.801 419.027 406.912 418.915C408.043 418.818 409.131 418.431 410.069 417.791L412.431 416.212C412.431 416.212 413.184 425.23 413.184 429.014C413.184 432.797 415.432 441.815 418.447 442.54C421.463 443.266 424.364 442.938 427.365 436.936C430.367 430.934 426.398 405.175 426.398 405.175C426.398 405.175 428.631 392.729 429.769 384.01C431.092 373.541 439.342 266.566 439.342 254.533Z" fill="#182F43" stroke="#182F43" stroke-linecap="round" stroke-linejoin="round"/>
<path d="M423.354 226.114C423.354 226.114 425.075 232.458 427.962 235.63C430.85 238.802 437.179 238.475 437.179 238.475" stroke="white" stroke-width="0.75" stroke-linecap="round" stroke-linejoin="round"/>
<path d="M400.582 229.286L401.45 245.131L404.622 248.886L405.774 232.742" stroke="white" stroke-width="0.75" stroke-linecap="round" stroke-linejoin="round"/>
<path d="M401.265 404.223C404.441 406.795 408.178 408.583 412.174 409.443" stroke="white" stroke-width="0.75" stroke-linecap="round" stroke-linejoin="round"/>
<path d="M426.398 405.177C426.398 405.177 420.709 413.711 414.109 407.111" stroke="white" stroke-width="0.75" stroke-linecap="round" stroke-linejoin="round"/>
<path d="M398.69 240.979L406.129 251.39L412.644 404.223C412.644 404.223 423.084 382.418 426.867 365.819C430.651 349.22 432.087 326.477 432.087 326.477" stroke="white" stroke-width="0.75" stroke-linecap="round" stroke-linejoin="round"/>
<path d="M406.684 120.576C406.684 120.576 386.771 123.961 384.396 124.758C382.02 125.554 383.798 160.786 383.798 160.786C383.798 160.786 382.803 212.134 384.595 217.51C386.387 222.887 397.396 224.622 401.862 225.504C409.939 227.03 418.245 226.865 426.256 225.02C430.907 223.996 437.307 223.47 438.545 217.908C439.782 212.347 441.134 180.486 443.921 169.932C446.709 159.378 457.05 142.466 452.868 135.497C448.686 128.527 430.181 123.364 422.216 122.368C414.251 121.373 406.684 120.576 406.684 120.576Z" fill="#ECECF0" stroke="#182F43" stroke-linecap="round" stroke-linejoin="round"/>
<path d="M405.58 143.366L405.601 143.267L405.582 143.168L403.069 129.951L410.28 125.088L413.88 132.095L407.049 143.806L406.978 143.927L406.981 144.067L408.172 209.763L399.004 220.631L391.696 208.277L405.58 143.366Z" fill="#AA4337" stroke="#182F43"/>
<path d="M409.33 117.39C406.398 118.968 403.773 121.058 401.578 123.563C398.193 127.531 392.418 138.085 393.044 137.687C393.67 137.288 409.558 127.531 409.558 127.531L409.33 117.39Z" fill="#ECECF0" stroke="#182F43" stroke-linecap="round" stroke-linejoin="round"/>
<path d="M422.614 115.397L410.069 129.137L413.653 141.668L428.389 122.964L422.614 115.397Z" fill="#ECECF0" stroke="#182F43" stroke-linecap="round" stroke-linejoin="round"/>
<path d="M399.529 67.4219C399.529 67.4219 391.365 69.015 390.369 61.8463C389.374 54.6776 400.525 44.5361 416.441 44.5361C432.357 44.5361 444.888 57.8637 444.319 70.8071C443.812 79.1759 440.985 87.2382 436.155 94.0912C435.359 95.2859 428.787 98.8703 425.999 99.2686C423.212 99.6668 421.22 95.6842 422.614 90.5068C424.008 85.3294 419.627 83.9497 421.419 79.1279C423.212 74.3061 425.601 74.3488 426.398 72.7558C427.194 71.1627 418.432 67.7775 410.467 68.1758C402.502 68.574 399.529 67.4219 399.529 67.4219Z" fill="#182F43" stroke="#182F43" stroke-linecap="round" stroke-linejoin="round"/>
<path d="M415.588 60.5515C425.103 60.3239 438.431 61.9738 440.067 73.054" stroke="white" stroke-linecap="round" stroke-linejoin="round"/>
<path d="M405.931 61.4618C405.931 61.4618 407.908 61.1062 410.909 60.8359" stroke="white" stroke-linecap="round" stroke-linejoin="round"/>
<path d="M425.26 55.6592C425.26 55.6592 442.115 56.3135 444.32 70.8073" stroke="white" stroke-linecap="round" stroke-linejoin="round"/>
<path d="M408.277 109.623C408.277 109.623 408.277 109.908 408.149 110.391C407.722 112.838 406.428 120.504 406.086 125.155C405.688 130.717 409.671 130.518 411.264 128.925C412.857 127.332 421.22 118.968 422.643 115.398C424.065 111.828 427.223 101.061 427.223 101.061L408.277 109.623Z" fill="white" stroke="#182F43" stroke-linecap="round" stroke-linejoin="round"/>
<path d="M399.53 67.4221C399.53 67.4221 396.685 82.9543 395.746 91.1044C394.807 99.2545 393.755 104.048 397.169 109.225C400.582 114.403 410.098 111.017 414.877 109.026C419.656 107.035 429.413 100.663 429.413 100.663C429.413 100.663 436.184 101.061 438.972 97.6757C439.443 97.0743 439.775 96.3749 439.941 95.6289C440.107 94.8828 440.104 94.109 439.932 93.3643C439.76 92.6195 439.424 91.9227 438.947 91.3249C438.471 90.7271 437.867 90.2435 437.18 89.9096C435.587 89.5114 432.002 90.9053 430.807 92.2992C429.613 93.6931 429.812 95.2861 428.418 95.2861C427.024 95.2861 425.033 95.6844 425.431 94.2905C425.829 92.8966 428.816 88.3166 428.02 85.3438C427.223 82.3711 421.249 80.3656 426.227 77.5777C431.206 74.7899 436.383 74.989 433.993 70.8073C431.604 66.6256 419.258 62.2731 411.492 63.8377C407.385 64.592 403.374 65.794 399.53 67.4221Z" fill="white" stroke="#182F43" stroke-linecap="round" stroke-linejoin="round"/>
<path d="M402.119 72.0021C402.119 72.0021 406.77 71.0065 406.485 75.7856C406.386 77.6631 398.136 86.3395 399.374 88.3166C400.192 89.5973 401.279 90.6845 402.56 91.5027" stroke="#182F43" stroke-linecap="round" stroke-linejoin="round"/>
<path d="M412.061 76.9807C412.698 76.4635 413.442 76.0957 414.24 75.9043C415.038 75.713 415.869 75.7029 416.671 75.8748C417.474 76.0467 418.227 76.3963 418.877 76.8978C419.526 77.3993 420.055 78.0401 420.424 78.7729" stroke="#182F43" stroke-linecap="round" stroke-linejoin="round"/>
<path d="M400.525 97.2773C400.525 97.2773 401.72 100.264 406.485 99.866C411.25 99.4678 412.658 98.4437 412.658 98.4437" stroke="#182F43" stroke-linecap="round" stroke-linejoin="round"/>
<path d="M414.82 83.5093C414.535 84.8321 413.753 85.7708 413.056 85.6286C412.359 85.4863 412.018 84.2915 412.302 82.983C412.587 81.6744 413.369 80.7214 414.066 80.8637C414.763 81.0059 415.09 82.2007 414.82 83.5093Z" fill="#182F43"/>
<path d="M403.227 79.1135C402.986 80.3794 402.232 81.304 401.563 81.176C400.895 81.0479 400.539 79.8958 400.795 78.6299C401.051 77.364 401.791 76.4395 402.474 76.5675C403.156 76.6955 403.484 77.8334 403.227 79.1135Z" fill="#182F43"/>
<path d="M438.147 165.565C438.708 161.604 439.774 157.733 441.319 154.043C444.164 147.316 451.076 133.704 452.868 135.553C454.661 137.402 457.847 143.319 459.838 153.674C461.829 164.028 468.002 195.875 470.591 201.451C473.18 207.026 473.777 209.203 472.184 211.407C472.184 211.407 466.608 219.373 459.241 216.186C451.873 213 439.541 182.747 439.541 182.747" fill="#ECECF0"/>
<path d="M438.147 165.565C438.708 161.604 439.774 157.733 441.319 154.043C444.164 147.316 451.076 133.704 452.868 135.553C454.661 137.402 457.847 143.319 459.838 153.674C461.829 164.028 468.002 195.875 470.591 201.451C473.18 207.026 473.777 209.203 472.184 211.407C472.184 211.407 466.608 219.373 459.241 216.186C451.873 213 439.541 182.747 439.541 182.747" stroke="#182F43" stroke-linecap="round" stroke-linejoin="round"/>
<path d="M314.828 104.503C313.648 107.177 317.417 109.353 319.579 109.809C321.371 110.193 323.235 107.191 321.897 105.84C320.666 104.7 319.146 103.918 317.502 103.579C317.056 103.473 316.59 103.481 316.147 103.603C315.705 103.725 315.3 103.956 314.971 104.276C314.915 104.346 314.867 104.422 314.828 104.503Z" fill="white" stroke="#182F43" stroke-linecap="round" stroke-linejoin="round"/>
<path d="M321.755 112.81C321.755 112.81 316.777 111.687 315.326 112.256C313.875 112.824 313.903 116.437 314.686 117.39C315.468 118.343 322.637 117.874 323.604 117.077C324.571 116.281 324.173 113.593 321.755 112.81Z" fill="white" stroke="#182F43" stroke-linecap="round" stroke-linejoin="round"/>
<path d="M315.568 117.958C315.568 117.958 315.497 121.656 316.535 122.694C317.573 123.732 324.97 122.452 325.539 121.172C326.108 119.892 324.899 116.749 324.244 116.905C323.59 117.062 318.47 118.598 315.568 117.958Z" fill="white" stroke="#182F43" stroke-linecap="round" stroke-linejoin="round"/>
<path d="M317.018 123.022C316.997 124.329 317.357 125.615 318.056 126.72C319.109 127.844 325.296 125.838 326.42 124.387C326.609 124.174 326.74 123.916 326.802 123.638C326.864 123.359 326.853 123.07 326.772 122.797C326.691 122.523 326.542 122.275 326.338 122.076C326.135 121.876 325.884 121.732 325.609 121.656C323.722 122.239 321.791 122.667 319.834 122.936C317.985 123.022 317.018 123.022 317.018 123.022Z" fill="white" stroke="#182F43" stroke-linecap="round" stroke-linejoin="round"/>
<path d="M547.613 295.041C566.464 303.167 585.296 311.318 604.109 319.491C605.818 320.215 607.176 321.579 607.893 323.29C608.611 325.001 608.631 326.925 607.949 328.651C605.105 335.948 599.785 347.939 592.09 357.298C580.213 371.749 576.017 384.55 574.623 399.001C573.23 413.453 574.623 440.008 574.623 440.008L502.396 377.097C502.396 377.097 510.788 340.528 524.073 329.334C534.943 320.302 543.092 308.431 547.613 295.041Z" fill="#182F43"/>
<path d="M535.267 284.559C535.267 284.559 508.697 285.483 506.379 285.483C504.06 285.483 496.82 320.672 494.488 337.2C492.155 353.728 489.595 366.088 489.595 366.088C489.595 366.088 513.362 380.539 525.011 385.902C536.661 391.264 549.007 397.082 549.007 397.082C549.007 397.082 562.519 358.408 570.669 342.093C578.819 325.779 586.045 325.096 581.152 316.007C576.259 306.918 561.125 295.269 555.294 291.386C549.462 287.503 535.267 284.559 535.267 284.559Z" fill="#FFC100" stroke="#182F43" stroke-linecap="round" stroke-linejoin="round"/>
<path d="M525.011 302.267L526.647 313.446L497.29 371.038C497.29 371.038 510.091 380.824 510.333 379.43C510.574 378.036 530.374 314.67 530.374 314.67L539.918 306.975L535.025 295.596C531.27 297.12 527.864 299.389 525.011 302.267Z" fill="#182F43"/>
<path d="M528.809 282.454C528.809 282.454 528.112 282.696 524.613 288.044C521.114 293.392 519.962 310.887 520.659 310.176C521.356 309.465 529.748 298.797 531.839 299.465C533.93 300.134 539.761 313.917 539.989 315.111C540.217 316.306 549.547 306.961 552.335 299.039C555.123 291.116 553.971 283.393 550.714 281.103C547.456 278.813 534.1 277.803 528.809 282.454Z" fill="#FFC100" stroke="#182F43" stroke-linecap="round" stroke-linejoin="round"/>
<path d="M96.4114 312.038L53.7406 345.548C53.1785 345.987 52.73 346.555 52.4331 347.204C52.1361 347.852 51.9993 348.562 52.0341 349.275C52.069 349.987 52.2745 350.681 52.6333 351.297C52.9922 351.914 53.4939 352.435 54.0962 352.817C63.3984 358.663 81.818 371.563 87.3225 384.962C94.7757 403.14 97.5635 428.06 103.395 436.921C107.146 442.391 112.382 446.674 118.486 449.267L163.902 391.946C163.902 391.946 155.525 393.823 149.465 366.343C143.406 338.863 126.864 321.61 119.596 316.248C112.328 310.886 96.4114 312.038 96.4114 312.038Z" fill="#182F43"/>
<path d="M155.283 309.948C155.283 309.948 193.032 328.354 193.687 333.474C194.341 338.595 190.657 350.955 188.324 352.576C185.992 354.198 164.798 345.365 161.299 343.26C157.8 341.155 152.964 316.235 155.283 309.948Z" fill="#AA4337" stroke="#182F43" stroke-linecap="round" stroke-linejoin="round"/>
<path d="M129.666 298.996C133.6 296.77 137.835 295.122 142.24 294.103C145.568 293.236 152.495 296.948 155.041 304.586C157.25 310.76 159.814 316.801 162.722 322.679C165.083 327.742 169.606 334.555 169.521 340.23C169.407 346.844 165.254 354.17 162.039 359.802L169.506 377.041L122.441 437.15C122.441 437.15 110.094 433.893 108.459 415.246C106.823 396.599 108.928 370.057 108.928 370.057C108.928 370.057 95.8851 360.272 93.2821 349.561C90.6792 338.851 99.7966 323.461 108.928 316.705C118.06 309.948 129.666 298.996 129.666 298.996Z" fill="#AA4337" stroke="#182F43" stroke-linecap="round" stroke-linejoin="round"/>
<path d="M135.014 240.991C135.014 240.991 137.119 251.246 141.771 252.171C146.422 253.095 148.769 251.702 148.299 256.594C148.106 259.334 147.226 261.981 145.739 264.289C145.739 264.289 147.83 276.394 147.161 281.756C146.493 287.118 142.51 285.952 137.845 286.649C135.379 287.047 132.889 287.28 130.392 287.346C130.392 287.346 131.316 297.132 133.236 302.025C135.157 306.918 137.205 309.023 134.872 310.175C132.539 311.327 120.435 305.054 114.603 297.132C108.772 289.209 116.694 281.287 120.193 275C123.692 268.713 112.74 261.729 119.027 252.868C123.069 247.42 128.631 243.288 135.014 240.991Z" fill="white" stroke="#182F43" stroke-linecap="round" stroke-linejoin="round"/>
<path d="M138.485 254.96C138.897 256.383 138.826 257.805 138.328 257.89C137.83 257.976 137.091 256.937 136.678 255.444C136.266 253.95 136.337 252.599 136.835 252.514C137.332 252.428 138.072 253.467 138.485 254.96Z" fill="#182F43"/>
<path d="M131.288 251.944C131.288 251.944 131.529 247.278 135.555 247.278L131.288 251.944Z" fill="white"/>
<path d="M131.288 251.944C131.288 251.944 131.529 247.278 135.555 247.278" stroke="#182F43" stroke-linecap="round" stroke-linejoin="round"/>
<path d="M580.17 466.096C577.368 382.632 472.91 315.567 344.456 315.567C214.254 315.567 108.7 384.509 108.7 469.566" fill="#FBFBFF"/>
<path d="M580.17 466.096C577.368 382.632 472.91 315.567 344.456 315.567C214.254 315.567 108.7 384.509 108.7 469.566" stroke="#182F43" stroke-width="2" stroke-linecap="round" stroke-linejoin="round"/>
<path d="M225.647 356.303L193.502 402.899L232.162 410.594L261.989 360.968L225.647 356.303Z" fill="white" stroke="#182F43" stroke-linecap="round" stroke-linejoin="round"/>
<path d="M230.298 360.769L205.335 400.41" stroke="#182F43" stroke-width="0.5" stroke-linecap="round" stroke-linejoin="round"/>
<path d="M235.661 361.737L210.513 401.435" stroke="#182F43" stroke-width="0.5" stroke-linecap="round" stroke-linejoin="round"/>
<path d="M241.037 362.717L215.975 402.472" stroke="#182F43" stroke-width="0.5" stroke-linecap="round" stroke-linejoin="round"/>
<path d="M246.4 363.7L221.295 403.213" stroke="#182F43" stroke-width="0.5" stroke-linecap="round" stroke-linejoin="round"/>
<path d="M251.761 364.667L227.069 404.251" stroke="#182F43" stroke-width="0.5" stroke-linecap="round" stroke-linejoin="round"/>
<path d="M222.333 363.302L254.862 368.778" stroke="#182F43" stroke-width="0.5" stroke-linecap="round" stroke-linejoin="round"/>
<path d="M219.83 366.7L252.786 372.318" stroke="#182F43" stroke-width="0.5" stroke-linecap="round" stroke-linejoin="round"/>
<path d="M217.611 370.101L250.723 375.861" stroke="#182F43" stroke-width="0.5" stroke-linecap="round" stroke-linejoin="round"/>
<path d="M215.691 373.499L248.832 379.302" stroke="#182F43" stroke-width="0.5" stroke-linecap="round" stroke-linejoin="round"/>
<path d="M213.016 377.197L246.399 382.716" stroke="#182F43" stroke-width="0.5" stroke-linecap="round" stroke-linejoin="round"/>
<path d="M210.357 380.454L243.953 386.129" stroke="#182F43" stroke-width="0.5" stroke-linecap="round" stroke-linejoin="round"/>
<path d="M208.436 383.698L241.52 389.544" stroke="#182F43" stroke-width="0.5" stroke-linecap="round" stroke-linejoin="round"/>
<path d="M206.217 387.253L239.074 392.957" stroke="#182F43" stroke-width="0.5" stroke-linecap="round" stroke-linejoin="round"/>
<path d="M203.714 390.796L236.642 396.372" stroke="#182F43" stroke-width="0.5" stroke-linecap="round" stroke-linejoin="round"/>
<path d="M201.055 394.052L234.21 399.784" stroke="#182F43" stroke-width="0.5" stroke-linecap="round" stroke-linejoin="round"/>
<path d="M198.537 397.595L231.763 403.199" stroke="#182F43" stroke-width="0.5" stroke-linecap="round" stroke-linejoin="round"/>
<path d="M232.161 410.595L255.701 404.536L289.71 346.062L261.988 360.969L232.161 410.595Z" fill="#182F43" stroke="#182F43" stroke-linecap="round" stroke-linejoin="round"/>
<path d="M387.184 390.781L334.927 392.943L322.467 340.216L374.724 338.054L387.184 390.781Z" fill="white" stroke="#182F43" stroke-linecap="round" stroke-linejoin="round"/>
<path d="M392.913 394.585L340.669 396.747L328.209 344.02L380.453 341.858L392.913 394.585Z" fill="#AA4337" stroke="#182F43" stroke-linecap="round" stroke-linejoin="round"/>
<path d="M500.753 451.236L429.146 457.08L419.023 418.526L490.631 412.696L500.753 451.236Z" fill="white" stroke="#182F43" stroke-linecap="round" stroke-linejoin="round"/>
<path d="M243.829 454.962L169.548 459.627L176.003 421.262L250.284 416.597L243.829 454.962Z" stroke="#182F43" stroke-linecap="round" stroke-linejoin="round"/>
<path d="M238.593 459.719L164.312 464.384L170.767 426.019L245.048 421.354L238.593 459.719Z" fill="#FFC100" stroke="#182F43" stroke-linecap="round" stroke-linejoin="round"/>
<path d="M558.095 331.213L535.921 383.328C524.543 386.017 513.036 388.12 501.443 389.629C485.37 391.492 469.525 391.947 469.525 391.947L469.752 401.733C469.752 401.733 494.914 404.578 515.183 404.763C535.451 404.948 543.374 410.594 548.736 405.46C554.098 400.325 582.972 343.729 586.471 333.247C589.97 322.764 581.109 313.917 575.519 309.948" fill="#FFC100"/>
<path d="M558.095 331.213L535.921 383.328C524.543 386.017 513.036 388.12 501.443 389.629C485.37 391.492 469.525 391.947 469.525 391.947L469.752 401.733C469.752 401.733 494.914 404.578 515.183 404.763C535.451 404.948 543.374 410.595 548.736 405.46C554.098 400.325 582.972 343.729 586.471 333.247C589.97 322.764 581.109 313.917 575.519 309.948" stroke="#182F43" stroke-linecap="round" stroke-linejoin="round"/>
<path d="M469.567 391.948C469.567 391.948 453.722 384.737 449.526 382.631C445.33 380.526 430.196 387.766 428.333 388.463C426.47 389.16 422.274 391.72 422.971 393.356C423.668 394.992 429.499 395.689 429.499 395.689C429.499 395.689 424.137 396.386 425.304 398.007C426.47 399.629 444.406 396.841 446.027 396.841C447.649 396.841 451.39 401.037 455.813 401.976C460.237 402.914 469.795 401.734 469.795 401.734L469.567 391.948Z" fill="white" stroke="#182F43" stroke-linecap="round" stroke-linejoin="round"/>
<path d="M205.606 381.706C206.431 381.151 208.451 380.767 212.604 381.706C216.757 382.645 223.542 384.55 222.845 385.432C222.148 386.314 220.285 386.357 217.952 386.357C215.619 386.357 212.362 386.599 212.362 386.599C212.362 386.599 201.182 384.735 205.606 381.706Z" fill="white" stroke="#182F43" stroke-linecap="round" stroke-linejoin="round"/>
<path d="M95.8853 342.805C95.8853 342.805 98.9149 362.135 104.505 387.296C110.095 412.458 117.078 423.638 120.805 425.273C124.532 426.909 168.34 411.519 177.884 407.096C187.428 402.672 194.426 403.838 197.456 403.838C200.486 403.838 204.682 396.84 207.711 395.688C210.741 394.536 224.424 397.779 225.42 395.219C226.415 392.659 218.663 387.524 216.331 385.902C213.998 384.281 209.105 380.54 205.606 381.706C202.107 382.873 192.805 395.446 190.23 396.84C187.656 398.234 162.978 399.685 150.632 399.415C138.286 399.145 137.12 398.945 137.12 398.945C137.12 398.945 127.803 359.119 127.803 351.41C127.803 344.298 125.798 333.303 118.33 330.302C113.252 328.283 104.875 327.913 100.536 331.853C99.0296 333.245 97.8357 334.941 97.0339 336.829C96.232 338.717 95.8405 340.754 95.8853 342.805Z" fill="white" stroke="#182F43" stroke-linecap="round" stroke-linejoin="round"/>
<path d="M125.47 418.745C133.862 414.478 137.12 398.945 137.12 398.945C137.12 398.945 127.803 359.119 127.803 351.41C127.803 344.298 125.798 333.303 118.33 330.302C113.252 328.283 104.875 327.913 100.536 331.853C99.0296 333.245 97.8357 334.941 97.0339 336.829C96.232 338.717 95.8405 340.754 95.8853 342.805C95.8853 342.805 98.9149 362.135 104.505 387.296C108.487 405.246 113.181 416.056 116.908 421.433C119.893 421.024 122.787 420.115 125.47 418.745Z" fill="#AA4337" stroke="#182F43" stroke-linecap="round" stroke-linejoin="round"/>
<path d="M225.419 395.219C225.419 395.219 211.438 390.084 209.333 390.084C207.985 390.106 206.649 390.346 205.378 390.795" fill="white"/>
<path d="M225.419 395.219C225.419 395.219 211.438 390.084 209.333 390.084C207.985 390.106 206.649 390.346 205.378 390.795" stroke="#182F43" stroke-linecap="round" stroke-linejoin="round"/>
<path d="M205.848 386.357C207.986 385.716 210.277 385.801 212.362 386.599C215.207 388.021 223.741 391.719 223.741 391.719" fill="white"/>
<path d="M205.848 386.357C207.986 385.716 210.277 385.801 212.362 386.599C215.207 388.021 223.741 391.719 223.741 391.719" stroke="#182F43" stroke-linecap="round" stroke-linejoin="round"/>
<path d="M193.957 332.55C193.957 332.55 189.775 331.128 186.034 337.912C182.293 344.697 182.308 350.486 187.67 354.212C193.032 357.939 207.469 361.438 210.968 363.998C214.467 366.559 217.497 370.058 219.36 370.527C221.223 370.996 228.207 372.39 226.344 362.832C224.481 353.274 210.698 343.26 203.743 337.67C196.787 332.081 193.957 332.55 193.957 332.55Z" fill="white" stroke="#182F43" stroke-linecap="round" stroke-linejoin="round"/>
<path d="M216.402 359.659C215.672 361.551 214.649 363.317 213.372 364.893C211.566 366.898 209.958 367.908 211.566 370.739C213.154 373.61 214.578 376.568 215.833 379.6C216.843 382.018 218.535 379.074 218.933 375.845C219.332 372.616 216.601 368.164 218.663 367.709C219.275 367.581 221.067 364.082 224.907 365.903C228.748 367.723 235.177 374.152 235.774 369.316C236.372 364.48 232.56 360.455 228.122 358.236C223.684 356.017 218.621 355.391 216.402 359.659Z" fill="white" stroke="#182F43" stroke-linecap="round" stroke-linejoin="round"/>
<path d="M237.353 363.314C237.353 363.314 239.359 363.314 241.378 367.141C243.398 370.967 244.394 372.972 242.986 373.584C241.577 374.196 241.179 373.584 239.97 371.365C238.761 369.146 237.751 366.927 237.751 366.927V364.31L237.353 363.314Z" fill="white" stroke="#182F43" stroke-linecap="round" stroke-linejoin="round"/>
<path d="M232.517 360.086C233.675 360.308 234.759 360.814 235.673 361.559C236.587 362.303 237.301 363.264 237.751 364.353C239.174 367.98 239.97 372.418 238.761 374.224C237.552 376.031 235.134 375.035 234.736 371.806C234.338 368.577 232.517 360.086 232.517 360.086Z" fill="white" stroke="#182F43" stroke-linecap="round" stroke-linejoin="round"/>
<path d="M227.482 357.47C227.482 357.47 229.687 357.071 232.517 360.087C235.348 363.102 235.945 373.585 234.935 374.381C233.925 375.178 232.09 375.59 231.109 372.959C230.128 370.328 227.482 357.47 227.482 357.47Z" fill="white" stroke="#182F43" stroke-linecap="round" stroke-linejoin="round"/>
<path d="M220.228 357.868C220.228 357.868 224.054 352.435 226.472 355.251C228.89 358.068 231.308 372.974 230.497 373.984C229.687 374.994 227.283 375.591 225.661 371.978C224.377 368.57 223.369 365.065 222.646 361.495" fill="white"/>
<path d="M220.228 357.868C220.228 357.868 224.054 352.435 226.472 355.251C228.89 358.068 231.308 372.974 230.497 373.984C229.687 374.994 227.283 375.591 225.661 371.978C224.377 368.57 223.369 365.065 222.646 361.495" stroke="#182F43" stroke-linecap="round" stroke-linejoin="round"/>
<path d="M132.994 245.87C129.253 248.914 125.356 251.688 124.304 256.837C122.668 264.759 130.59 270.107 125.47 277.333C120.349 284.558 113.821 286.422 120.805 293.647C127.788 300.873 149.465 312.28 145.738 331.852C142.012 351.424 127.803 349.56 124.531 347.498C121.26 345.435 107.064 336.318 100.778 339.575C94.4908 342.832 99.142 354.951 97.2787 358.919C95.4154 362.888 76.3131 358.919 69.5569 350.3C62.8007 341.68 56.969 318.14 64.1946 305.325C71.4201 292.509 82.5999 288.541 79.1009 275.242C75.6019 261.943 71.8895 245.884 81.6754 231.149C91.4612 216.413 110.535 208.107 125.47 211.577C132.496 213.213 140.163 217.75 142.239 225.118C144.074 231.689 141.002 237.805 136.55 242.542C135.438 243.728 134.251 244.839 132.994 245.87Z" fill="#182F43" stroke="#182F43" stroke-linecap="round" stroke-linejoin="round"/>
<path d="M136.564 233.538C135.076 236.76 132.704 239.492 129.723 241.418C120.705 247.221 114.916 253.664 117.49 262.682C120.065 271.7 120.705 277.489 109.113 283.292C97.5205 289.095 103.309 308.454 115.556 313.574C127.803 318.695 144.544 330.956 134.232 341.908" stroke="white" stroke-linecap="round" stroke-linejoin="round"/>
<path d="M138.741 224.677C138.691 226.198 138.476 227.71 138.101 229.186" stroke="white" stroke-linecap="round" stroke-linejoin="round"/>
<path d="M81.5908 342.592C82.174 345.664 83.5963 348.082 84.6347 348.423" stroke="white" stroke-linecap="round" stroke-linejoin="round"/>
<path d="M121.345 247.862C121.345 247.862 105.244 254.306 105.898 261.389C106.553 268.472 109.113 273.636 104.604 278.784C100.095 283.933 83.9941 289.097 83.9941 299.394C83.9941 309.692 96.7953 315.496 96.2264 323.233C95.6574 330.971 85.9285 328.382 82.6997 334.185C82.3264 334.856 82.0306 335.567 81.8179 336.305" stroke="white" stroke-linecap="round" stroke-linejoin="round"/>
<path d="M522.679 228.874C522.679 228.874 518.028 236.099 518.028 240.523C518.028 244.946 519.45 246.81 518.483 247.507C517.516 248.204 504.515 248.218 506.606 251.703C508.097 253.955 510.199 255.736 512.665 256.837C512.665 256.837 511.968 275.001 512.665 278.969C513.362 282.938 514.529 282.696 517.786 281.814C520.16 281.18 522.574 280.705 525.011 280.392C525.011 280.392 528.041 296.237 532.237 298.555C536.433 300.874 547.143 289.239 548.082 284.815C549.021 280.392 546.916 271.772 548.31 269.169C549.704 266.566 555.763 262.171 554.838 255.884C553.914 249.598 548.31 247.734 545.75 244.932C543.189 242.13 546.205 236.085 543.886 232.586C541.568 229.087 525.011 227.707 522.679 228.874Z" fill="white" stroke="#182F43" stroke-linecap="round" stroke-linejoin="round"/>
<path d="M545.052 268.017C545.052 268.017 541.781 273.138 538.523 272.668C535.266 272.199 533.161 267.775 533.161 267.775" fill="white"/>
<path d="M545.052 268.017C545.052 268.017 541.781 273.138 538.523 272.668C535.266 272.199 533.161 267.775 533.161 267.775" stroke="#182F43" stroke-linecap="round" stroke-linejoin="round"/>
<path d="M536.432 271.744C536.432 271.744 529.676 276.865 524.314 278.273L536.432 271.744Z" fill="white"/>
<path d="M536.432 271.744C536.432 271.744 529.676 276.865 524.314 278.273" stroke="#182F43" stroke-linecap="round" stroke-linejoin="round"/>
<path d="M512.665 256.838C512.665 256.838 522.209 267.776 518.952 270.109C515.694 272.441 509.863 266.624 509.863 262.186C509.863 257.748 509.635 256.141 512.665 256.838Z" fill="#182F43" stroke="#182F43" stroke-linecap="round" stroke-linejoin="round"/>
<path d="M522.465 248.715C522.379 250.266 521.839 251.489 521.227 251.46C520.616 251.432 520.203 250.152 520.289 248.616C520.374 247.08 520.914 245.771 521.512 245.871C522.109 245.97 522.536 247.165 522.465 248.715Z" fill="#182F43"/>
<path d="M519.976 242.129C519.976 242.129 524.016 241.191 524.954 248.046" stroke="#182F43" stroke-linecap="round" stroke-linejoin="round"/>
<path d="M538.524 233.539C538.524 233.539 514.344 232.373 511.271 224.223C508.199 216.072 531.07 202.788 555.99 207.681C580.91 212.573 582.859 247.976 573.471 255.429C564.083 262.882 551.097 270.577 547.612 271.075C544.128 271.573 544.114 269.653 545.052 268.045C545.991 266.438 552.264 254.761 548.082 254.291C543.9 253.822 535.722 258.558 534.797 258.558C533.872 258.558 532.706 257.136 533.631 255.074C534.555 253.011 538.054 251.575 534.328 248.076C530.601 244.577 527.813 243.424 529.677 240.85C531.54 238.275 538.524 233.539 538.524 233.539Z" fill="#182F43" stroke="#182F43" stroke-linecap="round" stroke-linejoin="round"/>
<path d="M517.515 224.023C517.515 224.023 519.45 224.678 531.042 227.252C542.634 229.827 574.196 230.467 575.491 247.165" stroke="white" stroke-linecap="round" stroke-linejoin="round"/>
<path d="M566.487 253.852C566.659 255.308 566.428 256.784 565.818 258.119" stroke="white" stroke-linecap="round" stroke-linejoin="round"/>
<path d="M533.616 239.484C540.181 243.189 547.394 245.603 554.866 246.596C557.932 246.771 560.904 247.71 563.514 249.327" stroke="white" stroke-linecap="round" stroke-linejoin="round"/>
<path d="M541.994 249.156C541.994 249.156 565.179 254.945 560.03 262.029" stroke="white" stroke-linecap="round" stroke-linejoin="round"/>
<path d="M506.379 285.484C506.379 285.484 498.926 288.514 496.351 295.043C493.777 301.571 467.008 331.853 463.04 339.306C459.071 346.76 458.147 351.183 463.04 353.985C467.932 356.787 471.659 355.152 478.188 350.714C484.716 346.276 495.597 328.198 495.597 328.198L506.379 285.484Z" fill="#FFC100" stroke="#182F43" stroke-linecap="round" stroke-linejoin="round"/>
<path d="M467.932 335.109C467.932 335.109 460.706 340.472 458.146 348.622C455.586 356.772 445.8 379.572 445.8 379.572L454.661 386.329C454.661 386.329 474.46 355.35 475.854 350.684C477.248 346.019 476.082 343.7 476.082 343.7" fill="#FFC100"/>
<path d="M467.932 335.109C467.932 335.109 460.706 340.472 458.146 348.622C455.586 356.772 445.8 379.572 445.8 379.572L454.661 386.329C454.661 386.329 474.46 355.35 475.854 350.684C477.248 346.019 476.082 343.7 476.082 343.7" stroke="#182F43" stroke-linecap="round" stroke-linejoin="round"/>
<path d="M448.602 378.151C449.456 377.897 450.354 377.828 451.237 377.948C452.12 378.068 452.967 378.375 453.722 378.848C456.055 380.484 461.645 388.165 459.782 388.876C457.918 389.587 455.358 388.634 453.495 386.543C451.632 384.452 449.527 383.044 448.602 383.044H446.312L448.602 378.151Z" fill="white" stroke="#182F43" stroke-linecap="round" stroke-linejoin="round"/>
<path d="M430.893 384.494C428.769 385.612 426.874 387.117 425.303 388.932C423.668 391.25 421.804 399.173 422.743 399.87C423.682 400.567 424.834 398.248 426.47 394.052C428.106 389.856 430.893 384.494 430.893 384.494Z" fill="white" stroke="#182F43" stroke-linecap="round" stroke-linejoin="round"/>
<path d="M448.602 378.15C449.455 378.748 444.164 388.405 442.073 392.374C439.982 396.342 430.694 400.766 428.333 400.993C425.972 401.221 425.304 388.42 432.06 382.83C438.816 377.24 446.312 376.571 448.602 378.15Z" fill="white" stroke="#182F43" stroke-linecap="round" stroke-linejoin="round"/>
<path d="M431.818 399.641C431.818 399.641 429.5 396.797 431.591 390.794C432.806 387.294 434.231 383.869 435.858 380.539" stroke="#182F43" stroke-linecap="round" stroke-linejoin="round"/>
<path d="M436.014 397.082C436.014 397.082 435.317 394.237 436.953 388.69C438.079 385.023 439.641 381.503 441.604 378.207" stroke="#182F43" stroke-linecap="round" stroke-linejoin="round"/>
<path d="M316.161 174.444L305.983 166.23L305.191 167.211L308.9 170.204L281.955 198.297L273.819 192.044C273.615 191.887 273.375 191.774 273.115 191.712C272.856 191.65 272.583 191.642 272.317 191.687C272.051 191.732 271.796 191.829 271.572 191.973C271.348 192.117 271.16 192.302 271.02 192.518L258.078 212.416L261.255 214.117L273.055 195.965L280.905 201.999C281.272 202.282 281.749 202.418 282.233 202.379C282.718 202.339 283.171 202.127 283.496 201.788L311.659 172.431L315.369 175.425L316.161 174.444Z" fill="white" stroke="#182F43" stroke-linecap="round" stroke-linejoin="round"/>
<path d="M318.894 162L305.9 166.194L309.602 169.213L282.792 197.439L274.676 191.134C274.472 190.976 274.232 190.861 273.973 190.799C273.714 190.736 273.443 190.727 273.177 190.772C272.912 190.817 272.659 190.915 272.435 191.059C272.212 191.203 272.025 191.39 271.885 191.607L259.02 211.61L262.187 213.325L273.92 195.078L281.751 201.161C282.118 201.446 282.593 201.584 283.076 201.545C283.558 201.506 284.009 201.293 284.333 200.953L312.353 171.457L316.054 174.474L318.894 162Z" fill="#AA4337" stroke="#182F43" stroke-linecap="round" stroke-linejoin="round"/>
</g>
<defs>
<clipPath id="clip0_151_1103">
<rect width="665" height="470" fill="white"/>
</clipPath>
</defs>
</svg>
