<svg width="55" height="55" viewBox="0 0 55 55" fill="none" xmlns="http://www.w3.org/2000/svg">
<path fill-rule="evenodd" clip-rule="evenodd" d="M32.4604 10.074C32.2723 10.1231 31.9493 10.2496 31.7425 10.3553C31.5356 10.4608 27.8852 12.5745 23.6303 15.0524L15.8941 19.5576H14.293C12.5415 19.5576 12.256 19.6015 11.6075 19.9697C10.8635 20.3922 10.2278 21.2929 10.0691 22.1489C9.978 22.6402 9.97649 41.8048 10.0675 42.3605C10.2768 43.6392 11.3626 44.7254 12.6407 44.9348C12.8897 44.9756 18.2729 45.0005 26.7514 45C41.8043 44.9991 41.0076 45.0211 41.7668 44.5865C42.4736 44.182 42.9904 43.545 43.2728 42.7304C43.3805 42.4198 43.3985 42.143 43.399 40.7833C43.3996 39.2809 43.3921 39.1884 43.2563 39.005C42.9855 38.6395 43.0164 38.6427 39.6994 38.6416C37.2528 38.6408 36.4917 38.6191 36.02 38.5368C33.7991 38.1494 32.0477 36.7515 31.1794 34.6735C30.8069 33.7817 30.7511 33.4656 30.7512 32.2454C30.7512 31.3125 30.7739 31.0724 30.9055 30.6183C31.5548 28.3766 33.1903 26.7578 35.4686 26.1017C35.9106 25.9744 36.2122 25.9608 39.4122 25.9241C42.7909 25.8854 42.8818 25.8809 43.07 25.741C43.4071 25.4906 43.4494 25.2254 43.4125 23.5931C43.3696 21.6939 43.2495 21.2942 42.4926 20.5322C42.0324 20.0689 41.5885 19.8156 40.9376 19.645L40.4664 19.5216L38.158 15.487C35.8346 11.4259 35.5169 10.9388 34.9279 10.5334C34.2671 10.0786 33.2018 9.88023 32.4604 10.074ZM33.8265 11.73C34.1028 11.8612 34.568 12.314 34.4955 12.3811C34.4667 12.4078 31.6876 14.0335 28.3198 15.9937L22.1965 19.5576H20.6658C19.7367 19.5576 19.1605 19.533 19.2 19.495C19.3454 19.3546 32.4659 11.7515 32.726 11.6568C33.0481 11.5396 33.4868 11.5688 33.8265 11.73ZM37.7538 17.9921C38.2079 18.7863 38.5795 19.4634 38.5795 19.4969C38.5795 19.5315 37.1029 19.5576 35.1496 19.5576C33.2632 19.5576 31.7382 19.5391 31.7609 19.5164C31.8335 19.4437 36.8248 16.5481 36.8775 16.5481C36.9053 16.5481 37.2997 17.1979 37.7538 17.9921ZM36.2005 27.5665C34.5393 27.8501 33.0439 29.1724 32.5165 30.8242C31.6987 33.3852 33.189 36.1253 35.8077 36.8757C36.3483 37.0306 36.4136 37.0332 39.7418 37.0332H43.1261L43.5705 36.8203C44.3014 36.4701 44.7807 35.8849 44.9368 35.1523C44.9928 34.8894 45.0102 33.9521 44.9945 32.0402L44.9721 29.3043L44.7895 28.9147C44.5567 28.4177 44.0807 27.9415 43.5839 27.7086L43.1945 27.526L39.8785 27.5154C38.0547 27.5095 36.3996 27.5325 36.2005 27.5665ZM37.6758 30.8127C38.4059 31.1178 38.813 32.0223 38.5493 32.7537C38.3858 33.2073 38.1446 33.4793 37.7229 33.6857C36.9302 34.0737 36.0443 33.7573 35.6258 32.9367C35.354 32.4037 35.5019 31.5298 35.9307 31.1354C36.3837 30.7188 37.1236 30.5819 37.6758 30.8127Z" fill="#182F43"/>
</svg>
