<svg width="100" height="100" viewBox="0 0 100 100" fill="none" xmlns="http://www.w3.org/2000/svg">
<path fill-rule="evenodd" clip-rule="evenodd" d="M49.2771 26.0088C45.119 26.122 42.025 26.9123 40.2801 28.307C40.0621 28.4812 39.6982 28.833 39.5388 29.0236C39.1315 29.5106 38.8427 30.094 38.7238 30.6697C38.6814 30.875 38.6812 30.8862 38.6846 33.2536C38.6864 34.5614 38.6911 35.6484 38.695 35.6692C38.6989 35.6901 38.7028 35.9921 38.7036 36.3405L38.7051 36.9738H44.6506H50.5962V37.8088V38.6439L41.9289 38.643C35.9536 38.6423 33.1974 38.6485 33.0549 38.6629C31.5724 38.8124 30.2193 39.4255 29.1378 40.4378C28.6327 40.9106 28.2155 41.4244 27.8258 42.0536C27.612 42.3987 27.2291 43.1716 27.0636 43.5922C26.5002 45.024 26.1645 46.687 26.0367 48.6787C25.97 49.7182 25.9967 51.5197 26.0964 52.7145C26.373 56.0288 27.2424 58.5624 28.6839 60.2553C28.8622 60.4647 29.3611 60.9497 29.5702 61.117C29.9383 61.4114 30.5034 61.756 30.9172 61.9383C31.2955 62.105 31.8449 62.2662 32.2871 62.3402C32.4745 62.3715 32.7094 62.3754 34.8027 62.3816L37.1116 62.3885L37.1101 59.2306C37.1087 56.4722 37.1125 56.0367 37.1398 55.788C37.3106 54.2311 37.8221 52.8995 38.651 51.8537C38.8615 51.5881 39.3121 51.1449 39.5871 50.9328C40.1754 50.4793 40.8791 50.1317 41.6427 49.9174C42.0526 49.8024 42.3955 49.7378 43.0264 49.6569C43.1555 49.6404 44.9787 49.6305 49.7398 49.6206C53.3347 49.6132 56.3114 49.6009 56.3547 49.5934C56.398 49.5859 56.5619 49.5622 56.7189 49.5408C58.3399 49.3198 59.7717 48.6647 60.7252 47.7077C61.6332 46.7966 62.1579 45.6438 62.3293 44.1834C62.3412 44.0819 62.3593 43.8212 62.3695 43.604C62.396 43.0419 62.3942 32.0142 62.3677 31.7708C62.2026 30.2589 61.2665 28.9096 59.7083 27.9376C59.3651 27.7235 58.6222 27.3517 58.225 27.195C56.4506 26.4955 54.257 26.1072 51.5608 26.0156C51.0484 25.9982 49.804 25.9945 49.2771 26.0088ZM44.345 29.8134C44.7134 29.9091 45.1215 30.1487 45.3602 30.4092C45.7304 30.8133 45.9159 31.2527 45.9427 31.7891C45.989 32.7149 45.4192 33.5627 44.5323 33.8879C44.2635 33.9864 44.1856 33.998 43.7943 33.9969C43.4452 33.9961 43.4084 33.9925 43.243 33.9426C42.871 33.8304 42.5612 33.6494 42.3011 33.3921C41.708 32.8058 41.5114 31.9252 41.7984 31.141C42.0361 30.4917 42.633 29.9608 43.2998 29.8057C43.535 29.751 43.5522 29.7495 43.8632 29.7562C44.0928 29.7612 44.187 29.7724 44.345 29.8134Z" fill="#FFC121"/>
<path fill-rule="evenodd" clip-rule="evenodd" d="M51.5881 74.8564C55.7463 74.7433 58.8402 73.953 60.5851 72.5583C60.8031 72.384 61.167 72.0322 61.3264 71.8416C61.7337 71.3546 62.0225 70.7713 62.1414 70.1955C62.1838 69.9902 62.184 69.979 62.1807 67.6116C62.1788 66.3038 62.1742 65.2168 62.1702 65.196C62.1663 65.1752 62.1625 64.8731 62.1616 64.5248L62.1601 63.8914H56.2146H50.2691V63.0564V62.2214L58.9363 62.2223C64.9116 62.2229 67.6678 62.2167 67.8104 62.2023C69.2928 62.0529 70.646 61.4397 71.7274 60.4274C72.2325 59.9546 72.6497 59.4409 73.0395 58.8117C73.2533 58.4665 73.6361 57.6936 73.8016 57.2731C74.365 55.8412 74.7008 54.1782 74.8285 52.1866C74.8952 51.147 74.8685 49.3456 74.7688 48.1508C74.4922 44.8364 73.6229 42.3028 72.1813 40.61C72.003 40.4006 71.5041 39.9155 71.295 39.7482C70.9269 39.4538 70.3619 39.1092 69.948 38.9269C69.5697 38.7602 69.0203 38.5991 68.5782 38.5251C68.3907 38.4937 68.1559 38.4898 66.0625 38.4836L63.7536 38.4767L63.7552 41.6346C63.7565 44.393 63.7528 44.8285 63.7255 45.0773C63.5546 46.6341 63.0432 47.9657 62.2142 49.0116C62.0038 49.2771 61.5532 49.7204 61.2781 49.9324C60.6898 50.3859 59.9861 50.7335 59.2226 50.9478C58.8126 51.0628 58.4697 51.1274 57.8388 51.2083C57.7097 51.2248 55.8865 51.2347 51.1255 51.2446C47.5306 51.2521 44.5539 51.2643 44.5106 51.2718C44.4672 51.2793 44.3033 51.303 44.1463 51.3244C42.5253 51.5455 41.0936 52.2006 40.14 53.1575C39.232 54.0687 38.7074 55.2214 38.536 56.6819C38.524 56.7833 38.5059 57.044 38.4957 57.2612C38.4693 57.8233 38.471 68.8511 38.4976 69.0944C38.6626 70.6063 39.5988 71.9556 41.157 72.9276C41.5002 73.1417 42.243 73.5136 42.6403 73.6702C44.4146 74.3698 46.6082 74.758 49.3044 74.8496C49.8169 74.867 51.0613 74.8707 51.5881 74.8564ZM56.5202 71.0518C56.1519 70.9561 55.7437 70.7165 55.505 70.456C55.1348 70.0519 54.9493 69.6126 54.9225 69.0761C54.8762 68.1504 55.446 67.3025 56.333 66.9774C56.6018 66.8788 56.6797 66.8673 57.071 66.8683C57.4201 66.8691 57.4569 66.8728 57.6222 66.9226C57.9942 67.0348 58.304 67.2159 58.5642 67.4731C59.1572 68.0595 59.3538 68.94 59.0668 69.7242C58.8291 70.3735 58.2322 70.9045 57.5655 71.0595C57.3302 71.1143 57.313 71.1158 57.0021 71.109C56.7724 71.104 56.6782 71.0928 56.5202 71.0518Z" fill="#FFC121"/>
</svg>
