<svg width="75" height="75" viewBox="0 0 75 75" fill="none" xmlns="http://www.w3.org/2000/svg">
<path d="M37.5 74C27.8196 74 18.5357 70.1545 11.6906 63.3094C4.84553 56.4643 1 47.1804 1 37.5C1 27.8196 4.84553 18.5357 11.6906 11.6906C18.5357 4.84552 27.8196 1 37.5 1C47.1804 1 56.4643 4.84552 63.3094 11.6906C70.1545 18.5357 74 27.8196 74 37.5C74 47.1804 70.1545 56.4643 63.3094 63.3094C56.4643 70.1545 47.1804 74 37.5 74Z" fill="#182F43" stroke="#182F43" stroke-miterlimit="10"/>
<path d="M20.3047 9.13676C23.542 7.16102 27.0968 5.76015 30.8116 4.99609" stroke="white" stroke-width="0.75" stroke-linecap="round" stroke-linejoin="round"/>
<path d="M4.47969 40.4281C4.39688 39.4654 4.35548 38.4819 4.35548 37.4985C4.35158 32.2196 5.60936 27.0162 8.02402 22.3219C10.4387 17.6277 13.9403 13.5784 18.2371 10.5117" stroke="white" stroke-width="0.75" stroke-linecap="round" stroke-linejoin="round"/>
<path d="M62.7992 58.928C59.6911 62.6078 55.8165 65.5641 51.4465 67.59C47.0764 69.6158 42.3165 70.6624 37.4997 70.6565V70.6565C30.7068 70.6576 24.0773 68.5735 18.5069 64.6859C12.9364 60.7982 8.69358 55.2944 6.35156 48.918" stroke="white" stroke-width="0.75" stroke-linecap="round" stroke-linejoin="round"/>
<path d="M68.8881 48.2275C68.1639 50.3371 67.2311 52.3692 66.1035 54.2936" stroke="white" stroke-width="0.75" stroke-linecap="round" stroke-linejoin="round"/>
<path d="M30.8105 5.01664C33.011 4.56622 35.2516 4.34077 37.4977 4.34378V4.34378C46.2831 4.34378 54.7087 7.83376 60.9209 14.046C67.1331 20.2582 70.6231 28.6837 70.6231 37.4691C70.624 40.3306 70.2552 43.1802 69.5258 45.9472" stroke="white" stroke-width="0.75" stroke-linecap="round" stroke-linejoin="round"/>
<path fill-rule="evenodd" clip-rule="evenodd" d="M37.3056 17.8863C33.8461 17.9804 31.272 18.6379 29.8203 19.7983C29.6389 19.9432 29.3361 20.236 29.2035 20.3945C28.8647 20.7997 28.6244 21.285 28.5254 21.764C28.4902 21.9348 28.49 21.9442 28.4928 23.9138C28.4943 25.0018 28.4982 25.9062 28.5015 25.9235C28.5047 25.9409 28.5079 26.1922 28.5086 26.482L28.5099 27.0089H33.4565H38.403V27.7037V28.3984L31.192 28.3976C26.2207 28.3971 23.9276 28.4023 23.809 28.4142C22.5756 28.5386 21.4498 29.0487 20.55 29.8909C20.1298 30.2843 19.7827 30.7117 19.4585 31.2352C19.2806 31.5223 18.962 32.1654 18.8244 32.5153C18.3556 33.7065 18.0763 35.0901 17.97 36.7471C17.9145 37.612 17.9367 39.1108 18.0197 40.1049C18.2498 42.8623 18.9731 44.9702 20.1724 46.3787C20.3208 46.5529 20.7359 46.9565 20.9098 47.0956C21.2161 47.3406 21.6862 47.6272 22.0305 47.779C22.3452 47.9176 22.8023 48.0517 23.1702 48.1133C23.3261 48.1394 23.5215 48.1426 25.2632 48.1478L27.1841 48.1535L27.1828 45.5262C27.1817 43.2312 27.1848 42.8689 27.2075 42.662C27.3497 41.3667 27.7752 40.2588 28.4648 39.3887C28.64 39.1677 29.0149 38.799 29.2437 38.6226C29.7331 38.2453 30.3186 37.9561 30.9539 37.7778C31.2949 37.6821 31.5802 37.6284 32.1052 37.5611C32.2125 37.5473 33.7294 37.5391 37.6905 37.5309C40.6814 37.5246 43.158 37.5145 43.194 37.5082C43.23 37.502 43.3664 37.4823 43.497 37.4645C44.8457 37.2805 46.0369 36.7355 46.8302 35.9394C47.5856 35.1813 48.0222 34.2222 48.1648 33.0071C48.1747 32.9227 48.1897 32.7058 48.1982 32.5251C48.2202 32.0575 48.2188 22.8826 48.1967 22.6801C48.0594 21.4223 47.2805 20.2996 45.9841 19.491C45.6986 19.3129 45.0806 19.0035 44.75 18.8732C43.2738 18.2911 41.4488 17.9681 39.2056 17.8919C38.7792 17.8774 37.7439 17.8743 37.3056 17.8863ZM33.2022 21.0516C33.5086 21.1312 33.8482 21.3305 34.0468 21.5473C34.3548 21.8835 34.5091 22.249 34.5314 22.6953C34.5699 23.4655 34.0959 24.171 33.358 24.4415C33.1343 24.5235 33.0695 24.5331 32.7439 24.5322C32.4535 24.5315 32.4229 24.5285 32.2853 24.487C31.9759 24.3937 31.7181 24.243 31.5016 24.029C31.0082 23.5412 30.8447 22.8086 31.0835 22.1561C31.2812 21.6159 31.7778 21.1742 32.3325 21.0452C32.5283 20.9997 32.5426 20.9984 32.8013 21.004C32.9923 21.0082 33.0707 21.0175 33.2022 21.0516Z" fill="#FFC121"/>
<path fill-rule="evenodd" clip-rule="evenodd" d="M39.2276 58.5268C42.6871 58.4327 45.2612 57.7752 46.7129 56.6148C46.8943 56.4699 47.1971 56.1771 47.3297 56.0186C47.6685 55.6134 47.9088 55.1281 48.0078 54.6491C48.043 54.4783 48.0432 54.4689 48.0404 52.4993C48.0389 51.4113 48.035 50.5069 48.0317 50.4896C48.0285 50.4722 48.0253 50.2209 48.0246 49.9311L48.0233 49.4042H43.0767H38.1302V48.7094V48.0147L45.3412 48.0155C50.3125 48.016 52.6056 48.0108 52.7242 47.9989C53.9576 47.8745 55.0834 47.3644 55.9832 46.5222C56.4034 46.1288 56.7505 45.7014 57.0747 45.1779C57.2526 44.8907 57.5712 44.2477 57.7088 43.8978C58.1776 42.7066 58.4569 41.3229 58.5632 39.6659C58.6187 38.8011 58.5965 37.3023 58.5135 36.3082C58.2834 33.5507 57.5601 31.4429 56.3608 30.0344C56.2125 29.8602 55.7973 29.4566 55.6234 29.3174C55.3171 29.0725 54.847 28.7858 54.5027 28.6341C54.188 28.4955 53.7309 28.3614 53.363 28.2998C53.2071 28.2737 53.0117 28.2705 51.2701 28.2653L49.3491 28.2596L49.3504 30.8869C49.3515 33.1819 49.3484 33.5442 49.3257 33.7511C49.1835 35.0464 48.758 36.1543 48.0684 37.0244C47.8932 37.2453 47.5183 37.6141 47.2895 37.7905C46.8001 38.1678 46.2146 38.457 45.5793 38.6353C45.2383 38.731 44.953 38.7847 44.4281 38.852C44.3207 38.8658 42.8038 38.874 38.8427 38.8822C35.8518 38.8884 33.3752 38.8986 33.3392 38.9049C33.3032 38.9111 33.1668 38.9308 33.0362 38.9486C31.6875 39.1325 30.4963 39.6776 29.703 40.4737C28.9476 41.2318 28.511 42.1909 28.3684 43.4059C28.3585 43.4904 28.3435 43.7073 28.335 43.888C28.313 44.3556 28.3144 53.5305 28.3365 53.733C28.4738 54.9908 29.2527 56.1134 30.5491 56.9221C30.8346 57.1002 31.4526 57.4096 31.7832 57.5399C33.2594 58.122 35.0844 58.445 37.3276 58.5212C37.754 58.5357 38.7893 58.5388 39.2276 58.5268ZM43.331 55.3615C43.0246 55.2818 42.685 55.0825 42.4864 54.8658C42.1784 54.5296 42.0241 54.1641 42.0018 53.7177C41.9633 52.9475 42.4373 52.2421 43.1752 51.9716C43.3989 51.8896 43.4637 51.88 43.7893 51.8809C44.0797 51.8816 44.1103 51.8846 44.2479 51.9261C44.5573 52.0194 44.8151 52.1701 45.0316 52.3841C45.525 52.8719 45.6885 53.6045 45.4497 54.2569C45.252 54.7971 44.7554 55.2389 44.2007 55.3679C44.0049 55.4134 43.9906 55.4147 43.7319 55.4091C43.5409 55.4049 43.4625 55.3956 43.331 55.3615Z" fill="#FFC121"/>
</svg>
