<svg width="49" height="49" viewBox="0 0 49 49" fill="none" xmlns="http://www.w3.org/2000/svg">
<path fill-rule="evenodd" clip-rule="evenodd" d="M23.2771 0.00884198C19.119 0.121982 16.025 0.912276 14.2801 2.30696C14.0621 2.48122 13.6982 2.83305 13.5388 3.02363C13.1315 3.51063 12.8427 4.09395 12.7238 4.66969C12.6814 4.875 12.6812 4.88623 12.6846 7.25363C12.6864 8.56139 12.6911 9.64841 12.695 9.66923C12.6989 9.69007 12.7028 9.9921 12.7036 10.3405L12.7051 10.9738H18.6506H24.5962V11.8088V12.6439L15.9289 12.643C9.95363 12.6423 7.1974 12.6485 7.05488 12.6629C5.57244 12.8124 4.21926 13.4255 3.1378 14.4378C2.63272 14.9106 2.21551 15.4244 1.82576 16.0536C1.61196 16.3987 1.22911 17.1716 1.06363 17.5922C0.500206 19.024 0.164461 20.687 0.0367103 22.6787C-0.0299702 23.7182 -0.00331374 25.5197 0.0964019 26.7145C0.373007 30.0288 1.24237 32.5624 2.68391 34.2553C2.8622 34.4647 3.36113 34.9497 3.57025 35.117C3.93832 35.4114 4.50336 35.756 4.91721 35.9383C5.2955 36.105 5.84489 36.2662 6.28708 36.3402C6.4745 36.3715 6.70935 36.3754 8.80271 36.3816L11.1116 36.3885L11.1101 33.2306C11.1087 30.4722 11.1125 30.0367 11.1398 29.788C11.3106 28.2311 11.8221 26.8995 12.651 25.8537C12.8615 25.5881 13.3121 25.1449 13.5871 24.9328C14.1754 24.4793 14.8791 24.1317 15.6427 23.9174C16.0526 23.8024 16.3955 23.7378 17.0264 23.6569C17.1555 23.6404 18.9787 23.6305 23.7398 23.6206C27.3347 23.6132 30.3114 23.6009 30.3547 23.5934C30.398 23.5859 30.5619 23.5622 30.7189 23.5408C32.3399 23.3198 33.7717 22.6647 34.7252 21.7077C35.6332 20.7966 36.1579 19.6438 36.3293 18.1834C36.3412 18.0819 36.3593 17.8212 36.3695 17.604C36.396 17.0419 36.3942 6.01416 36.3677 5.77079C36.2026 4.25894 35.2665 2.9096 33.7083 1.93763C33.3651 1.72354 32.6222 1.35166 32.225 1.19504C30.4506 0.495457 28.257 0.107233 25.5608 0.0156174C25.0484 -0.00180236 23.804 -0.0054945 23.2771 0.00884198ZM18.345 3.81345C18.7134 3.90915 19.1215 4.14869 19.3602 4.40922C19.7304 4.81329 19.9159 5.25267 19.9427 5.78911C19.989 6.71486 19.4192 7.56273 18.5323 7.88788C18.2635 7.98642 18.1856 7.99795 17.7942 7.99695C17.4452 7.99609 17.4084 7.99245 17.243 7.94259C16.871 7.83041 16.5612 7.64936 16.3011 7.39211C15.708 6.80577 15.5114 5.92523 15.7984 5.14103C16.0361 4.49172 16.633 3.96078 17.2998 3.80571C17.535 3.75098 17.5522 3.74946 17.8632 3.75622C18.0928 3.76121 18.187 3.7724 18.345 3.81345Z" fill="#FFC121"/>
<path fill-rule="evenodd" clip-rule="evenodd" d="M25.5881 48.8564C29.7463 48.7433 32.8402 47.953 34.5851 46.5583C34.8031 46.384 35.167 46.0322 35.3264 45.8416C35.7337 45.3546 36.0225 44.7713 36.1414 44.1955C36.1838 43.9902 36.184 43.979 36.1807 41.6116C36.1788 40.3038 36.1742 39.2168 36.1702 39.196C36.1663 39.1752 36.1625 38.8731 36.1616 38.5248L36.1601 37.8914H30.2146H24.2691V37.0564V36.2214L32.9363 36.2223C38.9116 36.2229 41.6678 36.2167 41.8104 36.2023C43.2928 36.0529 44.646 35.4397 45.7274 34.4274C46.2325 33.9546 46.6497 33.4408 47.0395 32.8117C47.2533 32.4665 47.6361 31.6936 47.8016 31.2731C48.365 29.8412 48.7008 28.1782 48.8285 26.1866C48.8952 25.147 48.8685 23.3456 48.7688 22.1508C48.4922 18.8364 47.6229 16.3028 46.1813 14.61C46.003 14.4006 45.5041 13.9155 45.295 13.7482C44.9269 13.4538 44.3619 13.1092 43.948 12.9269C43.5697 12.7602 43.0203 12.5991 42.5782 12.5251C42.3907 12.4937 42.1559 12.4898 40.0625 12.4836L37.7536 12.4767L37.7552 15.6346C37.7565 18.393 37.7528 18.8285 37.7255 19.0773C37.5546 20.6341 37.0432 21.9657 36.2142 23.0116C36.0038 23.2771 35.5531 23.7204 35.2781 23.9324C34.6898 24.3859 33.9861 24.7335 33.2226 24.9478C32.8126 25.0628 32.4697 25.1274 31.8388 25.2083C31.7097 25.2249 29.8865 25.2347 25.1255 25.2446C21.5306 25.2521 18.5539 25.2643 18.5106 25.2718C18.4672 25.2793 18.3033 25.303 18.1463 25.3244C16.5253 25.5455 15.0936 26.2006 14.14 27.1575C13.232 28.0687 12.7074 29.2214 12.536 30.6819C12.524 30.7833 12.5059 31.044 12.4957 31.2612C12.4693 31.8233 12.471 42.8511 12.4976 43.0944C12.6626 44.6063 13.5988 45.9556 15.157 46.9276C15.5002 47.1417 16.243 47.5136 16.6403 47.6702C18.4146 48.3698 20.6082 48.758 23.3044 48.8496C23.8169 48.867 25.0613 48.8707 25.5881 48.8564ZM30.5202 45.0518C30.1519 44.9561 29.7437 44.7165 29.505 44.456C29.1348 44.0519 28.9493 43.6126 28.9225 43.0761C28.8762 42.1504 29.446 41.3025 30.333 40.9774C30.6018 40.8788 30.6797 40.8673 31.071 40.8683C31.4201 40.8691 31.4569 40.8728 31.6222 40.9226C31.9942 41.0348 32.304 41.2159 32.5642 41.4731C33.1572 42.0595 33.3538 42.94 33.0668 43.7242C32.8291 44.3735 32.2322 44.9045 31.5655 45.0595C31.3302 45.1143 31.313 45.1158 31.0021 45.109C30.7724 45.104 30.6782 45.0928 30.5202 45.0518Z" fill="#FFC121"/>
</svg>
