<svg width="55" height="55" viewBox="0 0 55 55" fill="none" xmlns="http://www.w3.org/2000/svg">
<path d="M19.1366 28.599C18.9887 28.885 18.856 29.1498 18.7384 29.3934C18.6207 29.637 18.5026 29.8877 18.3838 30.1454C17.7935 31.3775 17.2625 32.6303 16.7909 33.9037C16.3691 34.9934 15.9877 36.3114 15.7121 37.6686L15.6836 37.8333C15.5659 38.5783 15.4847 39.3232 15.4399 40.0681C15.4332 40.1839 15.4298 40.3209 15.4298 40.458C15.4298 41.1284 15.5223 41.7793 15.697 42.3959L15.6852 42.3437C15.7945 42.9113 16.0784 43.4023 16.48 43.7742L16.4817 43.7759C16.8732 44.1021 17.3824 44.3044 17.9402 44.3125H17.9419C18.0276 44.3223 18.125 44.3272 18.2259 44.3272C18.4241 44.3272 18.6157 44.306 18.8005 44.2669L18.7837 44.2701L19.5802 44.0988C20.3313 43.8868 20.9832 43.6078 21.5898 43.2604L21.5495 43.2816C22.1544 42.938 22.752 42.5655 23.3424 42.1642C23.4701 42.0876 23.6163 42.0223 23.7709 41.975L23.7843 41.9717C23.8465 41.9538 23.9187 41.944 23.9927 41.944C24.0918 41.944 24.1876 41.9619 24.2749 41.9946L24.2699 41.9929C24.569 42.0908 24.7942 42.3322 24.8597 42.6324L24.8614 42.6373C24.8782 42.6927 24.8866 42.758 24.8866 42.8249C24.8866 43.0663 24.7639 43.28 24.5757 43.4088L24.574 43.4105C23.7137 44.045 22.7442 44.6437 21.7226 45.1624L21.6083 45.2146C20.6169 45.7137 19.4474 46.0139 18.2057 46.0302H18.2007C18.1301 46.0351 18.0494 46.0367 17.9671 46.0367C17.0917 46.0367 16.2834 45.7659 15.6231 45.3059L15.6348 45.3141C14.914 44.7856 14.3729 44.0581 14.094 43.218L14.0856 43.1886C13.8386 42.5541 13.679 41.82 13.6437 41.0566V41.0419C13.637 40.8821 13.6319 40.6945 13.6319 40.5053C13.6319 39.9376 13.6689 39.3781 13.7378 38.8284L13.7311 38.8936C14.015 36.6067 14.5678 34.5252 15.3643 32.5629L15.3021 32.7358C16.2313 30.4162 17.1471 28.5175 18.1687 26.6823L18.0242 26.9662C18.1015 26.8291 18.1503 26.6677 18.157 26.4947V26.4931C18.1536 26.3235 18.1217 26.1603 18.0646 26.0103L18.0679 26.0201C17.8024 25.3045 17.5515 24.5884 17.3151 23.8717L16.6077 21.7234C16.601 21.6076 16.5456 21.5065 16.4615 21.438C16.4044 21.4119 16.3372 21.3972 16.2666 21.3972C16.2179 21.3972 16.1709 21.4037 16.1272 21.4168L16.1305 21.4151C15.1279 21.6446 14.1394 21.9094 13.1648 22.2095C12.0944 22.5439 11.172 22.9436 10.3049 23.4281L10.3755 23.3922C9.99743 23.6075 9.67146 23.8277 9.36564 24.0691L9.38076 24.0577C9.05142 24.3187 8.75569 24.5781 8.4734 24.8521C8.07685 25.2289 7.8164 25.7362 7.766 26.3039V26.312V26.374C7.766 26.9368 7.96595 27.4555 8.30201 27.8633L8.29865 27.8584C8.61455 28.3364 8.99598 28.7409 9.43789 29.0753L9.44966 29.0835C9.89213 29.413 10.3492 29.7207 10.8208 30.0068C10.9978 30.0927 11.1602 30.1786 11.3081 30.2645L11.75 30.5222C11.9617 30.6429 12.123 30.8305 12.2053 31.0524L12.207 31.0589C12.2339 31.1307 12.249 31.2155 12.249 31.3019C12.249 31.4422 12.2087 31.5727 12.1381 31.6853L12.1398 31.682C12.039 31.8941 11.8474 32.0523 11.6139 32.111L11.6088 32.1127C11.5366 32.1306 11.4559 32.1404 11.3702 32.1404C11.1988 32.1404 11.0359 32.098 10.8947 32.0246L10.8998 32.0278C10.1587 31.6788 9.52527 31.3101 8.93044 30.8925L8.96909 30.9186C8.33898 30.4798 7.78784 29.9986 7.29551 29.4668L7.28711 29.457C6.99138 29.1226 6.72757 28.7475 6.50745 28.3445L6.49065 28.3119C6.29237 27.9449 6.13946 27.5208 6.05209 27.0722L6.04705 27.0445C6.0168 26.8699 6 26.6693 6 26.4654C6 26.0935 6.05713 25.733 6.16299 25.3953L6.15627 25.4214C6.33774 24.8619 6.60155 24.3774 6.93929 23.95L6.93089 23.9615C7.29215 23.4966 7.70046 23.0937 8.15582 22.7478L8.17095 22.7364C8.60951 22.4004 9.10183 22.0937 9.62441 21.836L9.67482 21.8131C10.4898 21.3792 11.4475 20.9731 12.444 20.6452L12.5733 20.6077C13.5569 20.2923 14.5673 20.0204 15.6046 19.7921C15.6701 19.7692 15.7508 19.748 15.8348 19.7301L15.8482 19.7285C15.9457 19.7089 16.0264 19.686 16.1053 19.6599L16.0902 19.6648C16.0308 19.4071 15.9815 19.1494 15.9423 18.8916C15.9031 18.6339 15.8662 18.3762 15.8314 18.1184C15.6701 17.1903 15.5508 16.0811 15.5021 14.9539L15.5004 14.8968C15.4954 14.7761 15.492 14.6325 15.492 14.4906C15.492 13.5037 15.6315 12.5495 15.8953 11.6441L15.8768 11.7175C15.9726 11.2526 16.1104 10.8432 16.2902 10.4566L16.275 10.4925C16.4699 10.0733 16.7069 9.71278 16.9892 9.3898L16.9841 9.39632C17.4949 8.79767 18.1788 8.35397 18.9618 8.14028L18.9904 8.13376C19.3399 8.04894 19.7398 8 20.1515 8C20.5951 8 21.0269 8.05709 21.4352 8.16312L21.4 8.15497C22.2939 8.36539 23.0819 8.69164 23.7961 9.11902L23.7608 9.09944C24.569 9.58228 25.2546 10.0504 25.9099 10.5529L25.8628 10.5186C26.0309 10.6703 26.1401 10.8824 26.1569 11.1173V11.1205C26.1586 11.1368 26.1586 11.1548 26.1586 11.1727C26.1586 11.3897 26.0645 11.5838 25.9132 11.7224C25.7788 11.8839 25.5856 11.9949 25.3638 12.0226H25.3587C25.3285 12.0258 25.2915 12.0291 25.2562 12.0291C25.0529 12.0291 24.8647 11.9622 24.7152 11.8497L24.7169 11.8513C24.3629 11.6218 24.0235 11.3929 23.6986 11.1646C23.413 10.959 23.0802 10.747 22.7375 10.5496L22.682 10.5202C22.3325 10.3082 21.9309 10.119 21.5075 9.97377L21.4638 9.96072C21.0605 9.8237 20.5951 9.7454 20.1095 9.7454C20.096 9.7454 20.0809 9.7454 20.0675 9.7454H20.0692C20.0624 9.7454 20.054 9.7454 20.0456 9.7454C19.6776 9.7454 19.3298 9.83349 19.024 9.98682L19.0358 9.98193C18.7148 10.1516 18.4527 10.3914 18.2662 10.6817L18.2611 10.6899C17.9822 11.0357 17.7688 11.4451 17.6478 11.8905L17.6428 11.9133C17.5386 12.2852 17.4445 12.7452 17.3824 13.2134L17.3773 13.2672C17.3168 13.7386 17.2832 14.2834 17.2832 14.8364C17.2832 15.3209 17.3101 15.7972 17.3605 16.2686L17.3555 16.2099C17.4731 17.3322 17.6378 18.3207 17.8545 19.2913L17.8209 19.1102V19.1249C17.8209 19.1967 17.8562 19.2603 17.91 19.3027C17.9671 19.3435 18.0393 19.368 18.1183 19.368H18.1318C18.9574 19.282 19.7689 19.2032 20.5665 19.1314C21.3641 19.0597 22.1606 18.9949 22.9559 18.9373C23.1206 18.9128 23.2701 18.8688 23.4079 18.8052L23.3978 18.8084C23.539 18.7318 23.6566 18.6306 23.749 18.5099L23.7507 18.5067C24.8362 17.1577 25.9082 15.9603 27.039 14.8201L27.0256 14.8348C28.1665 13.6864 29.3948 12.6359 30.7071 11.6882L30.7861 11.6327C31.4481 11.1385 32.1992 10.6426 32.9789 10.1875L33.0881 10.1287C33.8258 9.6981 34.6777 9.33107 35.5766 9.07334L35.6556 9.05377C36.158 8.89228 36.7394 8.78462 37.3426 8.75362H37.3594C37.4199 8.75036 37.4922 8.74873 37.5628 8.74873C38.1173 8.74873 38.6482 8.84497 39.1389 9.02114L39.107 9.01135C39.7858 9.21852 40.3571 9.60022 40.7839 10.101L40.7889 10.1075C41.1989 10.6116 41.5182 11.207 41.7097 11.8546L41.7181 11.8905C41.9433 12.5446 42.0727 13.2982 42.0727 14.0795V14.0812V14.0991C42.0727 14.8642 42.024 15.6194 41.9315 16.36L41.9399 16.2719C41.9108 16.472 41.8811 16.6629 41.8509 16.8445C41.8139 17.0696 41.7669 17.2621 41.7097 17.4513L41.7181 17.417C41.6946 17.6421 41.5686 17.833 41.3888 17.9521L41.3854 17.9537C41.2443 18.0499 41.0679 18.107 40.878 18.107C40.8309 18.107 40.7839 18.1038 40.7385 18.0972H40.7436C40.51 18.0728 40.3084 17.9618 40.1689 17.7987L40.1672 17.7971C40.0513 17.6568 39.979 17.4774 39.979 17.2816C39.979 17.236 39.9824 17.1919 39.9908 17.1479V17.1528C40.0199 16.8091 40.0642 16.4584 40.1235 16.1006C40.179 15.7842 40.2109 15.4204 40.2126 15.0485C40.226 14.8593 40.2344 14.6374 40.2344 14.4156C40.2344 14.1937 40.226 13.9719 40.2109 13.7517L40.2126 13.781C40.1773 13.3064 40.1151 12.8724 40.0244 12.45L40.0362 12.5152C39.932 11.7795 39.5018 11.158 38.8952 10.7812L38.8852 10.7747C38.492 10.5757 38.0248 10.4582 37.5308 10.4582C37.225 10.4582 36.9293 10.5039 36.6504 10.5871L36.6722 10.5822C35.953 10.7339 35.3162 10.9558 34.723 11.2478L34.7684 11.2265C34.1781 11.5126 33.5883 11.8274 32.9991 12.171C31.7909 12.9573 30.7357 13.7778 29.7561 14.6733L29.7678 14.6619C28.7653 15.5786 27.8064 16.5383 26.8912 17.541C26.7142 17.7128 26.5372 17.8988 26.3602 18.0989C26.1832 18.299 26.0208 18.4849 25.8729 18.6567V18.6633C25.8729 18.6861 25.8645 18.7057 25.8511 18.7204C25.8359 18.7448 25.8275 18.7742 25.8275 18.8052C25.8275 18.8133 25.8275 18.8199 25.8292 18.828V18.8264H26.3165C28.8302 18.8574 31.2684 19.0287 33.6645 19.3321L33.3519 19.2994C35.9866 19.6306 38.3374 20.1265 40.6108 20.7969L40.2983 20.717C41.5787 21.0644 42.6289 21.4233 43.6522 21.8376L43.464 21.7691C44.6435 22.2405 45.6416 22.738 46.5893 23.3041L46.4952 23.2519C47.0396 23.5961 47.5084 23.9354 47.9554 24.3008L47.9336 24.2828C48.3973 24.6613 48.809 25.0707 49.182 25.5128L49.1955 25.5291C49.8575 26.2941 50.2591 27.2891 50.2591 28.3755C50.2591 28.4245 50.2591 28.4734 50.2574 28.5207V28.5142C50.1633 29.6332 49.6374 30.6185 48.8443 31.3248L48.8409 31.328C48.2763 31.8761 47.6362 32.3508 46.9371 32.7374L46.8935 32.7603C46.2617 33.111 45.5173 33.447 44.746 33.7276L44.6368 33.7618C44.5629 33.783 44.4755 33.7961 44.3881 33.7961C44.2537 33.7961 44.126 33.7683 44.0117 33.7161L44.0168 33.7178C43.8068 33.6264 43.6488 33.4584 43.5765 33.2512L43.5749 33.2464C43.5329 33.155 43.5077 33.0473 43.5077 32.9348C43.5077 32.8222 43.5329 32.7146 43.5765 32.6183L43.5749 32.6232C43.669 32.403 43.8404 32.2301 44.0554 32.1322L44.0605 32.1306C44.4145 31.9588 44.7757 31.794 45.1443 31.6363C45.5459 31.4634 45.8853 31.284 46.2079 31.0817L46.1777 31.0997C46.4885 30.9186 46.7557 30.7343 47.0077 30.532L46.996 30.5402C47.2469 30.3401 47.4928 30.1253 47.7336 29.8958C48.152 29.5043 48.4293 28.9726 48.4847 28.3804V28.3706C48.4847 28.3674 48.4847 28.3625 48.4847 28.3576C48.4847 27.7638 48.2696 27.2174 47.91 26.79L47.9134 26.7949C47.6126 26.3871 47.2732 26.0347 46.8901 25.7281L46.88 25.7199C46.5104 25.4247 46.0987 25.1408 45.6668 24.8864L45.6198 24.8603C44.662 24.2551 43.5614 23.7054 42.402 23.2682L42.2777 23.2274C41.3737 22.8751 40.1874 22.4934 38.9759 22.1704L38.7154 22.1117C37.4463 21.7963 36.1709 21.5244 34.8894 21.2961C33.8022 21.0889 32.4748 20.9209 31.1272 20.8295L31.018 20.823C29.9852 20.7654 28.9451 20.7175 27.8977 20.6795C26.8503 20.6414 25.8102 20.6055 24.7774 20.5718C24.7723 20.5718 24.7656 20.5718 24.7605 20.5718C24.6244 20.5718 24.4934 20.5963 24.3707 20.6387L24.3791 20.6354C24.2615 20.6778 24.1674 20.7626 24.1153 20.8687L24.1136 20.8719L22.23 23.6091C21.6105 24.5259 21.0056 25.4426 20.4153 26.3594C20.3548 26.4213 20.3145 26.5029 20.3044 26.5942V26.5959C20.2994 26.6236 20.296 26.6579 20.296 26.6905C20.296 26.7557 20.3061 26.8194 20.3262 26.8797L20.3246 26.8748C20.8555 28.0493 21.4089 29.2091 21.9847 30.3542C22.5605 31.4993 23.1872 32.6232 23.865 33.7259C24.5427 34.8286 25.2579 35.9025 26.0107 36.9476C26.7635 37.9927 27.5672 39.0018 28.4219 39.9751C29.1747 40.8217 29.9342 41.5917 30.7307 42.3241L30.7458 42.3371C31.5271 43.0565 32.3874 43.7074 33.3099 44.2734L33.3788 44.3125C33.7787 44.5752 34.2374 44.8198 34.718 45.0221L34.7735 45.0433C35.2221 45.2342 35.743 45.3565 36.2891 45.3859H36.3009C36.363 45.3908 36.4336 45.394 36.5075 45.394C36.9108 45.394 37.2889 45.2945 37.6199 45.1216L37.6081 45.1281C37.9912 44.9112 38.3004 44.6045 38.5088 44.2375L38.5155 44.2261C38.7356 43.8868 38.9104 43.492 39.0179 43.0728L39.0246 43.0451C39.117 42.6911 39.2027 42.2458 39.2615 41.7939L39.2683 41.7352C39.3069 41.3192 39.3271 40.8364 39.3271 40.3487C39.3271 39.3748 39.2414 38.4189 39.0767 37.4908L39.0918 37.5903C38.8555 36.2299 38.5603 34.877 38.2063 33.5318C37.793 32.1572 37.3208 30.8115 36.7898 29.4946C36.2588 28.1776 35.6836 26.8737 35.0642 25.5829C35.0053 25.4899 34.9549 25.3839 34.9196 25.2697L34.9163 25.2599C34.8911 25.2028 34.8776 25.1359 34.8776 25.0658C34.8776 25.0201 34.8844 24.9761 34.8961 24.9337V24.9369C34.8961 24.9337 34.8961 24.9304 34.8961 24.9271C34.8961 24.7281 34.9801 24.5487 35.1179 24.4215C35.2557 24.2844 35.4389 24.1915 35.6439 24.1637H35.6489C35.6892 24.1572 35.7346 24.1539 35.7816 24.1539C35.9278 24.1539 36.0639 24.1898 36.1849 24.2518L36.1799 24.2502C36.3613 24.3432 36.5008 24.4916 36.5764 24.6743L36.5781 24.6792C36.7842 25.137 37.0055 25.6025 37.2418 26.0755C37.4782 26.5486 37.6994 27.026 37.9055 27.5077C38.525 28.9682 39.0857 30.457 39.5875 31.974C40.0328 33.2594 40.4327 34.8205 40.7116 36.424L40.7385 36.6132C40.8982 37.5511 41.0242 38.6963 41.088 39.8593L41.0914 39.9441C41.1015 40.1219 41.1065 40.3324 41.1065 40.5428C41.1065 41.5117 40.9872 42.4546 40.7637 43.3566L40.7805 43.2751C40.7212 43.5045 40.6472 43.7432 40.5587 43.9912C40.4562 44.2783 40.3504 44.5148 40.2328 44.7432L40.2496 44.7073C39.858 45.5963 39.1775 46.3059 38.3256 46.7365L38.3021 46.7479C37.7661 47.004 37.136 47.1557 36.4706 47.1557C36.0992 47.1557 35.7396 47.1084 35.3969 47.022L35.4254 47.0285C34.5349 46.8491 33.7451 46.544 33.031 46.1297L33.0663 46.1493C32.2614 45.6828 31.5758 45.2228 30.9222 44.722L30.9642 44.753C29.7074 43.7905 28.5933 42.7629 27.5818 41.6439L27.5566 41.6161C26.5237 40.471 25.5503 39.2829 24.6362 38.0519C23.7221 36.8204 22.7795 35.393 21.9158 33.9151L21.7881 33.6786C20.9177 32.1746 20.114 30.6212 19.3769 29.0182L19.2878 28.847L19.1366 28.599ZM18.2527 21.0367L19.3584 24.5601C19.8009 23.8728 20.2361 23.2138 20.664 22.5831C21.0919 21.9523 21.5417 21.308 22.0133 20.6501L18.2527 21.0367ZM28.2959 30.059C28.2875 30.059 28.2774 30.059 28.2657 30.059C27.5599 30.059 26.9197 29.78 26.4593 29.3282C26.0073 28.9204 25.725 28.3396 25.725 27.6953C25.725 27.6496 25.7267 27.6056 25.7284 27.5599V27.5665C25.7284 27.555 25.7284 27.542 25.7284 27.5289C25.7284 26.852 26.0174 26.2419 26.4812 25.8047C26.9315 25.3545 27.5599 25.074 28.2573 25.074H28.2976H28.2959H28.3261C29.0319 25.074 29.6721 25.3529 30.1325 25.8047C30.6097 26.237 30.9071 26.852 30.9071 27.5355V27.5681V27.5665V27.5974C30.9071 28.2793 30.6097 28.8943 30.1342 29.3265L30.1325 29.3282C29.6704 29.78 29.0319 30.059 28.3261 30.059C28.3177 30.059 28.3093 30.059 28.3009 30.059H28.3026H28.2959Z" fill="#182F43"/>
</svg>
