<svg width="66" height="60" viewBox="0 0 66 60" fill="none" xmlns="http://www.w3.org/2000/svg">
<path d="M21.1052 30.9732C20.9096 31.3546 20.734 31.7076 20.5784 32.0324C20.4228 32.3572 20.2664 32.6915 20.1093 33.0351C19.3284 34.6779 18.626 36.3483 18.0021 38.0462C17.4442 39.4991 16.9396 41.2565 16.575 43.066L16.5372 43.2857C16.3816 44.2789 16.2742 45.2722 16.2149 46.2654C16.206 46.4198 16.2016 46.6025 16.2016 46.7852C16.2016 47.6791 16.3239 48.5469 16.555 49.3691L16.5395 49.2995C16.6839 50.0564 17.0596 50.711 17.5909 51.2069L17.5931 51.2091C18.111 51.6441 18.7845 51.9138 19.5225 51.9246H19.5247C19.6381 51.9377 19.767 51.9442 19.9004 51.9442C20.1627 51.9442 20.4161 51.9159 20.6606 51.8637L20.6384 51.8681L21.692 51.6397C22.6856 51.357 23.5481 50.9851 24.3505 50.5218L24.2972 50.5501C25.0974 50.0919 25.888 49.5953 26.6689 49.0602C26.8379 48.958 27.0312 48.871 27.2357 48.8079L27.2535 48.8036C27.3358 48.7797 27.4313 48.7666 27.5292 48.7666C27.6603 48.7666 27.787 48.7905 27.9026 48.834L27.8959 48.8318C28.2916 48.9623 28.5894 49.2842 28.6761 49.6844L28.6784 49.691C28.7006 49.7649 28.7117 49.8519 28.7117 49.9411C28.7117 50.263 28.5494 50.5479 28.3005 50.7197L28.2983 50.7219C27.1602 51.5679 25.8776 52.3662 24.5261 53.0578L24.375 53.1274C23.0635 53.7929 21.5164 54.1931 19.8737 54.2149H19.867C19.7737 54.2214 19.667 54.2236 19.5581 54.2236C18.4 54.2236 17.3308 53.8625 16.4572 53.2492L16.4728 53.2601C15.5192 52.5554 14.8034 51.5854 14.4344 50.4652L14.4233 50.4261C14.0966 49.58 13.8854 48.6013 13.8387 47.5834V47.5638C13.8298 47.3507 13.8232 47.1006 13.8232 46.8483C13.8232 46.0914 13.8721 45.3454 13.9632 44.6124L13.9543 44.6994C14.33 41.6501 15.0613 38.8749 16.1149 36.2584L16.0327 36.4889C17.2619 33.3961 18.4733 30.8645 19.8248 28.4177L19.6337 28.7961C19.7359 28.6134 19.8004 28.3981 19.8093 28.1675V28.1654C19.8048 27.9392 19.7626 27.7217 19.687 27.5216L19.6914 27.5346C19.3402 26.5805 19.0083 25.6257 18.6956 24.6702L17.7598 21.8058C17.7509 21.6513 17.6776 21.5165 17.5664 21.4251C17.4908 21.3904 17.4019 21.3708 17.3086 21.3708C17.2441 21.3708 17.1819 21.3795 17.1241 21.3969L17.1285 21.3947C15.8022 21.7006 14.4945 22.0537 13.2052 22.4539C11.7893 22.8998 10.5689 23.4326 9.42195 24.0786L9.51531 24.0308C9.01517 24.3178 8.58394 24.6115 8.17939 24.9334L8.19939 24.9181C7.76372 25.2661 7.3725 25.612 6.99906 25.9773C6.47447 26.4798 6.12993 27.1562 6.06325 27.9131V27.9239V28.0066C6.06325 28.7569 6.32777 29.4486 6.77233 29.9923L6.76789 29.9858C7.18578 30.6231 7.69036 31.1625 8.27497 31.6083L8.29053 31.6192C8.87587 32.0585 9.48049 32.4689 10.1044 32.8502C10.3385 32.9648 10.5534 33.0793 10.749 33.1939L11.3336 33.5375C11.6137 33.6985 11.8271 33.9486 11.936 34.2444L11.9382 34.2531C11.9738 34.3488 11.9938 34.4619 11.9938 34.5771C11.9938 34.7642 11.9404 34.9382 11.8471 35.0883L11.8493 35.0839C11.7159 35.3667 11.4625 35.5776 11.1535 35.6559L11.1469 35.6581C11.0513 35.682 10.9446 35.6951 10.8312 35.6951C10.6045 35.6951 10.3889 35.6385 10.2022 35.5407L10.2088 35.545C9.22857 35.0796 8.39056 34.588 7.60367 34.0312L7.6548 34.066C6.82124 33.481 6.09215 32.8394 5.44086 32.1303L5.42974 32.1173C5.03852 31.6714 4.68954 31.1712 4.39835 30.6339L4.37612 30.5904C4.11382 30.1011 3.91155 29.5356 3.79596 28.9375L3.78929 28.9005C3.74928 28.6678 3.72705 28.4003 3.72705 28.1284C3.72705 27.6325 3.80263 27.1518 3.94267 26.7016L3.93377 26.7364C4.17384 25.9904 4.52283 25.3444 4.96961 24.7746L4.9585 24.7898C5.43641 24.17 5.97656 23.6327 6.57895 23.1716L6.59895 23.1564C7.17911 22.7084 7.8304 22.2995 8.5217 21.9558L8.58839 21.9254C9.66646 21.3469 10.9335 20.8053 12.2516 20.3681L12.4228 20.3181C13.7239 19.8976 15.0605 19.5351 16.4328 19.2306C16.5195 19.2002 16.6262 19.1719 16.7373 19.148L16.7551 19.1458C16.884 19.1197 16.9907 19.0892 17.0952 19.0544L17.0752 19.061C16.9966 18.7173 16.9314 18.3737 16.8796 18.03C16.8277 17.6864 16.7788 17.3427 16.7329 16.9991C16.5195 15.7615 16.3616 14.2826 16.2972 12.7797L16.295 12.7036C16.2883 12.5426 16.2838 12.3512 16.2838 12.162C16.2838 10.8461 16.4683 9.57378 16.8173 8.36668L16.7929 8.46455C16.9196 7.84469 17.1018 7.29877 17.3397 6.78331L17.3197 6.83115C17.5775 6.27219 17.8909 5.79152 18.2644 5.36088L18.2577 5.36958C18.9335 4.57137 19.8382 3.97978 20.874 3.69486L20.9118 3.68616C21.3741 3.57306 21.9032 3.50781 22.4478 3.50781C23.0346 3.50781 23.6059 3.58394 24.146 3.72531L24.0993 3.71443C25.2819 3.995 26.3244 4.43 27.2691 4.99984L27.2224 4.97374C28.2916 5.61753 29.1985 6.24174 30.0654 6.91163L30.0032 6.86595C30.2255 7.06823 30.3699 7.35097 30.3922 7.66416V7.66852C30.3944 7.69026 30.3944 7.71419 30.3944 7.73811C30.3944 8.02738 30.2699 8.2862 30.0699 8.47108C29.892 8.6864 29.6364 8.8343 29.343 8.87127H29.3363C29.2963 8.87562 29.2474 8.87997 29.2007 8.87997C28.9318 8.87997 28.6828 8.7908 28.485 8.64072L28.4872 8.6429C28.0189 8.33695 27.5699 8.03173 27.1402 7.72724C26.7623 7.45319 26.3222 7.17045 25.8687 6.90728L25.7953 6.86813C25.333 6.58538 24.8017 6.33309 24.2416 6.13952L24.1838 6.12212C23.6503 5.93942 23.0346 5.83502 22.3922 5.83502C22.3744 5.83502 22.3544 5.83502 22.3366 5.83502H22.3388C22.3299 5.83502 22.3188 5.83502 22.3077 5.83502C21.8209 5.83502 21.3608 5.95247 20.9562 6.15692L20.9718 6.15039C20.5472 6.37659 20.2005 6.69631 19.9537 7.08345L19.9471 7.09432C19.5781 7.55542 19.2958 8.10133 19.1357 8.6951L19.1291 8.72555C18.9913 9.22144 18.8668 9.83478 18.7845 10.459L18.7779 10.5308C18.6978 11.1593 18.6534 11.8858 18.6534 12.6231C18.6534 13.269 18.6889 13.9041 18.7556 14.5327L18.749 14.4544C18.9046 15.9508 19.1224 17.2688 19.4091 18.5629L19.3647 18.3215V18.3411C19.3647 18.4368 19.4114 18.5216 19.4825 18.5781C19.5581 18.6325 19.6537 18.6651 19.7581 18.6651H19.7759C20.8681 18.5506 21.9417 18.4455 22.9968 18.3498C24.0519 18.2541 25.1055 18.1678 26.1577 18.0909C26.3755 18.0583 26.5733 17.9996 26.7556 17.9148L26.7423 17.9191C26.929 17.8169 27.0846 17.682 27.2068 17.5211L27.2091 17.5167C28.645 15.718 30.0632 14.1216 31.5592 12.6013L31.5414 12.6209C33.0507 11.0897 34.6756 9.68906 36.4116 8.4254L36.5161 8.35145C37.3919 7.69244 38.3855 7.03125 39.4169 6.42444L39.5614 6.34614C40.5372 5.77195 41.6642 5.28258 42.8534 4.93894L42.9578 4.91284C43.6225 4.69752 44.3916 4.55397 45.1896 4.51265H45.2118C45.2918 4.5083 45.3874 4.50612 45.4808 4.50612C46.2143 4.50612 46.9167 4.63444 47.5658 4.86934L47.5235 4.85629C48.4216 5.13251 49.1773 5.64145 49.7419 6.30916L49.7486 6.31786C50.291 6.98993 50.7133 7.78379 50.9667 8.64725L50.9778 8.6951C51.2757 9.56726 51.4469 10.5721 51.4469 11.6139V11.6161V11.64C51.4469 12.6601 51.3824 13.6671 51.2601 14.6545L51.2712 14.537C51.2327 14.8038 51.1934 15.0583 51.1534 15.3005C51.1045 15.6006 51.0423 15.8572 50.9667 16.1095L50.9778 16.0639C50.9467 16.364 50.78 16.6185 50.5422 16.7773L50.5377 16.7794C50.351 16.9078 50.1176 16.9839 49.8664 16.9839C49.8042 16.9839 49.7419 16.9795 49.6819 16.9708H49.6886C49.3796 16.9382 49.1129 16.7903 48.9284 16.5728L48.9262 16.5706C48.7728 16.3836 48.6772 16.1443 48.6772 15.8833C48.6772 15.8224 48.6816 15.7637 48.6928 15.705V15.7115C48.7313 15.2533 48.7898 14.7857 48.8684 14.3087C48.9417 13.8867 48.984 13.4017 48.9862 12.9058C49.004 12.6535 49.0151 12.3577 49.0151 12.0619C49.0151 11.7661 49.004 11.4703 48.9839 11.1767L48.9862 11.2159C48.9395 10.583 48.8572 10.0044 48.7372 9.44111L48.7528 9.52811C48.615 8.5472 48.0459 7.71854 47.2435 7.21612L47.2301 7.20742C46.71 6.94208 46.092 6.78548 45.4385 6.78548C45.034 6.78548 44.6428 6.84638 44.2738 6.9573L44.3027 6.95078C43.3513 7.15305 42.5088 7.44884 41.7242 7.83816L41.7842 7.80989C41.0032 8.19123 40.223 8.611 39.4435 9.06919C37.8453 10.1175 36.4494 11.2115 35.1535 12.4056L35.169 12.3904C33.8427 13.6127 32.5742 14.8923 31.3635 16.2292C31.1294 16.4583 30.8953 16.7062 30.6611 16.973C30.427 17.2398 30.2121 17.4877 30.0165 17.7168V17.7255C30.0165 17.756 30.0054 17.7821 29.9876 17.8017C29.9676 17.8343 29.9565 17.8734 29.9565 17.9148C29.9565 17.9256 29.9565 17.9343 29.9587 17.9452V17.943H30.6033C33.9287 17.9844 37.154 18.2127 40.3238 18.6173L39.9103 18.5738C43.3957 19.0153 46.5055 19.6765 49.513 20.5704L49.0995 20.4638C50.7933 20.9271 52.1826 21.4056 53.5363 21.958L53.2874 21.8667C54.8478 22.4952 56.1681 23.1586 57.4218 23.9133L57.2973 23.8437C58.0175 24.3026 58.6377 24.755 59.229 25.2422L59.2001 25.2183C59.8136 25.7229 60.3582 26.2688 60.8517 26.8582L60.8694 26.88C61.7452 27.9 62.2765 29.2267 62.2765 30.6753C62.2765 30.7405 62.2765 30.8058 62.2743 30.8688V30.8601C62.1498 32.3522 61.4541 33.6658 60.4049 34.6076L60.4004 34.6119C59.6536 35.3427 58.8067 35.9756 57.882 36.4911L57.8242 36.5216C56.9884 36.9892 56.0037 37.4372 54.9834 37.8113L54.8389 37.857C54.7411 37.8853 54.6255 37.9027 54.5099 37.9027C54.3321 37.9027 54.1632 37.8657 54.012 37.7961L54.0187 37.7983C53.7408 37.6765 53.5319 37.4524 53.4363 37.1762L53.4341 37.1697C53.3785 37.0479 53.3451 36.9044 53.3451 36.7543C53.3451 36.6042 53.3785 36.4607 53.4363 36.3323L53.4341 36.3389C53.5585 36.0452 53.7853 35.8147 54.0698 35.6842L54.0765 35.682C54.5447 35.4529 55.0227 35.2333 55.5102 35.023C56.0414 34.7925 56.4905 34.5532 56.9172 34.2835L56.8772 34.3075C57.2885 34.066 57.6419 33.8203 57.9753 33.5506L57.9598 33.5614C58.2917 33.2946 58.617 33.0083 58.9356 32.7023C59.4891 32.1803 59.8558 31.4713 59.9292 30.6818V30.6687C59.9292 30.6644 59.9292 30.6579 59.9292 30.6513C59.9292 29.8597 59.6447 29.131 59.169 28.5612L59.1734 28.5677C58.7755 28.024 58.3265 27.5542 57.8197 27.1453L57.8064 27.1344C57.3174 26.7408 56.7728 26.3623 56.2015 26.023L56.1393 25.9882C54.8722 25.1813 53.4163 24.4483 51.8825 23.8655L51.718 23.8111C50.5222 23.3413 48.9528 22.8323 47.3502 22.4017L47.0056 22.3234C45.3267 21.9029 43.6395 21.5404 41.9442 21.2359C40.5061 20.9597 38.75 20.7357 36.9673 20.6139L36.8228 20.6052C35.4565 20.5283 34.0806 20.4645 32.695 20.4138C31.3095 20.363 29.9335 20.3152 28.5672 20.2702C28.5605 20.2702 28.5517 20.2702 28.545 20.2702C28.3649 20.2702 28.1916 20.3029 28.0293 20.3594L28.0404 20.3551C27.8848 20.4116 27.7603 20.5247 27.6914 20.6661L27.6892 20.6704L25.1974 24.32C24.3779 25.5424 23.5777 26.7647 22.7967 27.987C22.7167 28.0697 22.6634 28.1784 22.65 28.3002V28.3024C22.6434 28.3394 22.6389 28.385 22.6389 28.4285C22.6389 28.5155 22.6523 28.6003 22.6789 28.6808L22.6767 28.6743C23.3791 30.2403 24.1112 31.7867 24.8729 33.3135C25.6346 34.8403 26.4637 36.3389 27.3602 37.8091C28.2568 39.2794 29.2029 40.7113 30.1988 42.1047C31.1946 43.4981 32.2579 44.8437 33.3885 46.1414C34.3844 47.2702 35.3891 48.2968 36.4427 49.2734L36.4627 49.2908C37.4963 50.2499 38.6344 51.1177 39.8548 51.8724L39.9459 51.9246C40.4749 52.2748 41.0818 52.6011 41.7175 52.8708L41.7909 52.899C42.3844 53.1535 43.0734 53.3166 43.7959 53.3558H43.8114C43.8937 53.3623 43.987 53.3666 44.0848 53.3666C44.6183 53.3666 45.1184 53.234 45.5563 53.0034L45.5408 53.0121C46.0476 52.7229 46.4566 52.314 46.7322 51.8246L46.7411 51.8094C47.0323 51.357 47.2635 50.8306 47.4057 50.2717L47.4146 50.2347C47.5369 49.7627 47.6502 49.169 47.728 48.5665L47.7369 48.4882C47.7881 47.9336 47.8147 47.2898 47.8147 46.6395C47.8147 45.341 47.7014 44.0665 47.4835 42.829L47.5035 42.9616C47.1909 41.1477 46.8004 39.3439 46.3321 37.5503C45.7853 35.7176 45.1607 33.9232 44.4583 32.1673C43.7558 30.4114 42.9949 28.6728 42.1754 26.9517C42.0976 26.8278 42.0309 26.6864 41.9842 26.5341L41.9798 26.5211C41.9465 26.445 41.9287 26.3558 41.9287 26.2623C41.9287 26.2014 41.9376 26.1426 41.9531 26.0861V26.0904C41.9531 26.0861 41.9531 26.0817 41.9531 26.0774C41.9531 25.812 42.0643 25.5728 42.2465 25.4032C42.4288 25.2205 42.6711 25.0965 42.9423 25.0595H42.949C43.0023 25.0508 43.0623 25.0465 43.1246 25.0465C43.3179 25.0465 43.498 25.0943 43.658 25.177L43.6514 25.1748C43.8914 25.2988 44.0759 25.4967 44.176 25.7403L44.1782 25.7468C44.4509 26.3572 44.7435 26.9778 45.0562 27.6086C45.3689 28.2393 45.6616 28.8758 45.9342 29.5182C46.7537 31.4655 47.4954 33.4505 48.1593 35.4732C48.7483 37.1871 49.2774 39.2685 49.6464 41.4065L49.6819 41.6588C49.8931 42.9094 50.0598 44.4363 50.1443 45.987L50.1487 46.1001C50.1621 46.3372 50.1687 46.6177 50.1687 46.8983C50.1687 48.1902 50.0109 49.4474 49.7153 50.6501L49.7375 50.5414C49.659 50.8473 49.5612 51.1656 49.4441 51.4962C49.3085 51.879 49.1684 52.1943 49.0129 52.4988L49.0351 52.451C48.5172 53.6363 47.6169 54.5824 46.4899 55.1566L46.4588 55.1719C45.7497 55.5133 44.9162 55.7156 44.0359 55.7156C43.5447 55.7156 43.069 55.6525 42.6155 55.5373L42.6533 55.546C41.4752 55.3067 40.4305 54.9 39.4858 54.3476L39.5325 54.3737C38.4677 53.7516 37.5608 53.1383 36.6961 52.4706L36.7517 52.5119C35.089 51.2287 33.6153 49.8584 32.2771 48.3664L32.2438 48.3294C30.8775 46.8026 29.5897 45.2185 28.3805 43.5771C27.1713 41.935 25.9243 40.0319 24.7817 38.0614L24.6128 37.7461C23.4614 35.7407 22.3981 33.6695 21.423 31.5322L21.3052 31.3038L21.1052 30.9732ZM19.936 20.8901L21.3986 25.588C21.9839 24.6716 22.5596 23.793 23.1257 22.952C23.6918 22.111 24.2868 21.2519 24.9107 20.3746L19.936 20.8901ZM33.2218 32.9198C33.2107 32.9198 33.1974 32.9198 33.1818 32.9198C32.2482 32.9198 31.4013 32.5479 30.7923 31.9454C30.1943 31.4017 29.8209 30.6274 29.8209 29.7683C29.8209 29.7074 29.8231 29.6487 29.8253 29.5878V29.5965C29.8253 29.5813 29.8253 29.5639 29.8253 29.5465C29.8253 28.6438 30.2077 27.8304 30.8212 27.2475C31.4169 26.6472 32.2482 26.2731 33.1707 26.2731H33.2241H33.2218H33.2618C34.1954 26.2731 35.0423 26.6451 35.6514 27.2475C36.2827 27.8239 36.6761 28.6438 36.6761 29.5552V29.5987V29.5965V29.6378C36.6761 30.5469 36.2827 31.3669 35.6536 31.9433L35.6514 31.9454C35.0401 32.5479 34.1954 32.9198 33.2618 32.9198C33.2507 32.9198 33.2396 32.9198 33.2285 32.9198H33.2307H33.2218Z" fill="#FFC121"/>
</svg>
