<svg width="55" height="55" viewBox="0 0 55 55" fill="none" xmlns="http://www.w3.org/2000/svg">
<path fill-rule="evenodd" clip-rule="evenodd" d="M28.1089 9.02747C26.9302 9.21714 25.4505 9.75477 17.1828 12.9976C6.72068 17.1013 6.63122 17.1389 6.21932 17.6123L6.00007 17.8644L6.00036 20.2484C6.00058 22.4869 6.00938 22.6468 6.1446 22.8706C6.53919 23.5238 7.41518 23.9368 16.2295 27.6266C21.4304 29.8037 23.6949 30.7657 24.8246 31.2777C26.3781 31.9819 26.5682 32.0308 27.7423 32.0288C28.6714 32.0273 28.8281 32.0071 29.3922 31.8174C29.735 31.7021 30.725 31.2652 31.5921 30.8465C33.3981 29.9745 34.6108 29.4332 40.1843 27.0108C48.4832 23.404 49.327 22.986 49.831 22.2311C49.9957 21.9846 49.9978 21.9522 49.9978 19.6542C49.9978 17.0466 50.0034 17.0779 49.4689 16.7281C49.1044 16.4896 48.9165 16.4115 45.268 14.9827C43.6145 14.335 40.1868 12.9834 37.6511 11.9791C32.0146 9.74677 31.0772 9.39031 30.3174 9.19072C29.7388 9.03865 28.5744 8.95258 28.1089 9.02747ZM27.3042 11.9793L28.6995 12.5312L30.1223 12.0511C30.9049 11.7871 31.5551 11.581 31.5672 11.5932C31.5793 11.6054 31.4189 12.0239 31.2108 12.5232C30.9171 13.2279 30.854 13.4444 30.9286 13.4909C30.9815 13.5238 31.6333 13.7793 32.377 14.0584C33.9635 14.654 34.0242 14.5915 31.6287 14.8294C30.7415 14.9176 29.9939 15.0109 29.9674 15.0369C29.9409 15.0629 29.764 15.4671 29.5743 15.9351C29.3846 16.4032 29.1969 16.8482 29.1572 16.924C29.0961 17.0404 28.9848 16.893 28.4398 15.9736C28.085 15.3751 27.7664 14.8568 27.7318 14.8219C27.6972 14.787 26.7129 14.6717 25.5444 14.5656C24.3759 14.4596 23.4096 14.3625 23.3971 14.3499C23.3847 14.3373 24.085 14.0675 24.9534 13.7504C25.8218 13.4333 26.5323 13.1413 26.5323 13.1017C26.5323 13.0621 26.3344 12.6668 26.0924 12.2231C25.8504 11.7795 25.6524 11.3973 25.6524 11.3739C25.6524 11.3232 25.5582 11.2887 27.3042 11.9793ZM41.2658 16.3455C42.8554 16.9781 44.1866 17.5149 44.224 17.5382C44.2613 17.5614 42.7913 18.1791 40.9571 18.9108L37.6225 20.2411L34.6623 19.0595C33.0342 18.4096 31.7171 17.8487 31.7354 17.813C31.7791 17.7282 38.0369 15.2124 38.2286 15.2026C38.3094 15.1985 39.6761 15.7128 41.2658 16.3455ZM20.116 15.7883C22.0695 15.9701 23.4575 16.4477 24.1107 17.1628C24.4639 17.5495 24.5424 17.8873 24.3661 18.2622C23.5087 20.0855 17.451 20.6329 14.638 19.1411C13.5237 18.5502 13.2547 17.7902 13.9216 17.1172C14.899 16.1308 17.5908 15.5534 20.116 15.7883ZM31.8286 20.2828C31.7515 20.3947 31.0538 21.4274 30.2781 22.5777C29.5024 23.728 28.8455 24.6558 28.8183 24.6396C28.7911 24.6233 27.2345 23.9701 25.3591 23.1879C23.4837 22.4057 21.9223 21.7404 21.8893 21.7093C21.8563 21.6783 22.3018 21.5793 22.8792 21.4893C23.4567 21.3993 25.6946 21.0484 27.8523 20.7096C30.01 20.3707 31.8189 20.0903 31.8721 20.0864C31.9401 20.0814 31.9273 20.1394 31.8286 20.2828ZM49.5578 25.6301C48.8877 26.3074 47.8954 26.7818 39.7317 30.3273C34.6584 32.5306 32.508 33.4931 31.3354 34.0852C28.5674 35.483 27.365 35.5561 24.9901 34.4714C23.8764 33.9627 21.8166 33.0868 16.1562 30.7147C7.92321 27.2646 6.98078 26.8326 6.35234 26.2213L6.00007 25.8787V28.0579C6.00007 30.5623 5.98987 30.5187 6.68101 30.9799C7.52364 31.5422 8.62827 32.0314 16.5229 35.3389C22.1442 37.6939 23.6837 38.3485 24.9191 38.9092C26.1365 39.4617 26.6586 39.6182 27.449 39.6676C28.5731 39.7379 29.5878 39.4416 31.4647 38.4948C32.5538 37.9455 34.6064 37.0266 39.2917 34.9911C48.3416 31.0596 49.3518 30.5664 49.8204 29.8518L50 29.5779L49.9806 27.4001L49.9611 25.2224L49.5578 25.6301ZM49.5578 32.9559C48.9027 33.6175 47.8889 34.1045 40.4197 37.346C35.0242 39.6876 33.3477 40.4348 31.5921 41.2804C30.725 41.6982 29.7613 42.1254 29.4507 42.2299C27.9961 42.7192 26.8172 42.6247 25.2124 41.8901C24.1098 41.3854 22.2159 40.5781 16.6695 38.2485C7.41951 34.3633 6.96428 34.1554 6.34838 33.5354L6.00007 33.1847V35.3713C6.00007 37.8569 5.98042 37.7649 6.61061 38.2369C7.37448 38.8093 8.15632 39.1563 17.4395 43.0439C21.4914 44.7408 22.8838 45.3338 25.4324 46.448C26.8111 47.0507 27.9023 47.1511 29.1722 46.792C29.4747 46.7065 30.3491 46.3349 31.1154 45.9661C32.9327 45.0916 34.8178 44.25 39.9516 42.0211C48.3397 38.3794 49.3614 37.878 49.8204 37.1781L50 36.9041L49.9806 34.7264L49.9611 32.5486L49.5578 32.9559Z" fill="#182F43"/>
</svg>
