<svg width="55" height="55" viewBox="0 0 55 55" fill="none" xmlns="http://www.w3.org/2000/svg">
<path d="M38.262 28.3964L40.8773 32.8895L43.5308 37.4452L40.9852 42.0622L38.3666 46.6381L33.0954 46.742L27.8232 46.7622L22.6334 37.5907L24.9897 33.0764L27.6083 28.5005L32.8795 28.3966L38.262 28.3964Z" fill="#132636"/>
<path d="M38.06 10.1642L40.7857 14.6772L43.4392 19.233L40.8936 23.85L38.2749 28.4259L33.0038 28.5298L27.7316 28.5499L25.006 24.0369L22.3524 19.4812L24.898 14.8642L27.5167 10.2883L32.7879 10.1844L38.06 10.1642Z" fill="#193349"/>
<path d="M22.5256 19.3776L25.2512 23.8907L27.9047 28.4464L25.3592 33.0634L22.7405 37.6393L17.4693 37.7432L12.1972 37.7634L9.47154 33.2503L6.81802 28.6946L9.3636 24.0776L11.9823 19.5017L17.2534 19.3978L22.5256 19.3776Z" fill="#2F4456"/>
</svg>
