<svg width="665" height="470" viewBox="0 0 665 470" fill="none" xmlns="http://www.w3.org/2000/svg">
<g clip-path="url(#clip0_300_2480)">
<circle cx="389.5" cy="267.5" r="193.5" fill="#E5E6ED"/>
<path d="M175.878 137.854L178.184 144.953H185.649L179.61 149.34L181.917 156.44L175.878 152.052L169.839 156.44L172.145 149.34L166.106 144.953H173.571L175.878 137.854Z" fill="#FFC100"/>
<path d="M28 430H326.399" stroke="#182F43" stroke-miterlimit="10"/>
<g filter="url(#filter0_d_300_2480)">
<path d="M272.324 27.6465H103.263C93.0471 27.6465 84.7656 35.928 84.7656 46.1437V411.273C84.7656 421.489 93.0471 429.771 103.263 429.771H272.324C282.54 429.771 290.821 421.489 290.821 411.273V46.1437C290.821 35.928 282.54 27.6465 272.324 27.6465Z" fill="#182F43"/>
<path d="M194.807 418.191C194.807 416.805 194.396 415.451 193.626 414.298C192.856 413.146 191.762 412.248 190.481 411.718C189.201 411.188 187.792 411.049 186.433 411.319C185.074 411.59 183.826 412.257 182.846 413.237C181.866 414.217 181.198 415.465 180.928 416.824C180.658 418.183 180.796 419.592 181.327 420.872C181.857 422.153 182.755 423.247 183.907 424.017C185.06 424.787 186.414 425.198 187.8 425.198C189.658 425.198 191.44 424.459 192.754 423.145C194.068 421.832 194.807 420.049 194.807 418.191V418.191Z" stroke="#FBFBFF" stroke-linecap="round" stroke-linejoin="round"/>
<path d="M272.324 27.6465H103.263C93.0471 27.6465 84.7656 35.928 84.7656 46.1437V411.273C84.7656 421.489 93.0471 429.771 103.263 429.771H272.324C282.54 429.771 290.821 421.489 290.821 411.273V46.1437C290.821 35.928 282.54 27.6465 272.324 27.6465Z" stroke="#182F43" stroke-linecap="round" stroke-linejoin="round"/>
<path d="M281.675 54.9463H93.938V405.897H281.675V54.9463Z" fill="#FBFBFF" stroke="#182F43" stroke-linecap="round" stroke-linejoin="round"/>
<path d="M275.28 58.5908H259.712V67.1261H275.28V58.5908Z" stroke="#182F43" stroke-width="0.821067" stroke-linecap="round" stroke-linejoin="round"/>
<path d="M271.853 58.5908H259.712V67.1261H271.853V58.5908Z" fill="#182F43" stroke="#182F43" stroke-width="0.725073" stroke-linecap="round" stroke-linejoin="round"/>
<path d="M277.433 60.9844H275.242V64.7424H277.433V60.9844Z" fill="#182F43" stroke="#182F43" stroke-width="0.725073" stroke-linecap="round" stroke-linejoin="round"/>
<path d="M101.008 61.2383H98.1543V66.1301H101.008V61.2383Z" fill="#182F43" stroke="#182F43" stroke-width="0.883086" stroke-linecap="round" stroke-linejoin="round"/>
<path d="M105.492 59.5195H102.639V66.1312H105.492V59.5195Z" fill="#182F43" stroke="#182F43" stroke-width="0.883086" stroke-linecap="round" stroke-linejoin="round"/>
<path d="M109.989 57.4951H107.136V66.1323H109.989V57.4951Z" fill="#182F43" stroke="#182F43" stroke-width="0.883086" stroke-linecap="round" stroke-linejoin="round"/>
<path d="M277 72H97V97H277V72Z" fill="#182F43"/>
<path d="M234 79H104V90H234V79Z" fill="#FBFBFF"/>
<path d="M270 78H249V80H270V78Z" fill="#FBFBFF"/>
<path d="M270 83H249V85H270V83Z" fill="#FBFBFF"/>
<path d="M270 88H249V90H270V88Z" fill="#FBFBFF"/>
</g>
<path d="M141.463 114.625H103.94V151.255H141.463V114.625Z" fill="#AA4337" stroke="#182F43" stroke-miterlimit="10"/>
<path d="M217.977 115.625H154.291C152.634 115.625 151.291 116.968 151.291 118.625C151.291 120.282 152.634 121.625 154.291 121.625H217.977C219.633 121.625 220.977 120.282 220.977 118.625C220.977 116.968 219.633 115.625 217.977 115.625Z" fill="#182F43" stroke="#182F43" stroke-miterlimit="10"/>
<path d="M219.636 128.026H152.631C151.891 128.026 151.291 128.626 151.291 129.366C151.291 130.107 151.891 130.707 152.631 130.707H219.636C220.377 130.707 220.977 130.107 220.977 129.366C220.977 128.626 220.377 128.026 219.636 128.026Z" fill="#BDBDBD"/>
<path d="M158.248 139.332C158.308 139.148 158.568 139.148 158.628 139.332L159.797 142.93C159.824 143.013 159.901 143.068 159.987 143.068L163.77 143.068C163.964 143.068 164.045 143.316 163.888 143.43L160.827 145.654C160.757 145.705 160.728 145.795 160.755 145.877L161.924 149.475C161.984 149.659 161.773 149.813 161.616 149.699L158.556 147.475C158.485 147.424 158.39 147.424 158.32 147.475L155.26 149.699C155.103 149.813 154.892 149.659 154.952 149.475L156.121 145.877C156.148 145.795 156.119 145.705 156.049 145.654L152.988 143.43C152.831 143.316 152.912 143.068 153.106 143.068L156.889 143.068C156.975 143.068 157.052 143.013 157.079 142.93L158.248 139.332Z" fill="#FFC100"/>
<path d="M171.649 139.332C171.709 139.148 171.97 139.148 172.03 139.332L173.199 142.93C173.225 143.013 173.302 143.068 173.389 143.068L177.172 143.068C177.365 143.068 177.446 143.316 177.289 143.43L174.229 145.654C174.159 145.705 174.129 145.795 174.156 145.877L175.325 149.475C175.385 149.659 175.174 149.813 175.017 149.699L171.957 147.475C171.887 147.424 171.792 147.424 171.722 147.475L168.661 149.699C168.505 149.813 168.294 149.659 168.354 149.475L169.523 145.877C169.549 145.795 169.52 145.705 169.45 145.654L166.39 143.43C166.233 143.316 166.313 143.068 166.507 143.068L170.29 143.068C170.377 143.068 170.453 143.013 170.48 142.93L171.649 139.332Z" fill="#FFC100"/>
<path d="M185.05 139.332C185.11 139.148 185.371 139.148 185.43 139.332L186.599 142.93C186.626 143.013 186.703 143.068 186.79 143.068L190.572 143.068C190.766 143.068 190.847 143.316 190.69 143.43L187.63 145.654C187.56 145.705 187.53 145.795 187.557 145.877L188.726 149.475C188.786 149.659 188.575 149.813 188.418 149.699L185.358 147.475C185.288 147.424 185.193 147.424 185.123 147.475L182.062 149.699C181.906 149.813 181.695 149.659 181.754 149.475L182.923 145.877C182.95 145.795 182.921 145.705 182.851 145.654L179.79 143.43C179.634 143.316 179.714 143.068 179.908 143.068L183.691 143.068C183.777 143.068 183.854 143.013 183.881 142.93L185.05 139.332Z" fill="#FFC100"/>
<path d="M198.451 139.332C198.511 139.148 198.772 139.148 198.832 139.332L200.001 142.93C200.028 143.013 200.104 143.068 200.191 143.068L203.974 143.068C204.168 143.068 204.248 143.316 204.091 143.43L201.031 145.654C200.961 145.705 200.932 145.795 200.958 145.877L202.127 149.475C202.187 149.659 201.976 149.813 201.82 149.699L198.759 147.475C198.689 147.424 198.594 147.424 198.524 147.475L195.464 149.699C195.307 149.813 195.096 149.659 195.156 149.475L196.325 145.877C196.352 145.795 196.322 145.705 196.252 145.654L193.192 143.43C193.035 143.316 193.116 143.068 193.309 143.068L197.092 143.068C197.179 143.068 197.256 143.013 197.282 142.93L198.451 139.332Z" fill="#FFC100"/>
<path d="M211.852 139.332C211.912 139.148 212.173 139.148 212.233 139.332L213.402 142.93C213.428 143.013 213.505 143.068 213.592 143.068L217.375 143.068C217.568 143.068 217.649 143.316 217.492 143.43L214.432 145.654C214.362 145.705 214.332 145.795 214.359 145.877L215.528 149.475C215.588 149.659 215.377 149.813 215.22 149.699L212.16 147.475C212.09 147.424 211.995 147.424 211.925 147.475L208.864 149.699C208.708 149.813 208.497 149.659 208.557 149.475L209.726 145.877C209.752 145.795 209.723 145.705 209.653 145.654L206.593 143.43C206.436 143.316 206.516 143.068 206.71 143.068L210.493 143.068C210.58 143.068 210.656 143.013 210.683 142.93L211.852 139.332Z" fill="#E0E0E0"/>
<path d="M271.901 114.625H234.378V135.173H271.901V114.625Z" stroke="#AA4337" stroke-miterlimit="10"/>
<path d="M245.548 122.142H242.011V124.394H245.428V125.657H242.011V128.92H240.632V120.879H245.548V122.142Z" fill="#AA4337"/>
<path d="M251.623 128.92L249.848 125.99H248.217V128.92H246.838V120.879H250.196C250.947 120.879 251.583 121.132 252.102 121.637C252.63 122.135 252.894 122.744 252.894 123.463C252.894 123.976 252.738 124.447 252.426 124.876C252.122 125.297 251.723 125.604 251.227 125.795L253.134 128.92H251.623ZM248.217 122.119V124.807H250.196C250.564 124.807 250.875 124.677 251.131 124.417C251.387 124.156 251.515 123.839 251.515 123.463C251.515 123.088 251.387 122.77 251.131 122.51C250.875 122.25 250.564 122.119 250.196 122.119H248.217Z" fill="#AA4337"/>
<path d="M255.571 127.656H259.289V128.92H254.192V120.879H259.229V122.142H255.571V124.233H258.929V125.485H255.571V127.656Z" fill="#AA4337"/>
<path d="M261.93 127.656H265.647V128.92H260.551V120.879H265.587V122.142H261.93V124.233H265.288V125.485H261.93V127.656Z" fill="#AA4337"/>
<path d="M113.768 139.64V125.346H130.742V136.305M113.768 139.64H130.742V136.305M113.768 139.64L119.128 133.922L120.915 135.828L125.382 130.11L130.742 136.305M120.021 129.366C120.021 130.6 119.021 131.6 117.788 131.6C116.554 131.6 115.554 130.6 115.554 129.366C115.554 128.133 116.554 127.133 117.788 127.133C119.021 127.133 120.021 128.133 120.021 129.366Z" stroke="#FBFBFF"/>
<path d="M141.463 165.551H103.94V202.181H141.463V165.551Z" fill="#AA4337" stroke="#182F43" stroke-miterlimit="10"/>
<path d="M217.977 166.551H154.291C152.634 166.551 151.291 167.894 151.291 169.551C151.291 171.208 152.634 172.551 154.291 172.551H217.977C219.633 172.551 220.977 171.208 220.977 169.551C220.977 167.894 219.633 166.551 217.977 166.551Z" fill="#182F43" stroke="#182F43" stroke-miterlimit="10"/>
<path d="M219.636 178.952H152.631C151.891 178.952 151.291 179.552 151.291 180.292C151.291 181.032 151.891 181.632 152.631 181.632H219.636C220.377 181.632 220.977 181.032 220.977 180.292C220.977 179.552 220.377 178.952 219.636 178.952Z" fill="#BDBDBD"/>
<path d="M158.248 190.258C158.308 190.074 158.568 190.074 158.628 190.258L159.797 193.856C159.824 193.938 159.901 193.994 159.987 193.994L163.77 193.994C163.964 193.994 164.045 194.242 163.888 194.356L160.827 196.579C160.757 196.63 160.728 196.721 160.755 196.803L161.924 200.401C161.984 200.585 161.773 200.738 161.616 200.624L158.556 198.401C158.485 198.35 158.39 198.35 158.32 198.401L155.26 200.624C155.103 200.738 154.892 200.585 154.952 200.401L156.121 196.803C156.148 196.721 156.119 196.63 156.049 196.579L152.988 194.356C152.831 194.242 152.912 193.994 153.106 193.994L156.889 193.994C156.975 193.994 157.052 193.938 157.079 193.856L158.248 190.258Z" fill="#FFC100"/>
<path d="M171.649 190.258C171.709 190.074 171.97 190.074 172.03 190.258L173.199 193.856C173.225 193.938 173.302 193.994 173.389 193.994L177.172 193.994C177.365 193.994 177.446 194.242 177.289 194.356L174.229 196.579C174.159 196.63 174.129 196.721 174.156 196.803L175.325 200.401C175.385 200.585 175.174 200.738 175.017 200.624L171.957 198.401C171.887 198.35 171.792 198.35 171.722 198.401L168.661 200.624C168.505 200.738 168.294 200.585 168.354 200.401L169.523 196.803C169.549 196.721 169.52 196.63 169.45 196.579L166.39 194.356C166.233 194.242 166.313 193.994 166.507 193.994L170.29 193.994C170.377 193.994 170.453 193.938 170.48 193.856L171.649 190.258Z" fill="#FFC100"/>
<path d="M185.05 190.258C185.11 190.074 185.371 190.074 185.43 190.258L186.599 193.856C186.626 193.938 186.703 193.994 186.79 193.994L190.572 193.994C190.766 193.994 190.847 194.242 190.69 194.356L187.63 196.579C187.56 196.63 187.53 196.721 187.557 196.803L188.726 200.401C188.786 200.585 188.575 200.738 188.418 200.624L185.358 198.401C185.288 198.35 185.193 198.35 185.123 198.401L182.062 200.624C181.906 200.738 181.695 200.585 181.754 200.401L182.923 196.803C182.95 196.721 182.921 196.63 182.851 196.579L179.79 194.356C179.634 194.242 179.714 193.994 179.908 193.994L183.691 193.994C183.777 193.994 183.854 193.938 183.881 193.856L185.05 190.258Z" fill="#FFC100"/>
<path d="M198.451 190.258C198.511 190.074 198.772 190.074 198.832 190.258L200.001 193.856C200.028 193.938 200.104 193.994 200.191 193.994L203.974 193.994C204.168 193.994 204.248 194.242 204.091 194.356L201.031 196.579C200.961 196.63 200.932 196.721 200.958 196.803L202.127 200.401C202.187 200.585 201.976 200.738 201.82 200.624L198.759 198.401C198.689 198.35 198.594 198.35 198.524 198.401L195.464 200.624C195.307 200.738 195.096 200.585 195.156 200.401L196.325 196.803C196.352 196.721 196.322 196.63 196.252 196.579L193.192 194.356C193.035 194.242 193.116 193.994 193.309 193.994L197.092 193.994C197.179 193.994 197.256 193.938 197.282 193.856L198.451 190.258Z" fill="#FFC100"/>
<path d="M211.852 190.258C211.912 190.074 212.173 190.074 212.233 190.258L213.402 193.856C213.428 193.938 213.505 193.994 213.592 193.994L217.375 193.994C217.568 193.994 217.649 194.242 217.492 194.356L214.432 196.579C214.362 196.63 214.332 196.721 214.359 196.803L215.528 200.401C215.588 200.585 215.377 200.738 215.22 200.624L212.16 198.401C212.09 198.35 211.995 198.35 211.925 198.401L208.864 200.624C208.708 200.738 208.497 200.585 208.557 200.401L209.726 196.803C209.752 196.721 209.723 196.63 209.653 196.579L206.593 194.356C206.436 194.242 206.516 193.994 206.71 193.994L210.493 193.994C210.58 193.994 210.656 193.938 210.683 193.856L211.852 190.258Z" fill="#E0E0E0"/>
<path d="M271.901 165.551H234.378V186.099H271.901V165.551Z" stroke="#AA4337" stroke-miterlimit="10"/>
<path d="M245.548 173.067H242.011V175.319H245.428V176.582H242.011V179.844H240.632V171.804H245.548V173.067Z" fill="#AA4337"/>
<path d="M251.623 179.844L249.848 176.915H248.217V179.844H246.838V171.804H250.196C250.947 171.804 251.583 172.056 252.102 172.562C252.63 173.06 252.894 173.668 252.894 174.388C252.894 174.901 252.738 175.372 252.426 175.801C252.122 176.222 251.723 176.529 251.227 176.72L253.134 179.844H251.623ZM248.217 173.044V175.732H250.196C250.564 175.732 250.875 175.602 251.131 175.342C251.387 175.081 251.515 174.763 251.515 174.388C251.515 174.013 251.387 173.695 251.131 173.435C250.875 173.174 250.564 173.044 250.196 173.044H248.217Z" fill="#AA4337"/>
<path d="M255.571 178.581H259.289V179.844H254.192V171.804H259.229V173.067H255.571V175.158H258.929V176.41H255.571V178.581Z" fill="#AA4337"/>
<path d="M261.93 178.581H265.647V179.844H260.551V171.804H265.587V173.067H261.93V175.158H265.288V176.41H261.93V178.581Z" fill="#AA4337"/>
<path d="M113.768 190.566V176.271H130.742V187.231M113.768 190.566H130.742V187.231M113.768 190.566L119.128 184.848L120.915 186.754L125.382 181.036L130.742 187.231M120.021 180.292C120.021 181.525 119.021 182.525 117.788 182.525C116.554 182.525 115.554 181.525 115.554 180.292C115.554 179.058 116.554 178.058 117.788 178.058C119.021 178.058 120.021 179.058 120.021 180.292Z" stroke="#FBFBFF"/>
<path d="M141.463 216.475H103.94V253.104H141.463V216.475Z" fill="#AA4337" stroke="#182F43" stroke-miterlimit="10"/>
<path d="M217.977 217.475H154.291C152.634 217.475 151.291 218.818 151.291 220.475C151.291 222.131 152.634 223.475 154.291 223.475H217.977C219.633 223.475 220.977 222.131 220.977 220.475C220.977 218.818 219.633 217.475 217.977 217.475Z" fill="#182F43" stroke="#182F43" stroke-miterlimit="10"/>
<path d="M219.636 229.876H152.631C151.891 229.876 151.291 230.476 151.291 231.216C151.291 231.956 151.891 232.556 152.631 232.556H219.636C220.377 232.556 220.977 231.956 220.977 231.216C220.977 230.476 220.377 229.876 219.636 229.876Z" fill="#BDBDBD"/>
<path d="M158.248 241.182C158.308 240.998 158.568 240.998 158.628 241.182L159.797 244.78C159.824 244.862 159.901 244.918 159.987 244.918L163.77 244.918C163.964 244.918 164.045 245.166 163.888 245.28L160.827 247.503C160.757 247.554 160.728 247.645 160.755 247.727L161.924 251.325C161.984 251.509 161.773 251.662 161.616 251.548L158.556 249.325C158.485 249.274 158.39 249.274 158.32 249.325L155.26 251.548C155.103 251.662 154.892 251.509 154.952 251.325L156.121 247.727C156.148 247.645 156.119 247.554 156.049 247.503L152.988 245.28C152.831 245.166 152.912 244.918 153.106 244.918L156.889 244.918C156.975 244.918 157.052 244.862 157.079 244.78L158.248 241.182Z" fill="#FFC100"/>
<path d="M171.649 241.182C171.709 240.998 171.97 240.998 172.03 241.182L173.199 244.78C173.225 244.862 173.302 244.918 173.389 244.918L177.172 244.918C177.365 244.918 177.446 245.166 177.289 245.28L174.229 247.503C174.159 247.554 174.129 247.645 174.156 247.727L175.325 251.325C175.385 251.509 175.174 251.662 175.017 251.548L171.957 249.325C171.887 249.274 171.792 249.274 171.722 249.325L168.661 251.548C168.505 251.662 168.294 251.509 168.354 251.325L169.523 247.727C169.549 247.645 169.52 247.554 169.45 247.503L166.39 245.28C166.233 245.166 166.313 244.918 166.507 244.918L170.29 244.918C170.377 244.918 170.453 244.862 170.48 244.78L171.649 241.182Z" fill="#FFC100"/>
<path d="M185.05 241.182C185.11 240.998 185.371 240.998 185.43 241.182L186.599 244.78C186.626 244.862 186.703 244.918 186.79 244.918L190.572 244.918C190.766 244.918 190.847 245.166 190.69 245.28L187.63 247.503C187.56 247.554 187.53 247.645 187.557 247.727L188.726 251.325C188.786 251.509 188.575 251.662 188.418 251.548L185.358 249.325C185.288 249.274 185.193 249.274 185.123 249.325L182.062 251.548C181.906 251.662 181.695 251.509 181.754 251.325L182.923 247.727C182.95 247.645 182.921 247.554 182.851 247.503L179.79 245.28C179.634 245.166 179.714 244.918 179.908 244.918L183.691 244.918C183.777 244.918 183.854 244.862 183.881 244.78L185.05 241.182Z" fill="#FFC100"/>
<path d="M198.451 241.182C198.511 240.998 198.772 240.998 198.832 241.182L200.001 244.78C200.028 244.862 200.104 244.918 200.191 244.918L203.974 244.918C204.168 244.918 204.248 245.166 204.091 245.28L201.031 247.503C200.961 247.554 200.932 247.645 200.958 247.727L202.127 251.325C202.187 251.509 201.976 251.662 201.82 251.548L198.759 249.325C198.689 249.274 198.594 249.274 198.524 249.325L195.464 251.548C195.307 251.662 195.096 251.509 195.156 251.325L196.325 247.727C196.352 247.645 196.322 247.554 196.252 247.503L193.192 245.28C193.035 245.166 193.116 244.918 193.309 244.918L197.092 244.918C197.179 244.918 197.256 244.862 197.282 244.78L198.451 241.182Z" fill="#FFC100"/>
<path d="M211.852 241.182C211.912 240.998 212.173 240.998 212.233 241.182L213.402 244.78C213.428 244.862 213.505 244.918 213.592 244.918L217.375 244.918C217.568 244.918 217.649 245.166 217.492 245.28L214.432 247.503C214.362 247.554 214.332 247.645 214.359 247.727L215.528 251.325C215.588 251.509 215.377 251.662 215.22 251.548L212.16 249.325C212.09 249.274 211.995 249.274 211.925 249.325L208.864 251.548C208.708 251.662 208.497 251.509 208.557 251.325L209.726 247.727C209.752 247.645 209.723 247.554 209.653 247.503L206.593 245.28C206.436 245.166 206.516 244.918 206.71 244.918L210.493 244.918C210.58 244.918 210.656 244.862 210.683 244.78L211.852 241.182Z" fill="#E0E0E0"/>
<path d="M271.901 216.475H234.378V237.023H271.901V216.475Z" stroke="#AA4337" stroke-miterlimit="10"/>
<path d="M245.548 223.992H242.011V226.243H245.428V227.507H242.011V230.769H240.632V222.729H245.548V223.992Z" fill="#AA4337"/>
<path d="M251.623 230.769L249.848 227.84H248.217V230.769H246.838V222.729H250.196C250.947 222.729 251.583 222.981 252.102 223.487C252.63 223.984 252.894 224.593 252.894 225.313C252.894 225.826 252.738 226.297 252.426 226.726C252.122 227.147 251.723 227.453 251.227 227.645L253.134 230.769H251.623ZM248.217 223.969V226.657H250.196C250.564 226.657 250.875 226.527 251.131 226.266C251.387 226.006 251.515 225.688 251.515 225.313C251.515 224.938 251.387 224.62 251.131 224.36C250.875 224.099 250.564 223.969 250.196 223.969H248.217Z" fill="#AA4337"/>
<path d="M255.571 229.506H259.289V230.769H254.192V222.729H259.229V223.992H255.571V226.083H258.929V227.335H255.571V229.506Z" fill="#AA4337"/>
<path d="M261.93 229.506H265.647V230.769H260.551V222.729H265.587V223.992H261.93V226.083H265.288V227.335H261.93V229.506Z" fill="#AA4337"/>
<path d="M113.768 241.491V227.196H130.742V238.155M113.768 241.491H130.742V238.155M113.768 241.491L119.128 235.773L120.915 237.679L125.382 231.961L130.742 238.155M120.021 231.217C120.021 232.45 119.021 233.45 117.788 233.45C116.554 233.45 115.554 232.45 115.554 231.217C115.554 229.983 116.554 228.983 117.788 228.983C119.021 228.983 120.021 229.983 120.021 231.217Z" stroke="#FBFBFF"/>
<path d="M141.463 267.398H103.94V304.028H141.463V267.398Z" fill="#AA4337" stroke="#182F43" stroke-miterlimit="10"/>
<path d="M217.977 268.398H154.291C152.634 268.398 151.291 269.742 151.291 271.398C151.291 273.055 152.634 274.398 154.291 274.398H217.977C219.633 274.398 220.977 273.055 220.977 271.398C220.977 269.742 219.633 268.398 217.977 268.398Z" fill="#182F43" stroke="#182F43" stroke-miterlimit="10"/>
<path d="M219.636 280.8H152.631C151.891 280.8 151.291 281.4 151.291 282.14C151.291 282.88 151.891 283.48 152.631 283.48H219.636C220.377 283.48 220.977 282.88 220.977 282.14C220.977 281.4 220.377 280.8 219.636 280.8Z" fill="#BDBDBD"/>
<path d="M158.248 292.106C158.308 291.922 158.568 291.922 158.628 292.106L159.797 295.704C159.824 295.786 159.901 295.842 159.987 295.842L163.77 295.842C163.964 295.842 164.045 296.09 163.888 296.204L160.827 298.427C160.757 298.478 160.728 298.568 160.755 298.651L161.924 302.248C161.984 302.433 161.773 302.586 161.616 302.472L158.556 300.249C158.485 300.198 158.39 300.198 158.32 300.249L155.26 302.472C155.103 302.586 154.892 302.433 154.952 302.248L156.121 298.651C156.148 298.568 156.119 298.478 156.049 298.427L152.988 296.204C152.831 296.09 152.912 295.842 153.106 295.842L156.889 295.842C156.975 295.842 157.052 295.786 157.079 295.704L158.248 292.106Z" fill="#FFC100"/>
<path d="M171.649 292.106C171.709 291.922 171.97 291.922 172.03 292.106L173.199 295.704C173.225 295.786 173.302 295.842 173.389 295.842L177.172 295.842C177.365 295.842 177.446 296.09 177.289 296.204L174.229 298.427C174.159 298.478 174.129 298.568 174.156 298.651L175.325 302.248C175.385 302.433 175.174 302.586 175.017 302.472L171.957 300.249C171.887 300.198 171.792 300.198 171.722 300.249L168.661 302.472C168.505 302.586 168.294 302.433 168.354 302.248L169.523 298.651C169.549 298.568 169.52 298.478 169.45 298.427L166.39 296.204C166.233 296.09 166.313 295.842 166.507 295.842L170.29 295.842C170.377 295.842 170.453 295.786 170.48 295.704L171.649 292.106Z" fill="#FFC100"/>
<path d="M185.05 292.106C185.11 291.922 185.371 291.922 185.43 292.106L186.599 295.704C186.626 295.786 186.703 295.842 186.79 295.842L190.572 295.842C190.766 295.842 190.847 296.09 190.69 296.204L187.63 298.427C187.56 298.478 187.53 298.568 187.557 298.651L188.726 302.248C188.786 302.433 188.575 302.586 188.418 302.472L185.358 300.249C185.288 300.198 185.193 300.198 185.123 300.249L182.062 302.472C181.906 302.586 181.695 302.433 181.754 302.248L182.923 298.651C182.95 298.568 182.921 298.478 182.851 298.427L179.79 296.204C179.634 296.09 179.714 295.842 179.908 295.842L183.691 295.842C183.777 295.842 183.854 295.786 183.881 295.704L185.05 292.106Z" fill="#FFC100"/>
<path d="M198.451 292.106C198.511 291.922 198.772 291.922 198.832 292.106L200.001 295.704C200.028 295.786 200.104 295.842 200.191 295.842L203.974 295.842C204.168 295.842 204.248 296.09 204.091 296.204L201.031 298.427C200.961 298.478 200.932 298.568 200.958 298.651L202.127 302.248C202.187 302.433 201.976 302.586 201.82 302.472L198.759 300.249C198.689 300.198 198.594 300.198 198.524 300.249L195.464 302.472C195.307 302.586 195.096 302.433 195.156 302.248L196.325 298.651C196.352 298.568 196.322 298.478 196.252 298.427L193.192 296.204C193.035 296.09 193.116 295.842 193.309 295.842L197.092 295.842C197.179 295.842 197.256 295.786 197.282 295.704L198.451 292.106Z" fill="#E0E0E0"/>
<path d="M211.852 292.106C211.912 291.922 212.173 291.922 212.233 292.106L213.402 295.704C213.428 295.786 213.505 295.842 213.592 295.842L217.375 295.842C217.568 295.842 217.649 296.09 217.492 296.204L214.432 298.427C214.362 298.478 214.332 298.568 214.359 298.651L215.528 302.248C215.588 302.433 215.377 302.586 215.22 302.472L212.16 300.249C212.09 300.198 211.995 300.198 211.925 300.249L208.864 302.472C208.708 302.586 208.497 302.433 208.557 302.248L209.726 298.651C209.752 298.568 209.723 298.478 209.653 298.427L206.593 296.204C206.436 296.09 206.516 295.842 206.71 295.842L210.493 295.842C210.58 295.842 210.656 295.786 210.683 295.704L211.852 292.106Z" fill="#E0E0E0"/>
<path d="M271.901 267.398H234.378V287.947H271.901V267.398Z" stroke="#AA4337" stroke-miterlimit="10"/>
<path d="M245.548 274.916H242.011V277.167H245.428V278.431H242.011V281.693H240.632V273.652H245.548V274.916Z" fill="#AA4337"/>
<path d="M251.623 281.693L249.848 278.764H248.217V281.693H246.838V273.652H250.196C250.947 273.652 251.583 273.905 252.102 274.41C252.63 274.908 252.894 275.517 252.894 276.237C252.894 276.75 252.738 277.221 252.426 277.65C252.122 278.071 251.723 278.377 251.227 278.569L253.134 281.693H251.623ZM248.217 274.893V277.581H250.196C250.564 277.581 250.875 277.451 251.131 277.19C251.387 276.93 251.515 276.612 251.515 276.237C251.515 275.862 251.387 275.544 251.131 275.283C250.875 275.023 250.564 274.893 250.196 274.893H248.217Z" fill="#AA4337"/>
<path d="M255.571 280.43H259.289V281.693H254.192V273.652H259.229V274.916H255.571V277.006H258.929V278.259H255.571V280.43Z" fill="#AA4337"/>
<path d="M261.93 280.43H265.647V281.693H260.551V273.652H265.587V274.916H261.93V277.006H265.288V278.259H261.93V280.43Z" fill="#AA4337"/>
<path d="M113.768 292.415V278.12H130.742V289.079M113.768 292.415H130.742V289.079M113.768 292.415L119.128 286.697L120.915 288.603L125.382 282.885L130.742 289.079M120.021 282.14C120.021 283.374 119.021 284.374 117.788 284.374C116.554 284.374 115.554 283.374 115.554 282.14C115.554 280.907 116.554 279.907 117.788 279.907C119.021 279.907 120.021 280.907 120.021 282.14Z" stroke="#FBFBFF"/>
<path d="M141.463 318.323H103.94V354.953H141.463V318.323Z" fill="#AA4337" stroke="#182F43" stroke-miterlimit="10"/>
<path d="M217.977 319.323H154.291C152.634 319.323 151.291 320.666 151.291 322.323C151.291 323.98 152.634 325.323 154.291 325.323H217.977C219.633 325.323 220.977 323.98 220.977 322.323C220.977 320.666 219.633 319.323 217.977 319.323Z" fill="#182F43" stroke="#182F43" stroke-miterlimit="10"/>
<path d="M219.636 331.725H152.631C151.891 331.725 151.291 332.325 151.291 333.065C151.291 333.805 151.891 334.405 152.631 334.405H219.636C220.377 334.405 220.977 333.805 220.977 333.065C220.977 332.325 220.377 331.725 219.636 331.725Z" fill="#BDBDBD"/>
<path d="M158.248 343.031C158.308 342.846 158.568 342.846 158.628 343.031L159.797 346.628C159.824 346.711 159.901 346.767 159.987 346.767L163.77 346.767C163.964 346.767 164.045 347.015 163.888 347.128L160.827 349.352C160.757 349.403 160.728 349.493 160.755 349.576L161.924 353.173C161.984 353.358 161.773 353.511 161.616 353.397L158.556 351.173C158.485 351.122 158.39 351.122 158.32 351.173L155.26 353.397C155.103 353.511 154.892 353.358 154.952 353.173L156.121 349.576C156.148 349.493 156.119 349.403 156.049 349.352L152.988 347.128C152.831 347.015 152.912 346.767 153.106 346.767L156.889 346.767C156.975 346.767 157.052 346.711 157.079 346.628L158.248 343.031Z" fill="#FFC100"/>
<path d="M171.649 343.031C171.709 342.846 171.97 342.846 172.03 343.031L173.199 346.628C173.225 346.711 173.302 346.767 173.389 346.767L177.172 346.767C177.365 346.767 177.446 347.015 177.289 347.128L174.229 349.352C174.159 349.403 174.129 349.493 174.156 349.576L175.325 353.173C175.385 353.358 175.174 353.511 175.017 353.397L171.957 351.173C171.887 351.122 171.792 351.122 171.722 351.173L168.661 353.397C168.505 353.511 168.294 353.358 168.354 353.173L169.523 349.576C169.549 349.493 169.52 349.403 169.45 349.352L166.39 347.128C166.233 347.015 166.313 346.767 166.507 346.767L170.29 346.767C170.377 346.767 170.453 346.711 170.48 346.628L171.649 343.031Z" fill="#FFC100"/>
<path d="M185.05 343.031C185.11 342.846 185.371 342.846 185.43 343.031L186.599 346.628C186.626 346.711 186.703 346.767 186.79 346.767L190.572 346.767C190.766 346.767 190.847 347.015 190.69 347.128L187.63 349.352C187.56 349.403 187.53 349.493 187.557 349.576L188.726 353.173C188.786 353.358 188.575 353.511 188.418 353.397L185.358 351.173C185.288 351.122 185.193 351.122 185.123 351.173L182.062 353.397C181.906 353.511 181.695 353.358 181.754 353.173L182.923 349.576C182.95 349.493 182.921 349.403 182.851 349.352L179.79 347.128C179.634 347.015 179.714 346.767 179.908 346.767L183.691 346.767C183.777 346.767 183.854 346.711 183.881 346.628L185.05 343.031Z" fill="#E0E0E0"/>
<path d="M198.451 343.031C198.511 342.846 198.772 342.846 198.832 343.031L200.001 346.628C200.028 346.711 200.104 346.767 200.191 346.767L203.974 346.767C204.168 346.767 204.248 347.015 204.091 347.128L201.031 349.352C200.961 349.403 200.932 349.493 200.958 349.576L202.127 353.173C202.187 353.358 201.976 353.511 201.82 353.397L198.759 351.173C198.689 351.122 198.594 351.122 198.524 351.173L195.464 353.397C195.307 353.511 195.096 353.358 195.156 353.173L196.325 349.576C196.352 349.493 196.322 349.403 196.252 349.352L193.192 347.128C193.035 347.015 193.116 346.767 193.309 346.767L197.092 346.767C197.179 346.767 197.256 346.711 197.282 346.628L198.451 343.031Z" fill="#E0E0E0"/>
<path d="M211.852 343.031C211.912 342.846 212.173 342.846 212.233 343.031L213.402 346.628C213.428 346.711 213.505 346.767 213.592 346.767L217.375 346.767C217.568 346.767 217.649 347.015 217.492 347.128L214.432 349.352C214.362 349.403 214.332 349.493 214.359 349.576L215.528 353.173C215.588 353.358 215.377 353.511 215.22 353.397L212.16 351.173C212.09 351.122 211.995 351.122 211.925 351.173L208.864 353.397C208.708 353.511 208.497 353.358 208.557 353.173L209.726 349.576C209.752 349.493 209.723 349.403 209.653 349.352L206.593 347.128C206.436 347.015 206.516 346.767 206.71 346.767L210.493 346.767C210.58 346.767 210.656 346.711 210.683 346.628L211.852 343.031Z" fill="#E0E0E0"/>
<path d="M271.901 318.323H234.378V338.872H271.901V318.323Z" stroke="#AA4337" stroke-miterlimit="10"/>
<path d="M245.548 325.841H242.011V328.092H245.428V329.356H242.011V332.618H240.632V324.577H245.548V325.841Z" fill="#AA4337"/>
<path d="M251.623 332.618L249.848 329.689H248.217V332.618H246.838V324.577H250.196C250.947 324.577 251.583 324.83 252.102 325.335C252.63 325.833 252.894 326.442 252.894 327.162C252.894 327.675 252.738 328.146 252.426 328.575C252.122 328.996 251.723 329.302 251.227 329.493L253.134 332.618H251.623ZM248.217 325.818V328.506H250.196C250.564 328.506 250.875 328.375 251.131 328.115C251.387 327.855 251.515 327.537 251.515 327.162C251.515 326.786 251.387 326.469 251.131 326.208C250.875 325.948 250.564 325.818 250.196 325.818H248.217Z" fill="#AA4337"/>
<path d="M255.571 331.354H259.289V332.618H254.192V324.577H259.229V325.841H255.571V327.931H258.929V329.183H255.571V331.354Z" fill="#AA4337"/>
<path d="M261.93 331.354H265.647V332.618H260.551V324.577H265.587V325.841H261.93V327.931H265.288V329.183H261.93V331.354Z" fill="#AA4337"/>
<path d="M113.768 343.339V329.044H130.742V340.003M113.768 343.339H130.742V340.003M113.768 343.339L119.128 337.62L120.915 339.527L125.382 333.809L130.742 340.003M120.021 333.064C120.021 334.298 119.021 335.298 117.788 335.298C116.554 335.298 115.554 334.298 115.554 333.064C115.554 331.831 116.554 330.831 117.788 330.831C119.021 330.831 120.021 331.831 120.021 333.064Z" stroke="#FBFBFF"/>
<path d="M94.6123 379.575H281.229L281.229 405.378H94.6123L94.6123 379.575Z" fill="#F2F2FE" stroke="#182F43"/>
<path d="M117.569 383.974L118.044 384.128L117.569 383.974L115.865 389.216H110.353C109.675 389.216 109.393 390.084 109.942 390.483L110.236 390.078L109.942 390.483L114.401 393.723L112.698 398.965C112.488 399.61 113.226 400.146 113.775 399.748L118.234 396.508L122.694 399.748C123.242 400.146 123.981 399.61 123.771 398.965L122.068 393.723L126.527 390.483C127.076 390.084 126.794 389.216 126.116 389.216H120.604L118.9 383.974L118.425 384.128L118.9 383.974C118.691 383.329 117.778 383.329 117.569 383.974Z" stroke="#828282"/>
<line x1="149.504" y1="386.616" x2="162.905" y2="386.616" stroke="#828282"/>
<line x1="145.037" y1="386.616" x2="147.717" y2="386.616" stroke="#828282"/>
<line x1="145.037" y1="391.977" x2="147.717" y2="391.977" stroke="#828282"/>
<line x1="145.037" y1="397.338" x2="147.717" y2="397.338" stroke="#828282"/>
<line x1="149.504" y1="391.977" x2="162.905" y2="391.977" stroke="#828282"/>
<line x1="149.504" y1="397.338" x2="162.905" y2="397.338" stroke="#828282"/>
<circle cx="188.367" cy="392.924" r="7.09399" stroke="#828282"/>
<path d="M191.494 389.797L184.347 392.477L188.368 392.924L188.814 396.497L191.494 389.797Z" fill="#828282"/>
<circle cx="220.347" cy="390.952" r="6.01787" stroke="#828282"/>
<path d="M224.429 394.926L230.486 399.973" stroke="#828282"/>
<path d="M252.009 389.126H248.354V400.517H261.756V389.126H258.71M255.055 385.329V395.635M255.055 395.635L258.101 392.923M255.055 395.635L252.009 392.923" stroke="#828282"/>
<path d="M406.878 170.207L409.184 177.306H416.649L410.61 181.694L412.917 188.793L406.878 184.406L400.839 188.793L403.145 181.694L397.106 177.306H404.571L406.878 170.207Z" fill="#FFC100"/>
<path d="M259 462.354H557.399" stroke="#263238" stroke-miterlimit="10"/>
<g filter="url(#filter1_d_300_2480)">
<path d="M503.324 60H334.263C324.047 60 315.766 68.2815 315.766 78.4973V443.627C315.766 453.843 324.047 462.124 334.263 462.124H503.324C513.54 462.124 521.821 453.843 521.821 443.627V78.4973C521.821 68.2815 513.54 60 503.324 60Z" fill="#F2F2FE"/>
<path d="M425.807 450.545C425.807 449.159 425.396 447.804 424.626 446.652C423.856 445.5 422.762 444.602 421.481 444.071C420.201 443.541 418.792 443.402 417.433 443.673C416.074 443.943 414.826 444.61 413.846 445.59C412.866 446.57 412.198 447.819 411.928 449.178C411.658 450.537 411.796 451.946 412.327 453.226C412.857 454.506 413.755 455.6 414.907 456.37C416.06 457.14 417.414 457.551 418.8 457.551C420.658 457.551 422.44 456.813 423.754 455.499C425.068 454.185 425.807 452.403 425.807 450.545V450.545Z" stroke="#182F43" stroke-linecap="round" stroke-linejoin="round"/>
<path d="M503.324 60H334.263C324.047 60 315.766 68.2815 315.766 78.4973V443.627C315.766 453.843 324.047 462.124 334.263 462.124H503.324C513.54 462.124 521.821 453.843 521.821 443.627V78.4973C521.821 68.2815 513.54 60 503.324 60Z" stroke="#263238" stroke-linecap="round" stroke-linejoin="round"/>
<path d="M513 85H325V438H513V85Z" fill="#182F43" stroke="#263238" stroke-linecap="round" stroke-linejoin="round"/>
<path d="M506.28 90.9443H490.712V99.4796H506.28V90.9443Z" stroke="#F2F2FE" stroke-width="0.821067" stroke-linecap="round" stroke-linejoin="round"/>
<path d="M502.853 90.9443H490.712V99.4796H502.853V90.9443Z" fill="#F2F2FE" stroke="#F2F2FE" stroke-width="0.725073" stroke-linecap="round" stroke-linejoin="round"/>
<path d="M508.433 93.3379H506.242V97.0959H508.433V93.3379Z" fill="#263238" stroke="#F2F2FE" stroke-width="0.725073" stroke-linecap="round" stroke-linejoin="round"/>
<path d="M332.008 93.5918H329.154V98.4836H332.008V93.5918Z" fill="#F2F2FE" stroke="#F2F2FE" stroke-width="0.883086" stroke-linecap="round" stroke-linejoin="round"/>
<path d="M336.492 91.873H333.639V98.4847H336.492V91.873Z" fill="#F2F2FE" stroke="#F2F2FE" stroke-width="0.883086" stroke-linecap="round" stroke-linejoin="round"/>
<path d="M340.989 89.8486H338.136V98.4858H340.989V89.8486Z" fill="#F2F2FE" stroke="#F2F2FE" stroke-width="0.883086" stroke-linecap="round" stroke-linejoin="round"/>
<path d="M508 104H329V129H508V104Z" fill="#F2F2FE"/>
<path d="M465 111.354H335V122.354H465V111.354Z" fill="#182F43"/>
<path d="M501 110.354H480V112.354H501V110.354Z" fill="#182F43"/>
<path d="M501 115.354H480V117.354H501V115.354Z" fill="#182F43"/>
<path d="M501 120.354H480V122.354H501V120.354Z" fill="#182F43"/>
</g>
<path d="M505.324 139H331.707V193.316H505.324V139Z" fill="#AA4337" stroke="#FBFBFF" stroke-miterlimit="10"/>
<path d="M395.366 185.557V146.76H442.628V176.504M395.366 185.557H442.628V176.504M395.366 185.557L410.291 170.037L415.266 175.211L427.704 159.691L442.628 176.504M412.779 157.671C412.779 161.019 409.994 163.733 406.56 163.733C403.125 163.733 400.341 161.019 400.341 157.671C400.341 154.323 403.125 151.609 406.56 151.609C409.994 151.609 412.779 154.323 412.779 157.671Z" stroke="#FBFBFF"/>
<path d="M414 323H331V362H414V323Z" fill="#AA4337" stroke="#FBFBFF" stroke-miterlimit="10"/>
<path d="M505 323H422V362H505V323Z" fill="#AA4337" stroke="#FBFBFF" stroke-miterlimit="10"/>
<path d="M359 353.401V330.985H386.46V348.171M359 353.401H386.46V348.171M359 353.401L367.671 344.434L370.562 347.424L377.788 338.457L386.46 348.171M369.117 337.29C369.117 339.224 367.499 340.792 365.504 340.792C363.508 340.792 361.89 339.224 361.89 337.29C361.89 335.355 363.508 333.787 365.504 333.787C367.499 333.787 369.117 335.355 369.117 337.29Z" stroke="#FBFBFF"/>
<path d="M450 353.401V330.985H477.46V348.171M450 353.401H477.46V348.171M450 353.401L458.671 344.434L461.562 347.424L468.788 338.457L477.46 348.171M460.117 337.29C460.117 339.224 458.499 340.792 456.504 340.792C454.508 340.792 452.89 339.224 452.89 337.29C452.89 335.355 454.508 333.787 456.504 333.787C458.499 333.787 460.117 335.355 460.117 337.29Z" stroke="#FBFBFF"/>
<path d="M395.124 202H334.466C332.552 202 331 203.552 331 205.466C331 207.38 332.552 208.932 334.466 208.932H395.124C397.038 208.932 398.59 207.38 398.59 205.466C398.59 203.552 397.038 202 395.124 202Z" fill="#FBFBFF"/>
<path d="M403.662 385.36H338.981C338.178 385.36 337.526 386.012 337.526 386.815C337.526 387.619 338.178 388.27 338.981 388.27H403.662C404.465 388.27 405.117 387.619 405.117 386.815C405.117 386.012 404.465 385.36 403.662 385.36Z" fill="#BDBDBD"/>
<path d="M380.688 394.091H338.981C338.178 394.091 337.526 394.742 337.526 395.546C337.526 396.349 338.178 397.001 338.981 397.001H380.688C381.492 397.001 382.143 396.349 382.143 395.546C382.143 394.742 381.492 394.091 380.688 394.091Z" fill="#BDBDBD"/>
<path d="M504.049 205H471.376C470.305 205 469.436 205.869 469.436 206.94C469.436 208.011 470.305 208.88 471.376 208.88H504.049C505.12 208.88 505.989 208.011 505.989 206.94C505.989 205.869 505.12 205 504.049 205Z" fill="#BDBDBD"/>
<path d="M372.463 225H334.94V261.63H372.463V225Z" fill="#FFC100" stroke="#FBFBFF" stroke-miterlimit="10"/>
<path d="M371 267H337C335.895 267 335 267.895 335 269C335 270.105 335.895 271 337 271H371C372.105 271 373 270.105 373 269C373 267.895 372.105 267 371 267Z" fill="#FBFBFF"/>
<path d="M372 274H336C335.448 274 335 274.448 335 275C335 275.552 335.448 276 336 276H372C372.552 276 373 275.552 373 275C373 274.448 372.552 274 372 274Z" fill="#BDBDBD"/>
<path d="M360 279H336C335.448 279 335 279.448 335 280C335 280.552 335.448 281 336 281H360C360.552 281 361 280.552 361 280C361 279.448 360.552 279 360 279Z" fill="#BDBDBD"/>
<path d="M338.931 286.943H336.103V288.623H338.835V289.566H336.103V292H335V286H338.931V286.943Z" fill="#AA4337"/>
<path d="M343.787 292L342.368 289.814H341.065V292H339.962V286H342.646C343.247 286 343.755 286.189 344.171 286.566C344.593 286.937 344.804 287.391 344.804 287.929C344.804 288.311 344.679 288.663 344.43 288.983C344.187 289.297 343.867 289.526 343.471 289.669L344.995 292H343.787ZM341.065 286.926V288.931H342.646C342.94 288.931 343.19 288.834 343.394 288.64C343.599 288.446 343.701 288.209 343.701 287.929C343.701 287.649 343.599 287.411 343.394 287.217C343.19 287.023 342.94 286.926 342.646 286.926H341.065Z" fill="#AA4337"/>
<path d="M346.944 291.057H349.916V292H345.842V286H349.868V286.943H346.944V288.503H349.629V289.437H346.944V291.057Z" fill="#AA4337"/>
<path d="M352.028 291.057H355V292H350.925V286H354.952V286.943H352.028V288.503H354.712V289.437H352.028V291.057Z" fill="#AA4337"/>
<path d="M344.768 250.016V235.722H361.742V246.681M344.768 250.016H361.742V246.681M344.768 250.016L350.128 244.298L351.915 246.204L356.382 240.486L361.742 246.681M351.021 239.742C351.021 240.976 350.021 241.976 348.788 241.976C347.554 241.976 346.554 240.976 346.554 239.742C346.554 238.508 347.554 237.509 348.788 237.509C350.021 237.509 351.021 238.508 351.021 239.742Z" stroke="#FBFBFF"/>
<path d="M425.523 225H388V261.63H425.523V225Z" fill="#FFC100" stroke="#FBFBFF" stroke-miterlimit="10"/>
<path d="M424.06 267H390.06C388.955 267 388.06 267.895 388.06 269C388.06 270.105 388.955 271 390.06 271H424.06C425.165 271 426.06 270.105 426.06 269C426.06 267.895 425.165 267 424.06 267Z" fill="#FBFBFF"/>
<path d="M425.06 274H389.06C388.508 274 388.06 274.448 388.06 275C388.06 275.552 388.508 276 389.06 276H425.06C425.612 276 426.06 275.552 426.06 275C426.06 274.448 425.612 274 425.06 274Z" fill="#BDBDBD"/>
<path d="M413.06 279H389.06C388.508 279 388.06 279.448 388.06 280C388.06 280.552 388.508 281 389.06 281H413.06C413.612 281 414.06 280.552 414.06 280C414.06 279.448 413.612 279 413.06 279Z" fill="#BDBDBD"/>
<path d="M391.991 286.943H389.163V288.623H391.895V289.566H389.163V292H388.06V286H391.991V286.943Z" fill="#AA4337"/>
<path d="M396.847 292L395.429 289.814H394.125V292H393.022V286H395.707C396.307 286 396.815 286.189 397.231 286.566C397.653 286.937 397.864 287.391 397.864 287.929C397.864 288.311 397.739 288.663 397.49 288.983C397.247 289.297 396.927 289.526 396.531 289.669L398.055 292H396.847ZM394.125 286.926V288.931H395.707C396.001 288.931 396.25 288.834 396.454 288.64C396.659 288.446 396.761 288.209 396.761 287.929C396.761 287.649 396.659 287.411 396.454 287.217C396.25 287.023 396.001 286.926 395.707 286.926H394.125Z" fill="#AA4337"/>
<path d="M400.004 291.057H402.976V292H398.902V286H402.928V286.943H400.004V288.503H402.689V289.437H400.004V291.057Z" fill="#AA4337"/>
<path d="M405.088 291.057H408.06V292H403.986V286H408.012V286.943H405.088V288.503H407.772V289.437H405.088V291.057Z" fill="#AA4337"/>
<path d="M397.828 250.016V235.722H414.802V246.681M397.828 250.016H414.802V246.681M397.828 250.016L403.188 244.298L404.975 246.204L409.442 240.486L414.802 246.681M404.082 239.742C404.082 240.976 403.082 241.976 401.848 241.976C400.614 241.976 399.614 240.976 399.614 239.742C399.614 238.508 400.614 237.509 401.848 237.509C403.082 237.509 404.082 238.508 404.082 239.742Z" stroke="#FBFBFF"/>
<path d="M479.523 225H442V261.63H479.523V225Z" fill="#FFC100" stroke="#FBFBFF" stroke-miterlimit="10"/>
<path d="M478.06 267H444.06C442.955 267 442.06 267.895 442.06 269C442.06 270.105 442.955 271 444.06 271H478.06C479.165 271 480.06 270.105 480.06 269C480.06 267.895 479.165 267 478.06 267Z" fill="#FBFBFF"/>
<path d="M479.06 274H443.06C442.508 274 442.06 274.448 442.06 275C442.06 275.552 442.508 276 443.06 276H479.06C479.612 276 480.06 275.552 480.06 275C480.06 274.448 479.612 274 479.06 274Z" fill="#BDBDBD"/>
<path d="M467.06 279H443.06C442.508 279 442.06 279.448 442.06 280C442.06 280.552 442.508 281 443.06 281H467.06C467.612 281 468.06 280.552 468.06 280C468.06 279.448 467.612 279 467.06 279Z" fill="#BDBDBD"/>
<path d="M445.991 286.943H443.163V288.623H445.895V289.566H443.163V292H442.06V286H445.991V286.943Z" fill="#AA4337"/>
<path d="M450.847 292L449.429 289.814H448.125V292H447.022V286H449.707C450.307 286 450.815 286.189 451.231 286.566C451.653 286.937 451.864 287.391 451.864 287.929C451.864 288.311 451.739 288.663 451.49 288.983C451.247 289.297 450.927 289.526 450.531 289.669L452.055 292H450.847ZM448.125 286.926V288.931H449.707C450.001 288.931 450.25 288.834 450.454 288.64C450.659 288.446 450.761 288.209 450.761 287.929C450.761 287.649 450.659 287.411 450.454 287.217C450.25 287.023 450.001 286.926 449.707 286.926H448.125Z" fill="#AA4337"/>
<path d="M454.004 291.057H456.976V292H452.902V286H456.928V286.943H454.004V288.503H456.689V289.437H454.004V291.057Z" fill="#AA4337"/>
<path d="M459.088 291.057H462.06V292H457.986V286H462.012V286.943H459.088V288.503H461.772V289.437H459.088V291.057Z" fill="#AA4337"/>
<path d="M451.828 250.016V235.722H468.802V246.681M451.828 250.016H468.802V246.681M451.828 250.016L457.188 244.298L458.975 246.204L463.442 240.486L468.802 246.681M458.082 239.742C458.082 240.976 457.082 241.976 455.848 241.976C454.614 241.976 453.614 240.976 453.614 239.742C453.614 238.508 454.614 237.509 455.848 237.509C457.082 237.509 458.082 238.508 458.082 239.742Z" stroke="#FBFBFF"/>
<path d="M520.5 225H496V262H520.5V225Z" fill="#FFC100" stroke="#FBFBFF" stroke-miterlimit="10"/>
<path d="M514 267H498C496.895 267 496 267.895 496 269C496 270.105 496.895 271 498 271H514C515.105 271 516 270.105 516 269C516 267.895 515.105 267 514 267Z" fill="#FBFBFF"/>
<path d="M511 274H497C496.448 274 496 274.448 496 275C496 275.552 496.448 276 497 276H511C511.552 276 512 275.552 512 275C512 274.448 511.552 274 511 274Z" fill="#BDBDBD"/>
<path d="M511 279H497C496.448 279 496 279.448 496 280C496 280.552 496.448 281 497 281H511C511.552 281 512 280.552 512 280C512 279.448 511.552 279 511 279Z" fill="#BDBDBD"/>
<path d="M499.991 286.943H497.163V288.623H499.895V289.566H497.163V292H496.06V286H499.991V286.943Z" fill="#AA4337"/>
<path d="M504.847 292L503.429 289.814H502.125V292H501.022V286H503.707C504.307 286 504.815 286.189 505.231 286.566C505.653 286.937 505.864 287.391 505.864 287.929C505.864 288.311 505.739 288.663 505.49 288.983C505.247 289.297 504.927 289.526 504.531 289.669L506.055 292H504.847ZM502.125 286.926V288.931H503.707C504.001 288.931 504.25 288.834 504.454 288.64C504.659 288.446 504.761 288.209 504.761 287.929C504.761 287.649 504.659 287.411 504.454 287.217C504.25 287.023 504.001 286.926 503.707 286.926H502.125Z" fill="#AA4337"/>
<path d="M508.004 291.057H510.976V292H506.902V286H510.928V286.943H508.004V288.503H510.689V289.437H508.004V291.057Z" fill="#AA4337"/>
<path d="M506 250V236H519V246.733M506 250H519V246.733M506 250L511.053 244.4L512.737 246.267L516.947 240.666L519 246.733M511.895 239.938C511.895 241.146 510.952 242.125 509.789 242.125C508.627 242.125 507.684 241.146 507.684 239.938C507.684 238.729 508.627 237.75 509.789 237.75C510.952 237.75 511.895 238.729 511.895 239.938Z" stroke="#FBFBFF"/>
<path d="M324.5 411.5H514.5L514.5 438.5H324.5L324.5 411.5Z" fill="#182F43" stroke="#FBFBFF"/>
<mask id="path-139-inside-1_300_2480" fill="white">
<path d="M329 309H509L509 310H329L329 309Z"/>
</mask>
<path d="M329 309H509L509 310H329L329 309Z" fill="#F2F2FE"/>
<path d="M329 309V308H328L328 309L329 309ZM509 309L510 309L510 308H509V309ZM509 310V311H510L510 310L509 310ZM329 310L328 310L328 311H329V310ZM329 310H509V308H329V310ZM508 309L508 310L510 310L510 309L508 309ZM509 309H329V311H509V309ZM330 310L330 309L328 309L328 310L330 310Z" fill="#BDBDBD" mask="url(#path-139-inside-1_300_2480)"/>
<mask id="path-141-inside-2_300_2480" fill="white">
<path d="M329 376H509L509 377H329L329 376Z"/>
</mask>
<path d="M329 376H509L509 377H329L329 376Z" fill="#F2F2FE"/>
<path d="M329 376V375H328L328 376L329 376ZM509 376L510 376L510 375H509V376ZM509 377V378H510L510 377L509 377ZM329 377L328 377L328 378H329V377ZM329 377H509V375H329V377ZM508 376L508 377L510 377L510 376L508 376ZM509 376H329V378H509V376ZM330 377L330 376L328 376L328 377L330 377Z" fill="#BDBDBD" mask="url(#path-141-inside-2_300_2480)"/>
<path d="M348.569 416.327L349.044 416.482L348.569 416.327L346.865 421.57H341.353C340.675 421.57 340.393 422.438 340.942 422.836L341.236 422.432L340.942 422.836L345.401 426.076L343.698 431.319C343.488 431.963 344.226 432.5 344.775 432.101L349.234 428.861L353.694 432.101C354.242 432.5 354.981 431.963 354.771 431.319L353.068 426.076L357.527 422.836C358.076 422.438 357.794 421.57 357.116 421.57H351.604L349.9 416.327L349.425 416.482L349.9 416.327C349.691 415.682 348.778 415.682 348.569 416.327Z" stroke="#FBFBFF"/>
<line x1="380.504" y1="418.97" x2="393.905" y2="418.97" stroke="#FBFBFF"/>
<line x1="376.037" y1="418.97" x2="378.717" y2="418.97" stroke="#FBFBFF"/>
<line x1="376.037" y1="424.33" x2="378.717" y2="424.33" stroke="#FBFBFF"/>
<line x1="376.037" y1="429.691" x2="378.717" y2="429.691" stroke="#FBFBFF"/>
<line x1="380.504" y1="424.33" x2="393.905" y2="424.33" stroke="#FBFBFF"/>
<line x1="380.504" y1="429.691" x2="393.905" y2="429.691" stroke="#FBFBFF"/>
<circle cx="419.367" cy="425.278" r="7.09399" stroke="#FBFBFF"/>
<path d="M422.494 422.15L415.347 424.831L419.368 425.277L419.814 428.851L422.494 422.15Z" fill="#FBFBFF"/>
<circle cx="451.347" cy="423.306" r="6.01787" stroke="#FBFBFF"/>
<path d="M455.429 427.279L461.486 432.327" stroke="#FBFBFF"/>
<path d="M483.009 421.48H479.354V432.871H492.756V421.48H489.71M486.055 417.683V427.989M486.055 427.989L489.101 425.277M486.055 427.989L483.009 425.277" stroke="#FBFBFF"/>
<path fill-rule="evenodd" clip-rule="evenodd" d="M541.692 10.2036C535.637 11.2686 531.058 15.9661 530.149 22.0448C529.95 23.3769 529.95 64.6176 530.149 65.9497C531.076 72.1504 535.849 76.9235 542.049 77.8506C543.381 78.0498 584.619 78.0498 585.951 77.8506C592.151 76.9235 596.924 72.1504 597.851 65.9497C598.05 64.6176 598.05 23.3769 597.851 22.0448C596.924 15.8441 592.151 11.071 585.951 10.144C584.438 9.9178 543 9.97358 541.692 10.2036ZM586.507 14.2678C586.872 14.3831 587.5 14.6167 587.902 14.7869C590.737 15.9885 592.981 18.6325 593.758 21.6874C594.035 22.7767 594.035 65.2179 593.758 66.3072C592.832 69.9473 589.948 72.8314 586.308 73.7573C585.124 74.3169 543.206 74.3169 541.692 73.7573C538.605 72.9722 535.995 70.7401 534.765 67.8344C534.019 66.0711 534.057 67.3333 534.057 43.9973C534.057 20.6612 534.019 21.9235 534.765 20.1602C536 17.2429 538.811 14.854 541.698 14.2677C542.096 14.1867 542.542 14.0964 542.688 14.0668C542.834 14.0373 552.604 14.0232 564.398 14.0357C583.525 14.0558 585.915 14.0809 586.507 14.2678ZM559.75 24.0611C558.769 24.3829 557.909 25.147 557.543 26.0225C557.318 26.561 557.305 27.9195 557.52 28.4206C557.608 28.6248 558.239 29.7657 558.923 30.9557L560.167 33.1195L555.694 40.8748L551.222 48.6302L547.486 48.6709C543.937 48.7096 543.723 48.7262 543.206 49.0025C542.573 49.3413 541.869 50.0994 541.609 50.7228C541.374 51.2849 541.374 52.6453 541.609 53.2074C541.869 53.8308 542.573 54.5889 543.206 54.9277L543.75 55.2186L556.808 55.2544C563.99 55.274 569.846 55.2415 569.821 55.1819C569.797 55.1224 568.941 53.6272 567.92 51.8594L566.063 48.6452H562.509C560.554 48.6452 558.954 48.6141 558.954 48.5763C558.954 48.5383 561.567 43.9816 564.761 38.4505L570.125 29.1606C570.416 28.6563 570.585 28.0907 570.618 27.5093C570.645 27.023 570.6 26.4192 570.517 26.1675C570.309 25.5387 569.527 24.6586 568.866 24.3094C568.099 23.9049 566.676 23.9033 565.913 24.3062C565.326 24.6161 564.659 25.3041 564.331 25.9386C564.073 26.4382 563.927 26.4382 563.669 25.9386C563.339 25.3008 562.672 24.6142 562.097 24.3207C561.515 24.0241 560.28 23.8873 559.75 24.0611ZM569.14 36.1812C568.734 36.83 565.86 41.8584 565.719 42.1671C565.586 42.4599 566.105 43.4123 571.425 52.6387C575.646 59.9599 577.414 62.9095 577.769 63.2238C579.592 64.8365 582.599 63.8475 583.133 61.4594C583.38 60.3556 583.169 59.6987 581.813 57.349L580.637 55.3096L582.443 55.2607C583.98 55.219 584.331 55.1688 584.794 54.9242C585.425 54.5902 586.13 53.833 586.391 53.2074C586.626 52.6453 586.626 51.2849 586.391 50.7228C586.131 50.0994 585.427 49.3413 584.794 49.0025C584.281 48.7282 584.036 48.7079 580.501 48.6452L576.751 48.5788L573.152 42.3373C571.172 38.9045 569.504 36.0446 569.444 35.982C569.385 35.9195 569.248 36.0091 569.14 36.1812ZM545.419 58.675C544.824 59.7307 544.662 60.5443 544.867 61.4594C545.284 63.3215 547.161 64.4087 549.024 63.8671C550.074 63.5618 550.61 62.9672 551.976 60.5928C552.626 59.463 553.244 58.4042 553.349 58.2398L553.54 57.941H549.687H545.834L545.419 58.675Z" fill="#182F43"/>
<path d="M513.5 223H521.344V276H513.5V223Z" fill="#F2F2FE"/>
<g filter="url(#filter2_d_300_2480)">
<path d="M664.876 97.9639H530.375V217.617H664.876V97.9639Z" fill="#FFC100"/>
<path d="M665.293 218.034H530V97.5469H665.293V218.034ZM530.835 217.2H664.458V98.3814H530.835V217.2Z" fill="#182F43"/>
<path d="M540.849 103.498C540.849 103.993 540.702 104.477 540.427 104.889C540.152 105.301 539.761 105.622 539.304 105.811C538.846 106.001 538.343 106.05 537.857 105.953C537.371 105.857 536.925 105.618 536.575 105.268C536.225 104.918 535.987 104.472 535.89 103.986C535.793 103.501 535.843 102.997 536.032 102.54C536.222 102.082 536.543 101.691 536.955 101.416C537.366 101.141 537.85 100.994 538.346 100.994C539.01 100.994 539.646 101.258 540.116 101.727C540.585 102.197 540.849 102.834 540.849 103.498Z" fill="#37474F"/>
<path d="M551.073 103.498C551.073 103.993 550.926 104.477 550.651 104.889C550.376 105.301 549.985 105.622 549.527 105.811C549.07 106.001 548.566 106.05 548.081 105.953C547.595 105.857 547.149 105.618 546.799 105.268C546.449 104.918 546.21 104.472 546.114 103.986C546.017 103.501 546.067 102.997 546.256 102.54C546.446 102.082 546.766 101.691 547.178 101.416C547.59 101.141 548.074 100.994 548.569 100.994C549.233 100.994 549.87 101.258 550.34 101.727C550.809 102.197 551.073 102.834 551.073 103.498Z" fill="#FBFBFF"/>
<path d="M561.288 103.498C561.288 103.993 561.141 104.477 560.866 104.889C560.591 105.301 560.2 105.622 559.743 105.811C559.285 106.001 558.782 106.05 558.296 105.953C557.81 105.857 557.364 105.618 557.014 105.268C556.664 104.918 556.425 104.472 556.329 103.986C556.232 103.501 556.282 102.997 556.471 102.54C556.661 102.082 556.982 101.691 557.394 101.416C557.805 101.141 558.289 100.994 558.784 100.994C559.449 100.994 560.085 101.258 560.555 101.727C561.024 102.197 561.288 102.834 561.288 103.498Z" fill="#AA4337"/>
<path d="M664.876 108.571H530.375V109.406H664.876V108.571Z" fill="#182F43"/>
<path d="M644.487 118.795H551.933V121.207H644.487V118.795Z" fill="#FBFBFF"/>
<path d="M628.655 123.827H567.756V126.239H628.655V123.827Z" fill="#FBFBFF"/>
<path d="M652.557 140.527H557.132V149.833H652.557V140.527Z" fill="#FBFBFF"/>
<path d="M607.691 143.165H560.237V147.188H607.691V143.165Z" fill="#AA4337"/>
<path d="M652.557 154.182H557.132V163.487H652.557V154.182Z" fill="#FBFBFF"/>
<path d="M634.289 156.818H560.237V160.841H634.289V156.818Z" fill="#455A64"/>
<path d="M652.557 167.835H557.132V177.14H652.557V167.835Z" fill="#FBFBFF"/>
<path d="M578.798 170.473H560.237V174.495H578.798V170.473Z" fill="#AA4337"/>
<path d="M652.557 181.488H557.132V190.794H652.557V181.488Z" fill="#FBFBFF"/>
<path d="M619.058 184.126H560.237V188.149H619.058V184.126Z" fill="#455A64"/>
<path d="M652.557 195.143H557.132V204.448H652.557V195.143Z" fill="#FBFBFF"/>
<path d="M627.787 197.779H560.237V201.802H627.787V197.779Z" fill="#AA4337"/>
<path d="M542.955 145.66C542.978 146.052 542.83 146.436 542.543 146.728C542.256 147.02 541.853 147.195 541.424 147.217C540.995 147.238 540.574 147.102 540.254 146.84C539.935 146.578 539.742 146.211 539.719 145.819C539.719 145.706 539.719 145.581 539.719 145.467C539.711 145.041 539.791 144.617 539.955 144.218C540.112 143.798 540.413 143.435 540.814 143.184C541.11 143.005 541.455 142.906 541.81 142.9C541.859 142.897 541.907 142.903 541.953 142.917C541.999 142.932 542.041 142.955 542.077 142.984C542.113 143.014 542.142 143.05 542.163 143.09C542.183 143.13 542.194 143.174 542.196 143.218C542.196 143.308 542.159 143.394 542.092 143.46C542.025 143.525 541.933 143.565 541.835 143.57C541.615 143.58 541.402 143.639 541.213 143.741C541.033 143.849 540.887 143.998 540.789 144.172C540.753 144.222 540.724 144.275 540.702 144.331C540.902 144.25 541.118 144.207 541.337 144.206C541.762 144.206 542.17 144.359 542.473 144.631C542.775 144.903 542.949 145.273 542.955 145.66ZM542.208 145.66C542.208 145.501 542.157 145.345 542.059 145.212C541.962 145.08 541.824 144.976 541.663 144.915C541.501 144.854 541.324 144.838 541.152 144.869C540.981 144.901 540.823 144.977 540.7 145.09C540.576 145.203 540.492 145.347 540.458 145.503C540.424 145.659 540.441 145.822 540.508 145.969C540.575 146.116 540.688 146.242 540.834 146.331C540.979 146.42 541.15 146.467 541.325 146.467C541.441 146.468 541.557 146.449 541.665 146.409C541.773 146.369 541.871 146.309 541.953 146.234C542.036 146.159 542.101 146.069 542.145 145.971C542.188 145.872 542.21 145.767 542.208 145.66Z" fill="#263238"/>
<path d="M544.038 145.065C544.031 144.544 544.18 144.032 544.466 143.59C544.589 143.388 544.762 143.218 544.97 143.097C545.178 142.976 545.414 142.908 545.657 142.899C545.9 142.907 546.137 142.975 546.345 143.096C546.553 143.217 546.726 143.387 546.848 143.59C547.139 144.03 547.289 144.543 547.276 145.065C547.284 145.586 547.135 146.098 546.848 146.539C546.722 146.738 546.548 146.905 546.34 147.023C546.133 147.142 545.898 147.209 545.657 147.219C545.417 147.207 545.183 147.139 544.975 147.021C544.768 146.902 544.593 146.737 544.466 146.539C544.185 146.096 544.036 145.585 544.038 145.065ZM546.562 145.065C546.578 144.66 546.47 144.259 546.252 143.913C546.193 143.808 546.107 143.72 546.003 143.655C545.899 143.591 545.78 143.553 545.657 143.544C545.532 143.552 545.411 143.59 545.305 143.654C545.199 143.718 545.111 143.807 545.05 143.913C544.836 144.26 544.733 144.661 544.752 145.065C544.742 145.446 544.845 145.822 545.05 146.147C545.111 146.255 545.198 146.347 545.304 146.416C545.409 146.484 545.531 146.526 545.657 146.539C545.782 146.525 545.901 146.483 546.005 146.414C546.108 146.346 546.193 146.255 546.252 146.147C546.453 145.821 546.552 145.445 546.538 145.065H546.562Z" fill="#263238"/>
<path d="M548.364 144.001C548.346 143.863 548.362 143.723 548.414 143.59C548.465 143.458 548.549 143.336 548.661 143.232C548.773 143.128 548.911 143.045 549.065 142.987C549.218 142.93 549.385 142.9 549.554 142.899C549.722 142.9 549.888 142.93 550.041 142.987C550.195 143.045 550.331 143.128 550.442 143.232C550.554 143.336 550.637 143.459 550.686 143.591C550.736 143.724 550.751 143.864 550.73 144.001C550.746 144.139 550.728 144.278 550.676 144.41C550.624 144.542 550.54 144.664 550.428 144.767C550.316 144.871 550.18 144.954 550.027 145.012C549.874 145.07 549.708 145.101 549.54 145.103C549.373 145.101 549.208 145.07 549.055 145.012C548.903 144.954 548.767 144.87 548.657 144.767C548.546 144.663 548.463 144.541 548.412 144.409C548.362 144.278 548.346 144.139 548.364 144.001ZM550.088 144.001C550.088 143.671 549.861 143.395 549.54 143.395C549.22 143.395 549.006 143.671 549.006 143.99C549.006 144.321 549.233 144.585 549.554 144.585C549.874 144.585 550.062 144.321 550.062 144.001H550.088ZM549.193 146.756L552.467 143.054C552.495 143.02 552.533 142.992 552.578 142.973C552.622 142.953 552.671 142.943 552.721 142.943C552.794 142.946 552.864 142.971 552.916 143.014C552.968 143.057 552.998 143.114 553.002 143.175C553.004 143.231 552.98 143.287 552.935 143.329L549.647 147.053C549.621 147.087 549.586 147.114 549.544 147.133C549.502 147.152 549.455 147.163 549.407 147.164C549.37 147.164 549.333 147.158 549.299 147.146C549.265 147.134 549.234 147.117 549.208 147.096C549.182 147.074 549.162 147.049 549.147 147.021C549.133 146.993 549.126 146.963 549.126 146.932C549.119 146.868 549.143 146.805 549.193 146.756ZM551.398 146.117C551.398 145.86 551.522 145.613 551.742 145.431C551.963 145.249 552.262 145.147 552.574 145.147C552.886 145.147 553.185 145.249 553.406 145.431C553.626 145.613 553.75 145.86 553.75 146.117C553.767 146.255 553.748 146.394 553.697 146.526C553.645 146.658 553.56 146.779 553.448 146.883C553.337 146.986 553.2 147.07 553.047 147.127C552.894 147.185 552.729 147.216 552.561 147.219C552.394 147.217 552.229 147.186 552.077 147.128C551.926 147.069 551.791 146.986 551.681 146.882C551.571 146.778 551.489 146.656 551.441 146.524C551.392 146.392 551.377 146.254 551.398 146.117ZM553.122 146.117C553.122 145.797 552.895 145.522 552.561 145.522C552.227 145.522 552.026 145.797 552.026 146.106C552.026 146.447 552.253 146.712 552.574 146.712C552.895 146.712 553.122 146.425 553.122 146.117Z" fill="#263238"/>
<path d="M539.718 158.423C539.725 158.041 539.887 157.675 540.172 157.4C540.458 157.124 540.845 156.959 541.256 156.939C541.667 156.918 542.072 157.043 542.388 157.288C542.703 157.534 542.907 157.881 542.958 158.26C542.958 158.26 542.958 158.504 542.958 158.62C542.958 159.055 542.878 159.487 542.72 159.897C542.563 160.327 542.26 160.697 541.857 160.954C541.557 161.133 541.212 161.237 540.856 161.256C540.807 161.257 540.758 161.25 540.712 161.234C540.666 161.217 540.623 161.193 540.587 161.162C540.551 161.131 540.522 161.093 540.502 161.051C540.482 161.01 540.47 160.965 540.469 160.919C540.468 160.829 540.504 160.743 540.569 160.676C540.633 160.609 540.723 160.568 540.819 160.559C541.045 160.555 541.265 160.495 541.457 160.385C541.628 160.273 541.77 160.126 541.87 159.955L541.957 159.793C541.756 159.874 541.538 159.913 541.319 159.909C540.897 159.903 540.493 159.744 540.194 159.467C539.895 159.19 539.725 158.815 539.718 158.423ZM540.456 158.423C540.46 158.639 540.555 158.846 540.721 158.998C540.887 159.15 541.111 159.236 541.344 159.236C541.517 159.233 541.685 159.184 541.827 159.093C541.97 159.002 542.08 158.875 542.144 158.726C542.208 158.577 542.224 158.414 542.189 158.257C542.154 158.1 542.069 157.957 541.946 157.844C541.823 157.732 541.667 157.655 541.498 157.625C541.329 157.595 541.153 157.611 540.994 157.673C540.835 157.735 540.699 157.839 540.603 157.973C540.507 158.106 540.456 158.263 540.456 158.423Z" fill="#263238"/>
<path d="M544.038 159.102C544.031 158.581 544.18 158.069 544.466 157.628C544.589 157.425 544.762 157.255 544.97 157.134C545.178 157.013 545.414 156.945 545.657 156.937C545.9 156.944 546.137 157.012 546.345 157.133C546.553 157.254 546.726 157.424 546.848 157.628C547.139 158.067 547.289 158.58 547.276 159.102C547.284 159.623 547.135 160.135 546.848 160.576C546.722 160.776 546.548 160.942 546.34 161.06C546.133 161.179 545.898 161.246 545.657 161.256C545.417 161.244 545.183 161.176 544.975 161.058C544.768 160.939 544.593 160.774 544.466 160.576C544.185 160.133 544.036 159.622 544.038 159.102ZM546.562 159.102C546.578 158.697 546.47 158.296 546.252 157.95C546.193 157.845 546.107 157.757 546.003 157.692C545.899 157.628 545.78 157.59 545.657 157.582C545.532 157.589 545.411 157.627 545.305 157.691C545.199 157.755 545.111 157.845 545.05 157.95C544.836 158.297 544.733 158.698 544.752 159.102C544.742 159.483 544.845 159.859 545.05 160.185C545.111 160.293 545.198 160.385 545.304 160.453C545.409 160.521 545.531 160.563 545.657 160.576C545.782 160.562 545.901 160.52 546.005 160.451C546.108 160.383 546.193 160.292 546.252 160.185C546.453 159.858 546.552 159.482 546.538 159.102H546.562Z" fill="#263238"/>
<path d="M548.364 158.041C548.346 157.903 548.362 157.762 548.413 157.629C548.465 157.496 548.549 157.374 548.661 157.27C548.773 157.166 548.911 157.082 549.065 157.025C549.218 156.967 549.385 156.937 549.554 156.937C549.716 156.938 549.876 156.966 550.024 157.02C550.172 157.075 550.306 157.153 550.416 157.252C550.526 157.35 550.61 157.466 550.664 157.592C550.718 157.718 550.741 157.852 550.73 157.986C550.746 158.124 550.728 158.264 550.676 158.396C550.624 158.528 550.54 158.65 550.428 158.754C550.316 158.858 550.18 158.941 550.027 158.999C549.874 159.057 549.708 159.088 549.54 159.091C549.379 159.088 549.22 159.058 549.072 159.004C548.925 158.949 548.793 158.87 548.683 158.772C548.573 158.674 548.488 158.559 548.434 158.434C548.379 158.308 548.355 158.174 548.364 158.041ZM550.088 158.041C550.088 157.71 549.861 157.434 549.54 157.434C549.22 157.434 549.006 157.71 549.006 158.03C549.006 158.362 549.233 158.627 549.554 158.627C549.874 158.627 550.062 158.362 550.062 158.041H550.088ZM549.193 160.803L552.467 157.091C552.495 157.057 552.533 157.029 552.578 157.01C552.622 156.991 552.671 156.981 552.721 156.981C552.794 156.983 552.864 157.009 552.916 157.052C552.968 157.095 552.998 157.152 553.002 157.213C553.004 157.269 552.98 157.325 552.935 157.367L549.647 161.079C549.623 161.114 549.588 161.142 549.546 161.162C549.503 161.181 549.455 161.191 549.407 161.189C549.332 161.189 549.261 161.165 549.208 161.122C549.156 161.078 549.126 161.019 549.126 160.958C549.126 160.901 549.15 160.846 549.193 160.803ZM551.398 160.151C551.398 159.893 551.522 159.646 551.742 159.464C551.963 159.281 552.262 159.179 552.574 159.179C552.886 159.179 553.185 159.281 553.406 159.464C553.626 159.646 553.75 159.893 553.75 160.151C553.767 160.289 553.748 160.429 553.697 160.561C553.645 160.693 553.56 160.815 553.448 160.919C553.337 161.023 553.2 161.106 553.047 161.164C552.894 161.222 552.729 161.253 552.561 161.256C552.394 161.254 552.229 161.223 552.077 161.164C551.926 161.106 551.791 161.022 551.681 160.918C551.571 160.814 551.489 160.692 551.441 160.559C551.392 160.427 551.377 160.288 551.398 160.151ZM553.122 160.151C553.122 159.82 552.895 159.555 552.561 159.555C552.227 159.555 552.026 159.82 552.026 160.14C552.026 160.483 552.253 160.748 552.574 160.748C552.895 160.748 553.122 160.471 553.122 160.151Z" fill="#263238"/>
<path d="M542.413 171.599C542.754 171.886 542.946 172.276 542.946 172.682C542.946 173.088 542.754 173.477 542.413 173.765C542.245 173.908 542.045 174.021 541.824 174.099C541.603 174.176 541.366 174.215 541.127 174.214C540.644 174.213 540.181 174.052 539.84 173.765C539.762 173.699 539.718 173.61 539.718 173.517C539.718 173.424 539.762 173.335 539.84 173.269C539.918 173.204 540.024 173.167 540.134 173.167C540.245 173.167 540.351 173.204 540.429 173.269C540.612 173.418 540.858 173.502 541.113 173.502C541.368 173.502 541.614 173.418 541.797 173.269C541.935 173.154 542.029 173.007 542.068 172.847C542.106 172.687 542.088 172.521 542.015 172.37C541.942 172.218 541.817 172.088 541.657 171.996C541.496 171.904 541.307 171.854 541.113 171.853C541.056 171.855 540.998 171.846 540.946 171.826C540.893 171.806 540.847 171.776 540.812 171.737C540.736 171.671 540.693 171.582 540.693 171.49C540.693 171.397 540.736 171.309 540.812 171.242L541.565 170.597H540.374C540.319 170.599 540.265 170.591 540.215 170.574C540.164 170.557 540.118 170.532 540.079 170.499C540.041 170.467 540.011 170.428 539.991 170.386C539.971 170.343 539.961 170.297 539.963 170.252C539.961 170.205 539.971 170.159 539.991 170.116C540.01 170.073 540.04 170.033 540.079 170C540.117 169.966 540.163 169.94 540.214 169.922C540.264 169.904 540.319 169.895 540.374 169.895H542.536C542.592 169.895 542.646 169.904 542.697 169.922C542.748 169.94 542.793 169.966 542.832 170C542.87 170.033 542.9 170.073 542.92 170.116C542.94 170.159 542.949 170.205 542.947 170.252C542.961 170.305 542.961 170.36 542.947 170.413L542.865 170.493L541.948 171.3C542.125 171.372 542.283 171.474 542.413 171.599Z" fill="#263238"/>
<path d="M544.038 172.048C544.033 171.531 544.181 171.023 544.466 170.586C544.589 170.383 544.762 170.213 544.97 170.092C545.178 169.971 545.415 169.903 545.657 169.895C545.9 169.902 546.137 169.97 546.345 170.091C546.553 170.212 546.726 170.382 546.848 170.586C547.138 171.021 547.287 171.53 547.276 172.048C547.287 172.57 547.138 173.083 546.848 173.523C546.725 173.725 546.551 173.894 546.343 174.015C546.135 174.135 545.899 174.204 545.657 174.214C545.415 174.202 545.18 174.133 544.973 174.012C544.765 173.892 544.591 173.724 544.466 173.523C544.182 173.081 544.033 172.569 544.038 172.048ZM546.562 172.048C546.567 171.663 546.46 171.283 546.252 170.954C546.193 170.849 546.107 170.761 546.003 170.696C545.899 170.632 545.78 170.594 545.657 170.586C545.532 170.593 545.411 170.631 545.305 170.695C545.199 170.76 545.111 170.849 545.05 170.954C544.842 171.283 544.735 171.663 544.74 172.048C544.72 172.454 544.828 172.856 545.05 173.2C545.111 173.307 545.199 173.397 545.305 173.463C545.411 173.529 545.532 173.57 545.657 173.58C545.781 173.57 545.901 173.529 546.004 173.463C546.108 173.397 546.194 173.306 546.252 173.2C546.475 172.856 546.583 172.454 546.562 172.048Z" fill="#263238"/>
<path d="M548.364 170.999C548.346 170.861 548.362 170.72 548.414 170.587C548.465 170.454 548.549 170.332 548.661 170.228C548.773 170.124 548.911 170.04 549.064 169.983C549.218 169.925 549.385 169.895 549.553 169.895C549.722 169.895 549.888 169.925 550.041 169.983C550.194 170.04 550.331 170.124 550.442 170.228C550.553 170.333 550.636 170.455 550.686 170.588C550.735 170.721 550.75 170.861 550.729 170.999C550.738 171.133 550.714 171.268 550.659 171.394C550.603 171.52 550.517 171.636 550.406 171.734C550.295 171.832 550.161 171.911 550.012 171.965C549.863 172.019 549.703 172.047 549.54 172.049C549.378 172.047 549.218 172.019 549.07 171.965C548.922 171.911 548.789 171.832 548.678 171.734C548.568 171.635 548.484 171.52 548.43 171.393C548.376 171.267 548.353 171.133 548.364 170.999ZM550.088 170.999C550.088 170.668 549.861 170.392 549.54 170.392C549.219 170.392 549.006 170.668 549.006 170.988C549.006 171.32 549.233 171.585 549.553 171.585C549.874 171.585 550.088 171.264 550.088 170.999ZM549.179 173.761L552.466 170.049C552.492 170.016 552.528 169.989 552.57 169.969C552.612 169.95 552.659 169.94 552.706 169.939C552.782 169.939 552.855 169.963 552.91 170.006C552.964 170.049 552.997 170.108 553 170.171C553.021 170.221 553.021 170.275 553 170.325L549.714 174.037C549.686 174.071 549.648 174.099 549.603 174.118C549.559 174.138 549.51 174.148 549.46 174.148C549.424 174.148 549.388 174.141 549.354 174.13C549.321 174.118 549.291 174.101 549.266 174.079C549.241 174.057 549.222 174.032 549.209 174.003C549.196 173.975 549.191 173.945 549.193 173.916C549.16 173.849 549.155 173.775 549.179 173.706V173.761ZM551.384 173.109C551.367 172.971 551.385 172.831 551.437 172.699C551.489 172.567 551.574 172.445 551.685 172.341C551.797 172.237 551.934 172.154 552.086 172.096C552.239 172.038 552.405 172.007 552.573 172.004C552.74 172.007 552.906 172.038 553.058 172.096C553.21 172.154 553.346 172.238 553.456 172.342C553.567 172.446 553.65 172.568 553.7 172.7C553.751 172.832 553.767 172.971 553.749 173.109C553.765 173.247 553.747 173.387 553.695 173.519C553.643 173.651 553.559 173.773 553.447 173.877C553.335 173.981 553.199 174.064 553.046 174.122C552.893 174.18 552.728 174.211 552.56 174.214C552.385 174.213 552.214 174.18 552.056 174.119C551.899 174.057 551.76 173.969 551.648 173.858C551.536 173.748 551.455 173.619 551.409 173.48C551.363 173.341 551.355 173.196 551.384 173.054V173.109ZM553.107 173.109C553.107 172.778 552.88 172.513 552.56 172.513C552.239 172.513 552.025 172.778 552.025 173.098C552.025 173.441 552.252 173.706 552.573 173.706C552.893 173.706 553.107 173.374 553.107 173.054V173.109Z" fill="#263238"/>
<path d="M542.939 184.325L541.107 188.042C541.079 188.105 541.028 188.159 540.962 188.196C540.895 188.234 540.817 188.253 540.738 188.251H540.587C540.49 188.213 540.414 188.145 540.373 188.061C540.333 187.978 540.331 187.884 540.368 187.799L541.941 184.615H540.054C539.96 184.6 539.874 184.558 539.813 184.495C539.752 184.433 539.718 184.354 539.718 184.273C539.718 184.192 539.752 184.113 539.813 184.051C539.874 183.989 539.96 183.946 540.054 183.932H542.638L542.803 183.99V184.186C542.803 184.186 543.021 184.302 542.939 184.325Z" fill="#263238"/>
<path d="M544.038 186.086C544.029 185.564 544.178 185.052 544.467 184.611C544.592 184.412 544.766 184.246 544.974 184.127C545.182 184.008 545.416 183.941 545.657 183.932C545.899 183.939 546.134 184.005 546.342 184.124C546.55 184.243 546.724 184.41 546.848 184.611C547.136 185.052 547.285 185.564 547.276 186.086C547.287 186.607 547.138 187.12 546.848 187.56C546.725 187.762 546.551 187.931 546.343 188.052C546.136 188.173 545.9 188.241 545.657 188.251C545.416 188.239 545.18 188.17 544.973 188.049C544.765 187.929 544.591 187.761 544.467 187.56C544.176 187.12 544.027 186.607 544.038 186.086ZM546.562 186.086C546.567 185.7 546.46 185.321 546.253 184.991C546.191 184.887 546.106 184.798 546.002 184.732C545.899 184.666 545.781 184.625 545.657 184.611C545.532 184.624 545.412 184.665 545.307 184.731C545.201 184.797 545.113 184.886 545.05 184.991C544.843 185.321 544.735 185.7 544.741 186.086C544.733 186.471 544.841 186.851 545.05 187.18C545.112 187.286 545.199 187.376 545.305 187.443C545.411 187.509 545.532 187.549 545.657 187.56C545.781 187.549 545.901 187.509 546.005 187.443C546.109 187.376 546.194 187.286 546.253 187.18C546.462 186.851 546.569 186.471 546.562 186.086Z" fill="#263238"/>
<path d="M548.364 185.051C548.346 184.91 548.362 184.768 548.414 184.633C548.465 184.499 548.549 184.375 548.661 184.269C548.773 184.164 548.911 184.079 549.065 184.021C549.218 183.963 549.385 183.932 549.554 183.932C549.715 183.933 549.875 183.962 550.022 184.017C550.17 184.072 550.302 184.152 550.411 184.251C550.52 184.351 550.604 184.468 550.656 184.596C550.709 184.724 550.729 184.86 550.716 184.995C550.716 185.256 550.593 185.506 550.372 185.691C550.151 185.876 549.852 185.979 549.54 185.979C549.229 185.979 548.929 185.876 548.709 185.691C548.488 185.506 548.364 185.256 548.364 184.995V185.051ZM550.088 185.051C550.088 184.715 549.861 184.435 549.54 184.435C549.22 184.435 548.992 184.715 548.992 185.039C548.981 185.11 548.987 185.182 549.009 185.251C549.031 185.319 549.07 185.384 549.122 185.44C549.174 185.496 549.239 185.543 549.313 185.578C549.388 185.613 549.469 185.635 549.554 185.644C549.888 185.644 550.088 185.375 550.088 185.051ZM549.18 187.848L552.467 184.088C552.491 184.053 552.526 184.024 552.569 184.004C552.611 183.985 552.659 183.975 552.708 183.976C552.746 183.975 552.784 183.98 552.819 183.991C552.855 184.002 552.887 184.019 552.915 184.041C552.942 184.063 552.964 184.09 552.979 184.119C552.994 184.148 553.002 184.18 553.002 184.211C553.002 184.269 552.978 184.324 552.935 184.368L549.647 188.128C549.619 188.162 549.581 188.191 549.537 188.21C549.493 188.23 549.443 188.24 549.393 188.24C549.321 188.237 549.253 188.211 549.204 188.167C549.154 188.123 549.126 188.065 549.126 188.005C549.126 187.949 549.144 187.895 549.18 187.848ZM551.385 187.188C551.368 187.048 551.386 186.906 551.438 186.772C551.49 186.639 551.575 186.515 551.686 186.41C551.798 186.305 551.935 186.22 552.087 186.162C552.24 186.103 552.406 186.071 552.574 186.069C552.735 186.072 552.895 186.102 553.042 186.157C553.189 186.212 553.322 186.292 553.431 186.391C553.541 186.491 553.626 186.607 553.681 186.735C553.735 186.862 553.759 186.997 553.75 187.132C553.767 187.272 553.748 187.413 553.697 187.547C553.645 187.681 553.56 187.805 553.448 187.91C553.337 188.015 553.2 188.099 553.047 188.158C552.894 188.217 552.729 188.248 552.561 188.251C552.399 188.248 552.24 188.218 552.093 188.163C551.945 188.107 551.813 188.028 551.703 187.928C551.593 187.829 551.509 187.713 551.454 187.585C551.399 187.458 551.376 187.323 551.385 187.188ZM553.109 187.188C553.109 186.852 552.881 186.584 552.561 186.584C552.24 186.584 552.026 186.852 552.026 187.177C552.026 187.524 552.253 187.792 552.574 187.792C552.895 187.792 553.109 187.512 553.109 187.188Z" fill="#263238"/>
<path d="M542.958 200.811C542.958 201.203 542.787 201.579 542.483 201.856C542.18 202.133 541.768 202.289 541.338 202.289C540.908 202.289 540.496 202.133 540.193 201.856C539.889 201.579 539.718 201.203 539.718 200.811C539.717 200.568 539.782 200.329 539.908 200.115C540.034 199.901 540.217 199.719 540.44 199.586C540.318 199.435 540.245 199.256 540.228 199.069C540.211 198.881 540.252 198.694 540.345 198.526C540.438 198.359 540.58 198.218 540.755 198.12C540.931 198.022 541.132 197.97 541.338 197.97C541.544 197.97 541.745 198.022 541.921 198.12C542.096 198.218 542.238 198.359 542.331 198.526C542.424 198.694 542.465 198.881 542.448 199.069C542.431 199.256 542.358 199.435 542.236 199.586C542.457 199.721 542.639 199.903 542.765 200.116C542.89 200.33 542.957 200.568 542.958 200.811ZM542.224 200.811C542.224 200.599 542.132 200.397 541.968 200.247C541.804 200.098 541.582 200.014 541.351 200.014C541.117 200.014 540.892 200.097 540.724 200.246C540.556 200.395 540.459 200.597 540.452 200.811C540.459 201.025 540.556 201.229 540.723 201.38C540.891 201.53 541.116 201.616 541.351 201.619C541.583 201.616 541.805 201.53 541.969 201.378C542.132 201.227 542.224 201.023 542.224 200.811ZM540.958 198.974C540.958 199.021 540.969 199.067 540.988 199.11C541.008 199.153 541.037 199.191 541.074 199.224C541.111 199.256 541.154 199.281 541.201 199.298C541.249 199.315 541.3 199.322 541.351 199.321C541.451 199.321 541.548 199.284 541.619 199.219C541.69 199.154 541.73 199.066 541.73 198.974C541.73 198.882 541.69 198.794 541.619 198.729C541.548 198.664 541.451 198.628 541.351 198.628C541.3 198.626 541.249 198.634 541.201 198.651C541.154 198.668 541.111 198.693 541.074 198.725C541.037 198.758 541.008 198.796 540.988 198.839C540.969 198.882 540.958 198.928 540.958 198.974Z" fill="#263238"/>
<path d="M544.038 200.124C544.027 199.607 544.177 199.098 544.467 198.664C544.581 198.454 544.752 198.279 544.962 198.157C545.172 198.034 545.412 197.97 545.657 197.97C545.902 197.97 546.143 198.034 546.353 198.157C546.562 198.279 546.734 198.454 546.848 198.664C547.138 199.098 547.287 199.607 547.276 200.124C547.287 200.644 547.138 201.156 546.848 201.595C546.734 201.804 546.562 201.98 546.353 202.102C546.143 202.224 545.902 202.289 545.657 202.289C545.412 202.289 545.172 202.224 544.962 202.102C544.752 201.98 544.581 201.804 544.467 201.595C544.176 201.156 544.027 200.644 544.038 200.124ZM546.55 200.124C546.571 199.72 546.467 199.321 546.253 198.974C546.197 198.868 546.112 198.778 546.007 198.716C545.902 198.653 545.781 198.62 545.657 198.62C545.534 198.62 545.413 198.653 545.308 198.716C545.203 198.778 545.118 198.868 545.062 198.974C544.843 199.319 544.736 199.719 544.752 200.124C544.744 200.509 544.851 200.888 545.062 201.216C545.114 201.326 545.198 201.419 545.304 201.484C545.409 201.55 545.532 201.584 545.657 201.584C545.783 201.584 545.905 201.55 546.011 201.484C546.116 201.419 546.2 201.326 546.253 201.216C546.447 200.883 546.537 200.504 546.514 200.124H546.55Z" fill="#263238"/>
<path d="M549.437 198.229C549.437 197.904 549.561 197.591 549.781 197.361C550.002 197.131 550.302 197.002 550.614 197.002C550.926 197.002 551.226 197.131 551.447 197.361C551.667 197.591 551.791 197.904 551.791 198.229C551.791 198.555 551.667 198.867 551.447 199.097C551.226 199.327 550.926 199.457 550.614 199.457C550.302 199.457 550.002 199.327 549.781 199.097C549.561 198.867 549.437 198.555 549.437 198.229ZM551.163 198.229C551.163 197.811 550.935 197.462 550.601 197.462C550.266 197.462 550.065 197.811 550.065 198.215C550.065 198.634 550.293 198.969 550.614 198.969C550.935 198.969 551.216 198.69 551.216 198.229H551.163ZM550.253 201.717L553.544 197.029C553.571 196.987 553.606 196.953 553.648 196.929C553.69 196.904 553.737 196.891 553.785 196.89C553.823 196.888 553.861 196.894 553.897 196.908C553.933 196.922 553.965 196.943 553.993 196.971C554.02 196.998 554.042 197.031 554.057 197.068C554.072 197.104 554.08 197.143 554.08 197.183C554.08 197.254 554.056 197.323 554.013 197.378L550.721 202.066C550.693 202.109 550.655 202.144 550.611 202.168C550.566 202.192 550.517 202.205 550.467 202.205C550.392 202.205 550.321 202.174 550.268 202.119C550.215 202.064 550.186 201.99 550.186 201.912C550.186 201.841 550.209 201.772 550.253 201.717ZM552.461 200.894C552.443 200.721 552.46 200.545 552.512 200.38C552.563 200.214 552.647 200.062 552.759 199.932C552.871 199.803 553.007 199.699 553.16 199.628C553.313 199.557 553.478 199.521 553.645 199.521C553.812 199.521 553.977 199.557 554.129 199.628C554.282 199.699 554.419 199.803 554.53 199.932C554.642 200.062 554.726 200.214 554.778 200.38C554.829 200.545 554.847 200.721 554.829 200.894C554.846 201.068 554.827 201.245 554.775 201.412C554.723 201.578 554.639 201.732 554.527 201.863C554.415 201.995 554.278 202.1 554.125 202.173C553.972 202.246 553.806 202.286 553.638 202.289C553.47 202.288 553.303 202.25 553.15 202.178C552.996 202.105 552.86 201.999 552.748 201.867C552.637 201.736 552.554 201.581 552.504 201.413C552.455 201.245 552.44 201.068 552.461 200.894ZM554.187 200.894C554.187 200.475 553.959 200.14 553.638 200.14C553.317 200.14 553.103 200.475 553.103 200.88C553.103 201.312 553.33 201.647 553.651 201.647C553.973 201.647 554.187 201.298 554.187 200.894Z" fill="#263238"/>
</g>
<path d="M115.285 117.841L115.286 117.841C124.304 119.568 133.648 117.594 141.268 112.353C148.887 107.112 154.161 99.0332 155.934 89.8895L155.934 89.8889C157.25 83.0661 156.542 76.0117 153.901 69.6176C151.26 63.2234 146.804 57.7763 141.094 53.9661C135.385 50.1559 128.679 48.1542 121.826 48.2147C114.973 48.2751 108.281 50.3949 102.597 54.3047C96.9126 58.2144 92.4907 63.7384 89.8895 70.1776C87.2883 76.6168 86.6241 83.6829 87.9812 90.4828C89.3383 97.2828 92.6559 103.512 97.5159 108.382C102.376 113.252 108.56 116.544 115.285 117.841ZM110.714 56.1459C116.028 53.8642 121.88 53.2281 127.53 54.3173C135.103 55.7858 141.777 60.2441 146.086 66.7163C150.396 73.1889 151.99 81.1471 150.514 88.8447C149.408 94.5854 146.649 99.8733 142.588 104.04C138.527 108.207 133.347 111.064 127.703 112.253C122.058 113.442 116.203 112.909 110.877 110.722C105.55 108.534 100.991 104.79 97.7761 99.9622C94.561 95.1339 92.8348 89.4382 92.8169 83.5952C92.799 77.7521 94.4903 72.0253 97.6764 67.1391C100.863 62.253 105.4 58.4277 110.714 56.1459Z" fill="#FFC100" stroke="#182F43"/>
<path d="M93.1446 107.584L93.1478 107.581C93.7224 107.115 94.0942 106.446 94.1852 105.713C94.2762 104.979 94.0792 104.239 93.6362 103.647C93.1932 103.054 92.5383 102.655 91.8082 102.531C91.0781 102.407 90.3282 102.568 89.7146 102.981L89.7037 102.988L89.6932 102.996C89.6953 102.994 89.6876 103 89.6671 103.014C89.6456 103.029 89.6103 103.053 89.5579 103.089C89.4644 103.154 89.3286 103.247 89.1534 103.367C88.803 103.607 88.2953 103.955 87.6528 104.395C86.3677 105.275 84.5437 106.523 82.3603 108.017C80.3204 109.413 77.9681 111.022 75.449 112.746C72.5739 114.713 69.4817 116.828 66.3887 118.945C60.5872 122.914 54.7872 126.884 50.4276 129.87C48.2479 131.363 46.428 132.611 45.1479 133.49C44.508 133.93 44.0026 134.278 43.6546 134.518C43.4807 134.638 43.3456 134.732 43.2524 134.797C43.2059 134.829 43.1689 134.855 43.1425 134.874C43.1294 134.883 43.1175 134.892 43.1076 134.899L43.0905 134.912L43.0772 134.923L43.0771 134.923C43.0764 134.923 43.0756 134.924 43.0746 134.925C42.0644 135.741 41.4199 136.923 41.2827 138.213C41.1453 139.504 41.5272 140.797 42.344 141.809C43.1607 142.821 44.3459 143.471 45.6402 143.616C46.9346 143.762 48.2338 143.392 49.2537 142.586L49.2554 142.584L93.1446 107.584Z" fill="#FFC100" stroke="#182F43"/>
<ellipse cx="122" cy="83.5" rx="29" ry="29.5" fill="#9D9D9D" fill-opacity="0.5"/>
</g>
<defs>
<filter id="filter0_d_300_2480" x="79.2656" y="22.1465" width="212.056" height="408.124" filterUnits="userSpaceOnUse" color-interpolation-filters="sRGB">
<feFlood flood-opacity="0" result="BackgroundImageFix"/>
<feColorMatrix in="SourceAlpha" type="matrix" values="0 0 0 0 0 0 0 0 0 0 0 0 0 0 0 0 0 0 127 0" result="hardAlpha"/>
<feOffset dx="-5" dy="-5"/>
<feComposite in2="hardAlpha" operator="out"/>
<feColorMatrix type="matrix" values="0 0 0 0 0.666667 0 0 0 0 0.262745 0 0 0 0 0.215686 0 0 0 1 0"/>
<feBlend mode="normal" in2="BackgroundImageFix" result="effect1_dropShadow_300_2480"/>
<feBlend mode="normal" in="SourceGraphic" in2="effect1_dropShadow_300_2480" result="shape"/>
</filter>
<filter id="filter1_d_300_2480" x="310.266" y="54.5" width="212.056" height="408.124" filterUnits="userSpaceOnUse" color-interpolation-filters="sRGB">
<feFlood flood-opacity="0" result="BackgroundImageFix"/>
<feColorMatrix in="SourceAlpha" type="matrix" values="0 0 0 0 0 0 0 0 0 0 0 0 0 0 0 0 0 0 127 0" result="hardAlpha"/>
<feOffset dx="-5" dy="-5"/>
<feComposite in2="hardAlpha" operator="out"/>
<feColorMatrix type="matrix" values="0 0 0 0 0.0941176 0 0 0 0 0.184314 0 0 0 0 0.262745 0 0 0 1 0"/>
<feBlend mode="normal" in2="BackgroundImageFix" result="effect1_dropShadow_300_2480"/>
<feBlend mode="normal" in="SourceGraphic" in2="effect1_dropShadow_300_2480" result="shape"/>
</filter>
<filter id="filter2_d_300_2480" x="530" y="97.5469" width="138.293" height="123.487" filterUnits="userSpaceOnUse" color-interpolation-filters="sRGB">
<feFlood flood-opacity="0" result="BackgroundImageFix"/>
<feColorMatrix in="SourceAlpha" type="matrix" values="0 0 0 0 0 0 0 0 0 0 0 0 0 0 0 0 0 0 127 0" result="hardAlpha"/>
<feOffset dx="3" dy="3"/>
<feComposite in2="hardAlpha" operator="out"/>
<feColorMatrix type="matrix" values="0 0 0 0 0.0941176 0 0 0 0 0.184314 0 0 0 0 0.262745 0 0 0 1 0"/>
<feBlend mode="normal" in2="BackgroundImageFix" result="effect1_dropShadow_300_2480"/>
<feBlend mode="normal" in="SourceGraphic" in2="effect1_dropShadow_300_2480" result="shape"/>
</filter>
<clipPath id="clip0_300_2480">
<rect width="665" height="470" fill="white"/>
</clipPath>
</defs>
</svg>
