<svg width="107" height="108" viewBox="0 0 107 108" fill="none" xmlns="http://www.w3.org/2000/svg">
<path d="M29.4995 72.1084H23.0322C22.3461 72.1084 21.6881 72.3809 21.203 72.8661C20.7179 73.3512 20.4453 74.0092 20.4453 74.6953V81.1626C20.4453 81.8487 20.7179 82.5067 21.203 82.9919C21.6881 83.477 22.3461 83.7496 23.0322 83.7496H29.4995C30.1856 83.7496 30.8436 83.477 31.3288 82.9919C31.8139 82.5067 32.0865 81.8487 32.0865 81.1626V74.6953C32.0865 74.0092 31.8139 73.3512 31.3288 72.8661C30.8436 72.3809 30.1856 72.1084 29.4995 72.1084ZM29.4995 81.1626H23.0322V74.6953H29.4995V81.1626Z" fill="#FFC100" stroke="#182F43"/>
<path d="M43.7271 72.1084H37.2598C36.5737 72.1084 35.9157 72.3809 35.4305 72.8661C34.9454 73.3512 34.6729 74.0092 34.6729 74.6953V81.1626C34.6729 81.8487 34.9454 82.5067 35.4305 82.9919C35.9157 83.477 36.5737 83.7496 37.2598 83.7496H43.7271C44.4132 83.7496 45.0712 83.477 45.5563 82.9919C46.0415 82.5067 46.314 81.8487 46.314 81.1626V74.6953C46.314 74.0092 46.0415 73.3512 45.5563 72.8661C45.0712 72.3809 44.4132 72.1084 43.7271 72.1084ZM43.7271 81.1626H37.2598V74.6953H43.7271V81.1626Z" fill="#FFC100" stroke="#182F43"/>
<path d="M48.9033 81.1626C48.9033 81.8487 49.1759 82.5067 49.661 82.9919C50.1462 83.477 50.8042 83.7496 51.4902 83.7496H57.9576C58.6437 83.7496 59.3017 83.477 59.7868 82.9919C60.2719 82.5067 60.5445 81.8487 60.5445 81.1626V74.6953C60.5445 74.0092 60.2719 73.3512 59.7868 72.8661C59.3017 72.3809 58.6437 72.1084 57.9576 72.1084H51.4902C50.8042 72.1084 50.1462 72.3809 49.661 72.8661C49.1759 73.3512 48.9033 74.0092 48.9033 74.6953V81.1626ZM51.4902 74.6953H57.9576V81.1626H51.4902V74.6953Z" fill="#FFC100" stroke="#182F43"/>
<path d="M32.0865 60.4678C32.0865 59.7817 31.8139 59.1237 31.3288 58.6386C30.8436 58.1534 30.1856 57.8809 29.4995 57.8809H23.0322C22.3461 57.8809 21.6881 58.1534 21.203 58.6386C20.7179 59.1237 20.4453 59.7817 20.4453 60.4678V66.9351C20.4453 67.6212 20.7179 68.2792 21.203 68.7643C21.6881 69.2495 22.3461 69.522 23.0322 69.522H29.4995C30.1856 69.522 30.8436 69.2495 31.3288 68.7643C31.8139 68.2792 32.0865 67.6212 32.0865 66.9351V60.4678ZM29.4995 66.9351H23.0322V60.4678H29.4995V66.9351Z" fill="#FFC100" stroke="#182F43"/>
<path d="M46.3146 60.4693C46.3146 59.7832 46.042 59.1252 45.5569 58.6401C45.0717 58.1549 44.4137 57.8824 43.7276 57.8824H37.2603C36.5742 57.8824 35.9162 58.1549 35.4311 58.6401C34.9459 59.1252 34.6734 59.7832 34.6734 60.4693V66.9366C34.6734 67.6227 34.9459 68.2807 35.4311 68.7658C35.9162 69.251 36.5742 69.5235 37.2603 69.5235H43.7276C44.4137 69.5235 45.0717 69.251 45.5569 68.7658C46.042 68.2807 46.3146 67.6227 46.3146 66.9366V60.4693ZM43.7276 66.9366H37.2603V60.4693H43.7276V66.9366ZM32.0865 46.2412C32.0865 45.5551 31.8139 44.8971 31.3288 44.412C30.8436 43.9268 30.1856 43.6543 29.4995 43.6543H23.0322C22.3461 43.6543 21.6881 43.9268 21.203 44.412C20.7179 44.8971 20.4453 45.5551 20.4453 46.2412V52.7085C20.4453 53.3946 20.7179 54.0526 21.203 54.5378C21.6881 55.0229 22.3461 55.2955 23.0322 55.2955H29.4995C30.1856 55.2955 30.8436 55.0229 31.3288 54.5378C31.8139 54.0526 32.0865 53.3946 32.0865 52.7085V46.2412ZM29.4995 52.7085H23.0322V46.2412H29.4995V52.7085Z" fill="#FFC100" stroke="#182F43"/>
<path d="M32.0865 32.0117C32.0865 31.3256 31.8139 30.6676 31.3288 30.1825C30.8436 29.6974 30.1856 29.4248 29.4995 29.4248H23.0322C22.3461 29.4248 21.6881 29.6974 21.203 30.1825C20.7179 30.6676 20.4453 31.3256 20.4453 32.0117V38.479C20.4453 39.1651 20.7179 39.8231 21.203 40.3083C21.6881 40.7934 22.3461 41.066 23.0322 41.066H29.4995C30.1856 41.066 30.8436 40.7934 31.3288 40.3083C31.8139 39.8231 32.0865 39.1651 32.0865 38.479V32.0117ZM29.4995 38.479H23.0322V32.0117H29.4995V38.479Z" fill="#FFC100" stroke="#182F43"/>
<path d="M46.314 32.0117C46.314 31.3256 46.0415 30.6676 45.5563 30.1825C45.0712 29.6974 44.4132 29.4248 43.7271 29.4248H37.2598C36.5737 29.4248 35.9157 29.6974 35.4305 30.1825C34.9454 30.6676 34.6729 31.3256 34.6729 32.0117V38.479C34.6729 39.1651 34.9454 39.8231 35.4305 40.3083C35.9157 40.7934 36.5737 41.066 37.2598 41.066H43.7271C44.0879 41.0653 44.4446 40.9886 44.7739 40.841C45.1031 40.6933 45.3976 40.478 45.6382 40.209C44.9337 38.7099 44.8356 36.9964 45.3644 35.4267L46.176 33.0425C46.2147 32.9289 46.2695 32.8249 46.314 32.7146L46.314 32.0117ZM43.7271 38.479H37.2598V32.0117H43.7271V38.479Z" fill="#FFC100" stroke="#182F43"/>
<path d="M46.314 46.2412C46.314 45.5551 46.0415 44.8971 45.5563 44.412C45.0712 43.9268 44.4132 43.6543 43.7271 43.6543H37.2598C36.5737 43.6543 35.9157 43.9268 35.4305 44.412C34.9454 44.8971 34.6729 45.5551 34.6729 46.2412V52.7085C34.6729 53.3946 34.9454 54.0526 35.4305 54.5378C35.9157 55.0229 36.5737 55.2955 37.2598 55.2955H43.7271C44.3313 55.295 44.9162 55.0828 45.3802 54.6958C45.8442 54.3088 46.1579 53.7715 46.2668 53.1772C45.7705 51.756 45.7872 50.206 46.314 48.7959V46.2412ZM43.7271 52.7085H37.2598V46.2412H43.7271V52.7085ZM54.0789 60.4693C53.8434 60.2337 53.6084 59.9976 53.3823 59.7522C52.0764 59.737 50.8057 59.3265 49.7378 58.5747C49.4746 58.8152 49.2643 59.1079 49.1202 59.434C48.9761 59.7602 48.9015 60.1127 48.9009 60.4693V66.9366C48.9009 67.6227 49.1735 68.2807 49.6586 68.7659C50.1438 69.251 50.8018 69.5235 51.4879 69.5235H57.9552C58.4878 69.5225 59.007 69.3566 59.4416 69.0486C59.8762 68.7407 60.2048 68.3058 60.3823 67.8036C59.3504 67.1924 58.5098 66.3052 57.9552 65.2419V66.9366H51.4879V60.4693H54.0789Z" fill="#FFC100" stroke="#182F43"/>
<path d="M61.791 20.3487L59.5311 21.4607C58.7318 21.8553 58.0938 22.5145 57.7254 23.3262C57.3571 24.138 57.2811 25.0522 57.5104 25.9136C55.6507 27.4387 54.0527 29.2575 52.7796 31.298C51.8959 31.1816 50.9991 31.3747 50.2417 31.8445C49.4842 32.3144 48.9127 33.032 48.6244 33.8754L47.8127 36.2597C47.5265 37.1039 47.5414 38.0211 47.8549 38.8556C48.1683 39.69 48.761 40.3902 49.5322 40.8371C49.2958 43.2306 49.4521 45.6465 49.995 47.9896C49.2877 48.5321 48.79 49.3028 48.5866 50.1706C48.3831 51.0385 48.4864 51.9501 48.8789 52.7504L49.991 55.0104C50.385 55.8105 51.0441 56.4492 51.8561 56.8177C52.6682 57.1863 53.5829 57.2619 54.4444 57.0318C55.9695 58.8912 57.788 60.4889 59.8283 61.7619C59.7119 62.6456 59.905 63.5424 60.3748 64.2999C60.8447 65.0574 61.5623 65.6288 62.4057 65.9172L64.79 66.7289C65.6342 67.0151 66.5514 67.0002 67.3858 66.6867C68.2203 66.3732 68.9204 65.7806 69.3674 65.0094C70.0046 65.0724 70.6437 65.1054 71.2828 65.1127L70.2487 62.4811C69.3869 62.4237 68.5299 62.309 67.6834 62.1377L67.2236 63.4881C67.1703 63.6447 67.0867 63.7892 66.9776 63.9134C66.8684 64.0377 66.7359 64.1392 66.5875 64.2122C66.4391 64.2852 66.2778 64.3283 66.1127 64.339C65.9477 64.3497 65.7822 64.3277 65.6256 64.2744L63.2413 63.4627C62.9251 63.355 62.6646 63.1262 62.5172 62.8265C62.3697 62.5268 62.3473 62.1808 62.455 61.8647L62.9147 60.5142C59.821 58.9962 57.1871 56.6823 55.2833 53.8099L54.0034 54.4397C53.7037 54.5871 53.3577 54.6095 53.0415 54.5018C52.7254 54.3942 52.4649 54.1654 52.3174 53.8657L51.2054 51.6058C51.058 51.3061 51.0356 50.9601 51.1432 50.6439C51.2509 50.3277 51.4797 50.0673 51.7794 49.9198L53.0592 49.29C51.9451 46.0291 51.7189 42.5303 52.4039 39.1531L51.0534 38.6933C50.7373 38.5857 50.4768 38.3568 50.3293 38.0572C50.1819 37.7575 50.1595 37.4115 50.2671 37.0953L51.0789 34.711C51.1321 34.5544 51.2158 34.4099 51.3249 34.2856C51.4341 34.1614 51.5666 34.0599 51.715 33.9868C51.8634 33.9138 52.0247 33.8708 52.1897 33.8601C52.3548 33.8494 52.5203 33.8714 52.6769 33.9247L54.0274 34.3844C55.5453 31.2907 57.8592 28.6567 60.7316 26.7529L60.1019 25.4731C59.9544 25.1734 59.932 24.8274 60.0397 24.5112C60.1473 24.195 60.3762 23.9346 60.6758 23.7871L62.9358 22.6751C63.0842 22.6021 63.2455 22.559 63.4105 22.5483C63.5756 22.5376 63.7411 22.5596 63.8976 22.6129C64.0542 22.6662 64.1987 22.7498 64.323 22.859C64.4472 22.9681 64.5487 23.1007 64.6218 23.2491L65.2515 24.5289C68.5125 23.4148 72.0112 23.1886 75.3885 23.8736L75.8482 22.5232C75.9015 22.3666 75.9851 22.2221 76.0943 22.0978C76.2034 21.9736 76.336 21.8721 76.4844 21.799C76.6328 21.726 76.7941 21.6829 76.9591 21.6723C77.1242 21.6616 77.2897 21.6836 77.4462 21.7369L79.8306 22.5486C79.9871 22.6019 80.1317 22.6855 80.2559 22.7946C80.3802 22.9038 80.4817 23.0363 80.5547 23.1847C80.6277 23.3331 80.6708 23.4944 80.6815 23.6595C80.6921 23.8245 80.6702 23.99 80.6169 24.1466L80.1572 25.497C83.2509 27.015 85.8848 29.3289 87.7886 32.2013L89.0685 31.5716C89.3682 31.4241 89.7142 31.4018 90.0303 31.5094C90.3465 31.617 90.607 31.8459 90.7545 32.1455L91.8665 34.4055C92.0139 34.7052 92.0363 35.0512 91.9287 35.3674C91.821 35.6836 91.5922 35.944 91.2925 36.0915L90.0127 36.7212C91.1268 39.9822 91.353 43.4809 90.6679 46.8582L92.0184 47.3179C92.3346 47.4256 92.5951 47.6544 92.7425 47.9541C92.89 48.2538 92.9124 48.5998 92.8047 48.9159L91.993 51.3003C91.8853 51.6165 91.6565 51.8769 91.3568 52.0244C91.0572 52.1719 90.7112 52.1942 90.395 52.0866L89.0445 51.6268C88.2028 53.3358 87.1137 54.9113 85.8123 56.3026L86.8519 58.9481C88.1694 57.6842 89.325 56.2618 90.2922 54.7133C91.1759 54.8297 92.0727 54.6366 92.8302 54.1667C93.5876 53.6969 94.1591 52.9793 94.4474 52.1359L95.2592 49.7515C95.5453 48.9073 95.5304 47.9901 95.217 47.1557C94.9035 46.3213 94.3108 45.6211 93.5396 45.1741C93.776 42.781 93.6197 40.3652 93.0771 38.0225C93.7851 37.4803 94.2833 36.7094 94.4867 35.8412C94.6902 34.973 94.5863 34.061 94.1929 33.2608L93.0808 31.0008C92.6869 30.2008 92.0278 29.5621 91.2157 29.1935C90.4037 28.825 89.489 28.7493 88.6275 28.9794C87.1024 27.1201 85.2838 25.5223 83.2436 24.2494C83.36 23.3656 83.1668 22.4689 82.697 21.7114C82.2272 20.9539 81.5096 20.3825 80.6662 20.0941L78.2818 19.2824C77.4377 18.9962 76.5204 19.0111 75.686 19.3246C74.8516 19.638 74.1514 20.2307 73.7044 21.0019C71.3112 20.7656 68.8956 20.9218 66.5528 21.4644C66.0106 20.7564 65.2397 20.2583 64.3715 20.0548C63.5032 19.8514 62.5913 19.9552 61.791 20.3487Z" fill="#FFC100" stroke="#182F43"/>
<path d="M90.4936 91.1122C91.2009 90.8376 91.8471 90.4262 92.3951 89.9014C92.9432 89.3767 93.3823 88.7489 93.6873 88.0542C93.9924 87.3594 94.1573 86.6113 94.1727 85.8527C94.1882 85.0941 94.0537 84.3399 93.7772 83.6334L81.7293 52.9738C83.6283 51.1236 84.9885 48.7919 85.6645 46.2281C86.3405 43.6644 86.3067 40.9652 85.5668 38.4192C84.8269 35.8732 83.4088 33.5762 81.464 31.7741C79.5193 29.972 77.1213 28.7325 74.5264 28.1883C74.0691 28.0903 73.5938 28.1181 73.1511 28.2688C72.7083 28.4195 72.3147 28.6873 72.0121 29.0439C71.7095 29.4005 71.5092 29.8324 71.4326 30.2938C71.3559 30.7551 71.4058 31.2286 71.5768 31.6639L74.8408 39.9702L71.8641 43.674L67.1439 42.9687L63.8778 34.6569C63.707 34.2222 63.4218 33.8419 63.0523 33.5563C62.6828 33.2707 62.2429 33.0904 61.7793 33.0346C61.3157 32.9788 60.8456 33.0495 60.4189 33.2393C59.9922 33.4291 59.6248 33.7308 59.3557 34.1125C57.8242 36.2783 56.9104 38.8197 56.7119 41.4649C56.5134 44.11 57.0379 46.7594 58.229 49.1295C59.4202 51.4996 61.2333 53.5012 63.4744 54.9203C65.7155 56.3393 68.3003 57.1224 70.9521 57.1857L83.0026 87.8519C83.5657 89.2759 84.6704 90.4187 86.0745 91.0298C87.4786 91.6409 89.0677 91.6705 90.4936 91.1122ZM85.4103 86.9058L72.6896 54.5342C70.049 54.82 67.3875 54.2334 65.1117 52.864C62.8359 51.4946 61.0711 49.4177 60.0869 46.9508C59.3573 45.0931 59.1016 43.0831 59.3431 41.1019C59.5846 39.1208 60.3156 37.231 61.4701 35.603L65.283 45.3062L72.9503 46.452L77.7974 40.4209L73.9845 30.7178C76.2613 31.1935 78.3515 32.3186 80.0025 33.9569C81.6535 35.5952 82.7946 37.6767 83.288 39.9497C83.7813 42.2227 83.6057 44.59 82.7825 46.7653C81.9592 48.9407 80.5235 50.831 78.6488 52.2078L91.3695 84.5795C91.6718 85.3684 91.6498 86.245 91.3081 87.0177C90.9664 87.7904 90.3329 88.3966 89.5458 88.7038C88.7588 89.0111 87.8821 88.9944 87.1073 88.6575C86.3324 88.3207 85.7224 87.691 85.4103 86.9058Z" fill="#AA4337" stroke="#182F43"/>
<path d="M2.33741 97.9776C3.05177 97.9776 3.63087 97.3984 3.63087 96.6841C3.63087 95.9697 3.05177 95.3906 2.33741 95.3906C1.62305 95.3906 1.04395 95.9697 1.04395 96.6841C1.04395 97.3984 1.62305 97.9776 2.33741 97.9776Z" fill="#FFC100" stroke="#182F43"/>
<path d="M8.15748 95.3916H6.21729C5.87424 95.3916 5.54525 95.5279 5.30267 95.7704C5.0601 96.013 4.92383 96.342 4.92383 96.6851C4.92383 97.0281 5.0601 97.3571 5.30267 97.5997C5.54525 97.8422 5.87424 97.9785 6.21729 97.9785H8.15748C8.50053 97.9785 8.82953 97.8422 9.0721 97.5997C9.31467 97.3571 9.45095 97.0281 9.45095 96.6851C9.45095 96.342 9.31467 96.013 9.0721 95.7704C8.82953 95.5279 8.50053 95.3916 8.15748 95.3916ZM104.52 95.3916H102.58C102.237 95.3916 101.908 95.5279 101.666 95.7704C101.423 96.013 101.287 96.342 101.287 96.6851C101.287 97.0281 101.423 97.3571 101.666 97.5997C101.908 97.8422 102.237 97.9785 102.58 97.9785H104.52C104.863 97.9785 105.192 97.8422 105.435 97.5997C105.678 97.3571 105.814 97.0281 105.814 96.6851C105.814 96.342 105.678 96.013 105.435 95.7704C105.192 95.5279 104.863 95.3916 104.52 95.3916Z" fill="#FFC100" stroke="#182F43"/>
<path d="M77.4566 100.564H72.0838C71.7586 100.591 71.4552 100.738 71.2339 100.978C71.0127 101.217 70.8898 101.532 70.8898 101.858C70.8898 102.184 71.0127 102.498 71.2339 102.738C71.4552 102.978 71.7586 103.125 72.0838 103.151H77.4566C77.7818 103.125 78.0852 102.978 78.3065 102.738C78.5277 102.498 78.6506 102.184 78.6506 101.858C78.6506 101.532 78.5277 101.217 78.3065 100.978C78.0852 100.738 77.7818 100.591 77.4566 100.564ZM38.6528 100.564H33.2799C32.9547 100.591 32.6513 100.738 32.4301 100.978C32.2088 101.217 32.0859 101.532 32.0859 101.858C32.0859 102.184 32.2088 102.498 32.4301 102.738C32.6513 102.978 32.9547 103.125 33.2799 103.151H38.6528C38.9779 103.125 39.2814 102.978 39.5026 102.738C39.7239 102.498 39.8467 102.184 39.8467 101.858C39.8467 101.532 39.7239 101.217 39.5026 100.978C39.2814 100.738 38.9779 100.591 38.6528 100.564ZM68.3029 100.564H42.4337C42.0906 100.564 41.7616 100.701 41.519 100.943C41.2765 101.186 41.1402 101.515 41.1402 101.858C41.1402 102.201 41.2765 102.53 41.519 102.773C41.7616 103.015 42.0906 103.151 42.4337 103.151H52.7425V104.445H47.6075C47.2645 104.445 46.9355 104.581 46.6929 104.824C46.4503 105.066 46.314 105.395 46.314 105.738C46.314 106.081 46.4503 106.41 46.6929 106.653C46.9355 106.896 47.2645 107.032 47.6075 107.032H63.7758C64.1188 107.032 64.4478 106.896 64.6904 106.653C64.933 106.41 65.0692 106.081 65.0692 105.738C65.0692 105.395 64.933 105.066 64.6904 104.824C64.4478 104.581 64.1188 104.445 63.7758 104.445H57.994V103.151H68.3029C68.6459 103.151 68.9749 103.015 69.2175 102.773C69.4601 102.53 69.5964 102.201 69.5964 101.858C69.5964 101.515 69.4601 101.186 69.2175 100.943C68.9749 100.701 68.6459 100.564 68.3029 100.564Z" fill="#FFC100" stroke="#182F43"/>
<path d="M98.5211 95.3915H65.0202C65.4773 94.606 65.7181 93.7134 65.718 92.8046V69.5094C65.1191 69.4817 64.5271 69.3702 63.9591 69.1784L63.1311 68.8965V90.2177H17.8599V22.9576H55.1141C55.4289 21.982 55.9712 21.0953 56.6963 20.3707H17.8599C17.8607 19.6848 18.1335 19.0273 18.6184 18.5423C19.1034 18.0573 19.761 17.7845 20.4468 17.7838H60.5442C60.7271 17.7844 60.9095 17.8045 61.0882 17.8437C62.2809 17.3474 63.5982 17.2334 64.8584 17.5175C64.3874 16.8039 63.7467 16.2184 62.9938 15.8134C62.2408 15.4084 61.3991 15.1965 60.5442 15.1968H20.4468C19.0746 15.1968 17.7586 15.7419 16.7884 16.7122C15.8181 17.6825 15.273 18.9985 15.273 20.3707V92.8046C15.2729 93.7134 15.5137 94.606 15.9708 95.3915H12.2196C12.0355 95.3675 11.8485 95.383 11.671 95.437C11.4934 95.491 11.3294 95.5822 11.19 95.7046C11.0505 95.8271 10.9388 95.9778 10.8622 96.1469C10.7857 96.3159 10.7461 96.4994 10.7461 96.685C10.7461 96.8705 10.7857 97.054 10.8622 97.223C10.9388 97.3921 11.0505 97.5429 11.19 97.6653C11.3294 97.7877 11.4934 97.879 11.671 97.933C11.8485 97.987 12.0355 98.0025 12.2196 97.9784H98.5211C98.7051 98.0025 98.8921 97.987 99.0696 97.933C99.2472 97.879 99.4112 97.7877 99.5506 97.6653C99.6901 97.5429 99.8018 97.3921 99.8784 97.223C99.9549 97.054 99.9945 96.8705 99.9945 96.685C99.9945 96.4994 99.9549 96.3159 99.8784 96.1469C99.8018 95.9778 99.6901 95.8271 99.5506 95.7046C99.4112 95.5822 99.2472 95.491 99.0696 95.437C98.8921 95.383 98.7051 95.3675 98.5211 95.3915ZM20.4468 95.3915C19.761 95.3907 19.1034 95.1179 18.6184 94.633C18.1335 94.148 17.8607 93.4904 17.8599 92.8046H63.1311C63.1303 93.4904 62.8575 94.148 62.3725 94.633C61.8876 95.1179 61.23 95.3907 60.5442 95.3915H20.4468ZM45.2197 4.84914C45.6034 4.84914 45.9785 4.73535 46.2976 4.52216C46.6166 4.30896 46.8653 4.00595 47.0122 3.65142C47.159 3.2969 47.1974 2.90679 47.1226 2.53043C47.0477 2.15407 46.8629 1.80836 46.5916 1.53702C46.3203 1.26568 45.9745 1.08089 45.5982 1.00603C45.2218 0.931168 44.8317 0.969591 44.4772 1.11644C44.1227 1.26329 43.8197 1.51197 43.6065 1.83103C43.3933 2.15009 43.2795 2.52521 43.2795 2.90894C43.2801 3.42334 43.4847 3.91649 43.8484 4.28022C44.2121 4.64395 44.7053 4.84855 45.2197 4.84914ZM45.2197 1.93885C45.4115 1.93885 45.5991 1.99574 45.7586 2.10234C45.9182 2.20893 46.0425 2.36044 46.1159 2.5377C46.1894 2.71497 46.2086 2.91002 46.1711 3.0982C46.1337 3.28638 46.0413 3.45924 45.9056 3.59491C45.77 3.73058 45.5971 3.82297 45.4089 3.8604C45.2207 3.89783 45.0257 3.87862 44.8484 3.8052C44.6712 3.73177 44.5197 3.60743 44.4131 3.4479C44.3065 3.28837 44.2496 3.10081 44.2496 2.90894C44.2498 2.65174 44.3521 2.40514 44.534 2.22326C44.7159 2.04139 44.9625 1.9391 45.2197 1.93885ZM95.4676 22.0029C95.2118 22.0029 94.9617 22.0788 94.749 22.2209C94.5363 22.3631 94.3705 22.5651 94.2726 22.8014C94.1747 23.0378 94.1491 23.2978 94.199 23.5487C94.2489 23.7997 94.3721 24.0301 94.553 24.211C94.7339 24.3919 94.9644 24.5151 95.2153 24.565C95.4662 24.6149 95.7263 24.5893 95.9626 24.4914C96.199 24.3935 96.401 24.2277 96.5431 24.015C96.6852 23.8023 96.7611 23.5522 96.7611 23.2964C96.7607 22.9535 96.6243 22.6247 96.3818 22.3822C96.1393 22.1397 95.8106 22.0033 95.4676 22.0029ZM95.4676 23.9431C95.3397 23.9431 95.2147 23.9052 95.1083 23.8341C95.002 23.7631 94.9191 23.6621 94.8701 23.5439C94.8212 23.4257 94.8084 23.2957 94.8333 23.1702C94.8583 23.0448 94.9199 22.9295 95.0103 22.8391C95.1008 22.7487 95.216 22.6871 95.3415 22.6621C95.4669 22.6371 95.597 22.65 95.7151 22.6989C95.8333 22.7479 95.9343 22.8307 96.0054 22.9371C96.0764 23.0435 96.1144 23.1685 96.1144 23.2964C96.1142 23.4679 96.046 23.6323 95.9248 23.7535C95.8035 23.8748 95.6391 23.943 95.4676 23.9431ZM95.4676 2.58558C95.2118 2.58558 94.9617 2.66144 94.749 2.80357C94.5363 2.94569 94.3705 3.14771 94.2726 3.38405C94.1747 3.6204 94.1491 3.88048 94.199 4.13138C94.2489 4.38229 94.3721 4.61276 94.553 4.79366C94.7339 4.97455 94.9644 5.09774 95.2153 5.14765C95.4662 5.19756 95.7263 5.17194 95.9626 5.07404C96.199 4.97615 96.401 4.81036 96.5431 4.59765C96.6852 4.38494 96.7611 4.13486 96.7611 3.87904C96.7607 3.53611 96.6243 3.20734 96.3818 2.96486C96.1393 2.72237 95.8106 2.58597 95.4676 2.58558ZM95.4676 4.52577C95.3397 4.52577 95.2147 4.48784 95.1083 4.41678C95.002 4.34571 94.9191 4.24471 94.8701 4.12653C94.8212 4.00836 94.8084 3.87832 94.8333 3.75287C94.8583 3.62742 94.9199 3.51218 95.0103 3.42173C95.1008 3.33129 95.216 3.26969 95.3415 3.24474C95.4669 3.21978 95.597 3.23259 95.7151 3.28154C95.8333 3.33049 95.9343 3.41338 96.0054 3.51974C96.0764 3.62609 96.1144 3.75113 96.1144 3.87904C96.1142 4.05051 96.046 4.21491 95.9248 4.33616C95.8035 4.45741 95.6391 4.5256 95.4676 4.52577ZM104.845 35.8922C104.589 35.8922 104.339 35.9681 104.127 36.1102C103.914 36.2523 103.748 36.4544 103.65 36.6907C103.552 36.9271 103.527 37.1871 103.577 37.438C103.627 37.6889 103.75 37.9194 103.931 38.1003C104.112 38.2812 104.342 38.4044 104.593 38.4543C104.844 38.5042 105.104 38.4786 105.34 38.3807C105.577 38.2828 105.779 38.117 105.921 37.9043C106.063 37.6916 106.139 37.4415 106.139 37.1857C106.138 36.8428 106.002 36.514 105.759 36.2715C105.517 36.029 105.188 35.8926 104.845 35.8922ZM104.845 37.8324C104.717 37.8324 104.592 37.7945 104.486 37.7234C104.38 37.6524 104.297 37.5514 104.248 37.4332C104.199 37.315 104.186 37.185 104.211 37.0595C104.236 36.9341 104.297 36.8188 104.388 36.7284C104.478 36.6379 104.594 36.5763 104.719 36.5514C104.845 36.5264 104.975 36.5392 105.093 36.5882C105.211 36.6371 105.312 36.72 105.383 36.8264C105.454 36.9327 105.492 37.0578 105.492 37.1857C105.492 37.3572 105.424 37.5216 105.302 37.6428C105.181 37.7641 105.017 37.8323 104.845 37.8324ZM27.5609 10.9809C27.5609 10.7251 27.485 10.475 27.3429 10.2623C27.2008 10.0496 26.9987 9.88379 26.7624 9.7859C26.526 9.688 26.266 9.66238 26.0151 9.71229C25.7642 9.7622 25.5337 9.88539 25.3528 10.0663C25.1719 10.2472 25.0487 10.4776 24.9988 10.7286C24.9489 10.9795 24.9745 11.2395 25.0724 11.4759C25.1703 11.7122 25.3361 11.9142 25.5488 12.0564C25.7615 12.1985 26.0116 12.2744 26.2674 12.2744C26.6103 12.274 26.9391 12.1376 27.1816 11.8951C27.4241 11.6526 27.5605 11.3238 27.5609 10.9809ZM25.6207 10.9809C25.6207 10.853 25.6586 10.728 25.7297 10.6216C25.8007 10.5152 25.9017 10.4323 26.0199 10.3834C26.1381 10.3344 26.2681 10.3216 26.3936 10.3466C26.519 10.3715 26.6343 10.4331 26.7247 10.5236C26.8152 10.614 26.8768 10.7293 26.9017 10.8547C26.9267 10.9802 26.9139 11.1102 26.8649 11.2284C26.816 11.3466 26.7331 11.4476 26.6267 11.5186C26.5204 11.5897 26.3953 11.6276 26.2674 11.6276C26.0959 11.6275 25.9315 11.5593 25.8103 11.438C25.689 11.3168 25.6208 11.1524 25.6207 10.9809Z" fill="#FFC100" stroke="#182F43"/>
<path d="M9.49198 26.8733L10.4326 25.619L10.7716 25.167L10.2817 24.8855L9.25413 24.295L8.76722 24.0152L8.5456 24.5312L7.93853 25.9446L7.32332 24.5441L7.09819 24.0315L6.61423 24.3129L5.56803 24.9212L5.07884 25.2056L5.4213 25.656L6.33603 26.8592L4.97701 26.6813L4.41211 26.6073V27.1771V28.358V28.9273L4.9766 28.8539L6.34498 28.6759L5.42286 29.8759L5.09117 30.3076L5.54942 30.6015L6.52559 31.2275L7.01154 31.5391L7.25061 31.0137L7.90976 29.5649L8.50946 30.9835L8.73014 31.5055L9.22057 31.2215L10.2996 30.5966L10.7989 30.3074L10.4417 29.8543L9.51837 28.6835L10.9301 28.8544L11.4902 28.9222V28.358V27.1771V26.6056L10.9238 26.6815L9.49198 26.8733Z" fill="#FFC100" stroke="#182F43"/>
<path d="M5.64842 6.86814L4.4947 8.2545L4.11923 8.70569L4.62438 9.00463L5.7789 9.68788L6.24351 9.96283L6.48208 9.47853L7.35408 7.70834L8.14847 9.44458L8.36966 9.92801L8.83863 9.67763L10.1144 8.99649L10.6633 8.70344L10.259 8.2305L9.10284 6.87818L10.9354 7.08249L11.4908 7.14441V6.58557V5.29686V4.7311L10.9293 4.80066L9.07308 5.0306L10.2468 3.58549L10.6302 3.11347L10.093 2.82854L8.88009 2.18523L8.41499 1.93856L8.19261 2.41576L7.38556 4.14761L6.56809 2.43091L6.3428 1.95779L5.88077 2.20502L4.64314 2.86724L4.10522 3.15507L4.49309 3.62598L5.6376 5.01553L3.86792 4.80051L3.30762 4.73244V5.29686V6.58557V7.14919L3.86722 7.082L5.64842 6.86814Z" fill="#FFC100" stroke="#182F43"/>
<path d="M78.1737 8.4915L77.5595 9.79158L76.9365 8.50296L76.7109 8.03627L76.2527 8.27856L75.2062 8.83183L74.66 9.12062L75.0564 9.5946L75.8878 10.5888L74.5922 10.4348L74.0332 10.3683V10.9313V12.0044V12.5672L74.5921 12.5009L75.897 12.3462L75.058 13.3391L74.6736 13.7941L75.1883 14.0939L76.1649 14.6627L76.6253 14.9308L76.8637 14.4543L77.5314 13.1196L78.1388 14.4249L78.3604 14.9008L78.825 14.6564L79.9037 14.0888L80.462 13.7951L80.0486 13.3186L79.2107 12.353L80.5565 12.5014L81.1113 12.5626V12.0044V10.9313V10.3667L80.5508 10.4349L79.1806 10.6018L80.0399 9.55974L80.4323 9.08376L79.8854 8.79837L78.8571 8.2618L78.3959 8.02115L78.1737 8.4915Z" fill="#FFC100" stroke="#182F43"/>
</svg>
