<svg width="108" height="109" viewBox="0 0 108 109" fill="none" xmlns="http://www.w3.org/2000/svg">
<path d="M2.29635 99.374C3.28845 99.374 4.09271 98.5697 4.09271 97.5776C4.09271 96.5855 3.28845 95.7812 2.29635 95.7812C1.30425 95.7812 0.5 96.5855 0.5 97.5776C0.5 98.5697 1.30425 99.374 2.29635 99.374Z" fill="#FFC100" stroke="#182F43"/>
<path d="M8.13053 95.7803H6.186C5.70958 95.7803 5.25267 95.9695 4.91579 96.3064C4.57891 96.6433 4.38965 97.1002 4.38965 97.5766C4.38965 98.0531 4.57891 98.51 4.91579 98.8468C5.25267 99.1837 5.70958 99.373 6.186 99.373H8.13053C8.60695 99.373 9.06386 99.1837 9.40075 98.8468C9.73763 98.51 9.92688 98.0531 9.92688 97.5766C9.92688 97.1002 9.73763 96.6433 9.40075 96.3064L9.04719 96.66L9.40074 96.3064C9.06386 95.9695 8.60695 95.7803 8.13053 95.7803ZM105.979 96.3064V96.3064C105.642 95.9695 105.185 95.7803 104.709 95.7803H102.764C102.288 95.7803 101.831 95.9695 101.494 96.3064C101.157 96.6433 100.968 97.1002 100.968 97.5766C100.968 98.0531 101.157 98.51 101.494 98.8468C101.831 99.1837 102.288 99.373 102.764 99.373H104.709C105.185 99.373 105.642 99.1837 105.979 98.8468C106.316 98.51 106.505 98.0531 106.505 97.5766C106.505 97.1002 106.316 96.6433 105.979 96.3064Z" fill="#FFC100" stroke="#182F43"/>
<path d="M77.6263 100.967L77.6064 100.966H77.5864H72.2015H72.1815L72.1616 100.967C71.7104 101.004 71.2894 101.208 70.9823 101.541C70.6753 101.874 70.5049 102.31 70.5049 102.762C70.5049 103.215 70.6753 103.651 70.9823 103.983C71.2894 104.316 71.7104 104.521 72.1616 104.557L72.1815 104.559H72.2015H77.5864H77.6064L77.6263 104.557C78.0775 104.521 78.4985 104.316 78.8055 103.983C79.1125 103.651 79.283 103.215 79.283 102.762C79.283 102.31 79.1125 101.874 78.8055 101.541C78.4985 101.208 78.0775 101.004 77.6263 100.967ZM38.7357 100.967L38.7158 100.966H38.6958H33.3109H33.2909L33.271 100.967C32.8198 101.004 32.3988 101.208 32.0917 101.541C31.7847 101.874 31.6143 102.31 31.6143 102.762C31.6143 103.215 31.7847 103.651 32.0917 103.983C32.3988 104.316 32.8198 104.521 33.271 104.557L33.2909 104.559H33.3109H38.6958H38.7158L38.7357 104.557C39.1869 104.521 39.6079 104.316 39.9149 103.983C40.2219 103.651 40.3924 103.215 40.3924 102.762C40.3924 102.31 40.2219 101.874 39.9149 101.541L39.5475 101.88L39.9149 101.541C39.6079 101.208 39.1869 101.004 38.7357 100.967ZM68.4122 100.966H42.4851C42.0087 100.966 41.5518 101.155 41.2149 101.492C40.878 101.829 40.6887 102.286 40.6887 102.762C40.6887 103.239 40.878 103.696 41.2149 104.032C41.5518 104.369 42.0087 104.559 42.4851 104.559H52.317V104.855H47.6705C47.1941 104.855 46.7372 105.044 46.4003 105.381C46.0634 105.718 45.8742 106.175 45.8742 106.651C45.8742 107.128 46.0634 107.585 46.4003 107.921C46.7372 108.258 47.1941 108.448 47.6705 108.448H63.8749C64.3513 108.448 64.8083 108.258 65.1451 107.921C65.482 107.585 65.6713 107.128 65.6713 106.651C65.6713 106.175 65.482 105.718 65.1451 105.381C64.8083 105.044 64.3513 104.855 63.8749 104.855H58.5802V104.559H68.4122C68.8886 104.559 69.3455 104.369 69.6824 104.032C70.0193 103.696 70.2085 103.239 70.2085 102.762C70.2085 102.286 70.0193 101.829 69.6824 101.492C69.3455 101.155 68.8886 100.966 68.4122 100.966Z" fill="#FFC100" stroke="#182F43"/>
<path d="M98.6948 96.2801H71.0038V87.251C71.0032 86.9112 70.9356 86.5748 70.8049 86.2611C70.6743 85.9474 70.4831 85.6625 70.2423 85.4227C70.0016 85.1829 69.716 84.9928 69.4017 84.8634C69.0875 84.734 68.7509 84.6677 68.4111 84.6684H65.1702V65.9444H87.2082C87.5513 65.9441 87.8804 66.0799 88.1234 66.322C88.3664 66.5641 88.5035 66.8927 88.5046 67.2357V71.7553H85.2637C84.9239 71.7546 84.5873 71.8209 84.2731 71.9503C83.9588 72.0798 83.6732 72.2698 83.4325 72.5096C83.1917 72.7494 83.0005 73.0343 82.8699 73.348C82.7392 73.6617 82.6716 73.9981 82.671 74.3379V83.3771C82.6723 84.0634 82.9462 84.721 83.4325 85.2054C83.9187 85.6897 84.5774 85.961 85.2637 85.9597H94.3382C95.0245 85.961 95.6832 85.6897 96.1694 85.2054C96.6556 84.721 96.9295 84.0634 96.9309 83.3771V74.3379C96.9302 73.9981 96.8626 73.6617 96.732 73.348C96.6013 73.0343 96.4102 72.7494 96.1694 72.5096C95.9286 72.2698 95.643 72.0797 95.3288 71.9503C95.0146 71.8209 94.678 71.7546 94.3382 71.7553H91.0973V67.2357C91.0942 66.2066 90.6829 65.2208 89.9538 64.4945C89.2247 63.7683 88.2373 63.3609 87.2082 63.3618H73.5965V57.5509H76.8374C77.5237 57.5522 78.1824 57.2809 78.6686 56.7965C79.1548 56.3122 79.4288 55.6545 79.4301 54.9682V45.9291C79.4294 45.5893 79.3619 45.2529 79.2312 44.9392C79.1006 44.6255 78.9094 44.3406 78.6686 44.1008C78.4279 43.861 78.1422 43.6709 77.828 43.5415C77.5138 43.4121 77.1772 43.3458 76.8374 43.3465H73.5965V40.1182C73.5934 39.0891 73.1822 38.1033 72.4531 37.3771C71.724 36.6508 70.7365 36.2434 69.7075 36.2443H56.7439V30.1106H59.9848C60.6711 30.1119 61.3298 29.8406 61.816 29.3562C62.3023 28.8719 62.5762 28.2142 62.5775 27.5279V18.4888C62.5769 18.149 62.5093 17.8126 62.3786 17.4989C62.248 17.1852 62.0568 16.9003 61.816 16.6605C61.5753 16.4207 61.2897 16.2306 60.9754 16.1012C60.6612 15.9718 60.3246 15.9055 59.9848 15.9062H50.9103C50.5705 15.9055 50.2339 15.9718 49.9197 16.1012C49.6055 16.2306 49.3199 16.4207 49.0791 16.6605C48.8383 16.9003 48.6472 17.1852 48.5165 17.4989C48.3859 17.8126 48.3183 18.149 48.3176 18.4888V27.5279C48.319 28.2142 48.5929 28.8719 49.0791 29.3562C49.5653 29.8406 50.224 30.1119 50.9103 30.1106H54.1512V36.2443H41.1877C40.1586 36.2434 39.1712 36.6508 38.4421 37.3771C37.713 38.1033 37.3018 39.0891 37.2986 40.1182V43.3465H34.0578C33.7179 43.3458 33.3813 43.4121 33.0671 43.5415C32.7529 43.6709 32.4673 43.861 32.2265 44.1008C31.9858 44.3406 31.7946 44.6255 31.6639 44.9392C31.5333 45.2529 31.4657 45.5893 31.465 45.9291V54.9683C31.4664 55.6546 31.7403 56.3122 32.2265 56.7966C32.7127 57.2809 33.3715 57.5522 34.0578 57.5509H37.2986V63.3618H23.6869C22.6578 63.3609 21.6704 63.7683 20.9413 64.4946C20.2122 65.2208 19.801 66.2067 19.7979 67.2357V71.7553H16.557C16.2172 71.7546 15.8805 71.8209 15.5663 71.9503C15.2521 72.0798 14.9665 72.2698 14.7257 72.5096C14.485 72.7495 14.2938 73.0344 14.1632 73.3481C14.0325 73.6617 13.9649 73.9981 13.9643 74.3379V83.3771C13.9656 84.0634 14.2395 84.721 14.7258 85.2054C15.212 85.6897 15.8707 85.961 16.557 85.9597H25.6315C26.3177 85.961 26.9765 85.6897 27.4627 85.2054C27.9489 84.721 28.2228 84.0634 28.2242 83.3771V74.3379C28.2235 73.9981 28.1559 73.6617 28.0253 73.348C27.8946 73.0343 27.7034 72.7494 27.4627 72.5096C27.2219 72.2698 26.9363 72.0797 26.6221 71.9503C26.3079 71.8209 25.9713 71.7546 25.6315 71.7553H22.3906V67.2357C22.3916 66.8927 22.5287 66.5641 22.7717 66.322C23.0148 66.0799 23.3439 65.9441 23.6869 65.9444H45.7249V84.6684H42.484C42.1442 84.6677 41.8076 84.734 41.4934 84.8634C41.1792 84.9928 40.8936 85.1829 40.6528 85.4227C40.4121 85.6625 40.2209 85.9474 40.0902 86.2611C39.9596 86.5748 39.892 86.9112 39.8913 87.251V96.2801H12.2004C12.016 96.256 11.8285 96.2715 11.6506 96.3256C11.4726 96.3798 11.3083 96.4712 11.1685 96.5939C11.0287 96.7166 10.9168 96.8677 10.84 97.0372C10.7633 97.2066 10.7236 97.3904 10.7236 97.5764C10.7236 97.7624 10.7633 97.9463 10.84 98.1157C10.9168 98.2851 11.0287 98.4362 11.1685 98.559C11.3083 98.6817 11.4726 98.7731 11.6506 98.8272C11.8285 98.8813 12.016 98.8969 12.2004 98.8728H98.6948C98.8792 98.8969 99.0666 98.8813 99.2446 98.8272C99.4225 98.7731 99.5869 98.6817 99.7266 98.559C99.8664 98.4362 99.9784 98.2851 100.055 98.1157C100.132 97.9463 100.172 97.7624 100.172 97.5764C100.172 97.3904 100.132 97.2066 100.055 97.0372C99.9784 96.8677 99.8664 96.7166 99.7266 96.5939C99.5869 96.4712 99.4225 96.3798 99.2446 96.3256C99.0666 96.2715 98.8792 96.256 98.6948 96.2801ZM94.3382 74.3379V83.3771H85.2637V74.3379H94.3382ZM25.6315 74.3379V83.3771H16.557V74.3379H25.6315ZM68.4111 87.251V96.2801H59.3366V87.251H68.4111ZM51.5585 84.6684H48.3176V65.9444H62.5775V84.6684H59.3366C58.9968 84.6677 58.6602 84.734 58.346 84.8634C58.0318 84.9928 57.7462 85.1829 57.5054 85.4227C57.2646 85.6625 57.0735 85.9474 56.9428 86.2611C56.8122 86.5748 56.7446 86.9112 56.7439 87.251V96.2801H54.1512V87.251C54.1506 86.9112 54.083 86.5748 53.9523 86.2611C53.8217 85.9474 53.6305 85.6625 53.3897 85.4227C53.149 85.1829 52.8634 84.9928 52.5492 84.8634C52.235 84.734 51.8983 84.6677 51.5585 84.6684ZM76.8374 45.9291V54.9683H67.7629V45.9291L76.8374 45.9291ZM50.9103 27.5279V18.4888H59.9848V27.5279H50.9103ZM59.9848 45.9291V54.9683H50.9103V45.9291H59.9848ZM34.0578 54.9683V45.9291H43.1322V54.9683H34.0578ZM39.8913 63.3618V57.5509H43.1322C43.8185 57.5522 44.4772 57.2809 44.9634 56.7965C45.4497 56.3122 45.7236 55.6545 45.7249 54.9683V45.9291C45.7243 45.5893 45.6567 45.2529 45.526 44.9392C45.3954 44.6255 45.2042 44.3406 44.9635 44.1008C44.7227 43.861 44.4371 43.6709 44.1229 43.5415C43.8087 43.4121 43.472 43.3458 43.1322 43.3465H39.8913V40.1182C39.8924 39.7752 40.0295 39.4466 40.2725 39.2045C40.5155 38.9624 40.8447 38.8266 41.1877 38.8269H54.1512V43.3465H50.9103C50.5705 43.3458 50.2339 43.4121 49.9197 43.5415C49.6055 43.6709 49.3199 43.861 49.0791 44.1008C48.8383 44.3406 48.6472 44.6255 48.5165 44.9392C48.3859 45.2529 48.3183 45.5893 48.3176 45.9291V54.9683C48.319 55.6546 48.5929 56.3122 49.0791 56.7966C49.5653 57.2809 50.224 57.5522 50.9103 57.5509H59.9848C60.6711 57.5522 61.3298 57.2809 61.816 56.7966C62.3023 56.3122 62.5762 55.6546 62.5775 54.9683V45.9291C62.5769 45.5893 62.5093 45.2529 62.3786 44.9392C62.248 44.6255 62.0568 44.3406 61.816 44.1008C61.5753 43.861 61.2897 43.6709 60.9754 43.5415C60.6612 43.4121 60.3246 43.3458 59.9848 43.3465H56.7439V38.8269H69.7075C70.0505 38.8266 70.3796 38.9624 70.6226 39.2045C70.8657 39.4466 71.0028 39.7752 71.0038 40.1182V43.3465H67.7629C67.4231 43.3458 67.0865 43.4121 66.7723 43.5415C66.4581 43.671 66.1724 43.861 65.9317 44.1008C65.6909 44.3406 65.4998 44.6255 65.3691 44.9392C65.2385 45.2529 65.1709 45.5893 65.1702 45.9291V54.9683C65.1716 55.6546 65.4455 56.3122 65.9317 56.7966C66.4179 57.2809 67.0766 57.5522 67.7629 57.5509H71.0038V63.3618L39.8913 63.3618ZM42.484 87.251H51.5585V96.2801H42.484V87.251ZM30.1687 30.1198C30.5533 30.1198 30.9292 30.0057 31.249 29.7921C31.5688 29.5784 31.818 29.2747 31.9652 28.9194C32.1124 28.5641 32.1509 28.1731 32.0759 27.7959C32.0008 27.4187 31.8156 27.0722 31.5437 26.8003C31.2717 26.5283 30.9252 26.3431 30.548 26.2681C30.1708 26.1931 29.7799 26.2316 29.4246 26.3787C29.0692 26.5259 28.7655 26.7752 28.5519 27.0949C28.3382 27.4147 28.2242 27.7907 28.2242 28.1753C28.2248 28.6908 28.4298 29.1851 28.7944 29.5496C29.1589 29.9141 29.6531 30.1192 30.1687 30.1198ZM30.1687 27.203C30.361 27.203 30.549 27.26 30.7089 27.3668C30.8687 27.4737 30.9934 27.6255 31.0669 27.8032C31.1405 27.9808 31.1598 28.1763 31.1223 28.3649C31.0848 28.5535 30.9922 28.7268 30.8562 28.8628C30.7202 28.9987 30.547 29.0913 30.3584 29.1288C30.1698 29.1664 29.9743 29.1471 29.7966 29.0735C29.619 28.9999 29.4671 28.8753 29.3603 28.7154C29.2534 28.5555 29.1964 28.3676 29.1964 28.1753C29.1967 27.9175 29.2992 27.6703 29.4815 27.488C29.6638 27.3058 29.9109 27.2032 30.1687 27.203ZM103.61 45.0741C103.354 45.0741 103.103 45.1502 102.89 45.2926C102.677 45.4351 102.511 45.6375 102.412 45.8744C102.314 46.1113 102.289 46.3719 102.339 46.6234C102.389 46.8749 102.512 47.1058 102.693 47.2871C102.875 47.4684 103.106 47.5919 103.357 47.6419C103.609 47.692 103.869 47.6663 104.106 47.5682C104.343 47.47 104.546 47.3039 104.688 47.0907C104.83 46.8775 104.906 46.6269 104.906 46.3705C104.906 46.0268 104.769 45.6973 104.526 45.4543C104.283 45.2112 103.954 45.0745 103.61 45.0741ZM103.61 47.0187C103.482 47.0187 103.357 46.9806 103.25 46.9094C103.143 46.8382 103.06 46.737 103.011 46.6185C102.962 46.5001 102.949 46.3698 102.974 46.244C102.999 46.1183 103.061 46.0028 103.152 45.9122C103.242 45.8215 103.358 45.7598 103.484 45.7348C103.609 45.7098 103.74 45.7226 103.858 45.7716C103.977 45.8207 104.078 45.9038 104.149 46.0104C104.22 46.117 104.258 46.2423 104.258 46.3705C104.258 46.5423 104.19 46.7071 104.068 46.8286C103.947 46.9501 103.782 47.0185 103.61 47.0187ZM78.7819 29.95C78.5255 29.95 78.2749 30.026 78.0617 30.1685C77.8485 30.3109 77.6824 30.5134 77.5843 30.7503C77.4861 30.9871 77.4605 31.2478 77.5105 31.4993C77.5605 31.7507 77.684 31.9817 77.8653 32.163C78.0466 32.3443 78.2776 32.4678 78.529 32.5178C78.7805 32.5678 79.0411 32.5421 79.278 32.444C79.5149 32.3459 79.7174 32.1798 79.8598 31.9666C80.0023 31.7534 80.0783 31.5028 80.0783 31.2464C80.0779 30.9027 79.9412 30.5732 79.6982 30.3301C79.4551 30.0871 79.1256 29.9504 78.7819 29.95ZM78.7819 31.8945C78.6537 31.8945 78.5284 31.8565 78.4218 31.7853C78.3152 31.7141 78.2321 31.6128 78.1831 31.4944C78.134 31.376 78.1212 31.2456 78.1462 31.1199C78.1712 30.9942 78.2329 30.8787 78.3236 30.788C78.4142 30.6974 78.5297 30.6356 78.6555 30.6106C78.7812 30.5856 78.9115 30.5985 79.03 30.6475C79.1484 30.6966 79.2496 30.7797 79.3209 30.8862C79.3921 30.9928 79.4301 31.1182 79.4301 31.2464C79.4299 31.4182 79.3616 31.583 79.2401 31.7045C79.1186 31.826 78.9538 31.8944 78.7819 31.8945ZM100.172 26.2316C99.9154 26.2316 99.6647 26.3076 99.4515 26.4501C99.2383 26.5925 99.0722 26.795 98.9741 27.0319C98.876 27.2687 98.8503 27.5294 98.9003 27.7808C98.9503 28.0323 99.0738 28.2633 99.2551 28.4446C99.4364 28.6259 99.6674 28.7494 99.9188 28.7994C100.17 28.8494 100.431 28.8237 100.668 28.7256C100.905 28.6275 101.107 28.4613 101.25 28.2482C101.392 28.035 101.468 27.7843 101.468 27.5279C101.468 27.1842 101.331 26.8547 101.088 26.6117C100.845 26.3687 100.515 26.232 100.172 26.2316ZM100.172 28.1761C100.044 28.1761 99.9182 28.1381 99.8116 28.0669C99.705 27.9957 99.622 27.8944 99.5729 27.776C99.5239 27.6575 99.511 27.5272 99.536 27.4015C99.561 27.2758 99.6228 27.1603 99.7134 27.0696C99.8041 26.979 99.9196 26.9172 100.045 26.8922C100.171 26.8672 100.301 26.88 100.42 26.9291C100.538 26.9782 100.639 27.0612 100.711 27.1678C100.782 27.2744 100.82 27.3997 100.82 27.5279C100.82 27.6998 100.751 27.8646 100.63 27.9861C100.508 28.1076 100.344 28.1759 100.172 28.1761ZM50.9103 3.35006C50.9103 3.09367 50.8343 2.84303 50.6919 2.62985C50.5494 2.41667 50.347 2.25051 50.1101 2.15239C49.8732 2.05427 49.6125 2.0286 49.3611 2.07862C49.1096 2.12864 48.8786 2.25211 48.6973 2.4334C48.516 2.6147 48.3926 2.84569 48.3425 3.09716C48.2925 3.34863 48.3182 3.60928 48.4163 3.84616C48.5144 4.08304 48.6806 4.2855 48.8938 4.42794C49.107 4.57039 49.3576 4.64642 49.614 4.64642C49.9577 4.64603 50.2872 4.50932 50.5302 4.26629C50.7732 4.02326 50.9099 3.69376 50.9103 3.35006ZM48.9658 3.35006C48.9658 3.22187 49.0038 3.09655 49.0751 2.98996C49.1463 2.88336 49.2475 2.80029 49.3659 2.75123C49.4844 2.70217 49.6147 2.68933 49.7404 2.71434C49.8662 2.73935 49.9817 2.80109 50.0723 2.89173C50.163 2.98238 50.2247 3.09788 50.2497 3.22361C50.2747 3.34935 50.2619 3.47967 50.2128 3.59811C50.1638 3.71655 50.0807 3.81778 49.9741 3.889C49.8675 3.96023 49.7422 3.99824 49.614 3.99824C49.4421 3.99807 49.2774 3.92972 49.1558 3.80821C49.0343 3.68669 48.966 3.52192 48.9658 3.35006Z" fill="#FFC100" stroke="#182F43"/>
<path d="M5.5102 32.2008L4.4372 32.0598L3.87207 31.9856V32.5555V33.604V34.1732L4.43657 34.0998L5.51728 33.9592L4.78075 34.9184L4.44907 35.3504L4.90771 35.644L5.77416 36.1988L6.26001 36.5098L6.49889 35.9847L7.03129 34.8144L7.51423 35.9575L7.73503 36.4801L8.22575 36.1954L9.1835 35.6396L9.68225 35.3502L9.32512 34.8975L8.58947 33.9649L9.70781 34.1003L10.2679 34.1682V33.604V32.5555V31.9838L9.70131 32.06L8.56287 32.213L9.31723 31.2058L9.65566 30.7539L9.16617 30.4725L8.25407 29.9483L7.76711 29.6685L7.54549 30.1845L7.05763 31.3206L6.56369 30.1965L6.33869 29.6844L5.85493 29.9652L4.92632 30.5042L4.43662 30.7884L4.77926 31.2392L5.5102 32.2008Z" fill="#FFC100" stroke="#182F43"/>
<path d="M3.77765 5.99616L2.85754 7.19394L2.52592 7.62565L2.9842 7.91946L3.95986 8.54497L4.44589 8.85657L4.68487 8.33101L5.34268 6.88436L5.94056 8.30112L6.16092 8.82331L6.65155 8.53954L7.72971 7.91596L8.22945 7.62691L7.87201 7.17356L6.94989 6.00402L8.35901 6.17421L8.91897 6.24184V5.67782V4.49994V3.92835L8.35246 4.00438L6.92397 4.19608L7.86234 2.94451L8.20076 2.49314L7.712 2.2114L6.68699 1.62053L6.19992 1.33976L5.97792 1.85627L5.37144 3.26727L4.75774 1.86997L4.5326 1.35735L4.0486 1.6388L3.00271 2.24699L2.51336 2.53155L2.85617 2.98201L3.769 4.18154L2.41351 4.00416L1.84863 3.93024V4.49994V5.67782V6.24707L2.41313 6.17364L3.77765 5.99616Z" fill="#FFC100" stroke="#182F43"/>
<path d="M104.81 7.11997L105.37 7.18762V6.62358V5.57595V5.00427L104.804 5.08041L103.665 5.23343L104.42 4.22655L104.759 3.77462L104.269 3.49317L103.357 2.96885L102.87 2.689L102.648 3.20496L102.16 4.34088L101.666 3.21618L101.44 2.70353L100.956 2.98533L100.028 3.52572L99.5396 3.81023L99.8818 4.26036L100.612 5.22095L99.5397 5.0802L98.9746 5.00603V5.57595V6.62358V7.19276L99.539 7.11941L100.62 6.97895L99.8833 7.9382L99.5517 8.36994L100.01 8.6637L100.877 9.21915L101.363 9.5307L101.602 9.00509L102.134 7.83472L102.616 8.97676L102.837 9.49878L103.327 9.21484L104.285 8.66039L104.784 8.37125L104.427 7.91808L103.691 6.98476L104.81 7.11997Z" fill="#FFC100" stroke="#182F43"/>
<path d="M79.768 12.2889L80.7068 11.037L81.0459 10.5849L80.5557 10.3034L79.5287 9.71384L79.0418 9.43432L78.8203 9.95018L78.2147 11.3605L77.6008 9.96336L77.3758 9.45126L76.892 9.73207L75.847 10.3387L75.3574 10.6229L75.6998 11.0736L76.612 12.2745L75.2575 12.0966L74.6924 12.0224V12.5924V13.7716V14.3408L75.2568 14.2674L76.6223 14.09L75.7015 15.2881L75.3697 15.72L75.8282 16.0138L76.8035 16.6388L77.2895 16.9502L77.5285 16.4247L78.1863 14.9779L78.7856 16.3955L79.0065 16.9178L79.497 16.6333L80.5744 16.0083L81.0734 15.7188L80.7161 15.266L79.7941 14.0978L81.2027 14.268L81.7627 14.3356V13.7716V12.5924V12.0206L81.1961 12.0968L79.768 12.2889Z" fill="#FFC100" stroke="#182F43"/>
</svg>
