<svg width="105" height="107" viewBox="0 0 105 107" fill="none" xmlns="http://www.w3.org/2000/svg">
<path d="M58.6705 27.9671C59.0568 27.9671 59.4345 27.8526 59.7558 27.6379C60.077 27.4233 60.3274 27.1182 60.4753 26.7612C60.6231 26.4042 60.6618 26.0115 60.5864 25.6325C60.5111 25.2536 60.325 24.9055 60.0518 24.6323C59.7786 24.3591 59.4305 24.173 59.0516 24.0977C58.6726 24.0223 58.2799 24.061 57.9229 24.2088C57.5659 24.3567 57.2608 24.6071 57.0462 24.9283C56.8315 25.2496 56.717 25.6273 56.717 26.0136C56.7176 26.5316 56.9236 27.0281 57.2898 27.3943C57.656 27.7605 58.1526 27.9665 58.6705 27.9671ZM58.6705 25.0369C58.8637 25.0369 59.0525 25.0942 59.2131 25.2015C59.3738 25.3088 59.499 25.4614 59.5729 25.6398C59.6468 25.8183 59.6661 26.0147 59.6285 26.2042C59.5908 26.3937 59.4977 26.5677 59.3611 26.7043C59.2245 26.8409 59.0505 26.9339 58.861 26.9716C58.6716 27.0093 58.4752 26.99 58.2967 26.916C58.1182 26.8421 57.9657 26.7169 57.8583 26.5563C57.751 26.3957 57.6937 26.2068 57.6937 26.0136C57.694 25.7547 57.797 25.5064 57.9801 25.3232C58.1632 25.1401 58.4115 25.0371 58.6705 25.0369ZM103.084 42.0237C102.826 42.0237 102.574 42.1 102.36 42.2431C102.146 42.3862 101.979 42.5896 101.88 42.8276C101.782 43.0656 101.756 43.3274 101.806 43.5801C101.857 43.8327 101.981 44.0647 102.163 44.2469C102.345 44.429 102.577 44.5531 102.83 44.6033C103.082 44.6536 103.344 44.6278 103.582 44.5292C103.82 44.4306 104.023 44.2637 104.166 44.0495C104.31 43.8354 104.386 43.5836 104.386 43.326C104.386 42.9807 104.248 42.6497 104.004 42.4055C103.76 42.1614 103.429 42.024 103.084 42.0237ZM103.084 43.9772C102.955 43.9772 102.829 43.939 102.722 43.8674C102.615 43.7959 102.531 43.6942 102.482 43.5752C102.433 43.4562 102.42 43.3253 102.445 43.199C102.47 43.0726 102.532 42.9566 102.623 42.8655C102.714 42.7745 102.83 42.7125 102.957 42.6873C103.083 42.6622 103.214 42.6751 103.333 42.7244C103.452 42.7737 103.553 42.8571 103.625 42.9642C103.697 43.0713 103.735 43.1972 103.735 43.326C103.735 43.4986 103.666 43.6642 103.544 43.7862C103.422 43.9083 103.256 43.977 103.084 43.9772ZM41.6753 1C41.4177 1 41.1659 1.07638 40.9517 1.21948C40.7376 1.36259 40.5706 1.56598 40.4721 1.80395C40.3735 2.04193 40.3477 2.30378 40.398 2.55641C40.4482 2.80904 40.5722 3.0411 40.7544 3.22323C40.9365 3.40537 41.1686 3.5294 41.4212 3.57965C41.6738 3.6299 41.9357 3.60411 42.1736 3.50554C42.4116 3.40697 42.615 3.24005 42.7581 3.02588C42.9012 2.81171 42.9776 2.55992 42.9776 2.30234C42.9772 1.95706 42.8399 1.62603 42.5957 1.38188C42.3516 1.13773 42.0205 1.00039 41.6753 1ZM41.6753 2.95351C41.5465 2.95351 41.4206 2.91532 41.3135 2.84377C41.2064 2.77221 41.123 2.67052 41.0737 2.55153C41.0244 2.43254 41.0115 2.30162 41.0366 2.1753C41.0617 2.04899 41.1238 1.93296 41.2148 1.84189C41.3059 1.75082 41.4219 1.68881 41.5482 1.66368C41.6745 1.63856 41.8055 1.65145 41.9245 1.70074C42.0434 1.75002 42.1451 1.83348 42.2167 1.94057C42.2882 2.04765 42.3264 2.17355 42.3264 2.30234C42.3263 2.47499 42.2576 2.64051 42.1355 2.76259C42.0134 2.88467 41.8479 2.95333 41.6753 2.95351ZM103.084 3.60468C102.826 3.60468 102.574 3.68106 102.36 3.82416C102.146 3.96726 101.979 4.17066 101.88 4.40863C101.782 4.6466 101.756 4.90846 101.806 5.16109C101.857 5.41372 101.981 5.64577 102.163 5.82791C102.345 6.01004 102.577 6.13408 102.83 6.18433C103.082 6.23458 103.344 6.20879 103.582 6.11022C103.82 6.01165 104.023 5.84472 104.166 5.63055C104.31 5.41639 104.386 5.16459 104.386 4.90701C104.386 4.56173 104.248 4.23071 104.004 3.98656C103.76 3.74241 103.429 3.60507 103.084 3.60468ZM103.084 5.55818C102.955 5.55818 102.829 5.51999 102.722 5.44844C102.615 5.37689 102.531 5.27519 102.482 5.15621C102.433 5.03722 102.42 4.90629 102.445 4.77998C102.47 4.65366 102.532 4.53764 102.623 4.44657C102.714 4.3555 102.83 4.29348 102.957 4.26836C103.083 4.24323 103.214 4.25613 103.333 4.30541C103.452 4.3547 103.553 4.43816 103.625 4.54524C103.697 4.65233 103.735 4.77823 103.735 4.90701C103.735 5.07966 103.666 5.24519 103.544 5.36727C103.422 5.48935 103.256 5.55801 103.084 5.55818ZM11.2687 15.3257C11.2687 15.0681 11.1924 14.8163 11.0493 14.6022C10.9062 14.388 10.7028 14.2211 10.4648 14.1225C10.2268 14.0239 9.96496 13.9982 9.71233 14.0484C9.4597 14.0987 9.22764 14.2227 9.04551 14.4048C8.86337 14.587 8.73934 14.819 8.68909 15.0716C8.63884 15.3243 8.66463 15.5861 8.7632 15.8241C8.86177 16.0621 9.02869 16.2655 9.24286 16.4086C9.45703 16.5517 9.70882 16.6281 9.9664 16.6281C10.3117 16.6277 10.6427 16.4903 10.8869 16.2462C11.131 16.002 11.2683 15.671 11.2687 15.3257ZM9.31523 15.3257C9.31523 15.1969 9.35342 15.071 9.42497 14.9639C9.49653 14.8569 9.59822 14.7734 9.71721 14.7241C9.8362 14.6748 9.96712 14.6619 10.0934 14.6871C10.2198 14.7122 10.3358 14.7742 10.4268 14.8653C10.5179 14.9563 10.5799 15.0724 10.6051 15.1987C10.6302 15.325 10.6173 15.4559 10.568 15.5749C10.5187 15.6939 10.4353 15.7956 10.3282 15.8671C10.2211 15.9387 10.0952 15.9769 9.9664 15.9769C9.79375 15.9767 9.62823 15.9081 9.50615 15.786C9.38406 15.6639 9.3154 15.4984 9.31523 15.3257Z" fill="#FFC100" stroke="#182F43"/>
<path d="M3.0645 43.4816L3.97838 43.3627L3.35048 44.1805L3.0193 44.6119L3.47691 44.9058L4.27889 45.4207L4.76498 45.7329L5.00418 45.207L5.46299 44.1984L5.87788 45.1801L6.09856 45.7022L6.58905 45.4181L7.47653 44.904L7.97576 44.6148L7.61857 44.1618L6.99225 43.3674L7.93988 43.4821L8.5 43.55V42.9858V42.0142V41.4428L7.9336 41.5187L6.96563 41.6484L7.61246 40.7857L7.95134 40.3337L7.46157 40.0523L6.61638 39.5665L6.12961 39.2867L5.90788 39.8025L5.48871 40.7776L5.06438 39.8125L4.83903 39.2999L4.35512 39.5816L3.49554 40.0819L3.00697 40.3663L3.34892 40.8165L3.9724 41.6373L3.06491 41.5185L2.5 41.4445V42.0142V42.9858V43.555L3.0645 43.4816Z" fill="#FFC100" stroke="#182F43"/>
<path d="M26.8224 17.4465L25.6477 18.9739L25.3157 19.4056L25.7742 19.6996L26.8993 20.4209L27.3853 20.7325L27.6243 20.207L28.4552 18.3797L29.2126 20.1744L29.4329 20.6966L29.9236 20.4128L31.1668 19.6938L31.6666 19.4047L31.3091 18.9514L30.1309 17.457L31.94 17.6755L32.5 17.7432V17.1791V15.8209V15.2493L31.9335 15.3253L30.1052 15.5707L31.2969 13.9813L31.6353 13.5299L31.1465 13.2482L29.9645 12.5668L29.4775 12.286L29.2555 12.8026L28.4865 14.5916L27.7079 12.8189L27.4828 12.3063L26.9988 12.5877L25.7927 13.2891L25.3034 13.5736L25.6462 14.0241L26.81 15.5535L25.0649 15.3251L24.5 15.2512V15.8209V17.1791V17.7483L25.0644 17.675L26.8224 17.4465Z" fill="#FFC100" stroke="#182F43"/>
<path d="M80.5359 12.1091L81.4554 10.8827L81.7944 10.4306L81.3043 10.1492L80.2894 9.5664L79.8025 9.28679L79.581 9.80276L78.9879 11.1842L78.3867 9.81574L78.1617 9.30354L77.6779 9.58443L76.6451 10.184L76.1556 10.4683L76.4981 10.919L77.3918 12.095L76.0651 11.9208L75.5 11.8466V12.4166V13.5821V14.1513L76.0644 14.078L77.4006 13.9044L76.4996 15.0777L76.1681 15.5095L76.6264 15.8032L77.5902 16.421L78.0763 16.7325L78.3152 16.2069L78.9594 14.7897L79.5453 16.1776L79.766 16.7004L80.2569 16.4156L81.3216 15.7979L81.82 15.5087L81.4634 15.056L80.5621 13.912L81.94 14.0785L82.5 14.1462V13.5821V12.4166V11.8448L81.9333 11.921L80.5359 12.1091Z" fill="#FFC100" stroke="#182F43"/>
<path d="M2.5 96C3.32843 96 4 95.3284 4 94.5C4 93.6716 3.32843 93 2.5 93C1.67157 93 1 93.6716 1 94.5C1 95.3284 1.67157 96 2.5 96Z" fill="#FFC100" stroke="#182F43"/>
<path d="M77.7179 98.8947H71.9487C71.5995 98.9234 71.2737 99.0855 71.0361 99.3488C70.7986 99.6122 70.6666 99.9574 70.6666 100.316C70.6666 100.674 70.7986 101.019 71.0361 101.283C71.2737 101.546 71.5995 101.708 71.9487 101.737H77.7179C78.0671 101.708 78.3929 101.546 78.6305 101.283C78.8681 101.019 79 100.674 79 100.316C79 99.9574 78.8681 99.6122 78.6305 99.3488C78.3929 99.0855 78.0671 98.9234 77.7179 98.8947ZM36.0513 98.8947H30.2821C29.9329 98.9234 29.6071 99.0855 29.3695 99.3488C29.1319 99.6122 29 99.9574 29 100.316C29 100.674 29.1319 101.019 29.3695 101.283C29.6071 101.546 29.9329 101.708 30.2821 101.737H36.0513C36.4005 101.708 36.7263 101.546 36.9639 101.283C37.2014 101.019 37.3334 100.674 37.3334 100.316C37.3334 99.9574 37.2014 99.6122 36.9639 99.3488C36.7263 99.0855 36.4005 98.9234 36.0513 98.8947ZM67.8889 98.8947H40.1111C39.7428 98.8947 39.3895 99.0445 39.129 99.311C38.8686 99.5774 38.7222 99.9389 38.7222 100.316C38.7222 100.693 38.8686 101.054 39.129 101.321C39.3895 101.587 39.7428 101.737 40.1111 101.737H51.1806V103.158H45.6667C45.2983 103.158 44.945 103.308 44.6846 103.574C44.4241 103.841 44.2778 104.202 44.2778 104.579C44.2778 104.956 44.4241 105.317 44.6846 105.584C44.945 105.85 45.2983 106 45.6667 106H63.0278C63.3961 106 63.7494 105.85 64.0099 105.584C64.2703 105.317 64.4167 104.956 64.4167 104.579C64.4167 104.202 64.2703 103.841 64.0099 103.574C63.7494 103.308 63.3961 103.158 63.0278 103.158H56.8194V101.737H67.8889C68.2572 101.737 68.6105 101.587 68.871 101.321C69.1314 101.054 69.2778 100.693 69.2778 100.316C69.2778 99.9389 69.1314 99.5774 68.871 99.311C68.6105 99.0445 68.2572 98.8947 67.8889 98.8947ZM60.9444 79H47.0556C46.6872 79 46.3339 79.1497 46.0735 79.4162C45.813 79.6827 45.6667 80.0442 45.6667 80.4211C45.6667 80.7979 45.813 81.1594 46.0735 81.4259C46.3339 81.6924 46.6872 81.8421 47.0556 81.8421H60.9444C61.3128 81.8421 61.6661 81.6924 61.9265 81.4259C62.187 81.1594 62.3333 80.7979 62.3333 80.4211C62.3333 80.0442 62.187 79.6827 61.9265 79.4162C61.6661 79.1497 61.3128 79 60.9444 79Z" fill="#FFC100" stroke="#182F43"/>
<path d="M24.5 82C25.3284 82 26 81.3284 26 80.5C26 79.6716 25.3284 79 24.5 79C23.6716 79 23 79.6716 23 80.5C23 81.3284 23.6716 82 24.5 82Z" fill="#FFC100" stroke="#182F43"/>
<path d="M18.5 82C19.3284 82 20 81.3284 20 80.5C20 79.6716 19.3284 79 18.5 79C17.6716 79 17 79.6716 17 80.5C17 81.3284 17.6716 82 18.5 82Z" fill="#FFC100" stroke="#182F43"/>
<path d="M33.6916 47.5938C33.5905 47.4424 33.4623 47.3137 33.3146 47.2151C33.1668 47.1166 33.0023 47.0501 32.8304 47.0194C32.6586 46.9888 32.4827 46.9946 32.313 47.0366C32.1432 47.0785 31.9829 47.1558 31.8411 47.264L22.5554 54.3458C22.3836 54.4769 22.2436 54.6499 22.147 54.8504C22.0504 55.0509 22 55.2732 22 55.4987C22 55.7242 22.0504 55.9464 22.147 56.1469C22.2436 56.3474 22.3836 56.5204 22.5554 56.6515L31.8411 63.7334C32.1275 63.9512 32.4832 64.0388 32.83 63.9768C33.1768 63.9148 33.4864 63.7084 33.6908 63.4029C33.8951 63.0974 33.9775 62.7177 33.9199 62.3473C33.8622 61.977 33.6693 61.6462 33.3834 61.4276L25.6088 55.4987L33.3833 49.5697C33.6696 49.3513 33.8629 49.0205 33.9207 48.65C33.9786 48.2794 33.8962 47.8995 33.6916 47.5938ZM47.9752 54.3458L38.6895 47.264C38.4031 47.0461 38.0474 46.9586 37.7006 47.0205C37.3538 47.0825 37.0442 47.2889 36.8398 47.5945C36.6355 47.9 36.5531 48.2796 36.6107 48.65C36.6683 49.0204 36.8613 49.3512 37.1472 49.5697L44.9218 55.4987L37.1472 61.4276C36.8613 61.6462 36.6683 61.977 36.6107 62.3473C36.5531 62.7177 36.6355 63.0974 36.8398 63.4029C37.0442 63.7084 37.3538 63.9148 37.7006 63.9768C38.0474 64.0388 38.4031 63.9512 38.6895 63.7334L47.9752 56.6515C48.147 56.5204 48.287 56.3474 48.3836 56.1469C48.4802 55.9464 48.5306 55.7242 48.5306 55.4987C48.5306 55.2732 48.4802 55.0509 48.3836 54.8504C48.287 54.6499 48.147 54.4769 47.9752 54.3458ZM64.2022 47.5938C64.101 47.4424 63.9728 47.3138 63.8251 47.2153C63.6773 47.1168 63.5128 47.0503 63.3409 47.0197C63.1691 46.989 62.9933 46.9948 62.8235 47.0367C62.6538 47.0787 62.4935 47.1559 62.3517 47.264L53.066 54.3458C52.8941 54.4769 52.754 54.6498 52.6573 54.8504C52.5606 55.0509 52.5102 55.2731 52.5102 55.4987C52.5102 55.7242 52.5606 55.9465 52.6573 56.147C52.754 56.3475 52.8941 56.5205 53.066 56.6515L62.3517 63.7334C62.4935 63.8415 62.6538 63.9187 62.8236 63.9606C62.9933 64.0025 63.1691 64.0083 63.3409 63.9776C63.5128 63.947 63.6773 63.8805 63.8251 63.782C63.9728 63.6835 64.101 63.5549 64.2022 63.4035C64.3034 63.2521 64.3757 63.0809 64.415 62.8997C64.4542 62.7184 64.4597 62.5307 64.431 62.3472C64.4023 62.1638 64.34 61.9881 64.2478 61.8303C64.1555 61.6725 64.035 61.5357 63.8933 61.4276L56.1193 55.4987L63.8932 49.5697C64.1796 49.3514 64.373 49.0206 64.4309 48.6501C64.4889 48.2796 64.4066 47.8996 64.2022 47.5938ZM86.4443 54.3458L77.1585 47.264C76.8722 47.0457 76.5163 46.9578 76.1693 47.0197C75.8222 47.0816 75.5124 47.2881 75.308 47.5938C75.1036 47.8996 75.0213 48.2796 75.0792 48.6501C75.1372 49.0206 75.3306 49.3514 75.617 49.5697L83.3909 55.4987L75.617 61.4276C75.3306 61.6459 75.1372 61.9767 75.0792 62.3472C75.0213 62.7178 75.1036 63.0977 75.308 63.4035C75.5124 63.7093 75.8222 63.9158 76.1693 63.9776C76.5163 64.0395 76.8722 63.9516 77.1585 63.7334L86.4443 56.6515C86.6161 56.5205 86.7562 56.3475 86.8529 56.147C86.9496 55.9465 87 55.7242 87 55.4987C87 55.2731 86.9496 55.0509 86.8529 54.8504C86.7562 54.6498 86.6161 54.4769 86.4443 54.3458ZM72.9011 47.1014C72.7393 47.0323 72.5663 46.9979 72.3921 47.0001C72.2178 47.0023 72.0457 47.0412 71.8855 47.1145C71.7254 47.1878 71.5803 47.294 71.4586 47.4272C71.3368 47.5603 71.2409 47.7178 71.1762 47.8905L65.8701 62.0542C65.8049 62.227 65.7723 62.4119 65.7742 62.5982C65.776 62.7845 65.8122 62.9685 65.8808 63.1399C65.9493 63.3112 66.0489 63.4664 66.1737 63.5966C66.2985 63.7268 66.4461 63.8294 66.6081 63.8986C66.7701 63.9678 66.9433 64.0022 67.1178 63.9999C67.2922 63.9975 67.4645 63.9585 67.6249 63.8849C67.7852 63.8114 67.9303 63.7048 68.052 63.5713C68.1737 63.4377 68.2695 63.2799 68.334 63.1068L73.6401 48.9431C73.7707 48.5943 73.7663 48.2043 73.6277 47.8589C73.4891 47.5136 73.2277 47.2411 72.9011 47.1014Z" fill="#AA4337" stroke="#182F43"/>
<path d="M100.432 93.2228H61.3841V87.6919H94.4277C95.5228 87.6907 96.5727 87.2533 97.3471 86.4756C98.1215 85.6979 98.557 84.6435 98.5582 83.5437V35.1482C98.557 34.0484 98.1215 32.994 97.3471 32.2163C96.5727 31.4386 95.5228 31.0012 94.4277 31H14.5723C13.4772 31.0012 12.4272 31.4386 11.6529 32.2163C10.8785 32.994 10.443 34.0484 10.4418 35.1482V83.5437C10.443 84.6435 10.8785 85.6979 11.6529 86.4756C12.4272 87.2533 13.4772 87.6907 14.5723 87.6919H47.6159V93.2228H8.56842C8.37255 93.1971 8.17347 93.2137 7.98448 93.2714C7.7955 93.3291 7.62095 93.4267 7.4725 93.5575C7.32405 93.6884 7.20511 93.8496 7.12363 94.0303C7.04215 94.211 7 94.4071 7 94.6055C7 94.8039 7.04215 95 7.12363 95.1807C7.20511 95.3614 7.32405 95.5226 7.4725 95.6535C7.62095 95.7844 7.7955 95.8819 7.98448 95.9397C8.17347 95.9974 8.37255 96.014 8.56842 95.9883H100.432C100.627 96.014 100.827 95.9974 101.016 95.9397C101.205 95.8819 101.379 95.7844 101.528 95.6535C101.676 95.5226 101.795 95.3614 101.876 95.1807C101.958 95 102 94.8039 102 94.6055C102 94.4071 101.958 94.211 101.876 94.0303C101.795 93.8496 101.676 93.6884 101.528 93.5575C101.379 93.4267 101.205 93.3291 101.016 93.2714C100.827 93.2137 100.627 93.1971 100.432 93.2228ZM13.1954 35.1482C13.1958 34.7816 13.341 34.4301 13.5992 34.1709C13.8573 33.9117 14.2072 33.7659 14.5723 33.7655H94.4277C94.7928 33.7659 95.1427 33.9118 95.4008 34.171C95.6589 34.4302 95.8041 34.7816 95.8046 35.1482V73.8646H13.1954V35.1482ZM14.5723 84.9264C14.2072 84.926 13.8573 84.7802 13.5992 84.521C13.341 84.2617 13.1958 83.9103 13.1954 83.5437V76.63H95.8046V83.5437C95.8041 83.9103 95.6589 84.2617 95.4008 84.5209C95.1427 84.7801 94.7928 84.9259 94.4277 84.9264H14.5723ZM50.3695 93.2228V87.6919H58.6305V93.2228H50.3695Z" fill="#FFC100" stroke="#182F43"/>
</svg>
