<svg width="107" height="105" viewBox="0 0 107 105" fill="none" xmlns="http://www.w3.org/2000/svg">
<path d="M51.2462 42.8782C51.3414 42.8769 51.4362 42.8662 51.5292 42.8462C51.8408 42.7745 52.1131 42.5862 52.2903 42.3201C52.4675 42.054 52.5362 41.7302 52.4823 41.415C52.4284 41.0999 52.256 40.8173 52.0004 40.6252C51.7448 40.4331 51.4254 40.3461 51.1077 40.3819C50.79 40.4178 50.4981 40.5738 50.2917 40.8181C50.0854 41.0623 49.9803 41.3762 49.998 41.6955C50.0157 42.0147 50.1549 42.3151 50.387 42.535C50.6191 42.7549 50.9265 42.8777 51.2462 42.8782Z" fill="#FFC100" stroke="#182F43"/>
<path d="M44.022 52.3185C44.0212 51.9851 43.8879 51.6656 43.6516 51.4305C43.4153 51.1953 43.0952 51.0636 42.7618 51.0645C42.4284 51.0653 42.109 51.1985 41.8738 51.4348C41.6387 51.6712 41.507 51.9912 41.5078 52.3246C41.5077 52.49 41.5403 52.6538 41.6036 52.8066C41.6669 52.9594 41.7598 53.0982 41.8769 53.215C41.9939 53.3319 42.1329 53.4245 42.2858 53.4875C42.4387 53.5506 42.6026 53.5828 42.768 53.5824C42.9334 53.582 43.0971 53.5489 43.2497 53.4852C43.4023 53.4214 43.5408 53.3281 43.6573 53.2107C43.7738 53.0933 43.866 52.954 43.9286 52.8009C43.9911 52.6478 44.0229 52.4838 44.022 52.3185Z" fill="#FFC100" stroke="#182F43"/>
<path d="M43.3057 55.938C43.0501 56.0639 42.8445 56.2724 42.7223 56.5298C42.6001 56.7872 42.5684 57.0783 42.6325 57.3559C42.6965 57.6335 42.8525 57.8813 43.0751 58.0592C43.2976 58.237 43.5738 58.3344 43.8587 58.3356C44.0487 58.3344 44.2359 58.2892 44.4056 58.2035C44.5547 58.1315 44.6882 58.0308 44.7983 57.9072C44.9085 57.7835 44.9932 57.6394 45.0475 57.4829C45.1019 57.3265 45.1249 57.1609 45.1152 56.9956C45.1055 56.8303 45.0632 56.6685 44.9909 56.5196C44.9186 56.3706 44.8176 56.2374 44.6937 56.1275C44.5698 56.0176 44.4254 55.9332 44.2689 55.8792C44.1124 55.8252 43.9467 55.8026 43.7814 55.8127C43.6161 55.8228 43.4545 55.8654 43.3057 55.938V55.938ZM43.293 48.7004C43.4621 48.7805 43.6464 48.8232 43.8335 48.8257C44.1442 48.8277 44.4447 48.7151 44.6775 48.5094C44.9103 48.3037 45.0591 48.0194 45.0954 47.7108C45.1317 47.4023 45.053 47.0912 44.8743 46.8371C44.6956 46.583 44.4295 46.4036 44.1269 46.3334C43.8242 46.2632 43.5063 46.3071 43.234 46.4566C42.9617 46.6061 42.754 46.8508 42.6508 47.1438C42.5476 47.4368 42.556 47.7576 42.6745 48.0448C42.793 48.332 43.0132 48.5654 43.293 48.7004Z" fill="#FFC100" stroke="#182F43"/>
<path d="M55.8451 42.8281C55.9334 42.851 56.0244 42.8615 56.1155 42.8595C56.4391 42.8619 56.7514 42.7402 56.988 42.5194C57.2246 42.2986 57.3675 41.9955 57.3874 41.6725C57.4073 41.3495 57.3026 41.0311 57.0948 40.783C56.8871 40.5348 56.5921 40.3757 56.2707 40.3385C55.9492 40.3012 55.6257 40.3886 55.3667 40.5827C55.1077 40.7768 54.933 41.0627 54.8784 41.3817C54.8239 41.7007 54.8938 42.0285 55.0736 42.2976C55.2534 42.5666 55.5295 42.7565 55.8451 42.8281Z" fill="#FFC100" stroke="#182F43"/>
<path d="M63.4095 52.2619V52.3C63.4095 52.6334 63.5419 52.9531 63.7777 53.1889C64.0134 53.4246 64.3331 53.5571 64.6665 53.5571C64.9999 53.5571 65.3197 53.4246 65.5554 53.1889C65.7912 52.9531 65.9236 52.6334 65.9236 52.3V52.2496C65.923 52.0844 65.8898 51.921 65.8259 51.7686C65.7621 51.6162 65.6688 51.478 65.5515 51.3617C65.4342 51.2454 65.2951 51.1533 65.1422 51.0908C64.9893 51.0283 64.8256 50.9966 64.6604 50.9974C64.4952 50.9982 64.3318 51.0315 64.1795 51.0955C64.0272 51.1595 63.889 51.2529 63.7728 51.3704C63.6567 51.4878 63.5648 51.627 63.5024 51.78C63.4401 51.9329 63.4085 52.0967 63.4095 52.2619V52.2619ZM59.7325 44.6911C59.9938 44.8977 60.3264 44.9923 60.6573 44.954C60.9882 44.9157 61.2904 44.7478 61.4977 44.4869C61.7049 44.2261 61.8002 43.8938 61.7627 43.5628C61.7253 43.2317 61.558 42.9291 61.2977 42.7213H61.2912C61.03 42.5146 60.6974 42.4201 60.3665 42.4586C60.0356 42.4972 59.7336 42.6656 59.5269 42.9268C59.3202 43.188 59.2258 43.5206 59.2643 43.8515C59.3028 44.1824 59.4712 44.4844 59.7325 44.6911Z" fill="#FFC100" stroke="#182F43"/>
<path d="M64.7143 57.5989C64.7866 57.4502 64.8288 57.2887 64.8386 57.1236C64.8484 56.9586 64.8254 56.7932 64.7711 56.6371C64.7168 56.4809 64.6322 56.337 64.5221 56.2137C64.412 56.0903 64.2787 55.9899 64.1297 55.9182C63.9807 55.8465 63.8191 55.8049 63.654 55.7958C63.4889 55.7868 63.3236 55.8104 63.1677 55.8654C63.0118 55.9203 62.8683 56.0056 62.7453 56.1161C62.6224 56.2267 62.5226 56.3605 62.4515 56.5098H62.445C62.3015 56.8102 62.283 57.1552 62.3938 57.4692C62.5046 57.7831 62.7355 58.0402 63.0358 58.184C63.2036 58.2681 63.3889 58.3112 63.5766 58.31C63.814 58.311 64.0469 58.2448 64.2483 58.119C64.4496 57.9931 64.6112 57.8128 64.7143 57.5989Z" fill="#FFC100" stroke="#182F43"/>
<path d="M59.764 59.8841C59.6344 59.9867 59.5263 60.114 59.446 60.2586C59.3657 60.4031 59.3148 60.5621 59.2961 60.7264C59.2774 60.8907 59.2914 61.0571 59.3372 61.216C59.383 61.3749 59.4597 61.5231 59.563 61.6523C59.6819 61.7995 59.8322 61.9183 60.0029 61.9999C60.1736 62.0816 60.3604 62.1241 60.5497 62.1243C60.8357 62.1259 61.1134 62.0281 61.3354 61.8478C61.5958 61.6394 61.7628 61.3361 61.7995 61.0046C61.8363 60.6731 61.7399 60.3406 61.5316 60.0802C61.3232 59.8198 61.0199 59.6529 60.6884 59.6161C60.3569 59.5793 60.0244 59.6757 59.764 59.8841L59.764 59.8841Z" fill="#FFC100" stroke="#182F43"/>
<path d="M55.8842 61.7596C55.5826 61.8281 55.3168 62.0052 55.1375 62.2572C54.9582 62.5093 54.878 62.8185 54.9122 63.1259C54.9464 63.4333 55.0926 63.7173 55.3229 63.9238C55.5532 64.1302 55.8515 64.2446 56.1608 64.2451C56.2559 64.2441 56.3507 64.2336 56.4437 64.2138C56.7682 64.1387 57.0497 63.938 57.2266 63.6557C57.4034 63.3735 57.4611 63.0326 57.3871 62.7079C57.313 62.3831 57.1133 62.101 56.8316 61.9232C56.5499 61.7455 56.2092 61.6866 55.8842 61.7596ZM46.8711 45.0059C47.1572 45.0071 47.4348 44.9091 47.6568 44.7287C47.8872 44.5432 48.0445 44.2821 48.101 43.9918C48.1575 43.7015 48.1095 43.4005 47.9654 43.1421C47.8214 42.8838 47.5906 42.6847 47.314 42.58C47.0373 42.4754 46.7325 42.472 46.4536 42.5704C46.1747 42.6688 45.9395 42.8627 45.7897 43.1178C45.64 43.3729 45.5852 43.6727 45.6352 43.9642C45.6852 44.2558 45.8367 44.5202 46.0628 44.7109C46.289 44.9015 46.5753 45.006 46.8711 45.0059ZM63.5651 48.763C63.7547 48.764 63.942 48.7209 64.112 48.637C64.4116 48.4906 64.6408 48.2314 64.7495 47.9162C64.8582 47.601 64.8375 47.2556 64.6919 46.9557C64.5462 46.6558 64.2876 46.4259 63.9727 46.3164C63.6578 46.2069 63.3123 46.2267 63.012 46.3716C62.7131 46.52 62.4847 46.7803 62.3765 47.096C62.2682 47.4117 62.2887 47.7574 62.4335 48.0581C62.5367 48.2702 62.6976 48.4489 62.8978 48.5736C63.098 48.6983 63.3293 48.7639 63.5651 48.763ZM47.6881 59.8961C47.5587 59.7927 47.4103 59.7157 47.2512 59.6698C47.0921 59.6238 46.9255 59.6097 46.7609 59.6283C46.5964 59.6469 46.4371 59.6978 46.2923 59.778C46.1474 59.8583 46.0198 59.9664 45.9168 60.0961C45.8139 60.2257 45.7375 60.3745 45.6921 60.5337C45.6467 60.693 45.6332 60.8597 45.6524 61.0241C45.6716 61.1886 45.723 61.3477 45.8038 61.4923C45.8846 61.6368 45.9931 61.764 46.1232 61.8665C46.3443 62.0433 46.6193 62.1388 46.9024 62.137C47.1629 62.1366 47.4169 62.0553 47.6293 61.9044C47.8417 61.7536 48.0021 61.5405 48.0883 61.2946C48.1745 61.0488 48.1823 60.7822 48.1106 60.5317C48.0389 60.2812 47.8913 60.0592 47.6881 59.8961L47.6881 59.8961Z" fill="#FFC100" stroke="#182F43"/>
<path d="M51.5674 61.7656C51.2422 61.6929 50.9015 61.7522 50.62 61.9305C50.3384 62.1089 50.1392 62.3916 50.0659 62.7167C49.9927 63.0417 50.0514 63.3826 50.2292 63.6644C50.407 63.9462 50.6894 64.146 51.0144 64.2198C51.1053 64.2395 51.1979 64.2502 51.2909 64.2518C51.6003 64.2512 51.8986 64.1368 52.1289 63.9303C52.3593 63.7238 52.5055 63.4397 52.5397 63.1322C52.5739 62.8248 52.4936 62.5155 52.3143 62.2634C52.135 62.0114 51.8691 61.8342 51.5674 61.7657L51.5674 61.7656ZM53.7173 45.377C52.3476 45.3752 51.0082 45.7797 49.8686 46.5393C48.7289 47.2989 47.8401 48.3795 47.3148 49.6444C46.7894 50.9092 46.651 52.3015 46.9171 53.645C47.1832 54.9886 47.8418 56.223 48.8097 57.1921C49.7775 58.1612 51.011 58.8215 52.3542 59.0893C53.6974 59.3572 55.0899 59.2206 56.3554 58.6969C57.621 58.1732 58.7027 57.2858 59.4638 56.1471C60.225 55.0085 60.6312 53.6696 60.6312 52.3C60.6303 50.4657 59.9019 48.7067 58.6057 47.4088C57.3096 46.111 55.5515 45.3802 53.7173 45.377ZM53.7173 56.7055C52.8457 56.7066 51.9934 56.4492 51.2681 55.9658C50.5429 55.4824 49.9773 54.7948 49.643 53.9899C49.3087 53.185 49.2206 52.299 49.3899 51.444C49.5593 50.5891 49.9784 49.8035 50.5943 49.1868C51.2102 48.5701 51.9952 48.15 52.8499 47.9795C53.7047 47.8091 54.5908 47.896 55.3961 48.2292C56.2015 48.5625 56.8898 49.1272 57.3742 49.8518C57.8585 50.5764 58.1171 51.4284 58.1171 52.3C58.1165 53.4672 57.6529 54.5866 56.8281 55.4125C56.0033 56.2384 54.8845 56.7034 53.7173 56.7055Z" fill="#FFC100" stroke="#182F43"/>
<path d="M2.25512 94.9809C2.94831 94.9809 3.51025 94.419 3.51025 93.7258C3.51025 93.0326 2.94831 92.4707 2.25512 92.4707C1.56194 92.4707 1 93.0326 1 93.7258C1 94.419 1.56194 94.9809 2.25512 94.9809Z" fill="#FFC100" stroke="#182F43"/>
<path d="M7.90246 92.4717H6.01977C5.68689 92.4717 5.36765 92.6039 5.13227 92.8393C4.89688 93.0747 4.76465 93.3939 4.76465 93.7268C4.76465 94.0597 4.89688 94.3789 5.13227 94.6143C5.36765 94.8497 5.68689 94.9819 6.01977 94.9819H7.90246C8.23534 94.9819 8.55458 94.8497 8.78996 94.6143C9.02534 94.3789 9.15758 94.0597 9.15758 93.7268C9.15758 93.3939 9.02534 93.0747 8.78996 92.8393C8.55458 92.6039 8.23534 92.4717 7.90246 92.4717ZM101.409 92.4717H99.5264C99.1936 92.4717 98.8743 92.6039 98.6389 92.8393C98.4036 93.0747 98.2713 93.3939 98.2713 93.7268C98.2713 94.0597 98.4036 94.3789 98.6389 94.6143C98.8743 94.8497 99.1936 94.9819 99.5264 94.9819H101.409C101.742 94.9819 102.061 94.8497 102.297 94.6143C102.532 94.3789 102.664 94.0597 102.664 93.7268C102.664 93.3939 102.532 93.0747 102.297 92.8393C102.061 92.6039 101.742 92.4717 101.409 92.4717Z" fill="#FFC100" stroke="#182F43"/>
<path d="M105.176 94.9809C105.869 94.9809 106.431 94.419 106.431 93.7258C106.431 93.0326 105.869 92.4707 105.176 92.4707C104.483 92.4707 103.921 93.0326 103.921 93.7258C103.921 94.419 104.483 94.9809 105.176 94.9809Z" fill="#FFC100" stroke="#182F43"/>
<path d="M75.148 97.4922H69.9343C69.6188 97.5175 69.3244 97.6607 69.1097 97.8933C68.895 98.1258 68.7758 98.4308 68.7758 98.7473C68.7758 99.0638 68.895 99.3688 69.1097 99.6014C69.3244 99.834 69.6188 99.9772 69.9343 100.002H75.148C75.4635 99.9772 75.7579 99.834 75.9726 99.6014C76.1873 99.3688 76.3065 99.0638 76.3065 98.7473C76.3065 98.4308 76.1873 98.1258 75.9726 97.8933C75.7579 97.6607 75.4635 97.5175 75.148 97.4922ZM37.4943 97.4922H32.2806C31.9651 97.5175 31.6707 97.6607 31.456 97.8933C31.2413 98.1258 31.1221 98.4308 31.1221 98.7473C31.1221 99.0638 31.2413 99.3688 31.456 99.6014C31.6707 99.834 31.9651 99.9772 32.2806 100.002H37.4943C37.8098 99.9772 38.1042 99.834 38.3189 99.6014C38.5336 99.3688 38.6528 99.0638 38.6528 98.7473C38.6528 98.4308 38.5336 98.1258 38.3189 97.8933C38.1042 97.6607 37.8098 97.5175 37.4943 97.4922ZM66.2655 97.4922H41.1631C40.8302 97.4922 40.5109 97.6244 40.2756 97.8598C40.0402 98.0952 39.9079 98.4144 39.9079 98.7473C39.9079 99.0802 40.0402 99.3994 40.2756 99.6348C40.5109 99.8702 40.8302 100.002 41.1631 100.002H51.1664V101.258H46.1836C45.8507 101.258 45.5314 101.39 45.2961 101.625C45.0607 101.861 44.9284 102.18 44.9284 102.513C44.9284 102.846 45.0607 103.165 45.2961 103.4C45.5314 103.636 45.8507 103.768 46.1836 103.768H61.8726C62.2055 103.768 62.5247 103.636 62.7601 103.4C62.9955 103.165 63.1277 102.846 63.1277 102.513C63.1277 102.18 62.9955 101.861 62.7601 101.625C62.5247 101.39 62.2055 101.258 61.8726 101.258H56.2622V100.002H66.2655C66.5984 100.002 66.9177 99.8702 67.153 99.6348C67.3884 99.3994 67.5207 99.0802 67.5207 98.7473C67.5207 98.4144 67.3884 98.0952 67.153 97.8598C66.9177 97.6244 66.5984 97.4922 66.2655 97.4922Z" fill="#FFC100" stroke="#182F43"/>
<path d="M27.3701 32.3624C27.4659 46.7898 29.4288 64.1029 34.8509 70.8175C41.1973 78.6846 49.055 83.9862 53.7144 86.704C58.372 83.9875 66.2309 78.6852 72.5804 70.8144C78 64.1029 79.9629 46.7892 80.0587 32.3624C69.3321 30.3753 59.0214 25.4762 53.7144 22.8125C48.4081 25.4762 38.0961 30.3747 27.3701 32.3624ZM29.9099 34.4176C36.7419 32.9281 44.1671 30.2222 52.4573 26.2254V35.3586C48.4027 35.6676 44.5931 37.4197 41.7196 40.2969C38.8462 43.1742 37.0991 46.9861 36.7954 51.0411H31.1188C30.391 45.5283 29.9874 39.9777 29.9099 34.4176ZM52.4573 82.9808C46.5518 79.2477 41.2701 74.6089 36.806 69.2346C34.5278 66.4134 32.7023 60.8822 31.4982 53.5585H36.7954C37.0991 57.6136 38.8461 61.4254 41.7196 64.3027C44.5931 67.1799 48.4027 68.932 52.4573 69.2411L52.4573 82.9808ZM39.258 52.2998C39.2618 49.4414 40.1128 46.6483 41.7036 44.2734C43.2943 41.8986 45.5534 40.0486 48.1953 38.9573C50.8372 37.8661 53.7433 37.5825 56.5463 38.1424C59.3494 38.7024 61.9235 40.0807 63.9433 42.1032C65.9632 44.1257 67.3382 46.7017 67.8944 49.5054C68.4507 52.3092 68.1633 55.2149 67.0686 57.8554C65.9739 60.4958 64.1209 62.7525 61.744 64.3401C59.3671 65.9278 56.5728 66.7752 53.7144 66.7752C49.8791 66.7684 46.2032 65.2405 43.493 62.5268C40.7829 59.813 39.2598 56.1351 39.258 52.2998ZM70.6246 69.2325C66.16 74.6076 60.8778 79.2471 54.9715 82.9809V69.2411C59.0261 68.932 62.8357 67.18 65.7092 64.3027C68.5827 61.4254 70.3297 57.6136 70.6335 53.5585H75.8704C75.8915 53.5585 75.9112 53.5534 75.932 53.5523C74.7282 60.8783 72.9029 66.411 70.6246 69.2325ZM54.9715 26.2253C63.2644 30.223 70.6892 32.929 77.5189 34.4177C77.4415 40.0047 77.0343 45.5823 76.2995 51.1213C76.1623 51.0695 76.0171 51.0423 75.8704 51.0411H70.6335C70.3297 46.9861 68.5827 43.1742 65.7092 40.2969C62.8357 37.4197 59.0261 35.6676 54.9715 35.3586V26.2253Z" fill="#AA4337" stroke="#182F43"/>
<path d="M95.5845 92.4719H58.7781C63.9868 89.2965 71.9129 83.661 78.4458 75.5654C87.5706 64.263 87.7337 36.1546 87.5706 27.9398C87.5555 27.3229 87.3145 26.733 86.8935 26.2819C86.4725 25.8309 85.9006 25.5499 85.2863 25.4923C72.6221 24.2183 59.0856 17.0641 54.8495 14.9242C54.4972 14.7467 54.1081 14.6543 53.7136 14.6543C53.3191 14.6543 52.9301 14.7467 52.5778 14.9242C48.3417 17.0641 34.8052 24.2183 22.141 25.4923C21.5267 25.5499 20.9548 25.8309 20.5338 26.2819C20.1127 26.733 19.8718 27.3229 19.8567 27.9398C19.6935 36.1546 19.8567 64.263 28.9814 75.5654C35.5144 83.661 43.4405 89.2965 48.6492 92.4719H11.8427C11.6641 92.4485 11.4825 92.4634 11.3101 92.5157C11.1377 92.568 10.9784 92.6566 10.843 92.7754C10.7075 92.8942 10.599 93.0406 10.5247 93.2047C10.4503 93.3688 10.4119 93.5469 10.4119 93.7271C10.4119 93.9072 10.4503 94.0853 10.5247 94.2495C10.599 94.4136 10.7075 94.5599 10.843 94.6787C10.9784 94.7975 11.1377 94.8861 11.3101 94.9384C11.4825 94.9907 11.6641 95.0057 11.8427 94.9822H95.5845C95.7632 95.0057 95.9448 94.9907 96.1172 94.9384C96.2896 94.8861 96.4488 94.7975 96.5843 94.6787C96.7197 94.5599 96.8283 94.4136 96.9026 94.2495C96.977 94.0853 97.0154 93.9072 97.0154 93.7271C97.0154 93.5469 96.977 93.3688 96.9026 93.2047C96.8283 93.0406 96.7197 92.8942 96.5843 92.7754C96.4488 92.6566 96.2896 92.568 96.1172 92.5157C95.9448 92.4634 95.7632 92.4485 95.5845 92.4719ZM30.9394 73.9777C24.1241 65.5433 22.0469 44.6957 22.392 27.9963C34.8742 26.7474 48.0405 20.0513 52.9982 17.5348L53.7136 17.1708L54.4291 17.5348C59.3868 20.0513 72.553 26.7474 85.0603 27.99C85.3804 44.6957 83.3032 65.5433 76.4878 73.984C68.3044 84.1254 57.8367 90.288 53.7136 92.4657C49.5906 90.288 39.1228 84.1254 30.9394 73.9777ZM40.1165 14.9671C40.4888 14.9671 40.8528 14.8567 41.1624 14.6499C41.472 14.443 41.7133 14.1489 41.8558 13.8049C41.9983 13.4609 42.0356 13.0824 41.963 12.7172C41.8903 12.352 41.711 12.0165 41.4477 11.7532C41.1844 11.4899 40.849 11.3106 40.4838 11.2379C40.1186 11.1653 39.74 11.2026 39.396 11.3451C39.052 11.4876 38.7579 11.7289 38.5511 12.0385C38.3442 12.3481 38.2338 12.7121 38.2338 13.0845C38.2344 13.5836 38.4329 14.0621 38.7858 14.4151C39.1388 14.768 39.6173 14.9666 40.1165 14.9671ZM40.1165 12.1431C40.3027 12.1431 40.4846 12.1983 40.6395 12.3018C40.7943 12.4052 40.9149 12.5522 40.9862 12.7242C41.0574 12.8962 41.076 13.0855 41.0397 13.2681C41.0034 13.4507 40.9137 13.6184 40.7821 13.7501C40.6505 13.8817 40.4827 13.9714 40.3001 14.0077C40.1175 14.044 39.9282 14.0254 39.7562 13.9541C39.5842 13.8829 39.4372 13.7622 39.3338 13.6074C39.2303 13.4526 39.1751 13.2706 39.1751 13.0845C39.1754 12.8349 39.2746 12.5956 39.4511 12.4191C39.6276 12.2426 39.8669 12.1434 40.1165 12.1431ZM96.579 33.4802C96.3308 33.4802 96.0881 33.5538 95.8817 33.6917C95.6753 33.8296 95.5145 34.0257 95.4195 34.255C95.3245 34.4844 95.2996 34.7367 95.348 34.9802C95.3965 35.2237 95.516 35.4473 95.6915 35.6228C95.8671 35.7984 96.0907 35.9179 96.3342 35.9663C96.5777 36.0148 96.83 35.9899 97.0594 35.8949C97.2887 35.7999 97.4847 35.639 97.6226 35.4326C97.7606 35.2262 97.8342 34.9836 97.8342 34.7353C97.8338 34.4026 97.7014 34.0835 97.4661 33.8482C97.2308 33.6129 96.9118 33.4806 96.579 33.4802ZM96.579 35.3629C96.4549 35.3629 96.3336 35.3261 96.2304 35.2571C96.1272 35.1882 96.0468 35.0902 95.9993 34.9755C95.9518 34.8608 95.9393 34.7346 95.9635 34.6129C95.9878 34.4912 96.0475 34.3793 96.1353 34.2916C96.2231 34.2038 96.3349 34.144 96.4566 34.1198C96.5783 34.0956 96.7045 34.108 96.8192 34.1555C96.9339 34.203 97.0319 34.2835 97.1008 34.3867C97.1698 34.4899 97.2066 34.6112 97.2066 34.7353C97.2064 34.9017 97.1403 35.0612 97.0226 35.1789C96.905 35.2966 96.7454 35.3627 96.579 35.3629ZM6.85571 41.2201C6.60747 41.2201 6.3648 41.2937 6.1584 41.4317C5.952 41.5696 5.79112 41.7656 5.69613 41.9949C5.60113 42.2243 5.57627 42.4766 5.6247 42.7201C5.67313 42.9636 5.79267 43.1872 5.9682 43.3628C6.14374 43.5383 6.36738 43.6578 6.61085 43.7063C6.85432 43.7547 7.10668 43.7298 7.33602 43.6348C7.56537 43.5398 7.76139 43.379 7.89931 43.1726C8.03722 42.9662 8.11083 42.7235 8.11083 42.4753C8.11045 42.1425 7.97809 41.8235 7.7428 41.5882C7.5075 41.3529 7.18847 41.2205 6.85571 41.2201ZM6.85571 43.1028C6.73159 43.1028 6.61026 43.066 6.50705 42.9971C6.40385 42.9281 6.32342 42.8301 6.27592 42.7154C6.22842 42.6007 6.21599 42.4746 6.24021 42.3528C6.26442 42.2311 6.32419 42.1193 6.41196 42.0315C6.49972 41.9437 6.61154 41.884 6.73328 41.8597C6.85501 41.8355 6.9812 41.848 7.09587 41.8955C7.21054 41.943 7.30855 42.0234 7.37751 42.1266C7.44647 42.2298 7.48327 42.3511 7.48327 42.4753C7.48311 42.6416 7.41693 42.8012 7.29928 42.9188C7.18162 43.0365 7.0221 43.1026 6.85571 43.1028ZM86.9744 2.52051C86.7262 2.52051 86.4835 2.59412 86.2771 2.73203C86.0707 2.86995 85.9098 3.06597 85.8148 3.29532C85.7198 3.52466 85.695 3.77702 85.7434 4.02049C85.7918 4.26396 85.9114 4.4876 86.0869 4.66314C86.2624 4.83867 86.4861 4.95821 86.7295 5.00664C86.973 5.05507 87.2254 5.03021 87.4547 4.93521C87.6841 4.84022 87.8801 4.67934 88.018 4.47294C88.1559 4.26654 88.2295 4.02387 88.2295 3.77563C88.2291 3.44287 88.0968 3.12384 87.8615 2.88854C87.6262 2.65325 87.3072 2.52089 86.9744 2.52051ZM86.9744 4.40319C86.8503 4.40319 86.7289 4.36639 86.6257 4.29743C86.5225 4.22847 86.4421 4.13046 86.3946 4.01579C86.3471 3.90112 86.3347 3.77493 86.3589 3.6532C86.3831 3.53146 86.4429 3.41964 86.5306 3.33188C86.6184 3.24411 86.7302 3.18434 86.852 3.16013C86.9737 3.13591 87.0999 3.14834 87.2146 3.19584C87.3292 3.24334 87.4272 3.32377 87.4962 3.42698C87.5651 3.53018 87.602 3.65151 87.602 3.77563C87.6018 3.94202 87.5356 4.10155 87.418 4.2192C87.3003 4.33686 87.1408 4.40303 86.9744 4.40319ZM15.6416 22.1841C15.6416 21.9359 15.568 21.6932 15.43 21.4868C15.2921 21.2804 15.0961 21.1195 14.8668 21.0245C14.6374 20.9295 14.3851 20.9047 14.1416 20.9531C13.8981 21.0015 13.6745 21.1211 13.4989 21.2966C13.3234 21.4721 13.2039 21.6958 13.1554 21.9392C13.107 22.1827 13.1319 22.4351 13.2269 22.6644C13.3219 22.8938 13.4827 23.0898 13.6891 23.2277C13.8955 23.3656 14.1382 23.4392 14.3864 23.4392C14.7192 23.4388 15.0382 23.3065 15.2735 23.0712C15.5088 22.8359 15.6412 22.5169 15.6416 22.1841ZM13.7589 22.1841C13.7589 22.06 13.7957 21.9386 13.8646 21.8354C13.9336 21.7322 14.0316 21.6518 14.1463 21.6043C14.261 21.5568 14.3871 21.5444 14.5089 21.5686C14.6306 21.5928 14.7424 21.6526 14.8302 21.7403C14.918 21.8281 14.9777 21.9399 15.002 22.0617C15.0262 22.1834 15.0137 22.3096 14.9662 22.4243C14.9187 22.5389 14.8383 22.6369 14.7351 22.7059C14.6319 22.7749 14.5106 22.8117 14.3864 22.8117C14.2201 22.8115 14.0605 22.7453 13.9429 22.6277C13.8252 22.51 13.7591 22.3505 13.7589 22.1841Z" fill="#FFC100" stroke="#182F43"/>
<path d="M9.1053 6.57014L10.2963 4.97978L10.6348 4.52788L10.1453 4.24656L8.96202 3.5665L8.47506 3.28662L8.25344 3.80271L7.48552 5.59097L6.70709 3.81932L6.48208 3.30723L5.99833 3.58802L4.79365 4.28725L4.30395 4.57149L4.64659 5.02226L5.81052 6.55351L4.06513 6.3242L3.5 6.24996V6.81994V8.18006V8.74932L4.0645 8.67588L5.82176 8.44728L4.64807 9.9758L4.3164 10.4077L4.77504 10.7014L5.89907 11.4211L6.38492 11.7322L6.6238 11.207L7.45481 9.38026L8.21322 11.1754L8.43402 11.698L8.92475 11.4133L10.1672 10.6923L10.666 10.4029L10.3089 9.95019L9.13128 8.45739L10.9399 8.67643L11.5 8.74427V8.18006V6.81994V6.24823L10.9334 6.3244L9.1053 6.57014Z" fill="#FFC100" stroke="#182F43"/>
<path d="M56.0221 2.08505L55.4849 2.77474L55.8075 2.9787L56.1752 2.18107H56.1865L56.5254 2.97305L56.8818 2.76972L56.339 2.0907V2.07941L57.1925 2.18107V1.797L56.339 1.90996V1.89867L56.8762 1.19203L56.5373 1L56.1922 1.79136H56.1809L55.8307 1.00502L55.4849 1.20333L56.0171 1.89302V1.90432L55.1855 1.797V2.18107L56.0221 2.07376V2.08505Z" fill="#FFC100" stroke="#182F43"/>
<path d="M105.94 22.0789L106.5 22.1469V21.5826V20.4163V19.8446L105.933 19.9208L104.535 20.1088L105.454 18.8819L105.793 18.4296L105.303 18.1483L104.288 17.5663L103.802 17.287L103.58 17.8026L102.987 19.1841L102.385 17.8145L102.16 17.3016L101.676 17.5836L100.644 18.1846L100.155 18.4691L100.497 18.9192L101.391 20.0946L100.065 19.9206L99.5 19.8464V20.4163V21.5826V22.152L100.065 22.0784L101.4 21.9042L100.499 23.0777L100.167 23.5094L100.626 23.8032L101.589 24.4209L102.075 24.7325L102.314 24.2069L102.959 22.7896L103.545 24.1768L103.766 24.6988L104.256 24.4148L105.321 23.7982L105.82 23.509L105.463 23.0559L104.561 21.9117L105.94 22.0789Z" fill="#FFC100" stroke="#182F43"/>
<path d="M72.5349 10.1091L73.4541 8.88251L73.7928 8.4306L73.3032 8.14916L72.2896 7.56651L71.8028 7.28671L71.5811 7.80252L70.9869 9.18457L70.3854 7.8157L70.1601 7.30284L69.676 7.58478L68.6445 8.18555L68.156 8.47008L68.4981 8.92017L69.391 10.095L68.0648 9.92157L67.5 9.84772V10.4174V11.5826V12.1518L68.0644 12.0785L69.4004 11.905L68.4996 13.0778L68.1682 13.5094L68.6262 13.8032L69.5887 14.4208L70.0748 14.7327L70.3139 14.207L70.9585 12.7892L71.5455 14.1767L71.7662 14.6984L72.2564 14.4146L73.3211 13.7983L73.8206 13.5091L73.4632 13.0559L72.5615 11.9126L73.9401 12.079L74.5 12.1467V11.5826V10.4174V9.84591L73.9336 9.92178L72.5349 10.1091Z" fill="#FFC100" stroke="#182F43"/>
</svg>
