<svg width="107" height="106" viewBox="0 0 107 106" fill="none" xmlns="http://www.w3.org/2000/svg">
<path d="M95.6669 37H15.2973C14.9535 37 14.6238 37.1378 14.3806 37.3832C14.1375 37.6285 14.001 37.9612 14.001 38.3082C14.001 38.6551 14.1375 38.9878 14.3806 39.2332C14.6238 39.4785 14.9535 39.6163 15.2973 39.6163H95.6669C96.0107 39.6163 96.3404 39.4785 96.5835 39.2332C96.8266 38.9878 96.9632 38.6551 96.9632 38.3082C96.9632 37.9612 96.8266 37.6285 96.5835 37.3832C96.3404 37.1378 96.0107 37 95.6669 37Z" fill="#FFC100" stroke="#182F43"/>
<path d="M19.1861 42H16.5935C15.906 42 15.2465 42.2756 14.7603 42.7663C14.2741 43.257 14.001 43.9224 14.001 44.6163V47.2326C14.001 47.9265 14.2741 48.592 14.7603 49.0827C15.2465 49.5733 15.906 49.849 16.5935 49.849H19.1861C19.8737 49.849 20.5331 49.5733 21.0193 49.0827C21.5055 48.592 21.7787 47.9265 21.7787 47.2326V44.6163C21.7787 43.9224 21.5055 43.257 21.0193 42.7663C20.5331 42.2756 19.8737 42 19.1861 42ZM19.1861 47.2326H16.5935V44.6163H19.1861V47.2326Z" fill="#FFC100" stroke="#182F43"/>
<path d="M30.9635 49.849C31.651 49.849 32.3105 49.5733 32.7967 49.0827C33.2829 48.592 33.556 47.9265 33.556 47.2326V44.6163C33.556 43.9224 33.2829 43.257 32.7967 42.7663C32.3105 42.2756 31.651 42 30.9635 42H28.3709C27.6833 42 27.0239 42.2756 26.5377 42.7663C26.0515 43.257 25.7783 43.9224 25.7783 44.6163V47.2326C25.7783 47.9265 26.0515 48.592 26.5377 49.0827C27.0239 49.5733 27.6833 49.849 28.3709 49.849H30.9635ZM28.3709 44.6163H30.9635V47.2326H28.3709V44.6163Z" fill="#FFC100" stroke="#182F43"/>
<path d="M42.7408 49.849C43.4284 49.849 44.0878 49.5733 44.574 49.0827C45.0602 48.592 45.3334 47.9265 45.3334 47.2326V44.6163C45.3334 43.9224 45.0602 43.257 44.574 42.7663C44.0878 42.2756 43.4284 42 42.7408 42H40.1482C39.4606 42 38.8012 42.2756 38.315 42.7663C37.8288 43.257 37.5557 43.9224 37.5557 44.6163V47.2326C37.5557 47.9265 37.8288 48.592 38.315 49.0827C38.8012 49.5733 39.4606 49.849 40.1482 49.849H42.7408ZM40.1482 44.6163H42.7408V47.2326H40.1482V44.6163Z" fill="#FFC100" stroke="#182F43"/>
<path d="M54.5181 49.849C55.2057 49.849 55.8652 49.5733 56.3514 49.0827C56.8376 48.592 57.1107 47.9265 57.1107 47.2326V44.6163C57.1107 43.9224 56.8376 43.257 56.3514 42.7663C55.8652 42.2756 55.2057 42 54.5181 42H51.9256C51.238 42 50.5786 42.2756 50.0924 42.7663C49.6062 43.257 49.333 43.9224 49.333 44.6163V47.2326C49.333 47.9265 49.6062 48.592 50.0924 49.0827C50.5786 49.5733 51.238 49.849 51.9256 49.849H54.5181ZM51.9256 44.6163H54.5181V47.2326H51.9256V44.6163Z" fill="#FFC100" stroke="#182F43"/>
<path d="M66.2955 49.849C66.9831 49.849 67.6425 49.5733 68.1287 49.0827C68.6149 48.592 68.8881 47.9265 68.8881 47.2326V44.6163C68.8881 43.9224 68.6149 43.257 68.1287 42.7663C67.6425 42.2756 66.9831 42 66.2955 42H63.7029C63.0153 42 62.3559 42.2756 61.8697 42.7663C61.3835 43.257 61.1104 43.9224 61.1104 44.6163V47.2326C61.1104 47.9265 61.3835 48.592 61.8697 49.0827C62.3559 49.5733 63.0153 49.849 63.7029 49.849H66.2955ZM63.7029 44.6163H66.2955V47.2326H63.7029V44.6163Z" fill="#FFC100" stroke="#182F43"/>
<path d="M78.0728 49.849C78.7604 49.849 79.4199 49.5733 79.9061 49.0827C80.3923 48.592 80.6654 47.9265 80.6654 47.2326V44.6163C80.6654 43.9224 80.3923 43.257 79.9061 42.7663C79.4199 42.2756 78.7604 42 78.0728 42H75.4803C74.7927 42 74.1332 42.2756 73.647 42.7663C73.1608 43.257 72.8877 43.9224 72.8877 44.6163V47.2326C72.8877 47.9265 73.1608 48.592 73.647 49.0827C74.1332 49.5733 74.7927 49.849 75.4803 49.849H78.0728ZM75.4803 44.6163H78.0728V47.2326H75.4803V44.6163Z" fill="#FFC100" stroke="#182F43"/>
<path d="M89.1851 49.849C89.8727 49.849 90.5322 49.5733 91.0184 49.0827C91.5046 48.592 91.7777 47.9265 91.7777 47.2326V44.6163C91.7777 43.9224 91.5046 43.257 91.0184 42.7663C90.5322 42.2756 89.8727 42 89.1851 42H86.5926C85.905 42 85.2455 42.2756 84.7593 42.7663C84.2731 43.257 84 43.9224 84 44.6163V47.2326C84 47.9265 84.2731 48.592 84.7593 49.0827C85.2455 49.5733 85.905 49.849 86.5926 49.849H89.1851ZM86.5926 44.6163H89.1851V47.2326H86.5926V44.6163Z" fill="#FFC100" stroke="#182F43"/>
<path d="M45.0647 75.2388H15.2973C14.9535 75.2388 14.6238 75.3766 14.3806 75.6219C14.1375 75.8672 14.001 76.2 14.001 76.5469C14.001 76.8939 14.1375 77.2266 14.3806 77.4719C14.6238 77.7172 14.9535 77.8551 15.2973 77.8551H48.3071C47.1064 77.1462 46.0142 76.2648 45.0647 75.2388ZM95.6669 75.2388H65.8994C64.95 76.2648 63.8578 77.1462 62.657 77.8551H95.6669C96.0107 77.8551 96.3404 77.7172 96.5835 77.4719C96.8266 77.2266 96.9632 76.8939 96.9632 76.5469C96.9632 76.2 96.8266 75.8672 96.5835 75.6219C96.3404 75.3766 96.0107 75.2388 95.6669 75.2388ZM14.001 54.3082C14.001 54.6551 14.1376 54.9878 14.3807 55.2332C14.6238 55.4785 14.9535 55.6163 15.2973 55.6163H45.0647C46.0142 54.5902 47.1064 53.7089 48.3071 53H15.2973C14.9535 53 14.6238 53.1378 14.3807 53.3832C14.1376 53.6285 14.001 53.9612 14.001 54.3082ZM95.6669 53H62.657C63.8577 53.7089 64.95 54.5902 65.8994 55.6163H95.6669C96.0107 55.6163 96.3404 55.4785 96.5835 55.2332C96.8266 54.9878 96.9632 54.6551 96.9632 54.3082C96.9632 53.9612 96.8266 53.6285 96.5835 53.3832C96.3404 53.1378 96.0107 53 95.6669 53ZM43.8155 65.4275C43.8155 67.7561 44.4998 70.0324 45.7817 71.9685C47.0636 73.9046 48.8857 75.4137 51.0175 76.3048C53.1493 77.1959 55.495 77.429 57.7581 76.9748C60.0212 76.5205 62.1 75.3992 63.7316 73.7526C65.3632 72.1061 66.4743 70.0083 66.9245 67.7244C67.3746 65.4406 67.1436 63.0733 66.2606 60.922C65.3776 58.7707 63.8822 56.9319 61.9637 55.6383C60.0451 54.3446 57.7895 53.6541 55.4821 53.6541C52.389 53.6577 49.4236 54.8992 47.2365 57.1064C45.0493 59.3136 43.8191 62.3061 43.8155 65.4275ZM55.4821 56.2704C57.2767 56.2704 59.0311 56.8075 60.5233 57.8137C62.0155 58.8199 63.1786 60.25 63.8654 61.9233C64.5521 63.5965 64.7318 65.4377 64.3817 67.214C64.0316 68.9903 63.1674 70.622 61.8984 71.9026C60.6293 73.1833 59.0125 74.0554 57.2523 74.4087C55.4921 74.762 53.6677 74.5807 52.0096 73.8876C50.3516 73.1945 48.9344 72.0208 47.9373 70.515C46.9403 69.0091 46.4081 67.2386 46.4081 65.4275C46.4108 62.9998 47.3677 60.6722 49.0688 58.9555C50.7699 57.2388 53.0763 56.2731 55.4821 56.2704Z" fill="#AA4337" stroke="#182F43"/>
<path d="M51.5274 70.2708C51.9034 70.5053 52.3324 70.6389 52.7739 70.6589C53.2154 70.679 53.6546 70.5848 54.0499 70.3854L59.235 67.769C59.6656 67.5517 60.0278 67.2177 60.2809 66.8044C60.5341 66.3911 60.6681 65.9148 60.6681 65.4289C60.6681 64.9431 60.5341 64.4668 60.2809 64.0535C60.0278 63.6401 59.6656 63.3061 59.235 63.0888L54.0499 60.4725C53.6546 60.2731 53.2154 60.1789 52.7739 60.1989C52.3324 60.219 51.9034 60.3526 51.5274 60.587C51.1515 60.8215 50.8412 61.149 50.626 61.5386C50.4108 61.9281 50.2979 62.3667 50.2979 62.8126V68.0453C50.2979 68.4912 50.4108 68.9298 50.626 69.3193C50.8412 69.7088 51.1515 70.0364 51.5274 70.2708ZM52.8904 62.8126L58.0756 65.4289L52.8904 68.0453V62.8126Z" fill="#FFC100" stroke="#182F43"/>
<path d="M103.643 6.92449C104.027 6.92449 104.403 6.8094 104.723 6.59379C105.043 6.37818 105.292 6.07171 105.439 5.71316C105.586 5.35461 105.625 4.96007 105.55 4.57943C105.475 4.19879 105.29 3.84915 105.018 3.57473C104.746 3.3003 104.399 3.11342 104.022 3.0377C103.645 2.96199 103.254 3.00085 102.899 3.14937C102.543 3.29789 102.24 3.54939 102.026 3.87208C101.812 4.19477 101.698 4.57415 101.698 4.96224C101.699 5.48248 101.904 5.98124 102.268 6.3491C102.633 6.71696 103.127 6.92389 103.643 6.92449ZM103.643 3.98112C103.835 3.98112 104.023 4.03866 104.183 4.14647C104.343 4.25428 104.467 4.40751 104.541 4.58678C104.614 4.76606 104.634 4.96333 104.596 5.15365C104.559 5.34397 104.466 5.51879 104.33 5.656C104.194 5.79321 104.021 5.88666 103.832 5.92451C103.644 5.96237 103.448 5.94294 103.271 5.86868C103.093 5.79442 102.941 5.66867 102.834 5.50733C102.727 5.34598 102.67 5.15629 102.67 4.96224C102.671 4.70211 102.773 4.45271 102.955 4.26877C103.138 4.08483 103.385 3.98138 103.643 3.98112ZM103.643 38.0057C103.386 38.0057 103.136 38.0824 102.922 38.2261C102.709 38.3699 102.543 38.5742 102.445 38.8132C102.347 39.0522 102.321 39.3153 102.371 39.569C102.421 39.8228 102.545 40.0559 102.726 40.2388C102.907 40.4218 103.138 40.5464 103.39 40.5968C103.641 40.6473 103.902 40.6214 104.139 40.5224C104.376 40.4234 104.578 40.2557 104.72 40.0406C104.863 39.8255 104.939 39.5726 104.939 39.3138C104.939 38.967 104.802 38.6345 104.559 38.3892C104.316 38.144 103.986 38.0061 103.643 38.0057ZM103.643 39.9679C103.514 39.9679 103.389 39.9295 103.283 39.8577C103.176 39.7858 103.093 39.6836 103.044 39.5641C102.995 39.4446 102.982 39.3131 103.007 39.1862C103.032 39.0593 103.094 38.9428 103.184 38.8513C103.275 38.7598 103.39 38.6975 103.516 38.6723C103.642 38.6471 103.772 38.66 103.891 38.7095C104.009 38.759 104.11 38.8429 104.182 38.9504C104.253 39.058 104.291 39.1845 104.291 39.3138C104.291 39.4872 104.222 39.6535 104.101 39.7761C103.979 39.8988 103.814 39.9677 103.643 39.9679ZM64.7541 19.0373C64.4977 19.0373 64.2471 19.114 64.0339 19.2578C63.8208 19.4015 63.6546 19.6058 63.5565 19.8449C63.4584 20.0839 63.4327 20.3469 63.4827 20.6007C63.5328 20.8544 63.6562 21.0875 63.8375 21.2705C64.0188 21.4534 64.2498 21.578 64.5012 21.6285C64.7527 21.679 65.0133 21.6531 65.2502 21.5541C65.4871 21.455 65.6895 21.2874 65.8319 21.0722C65.9744 20.8571 66.0504 20.6042 66.0504 20.3455C66.05 19.9986 65.9133 19.6661 65.6703 19.4209C65.4273 19.1757 65.0978 19.0377 64.7541 19.0373ZM64.7541 20.9995C64.6259 20.9995 64.5006 20.9612 64.394 20.8893C64.2874 20.8174 64.2044 20.7153 64.1553 20.5958C64.1063 20.4763 64.0934 20.3447 64.1184 20.2179C64.1434 20.091 64.2052 19.9744 64.2958 19.883C64.3865 19.7915 64.5019 19.7292 64.6277 19.704C64.7534 19.6787 64.8837 19.6917 65.0022 19.7412C65.1206 19.7907 65.2218 19.8745 65.293 19.9821C65.3643 20.0896 65.4023 20.2161 65.4023 20.3455C65.4021 20.5189 65.3338 20.6852 65.2122 20.8078C65.0907 20.9304 64.926 20.9994 64.7541 20.9995ZM45.1124 3C44.856 3 44.6054 3.07672 44.3922 3.22047C44.179 3.36421 44.0129 3.56852 43.9147 3.80755C43.8166 4.04659 43.791 4.30961 43.841 4.56337C43.891 4.81713 44.0145 5.05022 44.1957 5.23317C44.377 5.41612 44.608 5.54071 44.8595 5.59119C45.1109 5.64166 45.3716 5.61576 45.6084 5.51675C45.8453 5.41773 46.0477 5.25006 46.1902 5.03494C46.3326 4.81981 46.4086 4.56689 46.4086 4.30816C46.4082 3.96134 46.2715 3.62883 46.0285 3.38359C45.7855 3.13835 45.456 3.0004 45.1124 3ZM45.1124 4.96224C44.9842 4.96224 44.8589 4.92388 44.7523 4.85201C44.6457 4.78014 44.5626 4.67799 44.5135 4.55847C44.4645 4.43895 44.4517 4.30744 44.4767 4.18056C44.5017 4.05368 44.5634 3.93713 44.654 3.84566C44.7447 3.75418 44.8602 3.69189 44.9859 3.66665C45.1116 3.64141 45.242 3.65437 45.3604 3.70387C45.4788 3.75338 45.58 3.83721 45.6513 3.94477C45.7225 4.05234 45.7605 4.1788 45.7605 4.30816C45.7603 4.48158 45.692 4.64785 45.5705 4.77048C45.449 4.8931 45.2842 4.96207 45.1124 4.96224ZM4.92753 30.8108C4.92753 30.552 4.85151 30.2991 4.70907 30.084C4.56663 29.8689 4.36418 29.7012 4.12731 29.6022C3.89045 29.5032 3.62981 29.4773 3.37835 29.5277C3.1269 29.5782 2.89592 29.7028 2.71463 29.8858C2.53335 30.0687 2.40989 30.3018 2.35987 30.5556C2.30985 30.8093 2.33552 31.0723 2.43364 31.3114C2.53175 31.5504 2.6979 31.7547 2.91107 31.8985C3.12424 32.0422 3.37487 32.1189 3.63125 32.1189C3.97492 32.1185 4.30441 31.9806 4.54742 31.7353C4.79044 31.4901 4.92714 31.1576 4.92753 30.8108ZM2.9831 30.8108C2.9831 30.6814 3.02112 30.5549 3.09234 30.4474C3.16355 30.3398 3.26478 30.256 3.38321 30.2065C3.50165 30.157 3.63197 30.144 3.75769 30.1693C3.88342 30.1945 3.99891 30.2568 4.08955 30.3483C4.1802 30.4397 4.24193 30.5563 4.26693 30.6832C4.29194 30.81 4.27911 30.9416 4.23005 31.0611C4.181 31.1806 4.09792 31.2827 3.99133 31.3546C3.88475 31.4265 3.75944 31.4648 3.63125 31.4648C3.4594 31.4647 3.29464 31.3957 3.17313 31.2731C3.05162 31.1505 2.98328 30.9842 2.9831 30.8108Z" fill="#FFC100" stroke="#182F43"/>
<path d="M34.1054 19.5693L35.2972 17.98L35.6362 17.528L35.1463 17.2465L33.9628 16.5665L33.4759 16.2867L33.2543 16.8027L32.4863 18.5909L31.7075 16.8181L31.4824 16.3056L30.9984 16.5869L29.7935 17.2874L29.3043 17.5718L29.6468 18.0223L30.8103 19.5527L29.0649 19.3242L28.5 19.2502V19.8199V21.1788V21.7478L29.0643 21.6746L30.8222 21.4468L29.6484 22.9744L29.3167 23.4061L29.7749 23.6999L30.8992 24.4209L31.3852 24.7326L31.6242 24.207L32.4549 22.3805L33.2128 24.1742L33.4334 24.6963L33.924 24.4122L35.1667 23.6925L35.666 23.4034L35.3087 22.9503L34.1311 21.4569L35.9401 21.6752L36.5 21.7427V21.1788V19.8199V19.2485L35.9336 19.3244L34.1054 19.5693Z" fill="#FFC100" stroke="#182F43"/>
<path d="M9.48962 7.43918L8.93481 8.15801L9.26796 8.37059L9.64777 7.53925H9.65879L10.0094 8.3647L10.3776 8.15212L9.81693 7.44506V7.43329L10.6984 7.53925V7.13895L9.81693 7.25669V7.24491L10.3717 6.50842L10.0211 6.30762L9.66527 7.13241H9.6536L9.29129 6.3135L8.93481 6.51954L9.48379 7.23903V7.2508L8.625 7.13895V7.53925L9.48962 7.4274V7.43918Z" fill="#FFC100" stroke="#182F43"/>
<path d="M74.648 5.46836L72.0651 5.12912L71.5 5.0549V5.62487V7.37319V7.94237L72.0644 7.86902L74.6647 7.53112L72.9461 9.76883L72.6145 10.2006L73.0729 10.4944L74.5189 11.421L75.0049 11.7324L75.2438 11.207L76.4469 8.56105L77.5497 11.1694L77.7705 11.6918L78.2611 11.4072L79.8585 10.4806L80.3572 10.1913L80.0002 9.73851L78.2721 7.54725L80.94 7.86958L81.5 7.93724V7.37319V5.62487V5.0531L80.9333 5.12933L78.2453 5.49092L79.9827 3.17414L80.3218 2.72195L79.8316 2.44054L78.309 1.56638L77.8221 1.28686L77.6006 1.80272L76.4835 4.40418L75.3499 1.82412L75.1249 1.31202L74.6411 1.59282L73.0916 2.49224L72.602 2.77647L72.9446 3.22723L74.648 5.46836Z" fill="#FFC100" stroke="#182F43"/>
<path d="M77.4326 98.6982H72.048C71.7221 98.7246 71.418 98.8738 71.1963 99.1163C70.9746 99.3587 70.8514 99.6765 70.8514 100.006C70.8514 100.336 70.9746 100.654 71.1963 100.897C71.418 101.139 71.7221 101.288 72.048 101.315H77.4326C77.7585 101.288 78.0626 101.139 78.2843 100.897C78.506 100.654 78.6292 100.336 78.6292 100.006C78.6292 99.6765 78.506 99.3587 78.2843 99.1163C78.0626 98.8738 77.7585 98.7246 77.4326 98.6982ZM38.5441 98.6982H33.1595C32.8336 98.7246 32.5295 98.8738 32.3078 99.1163C32.086 99.3587 31.9629 99.6765 31.9629 100.006C31.9629 100.336 32.086 100.654 32.3078 100.897C32.5295 101.139 32.8336 101.288 33.1595 101.315H38.5441C38.8699 101.288 39.174 101.139 39.3958 100.897C39.6175 100.654 39.7406 100.336 39.7406 100.006C39.7406 99.6765 39.6175 99.3587 39.3958 99.1163C39.174 98.8738 38.8699 98.7246 38.5441 98.6982ZM68.2589 98.6982H42.3332C41.9894 98.6982 41.6597 98.8361 41.4166 99.0814C41.1735 99.3267 41.0369 99.6595 41.0369 100.006C41.0369 100.353 41.1735 100.686 41.4166 100.931C41.6597 101.177 41.9894 101.315 42.3332 101.315H52.6646V102.623H47.5183C47.1745 102.623 46.8448 102.761 46.6017 103.006C46.3586 103.251 46.222 103.584 46.222 103.931C46.222 104.278 46.3586 104.611 46.6017 104.856C46.8448 105.101 47.1745 105.239 47.5183 105.239H63.7219C64.0657 105.239 64.3954 105.101 64.6385 104.856C64.8816 104.611 65.0182 104.278 65.0182 103.931C65.0182 103.584 64.8816 103.251 64.6385 103.006C64.3954 102.761 64.0657 102.623 63.7219 102.623H57.9275V101.315H68.2589C68.6027 101.315 68.9324 101.177 69.1755 100.931C69.4186 100.686 69.5552 100.353 69.5552 100.006C69.5552 99.6595 69.4186 99.3267 69.1755 99.0814C68.9324 98.8361 68.6027 98.6982 68.2589 98.6982Z" fill="#FFC100" stroke="#182F43"/>
<path d="M33.4451 90.0179H36.0377C36.7253 90.0179 37.3847 89.7423 37.8709 89.2516C38.3571 88.761 38.6302 88.0955 38.6302 87.4016V84.7853C38.6302 84.0914 38.3571 83.4259 37.8709 82.9352C37.3847 82.4446 36.7253 82.1689 36.0377 82.1689H33.4451C32.7575 82.1689 32.0981 82.4446 31.6119 82.9352C31.1257 83.4259 30.8525 84.0914 30.8525 84.7853V87.4016C30.8525 88.0955 31.1257 88.761 31.6119 89.2516C32.0981 89.7423 32.7575 90.0179 33.4451 90.0179ZM33.4451 84.7853H36.0377V87.4016H33.4451V84.7853Z" fill="#FFC100" stroke="#182F43"/>
<path d="M21.5926 90.0179H24.1851C24.8727 90.0179 25.5322 89.7423 26.0184 89.2516C26.5046 88.761 26.7777 88.0955 26.7777 87.4016V84.7853C26.7777 84.0914 26.5046 83.4259 26.0184 82.9352C25.5322 82.4446 24.8727 82.1689 24.1851 82.1689H21.5926C20.905 82.1689 20.2455 82.4446 19.7593 82.9352C19.2731 83.4259 19 84.0914 19 84.7853V87.4016C19 88.0955 19.2731 88.761 19.7593 89.2516C20.2455 89.7423 20.905 90.0179 21.5926 90.0179ZM21.5926 84.7853H24.1851V87.4016H21.5926V84.7853Z" fill="#FFC100" stroke="#182F43"/>
<path d="M45.1111 90.0179H47.7037C48.3913 90.0179 49.0507 89.7423 49.5369 89.2516C50.0231 88.761 50.2963 88.0955 50.2963 87.4016V84.7853C50.2963 84.0914 50.0231 83.4259 49.5369 82.9352C49.0507 82.4446 48.3913 82.1689 47.7037 82.1689H45.1111C44.4235 82.1689 43.7641 82.4446 43.2779 82.9352C42.7917 83.4259 42.5186 84.0914 42.5186 84.7853V87.4016C42.5186 88.0955 42.7917 88.761 43.2779 89.2516C43.7641 89.7423 44.4235 90.0179 45.1111 90.0179ZM45.1111 84.7853H47.7037V87.4016H45.1111V84.7853Z" fill="#FFC100" stroke="#182F43"/>
<path d="M56.7771 90.0179H59.3697C60.0573 90.0179 60.7167 89.7423 61.2029 89.2516C61.6891 88.761 61.9623 88.0955 61.9623 87.4016V84.7853C61.9623 84.0914 61.6891 83.4259 61.2029 82.9352C60.7167 82.4446 60.0573 82.1689 59.3697 82.1689H56.7771C56.0895 82.1689 55.4301 82.4446 54.9439 82.9352C54.4577 83.4259 54.1846 84.0914 54.1846 84.7853V87.4016C54.1846 88.0955 54.4577 88.761 54.9439 89.2516C55.4301 89.7423 56.0895 90.0179 56.7771 90.0179ZM56.7771 84.7853H59.3697V87.4016H56.7771V84.7853Z" fill="#FFC100" stroke="#182F43"/>
<path d="M68.4441 90.0179H71.0367C71.7243 90.0179 72.3837 89.7423 72.8699 89.2516C73.3561 88.761 73.6293 88.0955 73.6293 87.4016V84.7853C73.6293 84.0914 73.3561 83.4259 72.8699 82.9352C72.3837 82.4446 71.7243 82.1689 71.0367 82.1689H68.4441C67.7565 82.1689 67.0971 82.4446 66.6109 82.9352C66.1247 83.4259 65.8516 84.0914 65.8516 84.7853V87.4016C65.8516 88.0955 66.1247 88.761 66.6109 89.2516C67.0971 89.7423 67.7565 90.0179 68.4441 90.0179ZM68.4441 84.7853H71.0367V87.4016H68.4441V84.7853Z" fill="#FFC100" stroke="#182F43"/>
<path d="M80.1121 90.0179H82.7047C83.3923 90.0179 84.0517 89.7423 84.5379 89.2516C85.0241 88.761 85.2972 88.0955 85.2972 87.4016V84.7853C85.2972 84.0914 85.0241 83.4259 84.5379 82.9352C84.0517 82.4446 83.3923 82.1689 82.7047 82.1689H80.1121C79.4245 82.1689 78.7651 82.4446 78.2789 82.9352C77.7927 83.4259 77.5195 84.0914 77.5195 84.7853V87.4016C77.5195 88.0955 77.7927 88.761 78.2789 89.2516C78.7651 89.7423 79.4245 90.0179 80.1121 90.0179ZM80.1121 84.7853H82.7047V87.4016H80.1121V84.7853Z" fill="#FFC100" stroke="#182F43"/>
<path d="M91.7771 90.0179H94.3697C95.0573 90.0179 95.7167 89.7423 96.2029 89.2516C96.6891 88.761 96.9623 88.0955 96.9623 87.4016V84.7853C96.9623 84.0914 96.6891 83.4259 96.2029 82.9352C95.7167 82.4446 95.0573 82.1689 94.3697 82.1689H91.7771C91.0895 82.1689 90.4301 82.4446 89.9439 82.9352C89.4577 83.4259 89.1846 84.0914 89.1846 84.7853V87.4016C89.1846 88.0955 89.4577 88.761 89.9439 89.2516C90.4301 89.7423 91.0895 90.0179 91.7771 90.0179ZM91.7771 84.7853H94.3697V87.4016H91.7771V84.7853Z" fill="#FFC100" stroke="#182F43"/>
<path d="M2.33437 96.2501C3.05029 96.2501 3.63066 95.6644 3.63066 94.9419C3.63066 94.2195 3.05029 93.6338 2.33437 93.6338C1.61845 93.6338 1.03809 94.2195 1.03809 94.9419C1.03809 95.6644 1.61845 96.2501 2.33437 96.2501Z" fill="#FFC100" stroke="#182F43"/>
<path d="M8.16942 93.6338H6.225C5.8812 93.6338 5.55148 93.7716 5.30838 94.0169C5.06528 94.2623 4.92871 94.595 4.92871 94.9419C4.92871 95.2889 5.06528 95.6216 5.30838 95.867C5.55148 96.1123 5.8812 96.2501 6.225 96.2501H8.16942C8.51322 96.2501 8.84293 96.1123 9.08603 95.867C9.32913 95.6216 9.46571 95.2889 9.46571 94.9419C9.46571 94.595 9.32913 94.2623 9.08603 94.0169C8.84293 93.7716 8.51322 93.6338 8.16942 93.6338ZM104.743 93.6338H102.798C102.454 93.6338 102.125 93.7716 101.882 94.0169C101.638 94.2623 101.502 94.595 101.502 94.9419C101.502 95.2889 101.638 95.6216 101.882 95.867C102.125 96.1123 102.454 96.2501 102.798 96.2501H104.743C105.086 96.2501 105.416 96.1123 105.659 95.867C105.902 95.6216 106.039 95.2889 106.039 94.9419C106.039 94.595 105.902 94.2623 105.659 94.0169C105.416 93.7716 105.086 93.6338 104.743 93.6338Z" fill="#FFC100" stroke="#182F43"/>
<path d="M98.7272 93.6351H12.2374C12.053 93.6108 11.8656 93.6265 11.6876 93.6811C11.5097 93.7357 11.3454 93.828 11.2056 93.9518C11.0658 94.0757 10.9539 94.2282 10.8771 94.3991C10.8004 94.5701 10.7607 94.7556 10.7607 94.9433C10.7607 95.131 10.8004 95.3165 10.8771 95.4875C10.9539 95.6585 11.0658 95.811 11.2056 95.9348C11.3454 96.0586 11.5097 96.1509 11.6876 96.2055C11.8656 96.2601 12.053 96.2758 12.2374 96.2515H98.7272C98.9116 96.2758 99.0991 96.2601 99.277 96.2055C99.4549 96.1509 99.6193 96.0586 99.759 95.9348C99.8988 95.811 100.011 95.6585 100.088 95.4875C100.164 95.3165 100.204 95.131 100.204 94.9433C100.204 94.7556 100.164 94.5701 100.088 94.3991C100.011 94.2282 99.8988 94.0757 99.759 93.9518C99.6193 93.828 99.4549 93.7357 99.277 93.6811C99.0991 93.6265 98.9116 93.6108 98.7272 93.6351Z" fill="#FFC100" stroke="#182F43"/>
</svg>
