<svg width="107" height="108" viewBox="0 0 107 108" fill="none" xmlns="http://www.w3.org/2000/svg">
<path d="M2.25387 98.414C2.94637 98.414 3.50774 97.8526 3.50774 97.1601C3.50774 96.4676 2.94637 95.9062 2.25387 95.9062C1.56138 95.9062 1 96.4676 1 97.1601C1 97.8526 1.56138 98.414 2.25387 98.414Z" fill="#FFC100" stroke="#182F43"/>
<path d="M7.89542 95.9062H6.01461C5.68207 95.9062 5.36314 96.0384 5.12799 96.2735C4.89285 96.5086 4.76074 96.8276 4.76074 97.1601C4.76074 97.4927 4.89285 97.8116 5.12799 98.0467C5.36314 98.2819 5.68207 98.414 6.01461 98.414H7.89542C8.22797 98.414 8.5469 98.2819 8.78204 98.0467C9.01719 97.8116 9.14929 97.4927 9.14929 97.1601C9.14929 96.8276 9.01719 96.5086 8.78204 96.2735C8.5469 96.0384 8.22797 95.9062 7.89542 95.9062ZM101.309 95.9062H99.4281C99.0955 95.9062 98.7766 96.0384 98.5414 96.2735C98.3063 96.5086 98.1742 96.8276 98.1742 97.1601C98.1742 97.4927 98.3063 97.8116 98.5414 98.0467C98.7766 98.2819 99.0955 98.414 99.4281 98.414H101.309C101.641 98.414 101.96 98.2819 102.195 98.0467C102.431 97.8116 102.563 97.4927 102.563 97.1601C102.563 96.8276 102.431 96.5086 102.195 96.2735C101.96 96.0384 101.641 95.9062 101.309 95.9062Z" fill="#FFC100" stroke="#182F43"/>
<path d="M105.072 98.414C105.765 98.414 106.326 97.8526 106.326 97.1601C106.326 96.4676 105.765 95.9062 105.072 95.9062C104.38 95.9062 103.818 96.4676 103.818 97.1601C103.818 97.8526 104.38 98.414 105.072 98.414Z" fill="#FFC100" stroke="#182F43"/>
<path d="M75.0738 100.921H69.8654C69.5502 100.946 69.256 101.089 69.0415 101.322C68.827 101.554 68.7079 101.859 68.7079 102.175C68.7079 102.491 68.827 102.796 69.0415 103.028C69.256 103.26 69.5502 103.403 69.8654 103.429H75.0738C75.389 103.403 75.6831 103.26 75.8976 103.028C76.1121 102.796 76.2312 102.491 76.2312 102.175C76.2312 101.859 76.1121 101.554 75.8976 101.322C75.6831 101.089 75.389 100.946 75.0738 100.921ZM37.4576 100.921H32.2492C31.934 100.946 31.6399 101.089 31.4254 101.322C31.2109 101.554 31.0918 101.859 31.0918 102.175C31.0918 102.491 31.2109 102.796 31.4254 103.028C31.6399 103.26 31.934 103.403 32.2492 103.429H37.4576C37.7728 103.403 38.067 103.26 38.2815 103.028C38.496 102.796 38.6151 102.491 38.6151 102.175C38.6151 101.859 38.496 101.554 38.2815 101.322C38.067 101.089 37.7728 100.946 37.4576 100.921ZM66.2002 100.921H41.1228C40.7902 100.921 40.4713 101.053 40.2362 101.288C40.001 101.523 39.8689 101.842 39.8689 102.175C39.8689 102.507 40.001 102.826 40.2362 103.061C40.4713 103.297 40.7902 103.429 41.1228 103.429H51.1161V104.683H46.1383C45.8057 104.683 45.4868 104.815 45.2517 105.05C45.0165 105.285 44.8844 105.604 44.8844 105.936C44.8844 106.269 45.0165 106.588 45.2517 106.823C45.4868 107.058 45.8057 107.19 46.1383 107.19H61.8117C62.1442 107.19 62.4631 107.058 62.6983 106.823C62.9334 106.588 63.0655 106.269 63.0655 105.936C63.0655 105.604 62.9334 105.285 62.6983 105.05C62.4631 104.815 62.1442 104.683 61.8117 104.683H56.2069V103.429H66.2002C66.5328 103.429 66.8517 103.297 67.0868 103.061C67.322 102.826 67.4541 102.507 67.4541 102.175C67.4541 101.842 67.322 101.523 67.0868 101.288C66.8517 101.053 66.5328 100.921 66.2002 100.921Z" fill="#AA4337" stroke="#182F43"/>
<path d="M37.3623 43.2422V57.0348C37.3631 57.6996 37.6275 58.3371 38.0976 58.8072C38.5678 59.2773 39.2052 59.5418 39.87 59.5425H67.4552C68.1201 59.5418 68.7575 59.2773 69.2276 58.8072C69.6978 58.3371 69.9622 57.6996 69.963 57.0348V43.2422C69.9599 40.5828 68.9021 38.0331 67.0216 36.1526C65.1411 34.2721 62.5914 33.2143 59.932 33.2112H59.7936C61.0423 31.9923 61.8993 30.4289 62.2552 28.7206C62.6111 27.0123 62.4498 25.2367 61.7917 23.6206C61.1337 22.0044 60.0089 20.6211 58.5609 19.6473C57.113 18.6734 55.4076 18.1533 53.6626 18.1533C51.9177 18.1533 50.2123 18.6734 48.7643 19.6473C47.3164 20.6211 46.1916 22.0044 45.5335 23.6206C44.8755 25.2367 44.7141 27.0123 45.07 28.7206C45.4259 30.4289 46.283 31.9923 47.5317 33.2112H47.3933C44.7338 33.2143 42.1842 34.2721 40.3037 36.1526C38.4232 38.0331 37.3653 40.5828 37.3623 43.2422ZM47.3933 26.9419C47.3933 25.7019 47.761 24.4898 48.4499 23.4588C49.1387 22.4278 50.1179 21.6242 51.2635 21.1497C52.409 20.6752 53.6696 20.5511 54.8857 20.793C56.1019 21.0349 57.219 21.632 58.0957 22.5088C58.9725 23.3855 59.5696 24.5026 59.8115 25.7188C60.0534 26.9349 59.9293 28.1955 59.4548 29.341C58.9803 30.4866 58.1767 31.4658 57.1457 32.1546C56.1147 32.8435 54.9026 33.2112 53.6626 33.2112C52.0005 33.2094 50.4069 32.5483 49.2316 31.3729C48.0562 30.1976 47.3951 28.604 47.3933 26.9419ZM59.932 35.719C61.9266 35.7213 63.8388 36.5146 65.2492 37.925C66.6596 39.3354 67.4529 41.2476 67.4552 43.2422L67.4568 57.0348H39.87V43.2422C39.8723 41.2476 40.6657 39.3354 42.0761 37.925C43.4865 36.5146 45.3987 35.7213 47.3933 35.719H59.932Z" fill="#AA4337" stroke="#182F43"/>
<path d="M95.493 95.9053H67.701L71.3372 94.4007C71.9507 94.1444 72.4376 93.6555 72.6914 93.0409C72.9452 92.4264 72.9452 91.7363 72.6914 91.1218L71.5942 88.4699C72.661 87.8364 73.6928 87.1457 74.6851 86.401L76.7163 88.4323C77.1873 88.902 77.8254 89.1658 78.4906 89.1658C79.1558 89.1658 79.7938 88.902 80.2648 88.4323L83.807 84.8901C84.2767 84.4191 84.5405 83.781 84.5405 83.1159C84.5405 82.4507 84.2767 81.8126 83.807 81.3416L81.7757 79.3104C82.5205 78.3181 83.2111 77.2863 83.8446 76.2196L86.4966 77.3167C87.1112 77.5691 87.8007 77.5684 88.4148 77.3148C89.029 77.0611 89.518 76.5751 89.7754 75.9625L91.6938 71.3295C91.9471 70.7141 91.9462 70.0235 91.6911 69.4089C91.4361 68.7943 90.9479 68.3059 90.3334 68.0506L87.6877 66.9535C87.99 65.7503 88.2307 64.5324 88.4087 63.3047H91.28C91.6094 63.3048 91.9355 63.24 92.2398 63.114C92.5441 62.988 92.8206 62.8033 93.0535 62.5704C93.2864 62.3375 93.4711 62.061 93.5971 61.7567C93.7231 61.4524 93.7879 61.1263 93.7878 60.7969V43.2427C93.7843 40.5834 92.7263 38.0341 90.8459 36.1537C88.9655 34.2733 86.4161 33.2153 83.7568 33.2118H83.6189C84.8674 31.9928 85.7243 30.4294 86.0801 28.7211C86.4359 27.0129 86.2745 25.2373 85.6164 23.6213C84.9584 22.0052 83.8335 20.622 82.3856 19.6482C80.9377 18.6744 79.2323 18.1543 77.4874 18.1543C75.7425 18.1543 74.0372 18.6744 72.5893 19.6482C71.1413 20.622 70.0165 22.0052 69.3584 23.6213C68.7004 25.2373 68.5389 27.0129 68.8947 28.7211C69.2505 30.4294 70.1074 31.9928 71.356 33.2118H71.2181C70.1481 33.2117 69.0852 33.3853 68.0709 33.7259C68.7983 34.3498 69.4524 35.0544 70.0206 35.8261C70.4163 35.7587 70.8167 35.7231 71.2181 35.7195H83.7568C85.7516 35.7211 87.6642 36.5142 89.0748 37.9248C90.4853 39.3353 91.2785 41.2479 91.28 43.2427V57.0353H72.472C72.471 57.9163 72.2374 58.7814 71.7949 59.5431H91.28V60.7969H87.3053C86.9965 60.797 86.6985 60.9108 86.4684 61.1167C86.2382 61.3226 86.092 61.606 86.0577 61.9129C85.8532 63.75 85.4925 65.5664 84.9793 67.3422C84.8946 67.6385 84.922 67.9556 85.0561 68.2331C85.1902 68.5106 85.4217 68.7291 85.7066 68.8468L89.3742 70.3703L87.4557 75.0033L83.7882 73.4799C83.504 73.3618 83.1862 73.3529 82.8958 73.4547C82.6054 73.5565 82.3628 73.7619 82.2145 74.0316C81.3167 75.6489 80.2849 77.1882 79.13 78.6333C78.9371 78.8738 78.84 79.1773 78.8574 79.4851C78.8747 79.793 79.0053 80.0836 79.2241 80.3009L82.0327 83.1159L78.4905 86.6581L75.6756 83.8494C75.4582 83.6307 75.1677 83.5001 74.8598 83.4827C74.5519 83.4653 74.2485 83.5624 74.0079 83.7553C72.5629 84.9102 71.0236 85.942 69.4062 86.8399C69.1366 86.9881 68.9312 87.2307 68.8294 87.5211C68.7276 87.8115 68.7365 88.1293 68.8545 88.4135L70.378 92.081L65.7449 93.9995L64.2215 90.3319C64.1032 90.0475 63.8847 89.8164 63.6074 89.6823C63.33 89.5483 63.0132 89.5207 62.7168 89.6046C60.941 90.1178 59.1247 90.4785 57.2876 90.683C56.9807 90.7173 56.6973 90.8636 56.4914 91.0937C56.2855 91.3239 56.1717 91.6218 56.1716 91.9306V95.9053H51.1561V91.9306C51.1561 91.6218 51.0422 91.3239 50.8364 91.0937C50.6305 90.8636 50.3471 90.7173 50.0402 90.683C48.2221 90.4824 44.379 89.5545 44.2661 89.5545C44.0179 89.556 43.7755 89.6306 43.5693 89.7688C43.3631 89.907 43.2021 90.1028 43.1063 90.3319L41.5828 93.9995L36.9498 92.081L38.4732 88.4135C38.5912 88.1293 38.6002 87.8115 38.4984 87.5211C38.3966 87.2307 38.1912 86.9881 37.9215 86.8399C36.3042 85.942 34.7649 84.9102 33.3198 83.7553C33.0792 83.5624 32.7758 83.4653 32.468 83.4827C32.1601 83.5001 31.8695 83.6307 31.6522 83.8494L28.8372 86.6581L25.295 83.1159L28.1037 80.3009C28.3224 80.0836 28.453 79.793 28.4704 79.4851C28.4878 79.1773 28.3906 78.8738 28.1978 78.6333C27.0429 77.1882 26.0111 75.6489 25.1132 74.0316C24.9649 73.7619 24.7224 73.5565 24.432 73.4547C24.1416 73.3529 23.8238 73.3618 23.5396 73.4799L19.872 75.0033L17.9536 70.3703L21.6212 68.8468C21.906 68.7291 22.1376 68.5106 22.2717 68.2331C22.4058 67.9556 22.4331 67.6385 22.3484 67.3422C21.8353 65.5664 21.4745 63.75 21.2701 61.9129C21.2358 61.606 21.0895 61.3226 20.8594 61.1167C20.6292 60.9108 20.3313 60.797 20.0225 60.7969H16.0477V59.5431H35.5329C35.0903 58.7814 34.8568 57.9163 34.8558 57.0353H16.0477V43.2427C16.0493 41.2479 16.8424 39.3353 18.253 37.9248C19.6635 36.5142 21.5762 35.7211 23.571 35.7195H36.1097C36.511 35.7231 36.9115 35.7587 37.3071 35.8261C37.8754 35.0544 38.5295 34.3498 39.2569 33.7259C38.2426 33.3853 37.1797 33.2117 36.1097 33.2118H35.9718C37.2203 31.9928 38.0772 30.4294 38.433 28.7211C38.7888 27.0129 38.6274 25.2373 37.9693 23.6213C37.3112 22.0052 36.1864 20.6219 34.7385 19.6482C33.2906 18.6744 31.5852 18.1543 29.8403 18.1543C28.0954 18.1543 26.3901 18.6744 24.9422 19.6482C23.4942 20.6219 22.3694 22.0052 21.7113 23.6213C21.0533 25.2373 20.8918 27.0129 21.2476 28.7211C21.6034 30.4294 22.4603 31.9928 23.7089 33.2118H23.571C20.9117 33.2153 18.3623 34.2733 16.4819 36.1537C14.6015 38.0341 13.5435 40.5834 13.54 43.2427V60.7969C13.5399 61.1263 13.6047 61.4524 13.7307 61.7567C13.8567 62.061 14.0414 62.3375 14.2743 62.5704C14.5072 62.8033 14.7837 62.988 15.088 63.114C15.3923 63.24 15.7184 63.3048 16.0477 63.3047H18.9191C19.0971 64.5324 19.3378 65.7503 19.6401 66.9535L16.9944 68.0506C16.3799 68.3059 15.8917 68.7943 15.6366 69.4089C15.3816 70.0235 15.3807 70.7141 15.634 71.3295L17.5524 75.9625C17.8087 76.576 18.2976 77.063 18.9122 77.3168C19.5267 77.5706 20.2167 77.5705 20.8313 77.3167L23.4832 76.2196C24.1167 77.2863 24.8073 78.3181 25.5521 79.3104L23.5208 81.3416C23.0511 81.8126 22.7873 82.4507 22.7873 83.1159C22.7873 83.781 23.0511 84.4191 23.5208 84.8901L27.063 88.4323C27.534 88.902 28.172 89.1658 28.8372 89.1658C29.5024 89.1658 30.1405 88.902 30.6115 88.4323L32.6427 86.401C33.635 87.1457 34.6668 87.8364 35.7335 88.4699L34.6364 91.1218C34.3825 91.7363 34.3825 92.4264 34.6363 93.0409C34.8901 93.6555 35.3771 94.1444 35.9906 94.4007L39.6268 95.9053H11.8347C11.6563 95.8819 11.4749 95.8968 11.3026 95.9491C11.1304 96.0014 10.9713 96.0898 10.836 96.2085C10.7007 96.3272 10.5922 96.4734 10.518 96.6374C10.4437 96.8013 10.4053 96.9792 10.4053 97.1592C10.4053 97.3392 10.4437 97.5171 10.518 97.6811C10.5922 97.845 10.7007 97.9913 10.836 98.1099C10.9713 98.2286 11.1304 98.3171 11.3026 98.3694C11.4749 98.4216 11.6563 98.4365 11.8347 98.4131H95.493C95.6715 98.4365 95.8529 98.4216 96.0251 98.3694C96.1974 98.3171 96.3565 98.2286 96.4918 98.1099C96.6271 97.9913 96.7355 97.845 96.8098 97.6811C96.8841 97.5171 96.9225 97.3392 96.9225 97.1592C96.9225 96.9792 96.8841 96.8013 96.8098 96.6374C96.7355 96.4734 96.6271 96.3272 96.4918 96.2085C96.3565 96.0898 96.1974 96.0014 96.0251 95.9491C95.8529 95.8968 95.6715 95.8819 95.493 95.9053ZM77.4874 33.2118C76.2475 33.2118 75.0354 32.8441 74.0044 32.1552C72.9734 31.4663 72.1698 30.4872 71.6953 29.3416C71.2208 28.196 71.0966 26.9355 71.3386 25.7193C71.5805 24.5032 72.1776 23.3861 73.0543 22.5093C73.9311 21.6325 75.0482 21.0354 76.2644 20.7935C77.4805 20.5516 78.7411 20.6758 79.8866 21.1503C81.0322 21.6248 82.0113 22.4284 82.7002 23.4593C83.3891 24.4903 83.7568 25.7024 83.7568 26.9424C83.7541 28.6043 83.0927 30.1974 81.9175 31.3725C80.7424 32.5476 79.1493 33.209 77.4874 33.2118ZM23.571 26.9424C23.571 25.7024 23.9387 24.4903 24.6275 23.4593C25.3164 22.4284 26.2956 21.6248 27.4411 21.1503C28.5867 20.6758 29.8473 20.5516 31.0634 20.7935C32.2796 21.0354 33.3966 21.6325 34.2734 22.5093C35.1502 23.3861 35.7473 24.5032 35.9892 25.7193C36.2311 26.9355 36.107 28.196 35.6325 29.3416C35.1579 30.4872 34.3544 31.4663 33.3234 32.1552C32.2924 32.8441 31.0803 33.2118 29.8403 33.2118C28.1784 33.209 26.5854 32.5476 25.4102 31.3725C24.2351 30.1974 23.5737 28.6043 23.571 26.9424ZM48.6484 95.9053H43.2003C43.507 95.6507 43.7478 95.326 43.9025 94.9587L44.9996 92.313C46.2028 92.6153 47.4207 92.856 48.6484 93.034V95.9053ZM58.6794 95.9053V93.034C59.9071 92.856 61.125 92.6153 62.3281 92.313L63.4253 94.9587C63.5799 95.326 63.8208 95.6507 64.1274 95.9053H58.6794Z" fill="#FFC100" stroke="#182F43"/>
<path d="M76.8219 59.543C76.5021 65.469 73.9226 71.047 69.6146 75.1288C65.3065 79.2106 59.5976 81.4857 53.6629 81.4857C47.7282 81.4857 42.0193 79.2106 37.7113 75.1288C33.4032 71.047 30.8238 65.469 30.5039 59.543H33.0179C33.3358 64.8028 35.6492 69.743 39.486 73.3549C43.3228 76.9668 48.3935 78.9781 53.6629 78.9781C58.9323 78.9781 64.0031 76.9668 67.8398 73.3549C71.6766 69.743 73.9901 64.8028 74.3079 59.543H76.8219Z" fill="#FFC100" stroke="#182F43"/>
<path d="M62.3187 8.76162C62.6907 8.76162 63.0543 8.65131 63.3636 8.44464C63.6729 8.23798 63.914 7.94423 64.0563 7.60056C64.1987 7.25689 64.2359 6.87872 64.1634 6.51388C64.0908 6.14904 63.9117 5.81391 63.6486 5.55088C63.3856 5.28784 63.0505 5.10871 62.6856 5.03614C62.3208 4.96357 61.9426 5.00081 61.5989 5.14317C61.2553 5.28552 60.9615 5.52659 60.7549 5.83589C60.5482 6.14518 60.4379 6.50882 60.4379 6.88081C60.4385 7.37945 60.6368 7.85751 60.9894 8.21011C61.342 8.56271 61.82 8.76104 62.3187 8.76162ZM62.3187 5.9404C62.5047 5.9404 62.6865 5.99556 62.8412 6.09889C62.9958 6.20222 63.1163 6.34909 63.1875 6.52093C63.2587 6.69277 63.2773 6.88185 63.241 7.06427C63.2047 7.24669 63.1152 7.41426 62.9837 7.54577C62.8521 7.67729 62.6846 7.76686 62.5022 7.80314C62.3197 7.83943 62.1307 7.8208 61.9588 7.74963C61.787 7.67845 61.6401 7.55792 61.5368 7.40327C61.4334 7.24862 61.3783 7.0668 61.3783 6.88081C61.3785 6.63147 61.4777 6.39242 61.654 6.21611C61.8303 6.03981 62.0694 5.94065 62.3187 5.9404ZM100.248 46.3778C100 46.3778 99.7579 46.4513 99.5517 46.5891C99.3455 46.7269 99.1848 46.9227 99.0899 47.1518C98.995 47.3809 98.9702 47.633 99.0185 47.8763C99.0669 48.1195 99.1863 48.3429 99.3617 48.5183C99.5371 48.6936 99.7605 48.813 100.004 48.8614C100.247 48.9098 100.499 48.885 100.728 48.7901C100.957 48.6952 101.153 48.5344 101.291 48.3282C101.429 48.122 101.502 47.8796 101.502 47.6316C101.502 47.2992 101.37 46.9805 101.135 46.7454C100.899 46.5104 100.581 46.3781 100.248 46.3778ZM100.248 48.2586C100.124 48.2586 100.003 48.2218 99.9 48.1529C99.7969 48.084 99.7166 47.9861 99.6691 47.8716C99.6217 47.757 99.6092 47.6309 99.6334 47.5093C99.6576 47.3877 99.7173 47.276 99.805 47.1883C99.8927 47.1006 100.004 47.0409 100.126 47.0167C100.248 46.9926 100.374 47.005 100.488 47.0524C100.603 47.0999 100.701 47.1802 100.77 47.2833C100.838 47.3864 100.875 47.5076 100.875 47.6316C100.875 47.7979 100.809 47.9572 100.691 48.0748C100.574 48.1923 100.415 48.2584 100.248 48.2586ZM4.95407 9.23182C4.70608 9.23182 4.46365 9.30536 4.25745 9.44313C4.05126 9.58091 3.89054 9.77674 3.79564 10.0059C3.70074 10.235 3.67591 10.4871 3.72429 10.7303C3.77267 10.9735 3.89209 11.197 4.06745 11.3723C4.2428 11.5477 4.46622 11.6671 4.70945 11.7155C4.95268 11.7638 5.20479 11.739 5.4339 11.6441C5.66302 11.5492 5.85885 11.3885 5.99662 11.1823C6.1344 10.9761 6.20794 10.7337 6.20794 10.4857C6.20756 10.1533 6.07533 9.83455 5.84027 9.59949C5.6052 9.36442 5.2865 9.2322 4.95407 9.23182ZM4.95407 11.1126C4.83007 11.1126 4.70886 11.0759 4.60576 11.007C4.50266 10.9381 4.42231 10.8402 4.37485 10.7256C4.3274 10.611 4.31499 10.485 4.33918 10.3634C4.36337 10.2418 4.42308 10.1301 4.51076 10.0424C4.59844 9.9547 4.71014 9.89499 4.83176 9.8708C4.95337 9.84661 5.07943 9.85902 5.19399 9.90648C5.30854 9.95393 5.40646 10.0343 5.47535 10.1374C5.54423 10.2405 5.581 10.3617 5.581 10.4857C5.58084 10.6519 5.51473 10.8113 5.39719 10.9288C5.27966 11.0464 5.12029 11.1125 4.95407 11.1126ZM101.311 12.053C101.063 12.053 100.821 12.1266 100.615 12.2643C100.408 12.4021 100.248 12.5979 100.153 12.8271C100.058 13.0562 100.033 13.3083 100.081 13.5515C100.13 13.7947 100.249 14.0182 100.425 14.1935C100.6 14.3689 100.823 14.4883 101.067 14.5367C101.31 14.5851 101.562 14.5602 101.791 14.4653C102.02 14.3704 102.216 14.2097 102.354 14.0035C102.491 13.7973 102.565 13.5549 102.565 13.3069C102.565 12.9745 102.432 12.6558 102.197 12.4207C101.962 12.1856 101.644 12.0534 101.311 12.053ZM101.311 13.9338C101.187 13.9338 101.066 13.8971 100.963 13.8282C100.86 13.7593 100.779 13.6614 100.732 13.5468C100.684 13.4323 100.672 13.3062 100.696 13.1846C100.72 13.063 100.78 12.9513 100.868 12.8636C100.956 12.7759 101.067 12.7162 101.189 12.692C101.31 12.6678 101.437 12.6802 101.551 12.7277C101.666 12.7751 101.764 12.8555 101.832 12.9586C101.901 13.0617 101.938 13.1829 101.938 13.3069C101.938 13.4731 101.872 13.6325 101.754 13.75C101.637 13.8676 101.477 13.9337 101.311 13.9338ZM17.772 24.5917C17.772 24.3438 17.6984 24.1013 17.5606 23.8951C17.4229 23.6889 17.227 23.5282 16.9979 23.4333C16.7688 23.3384 16.5167 23.3136 16.2735 23.362C16.0302 23.4103 15.8068 23.5298 15.6315 23.7051C15.4561 23.8805 15.3367 24.1039 15.2883 24.3471C15.2399 24.5904 15.2648 24.8425 15.3597 25.0716C15.4546 25.3007 15.6153 25.4965 15.8215 25.6343C16.0277 25.7721 16.2701 25.8456 16.5181 25.8456C16.8505 25.8452 17.1692 25.713 17.4043 25.4779C17.6393 25.2429 17.7716 24.9242 17.772 24.5917ZM15.8911 24.5917C15.8911 24.4677 15.9279 24.3465 15.9968 24.2434C16.0657 24.1403 16.1636 24.06 16.2782 24.0125C16.3927 23.9651 16.5188 23.9527 16.6404 23.9769C16.762 24.001 16.8737 24.0608 16.9614 24.1484C17.0491 24.2361 17.1088 24.3478 17.133 24.4694C17.1572 24.591 17.1447 24.7171 17.0973 24.8317C17.0498 24.9462 16.9695 25.0441 16.8664 25.113C16.7633 25.1819 16.6421 25.2187 16.5181 25.2187C16.3519 25.2185 16.1925 25.1524 16.075 25.0349C15.9574 24.9173 15.8913 24.758 15.8911 24.5917Z" fill="#FFC100" stroke="#182F43"/>
<path d="M7.16731 46.5693L8.35895 44.98L8.69783 44.528L8.20806 44.2466L7.0248 43.5665L6.53803 43.2867L6.3163 43.8025L5.54777 45.5903L4.76857 43.8179L4.54322 43.3054L4.05931 43.5871L2.85589 44.2876L2.36732 44.572L2.70927 45.0221L3.87191 46.5527L2.12644 46.3242L1.56152 46.2502V46.8199V48.1801V48.7493L2.12602 48.6759L3.8834 48.4473L2.71083 49.9745L2.37965 50.4059L2.83726 50.6998L3.96004 51.4207L4.44612 51.7329L4.68532 51.207L5.51644 49.38L6.27478 51.1742L6.49546 51.6963L6.98594 51.4122L8.22843 50.6925L8.72765 50.4033L8.37046 49.9503L7.1935 48.4575L9.00141 48.6764L9.56152 48.7443V48.1801V46.8199V46.2485L8.99512 46.3244L7.16731 46.5693Z" fill="#AA4337" stroke="#182F43"/>
<path d="M102.002 28.6753L102.562 28.7429V28.1789V26.8198V26.2481L101.995 26.3243L100.167 26.57L101.358 24.98L101.697 24.5282L101.207 24.2467L100.024 23.5665L99.5371 23.2866L99.3155 23.8026L98.5475 25.5903L97.7687 23.8183L97.5433 23.3056L97.0593 23.5875L95.8556 24.2885L95.3671 24.573L95.7091 25.0231L96.8718 26.5531L95.1266 26.3241L94.5615 26.2499V26.8198V28.1789V28.7481L95.1259 28.6747L96.8844 28.4463L95.7106 29.9749L95.3792 30.4066L95.8374 30.7003L96.9614 31.4209L97.4476 31.7326L97.6865 31.2069L98.5166 29.3801L99.2745 31.1738L99.4951 31.6959L99.9856 31.4119L101.228 30.6926L101.727 30.4034L101.37 29.9503L100.192 28.4567L102.002 28.6753Z" fill="#AA4337" stroke="#182F43"/>
<path d="M78.5967 4.10907L79.5157 2.88259L79.8543 2.43074L79.3648 2.14931L78.3512 1.56654L77.8641 1.28651L77.6425 1.80276L77.0491 3.18487L76.4469 1.81553L76.2216 1.30338L75.7379 1.58457L74.7064 2.18418L74.2174 2.46842L74.5595 2.91885L75.4527 4.09495L74.1266 3.92083L73.5615 3.84663V4.41658V5.58342V6.15287L74.1262 6.07922L75.4622 5.90497L74.5612 7.07763L74.2297 7.50914L74.6876 7.80305L75.6502 8.4208L76.136 8.73261L76.3753 8.20721L77.0207 6.78989L77.6069 8.17772L77.8277 8.70039L78.3184 8.41564L79.3831 7.7979L79.8819 7.50847L79.5247 7.05572L78.6228 5.91259L80.0013 6.07979L80.5615 6.14773V5.58342V4.41658V3.84483L79.9949 3.92104L78.5967 4.10907Z" fill="#AA4337" stroke="#182F43"/>
</svg>
