<svg width="107" height="108" viewBox="0 0 107 108" fill="none" xmlns="http://www.w3.org/2000/svg">
<path d="M2.32684 98.2279C3.05964 98.2279 3.65368 97.6339 3.65368 96.9011C3.65368 96.1683 3.05964 95.5742 2.32684 95.5742C1.59405 95.5742 1 96.1683 1 96.9011C1 97.6339 1.59405 98.2279 2.32684 98.2279Z" fill="#FFC100" stroke="#182F43"/>
<path d="M8.98557 95.5195H7.05536C6.71408 95.5195 6.38677 95.6717 6.14545 95.9425C5.90413 96.2134 5.76855 96.5807 5.76855 96.9637C5.76855 97.3467 5.90413 97.7141 6.14545 97.9849C6.38677 98.2557 6.71408 98.4079 7.05536 98.4079H8.98557C9.32685 98.4079 9.65416 98.2557 9.89548 97.9849C10.1368 97.7141 10.2724 97.3467 10.2724 96.9637C10.2724 96.5807 10.1368 96.2134 9.89548 95.9425C9.65416 95.6717 9.32685 95.5195 8.98557 95.5195ZM104.853 95.5195H102.922C102.581 95.5195 102.254 95.6717 102.013 95.9425C101.771 96.2134 101.636 96.5807 101.636 96.9637C101.636 97.3467 101.771 97.7141 102.013 97.9849C102.254 98.2557 102.581 98.4079 102.922 98.4079H104.853C105.194 98.4079 105.521 98.2557 105.763 97.9849C106.004 97.7141 106.139 97.3467 106.139 96.9637C106.139 96.5807 106.004 96.2134 105.763 95.9425C105.521 95.6717 105.194 95.5195 104.853 95.5195Z" fill="#FFC100" stroke="#182F43"/>
<path d="M77.5334 100.574H72.2843C71.9667 100.6 71.6702 100.749 71.4541 100.99C71.2379 101.23 71.1179 101.546 71.1179 101.874C71.1179 102.202 71.2379 102.518 71.4541 102.758C71.6702 102.999 71.9667 103.148 72.2843 103.174H77.5334C77.8511 103.148 78.1475 102.999 78.3637 102.758C78.5798 102.518 78.6999 102.202 78.6999 101.874C78.6999 101.546 78.5798 101.23 78.3637 100.99C78.1475 100.749 77.8511 100.6 77.5334 100.574ZM39.6236 100.574H34.3745C34.0568 100.6 33.7604 100.749 33.5442 100.99C33.328 101.23 33.208 101.546 33.208 101.874C33.208 102.202 33.328 102.518 33.5442 102.758C33.7604 102.999 34.0568 103.148 34.3745 103.174H39.6236C39.9412 103.148 40.2377 102.999 40.4538 102.758C40.67 102.518 40.79 102.202 40.79 101.874C40.79 101.546 40.67 101.23 40.4538 100.99C40.2377 100.749 39.9412 100.6 39.6236 100.574ZM68.5906 100.574H43.3173C42.9822 100.574 42.6608 100.711 42.4238 100.955C42.1868 101.199 42.0537 101.529 42.0537 101.874C42.0537 102.219 42.1868 102.549 42.4238 102.793C42.6608 103.037 42.9822 103.174 43.3173 103.174H53.3887V104.474H48.372C48.0368 104.474 47.7154 104.61 47.4784 104.854C47.2414 105.098 47.1083 105.429 47.1083 105.773C47.1083 106.118 47.2414 106.449 47.4784 106.692C47.7154 106.936 48.0368 107.073 48.372 107.073H64.1677C64.5029 107.073 64.8243 106.936 65.0613 106.692C65.2983 106.449 65.4314 106.118 65.4314 105.773C65.4314 105.429 65.2983 105.098 65.0613 104.854C64.8243 104.61 64.5029 104.474 64.1677 104.474H58.5192V103.174H68.5906C68.9257 103.174 69.2471 103.037 69.4841 102.793C69.7211 102.549 69.8542 102.219 69.8542 101.874C69.8542 101.529 69.7211 101.199 69.4841 100.955C69.2471 100.711 68.9257 100.574 68.5906 100.574Z" fill="#FFC100" stroke="#182F43"/>
<path d="M22.2163 86.8547H88.9698C89.3103 86.8547 89.6368 86.7181 89.8775 86.4749C90.1183 86.2317 90.2535 85.9018 90.2536 85.5579V27.201C90.2524 26.1695 89.8463 25.1806 89.1243 24.4513C88.4024 23.7219 87.4234 23.3117 86.4024 23.3105H24.7838C23.7627 23.3117 22.7838 23.7219 22.0618 24.4513C21.3398 25.1806 20.9337 26.1695 20.9326 27.201V85.5579C20.9326 85.9018 21.0679 86.2317 21.3086 86.4749C21.5494 86.7181 21.8759 86.8547 22.2163 86.8547ZM23.5001 27.201C23.5004 26.8572 23.6358 26.5275 23.8764 26.2844C24.1171 26.0413 24.4434 25.9045 24.7838 25.9042H86.4024C86.7428 25.9045 87.0691 26.0413 87.3097 26.2844C87.5504 26.5275 87.6858 26.8572 87.6861 27.201V33.6851H23.5001V27.201ZM23.5001 36.2787H87.6861V84.2611H23.5001V36.2787Z" fill="#FFC100" stroke="#182F43"/>
<path d="M83.8972 28.3643H81.296C80.9511 28.3643 80.6203 28.4995 80.3763 28.7403C80.1324 28.981 79.9954 29.3075 79.9954 29.648C79.9954 29.9884 80.1324 30.315 80.3763 30.5557C80.6203 30.7965 80.9511 30.9317 81.296 30.9317H83.8972C84.2422 30.9317 84.573 30.7965 84.8169 30.5557C85.0608 30.315 85.1978 29.9884 85.1978 29.648C85.1978 29.3075 85.0608 28.981 84.8169 28.7403C84.573 28.4995 84.2422 28.3643 83.8972 28.3643ZM76.0936 28.3643H73.4923C73.1474 28.3643 72.8166 28.4995 72.5727 28.7403C72.3288 28.981 72.1917 29.3075 72.1917 29.648C72.1917 29.9884 72.3288 30.315 72.5727 30.5557C72.8166 30.7965 73.1474 30.9317 73.4923 30.9317H76.0936C76.4385 30.9317 76.7693 30.7965 77.0132 30.5557C77.2571 30.315 77.3942 29.9884 77.3942 29.648C77.3942 29.3075 77.2571 28.981 77.0132 28.7403C76.7693 28.4995 76.4385 28.3643 76.0936 28.3643ZM30.8973 51.4712H34.5931C34.5391 50.6375 34.506 49.7817 34.4937 48.9038H30.8973C30.5523 48.9038 30.2215 49.039 29.9776 49.2798C29.7337 49.5205 29.5967 49.8471 29.5967 50.1875C29.5967 50.528 29.7337 50.8545 29.9776 51.0952C30.2215 51.336 30.5523 51.4712 30.8973 51.4712ZM79.6702 48.9038H76.0739C76.0616 49.7817 76.0285 50.6375 75.9746 51.4712H79.6702C80.0152 51.4712 80.346 51.336 80.5899 51.0952C80.8338 50.8545 80.9709 50.528 80.9709 50.1875C80.9709 49.8471 80.8338 49.5205 80.5899 49.2798C80.346 49.039 80.0152 48.9038 79.6702 48.9038Z" fill="#FFC100" stroke="#182F43"/>
<path d="M30.9129 61.5817H36.3531C36.1026 60.6587 35.8812 59.6881 35.6756 58.6934H30.9129C30.5638 58.6934 30.229 58.8455 29.9822 59.1164C29.7354 59.3872 29.5967 59.7545 29.5967 60.1375C29.5967 60.5206 29.7354 60.8879 29.9822 61.1587C30.229 61.4296 30.5638 61.5817 30.9129 61.5817ZM80.2712 58.6934H75.5086C75.303 59.688 75.0819 60.6588 74.8314 61.5817H80.2712C80.6202 61.5817 80.955 61.4296 81.2019 61.1587C81.4487 60.8879 81.5874 60.5206 81.5874 60.1375C81.5874 59.7545 81.4487 59.3872 81.2019 59.1164C80.955 58.8455 80.6202 58.6934 80.2712 58.6934Z" fill="#FFC100" stroke="#182F43"/>
<path d="M32.3186 68.0801C31.9797 68.0801 31.6548 68.2322 31.4152 68.5031C31.1756 68.7739 31.041 69.1412 31.041 69.5243C31.041 69.9073 31.1756 70.2746 31.4152 70.5455C31.6548 70.8163 31.9797 70.9685 32.3186 70.9685H41.7578C41.2232 70.0716 40.6996 69.1122 40.1977 68.0801H32.3186ZM79.5879 68.0801H71.7077C71.2062 69.1116 70.6834 70.0724 70.1493 70.9685H79.5879C79.9267 70.9685 80.2517 70.8163 80.4913 70.5455C80.7308 70.2746 80.8654 69.9073 80.8654 69.5243C80.8654 69.1412 80.7308 68.7739 80.4913 68.5031C80.2517 68.2322 79.9267 68.0801 79.5879 68.0801Z" fill="#FFC100" stroke="#182F43"/>
<path d="M73.6362 47.1661C73.6289 46.8017 73.5427 46.4431 73.3836 46.1144C73.2244 45.7858 72.9959 45.4946 72.7135 45.2606C72.431 45.0266 72.1012 44.8552 71.7462 44.7579C71.3911 44.6607 71.0192 44.6398 70.6553 44.6966C69.8993 44.791 69.1378 44.8351 68.3759 44.8289C65.8198 44.8289 60.9769 44.3635 57.2623 41.2471C56.7963 40.8562 56.2052 40.6416 55.5943 40.6416C54.9834 40.6416 54.3923 40.8562 53.9264 41.2471C50.2117 44.3635 45.3689 44.8289 42.8127 44.8289C42.0481 44.8352 41.284 44.7906 40.5254 44.6954C40.1622 44.6408 39.7913 44.6633 39.4376 44.7616C39.0839 44.8599 38.7554 45.0317 38.4741 45.2655C38.1927 45.4993 37.965 45.7898 37.8061 46.1175C37.6472 46.4452 37.5607 46.8027 37.5525 47.1661C37.2789 60.7948 42.416 68.8978 46.7738 73.2955C49.7657 76.3149 53.1821 78.3232 54.9214 78.8021L54.9158 78.8225C55.1342 78.8813 55.3595 78.9116 55.5859 78.9125L55.5929 78.9125H55.5953L55.6027 78.9125C55.836 78.9116 56.068 78.8795 56.2925 78.8171L56.2867 78.7967C58.032 78.3083 61.4341 76.3039 64.4147 73.296C68.7725 68.8981 73.9097 60.795 73.6362 47.1661ZM55.5958 76.3611L55.5943 76.361L55.5929 76.3611C55.3828 76.3611 39.668 70.2735 40.1309 47.2168C41.0198 47.3339 41.916 47.3885 42.8127 47.3803C45.972 47.3803 51.3302 46.7704 55.5943 43.193C59.858 46.7701 65.2165 47.3803 68.3759 47.3803C69.2726 47.3885 70.1688 47.3339 71.0577 47.2168C71.5206 70.272 55.8077 76.3611 55.5958 76.3611Z" fill="#AA4337" stroke="#182F43"/>
<path d="M61.3693 55.1315C61.3629 53.5843 60.7134 52.1025 59.5631 51.0106C58.4127 49.9187 56.8552 49.3057 55.2315 49.3057C53.6079 49.3057 52.0504 49.9187 50.9 51.0106C49.7497 52.1025 49.1002 53.5843 49.0938 55.1315C49.0908 55.9534 49.2719 56.7663 49.6249 57.5161C49.978 58.2659 50.4949 58.9353 51.1412 59.4795L50.5906 65.9939C50.5603 66.3517 50.6082 66.7116 50.7311 67.051C50.854 67.3903 51.0493 67.7016 51.3048 67.9655C51.5602 68.2293 51.8702 68.4398 52.2153 68.5838C52.5603 68.7278 52.9329 68.8022 53.3096 68.8022H57.1535C57.5301 68.8022 57.9028 68.7278 58.2478 68.5838C58.5929 68.4398 58.9029 68.2293 59.1583 67.9655C59.4138 67.7016 59.6091 67.3903 59.732 67.051C59.855 66.7116 59.9028 66.3518 59.8726 65.9939L59.3219 59.4795C59.9682 58.9353 60.4851 58.2659 60.8381 57.5161C61.1912 56.7663 61.3723 55.9534 61.3693 55.1315ZM56.4715 58.1343L57.1535 66.2027H53.3096L53.9916 58.1343C53.2511 57.8588 52.6348 57.3455 52.2493 56.683C51.8639 56.0205 51.7334 55.2505 51.8804 54.5061C52.0275 53.7616 52.4429 53.0896 53.0548 52.606C53.6667 52.1224 54.4366 51.8578 55.2315 51.8578C56.0265 51.8578 56.7964 52.1224 57.4083 52.606C58.0202 53.0896 58.4356 53.7616 58.5826 54.5061C58.7297 55.2505 58.5992 56.0205 58.2137 56.683C57.8282 57.3455 57.212 57.8588 56.4715 58.1343H56.4715Z" fill="#FFC100" stroke="#182F43"/>
<path d="M98.4355 95.7981H66.6035V93.1988H91.5717C92.9295 93.1973 94.2314 92.6491 95.1915 91.6745C96.1517 90.7 96.6918 89.3786 96.6933 88.0004V37.965C96.6913 36.8137 96.3131 35.6957 95.618 34.7859C94.9229 33.8762 93.9501 33.2261 92.8521 32.9376V35.7262C93.2403 35.9524 93.5631 36.2784 93.7878 36.6714C94.0126 37.0644 94.1315 37.5106 94.1325 37.965V88.0004C94.1325 88.6897 93.8627 89.3508 93.3824 89.8383C92.9022 90.3257 92.2508 90.5996 91.5717 90.5996H19.8684C19.1892 90.5996 18.5378 90.3257 18.0576 89.8383C17.5773 89.3508 17.3075 88.6897 17.3075 88.0004V37.965C17.3085 37.5106 17.4274 37.0644 17.6522 36.6715C17.8769 36.2785 18.1997 35.9525 18.5879 35.7262V32.9376C17.4899 33.2261 16.5172 33.8762 15.8221 34.7859C15.1269 35.6956 14.7488 36.8137 14.7467 37.965V88.0004C14.7482 89.3786 15.2883 90.6999 16.2485 91.6745C17.2087 92.6491 18.5105 93.1973 19.8684 93.1988H44.8365V95.7981H13.0045C12.8223 95.7739 12.6372 95.7895 12.4614 95.8437C12.2857 95.898 12.1234 95.9897 11.9853 96.1127C11.8473 96.2357 11.7366 96.3872 11.6609 96.5571C11.5851 96.7269 11.5459 96.9112 11.5459 97.0977C11.5459 97.2841 11.5851 97.4685 11.6609 97.6383C11.7366 97.8082 11.8473 97.9597 11.9853 98.0827C12.1234 98.2057 12.2857 98.2974 12.4614 98.3516C12.6372 98.4059 12.8223 98.4215 13.0045 98.3973H98.4355C98.6177 98.4215 98.8028 98.4059 98.9786 98.3516C99.1543 98.2974 99.3167 98.2057 99.4547 98.0827C99.5928 97.9597 99.7034 97.8082 99.7792 97.6383C99.8549 97.4685 99.8941 97.2841 99.8941 97.0977C99.8941 96.9112 99.8549 96.7269 99.7792 96.5571C99.7034 96.3872 99.5928 96.2357 99.4547 96.1127C99.3167 95.9897 99.1543 95.898 98.9786 95.8437C98.8028 95.7895 98.6177 95.7739 98.4355 95.7981ZM47.3973 95.7981V93.1988H64.0427V95.7981H47.3973ZM23.7096 17.615C24.0895 17.615 24.4608 17.5007 24.7767 17.2865C25.0925 17.0723 25.3387 16.7678 25.484 16.4116C25.6294 16.0554 25.6674 15.6634 25.5933 15.2853C25.5192 14.9071 25.3363 14.5598 25.0677 14.2871C24.7991 14.0145 24.4569 13.8288 24.0843 13.7536C23.7117 13.6784 23.3256 13.717 22.9746 13.8646C22.6237 14.0121 22.3237 14.262 22.1127 14.5826C21.9016 14.9031 21.789 15.28 21.789 15.6656C21.7896 16.1824 21.9921 16.6779 22.3522 17.0434C22.7122 17.4089 23.2004 17.6144 23.7096 17.615ZM23.7096 14.6909C23.8995 14.6909 24.0852 14.7481 24.2431 14.8552C24.4011 14.9623 24.5241 15.1145 24.5968 15.2926C24.6695 15.4707 24.6885 15.6667 24.6515 15.8558C24.6144 16.0448 24.523 16.2185 24.3887 16.3548C24.2544 16.4911 24.0832 16.584 23.897 16.6216C23.7107 16.6592 23.5176 16.6399 23.3421 16.5661C23.1666 16.4923 23.0167 16.3674 22.9111 16.2071C22.8056 16.0468 22.7493 15.8584 22.7493 15.6656C22.7496 15.4072 22.8508 15.1594 23.0308 14.9767C23.2109 14.7939 23.455 14.6911 23.7096 14.6909ZM103.416 39.5218C103.162 39.5218 102.915 39.598 102.704 39.7408C102.494 39.8836 102.329 40.0866 102.233 40.324C102.136 40.5615 102.11 40.8228 102.16 41.0749C102.209 41.327 102.331 41.5586 102.51 41.7403C102.689 41.9221 102.917 42.0459 103.166 42.096C103.414 42.1462 103.672 42.1204 103.906 42.0221C104.139 41.9237 104.339 41.7571 104.48 41.5434C104.621 41.3297 104.696 41.0784 104.696 40.8214C104.696 40.4768 104.561 40.1465 104.32 39.9028C104.08 39.6592 103.755 39.5222 103.416 39.5218ZM103.416 41.4712C103.289 41.4712 103.165 41.4331 103.06 41.3617C102.955 41.2903 102.872 41.1888 102.824 41.07C102.776 40.9513 102.763 40.8207 102.788 40.6946C102.812 40.5686 102.873 40.4528 102.963 40.3619C103.052 40.271 103.166 40.2091 103.291 40.1841C103.415 40.159 103.544 40.1718 103.66 40.221C103.777 40.2702 103.877 40.3535 103.948 40.4604C104.018 40.5672 104.056 40.6929 104.056 40.8214C104.056 40.9937 103.988 41.1588 103.868 41.2807C103.748 41.4025 103.585 41.471 103.416 41.4712ZM82.6087 9.58992C82.3555 9.58992 82.1079 9.66614 81.8974 9.80894C81.6868 9.95174 81.5227 10.1547 81.4258 10.3922C81.3289 10.6297 81.3035 10.891 81.3529 11.1431C81.4023 11.3952 81.5243 11.6267 81.7034 11.8085C81.8824 11.9903 82.1106 12.114 82.3589 12.1642C82.6073 12.2143 82.8648 12.1886 83.0987 12.0902C83.3327 11.9919 83.5327 11.8253 83.6734 11.6116C83.8141 11.3978 83.8892 11.1466 83.8892 10.8895C83.8888 10.545 83.7537 10.2146 83.5137 9.971C83.2737 9.72736 82.9482 9.59031 82.6087 9.58992ZM82.6087 11.5393C82.4821 11.5393 82.3583 11.5012 82.2531 11.4298C82.1478 11.3584 82.0657 11.2569 82.0173 11.1382C81.9688 11.0195 81.9561 10.8888 81.9808 10.7628C82.0055 10.6367 82.0665 10.5209 82.1561 10.43C82.2456 10.3392 82.3597 10.2773 82.4838 10.2522C82.608 10.2271 82.7368 10.24 82.8537 10.2892C82.9707 10.3384 83.0707 10.4217 83.1411 10.5285C83.2114 10.6354 83.249 10.761 83.249 10.8895C83.2488 11.0618 83.1813 11.227 83.0613 11.3488C82.9412 11.4707 82.7785 11.5392 82.6087 11.5393ZM101.175 0.925781C100.922 0.925781 100.674 1.002 100.463 1.14481C100.253 1.28761 100.089 1.49058 99.9918 1.72806C99.8949 1.96553 99.8696 2.22684 99.919 2.47895C99.9684 2.73105 100.09 2.96262 100.269 3.14437C100.448 3.32613 100.677 3.4499 100.925 3.50005C101.173 3.5502 101.431 3.52446 101.665 3.42609C101.899 3.32773 102.099 3.16115 102.239 2.94743C102.38 2.73371 102.455 2.48244 102.455 2.2254C102.455 1.88084 102.32 1.55051 102.08 1.30687C101.84 1.06323 101.514 0.926175 101.175 0.925781ZM101.175 2.87521C101.048 2.87521 100.924 2.8371 100.819 2.7657C100.714 2.6943 100.632 2.59281 100.583 2.47407C100.535 2.35534 100.522 2.22468 100.547 2.09863C100.572 1.97258 100.633 1.85679 100.722 1.76592C100.812 1.67504 100.926 1.61315 101.05 1.58808C101.174 1.563 101.303 1.57587 101.42 1.62506C101.537 1.67424 101.637 1.75753 101.707 1.86439C101.777 1.97125 101.815 2.09688 101.815 2.2254C101.815 2.39769 101.747 2.56287 101.627 2.6847C101.507 2.80652 101.345 2.87504 101.175 2.87521ZM42.7732 2.87521C42.7732 2.61817 42.6981 2.3669 42.5574 2.15318C42.4167 1.93946 42.2167 1.77288 41.9828 1.67452C41.7488 1.57615 41.4914 1.55042 41.243 1.60056C40.9946 1.65071 40.7665 1.77449 40.5874 1.95624C40.4083 2.138 40.2864 2.36957 40.237 2.62167C40.1876 2.87377 40.2129 3.13508 40.3098 3.37256C40.4067 3.61003 40.5708 3.813 40.7814 3.95581C40.992 4.09861 41.2395 4.17483 41.4928 4.17483C41.8322 4.17444 42.1577 4.03739 42.3977 3.79375C42.6378 3.55011 42.7728 3.21977 42.7732 2.87521ZM40.8526 2.87521C40.8526 2.74669 40.8901 2.62106 40.9605 2.5142C41.0308 2.40734 41.1308 2.32405 41.2478 2.27487C41.3648 2.22568 41.4935 2.21281 41.6177 2.23789C41.7419 2.26296 41.8559 2.32485 41.9455 2.41573C42.035 2.5066 42.096 2.62239 42.1207 2.74844C42.1454 2.87449 42.1327 3.00515 42.0842 3.12388C42.0358 3.24262 41.9537 3.34411 41.8484 3.41551C41.7432 3.48691 41.6194 3.52502 41.4928 3.52502C41.323 3.52485 41.1603 3.45633 41.0403 3.33451C40.9202 3.21268 40.8527 3.0475 40.8526 2.87521Z" fill="#AA4337" stroke="#182F43"/>
<path d="M8.29844 43.8124L9.26996 42.5167L9.60884 42.0648L9.11907 41.7833L8.07241 41.1817L7.58563 40.902L7.3639 41.4178L6.73653 42.8772L6.10071 41.431L5.87536 40.9184L5.39145 41.2001L4.32695 41.8197L3.83838 42.1041L4.18033 42.5543L5.12513 43.7981L3.71823 43.6139L3.15332 43.5399V44.1096V45.3128V45.882L3.71782 45.8086L5.1344 45.6243L4.18189 46.8649L3.85071 47.2963L4.30832 47.5902L5.30149 48.2279L5.78757 48.54L6.02677 48.0142L6.70746 46.5179L7.32704 47.9837L7.54772 48.5058L8.0382 48.2217L9.13726 47.5851L9.63648 47.296L9.27929 46.8429L8.32481 45.6323L9.78513 45.8091L10.3453 45.877V45.3128V44.1096V43.5382L9.77885 43.6141L8.29844 43.8124Z" fill="#FFC100" stroke="#182F43"/>
<path d="M8.66881 8.10856L8.20139 7.51627L8.90094 7.60076L9.46089 7.66839V7.10437V6.24617V5.67459L8.89439 5.75061L8.17437 5.84724L8.66391 5.19431L9.00233 4.74293L8.51357 4.46119L7.76676 4.03069L7.27983 3.75L7.05774 4.26629L6.73914 5.00695L6.41753 4.27529L6.19262 3.7636L5.70905 4.04391L4.94702 4.48563L4.45682 4.76978L4.79975 5.22083L5.26861 5.8375L4.60296 5.7504L4.03809 5.67648V6.24617V7.10437V7.67362L4.60258 7.60019L5.27235 7.51308L4.80126 8.12634L4.46963 8.55805L4.92791 8.85186L5.63877 9.3076L6.12481 9.6192L6.36379 9.09364L6.71489 8.32149L7.03011 9.06846L7.25078 9.59135L7.74169 9.30654L8.52723 8.8508L9.02614 8.56135L8.66881 8.10856Z" fill="#FFC100" stroke="#182F43"/>
<path d="M56.9489 12.8538L57.9205 11.5574L58.2592 11.1055L57.7696 10.8241L56.7235 10.2228L56.2366 9.94283L56.0149 10.459L55.3881 11.9188L54.7517 10.4723L54.5262 9.95976L54.0424 10.2416L52.9779 10.8616L52.4894 11.1461L52.8315 11.5962L53.7761 12.8391L52.3695 12.6551L51.8047 12.5813V13.1509V14.3535V14.9226L52.3691 14.8493L53.7861 14.6653L52.833 15.9063L52.5015 16.3378L52.9595 16.6316L53.9529 17.269L54.4388 17.5808L54.6779 17.0553L55.3592 15.5588L55.9782 17.0241L56.1988 17.5461L56.6893 17.2622L57.788 16.6262L58.2875 16.337L57.9301 15.8838L56.9756 14.6735L58.4367 14.8499L58.9966 14.9175V14.3535V13.1509V12.5795L58.4302 12.6554L56.9489 12.8538Z" fill="#FFC100" stroke="#182F43"/>
</svg>
