<svg width="107" height="108" viewBox="0 0 107 108" fill="none" xmlns="http://www.w3.org/2000/svg">
<path d="M77.5812 100.518H72.1965C71.8707 100.544 71.5666 100.692 71.3448 100.932C71.1231 101.173 71 101.488 71 101.815C71 102.141 71.1231 102.456 71.3448 102.697C71.5666 102.937 71.8707 103.085 72.1965 103.111H77.5812C77.9071 103.085 78.2111 102.937 78.4329 102.697C78.6546 102.456 78.7778 102.141 78.7778 101.815C78.7778 101.488 78.6546 101.173 78.4329 100.932C78.2111 100.692 77.9071 100.544 77.5812 100.518ZM38.6924 100.518H33.3077C32.9819 100.544 32.6778 100.692 32.456 100.932C32.2343 101.173 32.1112 101.488 32.1112 101.815C32.1112 102.141 32.2343 102.456 32.456 102.697C32.6778 102.937 32.9819 103.085 33.3077 103.111H38.6924C39.0183 103.085 39.3223 102.937 39.5441 102.697C39.7658 102.456 39.889 102.141 39.889 101.815C39.889 101.488 39.7658 101.173 39.5441 100.932C39.3223 100.692 39.0183 100.544 38.6924 100.518ZM68.4074 100.518H42.4815C42.1377 100.518 41.808 100.655 41.5649 100.898C41.3218 101.141 41.1852 101.471 41.1852 101.815C41.1852 102.158 41.3218 102.488 41.5649 102.731C41.808 102.974 42.1377 103.111 42.4815 103.111H52.813V104.407H47.6667C47.3229 104.407 46.9932 104.544 46.7501 104.787C46.507 105.03 46.3704 105.36 46.3704 105.703C46.3704 106.047 46.507 106.377 46.7501 106.62C46.9932 106.863 47.3229 107 47.6667 107H63.8704C64.2142 107 64.5439 106.863 64.787 106.62C65.0301 106.377 65.1667 106.047 65.1667 105.703C65.1667 105.36 65.0301 105.03 64.787 104.787C64.5439 104.544 64.2142 104.407 63.8704 104.407H58.0759V103.111H68.4074C68.7512 103.111 69.0809 102.974 69.324 102.731C69.5671 102.488 69.7037 102.158 69.7037 101.815C69.7037 101.471 69.5671 101.141 69.324 100.898C69.0809 100.655 68.7512 100.518 68.4074 100.518ZM35.0278 22.7406C35.0268 22.3971 34.8899 22.068 34.647 21.8251C34.4041 21.5822 34.075 21.4453 33.7315 21.4443H28.5463C28.2028 21.4453 27.8737 21.5822 27.6308 21.8251C27.3879 22.068 27.251 22.3971 27.25 22.7406V27.9258C27.251 28.2693 27.3879 28.5984 27.6308 28.8413C27.8737 29.0842 28.2028 29.2211 28.5463 29.2221H33.7315C34.075 29.2211 34.4041 29.0842 34.647 28.8413C34.8899 28.5984 35.0268 28.2693 35.0278 27.9258V22.7406ZM32.4352 26.6295H29.8426V24.0369H32.4352V26.6295Z" fill="#FFC100" stroke="#182F43"/>
<path d="M45.3981 27.9258V22.7406C45.3971 22.3971 45.2602 22.068 45.0173 21.8251C44.7744 21.5822 44.4453 21.4453 44.1018 21.4443H38.9166C38.5732 21.4453 38.244 21.5822 38.0011 21.8251C37.7582 22.068 37.6214 22.3971 37.6204 22.7406V27.9258C37.6214 28.2693 37.7583 28.5984 38.0011 28.8413C38.244 29.0842 38.5732 29.2211 38.9166 29.2221H44.1018C44.4453 29.2211 44.7744 29.0842 45.0173 28.8413C45.2602 28.5984 45.3971 28.2693 45.3981 27.9258ZM42.8055 26.6295H40.2129V24.0369H42.8055V26.6295ZM35.0278 33.111C35.0268 32.7675 34.8899 32.4384 34.647 32.1955C34.4041 31.9526 34.075 31.8157 33.7315 31.8147H28.5463C28.2028 31.8157 27.8737 31.9526 27.6308 32.1955C27.3879 32.4384 27.251 32.7675 27.25 33.111V38.2962C27.251 38.6396 27.3879 38.9688 27.6308 39.2117C27.8737 39.4545 28.2028 39.5914 28.5463 39.5924H33.7315C34.075 39.5914 34.4041 39.4545 34.647 39.2117C34.8899 38.9688 35.0268 38.6396 35.0278 38.2962V33.111ZM32.4352 36.9999H29.8426V34.4073H32.4352V36.9999Z" fill="#FFC100" stroke="#182F43"/>
<path d="M35.0278 43.4818C35.0268 43.1384 34.8899 42.8092 34.647 42.5663C34.4041 42.3234 34.075 42.1866 33.7315 42.1855H28.5463C28.2028 42.1866 27.8737 42.3234 27.6308 42.5663C27.3879 42.8092 27.251 43.1384 27.25 43.4818V48.667C27.251 49.0105 27.3879 49.3396 27.6308 49.5825C27.8737 49.8254 28.2028 49.9623 28.5463 49.9633H33.7315C34.075 49.9623 34.4041 49.8254 34.647 49.5825C34.8899 49.3396 35.0268 49.0105 35.0278 48.667V43.4818ZM32.4352 47.3707H29.8426V44.7781H32.4352V47.3707Z" fill="#FFC100" stroke="#182F43"/>
<path d="M35.0278 53.852C35.0268 53.5085 34.8899 53.1793 34.647 52.9364C34.4041 52.6936 34.075 52.5567 33.7315 52.5557H28.5463C28.2028 52.5567 27.8737 52.6936 27.6308 52.9364C27.3879 53.1793 27.251 53.5085 27.25 53.852V59.0371C27.251 59.3806 27.3879 59.7098 27.6308 59.9526C27.8737 60.1955 28.2028 60.3324 28.5463 60.3334H33.7315C34.075 60.3324 34.4041 60.1955 34.647 59.9526C34.8899 59.7098 35.0268 59.3806 35.0278 59.0371V53.852ZM32.4352 57.7408H29.8426V55.1483H32.4352V57.7408Z" fill="#FFC100" stroke="#182F43"/>
<path d="M35.0278 64.2221C35.0268 63.8786 34.8899 63.5494 34.647 63.3066C34.4041 63.0637 34.075 62.9268 33.7315 62.9258H28.5463C28.2028 62.9268 27.8737 63.0637 27.6308 63.3066C27.3879 63.5494 27.251 63.8786 27.25 64.2221V69.4072C27.251 69.7507 27.3879 70.0799 27.6308 70.3227C27.8737 70.5656 28.2028 70.7025 28.5463 70.7035H33.7315C34.075 70.7025 34.4041 70.5656 34.647 70.3227C34.8899 70.0799 35.0267 69.7507 35.0278 69.4072V64.2221ZM32.4352 68.111H29.8426V65.5184H32.4352V68.111Z" fill="#FFC100" stroke="#182F43"/>
<path d="M44.1006 62.9258H38.9154C38.5719 62.9268 38.2428 63.0637 37.9999 63.3066C37.757 63.5494 37.6201 63.8786 37.6191 64.2221V69.4072C37.6202 69.7507 37.757 70.0799 37.9999 70.3227C38.2428 70.5656 38.5719 70.7025 38.9154 70.7035H44.1006C44.4441 70.7025 44.7732 70.5656 45.0161 70.3227C45.259 70.0799 45.3959 69.7507 45.3969 69.4072V64.2221C45.3959 63.8786 45.259 63.5494 45.0161 63.3066C44.7732 63.0637 44.4441 62.9268 44.1006 62.9258ZM42.8043 68.111H40.2117V65.5184H42.8043V68.111Z" fill="#FFC100" stroke="#182F43"/>
<path d="M38.9154 81.0746H44.1006C44.4441 81.0736 44.7732 80.9367 45.0161 80.6938C45.259 80.451 45.3959 80.1218 45.3969 79.7783V74.5932C45.3959 74.2497 45.259 73.9205 45.0161 73.6777C44.7732 73.4348 44.4441 73.2979 44.1006 73.2969H38.9154C38.5719 73.2979 38.2428 73.4348 37.9999 73.6777C37.757 73.9205 37.6201 74.2497 37.6191 74.5932V79.7783C37.6202 80.1218 37.757 80.451 37.9999 80.6938C38.2428 80.9367 38.5719 81.0736 38.9154 81.0746ZM40.2117 75.8895H42.8043V78.482H40.2117V75.8895Z" fill="#FFC100" stroke="#182F43"/>
<path d="M47.9907 79.7783C47.9917 80.1218 48.1286 80.451 48.3715 80.6938C48.6144 80.9367 48.9435 81.0736 49.287 81.0746H54.4722C54.8156 81.0736 55.1448 80.9367 55.3877 80.6938C55.6305 80.451 55.7674 80.1218 55.7685 79.7783V74.5932C55.7675 74.2497 55.6306 73.9205 55.3877 73.6777C55.1448 73.4348 54.8157 73.2979 54.4722 73.2969H49.287C48.9435 73.2979 48.6144 73.4348 48.3715 73.6777C48.1286 73.9205 47.9917 74.2497 47.9907 74.5932V79.7783ZM50.5833 75.8895H53.1759V78.482H50.5833V75.8895ZM37.6203 84.9635V90.1487C37.6214 90.4922 37.7583 90.8213 38.0011 91.0642C38.244 91.3071 38.5732 91.444 38.9166 91.445H54.4721C54.8156 91.444 55.1447 91.3071 55.3876 91.0642C55.6305 90.8213 55.7674 90.4922 55.7684 90.1487V84.9635C55.7674 84.62 55.6305 84.2909 55.3876 84.048C55.1447 83.8051 54.8156 83.6682 54.4721 83.6672H38.9166C38.5732 83.6682 38.244 83.8051 38.0011 84.048C37.7583 84.2909 37.6214 84.62 37.6203 84.9635ZM40.2129 86.2598H53.1758V88.8524H40.2129V86.2598ZM28.5463 73.2969C28.2028 73.2979 27.8737 73.4348 27.6308 73.6777C27.3879 73.9205 27.251 74.2497 27.25 74.5932V90.1487C27.251 90.4922 27.3879 90.8213 27.6308 91.0642C27.8737 91.3071 28.2028 91.444 28.5463 91.445H33.7315C34.075 91.444 34.4041 91.3071 34.647 91.0642C34.8899 90.8213 35.0268 90.4922 35.0278 90.1487V74.5932C35.0268 74.2497 34.8899 73.9205 34.647 73.6777C34.4041 73.4348 34.075 73.2979 33.7315 73.2969H28.5463ZM32.4352 88.8524H29.8426V75.8895H32.4352V88.8524Z" fill="#FFC100" stroke="#182F43"/>
<path d="M79.543 72.9685C79.2843 73.195 79.1262 73.5149 79.1034 73.858C79.0806 74.201 79.195 74.5391 79.4214 74.7978C79.4214 74.7978 83.9557 79.9799 83.9584 79.9829C84.1878 80.2368 84.507 80.3914 84.8484 80.4142C85.1897 80.437 85.5266 80.3262 85.7877 80.1051C86.0464 79.8786 86.2045 79.5587 86.2273 79.2156C86.2501 78.8726 86.1357 78.5345 85.9092 78.2759L81.3722 73.0907C81.2602 72.9625 81.124 72.8576 80.9714 72.7821C80.8188 72.7066 80.6528 72.6619 80.4829 72.6505C80.313 72.6392 80.1426 72.6614 79.9813 72.716C79.82 72.7706 79.6711 72.8564 79.543 72.9685ZM55.7673 25.273V22.7406C55.7663 22.3971 55.6294 22.068 55.3865 21.8251C55.1436 21.5822 54.8145 21.4453 54.471 21.4443H49.2858C48.9423 21.4453 48.6132 21.5822 48.3703 21.8251C48.1274 22.068 47.9905 22.3971 47.9895 22.7406V27.9258C47.9911 28.1363 48.0447 28.3431 48.1456 28.5279C49.2543 27.7967 50.4235 27.1616 51.6404 26.6295H50.5821V24.0369H53.1747V26.023C54.0235 25.7227 54.8892 25.4723 55.7673 25.273ZM60.3043 33.7591C59.9605 33.7591 59.6308 33.8957 59.3877 34.1388C59.1446 34.3819 59.008 34.7116 59.008 35.0554C59.008 35.3992 59.1446 35.7289 59.3877 35.972C59.6308 36.2151 59.9605 36.3517 60.3043 36.3517C63.0537 36.3549 65.6896 37.4485 67.6338 39.3926C69.5779 41.3367 70.6715 43.9726 70.6746 46.7221C70.6746 47.0659 70.8112 47.3956 71.0543 47.6387C71.2974 47.8818 71.6271 48.0184 71.9709 48.0184C72.3147 48.0184 72.6444 47.8818 72.8875 47.6387C73.1306 47.3956 73.2672 47.0659 73.2672 46.7221C73.2633 43.2853 71.8964 39.9903 69.4662 37.5602C67.036 35.13 63.7411 33.763 60.3043 33.7591ZM42.0182 34.4073C42.6757 33.4952 43.3979 32.6314 44.179 31.8226C44.1526 31.821 44.1274 31.8147 44.1006 31.8147H38.9154C38.5719 31.8157 38.2428 31.9526 37.9999 32.1955C37.757 32.4384 37.6201 32.7675 37.6191 33.111V38.2962C37.6202 38.6396 37.757 38.9688 37.9999 39.2117C38.2428 39.4545 38.5719 39.5914 38.9154 39.5924H39.1998C39.5434 38.7047 39.9413 37.8388 40.3911 36.9999H40.2118V34.4073H42.0182ZM37.6192 53.8517V59.0368C37.6202 59.3803 37.7571 59.7095 37.9999 59.9523C38.2428 60.1952 38.572 60.3321 38.9154 60.3331H41.1462C39.7068 58.0303 38.6832 55.4925 38.1219 52.8354C37.9663 52.9554 37.8401 53.1093 37.753 53.2854C37.6659 53.4615 37.6201 53.6552 37.6192 53.8517ZM49.2858 70.7035H54.471C54.6571 70.7027 54.8409 70.6612 55.0094 70.582C52.5091 69.9224 50.1365 68.8498 47.9895 67.4087V69.4072C47.9905 69.7507 48.1274 70.0798 48.3703 70.3227C48.6132 70.5656 48.9423 70.7025 49.2858 70.7035Z" fill="#FFC100" stroke="#182F43"/>
<path d="M2.29629 97.9256C3.01222 97.9256 3.59259 97.3452 3.59259 96.6293C3.59259 95.9134 3.01222 95.333 2.29629 95.333C1.58037 95.333 1 95.9134 1 96.6293C1 97.3452 1.58037 97.9256 2.29629 97.9256Z" fill="#FFC100" stroke="#182F43"/>
<path d="M8.12843 95.333H6.18399C5.84019 95.333 5.51047 95.4696 5.26737 95.7127C5.02427 95.9558 4.8877 96.2855 4.8877 96.6293C4.8877 96.9731 5.02427 97.3028 5.26737 97.5459C5.51047 97.789 5.84019 97.9256 6.18399 97.9256H8.12843C8.47223 97.9256 8.80194 97.789 9.04505 97.5459C9.28815 97.3028 9.42472 96.9731 9.42472 96.6293C9.42472 96.2855 9.28815 95.9558 9.04505 95.7127C8.80194 95.4696 8.47223 95.333 8.12843 95.333ZM104.702 95.333H102.758C102.414 95.333 102.084 95.4696 101.841 95.7127C101.598 95.9558 101.462 96.2855 101.462 96.6293C101.462 96.9731 101.598 97.3028 101.841 97.5459C102.084 97.789 102.414 97.9256 102.758 97.9256H104.702C105.046 97.9256 105.376 97.789 105.619 97.5459C105.862 97.3028 105.999 96.9731 105.999 96.6293C105.999 96.2855 105.862 95.9558 105.619 95.7127C105.376 95.4696 105.046 95.333 104.702 95.333Z" fill="#FFC100" stroke="#182F43"/>
<path d="M98.6907 95.3331H92.6418L72.7656 73.318C72.7178 73.2684 72.6805 73.2098 72.6558 73.1455C72.6311 73.0813 72.6196 73.0127 72.622 72.9439C72.623 72.8217 72.6697 72.7043 72.753 72.6148L82.4283 64.3712C82.5321 64.2753 82.6676 64.2213 82.8088 64.2195C82.95 64.2177 83.0868 64.2682 83.193 64.3613L91.0941 73.3047C91.2066 73.4332 91.3433 73.5381 91.4965 73.6136C91.6496 73.6891 91.8162 73.7336 91.9866 73.7445C92.1569 73.7554 92.3278 73.7326 92.4893 73.6773C92.6509 73.622 92.7999 73.5354 92.9279 73.4223C93.0558 73.3093 93.1602 73.1721 93.235 73.0186C93.3098 72.8651 93.3535 72.6984 93.3637 72.528C93.3738 72.3575 93.3502 72.1868 93.2942 72.0255C93.2382 71.8642 93.1509 71.7156 93.0373 71.5881L85.1051 62.6109C84.5392 62.0156 83.7638 61.664 82.9432 61.6306C82.1225 61.5971 81.321 61.8845 80.7086 62.4318L80.037 63.0039L77.678 60.2828C80.6791 56.1894 82.0747 51.1376 81.6006 46.0841C81.1265 41.0307 78.8156 36.3266 75.1055 32.8628C71.3955 29.399 66.544 27.4161 61.4699 27.2897C56.3959 27.1632 51.4516 28.9021 47.5737 32.1767C43.6957 35.4514 41.1534 40.0346 40.4282 45.0582C39.703 50.0818 40.8453 55.1968 43.6388 59.4346C46.4322 63.6724 50.6828 66.7386 55.5855 68.0524C60.4881 69.3661 65.7024 68.8363 70.2406 66.5633L72.6276 69.3166L71.0339 70.6744C70.7322 70.9513 70.4883 71.2852 70.3162 71.6569C70.1441 72.0285 70.0472 72.4305 70.0312 72.8397C70.0151 73.2489 70.0802 73.6573 70.2226 74.0412C70.365 74.4252 70.582 74.7772 70.8611 75.0769C70.8611 75.0769 84.0754 89.7135 89.1489 95.3331H60.8977C61.3587 94.5468 61.6021 93.652 61.6028 92.7405V71.3352C61.3869 71.3412 61.172 71.3517 60.9547 71.3517C60.2993 71.3517 59.6521 71.3176 59.0103 71.2644V92.7405C59.0095 93.4279 58.7361 94.0869 58.25 94.5729C57.764 95.059 57.105 95.3323 56.4177 95.3331H26.6029C25.9156 95.3323 25.2566 95.059 24.7705 94.5729C24.2845 94.0869 24.0111 93.4279 24.0103 92.7405V20.1481C24.0111 19.4607 24.2845 18.8018 24.7705 18.3157C25.2566 17.8297 25.9156 17.5563 26.6029 17.5555H56.4177C57.105 17.5563 57.764 17.8297 58.25 18.3157C58.7361 18.8018 59.0095 19.4607 59.0103 20.1481V24.7724C59.6521 24.7192 60.2993 24.6851 60.9547 24.6851C61.172 24.6851 61.3869 24.6957 61.6028 24.7016V20.1481C61.5988 18.7742 61.0512 17.4576 60.0797 16.4861C59.1082 15.5145 57.7916 14.967 56.4177 14.9629H26.6029C25.229 14.967 23.9124 15.5145 22.9409 16.4861C21.9693 17.4576 21.4218 18.7741 21.4177 20.1481V74.5924H20.1214C19.4341 74.5932 18.7751 74.8665 18.289 75.3526C17.803 75.8386 17.5296 76.4976 17.5289 77.185V82.3702C17.5296 83.0576 17.803 83.7166 18.289 84.2026C18.7751 84.6887 19.4341 84.962 20.1214 84.9628H21.4177V92.7405C21.4185 93.652 21.6619 94.5468 22.1229 95.3331H12.2003C12.0159 95.309 11.8285 95.3246 11.6505 95.3787C11.4726 95.4328 11.3083 95.5243 11.1685 95.6469C11.0287 95.7696 10.9167 95.9207 10.84 96.0902C10.7633 96.2596 10.7236 96.4434 10.7236 96.6294C10.7236 96.8154 10.7633 96.9992 10.84 97.1687C10.9167 97.3381 11.0287 97.4892 11.1685 97.6119C11.3083 97.7346 11.4726 97.826 11.6505 97.8802C11.8285 97.9343 12.0159 97.9498 12.2003 97.9257H98.6907C98.8751 97.9498 99.0626 97.9343 99.2405 97.8802C99.4184 97.826 99.5828 97.7346 99.7225 97.6119C99.8623 97.4892 99.9743 97.3381 100.051 97.1687C100.128 96.9992 100.167 96.8154 100.167 96.6294C100.167 96.4434 100.128 96.2596 100.051 96.0902C99.9743 95.9207 99.8623 95.7696 99.7225 95.6469C99.5828 95.5243 99.4184 95.4328 99.2405 95.3787C99.0626 95.3246 98.8751 95.309 98.6907 95.3331ZM60.9547 66.1665C57.3653 66.1665 53.8566 65.1022 50.8721 63.108C47.8877 61.1139 45.5616 58.2795 44.188 54.9634C42.8144 51.6473 42.455 47.9983 43.1553 44.4779C43.8555 40.9575 45.584 37.7238 48.122 35.1858C50.6601 32.6477 53.8938 30.9193 57.4142 30.219C60.9346 29.5188 64.5835 29.8782 67.8997 31.2518C71.2158 32.6253 74.0501 34.9514 76.0443 37.9359C78.0384 40.9203 79.1028 44.4291 79.1028 48.0184C79.0974 52.8299 77.1836 57.4428 73.7813 60.8451C70.3791 64.2473 65.7662 66.1611 60.9547 66.1665ZM72.5208 65.2362C73.7816 64.3854 74.9456 63.3991 75.9918 62.2949L78.0639 64.685L74.6008 67.6355L72.5208 65.2362ZM21.4177 82.3702H20.1214V77.185H21.4177V82.3702ZM90.6429 24.037C91.0275 24.037 91.4034 23.9229 91.7232 23.7093C92.043 23.4956 92.2922 23.192 92.4394 22.8367C92.5865 22.4813 92.625 22.0904 92.55 21.7132C92.475 21.336 92.2898 20.9896 92.0179 20.7176C91.7459 20.4457 91.3995 20.2605 91.0223 20.1855C90.6451 20.1104 90.2541 20.1489 89.8988 20.2961C89.5435 20.4433 89.2399 20.6925 89.0262 21.0123C88.8125 21.332 88.6985 21.708 88.6985 22.0925C88.6991 22.6081 88.9041 23.1023 89.2687 23.4668C89.6332 23.8313 90.1274 24.0364 90.6429 24.037ZM90.6429 21.1203C90.8352 21.1203 91.0232 21.1773 91.1831 21.2842C91.3429 21.391 91.4676 21.5428 91.5412 21.7205C91.6147 21.8981 91.634 22.0936 91.5965 22.2822C91.559 22.4708 91.4664 22.644 91.3304 22.78C91.1944 22.916 91.0212 23.0086 90.8326 23.0461C90.644 23.0836 90.4485 23.0643 90.2709 22.9908C90.0932 22.9172 89.9414 22.7926 89.8346 22.6327C89.7277 22.4728 89.6707 22.2848 89.6707 22.0925C89.671 21.8348 89.7735 21.5876 89.9557 21.4054C90.138 21.2231 90.3852 21.1206 90.6429 21.1203ZM62.1245 2C61.8681 2 61.6175 2.07603 61.4043 2.21846C61.1911 2.3609 61.025 2.56336 60.9269 2.80022C60.8287 3.03709 60.8031 3.29773 60.8531 3.54919C60.9031 3.80064 61.0266 4.03162 61.2079 4.21291C61.3892 4.3942 61.6201 4.51766 61.8716 4.56768C62.123 4.6177 62.3837 4.59203 62.6205 4.49391C62.8574 4.3958 63.0599 4.22965 63.2023 4.01648C63.3447 3.8033 63.4208 3.55268 63.4208 3.29629C63.4204 2.95262 63.2837 2.62313 63.0407 2.38011C62.7976 2.13709 62.4682 2.00039 62.1245 2ZM62.1245 3.94444C61.9963 3.94444 61.871 3.90643 61.7644 3.83521C61.6578 3.76399 61.5747 3.66276 61.5257 3.54433C61.4766 3.42589 61.4638 3.29557 61.4888 3.16985C61.5138 3.04412 61.5755 2.92863 61.6662 2.83798C61.7568 2.74734 61.8723 2.68561 61.998 2.6606C62.1238 2.63559 62.2541 2.64843 62.3725 2.69748C62.491 2.74654 62.5922 2.82962 62.6634 2.9362C62.7346 3.04279 62.7726 3.1681 62.7726 3.29629C62.7725 3.46814 62.7041 3.6329 62.5826 3.75441C62.4611 3.87593 62.2963 3.94427 62.1245 3.94444ZM103.606 44.1295C103.349 44.1295 103.099 44.2056 102.886 44.348C102.673 44.4904 102.506 44.6929 102.408 44.9298C102.31 45.1666 102.284 45.4273 102.334 45.6787C102.384 45.9302 102.508 46.1612 102.689 46.3424C102.871 46.5237 103.102 46.6472 103.353 46.6972C103.604 46.7472 103.865 46.7216 104.102 46.6234C104.339 46.5253 104.541 46.3592 104.684 46.146C104.826 45.9328 104.902 45.6822 104.902 45.4258C104.902 45.0821 104.765 44.7527 104.522 44.5096C104.279 44.2666 103.95 44.1299 103.606 44.1295ZM103.606 46.074C103.478 46.074 103.352 46.036 103.246 45.9647C103.139 45.8935 103.056 45.7923 103.007 45.6739C102.958 45.5554 102.945 45.4251 102.97 45.2994C102.995 45.1737 103.057 45.0582 103.148 44.9675C103.238 44.8769 103.354 44.8151 103.479 44.7901C103.605 44.7651 103.735 44.778 103.854 44.827C103.972 44.8761 104.074 44.9591 104.145 45.0657C104.216 45.1723 104.254 45.2976 104.254 45.4258C104.254 45.5977 104.186 45.7624 104.064 45.8839C103.942 46.0055 103.778 46.0738 103.606 46.074ZM103.606 5.88888C103.349 5.88888 103.099 5.96491 102.886 6.10735C102.673 6.24978 102.506 6.45224 102.408 6.6891C102.31 6.92597 102.284 7.18661 102.334 7.43807C102.384 7.68952 102.508 7.9205 102.689 8.10179C102.871 8.28308 103.102 8.40654 103.353 8.45656C103.604 8.50658 103.865 8.48091 104.102 8.38279C104.339 8.28468 104.541 8.11853 104.684 7.90536C104.826 7.69218 104.902 7.44156 104.902 7.18517C104.902 6.8415 104.765 6.51201 104.522 6.26899C104.279 6.02597 103.95 5.88927 103.606 5.88888ZM103.606 7.83332C103.478 7.83332 103.352 7.79531 103.246 7.72409C103.139 7.65287 103.056 7.55164 103.007 7.43321C102.958 7.31478 102.945 7.18445 102.97 7.05873C102.995 6.933 103.057 6.81751 103.148 6.72686C103.238 6.63622 103.354 6.57449 103.479 6.54948C103.605 6.52447 103.735 6.53731 103.854 6.58636C103.972 6.63542 104.074 6.71849 104.145 6.82508C104.216 6.93167 104.254 7.05698 104.254 7.18517C104.254 7.35702 104.186 7.52178 104.064 7.64329C103.942 7.76481 103.778 7.83315 103.606 7.83332ZM18.6987 34.4073C18.6987 34.151 18.6226 33.9003 18.4802 33.6872C18.3377 33.474 18.1353 33.3078 17.8984 33.2097C17.6616 33.1116 17.4009 33.0859 17.1495 33.1359C16.898 33.186 16.667 33.3094 16.4857 33.4907C16.3045 33.672 16.181 33.903 16.131 34.1544C16.081 34.4059 16.1066 34.6665 16.2047 34.9034C16.3029 35.1403 16.469 35.3427 16.6822 35.4852C16.8953 35.6276 17.146 35.7036 17.4024 35.7036C17.746 35.7032 18.0755 35.5665 18.3185 35.3235C18.5616 35.0805 18.6983 34.751 18.6987 34.4073ZM16.7542 34.4073C16.7542 34.2791 16.7922 34.1538 16.8634 34.0472C16.9347 33.9407 17.0359 33.8576 17.1543 33.8085C17.2728 33.7595 17.4031 33.7466 17.5288 33.7716C17.6545 33.7966 17.77 33.8584 17.8607 33.949C17.9513 34.0397 18.013 34.1552 18.0381 34.2809C18.0631 34.4066 18.0502 34.5369 18.0012 34.6554C17.9521 34.7738 17.869 34.875 17.7624 34.9463C17.6559 35.0175 17.5305 35.0555 17.4024 35.0555C17.2305 35.0553 17.0658 34.987 16.9442 34.8655C16.8227 34.7439 16.7544 34.5792 16.7542 34.4073Z" fill="#AA4337" stroke="#182F43"/>
<path d="M6.53571 36.1088L7.45494 34.8829L7.79382 34.4309L7.30405 34.1494L6.28983 33.5665L5.80306 33.2867L5.58133 33.8025L4.98748 35.184L4.38571 33.8152L4.16037 33.3026L3.67645 33.5843L2.64495 34.1848L2.15638 34.4692L2.49833 34.9193L3.39139 36.095L2.06491 35.9213L1.5 35.8474V36.4171V37.5829V38.1522L2.0645 38.0787L3.40013 37.905L2.49989 39.0775L2.16871 39.5089L2.62633 39.8028L3.5887 40.4207L4.07479 40.7329L4.31399 40.207L4.95895 38.7892L5.54557 40.1771L5.76625 40.6992L6.25673 40.4151L7.32172 39.7983L7.82095 39.5091L7.46375 39.056L6.56211 37.9124L7.93988 38.0793L8.5 38.1471V37.5829V36.4171V35.8456L7.9336 35.9215L6.53571 36.1088Z" fill="#FFC100" stroke="#182F43"/>
<path d="M5.59021 4.63594L5.0354 5.34826L5.36855 5.55826L5.74836 4.73511H5.75938L6.11003 5.55242L6.47817 5.34242L5.91753 4.64113V4.62946L6.79901 4.73511V4.3378L5.91753 4.45446V4.4428L6.47234 3.71298L6.12234 3.51465L5.76586 4.33196H5.75419L5.39188 3.51983L5.0354 3.72465L5.58438 4.43696V4.44863L4.72559 4.3378V4.73511L5.59021 4.62428V4.63594Z" fill="#FFC100" stroke="#182F43"/>
<path d="M25.94 6.0783L26.5 6.14596V5.58191V4.41698V3.84528L25.9334 3.92143L24.5351 4.10936L25.4542 2.88288L25.7929 2.431L25.3033 2.14955L24.2892 1.56653L23.8023 1.2866L23.5806 1.80264L22.9872 3.18387L22.3858 1.81556L22.1604 1.30281L21.6764 1.58469L20.6447 2.18558L20.1562 2.47009L20.4982 2.92017L21.3912 4.09526L20.0651 3.92123L19.5 3.84708V4.41698V5.58191V6.15107L20.0644 6.07774L21.401 5.9041L20.4997 7.07784L20.1683 7.50954L20.6265 7.80329L21.5899 8.42093L22.0761 8.73257L22.315 8.20687L22.9591 6.78944L23.5453 8.17673L23.7659 8.69885L24.2564 8.41483L25.3212 7.7983L25.8205 7.50917L25.4633 7.05604L24.5611 5.91169L25.94 6.0783Z" fill="#FFC100" stroke="#182F43"/>
<path d="M77.5358 16.1091L78.4552 14.8825L78.7942 14.4303L78.304 14.149L77.2889 13.5664L76.8021 13.2869L76.5806 13.8027L75.9873 15.1842L75.3858 13.8157L75.1606 13.3032L74.6767 13.5846L73.6437 14.1854L73.1547 14.4698L73.4971 14.9202L74.3901 16.0949L73.0648 15.9216L72.5 15.8477V16.4173V17.5826V18.1521L73.0647 18.0784L74.4 17.9043L73.4986 19.0778L73.1668 19.5096L73.6254 19.8034L74.5894 20.421L75.0753 20.7323L75.3143 20.207L75.9592 18.7889L76.5463 20.1767L76.767 20.6983L77.2573 20.4146L78.3222 19.7983L78.8218 19.5091L78.4643 19.0559L77.5619 17.9119L78.9398 18.079L79.5 18.147V17.5826V16.4173V15.8459L78.9336 15.9218L77.5358 16.1091Z" fill="#FFC100" stroke="#182F43"/>
</svg>
