<svg width="109" height="108" viewBox="0 0 109 108" fill="none" xmlns="http://www.w3.org/2000/svg">
<path d="M2.33241 97.4109C3.06181 97.4109 3.6531 96.8196 3.6531 96.0902C3.6531 95.3608 3.06181 94.7695 2.33241 94.7695C1.60301 94.7695 1.01172 95.3608 1.01172 96.0902C1.01172 96.8196 1.60301 97.4109 2.33241 97.4109Z" fill="#FFC100" stroke="black"/>
<path d="M8.27536 94.7695H6.29432C5.94405 94.7695 5.60813 94.9087 5.36045 95.1564C5.11278 95.404 4.97363 95.74 4.97363 96.0902C4.97363 96.4405 5.11278 96.7764 5.36045 97.0241C5.60813 97.2718 5.94405 97.4109 6.29432 97.4109H8.27536C8.62563 97.4109 8.96155 97.2718 9.20923 97.0241C9.45691 96.7764 9.59605 96.4405 9.59605 96.0902C9.59605 95.74 9.45691 95.404 9.20923 95.1564C8.96155 94.9087 8.62563 94.7695 8.27536 94.7695ZM106.667 94.7695H104.686C104.336 94.7695 104 94.9087 103.752 95.1564C103.504 95.404 103.365 95.74 103.365 96.0902C103.365 96.4405 103.504 96.7764 103.752 97.0241C104 97.2718 104.336 97.4109 104.686 97.4109H106.667C107.017 97.4109 107.353 97.2718 107.601 97.0241C107.848 96.7764 107.988 96.4405 107.988 96.0902C107.988 95.74 107.848 95.404 107.601 95.1564C107.353 94.9087 107.017 94.7695 106.667 94.7695Z" fill="#FFC100" stroke="black"/>
<path d="M79.0328 100.052H73.5469C73.2149 100.078 72.905 100.229 72.6791 100.474C72.4532 100.719 72.3278 101.039 72.3278 101.372C72.3278 101.706 72.4532 102.026 72.6791 102.271C72.905 102.516 73.2149 102.667 73.5469 102.693H79.0328C79.3649 102.667 79.6747 102.516 79.9006 102.271C80.1265 102.026 80.2519 101.706 80.2519 101.372C80.2519 101.039 80.1265 100.719 79.9006 100.474C79.6747 100.229 79.3649 100.078 79.0328 100.052ZM39.4121 100.052H33.9261C33.5941 100.078 33.2843 100.229 33.0584 100.474C32.8325 100.719 32.707 101.039 32.707 101.372C32.707 101.706 32.8325 102.026 33.0584 102.271C33.2843 102.516 33.5941 102.667 33.9261 102.693H39.4121C39.7441 102.667 40.0539 102.516 40.2798 102.271C40.5058 102.026 40.6312 101.706 40.6312 101.372C40.6312 101.039 40.5058 100.719 40.2798 100.474C40.0539 100.229 39.7441 100.078 39.4121 100.052ZM69.6864 100.052H43.2726C42.9223 100.052 42.5864 100.191 42.3387 100.439C42.091 100.686 41.9519 101.022 41.9519 101.372C41.9519 101.723 42.091 102.059 42.3387 102.306C42.5864 102.554 42.9223 102.693 43.2726 102.693H53.7985V104.014H48.5553C48.2051 104.014 47.8691 104.153 47.6215 104.401C47.3738 104.648 47.2346 104.984 47.2346 105.335C47.2346 105.685 47.3738 106.021 47.6215 106.268C47.8691 106.516 48.2051 106.655 48.5553 106.655H65.064C65.4142 106.655 65.7502 106.516 65.9978 106.268C66.2455 106.021 66.3847 105.685 66.3847 105.335C66.3847 104.984 66.2455 104.648 65.9978 104.401C65.7502 104.153 65.4142 104.014 65.064 104.014H59.1605V102.693H69.6864C70.0367 102.693 70.3726 102.554 70.6203 102.306C70.8679 102.059 71.0071 101.723 71.0071 101.372C71.0071 101.022 70.8679 100.686 70.6203 100.439C70.3726 100.191 70.0367 100.052 69.6864 100.052Z" fill="#FFC100" stroke="black"/>
<path d="M79.8901 31.8569L80.2005 30.6088L80.8344 28.0467L78.2524 27.4128L73.0951 26.1515L70.5132 25.5176L69.8727 28.0863L64.1475 51.1852H66.8879L70.8037 35.3699L71.4443 32.8078L72.4546 28.7137L77.6185 29.9749L76.6082 34.0624L75.9676 36.6312L72.3622 51.1852H74.9639C75.0101 51.1852 75.0564 51.1918 75.096 51.1918L79.2562 34.4256L80.9466 34.7888L78.6354 43.5912L81.2108 44.2516L84.2154 32.8012L79.8901 31.8569Z" fill="#AA4337" stroke="black"/>
<path d="M76.6082 34.0642L75.9676 36.633L70.8037 35.3717L71.4442 32.8096L76.6082 34.0642Z" fill="#FFC100" stroke="black"/>
<path d="M43.4987 26.5943C43.4921 26.5613 43.4789 26.5349 43.4723 26.5019L44.2119 22.1238C44.2476 21.9135 44.2314 21.6977 44.1647 21.4951C44.0979 21.2926 43.9826 21.1094 43.8289 20.9616L35.8981 13.2619C35.7485 13.1171 35.567 13.0093 35.3683 12.9473C35.1695 12.8852 34.9589 12.8706 34.7534 12.9046C34.548 12.9387 34.3534 13.0204 34.1852 13.1432C34.017 13.266 33.88 13.4266 33.785 13.6119L28.8853 23.286C28.7901 23.4776 28.7428 23.6895 28.7474 23.9034C28.752 24.1173 28.8084 24.3269 28.9117 24.5142L31.2757 28.747L35.2048 51.1856H37.9056L35.0133 34.6968L34.5576 32.095L34.0888 29.4074L41.1017 28.3244L41.5771 31.012L42.0328 33.6138L45.11 51.1856H47.8108L43.4987 26.5943ZM40.9168 25.683L33.2634 26.8585L31.5795 23.8473L35.3435 16.4118L41.4715 22.3681L40.9168 25.683Z" fill="#AA4337" stroke="black"/>
<path d="M42.0327 33.6145L35.0133 34.6974L34.5576 32.0957L41.5771 31.0127L42.0327 33.6145Z" fill="#AA4337" stroke="black"/>
<path d="M53.3381 28.0743H58.6551V51.1864H61.3135V25.4329H61.3083C61.3102 25.0394 61.2233 24.6506 61.0542 24.2952L58.5166 19.0125C58.2989 18.5613 57.9582 18.1809 57.5337 17.9148C57.1093 17.6488 56.6183 17.5081 56.1174 17.5088H55.8757C55.3748 17.5081 54.8838 17.6488 54.4594 17.9149C54.0349 18.1809 53.6942 18.5613 53.4765 19.0125L50.9389 24.2952C50.7698 24.6506 50.6829 25.0394 50.6848 25.4329H50.6796V51.1864H53.3381V28.0743ZM55.8757 20.1502H56.1174L58.6551 25.4329H53.3381L55.8757 20.1502ZM100.54 94.7692H72.9641L77.6063 56.7862C77.6514 56.4154 77.6171 56.0394 77.5055 55.683C77.3939 55.3266 77.2077 54.998 76.9592 54.7193C76.7081 54.4389 76.4007 54.2146 76.0571 54.061C75.7135 53.9074 75.3413 53.8279 74.9649 53.8278H35.0338C34.6583 53.8273 34.287 53.9065 33.9443 54.0602C33.6017 54.2138 33.2956 54.4385 33.0462 54.7193C32.7955 54.9968 32.6073 55.325 32.4945 55.6816C32.3817 56.0382 32.3469 56.4149 32.3924 56.7862L37.0347 94.7692H12.4236C12.2356 94.7445 12.0445 94.7602 11.8631 94.8153C11.6817 94.8704 11.5142 94.9635 11.3716 95.0885C11.2291 95.2135 11.1149 95.3676 11.0367 95.5402C10.9584 95.7129 10.918 95.9003 10.918 96.0899C10.918 96.2795 10.9584 96.4669 11.0367 96.6396C11.1149 96.8123 11.2291 96.9663 11.3716 97.0913C11.5142 97.2163 11.6817 97.3095 11.8631 97.3645C12.0445 97.4196 12.2356 97.4353 12.4236 97.4106H100.54C100.728 97.4353 100.919 97.4196 101.101 97.3645C101.282 97.3095 101.45 97.2163 101.592 97.0913C101.735 96.9663 101.849 96.8123 101.927 96.6396C102.005 96.4669 102.046 96.2795 102.046 96.0899C102.046 95.9003 102.005 95.7129 101.927 95.5402C101.849 95.3676 101.735 95.2135 101.592 95.0885C101.45 94.9635 101.282 94.8704 101.101 94.8153C100.919 94.7602 100.728 94.7445 100.54 94.7692ZM70.2831 94.7692H39.7157L39.0685 89.4865L35.681 61.7519L35.0338 56.4692H74.9649L74.3178 61.7519L70.9302 89.4865L70.2831 94.7692Z" fill="#FFC100" stroke="black"/>
<path d="M52 51V26.724M60 50.7904V26.724M52 26.724V25.5L54.5809 19.908C54.8364 19.3545 55.3904 19 56 19V19C56.6096 19 57.1636 19.3545 57.4191 19.908L60 25.5V26.724M52 26.724H60" stroke="#AA4337" stroke-width="1.8"/>
<path d="M74.6404 59.1104L74.3168 61.7517H35.68L35.3564 59.1104H74.6404Z" fill="#FFC100" stroke="black"/>
<path d="M70.9291 89.4854L70.6055 92.1267H39.391L39.0674 89.4854H70.9291Z" fill="#FFC100" stroke="black"/>
<path d="M84.2164 5.34297C84.6082 5.34297 84.9912 5.22678 85.317 5.0091C85.6428 4.79142 85.8967 4.48203 86.0467 4.12004C86.1966 3.75805 86.2358 3.35973 86.1594 2.97545C86.083 2.59117 85.8943 2.23818 85.6172 1.96113C85.3402 1.68407 84.9872 1.4954 84.6029 1.41896C84.2186 1.34252 83.8203 1.38175 83.4583 1.53169C83.0963 1.68163 82.7869 1.93555 82.5693 2.26133C82.3516 2.58711 82.2354 2.97012 82.2354 3.36193C82.236 3.88715 82.4449 4.39068 82.8163 4.76207C83.1877 5.13346 83.6912 5.34237 84.2164 5.34297ZM84.2164 2.37141C84.4123 2.37141 84.6038 2.42951 84.7667 2.53834C84.9296 2.64718 85.0566 2.80188 85.1315 2.98288C85.2065 3.16387 85.2261 3.36303 85.1879 3.55517C85.1497 3.74731 85.0554 3.92381 84.9168 4.06233C84.7783 4.20086 84.6018 4.2952 84.4097 4.33342C84.2175 4.37164 84.0184 4.35202 83.8374 4.27705C83.6564 4.20208 83.5017 4.07512 83.3928 3.91223C83.284 3.74934 83.2259 3.55784 83.2259 3.36193C83.2262 3.09931 83.3306 2.84752 83.5163 2.66181C83.702 2.47611 83.9538 2.37167 84.2164 2.37141ZM106.209 33.0268C105.948 33.0268 105.692 33.1042 105.475 33.2493C105.258 33.3945 105.089 33.6007 104.989 33.842C104.889 34.0834 104.863 34.3489 104.914 34.6051C104.965 34.8613 105.09 35.0966 105.275 35.2813C105.46 35.466 105.695 35.5918 105.951 35.6428C106.208 35.6937 106.473 35.6676 106.714 35.5676C106.956 35.4677 107.162 35.2984 107.307 35.0812C107.452 34.864 107.53 34.6087 107.53 34.3475C107.529 33.9973 107.39 33.6616 107.142 33.414C106.895 33.1664 106.559 33.0272 106.209 33.0268ZM106.209 35.0078C106.078 35.0078 105.951 34.9691 105.842 34.8965C105.734 34.8239 105.649 34.7208 105.599 34.6002C105.549 34.4795 105.536 34.3467 105.561 34.2186C105.587 34.0905 105.65 33.9729 105.742 33.8805C105.834 33.7882 105.952 33.7253 106.08 33.6998C106.208 33.6743 106.341 33.6874 106.462 33.7374C106.582 33.7874 106.686 33.872 106.758 33.9806C106.831 34.0892 106.869 34.2168 106.869 34.3475C106.869 34.5225 106.8 34.6904 106.676 34.8142C106.552 34.938 106.384 35.0076 106.209 35.0078ZM42.0336 1C41.7723 1 41.517 1.07746 41.2998 1.22258C41.0826 1.3677 40.9134 1.57396 40.8134 1.81528C40.7134 2.05661 40.6873 2.32216 40.7382 2.57835C40.7892 2.83453 40.915 3.06986 41.0997 3.25456C41.2844 3.43926 41.5197 3.56505 41.7759 3.61601C42.0321 3.66696 42.2976 3.64081 42.539 3.54085C42.7803 3.44089 42.9866 3.27161 43.1317 3.05443C43.2768 2.83724 43.3542 2.5819 43.3542 2.32069C43.3538 1.97054 43.2146 1.63485 42.967 1.38726C42.7194 1.13967 42.3837 1.0004 42.0336 1ZM42.0336 2.98104C41.903 2.98104 41.7753 2.94231 41.6667 2.86975C41.5581 2.79719 41.4735 2.69406 41.4235 2.57339C41.3735 2.45273 41.3604 2.31996 41.3859 2.19186C41.4114 2.06377 41.4743 1.94611 41.5666 1.85376C41.659 1.76141 41.7766 1.69851 41.9047 1.67303C42.0328 1.64755 42.1656 1.66063 42.2863 1.71061C42.4069 1.76059 42.5101 1.84523 42.5826 1.95382C42.6552 2.06242 42.6939 2.19009 42.6939 2.32069C42.6937 2.49577 42.6241 2.66363 42.5003 2.78743C42.3765 2.91123 42.2086 2.98086 42.0336 2.98104ZM92.1116 28.6538C91.8504 28.6538 91.595 28.7312 91.3779 28.8763C91.1607 29.0214 90.9914 29.2277 90.8914 29.469C90.7915 29.7104 90.7653 29.9759 90.8163 30.2321C90.8672 30.4883 90.993 30.7236 91.1777 30.9083C91.3624 31.093 91.5977 31.2188 91.8539 31.2698C92.1101 31.3207 92.3757 31.2946 92.617 31.1946C92.8583 31.0946 93.0646 30.9254 93.2097 30.7082C93.3548 30.491 93.4323 30.2357 93.4323 29.9744C93.4319 29.6243 93.2926 29.2886 93.045 29.041C92.7974 28.7934 92.4617 28.6542 92.1116 28.6538ZM92.1116 30.6348C91.981 30.6348 91.8533 30.5961 91.7447 30.5235C91.6361 30.4509 91.5515 30.3478 91.5015 30.2271C91.4515 30.1065 91.4385 29.9737 91.4639 29.8456C91.4894 29.7175 91.5523 29.5999 91.6447 29.5075C91.737 29.4152 91.8547 29.3523 91.9828 29.3268C92.1109 29.3013 92.2436 29.3144 92.3643 29.3644C92.485 29.4143 92.5881 29.499 92.6607 29.6076C92.7332 29.7162 92.7719 29.8438 92.7719 29.9744C92.7718 30.1495 92.7021 30.3174 92.5783 30.4412C92.4545 30.565 92.2867 30.6346 92.1116 30.6348ZM19.9978 21.6358C19.9978 21.3746 19.9204 21.1192 19.7753 20.9021C19.6301 20.6849 19.4239 20.5156 19.1825 20.4156C18.9412 20.3157 18.6757 20.2895 18.4195 20.3405C18.1633 20.3914 17.928 20.5172 17.7433 20.7019C17.5586 20.8866 17.4328 21.122 17.3818 21.3781C17.3309 21.6343 17.357 21.8999 17.457 22.1412C17.5569 22.3825 17.7262 22.5888 17.9434 22.7339C18.1606 22.879 18.4159 22.9565 18.6771 22.9565C19.0273 22.9561 19.363 22.8168 19.6106 22.5692C19.8582 22.3216 19.9974 21.9859 19.9978 21.6358ZM18.0168 21.6358C18.0168 21.5052 18.0555 21.3775 18.1281 21.2689C18.2006 21.1603 18.3038 21.0757 18.4244 21.0257C18.5451 20.9757 18.6779 20.9627 18.806 20.9881C18.9341 21.0136 19.0517 21.0765 19.1441 21.1689C19.2364 21.2612 19.2993 21.3789 19.3248 21.507C19.3503 21.6351 19.3372 21.7678 19.2872 21.8885C19.2372 22.0092 19.1526 22.1123 19.044 22.1849C18.9354 22.2574 18.8077 22.2961 18.6771 22.2961C18.5021 22.296 18.3342 22.2263 18.2104 22.1025C18.0866 21.9787 18.017 21.8109 18.0168 21.6358Z" fill="#FFC100" stroke="black"/>
<path d="M19.1058 41.5693L20.2974 39.98L20.6363 39.528L20.1465 39.2466L18.9633 38.5665L18.4765 38.2867L18.2548 38.8025L17.4862 40.5903L16.707 38.8179L16.4817 38.3054L15.9978 38.5871L14.7944 39.2876L14.3058 39.572L14.6477 40.0221L15.8104 41.5527L14.0649 41.3242L13.5 41.2502V41.8199V43.1801V43.7493L14.0645 43.6759L15.8219 43.4473L14.6493 44.9745L14.3181 45.4059L14.7757 45.6998L15.8985 46.4207L16.3846 46.7329L16.6238 46.207L17.4549 44.38L18.2133 46.1742L18.4339 46.6963L18.9244 46.4122L20.1669 45.6925L20.6661 45.4033L20.3089 44.9503L19.132 43.4575L20.9399 43.6764L21.5 43.7443V43.1801V41.8199V41.2485L20.9336 41.3244L19.1058 41.5693Z" fill="#FFC100" stroke="black"/>
<path d="M12.2618 2.42072L11.6965 3.14644L12.0359 3.36105L12.4229 2.52175H12.4341L12.7914 3.35511L13.1664 3.1405L12.5952 2.42666V2.41478L13.4933 2.52175V2.11762L12.5952 2.23648V2.2246L13.1605 1.48105L12.8032 1.27832L12.4407 2.11102H12.4288L12.0597 1.28426L11.6965 1.49227L12.2558 2.21865V2.23054L11.3809 2.11762V2.52175L12.2618 2.40883V2.42072Z" fill="#FFC100" stroke="black"/>
<path d="M68.2289 10.0106L66.0651 9.72636L65.5 9.65214V10.2221V11.7762V12.3453L66.0644 12.272L68.243 11.9889L66.7969 13.8718L66.4653 14.3036L66.9237 14.5973L68.2091 15.421L68.6951 15.7324L68.934 15.207L69.9511 12.9701L70.8819 15.1706L71.1026 15.6924L71.5929 15.4086L73.0128 14.5866L73.5123 14.2975L73.1549 13.8443L71.7021 12.0022L73.94 12.2726L74.5 12.3402V11.7762V10.2221V9.65034L73.9333 9.72656L71.6754 10.0303L73.1402 8.07701L73.4791 7.62506L72.9893 7.34355L71.6375 6.56651L71.1509 6.28677L70.9291 6.80243L69.9852 8.99677L69.0285 6.81958L68.8033 6.307L68.3193 6.58853L66.942 7.38974L66.4531 7.67416L66.7954 8.12449L68.2289 10.0106Z" fill="#FFC100" stroke="black"/>
</svg>
