<svg width="55" height="55" viewBox="0 0 55 55" fill="none" xmlns="http://www.w3.org/2000/svg">
<path fill-rule="evenodd" clip-rule="evenodd" d="M15 10C12.2386 10 10 12.2386 10 15V40C10 42.7614 12.2386 45 15 45H33.8771H40C42.7614 45 45 42.7614 45 40V15C45 12.2386 42.7614 10 40 10H15ZM33.8771 45C36.5829 45 38.7738 44.3214 40.4499 42.9643C42.15 41.6071 43 39.7738 43 37.4643C43 36.75 42.9042 36.0952 42.7127 35.5C42.5451 34.881 42.3296 34.3571 42.0662 33.9286C41.8267 33.5 41.4675 33.0833 40.9887 32.6786C40.5098 32.2738 40.0788 31.9524 39.6957 31.7143C39.3365 31.4762 38.8097 31.2262 38.1153 30.9643C37.4449 30.6786 36.9061 30.4762 36.4991 30.3571C36.1159 30.2143 35.5413 30.0238 34.775 29.7857C32.9074 29.2143 31.6383 28.6905 30.9679 28.2143C30.3214 27.7143 29.9981 27.0714 29.9981 26.2857C29.9981 25.5476 30.2854 24.9524 30.8601 24.5C31.4587 24.0238 32.2728 23.7857 33.3025 23.7857C35.5054 23.7857 37.1096 24.8571 38.1153 27L42.2817 24.6071C41.4197 22.8452 40.2105 21.4762 38.6541 20.5C37.1216 19.5 35.3377 19 33.3025 19C31.0277 19 29.0762 19.6786 27.448 21.0357C25.8437 22.369 25.0416 24.1667 25.0416 26.4286C25.0416 27.5714 25.2451 28.5714 25.6522 29.4286C26.0592 30.2857 26.6459 31 27.4121 31.5714C28.2023 32.119 28.9805 32.5595 29.7467 32.8929C30.5369 33.2262 31.4946 33.5595 32.62 33.8929C34.6553 34.4643 36.0681 35 36.8582 35.5C37.6484 35.9762 38.0435 36.6548 38.0435 37.5357C38.0435 38.2976 37.7202 38.9286 37.0737 39.4286C36.4272 39.9286 35.4096 40.1786 34.0208 40.1786C31.1474 40.1786 29.2199 38.9048 28.2382 36.3571L24 38.8214C24.6944 40.7262 25.8916 42.2381 27.5917 43.3571C29.2917 44.4524 31.3869 45 33.8771 45Z" fill="#182F43"/>
</svg>
