<svg width="81" height="80" viewBox="0 0 81 80" fill="none" xmlns="http://www.w3.org/2000/svg">
<path d="M10.5566 28.6221V65.9955H12.8233V28.6221H10.5566ZM64.9566 28.6221V67.1997H43.9103V69.4663H66.09C66.3905 69.4663 66.6788 69.3468 66.8913 69.1343C67.1039 68.9218 67.2233 68.6336 67.2233 68.333V28.6221H64.9566Z" fill="#182F43"/>
<path d="M4.89017 64.9336C4.5896 64.9336 4.30135 65.0531 4.08882 65.2656C3.87628 65.4782 3.75687 65.7664 3.75684 66.0669V68.1919V72.8669C3.75687 73.1675 3.87628 73.4557 4.08882 73.6682C4.30135 73.8808 4.5896 74.0002 4.89017 74.0003H43.4235C43.7241 74.0002 44.0123 73.8808 44.2249 73.6682C44.4374 73.4557 44.5568 73.1675 44.5568 72.8669V66.0669C44.5568 65.7664 44.4374 65.4782 44.2249 65.2656C44.0123 65.0531 43.7241 64.9336 43.4235 64.9336H4.89017ZM6.0235 67.2003H42.2902V71.7336H6.0235V68.1919V67.2003Z" fill="#182F43"/>
<path d="M43.4385 67.2006C43.2896 67.2029 43.1427 67.2345 43.0061 67.2936C42.8695 67.3527 42.7458 67.4382 42.6422 67.5451C42.5386 67.652 42.4571 67.7782 42.4023 67.9166C42.3475 68.0549 42.3205 68.2028 42.3228 68.3517L42.3047 68.3335V72.8669C42.3047 73.1674 42.4241 73.4556 42.6367 73.6682C42.8492 73.8807 43.1375 74.0002 43.438 74.0002H67.1761V71.7335H44.5714V69.4669H67.1761V67.2002H43.438L43.4385 67.2006Z" fill="#182F43"/>
<path d="M66.0888 64.9322C65.7883 64.9323 65.5 65.0517 65.2875 65.2643C65.0749 65.4768 64.9555 65.765 64.9555 66.0656V72.8656C64.9564 73.1402 65.0571 73.4051 65.2386 73.6111C65.4202 73.8171 65.6704 73.9502 65.9427 73.9856C65.9867 73.9928 66.0311 73.9973 66.0756 73.9992C66.0801 73.9992 66.0846 73.9992 66.0892 73.9992H72.8892C73.1897 73.9992 73.478 73.8798 73.6905 73.6673C73.903 73.4548 74.0225 73.1664 74.0225 72.8658V66.0658L74.0044 66.084C74.0068 65.9351 73.9799 65.7872 73.9251 65.6487C73.8704 65.5103 73.7888 65.384 73.6853 65.277C73.5817 65.17 73.458 65.0845 73.3213 65.0253C73.1847 64.9662 73.0377 64.9346 72.8888 64.9322H66.0888ZM67.2222 67.1989H71.7555V71.7322H67.2222V67.1989ZM11.649 27.4835C11.5002 27.4859 11.3532 27.5175 11.2166 27.5766C11.08 27.6357 10.9564 27.7211 10.8528 27.828C10.7492 27.9349 10.6676 28.0611 10.6128 28.1995C10.558 28.3379 10.531 28.4857 10.5333 28.6346V65.9239C10.5312 66.0741 10.559 66.2232 10.615 66.3626C10.671 66.502 10.7541 66.6288 10.8596 66.7357C10.965 66.8427 11.0907 66.9276 11.2292 66.9856C11.3678 67.0435 11.5165 67.0734 11.6667 67.0734C11.8169 67.0734 11.9656 67.0435 12.1041 66.9856C12.2427 66.9276 12.3683 66.8427 12.4738 66.7357C12.5792 66.6288 12.6624 66.502 12.7184 66.3626C12.7744 66.2232 12.8021 66.0741 12.8 65.9239V28.6346C12.8024 28.4828 12.7742 28.332 12.7172 28.1913C12.6602 28.0506 12.5755 27.9228 12.4682 27.8154C12.3608 27.7081 12.233 27.6233 12.0923 27.5663C11.9515 27.5093 11.8008 27.4812 11.649 27.4835ZM43.4266 30.7684C43.2778 30.7708 43.1308 30.8024 42.9942 30.8615C42.8576 30.9206 42.734 31.006 42.6304 31.1129C42.5268 31.2198 42.4453 31.346 42.3905 31.4844C42.3357 31.6228 42.3087 31.7706 42.311 31.9195V68.3322C42.3089 68.4824 42.3366 68.6316 42.3926 68.7709C42.4486 68.9103 42.5317 69.0371 42.6372 69.1441C42.7427 69.251 42.8683 69.3359 43.0069 69.3939C43.1454 69.4519 43.2941 69.4818 43.4443 69.4818C43.5945 69.4818 43.7432 69.4519 43.8817 69.3939C44.0203 69.3359 44.146 69.251 44.2514 69.1441C44.3569 69.0371 44.44 68.9103 44.496 68.7709C44.552 68.6316 44.5798 68.4824 44.5776 68.3322V31.9195C44.58 31.7677 44.5519 31.6169 44.4949 31.4762C44.4379 31.3355 44.3531 31.2077 44.2458 31.1003C44.1384 30.993 44.0106 30.9082 43.8699 30.8512C43.7291 30.7942 43.5784 30.7661 43.4266 30.7684ZM47.9555 44.5322C47.6549 44.5323 47.3667 44.6517 47.1541 44.8643C46.9416 45.0768 46.8222 45.365 46.8222 45.6656V46.7989V67.1989V68.3322C46.8222 68.6328 46.9416 68.921 47.1541 69.1335C47.3667 69.3461 47.6549 69.4655 47.9555 69.4656H61.5555C61.8561 69.4655 62.1443 69.3461 62.3568 69.1335C62.5694 68.921 62.6888 68.6328 62.6888 68.3322V67.1989V46.7989V45.6656C62.6888 45.365 62.5694 45.0768 62.3568 44.8643C62.1443 44.6517 61.8561 44.5323 61.5555 44.5322H47.9555ZM49.0888 46.7989H60.4222V67.1989H49.0888V46.7989Z" fill="#182F43"/>
<path fill-rule="evenodd" clip-rule="evenodd" d="M12.6596 6C12.43 6.00027 12.2059 6.0703 12.017 6.20074C11.8281 6.33118 11.6832 6.51588 11.6016 6.73047L3.83203 27.1305L3.83245 27.1306C3.78034 27.2661 3.7547 27.4103 3.75697 27.5555V28.6667C3.75697 31.1586 5.79845 33.2 8.29031 33.2C9.64 33.2 10.8576 32.6011 11.6902 31.6561C12.5228 32.6012 13.7404 33.2001 15.0901 33.2001C16.4398 33.2001 17.6574 32.6012 18.49 31.6562C19.3226 32.6012 20.5402 33.2001 21.8899 33.2001C23.2399 33.2001 24.4577 32.601 25.2903 31.6556C26.1229 32.601 27.3407 33.2001 28.6907 33.2001C30.0404 33.2001 31.258 32.6012 32.0906 31.6562C32.9232 32.6012 34.1408 33.2001 35.4905 33.2001C36.8402 33.2001 38.0578 32.6012 38.8904 31.6562C39.723 32.6012 40.9406 33.2001 42.2903 33.2001C43.64 33.2001 44.8576 32.6012 45.6902 31.6562C46.5228 32.6012 47.7404 33.2001 49.0901 33.2001C50.4398 33.2001 51.6574 32.6012 52.49 31.6562C53.3226 32.6012 54.5402 33.2001 55.8899 33.2001C57.2399 33.2001 58.4577 32.601 59.2903 31.6556C60.1229 32.601 61.3407 33.2001 62.6907 33.2001C64.0405 33.2001 65.2581 32.6012 66.0907 31.6561C66.9233 32.601 68.1408 33.1999 69.4905 33.1999C71.9823 33.1999 74.0238 31.1584 74.0238 28.6665V27.4402C74.0262 27.2884 73.998 27.1377 73.941 26.997C73.9056 26.9094 73.8594 26.8269 73.8037 26.7511L66.1786 6.73047C66.097 6.51588 65.9521 6.33118 65.7632 6.20074C65.5743 6.0703 65.3502 6.00027 65.1206 6H12.6596ZM71.7571 27.7397L64.337 8.26667H13.4432L6.02364 27.7382V28.6667C6.02364 29.942 7.01497 30.9333 8.29031 30.9333C9.55728 30.9333 10.544 29.955 10.5568 28.6917L10.5568 28.6668C10.5545 28.518 10.5815 28.3701 10.6363 28.2317C10.6911 28.0933 10.7726 27.9671 10.8762 27.8602C10.9798 27.7534 11.1034 27.6678 11.24 27.6087C11.3767 27.5496 11.5236 27.5181 11.6724 27.5158C11.8242 27.5134 11.975 27.5415 12.1157 27.5985C12.2564 27.6555 12.3842 27.7403 12.4916 27.8477C12.599 27.955 12.6837 28.0828 12.7407 28.2235C12.78 28.3207 12.8056 28.4226 12.8169 28.5264C12.8221 28.5729 12.8243 28.6197 12.8236 28.6667L12.8236 28.6918C12.8364 29.9551 13.8231 30.9335 15.0901 30.9335C16.3571 30.9335 17.3438 29.9551 17.3567 28.6919L17.3566 28.6668C17.3543 28.518 17.3813 28.3701 17.4361 28.2317C17.4909 28.0933 17.5724 27.9671 17.676 27.8602C17.7796 27.7534 17.9032 27.6678 18.0398 27.6087C18.1765 27.5496 18.3234 27.5181 18.4722 27.5158C18.624 27.5134 18.7748 27.5415 18.9155 27.5985C19.0562 27.6555 19.184 27.7403 19.2914 27.8477C19.3988 27.955 19.4835 28.0828 19.5405 28.2235C19.5811 28.3238 19.6071 28.4292 19.6178 28.5364C19.6222 28.5796 19.6241 28.6232 19.6234 28.6668L19.6234 28.6919C19.6363 29.9551 20.6229 30.9335 21.8899 30.9335C23.1653 30.9335 24.1566 29.9421 24.1566 28.6668C24.1545 28.5166 24.1822 28.3675 24.2382 28.2281L24.2456 28.2101L24.2538 28.1912C24.3079 28.0686 24.3834 27.9566 24.4768 27.8602C24.5804 27.7534 24.704 27.6678 24.8406 27.6087C24.9772 27.5496 25.1242 27.5181 25.273 27.5158C25.4248 27.5134 25.5755 27.5415 25.7163 27.5985C25.857 27.6555 25.9848 27.7403 26.0922 27.8477C26.1996 27.955 26.2842 28.0828 26.3412 28.2235C26.3983 28.3643 26.4264 28.515 26.424 28.6668C26.424 29.9421 27.4154 30.9335 28.6907 30.9335C29.9578 30.9335 30.9445 29.955 30.9572 28.6916L30.9572 28.6668C30.9548 28.518 30.9818 28.3701 31.0366 28.2317C31.0915 28.0933 31.173 27.9671 31.2766 27.8602C31.3802 27.7534 31.5038 27.6678 31.6404 27.6087C31.777 27.5496 31.924 27.5181 32.0728 27.5158C32.2246 27.5134 32.3754 27.5415 32.5161 27.5985C32.6568 27.6555 32.7846 27.7403 32.892 27.8477C32.9994 27.955 33.0841 28.0828 33.1411 28.2235C33.1817 28.3238 33.2076 28.4292 33.2184 28.5364C33.2227 28.5796 33.2246 28.6232 33.224 28.6668L33.224 28.6916C33.2367 29.955 34.2234 30.9335 35.4905 30.9335C36.7574 30.9335 37.7441 29.9552 37.757 28.692L37.757 28.6668C37.7546 28.518 37.7816 28.3701 37.8365 28.2317C37.8913 28.0933 37.9728 27.9671 38.0764 27.8602C38.18 27.7534 38.3036 27.6678 38.4402 27.6087C38.5768 27.5496 38.7238 27.5181 38.8726 27.5158C39.0244 27.5134 39.1752 27.5415 39.3159 27.5985C39.4566 27.6555 39.5844 27.7403 39.6918 27.8477C39.7992 27.955 39.8839 28.0828 39.9409 28.2235C39.9811 28.3229 40.007 28.4272 40.0179 28.5333C40.0225 28.5776 40.0245 28.6221 40.0238 28.6668L40.0238 28.6922C40.0368 29.9553 41.0235 30.9335 42.2903 30.9335C43.5573 30.9335 44.544 29.955 44.5568 28.6917L44.5568 28.6668C44.5545 28.518 44.5815 28.3701 44.6363 28.2317C44.6911 28.0933 44.7726 27.9671 44.8762 27.8602C44.9798 27.7534 45.1034 27.6678 45.24 27.6087C45.3767 27.5496 45.5236 27.5181 45.6724 27.5158C45.8242 27.5134 45.975 27.5415 46.1157 27.5985C46.2564 27.6555 46.3842 27.7403 46.4916 27.8477C46.599 27.955 46.6837 28.0828 46.7407 28.2235C46.78 28.3208 46.8056 28.4228 46.8169 28.5266C46.8181 28.537 46.8191 28.5475 46.8199 28.5579C46.8229 28.5941 46.8242 28.6304 46.8236 28.6668L46.8236 28.6915C46.8363 29.9549 47.823 30.9335 49.0901 30.9335C50.3571 30.9335 51.3437 29.9552 51.3567 28.692L51.3566 28.6668C51.3543 28.518 51.3813 28.3701 51.4361 28.2317C51.4909 28.0933 51.5724 27.9671 51.676 27.8602C51.7796 27.7534 51.9032 27.6678 52.0398 27.6087C52.1765 27.5496 52.3234 27.5181 52.4722 27.5158C52.624 27.5134 52.7748 27.5415 52.9155 27.5985C53.0562 27.6555 53.1841 27.7403 53.2914 27.8477C53.3988 27.955 53.4835 28.0828 53.5405 28.2235C53.5811 28.3238 53.6071 28.4292 53.6178 28.5364C53.6222 28.5796 53.6241 28.6232 53.6235 28.6668L53.6234 28.692C53.6363 29.9552 54.623 30.9335 55.8899 30.9335C57.1653 30.9335 58.1566 29.9421 58.1566 28.6668C58.1545 28.5166 58.1822 28.3675 58.2382 28.2281C58.2429 28.2164 58.2478 28.2049 58.2528 28.1934C58.307 28.07 58.3828 27.9572 58.4768 27.8602C58.5804 27.7534 58.704 27.6678 58.8406 27.6087C58.9772 27.5496 59.1242 27.5181 59.273 27.5158C59.4248 27.5134 59.5755 27.5415 59.7163 27.5985C59.857 27.6555 59.9848 27.7403 60.0922 27.8477C60.1996 27.955 60.2842 28.0828 60.3413 28.2235C60.3983 28.3643 60.4264 28.515 60.424 28.6668C60.424 29.9421 61.4154 30.9335 62.6907 30.9335C63.9572 30.9335 64.9436 29.9558 64.9572 28.6933C64.9572 28.6844 64.9571 28.6755 64.9571 28.6665C64.955 28.5164 64.9828 28.3672 65.0388 28.2278C65.0948 28.0885 65.1779 27.9617 65.2834 27.8547C65.3888 27.7478 65.5145 27.6628 65.653 27.6049C65.7916 27.5469 65.9403 27.517 66.0905 27.517C66.2407 27.517 66.3894 27.5469 66.5279 27.6049C66.6665 27.6628 66.7921 27.7478 66.8976 27.8547C66.8977 27.8548 66.8977 27.8549 66.8978 27.855C66.9374 27.8951 66.9738 27.938 67.0068 27.9833C67.0618 28.0588 67.1074 28.141 67.1424 28.2281C67.1984 28.3675 67.2262 28.5166 67.224 28.6668C67.224 28.6757 67.224 28.6846 67.224 28.6934C67.2378 29.9558 68.2241 30.9332 69.4905 30.9332C70.7658 30.9332 71.7571 29.9419 71.7571 28.6665V27.7397Z" fill="#F4B513"/>
<path d="M12.017 6.20074L11.7329 5.78928L12.017 6.20074ZM12.6596 6V5.5L12.659 5.5L12.6596 6ZM11.6016 6.73047L12.0688 6.90843L12.0689 6.90823L11.6016 6.73047ZM3.83203 27.1305L3.36477 26.9525L3.18678 27.4198L3.65415 27.5978L3.83203 27.1305ZM3.83245 27.1306L4.29909 27.3102L4.47932 26.8419L4.01033 26.6633L3.83245 27.1306ZM3.75697 27.5555H4.25704L4.25691 27.5477L3.75697 27.5555ZM11.6902 31.6561L12.0653 31.3256L11.6902 30.8997L11.315 31.3256L11.6902 31.6561ZM18.49 31.6562L18.8652 31.3256L18.49 30.8998L18.1149 31.3256L18.49 31.6562ZM25.2903 31.6556L25.6655 31.3251L25.2903 30.8991L24.9151 31.3251L25.2903 31.6556ZM32.0906 31.6562L32.4658 31.3256L32.0906 30.8998L31.7154 31.3256L32.0906 31.6562ZM38.8904 31.6562L39.2656 31.3256L38.8904 30.8998L38.5152 31.3256L38.8904 31.6562ZM45.6902 31.6562L46.0654 31.3256L45.6902 30.8998L45.315 31.3256L45.6902 31.6562ZM52.49 31.6562L52.8652 31.3256L52.49 30.8998L52.1149 31.3256L52.49 31.6562ZM59.2903 31.6556L59.6655 31.3251L59.2903 30.8991L58.9151 31.3251L59.2903 31.6556ZM66.0907 31.6561L66.4659 31.3255L66.0907 30.8997L65.7155 31.3255L66.0907 31.6561ZM74.0238 27.4402L73.5238 27.4324V27.4402H74.0238ZM73.941 26.997L73.4776 27.1847L73.4776 27.1847L73.941 26.997ZM73.8037 26.7511L73.3364 26.9291L73.3606 26.9926L73.4009 27.0473L73.8037 26.7511ZM66.1786 6.73047L65.7113 6.90823L65.7114 6.90843L66.1786 6.73047ZM65.7632 6.20074L66.0473 5.78928L65.7632 6.20074ZM65.1206 6L65.1212 5.5H65.1206V6ZM71.7571 27.7397H72.2571V27.6476L72.2244 27.5616L71.7571 27.7397ZM64.337 8.26667L64.8042 8.08863L64.6815 7.76667H64.337V8.26667ZM13.4432 8.26667V7.76667H13.0987L12.976 8.08863L13.4432 8.26667ZM6.02364 27.7382L5.55641 27.5601L5.52364 27.6461V27.7382H6.02364ZM10.5568 28.6917L11.0569 28.6968L11.0568 28.6904L10.5568 28.6917ZM10.5568 28.6668L11.0568 28.6654L11.0567 28.659L10.5568 28.6668ZM10.6363 28.2317L10.1714 28.0476H10.1714L10.6363 28.2317ZM10.8762 27.8602L10.5172 27.5123L10.5172 27.5123L10.8762 27.8602ZM11.24 27.6087L11.0415 27.1498L11.0415 27.1498L11.24 27.6087ZM11.6724 27.5158L11.6802 28.0157H11.6802L11.6724 27.5158ZM12.1157 27.5985L11.928 28.0619L11.928 28.0619L12.1157 27.5985ZM12.4916 27.8477L12.8452 27.4941L12.8452 27.4941L12.4916 27.8477ZM12.7407 28.2235L13.2041 28.0358L13.2041 28.0358L12.7407 28.2235ZM12.8169 28.5264L12.3199 28.5805L12.3199 28.5812L12.8169 28.5264ZM12.8236 28.6667L12.3237 28.6596L12.3236 28.6653L12.8236 28.6667ZM12.8236 28.6918L12.3235 28.6904L12.3236 28.6968L12.8236 28.6918ZM17.3567 28.6919L17.8567 28.697L17.8567 28.6905L17.3567 28.6919ZM17.3566 28.6668L17.8566 28.6654L17.8565 28.659L17.3566 28.6668ZM17.4361 28.2317L16.9712 28.0476L16.9712 28.0476L17.4361 28.2317ZM18.0398 27.6087L17.8413 27.1498L17.8413 27.1498L18.0398 27.6087ZM18.4722 27.5158L18.48 28.0157H18.48L18.4722 27.5158ZM18.9155 27.5985L18.7278 28.0619L18.7278 28.0619L18.9155 27.5985ZM19.2914 27.8477L19.645 27.4941L19.645 27.4941L19.2914 27.8477ZM19.5405 28.2235L20.0039 28.0358L19.5405 28.2235ZM19.6178 28.5364L19.1202 28.5861L19.1203 28.5868L19.6178 28.5364ZM19.6234 28.6668L19.1235 28.6597L19.1234 28.6654L19.6234 28.6668ZM19.6234 28.6919L19.1233 28.6905L19.1234 28.697L19.6234 28.6919ZM24.1566 28.6668H24.6566L24.6565 28.6597L24.1566 28.6668ZM24.2382 28.2281L23.7759 28.0377L23.7743 28.0417L24.2382 28.2281ZM24.2456 28.2101L23.7867 28.0115L23.7833 28.0198L24.2456 28.2101ZM24.2538 28.1912L23.7964 27.9892L23.7949 27.9926L24.2538 28.1912ZM24.4768 27.8602L24.8358 28.2082H24.8358L24.4768 27.8602ZM24.8406 27.6087L24.6421 27.1498L24.6421 27.1498L24.8406 27.6087ZM25.273 27.5158L25.2808 28.0157H25.2808L25.273 27.5158ZM25.7163 27.5985L25.5285 28.0619L25.5285 28.0619L25.7163 27.5985ZM26.3412 28.2235L25.8778 28.4113L25.8778 28.4113L26.3412 28.2235ZM26.424 28.6668L25.924 28.659V28.6668H26.424ZM30.9572 28.6916L31.4573 28.6967L31.4572 28.6903L30.9572 28.6916ZM30.9572 28.6668L31.4572 28.6655L31.4571 28.659L30.9572 28.6668ZM31.2766 27.8602L30.9176 27.5123L30.9176 27.5123L31.2766 27.8602ZM31.6404 27.6087L31.4419 27.1498L31.4419 27.1498L31.6404 27.6087ZM32.0728 27.5158L32.0806 28.0157H32.0806L32.0728 27.5158ZM32.5161 27.5985L32.3284 28.0619L32.3284 28.0619L32.5161 27.5985ZM32.892 27.8477L33.2456 27.4941L33.2455 27.4941L32.892 27.8477ZM33.1411 28.2235L32.6776 28.4113V28.4113L33.1411 28.2235ZM33.2184 28.5364L32.7208 28.5861L32.7209 28.5868L33.2184 28.5364ZM33.224 28.6668L32.724 28.6597L32.724 28.6655L33.224 28.6668ZM33.224 28.6916L32.7239 28.6903L32.724 28.6967L33.224 28.6916ZM37.757 28.692L38.2571 28.6971L38.257 28.6906L37.757 28.692ZM37.757 28.6668L38.257 28.6654L38.2569 28.659L37.757 28.6668ZM37.8365 28.2317L38.3013 28.4158L38.3013 28.4158L37.8365 28.2317ZM38.0764 27.8602L38.4354 28.2082L38.4354 28.2082L38.0764 27.8602ZM38.4402 27.6087L38.2417 27.1498L38.2417 27.1498L38.4402 27.6087ZM38.8726 27.5158L38.8804 28.0157H38.8804L38.8726 27.5158ZM39.3159 27.5985L39.1282 28.0619L39.1282 28.0619L39.3159 27.5985ZM39.6918 27.8477L40.0454 27.4941L40.0453 27.4941L39.6918 27.8477ZM39.9409 28.2235L39.4774 28.4113L39.4774 28.4113L39.9409 28.2235ZM40.0179 28.5333L39.5205 28.5844L39.5205 28.5851L40.0179 28.5333ZM40.0238 28.6668L39.5239 28.6598L39.5238 28.6654L40.0238 28.6668ZM40.0238 28.6922L39.5237 28.6908L39.5238 28.6974L40.0238 28.6922ZM44.5568 28.6917L45.0569 28.6968L45.0568 28.6904L44.5568 28.6917ZM44.5568 28.6668L45.0568 28.6654L45.0567 28.659L44.5568 28.6668ZM44.6363 28.2317L45.1011 28.4158L45.1011 28.4158L44.6363 28.2317ZM44.8762 27.8602L45.2352 28.2082L45.2352 28.2082L44.8762 27.8602ZM45.24 27.6087L45.0415 27.1498L45.0415 27.1498L45.24 27.6087ZM45.6724 27.5158L45.6802 28.0157H45.6802L45.6724 27.5158ZM46.1157 27.5985L45.928 28.0619L45.928 28.0619L46.1157 27.5985ZM46.4916 27.8477L46.8452 27.4941L46.8452 27.4941L46.4916 27.8477ZM46.7407 28.2235L47.2041 28.0358L47.2041 28.0358L46.7407 28.2235ZM46.8169 28.5266L46.3199 28.5806L46.3199 28.5814L46.8169 28.5266ZM46.8199 28.5579L47.3183 28.517L47.3183 28.5169L46.8199 28.5579ZM46.8236 28.6668L46.3237 28.6597L46.3236 28.6654L46.8236 28.6668ZM46.8236 28.6915L46.3235 28.6901L46.3236 28.6965L46.8236 28.6915ZM51.3567 28.692L51.8567 28.6971L51.8567 28.6906L51.3567 28.692ZM51.3566 28.6668L51.8566 28.6654L51.8565 28.659L51.3566 28.6668ZM51.4361 28.2317L51.9009 28.4158L51.9009 28.4158L51.4361 28.2317ZM51.676 27.8602L52.035 28.2082L52.035 28.2082L51.676 27.8602ZM52.0398 27.6087L51.8413 27.1498L51.8413 27.1498L52.0398 27.6087ZM52.4722 27.5158L52.48 28.0157H52.48L52.4722 27.5158ZM52.9155 27.5985L52.7278 28.0619L52.7278 28.0619L52.9155 27.5985ZM53.2914 27.8477L53.645 27.4941L53.645 27.4941L53.2914 27.8477ZM53.5405 28.2235L54.0039 28.0358L54.0039 28.0358L53.5405 28.2235ZM53.6178 28.5364L53.1203 28.5861L53.1203 28.5868L53.6178 28.5364ZM53.6235 28.6668L53.1235 28.6597L53.1235 28.6654L53.6235 28.6668ZM53.6234 28.692L53.1233 28.6906L53.1234 28.6971L53.6234 28.692ZM58.1566 28.6668H58.6566L58.6565 28.6597L58.1566 28.6668ZM58.2382 28.2281L57.7743 28.0417L57.7743 28.0417L58.2382 28.2281ZM58.2528 28.1934L58.7103 28.3952L58.7107 28.3944L58.2528 28.1934ZM58.4768 27.8602L58.8358 28.2082L58.8358 28.2082L58.4768 27.8602ZM58.8406 27.6087L58.6421 27.1498L58.6421 27.1498L58.8406 27.6087ZM59.273 27.5158L59.2808 28.0157H59.2808L59.273 27.5158ZM59.7163 27.5985L59.5285 28.0619L59.5286 28.0619L59.7163 27.5985ZM60.0922 27.8477L60.4458 27.4941L60.4457 27.4941L60.0922 27.8477ZM60.3413 28.2235L60.8047 28.0358L60.8047 28.0358L60.3413 28.2235ZM60.424 28.6668L59.924 28.659V28.6668H60.424ZM64.9572 28.6933L65.4573 28.6987L65.4572 28.6903L64.9572 28.6933ZM64.9571 28.6665H65.4572L65.4571 28.6595L64.9571 28.6665ZM65.0388 28.2278L64.5748 28.0414L64.5748 28.0414L65.0388 28.2278ZM65.2834 27.8547L64.9273 27.5037L64.9273 27.5037L65.2834 27.8547ZM65.653 27.6049L65.846 28.0661L65.846 28.0661L65.653 27.6049ZM66.5279 27.6049L66.3349 28.0661L66.335 28.0661L66.5279 27.6049ZM66.8976 27.8547L67.2553 27.5054L67.2536 27.5037L66.8976 27.8547ZM66.8978 27.855L66.5401 28.2044L66.5418 28.206L66.8978 27.855ZM67.0068 27.9833L67.4109 27.6888L67.4109 27.6888L67.0068 27.9833ZM67.1424 28.2281L66.6785 28.4145L66.6785 28.4145L67.1424 28.2281ZM67.224 28.6668L66.724 28.6597V28.6668H67.224ZM67.224 28.6934L66.7239 28.6904L66.724 28.6989L67.224 28.6934ZM12.3011 6.6122C12.4067 6.53927 12.532 6.50015 12.6602 6.5L12.659 5.5C12.3281 5.50039 12.0052 5.60133 11.7329 5.78928L12.3011 6.6122ZM12.0689 6.90823C12.1145 6.78835 12.1954 6.68513 12.3011 6.6122L11.7329 5.78928C11.4607 5.97723 11.2519 6.2434 11.1342 6.55271L12.0689 6.90823ZM4.29929 27.3084L12.0688 6.90843L11.1343 6.55251L3.36477 26.9525L4.29929 27.3084ZM4.01033 26.6633L4.00991 26.6632L3.65415 27.5978L3.65457 27.5979L4.01033 26.6633ZM4.25691 27.5477C4.25564 27.4665 4.26998 27.3859 4.29909 27.3102L3.36581 26.9511C3.29069 27.1463 3.25376 27.3541 3.25704 27.5633L4.25691 27.5477ZM4.25697 28.6667V27.5555H3.25697V28.6667H4.25697ZM8.29031 32.7C6.07459 32.7 4.25697 30.8824 4.25697 28.6667H3.25697C3.25697 31.4347 5.5223 33.7 8.29031 33.7V32.7ZM11.315 31.3256C10.5723 32.1685 9.48902 32.7 8.29031 32.7V33.7C9.79098 33.7 11.1428 33.0337 12.0653 31.9866L11.315 31.3256ZM15.0901 32.7001C13.8913 32.7001 12.808 32.1686 12.0653 31.3256L11.315 31.9866C12.2375 33.0338 13.5894 33.7001 15.0901 33.7001V32.7001ZM18.1149 31.3256C17.3722 32.1686 16.2889 32.7001 15.0901 32.7001V33.7001C16.5908 33.7001 17.9427 33.0338 18.8652 31.9867L18.1149 31.3256ZM21.8899 32.7001C20.6912 32.7001 19.6079 32.1686 18.8652 31.3256L18.1149 31.9867C19.0374 33.0338 20.3892 33.7001 21.8899 33.7001V32.7001ZM24.9151 31.3251C24.1724 32.1684 23.0889 32.7001 21.8899 32.7001V33.7001C23.3909 33.7001 24.743 33.0335 25.6655 31.9861L24.9151 31.3251ZM28.6907 32.7001C27.4917 32.7001 26.4082 32.1684 25.6655 31.3251L24.9151 31.9861C25.8376 33.0335 27.1897 33.7001 28.6907 33.7001V32.7001ZM31.7154 31.3256C30.9728 32.1686 29.8894 32.7001 28.6907 32.7001V33.7001C30.1914 33.7001 31.5432 33.0338 32.4658 31.9867L31.7154 31.3256ZM35.4905 32.7001C34.2918 32.7001 33.2085 32.1686 32.4658 31.3256L31.7154 31.9867C32.638 33.0338 33.9898 33.7001 35.4905 33.7001V32.7001ZM38.5152 31.3256C37.7726 32.1686 36.6892 32.7001 35.4905 32.7001V33.7001C36.9912 33.7001 38.3431 33.0338 39.2656 31.9867L38.5152 31.3256ZM42.2903 32.7001C41.0916 32.7001 40.0083 32.1686 39.2656 31.3256L38.5152 31.9867C39.4378 33.0338 40.7896 33.7001 42.2903 33.7001V32.7001ZM45.315 31.3256C44.5724 32.1686 43.489 32.7001 42.2903 32.7001V33.7001C43.791 33.7001 45.1429 33.0338 46.0654 31.9867L45.315 31.3256ZM49.0901 32.7001C47.8914 32.7001 46.8081 32.1686 46.0654 31.3256L45.315 31.9867C46.2376 33.0338 47.5894 33.7001 49.0901 33.7001V32.7001ZM52.1149 31.3256C51.3722 32.1686 50.2889 32.7001 49.0901 32.7001V33.7001C50.5908 33.7001 51.9427 33.0338 52.8652 31.9867L52.1149 31.3256ZM55.8899 32.7001C54.6912 32.7001 53.6079 32.1686 52.8652 31.3256L52.1149 31.9867C53.0374 33.0338 54.3892 33.7001 55.8899 33.7001V32.7001ZM58.9151 31.3251C58.1724 32.1684 57.0889 32.7001 55.8899 32.7001V33.7001C57.3909 33.7001 58.743 33.0335 59.6655 31.9861L58.9151 31.3251ZM62.6907 32.7001C61.4917 32.7001 60.4082 32.1684 59.6655 31.3251L58.9151 31.9861C59.8376 33.0335 61.1897 33.7001 62.6907 33.7001V32.7001ZM65.7155 31.3255C64.9729 32.1686 63.8895 32.7001 62.6907 32.7001V33.7001C64.1915 33.7001 65.5434 33.0337 66.4659 31.9866L65.7155 31.3255ZM65.7156 31.9866C66.6381 33.0336 67.9899 33.6999 69.4905 33.6999V32.6999C68.2918 32.6999 67.2085 32.1684 66.4659 31.3255L65.7156 31.9866ZM69.4905 33.6999C72.2585 33.6999 74.5238 31.4346 74.5238 28.6665H73.5238C73.5238 30.8823 71.7062 32.6999 69.4905 32.6999V33.6999ZM74.5238 28.6665V27.4402H73.5238V28.6665H74.5238ZM74.5238 27.4481C74.5272 27.2293 74.4866 27.0121 74.4045 26.8093L73.4776 27.1847C73.5095 27.2633 73.5252 27.3476 73.5239 27.4324L74.5238 27.4481ZM74.4045 26.8093C74.3533 26.6831 74.2868 26.5641 74.2065 26.4549L73.4009 27.0473C73.432 27.0896 73.4578 27.1358 73.4776 27.1847L74.4045 26.8093ZM65.7114 6.90843L73.3364 26.9291L74.2709 26.5732L66.6459 6.55251L65.7114 6.90843ZM65.4791 6.6122C65.5848 6.68513 65.6657 6.78835 65.7113 6.90823L66.646 6.55271C66.5283 6.2434 66.3195 5.97723 66.0473 5.78928L65.4791 6.6122ZM65.12 6.5C65.2482 6.50015 65.3735 6.53927 65.4791 6.6122L66.0473 5.78928C65.775 5.60133 65.4521 5.50039 65.1212 5.5L65.12 6.5ZM12.6596 6.5H65.1206V5.5H12.6596V6.5ZM72.2244 27.5616L64.8042 8.08863L63.8697 8.4447L71.2899 27.9177L72.2244 27.5616ZM64.337 7.76667H13.4432V8.76667H64.337V7.76667ZM12.976 8.08863L5.55641 27.5601L6.49087 27.9162L13.9105 8.4447L12.976 8.08863ZM5.52364 27.7382V28.6667H6.52364V27.7382H5.52364ZM5.52364 28.6667C5.52364 30.2182 6.73883 31.4333 8.29031 31.4333V30.4333C7.29111 30.4333 6.52364 29.6659 6.52364 28.6667H5.52364ZM8.29031 31.4333C9.8314 31.4333 11.0411 30.2343 11.0568 28.6968L10.0569 28.6866C10.0468 29.6757 9.28316 30.4333 8.29031 30.4333V31.4333ZM11.0568 28.6904L11.0568 28.6654L10.0568 28.6682L10.0568 28.6931L11.0568 28.6904ZM11.0567 28.659C11.0554 28.5758 11.0705 28.4931 11.1011 28.4158L10.1714 28.0476C10.0924 28.2471 10.0535 28.4602 10.0568 28.6746L11.0567 28.659ZM11.1011 28.4158C11.1317 28.3386 11.1773 28.268 11.2352 28.2082L10.5172 27.5123C10.3679 27.6662 10.2504 27.8481 10.1714 28.0476L11.1011 28.4158ZM11.2352 28.2082C11.2933 28.1484 11.3624 28.1006 11.4386 28.0676L11.0415 27.1498C10.8444 27.2351 10.6663 27.3584 10.5172 27.5123L11.2352 28.2082ZM11.4386 28.0676C11.5148 28.0347 11.5969 28.017 11.6802 28.0157L11.6646 27.0158C11.4503 27.0192 11.2385 27.0646 11.0415 27.1498L11.4386 28.0676ZM11.6802 28.0157C11.7652 28.0144 11.8494 28.0301 11.928 28.0619L12.3034 27.1351C12.1005 27.0529 11.8833 27.0124 11.6646 27.0158L11.6802 28.0157ZM11.928 28.0619C12.0064 28.0937 12.0779 28.1411 12.1381 28.2012L12.8452 27.4941C12.6906 27.3395 12.5064 27.2173 12.3034 27.1351L11.928 28.0619ZM12.1381 28.2012C12.1981 28.2612 12.2454 28.3327 12.2772 28.4113L13.2041 28.0358C13.1219 27.833 12.9999 27.6488 12.8452 27.4941L12.1381 28.2012ZM12.2772 28.4113C12.2992 28.4656 12.3136 28.5225 12.3199 28.5805L13.314 28.4723C13.2977 28.3227 13.2608 28.1758 13.2041 28.0358L12.2772 28.4113ZM12.3199 28.5812C12.3228 28.6072 12.3241 28.6334 12.3237 28.6596L13.3236 28.6737C13.3245 28.6061 13.3213 28.5386 13.3139 28.4716L12.3199 28.5812ZM12.3236 28.6653L12.3236 28.6904L13.3236 28.6931L13.3236 28.668L12.3236 28.6653ZM12.3236 28.6968C12.3392 30.2343 13.549 31.4335 15.0901 31.4335V30.4335C14.0972 30.4335 13.3336 29.6758 13.3235 28.6867L12.3236 28.6968ZM15.0901 31.4335C16.6312 31.4335 17.8409 30.2344 17.8566 28.697L16.8567 28.6868C16.8466 29.6758 16.083 30.4335 15.0901 30.4335V31.4335ZM17.8567 28.6905L17.8566 28.6654L16.8566 28.6682L16.8567 28.6932L17.8567 28.6905ZM17.8565 28.659C17.8552 28.5758 17.8703 28.4931 17.9009 28.4158L16.9712 28.0476C16.8922 28.2471 16.8533 28.4602 16.8566 28.6746L17.8565 28.659ZM17.9009 28.4158C17.9315 28.3386 17.9771 28.268 18.035 28.2082L17.317 27.5123C17.1677 27.6662 17.0502 27.8481 16.9712 28.0476L17.9009 28.4158ZM18.035 28.2082C18.0931 28.1484 18.1622 28.1006 18.2384 28.0676L17.8413 27.1498C17.6443 27.2351 17.4661 27.3584 17.317 27.5123L18.035 28.2082ZM18.2384 28.0676C18.3146 28.0347 18.3967 28.017 18.48 28.0157L18.4644 27.0158C18.2501 27.0192 18.0383 27.0646 17.8413 27.1498L18.2384 28.0676ZM18.48 28.0157C18.565 28.0144 18.6492 28.0301 18.7278 28.0619L19.1032 27.1351C18.9003 27.0529 18.6831 27.0124 18.4644 27.0158L18.48 28.0157ZM18.7278 28.0619C18.8062 28.0937 18.8777 28.1411 18.9379 28.2012L19.645 27.4941C19.4904 27.3395 19.3062 27.2173 19.1032 27.1351L18.7278 28.0619ZM18.9379 28.2012C18.9979 28.2612 19.0452 28.3327 19.077 28.4113L20.0039 28.0358C19.9217 27.833 19.7997 27.6488 19.645 27.4941L18.9379 28.2012ZM19.077 28.4113C19.0997 28.4673 19.1143 28.5262 19.1202 28.5861L20.1153 28.4866C20.0998 28.3321 20.0624 28.1803 20.0039 28.0358L19.077 28.4113ZM19.1203 28.5868C19.1228 28.611 19.1238 28.6353 19.1235 28.6597L20.1234 28.6739C20.1243 28.611 20.1215 28.5482 20.1152 28.4859L19.1203 28.5868ZM19.1234 28.6654L19.1234 28.6905L20.1234 28.6932L20.1234 28.6682L19.1234 28.6654ZM19.1234 28.697C19.1391 30.2344 20.3488 31.4335 21.8899 31.4335V30.4335C20.8971 30.4335 20.1334 29.6758 20.1234 28.6868L19.1234 28.697ZM21.8899 31.4335C23.4414 31.4335 24.6566 30.2183 24.6566 28.6668H23.6566C23.6566 29.666 22.8891 30.4335 21.8899 30.4335V31.4335ZM24.6565 28.6597C24.6553 28.5758 24.6709 28.4924 24.7022 28.4145L23.7743 28.0417C23.6936 28.2425 23.6536 28.4575 23.6566 28.6739L24.6565 28.6597ZM24.7005 28.4185L24.7079 28.4005L23.7833 28.0198L23.7759 28.0377L24.7005 28.4185ZM24.7045 28.4087L24.7127 28.3897L23.7949 27.9926L23.7867 28.0116L24.7045 28.4087ZM24.7112 28.3932C24.7414 28.3248 24.7836 28.2622 24.8358 28.2082L24.1178 27.5123C23.9832 27.6511 23.8745 27.8125 23.7964 27.9892L24.7112 28.3932ZM24.8358 28.2082C24.8939 28.1484 24.963 28.1006 25.0392 28.0676L24.6421 27.1498C24.445 27.2351 24.2669 27.3584 24.1178 27.5123L24.8358 28.2082ZM25.0392 28.0676C25.1154 28.0347 25.1975 28.017 25.2808 28.0157L25.2652 27.0158C25.0509 27.0192 24.8391 27.0646 24.6421 27.1498L25.0392 28.0676ZM25.2808 28.0157C25.3658 28.0144 25.45 28.0301 25.5285 28.0619L25.904 27.1351C25.7011 27.0529 25.4838 27.0124 25.2652 27.0158L25.2808 28.0157ZM25.5285 28.0619C25.607 28.0937 25.6785 28.1411 25.7386 28.2012L26.4457 27.4941C26.2912 27.3395 26.107 27.2173 25.904 27.1351L25.5285 28.0619ZM25.7386 28.2012C25.7987 28.2612 25.846 28.3327 25.8778 28.4113L26.8047 28.0358C26.7225 27.833 26.6004 27.6488 26.4457 27.4941L25.7386 28.2012ZM25.8778 28.4113C25.9097 28.4899 25.9254 28.5742 25.9241 28.659L26.924 28.6746C26.9274 28.4558 26.8868 28.2386 26.8047 28.0358L25.8778 28.4113ZM25.924 28.6668C25.924 30.2183 27.1392 31.4335 28.6907 31.4335V30.4335C27.6915 30.4335 26.924 29.666 26.924 28.6668H25.924ZM28.6907 31.4335C30.2319 31.4335 31.4417 30.2342 31.4572 28.6967L30.4573 28.6866C30.4473 29.6757 29.6836 30.4335 28.6907 30.4335V31.4335ZM31.4572 28.6903L31.4572 28.6655L30.4572 28.6681L30.4572 28.693L31.4572 28.6903ZM31.4571 28.659C31.4558 28.5758 31.4709 28.4931 31.5015 28.4158L30.5718 28.0476C30.4928 28.2471 30.4539 28.4602 30.4572 28.6746L31.4571 28.659ZM31.5015 28.4158C31.5321 28.3386 31.5777 28.268 31.6356 28.2082L30.9176 27.5123C30.7683 27.6662 30.6508 27.8481 30.5718 28.0476L31.5015 28.4158ZM31.6356 28.2082C31.6937 28.1484 31.7628 28.1006 31.839 28.0676L31.4419 27.1498C31.2448 27.2351 31.0667 27.3584 30.9176 27.5123L31.6356 28.2082ZM31.839 28.0676C31.9152 28.0347 31.9973 28.017 32.0806 28.0157L32.065 27.0158C31.8507 27.0192 31.6389 27.0646 31.4419 27.1498L31.839 28.0676ZM32.0806 28.0157C32.1656 28.0144 32.2498 28.0301 32.3284 28.0619L32.7038 27.1351C32.5009 27.0529 32.2836 27.0124 32.065 27.0158L32.0806 28.0157ZM32.3284 28.0619C32.4068 28.0937 32.4783 28.1411 32.5384 28.2012L33.2455 27.4941C33.091 27.3395 32.9068 27.2173 32.7038 27.1351L32.3284 28.0619ZM32.5384 28.2012C32.5985 28.2612 32.6458 28.3327 32.6776 28.4113L33.6045 28.0358C33.5223 27.833 33.4002 27.6488 33.2456 27.4941L32.5384 28.2012ZM32.6776 28.4113C32.7003 28.4673 32.7148 28.5262 32.7208 28.5861L33.7159 28.4866C33.7004 28.3321 33.663 28.1803 33.6045 28.0358L32.6776 28.4113ZM32.7209 28.5868C32.7234 28.611 32.7244 28.6354 32.7241 28.6597L33.724 28.6739C33.7249 28.611 33.7221 28.5482 33.7158 28.4859L32.7209 28.5868ZM32.724 28.6655L32.724 28.6903L33.724 28.693L33.724 28.6681L32.724 28.6655ZM32.724 28.6967C32.7395 30.2342 33.9493 31.4335 35.4905 31.4335V30.4335C34.4976 30.4335 33.7339 29.6757 33.7239 28.6866L32.724 28.6967ZM35.4905 31.4335C37.0316 31.4335 38.2413 30.2345 38.257 28.6971L37.2571 28.6869C37.2469 29.6759 36.4833 30.4335 35.4905 30.4335V31.4335ZM38.257 28.6906L38.257 28.6654L37.257 28.6682L37.257 28.6933L38.257 28.6906ZM38.2569 28.659C38.2556 28.5758 38.2707 28.4931 38.3013 28.4158L37.3716 28.0476C37.2926 28.2471 37.2537 28.4602 37.257 28.6746L38.2569 28.659ZM38.3013 28.4158C38.3319 28.3386 38.3775 28.268 38.4354 28.2082L37.7174 27.5123C37.5681 27.6662 37.4506 27.8481 37.3716 28.0476L38.3013 28.4158ZM38.4354 28.2082C38.4935 28.1484 38.5626 28.1006 38.6388 28.0676L38.2417 27.1498C38.0446 27.2351 37.8665 27.3584 37.7174 27.5123L38.4354 28.2082ZM38.6388 28.0676C38.715 28.0347 38.7971 28.017 38.8804 28.0157L38.8648 27.0158C38.6505 27.0192 38.4387 27.0646 38.2417 27.1498L38.6388 28.0676ZM38.8804 28.0157C38.9654 28.0144 39.0496 28.0301 39.1282 28.0619L39.5036 27.1351C39.3007 27.0529 39.0835 27.0124 38.8648 27.0158L38.8804 28.0157ZM39.1282 28.0619C39.2066 28.0937 39.2781 28.1411 39.3382 28.2012L40.0453 27.4941C39.8908 27.3395 39.7066 27.2173 39.5036 27.1351L39.1282 28.0619ZM39.3382 28.2012C39.3983 28.2612 39.4456 28.3327 39.4774 28.4113L40.4043 28.0358C40.3221 27.833 40.2 27.6488 40.0454 27.4941L39.3382 28.2012ZM39.4774 28.4113C39.4999 28.4668 39.5144 28.5251 39.5205 28.5844L40.5152 28.4823C40.4995 28.3293 40.4623 28.1789 40.4043 28.0358L39.4774 28.4113ZM39.5205 28.5851C39.5231 28.6099 39.5242 28.6348 39.5239 28.6598L40.5238 28.6739C40.5247 28.6095 40.5218 28.5453 40.5152 28.4815L39.5205 28.5851ZM39.5238 28.6654L39.5238 28.6908L40.5238 28.6936L40.5238 28.6682L39.5238 28.6654ZM39.5238 28.6974C39.5397 30.2346 40.7494 31.4335 42.2903 31.4335V30.4335C41.2975 30.4335 40.534 29.676 40.5237 28.687L39.5238 28.6974ZM42.2903 31.4335C43.8315 31.4335 45.0412 30.2343 45.0568 28.6968L44.0569 28.6867C44.0468 29.6758 43.2832 30.4335 42.2903 30.4335V31.4335ZM45.0568 28.6904L45.0568 28.6654L44.0568 28.6682L44.0568 28.6931L45.0568 28.6904ZM45.0567 28.659C45.0554 28.5758 45.0705 28.4931 45.1011 28.4158L44.1714 28.0476C44.0924 28.2471 44.0535 28.4602 44.0568 28.6746L45.0567 28.659ZM45.1011 28.4158C45.1317 28.3386 45.1773 28.268 45.2352 28.2082L44.5172 27.5123C44.3679 27.6662 44.2504 27.8481 44.1714 28.0476L45.1011 28.4158ZM45.2352 28.2082C45.2933 28.1484 45.3624 28.1006 45.4386 28.0676L45.0415 27.1498C44.8445 27.2351 44.6663 27.3584 44.5172 27.5123L45.2352 28.2082ZM45.4386 28.0676C45.5148 28.0347 45.5969 28.017 45.6802 28.0157L45.6646 27.0158C45.4503 27.0192 45.2385 27.0646 45.0415 27.1498L45.4386 28.0676ZM45.6802 28.0157C45.7652 28.0144 45.8494 28.0301 45.928 28.0619L46.3034 27.1351C46.1005 27.0529 45.8833 27.0124 45.6646 27.0158L45.6802 28.0157ZM45.928 28.0619C46.0064 28.0937 46.0779 28.1411 46.1381 28.2012L46.8452 27.4941C46.6906 27.3395 46.5064 27.2173 46.3034 27.1351L45.928 28.0619ZM46.138 28.2012C46.1981 28.2612 46.2454 28.3327 46.2772 28.4113L47.2041 28.0358C47.1219 27.833 46.9999 27.6488 46.8452 27.4941L46.138 28.2012ZM46.2772 28.4113C46.2992 28.4655 46.3135 28.5225 46.3199 28.5806L47.314 28.4725C47.2977 28.323 47.2609 28.176 47.2041 28.0358L46.2772 28.4113ZM46.3199 28.5814C46.3206 28.5871 46.3211 28.593 46.3216 28.599L47.3183 28.5169C47.317 28.502 47.3156 28.4869 47.3139 28.4717L46.3199 28.5814ZM46.3216 28.5989C46.3233 28.6191 46.324 28.6394 46.3237 28.6597L47.3236 28.6739C47.3243 28.6214 47.3225 28.5691 47.3183 28.517L46.3216 28.5989ZM46.3236 28.6654L46.3236 28.6901L47.3236 28.6929L47.3236 28.6682L46.3236 28.6654ZM46.3236 28.6965C46.339 30.2341 47.5489 31.4335 49.0901 31.4335V30.4335C48.0972 30.4335 47.3335 29.6757 47.3235 28.6865L46.3236 28.6965ZM49.0901 31.4335C50.6312 31.4335 51.8409 30.2345 51.8566 28.6971L50.8567 28.6869C50.8465 29.6759 50.0829 30.4335 49.0901 30.4335V31.4335ZM51.8567 28.6906L51.8566 28.6654L50.8566 28.6682L50.8567 28.6933L51.8567 28.6906ZM51.8565 28.659C51.8552 28.5758 51.8703 28.4931 51.9009 28.4158L50.9712 28.0476C50.8922 28.2471 50.8533 28.4602 50.8566 28.6746L51.8565 28.659ZM51.9009 28.4158C51.9315 28.3386 51.9771 28.268 52.035 28.2082L51.317 27.5123C51.1677 27.6662 51.0502 27.8481 50.9712 28.0476L51.9009 28.4158ZM52.035 28.2082C52.0931 28.1484 52.1622 28.1006 52.2384 28.0676L51.8413 27.1498C51.6443 27.2351 51.4661 27.3584 51.317 27.5123L52.035 28.2082ZM52.2384 28.0676C52.3146 28.0347 52.3967 28.017 52.48 28.0157L52.4644 27.0158C52.2501 27.0192 52.0383 27.0646 51.8413 27.1498L52.2384 28.0676ZM52.48 28.0157C52.565 28.0144 52.6492 28.0301 52.7278 28.0619L53.1032 27.1351C52.9003 27.0529 52.6831 27.0124 52.4644 27.0158L52.48 28.0157ZM52.7278 28.0619C52.8062 28.0937 52.8777 28.1411 52.9379 28.2012L53.645 27.4941C53.4904 27.3395 53.3062 27.2173 53.1032 27.1351L52.7278 28.0619ZM52.9379 28.2012C52.9979 28.2612 53.0452 28.3327 53.0771 28.4113L54.0039 28.0358C53.9217 27.833 53.7997 27.6488 53.645 27.4941L52.9379 28.2012ZM53.077 28.4113C53.0998 28.4673 53.1143 28.5262 53.1203 28.5861L54.1153 28.4866C54.0998 28.3321 54.0624 28.1803 54.0039 28.0358L53.077 28.4113ZM53.1203 28.5868C53.1228 28.611 53.1238 28.6354 53.1235 28.6597L54.1234 28.6739C54.1243 28.611 54.1215 28.5482 54.1152 28.4859L53.1203 28.5868ZM53.1235 28.6654L53.1234 28.6906L54.1234 28.6933L54.1235 28.6682L53.1235 28.6654ZM53.1234 28.6971C53.1392 30.2345 54.3489 31.4335 55.8899 31.4335V30.4335C54.8971 30.4335 54.1335 29.6759 54.1234 28.6869L53.1234 28.6971ZM55.8899 31.4335C57.4414 31.4335 58.6566 30.2183 58.6566 28.6668H57.6566C57.6566 29.666 56.8891 30.4335 55.8899 30.4335V31.4335ZM58.6565 28.6597C58.6553 28.5758 58.6709 28.4924 58.7022 28.4145L57.7743 28.0417C57.6936 28.2425 57.6536 28.4575 57.6566 28.6739L58.6565 28.6597ZM58.7021 28.4146C58.7048 28.408 58.7075 28.4016 58.7103 28.3951L57.7954 27.9916C57.7881 28.0082 57.781 28.0248 57.7743 28.0417L58.7021 28.4146ZM58.7107 28.3944C58.7409 28.3255 58.7832 28.2625 58.8358 28.2082L58.1178 27.5123C57.9824 27.6519 57.8731 27.8145 57.795 27.9924L58.7107 28.3944ZM58.8358 28.2082C58.8939 28.1484 58.963 28.1006 59.0392 28.0676L58.6421 27.1498C58.445 27.2351 58.2669 27.3584 58.1178 27.5123L58.8358 28.2082ZM59.0391 28.0676C59.1154 28.0347 59.1975 28.017 59.2808 28.0157L59.2652 27.0158C59.0509 27.0192 58.8391 27.0646 58.6421 27.1498L59.0391 28.0676ZM59.2808 28.0157C59.3658 28.0144 59.45 28.0301 59.5285 28.0619L59.904 27.1351C59.7011 27.0529 59.4838 27.0124 59.2652 27.0158L59.2808 28.0157ZM59.5286 28.0619C59.607 28.0937 59.6785 28.1411 59.7386 28.2012L60.4457 27.4941C60.2912 27.3395 60.107 27.2173 59.904 27.1351L59.5286 28.0619ZM59.7386 28.2012C59.7987 28.2612 59.846 28.3327 59.8778 28.4113L60.8047 28.0358C60.7225 27.833 60.6004 27.6488 60.4458 27.4941L59.7386 28.2012ZM59.8778 28.4113C59.9097 28.4899 59.9254 28.5742 59.9241 28.659L60.924 28.6746C60.9274 28.4558 60.8868 28.2386 60.8047 28.0358L59.8778 28.4113ZM59.924 28.6668C59.924 30.2183 61.1392 31.4335 62.6907 31.4335V30.4335C61.6915 30.4335 60.924 29.666 60.924 28.6668H59.924ZM62.6907 31.4335C64.2312 31.4335 65.4406 30.2353 65.4572 28.6987L64.4573 28.6879C64.4466 29.6764 63.6832 30.4335 62.6907 30.4335V31.4335ZM64.4571 28.6665C64.4571 28.6765 64.4572 28.6864 64.4572 28.6963L65.4572 28.6903C65.4572 28.6824 65.4571 28.6745 65.4571 28.6665H64.4571ZM64.5748 28.0414C64.4941 28.2423 64.4541 28.4572 64.4572 28.6736L65.4571 28.6595C65.4559 28.5755 65.4714 28.4921 65.5027 28.4143L64.5748 28.0414ZM64.9273 27.5037C64.7754 27.6578 64.6556 27.8405 64.5748 28.0414L65.5027 28.4143C65.534 28.3364 65.5804 28.2656 65.6394 28.2058L64.9273 27.5037ZM65.4601 27.1436C65.2604 27.2272 65.0793 27.3496 64.9273 27.5037L65.6394 28.2058C65.6984 28.146 65.7686 28.0985 65.846 28.0661L65.4601 27.1436ZM66.0905 27.017C65.874 27.017 65.6597 27.0601 65.46 27.1436L65.846 28.0661C65.9235 28.0337 66.0066 28.017 66.0905 28.017V27.017ZM66.7209 27.1436C66.5213 27.0601 66.307 27.017 66.0905 27.017V28.017C66.1743 28.017 66.2575 28.0337 66.3349 28.0661L66.7209 27.1436ZM67.2536 27.5037C67.1017 27.3496 66.9206 27.2272 66.7209 27.1436L66.335 28.0661C66.4124 28.0985 66.4826 28.146 66.5415 28.2058L67.2536 27.5037ZM67.2555 27.5056C67.2662 27.5166 67.2743 27.5259 67.2791 27.5316C67.2816 27.5345 67.2835 27.5368 67.2847 27.5383C67.2858 27.5396 67.2867 27.5407 67.2865 27.5405C67.2865 27.5405 67.2865 27.5405 67.2865 27.5405C67.2865 27.5405 67.2865 27.5405 67.2865 27.5405C67.2865 27.5405 67.2865 27.5405 67.2865 27.5405C67.2865 27.5404 67.2864 27.5404 67.2864 27.5403C67.2863 27.5403 67.2862 27.5401 67.286 27.5399C67.2858 27.5396 67.2853 27.5389 67.2847 27.5382C67.2835 27.5368 67.2815 27.5344 67.279 27.5315C67.2742 27.5257 67.266 27.5164 67.2553 27.5054L66.5399 28.2041C66.5292 28.1931 66.5211 28.1838 66.5163 28.1781C66.5138 28.1752 66.5119 28.1729 66.5107 28.1714C66.5096 28.1701 66.5087 28.169 66.5089 28.1692C66.5089 28.1692 66.5089 28.1692 66.5089 28.1692C66.5089 28.1692 66.5089 28.1692 66.5089 28.1692C66.5089 28.1692 66.5089 28.1692 66.5089 28.1693C66.5089 28.1693 66.509 28.1693 66.509 28.1694C66.5091 28.1695 66.5092 28.1696 66.5094 28.1698C66.5097 28.1702 66.5101 28.1708 66.5108 28.1715C66.5119 28.173 66.5139 28.1754 66.5164 28.1783C66.5212 28.184 66.5294 28.1934 66.5401 28.2044L67.2555 27.5056ZM66.5418 28.206C66.5639 28.2285 66.5842 28.2524 66.6027 28.2778L67.4109 27.6888C67.3633 27.6235 67.3108 27.5617 67.2539 27.5039L66.5418 28.206ZM66.6027 28.2778C66.6334 28.32 66.6589 28.3659 66.6785 28.4145L67.6064 28.0417C67.5559 27.9161 67.4902 27.7977 67.4109 27.6888L66.6027 28.2778ZM66.6785 28.4145C66.7098 28.4924 66.7253 28.5758 66.7241 28.6597L67.724 28.6739C67.727 28.4575 67.6871 28.2425 67.6064 28.0417L66.6785 28.4145ZM66.724 28.6668C66.724 28.6748 66.724 28.6827 66.724 28.6904L67.724 28.6965C67.724 28.6864 67.724 28.6765 67.724 28.6668H66.724ZM69.4905 30.4332C68.4981 30.4332 67.7348 29.6763 67.7239 28.688L66.724 28.6989C66.7408 30.2353 67.9501 31.4332 69.4905 31.4332V30.4332ZM71.2571 28.6665C71.2571 29.6657 70.4897 30.4332 69.4905 30.4332V31.4332C71.042 31.4332 72.2571 30.218 72.2571 28.6665H71.2571ZM71.2571 27.7397V28.6665H72.2571V27.7397H71.2571Z" fill="#182F43"/>
<path fill-rule="evenodd" clip-rule="evenodd" d="M51.3546 53.5994V58.1327H53.6213V53.5994H51.3546ZM20.8742 37.2236L16.3408 46.2903L18.3685 47.3041L22.9018 38.2374L20.8742 37.2236ZM25.4075 41.757L19.7408 53.0903L21.7685 54.1041L27.4351 42.7708L25.4075 41.757Z" fill="#F4B513" stroke="#182F43"/>
</svg>
