<svg width="80" height="80" viewBox="0 0 80 80" fill="none" xmlns="http://www.w3.org/2000/svg">
<path fill-rule="evenodd" clip-rule="evenodd" d="M57.0151 25.4636C56.6605 23.6909 55.2424 23.1 53.5878 22.8636V20.1454C53.5878 17.6636 51.5787 15.7727 49.2151 15.7727C48.2696 15.7727 47.4424 16.0091 46.7333 16.6C46.0242 15.1818 44.4878 14.1182 42.8333 14.1182C41.5333 14.1182 40.4696 14.7091 39.6424 15.5363C38.8151 14.7091 37.7514 14.1182 36.4514 14.1182C34.206 14.1182 32.3151 15.8909 32.0787 18.0182C31.9856 17.9916 31.894 17.965 31.8036 17.9387C31.0904 17.7316 30.4493 17.5454 29.7151 17.5454C27.2333 17.5454 25.3424 19.5545 25.3424 21.9182V25.4636L25.4605 27.9454C25.9333 29.8363 27.706 31.1364 29.7151 31.1364C30.8969 31.1364 31.9605 30.6636 32.7878 29.8363C33.6151 30.7818 34.7969 31.3727 36.0969 31.3727C37.3969 31.3727 38.4605 30.7818 39.2878 29.9545C40.1151 30.7818 41.1787 31.3727 42.4787 31.3727C43.4242 31.3727 44.2514 31.1364 44.9605 30.6636C44.4878 32.2 43.8969 34.2091 43.5424 35.5091L43.0696 37.7545C42.9514 38.7 42.9514 39.8818 43.4242 41.1818C43.6605 41.7727 44.3696 42.1273 44.9605 41.7727C45.5514 41.5364 45.906 40.8273 45.5514 40.2364C45.1969 39.4091 45.0787 38.2273 45.5514 36.9273C45.7925 36.0834 46.3718 34.1637 46.8972 32.4223C47.402 30.7492 47.8572 29.2407 47.9151 29.0091C48.7424 26.6454 50.6333 25.1091 52.7605 25.1091C53.706 25.1091 55.006 25.4636 54.5333 26.2909C52.6424 29.7182 52.0514 33.2636 51.5787 36.4545C51.106 39.6454 50.6333 42.3636 49.2151 44.3727C47.4424 46.9727 46.3787 49.8091 46.3787 52.5273V63.4H30.5424V52.2909C30.5424 49.3364 29.5969 46.3818 27.8242 44.1364C26.1696 42.0091 25.4605 39.8818 25.6969 37.7545L23.2151 38.1091C22.9787 40.7091 23.9242 43.4273 25.8151 45.9091C27.2333 47.6818 28.0605 50.0454 28.0605 52.5273V64.8182C28.0605 65.5273 28.5333 66 29.2424 66H47.5605C48.2696 66 48.7424 65.5273 48.7424 64.8182V52.6454C48.7424 50.4 49.5696 48.0364 51.106 45.7909C52.621 43.5767 53.2167 40.9027 53.6862 38.1091L53.706 37.9909H53.7097L54.1787 35.6273C54.6514 33.0273 55.1242 30.4273 56.5424 27.9454L57.0151 25.4636ZM51.106 20.2636C51.106 19.2 50.2787 18.2545 49.0969 18.2545C47.9151 18.2545 47.0878 19.0818 47.0878 20.2636V26.0545C48.0333 24.6363 49.4514 23.5727 51.106 23.2182V20.2636ZM44.606 18.4909C44.606 17.4273 43.7787 16.4818 42.5969 16.4818C41.5333 16.4818 40.5878 17.4273 40.5878 18.4909V27C40.5878 28.0636 41.5333 29.0091 42.5969 29.0091C43.6605 29.0091 44.606 28.1818 44.606 27V18.4909ZM36.2151 16.6C35.1514 16.6 34.206 17.5454 34.206 18.6091V27.1182C34.206 28.1818 35.1514 29.1273 36.2151 29.1273C37.2787 29.1273 38.2242 28.1818 38.2242 27.1182V18.6091C38.2242 17.5454 37.2787 16.6 36.2151 16.6ZM29.7151 19.9091C28.6514 19.9091 27.706 20.8545 27.706 21.9182V26.7636C27.706 27.8273 28.6514 28.7727 29.7151 28.7727C30.7787 28.7727 31.7242 27.9454 31.7242 26.7636V21.9182C31.7242 20.8545 30.8969 19.9091 29.7151 19.9091Z" fill="#FBFBFF"/>
<path fill-rule="evenodd" clip-rule="evenodd" d="M25.3424 25.3455H21.5605V19.7909C21.5605 16.7182 18.9605 14.1182 15.8878 14.1182C12.6969 14.1182 10.2151 16.7182 10.2151 19.7909V20.5C9.3878 19.9091 8.44235 19.6727 7.37871 19.6727C4.54235 19.6727 2.17871 22.0364 2.17871 24.8727V38.4636C2.17871 41.3 4.54235 43.6636 7.37871 43.6636C8.44235 43.6636 9.3878 43.3091 10.2151 42.8364V43.6636C10.2151 46.7364 12.8151 49.3364 15.8878 49.3364C19.0787 49.3364 21.5605 46.7364 21.5605 43.6636V37.9909H23.2151L25.6969 37.6364H43.0696L43.5424 35.3909H21.5605V27.8273H25.4605L25.3424 25.3455ZM4.54235 38.4636C4.54235 40 5.84235 41.3 7.37871 41.3C8.91508 41.3 10.2151 40 10.2151 38.4636V24.8727C10.2151 23.3364 9.03326 22.0364 7.37871 22.0364C5.84235 22.0364 4.54235 23.3364 4.54235 24.8727V38.4636ZM15.8878 46.8546C17.6605 46.8546 19.1969 45.3182 19.1969 43.5455V19.6727C19.1969 17.9 17.7787 16.3636 15.8878 16.3636C14.1151 16.3636 12.5787 17.9 12.5787 19.6727V43.5455C12.5787 45.3182 14.1151 46.8546 15.8878 46.8546Z" fill="#F4B513"/>
<path fill-rule="evenodd" clip-rule="evenodd" d="M72.6151 19.6727C71.5514 19.6727 70.606 20.0273 69.7787 20.5V19.6727C69.7787 16.6 67.1787 14 64.106 14C60.9151 14 58.4333 16.6 58.4333 19.6727V25.3455H57.0151L56.5424 27.8273H58.4333V35.5091H54.1787L53.7097 37.8727H58.3151V43.5455C58.3151 46.6182 60.9151 49.2182 63.9878 49.2182C67.1787 49.2182 69.6605 46.6182 69.6605 43.5455V42.7182C70.4878 43.3091 71.4333 43.5455 72.4969 43.5455C75.3333 43.5455 77.6969 41.1818 77.6969 38.3455V24.8727C77.8151 21.9182 75.4514 19.6727 72.6151 19.6727ZM67.4151 43.5455C67.4151 45.3182 65.8787 46.8546 64.106 46.8546C62.3333 46.8546 60.7969 45.3182 60.7969 43.5455V19.6727C60.7969 17.9 62.3333 16.3636 64.106 16.3636C65.9969 16.3636 67.4151 17.9 67.4151 19.6727V43.5455ZM75.4514 38.4636C75.4514 40 74.1514 41.3 72.6151 41.3C71.0787 41.3 69.7787 40 69.7787 38.4636V24.8727C69.7787 23.3364 71.0787 22.0364 72.6151 22.0364C74.1514 22.0364 75.4514 23.3364 75.4514 24.8727V38.4636Z" fill="#F4B513"/>
</svg>
