<svg width="80" height="80" viewBox="0 0 80 80" fill="none" xmlns="http://www.w3.org/2000/svg">
<path d="M69.3804 71.25H49.3804C49.0489 71.25 48.7309 71.1183 48.4965 70.8839C48.2621 70.6495 48.1304 70.3315 48.1304 70V52.73C48.1304 47.7025 47.5104 42.68 46.2929 37.8025C45.023 32.7226 44.3807 27.5062 44.3804 22.27V20C44.3804 19.6685 44.5121 19.3505 44.7465 19.1161C44.9809 18.8817 45.2989 18.75 45.6304 18.75H73.1304C73.4619 18.75 73.7798 18.8817 74.0143 19.1161C74.2487 19.3505 74.3804 19.6685 74.3804 20V22.27C74.3802 27.5062 73.7379 32.7226 72.4679 37.8025C71.2491 42.6848 70.632 47.6979 70.6304 52.73V70C70.6304 70.3315 70.4987 70.6495 70.2643 70.8839C70.0298 71.1183 69.7119 71.25 69.3804 71.25ZM50.6304 68.75H68.1304V52.73C68.1304 47.5 68.7729 42.2725 70.0429 37.1975C71.2604 32.3175 71.8804 27.2975 71.8804 22.27V21.25H46.8804V22.27C46.8804 27.2975 47.5004 32.32 48.7179 37.1975C49.9879 42.275 50.6304 47.5 50.6304 52.73V68.75Z" fill="#FBFBFF"/>
<path d="M57.7507 40.5005C57.4797 40.4989 57.2165 40.4095 57.0006 40.2456C56.7847 40.0818 56.6278 39.8523 56.5535 39.5917C56.4791 39.3311 56.4912 39.0534 56.5881 38.8003C56.685 38.5472 56.8613 38.3323 57.0907 38.188C59.1818 36.8959 61.5808 36.1873 64.0383 36.1358C66.4959 36.0844 68.9224 36.692 71.0657 37.8955C71.2088 37.9759 71.3347 38.0837 71.4362 38.2128C71.5377 38.3419 71.6127 38.4897 71.6571 38.6478C71.7014 38.8059 71.7142 38.9712 71.6946 39.1342C71.6751 39.2972 71.6236 39.4548 71.5432 39.598C71.4628 39.7411 71.3549 39.867 71.2258 39.9685C71.0968 40.0699 70.9489 40.145 70.7909 40.1893C70.6328 40.2337 70.4675 40.2464 70.3045 40.2269C70.1414 40.2074 69.9838 40.1559 69.8407 40.0755C68.087 39.0905 66.1014 38.5933 64.0905 38.6355C62.0795 38.6777 60.1166 39.2578 58.4057 40.3155C58.2088 40.4368 57.982 40.5008 57.7507 40.5005Z" fill="#FBFBFF"/>
<path d="M51.1957 42.3745C50.125 42.3738 49.058 42.2497 48.0157 42.0045C47.8558 41.9667 47.705 41.8979 47.5717 41.8018C47.4384 41.7057 47.3254 41.5843 47.239 41.4446C47.1527 41.3048 47.0947 41.1495 47.0684 40.9873C47.0421 40.8251 47.048 40.6594 47.0857 40.4995C47.1235 40.3396 47.1924 40.1887 47.2884 40.0555C47.3845 39.9222 47.5059 39.8092 47.6456 39.7228C47.7854 39.6364 47.9408 39.5784 48.1029 39.5521C48.2651 39.5258 48.4308 39.5317 48.5907 39.5695C50.0282 39.9118 51.5193 39.9659 52.9778 39.7286C54.4363 39.4913 55.8334 38.9673 57.0882 38.187C57.37 38.0126 57.7095 37.9573 58.0321 38.0333C58.3547 38.1092 58.6339 38.3102 58.8082 38.592C58.9826 38.8738 59.0379 39.2133 58.962 39.5359C58.886 39.8584 58.685 40.1376 58.4032 40.312C56.2403 41.6587 53.7436 42.3731 51.1957 42.3745ZM60.6282 71.2495H53.1282C52.7967 71.2495 52.4788 71.1178 52.2443 70.8834C52.0099 70.6489 51.8782 70.331 51.8782 69.9995V62.4995C51.8782 62.168 52.0099 61.85 52.2443 61.6156C52.4788 61.3812 52.7967 61.2495 53.1282 61.2495H60.6282C60.9598 61.2495 61.2777 61.3812 61.5121 61.6156C61.7465 61.85 61.8782 62.168 61.8782 62.4995V69.9995C61.8782 70.331 61.7465 70.6489 61.5121 70.8834C61.2777 71.1178 60.9598 71.2495 60.6282 71.2495ZM54.3782 68.7495H59.3782V63.7495H54.3782V68.7495Z" fill="#FBFBFF"/>
<path d="M63.3972 66.5205C63.0656 66.5205 62.7474 66.3893 62.5122 66.1555L56.5222 60.1655C56.2879 59.9311 56.1562 59.6132 56.1562 59.2817C56.1562 58.9503 56.2879 58.6324 56.5222 58.398L62.5122 52.408C62.7466 52.1736 63.0645 52.042 63.396 52.042C63.7274 52.042 64.0453 52.1736 64.2797 52.408L70.2697 58.398C70.5041 58.6324 70.6357 58.9503 70.6357 59.2817C70.6357 59.6132 70.5041 59.9311 70.2697 60.1655L64.2797 66.1555C64.1639 66.2714 64.0263 66.3633 63.8749 66.426C63.7234 66.4886 63.5611 66.5207 63.3972 66.5205ZM59.1747 59.278L63.3972 63.5005L67.6197 59.278L63.3972 55.0555L59.1747 59.278Z" fill="#FBFBFF"/>
<path d="M60.6281 56.2506C60.3344 56.2504 60.0502 56.1468 59.8253 55.958C59.6004 55.7692 59.4492 55.5073 59.3981 55.2181L52.0481 13.5581L40.3856 11.2256C40.22 11.1984 40.0616 11.1381 39.9199 11.0484C39.7781 10.9587 39.6559 10.8413 39.5604 10.7034C39.4649 10.5654 39.3982 10.4096 39.3643 10.2453C39.3303 10.081 39.3297 9.91156 39.3627 9.74704C39.3956 9.58253 39.4612 9.42632 39.5558 9.28773C39.6503 9.14914 39.7718 9.031 39.913 8.94035C40.0542 8.8497 40.2122 8.7884 40.3775 8.7601C40.5429 8.7318 40.7123 8.73708 40.8756 8.77562L53.3756 11.2756C53.6219 11.3254 53.8475 11.4481 54.0232 11.6277C54.1988 11.8074 54.3164 12.0358 54.3606 12.2831L61.8606 54.7831C61.8923 54.963 61.8843 55.1477 61.837 55.3242C61.7897 55.5007 61.7043 55.6646 61.5868 55.8045C61.4693 55.9444 61.3226 56.0569 61.1569 56.134C60.9913 56.211 60.8108 56.2509 60.6281 56.2506Z" fill="#FBFBFF"/>
<path d="M36.9038 71.2494C31.2204 71.249 25.5984 70.0743 20.3904 67.7989C15.1824 65.5236 10.5006 62.1967 6.63882 58.0269C6.2838 57.6441 6.011 57.1926 5.83729 56.7003C5.66358 56.2079 5.59263 55.6852 5.62882 55.1644C5.70382 54.1319 6.18882 53.2044 6.99382 52.5544C7.73905 51.9419 8.69202 51.6408 9.65389 51.7139C10.6158 51.787 11.5123 52.2288 12.1563 52.9469C16.3332 57.4503 21.6599 60.7285 27.5623 62.4281C33.4648 64.1277 39.7191 64.1843 45.6513 62.5919C47.6088 62.0619 49.5738 63.0819 50.2163 64.9544L50.2338 65.0069C50.5688 65.9869 50.4863 67.0294 49.9988 67.9444C49.7528 68.4044 49.4147 68.8089 49.0057 69.1327C48.5967 69.4566 48.1255 69.6929 47.6213 69.8269C44.1138 70.7769 40.5088 71.2494 36.9038 71.2494ZM9.34882 54.2069C9.07965 54.2062 8.81843 54.298 8.60882 54.4669C8.47001 54.5706 8.35494 54.7028 8.2713 54.8545C8.18767 55.0063 8.13738 55.1741 8.12382 55.3469C8.11266 55.5258 8.13792 55.7052 8.19808 55.874C8.25824 56.0429 8.35205 56.1978 8.47382 56.3294C13.2719 61.5108 19.3946 65.2825 26.1805 67.237C32.9663 69.1916 40.1572 69.2546 46.9763 67.4194C47.1499 67.3746 47.3124 67.2944 47.4535 67.1839C47.5946 67.0733 47.7113 66.9347 47.7963 66.7769C47.8741 66.6329 47.9211 66.4744 47.9345 66.3113C47.9478 66.1482 47.9272 65.9841 47.8738 65.8294L47.8588 65.7869C47.7486 65.4823 47.5253 65.2318 47.2353 65.0875C46.9453 64.9432 46.6108 64.9161 46.3013 65.0119C39.9293 66.7236 33.2108 66.6631 26.8706 64.837C20.5304 63.0108 14.8091 59.4883 10.3238 54.6494C10.2008 54.5121 10.0507 54.4019 9.88282 54.3257C9.71497 54.2495 9.53313 54.2091 9.34882 54.2069Z" fill="#F4B513"/>
<path d="M36.9107 66.2504C32.0363 66.2514 27.2118 65.2692 22.7259 63.3624C18.24 61.4555 14.1849 58.6634 10.8032 55.1529C10.6892 55.0347 10.5997 54.8952 10.5397 54.7424C10.4797 54.5897 10.4503 54.4265 10.4533 54.2624C10.4564 54.0983 10.4917 53.9364 10.5573 53.7859C10.6229 53.6354 10.7175 53.4993 10.8357 53.3854L36.0407 29.1004C36.1989 28.949 36.394 28.8418 36.6066 28.7894C36.8192 28.7369 37.0418 28.7412 37.2523 28.8016C37.4628 28.8621 37.6537 28.9766 37.8061 29.1339C37.9584 29.2912 38.0669 29.4856 38.1207 29.6979L46.5482 63.6679C46.5878 63.8273 46.5956 63.9929 46.5712 64.1554C46.5468 64.3178 46.4906 64.4738 46.4059 64.6145C46.3211 64.7552 46.2095 64.8778 46.0773 64.9753C45.9452 65.0729 45.7951 65.1434 45.6357 65.1829C42.7813 65.8911 39.8515 66.2495 36.9107 66.2504ZM13.4857 54.3029C17.4474 58.119 22.2815 60.9095 27.5674 62.4318C32.8533 63.9542 38.431 64.1622 43.8157 63.0379L36.2157 32.4054L13.4857 54.3029Z" fill="#F4B513"/>
<path d="M23.2793 57.1718C22.6985 57.1711 22.1258 57.0356 21.6063 56.776C21.0867 56.5164 20.6345 56.1397 20.2853 55.6756C19.9361 55.2115 19.6994 54.6727 19.5938 54.1016C19.4882 53.5304 19.5166 52.9426 19.6768 52.3843C19.9551 51.4309 20.5991 50.6263 21.4683 50.1458C22.3375 49.6652 23.3614 49.5479 24.3168 49.8193C25.181 50.0735 25.9249 50.6299 26.4127 51.3872C26.9005 52.1444 27.0997 53.0518 26.9738 53.9437C26.8479 54.8356 26.4055 55.6525 25.7272 56.2452C25.0489 56.8378 24.18 57.1667 23.2793 57.1718ZM23.2793 52.1718C22.9475 52.1725 22.6295 52.305 22.3953 52.5401C22.1611 52.7752 22.0299 53.0937 22.0306 53.4256C22.0312 53.7574 22.1637 54.0754 22.3988 54.3096C22.6339 54.5438 22.9525 54.675 23.2843 54.6743C23.6162 54.6737 23.9342 54.5412 24.1683 54.3061C24.4025 54.071 24.5337 53.7524 24.5331 53.4206C24.5324 53.0887 24.3999 52.7707 24.1648 52.5365C23.9297 52.3024 23.6112 52.1712 23.2793 52.1718ZM35.9818 58.2293C35.401 58.2286 34.8283 58.0931 34.3088 57.8335C33.7892 57.5739 33.337 57.1972 32.9878 56.7331C32.6386 56.269 32.4019 55.7302 32.2963 55.1591C32.1907 54.5879 32.2191 54.0001 32.3793 53.4418C32.6553 52.4869 33.2989 51.6805 34.1688 51.1996C35.0387 50.7188 36.0639 50.6027 37.0193 50.8768C37.8835 51.131 38.6274 51.6874 39.1152 52.4447C39.603 53.2019 39.8022 54.1093 39.6763 55.0012C39.5504 55.8931 39.108 56.71 38.4297 57.3027C37.7514 57.8953 36.8825 58.2242 35.9818 58.2293ZM35.9843 53.2293C35.6838 53.2305 35.3939 53.3399 35.1675 53.5375C34.941 53.735 34.7934 54.0075 34.7515 54.305C34.7096 54.6026 34.7763 54.9052 34.9393 55.1576C35.1024 55.41 35.3509 55.5952 35.6393 55.6793C35.8114 55.7295 35.9923 55.7421 36.1698 55.7162C36.3472 55.6903 36.517 55.6266 36.6676 55.5293C36.8182 55.432 36.9461 55.3034 37.0426 55.1523C37.1392 55.0013 37.2021 54.8312 37.2271 54.6536C37.2521 54.4761 37.2386 54.2952 37.1875 54.1234C37.1365 53.9515 37.049 53.7926 36.9311 53.6575C36.8133 53.5224 36.6677 53.4142 36.5043 53.3404C36.341 53.2665 36.1636 53.2286 35.9843 53.2293ZM32.3968 48.0918C31.8162 48.0906 31.2437 47.9548 30.7245 47.695C30.2052 47.4352 29.7533 47.0586 29.4041 46.5946C29.055 46.1306 28.8183 45.5921 28.7124 45.0212C28.6066 44.4502 28.6347 43.8626 28.7943 43.3043C29.0703 42.3494 29.7139 41.543 30.5838 41.0621C31.4537 40.5813 32.4789 40.4652 33.4343 40.7393C34.2985 40.9935 35.0424 41.5499 35.5302 42.3072C36.018 43.0644 36.2172 43.9718 36.0913 44.8637C35.9654 45.7556 35.523 46.5725 34.8447 47.1652C34.1664 47.7578 33.2975 48.0867 32.3968 48.0918ZM32.3968 43.0918C32.065 43.0925 31.747 43.225 31.5128 43.4601C31.2786 43.6952 31.1474 44.0137 31.1481 44.3456C31.1487 44.6774 31.2812 44.9954 31.5163 45.2296C31.7514 45.4638 32.07 45.595 32.4018 45.5943C32.7337 45.5937 33.0517 45.4612 33.2858 45.2261C33.52 44.991 33.6512 44.6724 33.6506 44.3406C33.6499 44.0087 33.5174 43.6907 33.2823 43.4565C33.0472 43.2224 32.7287 43.0912 32.3968 43.0918Z" fill="#F4B513"/>
</svg>
