<svg width="80" height="80" viewBox="0 0 80 80" fill="none" xmlns="http://www.w3.org/2000/svg">
<path d="M16.4617 54.4375C16.2305 54.4387 16.0049 54.3669 15.8168 54.2324C15.6288 54.0979 15.4879 53.9076 15.4142 53.6885C15.3406 53.4693 15.3379 53.2325 15.4065 53.0118C15.4752 52.791 15.6117 52.5975 15.7967 52.4588L19.222 49.8656C19.4248 49.7116 19.6748 49.6328 19.9292 49.6426C20.1836 49.6525 20.4267 49.7503 20.617 49.9194L22.7387 51.8102L28.577 48.7586C28.8354 48.6235 29.137 48.5965 29.4153 48.6837C29.6936 48.7709 29.9259 48.9651 30.061 49.2236C30.1961 49.482 30.2231 49.7836 30.1359 50.0619C30.0487 50.3402 29.8545 50.5725 29.596 50.7076L23.0838 54.1154C22.886 54.2187 22.6613 54.2593 22.4398 54.2318C22.2183 54.2043 22.0105 54.11 21.8438 53.9615L19.8288 52.1675L17.1246 54.2187C16.9333 54.3617 16.7006 54.4385 16.4617 54.4375ZM54.419 44.4571C54.1275 44.4571 53.8478 44.3413 53.6417 44.1351C53.4355 43.929 53.3197 43.6493 53.3197 43.3578V35.3484C53.3195 35.1561 53.3698 34.9671 53.4655 34.8003C53.5612 34.6335 53.699 34.4947 53.8651 34.3978C54.0312 34.3009 54.2198 34.2493 54.4121 34.2481C54.6044 34.2469 54.7936 34.2961 54.9609 34.3909L62.0195 38.3967C62.1886 38.4926 62.3294 38.6316 62.4273 38.7996C62.5252 38.9677 62.5767 39.1586 62.5767 39.3531C62.5767 39.5476 62.5252 39.7385 62.4273 39.9065C62.3294 40.0746 62.1886 40.2136 62.0195 40.3095L54.9609 44.3142C54.7957 44.4078 54.609 44.4571 54.419 44.4571ZM55.5183 37.2359V41.4703L59.2493 39.3531L55.5183 37.2359ZM21.3107 44.7935C21.0191 44.7935 20.7395 44.6776 20.5334 44.4715C20.3272 44.2653 20.2114 43.9857 20.2114 43.6942V32.6573C20.2114 32.3658 20.3272 32.0862 20.5334 31.88C20.7395 31.6739 21.0191 31.5581 21.3107 31.5581C21.6022 31.5581 21.8818 31.6739 22.088 31.88C22.2942 32.0862 22.41 32.3658 22.41 32.6573V43.6942C22.41 43.9857 22.2942 44.2653 22.088 44.4715C21.8818 44.6776 21.6022 44.7935 21.3107 44.7935ZM54.8389 73.0012H24.6085C23.4424 73.0012 22.3239 72.5379 21.4993 71.7133C20.6747 70.8886 20.2114 69.7702 20.2114 68.604V60.5242C20.2114 60.2327 20.3272 59.9531 20.5334 59.7469C20.7395 59.5408 21.0191 59.425 21.3107 59.425C21.6022 59.425 21.8818 59.5408 22.088 59.7469C22.2942 59.9531 22.41 60.2327 22.41 60.5242V68.604C22.41 69.1871 22.6416 69.7463 23.0539 70.1586C23.4662 70.5709 24.0254 70.8026 24.6085 70.8026H54.8389C55.422 70.8026 55.9812 70.5709 56.3936 70.1586C56.8059 69.7463 57.0375 69.1871 57.0375 68.604V48.8399C57.0375 48.5484 57.1533 48.2688 57.3595 48.0626C57.5656 47.8565 57.8452 47.7407 58.1368 47.7407C58.4283 47.7407 58.7079 47.8565 58.9141 48.0626C59.1203 48.2688 59.2361 48.5484 59.2361 48.8399V68.604C59.2361 69.7702 58.7728 70.8886 57.9482 71.7133C57.1236 72.5379 56.0051 73.0012 54.8389 73.0012ZM58.1368 32.0308C57.8452 32.0308 57.5656 31.9149 57.3595 31.7088C57.1533 31.5026 57.0375 31.223 57.0375 30.9315V11.3971C57.0375 10.814 56.8059 10.2548 56.3936 9.84252C55.9812 9.43021 55.422 9.19857 54.8389 9.19857H24.6085C24.0254 9.19857 23.4662 9.43021 23.0539 9.84252C22.6416 10.2548 22.41 10.814 22.41 11.3971V15.8163C22.41 16.1078 22.2942 16.3874 22.088 16.5936C21.8818 16.7997 21.6022 16.9156 21.3107 16.9156C21.0191 16.9156 20.7395 16.7997 20.5334 16.5936C20.3272 16.3874 20.2114 16.1078 20.2114 15.8163V11.3971C20.2114 10.2309 20.6747 9.11252 21.4993 8.28789C22.3239 7.46327 23.4424 7 24.6085 7H54.8389C56.0051 7 57.1236 7.46327 57.9482 8.28789C58.7728 9.11252 59.2361 10.2309 59.2361 11.3971V30.9315C59.2361 31.223 59.1203 31.5026 58.9141 31.7088C58.7079 31.9149 58.4283 32.0308 58.1368 32.0308Z" fill="#FBFBFF"/>
<path d="M42.9465 13.1986H36.4904C36.1989 13.1986 35.9192 13.0828 35.7131 12.8766C35.5069 12.6704 35.3911 12.3908 35.3911 12.0993C35.3911 11.8077 35.5069 11.5281 35.7131 11.322C35.9192 11.1158 36.1989 11 36.4904 11H42.9465C43.2381 11 43.5177 11.1158 43.7238 11.322C43.93 11.5281 44.0458 11.8077 44.0458 12.0993C44.0458 12.3908 43.93 12.6704 43.7238 12.8766C43.5177 13.0828 43.2381 13.1986 42.9465 13.1986ZM46.2279 13.1909C46.0813 13.1935 45.9357 13.1674 45.7992 13.1139C45.6655 13.0603 45.5453 12.9777 45.4474 12.8721C45.2426 12.6661 45.1277 12.3875 45.1277 12.0971C45.1277 11.8067 45.2426 11.5281 45.4474 11.3221C45.6578 11.126 45.9347 11.0169 46.2224 11.0169C46.51 11.0169 46.787 11.126 46.9974 11.3221C47.0999 11.4227 47.182 11.5421 47.2392 11.6739C47.2913 11.8107 47.3174 11.9561 47.3162 12.1026C47.3174 12.2457 47.2899 12.3876 47.2351 12.5198C47.1803 12.652 47.0995 12.7718 46.9974 12.8721C46.8994 12.9777 46.7793 13.0603 46.6456 13.1139C46.5127 13.1665 46.3708 13.1926 46.2279 13.1909Z" fill="#FBFBFF"/>
<path d="M35.47 68.2659C35.2659 68.2658 35.0659 68.2088 34.8923 68.1015C34.7188 67.9941 34.5785 67.8405 34.4873 67.658C32.3173 63.3191 29.7428 61.6284 25.3038 61.6284H11.9585C11.0839 61.6284 10.245 61.2809 9.62657 60.6625C9.0081 60.044 8.66064 59.2052 8.66064 58.3305V45.8877C8.66064 45.0131 9.0081 44.1742 9.62657 43.5558C10.245 42.9373 11.0839 42.5898 11.9585 42.5898H33.2715C34.1461 42.5898 34.9849 42.9373 35.6034 43.5558C36.2219 44.1742 36.5693 45.0131 36.5693 45.8877V67.1666C36.5695 67.4143 36.486 67.6549 36.3324 67.8492C36.1788 68.0436 35.964 68.1803 35.7229 68.2373C35.6399 68.256 35.5551 68.2655 35.47 68.2659ZM11.9585 44.7884C11.667 44.7884 11.3873 44.9042 11.1812 45.1104C10.975 45.3165 10.8592 45.5962 10.8592 45.8877V58.3305C10.8592 58.6221 10.975 58.9017 11.1812 59.1078C11.3873 59.314 11.667 59.4298 11.9585 59.4298H25.3038C29.2547 59.4298 32.1194 60.6445 34.3708 63.3872V45.8877C34.3708 45.5962 34.2549 45.3165 34.0488 45.1104C33.8426 44.9042 33.563 44.7884 33.2715 44.7884H11.9585Z" fill="#F4B513"/>
<path d="M29.0871 57.8727H16.1452C15.8536 57.8727 15.574 57.7569 15.3679 57.5507C15.1617 57.3446 15.0459 57.065 15.0459 56.7734V47.446C15.0459 47.1544 15.1617 46.8748 15.3679 46.6687C15.574 46.4625 15.8536 46.3467 16.1452 46.3467H29.0838C29.3753 46.3467 29.6549 46.4625 29.8611 46.6687C30.0673 46.8748 30.1831 47.1544 30.1831 47.446V56.7734C30.1831 57.0644 30.0677 57.3435 29.8623 57.5496C29.6568 57.7556 29.3781 57.8718 29.0871 57.8727ZM17.2478 55.6741H27.9878V48.5453H17.2445L17.2478 55.6741Z" fill="#FBFBFF"/>
<path d="M35.47 40.3917C35.2661 40.3917 35.0661 40.335 34.8925 40.2278C34.719 40.1206 34.5787 39.9673 34.4873 39.7849C32.3173 35.4449 29.7428 33.7542 25.3038 33.7542H11.9585C11.0839 33.7542 10.245 33.4068 9.62657 32.7883C9.0081 32.1698 8.66064 31.331 8.66064 30.4564V18.0147C8.66064 17.14 9.0081 16.3012 9.62657 15.6827C10.245 15.0642 11.0839 14.7168 11.9585 14.7168H33.2715C34.1461 14.7168 34.9849 15.0642 35.6034 15.6827C36.2219 16.3012 36.5693 17.14 36.5693 18.0147V39.2924C36.5693 39.584 36.4535 39.8636 36.2474 40.0698C36.0412 40.2759 35.7616 40.3917 35.47 40.3917ZM11.9585 16.9154C11.667 16.9154 11.3873 17.0312 11.1812 17.2373C10.975 17.4435 10.8592 17.7231 10.8592 18.0147V30.4564C10.8592 30.7479 10.975 31.0275 11.1812 31.2337C11.3873 31.4398 11.667 31.5557 11.9585 31.5557H25.3038C29.2547 31.5557 32.1194 32.7715 34.3708 35.5131V18.0147C34.3708 17.7231 34.2549 17.4435 34.0488 17.2373C33.8426 17.0312 33.563 16.9154 33.2715 16.9154H11.9585ZM44.5238 55.5091C44.2322 55.5091 43.9526 55.3933 43.7464 55.1871C43.5403 54.981 43.4245 54.7014 43.4245 54.4098V33.132C43.4245 32.2574 43.7719 31.4186 44.3904 30.8001C45.0089 30.1816 45.8477 29.8342 46.7223 29.8342H68.0353C68.9099 29.8342 69.7488 30.1816 70.3672 30.8001C70.9857 31.4186 71.3331 32.2574 71.3331 33.132V45.5738C71.3331 46.4484 70.9857 47.2872 70.3672 47.9057C69.7488 48.5242 68.9099 48.8716 68.0353 48.8716H54.69C50.251 48.8716 47.6765 50.5623 45.5065 54.9023C45.4151 55.0847 45.2748 55.238 45.1013 55.3452C44.9277 55.4523 44.7277 55.5091 44.5238 55.5091ZM46.7223 32.0328C46.4308 32.0328 46.1512 32.1486 45.945 32.3547C45.7389 32.5609 45.623 32.8405 45.623 33.132V50.6305C47.8777 47.8889 50.7391 46.673 54.69 46.673H68.0353C68.3268 46.673 68.6064 46.5572 68.8126 46.3511C69.0188 46.1449 69.1346 45.8653 69.1346 45.5738V33.132C69.1346 32.8405 69.0188 32.5609 68.8126 32.3547C68.6064 32.1486 68.3268 32.0328 68.0353 32.0328H46.7223Z" fill="#F4B513"/>
<path d="M16.0833 23.285H28.9167C29.204 23.285 29.4796 23.1646 29.6827 22.9503C29.8859 22.7361 30 22.4455 30 22.1425C30 21.8395 29.8859 21.5489 29.6827 21.3346C29.4796 21.1204 29.204 21 28.9167 21H16.0833C15.796 21 15.5204 21.1204 15.3173 21.3346C15.1141 21.5489 15 21.8395 15 22.1425C15 22.4455 15.1141 22.7361 15.3173 22.9503C15.5204 23.1646 15.796 23.285 16.0833 23.285Z" fill="#FBFBFF"/>
<path d="M16.0833 28H25.108C25.3953 28 25.6708 27.8796 25.874 27.6654C26.0771 27.4511 26.1912 27.1605 26.1912 26.8575C26.1912 26.5545 26.0771 26.2639 25.874 26.0497C25.6708 25.8354 25.3953 25.715 25.108 25.715H16.0833C15.796 25.715 15.5204 25.8354 15.3173 26.0497C15.1141 26.2639 15 26.5545 15 26.8575C15 27.1605 15.1141 27.4511 15.3173 27.6654C15.5204 27.8796 15.796 28 16.0833 28Z" fill="#FBFBFF"/>
</svg>
