<svg width="80" height="80" viewBox="0 0 80 80" fill="none" xmlns="http://www.w3.org/2000/svg">
<path d="M57 20.5H58.5V19.549L57.6399 19.1434L57 20.5ZM55.5 31.5C55.5 32.3284 56.1716 33 57 33C57.8284 33 58.5 32.3284 58.5 31.5H55.5ZM31 55L30.9689 53.5003L31 55ZM47.5 25.3396L46.8191 24.0031L47.5 25.3396ZM47.4151 48.1187L46.2101 47.2255L47.4151 48.1187ZM30.7249 33.8855L30.044 32.5489L30.7249 33.8855ZM13.6635 48.142L12.6904 49.2835L13.6635 48.142ZM30.288 8.09817L30.9181 9.45937L30.288 8.09817ZM30.7113 8.09968L31.3513 6.74304L30.7113 8.09968ZM4.44263 20.0636L3.81245 18.7024L4.44263 20.0636ZM4.42909 20.9645L5.09991 19.6229L4.42909 20.9645ZM5.07282 21.4248L30.9181 9.45937L29.6578 6.73697L3.81245 18.7024L5.07282 21.4248ZM30.0714 9.45633L56.3601 21.8566L57.6399 19.1434L31.3513 6.74304L30.0714 9.45633ZM55.5 20.5V31.5H58.5V20.5H55.5ZM30.9451 32.5455L14.1708 24.1584L12.8292 26.8416L29.6035 35.2288L30.9451 32.5455ZM14.1708 24.1584L5.09991 19.6229L3.75827 22.3062L12.8292 26.8416L14.1708 24.1584ZM12 25.5V47.7773H15V25.5H12ZM12.6904 49.2835C13.3335 49.8317 15.5861 51.6668 18.8181 53.3475C22.0399 55.023 26.3341 56.597 31.0311 56.4997L30.9689 53.5003C26.959 53.5834 23.1763 52.2325 20.2022 50.6859C17.2383 49.1446 15.1762 47.4604 14.6365 47.0004L12.6904 49.2835ZM31.0311 56.4997C42.6821 56.2582 47.7629 50.1685 48.6202 49.0119L46.2101 47.2255C45.7294 47.8739 41.4313 53.2835 30.9689 53.5003L31.0311 56.4997ZM56.3191 19.1634L46.8191 24.0031L48.1809 26.6762L57.6809 21.8366L56.3191 19.1634ZM46.8191 24.0031L30.044 32.5489L31.4057 35.222L48.1809 26.6762L46.8191 24.0031ZM49 47.847C49 47.8299 49 47.8128 49 47.7957C49 47.7786 49 47.7616 49 47.7446C49 47.7275 49 47.7105 49 47.6935C49 47.6765 49 47.6595 49 47.6425C49 47.6255 49 47.6085 49 47.5916C49 47.5746 49 47.5577 49 47.5408C49 47.5238 49 47.5069 49 47.49C49 47.4731 49 47.4562 49 47.4394C49 47.4225 49 47.4057 49 47.3888C49 47.372 49 47.3551 49 47.3383C49 47.3215 49 47.3047 49 47.2879C49 47.2711 49 47.2544 49 47.2376C49 47.2209 49 47.2041 49 47.1874C49 47.1707 49 47.1539 49 47.1372C49 47.1205 49 47.1038 49 47.0872C49 47.0705 49 47.0538 49 47.0372C49 47.0205 49 47.0039 49 46.9873C49 46.9707 49 46.954 49 46.9375C49 46.9209 49 46.9043 49 46.8877C49 46.8711 49 46.8546 49 46.8381C49 46.8215 49 46.805 49 46.7885C49 46.772 49 46.7555 49 46.739C49 46.7225 49 46.706 49 46.6895C49 46.6731 49 46.6566 49 46.6402C49 46.6238 49 46.6073 49 46.5909C49 46.5745 49 46.5581 49 46.5418C49 46.5254 49 46.509 49 46.4926C49 46.4763 49 46.4599 49 46.4436C49 46.4273 49 46.411 49 46.3947C49 46.3784 49 46.3621 49 46.3458C49 46.3295 49 46.3132 49 46.297C49 46.2807 49 46.2645 49 46.2483C49 46.232 49 46.2158 49 46.1996C49 46.1834 49 46.1672 49 46.151C49 46.1349 49 46.1187 49 46.1025C49 46.0864 49 46.0703 49 46.0541C49 46.038 49 46.0219 49 46.0058C49 45.9897 49 45.9736 49 45.9575C49 45.9414 49 45.9254 49 45.9093C49 45.8933 49 45.8772 49 45.8612C49 45.8452 49 45.8291 49 45.8131C49 45.7971 49 45.7811 49 45.7652C49 45.7492 49 45.7332 49 45.7173C49 45.7013 49 45.6854 49 45.6694C49 45.6535 49 45.6376 49 45.6217C49 45.6057 49 45.5899 49 45.574C49 45.5581 49 45.5422 49 45.5263C49 45.5105 49 45.4946 49 45.4788C49 45.463 49 45.4471 49 45.4313C49 45.4155 49 45.3997 49 45.3839C49 45.3681 49 45.3523 49 45.3366C49 45.3208 49 45.3051 49 45.2893C49 45.2736 49 45.2578 49 45.2421C49 45.2264 49 45.2107 49 45.195C49 45.1793 49 45.1636 49 45.1479C49 45.1322 49 45.1166 49 45.1009C49 45.0853 49 45.0696 49 45.054C49 45.0384 49 45.0228 49 45.0071C49 44.9915 49 44.9759 49 44.9604C49 44.9448 49 44.9292 49 44.9136C49 44.8981 49 44.8825 49 44.867C49 44.8514 49 44.8359 49 44.8204C49 44.8049 49 44.7894 49 44.7739C49 44.7584 49 44.7429 49 44.7274C49 44.7119 49 44.6965 49 44.681C49 44.6656 49 44.6501 49 44.6347C49 44.6192 49 44.6038 49 44.5884C49 44.573 49 44.5576 49 44.5422C49 44.5268 49 44.5114 49 44.4961C49 44.4807 49 44.4653 49 44.45C49 44.4346 49 44.4193 49 44.404C49 44.3887 49 44.3733 49 44.358C49 44.3427 49 44.3274 49 44.3121C49 44.2969 49 44.2816 49 44.2663C49 44.2511 49 44.2358 49 44.2206C49 44.2053 49 44.1901 49 44.1749C49 44.1596 49 44.1444 49 44.1292C49 44.114 49 44.0988 49 44.0836C49 44.0685 49 44.0533 49 44.0381C49 44.023 49 44.0078 49 43.9927C49 43.9775 49 43.9624 49 43.9473C49 43.9321 49 43.917 49 43.9019C49 43.8868 49 43.8717 49 43.8566C49 43.8416 49 43.8265 49 43.8114C49 43.7963 49 43.7813 49 43.7662C49 43.7512 49 43.7362 49 43.7211C49 43.7061 49 43.6911 49 43.6761C49 43.6611 49 43.6461 49 43.6311C49 43.6161 49 43.6011 49 43.5862C49 43.5712 49 43.5562 49 43.5413C49 43.5263 49 43.5114 49 43.4965C49 43.4815 49 43.4666 49 43.4517C49 43.4368 49 43.4219 49 43.407C49 43.3921 49 43.3772 49 43.3623C49 43.3475 49 43.3326 49 43.3177C49 43.3029 49 43.288 49 43.2732C49 43.2583 49 43.2435 49 43.2287C49 43.2139 49 43.1991 49 43.1842C49 43.1694 49 43.1547 49 43.1399C49 43.1251 49 43.1103 49 43.0955C49 43.0808 49 43.066 49 43.0513C49 43.0365 49 43.0218 49 43.007C49 42.9923 49 42.9776 49 42.9629C49 42.9481 49 42.9334 49 42.9187C49 42.904 49 42.8893 49 42.8747C49 42.86 49 42.8453 49 42.8306C49 42.816 49 42.8013 49 42.7867C49 42.772 49 42.7574 49 42.7427C49 42.7281 49 42.7135 49 42.6989C49 42.6843 49 42.6697 49 42.6551C49 42.6405 49 42.6259 49 42.6113C49 42.5967 49 42.5821 49 42.5676C49 42.553 49 42.5384 49 42.5239C49 42.5093 49 42.4948 49 42.4803C49 42.4657 49 42.4512 49 42.4367C49 42.4222 49 42.4077 49 42.3932C49 42.3787 49 42.3642 49 42.3497C49 42.3352 49 42.3207 49 42.3062C49 42.2918 49 42.2773 49 42.2629C49 42.2484 49 42.234 49 42.2195C49 42.2051 49 42.1906 49 42.1762C49 42.1618 49 42.1474 49 42.133C49 42.1186 49 42.1042 49 42.0898C49 42.0754 49 42.061 49 42.0466C49 42.0322 49 42.0179 49 42.0035C49 41.9891 49 41.9748 49 41.9604C49 41.9461 49 41.9317 49 41.9174C49 41.9031 49 41.8887 49 41.8744C49 41.8601 49 41.8458 49 41.8315C49 41.8172 49 41.8029 49 41.7886C49 41.7743 49 41.76 49 41.7457C49 41.7314 49 41.7172 49 41.7029C49 41.6886 49 41.6744 49 41.6601C49 41.6459 49 41.6316 49 41.6174C49 41.6032 49 41.5889 49 41.5747C49 41.5605 49 41.5463 49 41.5321C49 41.5179 49 41.5037 49 41.4895C49 41.4753 49 41.4611 49 41.4469C49 41.4327 49 41.4185 49 41.4044C49 41.3902 49 41.376 49 41.3619C49 41.3477 49 41.3336 49 41.3194C49 41.3053 49 41.2912 49 41.277C49 41.2629 49 41.2488 49 41.2347C49 41.2205 49 41.2064 49 41.1923C49 41.1782 49 41.1641 49 41.15C49 41.1359 49 41.1218 49 41.1078C49 41.0937 49 41.0796 49 41.0655C49 41.0515 49 41.0374 49 41.0234C49 41.0093 49 40.9953 49 40.9812C49 40.9672 49 40.9531 49 40.9391C49 40.9251 49 40.911 49 40.897C49 40.883 49 40.869 49 40.855C49 40.841 49 40.827 49 40.813C49 40.799 49 40.785 49 40.771C49 40.757 49 40.7431 49 40.7291C49 40.7151 49 40.7011 49 40.6872C49 40.6732 49 40.6593 49 40.6453C49 40.6314 49 40.6174 49 40.6035C49 40.5895 49 40.5756 49 40.5617C49 40.5477 49 40.5338 49 40.5199C49 40.506 49 40.4921 49 40.4782C49 40.4643 49 40.4504 49 40.4365C49 40.4226 49 40.4087 49 40.3948C49 40.3809 49 40.367 49 40.3531C49 40.3393 49 40.3254 49 40.3115C49 40.2977 49 40.2838 49 40.2699C49 40.2561 49 40.2422 49 40.2284C49 40.2145 49 40.2007 49 40.1869C49 40.173 49 40.1592 49 40.1454C49 40.1316 49 40.1177 49 40.1039C49 40.0901 49 40.0763 49 40.0625C49 40.0487 49 40.0349 49 40.0211C49 40.0073 49 39.9935 49 39.9797C49 39.9659 49 39.9521 49 39.9384C49 39.9246 49 39.9108 49 39.897C49 39.8833 49 39.8695 49 39.8557C49 39.842 49 39.8282 49 39.8145C49 39.8007 49 39.787 49 39.7732C49 39.7595 49 39.7457 49 39.732C49 39.7183 49 39.7046 49 39.6908C49 39.6771 49 39.6634 49 39.6497C49 39.6359 49 39.6222 49 39.6085C49 39.5948 49 39.5811 49 39.5674C49 39.5537 49 39.54 49 39.5263C49 39.5126 49 39.4989 49 39.4853C49 39.4716 49 39.4579 49 39.4442C49 39.4305 49 39.4169 49 39.4032C49 39.3895 49 39.3759 49 39.3622C49 39.3485 49 39.3349 49 39.3212C49 39.3076 49 39.2939 49 39.2803C49 39.2666 49 39.253 49 39.2394C49 39.2257 49 39.2121 49 39.1984C49 39.1848 49 39.1712 49 39.1576C49 39.1439 49 39.1303 49 39.1167C49 39.1031 49 39.0895 49 39.0759C49 39.0622 49 39.0486 49 39.035C49 39.0214 49 39.0078 49 38.9942C49 38.9806 49 38.967 49 38.9534C49 38.9399 49 38.9263 49 38.9127C49 38.8991 49 38.8855 49 38.8719C49 38.8584 49 38.8448 49 38.8312C49 38.8176 49 38.8041 49 38.7905C49 38.7769 49 38.7634 49 38.7498C49 38.7363 49 38.7227 49 38.7091C49 38.6956 49 38.682 49 38.6685C49 38.6549 49 38.6414 49 38.6278C49 38.6143 49 38.6008 49 38.5872C49 38.5737 49 38.5602 49 38.5466C49 38.5331 49 38.5196 49 38.506C49 38.4925 49 38.479 49 38.4655C49 38.4519 49 38.4384 49 38.4249C49 38.4114 49 38.3979 49 38.3844C49 38.3708 49 38.3573 49 38.3438C49 38.3303 49 38.3168 49 38.3033C49 38.2898 49 38.2763 49 38.2628C49 38.2493 49 38.2358 49 38.2223C49 38.2088 49 38.1953 49 38.1818C49 38.1684 49 38.1549 49 38.1414C49 38.1279 49 38.1144 49 38.1009C49 38.0875 49 38.074 49 38.0605C49 38.047 49 38.0335 49 38.0201C49 38.0066 49 37.9931 49 37.9797C49 37.9662 49 37.9527 49 37.9393C49 37.9258 49 37.9123 49 37.8989C49 37.8854 49 37.8719 49 37.8585C49 37.845 49 37.8316 49 37.8181C49 37.8047 49 37.7912 49 37.7777C49 37.7643 49 37.7508 49 37.7374C49 37.7239 49 37.7105 49 37.697C49 37.6836 49 37.6702 49 37.6567C49 37.6433 49 37.6298 49 37.6164C49 37.6029 49 37.5895 49 37.5761C49 37.5626 49 37.5492 49 37.5358C49 37.5223 49 37.5089 49 37.4955C49 37.482 49 37.4686 49 37.4552C49 37.4417 49 37.4283 49 37.4149C49 37.4014 49 37.388 49 37.3746C49 37.3612 49 37.3477 49 37.3343C49 37.3209 49 37.3075 49 37.294C49 37.2806 49 37.2672 49 37.2538C49 37.2403 49 37.2269 49 37.2135C49 37.2001 49 37.1867 49 37.1733C49 37.1598 49 37.1464 49 37.133C49 37.1196 49 37.1062 49 37.0928C49 37.0793 49 37.0659 49 37.0525C49 37.0391 49 37.0257 49 37.0123C49 36.9989 49 36.9854 49 36.972C49 36.9586 49 36.9452 49 36.9318C49 36.9184 49 36.905 49 36.8916C49 36.8781 49 36.8647 49 36.8513C49 36.8379 49 36.8245 49 36.8111C49 36.7977 49 36.7843 49 36.7709C49 36.7575 49 36.744 49 36.7306C49 36.7172 49 36.7038 49 36.6904C49 36.677 49 36.6636 49 36.6502C49 36.6368 49 36.6234 49 36.6099C49 36.5965 49 36.5831 49 36.5697C49 36.5563 49 36.5429 49 36.5295C49 36.5161 49 36.5027 49 36.4893C49 36.4759 49 36.4624 49 36.449C49 36.4356 49 36.4222 49 36.4088C49 36.3954 49 36.382 49 36.3686C49 36.3551 49 36.3417 49 36.3283C49 36.3149 49 36.3015 49 36.2881C49 36.2747 49 36.2612 49 36.2478C49 36.2344 49 36.221 49 36.2076C49 36.1942 49 36.1807 49 36.1673C49 36.1539 49 36.1405 49 36.1271C49 36.1137 49 36.1002 49 36.0868C49 36.0734 49 36.06 49 36.0465C49 36.0331 49 36.0197 49 36.0063C49 35.9929 49 35.9794 49 35.966C49 35.9526 49 35.9391 49 35.9257C49 35.9123 49 35.8989 49 35.8854C49 35.872 49 35.8586 49 35.8451C49 35.8317 49 35.8183 49 35.8048C49 35.7914 49 35.778 49 35.7645C49 35.7511 49 35.7376 49 35.7242C49 35.7108 49 35.6973 49 35.6839C49 35.6704 49 35.657 49 35.6435C49 35.6301 49 35.6166 49 35.6032C49 35.5897 49 35.5763 49 35.5628C49 35.5494 49 35.5359 49 35.5225C49 35.509 49 35.4956 49 35.4821C49 35.4686 49 35.4552 49 35.4417C49 35.4283 49 35.4148 49 35.4013C49 35.3879 49 35.3744 49 35.3609C49 35.3475 49 35.334 49 35.3205C49 35.307 49 35.2936 49 35.2801C49 35.2666 49 35.2531 49 35.2397C49 35.2262 49 35.2127 49 35.1992C49 35.1857 49 35.1722 49 35.1587C49 35.1453 49 35.1318 49 35.1183C49 35.1048 49 35.0913 49 35.0778C49 35.0643 49 35.0508 49 35.0373C49 35.0238 49 35.0103 49 34.9968C49 34.9833 49 34.9697 49 34.9562C49 34.9427 49 34.9292 49 34.9157C49 34.9022 49 34.8887 49 34.8751C49 34.8616 49 34.8481 49 34.8346C49 34.821 49 34.8075 49 34.794C49 34.7804 49 34.7669 49 34.7534C49 34.7398 49 34.7263 49 34.7127C49 34.6992 49 34.6857 49 34.6721C49 34.6586 49 34.645 49 34.6315C49 34.6179 49 34.6043 49 34.5908C49 34.5772 49 34.5637 49 34.5501C49 34.5365 49 34.523 49 34.5094C49 34.4958 49 34.4822 49 34.4687C49 34.4551 49 34.4415 49 34.4279C49 34.4143 49 34.4007 49 34.3872C49 34.3736 49 34.36 49 34.3464C49 34.3328 49 34.3192 49 34.3056C49 34.292 49 34.2784 49 34.2647C49 34.2511 49 34.2375 49 34.2239C49 34.2103 49 34.1967 49 34.183C49 34.1694 49 34.1558 49 34.1422C49 34.1285 49 34.1149 49 34.1012C49 34.0876 49 34.074 49 34.0603C49 34.0467 49 34.033 49 34.0194C49 34.0057 49 33.9921 49 33.9784C49 33.9647 49 33.9511 49 33.9374C49 33.9237 49 33.9101 49 33.8964C49 33.8827 49 33.869 49 33.8553C49 33.8417 49 33.828 49 33.8143C49 33.8006 49 33.7869 49 33.7732C49 33.7595 49 33.7458 49 33.7321C49 33.7184 49 33.7047 49 33.6909C49 33.6772 49 33.6635 49 33.6498C49 33.6361 49 33.6223 49 33.6086C49 33.5949 49 33.5811 49 33.5674C49 33.5536 49 33.5399 49 33.5261C49 33.5124 49 33.4986 49 33.4849C49 33.4711 49 33.4573 49 33.4436C49 33.4298 49 33.416 49 33.4023C49 33.3885 49 33.3747 49 33.3609C49 33.3471 49 33.3333 49 33.3195C49 33.3057 49 33.2919 49 33.2781C49 33.2643 49 33.2505 49 33.2367C49 33.2229 49 33.2091 49 33.1952C49 33.1814 49 33.1676 49 33.1537C49 33.1399 49 33.1261 49 33.1122C49 33.0984 49 33.0845 49 33.0707C49 33.0568 49 33.043 49 33.0291C49 33.0152 49 33.0014 49 32.9875C49 32.9736 49 32.9597 49 32.9458C49 32.932 49 32.9181 49 32.9042C49 32.8903 49 32.8764 49 32.8625C49 32.8486 49 32.8346 49 32.8207C49 32.8068 49 32.7929 49 32.779C49 32.765 49 32.7511 49 32.7372C49 32.7232 49 32.7093 49 32.6953C49 32.6814 49 32.6674 49 32.6534C49 32.6395 49 32.6255 49 32.6115C49 32.5976 49 32.5836 49 32.5696C49 32.5556 49 32.5416 49 32.5276C49 32.5136 49 32.4996 49 32.4856C49 32.4716 49 32.4576 49 32.4436C49 32.4296 49 32.4156 49 32.4015C49 32.3875 49 32.3735 49 32.3594C49 32.3454 49 32.3313 49 32.3173C49 32.3032 49 32.2891 49 32.2751C49 32.261 49 32.2469 49 32.2329C49 32.2188 49 32.2047 49 32.1906C49 32.1765 49 32.1624 49 32.1483C49 32.1342 49 32.1201 49 32.106C49 32.0919 49 32.0777 49 32.0636C49 32.0495 49 32.0353 49 32.0212C49 32.0071 49 31.9929 49 31.9788C49 31.9646 49 31.9504 49 31.9363C49 31.9221 49 31.9079 49 31.8937C49 31.8796 49 31.8654 49 31.8512C49 31.837 49 31.8228 49 31.8086C49 31.7944 49 31.7801 49 31.7659C49 31.7517 49 31.7375 49 31.7232C49 31.709 49 31.6948 49 31.6805C49 31.6663 49 31.652 49 31.6377C49 31.6235 49 31.6092 49 31.5949C49 31.5806 49 31.5664 49 31.5521C49 31.5378 49 31.5235 49 31.5092C49 31.4949 49 31.4806 49 31.4662C49 31.4519 49 31.4376 49 31.4233C49 31.4089 49 31.3946 49 31.3802C49 31.3659 49 31.3515 49 31.3372C49 31.3228 49 31.3084 49 31.294C49 31.2797 49 31.2653 49 31.2509C49 31.2365 49 31.2221 49 31.2077C49 31.1933 49 31.1789 49 31.1644C49 31.15 49 31.1356 49 31.1211C49 31.1067 49 31.0923 49 31.0778C49 31.0633 49 31.0489 49 31.0344C49 31.0199 49 31.0055 49 30.991C49 30.9765 49 30.962 49 30.9475C49 30.933 49 30.9185 49 30.904C49 30.8895 49 30.8749 49 30.8604C49 30.8459 49 30.8313 49 30.8168C49 30.8022 49 30.7877 49 30.7731C49 30.7585 49 30.744 49 30.7294C49 30.7148 49 30.7002 49 30.6856C49 30.671 49 30.6564 49 30.6418C49 30.6272 49 30.6126 49 30.5979C49 30.5833 49 30.5687 49 30.554C49 30.5394 49 30.5247 49 30.51C49 30.4954 49 30.4807 49 30.466C49 30.4513 49 30.4366 49 30.4219C49 30.4072 49 30.3925 49 30.3778C49 30.3631 49 30.3484 49 30.3337C49 30.3189 49 30.3042 49 30.2894C49 30.2747 49 30.2599 49 30.2451C49 30.2304 49 30.2156 49 30.2008C49 30.186 49 30.1712 49 30.1564C49 30.1416 49 30.1268 49 30.112C49 30.0972 49 30.0823 49 30.0675C49 30.0527 49 30.0378 49 30.023C49 30.0081 49 29.9932 49 29.9784C49 29.9635 49 29.9486 49 29.9337C49 29.9188 49 29.9039 49 29.889C49 29.8741 49 29.8592 49 29.8442C49 29.8293 49 29.8144 49 29.7994C49 29.7845 49 29.7695 49 29.7545C49 29.7396 49 29.7246 49 29.7096C49 29.6946 49 29.6796 49 29.6646C49 29.6496 49 29.6346 49 29.6196C49 29.6045 49 29.5895 49 29.5745C49 29.5594 49 29.5444 49 29.5293C49 29.5142 49 29.4991 49 29.4841C49 29.469 49 29.4539 49 29.4388C49 29.4237 49 29.4086 49 29.3934C49 29.3783 49 29.3632 49 29.348C49 29.3329 49 29.3178 49 29.3026C49 29.2874 49 29.2723 49 29.2571C49 29.2419 49 29.2267 49 29.2115C49 29.1963 49 29.1811 49 29.1659C49 29.1506 49 29.1354 49 29.1202C49 29.1049 49 29.0897 49 29.0744C49 29.0591 49 29.0439 49 29.0286C49 29.0133 49 28.998 49 28.9827C49 28.9674 49 28.9521 49 28.9367C49 28.9214 49 28.9061 49 28.8907C49 28.8754 49 28.86 49 28.8447C49 28.8293 49 28.8139 49 28.7985C49 28.7831 49 28.7677 49 28.7523C49 28.7369 49 28.7215 49 28.7061C49 28.6906 49 28.6752 49 28.6597C49 28.6443 49 28.6288 49 28.6133C49 28.5979 49 28.5824 49 28.5669C49 28.5514 49 28.5359 49 28.5203C49 28.5048 49 28.4893 49 28.4738C49 28.4582 49 28.4427 49 28.4271C49 28.4115 49 28.396 49 28.3804C49 28.3648 49 28.3492 49 28.3336C49 28.318 49 28.3024 49 28.2867C49 28.2711 49 28.2555 49 28.2398C49 28.2242 49 28.2085 49 28.1928C49 28.1771 49 28.1615 49 28.1458C49 28.1301 49 28.1144 49 28.0986C49 28.0829 49 28.0672 49 28.0514C49 28.0357 49 28.0199 49 28.0042C49 27.9884 49 27.9726 49 27.9568C49 27.941 49 27.9252 49 27.9094C49 27.8936 49 27.8778 49 27.862C49 27.8461 49 27.8303 49 27.8144C49 27.7985 49 27.7827 49 27.7668C49 27.7509 49 27.735 49 27.7191C49 27.7032 49 27.6873 49 27.6713C49 27.6554 49 27.6395 49 27.6235C49 27.6076 49 27.5916 49 27.5756C49 27.5596 49 27.5436 49 27.5276C49 27.5116 49 27.4956 49 27.4796C49 27.4636 49 27.4475 49 27.4315C49 27.4154 49 27.3993 49 27.3833C49 27.3672 49 27.3511 49 27.335C49 27.3189 49 27.3028 49 27.2867C49 27.2705 49 27.2544 49 27.2382C49 27.2221 49 27.2059 49 27.1897C49 27.1736 49 27.1574 49 27.1412C49 27.125 49 27.1088 49 27.0925C49 27.0763 49 27.0601 49 27.0438C49 27.0275 49 27.0113 49 26.995C49 26.9787 49 26.9624 49 26.9461C49 26.9298 49 26.9135 49 26.8972C49 26.8808 49 26.8645 49 26.8482C49 26.8318 49 26.8154 49 26.799C49 26.7827 49 26.7663 49 26.7499C49 26.7335 49 26.717 49 26.7006C49 26.6842 49 26.6677 49 26.6513C49 26.6348 49 26.6183 49 26.6018C49 26.5853 49 26.5688 49 26.5523C49 26.5358 49 26.5193 49 26.5028C49 26.4862 49 26.4697 49 26.4531C49 26.4365 49 26.4199 49 26.4034C49 26.3868 49 26.3702 49 26.3535C49 26.3369 49 26.3203 49 26.3036C49 26.287 49 26.2703 49 26.2536C49 26.237 49 26.2203 49 26.2036C49 26.1869 49 26.1702 49 26.1534C49 26.1367 49 26.12 49 26.1032C49 26.0864 49 26.0697 49 26.0529C49 26.0361 49 26.0193 49 26.0025C49 25.9857 49 25.9689 49 25.952C49 25.9352 49 25.9183 49 25.9015C49 25.8846 49 25.8677 49 25.8508C49 25.8339 49 25.817 49 25.8001C49 25.7831 49 25.7662 49 25.7493C49 25.7323 49 25.7153 49 25.6984C49 25.6814 49 25.6644 49 25.6474C49 25.6304 49 25.6133 49 25.5963C49 25.5793 49 25.5622 49 25.5451C49 25.5281 49 25.511 49 25.4939C49 25.4768 49 25.4597 49 25.4426C49 25.4254 49 25.4083 49 25.3911C49 25.374 49 25.3568 49 25.3396H46C46 25.3568 46 25.374 46 25.3911C46 25.4083 46 25.4254 46 25.4426C46 25.4597 46 25.4768 46 25.4939C46 25.511 46 25.5281 46 25.5451C46 25.5622 46 25.5793 46 25.5963C46 25.6133 46 25.6304 46 25.6474C46 25.6644 46 25.6814 46 25.6984C46 25.7153 46 25.7323 46 25.7493C46 25.7662 46 25.7831 46 25.8001C46 25.817 46 25.8339 46 25.8508C46 25.8677 46 25.8846 46 25.9015C46 25.9183 46 25.9352 46 25.952C46 25.9689 46 25.9857 46 26.0025C46 26.0193 46 26.0361 46 26.0529C46 26.0697 46 26.0864 46 26.1032C46 26.12 46 26.1367 46 26.1534C46 26.1702 46 26.1869 46 26.2036C46 26.2203 46 26.237 46 26.2536C46 26.2703 46 26.287 46 26.3036C46 26.3203 46 26.3369 46 26.3535C46 26.3702 46 26.3868 46 26.4034C46 26.4199 46 26.4365 46 26.4531C46 26.4697 46 26.4862 46 26.5028C46 26.5193 46 26.5358 46 26.5523C46 26.5688 46 26.5853 46 26.6018C46 26.6183 46 26.6348 46 26.6513C46 26.6677 46 26.6842 46 26.7006C46 26.717 46 26.7335 46 26.7499C46 26.7663 46 26.7827 46 26.799C46 26.8154 46 26.8318 46 26.8482C46 26.8645 46 26.8808 46 26.8972C46 26.9135 46 26.9298 46 26.9461C46 26.9624 46 26.9787 46 26.995C46 27.0113 46 27.0275 46 27.0438C46 27.0601 46 27.0763 46 27.0925C46 27.1088 46 27.125 46 27.1412C46 27.1574 46 27.1736 46 27.1897C46 27.2059 46 27.2221 46 27.2382C46 27.2544 46 27.2705 46 27.2867C46 27.3028 46 27.3189 46 27.335C46 27.3511 46 27.3672 46 27.3833C46 27.3993 46 27.4154 46 27.4315C46 27.4475 46 27.4636 46 27.4796C46 27.4956 46 27.5116 46 27.5276C46 27.5436 46 27.5596 46 27.5756C46 27.5916 46 27.6076 46 27.6235C46 27.6395 46 27.6554 46 27.6713C46 27.6873 46 27.7032 46 27.7191C46 27.735 46 27.7509 46 27.7668C46 27.7827 46 27.7985 46 27.8144C46 27.8303 46 27.8461 46 27.862C46 27.8778 46 27.8936 46 27.9094C46 27.9252 46 27.941 46 27.9568C46 27.9726 46 27.9884 46 28.0042C46 28.0199 46 28.0357 46 28.0514C46 28.0672 46 28.0829 46 28.0986C46 28.1144 46 28.1301 46 28.1458C46 28.1615 46 28.1771 46 28.1928C46 28.2085 46 28.2242 46 28.2398C46 28.2555 46 28.2711 46 28.2867C46 28.3024 46 28.318 46 28.3336C46 28.3492 46 28.3648 46 28.3804C46 28.396 46 28.4115 46 28.4271C46 28.4427 46 28.4582 46 28.4738C46 28.4893 46 28.5048 46 28.5203C46 28.5359 46 28.5514 46 28.5669C46 28.5824 46 28.5979 46 28.6133C46 28.6288 46 28.6443 46 28.6597C46 28.6752 46 28.6906 46 28.7061C46 28.7215 46 28.7369 46 28.7523C46 28.7677 46 28.7831 46 28.7985C46 28.8139 46 28.8293 46 28.8447C46 28.86 46 28.8754 46 28.8907C46 28.9061 46 28.9214 46 28.9367C46 28.9521 46 28.9674 46 28.9827C46 28.998 46 29.0133 46 29.0286C46 29.0439 46 29.0591 46 29.0744C46 29.0897 46 29.1049 46 29.1202C46 29.1354 46 29.1506 46 29.1659C46 29.1811 46 29.1963 46 29.2115C46 29.2267 46 29.2419 46 29.2571C46 29.2723 46 29.2874 46 29.3026C46 29.3178 46 29.3329 46 29.348C46 29.3632 46 29.3783 46 29.3934C46 29.4086 46 29.4237 46 29.4388C46 29.4539 46 29.469 46 29.4841C46 29.4991 46 29.5142 46 29.5293C46 29.5444 46 29.5594 46 29.5745C46 29.5895 46 29.6045 46 29.6196C46 29.6346 46 29.6496 46 29.6646C46 29.6796 46 29.6946 46 29.7096C46 29.7246 46 29.7396 46 29.7545C46 29.7695 46 29.7845 46 29.7994C46 29.8144 46 29.8293 46 29.8442C46 29.8592 46 29.8741 46 29.889C46 29.9039 46 29.9188 46 29.9337C46 29.9486 46 29.9635 46 29.9784C46 29.9932 46 30.0081 46 30.023C46 30.0378 46 30.0527 46 30.0675C46 30.0823 46 30.0972 46 30.112C46 30.1268 46 30.1416 46 30.1564C46 30.1712 46 30.186 46 30.2008C46 30.2156 46 30.2304 46 30.2451C46 30.2599 46 30.2747 46 30.2894C46 30.3042 46 30.3189 46 30.3337C46 30.3484 46 30.3631 46 30.3778C46 30.3925 46 30.4072 46 30.4219C46 30.4366 46 30.4513 46 30.466C46 30.4807 46 30.4954 46 30.51C46 30.5247 46 30.5394 46 30.554C46 30.5687 46 30.5833 46 30.5979C46 30.6126 46 30.6272 46 30.6418C46 30.6564 46 30.671 46 30.6856C46 30.7002 46 30.7148 46 30.7294C46 30.744 46 30.7585 46 30.7731C46 30.7877 46 30.8022 46 30.8168C46 30.8313 46 30.8459 46 30.8604C46 30.8749 46 30.8895 46 30.904C46 30.9185 46 30.933 46 30.9475C46 30.962 46 30.9765 46 30.991C46 31.0055 46 31.0199 46 31.0344C46 31.0489 46 31.0633 46 31.0778C46 31.0923 46 31.1067 46 31.1211C46 31.1356 46 31.15 46 31.1644C46 31.1789 46 31.1933 46 31.2077C46 31.2221 46 31.2365 46 31.2509C46 31.2653 46 31.2797 46 31.294C46 31.3084 46 31.3228 46 31.3372C46 31.3515 46 31.3659 46 31.3802C46 31.3946 46 31.4089 46 31.4233C46 31.4376 46 31.4519 46 31.4662C46 31.4806 46 31.4949 46 31.5092C46 31.5235 46 31.5378 46 31.5521C46 31.5664 46 31.5806 46 31.5949C46 31.6092 46 31.6235 46 31.6377C46 31.652 46 31.6663 46 31.6805C46 31.6948 46 31.709 46 31.7232C46 31.7375 46 31.7517 46 31.7659C46 31.7801 46 31.7944 46 31.8086C46 31.8228 46 31.837 46 31.8512C46 31.8654 46 31.8796 46 31.8937C46 31.9079 46 31.9221 46 31.9363C46 31.9504 46 31.9646 46 31.9788C46 31.9929 46 32.0071 46 32.0212C46 32.0353 46 32.0495 46 32.0636C46 32.0777 46 32.0919 46 32.106C46 32.1201 46 32.1342 46 32.1483C46 32.1624 46 32.1765 46 32.1906C46 32.2047 46 32.2188 46 32.2329C46 32.2469 46 32.261 46 32.2751C46 32.2891 46 32.3032 46 32.3173C46 32.3313 46 32.3454 46 32.3594C46 32.3735 46 32.3875 46 32.4015C46 32.4156 46 32.4296 46 32.4436C46 32.4576 46 32.4716 46 32.4856C46 32.4996 46 32.5136 46 32.5276C46 32.5416 46 32.5556 46 32.5696C46 32.5836 46 32.5976 46 32.6115C46 32.6255 46 32.6395 46 32.6534C46 32.6674 46 32.6814 46 32.6953C46 32.7093 46 32.7232 46 32.7372C46 32.7511 46 32.765 46 32.779C46 32.7929 46 32.8068 46 32.8207C46 32.8346 46 32.8486 46 32.8625C46 32.8764 46 32.8903 46 32.9042C46 32.9181 46 32.932 46 32.9458C46 32.9597 46 32.9736 46 32.9875C46 33.0014 46 33.0152 46 33.0291C46 33.043 46 33.0568 46 33.0707C46 33.0845 46 33.0984 46 33.1122C46 33.1261 46 33.1399 46 33.1537C46 33.1676 46 33.1814 46 33.1952C46 33.2091 46 33.2229 46 33.2367C46 33.2505 46 33.2643 46 33.2781C46 33.2919 46 33.3057 46 33.3195C46 33.3333 46 33.3471 46 33.3609C46 33.3747 46 33.3885 46 33.4023C46 33.416 46 33.4298 46 33.4436C46 33.4573 46 33.4711 46 33.4849C46 33.4986 46 33.5124 46 33.5261C46 33.5399 46 33.5536 46 33.5674C46 33.5811 46 33.5949 46 33.6086C46 33.6223 46 33.6361 46 33.6498C46 33.6635 46 33.6772 46 33.6909C46 33.7047 46 33.7184 46 33.7321C46 33.7458 46 33.7595 46 33.7732C46 33.7869 46 33.8006 46 33.8143C46 33.828 46 33.8417 46 33.8553C46 33.869 46 33.8827 46 33.8964C46 33.9101 46 33.9237 46 33.9374C46 33.9511 46 33.9647 46 33.9784C46 33.9921 46 34.0057 46 34.0194C46 34.033 46 34.0467 46 34.0603C46 34.074 46 34.0876 46 34.1012C46 34.1149 46 34.1285 46 34.1422C46 34.1558 46 34.1694 46 34.183C46 34.1967 46 34.2103 46 34.2239C46 34.2375 46 34.2511 46 34.2647C46 34.2784 46 34.292 46 34.3056C46 34.3192 46 34.3328 46 34.3464C46 34.36 46 34.3736 46 34.3872C46 34.4007 46 34.4143 46 34.4279C46 34.4415 46 34.4551 46 34.4687C46 34.4822 46 34.4958 46 34.5094C46 34.523 46 34.5365 46 34.5501C46 34.5637 46 34.5772 46 34.5908C46 34.6043 46 34.6179 46 34.6315C46 34.645 46 34.6586 46 34.6721C46 34.6857 46 34.6992 46 34.7127C46 34.7263 46 34.7398 46 34.7534C46 34.7669 46 34.7804 46 34.794C46 34.8075 46 34.821 46 34.8346C46 34.8481 46 34.8616 46 34.8751C46 34.8887 46 34.9022 46 34.9157C46 34.9292 46 34.9427 46 34.9562C46 34.9697 46 34.9833 46 34.9968C46 35.0103 46 35.0238 46 35.0373C46 35.0508 46 35.0643 46 35.0778C46 35.0913 46 35.1048 46 35.1183C46 35.1318 46 35.1453 46 35.1587C46 35.1722 46 35.1857 46 35.1992C46 35.2127 46 35.2262 46 35.2397C46 35.2531 46 35.2666 46 35.2801C46 35.2936 46 35.307 46 35.3205C46 35.334 46 35.3475 46 35.3609C46 35.3744 46 35.3879 46 35.4013C46 35.4148 46 35.4283 46 35.4417C46 35.4552 46 35.4686 46 35.4821C46 35.4956 46 35.509 46 35.5225C46 35.5359 46 35.5494 46 35.5628C46 35.5763 46 35.5897 46 35.6032C46 35.6166 46 35.6301 46 35.6435C46 35.657 46 35.6704 46 35.6839C46 35.6973 46 35.7108 46 35.7242C46 35.7376 46 35.7511 46 35.7645C46 35.778 46 35.7914 46 35.8048C46 35.8183 46 35.8317 46 35.8451C46 35.8586 46 35.872 46 35.8854C46 35.8989 46 35.9123 46 35.9257C46 35.9391 46 35.9526 46 35.966C46 35.9794 46 35.9929 46 36.0063C46 36.0197 46 36.0331 46 36.0465C46 36.06 46 36.0734 46 36.0868C46 36.1002 46 36.1137 46 36.1271C46 36.1405 46 36.1539 46 36.1673C46 36.1807 46 36.1942 46 36.2076C46 36.221 46 36.2344 46 36.2478C46 36.2612 46 36.2747 46 36.2881C46 36.3015 46 36.3149 46 36.3283C46 36.3417 46 36.3551 46 36.3686C46 36.382 46 36.3954 46 36.4088C46 36.4222 46 36.4356 46 36.449C46 36.4624 46 36.4759 46 36.4893C46 36.5027 46 36.5161 46 36.5295C46 36.5429 46 36.5563 46 36.5697C46 36.5831 46 36.5965 46 36.6099C46 36.6234 46 36.6368 46 36.6502C46 36.6636 46 36.677 46 36.6904C46 36.7038 46 36.7172 46 36.7306C46 36.744 46 36.7575 46 36.7709C46 36.7843 46 36.7977 46 36.8111C46 36.8245 46 36.8379 46 36.8513C46 36.8647 46 36.8781 46 36.8916C46 36.905 46 36.9184 46 36.9318C46 36.9452 46 36.9586 46 36.972C46 36.9854 46 36.9989 46 37.0123C46 37.0257 46 37.0391 46 37.0525C46 37.0659 46 37.0793 46 37.0928C46 37.1062 46 37.1196 46 37.133C46 37.1464 46 37.1598 46 37.1733C46 37.1867 46 37.2001 46 37.2135C46 37.2269 46 37.2403 46 37.2538C46 37.2672 46 37.2806 46 37.294C46 37.3075 46 37.3209 46 37.3343C46 37.3477 46 37.3612 46 37.3746C46 37.388 46 37.4014 46 37.4149C46 37.4283 46 37.4417 46 37.4552C46 37.4686 46 37.482 46 37.4955C46 37.5089 46 37.5223 46 37.5358C46 37.5492 46 37.5626 46 37.5761C46 37.5895 46 37.6029 46 37.6164C46 37.6298 46 37.6433 46 37.6567C46 37.6702 46 37.6836 46 37.697C46 37.7105 46 37.7239 46 37.7374C46 37.7508 46 37.7643 46 37.7777C46 37.7912 46 37.8047 46 37.8181C46 37.8316 46 37.845 46 37.8585C46 37.8719 46 37.8854 46 37.8989C46 37.9123 46 37.9258 46 37.9393C46 37.9527 46 37.9662 46 37.9797C46 37.9931 46 38.0066 46 38.0201C46 38.0335 46 38.047 46 38.0605C46 38.074 46 38.0875 46 38.1009C46 38.1144 46 38.1279 46 38.1414C46 38.1549 46 38.1684 46 38.1818C46 38.1953 46 38.2088 46 38.2223C46 38.2358 46 38.2493 46 38.2628C46 38.2763 46 38.2898 46 38.3033C46 38.3168 46 38.3303 46 38.3438C46 38.3573 46 38.3708 46 38.3844C46 38.3979 46 38.4114 46 38.4249C46 38.4384 46 38.4519 46 38.4655C46 38.479 46 38.4925 46 38.506C46 38.5196 46 38.5331 46 38.5466C46 38.5602 46 38.5737 46 38.5872C46 38.6008 46 38.6143 46 38.6278C46 38.6414 46 38.6549 46 38.6685C46 38.682 46 38.6956 46 38.7091C46 38.7227 46 38.7363 46 38.7498C46 38.7634 46 38.7769 46 38.7905C46 38.8041 46 38.8176 46 38.8312C46 38.8448 46 38.8584 46 38.8719C46 38.8855 46 38.8991 46 38.9127C46 38.9263 46 38.9399 46 38.9534C46 38.967 46 38.9806 46 38.9942C46 39.0078 46 39.0214 46 39.035C46 39.0486 46 39.0622 46 39.0759C46 39.0895 46 39.1031 46 39.1167C46 39.1303 46 39.1439 46 39.1576C46 39.1712 46 39.1848 46 39.1984C46 39.2121 46 39.2257 46 39.2394C46 39.253 46 39.2666 46 39.2803C46 39.2939 46 39.3076 46 39.3212C46 39.3349 46 39.3485 46 39.3622C46 39.3759 46 39.3895 46 39.4032C46 39.4169 46 39.4305 46 39.4442C46 39.4579 46 39.4716 46 39.4853C46 39.4989 46 39.5126 46 39.5263C46 39.54 46 39.5537 46 39.5674C46 39.5811 46 39.5948 46 39.6085C46 39.6222 46 39.6359 46 39.6497C46 39.6634 46 39.6771 46 39.6908C46 39.7046 46 39.7183 46 39.732C46 39.7457 46 39.7595 46 39.7732C46 39.787 46 39.8007 46 39.8145C46 39.8282 46 39.842 46 39.8557C46 39.8695 46 39.8833 46 39.897C46 39.9108 46 39.9246 46 39.9384C46 39.9521 46 39.9659 46 39.9797C46 39.9935 46 40.0073 46 40.0211C46 40.0349 46 40.0487 46 40.0625C46 40.0763 46 40.0901 46 40.1039C46 40.1177 46 40.1316 46 40.1454C46 40.1592 46 40.173 46 40.1869C46 40.2007 46 40.2145 46 40.2284C46 40.2422 46 40.2561 46 40.2699C46 40.2838 46 40.2977 46 40.3115C46 40.3254 46 40.3393 46 40.3531C46 40.367 46 40.3809 46 40.3948C46 40.4087 46 40.4226 46 40.4365C46 40.4504 46 40.4643 46 40.4782C46 40.4921 46 40.506 46 40.5199C46 40.5338 46 40.5477 46 40.5617C46 40.5756 46 40.5895 46 40.6035C46 40.6174 46 40.6314 46 40.6453C46 40.6593 46 40.6732 46 40.6872C46 40.7011 46 40.7151 46 40.7291C46 40.7431 46 40.757 46 40.771C46 40.785 46 40.799 46 40.813C46 40.827 46 40.841 46 40.855C46 40.869 46 40.883 46 40.897C46 40.911 46 40.9251 46 40.9391C46 40.9531 46 40.9672 46 40.9812C46 40.9953 46 41.0093 46 41.0234C46 41.0374 46 41.0515 46 41.0655C46 41.0796 46 41.0937 46 41.1078C46 41.1218 46 41.1359 46 41.15C46 41.1641 46 41.1782 46 41.1923C46 41.2064 46 41.2205 46 41.2347C46 41.2488 46 41.2629 46 41.277C46 41.2912 46 41.3053 46 41.3194C46 41.3336 46 41.3477 46 41.3619C46 41.376 46 41.3902 46 41.4044C46 41.4185 46 41.4327 46 41.4469C46 41.4611 46 41.4753 46 41.4895C46 41.5037 46 41.5179 46 41.5321C46 41.5463 46 41.5605 46 41.5747C46 41.5889 46 41.6032 46 41.6174C46 41.6316 46 41.6459 46 41.6601C46 41.6744 46 41.6886 46 41.7029C46 41.7172 46 41.7314 46 41.7457C46 41.76 46 41.7743 46 41.7886C46 41.8029 46 41.8172 46 41.8315C46 41.8458 46 41.8601 46 41.8744C46 41.8887 46 41.9031 46 41.9174C46 41.9317 46 41.9461 46 41.9604C46 41.9748 46 41.9891 46 42.0035C46 42.0179 46 42.0322 46 42.0466C46 42.061 46 42.0754 46 42.0898C46 42.1042 46 42.1186 46 42.133C46 42.1474 46 42.1618 46 42.1762C46 42.1906 46 42.2051 46 42.2195C46 42.234 46 42.2484 46 42.2629C46 42.2773 46 42.2918 46 42.3062C46 42.3207 46 42.3352 46 42.3497C46 42.3642 46 42.3787 46 42.3932C46 42.4077 46 42.4222 46 42.4367C46 42.4512 46 42.4657 46 42.4803C46 42.4948 46 42.5093 46 42.5239C46 42.5384 46 42.553 46 42.5676C46 42.5821 46 42.5967 46 42.6113C46 42.6259 46 42.6405 46 42.6551C46 42.6697 46 42.6843 46 42.6989C46 42.7135 46 42.7281 46 42.7427C46 42.7574 46 42.772 46 42.7867C46 42.8013 46 42.816 46 42.8306C46 42.8453 46 42.86 46 42.8747C46 42.8893 46 42.904 46 42.9187C46 42.9334 46 42.9481 46 42.9629C46 42.9776 46 42.9923 46 43.007C46 43.0218 46 43.0365 46 43.0513C46 43.066 46 43.0808 46 43.0955C46 43.1103 46 43.1251 46 43.1399C46 43.1547 46 43.1694 46 43.1842C46 43.1991 46 43.2139 46 43.2287C46 43.2435 46 43.2583 46 43.2732C46 43.288 46 43.3029 46 43.3177C46 43.3326 46 43.3475 46 43.3623C46 43.3772 46 43.3921 46 43.407C46 43.4219 46 43.4368 46 43.4517C46 43.4666 46 43.4815 46 43.4965C46 43.5114 46 43.5263 46 43.5413C46 43.5562 46 43.5712 46 43.5862C46 43.6011 46 43.6161 46 43.6311C46 43.6461 46 43.6611 46 43.6761C46 43.6911 46 43.7061 46 43.7211C46 43.7362 46 43.7512 46 43.7662C46 43.7813 46 43.7963 46 43.8114C46 43.8265 46 43.8416 46 43.8566C46 43.8717 46 43.8868 46 43.9019C46 43.917 46 43.9321 46 43.9473C46 43.9624 46 43.9775 46 43.9927C46 44.0078 46 44.023 46 44.0381C46 44.0533 46 44.0685 46 44.0836C46 44.0988 46 44.114 46 44.1292C46 44.1444 46 44.1596 46 44.1749C46 44.1901 46 44.2053 46 44.2206C46 44.2358 46 44.2511 46 44.2663C46 44.2816 46 44.2969 46 44.3121C46 44.3274 46 44.3427 46 44.358C46 44.3733 46 44.3887 46 44.404C46 44.4193 46 44.4346 46 44.45C46 44.4653 46 44.4807 46 44.4961C46 44.5114 46 44.5268 46 44.5422C46 44.5576 46 44.573 46 44.5884C46 44.6038 46 44.6192 46 44.6347C46 44.6501 46 44.6656 46 44.681C46 44.6965 46 44.7119 46 44.7274C46 44.7429 46 44.7584 46 44.7739C46 44.7894 46 44.8049 46 44.8204C46 44.8359 46 44.8514 46 44.867C46 44.8825 46 44.8981 46 44.9136C46 44.9292 46 44.9448 46 44.9604C46 44.9759 46 44.9915 46 45.0071C46 45.0228 46 45.0384 46 45.054C46 45.0696 46 45.0853 46 45.1009C46 45.1166 46 45.1322 46 45.1479C46 45.1636 46 45.1793 46 45.195C46 45.2107 46 45.2264 46 45.2421C46 45.2578 46 45.2736 46 45.2893C46 45.3051 46 45.3208 46 45.3366C46 45.3523 46 45.3681 46 45.3839C46 45.3997 46 45.4155 46 45.4313C46 45.4471 46 45.463 46 45.4788C46 45.4946 46 45.5105 46 45.5263C46 45.5422 46 45.5581 46 45.574C46 45.5899 46 45.6057 46 45.6217C46 45.6376 46 45.6535 46 45.6694C46 45.6854 46 45.7013 46 45.7173C46 45.7332 46 45.7492 46 45.7652C46 45.7811 46 45.7971 46 45.8131C46 45.8291 46 45.8452 46 45.8612C46 45.8772 46 45.8933 46 45.9093C46 45.9254 46 45.9414 46 45.9575C46 45.9736 46 45.9897 46 46.0058C46 46.0219 46 46.038 46 46.0541C46 46.0703 46 46.0864 46 46.1025C46 46.1187 46 46.1349 46 46.151C46 46.1672 46 46.1834 46 46.1996C46 46.2158 46 46.232 46 46.2483C46 46.2645 46 46.2807 46 46.297C46 46.3132 46 46.3295 46 46.3458C46 46.3621 46 46.3784 46 46.3947C46 46.411 46 46.4273 46 46.4436C46 46.4599 46 46.4763 46 46.4926C46 46.509 46 46.5254 46 46.5418C46 46.5581 46 46.5745 46 46.5909C46 46.6073 46 46.6238 46 46.6402C46 46.6566 46 46.6731 46 46.6895C46 46.706 46 46.7225 46 46.739C46 46.7555 46 46.772 46 46.7885C46 46.805 46 46.8215 46 46.8381C46 46.8546 46 46.8711 46 46.8877C46 46.9043 46 46.9209 46 46.9375C46 46.954 46 46.9707 46 46.9873C46 47.0039 46 47.0205 46 47.0372C46 47.0538 46 47.0705 46 47.0872C46 47.1038 46 47.1205 46 47.1372C46 47.1539 46 47.1707 46 47.1874C46 47.2041 46 47.2209 46 47.2376C46 47.2544 46 47.2711 46 47.2879C46 47.3047 46 47.3215 46 47.3383C46 47.3551 46 47.372 46 47.3888C46 47.4057 46 47.4225 46 47.4394C46 47.4562 46 47.4731 46 47.49C46 47.5069 46 47.5238 46 47.5408C46 47.5577 46 47.5746 46 47.5916C46 47.6085 46 47.6255 46 47.6425C46 47.6595 46 47.6765 46 47.6935C46 47.7105 46 47.7275 46 47.7446C46 47.7616 46 47.7786 46 47.7957C46 47.8128 46 47.8299 46 47.847H49ZM48.6202 49.0119C48.8997 48.6349 49 48.2146 49 47.847H46C46 47.6767 46.0481 47.444 46.2101 47.2255L48.6202 49.0119ZM29.6035 35.2288C30.1713 35.5127 30.8401 35.5102 31.4057 35.222L30.044 32.5489C30.3268 32.4048 30.6612 32.4036 30.9451 32.5455L29.6035 35.2288ZM12 47.7773C12 48.3217 12.2213 48.8837 12.6904 49.2835L14.6365 47.0004C14.8899 47.2164 15 47.5163 15 47.7773H12ZM30.9181 9.45937C30.6494 9.5838 30.3393 9.58269 30.0714 9.45633L31.3513 6.74304C30.8155 6.49033 30.1953 6.4881 29.6578 6.73697L30.9181 9.45937ZM3.81245 18.7024C2.2916 19.4065 2.25929 21.5567 3.75827 22.3062L5.09991 19.6229C5.8494 19.9976 5.83325 21.0727 5.07282 21.4248L3.81245 18.7024Z" fill="#FBFBFF"/>
<path d="M17.5 61H27.2229C27.3953 61 27.5555 61.0888 27.6469 61.235L31.9233 68.0773C32.1498 68.4397 32.6971 68.3693 32.8246 67.9614L37.1754 54.0386C37.3029 53.6307 37.8502 53.5603 38.0767 53.9227L42.3531 60.765C42.4445 60.9112 42.6047 61 42.7771 61H50.6587C50.8646 61 51.0494 61.1261 51.1244 61.3178L54.9919 71.2015C55.1629 71.6384 55.7872 71.6205 55.9328 71.1745L63.0851 49.2707C63.2286 48.8312 63.8407 48.8052 64.0209 49.2311L68.8709 60.6948C68.9491 60.8798 69.1305 61 69.3314 61H76" stroke="#FFC100" stroke-width="2.5" stroke-linecap="round"/>
</svg>
