<svg width="80" height="80" viewBox="0 0 80 80" fill="none" xmlns="http://www.w3.org/2000/svg">
<path fill-rule="evenodd" clip-rule="evenodd" d="M57.0161 25.4636C56.6615 23.6909 55.2433 23.1 53.5888 22.8636V20.1454C53.5888 17.6636 51.5797 15.7727 49.2161 15.7727C48.2706 15.7727 47.4433 16.0091 46.7342 16.6C46.0252 15.1818 44.4888 14.1182 42.8342 14.1182C41.5342 14.1182 40.4706 14.7091 39.6433 15.5363C38.8161 14.7091 37.7524 14.1182 36.4524 14.1182C34.207 14.1182 32.3161 15.8909 32.0797 18.0182C31.9866 17.9916 31.895 17.965 31.8046 17.9387C31.0914 17.7316 30.4502 17.5454 29.7161 17.5454C27.2342 17.5454 25.3433 19.5545 25.3433 21.9182V25.4636L25.4615 27.9454C25.9342 29.8363 27.707 31.1364 29.7161 31.1364C30.8979 31.1364 31.9615 30.6636 32.7888 29.8363C33.6161 30.7818 34.7979 31.3727 36.0979 31.3727C37.3979 31.3727 38.4615 30.7818 39.2888 29.9545C40.1161 30.7818 41.1797 31.3727 42.4797 31.3727C43.4251 31.3727 44.2524 31.1364 44.9615 30.6636C44.4888 32.2 43.8979 34.2091 43.5433 35.5091L43.0706 37.7545C42.9524 38.7 42.9524 39.8818 43.4252 41.1818C43.6615 41.7727 44.3706 42.1273 44.9615 41.7727C45.5524 41.5364 45.907 40.8273 45.5524 40.2364C45.1979 39.4091 45.0797 38.2273 45.5524 36.9273C45.7935 36.0834 46.3727 34.1637 46.8982 32.4223C47.403 30.7492 47.8582 29.2407 47.9161 29.0091C48.7433 26.6454 50.6342 25.1091 52.7615 25.1091C53.707 25.1091 55.007 25.4636 54.5342 26.2909C52.6433 29.7182 52.0524 33.2636 51.5797 36.4545C51.107 39.6454 50.6342 42.3636 49.2161 44.3727C47.4433 46.9727 46.3797 49.8091 46.3797 52.5273V63.4H30.5433V52.2909C30.5433 49.3364 29.5979 46.3818 27.8251 44.1364C26.1706 42.0091 25.4615 39.8818 25.6979 37.7545L23.2161 38.1091C22.9797 40.7091 23.9251 43.4273 25.8161 45.9091C27.2342 47.6818 28.0615 50.0454 28.0615 52.5273V64.8182C28.0615 65.5273 28.5342 66 29.2433 66H47.5615C48.2706 66 48.7433 65.5273 48.7433 64.8182V52.6454C48.7433 50.4 49.5706 48.0364 51.107 45.7909C52.622 43.5767 53.2176 40.9027 53.6872 38.1091L53.707 37.9909H53.7106L54.1797 35.6273C54.6524 33.0273 55.1251 30.4273 56.5433 27.9454L57.0161 25.4636ZM51.107 20.2636C51.107 19.2 50.2797 18.2545 49.0979 18.2545C47.9161 18.2545 47.0888 19.0818 47.0888 20.2636V26.0545C48.0342 24.6363 49.4524 23.5727 51.107 23.2182V20.2636ZM44.607 18.4909C44.607 17.4273 43.7797 16.4818 42.5979 16.4818C41.5342 16.4818 40.5888 17.4273 40.5888 18.4909V27C40.5888 28.0636 41.5342 29.0091 42.5979 29.0091C43.6615 29.0091 44.607 28.1818 44.607 27V18.4909ZM36.2161 16.6C35.1524 16.6 34.207 17.5454 34.207 18.6091V27.1182C34.207 28.1818 35.1524 29.1273 36.2161 29.1273C37.2797 29.1273 38.2251 28.1818 38.2251 27.1182V18.6091C38.2251 17.5454 37.2797 16.6 36.2161 16.6ZM29.7161 19.9091C28.6524 19.9091 27.707 20.8545 27.707 21.9182V26.7636C27.707 27.8273 28.6524 28.7727 29.7161 28.7727C30.7797 28.7727 31.7251 27.9454 31.7251 26.7636V21.9182C31.7251 20.8545 30.8979 19.9091 29.7161 19.9091Z" fill="#182F43"/>
<path fill-rule="evenodd" clip-rule="evenodd" d="M25.3433 25.3455H21.5615V19.7909C21.5615 16.7182 18.9615 14.1182 15.8888 14.1182C12.6979 14.1182 10.2161 16.7182 10.2161 19.7909V20.5C9.38878 19.9091 8.44333 19.6727 7.37969 19.6727C4.54332 19.6727 2.17969 22.0364 2.17969 24.8727V38.4636C2.17969 41.3 4.54332 43.6636 7.37969 43.6636C8.44333 43.6636 9.38878 43.3091 10.2161 42.8364V43.6636C10.2161 46.7364 12.8161 49.3364 15.8888 49.3364C19.0797 49.3364 21.5615 46.7364 21.5615 43.6636V37.9909H23.2161L25.6979 37.6364H43.0706L43.5433 35.3909H21.5615V27.8273H25.4615L25.3433 25.3455ZM4.54332 38.4636C4.54332 40 5.84332 41.3 7.37969 41.3C8.91605 41.3 10.2161 40 10.2161 38.4636V24.8727C10.2161 23.3364 9.03423 22.0364 7.37969 22.0364C5.84332 22.0364 4.54332 23.3364 4.54332 24.8727V38.4636ZM15.8888 46.8546C17.6615 46.8546 19.1979 45.3182 19.1979 43.5455V19.6727C19.1979 17.9 17.7797 16.3636 15.8888 16.3636C14.1161 16.3636 12.5797 17.9 12.5797 19.6727V43.5455C12.5797 45.3182 14.1161 46.8546 15.8888 46.8546Z" fill="#F4B513"/>
<path fill-rule="evenodd" clip-rule="evenodd" d="M72.6161 19.6727C71.5524 19.6727 70.607 20.0273 69.7797 20.5V19.6727C69.7797 16.6 67.1797 14 64.107 14C60.9161 14 58.4342 16.6 58.4342 19.6727V25.3455H57.0161L56.5433 27.8273H58.4342V35.5091H54.1797L53.7106 37.8727H58.3161V43.5455C58.3161 46.6182 60.9161 49.2182 63.9888 49.2182C67.1797 49.2182 69.6615 46.6182 69.6615 43.5455V42.7182C70.4888 43.3091 71.4342 43.5455 72.4979 43.5455C75.3342 43.5455 77.6979 41.1818 77.6979 38.3455V24.8727C77.8161 21.9182 75.4524 19.6727 72.6161 19.6727ZM67.4161 43.5455C67.4161 45.3182 65.8797 46.8546 64.107 46.8546C62.3342 46.8546 60.7979 45.3182 60.7979 43.5455V19.6727C60.7979 17.9 62.3342 16.3636 64.107 16.3636C65.9979 16.3636 67.4161 17.9 67.4161 19.6727V43.5455ZM75.4524 38.4636C75.4524 40 74.1524 41.3 72.6161 41.3C71.0797 41.3 69.7797 40 69.7797 38.4636V24.8727C69.7797 23.3364 71.0797 22.0364 72.6161 22.0364C74.1524 22.0364 75.4524 23.3364 75.4524 24.8727V38.4636Z" fill="#F4B513"/>
<path d="M53.707 37.8727C53.7004 37.9121 53.6938 37.9515 53.6872 37.9909M53.707 37.8727L53.6872 37.9909M53.707 37.8727H53.7106M21.5615 27.8273H25.4615M21.5615 27.8273C21.5615 27.8273 21.5615 35.5091 21.5615 35.3909M21.5615 27.8273V35.3909M25.4615 27.8273V25.6999M25.4615 27.8273L25.3433 25.3455H21.5615V19.7909C21.5615 16.7182 18.9615 14.1182 15.8888 14.1182C12.6979 14.1182 10.2161 16.7182 10.2161 19.7909V20.5C9.38878 19.9091 8.44332 19.6727 7.37969 19.6727C4.54332 19.6727 2.17969 22.0364 2.17969 24.8727V38.4636C2.17969 41.3 4.54332 43.6636 7.37969 43.6636C8.44332 43.6636 9.38878 43.3091 10.2161 42.8364V43.6636C10.2161 46.7364 12.8161 49.3364 15.8888 49.3364C19.0797 49.3364 21.5615 46.7364 21.5615 43.6636V37.9909H23.2161L25.6979 37.6364H43.0706L43.5433 35.3909H21.5615M54.1797 35.5091C54.6524 32.9091 55.1251 30.3091 56.5433 27.8273M54.1797 35.5091H58.4342V27.8273H56.5433M54.1797 35.5091L53.7106 37.8727M56.5433 27.8273L57.0161 25.3455H58.4342V19.6727C58.4342 16.6 60.9161 14 64.107 14C67.1797 14 69.7797 16.6 69.7797 19.6727V20.5C70.607 20.0273 71.5524 19.6727 72.6161 19.6727C75.4524 19.6727 77.8161 21.9182 77.6979 24.8727V38.3455C77.6979 41.1818 75.3342 43.5455 72.4979 43.5455C71.4342 43.5455 70.4888 43.3091 69.6615 42.7182V43.5455C69.6615 46.6182 67.1797 49.2182 63.9888 49.2182C60.9161 49.2182 58.3161 46.6182 58.3161 43.5455V37.8727H53.7106M53.6872 37.9909L53.7106 37.8727M7.37969 41.3C5.84332 41.3 4.54332 40 4.54332 38.4636V24.8727C4.54332 23.3364 5.84332 22.0364 7.37969 22.0364C9.03423 22.0364 10.2161 23.3364 10.2161 24.8727V38.4636C10.2161 40 8.91605 41.3 7.37969 41.3ZM19.1979 43.5455C19.1979 45.3182 17.6615 46.8546 15.8888 46.8546C14.1161 46.8546 12.5797 45.3182 12.5797 43.5455V19.6727C12.5797 17.9 14.1161 16.3636 15.8888 16.3636C17.7797 16.3636 19.1979 17.9 19.1979 19.6727V43.5455ZM67.4161 43.5455C67.4161 45.3182 65.8797 46.8546 64.107 46.8546C62.3342 46.8546 60.7979 45.3182 60.7979 43.5455V19.6727C60.7979 17.9 62.3342 16.3636 64.107 16.3636C65.9979 16.3636 67.4161 17.9 67.4161 19.6727V43.5455ZM75.4524 38.4636C75.4524 40 74.1524 41.3 72.6161 41.3C71.0797 41.3 69.7797 40 69.7797 38.4636V24.8727C69.7797 23.3364 71.0797 22.0364 72.6161 22.0364C74.1524 22.0364 75.4524 23.3364 75.4524 24.8727V38.4636Z" stroke="#182F43"/>
</svg>
