<svg width="81" height="80" viewBox="0 0 81 80" fill="none" xmlns="http://www.w3.org/2000/svg">
<path d="M10.5566 28.6221V65.9955H12.8233V28.6221H10.5566ZM64.9566 28.6221V67.1997H43.9103V69.4663H66.09C66.3905 69.4663 66.6788 69.3468 66.8913 69.1343C67.1039 68.9218 67.2233 68.6336 67.2233 68.333V28.6221H64.9566Z" fill="#FBFBFF"/>
<path d="M4.89017 64.9336C4.5896 64.9336 4.30135 65.0531 4.08882 65.2656C3.87628 65.4782 3.75687 65.7664 3.75684 66.0669V68.1919V72.8669C3.75687 73.1675 3.87628 73.4557 4.08882 73.6682C4.30135 73.8808 4.5896 74.0002 4.89017 74.0003H43.4235C43.7241 74.0002 44.0123 73.8808 44.2249 73.6682C44.4374 73.4557 44.5568 73.1675 44.5568 72.8669V66.0669C44.5568 65.7664 44.4374 65.4782 44.2249 65.2656C44.0123 65.0531 43.7241 64.9336 43.4235 64.9336H4.89017ZM6.0235 67.2003H42.2902V71.7336H6.0235V68.1919V67.2003Z" fill="#FBFBFF"/>
<path d="M43.4385 67.2006C43.2896 67.2029 43.1427 67.2345 43.0061 67.2936C42.8695 67.3527 42.7458 67.4382 42.6422 67.5451C42.5386 67.652 42.4571 67.7782 42.4023 67.9166C42.3475 68.0549 42.3205 68.2028 42.3228 68.3517L42.3047 68.3335V72.8669C42.3047 73.1674 42.4241 73.4556 42.6367 73.6682C42.8492 73.8807 43.1375 74.0002 43.438 74.0002H67.1761V71.7335H44.5714V69.4669H67.1761V67.2002H43.438L43.4385 67.2006Z" fill="#FBFBFF"/>
<path d="M66.0888 64.9322C65.7883 64.9323 65.5 65.0517 65.2875 65.2643C65.0749 65.4768 64.9555 65.765 64.9555 66.0656V72.8656C64.9564 73.1402 65.0571 73.4051 65.2386 73.6111C65.4202 73.8171 65.6704 73.9502 65.9427 73.9856C65.9867 73.9928 66.0311 73.9973 66.0756 73.9992C66.0801 73.9992 66.0846 73.9992 66.0892 73.9992H72.8892C73.1897 73.9992 73.478 73.8798 73.6905 73.6673C73.903 73.4548 74.0225 73.1664 74.0225 72.8658V66.0658L74.0044 66.084C74.0068 65.9351 73.9799 65.7872 73.9251 65.6487C73.8704 65.5103 73.7888 65.384 73.6853 65.277C73.5817 65.17 73.458 65.0845 73.3213 65.0253C73.1847 64.9662 73.0377 64.9346 72.8888 64.9322H66.0888ZM67.2222 67.1989H71.7555V71.7322H67.2222V67.1989ZM11.649 27.4835C11.5002 27.4859 11.3532 27.5175 11.2166 27.5766C11.08 27.6357 10.9564 27.7211 10.8528 27.828C10.7492 27.9349 10.6676 28.0611 10.6128 28.1995C10.558 28.3379 10.531 28.4857 10.5333 28.6346V65.9239C10.5312 66.0741 10.559 66.2232 10.615 66.3626C10.671 66.502 10.7541 66.6288 10.8596 66.7357C10.965 66.8427 11.0907 66.9276 11.2292 66.9856C11.3678 67.0435 11.5165 67.0734 11.6667 67.0734C11.8169 67.0734 11.9656 67.0435 12.1041 66.9856C12.2427 66.9276 12.3683 66.8427 12.4738 66.7357C12.5792 66.6288 12.6624 66.502 12.7184 66.3626C12.7744 66.2232 12.8021 66.0741 12.8 65.9239V28.6346C12.8024 28.4828 12.7742 28.332 12.7172 28.1913C12.6602 28.0506 12.5755 27.9228 12.4682 27.8154C12.3608 27.7081 12.233 27.6233 12.0923 27.5663C11.9515 27.5093 11.8008 27.4812 11.649 27.4835ZM43.4266 30.7684C43.2778 30.7708 43.1308 30.8024 42.9942 30.8615C42.8576 30.9206 42.734 31.006 42.6304 31.1129C42.5268 31.2198 42.4453 31.346 42.3905 31.4844C42.3357 31.6228 42.3087 31.7706 42.311 31.9195V68.3322C42.3089 68.4824 42.3366 68.6316 42.3926 68.7709C42.4486 68.9103 42.5317 69.0371 42.6372 69.1441C42.7427 69.251 42.8683 69.3359 43.0069 69.3939C43.1454 69.4519 43.2941 69.4818 43.4443 69.4818C43.5945 69.4818 43.7432 69.4519 43.8817 69.3939C44.0203 69.3359 44.146 69.251 44.2514 69.1441C44.3569 69.0371 44.44 68.9103 44.496 68.7709C44.552 68.6316 44.5798 68.4824 44.5776 68.3322V31.9195C44.58 31.7677 44.5519 31.6169 44.4949 31.4762C44.4379 31.3355 44.3531 31.2077 44.2458 31.1003C44.1384 30.993 44.0106 30.9082 43.8699 30.8512C43.7291 30.7942 43.5784 30.7661 43.4266 30.7684ZM47.9555 44.5322C47.6549 44.5323 47.3667 44.6517 47.1541 44.8643C46.9416 45.0768 46.8222 45.365 46.8222 45.6656V46.7989V67.1989V68.3322C46.8222 68.6328 46.9416 68.921 47.1541 69.1335C47.3667 69.3461 47.6549 69.4655 47.9555 69.4656H61.5555C61.8561 69.4655 62.1443 69.3461 62.3568 69.1335C62.5694 68.921 62.6888 68.6328 62.6888 68.3322V67.1989V46.7989V45.6656C62.6888 45.365 62.5694 45.0768 62.3568 44.8643C62.1443 44.6517 61.8561 44.5323 61.5555 44.5322H47.9555ZM49.0888 46.7989H60.4222V67.1989H49.0888V46.7989Z" fill="#FBFBFF"/>
<path fill-rule="evenodd" clip-rule="evenodd" d="M12.6591 6C12.4295 6.00027 12.2054 6.0703 12.0165 6.20074C11.8276 6.33118 11.6827 6.51588 11.6011 6.73047L3.83154 27.1305L3.83239 27.1308C3.78031 27.2662 3.7547 27.4104 3.75697 27.5555V28.6667C3.75697 31.1586 5.79845 33.2 8.29031 33.2C9.64 33.2 10.8576 32.6011 11.6902 31.6561C12.5228 32.6012 13.7404 33.2001 15.0901 33.2001C16.4399 33.2001 17.6576 32.6011 18.4902 31.6559C19.3228 32.6011 20.5405 33.2001 21.8903 33.2001C23.2401 33.2001 24.4577 32.6012 25.2903 31.6561C26.1229 32.6012 27.3405 33.2001 28.6903 33.2001C30.0401 33.2001 31.2578 32.6011 32.0904 31.6559C32.923 32.6011 34.1407 33.2001 35.4905 33.2001C36.8402 33.2001 38.0578 32.6012 38.8904 31.6562C39.723 32.6012 40.9406 33.2001 42.2903 33.2001C43.64 33.2001 44.8576 32.6012 45.6902 31.6562C46.5228 32.6012 47.7404 33.2001 49.0901 33.2001C50.4399 33.2001 51.6576 32.6011 52.4902 31.6559C53.3228 32.6011 54.5405 33.2001 55.8903 33.2001C57.2401 33.2001 58.4577 32.6012 59.2903 31.6561C60.1229 32.6012 61.3405 33.2001 62.6903 33.2001C64.0402 33.2001 65.2579 32.6011 66.0905 31.6558C66.9231 32.6009 68.1407 33.1999 69.4905 33.1999C71.9823 33.1999 74.0238 31.1584 74.0238 28.6665V27.4402C74.0262 27.2884 73.998 27.1377 73.941 26.997C73.9054 26.9089 73.8588 26.8259 73.8027 26.7497L66.1782 6.73047C66.0965 6.51588 65.9517 6.33118 65.7627 6.20074C65.5738 6.0703 65.3497 6.00027 65.1201 6H12.6591ZM71.7571 27.741L64.3365 8.26667H13.4427L6.02364 27.7369V28.6667C6.02364 29.942 7.01497 30.9333 8.29031 30.9333C9.55728 30.9333 10.544 29.955 10.5568 28.6917L10.5568 28.6668C10.5545 28.518 10.5815 28.3701 10.6363 28.2317C10.6911 28.0933 10.7726 27.9671 10.8762 27.8602C10.9798 27.7534 11.1034 27.6678 11.24 27.6087C11.3767 27.5496 11.5236 27.5181 11.6724 27.5158C11.8242 27.5134 11.975 27.5415 12.1157 27.5985C12.2564 27.6555 12.3842 27.7403 12.4916 27.8477C12.599 27.955 12.6837 28.0828 12.7407 28.2235C12.78 28.3207 12.8056 28.4226 12.8169 28.5264C12.822 28.5729 12.8243 28.6197 12.8236 28.6667L12.8236 28.6918C12.8364 29.9551 13.8231 30.9335 15.0901 30.9335C16.3655 30.9335 17.3568 29.9421 17.3568 28.6668C17.3562 28.6236 17.358 28.5805 17.3623 28.5376C17.3727 28.4329 17.3976 28.3299 17.4365 28.2317C17.4913 28.0933 17.5728 27.9671 17.6764 27.8602C17.78 27.7534 17.9036 27.6678 18.0402 27.6087C18.1768 27.5496 18.3238 27.5181 18.4726 27.5158C18.6244 27.5134 18.7752 27.5415 18.9159 27.5985C19.0566 27.6555 19.1844 27.7403 19.2918 27.8477C19.3992 27.955 19.4839 28.0828 19.5409 28.2235C19.5979 28.3643 19.626 28.515 19.6236 28.6668C19.6236 29.9421 20.615 30.9335 21.8903 30.9335C23.1656 30.9335 24.157 29.9421 24.157 28.6668C24.1546 28.518 24.1816 28.3701 24.2365 28.2317C24.2913 28.0933 24.3728 27.9671 24.4764 27.8602C24.58 27.7534 24.7036 27.6678 24.8402 27.6087C24.9768 27.5496 25.1238 27.5181 25.2726 27.5158C25.4244 27.5134 25.5752 27.5415 25.7159 27.5985C25.8566 27.6555 25.9844 27.7403 26.0918 27.8477C26.1992 27.955 26.2839 28.0828 26.3409 28.2235C26.3977 28.3639 26.4259 28.5142 26.4237 28.6655L26.4236 28.6668C26.4236 29.9421 27.415 30.9335 28.6903 30.9335C29.9656 30.9335 30.957 29.9421 30.957 28.6668C30.9564 28.6236 30.9582 28.5805 30.9625 28.5376C30.9729 28.4329 30.9978 28.3299 31.0366 28.2317C31.0915 28.0933 31.173 27.9671 31.2766 27.8602C31.3802 27.7534 31.5038 27.6678 31.6404 27.6087C31.777 27.5496 31.924 27.5181 32.0728 27.5158C32.2246 27.5134 32.3754 27.5415 32.5161 27.5985C32.6568 27.6555 32.7846 27.7403 32.892 27.8477C32.9994 27.955 33.0841 28.0828 33.1411 28.2235C33.1981 28.3643 33.2262 28.515 33.2238 28.6668C33.2238 29.9421 34.2152 30.9335 35.4905 30.9335C36.7574 30.9335 37.744 29.9553 37.757 28.6922L37.757 28.6668C37.7546 28.518 37.7816 28.3701 37.8365 28.2317C37.8913 28.0933 37.9728 27.9671 38.0764 27.8602C38.18 27.7534 38.3036 27.6678 38.4402 27.6087C38.5768 27.5496 38.7238 27.5181 38.8726 27.5158C39.0244 27.5134 39.1752 27.5415 39.3159 27.5985C39.4566 27.6555 39.5844 27.7403 39.6918 27.8477C39.7992 27.955 39.8839 28.0828 39.9409 28.2235C39.981 28.3227 40.0069 28.4268 40.0178 28.5328C40.0224 28.5772 40.0245 28.622 40.0238 28.6668L40.0238 28.6922C40.0368 29.9553 41.0235 30.9335 42.2903 30.9335C43.5573 30.9335 44.544 29.955 44.5568 28.6917L44.5568 28.6668C44.5545 28.518 44.5815 28.3701 44.6363 28.2317C44.6911 28.0933 44.7726 27.9671 44.8762 27.8602C44.9798 27.7534 45.1034 27.6678 45.24 27.6087C45.3767 27.5496 45.5236 27.5181 45.6724 27.5158C45.8242 27.5134 45.975 27.5415 46.1157 27.5985C46.2564 27.6555 46.3842 27.7403 46.4916 27.8477C46.599 27.955 46.6837 28.0828 46.7407 28.2235C46.78 28.3208 46.8056 28.4228 46.8169 28.5266C46.8181 28.537 46.8191 28.5475 46.8199 28.5579C46.8229 28.5941 46.8242 28.6304 46.8236 28.6668L46.8236 28.6915C46.8363 29.9549 47.823 30.9335 49.0901 30.9335C50.3655 30.9335 51.3568 29.9421 51.3568 28.6668C51.3563 28.6318 51.3574 28.5969 51.3601 28.5621C51.3606 28.5559 51.3612 28.5496 51.3618 28.5434C51.3623 28.5378 51.3629 28.5322 51.3635 28.5266C51.3745 28.4257 51.3989 28.3265 51.4365 28.2317C51.4913 28.0933 51.5728 27.9671 51.6764 27.8602C51.78 27.7534 51.9036 27.6678 52.0402 27.6087C52.1768 27.5496 52.3238 27.5181 52.4726 27.5158C52.6244 27.5134 52.7752 27.5415 52.9159 27.5985C53.0566 27.6555 53.1844 27.7403 53.2918 27.8477C53.3992 27.955 53.4839 28.0828 53.5409 28.2235C53.5979 28.3643 53.626 28.515 53.6236 28.6668C53.6236 29.9421 54.615 30.9335 55.8903 30.9335C57.1656 30.9335 58.157 29.9421 58.157 28.6668C58.1546 28.518 58.1816 28.3701 58.2365 28.2317C58.2913 28.0933 58.3728 27.9671 58.4764 27.8602C58.58 27.7534 58.7036 27.6678 58.8402 27.6087C58.9768 27.5496 59.1238 27.5181 59.2726 27.5158C59.4244 27.5134 59.5752 27.5415 59.7159 27.5985C59.8566 27.6555 59.9844 27.7403 60.0918 27.8477C60.1992 27.955 60.2839 28.0828 60.3409 28.2235C60.3979 28.3643 60.426 28.515 60.4236 28.6668C60.4236 29.9421 61.415 30.9335 62.6903 30.9335C63.9657 30.9335 64.957 29.9421 64.957 28.6668C64.9549 28.5166 64.9826 28.3675 65.0386 28.2281C65.0509 28.1975 65.0645 28.1674 65.0794 28.1381C65.1069 28.084 65.1386 28.0322 65.1742 27.9833C65.2073 27.9379 65.2437 27.8949 65.2834 27.8547C65.3888 27.7478 65.5145 27.6628 65.653 27.6049C65.7916 27.5469 65.9403 27.517 66.0905 27.517C66.2407 27.517 66.3894 27.5469 66.5279 27.6049C66.6665 27.6628 66.7921 27.7478 66.8976 27.8547C67.003 27.9617 67.0862 28.0885 67.1422 28.2278C67.1982 28.3672 67.2259 28.5164 67.2238 28.6665C67.2238 29.9419 68.2151 30.9332 69.4905 30.9332C70.7658 30.9332 71.7571 29.9419 71.7571 28.6665V27.741Z" fill="#F4B513"/>
<path fill-rule="evenodd" clip-rule="evenodd" d="M51.3546 53.5994V58.1327H53.6213V53.5994H51.3546ZM20.8742 37.2236L16.3408 46.2903L18.3685 47.3041L22.9018 38.2374L20.8742 37.2236ZM25.4075 41.757L19.7408 53.0903L21.7685 54.1041L27.4351 42.7708L25.4075 41.757Z" fill="#F4B513" stroke="#FBFBFF"/>
</svg>
