<svg width="80" height="80" viewBox="0 0 80 80" fill="none" xmlns="http://www.w3.org/2000/svg">
<path d="M63.7411 51.5313C62.3846 51.5305 61.0423 51.8078 59.7972 52.3462C58.5522 52.8846 57.4307 53.6726 56.5022 54.6615C52.5623 58.7607 52.5604 65.4613 56.5007 69.6004L62.8692 76.2519C62.9818 76.3696 63.1172 76.4633 63.267 76.5273C63.4168 76.5912 63.5781 76.6242 63.741 76.6242C63.9039 76.6242 64.0651 76.5912 64.215 76.5273C64.3648 76.4633 64.5001 76.3696 64.6128 76.2519L70.9796 69.6021C74.9196 65.5029 74.9214 58.8025 70.9837 54.6658C70.055 53.6758 68.9331 52.8869 67.6873 52.3477C66.4416 51.8086 65.0985 51.5307 63.7411 51.5313ZM69.2378 67.931L63.7411 73.672L58.2466 67.9336C55.1866 64.719 55.1848 59.5157 58.2466 56.33C58.9502 55.5774 59.801 54.9773 60.7462 54.5671C61.6913 54.1569 62.7107 53.9452 63.741 53.9452C64.7713 53.9452 65.7907 54.1569 66.7358 54.5671C67.681 54.9773 68.5317 55.5774 69.2354 56.33C72.2954 59.5447 72.2972 64.7479 69.2378 67.931Z" fill="#FBFBFF"/>
<path d="M63.7353 55.8857C62.7485 55.8857 61.7839 56.1783 60.9635 56.7265C60.143 57.2747 59.5035 58.0538 59.1259 58.9655C58.7483 59.8771 58.6495 60.8802 58.8419 61.848C59.0344 62.8158 59.5096 63.7048 60.2073 64.4025C60.905 65.1003 61.794 65.5754 62.7618 65.768C63.7295 65.9605 64.7327 65.8617 65.6443 65.4841C66.556 65.1065 67.3351 64.467 67.8834 63.6466C68.4316 62.8261 68.7242 61.8615 68.7242 60.8748C68.7227 59.5521 68.1966 58.284 67.2613 57.3487C66.3261 56.4134 65.058 55.8873 63.7353 55.8857ZM63.7353 63.4497C63.226 63.4498 62.7281 63.2987 62.3046 63.0158C61.8811 62.7329 61.551 62.3307 61.3561 61.8601C61.1612 61.3896 61.1102 60.8718 61.2095 60.3723C61.3089 59.8728 61.5541 59.4139 61.9143 59.0538C62.2744 58.6936 62.7333 58.4484 63.2328 58.349C63.7323 58.2497 64.2501 58.3007 64.7206 58.4956C65.1912 58.6905 65.5934 59.0206 65.8763 59.4441C66.1592 59.8676 66.3102 60.3655 66.3102 60.8748C66.3094 61.5575 66.0379 62.2119 65.5552 62.6947C65.0724 63.1774 64.418 63.4489 63.7353 63.4497Z" fill="#F4B513"/>
<path d="M56.2868 74.378H22.7932C21.8729 74.378 20.9903 74.0124 20.3395 73.3616C19.6888 72.7109 19.3232 71.8283 19.3232 70.9079C19.3232 69.9876 19.6888 69.105 20.3395 68.4542C20.9903 67.8035 21.8729 67.4379 22.7932 67.4379H35.0893C36.5898 67.4379 38.0289 66.8418 39.0899 65.7808C40.1509 64.7198 40.747 63.2807 40.747 61.7802C40.747 60.2797 40.1509 58.8406 39.0899 57.7796C38.0289 56.7186 36.5898 56.1225 35.0893 56.1225H13.062C12.1217 56.1225 11.2199 55.7489 10.5549 55.084C9.89003 54.4191 9.51649 53.5173 9.51649 52.577C9.51649 51.6367 9.89003 50.7348 10.5549 50.0699C11.2199 49.405 12.1217 49.0315 13.062 49.0315H67.7531C68.9935 49.0315 70.1831 48.5387 71.0603 47.6616C71.9374 46.7845 72.4301 45.5949 72.4301 44.3545C72.4301 43.114 71.9374 41.9244 71.0603 41.0473C70.1831 40.1702 68.9935 39.6774 67.7531 39.6774H23.2458C22.6456 39.6774 22.07 39.439 21.6456 39.0146C21.2212 38.5902 20.9828 38.0145 20.9828 37.4143C20.9828 36.8141 21.2212 36.2385 21.6456 35.8141C22.07 35.3897 22.6456 35.1513 23.2458 35.1513H40.8224C41.1426 35.1513 41.4495 35.0241 41.6759 34.7977C41.9023 34.5714 42.0294 34.2644 42.0294 33.9443C42.0294 33.6242 41.9023 33.3172 41.6759 33.0908C41.4495 32.8645 41.1426 32.7373 40.8224 32.7373H23.2458C22.0054 32.7373 20.8158 33.2301 19.9387 34.1072C19.0616 34.9843 18.5688 36.1739 18.5688 37.4143C18.5688 38.6548 19.0616 39.8444 19.9387 40.7215C20.8158 41.5986 22.0054 42.0914 23.2458 42.0914H67.7531C68.3533 42.0914 68.9289 42.3298 69.3533 42.7542C69.7777 43.1786 70.0162 43.7542 70.0162 44.3545C70.0162 44.9547 69.7777 45.5303 69.3533 45.9547C68.9289 46.3791 68.3533 46.6175 67.7531 46.6175H13.062C11.4814 46.6175 9.96563 47.2454 8.84802 48.363C7.73041 49.4806 7.10254 50.9964 7.10254 52.577C7.10254 54.1575 7.73041 55.6733 8.84802 56.7909C9.96563 57.9086 11.4814 58.5364 13.062 58.5364H35.0893C35.9496 58.5364 36.7747 58.8782 37.383 59.4865C37.9913 60.0948 38.333 60.9199 38.333 61.7802C38.333 62.6405 37.9913 63.4655 37.383 64.0739C36.7747 64.6822 35.9496 65.0239 35.0893 65.0239H22.7932C21.2327 65.0239 19.7361 65.6438 18.6326 66.7473C17.5291 67.8508 16.9092 69.3474 16.9092 70.9079C16.9092 72.4685 17.5291 73.9651 18.6326 75.0686C19.7361 76.172 21.2327 76.7919 22.7932 76.7919H56.2868C56.6069 76.7919 56.9139 76.6648 57.1403 76.4384C57.3666 76.2121 57.4938 75.9051 57.4938 75.585C57.4938 75.2649 57.3666 74.9579 57.1403 74.7315C56.9139 74.5052 56.6069 74.378 56.2868 74.378Z" fill="#F4B513"/>
<path d="M11.3091 26.0435C11.8193 28.3703 13.9277 30.3237 16.4447 30.3237C18.9618 30.3237 21.0712 28.3703 21.5806 26.0435H42.6198C43.1308 28.3703 45.2384 30.3237 47.7557 30.3237C50.273 30.3237 52.3816 28.3703 52.8918 26.0435H54.2475C54.5726 26.0342 54.8815 25.895 55.1091 25.6552C55.3368 25.4155 55.4654 25.0939 55.4679 24.7582V16.5322C55.4644 16.0858 55.3756 15.6445 55.2065 15.2336C55.0374 14.8227 54.7913 14.4503 54.4825 14.1378C54.1737 13.8253 53.8081 13.5788 53.4067 13.4125C53.0054 13.2461 52.5762 13.1633 52.1437 13.1686H52.0333L47.8331 4.99287C47.3749 4.09405 46.6885 3.34074 45.8475 2.81356C45.0065 2.28638 44.0424 2.00516 43.0585 2H43.0415L34.6114 2.03537C34.2888 2.03705 33.9795 2.16851 33.7492 2.40181C33.519 2.63512 33.3859 2.95189 33.3783 3.28485V13.1686H9.05842C8.90185 13.1627 8.74572 13.189 8.59907 13.2459C8.45243 13.3028 8.31819 13.3892 8.20415 13.5001C8.0901 13.611 7.99853 13.7441 7.93473 13.8918C7.87094 14.0395 7.8362 14.1989 7.83252 14.3605V24.7582C7.83625 25.0945 7.96601 25.4162 8.19458 25.6558C8.42314 25.8955 8.73275 26.0344 9.05842 26.0435H11.3091ZM16.4447 27.7974C15.8811 27.7974 15.3301 27.6248 14.8614 27.3016C14.3927 26.9783 14.0275 26.5188 13.8118 25.9812C13.5961 25.4436 13.5397 24.8521 13.6497 24.2814C13.7597 23.7107 14.0311 23.1865 14.4297 22.7751C14.8283 22.3637 15.3361 22.0835 15.8889 21.97C16.4418 21.8565 17.0148 21.9147 17.5356 22.1374C18.0563 22.3601 18.5014 22.7372 18.8146 23.221C19.1278 23.7048 19.2949 24.2736 19.2949 24.8554C19.2941 25.6355 18.9936 26.3833 18.4592 26.9349C17.9249 27.4865 17.2004 27.7967 16.4447 27.7974ZM47.7562 27.7974C47.1925 27.7975 46.6415 27.625 46.1728 27.3017C45.7041 26.9785 45.3388 26.519 45.123 25.9814C44.9073 25.4438 44.8508 24.8523 44.9608 24.2816C45.0707 23.7109 45.3422 23.1867 45.7407 22.7752C46.1393 22.3637 46.6471 22.0835 47.2 21.97C47.7528 21.8565 48.3259 21.9147 48.8467 22.1374C49.3674 22.3601 49.8126 22.7371 50.1257 23.2209C50.4389 23.7048 50.606 24.2736 50.606 24.8554C50.6052 25.6354 50.3046 26.3832 49.7704 26.9347C49.2361 27.4862 48.5118 27.7965 47.7562 27.7974ZM53.0635 16.5322V23.5616H52.8482C52.5599 22.3933 51.9028 21.3574 50.9807 20.6176C50.0586 19.8778 48.9239 19.4761 47.756 19.4761C46.5881 19.4761 45.4535 19.8778 44.5314 20.6176C43.6092 21.3574 42.9521 22.3933 42.6639 23.5616H35.7826V15.6505H52.1437C52.2605 15.6449 52.3772 15.6633 52.4869 15.7048C52.5967 15.7462 52.6974 15.8099 52.783 15.892C52.8687 15.9741 52.9376 16.073 52.9858 16.1829C53.0339 16.2928 53.0604 16.4116 53.0635 16.5322ZM35.7826 4.52193L43.0487 4.48191H43.0583C43.6061 4.48772 44.142 4.64678 44.6092 4.94215C45.0763 5.23752 45.457 5.65814 45.7109 6.15922L49.3094 13.1686H35.7826V4.52193ZM10.2368 15.6505H33.3783V23.5616H21.5371C21.2488 22.3933 20.5917 21.3574 19.6696 20.6176C18.7474 19.8778 17.6128 19.4761 16.4449 19.4761C15.277 19.4761 14.1424 19.8778 13.2202 20.6176C12.2981 21.3574 11.641 22.3933 11.3527 23.5616H10.2368V15.6505Z" fill="#FBFBFF"/>
</svg>
