<svg width="80" height="80" viewBox="0 0 80 80" fill="none" xmlns="http://www.w3.org/2000/svg">
<path d="M16.4612 54.4375C16.2301 54.4387 16.0044 54.3669 15.8163 54.2324C15.6283 54.0979 15.4874 53.9076 15.4137 53.6885C15.3401 53.4693 15.3374 53.2325 15.406 53.0118C15.4747 52.791 15.6112 52.5975 15.7962 52.4588L19.2216 49.8656C19.4243 49.7116 19.6743 49.6328 19.9287 49.6426C20.1831 49.6525 20.4262 49.7503 20.6165 49.9194L22.7382 51.8102L28.5765 48.7586C28.8349 48.6235 29.1365 48.5965 29.4148 48.6837C29.6931 48.7709 29.9254 48.9651 30.0605 49.2236C30.1957 49.482 30.2226 49.7836 30.1354 50.0619C30.0482 50.3402 29.854 50.5725 29.5955 50.7076L23.0833 54.1154C22.8855 54.2187 22.6609 54.2593 22.4394 54.2318C22.2179 54.2043 22.01 54.11 21.8434 53.9615L19.8284 52.1675L17.1241 54.2187C16.9328 54.3617 16.7001 54.4385 16.4612 54.4375ZM54.4185 44.4571C54.127 44.4571 53.8474 44.3413 53.6412 44.1351C53.435 43.929 53.3192 43.6493 53.3192 43.3578V35.3484C53.319 35.1561 53.3693 34.9671 53.465 34.8003C53.5607 34.6335 53.6985 34.4947 53.8646 34.3978C54.0307 34.3009 54.2193 34.2493 54.4116 34.2481C54.6039 34.2469 54.7931 34.2961 54.9605 34.3909L62.019 38.3967C62.1882 38.4926 62.3289 38.6316 62.4268 38.7996C62.5247 38.9677 62.5763 39.1586 62.5763 39.3531C62.5763 39.5476 62.5247 39.7385 62.4268 39.9065C62.3289 40.0746 62.1882 40.2136 62.019 40.3095L54.9605 44.3142C54.7952 44.4078 54.6085 44.4571 54.4185 44.4571ZM55.5178 37.2359V41.4703L59.2488 39.3531L55.5178 37.2359ZM21.3102 44.7935C21.0187 44.7935 20.739 44.6776 20.5329 44.4715C20.3267 44.2653 20.2109 43.9857 20.2109 43.6942V32.6573C20.2109 32.3658 20.3267 32.0862 20.5329 31.88C20.739 31.6739 21.0187 31.5581 21.3102 31.5581C21.6017 31.5581 21.8814 31.6739 22.0875 31.88C22.2937 32.0862 22.4095 32.3658 22.4095 32.6573V43.6942C22.4095 43.9857 22.2937 44.2653 22.0875 44.4715C21.8814 44.6776 21.6017 44.7935 21.3102 44.7935ZM54.8384 73.0012H24.6081C23.4419 73.0012 22.3234 72.5379 21.4988 71.7133C20.6742 70.8886 20.2109 69.7702 20.2109 68.604V60.5242C20.2109 60.2327 20.3267 59.9531 20.5329 59.7469C20.739 59.5408 21.0187 59.425 21.3102 59.425C21.6017 59.425 21.8814 59.5408 22.0875 59.7469C22.2937 59.9531 22.4095 60.2327 22.4095 60.5242V68.604C22.4095 69.1871 22.6411 69.7463 23.0534 70.1586C23.4657 70.5709 24.025 70.8026 24.6081 70.8026H54.8384C55.4215 70.8026 55.9808 70.5709 56.3931 70.1586C56.8054 69.7463 57.037 69.1871 57.037 68.604V48.8399C57.037 48.5484 57.1528 48.2688 57.359 48.0626C57.5651 47.8565 57.8447 47.7407 58.1363 47.7407C58.4278 47.7407 58.7075 47.8565 58.9136 48.0626C59.1198 48.2688 59.2356 48.5484 59.2356 48.8399V68.604C59.2356 69.7702 58.7723 70.8886 57.9477 71.7133C57.1231 72.5379 56.0046 73.0012 54.8384 73.0012ZM58.1363 32.0308C57.8447 32.0308 57.5651 31.9149 57.359 31.7088C57.1528 31.5026 57.037 31.223 57.037 30.9315V11.3971C57.037 10.814 56.8054 10.2548 56.3931 9.84252C55.9808 9.43021 55.4215 9.19857 54.8384 9.19857H24.6081C24.025 9.19857 23.4657 9.43021 23.0534 9.84252C22.6411 10.2548 22.4095 10.814 22.4095 11.3971V15.8163C22.4095 16.1078 22.2937 16.3874 22.0875 16.5936C21.8814 16.7997 21.6017 16.9156 21.3102 16.9156C21.0187 16.9156 20.739 16.7997 20.5329 16.5936C20.3267 16.3874 20.2109 16.1078 20.2109 15.8163V11.3971C20.2109 10.2309 20.6742 9.11252 21.4988 8.28789C22.3234 7.46327 23.4419 7 24.6081 7H54.8384C56.0046 7 57.1231 7.46327 57.9477 8.28789C58.7723 9.11252 59.2356 10.2309 59.2356 11.3971V30.9315C59.2356 31.223 59.1198 31.5026 58.9136 31.7088C58.7075 31.9149 58.4278 32.0308 58.1363 32.0308Z" fill="#182F43"/>
<path d="M42.946 13.1986H36.4899C36.1984 13.1986 35.9188 13.0828 35.7126 12.8766C35.5064 12.6704 35.3906 12.3908 35.3906 12.0993C35.3906 11.8077 35.5064 11.5281 35.7126 11.322C35.9188 11.1158 36.1984 11 36.4899 11H42.946C43.2376 11 43.5172 11.1158 43.7233 11.322C43.9295 11.5281 44.0453 11.8077 44.0453 12.0993C44.0453 12.3908 43.9295 12.6704 43.7233 12.8766C43.5172 13.0828 43.2376 13.1986 42.946 13.1986ZM46.2274 13.1909C46.0808 13.1935 45.9352 13.1674 45.7987 13.1139C45.665 13.0603 45.5449 12.9777 45.4469 12.8721C45.2422 12.6661 45.1272 12.3875 45.1272 12.0971C45.1272 11.8067 45.2422 11.5281 45.4469 11.3221C45.6573 11.126 45.9343 11.0169 46.2219 11.0169C46.5095 11.0169 46.7865 11.126 46.9969 11.3221C47.0994 11.4227 47.1815 11.5421 47.2387 11.6739C47.2908 11.8107 47.3169 11.9561 47.3157 12.1026C47.317 12.2457 47.2894 12.3876 47.2346 12.5198C47.1798 12.652 47.099 12.7718 46.9969 12.8721C46.8989 12.9777 46.7788 13.0603 46.6451 13.1139C46.5122 13.1665 46.3703 13.1926 46.2274 13.1909Z" fill="#182F43"/>
<path d="M35.4696 68.2659C35.2655 68.2658 35.0654 68.2088 34.8918 68.1015C34.7183 67.9941 34.578 67.8405 34.4868 67.658C32.3168 63.3191 29.7423 61.6284 25.3034 61.6284H11.958C11.0834 61.6284 10.2445 61.2809 9.62608 60.6625C9.00761 60.044 8.66016 59.2052 8.66016 58.3305V45.8877C8.66016 45.0131 9.00761 44.1742 9.62608 43.5558C10.2445 42.9373 11.0834 42.5898 11.958 42.5898H33.271C34.1456 42.5898 34.9844 42.9373 35.6029 43.5558C36.2214 44.1742 36.5688 45.0131 36.5688 45.8877V67.1666C36.569 67.4143 36.4855 67.6549 36.3319 67.8492C36.1783 68.0436 35.9635 68.1803 35.7224 68.2373C35.6394 68.256 35.5546 68.2655 35.4696 68.2659ZM11.958 44.7884C11.6665 44.7884 11.3869 44.9042 11.1807 45.1104C10.9745 45.3165 10.8587 45.5962 10.8587 45.8877V58.3305C10.8587 58.6221 10.9745 58.9017 11.1807 59.1078C11.3869 59.314 11.6665 59.4298 11.958 59.4298H25.3034C29.2542 59.4298 32.1189 60.6445 34.3703 63.3872V45.8877C34.3703 45.5962 34.2544 45.3165 34.0483 45.1104C33.8421 44.9042 33.5625 44.7884 33.271 44.7884H11.958Z" fill="#F4B513" stroke="#182F43"/>
<path d="M29.0871 57.8727H16.1452C15.8536 57.8727 15.574 57.7569 15.3679 57.5507C15.1617 57.3446 15.0459 57.065 15.0459 56.7734V47.446C15.0459 47.1544 15.1617 46.8748 15.3679 46.6687C15.574 46.4625 15.8536 46.3467 16.1452 46.3467H29.0838C29.3753 46.3467 29.6549 46.4625 29.8611 46.6687C30.0673 46.8748 30.1831 47.1544 30.1831 47.446V56.7734C30.1831 57.0644 30.0677 57.3435 29.8623 57.5496C29.6568 57.7556 29.3781 57.8718 29.0871 57.8727ZM17.2478 55.6741H27.9878V48.5453H17.2445L17.2478 55.6741Z" fill="#182F43"/>
<path d="M35.4695 40.3917C35.2656 40.3917 35.0656 40.335 34.8921 40.2278C34.7185 40.1206 34.5782 39.9673 34.4868 39.7849C32.3168 35.4449 29.7423 33.7542 25.3034 33.7542H11.958C11.0834 33.7542 10.2445 33.4068 9.62608 32.7883C9.00761 32.1698 8.66016 31.331 8.66016 30.4564V18.0147C8.66016 17.14 9.00761 16.3012 9.62608 15.6827C10.2445 15.0642 11.0834 14.7168 11.958 14.7168H33.271C34.1456 14.7168 34.9844 15.0642 35.6029 15.6827C36.2214 16.3012 36.5688 17.14 36.5688 18.0147V39.2924C36.5688 39.584 36.453 39.8636 36.2469 40.0698C36.0407 40.2759 35.7611 40.3917 35.4695 40.3917ZM11.958 16.9154C11.6665 16.9154 11.3869 17.0312 11.1807 17.2373C10.9745 17.4435 10.8587 17.7231 10.8587 18.0147V30.4564C10.8587 30.7479 10.9745 31.0275 11.1807 31.2337C11.3869 31.4398 11.6665 31.5557 11.958 31.5557H25.3034C29.2542 31.5557 32.1189 32.7715 34.3703 35.5131V18.0147C34.3703 17.7231 34.2544 17.4435 34.0483 17.2373C33.8421 17.0312 33.5625 16.9154 33.271 16.9154H11.958ZM44.5233 55.5091C44.2317 55.5091 43.9521 55.3933 43.746 55.1871C43.5398 54.981 43.424 54.7014 43.424 54.4098V33.132C43.424 32.2574 43.7714 31.4186 44.3899 30.8001C45.0084 30.1816 45.8472 29.8342 46.7218 29.8342H68.0348C68.9095 29.8342 69.7483 30.1816 70.3667 30.8001C70.9852 31.4186 71.3327 32.2574 71.3327 33.132V45.5738C71.3327 46.4484 70.9852 47.2872 70.3667 47.9057C69.7483 48.5242 68.9095 48.8716 68.0348 48.8716H54.6895C50.2506 48.8716 47.676 50.5623 45.506 54.9023C45.4146 55.0847 45.2743 55.238 45.1008 55.3452C44.9272 55.4523 44.7272 55.5091 44.5233 55.5091ZM46.7218 32.0328C46.4303 32.0328 46.1507 32.1486 45.9445 32.3547C45.7384 32.5609 45.6226 32.8405 45.6226 33.132V50.6305C47.8772 47.8889 50.7386 46.673 54.6895 46.673H68.0348C68.3264 46.673 68.606 46.5572 68.8121 46.3511C69.0183 46.1449 69.1341 45.8653 69.1341 45.5738V33.132C69.1341 32.8405 69.0183 32.5609 68.8121 32.3547C68.606 32.1486 68.3264 32.0328 68.0348 32.0328H46.7218Z" fill="#F4B513" stroke="#182F43"/>
<path d="M16.0833 23.285H28.9167C29.204 23.285 29.4796 23.1646 29.6827 22.9503C29.8859 22.7361 30 22.4455 30 22.1425C30 21.8395 29.8859 21.5489 29.6827 21.3346C29.4796 21.1204 29.204 21 28.9167 21H16.0833C15.796 21 15.5204 21.1204 15.3173 21.3346C15.1141 21.5489 15 21.8395 15 22.1425C15 22.4455 15.1141 22.7361 15.3173 22.9503C15.5204 23.1646 15.796 23.285 16.0833 23.285Z" fill="#182F43"/>
<path d="M16.0833 28H25.108C25.3953 28 25.6708 27.8796 25.874 27.6654C26.0771 27.4511 26.1912 27.1605 26.1912 26.8575C26.1912 26.5545 26.0771 26.2639 25.874 26.0497C25.6708 25.8354 25.3953 25.715 25.108 25.715H16.0833C15.796 25.715 15.5204 25.8354 15.3173 26.0497C15.1141 26.2639 15 26.5545 15 26.8575C15 27.1605 15.1141 27.4511 15.3173 27.6654C15.5204 27.8796 15.796 28 16.0833 28Z" fill="#182F43"/>
</svg>
