<svg width="80" height="80" viewBox="0 0 80 80" fill="none" xmlns="http://www.w3.org/2000/svg">
<g clip-path="url(#clip0_21_12766)">
<path d="M44.9271 47.2237L44.5776 47.5231C40.5279 50.9918 35.3533 52.8996 30.0011 52.8996C24.649 52.8996 19.4744 50.9918 15.4247 47.5231L15.0752 47.2237V46.7636V31.7558V30.1508L16.5159 30.8582L28.8843 36.9309L44.9271 47.2237ZM44.9271 47.2237V46.7636M44.9271 47.2237V46.7636M44.9271 46.7636V31.7537V30.1484M44.9271 46.7636V30.1484M44.9271 30.1484L43.4862 30.8562M44.9271 30.1484L43.4862 30.8562M43.4862 30.8562L31.1183 36.9309L43.4862 30.8562ZM58.9696 18.9342L58.9713 18.935C59.3817 19.1356 59.726 19.4449 59.9663 19.8269C60.2066 20.2088 60.3338 20.6485 60.3346 21.0967V31.3474C60.3287 31.9883 60.0676 32.6031 59.6048 33.0578C59.1407 33.5136 58.5113 33.7711 57.8532 33.7711C57.1951 33.7711 56.5657 33.5136 56.1016 33.0578C55.6387 32.6031 55.3777 31.9883 55.3717 31.3474V26.6239V25.0188L53.931 25.7263L50.4492 27.4362L49.89 27.7108V28.3338V48.4455C49.8896 48.8071 49.8069 49.1643 49.6474 49.4907C49.4879 49.8171 49.2556 50.1045 48.967 50.3311L48.9508 50.3439L48.9351 50.3573C43.6564 54.8663 36.9729 57.4468 30.0013 57.6662C23.0296 57.4474 16.3459 54.8668 11.0675 50.3573L11.0518 50.3439L11.0355 50.3311C10.7469 50.1045 10.5145 49.817 10.355 49.4906C10.1955 49.1643 10.1127 48.807 10.1123 48.4454V28.3368V27.7138L9.55308 27.4392L1.03306 23.2555L1.02969 23.2538C0.619193 23.0541 0.274903 22.7453 0.0347689 22.3637C-0.205302 21.9822 -0.332031 21.5426 -0.332031 21.0948C-0.332031 20.647 -0.205302 20.2075 0.0347689 19.8259C0.274903 19.4443 0.619193 19.1355 1.02969 18.9358L1.03304 18.9342L28.8844 5.25868C29.2311 5.08868 29.6134 5 30.0013 5C30.3892 5 30.7715 5.08868 31.1182 5.25868L58.9696 18.9342ZM30.4421 10.3445L30.0013 10.1281L29.5606 10.3445L9.49433 20.1972L7.6662 21.0948L9.49433 21.9925L29.5606 31.8452L30.0013 32.0616L30.4421 31.8452L50.5079 21.9925L52.336 21.0948L50.5079 20.1972L30.4421 10.3445ZM30.0013 37.1896C29.6136 37.1896 29.2315 37.101 28.8849 36.9312L31.1176 36.9313C30.771 37.101 30.3889 37.1896 30.0013 37.1896Z" fill="#182F43" stroke="#FBFBFF" stroke-width="2"/>
<path d="M50.3916 61.7876H43.4318L38.8453 54.1988C38.1817 53.0963 36.5992 53.3102 36.2211 54.5536L32.1251 68.0414L28.7822 62.5031C28.5146 62.0581 28.0498 61.7881 27.55 61.7876H17.4812C15.5063 61.7568 15.5063 64.8958 17.4812 64.8664H26.7456L31.3322 72.4611C31.9958 73.5636 33.5783 73.3497 33.9564 72.1063L38.0523 58.6186L41.401 64.1568C41.67 64.5995 42.1345 64.8671 42.6332 64.8664H47.3167L50.0737 64.8662L50.4949 65.9606L51.3491 63.8741L52.2032 61.7876H50.3916Z" fill="#F4B513"/>
<path d="M50.4949 65.9606L54.2542 76.3395C54.7405 77.6909 56.5659 77.6548 57.0039 76.2852L63.8267 55.1668L67.375 63.9341C67.606 64.5011 68.1359 64.868 68.7213 64.8662H75.8521C77.8271 64.897 77.8271 61.7579 75.8521 61.7874H69.6854L65.0189 50.2658C64.7815 49.6823 64.2289 49.3123 63.627 49.3339C63.0201 49.3555 62.4887 49.7687 62.2921 50.3742L55.5435 71.2581L52.7767 63.6274L52.2032 61.7876L51.3491 63.8741L50.4949 65.9606Z" fill="#F4B513"/>
<path d="M50.4949 65.9606L54.2542 76.3395C54.7405 77.6909 56.5659 77.6548 57.0039 76.2852L63.8267 55.1668L67.375 63.9341C67.606 64.5011 68.1359 64.868 68.7213 64.8662H75.8521C77.8271 64.897 77.8271 61.7579 75.8521 61.7874H69.6854L65.0189 50.2658C64.7815 49.6823 64.2289 49.3123 63.627 49.3339C63.0201 49.3555 62.4887 49.7687 62.2921 50.3742L55.5435 71.2581L52.7767 63.6274L52.2032 61.7876M50.4949 65.9606L50.0737 64.8662L47.3167 64.8664H42.6332C42.1345 64.8671 41.67 64.5995 41.401 64.1568L38.0523 58.6186L33.9564 72.1063C33.5783 73.3497 31.9958 73.5636 31.3322 72.4611L26.7456 64.8664H17.4812C15.5063 64.8958 15.5063 61.7568 17.4812 61.7876H27.55C28.0498 61.7881 28.5146 62.0581 28.7822 62.5031L32.1251 68.0414L36.2211 54.5536C36.5992 53.3102 38.1817 53.0963 38.8453 54.1988L43.4318 61.7876H50.3916H52.2032M50.4949 65.9606L51.3491 63.8741L52.2032 61.7876" stroke="#182F43"/>
</g>
<defs>
<clipPath id="clip0_21_12766">
<rect width="80" height="80" fill="white"/>
</clipPath>
</defs>
</svg>
