<svg width="80" height="80" viewBox="0 0 80 80" fill="none" xmlns="http://www.w3.org/2000/svg">
<g clip-path="url(#clip0_171_1502)">
<path d="M44.9256 47.2237L44.5761 47.5231C40.5264 50.9918 35.3518 52.8996 29.9997 52.8996C24.6475 52.8996 19.4729 50.9918 15.4232 47.5231L15.0737 47.2237V46.7636V31.7558V30.1508L16.5145 30.8581L28.8828 36.9309C29.2296 37.1009 29.6119 37.1896 29.9998 37.1896C30.3875 37.1896 30.7695 37.101 31.1161 36.9313L44.9256 47.2237ZM44.9256 47.2237V46.7636V31.7537V30.1484L43.4847 30.8562L31.1169 36.9309L44.9256 47.2237ZM58.9681 18.9342L58.9698 18.935C59.3803 19.1356 59.7245 19.4449 59.9648 19.8269C60.2051 20.2088 60.3323 20.6485 60.3332 21.0967V31.3475C60.3272 31.9883 60.0662 32.6031 59.6033 33.0578C59.1392 33.5136 58.5098 33.7711 57.8517 33.7711C57.1936 33.7711 56.5642 33.5136 56.1001 33.0578C55.6373 32.6031 55.3762 31.9883 55.3703 31.3475V26.6239V25.0188L53.9295 25.7263L50.4477 27.4362L49.8885 27.7108V28.3338V48.4455C49.8882 48.8071 49.8054 49.1643 49.6459 49.4907C49.4864 49.8171 49.2541 50.1045 48.9656 50.3311L48.9494 50.3439L48.9337 50.3573C43.6549 54.8663 36.9715 57.4468 29.9998 57.6662C23.0281 57.4474 16.3445 54.8668 11.0661 50.3573L11.0503 50.3439L11.034 50.3311C10.7454 50.1045 10.5131 49.817 10.3535 49.4906C10.1941 49.1645 10.1113 48.8075 10.1108 48.4462C10.1108 48.4459 10.1108 48.4457 10.1108 48.4454L10.1108 28.3368V27.7138L9.55161 27.4392L1.0316 23.2555L1.02822 23.2538C0.617728 23.0541 0.273438 22.7453 0.0333046 22.3637C-0.206767 21.9822 -0.333496 21.5426 -0.333496 21.0948C-0.333496 20.647 -0.206767 20.2075 0.0333041 19.8259C0.273438 19.4443 0.617728 19.1355 1.02823 18.9358L1.03157 18.9342L28.8829 5.25868C29.2297 5.08868 29.6119 5 29.9998 5C30.3875 5 30.7696 5.08859 31.1162 5.25841C31.1164 5.2585 31.1166 5.25859 31.1168 5.25868L58.9681 18.9342ZM30.4406 10.3445L29.9998 10.1281L29.5591 10.3445L9.49287 20.1972L7.66474 21.0948L9.49287 21.9925L29.5591 31.8452L29.9998 32.0616L30.4406 31.8452L50.5065 21.9925L52.3346 21.0948L50.5065 20.1972L30.4406 10.3445Z" fill="#FBFBFF" stroke="#182F43" stroke-width="2"/>
<path d="M50.3916 61.7876H43.4318L38.8453 54.1988C38.1817 53.0963 36.5992 53.3102 36.2211 54.5536L32.1251 68.0414L28.7822 62.5031C28.5146 62.0581 28.0498 61.7881 27.55 61.7876H17.4812C15.5063 61.7568 15.5063 64.8958 17.4812 64.8664H26.7456L31.3322 72.4611C31.9958 73.5637 33.5783 73.3497 33.9564 72.1063L38.0523 58.6186L41.401 64.1568C41.67 64.5995 42.1345 64.8671 42.6332 64.8664H47.3167L50.0737 64.8662L50.4949 65.9606L51.3491 63.8741L52.2032 61.7876H50.3916Z" fill="#F4B513"/>
<path d="M50.4949 65.9606L54.2542 76.3395C54.7405 77.6909 56.5659 77.6548 57.0039 76.2852L63.8267 55.1668L67.375 63.9341C67.606 64.5011 68.1359 64.868 68.7213 64.8662H75.8521C77.8271 64.897 77.8271 61.7579 75.8521 61.7874H69.6854L65.0189 50.2658C64.7815 49.6823 64.2289 49.3123 63.627 49.3339C63.0201 49.3555 62.4887 49.7687 62.2921 50.3742L55.5435 71.2581L52.7767 63.6274L52.2032 61.7876L51.3491 63.8741L50.4949 65.9606Z" fill="#F4B513"/>
</g>
<defs>
<clipPath id="clip0_171_1502">
<rect width="80" height="80" fill="white"/>
</clipPath>
</defs>
</svg>
