<svg width="55" height="55" viewBox="0 0 55 55" fill="none" xmlns="http://www.w3.org/2000/svg">
<path d="M29.0643 35.7638V43.8506H13.0972C10.6119 43.8506 8.59717 41.8359 8.59717 39.3506V31.4703V12.8564C8.59717 10.3712 10.6119 8.35645 13.0972 8.35645H37.3422L33.4105 16.2197L33.383 16.2748L33.3697 16.3348L29.0762 35.6553L29.0643 35.7089V35.7638Z" fill="#182F43"/>
<path d="M29.0643 35.7638V43.8506H13.0972C10.6119 43.8506 8.59717 41.8359 8.59717 39.3506V31.4703V12.8564C8.59717 10.3712 10.6119 8.35645 13.0972 8.35645H37.3422L33.4105 16.2197L33.383 16.2748L33.3697 16.3348L29.0762 35.6553L29.0643 35.7089V35.7638Z" fill="white" fill-opacity="0.17"/>
<path d="M29.0643 35.7638V43.8506H13.0972C10.6119 43.8506 8.59717 41.8359 8.59717 39.3506V31.4703V12.8564C8.59717 10.3712 10.6119 8.35645 13.0972 8.35645H37.3422L33.4105 16.2197L33.383 16.2748L33.3697 16.3348L29.0762 35.6553L29.0643 35.7089V35.7638Z" stroke="#182F43"/>
<path d="M46.3806 8.93007C45.2357 6.35401 43.1606 5.35215 40.2984 6.42542C34.2159 8.93007 29.8033 21.8103 29.2069 26.1038C29.5647 26.8193 30.0417 28.489 30.2803 29.6816C29.994 28.8229 29.2069 27.4156 28.8491 26.8193L28.1335 28.6083C28.4913 28.966 29.9225 33.2595 29.5647 32.9017C29.2785 32.6155 28.2528 30.6357 27.7758 29.6816C27.4895 30.2541 27.418 31.8283 27.418 32.5439C28.5629 33.6888 28.3274 37.3074 28.4467 38.8578C28.4467 43.7237 28.2082 47.3647 28.4467 48.7958L30.2803 49.0021C30.0417 47.8094 29.5647 44.7086 29.5647 41.8463C29.5647 38.9841 30.2803 35.4062 30.638 33.975C30.9958 32.0669 32.427 26.7478 35.2893 20.737C38.1515 14.7262 41.4909 11.3153 43.1606 10.0034C41.968 11.4345 39.5113 15.0839 36.3626 21.0948C32.4268 28.6083 30.6216 38.2685 30.638 38.6263C31.3536 36.8373 34.3352 34.3329 36.0048 33.6173C37.436 31.8284 39.8689 28.2505 39.5827 28.2505C39.2965 28.2505 36.7204 28.6083 34.5739 29.6816C35.7188 28.5367 39.1058 27.2964 40.6562 26.8193C42.0872 25.0304 45.4523 18.4406 46.0228 16.4436C46.4999 14.7739 47.5255 11.5061 46.3806 8.93007Z" fill="#182F43"/>
</svg>
