<svg width="464" height="581" viewBox="0 0 464 581" fill="none" xmlns="http://www.w3.org/2000/svg">
<path d="M236.405 580C359.013 580 458.407 567.589 458.407 552.28C458.407 536.971 359.013 524.561 236.405 524.561C113.796 524.561 14.4023 536.971 14.4023 552.28C14.4023 567.589 113.796 580 236.405 580Z" stroke="#182F43" stroke-width="0.25" stroke-miterlimit="10"/>
<path d="M236.405 573.434C336.688 573.434 417.983 562.736 417.983 549.541C417.983 536.345 336.688 525.647 236.405 525.647C136.122 525.647 54.8262 536.345 54.8262 549.541C54.8262 562.736 136.122 573.434 236.405 573.434Z" stroke="#182F43" stroke-width="0.5" stroke-miterlimit="10"/>
<path d="M236.403 568C313.871 568 376.67 559.735 376.67 549.54C376.67 539.346 313.871 531.081 236.403 531.081C158.936 531.081 96.1367 539.346 96.1367 549.54C96.1367 559.735 158.936 568 236.403 568Z" stroke="#182F43" stroke-miterlimit="10"/>
<path d="M237.965 561.021C301.569 561.021 353.13 555.607 353.13 548.929C353.13 542.251 301.569 536.837 237.965 536.837C174.362 536.837 122.801 542.251 122.801 548.929C122.801 555.607 174.362 561.021 237.965 561.021Z" fill="#FFB700"/>
<path opacity="0.5" d="M237.965 561.021C301.569 561.021 353.13 555.607 353.13 548.929C353.13 542.251 301.569 536.837 237.965 536.837C174.362 536.837 122.801 542.251 122.801 548.929C122.801 555.607 174.362 561.021 237.965 561.021Z" fill="white"/>
<path d="M236.388 432.831C347.228 432.831 437.081 342.977 437.081 232.137C437.081 121.298 347.228 31.4443 236.388 31.4443C125.549 31.4443 35.6953 121.298 35.6953 232.137C35.6953 342.977 125.549 432.831 236.388 432.831Z" stroke="#182F43" stroke-linecap="round" stroke-linejoin="round" stroke-dasharray="2 3"/>
<path d="M163.358 435.007C132.543 435.007 106.91 425.515 88.5479 407.153C34.2914 352.897 62.012 236.861 150.312 148.605C193.078 105.854 243.499 75.8682 292.292 64.1995C341.084 52.5308 382.62 60.5419 408.86 86.841C431.679 109.675 440.92 144.918 434.863 186.055L434.138 185.951C440.15 145.022 430.983 110.001 408.327 87.3445C382.221 61.2231 341.069 53.286 292.469 64.8955C243.869 76.505 193.507 106.447 150.845 149.109C62.8116 237.142 35.1058 352.66 89.0662 406.605C110.553 428.092 142.094 437.332 180.284 433.334L180.358 434.074C174.711 434.679 169.037 434.991 163.358 435.007V435.007Z" fill="#FFB700"/>
<path d="M322.898 401.008C272.018 401.008 212.668 380.662 159.477 340.858C61.4036 267.47 20.8741 155.314 69.1482 90.8395C90.3089 62.5562 126.292 46.8893 170.45 46.7412V47.4816C126.529 47.6297 90.7679 63.1781 69.7553 91.2837C21.7626 155.432 62.218 267.129 159.966 340.266C257.714 413.403 376.281 420.718 424.289 356.555C444.161 329.974 449.596 295.013 439.985 255.445L440.711 255.268C450.366 295.072 444.887 330.241 424.881 356.984C402.758 386.511 365.842 400.994 322.898 401.008Z" fill="#FFB700"/>
<path d="M142.625 314.796C127.044 314.871 111.478 313.802 96.0537 311.598C50.1488 304.771 21.5546 287.787 15.7498 263.768C9.94506 239.749 27.5962 211.599 65.3715 184.545C103.147 157.491 156.396 134.805 215.466 120.53C274.535 106.255 332.345 102.139 378.206 108.95C424.066 115.762 452.72 132.747 458.524 156.78C464.329 180.814 446.678 208.934 408.903 235.988C371.127 263.042 317.893 285.714 258.809 299.988C218.338 309.762 178.46 314.796 142.625 314.796ZM331.709 106.537C296.702 106.537 256.928 111.275 215.628 121.256C156.648 135.501 103.428 158.187 65.8009 185.123C28.1738 212.058 10.7447 239.912 16.4754 263.605C22.2061 287.298 50.5339 304.105 96.1722 310.872C141.81 317.64 199.651 313.553 258.631 299.307L258.72 299.663L258.631 299.307C380.308 269.913 469.66 206.017 457.799 156.987C449.965 124.528 399.885 106.537 331.709 106.537Z" fill="#FFB700"/>
<path d="M186.634 457.457C183.641 457.451 180.66 457.098 177.749 456.405C153.715 450.6 136.879 421.473 130.363 374.384C123.848 327.294 128.29 268.18 142.935 207.542C157.58 146.903 180.651 92.1575 207.913 53.3605C235.174 14.5635 263.502 -3.76886 287.536 2.03589C311.569 7.84063 328.406 36.968 334.921 84.0427C341.437 131.117 336.98 190.261 322.334 250.899C307.689 311.538 284.559 366.284 257.298 405.125C233.309 439.183 208.579 457.457 186.634 457.457ZM278.532 1.72492C230.791 1.72492 171.915 90.114 143.542 207.719C113.452 332.566 128.764 443.818 177.853 455.68C201.545 461.41 229.562 443.285 256.69 404.651C283.819 366.017 306.934 311.257 321.564 250.648L321.92 250.737L321.564 250.648C351.728 125.772 336.372 14.5339 287.254 2.68744C284.396 2.01973 281.468 1.69659 278.532 1.72492Z" fill="#FFB700"/>
<path d="M262.792 395.175C263.31 395.691 263.97 396.043 264.688 396.185C265.406 396.327 266.15 396.253 266.825 395.973C267.501 395.692 268.079 395.218 268.485 394.609C268.892 394.001 269.109 393.285 269.109 392.554C269.109 391.822 268.892 391.106 268.485 390.498C268.079 389.889 267.501 389.415 266.825 389.134C266.15 388.854 265.406 388.78 264.688 388.922C263.97 389.064 263.31 389.416 262.792 389.933C262.103 390.631 261.717 391.572 261.717 392.554C261.717 393.535 262.103 394.476 262.792 395.175V395.175Z" fill="#FFB700"/>
<path d="M265.413 396.625C264.463 396.631 263.54 396.307 262.802 395.709C262.064 395.11 261.557 394.273 261.368 393.342C261.178 392.411 261.318 391.443 261.762 390.603C262.207 389.764 262.93 389.105 263.807 388.739C264.683 388.372 265.66 388.322 266.57 388.596C267.48 388.87 268.266 389.452 268.795 390.241C269.324 391.031 269.562 391.979 269.469 392.925C269.376 393.87 268.958 394.755 268.286 395.426C267.91 395.807 267.463 396.109 266.97 396.314C266.477 396.52 265.947 396.626 265.413 396.625ZM265.413 389.221C264.865 389.221 264.325 389.356 263.841 389.614C263.358 389.872 262.945 390.245 262.64 390.701C262.336 391.156 262.148 391.68 262.094 392.226C262.04 392.771 262.122 393.321 262.332 393.828C262.541 394.334 262.873 394.781 263.296 395.129C263.72 395.477 264.223 395.714 264.761 395.821C265.298 395.928 265.854 395.901 266.378 395.741C266.903 395.582 267.38 395.296 267.767 394.908C268.391 394.283 268.742 393.436 268.742 392.553C268.742 391.67 268.391 390.823 267.767 390.199C267.459 389.888 267.092 389.642 266.688 389.474C266.284 389.306 265.85 389.22 265.413 389.221V389.221Z" fill="#FFB700"/>
<path d="M125.566 316.084C126.084 316.601 126.744 316.952 127.462 317.094C128.18 317.236 128.923 317.163 129.599 316.882C130.275 316.602 130.853 316.127 131.259 315.519C131.666 314.91 131.883 314.195 131.883 313.463C131.883 312.731 131.666 312.016 131.259 311.407C130.853 310.798 130.275 310.324 129.599 310.043C128.923 309.763 128.18 309.689 127.462 309.831C126.744 309.973 126.084 310.325 125.566 310.842C125.221 311.186 124.948 311.594 124.761 312.044C124.575 312.494 124.479 312.976 124.479 313.463C124.479 313.95 124.575 314.432 124.761 314.882C124.948 315.331 125.221 315.74 125.566 316.084Z" fill="#FFB700"/>
<path d="M128.171 317.535C127.633 317.528 127.101 317.412 126.608 317.196C126.114 316.98 125.669 316.667 125.298 316.277V316.277C124.638 315.611 124.228 314.736 124.139 313.802C124.051 312.868 124.289 311.932 124.812 311.153C125.336 310.375 126.114 309.802 127.013 309.532C127.911 309.263 128.876 309.313 129.742 309.675C130.608 310.036 131.321 310.687 131.762 311.515C132.202 312.344 132.341 313.3 132.156 314.219C131.971 315.139 131.473 315.967 130.746 316.56C130.019 317.154 129.11 317.478 128.171 317.476V317.535ZM128.171 310.131C127.513 310.132 126.869 310.328 126.322 310.694C125.774 311.06 125.348 311.58 125.096 312.189C124.844 312.797 124.778 313.466 124.906 314.112C125.035 314.758 125.351 315.352 125.817 315.818C126.451 316.424 127.294 316.763 128.171 316.763C129.048 316.763 129.892 316.424 130.526 315.818C130.991 315.352 131.308 314.758 131.436 314.112C131.565 313.466 131.499 312.797 131.247 312.189C130.995 311.58 130.568 311.06 130.021 310.694C129.473 310.328 128.83 310.132 128.171 310.131Z" fill="#FFB700"/>
<path d="M76.4337 255.312C76.951 255.831 77.6106 256.184 78.329 256.328C79.0475 256.472 79.7924 256.399 80.4696 256.119C81.1467 255.84 81.7255 255.365 82.1328 254.756C82.5401 254.147 82.7575 253.431 82.7575 252.698C82.7575 251.965 82.5401 251.249 82.1328 250.64C81.7255 250.031 81.1467 249.557 80.4696 249.277C79.7924 248.997 79.0475 248.924 78.329 249.068C77.6106 249.212 76.951 249.566 76.4337 250.084C75.742 250.778 75.3535 251.718 75.3535 252.698C75.3535 253.678 75.742 254.618 76.4337 255.312V255.312Z" fill="#FFB700"/>
<path d="M79.0396 256.764C78.097 256.763 77.1838 256.436 76.4555 255.838C75.7273 255.239 75.2292 254.407 75.0462 253.482C74.8632 252.557 75.0066 251.598 75.452 250.767C75.8974 249.936 76.6171 249.286 77.4885 248.927C78.3599 248.567 79.3289 248.521 80.2304 248.797C81.1318 249.072 81.9099 249.652 82.4318 250.436C82.9538 251.221 83.1873 252.163 83.0926 253.101C82.9978 254.038 82.5807 254.914 81.9123 255.579C81.149 256.338 80.1161 256.764 79.0396 256.764V256.764ZM79.0396 249.36C78.2724 249.364 77.5304 249.634 76.9399 250.123C76.3494 250.613 75.947 251.293 75.8011 252.046C75.6552 252.799 75.7749 253.579 76.1398 254.254C76.5047 254.929 77.0923 255.457 77.8024 255.747C78.5125 256.037 79.3013 256.072 80.0345 255.846C80.7676 255.62 81.3998 255.147 81.8233 254.508C82.2469 253.868 82.4355 253.101 82.3573 252.338C82.279 251.575 81.9386 250.862 81.3941 250.322C80.7641 249.709 79.9184 249.369 79.0396 249.374V249.36Z" fill="#FFB700"/>
<path d="M51.4219 196.583C51.94 197.1 52.5997 197.451 53.3175 197.593C54.0354 197.735 54.7793 197.662 55.4552 197.381C56.1311 197.101 56.7087 196.626 57.1151 196.018C57.5214 195.409 57.7383 194.694 57.7383 193.962C57.7383 193.23 57.5214 192.515 57.1151 191.906C56.7087 191.297 56.1311 190.823 55.4552 190.542C54.7793 190.262 54.0354 190.188 53.3175 190.33C52.5997 190.472 51.94 190.824 51.4219 191.341C51.0754 191.684 50.8003 192.092 50.6125 192.542C50.4248 192.992 50.3281 193.474 50.3281 193.962C50.3281 194.449 50.4248 194.932 50.6125 195.382C50.8003 195.832 51.0754 196.24 51.4219 196.583V196.583Z" fill="#FFB700"/>
<path d="M54.0296 198.035C52.9538 198.032 51.9221 197.607 51.1569 196.85C50.5876 196.281 50.1999 195.555 50.043 194.765C49.886 193.975 49.9667 193.157 50.275 192.413C50.5833 191.669 51.1052 191.033 51.7748 190.586C52.4445 190.138 53.2317 189.899 54.037 189.899C54.8424 189.899 55.6296 190.138 56.2992 190.586C56.9689 191.033 57.4908 191.669 57.7991 192.413C58.1074 193.157 58.1881 193.975 58.0311 194.765C57.8742 195.555 57.4865 196.281 56.9172 196.85C56.1484 197.61 55.1107 198.036 54.0296 198.035V198.035ZM51.6752 196.332C52.141 196.799 52.7346 197.116 53.3811 197.245C54.0275 197.374 54.6976 197.308 55.3066 197.056C55.9157 196.804 56.4363 196.377 56.8026 195.829C57.1689 195.281 57.3644 194.637 57.3644 193.978C57.3644 193.319 57.1689 192.674 56.8026 192.126C56.4363 191.578 55.9157 191.151 55.3066 190.899C54.6976 190.647 54.0275 190.581 53.3811 190.71C52.7346 190.839 52.141 191.157 51.6752 191.623C51.0512 192.248 50.7008 193.095 50.7008 193.978C50.7008 194.861 51.0512 195.707 51.6752 196.332V196.332Z" fill="#FFB700"/>
<path d="M60.7204 306.489C61.2385 307.006 61.8982 307.357 62.616 307.5C63.3339 307.642 64.0778 307.568 64.7537 307.287C65.4296 307.007 66.0072 306.532 66.4136 305.924C66.8199 305.315 67.0368 304.6 67.0368 303.868C67.0368 303.136 66.8199 302.421 66.4136 301.812C66.0072 301.204 65.4296 300.729 64.7537 300.449C64.0778 300.168 63.3339 300.094 62.616 300.236C61.8982 300.379 61.2385 300.73 60.7204 301.247C60.3757 301.591 60.1021 301.999 59.9155 302.449C59.7289 302.899 59.6328 303.381 59.6328 303.868C59.6328 304.355 59.7289 304.837 59.9155 305.287C60.1021 305.737 60.3757 306.145 60.7204 306.489V306.489Z" fill="#FFB700"/>
<path d="M63.3444 307.939C62.2634 307.94 61.2256 307.515 60.4568 306.755C59.6963 305.989 59.2695 304.954 59.2695 303.875C59.2695 302.795 59.6963 301.76 60.4568 300.994C60.9295 300.519 61.512 300.169 62.1528 299.973C62.7936 299.777 63.4728 299.742 64.1301 299.872C64.7875 300.001 65.4028 300.291 65.9214 300.715C66.44 301.139 66.8459 301.685 67.1032 302.304C67.3604 302.922 67.461 303.595 67.396 304.262C67.3311 304.929 67.1026 305.569 66.7308 306.127C66.3591 306.684 65.8555 307.141 65.2647 307.457C64.674 307.774 64.0144 307.939 63.3444 307.939V307.939ZM63.3444 300.535C62.6858 300.536 62.0422 300.732 61.4949 301.098C60.9475 301.464 60.5209 301.984 60.269 302.592C60.017 303.201 59.9511 303.87 60.0794 304.516C60.2077 305.162 60.5246 305.756 60.9899 306.222V306.222C61.6238 306.828 62.4672 307.167 63.3444 307.167C64.2216 307.167 65.065 306.828 65.6989 306.222C66.1642 305.756 66.4811 305.162 66.6094 304.516C66.7377 303.87 66.6717 303.201 66.4198 302.592C66.1679 301.984 65.7413 301.464 65.1939 301.098C64.6465 300.732 64.0029 300.536 63.3444 300.535V300.535Z" fill="#FFB700"/>
<path d="M163.357 137.559C163.874 138.078 164.534 138.431 165.252 138.575C165.971 138.719 166.716 138.646 167.393 138.366C168.07 138.087 168.649 137.612 169.056 137.003C169.463 136.394 169.681 135.678 169.681 134.945C169.681 134.212 169.463 133.496 169.056 132.887C168.649 132.278 168.07 131.804 167.393 131.524C166.716 131.244 165.971 131.171 165.252 131.315C164.534 131.459 163.874 131.813 163.357 132.332C163.013 132.674 162.739 133.081 162.553 133.53C162.366 133.979 162.271 134.459 162.271 134.945C162.271 135.431 162.366 135.912 162.553 136.36C162.739 136.809 163.013 137.216 163.357 137.559V137.559Z" fill="#FFB700"/>
<path d="M165.978 139.009C165.308 139.011 164.647 138.847 164.054 138.533C163.462 138.218 162.957 137.762 162.583 137.205C162.21 136.648 161.979 136.008 161.913 135.34C161.846 134.673 161.945 134 162.202 133.38C162.458 132.76 162.864 132.213 163.382 131.788C163.901 131.363 164.516 131.072 165.174 130.942C165.832 130.812 166.512 130.846 167.153 131.042C167.795 131.237 168.378 131.588 168.851 132.064C169.418 132.633 169.803 133.358 169.959 134.146C170.115 134.934 170.035 135.751 169.728 136.493C169.421 137.235 168.901 137.87 168.234 138.318C167.566 138.766 166.782 139.006 165.978 139.009V139.009ZM165.978 131.605C165.541 131.601 165.108 131.684 164.704 131.849C164.3 132.014 163.933 132.258 163.624 132.567C163.068 133.113 162.719 133.835 162.636 134.609C162.553 135.384 162.742 136.163 163.171 136.814C163.599 137.465 164.24 137.947 164.984 138.177C165.728 138.407 166.529 138.372 167.25 138.078C167.971 137.783 168.568 137.247 168.937 136.561C169.307 135.875 169.427 135.082 169.277 134.318C169.126 133.553 168.715 132.865 168.114 132.37C167.512 131.875 166.757 131.605 165.978 131.605V131.605Z" fill="#FFB700"/>
<path d="M327.637 61.09C328.154 61.6089 328.814 61.9627 329.532 62.1064C330.251 62.2502 330.996 62.1776 331.673 61.8977C332.35 61.6179 332.929 61.1434 333.336 60.5343C333.744 59.9253 333.961 59.2091 333.961 58.4764C333.961 57.7437 333.744 57.0275 333.336 56.4185C332.929 55.8094 332.35 55.335 331.673 55.0551C330.996 54.7752 330.251 54.7026 329.532 54.8464C328.814 54.9902 328.154 55.3439 327.637 55.8628C327.293 56.2054 327.02 56.6127 326.833 57.0612C326.647 57.5097 326.551 57.9907 326.551 58.4764C326.551 58.9621 326.647 59.4431 326.833 59.8916C327.02 60.3401 327.293 60.7474 327.637 61.09V61.09Z" fill="#FFB700"/>
<path d="M330.243 62.5413C329.71 62.5439 329.181 62.4405 328.688 62.2371C328.195 62.0338 327.747 61.7345 327.371 61.3566C326.992 60.9784 326.692 60.5294 326.488 60.0352C326.283 59.541 326.178 59.0114 326.178 58.4765C326.178 57.9416 326.283 57.4119 326.488 56.9177C326.692 56.4236 326.992 55.9745 327.371 55.5963C327.749 55.2181 328.198 54.9181 328.692 54.7134C329.186 54.5087 329.716 54.4033 330.251 54.4033C330.786 54.4033 331.315 54.5087 331.81 54.7134C332.304 54.9181 332.753 55.2181 333.131 55.5963C333.892 56.362 334.318 57.3973 334.318 58.4765C334.318 59.5556 333.892 60.591 333.131 61.3566C332.752 61.7356 332.302 62.0355 331.806 62.2389C331.31 62.4422 330.779 62.545 330.243 62.5413V62.5413ZM330.243 55.1373C329.807 55.1373 329.374 55.2236 328.971 55.3912C328.567 55.5588 328.201 55.8044 327.893 56.114C327.585 56.4236 327.341 56.791 327.175 57.1952C327.009 57.5993 326.925 58.0322 326.926 58.4691C326.924 58.9056 327.008 59.3382 327.173 59.7422C327.338 60.1463 327.582 60.5137 327.889 60.8235V60.8235C328.525 61.4309 329.371 61.7699 330.251 61.7699C331.131 61.7699 331.976 61.4309 332.613 60.8235C333.233 60.1969 333.581 59.3508 333.581 58.4691C333.581 57.5873 333.233 56.7412 332.613 56.1146C331.981 55.4914 331.131 55.1406 330.243 55.1373V55.1373Z" fill="#FFB700"/>
<path d="M334.612 108.773C335.129 109.292 335.789 109.645 336.507 109.789C337.225 109.933 337.97 109.86 338.648 109.58C339.325 109.301 339.904 108.826 340.311 108.217C340.718 107.608 340.936 106.892 340.936 106.159C340.936 105.426 340.718 104.71 340.311 104.101C339.904 103.492 339.325 103.018 338.648 102.738C337.97 102.458 337.225 102.385 336.507 102.529C335.789 102.673 335.129 103.027 334.612 103.545C334.267 103.888 333.994 104.295 333.808 104.744C333.621 105.192 333.525 105.673 333.525 106.159C333.525 106.645 333.621 107.126 333.808 107.574C333.994 108.023 334.267 108.43 334.612 108.773V108.773Z" fill="#FFB700"/>
<path d="M337.233 110.223C336.697 110.226 336.166 110.124 335.67 109.92C335.175 109.717 334.724 109.417 334.346 109.038C333.585 108.272 333.158 107.237 333.158 106.158C333.158 105.079 333.585 104.043 334.346 103.278C334.818 102.803 335.401 102.452 336.041 102.256C336.682 102.06 337.361 102.025 338.019 102.155C338.676 102.284 339.292 102.574 339.81 102.998C340.329 103.423 340.735 103.968 340.992 104.587C341.249 105.206 341.35 105.878 341.285 106.545C341.22 107.212 340.991 107.852 340.62 108.41C340.248 108.967 339.744 109.424 339.153 109.741C338.563 110.057 337.903 110.222 337.233 110.223ZM334.879 108.505C335.512 109.111 336.356 109.45 337.233 109.45C338.11 109.45 338.954 109.111 339.588 108.505C339.898 108.197 340.145 107.83 340.313 107.426C340.48 107.021 340.566 106.588 340.565 106.15C340.561 105.268 340.21 104.422 339.588 103.796C338.954 103.189 338.11 102.851 337.233 102.851C336.356 102.851 335.512 103.189 334.879 103.796C334.255 104.421 333.904 105.267 333.904 106.15C333.904 107.033 334.255 107.88 334.879 108.505V108.505Z" fill="#FFB700"/>
<path d="M310.772 285.55C311.289 286.069 311.949 286.423 312.667 286.566C313.386 286.71 314.131 286.638 314.808 286.358C315.485 286.078 316.064 285.603 316.471 284.994C316.878 284.385 317.096 283.669 317.096 282.936C317.096 282.204 316.878 281.487 316.471 280.878C316.064 280.269 315.485 279.795 314.808 279.515C314.131 279.235 313.386 279.163 312.667 279.306C311.949 279.45 311.289 279.804 310.772 280.323C310.428 280.665 310.154 281.073 309.968 281.521C309.782 281.97 309.686 282.451 309.686 282.936C309.686 283.422 309.782 283.903 309.968 284.352C310.154 284.8 310.428 285.207 310.772 285.55V285.55Z" fill="#FFB700"/>
<path d="M313.362 287.001C312.281 287.002 311.243 286.576 310.474 285.817V285.817C309.802 285.151 309.383 284.272 309.286 283.331C309.189 282.39 309.422 281.445 309.945 280.657C310.467 279.868 311.247 279.285 312.151 279.007C313.055 278.73 314.028 278.774 314.903 279.133C315.778 279.492 316.501 280.143 316.95 280.976C317.399 281.809 317.544 282.772 317.362 283.7C317.181 284.628 316.683 285.464 315.953 286.066C315.223 286.668 314.308 286.999 313.362 287.001ZM311.007 285.298C311.474 285.762 312.068 286.078 312.713 286.205C313.359 286.333 314.028 286.266 314.636 286.013C315.244 285.76 315.763 285.333 316.129 284.786C316.494 284.238 316.689 283.595 316.689 282.936C316.689 282.278 316.494 281.635 316.129 281.087C315.763 280.539 315.244 280.112 314.636 279.86C314.028 279.607 313.359 279.54 312.713 279.667C312.068 279.795 311.474 280.11 311.007 280.574C310.382 281.202 310.032 282.051 310.032 282.936C310.032 283.822 310.382 284.671 311.007 285.298V285.298Z" fill="#FFB700"/>
<path d="M147.068 435.866C147.586 436.385 148.245 436.739 148.964 436.883C149.682 437.027 150.427 436.954 151.104 436.674C151.781 436.394 152.36 435.92 152.768 435.311C153.175 434.702 153.392 433.985 153.392 433.253C153.392 432.52 153.175 431.804 152.768 431.195C152.36 430.586 151.781 430.111 151.104 429.831C150.427 429.552 149.682 429.479 148.964 429.623C148.245 429.767 147.586 430.12 147.068 430.639C146.377 431.333 145.988 432.273 145.988 433.253C145.988 434.233 146.377 435.172 147.068 435.866V435.866Z" fill="#FFB700"/>
<path d="M149.689 437.332C149.154 437.333 148.625 437.227 148.132 437.021C147.639 436.815 147.192 436.513 146.816 436.132V436.132C146.056 435.367 145.629 434.331 145.629 433.252C145.629 432.173 146.056 431.138 146.816 430.372C147.291 429.9 147.874 429.553 148.515 429.36C149.156 429.167 149.834 429.135 150.49 429.267C151.146 429.399 151.76 429.691 152.276 430.116C152.793 430.541 153.196 431.088 153.452 431.706C153.707 432.325 153.806 432.996 153.74 433.662C153.674 434.328 153.444 434.967 153.072 435.524C152.7 436.08 152.197 436.536 151.607 436.851C151.017 437.167 150.358 437.332 149.689 437.332V437.332ZM147.334 435.614C147.959 436.238 148.806 436.589 149.689 436.589C150.572 436.589 151.419 436.238 152.043 435.614C152.667 434.989 153.018 434.143 153.018 433.26C153.018 432.377 152.667 431.53 152.043 430.905C151.41 430.299 150.566 429.96 149.689 429.96C148.812 429.96 147.968 430.299 147.334 430.905C146.711 431.53 146.36 432.377 146.36 433.26C146.36 434.143 146.711 434.989 147.334 435.614V435.614Z" fill="#FFB700"/>
<path d="M428.524 128.837C429.041 129.356 429.701 129.71 430.419 129.854C431.138 129.997 431.883 129.925 432.56 129.645C433.237 129.365 433.816 128.89 434.223 128.281C434.63 127.672 434.848 126.956 434.848 126.223C434.848 125.491 434.63 124.775 434.223 124.166C433.816 123.557 433.237 123.082 432.56 122.802C431.883 122.522 431.138 122.45 430.419 122.593C429.701 122.737 429.041 123.091 428.524 123.61C428.18 123.952 427.906 124.36 427.72 124.808C427.533 125.257 427.438 125.738 427.438 126.223C427.438 126.709 427.533 127.19 427.72 127.639C427.906 128.087 428.18 128.494 428.524 128.837V128.837Z" fill="#FFB700"/>
<path d="M431.144 130.288C430.596 130.301 430.051 130.203 429.541 130C429.032 129.796 428.57 129.491 428.182 129.103C427.608 128.532 427.216 127.804 427.056 127.011C426.896 126.217 426.976 125.394 427.284 124.646C427.593 123.897 428.116 123.257 428.789 122.807C429.462 122.357 430.253 122.116 431.063 122.116C431.872 122.116 432.663 122.357 433.336 122.807C434.009 123.257 434.533 123.897 434.841 124.646C435.15 125.394 435.229 126.217 435.069 127.011C434.909 127.804 434.517 128.532 433.943 129.103C433.2 129.848 432.196 130.273 431.144 130.288ZM431.144 122.884C430.485 122.884 429.842 123.08 429.295 123.446C428.747 123.812 428.321 124.332 428.069 124.941C427.817 125.549 427.751 126.219 427.879 126.865C428.007 127.511 428.324 128.104 428.79 128.57C429.423 129.176 430.267 129.515 431.144 129.515C432.021 129.515 432.865 129.176 433.499 128.57C433.964 128.104 434.281 127.511 434.409 126.865C434.537 126.219 434.471 125.549 434.219 124.941C433.968 124.332 433.541 123.812 432.994 123.446C432.446 123.08 431.803 122.884 431.144 122.884V122.884Z" fill="#FFB700"/>
<path d="M186.767 32.0379L186.034 32.1426L187.282 40.8795L188.015 40.7748L186.767 32.0379Z" fill="#FFB700"/>
<path d="M306.877 434.014C301.199 434.008 295.525 433.706 289.878 433.111L289.952 432.37C328.141 436.369 359.683 427.128 381.169 405.716C435.129 351.756 407.409 236.238 319.39 148.219C276.728 105.557 226.425 75.66 177.766 63.9913C129.107 52.3226 88.0146 60.3337 61.8932 86.4402C39.2369 109.097 30.0856 144.192 36.0976 185.062L35.372 185.165C29.3156 143.984 38.541 108.741 61.3749 85.9516C87.674 59.6525 129.077 51.597 177.944 63.2953C226.81 74.9937 277.157 104.965 319.908 147.701C408.223 236.016 435.944 352.052 381.687 406.249C363.325 424.522 337.678 434.014 306.877 434.014Z" fill="#FFB700"/>
<path d="M147.14 400.12C102.716 400.12 66.8362 384.675 45.3942 356.021C25.3738 329.263 19.9096 294.094 29.5645 254.305L30.2901 254.483C20.6796 294.05 26.0994 329.011 45.9866 355.577C69.2203 386.674 109.498 402.059 159.386 398.994C209.275 395.929 263.013 374.724 310.31 339.273C408.043 266.137 448.513 154.44 400.505 90.2914C379.493 62.1562 343.731 46.6522 299.811 46.5041V45.7637C343.968 45.9118 379.937 61.5638 401.098 89.8471C449.357 154.321 408.827 266.492 310.769 339.866C263.279 375.405 209.541 396.669 159.446 399.735C155.28 399.981 151.178 400.11 147.14 400.12Z" fill="#FFB700"/>
<path d="M328.321 313.997C292.545 313.997 252.765 308.979 212.364 299.193C153.417 284.922 100.219 262.183 62.5954 235.224C24.9723 208.266 7.28386 180.049 13.0766 156.022C18.8693 131.995 47.3304 115.014 93.2141 108.204C139.098 101.394 196.655 105.525 255.632 119.781C314.608 134.037 367.792 156.792 405.415 183.765C443.038 210.738 460.712 238.94 454.919 262.952C449.126 286.965 420.665 303.96 374.781 310.77C359.394 312.984 343.866 314.062 328.321 313.997ZM139.733 105.761C124.224 105.689 108.731 106.753 93.3766 108.944C47.8033 115.725 19.5638 132.513 13.845 156.214C8.12617 179.916 25.6669 207.777 63.0683 234.676C100.47 261.576 153.712 284.285 212.585 298.527C334.011 327.913 442.417 311.851 454.254 262.834C459.973 239.147 442.432 211.286 405.031 184.372C367.629 157.458 314.372 134.763 255.499 120.521C215.097 110.706 175.391 105.761 139.733 105.761Z" fill="#FFB700"/>
<path d="M283.584 456.464C261.654 456.464 236.924 438.25 212.92 404.103C185.674 365.291 162.573 310.531 147.943 249.907C133.313 189.283 128.841 129.962 135.371 83.0649C141.901 36.1679 158.768 6.86285 182.757 1.05811C206.746 -4.74664 235.058 13.4672 262.379 52.3679C289.7 91.2686 312.727 145.925 327.357 206.564C341.987 267.203 346.459 326.509 339.929 373.406C333.398 420.303 316.577 449.549 292.632 455.472C289.667 456.164 286.629 456.498 283.584 456.464V456.464ZM191.775 0.732336C188.812 0.726464 185.859 1.07445 182.979 1.7689C159.286 7.4996 142.627 36.4049 136.126 83.213C129.625 130.021 134.053 189.238 148.683 249.774C163.314 310.309 186.34 364.995 213.542 403.777C240.745 442.559 268.673 460.521 292.395 454.791C341.498 442.841 356.84 331.603 326.69 206.697C312.075 146.162 289.034 91.4907 261.831 52.6937C237.976 18.8425 213.454 0.732336 191.76 0.732336H191.775Z" fill="#FFB700"/>
<path d="M207.425 394.183C206.908 394.702 206.248 395.055 205.53 395.199C204.812 395.343 204.067 395.27 203.39 394.991C202.712 394.711 202.134 394.236 201.726 393.627C201.319 393.018 201.102 392.302 201.102 391.569C201.102 390.837 201.319 390.12 201.726 389.511C202.134 388.902 202.712 388.428 203.39 388.148C204.067 387.868 204.812 387.795 205.53 387.939C206.248 388.083 206.908 388.437 207.425 388.956C207.77 389.298 208.043 389.705 208.229 390.154C208.416 390.603 208.512 391.083 208.512 391.569C208.512 392.055 208.416 392.536 208.229 392.984C208.043 393.433 207.77 393.84 207.425 394.183V394.183Z" fill="#FFB700"/>
<path d="M204.819 395.633C203.738 395.634 202.7 395.209 201.931 394.449C201.357 393.878 200.965 393.15 200.805 392.356C200.645 391.563 200.725 390.74 201.033 389.991C201.342 389.243 201.865 388.603 202.538 388.153C203.211 387.702 204.002 387.462 204.812 387.462C205.621 387.462 206.412 387.702 207.085 388.153C207.758 388.603 208.282 389.243 208.59 389.991C208.899 390.74 208.978 391.563 208.818 392.356C208.658 393.15 208.266 393.878 207.692 394.449C206.928 395.208 205.896 395.634 204.819 395.633V395.633ZM204.819 388.229C203.936 388.23 203.089 388.582 202.465 389.207C202.137 389.512 201.875 389.879 201.693 390.288C201.51 390.697 201.413 391.138 201.405 391.585C201.397 392.033 201.479 392.477 201.647 392.892C201.814 393.307 202.064 393.684 202.38 394C202.696 394.317 203.073 394.566 203.488 394.733C203.903 394.901 204.347 394.983 204.795 394.975C205.242 394.968 205.683 394.87 206.092 394.688C206.501 394.505 206.868 394.243 207.173 393.916C207.639 393.45 207.956 392.856 208.084 392.21C208.212 391.564 208.146 390.895 207.894 390.286C207.643 389.678 207.216 389.158 206.669 388.792C206.121 388.426 205.478 388.23 204.819 388.229V388.229Z" fill="#FFB700"/>
<path d="M344.666 315.093C344.148 315.612 343.489 315.966 342.77 316.109C342.052 316.253 341.307 316.181 340.63 315.901C339.953 315.621 339.374 315.146 338.967 314.537C338.559 313.928 338.342 313.212 338.342 312.479C338.342 311.747 338.559 311.03 338.967 310.421C339.374 309.812 339.953 309.338 340.63 309.058C341.307 308.778 342.052 308.706 342.77 308.849C343.489 308.993 344.148 309.347 344.666 309.866C345.01 310.208 345.283 310.616 345.47 311.064C345.656 311.513 345.752 311.994 345.752 312.479C345.752 312.965 345.656 313.446 345.47 313.895C345.283 314.343 345.01 314.75 344.666 315.093Z" fill="#FFB700"/>
<path d="M342.06 316.557C341.114 316.561 340.195 316.237 339.461 315.64C338.727 315.043 338.223 314.21 338.035 313.282C337.847 312.355 337.986 311.391 338.429 310.555C338.873 309.719 339.592 309.063 340.465 308.698C341.339 308.334 342.311 308.283 343.217 308.556C344.124 308.829 344.907 309.407 345.434 310.193C345.961 310.979 346.199 311.923 346.108 312.865C346.017 313.807 345.601 314.688 344.933 315.357V315.357C344.557 315.737 344.109 316.039 343.616 316.245C343.123 316.451 342.594 316.557 342.06 316.557V316.557ZM342.06 309.153C341.62 309.152 341.184 309.238 340.778 309.406C340.371 309.573 340.002 309.82 339.691 310.13C339.382 310.439 339.138 310.806 338.972 311.21C338.807 311.615 338.724 312.048 338.728 312.485C338.726 313.366 339.072 314.212 339.691 314.839C340.324 315.445 341.168 315.784 342.045 315.784C342.922 315.784 343.766 315.445 344.399 314.839V314.839C345.023 314.214 345.374 313.368 345.374 312.485C345.374 311.602 345.023 310.755 344.399 310.13C344.094 309.82 343.73 309.573 343.328 309.406C342.926 309.238 342.495 309.152 342.06 309.153Z" fill="#FFB700"/>
<path d="M393.799 254.335C393.281 254.852 392.621 255.203 391.903 255.345C391.185 255.487 390.441 255.414 389.766 255.133C389.09 254.853 388.512 254.378 388.106 253.769C387.699 253.161 387.482 252.446 387.482 251.714C387.482 250.982 387.699 250.267 388.106 249.658C388.512 249.049 389.09 248.575 389.766 248.294C390.441 248.014 391.185 247.94 391.903 248.082C392.621 248.224 393.281 248.576 393.799 249.093C394.144 249.437 394.417 249.845 394.604 250.295C394.79 250.745 394.886 251.227 394.886 251.714C394.886 252.201 394.79 252.683 394.604 253.133C394.417 253.582 394.144 253.991 393.799 254.335Z" fill="#FFB700"/>
<path d="M391.194 255.786C390.244 255.792 389.321 255.467 388.583 254.869C387.846 254.27 387.339 253.433 387.149 252.502C386.959 251.571 387.099 250.603 387.544 249.764C387.988 248.924 388.711 248.265 389.588 247.899C390.465 247.533 391.441 247.482 392.351 247.756C393.261 248.03 394.048 248.612 394.576 249.401C395.105 250.191 395.343 251.139 395.25 252.085C395.157 253.031 394.739 253.915 394.067 254.586V254.586C393.691 254.966 393.244 255.268 392.75 255.473C392.257 255.679 391.728 255.785 391.194 255.786V255.786ZM391.194 248.382C390.756 248.379 390.322 248.464 389.918 248.632C389.513 248.799 389.147 249.047 388.84 249.359C388.251 249.991 387.931 250.826 387.946 251.689C387.961 252.552 388.311 253.376 388.921 253.986C389.532 254.597 390.355 254.946 391.218 254.962C392.082 254.977 392.917 254.656 393.549 254.068V254.068C394.172 253.443 394.523 252.596 394.523 251.713C394.523 250.83 394.172 249.984 393.549 249.359C393.241 249.047 392.874 248.801 392.47 248.633C392.066 248.465 391.632 248.38 391.194 248.382V248.382Z" fill="#FFB700"/>
<path d="M418.81 195.591C418.293 196.11 417.633 196.464 416.915 196.607C416.196 196.751 415.451 196.679 414.774 196.399C414.097 196.119 413.518 195.644 413.111 195.035C412.704 194.426 412.486 193.71 412.486 192.977C412.486 192.245 412.704 191.529 413.111 190.919C413.518 190.31 414.097 189.836 414.774 189.556C415.451 189.276 416.196 189.204 416.915 189.347C417.633 189.491 418.293 189.845 418.81 190.364C419.154 190.706 419.428 191.114 419.614 191.562C419.8 192.011 419.896 192.492 419.896 192.977C419.896 193.463 419.8 193.944 419.614 194.393C419.428 194.841 419.154 195.248 418.81 195.591V195.591Z" fill="#FFB700"/>
<path d="M416.188 197.057C415.243 197.058 414.326 196.731 413.595 196.132C412.863 195.533 412.362 194.699 412.176 193.772C411.991 192.844 412.132 191.881 412.577 191.047C413.022 190.213 413.743 189.558 414.616 189.195C415.489 188.833 416.461 188.784 417.366 189.058C418.272 189.331 419.054 189.91 419.58 190.696C420.106 191.482 420.343 192.426 420.251 193.367C420.16 194.308 419.744 195.188 419.076 195.857V195.857C418.698 196.238 418.248 196.541 417.752 196.746C417.257 196.952 416.725 197.058 416.188 197.057V197.057ZM416.188 189.653C415.751 189.651 415.317 189.736 414.913 189.904C414.508 190.072 414.142 190.319 413.834 190.63C413.21 191.255 412.86 192.102 412.86 192.985C412.86 193.868 413.21 194.714 413.834 195.339C414.468 195.946 415.311 196.284 416.188 196.284C417.066 196.284 417.909 195.946 418.543 195.339C419.167 194.714 419.517 193.868 419.517 192.985C419.517 192.102 419.167 191.255 418.543 190.63C418.236 190.318 417.869 190.071 417.465 189.903C417.06 189.735 416.626 189.65 416.188 189.653V189.653Z" fill="#FFB700"/>
<path d="M409.51 305.496C408.993 306.015 408.333 306.369 407.615 306.513C406.897 306.657 406.152 306.584 405.474 306.304C404.797 306.024 404.218 305.55 403.811 304.941C403.404 304.332 403.187 303.615 403.187 302.883C403.187 302.15 403.404 301.434 403.811 300.825C404.218 300.216 404.797 299.741 405.474 299.461C406.152 299.182 406.897 299.109 407.615 299.253C408.333 299.396 408.993 299.75 409.51 300.269C410.202 300.963 410.591 301.903 410.591 302.883C410.591 303.862 410.202 304.802 409.51 305.496Z" fill="#FFB700"/>
<path d="M406.89 306.948C405.812 306.948 404.779 306.521 404.015 305.76C403.252 305 402.821 303.968 402.817 302.89C402.815 302.22 402.979 301.559 403.293 300.967C403.608 300.374 404.064 299.869 404.621 299.495C405.178 299.122 405.818 298.891 406.486 298.825C407.153 298.758 407.826 298.858 408.446 299.114C409.066 299.37 409.613 299.776 410.038 300.294C410.463 300.813 410.754 301.428 410.884 302.086C411.014 302.744 410.98 303.424 410.785 304.065C410.589 304.707 410.238 305.29 409.762 305.763V305.763C409.386 306.142 408.939 306.441 408.445 306.645C407.952 306.848 407.423 306.951 406.89 306.948V306.948ZM406.89 299.544C406.006 299.544 405.158 299.895 404.534 300.52C403.909 301.144 403.558 301.992 403.558 302.876C403.558 303.534 403.754 304.178 404.12 304.725C404.486 305.272 405.007 305.699 405.615 305.951C406.223 306.203 406.893 306.269 407.539 306.141C408.185 306.012 408.778 305.695 409.244 305.23V305.23C409.709 304.764 410.026 304.171 410.155 303.525C410.283 302.879 410.217 302.209 409.965 301.601C409.713 300.992 409.286 300.472 408.739 300.106C408.192 299.74 407.548 299.544 406.89 299.544V299.544Z" fill="#FFB700"/>
<path d="M306.876 136.581C306.358 137.098 305.698 137.449 304.98 137.591C304.263 137.733 303.519 137.66 302.843 137.379C302.167 137.099 301.589 136.624 301.183 136.016C300.776 135.407 300.56 134.692 300.56 133.96C300.56 133.228 300.776 132.513 301.183 131.904C301.589 131.295 302.167 130.821 302.843 130.541C303.519 130.26 304.263 130.186 304.98 130.328C305.698 130.47 306.358 130.822 306.876 131.339C307.565 132.037 307.951 132.979 307.951 133.96C307.951 134.941 307.565 135.882 306.876 136.581V136.581Z" fill="#FFB700"/>
<path d="M304.255 138.033C303.72 138.036 303.19 137.931 302.697 137.725C302.204 137.519 301.757 137.216 301.382 136.834C301.002 136.457 300.7 136.008 300.494 135.514C300.289 135.019 300.183 134.489 300.183 133.954C300.183 133.418 300.289 132.888 300.494 132.394C300.7 131.899 301.002 131.451 301.382 131.073C301.757 130.694 302.205 130.393 302.698 130.189C303.192 129.986 303.721 129.884 304.255 129.889C304.788 129.886 305.317 129.99 305.81 130.193C306.303 130.396 306.751 130.696 307.128 131.073C307.692 131.645 308.076 132.37 308.231 133.158C308.386 133.947 308.305 134.763 307.999 135.506C307.692 136.248 307.174 136.884 306.508 137.334C305.842 137.783 305.058 138.027 304.255 138.033V138.033ZM304.255 130.629C303.817 130.626 303.383 130.711 302.979 130.879C302.574 131.047 302.208 131.294 301.9 131.607C301.277 132.231 300.926 133.078 300.926 133.961C300.926 134.844 301.277 135.691 301.9 136.316C302.534 136.922 303.378 137.26 304.255 137.26C305.132 137.26 305.976 136.922 306.609 136.316V136.316C307.075 135.85 307.392 135.256 307.52 134.61C307.648 133.964 307.582 133.295 307.33 132.686C307.078 132.078 306.652 131.558 306.104 131.192C305.557 130.826 304.914 130.63 304.255 130.629V130.629Z" fill="#FFB700"/>
<path d="M142.598 60.0974C142.08 60.6142 141.42 60.9659 140.702 61.108C139.984 61.2501 139.24 61.1762 138.564 60.8957C137.888 60.6153 137.311 60.1408 136.904 59.5322C136.498 58.9236 136.281 58.2082 136.281 57.4764C136.281 56.7446 136.498 56.0293 136.904 55.4207C137.311 54.8121 137.888 54.3376 138.564 54.0571C139.24 53.7766 139.984 53.7028 140.702 53.8449C141.42 53.9869 142.08 54.3386 142.598 54.8554C143.287 55.5537 143.673 56.4954 143.673 57.4764C143.673 58.4575 143.287 59.3991 142.598 60.0974V60.0974Z" fill="#FFB700"/>
<path d="M139.974 61.5793C139.036 61.5621 138.132 61.2213 137.416 60.6146C136.7 60.0079 136.216 59.1725 136.045 58.2497C135.874 57.327 136.027 56.3735 136.478 55.5505C136.929 54.7276 137.65 54.0856 138.52 53.7333C139.39 53.3811 140.355 53.34 141.251 53.6172C142.148 53.8943 142.921 54.4727 143.441 55.2544C143.96 56.0361 144.193 56.9731 144.101 57.9071C144.009 58.841 143.598 59.7145 142.936 60.3798C142.549 60.7705 142.088 61.0784 141.578 61.2846C141.069 61.4908 140.523 61.5911 139.974 61.5793V61.5793ZM139.974 54.1753C139.536 54.1732 139.103 54.2586 138.698 54.4264C138.294 54.5942 137.927 54.8411 137.62 55.1526C136.996 55.7773 136.645 56.6241 136.645 57.5071C136.645 58.39 136.996 59.2368 137.62 59.8615C138.253 60.468 139.097 60.8065 139.974 60.8065C140.851 60.8065 141.695 60.468 142.329 59.8615C142.794 59.3956 143.111 58.8022 143.239 58.1563C143.367 57.5103 143.301 56.8409 143.049 56.2324C142.798 55.624 142.371 55.1038 141.824 54.7377C141.276 54.3716 140.633 54.1758 139.974 54.1753Z" fill="#FFB700"/>
<path d="M135.666 107.795C135.148 108.312 134.488 108.663 133.77 108.805C133.053 108.947 132.309 108.873 131.633 108.593C130.957 108.313 130.379 107.838 129.973 107.229C129.566 106.621 129.35 105.905 129.35 105.174C129.35 104.442 129.566 103.727 129.973 103.118C130.379 102.509 130.957 102.035 131.633 101.754C132.309 101.474 133.053 101.4 133.77 101.542C134.488 101.684 135.148 102.036 135.666 102.553C136.355 103.251 136.741 104.193 136.741 105.174C136.741 106.155 136.355 107.096 135.666 107.795V107.795Z" fill="#FFB700"/>
<path d="M133 109.245C132.057 109.248 131.143 108.924 130.413 108.329C129.683 107.733 129.181 106.903 128.995 105.979C128.808 105.056 128.948 104.096 129.389 103.264C129.831 102.431 130.548 101.778 131.417 101.415C132.287 101.052 133.255 101.002 134.158 101.273C135.06 101.544 135.841 102.12 136.366 102.902C136.892 103.684 137.13 104.624 137.04 105.562C136.95 106.5 136.537 107.378 135.872 108.046C135.497 108.426 135.05 108.728 134.557 108.934C134.063 109.14 133.534 109.246 133 109.245ZM133 101.841C132.229 101.84 131.482 102.107 130.885 102.595C130.289 103.084 129.881 103.764 129.73 104.52C129.579 105.276 129.694 106.061 130.057 106.741C130.42 107.421 131.007 107.954 131.719 108.25C132.431 108.546 133.224 108.585 133.962 108.362C134.7 108.139 135.337 107.666 135.766 107.026C136.195 106.385 136.388 105.616 136.313 104.848C136.238 104.081 135.899 103.364 135.354 102.818C135.046 102.508 134.679 102.261 134.275 102.093C133.871 101.925 133.437 101.84 133 101.841V101.841Z" fill="#FFB700"/>
<path d="M159.461 284.573C158.943 285.09 158.283 285.441 157.565 285.584C156.847 285.726 156.104 285.652 155.428 285.371C154.752 285.091 154.174 284.616 153.768 284.008C153.361 283.399 153.145 282.684 153.145 281.952C153.145 281.22 153.361 280.505 153.768 279.896C154.174 279.288 154.752 278.813 155.428 278.533C156.104 278.252 156.847 278.178 157.565 278.32C158.283 278.463 158.943 278.814 159.461 279.331C160.15 280.029 160.536 280.971 160.536 281.952C160.536 282.933 160.15 283.875 159.461 284.573V284.573Z" fill="#FFB700"/>
<path d="M156.841 286.024C155.89 286.03 154.968 285.706 154.23 285.107C153.492 284.508 152.985 283.672 152.795 282.741C152.606 281.81 152.745 280.842 153.19 280.002C153.635 279.162 154.357 278.503 155.234 278.137C156.111 277.771 157.088 277.721 157.998 277.995C158.908 278.269 159.694 278.85 160.223 279.64C160.752 280.429 160.99 281.378 160.897 282.323C160.804 283.269 160.386 284.153 159.713 284.824V284.824C159.338 285.205 158.891 285.507 158.397 285.713C157.904 285.919 157.375 286.025 156.841 286.024V286.024ZM156.841 278.62C156.403 278.617 155.969 278.702 155.564 278.87C155.16 279.038 154.793 279.285 154.486 279.597C153.898 280.229 153.577 281.064 153.592 281.927C153.608 282.791 153.957 283.614 154.568 284.224C155.178 284.835 156.002 285.185 156.865 285.2C157.728 285.215 158.563 284.895 159.195 284.306C159.66 283.84 159.977 283.247 160.106 282.601C160.234 281.955 160.168 281.285 159.916 280.677C159.664 280.069 159.237 279.548 158.69 279.182C158.143 278.816 157.499 278.62 156.841 278.62V278.62Z" fill="#FFB700"/>
<path d="M323.149 434.888C322.631 435.405 321.972 435.757 321.254 435.899C320.536 436.041 319.792 435.967 319.116 435.687C318.44 435.406 317.863 434.932 317.456 434.323C317.05 433.715 316.833 432.999 316.833 432.267C316.833 431.536 317.05 430.82 317.456 430.212C317.863 429.603 318.44 429.129 319.116 428.848C319.792 428.568 320.536 428.494 321.254 428.636C321.972 428.778 322.631 429.13 323.149 429.646C323.496 429.989 323.771 430.398 323.959 430.847C324.147 431.297 324.243 431.78 324.243 432.267C324.243 432.755 324.147 433.238 323.959 433.687C323.771 434.137 323.496 434.546 323.149 434.888V434.888Z" fill="#FFB700"/>
<path d="M320.529 436.34C319.863 436.327 319.209 436.152 318.626 435.827C318.044 435.503 317.549 435.041 317.187 434.481C316.825 433.922 316.605 433.281 316.548 432.617C316.491 431.953 316.598 431.285 316.86 430.671C317.121 430.058 317.529 429.518 318.048 429.099C318.567 428.681 319.181 428.396 319.836 428.27C320.491 428.144 321.166 428.18 321.804 428.377C322.441 428.573 323.02 428.923 323.491 429.395C324.251 430.161 324.678 431.196 324.678 432.275C324.678 433.354 324.251 434.39 323.491 435.155V435.155C323.101 435.541 322.639 435.844 322.13 436.047C321.621 436.251 321.077 436.35 320.529 436.34V436.34ZM320.529 428.936C319.871 428.937 319.227 429.132 318.68 429.498C318.132 429.865 317.706 430.385 317.454 430.993C317.202 431.602 317.136 432.271 317.264 432.917C317.393 433.563 317.709 434.156 318.175 434.622C318.809 435.229 319.652 435.567 320.529 435.567C321.407 435.567 322.25 435.229 322.884 434.622C323.349 434.156 323.666 433.563 323.794 432.917C323.923 432.271 323.857 431.602 323.605 430.993C323.353 430.385 322.926 429.865 322.379 429.498C321.831 429.132 321.188 428.937 320.529 428.936V428.936Z" fill="#FFB700"/>
<ellipse cx="38.4397" cy="124.84" rx="2.66426" ry="6.99293" transform="rotate(55.0794 38.4397 124.84)" fill="#FBFBFF"/>
<path d="M98.4443 391.9C91.4972 391.9 84.8345 389.14 79.9221 384.227C75.0097 379.315 72.25 372.652 72.25 365.705V365.705C72.25 358.758 75.0097 352.095 79.9221 347.183C84.8345 342.271 91.4972 339.511 98.4443 339.511V339.511C101.887 339.507 105.296 340.182 108.477 341.496C111.659 342.811 114.55 344.74 116.985 347.173C119.421 349.605 121.353 352.494 122.671 355.674C123.989 358.854 124.668 362.263 124.668 365.705V365.705C124.668 369.147 123.989 372.556 122.671 375.736C121.353 378.916 119.421 381.805 116.985 384.238C114.55 386.67 111.659 388.599 108.477 389.914C105.296 391.229 101.887 391.903 98.4443 391.9V391.9Z" fill="#182F43" stroke="#182F43" stroke-linecap="round" stroke-linejoin="round"/>
<path d="M98.4423 353.934C102.28 353.934 102.786 353.934 104.234 354.021C105.145 354.024 106.047 354.191 106.899 354.513C107.518 354.751 108.08 355.116 108.549 355.585C109.018 356.054 109.383 356.616 109.621 357.235C109.943 358.087 110.11 358.989 110.113 359.899C110.113 361.347 110.2 361.869 110.2 365.692C110.2 369.514 110.2 370.036 110.113 371.484C110.108 372.394 109.941 373.296 109.621 374.148C109.383 374.767 109.018 375.329 108.549 375.798C108.08 376.267 107.518 376.632 106.899 376.87C106.047 377.192 105.145 377.359 104.234 377.362C102.714 377.435 102.265 377.449 98.4423 377.449C94.6196 377.449 94.0983 377.449 92.6503 377.362C91.7401 377.357 90.838 377.19 89.986 376.87C89.3628 376.64 88.7988 376.274 88.3353 375.799C87.8644 375.331 87.499 374.768 87.2637 374.148C86.9435 373.296 86.7768 372.394 86.7714 371.484C86.7714 369.963 86.6845 369.514 86.6845 365.692C86.6845 361.869 86.6845 361.347 86.7714 359.899C86.775 358.989 86.9417 358.087 87.2637 357.235C87.499 356.615 87.8644 356.052 88.3353 355.584C88.7988 355.109 89.3628 354.743 89.986 354.513C90.838 354.193 91.7401 354.026 92.6503 354.021C94.1707 353.948 94.6196 353.934 98.4423 353.934ZM98.4423 351.342C94.5472 351.342 94.0983 351.342 92.52 351.429C91.3328 351.458 90.1585 351.683 89.0448 352.095C88.0852 352.46 87.2159 353.028 86.4963 353.76C85.7671 354.474 85.2036 355.339 84.8456 356.294C84.4197 357.409 84.1895 358.59 84.165 359.784C84.165 361.319 84.0781 361.811 84.0781 365.706C84.0781 369.601 84.0781 370.05 84.165 371.628C84.1926 372.822 84.4228 374.002 84.8456 375.118C85.2036 376.073 85.7671 376.938 86.4963 377.652C87.2159 378.384 88.0852 378.952 89.0448 379.317C90.1585 379.729 91.3328 379.954 92.52 379.983C94.0549 380.056 94.5472 380.07 98.4423 380.07C102.337 380.07 102.786 380.07 104.365 379.983C105.557 379.956 106.736 379.731 107.854 379.317C108.807 378.947 109.671 378.38 110.388 377.652C111.122 376.939 111.69 376.074 112.054 375.118C112.464 373.999 112.689 372.82 112.72 371.628C112.792 370.093 112.806 369.601 112.806 365.706C112.806 361.811 112.806 361.362 112.72 359.784C112.692 358.592 112.467 357.412 112.054 356.294C111.69 355.338 111.122 354.473 110.388 353.76C109.671 353.032 108.807 352.465 107.854 352.095C106.736 351.681 105.557 351.456 104.365 351.429C102.83 351.356 102.352 351.342 98.4423 351.342Z" fill="#FFB700"/>
<path d="M98.4426 358.335C96.9849 358.335 95.5599 358.767 94.3479 359.577C93.1358 360.387 92.1912 361.538 91.6333 362.885C91.0755 364.232 90.9295 365.714 91.2139 367.143C91.4983 368.573 92.2002 369.886 93.231 370.917C94.2618 371.948 95.575 372.65 97.0047 372.934C98.4344 373.218 99.9164 373.072 101.263 372.515C102.61 371.957 103.761 371.012 104.571 369.8C105.381 368.588 105.813 367.163 105.813 365.705C105.813 363.751 105.036 361.876 103.654 360.494C102.272 359.112 100.397 358.335 98.4426 358.335V358.335ZM98.4426 370.484C97.494 370.484 96.5668 370.202 95.7783 369.675C94.9898 369.148 94.3755 368.398 94.0132 367.522C93.6508 366.645 93.5568 365.681 93.7429 364.75C93.929 363.82 94.3869 362.966 95.0587 362.297C95.7304 361.627 96.5858 361.172 97.5165 360.988C98.4471 360.805 99.4113 360.902 100.287 361.267C101.162 361.632 101.91 362.248 102.435 363.039C102.96 363.829 103.238 364.757 103.235 365.705C103.235 366.334 103.111 366.957 102.87 367.537C102.629 368.118 102.276 368.645 101.831 369.089C101.386 369.533 100.857 369.885 100.276 370.124C99.6943 370.363 99.0713 370.486 98.4426 370.484Z" fill="#FFB700"/>
<path d="M107.841 358.046C107.841 358.503 107.659 358.942 107.336 359.265C107.013 359.588 106.575 359.769 106.118 359.769C105.661 359.769 105.222 359.588 104.899 359.265C104.576 358.942 104.395 358.503 104.395 358.046C104.395 357.589 104.576 357.151 104.899 356.828C105.222 356.505 105.661 356.323 106.118 356.323C106.575 356.323 107.013 356.505 107.336 356.828C107.659 357.151 107.841 357.589 107.841 358.046" fill="#FFB700"/>
<path d="M327.387 85.2854C320.44 85.2854 313.777 82.5256 308.865 77.6132C303.952 72.7008 301.192 66.0382 301.192 59.091V59.091C301.192 55.6518 301.87 52.2463 303.187 49.0691C304.503 45.8918 306.433 43.0051 308.865 40.5739C311.298 38.1427 314.186 36.2146 317.364 34.8998C320.542 33.585 323.948 32.9092 327.387 32.9111C330.825 32.9092 334.23 33.5851 337.408 34.9001C340.585 36.2151 343.472 38.1434 345.903 40.5748C348.334 43.0062 350.263 45.893 351.578 49.0702C352.893 52.2473 353.568 55.6525 353.567 59.091C353.568 62.5302 352.893 65.9361 351.578 69.1141C350.263 72.292 348.335 75.1798 345.904 77.6123C343.473 80.0449 340.586 81.9746 337.409 83.2912C334.231 84.6077 330.826 85.2854 327.387 85.2854V85.2854Z" fill="#182F43"/>
<path d="M323.274 74.9325H329.645V59.0044H334.105L334.569 53.6613H329.645V50.6205C329.645 49.3607 329.906 48.8539 331.093 48.8539H334.627V43.2646H330.283C325.533 43.2646 323.39 45.3498 323.39 49.3463V53.6903H320.074V59.1058H323.39L323.274 74.9325Z" fill="#FFB700"/>
<path d="M67.0094 134C57.9895 134 49.3391 130.417 42.9611 124.039C36.5831 117.661 33 109.01 33 99.9906C33.005 90.974 36.5903 82.3284 42.9678 75.9545C49.3452 69.5805 57.9928 66 67.0094 66C76.0227 66.005 84.6655 69.5877 91.0389 75.9611C97.4123 82.3345 100.995 90.9772 101 99.9906C101 109.007 97.4195 117.655 91.0455 124.032C84.6716 130.41 76.026 133.995 67.0094 134Z" fill="#033757"/>
<path d="M378.154 390.292C392.773 390.292 404.624 378.442 404.624 363.823C404.624 349.204 392.773 337.354 378.154 337.354C363.535 337.354 351.685 349.204 351.685 363.823C351.685 378.442 363.535 390.292 378.154 390.292Z" fill="#182F43"/>
<path d="M395.124 361.853C395.384 361.833 395.646 361.833 395.906 361.853C396.687 361.853 397.437 361.543 397.989 360.99C398.542 360.437 398.853 359.688 398.853 358.906C398.853 358.125 398.542 357.375 397.989 356.823C397.437 356.27 396.687 355.96 395.906 355.96V355.96H384.742C384.742 355.96 385.422 351.934 385.422 350.559C385.422 349.183 386.117 347.098 384.278 344.448C382.439 341.798 378.182 342.841 378.182 342.841L378.819 348.314C378.921 349.172 378.76 350.041 378.356 350.805L373.346 360.217L371.044 362.186L370.349 373.77C371.797 377.332 376.561 378.491 376.561 378.491H391.663C392.459 378.511 393.231 378.219 393.815 377.678C394.4 377.137 394.75 376.39 394.791 375.595C394.785 375.092 394.649 374.599 394.395 374.165C394.141 373.731 393.778 373.37 393.343 373.119C393.535 373.141 393.73 373.141 393.922 373.119C394.719 373.142 395.493 372.852 396.078 372.31C396.663 371.769 397.012 371.019 397.05 370.223C397.039 369.725 396.9 369.238 396.647 368.809C396.393 368.38 396.033 368.024 395.602 367.775C396.307 367.679 396.956 367.335 397.431 366.804C397.906 366.274 398.176 365.591 398.194 364.879C398.192 364.479 398.111 364.083 397.955 363.714C397.8 363.344 397.573 363.01 397.288 362.728C397.002 362.447 396.664 362.225 396.293 362.075C395.922 361.925 395.524 361.849 395.124 361.853Z" fill="white"/>
<path d="M391.633 378.926H376.429C376.227 378.926 371.463 377.666 369.899 373.931C369.885 373.864 369.885 373.795 369.899 373.728L370.594 362.144C370.594 362.08 370.609 362.017 370.636 361.96C370.664 361.902 370.704 361.851 370.753 361.811L372.983 359.914L377.964 350.574C378.327 349.891 378.473 349.113 378.384 348.344L377.733 342.885C377.719 342.773 377.746 342.66 377.81 342.566C377.874 342.473 377.97 342.406 378.08 342.379C378.268 342.379 382.67 341.307 384.669 344.174C385.804 345.773 386.267 347.754 385.957 349.691C385.957 349.995 385.957 350.285 385.957 350.545C385.845 352.201 385.642 353.85 385.349 355.483H395.977H396.137C397.041 355.498 397.905 355.862 398.547 356.499C399.19 357.135 399.561 357.996 399.583 358.9C399.574 359.596 399.353 360.272 398.949 360.839C398.546 361.406 397.979 361.836 397.324 362.072C397.772 362.38 398.138 362.793 398.391 363.275C398.643 363.757 398.774 364.293 398.772 364.837C398.765 365.503 398.562 366.152 398.189 366.703C397.816 367.254 397.288 367.683 396.672 367.936C397.245 368.544 397.565 369.346 397.57 370.18C397.551 371.003 397.241 371.792 396.695 372.407C396.148 373.022 395.402 373.423 394.587 373.54C395.038 374.114 395.283 374.823 395.282 375.552C395.266 376.014 395.158 376.468 394.965 376.887C394.772 377.307 394.499 377.685 394.159 377.998C393.82 378.312 393.423 378.555 392.989 378.714C392.556 378.874 392.095 378.946 391.633 378.926V378.926ZM376.618 378H391.662C392.345 378.019 393.008 377.768 393.507 377.302C394.006 376.836 394.3 376.191 394.327 375.509C394.322 375.088 394.208 374.675 393.998 374.31C393.788 373.944 393.487 373.639 393.125 373.424C393.033 373.369 392.964 373.284 392.93 373.183C392.895 373.083 392.898 372.973 392.937 372.874C392.973 372.773 393.044 372.688 393.137 372.635C393.229 372.582 393.338 372.564 393.443 372.584H393.95C394.633 372.604 395.296 372.353 395.795 371.887C396.293 371.42 396.588 370.776 396.615 370.093C396.61 369.679 396.5 369.273 396.295 368.913C396.09 368.553 395.796 368.252 395.442 368.037C395.363 367.988 395.301 367.916 395.264 367.831C395.228 367.745 395.219 367.65 395.239 367.559C395.258 367.468 395.304 367.385 395.371 367.32C395.438 367.256 395.524 367.213 395.615 367.197C396.212 367.116 396.761 366.825 397.164 366.377C397.567 365.929 397.798 365.353 397.816 364.75C397.805 364.412 397.727 364.079 397.587 363.77C397.447 363.462 397.248 363.184 397 362.953C396.753 362.721 396.462 362.541 396.145 362.422C395.828 362.303 395.491 362.248 395.152 362.26V362.26C395.034 362.252 394.924 362.2 394.843 362.114C394.762 362.028 394.717 361.914 394.718 361.796C394.718 361.29 395.138 361.29 395.977 361.29C396.319 361.316 396.663 361.271 396.987 361.158C397.311 361.045 397.608 360.866 397.86 360.633C398.112 360.4 398.312 360.117 398.45 359.803C398.587 359.489 398.658 359.149 398.658 358.806C398.658 358.463 398.587 358.124 398.45 357.809C398.312 357.495 398.112 357.212 397.86 356.979C397.608 356.746 397.311 356.567 396.987 356.455C396.663 356.342 396.319 356.297 395.977 356.323V356.323H395.818H384.813C384.745 356.323 384.678 356.309 384.616 356.281C384.553 356.254 384.497 356.214 384.451 356.164C384.41 356.111 384.38 356.05 384.363 355.986C384.346 355.921 384.341 355.854 384.35 355.787C384.673 354.024 384.905 352.246 385.045 350.459C385.045 350.154 385.045 349.85 385.045 349.517C385.189 348.665 385.163 347.793 384.969 346.951C384.775 346.108 384.417 345.312 383.916 344.609C382.583 342.712 379.745 342.943 378.703 343.161L379.296 348.2C379.409 349.153 379.227 350.118 378.775 350.965L373.765 360.377C373.735 360.432 373.696 360.481 373.649 360.522L371.506 362.347L370.826 373.67C372.143 376.682 376.096 377.869 376.618 378Z" fill="#182F43"/>
<path d="M369.291 357.844H363.325C361.614 357.844 360.227 359.231 360.227 360.942V377.189C360.227 378.9 361.614 380.288 363.325 380.288H369.291C371.002 380.288 372.39 378.9 372.39 377.189V360.942C372.39 359.231 371.002 357.844 369.291 357.844Z" fill="#AA4337" stroke="#182F43" stroke-linecap="round" stroke-linejoin="round"/>
<path d="M414.44 157.724C414.307 157.561 414.141 157.356 413.946 157.114C413.385 156.418 412.583 155.411 411.621 154.166C409.696 151.677 407.131 148.241 404.566 144.452C402.001 140.661 399.443 136.527 397.528 132.64C395.604 128.736 394.364 125.147 394.364 122.428C394.364 119.791 394.884 117.181 395.892 114.745C396.901 112.309 398.38 110.096 400.244 108.232C402.109 106.367 404.322 104.889 406.758 103.88C409.193 102.871 411.804 102.352 414.44 102.352C419.765 102.352 424.871 104.467 428.636 108.232C432.401 111.997 434.516 117.103 434.516 122.428C434.516 125.147 433.276 128.736 431.353 132.64C429.438 136.527 426.88 140.661 424.314 144.452C421.75 148.241 419.185 151.677 417.26 154.166C416.298 155.411 415.496 156.418 414.935 157.114C414.74 157.356 414.574 157.561 414.44 157.724ZM408.113 132.491C409.986 133.742 412.188 134.41 414.44 134.41C415.936 134.41 417.417 134.116 418.799 133.543C420.181 132.971 421.436 132.132 422.494 131.075C423.551 130.017 424.39 128.762 424.962 127.38C425.535 125.998 425.829 124.517 425.829 123.021C425.829 120.769 425.161 118.567 423.91 116.694C422.659 114.821 420.88 113.361 418.799 112.499C416.718 111.637 414.428 111.412 412.218 111.851C410.009 112.291 407.98 113.375 406.387 114.968C404.794 116.561 403.71 118.59 403.27 120.799C402.831 123.009 403.056 125.299 403.918 127.38C404.78 129.461 406.24 131.24 408.113 132.491Z" fill="#AA4337" stroke="#182F43"/>
<path d="M462.471 240.918L462.572 240.845H462.37L429.92 216.446L397.456 240.845H397.253L397.354 240.918L397.253 240.99H397.47L430.209 264.549L462.37 240.99H462.572L462.471 240.918Z" fill="#FFB700" stroke="#182F43" stroke-linecap="round" stroke-linejoin="round"/>
<path d="M451.307 218.879H407.49V273.266H451.307V218.879Z" fill="white" stroke="#FFB700" stroke-linecap="round" stroke-linejoin="round"/>
<path d="M438.738 233.677C438.738 239.99 435.842 243.61 432.946 243.61C432.636 243.653 432.319 243.63 432.019 243.541C431.718 243.453 431.439 243.302 431.201 243.098C430.963 242.894 430.771 242.642 430.637 242.358C430.504 242.075 430.432 241.766 430.427 241.452C430.176 242.109 429.725 242.671 429.138 243.058C428.551 243.445 427.857 243.638 427.154 243.61C424.765 243.61 423.94 241.568 424.258 238.745L424.606 235.559C424.881 232.663 426.198 230.853 428.544 230.911C429.176 230.877 429.799 231.069 430.301 231.455C430.803 231.84 431.151 232.392 431.281 233.011L431.513 231.041H433.67L432.715 240.178C432.613 240.902 432.845 241.539 433.641 241.539C436.088 241.539 436.914 236.862 436.885 233.749C436.885 229.318 434.814 226.509 430.036 226.509C423.679 226.509 420.725 231.78 420.725 238.918C420.725 244.421 423.23 247.722 428.776 247.722C431.032 247.819 433.249 247.11 435.031 245.724L434.843 247.925C433.01 249.137 430.84 249.735 428.646 249.634C421.637 249.634 418.582 245.29 418.582 238.788C418.582 231.215 422.217 224.569 430.166 224.569C436.45 224.525 438.738 228.435 438.738 233.677ZM426.676 235.776L426.387 238.672C426.198 240.337 426.705 241.568 428.197 241.568C429.688 241.568 430.456 240.453 430.658 238.672L430.977 235.617C431.136 234.169 430.528 233.083 429.123 233.083C427.719 233.083 426.865 234.068 426.676 235.776Z" fill="#182F43"/>
<path d="M397.253 240.845V278.71H462.572V240.845L429.92 259.77L397.253 240.845Z" fill="#FFB700" stroke="#182F43" stroke-linecap="round" stroke-linejoin="round"/>
<path d="M397.253 278.71L429.92 259.771L462.572 278.71" stroke="#182F43" stroke-linecap="round" stroke-linejoin="round"/>
<path d="M223.333 31H153.988V79.0882H223.333V31Z" fill="#182F43" stroke="#182F43" stroke-linecap="round" stroke-linejoin="round"/>
<path d="M192.341 70.4963C200.884 68.4688 206.167 59.8993 204.139 51.3558C202.112 42.8123 193.542 37.53 184.999 39.5574C176.455 41.5849 171.173 50.1544 173.2 58.6979C175.228 67.2415 183.797 72.5238 192.341 70.4963Z" fill="#AA4337"/>
<path d="M198.999 55.5L181.999 45V66L198.999 55.5Z" fill="#182F43" stroke="#182F43" stroke-linecap="round" stroke-linejoin="round"/>
<path d="M155.523 74.2666H221.451" stroke="white" stroke-linecap="round" stroke-linejoin="round"/>
<path d="M80.3139 247.23C80.9031 244.027 80.5358 240.722 79.2579 237.726C77.98 234.73 75.8481 232.177 73.1282 230.385C70.4083 228.594 67.221 227.643 63.9641 227.651C60.7072 227.66 57.5249 228.628 54.8146 230.434C52.8702 225.611 49.3054 221.616 44.7337 219.138C40.1619 216.659 34.8692 215.852 29.7666 216.855C24.664 217.858 20.0706 220.609 16.7771 224.633C13.4836 228.658 11.696 233.704 11.722 238.904C11.722 239.18 11.722 239.455 11.722 239.715C8.53462 240.655 5.76487 242.658 3.87319 245.39C1.98151 248.122 1.08186 251.419 1.32379 254.733C1.56572 258.047 2.93464 261.179 5.20302 263.607C7.4714 266.036 10.5026 267.615 13.7927 268.082V268.241H79.6044C82.3714 268.291 85.0471 267.251 87.054 265.346C89.0609 263.44 90.238 260.822 90.3312 258.056C90.4243 255.29 89.4261 252.599 87.5519 250.562C85.6777 248.526 83.078 247.309 80.3139 247.173V247.23Z" fill="white" stroke="#182F43" stroke-width="2" stroke-linecap="round" stroke-linejoin="round"/>
<path d="M61.5474 261.551L43.3026 238.601L25.0723 261.551H32.1964V282.214H54.4088V261.551H61.5474Z" fill="#182F43"/>
<path d="M194.481 531.263C192.09 533.128 189.806 535.126 187.639 537.247C184.578 540.309 175.761 543.814 170.45 547.564C165.139 551.314 168.261 555.064 172.945 556.625C177.628 558.186 191.083 556.931 196.073 555.998C201.062 555.064 203.588 549.125 207.644 548.191C211.7 547.258 219.216 550.686 219.522 544.748C219.828 538.809 220.149 532.87 220.149 532.87L194.481 531.263Z" fill="white" stroke="#182F43" stroke-linecap="round" stroke-linejoin="round"/>
<path d="M219.568 544.748C219.568 543.539 219.691 542.345 219.752 541.182C216.354 543.631 212.099 543.523 206.436 544.748C199.257 546.279 196.747 553.182 182.374 553.809C173.068 554.207 169.287 552.524 167.757 551.284C167.496 553.595 169.9 555.585 172.991 556.626C177.69 558.156 191.129 556.932 196.119 555.998C201.109 555.064 203.635 549.126 207.691 548.192C211.747 547.258 219.216 550.687 219.568 544.748Z" fill="white" stroke="#182F43" stroke-linecap="round" stroke-linejoin="round"/>
<path d="M197.328 530.055C197.328 530.055 190.134 538.81 187.639 541.626C185.144 544.443 192.323 543.494 195.461 540.677C198.377 537.741 201.093 534.612 203.588 531.31L197.328 530.055Z" fill="white" stroke="#182F43" stroke-linecap="round" stroke-linejoin="round"/>
<path d="M295.855 531.263C298.246 533.128 300.53 535.126 302.697 537.247C305.758 540.309 314.575 543.814 319.886 547.564C325.197 551.314 322.075 555.064 317.391 556.625C312.707 558.186 299.253 556.931 294.263 555.998C289.273 555.064 286.748 549.125 282.692 548.191C278.636 547.258 271.12 550.686 270.814 544.748C270.508 538.809 270.187 532.87 270.187 532.87L295.855 531.263Z" fill="white" stroke="#182F43" stroke-linecap="round" stroke-linejoin="round"/>
<path d="M270.814 544.748C270.814 543.539 270.691 542.345 270.63 541.182C274.028 543.631 278.283 543.523 283.946 544.748C291.125 546.279 293.635 553.182 308.008 553.809C317.314 554.207 321.095 552.524 322.625 551.284C322.886 553.595 320.482 555.585 317.391 556.626C312.692 558.156 299.253 556.932 294.263 555.998C289.273 555.064 286.747 549.126 282.691 548.192C278.635 547.258 271.12 550.687 270.814 544.748Z" fill="white" stroke="#182F43" stroke-linecap="round" stroke-linejoin="round"/>
<path d="M293.039 530.055C293.039 530.055 300.233 538.81 302.727 541.626C305.222 544.443 298.044 543.494 294.906 540.677C291.989 537.741 289.274 534.612 286.778 531.31L293.039 530.055Z" fill="white" stroke="#182F43" stroke-linecap="round" stroke-linejoin="round"/>
<path d="M198.384 307.945C198.384 307.945 194.481 343.149 194.481 348.767C194.481 354.384 194.481 426.048 195.354 438.722C196.226 451.395 191.864 456.599 194.481 472.747C197.099 488.896 197.971 517.289 197.971 517.289C197.971 517.289 194.481 519.478 194.481 521.666V531.263L220.777 534.126C220.777 534.126 222.43 511.625 222.859 504.631C223.288 497.636 229.854 453.569 231.599 440.895C233.344 428.222 240.232 356.129 240.232 356.129C240.232 356.129 251.681 436.104 252.553 438.783C254.992 445.042 257.037 451.447 258.676 457.962C262.594 472.38 266.099 522.156 266.099 522.156L269.849 536.054L296.727 531.049C296.727 531.049 292.732 508.625 292.732 505.136C292.732 501.646 291.86 502.947 290.987 494.207C289.379 477.968 288.939 461.635 289.671 445.334C290.543 420.002 278.758 352.762 278.758 352.762L275.268 307.776C275.268 307.776 231.982 317.787 198.384 307.945Z" fill="#182F43" stroke="#182F43" stroke-linecap="round" stroke-linejoin="round"/>
<path d="M250.869 345.201L243.798 358.334C243.798 358.334 258.951 349.242 268.548 347.727" stroke="white" stroke-linecap="round" stroke-linejoin="round"/>
<path d="M227.481 353.695C227.481 353.695 220.9 343.073 209.282 340.042" stroke="white" stroke-linecap="round" stroke-linejoin="round"/>
<path d="M197.083 311.649C197.083 311.649 192.491 323.052 194.803 326.481C197.114 329.91 218.206 338.466 239.313 338.466C260.421 338.466 280.992 331.042 280.992 325.915C280.992 320.787 276.997 308.221 276.997 308.221C276.997 308.221 242.742 324.2 197.083 311.649Z" fill="#FFB700" stroke="#182F43" stroke-linecap="round" stroke-linejoin="round"/>
<path d="M204.048 202.973C204.048 202.973 188.741 202.973 185.251 205.805C181.762 208.637 181.364 220.346 180.996 222.474C180.629 224.601 172.562 262.683 172.562 262.683L189.598 286.117L195.905 256.178L196.517 314.342C196.517 314.342 197.665 320.067 201.568 322.194C205.471 324.322 232.777 326.449 245.543 326.449C258.308 326.449 276.706 320.051 278.13 316.148C279.553 312.245 275.344 268.668 275.344 268.668L281.39 282.122L295.901 257.265C295.901 257.265 285.982 224.326 284.559 217.239C283.135 210.152 279.247 208.055 271.441 204.826C263.635 201.596 240.584 202.698 231.369 202.698C222.155 202.698 204.048 202.973 204.048 202.973Z" fill="#AA4337" stroke="#182F43" stroke-linecap="round" stroke-linejoin="round"/>
<path d="M207.92 317.358C210.739 317.023 213.374 315.784 215.432 313.829C217.489 311.873 218.86 309.304 219.338 306.506C221.619 296.236 222.767 290.526 222.767 290.526L226.762 289.96C226.682 295.68 226.299 301.393 225.614 307.072C224.481 316.777 221.022 319.639 219.338 319.639" stroke="#182F43" stroke-linecap="round" stroke-linejoin="round"/>
<path d="M271.288 312.216C275.88 300.797 265.579 287.726 265.579 287.726L261.584 287.159C261.584 287.159 273.002 302.006 267.293 313.409" stroke="#182F43" stroke-linecap="round" stroke-linejoin="round"/>
<path d="M195.904 256.18L193.409 238.088" stroke="#182F43" stroke-linecap="round" stroke-linejoin="round"/>
<path d="M275.344 268.593L273.921 235.608" stroke="#182F43" stroke-linecap="round" stroke-linejoin="round"/>
<path d="M278.268 270.566C278.268 270.566 273.844 262.362 288.37 255.413" stroke="#182F43" stroke-linecap="round" stroke-linejoin="round"/>
<path d="M280.793 253.515C280.793 253.515 288.446 250.301 293.421 250.301" stroke="#182F43" stroke-linecap="round" stroke-linejoin="round"/>
<path d="M178.471 255.413C178.471 255.413 190.471 259.209 192.996 268.684" stroke="#182F43" stroke-linecap="round" stroke-linejoin="round"/>
<path d="M192.369 259.837C192.369 259.837 187.945 252.261 180.996 250.99" stroke="#182F43" stroke-linecap="round" stroke-linejoin="round"/>
<path d="M226.15 187.041C226.15 187.041 218.099 187.041 215.727 188.831C213.354 190.622 212.145 195.382 210.951 196.27C209.757 197.158 204.4 196.867 203.206 200.143C202.012 203.418 202.012 202.531 211.257 211.179C220.502 219.827 243.4 229.653 245.819 229.653C248.237 229.653 263.696 211.775 268.166 209.755C272.635 207.735 273.232 207.673 273.523 206.48C273.814 205.286 273.232 199.331 269.344 196.944C266.576 195.405 263.544 194.398 260.406 193.974C260.406 193.974 259.824 190.393 255.048 187.714C250.273 185.035 243.722 184.438 238.961 184.438C234.201 184.438 226.15 187.041 226.15 187.041Z" fill="#FFB700" stroke="#182F43" stroke-linecap="round" stroke-linejoin="round"/>
<path d="M260.405 193.897C260.004 198.31 258.999 202.646 257.42 206.785" stroke="#182F43" stroke-linecap="round" stroke-linejoin="round"/>
<path d="M212.589 200.464C212.589 200.464 213.844 204.26 220.793 208.04" stroke="#182F43" stroke-linecap="round" stroke-linejoin="round"/>
<path d="M240.231 225.321L240.936 264.337" stroke="white" stroke-linecap="round" stroke-linejoin="round"/>
<path d="M248.742 225.674L252.293 261.843" stroke="white" stroke-linecap="round" stroke-linejoin="round"/>
<path d="M161.916 199.285L147.746 204.158C146.523 204.579 145.872 205.911 146.293 207.134L156.757 237.559C157.178 238.782 158.51 239.433 159.733 239.012L173.903 234.138C175.126 233.718 175.777 232.385 175.356 231.162L164.892 200.737C164.472 199.514 163.139 198.864 161.916 199.285Z" fill="#182F43" stroke="#182F43" stroke-linecap="round" stroke-linejoin="round"/>
<path d="M160.929 250.607C159.69 249.367 148.302 222.245 147.276 219.765C146.251 217.285 158.863 208.576 158.863 208.576C158.863 208.576 162.184 206.51 162.184 208.377C162.184 210.244 155.756 215.831 154.929 217.285C154.103 218.739 156.797 223.285 156.797 223.285C156.797 223.285 164.863 218.938 165.491 218.938C166.118 218.938 175.011 226.592 175.838 227.418C176.664 228.245 178.899 230.74 178.333 232.01C177.766 233.28 176.251 232.637 175.271 232.423C174.292 232.209 165.123 235.484 165.123 235.484C165.123 235.484 168.644 240.459 168.184 243.352C167.914 245.178 167.499 246.979 166.945 248.74C166.945 248.74 186.598 272.878 189.078 274.332C191.557 275.786 192.965 281.082 191.312 286.669C189.659 292.255 185.771 291.919 180.598 291.72C175.424 291.521 160.929 250.607 160.929 250.607Z" fill="white" stroke="#182F43" stroke-linecap="round" stroke-linejoin="round"/>
<path d="M168.796 222.872C167.323 222.827 165.853 223.034 164.449 223.485C163.623 224.112 157.424 228.245 157.424 228.245" stroke="#182F43" stroke-linecap="round" stroke-linejoin="round"/>
<path d="M159.69 231.765C161.945 230.097 164.296 228.564 166.731 227.173C169.342 226.86 171.97 226.722 174.599 226.76" stroke="#182F43" stroke-linecap="round" stroke-linejoin="round"/>
<path d="M176.465 228.459C176.465 228.459 167.282 230.326 166.118 230.74C164.454 231.728 162.913 232.91 161.526 234.26" stroke="#182F43" stroke-linecap="round" stroke-linejoin="round"/>
<path d="M156.797 223.286L154.104 224.939" stroke="#182F43" stroke-linecap="round" stroke-linejoin="round"/>
<path d="M294.799 258.919L328.901 231.812C328.901 231.812 327.371 222.061 327.677 220.546C327.983 219.031 330.738 210.199 337.427 206.847C344.116 203.495 346.259 202.883 346.259 205.316C346.259 207.75 343.81 208.378 343.197 209.281C342.585 210.184 339.233 213.536 339.233 213.536C339.233 213.536 345.631 210.796 347.759 210.796C349.886 210.796 353.544 209.893 353.544 212.021C353.544 214.148 351.111 214.148 349.58 214.148C348.05 214.148 343.794 218.419 343.794 218.419C347.327 217.523 350.903 216.808 354.509 216.276C356.33 216.276 357.861 218.419 356.33 219.337C354.981 220.022 353.551 220.536 352.075 220.868C350.715 221.502 349.391 222.212 348.111 222.995C348.111 222.995 357.295 222.077 356.636 224.526C355.978 226.975 351.769 226.347 350.851 226.347C348.856 226.821 347.052 227.888 345.677 229.409C345.065 230.618 343.84 235.807 341.407 237.062C338.973 238.317 334.412 240.123 334.412 240.123C334.412 240.123 318.876 259.011 312.478 266.312C306.08 273.613 294.569 282.047 288.095 283.577C281.62 285.108 280.442 283.271 280.181 280.516C279.921 277.761 280.151 268.042 294.799 258.919Z" fill="white" stroke="#182F43" stroke-linecap="round" stroke-linejoin="round"/>
<path d="M329.207 216.628C329.207 216.628 336.508 213.291 338.023 213.291C339.539 213.291 341.988 214.5 340.166 216.628C338.124 218.592 335.876 220.332 333.462 221.817C333.462 221.817 342.294 225.459 338.054 232.164" stroke="#182F43" stroke-linecap="round" stroke-linejoin="round"/>
<path d="M243.17 134.723C243.17 134.723 233.619 136.392 229.211 141.78C224.803 147.167 210.292 179.755 210.384 182.678C210.476 185.602 225.124 184.117 225.124 184.117C225.124 184.117 226.655 200.433 231.813 212.372C233.237 215.617 238.303 222.046 243.737 219.643C249.17 217.24 251.528 180.03 251.528 180.03C251.528 180.03 256.701 187.362 260.619 185.403C265.089 183.153 264.278 177.749 261.079 177.351C257.88 176.953 271.334 165.106 268.012 156.014C264.691 146.923 247.303 132.213 243.17 134.723Z" fill="white" stroke="#182F43" stroke-linecap="round" stroke-linejoin="round"/>
<path d="M240.645 124.116C240.645 124.116 222.629 122.371 220.869 130.912C219.109 139.453 228.002 144.229 238.41 143.617C248.818 143.004 258.063 144.566 259.196 146.295C260.329 148.025 246.216 149.892 249.201 152.418C250.94 153.93 253.13 154.823 255.431 154.958C255.431 154.958 250.839 155.8 250.839 159.045C250.839 162.29 252.262 176.724 254.512 176.938C256.762 177.153 261.048 177.29 261.048 177.29C265.298 175.634 269.244 173.286 272.727 170.341C278.038 165.673 280.38 154.897 274.916 147.887C269.451 140.877 265.242 134.218 260.926 128.632C256.609 123.045 252.66 117.137 243.17 114.856C233.68 112.575 228.14 116.111 240.645 124.116Z" fill="#182F43" stroke="#182F43" stroke-linecap="round" stroke-linejoin="round"/>
<path d="M274.854 160.882C275.003 162.792 274.885 164.714 274.502 166.591" stroke="white" stroke-linecap="round" stroke-linejoin="round"/>
<path d="M244.136 134.693C244.136 134.693 224.237 134.693 231.339 139.163C238.442 143.632 250.488 137.724 264.263 144.796C266.595 145.904 268.668 147.489 270.35 149.448C272.032 151.407 273.285 153.696 274.029 156.168" stroke="white" stroke-linecap="round" stroke-linejoin="round"/>
<path d="M254.636 150.811C254.636 150.811 267.432 158.693 268.289 168.428" stroke="white" stroke-linecap="round" stroke-linejoin="round"/>
<path d="M225.078 184.117C225.078 184.117 240.568 184.653 245.083 181.53" stroke="#182F43" stroke-linecap="round" stroke-linejoin="round"/>
<path d="M221.527 170.815C221.527 170.815 232.441 175.116 236.298 168.703" stroke="#182F43" stroke-linecap="round" stroke-linejoin="round"/>
<path d="M234.491 167.234L239.114 169.622" stroke="#182F43" stroke-linecap="round" stroke-linejoin="round"/>
<path d="M226.486 156.412C226.486 156.412 216.415 156.718 216.262 158.325C216.109 159.933 222.078 165.045 222.078 165.045" fill="white"/>
<path d="M226.486 156.412C226.486 156.412 216.415 156.718 216.262 158.325C216.109 159.933 222.078 165.045 222.078 165.045" stroke="#182F43" stroke-linecap="round" stroke-linejoin="round"/>
<path d="M228.048 153.458C227.451 154.79 226.425 155.647 225.752 155.341C225.078 155.035 225.017 153.718 225.629 152.371C226.242 151.024 227.252 150.182 227.925 150.489C228.599 150.795 228.645 152.111 228.048 153.458Z" fill="#182F43"/>
<path d="M236.067 158.556C235.47 159.903 234.43 160.744 233.771 160.438C233.113 160.132 233.037 158.816 233.634 157.469C234.231 156.122 235.256 155.28 235.93 155.586C236.603 155.892 236.664 157.209 236.067 158.556Z" fill="#182F43"/>
<path d="M237.415 149.494C237.415 149.494 242.237 150.397 241.15 156.979L237.415 149.494Z" fill="#182F43" stroke="#182F43" stroke-linecap="round" stroke-linejoin="round"/>
<path d="M233.344 145.974C233.344 145.974 231.033 142.178 227.022 146.693L233.344 145.974Z" fill="#182F43" stroke="#182F43" stroke-linecap="round" stroke-linejoin="round"/>
<path d="M154.052 198.429L153.807 187.531C155.248 187.527 156.63 186.954 157.65 185.936C158.671 184.918 159.248 183.539 159.256 182.097V152.449C159.252 151.005 158.677 149.621 157.655 148.6C156.634 147.579 155.251 147.004 153.807 147H85.4337C83.9925 147.008 82.6127 147.585 81.595 148.606C80.5773 149.626 80.004 151.008 80 152.449V182.143C80.004 183.583 80.5778 184.963 81.596 185.981C82.6141 186.999 83.9939 187.573 85.4337 187.577H144.562L154.052 198.429Z" fill="#182F43"/>
<path d="M101.674 166.352C101.677 165.691 101.483 165.045 101.119 164.494C100.754 163.943 100.234 163.513 99.6243 163.258C99.0149 163.004 98.3435 162.935 97.6952 163.062C97.0469 163.189 96.4509 163.506 95.9827 163.972C95.5146 164.438 95.1952 165.032 95.0652 165.68C94.9353 166.328 95.0004 167 95.2525 167.61C95.5046 168.221 95.9323 168.743 96.4813 169.11C97.0304 169.477 97.6761 169.674 98.3367 169.674C99.2191 169.674 100.065 169.324 100.691 168.702C101.316 168.079 101.669 167.234 101.674 166.352Z" fill="#FFB700"/>
<path d="M121.326 166.352C121.329 165.691 121.135 165.044 120.77 164.493C120.404 163.941 119.883 163.511 119.273 163.257C118.663 163.002 117.991 162.935 117.342 163.063C116.693 163.192 116.097 163.51 115.63 163.977C115.162 164.445 114.844 165.041 114.716 165.69C114.587 166.338 114.655 167.01 114.909 167.621C115.164 168.231 115.594 168.752 116.145 169.118C116.696 169.483 117.343 169.677 118.004 169.674C118.885 169.674 119.73 169.324 120.353 168.701C120.976 168.078 121.326 167.233 121.326 166.352Z" fill="#FFB700"/>
<path d="M140.994 166.352C140.997 165.691 140.804 165.045 140.439 164.494C140.074 163.943 139.554 163.513 138.945 163.258C138.335 163.004 137.664 162.935 137.016 163.062C136.367 163.189 135.771 163.506 135.303 163.972C134.835 164.438 134.516 165.032 134.386 165.68C134.256 166.328 134.321 167 134.573 167.61C134.825 168.221 135.253 168.743 135.802 169.11C136.351 169.477 136.996 169.674 137.657 169.674C138.539 169.674 139.386 169.324 140.011 168.702C140.636 168.079 140.99 167.234 140.994 166.352Z" fill="#FFB700"/>
<g clip-path="url(#clip0_28_15929)">
<path d="M55.153 119.463L46.3323 110.649C45.9674 110.285 45.4265 110.233 45.123 110.534L44.7639 110.899C44.4604 111.201 44.5126 111.743 44.8798 112.108L53.7005 120.922C54.0653 121.286 54.6063 121.337 54.9086 121.037L55.2735 120.673C55.5688 120.368 55.5179 119.828 55.153 119.463Z" fill="#AA4337"/>
<path d="M53.5017 121.113L44.681 112.299C44.3161 111.935 43.774 111.884 43.4717 112.183L43.1068 112.548C42.8045 112.85 42.8566 113.391 43.2227 113.755L52.0445 122.569C52.4094 122.934 52.9503 122.985 53.2526 122.685L53.6164 122.321C53.914 122.018 53.8666 121.478 53.5017 121.113Z" fill="#AA4337"/>
<path d="M51.852 122.763L43.0279 113.95C42.663 113.585 42.122 113.532 41.8186 113.834L41.4549 114.198C41.1525 114.501 41.2035 115.041 41.5707 115.406L50.3914 124.22C50.7563 124.584 51.2983 124.636 51.5995 124.335L51.9644 123.971C52.269 123.667 52.2169 123.128 51.852 122.763Z" fill="#AA4337"/>
<path d="M42.4834 116.699L49.0986 123.309C48.004 124.404 45.5078 123.37 43.9672 121.828C42.4266 120.286 41.3887 117.793 42.4834 116.699Z" fill="#AA4337"/>
<path d="M67.8064 84.8682C67.8064 84.8682 73.1509 84.8878 77.0557 88.2247C77.0557 88.2247 83.8099 93.6855 80.5735 103.341C80.5735 103.341 78.6736 108.172 73.8344 110.076C73.8344 110.076 65.8071 112.718 65.309 113.288L58.7807 116.473C58.7807 116.473 56.3169 118.501 55.3752 117.56L48.636 110.826C48.636 110.826 47.385 109.613 49.2152 107.784C49.2152 107.784 52.6716 101.65 53.1292 99.5294C53.1292 99.5294 56.0991 91.3463 57.839 89.609C57.8436 89.609 60.0143 85.2675 67.8064 84.8682Z" fill="#FFB700"/>
<path d="M49.3266 110.441C49.8949 110.252 50.4525 110.031 50.9969 109.781C51.8321 109.411 52.6545 109.015 53.4676 108.601C54.4198 108.115 55.3569 107.602 56.2789 107.063C57.238 106.5 58.1797 105.905 59.0879 105.265C59.9209 104.688 60.7089 104.049 61.4451 103.353C62.0161 102.803 62.5652 102.19 62.9185 101.473C63.1791 100.943 63.303 100.33 63.0841 99.7638C62.9161 99.3286 62.6926 98.846 62.1794 98.7684C61.6663 98.6909 61.1369 98.9826 60.7837 99.3472C60.4229 99.7357 60.1468 100.195 59.9728 100.696C59.7956 101.178 59.6798 101.721 59.7527 102.236C59.8251 102.664 59.9912 103.072 60.2392 103.428C60.5371 103.887 60.8995 104.301 61.3153 104.657C62.169 105.388 63.2995 105.881 64.4266 105.536C65.4506 105.223 66.4421 104.195 66.3089 103.056C66.2939 102.879 66.2392 102.707 66.1487 102.554C66.0583 102.401 65.9344 102.271 65.7865 102.172C65.3602 101.919 64.8239 102.013 64.3965 102.218C63.8509 102.479 63.4698 102.993 63.1965 103.514C62.8663 104.131 62.6092 104.81 62.5594 105.513C62.4852 106.561 62.9381 107.685 64.0351 107.98C64.6988 108.159 65.4066 108.036 66.0402 107.805C66.8267 107.52 67.5393 107.063 68.1252 106.467C68.3649 106.213 68.7043 105.747 68.3939 105.419C68.2464 105.291 68.0608 105.215 67.8657 105.203C67.5881 105.17 67.3071 105.184 67.034 105.243C66.2579 105.395 65.5826 105.757 64.9305 106.19C64.215 106.665 63.528 107.182 62.8733 107.739C61.6439 108.803 60.4962 109.958 59.44 111.195C58.3766 112.416 57.3654 113.68 56.3125 114.907C55.7843 115.521 55.2445 116.125 54.6908 116.713C54.575 116.829 54.7881 116.87 54.8669 116.867C55.0379 116.867 55.2029 116.804 55.3302 116.69C57.4477 114.462 59.2628 111.97 61.3825 109.746C62.4422 108.618 63.6057 107.593 64.8575 106.683C65.1876 106.446 65.5235 106.211 65.871 106.001C66.0169 105.913 66.1677 105.833 66.3228 105.762L66.4618 105.704C66.4973 105.689 66.5332 105.675 66.5695 105.662C66.5811 105.662 66.7143 105.612 66.6529 105.632C66.7201 105.61 66.7884 105.592 66.8568 105.574L66.9552 105.551C66.8742 105.568 66.9784 105.551 66.9877 105.551L67.0803 105.536C67.0896 105.536 67.1892 105.524 67.1116 105.536C67.1765 105.53 67.2425 105.527 67.3074 105.527C67.3931 105.527 67.2506 105.527 67.334 105.527L67.407 105.534C67.4232 105.534 67.5228 105.556 67.4788 105.544C67.5515 105.558 67.6208 105.586 67.6827 105.626C67.7331 105.66 67.773 105.708 67.7978 105.763C67.8225 105.818 67.8312 105.88 67.8228 105.94C67.7796 106.133 67.6805 106.309 67.5379 106.447C67.2961 106.7 67.0238 106.923 66.7271 107.109C66.4223 107.316 66.0932 107.485 65.7471 107.611C65.5244 107.693 65.2894 107.737 65.0521 107.741C64.7167 107.746 64.3875 107.651 64.107 107.467C63.8265 107.283 63.6078 107.019 63.4791 106.71C62.966 105.589 63.3945 104.267 63.9783 103.263C64.1194 103.011 64.297 102.782 64.5054 102.582C64.5274 102.563 64.5668 102.529 64.6004 102.502L64.6664 102.455C64.6722 102.455 64.7463 102.403 64.6884 102.438C64.7301 102.412 64.7729 102.39 64.817 102.368C64.7173 102.418 64.817 102.368 64.817 102.368L64.8598 102.353C64.8019 102.372 64.7926 102.375 64.8297 102.365C64.8668 102.354 64.9235 102.354 64.8181 102.365L64.8784 102.355C64.7417 102.378 64.9838 102.367 64.8714 102.355L64.9652 102.367C65.0266 102.376 64.9166 102.351 64.9757 102.367C64.9988 102.375 65.022 102.381 65.0452 102.39C65.1053 102.409 65.1612 102.439 65.2096 102.479C65.2748 102.528 65.3332 102.585 65.3834 102.649C65.4837 102.791 65.5548 102.951 65.5928 103.12C65.6308 103.29 65.6348 103.465 65.6046 103.635C65.5188 104.124 65.2746 104.572 64.9096 104.909C64.8195 104.994 64.7218 105.072 64.6177 105.14C64.6583 105.114 64.5714 105.167 64.5749 105.166L64.4926 105.21C64.4857 105.21 64.3942 105.255 64.4625 105.225C64.4254 105.241 64.3884 105.255 64.3467 105.269C64.2552 105.306 64.4208 105.251 64.327 105.276L64.2413 105.299C64.1486 105.324 64.3177 105.291 64.2227 105.299C64.1938 105.299 64.1648 105.307 64.137 105.313C64.1092 105.318 64.0722 105.32 64.137 105.313L64.0501 105.318H63.9644H63.9065C63.9343 105.318 63.9308 105.318 63.8961 105.318C63.4158 105.271 62.9547 105.106 62.5536 104.838C61.737 104.324 60.9864 103.534 60.6111 102.639C60.2497 101.773 60.4952 100.796 60.9331 100.002C61.0455 99.7925 61.1811 99.5961 61.3373 99.4166C61.3948 99.3515 61.4559 99.2897 61.5204 99.2314C61.5543 99.2036 61.5891 99.177 61.6246 99.1516C61.6431 99.1377 61.6628 99.1249 61.6825 99.1122C61.6153 99.155 61.7011 99.1053 61.7126 99.0983C61.7763 99.0578 61.642 99.1261 61.7126 99.0983C61.7416 99.0867 61.8018 99.0775 61.6976 99.0983C61.7289 99.0914 61.7868 99.0891 61.6802 99.0983C61.7161 99.0983 61.7509 99.1041 61.6698 99.0983C61.6883 99.0983 61.7092 99.0925 61.7265 99.0983C61.6397 99.0786 61.7138 99.0983 61.7265 99.0983C61.7879 99.1168 61.6779 99.081 61.7393 99.0983C61.7641 99.1052 61.7885 99.1138 61.8123 99.1238C61.9699 99.2118 62.0989 99.3432 62.1841 99.5023C62.3456 99.7605 62.446 100.052 62.4775 100.355C62.509 100.658 62.4709 100.964 62.3659 101.25C62.1343 101.896 61.7103 102.428 61.2412 102.934C60.6286 103.577 59.9603 104.165 59.2442 104.691C57.6064 105.928 55.892 106.948 54.0827 107.918C53.2672 108.355 52.4421 108.772 51.6074 109.168C51.4298 109.252 51.2521 109.335 51.0745 109.416L51.0108 109.445C51.0965 109.406 51.0224 109.445 51.0108 109.445L50.8869 109.5L50.6274 109.616C50.3448 109.74 50.061 109.86 49.7749 109.972C49.6683 110.015 49.5606 110.056 49.4529 110.095C49.4042 110.114 49.3556 110.131 49.3069 110.147L49.2397 110.17C49.1505 110.2 49.3289 110.141 49.2583 110.17C49.1876 110.199 48.9166 110.27 48.9455 110.402C48.9745 110.534 49.2664 110.467 49.3312 110.446L49.3266 110.441Z" fill="#033757"/>
<path d="M34.8514 137.183C34.7945 137.217 34.7288 137.235 34.6623 137.233C34.5957 137.231 34.5311 137.21 34.4761 137.173C34.4198 137.137 34.3732 137.089 34.3405 137.031C34.3077 136.973 34.2898 136.908 34.2885 136.842C34.2971 135.822 34.5189 134.816 34.9395 133.888C30.0293 137.933 26.5427 138 26.3771 138H26.3551C26.2954 137.994 26.2378 137.976 26.1863 137.945C26.1348 137.914 26.0908 137.873 26.0574 137.823C26.024 137.767 26.0045 137.703 26.0007 137.638C25.9969 137.573 26.0088 137.508 26.0354 137.448C26.9736 135.564 29.2903 132.873 30.9676 131.042C29.9871 131.431 28.9758 131.737 27.9443 131.958C27.8728 131.974 27.7984 131.969 27.7297 131.943C27.6611 131.918 27.6013 131.873 27.5574 131.815C27.5148 131.757 27.4893 131.688 27.4835 131.616C27.4778 131.544 27.4922 131.472 27.525 131.407C32.0714 122.256 38.8349 121.397 39.1222 121.363C39.1786 121.356 39.2358 121.362 39.2893 121.382C39.3428 121.401 39.3911 121.432 39.4303 121.473L39.9504 121.992C39.055 122.521 37.9639 123.49 37.0801 125.266C37.0683 125.29 37.0631 125.317 37.0652 125.345C37.0672 125.372 37.0763 125.398 37.0917 125.42C37.1077 125.442 37.1297 125.459 37.1552 125.469C37.1806 125.479 37.2084 125.482 37.2353 125.477C37.6338 125.389 38.0249 125.271 38.4052 125.124C37.7531 125.83 36.86 126.877 36.4963 127.605C36.484 127.627 36.4785 127.653 36.4803 127.678C36.4822 127.703 36.4913 127.727 36.5067 127.748C36.5173 127.769 36.5339 127.787 36.5545 127.798C36.5751 127.81 36.5988 127.816 36.6225 127.815H36.6341C36.7001 127.815 38.0461 127.792 39.9562 126.215C39.7926 126.576 39.7059 126.966 39.7014 127.362C39.7015 127.388 39.7089 127.413 39.7226 127.434C39.7364 127.456 39.7559 127.473 39.779 127.484C39.8005 127.497 39.8254 127.504 39.8508 127.504C39.8762 127.504 39.9011 127.497 39.9226 127.484C40.0327 127.418 41.9856 126.359 42.9563 124.97L43.971 125.973C44.033 126.032 44.0738 126.109 44.0868 126.193C44.8803 131.692 35.2661 136.963 34.8514 137.183Z" fill="#F8AB0F"/>
<path d="M65.2942 90.0671C64.5992 90 61.1034 89.9143 60.0134 94.8473C59.9978 94.9328 59.9652 95.0144 59.9174 95.087C59.8697 95.1597 59.8078 95.222 59.7354 95.2703C59.6631 95.3186 59.5817 95.3518 59.4963 95.3681C59.4108 95.3843 59.3229 95.3832 59.2379 95.3648C59.1529 95.3463 59.0724 95.311 59.0013 95.2609C58.9302 95.2108 58.8699 95.1469 58.8241 95.073C58.7782 94.9992 58.7476 94.9168 58.7343 94.8309C58.7209 94.745 58.725 94.6573 58.7462 94.573C60.0736 88.5705 64.5378 88.6967 65.4205 88.7858C65.5915 88.8025 65.7488 88.8865 65.8578 89.0191C65.9669 89.1517 66.0187 89.3222 66.002 89.493C65.9852 89.6638 65.9013 89.821 65.7685 89.93C65.6358 90.039 65.4652 90.0908 65.2942 90.074V90.0671Z" fill="white"/>
<path d="M84.4495 113.787L81.2293 110.57C81.1355 110.477 81.0082 110.424 80.8754 110.424C80.7427 110.424 80.6154 110.477 80.5216 110.57C80.4277 110.664 80.375 110.791 80.375 110.924C80.375 111.057 80.4277 111.184 80.5216 111.277L83.7394 114.492C83.833 114.586 83.9601 114.639 84.0928 114.639C84.1585 114.64 84.2237 114.627 84.2845 114.602C84.3453 114.577 84.4005 114.54 84.4472 114.494C84.4938 114.448 84.5308 114.393 84.5562 114.332C84.5815 114.272 84.5947 114.207 84.5949 114.141C84.5951 114.075 84.5824 114.01 84.5574 113.949C84.5325 113.889 84.4958 113.833 84.4495 113.787Z" fill="#F8AB0F" stroke="#F8AB0F" stroke-width="1.5" stroke-miterlimit="10"/>
<path d="M85.3769 103.398C85.4393 103.46 85.5167 103.505 85.6016 103.528L90.0033 104.685C90.1315 104.719 90.2681 104.701 90.3829 104.635C90.4977 104.568 90.5813 104.459 90.6154 104.331C90.6495 104.203 90.6313 104.066 90.5647 103.951C90.4981 103.837 90.3887 103.753 90.2604 103.719L85.8588 102.562C85.7524 102.533 85.6398 102.541 85.5383 102.583C85.4367 102.626 85.352 102.7 85.2971 102.796C85.2423 102.891 85.2204 103.002 85.2348 103.11C85.2492 103.219 85.2991 103.321 85.3769 103.398Z" fill="#F8AB0F" stroke="#F8AB0F" stroke-width="1.5" stroke-miterlimit="10"/>
<path d="M86.2204 93.5431C86.2451 93.6267 86.2905 93.7027 86.3525 93.7641C86.4149 93.8264 86.4926 93.871 86.5779 93.8936C86.6631 93.9162 86.7528 93.9158 86.8378 93.8926L91.2302 92.6923C91.2935 92.6752 91.3528 92.6457 91.4046 92.6056C91.4565 92.5656 91.5 92.5157 91.5326 92.4588C91.5652 92.402 91.5863 92.3393 91.5946 92.2743C91.6029 92.2093 91.5984 92.1433 91.5812 92.0801C91.564 92.0168 91.5345 91.9576 91.4944 91.9058C91.4543 91.8539 91.4044 91.8105 91.3475 91.7779C91.2906 91.7453 91.2278 91.7243 91.1628 91.716C91.0977 91.7076 91.0317 91.7122 90.9684 91.7294L86.5749 92.9285C86.5112 92.9455 86.4515 92.9749 86.3992 93.0151C86.3469 93.0552 86.303 93.1052 86.2701 93.1623C86.2372 93.2194 86.2159 93.2824 86.2073 93.3478C86.1988 93.4131 86.2033 93.4795 86.2204 93.5431V93.5431Z" fill="#F8AB0F" stroke="#F8AB0F" stroke-width="1.5" stroke-miterlimit="10"/>
<path d="M63.0981 78.754L61.9398 74.3558C61.9058 74.2278 61.8224 74.1185 61.7078 74.052C61.5932 73.9854 61.4568 73.9671 61.3287 74.001C61.2006 74.035 61.0913 74.1183 61.0247 74.2328C60.9581 74.3473 60.9398 74.4836 60.9737 74.6116L62.132 79.0098C62.1539 79.0952 62.1983 79.1732 62.2606 79.2355C62.3384 79.3132 62.4397 79.3631 62.5487 79.3775C62.6578 79.3919 62.7685 79.37 62.8639 79.3152C62.9592 79.2604 63.0338 79.1757 63.0762 79.0743C63.1185 78.9729 63.1262 78.8603 63.0981 78.754V78.754Z" fill="#F8AB0F" stroke="#F8AB0F" stroke-width="1.5" stroke-miterlimit="10"/>
<path d="M74.7485 120.117L73.5901 115.719C73.5733 115.656 73.5442 115.596 73.5044 115.544C73.4646 115.492 73.4149 115.448 73.3582 115.415C73.3014 115.382 73.2387 115.361 73.1737 115.352C73.1087 115.343 73.0426 115.348 72.9791 115.364C72.9157 115.381 72.8562 115.41 72.804 115.45C72.7518 115.49 72.708 115.539 72.6751 115.596C72.6421 115.653 72.6206 115.715 72.6119 115.78C72.6031 115.845 72.6073 115.911 72.6241 115.975L73.7824 120.373C73.8046 120.458 73.8489 120.536 73.911 120.598C73.9888 120.675 74.0899 120.725 74.1987 120.739C74.3076 120.754 74.4181 120.732 74.5134 120.677C74.6086 120.623 74.6832 120.538 74.7257 120.437C74.7682 120.336 74.7762 120.224 74.7485 120.117V120.117Z" fill="#F8AB0F" stroke="#F8AB0F" stroke-width="1.5" stroke-miterlimit="10"/>
<path d="M50.4258 90.9109L46.0242 89.7535C45.8984 89.7263 45.7671 89.7486 45.6573 89.8156C45.5476 89.8827 45.4679 89.9894 45.4348 90.1136C45.4017 90.2378 45.4178 90.37 45.4796 90.4827C45.5415 90.5954 45.6444 90.6799 45.767 90.7188L50.1687 91.8762C50.2944 91.9034 50.4258 91.8812 50.5355 91.8141C50.6453 91.7471 50.7249 91.6404 50.758 91.5161C50.7911 91.3919 50.7751 91.2598 50.7132 91.1471C50.6513 91.0344 50.5484 90.9498 50.4258 90.9109V90.9109Z" fill="#F8AB0F" stroke="#F8AB0F" stroke-width="1.5" stroke-miterlimit="10"/>
<path d="M72.6313 78.7423C72.6107 78.8066 72.6033 78.8745 72.6096 78.9417C72.616 79.009 72.6359 79.0743 72.6682 79.1337C72.7004 79.193 72.7444 79.2452 72.7975 79.2871C72.8505 79.329 72.9115 79.3598 72.9768 79.3775C73.0421 79.3952 73.1102 79.3995 73.1772 79.3901C73.2442 79.3807 73.3085 79.3579 73.3664 79.323C73.4243 79.288 73.4745 79.2418 73.514 79.1869C73.5535 79.1321 73.5815 79.0698 73.5962 79.0038L74.7962 74.6148C74.8135 74.5516 74.8181 74.4856 74.8099 74.4206C74.8016 74.3556 74.7806 74.2928 74.7481 74.2359C74.7155 74.179 74.6721 74.129 74.6202 74.0889C74.5684 74.0488 74.5091 74.0192 74.4458 74.002C74.3826 73.9847 74.3165 73.9801 74.2514 73.9884C74.1864 73.9966 74.1235 74.0176 74.0666 74.0501C74.0096 74.0826 73.9597 74.126 73.9195 74.1778C73.8793 74.2297 73.8498 74.2889 73.8325 74.3521L72.6313 78.7423Z" fill="#F8AB0F" stroke="#F8AB0F" stroke-width="1.5" stroke-miterlimit="10"/>
<path d="M81.4946 84.9502C81.541 84.9966 81.5961 85.0334 81.6567 85.0585C81.7173 85.0836 81.7823 85.0966 81.8479 85.0966C81.9136 85.0966 81.9785 85.0836 82.0392 85.0585C82.0998 85.0334 82.1549 84.9966 82.2012 84.9502L85.4225 81.7302C85.5162 81.6366 85.5689 81.5096 85.5689 81.3772C85.5689 81.2448 85.5162 81.1178 85.4225 81.0242C85.3288 80.9305 85.2018 80.8779 85.0693 80.8779C84.9367 80.8779 84.8097 80.9305 84.716 81.0242L81.4946 84.2441C81.4481 84.2904 81.4111 84.3454 81.3859 84.406C81.3606 84.4666 81.3477 84.5315 81.3477 84.5972C81.3477 84.6628 81.3606 84.7278 81.3859 84.7883C81.4111 84.8489 81.4481 84.9039 81.4946 84.9502V84.9502Z" fill="#F8AB0F" stroke="#F8AB0F" stroke-width="1.5" stroke-miterlimit="10"/>
<path d="M55.3171 83.9614C55.3637 83.9152 55.4006 83.8602 55.4259 83.7996C55.4511 83.739 55.4641 83.674 55.4641 83.6084C55.4641 83.5428 55.4511 83.4778 55.4259 83.4172C55.4006 83.3566 55.3637 83.3016 55.3171 83.2554L52.1004 80.04C52.0066 79.9462 51.8793 79.8936 51.7465 79.8936C51.6138 79.8936 51.4865 79.9462 51.3927 80.04C51.2988 80.1338 51.2461 80.261 51.2461 80.3936C51.2461 80.5262 51.2988 80.6534 51.3927 80.7472L54.6105 83.9614C54.6568 84.008 54.7118 84.0449 54.7725 84.0701C54.8331 84.0953 54.8981 84.1083 54.9638 84.1083C55.0295 84.1083 55.0945 84.0953 55.1551 84.0701C55.2158 84.0449 55.2708 84.008 55.3171 83.9614V83.9614Z" fill="#F8AB0F" stroke="#F8AB0F" stroke-width="1.5" stroke-miterlimit="10"/>
</g>
<defs>
<clipPath id="clip0_28_15929">
<rect width="67" height="65" fill="white" transform="translate(26 73)"/>
</clipPath>
</defs>
</svg>
