<svg width="83" height="25" viewBox="0 0 83 25" fill="none" xmlns="http://www.w3.org/2000/svg">
<path d="M81.456 24.0834C81.7816 23.0503 81.0405 21.0739 80.7709 20.4787C79.3785 17.3793 75.9421 15.9868 72.6855 16.2451C71.5171 16.4695 70.3166 16.4695 69.1481 16.2451C67.766 15.6614 66.6661 14.5615 66.0824 13.1793C64.8015 10.7179 63.1797 8.44959 61.2648 6.44147C58.3339 3.38697 54.3697 1.14101 50.0351 1.287C38.3224 1.69127 39.524 11.3938 36.2898 14.2237C34.493 15.7959 33.2016 13.5499 31.6744 12.7863C30.721 12.2686 29.6329 12.0527 28.554 12.167C27.4752 12.2813 26.4565 12.7204 25.6328 13.4264C23.9371 14.8413 22.9488 16.8739 21.6911 18.6258C20.4334 20.3776 18.4008 21.9947 16.2222 21.714C14.403 21.5118 12.9543 20.1081 11.2137 19.5242C10.1994 19.2363 9.13555 19.1666 8.09229 19.3195C7.04903 19.4724 6.04998 19.8445 5.16088 20.4113C3.60496 21.3928 2.22978 22.635 1.0957 24.0834H81.456Z" fill="white" stroke="#EFF1F7" stroke-miterlimit="10"/>
</svg>
