<svg width="449" height="558" viewBox="0 0 449 558" fill="none" xmlns="http://www.w3.org/2000/svg">
<path d="M225.103 432.831C335.943 432.831 425.796 342.977 425.796 232.137C425.796 121.298 335.943 31.4443 225.103 31.4443C114.264 31.4443 24.4102 121.298 24.4102 232.137C24.4102 342.977 114.264 432.831 225.103 432.831Z" stroke="#182F43" stroke-linecap="round" stroke-linejoin="round" stroke-dasharray="2 3"/>
<path d="M152.073 435.007C121.257 435.007 95.6247 425.515 77.2628 407.153C23.0062 352.897 50.7268 236.861 139.027 148.605C181.793 105.854 232.214 75.8682 281.006 64.1995C329.799 52.5308 371.335 60.5419 397.575 86.841C420.394 109.675 429.634 144.918 423.578 186.055L422.852 185.951C428.864 145.022 419.698 110.001 397.042 87.3445C370.935 61.2231 329.784 53.286 281.184 64.8955C232.584 76.505 182.222 106.447 139.56 149.109C51.5265 237.142 23.8207 352.66 77.7811 406.605C99.2675 428.092 130.809 437.332 168.998 433.334L169.073 434.074C163.426 434.679 157.752 434.991 152.073 435.007Z" fill="#FFB700"/>
<path d="M311.613 401.008C260.733 401.008 201.382 380.662 148.192 340.858C50.1184 267.47 9.58891 155.314 57.8631 90.8395C79.0237 62.5562 115.007 46.8893 159.165 46.7412V47.4816C115.244 47.6297 79.4828 63.1781 58.4702 91.2837C10.4774 155.432 50.9329 267.129 148.681 340.266C246.428 413.403 364.996 420.718 413.004 356.555C432.876 329.974 438.311 295.013 428.7 255.445L429.426 255.268C439.081 295.072 433.602 330.241 413.596 356.984C391.473 386.511 354.557 400.993 311.613 401.008Z" fill="#FFB700"/>
<path d="M131.34 314.796C115.759 314.871 100.193 313.802 84.7685 311.598C38.8637 304.771 10.2694 287.787 4.46465 263.768C-1.34009 239.749 16.3111 211.599 54.0863 184.545C91.8616 157.491 145.111 134.805 204.18 120.53C263.25 106.255 321.06 102.139 366.921 108.95C412.781 115.762 441.435 132.747 447.239 156.78C453.044 180.814 435.393 208.934 397.618 235.988C359.842 263.042 306.607 285.714 247.523 299.988C207.053 309.762 167.175 314.796 131.34 314.796ZM320.423 106.537C285.417 106.537 245.643 111.275 204.343 121.256C145.363 135.501 92.143 158.187 54.5158 185.123C16.8886 212.058 -0.540451 239.912 5.19025 263.605C10.921 287.298 39.2487 304.105 84.887 310.872C130.525 317.64 188.365 313.553 247.346 299.307L247.435 299.663L247.346 299.307C369.023 269.913 458.375 206.017 446.514 156.987C438.68 124.528 388.6 106.537 320.423 106.537Z" fill="#FFB700"/>
<path d="M175.349 457.457C172.356 457.451 169.375 457.098 166.464 456.405C142.43 450.6 125.594 421.473 119.078 374.384C112.563 327.294 117.005 268.18 131.65 207.542C146.295 146.903 169.366 92.1575 196.628 53.3605C223.889 14.5635 252.217 -3.76886 276.25 2.03589C300.284 7.84063 317.121 36.968 323.636 84.0427C330.152 131.117 325.694 190.261 311.049 250.899C296.404 311.538 273.274 366.284 246.012 405.125C222.023 439.183 197.294 457.457 175.349 457.457ZM267.247 1.72492C219.506 1.72492 160.629 90.114 132.257 207.719C102.167 332.566 117.479 443.818 166.567 455.68C190.26 461.41 218.277 443.285 245.405 404.651C272.534 366.017 295.649 311.257 310.279 250.648L310.635 250.737L310.279 250.648C340.443 125.772 325.087 14.5339 275.969 2.68744C273.111 2.01973 270.182 1.69659 267.247 1.72492Z" fill="#FFB700"/>
<path d="M251.507 395.175C252.025 395.691 252.685 396.043 253.403 396.185C254.121 396.327 254.864 396.253 255.54 395.973C256.216 395.692 256.794 395.218 257.2 394.609C257.607 394.001 257.823 393.285 257.823 392.554C257.823 391.822 257.607 391.106 257.2 390.498C256.794 389.889 256.216 389.415 255.54 389.134C254.864 388.854 254.121 388.78 253.403 388.922C252.685 389.064 252.025 389.416 251.507 389.933C250.818 390.631 250.432 391.572 250.432 392.554C250.432 393.535 250.818 394.476 251.507 395.175Z" fill="#FFB700"/>
<path d="M254.128 396.625C253.177 396.631 252.255 396.307 251.517 395.709C250.779 395.11 250.272 394.273 250.083 393.342C249.893 392.411 250.032 391.443 250.477 390.603C250.922 389.764 251.645 389.105 252.521 388.739C253.398 388.372 254.375 388.322 255.285 388.596C256.195 388.87 256.981 389.452 257.51 390.241C258.039 391.031 258.277 391.979 258.184 392.925C258.091 393.87 257.673 394.755 257 395.426C256.625 395.807 256.178 396.109 255.685 396.314C255.191 396.52 254.662 396.626 254.128 396.625ZM254.128 389.221C253.58 389.221 253.04 389.356 252.556 389.614C252.073 389.872 251.66 390.245 251.355 390.701C251.051 391.156 250.863 391.68 250.809 392.226C250.755 392.771 250.837 393.321 251.046 393.828C251.256 394.334 251.587 394.781 252.011 395.129C252.435 395.477 252.938 395.714 253.476 395.821C254.013 395.928 254.569 395.901 255.093 395.741C255.618 395.582 256.095 395.296 256.482 394.908C257.106 394.283 257.457 393.436 257.457 392.553C257.457 391.67 257.106 390.823 256.482 390.199C256.174 389.888 255.807 389.642 255.403 389.474C254.999 389.306 254.565 389.22 254.128 389.221Z" fill="#FFB700"/>
<path d="M114.281 316.084C114.799 316.601 115.459 316.952 116.177 317.094C116.894 317.236 117.638 317.163 118.314 316.882C118.99 316.602 119.568 316.127 119.974 315.519C120.38 314.91 120.597 314.195 120.597 313.463C120.597 312.731 120.38 312.016 119.974 311.407C119.568 310.798 118.99 310.324 118.314 310.043C117.638 309.763 116.894 309.689 116.177 309.831C115.459 309.973 114.799 310.325 114.281 310.842C113.936 311.186 113.663 311.594 113.476 312.044C113.289 312.494 113.193 312.976 113.193 313.463C113.193 313.95 113.289 314.432 113.476 314.882C113.663 315.331 113.936 315.74 114.281 316.084Z" fill="#FFB700"/>
<path d="M116.886 317.535C116.348 317.528 115.816 317.412 115.323 317.196C114.829 316.98 114.384 316.667 114.013 316.277C113.352 315.611 112.943 314.736 112.854 313.802C112.765 312.868 113.003 311.932 113.527 311.153C114.051 310.375 114.829 309.802 115.728 309.532C116.626 309.263 117.591 309.313 118.457 309.675C119.323 310.036 120.036 310.687 120.477 311.515C120.917 312.344 121.056 313.3 120.871 314.219C120.686 315.139 120.187 315.967 119.461 316.56C118.734 317.154 117.824 317.478 116.886 317.476V317.535ZM116.886 310.131C116.228 310.132 115.584 310.328 115.037 310.694C114.489 311.06 114.063 311.58 113.811 312.189C113.559 312.797 113.493 313.466 113.621 314.112C113.749 314.758 114.066 315.352 114.532 315.818C115.165 316.424 116.009 316.763 116.886 316.763C117.763 316.763 118.607 316.424 119.241 315.818C119.706 315.352 120.023 314.758 120.151 314.112C120.279 313.466 120.213 312.797 119.961 312.189C119.71 311.58 119.283 311.06 118.736 310.694C118.188 310.328 117.545 310.132 116.886 310.131Z" fill="#FFB700"/>
<path d="M65.1486 255.312C65.6658 255.831 66.3254 256.184 67.0439 256.328C67.7623 256.472 68.5073 256.399 69.1844 256.119C69.8615 255.84 70.4404 255.365 70.8477 254.756C71.255 254.147 71.4724 253.431 71.4724 252.698C71.4724 251.965 71.255 251.249 70.8477 250.64C70.4404 250.031 69.8615 249.557 69.1844 249.277C68.5073 248.997 67.7623 248.924 67.0439 249.068C66.3254 249.212 65.6658 249.566 65.1486 250.084C64.4568 250.778 64.0684 251.718 64.0684 252.698C64.0684 253.678 64.4568 254.618 65.1486 255.312Z" fill="#FFB700"/>
<path d="M67.7544 256.764C66.8119 256.763 65.8986 256.436 65.1704 255.838C64.4422 255.239 63.9441 254.407 63.7611 253.482C63.5781 252.557 63.7215 251.598 64.1669 250.767C64.6122 249.936 65.332 249.286 66.2034 248.927C67.0747 248.567 68.0438 248.521 68.9452 248.797C69.8467 249.072 70.6247 249.652 71.1467 250.436C71.6686 251.221 71.9021 252.163 71.8074 253.101C71.7127 254.038 71.2955 254.914 70.6272 255.579C69.8638 256.338 68.8309 256.764 67.7544 256.764ZM67.7544 249.36C66.9873 249.364 66.2453 249.634 65.6548 250.123C65.0643 250.613 64.6618 251.293 64.516 252.046C64.3701 252.799 64.4898 253.579 64.8547 254.254C65.2196 254.929 65.8071 255.457 66.5172 255.747C67.2274 256.037 68.0162 256.072 68.7493 255.846C69.4825 255.62 70.1147 255.147 70.5382 254.508C70.9617 253.868 71.1504 253.101 71.0721 252.338C70.9938 251.575 70.6535 250.862 70.1089 250.322C69.479 249.709 68.6332 249.369 67.7544 249.374V249.36Z" fill="#FFB700"/>
<path d="M40.1368 196.583C40.6549 197.1 41.3145 197.451 42.0324 197.593C42.7502 197.735 43.4941 197.662 44.17 197.381C44.8459 197.101 45.4236 196.626 45.8299 196.018C46.2363 195.409 46.4532 194.694 46.4532 193.962C46.4532 193.23 46.2363 192.515 45.8299 191.906C45.4236 191.297 44.8459 190.823 44.17 190.542C43.4941 190.262 42.7502 190.188 42.0324 190.33C41.3145 190.472 40.6549 190.824 40.1368 191.341C39.7902 191.684 39.5151 192.092 39.3274 192.542C39.1396 192.992 39.043 193.474 39.043 193.962C39.043 194.449 39.1396 194.932 39.3274 195.382C39.5151 195.832 39.7902 196.24 40.1368 196.583Z" fill="#FFB700"/>
<path d="M42.7445 198.035C41.6686 198.032 40.6369 197.607 39.8717 196.85C39.3024 196.281 38.9148 195.555 38.7578 194.765C38.6008 193.975 38.6816 193.157 38.9898 192.413C39.2981 191.669 39.8201 191.033 40.4897 190.586C41.1593 190.138 41.9466 189.899 42.7519 189.899C43.5572 189.899 44.3445 190.138 45.0141 190.586C45.6837 191.033 46.2057 191.669 46.5139 192.413C46.8222 193.157 46.903 193.975 46.746 194.765C46.589 195.555 46.2014 196.281 45.6321 196.85C44.8632 197.61 43.8255 198.036 42.7445 198.035ZM40.39 196.332C40.8558 196.799 41.4495 197.116 42.0959 197.245C42.7423 197.374 43.4124 197.308 44.0215 197.056C44.6305 196.804 45.1511 196.377 45.5174 195.829C45.8837 195.281 46.0792 194.637 46.0792 193.978C46.0792 193.319 45.8837 192.674 45.5174 192.126C45.1511 191.578 44.6305 191.151 44.0215 190.899C43.4124 190.647 42.7423 190.581 42.0959 190.71C41.4495 190.839 40.8558 191.157 40.39 191.623C39.7661 192.248 39.4156 193.095 39.4156 193.978C39.4156 194.861 39.7661 195.707 40.39 196.332Z" fill="#FFB700"/>
<path d="M49.4353 306.489C49.9534 307.006 50.613 307.357 51.3309 307.5C52.0487 307.642 52.7926 307.568 53.4685 307.287C54.1444 307.007 54.7221 306.532 55.1284 305.924C55.5348 305.315 55.7517 304.6 55.7517 303.868C55.7517 303.136 55.5348 302.421 55.1284 301.812C54.7221 301.204 54.1444 300.729 53.4685 300.449C52.7926 300.168 52.0487 300.094 51.3309 300.236C50.613 300.379 49.9534 300.73 49.4353 301.247C49.0905 301.591 48.817 301.999 48.6303 302.449C48.4437 302.899 48.3477 303.381 48.3477 303.868C48.3477 304.355 48.4437 304.837 48.6303 305.287C48.817 305.737 49.0905 306.145 49.4353 306.489Z" fill="#FFB700"/>
<path d="M52.0592 307.939C50.9782 307.94 49.9405 307.515 49.1717 306.755C48.4112 305.989 47.9844 304.954 47.9844 303.875C47.9844 302.795 48.4112 301.76 49.1717 300.994C49.6443 300.519 50.2269 300.169 50.8677 299.973C51.5084 299.777 52.1876 299.742 52.845 299.872C53.5024 300.001 54.1176 300.291 54.6362 300.715C55.1549 301.139 55.5608 301.685 55.818 302.304C56.0752 302.922 56.1758 303.595 56.1109 304.262C56.0459 304.929 55.8175 305.569 55.4457 306.127C55.0739 306.684 54.5703 307.141 53.9796 307.457C53.3889 307.774 52.7293 307.939 52.0592 307.939ZM52.0592 300.535C51.4007 300.536 50.7571 300.732 50.2097 301.098C49.6623 301.464 49.2358 301.984 48.9838 302.592C48.7319 303.201 48.6659 303.87 48.7942 304.516C48.9225 305.162 49.2394 305.756 49.7048 306.222C50.3386 306.828 51.182 307.167 52.0592 307.167C52.9365 307.167 53.7799 306.828 54.4137 306.222C54.8791 305.756 55.1959 305.162 55.3242 304.516C55.4526 303.87 55.3866 303.201 55.1347 302.592C54.8827 301.984 54.4561 301.464 53.9087 301.098C53.3614 300.732 52.7178 300.536 52.0592 300.535Z" fill="#FFB700"/>
<path d="M152.071 137.559C152.588 138.078 153.248 138.431 153.966 138.575C154.684 138.719 155.429 138.646 156.107 138.366C156.784 138.087 157.363 137.612 157.77 137.003C158.177 136.394 158.395 135.678 158.395 134.945C158.395 134.212 158.177 133.496 157.77 132.887C157.363 132.278 156.784 131.804 156.107 131.524C155.429 131.244 154.684 131.171 153.966 131.315C153.248 131.459 152.588 131.813 152.071 132.332C151.726 132.674 151.453 133.081 151.267 133.53C151.08 133.979 150.984 134.459 150.984 134.945C150.984 135.431 151.08 135.912 151.267 136.36C151.453 136.809 151.726 137.216 152.071 137.559Z" fill="#FFB700"/>
<path d="M154.693 139.009C154.022 139.011 153.362 138.847 152.769 138.533C152.177 138.218 151.672 137.762 151.298 137.205C150.924 136.648 150.694 136.008 150.628 135.34C150.561 134.673 150.66 134 150.917 133.38C151.173 132.76 151.578 132.213 152.097 131.788C152.615 131.363 153.231 131.072 153.889 130.942C154.547 130.812 155.227 130.846 155.868 131.042C156.509 131.237 157.093 131.588 157.566 132.064C158.133 132.633 158.518 133.358 158.674 134.146C158.83 134.934 158.75 135.751 158.443 136.493C158.136 137.235 157.616 137.87 156.948 138.318C156.281 138.766 155.497 139.006 154.693 139.009ZM154.693 131.605C154.256 131.601 153.823 131.684 153.419 131.849C153.015 132.014 152.647 132.258 152.339 132.567C151.783 133.113 151.433 133.835 151.351 134.609C151.268 135.384 151.457 136.163 151.885 136.814C152.314 137.465 152.955 137.947 153.699 138.177C154.443 138.407 155.244 138.372 155.965 138.078C156.686 137.783 157.283 137.247 157.652 136.561C158.022 135.875 158.142 135.082 157.992 134.318C157.841 133.553 157.43 132.865 156.829 132.37C156.227 131.875 155.472 131.605 154.693 131.605Z" fill="#FFB700"/>
<path d="M316.352 61.09C316.869 61.6089 317.529 61.9627 318.247 62.1064C318.966 62.2502 319.711 62.1776 320.388 61.8977C321.065 61.6179 321.644 61.1434 322.051 60.5343C322.458 59.9253 322.676 59.2091 322.676 58.4764C322.676 57.7437 322.458 57.0275 322.051 56.4185C321.644 55.8094 321.065 55.335 320.388 55.0551C319.711 54.7752 318.966 54.7026 318.247 54.8464C317.529 54.9902 316.869 55.3439 316.352 55.8628C316.008 56.2054 315.734 56.6127 315.548 57.0612C315.362 57.5097 315.266 57.9907 315.266 58.4764C315.266 58.9621 315.362 59.4431 315.548 59.8916C315.734 60.3401 316.008 60.7474 316.352 61.09Z" fill="#FFB700"/>
<path d="M318.958 62.5413C318.425 62.5439 317.896 62.4405 317.403 62.2371C316.91 62.0338 316.462 61.7345 316.086 61.3566C315.707 60.9784 315.407 60.5294 315.203 60.0352C314.998 59.541 314.893 59.0114 314.893 58.4765C314.893 57.9416 314.998 57.4119 315.203 56.9177C315.407 56.4236 315.707 55.9745 316.086 55.5963C316.464 55.2181 316.913 54.9181 317.407 54.7134C317.901 54.5087 318.431 54.4033 318.966 54.4033C319.501 54.4033 320.03 54.5087 320.524 54.7134C321.019 54.9181 321.468 55.2181 321.846 55.5963C322.606 56.362 323.033 57.3973 323.033 58.4765C323.033 59.5556 322.606 60.591 321.846 61.3566C321.467 61.7356 321.017 62.0355 320.521 62.2389C320.025 62.4422 319.494 62.545 318.958 62.5413ZM318.958 55.1373C318.521 55.1373 318.089 55.2236 317.686 55.3912C317.282 55.5588 316.916 55.8044 316.608 56.114C316.299 56.4236 316.055 56.791 315.89 57.1952C315.724 57.5993 315.639 58.0322 315.641 58.4691C315.639 58.9056 315.723 59.3382 315.888 59.7422C316.053 60.1463 316.296 60.5137 316.604 60.8235C317.24 61.4309 318.086 61.7699 318.966 61.7699C319.845 61.7699 320.691 61.4309 321.328 60.8235C321.948 60.1969 322.296 59.3508 322.296 58.4691C322.296 57.5873 321.948 56.7412 321.328 56.1146C320.696 55.4914 319.846 55.1406 318.958 55.1373Z" fill="#FFB700"/>
<path d="M323.327 108.773C323.844 109.292 324.503 109.645 325.222 109.789C325.94 109.933 326.685 109.86 327.362 109.58C328.04 109.301 328.618 108.826 329.026 108.217C329.433 107.608 329.65 106.892 329.65 106.159C329.65 105.426 329.433 104.71 329.026 104.101C328.618 103.492 328.04 103.018 327.362 102.738C326.685 102.458 325.94 102.385 325.222 102.529C324.503 102.673 323.844 103.027 323.327 103.545C322.982 103.888 322.709 104.295 322.523 104.744C322.336 105.192 322.24 105.673 322.24 106.159C322.24 106.645 322.336 107.126 322.523 107.574C322.709 108.023 322.982 108.43 323.327 108.773Z" fill="#FFB700"/>
<path d="M325.948 110.223C325.412 110.226 324.881 110.124 324.385 109.92C323.889 109.717 323.439 109.417 323.06 109.038C322.3 108.272 321.873 107.237 321.873 106.158C321.873 105.079 322.3 104.043 323.06 103.278C323.533 102.803 324.116 102.452 324.756 102.256C325.397 102.06 326.076 102.025 326.734 102.155C327.391 102.284 328.006 102.574 328.525 102.998C329.044 103.423 329.449 103.968 329.707 104.587C329.964 105.206 330.065 105.878 330 106.545C329.935 107.212 329.706 107.852 329.334 108.41C328.963 108.967 328.459 109.424 327.868 109.741C327.278 110.057 326.618 110.222 325.948 110.223ZM323.593 108.505C324.227 109.111 325.071 109.45 325.948 109.45C326.825 109.45 327.669 109.111 328.302 108.505C328.613 108.197 328.86 107.83 329.027 107.426C329.195 107.021 329.281 106.588 329.28 106.15C329.276 105.268 328.925 104.422 328.302 103.796C327.669 103.189 326.825 102.851 325.948 102.851C325.071 102.851 324.227 103.189 323.593 103.796C322.97 104.421 322.619 105.267 322.619 106.15C322.619 107.033 322.97 107.88 323.593 108.505Z" fill="#FFB700"/>
<path d="M299.487 285.55C300.004 286.069 300.664 286.423 301.382 286.566C302.1 286.71 302.845 286.638 303.523 286.358C304.2 286.078 304.779 285.603 305.186 284.994C305.593 284.385 305.811 283.669 305.811 282.936C305.811 282.204 305.593 281.487 305.186 280.878C304.779 280.269 304.2 279.795 303.523 279.515C302.845 279.235 302.1 279.163 301.382 279.306C300.664 279.45 300.004 279.804 299.487 280.323C299.142 280.665 298.869 281.073 298.683 281.521C298.496 281.97 298.4 282.451 298.4 282.936C298.4 283.422 298.496 283.903 298.683 284.352C298.869 284.8 299.142 285.207 299.487 285.55Z" fill="#FFB700"/>
<path d="M302.078 287.001C300.997 287.002 299.959 286.576 299.19 285.817C298.518 285.151 298.098 284.272 298.002 283.331C297.905 282.39 298.138 281.445 298.661 280.657C299.183 279.868 299.963 279.285 300.867 279.007C301.771 278.73 302.744 278.774 303.619 279.133C304.494 279.492 305.217 280.143 305.666 280.976C306.114 281.809 306.26 282.772 306.078 283.7C305.896 284.628 305.398 285.464 304.669 286.066C303.939 286.668 303.023 286.999 302.078 287.001ZM299.723 285.298C300.19 285.762 300.783 286.078 301.429 286.205C302.075 286.333 302.744 286.266 303.352 286.013C303.96 285.76 304.479 285.333 304.845 284.786C305.21 284.238 305.405 283.595 305.405 282.936C305.405 282.278 305.21 281.635 304.845 281.087C304.479 280.539 303.96 280.112 303.352 279.86C302.744 279.607 302.075 279.54 301.429 279.667C300.783 279.795 300.19 280.11 299.723 280.574C299.098 281.202 298.747 282.051 298.747 282.936C298.747 283.822 299.098 284.671 299.723 285.298Z" fill="#FFB700"/>
<path d="M135.783 435.866C136.301 436.385 136.96 436.739 137.679 436.883C138.397 437.027 139.142 436.954 139.819 436.674C140.496 436.394 141.075 435.92 141.482 435.311C141.89 434.702 142.107 433.985 142.107 433.253C142.107 432.52 141.89 431.804 141.482 431.195C141.075 430.586 140.496 430.111 139.819 429.831C139.142 429.552 138.397 429.479 137.679 429.623C136.96 429.767 136.301 430.12 135.783 430.639C135.092 431.333 134.703 432.273 134.703 433.253C134.703 434.233 135.092 435.172 135.783 435.866Z" fill="#FFB700"/>
<path d="M138.404 437.332C137.869 437.333 137.34 437.227 136.847 437.021C136.354 436.815 135.906 436.513 135.531 436.132C134.771 435.367 134.344 434.331 134.344 433.252C134.344 432.173 134.771 431.138 135.531 430.372C136.006 429.9 136.589 429.553 137.23 429.36C137.871 429.167 138.549 429.135 139.205 429.267C139.861 429.399 140.474 429.691 140.991 430.116C141.507 430.541 141.911 431.088 142.167 431.706C142.422 432.325 142.521 432.996 142.455 433.662C142.389 434.328 142.159 434.967 141.787 435.524C141.415 436.08 140.912 436.536 140.322 436.851C139.732 437.167 139.073 437.332 138.404 437.332ZM136.049 435.614C136.674 436.238 137.521 436.589 138.404 436.589C139.287 436.589 140.134 436.238 140.758 435.614C141.382 434.989 141.733 434.143 141.733 433.26C141.733 432.377 141.382 431.53 140.758 430.905C140.124 430.299 139.281 429.96 138.404 429.96C137.527 429.96 136.683 430.299 136.049 430.905C135.425 431.53 135.075 432.377 135.075 433.26C135.075 434.143 135.425 434.989 136.049 435.614Z" fill="#FFB700"/>
<path d="M417.239 128.837C417.756 129.356 418.416 129.71 419.134 129.854C419.852 129.997 420.597 129.925 421.275 129.645C421.952 129.365 422.53 128.89 422.938 128.281C423.345 127.672 423.562 126.956 423.562 126.223C423.562 125.491 423.345 124.775 422.938 124.166C422.53 123.557 421.952 123.082 421.275 122.802C420.597 122.522 419.852 122.45 419.134 122.593C418.416 122.737 417.756 123.091 417.239 123.61C416.894 123.952 416.621 124.36 416.435 124.808C416.248 125.257 416.152 125.738 416.152 126.223C416.152 126.709 416.248 127.19 416.435 127.639C416.621 128.087 416.894 128.494 417.239 128.837Z" fill="#FFB700"/>
<path d="M419.86 130.288C419.312 130.301 418.766 130.203 418.257 130C417.748 129.796 417.286 129.491 416.898 129.103C416.324 128.532 415.932 127.804 415.772 127.011C415.612 126.217 415.691 125.394 416 124.646C416.308 123.897 416.832 123.257 417.505 122.807C418.178 122.357 418.969 122.116 419.778 122.116C420.588 122.116 421.379 122.357 422.052 122.807C422.725 123.257 423.248 123.897 423.557 124.646C423.865 125.394 423.945 126.217 423.785 127.011C423.625 127.804 423.233 128.532 422.659 129.103C421.916 129.848 420.912 130.273 419.86 130.288ZM419.86 122.884C419.201 122.884 418.558 123.08 418.01 123.446C417.463 123.812 417.036 124.332 416.784 124.941C416.532 125.549 416.467 126.219 416.595 126.865C416.723 127.511 417.04 128.104 417.505 128.57C418.139 129.176 418.983 129.515 419.86 129.515C420.737 129.515 421.58 129.176 422.214 128.57C422.68 128.104 422.997 127.511 423.125 126.865C423.253 126.219 423.187 125.549 422.935 124.941C422.683 124.332 422.257 123.812 421.709 123.446C421.162 123.08 420.518 122.884 419.86 122.884Z" fill="#FFB700"/>
<path d="M175.483 32.0379L174.75 32.1426L175.998 40.8795L176.731 40.7748L175.483 32.0379Z" fill="#FFB700"/>
<path d="M295.592 434.014C289.914 434.008 284.239 433.706 278.592 433.111L278.666 432.37C316.856 436.369 348.397 427.128 369.884 405.716C423.844 351.756 396.124 236.238 308.105 148.219C265.443 105.557 215.14 75.66 166.481 63.9913C117.822 52.3226 76.7294 60.3337 50.608 86.4402C27.9518 109.097 18.8004 144.192 24.8125 185.062L24.0869 185.165C18.0304 143.984 27.2558 108.741 50.0898 85.9516C76.3888 59.6525 117.792 51.597 166.659 63.2953C215.525 74.9937 265.872 104.965 308.623 147.701C396.938 236.016 424.659 352.052 370.402 406.249C352.04 424.522 326.393 434.014 295.592 434.014Z" fill="#FFB700"/>
<path d="M135.855 400.12C91.4309 400.12 55.5511 384.675 34.1091 356.021C14.0886 329.263 8.62448 294.094 18.2793 254.305L19.0049 254.483C9.39449 294.05 14.8142 329.012 34.7014 355.577C57.9352 386.674 98.213 402.059 148.101 398.994C197.989 395.929 251.728 374.724 299.025 339.273C396.757 266.137 437.228 154.44 389.22 90.2914C368.208 62.1562 332.446 46.6522 288.526 46.5041V45.7637C332.683 45.9118 368.652 61.5638 389.813 89.8471C438.072 154.321 397.542 266.492 299.484 339.866C251.994 375.405 198.256 396.669 148.16 399.735C143.994 399.981 139.893 400.11 135.855 400.12Z" fill="#FFB700"/>
<path d="M317.036 313.997C281.26 313.997 241.48 308.979 201.079 299.193C142.132 284.922 88.9334 262.183 51.3103 235.224C13.6872 208.266 -4.00129 180.049 1.79142 156.022C7.58414 131.995 36.0453 115.014 81.9289 108.204C127.813 101.394 185.37 105.525 244.347 119.781C303.323 134.037 356.507 156.792 394.13 183.765C431.753 210.738 449.426 238.94 443.634 262.952C437.841 286.965 409.38 303.96 363.496 310.77C348.109 312.984 332.581 314.062 317.036 313.997ZM128.448 105.761C112.939 105.689 97.4456 106.753 82.0915 108.944C36.5182 115.725 8.27867 132.513 2.55984 156.214C-3.15899 179.916 14.3817 207.777 51.7831 234.676C89.1846 261.576 142.427 284.285 201.3 298.527C322.726 327.913 431.132 311.851 442.969 262.834C448.688 239.147 431.147 211.286 393.745 184.372C356.344 157.458 303.086 134.763 244.214 120.521C203.812 110.706 164.106 105.761 128.448 105.761Z" fill="#FFB700"/>
<path d="M272.299 456.464C250.369 456.464 225.639 438.25 201.635 404.103C174.389 365.291 151.288 310.531 136.658 249.907C122.027 189.283 117.555 129.962 124.086 83.0649C130.616 36.1679 147.482 6.86285 171.471 1.05811C195.46 -4.74664 223.773 13.4672 251.094 52.3679C278.415 91.2686 301.441 145.925 316.072 206.564C330.702 267.203 335.174 326.509 328.644 373.406C322.113 420.303 305.291 449.549 281.347 455.472C278.382 456.164 275.344 456.498 272.299 456.464ZM180.489 0.732336C177.527 0.726464 174.574 1.07445 171.693 1.7689C148.001 7.4996 131.342 36.4049 124.841 83.213C118.34 130.021 122.768 189.238 137.398 249.774C152.028 310.309 175.055 364.995 202.257 403.777C229.46 442.559 257.387 460.521 281.11 454.791C330.213 442.841 345.554 331.603 315.405 206.697C300.79 146.162 277.749 91.4907 250.546 52.6937C226.69 18.8425 202.168 0.732336 180.475 0.732336H180.489Z" fill="#FFB700"/>
<path d="M196.14 394.183C195.623 394.702 194.963 395.055 194.245 395.199C193.526 395.343 192.782 395.27 192.104 394.991C191.427 394.711 190.848 394.236 190.441 393.627C190.034 393.018 189.816 392.302 189.816 391.569C189.816 390.837 190.034 390.12 190.441 389.511C190.848 388.902 191.427 388.428 192.104 388.148C192.782 387.868 193.526 387.795 194.245 387.939C194.963 388.083 195.623 388.437 196.14 388.956C196.485 389.298 196.758 389.705 196.944 390.154C197.131 390.603 197.227 391.083 197.227 391.569C197.227 392.055 197.131 392.536 196.944 392.984C196.758 393.433 196.485 393.84 196.14 394.183Z" fill="#FFB700"/>
<path d="M193.534 395.633C192.453 395.634 191.415 395.209 190.646 394.449C190.072 393.878 189.68 393.15 189.52 392.356C189.36 391.563 189.439 390.74 189.748 389.991C190.056 389.243 190.58 388.603 191.253 388.153C191.926 387.702 192.717 387.462 193.526 387.462C194.336 387.462 195.127 387.702 195.8 388.153C196.473 388.603 196.996 389.243 197.305 389.991C197.614 390.74 197.693 391.563 197.533 392.356C197.373 393.15 196.981 393.878 196.407 394.449C195.643 395.208 194.61 395.634 193.534 395.633ZM193.534 388.229C192.651 388.23 191.804 388.582 191.179 389.207C190.852 389.512 190.589 389.879 190.407 390.288C190.225 390.697 190.127 391.138 190.119 391.585C190.112 392.033 190.194 392.477 190.361 392.892C190.529 393.307 190.778 393.684 191.095 394C191.411 394.317 191.788 394.566 192.203 394.733C192.618 394.901 193.062 394.983 193.51 394.975C193.957 394.968 194.398 394.87 194.807 394.688C195.215 394.505 195.583 394.243 195.888 393.916C196.354 393.45 196.671 392.856 196.799 392.21C196.927 391.564 196.861 390.895 196.609 390.286C196.357 389.678 195.931 389.158 195.383 388.792C194.836 388.426 194.192 388.23 193.534 388.229Z" fill="#FFB700"/>
<path d="M333.38 315.093C332.863 315.612 332.204 315.966 331.485 316.109C330.767 316.253 330.022 316.181 329.345 315.901C328.668 315.621 328.089 315.146 327.681 314.537C327.274 313.928 327.057 313.212 327.057 312.479C327.057 311.747 327.274 311.03 327.681 310.421C328.089 309.812 328.668 309.338 329.345 309.058C330.022 308.778 330.767 308.706 331.485 308.849C332.204 308.993 332.863 309.347 333.38 309.866C333.725 310.208 333.998 310.616 334.184 311.064C334.371 311.513 334.467 311.994 334.467 312.479C334.467 312.965 334.371 313.446 334.184 313.895C333.998 314.343 333.725 314.75 333.38 315.093Z" fill="#FFB700"/>
<path d="M330.775 316.557C329.828 316.561 328.91 316.237 328.176 315.64C327.442 315.043 326.938 314.21 326.75 313.282C326.561 312.355 326.701 311.391 327.144 310.555C327.588 309.719 328.307 309.063 329.18 308.698C330.054 308.334 331.026 308.283 331.932 308.556C332.838 308.829 333.622 309.407 334.149 310.193C334.676 310.979 334.914 311.923 334.823 312.865C334.731 313.807 334.316 314.688 333.647 315.357C333.272 315.737 332.824 316.039 332.331 316.245C331.838 316.451 331.309 316.557 330.775 316.557ZM330.775 309.153C330.335 309.152 329.899 309.238 329.493 309.406C329.086 309.573 328.717 309.82 328.405 310.13C328.097 310.439 327.852 310.806 327.687 311.21C327.522 311.615 327.439 312.048 327.443 312.485C327.441 313.366 327.787 314.212 328.405 314.839C329.039 315.445 329.883 315.784 330.76 315.784C331.637 315.784 332.48 315.445 333.114 314.839C333.738 314.214 334.089 313.368 334.089 312.485C334.089 311.602 333.738 310.755 333.114 310.13C332.809 309.82 332.445 309.573 332.043 309.406C331.641 309.238 331.21 309.152 330.775 309.153Z" fill="#FFB700"/>
<path d="M382.514 254.335C381.996 254.852 381.336 255.203 380.618 255.345C379.9 255.487 379.156 255.414 378.48 255.133C377.805 254.853 377.227 254.378 376.82 253.769C376.414 253.161 376.197 252.446 376.197 251.714C376.197 250.982 376.414 250.267 376.82 249.658C377.227 249.049 377.805 248.575 378.48 248.294C379.156 248.014 379.9 247.94 380.618 248.082C381.336 248.224 381.996 248.576 382.514 249.093C382.858 249.437 383.132 249.845 383.319 250.295C383.505 250.745 383.601 251.227 383.601 251.714C383.601 252.201 383.505 252.683 383.319 253.133C383.132 253.582 382.858 253.991 382.514 254.335Z" fill="#FFB700"/>
<path d="M379.909 255.786C378.959 255.792 378.036 255.467 377.298 254.869C376.56 254.27 376.053 253.433 375.864 252.502C375.674 251.571 375.814 250.603 376.258 249.764C376.703 248.924 377.426 248.265 378.303 247.899C379.18 247.533 380.156 247.482 381.066 247.756C381.976 248.03 382.762 248.612 383.291 249.401C383.82 250.191 384.058 251.139 383.965 252.085C383.872 253.031 383.454 253.915 382.782 254.586C382.406 254.966 381.958 255.268 381.465 255.473C380.972 255.679 380.443 255.785 379.909 255.786ZM379.909 248.382C379.471 248.379 379.037 248.464 378.633 248.632C378.228 248.799 377.862 249.047 377.554 249.359C376.966 249.991 376.646 250.826 376.661 251.689C376.676 252.552 377.026 253.376 377.636 253.986C378.247 254.597 379.07 254.946 379.933 254.962C380.796 254.977 381.632 254.656 382.263 254.068C382.887 253.443 383.238 252.596 383.238 251.713C383.238 250.83 382.887 249.984 382.263 249.359C381.956 249.047 381.589 248.801 381.185 248.633C380.78 248.465 380.347 248.38 379.909 248.382Z" fill="#FFB700"/>
<path d="M407.525 195.591C407.008 196.11 406.348 196.464 405.63 196.607C404.911 196.751 404.166 196.679 403.489 196.399C402.812 196.119 402.233 195.644 401.826 195.035C401.419 194.426 401.201 193.71 401.201 192.977C401.201 192.245 401.419 191.529 401.826 190.919C402.233 190.31 402.812 189.836 403.489 189.556C404.166 189.276 404.911 189.204 405.63 189.347C406.348 189.491 407.008 189.845 407.525 190.364C407.869 190.706 408.142 191.114 408.329 191.562C408.515 192.011 408.611 192.492 408.611 192.977C408.611 193.463 408.515 193.944 408.329 194.393C408.142 194.841 407.869 195.248 407.525 195.591Z" fill="#FFB700"/>
<path d="M404.904 197.057C403.959 197.058 403.042 196.731 402.31 196.132C401.579 195.533 401.077 194.699 400.892 193.772C400.706 192.844 400.848 191.881 401.293 191.047C401.738 190.213 402.458 189.558 403.332 189.195C404.205 188.833 405.177 188.784 406.082 189.058C406.987 189.331 407.77 189.91 408.296 190.696C408.822 191.482 409.059 192.426 408.967 193.367C408.875 194.308 408.46 195.188 407.792 195.857C407.414 196.238 406.964 196.541 406.468 196.746C405.973 196.952 405.441 197.058 404.904 197.057ZM404.904 189.653C404.467 189.651 404.033 189.736 403.629 189.904C403.224 190.072 402.857 190.319 402.55 190.63C401.926 191.255 401.575 192.102 401.575 192.985C401.575 193.868 401.926 194.714 402.55 195.339C403.184 195.946 404.027 196.284 404.904 196.284C405.782 196.284 406.625 195.946 407.259 195.339C407.883 194.714 408.233 193.868 408.233 192.985C408.233 192.102 407.883 191.255 407.259 190.63C406.952 190.318 406.585 190.071 406.181 189.903C405.776 189.735 405.342 189.65 404.904 189.653Z" fill="#FFB700"/>
<path d="M398.226 305.496C397.709 306.015 397.049 306.369 396.331 306.513C395.612 306.657 394.867 306.584 394.19 306.304C393.513 306.024 392.934 305.55 392.527 304.941C392.12 304.332 391.902 303.615 391.902 302.883C391.902 302.15 392.12 301.434 392.527 300.825C392.934 300.216 393.513 299.741 394.19 299.461C394.867 299.182 395.612 299.109 396.331 299.253C397.049 299.396 397.709 299.75 398.226 300.269C398.918 300.963 399.306 301.903 399.306 302.883C399.306 303.862 398.918 304.802 398.226 305.496Z" fill="#FFB700"/>
<path d="M395.603 306.948C394.526 306.948 393.492 306.521 392.729 305.76C391.966 305 391.535 303.968 391.531 302.89C391.529 302.22 391.693 301.559 392.007 300.967C392.322 300.374 392.778 299.869 393.335 299.495C393.892 299.122 394.532 298.891 395.199 298.825C395.867 298.758 396.54 298.858 397.16 299.114C397.78 299.37 398.327 299.776 398.752 300.294C399.177 300.813 399.468 301.428 399.598 302.086C399.728 302.744 399.694 303.424 399.498 304.065C399.303 304.707 398.952 305.29 398.476 305.763C398.1 306.142 397.652 306.441 397.159 306.645C396.666 306.848 396.137 306.951 395.603 306.948ZM395.603 299.544C394.72 299.544 393.872 299.895 393.248 300.52C392.623 301.144 392.272 301.992 392.272 302.876C392.272 303.534 392.468 304.178 392.834 304.725C393.2 305.272 393.72 305.699 394.329 305.951C394.937 306.203 395.607 306.269 396.253 306.141C396.899 306.012 397.492 305.695 397.958 305.23C398.423 304.764 398.74 304.171 398.868 303.525C398.997 302.879 398.931 302.209 398.679 301.601C398.427 300.992 398 300.472 397.453 300.106C396.906 299.74 396.262 299.544 395.603 299.544Z" fill="#FFB700"/>
<path d="M295.59 136.581C295.072 137.098 294.412 137.449 293.694 137.591C292.976 137.733 292.233 137.66 291.557 137.379C290.881 137.099 290.303 136.624 289.897 136.016C289.49 135.407 289.273 134.692 289.273 133.96C289.273 133.228 289.49 132.513 289.897 131.904C290.303 131.295 290.881 130.821 291.557 130.541C292.233 130.26 292.976 130.186 293.694 130.328C294.412 130.47 295.072 130.822 295.59 131.339C296.279 132.037 296.665 132.979 296.665 133.96C296.665 134.941 296.279 135.882 295.59 136.581Z" fill="#FFB700"/>
<path d="M292.971 138.033C292.436 138.036 291.906 137.931 291.413 137.725C290.919 137.519 290.472 137.216 290.098 136.834C289.718 136.457 289.416 136.008 289.21 135.514C289.004 135.019 288.898 134.489 288.898 133.954C288.898 133.418 289.004 132.888 289.21 132.394C289.416 131.899 289.718 131.451 290.098 131.073C290.473 130.694 290.921 130.393 291.414 130.189C291.908 129.986 292.437 129.884 292.971 129.889C293.504 129.886 294.033 129.99 294.526 130.193C295.019 130.396 295.467 130.696 295.844 131.073C296.408 131.645 296.792 132.37 296.947 133.158C297.102 133.947 297.021 134.763 296.714 135.506C296.408 136.248 295.889 136.884 295.224 137.334C294.558 137.783 293.774 138.027 292.971 138.033ZM292.971 130.629C292.533 130.626 292.099 130.711 291.694 130.879C291.29 131.047 290.923 131.294 290.616 131.607C289.992 132.231 289.642 133.078 289.642 133.961C289.642 134.844 289.992 135.691 290.616 136.316C291.25 136.922 292.094 137.26 292.971 137.26C293.848 137.26 294.691 136.922 295.325 136.316C295.791 135.85 296.107 135.256 296.236 134.61C296.364 133.964 296.298 133.295 296.046 132.686C295.794 132.078 295.368 131.558 294.82 131.192C294.273 130.826 293.629 130.63 292.971 130.629Z" fill="#FFB700"/>
<path d="M131.312 60.0974C130.794 60.6142 130.135 60.9659 129.417 61.108C128.699 61.2501 127.955 61.1762 127.279 60.8957C126.603 60.6153 126.026 60.1408 125.619 59.5322C125.213 58.9236 124.996 58.2082 124.996 57.4764C124.996 56.7446 125.213 56.0293 125.619 55.4207C126.026 54.8121 126.603 54.3376 127.279 54.0571C127.955 53.7766 128.699 53.7028 129.417 53.8449C130.135 53.9869 130.794 54.3386 131.312 54.8554C132.002 55.5537 132.388 56.4954 132.388 57.4764C132.388 58.4575 132.002 59.3991 131.312 60.0974Z" fill="#FFB700"/>
<path d="M128.689 61.5793C127.751 61.5621 126.847 61.2213 126.131 60.6146C125.415 60.0079 124.931 59.1725 124.76 58.2497C124.589 57.327 124.742 56.3735 125.193 55.5505C125.644 54.7276 126.365 54.0856 127.235 53.7333C128.105 53.3811 129.07 53.34 129.966 53.6172C130.863 53.8943 131.636 54.4727 132.156 55.2544C132.675 56.0361 132.908 56.9731 132.816 57.9071C132.724 58.841 132.312 59.7145 131.65 60.3798C131.264 60.7705 130.802 61.0784 130.293 61.2846C129.784 61.4908 129.238 61.5911 128.689 61.5793ZM128.689 54.1753C128.251 54.1732 127.817 54.2586 127.413 54.4264C127.009 54.5942 126.642 54.8411 126.334 55.1526C125.71 55.7773 125.36 56.6241 125.36 57.5071C125.36 58.39 125.71 59.2368 126.334 59.8615C126.968 60.468 127.812 60.8065 128.689 60.8065C129.566 60.8065 130.41 60.468 131.043 59.8615C131.509 59.3956 131.826 58.8022 131.954 58.1563C132.082 57.5103 132.016 56.8409 131.764 56.2324C131.512 55.624 131.086 55.1038 130.538 54.7377C129.991 54.3716 129.347 54.1758 128.689 54.1753Z" fill="#FFB700"/>
<path d="M124.381 107.795C123.863 108.312 123.203 108.663 122.485 108.805C121.767 108.947 121.024 108.873 120.348 108.593C119.672 108.313 119.094 107.838 118.688 107.229C118.281 106.621 118.064 105.905 118.064 105.174C118.064 104.442 118.281 103.727 118.688 103.118C119.094 102.509 119.672 102.035 120.348 101.754C121.024 101.474 121.767 101.4 122.485 101.542C123.203 101.684 123.863 102.036 124.381 102.553C125.07 103.251 125.456 104.193 125.456 105.174C125.456 106.155 125.07 107.096 124.381 107.795Z" fill="#FFB700"/>
<path d="M121.715 109.245C120.772 109.248 119.858 108.924 119.128 108.329C118.397 107.733 117.896 106.903 117.71 105.979C117.523 105.056 117.662 104.096 118.104 103.264C118.546 102.431 119.263 101.778 120.132 101.415C121.002 101.052 121.97 101.002 122.873 101.273C123.775 101.544 124.556 102.12 125.081 102.902C125.607 103.684 125.845 104.624 125.755 105.562C125.665 106.5 125.252 107.378 124.587 108.046C124.212 108.426 123.765 108.728 123.272 108.934C122.778 109.14 122.249 109.246 121.715 109.245ZM121.715 101.841C120.944 101.84 120.196 102.107 119.6 102.595C119.004 103.084 118.595 103.764 118.444 104.52C118.293 105.276 118.409 106.061 118.772 106.741C119.135 107.421 119.722 107.954 120.434 108.25C121.146 108.546 121.939 108.585 122.677 108.362C123.414 108.139 124.052 107.666 124.481 107.026C124.909 106.385 125.103 105.616 125.028 104.848C124.953 104.081 124.614 103.364 124.069 102.818C123.761 102.508 123.394 102.261 122.99 102.093C122.586 101.925 122.152 101.84 121.715 101.841Z" fill="#FFB700"/>
<path d="M148.176 284.573C147.658 285.09 146.998 285.441 146.28 285.584C145.562 285.726 144.818 285.652 144.143 285.371C143.467 285.091 142.889 284.616 142.483 284.008C142.076 283.399 141.859 282.684 141.859 281.952C141.859 281.22 142.076 280.505 142.483 279.896C142.889 279.288 143.467 278.813 144.143 278.533C144.818 278.252 145.562 278.178 146.28 278.32C146.998 278.463 147.658 278.814 148.176 279.331C148.865 280.029 149.251 280.971 149.251 281.952C149.251 282.933 148.865 283.875 148.176 284.573Z" fill="#FFB700"/>
<path d="M145.555 286.024C144.605 286.03 143.682 285.706 142.945 285.107C142.207 284.508 141.7 283.672 141.51 282.741C141.321 281.81 141.46 280.842 141.905 280.002C142.35 279.162 143.072 278.503 143.949 278.137C144.826 277.771 145.803 277.721 146.713 277.995C147.622 278.269 148.409 278.85 148.938 279.64C149.466 280.429 149.705 281.378 149.612 282.323C149.519 283.269 149.1 284.153 148.428 284.824C148.053 285.205 147.606 285.507 147.112 285.713C146.619 285.919 146.09 286.025 145.555 286.024ZM145.555 278.62C145.117 278.617 144.683 278.702 144.279 278.87C143.875 279.038 143.508 279.285 143.201 279.597C142.612 280.229 142.292 281.064 142.307 281.927C142.322 282.791 142.672 283.614 143.283 284.224C143.893 284.835 144.717 285.185 145.58 285.2C146.443 285.215 147.278 284.895 147.91 284.306C148.375 283.84 148.692 283.247 148.82 282.601C148.949 281.955 148.883 281.285 148.631 280.677C148.379 280.069 147.952 279.548 147.405 279.182C146.858 278.816 146.214 278.62 145.555 278.62Z" fill="#FFB700"/>
<path d="M311.863 434.888C311.345 435.405 310.685 435.757 309.968 435.899C309.25 436.041 308.506 435.967 307.83 435.687C307.154 435.406 306.576 434.932 306.17 434.323C305.764 433.715 305.547 432.999 305.547 432.267C305.547 431.536 305.764 430.82 306.17 430.212C306.576 429.603 307.154 429.129 307.83 428.848C308.506 428.568 309.25 428.494 309.968 428.636C310.685 428.778 311.345 429.13 311.863 429.646C312.21 429.989 312.485 430.398 312.673 430.847C312.86 431.297 312.957 431.78 312.957 432.267C312.957 432.755 312.86 433.238 312.673 433.687C312.485 434.137 312.21 434.546 311.863 434.888Z" fill="#FFB700"/>
<path d="M309.244 436.34C308.577 436.327 307.924 436.152 307.341 435.827C306.758 435.503 306.264 435.041 305.902 434.481C305.539 433.922 305.32 433.281 305.263 432.617C305.206 431.953 305.313 431.285 305.574 430.671C305.836 430.058 306.244 429.518 306.763 429.099C307.282 428.681 307.896 428.396 308.551 428.27C309.206 428.144 309.881 428.18 310.519 428.377C311.156 428.573 311.735 428.923 312.206 429.395C312.966 430.161 313.393 431.196 313.393 432.275C313.393 433.354 312.966 434.39 312.206 435.155C311.816 435.541 311.353 435.844 310.845 436.047C310.336 436.251 309.792 436.35 309.244 436.34ZM309.244 428.936C308.586 428.937 307.942 429.132 307.395 429.498C306.847 429.865 306.421 430.385 306.169 430.993C305.917 431.602 305.851 432.271 305.979 432.917C306.107 433.563 306.424 434.156 306.89 434.622C307.524 435.229 308.367 435.567 309.244 435.567C310.121 435.567 310.965 435.229 311.599 434.622C312.064 434.156 312.381 433.563 312.509 432.917C312.637 432.271 312.572 431.602 312.32 430.993C312.068 430.385 311.641 429.865 311.094 429.498C310.546 429.132 309.903 428.937 309.244 428.936Z" fill="#FFB700"/>
<path d="M183.196 531.263C180.805 533.128 178.521 535.126 176.354 537.247C173.292 540.309 164.476 543.814 159.165 547.564C153.853 551.314 156.976 555.064 161.66 556.625C166.343 558.186 179.798 556.931 184.787 555.998C189.777 555.064 192.303 549.125 196.359 548.191C200.415 547.258 207.93 550.686 208.237 544.748C208.543 538.809 208.864 532.87 208.864 532.87L183.196 531.263Z" fill="white" stroke="#182F43" stroke-linecap="round" stroke-linejoin="round"/>
<path d="M208.284 544.748C208.284 543.539 208.407 542.345 208.468 541.182C205.07 543.631 200.815 543.523 195.151 544.748C187.973 546.279 185.463 553.182 171.09 553.809C161.784 554.207 158.003 552.524 156.472 551.284C156.212 553.595 158.615 555.585 161.707 556.626C166.406 558.156 179.845 556.932 184.835 555.998C189.825 555.064 192.35 549.126 196.407 548.192C200.463 547.258 207.932 550.687 208.284 544.748Z" fill="white" stroke="#182F43" stroke-linecap="round" stroke-linejoin="round"/>
<path d="M186.042 530.055C186.042 530.055 178.848 538.81 176.353 541.626C173.858 544.443 181.037 543.494 184.174 540.677C187.091 537.741 189.807 534.612 192.302 531.31L186.042 530.055Z" fill="white" stroke="#182F43" stroke-linecap="round" stroke-linejoin="round"/>
<path d="M284.571 531.263C286.961 533.128 289.246 535.126 291.413 537.247C294.474 540.309 303.291 543.814 308.602 547.564C313.913 551.314 310.791 555.064 306.107 556.625C301.423 558.186 287.969 556.931 282.979 555.998C277.989 555.064 275.464 549.125 271.408 548.191C267.351 547.258 259.836 550.686 259.53 544.748C259.224 538.809 258.902 532.87 258.902 532.87L284.571 531.263Z" fill="white" stroke="#182F43" stroke-linecap="round" stroke-linejoin="round"/>
<path d="M259.527 544.748C259.527 543.539 259.405 542.345 259.344 541.182C262.742 543.631 266.997 543.523 272.66 544.748C279.839 546.279 282.349 553.182 296.722 553.809C306.028 554.207 309.809 552.524 311.339 551.284C311.599 553.595 309.196 555.585 306.104 556.626C301.405 558.156 287.967 556.932 282.977 555.998C277.987 555.064 275.461 549.126 271.405 548.192C267.349 547.258 259.834 550.687 259.527 544.748Z" fill="white" stroke="#182F43" stroke-linecap="round" stroke-linejoin="round"/>
<path d="M281.752 530.055C281.752 530.055 288.946 538.81 291.441 541.626C293.936 544.443 286.758 543.494 283.62 540.677C280.703 537.741 277.988 534.612 275.492 531.31L281.752 530.055Z" fill="white" stroke="#182F43" stroke-linecap="round" stroke-linejoin="round"/>
<path d="M187.098 307.945C187.098 307.945 183.195 343.149 183.195 348.767C183.195 354.384 183.195 426.048 184.068 438.722C184.94 451.395 180.578 456.599 183.195 472.747C185.812 488.896 186.685 517.289 186.685 517.289C186.685 517.289 183.195 519.478 183.195 521.666V531.263L209.491 534.126C209.491 534.126 211.144 511.625 211.573 504.631C212.002 497.636 218.568 453.569 220.313 440.895C222.058 428.222 228.946 356.129 228.946 356.129C228.946 356.129 240.395 436.104 241.267 438.783C243.706 445.042 245.751 451.447 247.39 457.962C251.308 472.38 254.813 522.156 254.813 522.156L258.563 536.054L285.441 531.049C285.441 531.049 281.446 508.625 281.446 505.136C281.446 501.646 280.574 502.947 279.701 494.207C278.093 477.968 277.653 461.635 278.385 445.334C279.257 420.002 267.472 352.762 267.472 352.762L263.982 307.776C263.982 307.776 220.695 317.787 187.098 307.945Z" fill="#182F43" stroke="#182F43" stroke-linecap="round" stroke-linejoin="round"/>
<path d="M239.583 345.201L232.512 358.334C232.512 358.334 247.665 349.242 257.262 347.727" stroke="white" stroke-linecap="round" stroke-linejoin="round"/>
<path d="M216.195 353.695C216.195 353.695 209.614 343.073 197.996 340.042" stroke="white" stroke-linecap="round" stroke-linejoin="round"/>
<path d="M185.798 311.649C185.798 311.649 181.206 323.052 183.518 326.481C185.829 329.91 206.921 338.466 228.028 338.466C249.136 338.466 269.707 331.042 269.707 325.915C269.707 320.787 265.712 308.221 265.712 308.221C265.712 308.221 231.457 324.2 185.798 311.649Z" fill="#FFB700" stroke="#182F43" stroke-linecap="round" stroke-linejoin="round"/>
<path d="M192.762 202.973C192.762 202.973 177.456 202.973 173.966 205.805C170.476 208.637 170.078 220.346 169.711 222.474C169.344 224.601 161.277 262.683 161.277 262.683L178.313 286.117L184.619 256.178L185.232 314.342C185.232 314.342 186.38 320.067 190.283 322.194C194.186 324.322 221.492 326.449 234.258 326.449C247.023 326.449 265.421 320.051 266.845 316.148C268.268 312.245 264.059 268.668 264.059 268.668L270.105 282.122L284.615 257.265C284.615 257.265 274.697 224.326 273.273 217.239C271.85 210.152 267.962 208.055 260.156 204.826C252.35 201.596 229.298 202.698 220.084 202.698C210.87 202.698 192.762 202.973 192.762 202.973Z" fill="#AA4337" stroke="#182F43" stroke-linecap="round" stroke-linejoin="round"/>
<path d="M196.635 317.358C199.454 317.023 202.089 315.784 204.147 313.829C206.204 311.873 207.575 309.304 208.053 306.506C210.334 296.236 211.482 290.526 211.482 290.526L215.477 289.96C215.397 295.68 215.014 301.393 214.329 307.072C213.196 316.777 209.737 319.639 208.053 319.639" stroke="#182F43" stroke-linecap="round" stroke-linejoin="round"/>
<path d="M260.003 312.216C264.595 300.797 254.294 287.726 254.294 287.726L250.299 287.159C250.299 287.159 261.717 302.006 256.008 313.409" stroke="#182F43" stroke-linecap="round" stroke-linejoin="round"/>
<path d="M184.62 256.18L182.125 238.088" stroke="#182F43" stroke-linecap="round" stroke-linejoin="round"/>
<path d="M264.06 268.593L262.637 235.608" stroke="#182F43" stroke-linecap="round" stroke-linejoin="round"/>
<path d="M266.981 270.566C266.981 270.566 262.558 262.362 277.084 255.413" stroke="#182F43" stroke-linecap="round" stroke-linejoin="round"/>
<path d="M269.508 253.515C269.508 253.515 277.161 250.301 282.135 250.301" stroke="#182F43" stroke-linecap="round" stroke-linejoin="round"/>
<path d="M167.186 255.413C167.186 255.413 179.186 259.209 181.711 268.684" stroke="#182F43" stroke-linecap="round" stroke-linejoin="round"/>
<path d="M181.083 259.837C181.083 259.837 176.66 252.261 169.711 250.99" stroke="#182F43" stroke-linecap="round" stroke-linejoin="round"/>
<path d="M214.865 187.041C214.865 187.041 206.814 187.041 204.441 188.831C202.069 190.622 200.86 195.382 199.666 196.27C198.472 197.158 193.115 196.867 191.921 200.143C190.727 203.418 190.727 202.531 199.972 211.179C209.217 219.827 232.115 229.653 234.534 229.653C236.952 229.653 252.411 211.775 256.881 209.755C261.35 207.735 261.947 207.673 262.238 206.48C262.529 205.286 261.947 199.331 258.059 196.944C255.291 195.405 252.259 194.398 249.12 193.974C249.12 193.974 248.539 190.393 243.763 187.714C238.988 185.035 232.437 184.438 227.676 184.438C222.916 184.438 214.865 187.041 214.865 187.041Z" fill="#FFB700" stroke="#182F43" stroke-linecap="round" stroke-linejoin="round"/>
<path d="M249.119 193.897C248.718 198.31 247.714 202.646 246.135 206.785" stroke="#182F43" stroke-linecap="round" stroke-linejoin="round"/>
<path d="M201.305 200.464C201.305 200.464 202.56 204.26 209.509 208.04" stroke="#182F43" stroke-linecap="round" stroke-linejoin="round"/>
<path d="M228.945 225.321L229.649 264.337" stroke="white" stroke-linecap="round" stroke-linejoin="round"/>
<path d="M237.457 225.674L241.008 261.843" stroke="white" stroke-linecap="round" stroke-linejoin="round"/>
<path d="M150.631 199.285L136.461 204.158C135.238 204.579 134.587 205.911 135.008 207.134L145.472 237.559C145.893 238.782 147.225 239.433 148.448 239.012L162.618 234.138C163.841 233.718 164.492 232.385 164.071 231.162L153.607 200.737C153.186 199.514 151.854 198.864 150.631 199.285Z" fill="#182F43" stroke="#182F43" stroke-linecap="round" stroke-linejoin="round"/>
<path d="M149.644 250.607C148.404 249.367 137.016 222.245 135.991 219.765C134.965 217.285 147.578 208.576 147.578 208.576C147.578 208.576 150.899 206.51 150.899 208.377C150.899 210.244 144.471 215.831 143.644 217.285C142.818 218.739 145.511 223.285 145.511 223.285C145.511 223.285 153.578 218.938 154.205 218.938C154.833 218.938 163.726 226.592 164.552 227.418C165.379 228.245 167.614 230.74 167.047 232.01C166.481 233.28 164.966 232.637 163.986 232.423C163.007 232.209 153.838 235.484 153.838 235.484C153.838 235.484 157.359 240.459 156.899 243.352C156.629 245.178 156.214 246.979 155.66 248.74C155.66 248.74 175.313 272.878 177.792 274.332C180.272 275.786 181.68 281.082 180.027 286.669C178.374 292.255 174.486 291.919 169.313 291.72C164.139 291.521 149.644 250.607 149.644 250.607Z" fill="white" stroke="#182F43" stroke-linecap="round" stroke-linejoin="round"/>
<path d="M157.511 222.872C156.038 222.827 154.568 223.034 153.164 223.485C152.338 224.112 146.139 228.245 146.139 228.245" stroke="#182F43" stroke-linecap="round" stroke-linejoin="round"/>
<path d="M148.406 231.765C150.661 230.097 153.012 228.564 155.447 227.173C158.057 226.86 160.686 226.722 163.315 226.76" stroke="#182F43" stroke-linecap="round" stroke-linejoin="round"/>
<path d="M165.181 228.459C165.181 228.459 155.997 230.326 154.834 230.74C153.17 231.728 151.629 232.91 150.242 234.26" stroke="#182F43" stroke-linecap="round" stroke-linejoin="round"/>
<path d="M145.512 223.286L142.818 224.939" stroke="#182F43" stroke-linecap="round" stroke-linejoin="round"/>
<path d="M283.515 258.919L317.617 231.812C317.617 231.812 316.087 222.061 316.393 220.546C316.699 219.031 319.454 210.199 326.143 206.847C332.832 203.495 334.974 202.883 334.974 205.316C334.974 207.75 332.525 208.378 331.913 209.281C331.301 210.184 327.949 213.536 327.949 213.536C327.949 213.536 334.347 210.796 336.475 210.796C338.602 210.796 342.26 209.893 342.26 212.021C342.26 214.148 339.827 214.148 338.296 214.148C336.765 214.148 332.51 218.419 332.51 218.419C336.043 217.523 339.619 216.808 343.225 216.276C345.046 216.276 346.577 218.419 345.046 219.337C343.697 220.022 342.267 220.536 340.791 220.868C339.431 221.502 338.107 222.212 336.827 222.995C336.827 222.995 346.01 222.077 345.352 224.526C344.694 226.975 340.485 226.347 339.566 226.347C337.572 226.821 335.768 227.888 334.393 229.409C333.781 230.618 332.556 235.807 330.122 237.062C327.689 238.317 323.127 240.123 323.127 240.123C323.127 240.123 307.592 259.011 301.194 266.312C294.796 273.613 283.285 282.047 276.811 283.577C270.336 285.108 269.158 283.271 268.897 280.516C268.637 277.761 268.867 268.042 283.515 258.919Z" fill="white" stroke="#182F43" stroke-linecap="round" stroke-linejoin="round"/>
<path d="M317.922 216.628C317.922 216.628 325.223 213.291 326.738 213.291C328.254 213.291 330.703 214.5 328.881 216.628C326.839 218.592 324.591 220.332 322.177 221.817C322.177 221.817 331.009 225.459 326.769 232.164" stroke="#182F43" stroke-linecap="round" stroke-linejoin="round"/>
<path d="M231.884 134.723C231.884 134.723 222.333 136.392 217.925 141.78C213.517 147.167 199.006 179.755 199.098 182.678C199.19 185.602 213.838 184.117 213.838 184.117C213.838 184.117 215.369 200.433 220.527 212.372C221.95 215.617 227.017 222.046 232.45 219.643C237.884 217.24 240.241 180.03 240.241 180.03C240.241 180.03 245.415 187.362 249.333 185.403C253.803 183.153 252.992 177.749 249.792 177.351C246.593 176.953 260.048 165.106 256.726 156.014C253.405 146.923 236.017 132.213 231.884 134.723Z" fill="white" stroke="#182F43" stroke-linecap="round" stroke-linejoin="round"/>
<path d="M229.359 124.116C229.359 124.116 211.343 122.371 209.583 130.912C207.823 139.453 216.716 144.229 227.124 143.617C237.532 143.004 246.777 144.566 247.91 146.295C249.043 148.025 234.93 149.892 237.915 152.418C239.654 153.93 241.844 154.823 244.145 154.958C244.145 154.958 239.553 155.8 239.553 159.045C239.553 162.29 240.976 176.724 243.226 176.938C245.476 177.153 249.762 177.29 249.762 177.29C254.012 175.634 257.958 173.286 261.441 170.341C266.752 165.673 269.094 154.897 263.629 147.887C258.165 140.877 253.956 134.218 249.639 128.632C245.323 123.045 241.374 117.137 231.884 114.856C222.394 112.575 216.853 116.111 229.359 124.116Z" fill="#182F43" stroke="#182F43" stroke-linecap="round" stroke-linejoin="round"/>
<path d="M263.569 160.882C263.718 162.792 263.6 164.714 263.217 166.591" stroke="white" stroke-linecap="round" stroke-linejoin="round"/>
<path d="M232.851 134.693C232.851 134.693 212.953 134.693 220.055 139.163C227.157 143.632 239.203 137.724 252.979 144.796C255.311 145.904 257.384 147.489 259.066 149.448C260.748 151.407 262.001 153.696 262.744 156.168" stroke="white" stroke-linecap="round" stroke-linejoin="round"/>
<path d="M243.352 150.811C243.352 150.811 256.148 158.693 257.005 168.428" stroke="white" stroke-linecap="round" stroke-linejoin="round"/>
<path d="M213.793 184.117C213.793 184.117 229.283 184.653 233.798 181.53" stroke="#182F43" stroke-linecap="round" stroke-linejoin="round"/>
<path d="M210.242 170.815C210.242 170.815 221.156 175.116 225.013 168.703" stroke="#182F43" stroke-linecap="round" stroke-linejoin="round"/>
<path d="M223.207 167.234L227.83 169.622" stroke="#182F43" stroke-linecap="round" stroke-linejoin="round"/>
<path d="M215.2 156.412C215.2 156.412 205.129 156.718 204.976 158.325C204.822 159.933 210.792 165.045 210.792 165.045" fill="white"/>
<path d="M215.2 156.412C215.2 156.412 205.129 156.718 204.976 158.325C204.822 159.933 210.792 165.045 210.792 165.045" stroke="#182F43" stroke-linecap="round" stroke-linejoin="round"/>
<path d="M216.764 153.458C216.167 154.79 215.141 155.647 214.468 155.341C213.794 155.035 213.733 153.718 214.345 152.371C214.958 151.024 215.968 150.182 216.641 150.489C217.315 150.795 217.361 152.111 216.764 153.458Z" fill="#182F43"/>
<path d="M224.782 158.556C224.185 159.903 223.144 160.744 222.486 160.438C221.828 160.132 221.752 158.816 222.349 157.469C222.946 156.122 223.971 155.28 224.645 155.586C225.318 155.892 225.379 157.209 224.782 158.556Z" fill="#182F43"/>
<path d="M226.129 149.494C226.129 149.494 230.95 150.397 229.864 156.979L226.129 149.494Z" fill="#182F43" stroke="#182F43" stroke-linecap="round" stroke-linejoin="round"/>
<path d="M222.06 145.974C222.06 145.974 219.749 142.178 215.738 146.693L222.06 145.974Z" fill="#182F43" stroke="#182F43" stroke-linecap="round" stroke-linejoin="round"/>
<path d="M142.767 198.429L142.522 187.531C143.963 187.527 145.344 186.954 146.365 185.936C147.386 184.918 147.963 183.539 147.971 182.097V152.449C147.967 151.005 147.391 149.621 146.37 148.6C145.349 147.579 143.966 147.004 142.522 147H74.1486C72.7073 147.008 71.3276 147.585 70.3099 148.606C69.2921 149.626 68.7189 151.008 68.7148 152.449V182.143C68.7189 183.583 69.2927 184.963 70.3108 185.981C71.329 186.999 72.7087 187.573 74.1486 187.577H133.277L142.767 198.429Z" fill="#182F43"/>
<path d="M90.3884 166.352C90.3914 165.691 90.1983 165.045 89.8335 164.494C89.4686 163.943 88.9486 163.513 88.3391 163.258C87.7297 163.004 87.0583 162.935 86.41 163.062C85.7618 163.189 85.1658 163.506 84.6976 163.972C84.2294 164.438 83.9101 165.032 83.7801 165.68C83.6501 166.328 83.7153 167 83.9674 167.61C84.2195 168.221 84.6471 168.743 85.1962 169.11C85.7452 169.477 86.391 169.674 87.0516 169.674C87.9339 169.674 88.7803 169.324 89.4056 168.702C90.031 168.079 90.3843 167.234 90.3884 166.352Z" fill="#FFB700"/>
<path d="M110.041 166.352C110.044 165.691 109.85 165.044 109.485 164.493C109.119 163.941 108.598 163.511 107.988 163.257C107.378 163.002 106.705 162.935 106.057 163.063C105.408 163.192 104.812 163.51 104.345 163.977C103.877 164.445 103.559 165.041 103.431 165.69C103.302 166.338 103.37 167.01 103.624 167.621C103.879 168.231 104.309 168.752 104.86 169.118C105.411 169.483 106.058 169.677 106.719 169.674C107.6 169.674 108.445 169.324 109.068 168.701C109.691 168.078 110.041 167.233 110.041 166.352Z" fill="#FFB700"/>
<path d="M129.709 166.352C129.712 165.691 129.519 165.045 129.154 164.494C128.789 163.943 128.269 163.513 127.659 163.258C127.05 163.004 126.379 162.935 125.73 163.062C125.082 163.189 124.486 163.506 124.018 163.972C123.55 164.438 123.23 165.032 123.1 165.68C122.97 166.328 123.036 167 123.288 167.61C123.54 168.221 123.967 168.743 124.516 169.11C125.066 169.477 125.711 169.674 126.372 169.674C127.254 169.674 128.101 169.324 128.726 168.702C129.351 168.079 129.705 167.234 129.709 166.352Z" fill="#FFB700"/>
</svg>
