<svg width="508" height="486" viewBox="0 0 508 486" fill="none" xmlns="http://www.w3.org/2000/svg">
<path d="M386.985 210.525C387.311 209.503 386.57 207.515 386.3 206.92C384.908 203.821 381.471 202.428 378.215 202.686C377.046 202.911 375.846 202.911 374.677 202.686C373.295 202.103 372.195 201.003 371.612 199.621C370.331 197.159 368.709 194.891 366.794 192.883C363.863 189.828 359.899 187.582 355.564 187.728C343.852 188.133 345.053 197.835 341.819 200.665C340.022 202.237 338.731 199.991 337.204 199.228C336.25 198.71 335.162 198.494 334.083 198.608C333.005 198.723 331.986 199.162 331.162 199.868C329.489 201.272 328.501 203.315 327.187 205.067C325.873 206.819 323.896 208.436 321.718 208.155C319.899 207.964 318.45 206.549 316.709 205.966C315.687 205.68 314.616 205.614 313.567 205.773C312.518 205.932 311.514 206.311 310.623 206.886C309.067 207.868 307.692 209.11 306.558 210.559L386.985 210.525Z" fill="white" stroke="#EFF1F7" stroke-miterlimit="10"/>
<path d="M501.282 85.7414C501.787 84.1804 500.653 81.1372 500.238 80.2163C498.104 75.4661 492.826 73.31 487.829 73.7255C486.009 73.8715 484.145 74.2982 482.405 73.7255C480.226 73.0517 478.755 71.0416 477.688 69.0202C475.727 65.2338 473.239 61.7441 470.299 58.6552C465.807 53.9611 459.721 50.5136 453.028 50.7943C435.06 51.4232 436.902 66.3026 431.938 70.6486C429.176 73.0742 427.188 69.6266 424.841 68.4026C423.38 67.6059 421.711 67.2727 420.056 67.4472C418.401 67.6217 416.839 68.2957 415.576 69.3796C413.005 71.5469 411.489 74.68 409.467 77.364C407.446 80.0479 404.425 82.4735 401.079 82.1029C398.282 81.7997 396.059 79.6436 393.386 78.734C391.83 78.2968 390.198 78.1918 388.598 78.4259C386.998 78.66 385.465 79.2279 384.099 80.0928C381.716 81.5991 379.605 83.4975 377.855 85.7077L501.282 85.7414Z" fill="white" stroke="#EFF1F7" stroke-miterlimit="10"/>
<path d="M124.456 33.0834C124.782 32.0503 124.04 30.0739 123.771 29.4787C122.378 26.3793 118.942 24.9868 115.686 25.2451C114.517 25.4695 113.317 25.4695 112.148 25.2451C110.766 24.6614 109.666 23.5615 109.082 22.1793C107.802 19.7179 106.18 17.4496 104.265 15.4415C101.334 12.387 97.3697 10.141 93.0351 10.287C81.3224 10.6913 82.524 20.3938 79.2898 23.2237C77.493 24.7959 76.2016 22.5499 74.6744 21.7863C73.721 21.2686 72.6329 21.0527 71.554 21.167C70.4752 21.2813 69.4565 21.7204 68.6328 22.4264C66.9371 23.8413 65.9488 25.8739 64.6911 27.6258C63.4334 29.3776 61.4008 30.9947 59.2222 30.714C57.403 30.5118 55.9543 29.1081 54.2137 28.5242C53.1994 28.2363 52.1356 28.1666 51.0923 28.3195C50.049 28.4724 49.05 28.8445 48.1609 29.4113C46.605 30.3928 45.2298 31.635 44.0957 33.0834H124.456Z" fill="white" stroke="#EFF1F7" stroke-miterlimit="10"/>
<path d="M495.671 470C496.544 468.054 496.998 465.918 496.997 463.754C497.071 460.111 495.809 456.584 493.489 453.948C491.168 451.313 487.979 449.783 484.62 449.694C482.373 449.699 480.173 450.395 478.276 451.703C478.381 451.039 478.437 450.368 478.443 449.694C478.538 448.196 478.353 446.693 477.9 445.274C477.447 443.855 476.735 442.55 475.807 441.436C474.878 440.322 473.753 439.422 472.497 438.79C471.242 438.158 469.881 437.807 468.498 437.757C467.114 437.707 465.736 437.96 464.444 438.501C463.153 439.042 461.975 439.859 460.981 440.904C459.987 441.949 459.197 443.201 458.659 444.584C458.12 445.967 457.844 447.454 457.847 448.956H457.13C452.859 448.962 448.674 450.254 445.04 452.688C441.834 446.847 436.714 442.534 430.703 440.611C432.483 439.55 433.965 437.987 434.992 436.086C436.018 434.186 436.551 432.019 436.534 429.816C436.581 428.267 436.341 426.723 435.828 425.276C435.314 423.829 434.537 422.509 433.543 421.394C432.55 420.28 431.359 419.393 430.043 418.788C428.727 418.183 427.312 417.871 425.883 417.871C424.453 417.871 423.038 418.183 421.722 418.788C420.406 419.393 419.216 420.28 418.222 421.394C417.229 422.509 416.452 423.829 415.938 425.276C415.424 426.723 415.184 428.267 415.232 429.816C415.217 431.816 415.655 433.789 416.507 435.563C417.358 437.337 418.599 438.856 420.118 439.989C417.533 440.469 415.038 441.41 412.735 442.775C411.491 438.5 409.037 434.758 405.722 432.081C402.406 429.403 398.398 427.927 394.265 427.86C389.519 427.871 384.949 429.813 381.458 433.302C379.786 416.741 367.409 403.861 352.379 403.861C348.236 403.879 344.145 404.873 340.391 406.775C336.637 408.677 333.308 411.441 330.636 414.876C325.666 399.222 312.489 388.026 297.005 388.026C290.154 388.018 283.456 390.229 277.771 394.375C274.656 393.007 271.285 392.46 267.937 392.78C264.589 393.1 261.359 394.277 258.512 396.216C255.666 394.277 252.436 393.1 249.087 392.78C245.739 392.46 242.369 393.007 239.254 394.375C233.578 390.225 226.889 388.005 220.043 388C204.512 388 191.371 399.196 186.413 414.85C183.736 411.417 180.405 408.655 176.649 406.754C172.893 404.852 168.802 403.856 164.657 403.835C149.628 403.835 137.251 416.716 135.59 433.276C132.099 429.789 127.529 427.848 122.783 427.834C118.65 427.899 114.641 429.375 111.325 432.052C108.009 434.73 105.556 438.473 104.313 442.749C102.009 441.388 99.5151 440.447 96.9301 439.963C98.4499 438.83 99.6901 437.311 100.542 435.537C101.394 433.764 101.832 431.79 101.816 429.79C101.864 428.241 101.624 426.697 101.111 425.25C100.597 423.803 99.82 422.483 98.8262 421.368C97.8325 420.254 96.6422 419.367 95.3262 418.762C94.0101 418.157 92.5952 417.845 91.1658 417.845C89.7363 417.845 88.3214 418.157 87.0053 418.762C85.6893 419.367 84.499 420.254 83.5053 421.368C82.5115 422.483 81.7347 423.803 81.221 425.25C80.7073 426.697 80.4672 428.241 80.5151 429.79C80.4948 431.994 81.0264 434.161 82.0532 436.063C83.08 437.964 84.5634 439.527 86.3452 440.585C80.3344 442.508 75.2143 446.821 72.0089 452.662C68.3742 450.23 64.1892 448.938 59.9186 448.93C59.6677 448.93 59.4407 448.93 59.1898 448.93C59.0834 447.423 58.6963 445.956 58.0519 444.616C57.4075 443.276 56.5192 442.093 55.4407 441.136C54.3623 440.179 53.1162 439.47 51.7777 439.051C50.4393 438.632 49.0364 438.512 47.6539 438.698C46.2714 438.884 44.938 439.372 43.7346 440.133C42.5311 440.894 41.4825 441.912 40.6522 443.126C39.8219 444.339 39.2273 445.723 38.9042 447.192C38.5811 448.662 38.5363 450.188 38.7725 451.677C36.8723 450.368 34.668 449.671 32.4167 449.668C30.7479 449.705 29.1023 450.1 27.5742 450.828C26.0462 451.557 24.6659 452.606 23.5126 453.914C22.3593 455.223 21.4556 456.766 20.8535 458.455C20.2513 460.143 19.9626 461.944 20.0039 463.754C20.003 465.918 20.4565 468.054 21.33 470H495.671Z" fill="white" stroke="#EFF1F7" stroke-miterlimit="10"/>
<path d="M366.657 69H344.209V462.109H366.657V69Z" stroke="#EFF1F7" stroke-miterlimit="10"/>
<path d="M344.198 186.059H326.949" stroke="#EFF1F7" stroke-miterlimit="10"/>
<path d="M344.199 290.327H321.784" stroke="#EFF1F7" stroke-miterlimit="10"/>
<path d="M366.657 69L345.04 96.4456H366.41L344.209 69" stroke="#EFF1F7" stroke-miterlimit="10"/>
<path d="M366.657 97.1309L345.04 124.565H366.41L344.209 97.1309" stroke="#EFF1F7" stroke-miterlimit="10"/>
<path d="M366.657 125.25L345.04 152.696H366.41L344.209 125.25" stroke="#EFF1F7" stroke-miterlimit="10"/>
<path d="M366.657 153.38L345.04 180.814H366.41L344.209 153.38" stroke="#EFF1F7" stroke-miterlimit="10"/>
<path d="M366.658 181.5L345.04 208.934H366.411L344.209 181.5H326.994" stroke="#EFF1F7" stroke-miterlimit="10"/>
<path d="M366.657 209.62L345.04 237.054H366.41L344.209 209.62" stroke="#EFF1F7" stroke-miterlimit="10"/>
<path d="M366.657 237.75L345.04 265.184H366.41L344.209 237.75" stroke="#EFF1F7" stroke-miterlimit="10"/>
<path d="M366.657 265.868L345.04 293.302H366.41L344.209 265.868" stroke="#EFF1F7" stroke-miterlimit="10"/>
<path d="M366.658 293.988L345.041 321.434H366.411L344.21 293.988H321.817" stroke="#EFF1F7" stroke-miterlimit="10"/>
<path d="M366.657 322.12L345.04 349.554H366.41L344.209 322.12" stroke="#EFF1F7" stroke-miterlimit="10"/>
<path d="M366.657 350.238L345.04 377.673H366.41L344.209 350.238" stroke="#EFF1F7" stroke-miterlimit="10"/>
<path d="M366.657 378.357L345.04 405.803H366.41L344.209 378.357" stroke="#EFF1F7" stroke-miterlimit="10"/>
<path d="M366.657 406.488L345.04 433.923H366.41L344.209 406.488" stroke="#EFF1F7" stroke-miterlimit="10"/>
<path d="M366.657 434.607L345.04 462.042H366.41L344.209 434.607" stroke="#EFF1F7" stroke-miterlimit="10"/>
<path d="M366.209 462.84H150.855L181.625 429.577H335.439L366.209 462.84Z" fill="white" stroke="#8E95A7" stroke-miterlimit="10"/>
<path d="M192.485 455.394C197.161 455.394 200.952 451.604 200.952 446.927C200.952 442.251 197.161 438.46 192.485 438.46C187.808 438.46 184.018 442.251 184.018 446.927C184.018 451.604 187.808 455.394 192.485 455.394Z" fill="#EFF1F7" stroke="#8E95A7" stroke-linecap="round" stroke-linejoin="round"/>
<path d="M226.34 455.394C231.017 455.394 234.808 451.604 234.808 446.927C234.808 442.251 231.017 438.46 226.34 438.46C221.664 438.46 217.873 442.251 217.873 446.927C217.873 451.604 221.664 455.394 226.34 455.394Z" fill="#EFF1F7" stroke="#8E95A7" stroke-linecap="round" stroke-linejoin="round"/>
<path d="M260.2 455.394C264.876 455.394 268.667 451.604 268.667 446.927C268.667 442.251 264.876 438.46 260.2 438.46C255.523 438.46 251.732 442.251 251.732 446.927C251.732 451.604 255.523 455.394 260.2 455.394Z" fill="#EFF1F7" stroke="#8E95A7" stroke-linecap="round" stroke-linejoin="round"/>
<path d="M294.058 455.394C298.734 455.394 302.525 451.604 302.525 446.927C302.525 442.251 298.734 438.46 294.058 438.46C289.382 438.46 285.591 442.251 285.591 446.927C285.591 451.604 289.382 455.394 294.058 455.394Z" fill="#EFF1F7" stroke="#8E95A7" stroke-linecap="round" stroke-linejoin="round"/>
<path d="M327.916 455.394C332.592 455.394 336.383 451.604 336.383 446.927C336.383 442.251 332.592 438.46 327.916 438.46C323.239 438.46 319.448 442.251 319.448 446.927C319.448 451.604 323.239 455.394 327.916 455.394Z" fill="#EFF1F7" stroke="#8E95A7" stroke-linecap="round" stroke-linejoin="round"/>
<path d="M507.052 470H10V484.498H507.052V470Z" fill="#EFF1F7" stroke="#8E95A7" stroke-linecap="round" stroke-linejoin="round"/>
<path d="M325.85 154.724L314.621 400.926H199.257L188.027 154.724C188.027 121.147 202.076 90.4338 217.337 66.5368C231.273 44.7174 246.22 28.5802 252.419 21.0787C252.913 20.4887 253.531 20.0142 254.228 19.6886C254.926 19.3631 255.686 19.1943 256.456 19.1943C257.226 19.1943 257.986 19.3631 258.684 19.6886C259.381 20.0142 259.999 20.4887 260.493 21.0787C266.827 28.5353 281.998 44.6949 296.125 66.5144C311.611 90.4338 325.85 121.136 325.85 154.724Z" fill="white" stroke="#8E95A7" stroke-miterlimit="10"/>
<path d="M317.462 180.071L308.097 392.022" stroke="#8E95A7" stroke-miterlimit="10"/>
<path d="M296.654 82.6963C308.086 102.91 317.609 127.357 318.418 153.747L296.654 82.6963Z" fill="white"/>
<path d="M296.654 82.6963C308.086 102.91 317.609 127.357 318.418 153.747" stroke="#8E95A7" stroke-miterlimit="10"/>
<path d="M296.126 66.5154H217.338C231.274 44.6959 246.221 28.5587 252.42 21.0572C252.914 20.4672 253.532 19.9927 254.229 19.6671C254.927 19.3416 255.687 19.1729 256.457 19.1729C257.227 19.1729 257.987 19.3416 258.684 19.6671C259.382 19.9927 260 20.4672 260.494 21.0572C266.828 28.5363 281.999 44.6959 296.126 66.5154Z" fill="#FFC100" stroke="#EFF1F7" stroke-linecap="round" stroke-linejoin="round"/>
<path d="M193.474 275.514C193.474 275.514 164.209 285.62 153.204 313.1C144.58 334.672 142.3 376.155 141.716 393C141.683 393.958 141.843 394.913 142.187 395.809C142.531 396.704 143.052 397.521 143.719 398.21C144.385 398.9 145.184 399.448 146.067 399.822C146.95 400.197 147.899 400.389 148.858 400.389C150.145 400.391 151.408 400.044 152.513 399.386C153.619 398.727 154.525 397.782 155.136 396.649C160.863 386.026 178.718 356.357 197.337 360.871L193.474 275.514Z" fill="#FFC100" stroke="#EFF1F7" stroke-linecap="round" stroke-linejoin="round"/>
<path d="M320.439 275.265C320.439 275.265 349.794 285.596 360.788 313.098C369.423 334.67 371.703 376.153 372.276 392.998C372.309 393.956 372.149 394.911 371.805 395.807C371.461 396.702 370.94 397.519 370.273 398.208C369.607 398.898 368.808 399.446 367.925 399.82C367.042 400.195 366.093 400.387 365.134 400.387C363.859 400.381 362.609 400.033 361.515 399.379C360.42 398.725 359.522 397.79 358.912 396.67C353.185 386.046 335.117 356.546 316.486 361.06L320.439 275.265Z" fill="#FFC100" stroke="#EFF1F7" stroke-linecap="round" stroke-linejoin="round"/>
<path d="M328.591 279.06C325.951 277.611 323.216 276.343 320.405 275.265L316.396 361.038C318.321 360.575 320.314 360.461 322.28 360.701L328.591 279.06Z" fill="#EFF1F7" stroke="#EFF1F7" stroke-linecap="round" stroke-linejoin="round"/>
<path d="M305.165 400.746H210.127V417.602H305.165V400.746Z" fill="#EFF1F7" stroke="#8E95A7" stroke-linecap="round" stroke-linejoin="round"/>
<path d="M261.949 360.081C275.703 356.769 284.167 342.934 280.855 329.18C277.543 315.427 263.709 306.962 249.955 310.274C236.201 313.586 227.737 327.421 231.049 341.175C234.361 354.928 248.196 363.393 261.949 360.081Z" fill="white" stroke="#8E95A7" stroke-miterlimit="10"/>
<path d="M260.573 354.788C271.418 352.249 278.152 341.398 275.612 330.552C273.072 319.707 262.221 312.974 251.376 315.514C240.53 318.053 233.797 328.904 236.337 339.75C238.877 350.595 249.728 357.328 260.573 354.788Z" fill="#AA4337" stroke="#8E95A7" stroke-miterlimit="10"/>
<path d="M259.761 351.277C268.673 349.186 274.203 340.267 272.113 331.354C270.023 322.442 261.103 316.912 252.191 319.002C243.279 321.093 237.748 330.012 239.839 338.924C241.929 347.837 250.848 353.367 259.761 351.277Z" fill="white" stroke="#8E95A7" stroke-miterlimit="10"/>
<path d="M258.728 346.904C265.218 345.379 269.244 338.881 267.719 332.391C266.194 325.9 259.697 321.875 253.206 323.399C246.716 324.924 242.69 331.422 244.215 337.912C245.74 344.403 252.237 348.428 258.728 346.904Z" fill="#AA4337" stroke="#8E95A7" stroke-miterlimit="10"/>
<path d="M255.969 342.78C260.18 342.78 263.594 339.366 263.594 335.155C263.594 330.944 260.18 327.53 255.969 327.53C251.758 327.53 248.344 330.944 248.344 335.155C248.344 339.366 251.758 342.78 255.969 342.78Z" fill="white" stroke="#8E95A7" stroke-miterlimit="10"/>
<path d="M259.496 335.155C259.498 334.454 259.292 333.769 258.904 333.186C258.516 332.602 257.964 332.147 257.317 331.878C256.67 331.609 255.958 331.538 255.271 331.674C254.584 331.81 253.952 332.147 253.457 332.643C252.962 333.138 252.624 333.769 252.488 334.456C252.352 335.144 252.423 335.856 252.692 336.503C252.961 337.15 253.417 337.702 254 338.09C254.583 338.478 255.269 338.683 255.969 338.681C256.905 338.681 257.802 338.31 258.463 337.648C259.124 336.987 259.496 336.09 259.496 335.155Z" fill="#AA4337" stroke="#8E95A7" stroke-miterlimit="10"/>
<path d="M257.416 329.619L255.968 335.155L261.19 336.301L257.416 329.619Z" fill="white" stroke="#8E95A7" stroke-miterlimit="10"/>
<path d="M259.651 332.707L282.594 320.208" stroke="#8E95A7" stroke-miterlimit="10"/>
<path d="M275.227 324.319L275.575 318.322L286.355 312.157V319.007L275.227 324.319Z" fill="white" stroke="#8E95A7" stroke-miterlimit="10"/>
<path d="M290.982 322.262L286.254 318.77L275.182 324.598L280.516 327.686L290.982 322.262Z" fill="white" stroke="#8E95A7" stroke-miterlimit="10"/>
<path d="M255.968 286.495C270.114 286.495 281.583 275.027 281.583 260.88C281.583 246.733 270.114 235.265 255.968 235.265C241.821 235.265 230.353 246.733 230.353 260.88C230.353 275.027 241.821 286.495 255.968 286.495Z" stroke="#8E95A7" stroke-miterlimit="10"/>
<path d="M248.342 257.287H240.639V272.863H248.342V257.287Z" fill="#AA4337" stroke="#8E95A7" stroke-miterlimit="10"/>
<path d="M259.886 252.334H252.183V272.862H259.886V252.334Z" fill="#AA4337" stroke="#8E95A7" stroke-miterlimit="10"/>
<path d="M271.431 247.729H263.728V272.861H271.431V247.729Z" fill="#AA4337" stroke="#8E95A7" stroke-miterlimit="10"/>
<path d="M255.968 214.053C270.114 214.053 281.583 202.585 281.583 188.438C281.583 174.292 270.114 162.823 255.968 162.823C241.821 162.823 230.353 174.292 230.353 188.438C230.353 202.585 241.821 214.053 255.968 214.053Z" stroke="#8E95A7" stroke-miterlimit="10"/>
<path d="M274.53 191.92V185.272H270.117C269.776 183.747 269.184 182.29 268.365 180.96L271.554 177.759L266.826 173.065L263.648 176.243C262.34 175.426 260.906 174.83 259.403 174.48V169.831H252.767V174.446C251.297 174.789 249.894 175.369 248.612 176.165L245.243 172.796L240.549 177.501L243.918 180.87C243.135 182.132 242.551 183.507 242.188 184.946H237.382V191.594H242.121C242.448 193.042 243.001 194.429 243.76 195.704L240.391 199.073L245.085 203.767L248.387 200.477C249.658 201.292 251.048 201.902 252.508 202.285V206.979H259.145V202.487C260.652 202.163 262.097 201.598 263.424 200.814L266.658 204.037L271.352 199.343L268.219 196.199C269.063 194.887 269.685 193.445 270.06 191.931L274.53 191.92ZM256.124 196.008C254.624 196.01 253.157 195.567 251.909 194.735C250.661 193.903 249.687 192.719 249.112 191.334C248.537 189.948 248.386 188.423 248.678 186.952C248.97 185.48 249.692 184.128 250.753 183.068C251.814 182.007 253.166 181.285 254.637 180.993C256.109 180.7 257.634 180.852 259.019 181.427C260.405 182.002 261.588 182.975 262.42 184.223C263.252 185.472 263.695 186.939 263.693 188.439C263.69 190.445 262.892 192.369 261.473 193.788C260.054 195.206 258.131 196.005 256.124 196.008Z" fill="#AA4337" stroke="#8E95A7" stroke-miterlimit="10"/>
<path d="M255.968 141.609C270.114 141.609 281.583 130.141 281.583 115.994C281.583 101.847 270.114 90.3789 255.968 90.3789C241.821 90.3789 230.353 101.847 230.353 115.994C230.353 130.141 241.821 141.609 255.968 141.609Z" stroke="#8E95A7" stroke-miterlimit="10"/>
<path d="M269.209 110.155C269.052 106.742 267.603 103.516 265.158 101.13C262.712 98.7443 259.451 97.3766 256.035 97.3038C252.619 97.2311 249.303 98.4586 246.758 100.738C244.212 103.018 242.628 106.179 242.325 109.582C242.182 112.749 243.173 115.863 245.121 118.364C247.241 120.997 248.427 124.26 248.49 127.64V128.358H263.089V127.64C263.112 124.3 264.264 121.067 266.357 118.465C268.22 116.097 269.226 113.168 269.209 110.155Z" fill="#AA4337" stroke="#8E95A7" stroke-miterlimit="10"/>
<path d="M258.753 130.716H252.902C251.724 130.716 250.769 131.671 250.769 132.849V135.702C250.769 136.88 251.724 137.835 252.902 137.835H258.753C259.931 137.835 260.887 136.88 260.887 135.702V132.849C260.887 131.671 259.931 130.716 258.753 130.716Z" fill="white" stroke="#8E95A7" stroke-linecap="round" stroke-linejoin="round"/>
<path d="M263.155 128.358H248.467V131.694H263.155V128.358Z" fill="white" stroke="#8E95A7" stroke-linecap="round" stroke-linejoin="round"/>
<path d="M261.673 135.298H249.927L248.467 131.951H263.144L261.673 135.298Z" fill="white" stroke="#8E95A7" stroke-linecap="round" stroke-linejoin="round"/>
<path d="M57.3802 288.144C56.7968 288.157 56.2203 288.018 55.7069 287.74C55.2505 287.494 54.8934 287.097 54.6963 286.617C54.4365 286.014 54.2991 285.365 54.292 284.708L56.2123 284.382C56.2158 284.761 56.261 285.137 56.347 285.505C56.4022 285.757 56.5222 285.989 56.6952 286.179C56.8583 286.325 57.0718 286.401 57.2903 286.393C57.403 286.406 57.5172 286.387 57.6202 286.34C57.7232 286.292 57.8111 286.217 57.8743 286.123C57.9798 285.935 58.034 285.722 58.0315 285.505C58.0383 285.105 57.9205 284.713 57.6946 284.382C57.4439 284.039 57.1537 283.726 56.8299 283.45L55.7069 282.473C55.3189 282.155 54.9852 281.776 54.7187 281.35C54.4483 280.868 54.3162 280.32 54.3369 279.767C54.3113 279.385 54.3683 279.001 54.5039 278.643C54.6395 278.284 54.8507 277.959 55.123 277.69C55.7259 277.188 56.4956 276.931 57.2791 276.971C57.7433 276.953 58.2052 277.045 58.6267 277.24C58.9627 277.402 59.2467 277.655 59.4465 277.97C59.638 278.269 59.7749 278.6 59.8507 278.947C59.9261 279.295 59.9749 279.648 59.9967 280.003L58.0877 280.295C58.0767 280.002 58.0505 279.709 58.0091 279.419C57.9819 279.202 57.8965 278.996 57.762 278.824C57.6925 278.749 57.6068 278.691 57.5115 278.654C57.4161 278.617 57.3136 278.602 57.2117 278.61C57.0999 278.602 56.9878 278.623 56.8871 278.673C56.7864 278.722 56.7008 278.797 56.639 278.891C56.5167 279.082 56.4506 279.304 56.4481 279.531C56.4347 279.868 56.5248 280.201 56.7064 280.486C56.9186 280.772 57.1636 281.032 57.4363 281.261L58.5593 282.226C58.994 282.626 59.3718 283.083 59.6823 283.585C60.0273 284.148 60.1991 284.8 60.1764 285.461C60.18 285.947 60.0602 286.426 59.8283 286.853C59.6015 287.262 59.2624 287.597 58.8513 287.819C58.3968 288.051 57.8903 288.163 57.3802 288.144Z" fill="#EFF1F7"/>
<path d="M62.3788 287.987V278.756H60.6943V277.071H66.3092V278.756H64.6248V288.009L62.3788 287.987Z" fill="#EFF1F7"/>
<path d="M66.3291 287.987L68.4403 277.071H70.9109L73.0108 287.987H70.9558L70.5627 285.595H68.8333L68.4178 287.987H66.3291ZM69.0355 284.236H70.3044L69.6868 279.879L69.0355 284.236Z" fill="#EFF1F7"/>
<path d="M76.7629 288.155C76.1435 288.19 75.5294 288.025 75.011 287.684C74.5633 287.364 74.2384 286.9 74.0902 286.37C73.8908 285.727 73.796 285.056 73.8095 284.382V280.733C73.793 280.048 73.8878 279.365 74.0902 278.711C74.2549 278.171 74.6048 277.705 75.0784 277.397C75.6614 277.064 76.3278 276.904 76.9987 276.937C77.6399 276.906 78.2781 277.042 78.8516 277.33C79.3009 277.576 79.6474 277.974 79.8286 278.453C80.0436 278.992 80.1467 279.569 80.1318 280.149V280.777H77.9645V280.014C77.9837 279.76 77.9837 279.504 77.9645 279.25C77.9407 279.056 77.8539 278.874 77.7174 278.734C77.5389 278.594 77.3146 278.526 77.0885 278.543C76.9703 278.532 76.8511 278.547 76.7389 278.585C76.6266 278.624 76.5238 278.686 76.4372 278.767C76.3005 278.935 76.2113 279.137 76.1789 279.351C76.1616 279.606 76.1616 279.861 76.1789 280.115V284.955C76.1739 285.23 76.2003 285.505 76.2575 285.775C76.3001 285.991 76.4056 286.191 76.5607 286.347C76.7487 286.478 76.9721 286.548 77.2008 286.548C77.4296 286.548 77.653 286.478 77.8409 286.347C78.0034 286.184 78.1163 285.977 78.1666 285.752C78.2237 285.475 78.2501 285.193 78.2452 284.91V283.787H77.0436V282.439H80.1094V288.054H78.7056L78.5709 287.077C78.4295 287.403 78.2049 287.686 77.9195 287.897C77.5712 288.104 77.1661 288.194 76.7629 288.155Z" fill="#EFF1F7"/>
<path d="M81.6816 287.987V277.071H86.4318V278.61H83.9051V281.507H85.8591V283.057H83.9051V286.482H86.4655V287.987H81.6816Z" fill="#EFF1F7"/>
<path d="M93.8191 287.987V285.494H90.5176V283.809L93.3587 277.071H95.7843V283.809H96.8399V285.494H95.7843V288.032L93.8191 287.987ZM92.1459 283.854H93.8191V279.216L92.1459 283.854Z" fill="#EFF1F7"/>
<path d="M53.8652 298.037H108.622" stroke="#EFF1F7" stroke-miterlimit="10"/>
<path d="M53.8652 305.663H108.622" stroke="#EFF1F7" stroke-miterlimit="10"/>
<path d="M53.8652 313.276H108.622" stroke="#EFF1F7" stroke-miterlimit="10"/>
<path d="M53.8652 320.892H108.622" stroke="#EFF1F7" stroke-miterlimit="10"/>
<path d="M230.352 334.624H164.994V282.237H107.453" stroke="#EFF1F7" stroke-miterlimit="10"/>
<path d="M57.3797 218.398C56.7959 218.419 56.2164 218.291 55.6952 218.027C55.2427 217.776 54.887 217.381 54.6845 216.904C54.4262 216.301 54.2889 215.652 54.2803 214.995L56.2006 214.67C56.2031 215.048 56.2483 215.425 56.3353 215.793C56.3851 216.046 56.5058 216.279 56.6834 216.466C56.8455 216.615 57.0587 216.696 57.2786 216.691C57.3913 216.704 57.5054 216.686 57.6084 216.638C57.7114 216.591 57.7994 216.516 57.8626 216.422C57.9681 216.233 58.0223 216.02 58.0198 215.804C58.0265 215.404 57.9088 215.011 57.6829 214.681C57.4322 214.337 57.142 214.025 56.8182 213.749L55.6952 212.761C55.3065 212.443 54.9727 212.064 54.707 211.638C54.4368 211.151 54.3047 210.599 54.3252 210.043C54.2998 209.662 54.3568 209.281 54.4925 208.924C54.6282 208.567 54.8392 208.244 55.1113 207.977C55.7114 207.47 56.4831 207.213 57.2674 207.258C57.7316 207.24 58.1935 207.332 58.615 207.528C58.9502 207.686 59.2343 207.935 59.4347 208.246C59.6265 208.549 59.7633 208.884 59.839 209.235C59.9151 209.582 59.964 209.935 59.985 210.29L58.0759 210.571C58.0759 210.245 58.0759 209.953 57.9973 209.695C57.9681 209.478 57.8829 209.273 57.7503 209.1C57.6793 209.027 57.5934 208.97 57.4984 208.933C57.4035 208.896 57.3017 208.88 57.2 208.886C57.0873 208.88 56.9749 208.904 56.8743 208.955C56.7738 209.007 56.6885 209.084 56.6273 209.178C56.5002 209.367 56.4336 209.591 56.4364 209.818C56.4244 210.155 56.5144 210.488 56.6947 210.773C56.9069 211.059 57.1519 211.319 57.4246 211.548L58.5476 212.514C58.9874 212.908 59.3659 213.366 59.6706 213.872C60.0155 214.436 60.1873 215.088 60.1647 215.748C60.1682 216.234 60.0485 216.713 59.8166 217.14C59.5832 217.544 59.2458 217.877 58.8396 218.106C58.3854 218.325 57.8832 218.425 57.3797 218.398Z" fill="#EFF1F7"/>
<path d="M62.3788 218.253V209H60.6943V207.338H66.3092V209H64.6248V218.253H62.3788Z" fill="#EFF1F7"/>
<path d="M66.3291 218.253L68.4403 207.338H70.9109L73.0108 218.253H70.9558L70.5627 215.873H68.8333L68.4178 218.276L66.3291 218.253ZM69.0355 214.491H70.3044L69.6419 210.089L69.0355 214.491Z" fill="#EFF1F7"/>
<path d="M76.7636 218.409C76.1454 218.447 75.5315 218.285 75.0117 217.948C74.5657 217.622 74.2417 217.155 74.0909 216.623C73.8899 215.98 73.7951 215.309 73.8101 214.636V210.986C73.7952 210.302 73.89 209.619 74.0909 208.965C74.2588 208.429 74.6082 207.968 75.0791 207.662C75.662 207.328 76.3284 207.168 76.9994 207.202C77.6406 207.171 78.2788 207.306 78.8523 207.595C79.3003 207.842 79.6464 208.24 79.8293 208.718C80.0422 209.257 80.1453 209.833 80.1325 210.413V211.053H77.9651V210.256C77.9844 210.006 77.9844 209.754 77.9651 209.504C77.9391 209.306 77.8528 209.122 77.7181 208.976C77.538 208.84 77.3139 208.776 77.0892 208.796C76.9708 208.783 76.851 208.797 76.7384 208.836C76.6258 208.874 76.5232 208.938 76.4379 209.021C76.3012 209.189 76.212 209.391 76.1796 209.605C76.1619 209.859 76.1619 210.114 76.1796 210.368V215.208C76.1752 215.484 76.2016 215.759 76.2582 216.028C76.2982 216.242 76.4043 216.439 76.5614 216.59C76.7412 216.736 76.9702 216.808 77.2015 216.792C77.3171 216.801 77.4333 216.787 77.5432 216.75C77.6532 216.713 77.7547 216.655 77.8416 216.578C78.0069 216.421 78.1205 216.218 78.1673 215.994C78.2244 215.717 78.2508 215.435 78.2459 215.152V214.029H77.0443V212.682H80.11V218.297H78.7063L78.5716 217.308C78.4305 217.637 78.206 217.924 77.9202 218.139C77.5731 218.35 77.168 218.444 76.7636 218.409Z" fill="#EFF1F7"/>
<path d="M81.6816 218.253V207.338H86.4318V208.876H83.9051V211.774H85.8591V213.323H83.9051V216.748H86.4655V218.253H81.6816Z" fill="#EFF1F7"/>
<path d="M93.5738 218.443C92.9693 218.475 92.3686 218.33 91.8444 218.028C91.4243 217.762 91.1013 217.369 90.9236 216.905C90.7249 216.354 90.6297 215.772 90.6428 215.186V214.749H92.7652V215.119C92.7635 215.409 92.7898 215.699 92.8438 215.984C92.8816 216.179 92.9753 216.358 93.1134 216.5C93.1866 216.565 93.2721 216.614 93.3647 216.645C93.4573 216.676 93.5551 216.688 93.6524 216.68C93.8483 216.691 94.041 216.626 94.1914 216.5C94.3165 216.345 94.3979 216.159 94.4272 215.961C94.4765 215.676 94.4991 215.386 94.4946 215.097C94.5156 214.661 94.4349 214.227 94.2588 213.828C94.1562 213.666 94.0099 213.538 93.837 213.456C93.664 213.375 93.4715 213.344 93.2818 213.367H92.9225V211.829H93.2481C93.4325 211.85 93.6193 211.825 93.7917 211.757C93.9642 211.688 94.1169 211.578 94.2363 211.436C94.4366 211.06 94.5262 210.636 94.4946 210.212C94.5136 209.865 94.4521 209.52 94.3149 209.201C94.2458 209.077 94.142 208.976 94.0164 208.91C93.8907 208.845 93.7486 208.817 93.6075 208.83C93.4667 208.817 93.3254 208.849 93.2042 208.922C93.083 208.995 92.9882 209.104 92.9337 209.235C92.8158 209.57 92.7588 209.924 92.7652 210.279V210.762H90.6428V210.167C90.6227 209.607 90.7423 209.051 90.9909 208.55C91.2109 208.114 91.56 207.757 91.9904 207.528C92.4765 207.281 93.0175 207.161 93.5625 207.18C94.1133 207.164 94.6598 207.28 95.1572 207.517C95.5858 207.728 95.9359 208.07 96.1566 208.494C96.4034 208.992 96.523 209.544 96.5048 210.099C96.5256 210.659 96.3853 211.212 96.1005 211.694C95.8855 212.075 95.5376 212.363 95.1235 212.503C95.3938 212.591 95.6399 212.741 95.8422 212.941C96.0612 213.179 96.226 213.463 96.3251 213.772C96.4571 214.189 96.5178 214.625 96.5048 215.063C96.5112 215.655 96.4162 216.244 96.224 216.804C96.0488 217.29 95.722 217.707 95.2919 217.994C94.7772 218.312 94.1786 218.469 93.5738 218.443Z" fill="#EFF1F7"/>
<path d="M53.8652 228.303H108.622" stroke="#EFF1F7" stroke-miterlimit="10"/>
<path d="M53.8652 235.916H108.622" stroke="#EFF1F7" stroke-miterlimit="10"/>
<path d="M53.8652 243.542H108.622" stroke="#EFF1F7" stroke-miterlimit="10"/>
<path d="M53.8652 251.155H108.622" stroke="#EFF1F7" stroke-miterlimit="10"/>
<path d="M230.352 262.554H164.994V210.156H107.453" stroke="#EFF1F7" stroke-miterlimit="10"/>
<path d="M57.3797 148.659C56.7959 148.68 56.2164 148.552 55.6952 148.289C55.2416 148.039 54.8855 147.643 54.6845 147.166C54.426 146.566 54.2886 145.921 54.2803 145.268L56.2006 144.942C56.2031 145.32 56.2483 145.697 56.3353 146.065C56.3851 146.318 56.5058 146.552 56.6834 146.739C56.8455 146.888 57.0587 146.968 57.2786 146.964C57.3913 146.977 57.5054 146.958 57.6084 146.911C57.7114 146.863 57.7994 146.788 57.8626 146.694C57.9671 146.505 58.0213 146.292 58.0198 146.076C58.0265 145.676 57.9088 145.284 57.6829 144.953C57.4401 144.6 57.1533 144.28 56.8294 143.999L55.7065 143.011C55.3177 142.693 54.9839 142.314 54.7182 141.888C54.4491 141.4 54.3171 140.849 54.3364 140.293C54.311 139.912 54.368 139.531 54.5037 139.174C54.6394 138.817 54.8505 138.494 55.1225 138.227C55.7226 137.72 56.4944 137.463 57.2786 137.508C57.7428 137.49 58.2047 137.582 58.6262 137.778C58.9614 137.936 59.2455 138.185 59.446 138.496C59.6377 138.799 59.7745 139.134 59.8502 139.485C59.9264 139.832 59.9752 140.185 59.9962 140.54L58.0872 140.821C58.0762 140.528 58.05 140.235 58.0086 139.945C57.9793 139.728 57.8941 139.523 57.7615 139.35C57.692 139.275 57.6063 139.217 57.511 139.18C57.4156 139.143 57.3131 139.128 57.2112 139.136C57.0985 139.13 56.9862 139.154 56.8856 139.205C56.785 139.257 56.6998 139.334 56.6385 139.428C56.5114 139.617 56.4449 139.841 56.4476 140.068C56.4357 140.402 56.5258 140.731 56.7059 141.012C56.9181 141.298 57.1631 141.558 57.4358 141.787L58.5588 142.764C58.9958 143.157 59.374 143.611 59.6818 144.111C60.0246 144.679 60.1962 145.334 60.1759 145.998C60.1795 146.48 60.0597 146.956 59.8278 147.379C59.5983 147.788 59.2602 148.127 58.8508 148.356C58.3943 148.581 57.8879 148.685 57.3797 148.659Z" fill="#EFF1F7"/>
<path d="M62.3788 148.492V139.227H60.6943V137.599H66.3092V139.249H64.6248V148.492H62.3788Z" fill="#EFF1F7"/>
<path d="M66.3291 148.492L68.4403 137.577H70.9109L73.0108 148.492H70.9558L70.5627 146.089H68.8333L68.4178 148.492H66.3291ZM69.0355 144.731H70.3044L69.6419 140.328L69.0355 144.731Z" fill="#EFF1F7"/>
<path d="M76.7629 148.671C76.1453 148.703 75.533 148.542 75.011 148.21C74.5651 147.884 74.241 147.417 74.0902 146.885C73.8908 146.242 73.796 145.571 73.8095 144.898V141.248C73.793 140.563 73.8878 139.881 74.0902 139.227C74.2581 138.691 74.6075 138.23 75.0784 137.924C75.6582 137.582 76.327 137.422 76.9987 137.464C77.6403 137.427 78.2801 137.563 78.8516 137.857C79.2996 138.104 79.6457 138.502 79.8286 138.98C80.0427 139.519 80.1458 140.095 80.1318 140.675V141.315H77.9645V140.54C77.9833 140.286 77.9833 140.031 77.9645 139.777C77.9384 139.583 77.8519 139.402 77.7174 139.26C77.5389 139.121 77.3146 139.052 77.0885 139.069C76.9693 139.058 76.849 139.073 76.7363 139.114C76.6237 139.155 76.5215 139.22 76.4372 139.305C76.2964 139.471 76.2067 139.674 76.1789 139.889C76.1612 140.143 76.1612 140.399 76.1789 140.653V145.493C76.1745 145.768 76.2009 146.043 76.2575 146.313C76.3022 146.525 76.4075 146.72 76.5607 146.874C76.7405 147.021 76.9695 147.093 77.2008 147.076C77.3164 147.085 77.4326 147.071 77.5426 147.035C77.6525 146.998 77.754 146.94 77.8409 146.863C78.0031 146.703 78.1161 146.501 78.1666 146.279C78.2237 146.002 78.2501 145.719 78.2452 145.437V144.314H77.0436V142.876H80.1094V148.491H78.7056L78.5709 147.503C78.4329 147.831 78.2076 148.114 77.9195 148.323C77.5841 148.566 77.1766 148.688 76.7629 148.671Z" fill="#EFF1F7"/>
<path d="M81.6816 148.492V137.599H86.4318V139.137H83.9051V142.034H85.8591V143.584H83.9051V146.953H86.4655V148.492H81.6816Z" fill="#EFF1F7"/>
<path d="M90.6765 148.492V147.021L93.338 142.933L93.8995 142.057C94.0684 141.787 94.2113 141.501 94.3262 141.204C94.4391 140.906 94.4962 140.59 94.4947 140.272C94.5114 139.988 94.4409 139.706 94.2925 139.463C94.2247 139.374 94.136 139.303 94.0342 139.256C93.9323 139.209 93.8205 139.188 93.7086 139.194C93.5955 139.184 93.4818 139.2 93.3752 139.238C93.2686 139.277 93.1716 139.339 93.0909 139.418C92.9379 139.58 92.8363 139.783 92.799 140.002C92.7423 140.264 92.7159 140.532 92.7204 140.8V141.305H90.6765V140.766C90.6658 140.179 90.7688 139.596 90.9798 139.048C91.168 138.562 91.5063 138.149 91.9455 137.869C92.4622 137.557 93.0611 137.408 93.6637 137.442C94.0572 137.412 94.4528 137.463 94.8256 137.593C95.1985 137.722 95.5408 137.927 95.831 138.194C96.3424 138.775 96.6046 139.533 96.5609 140.306C96.566 140.722 96.4975 141.137 96.3588 141.53C96.2233 141.924 96.0424 142.3 95.8198 142.653C95.6064 143.001 95.3706 143.36 95.1123 143.719L93.0123 146.886H96.2577V148.492H90.6765Z" fill="#EFF1F7"/>
<path d="M53.8652 158.565H108.622" stroke="#EFF1F7" stroke-miterlimit="10"/>
<path d="M53.8652 166.18H108.622" stroke="#EFF1F7" stroke-miterlimit="10"/>
<path d="M53.8652 173.794H108.622" stroke="#EFF1F7" stroke-miterlimit="10"/>
<path d="M53.8652 181.418H108.622" stroke="#EFF1F7" stroke-miterlimit="10"/>
<path d="M230.352 190.48H164.994V138.082H107.453" stroke="#EFF1F7" stroke-miterlimit="10"/>
<path d="M57.3797 66.5133C56.7959 66.534 56.2164 66.4065 55.6952 66.1427C55.2427 65.8913 54.887 65.4961 54.6845 65.0197C54.4262 64.4159 54.2889 63.7673 54.2803 63.1107L56.2006 62.785C56.2031 63.1632 56.2483 63.5399 56.3353 63.908C56.3851 64.1611 56.5058 64.3948 56.6834 64.5818C56.8455 64.7305 57.0587 64.811 57.2786 64.8064C57.3913 64.8194 57.5054 64.8011 57.6084 64.7536C57.7114 64.7061 57.7994 64.6311 57.8626 64.5368C57.9681 64.3483 58.0223 64.1353 58.0198 63.9192C58.0265 63.519 57.9088 63.1266 57.6829 62.7962C57.4322 62.4527 57.142 62.1399 56.8182 61.8642L55.7065 60.8984C55.3177 60.5807 54.9839 60.2014 54.7182 59.7754C54.448 59.2886 54.316 58.7372 54.3364 58.1808C54.311 57.8001 54.368 57.4184 54.5037 57.0618C54.6394 56.7052 54.8505 56.382 55.1225 56.1145C55.6997 55.5723 56.4643 55.2745 57.2562 55.2835C57.7204 55.2653 58.1823 55.3577 58.6037 55.553C58.939 55.711 59.223 55.96 59.4235 56.2717C59.6152 56.5748 59.7521 56.9094 59.8278 57.2599C59.9039 57.6075 59.9527 57.9604 59.9738 58.3155L58.0647 58.6524C58.0647 58.3268 58.0647 58.0348 57.9861 57.7765C57.9568 57.56 57.8717 57.3549 57.739 57.1813C57.6681 57.1083 57.5822 57.0514 57.4872 57.0145C57.3923 56.9777 57.2905 56.9618 57.1888 56.968C57.076 56.9618 56.9637 56.9856 56.8631 57.0368C56.7625 57.0881 56.6773 57.1651 56.6161 57.2599C56.489 57.449 56.4224 57.6723 56.4252 57.9C56.4131 58.237 56.5031 58.5697 56.6834 58.8546C56.8957 59.1405 57.1406 59.4005 57.4134 59.6294L58.5363 60.5952C58.9762 60.9898 59.3547 61.4477 59.6593 61.954C60.0137 62.5027 60.201 63.1425 60.1984 63.7957C60.2019 64.2818 60.0822 64.7609 59.8502 65.1882C59.6168 65.5917 59.2794 65.9252 58.8732 66.1539C58.4152 66.4019 57.9004 66.5257 57.3797 66.5133Z" fill="#EFF1F7"/>
<path d="M62.3788 66.3567V57.1034H60.6943V55.4414H66.3092V57.1034H64.6248V66.3567H62.3788Z" fill="#EFF1F7"/>
<path d="M66.3291 66.3567L68.4403 55.4414H70.9109L73.0108 66.3567H70.9558L70.5627 63.9536H68.8333L68.4178 66.3567H66.3291ZM69.0355 62.5948H70.3044L69.6419 58.1927L69.0355 62.5948Z" fill="#EFF1F7"/>
<path d="M76.7636 66.5137C76.1454 66.5514 75.5315 66.39 75.0117 66.0532C74.5657 65.7264 74.2417 65.2601 74.0909 64.7281C73.8899 64.0852 73.7951 63.4139 73.8101 62.7404V59.0908C73.7952 58.4063 73.89 57.7239 74.0909 57.0694C74.2588 56.5335 74.6082 56.0728 75.0791 55.7668C75.6727 55.4166 76.3561 55.2487 77.0443 55.2839C77.6855 55.2532 78.3237 55.3886 78.8972 55.6769C79.3452 55.9242 79.6913 56.322 79.8742 56.7999C80.0871 57.3393 80.1902 57.9158 80.1774 58.4956V59.1357H77.9652V58.3608C77.9844 58.1104 77.9844 57.8589 77.9652 57.6084C77.9391 57.4113 77.8528 57.2269 77.7181 57.0806C77.538 56.9449 77.3139 56.8808 77.0892 56.901C76.9708 56.8881 76.851 56.9016 76.7384 56.9404C76.6259 56.9792 76.5232 57.0425 76.4379 57.1256C76.3012 57.2936 76.212 57.4953 76.1796 57.7095C76.1619 57.9637 76.1619 58.2189 76.1796 58.4731V63.3132C76.1752 63.5885 76.2016 63.8635 76.2582 64.1329C76.2982 64.3471 76.4043 64.5435 76.5614 64.6944C76.7412 64.8409 76.9702 64.9133 77.2015 64.8966C77.3171 64.9057 77.4333 64.8915 77.5432 64.8549C77.6532 64.8182 77.7547 64.7599 77.8416 64.6832C78.0037 64.5237 78.1168 64.321 78.1673 64.0992C78.1982 63.8194 78.1982 63.5369 78.1673 63.257V62.134H77.0443V60.7865H80.11V66.4014H78.7063L78.5716 65.3907C78.4305 65.7197 78.206 66.0061 77.9202 66.2217C77.5758 66.4401 77.1704 66.5424 76.7636 66.5137Z" fill="#EFF1F7"/>
<path d="M81.6816 66.3567V55.4414H86.4318V56.9799H83.9051V59.8772H85.8591V61.4269H83.9051V64.7958H86.4655V66.3006L81.6816 66.3567Z" fill="#EFF1F7"/>
<path d="M92.0233 66.3567V57.5975L91.6977 57.7435L91.2485 57.9007L90.7881 58.0579L90.4512 58.1927V56.6542L90.8891 56.4409L91.4731 56.1377C91.6768 56.0375 91.8721 55.9211 92.057 55.7895C92.214 55.6928 92.3575 55.5758 92.4838 55.4414H94.1008V66.3567H92.0233Z" fill="#EFF1F7"/>
<path d="M53.8652 76.4072H108.622" stroke="#EFF1F7" stroke-miterlimit="10"/>
<path d="M53.8652 84.0195H108.622" stroke="#EFF1F7" stroke-miterlimit="10"/>
<path d="M53.8652 91.6455H108.622" stroke="#EFF1F7" stroke-miterlimit="10"/>
<path d="M53.8652 99.2588H108.622" stroke="#EFF1F7" stroke-miterlimit="10"/>
<path d="M230.352 115.993H164.994V61.1807H107.453" stroke="#EFF1F7" stroke-miterlimit="10"/>
</svg>
