<svg width="227" height="417" viewBox="0 0 227 417" fill="none" xmlns="http://www.w3.org/2000/svg">
<path d="M213.478 129.09L155.598 153.393L156.404 155.311L214.284 131.008L213.478 129.09Z" fill="#182F43"/>
<path d="M12.2304 43.9277C55.2266 46.0461 95.7381 64.696 125.291 95.9766C154.845 127.257 171.151 168.746 170.8 211.764C170.448 254.783 153.466 296 123.405 326.794C93.3447 357.588 52.5339 375.574 9.50879 376.99" stroke="#182F43" stroke-width="1.92" stroke-linecap="round" stroke-linejoin="round" stroke-dasharray="5.03 5.03"/>
<path d="M5.59501 49.3125C8.68505 49.3125 11.19 46.8092 11.19 43.7212C11.19 40.6332 8.68505 38.1299 5.59501 38.1299C2.50497 38.1299 0 40.6332 0 43.7212C0 46.8092 2.50497 49.3125 5.59501 49.3125Z" fill="#182F43"/>
<path d="M0 375.722C0 374.616 0.328142 373.535 0.94293 372.616C1.55772 371.696 2.43154 370.98 3.45389 370.556C4.47625 370.133 5.60122 370.023 6.68654 370.238C7.77187 370.454 8.76881 370.987 9.55128 371.769C10.3338 372.55 10.8666 373.547 11.0825 374.631C11.2984 375.716 11.1876 376.84 10.7641 377.862C10.3407 378.884 9.62353 379.757 8.70343 380.371C7.78334 380.986 6.7016 381.314 5.59501 381.314C4.11112 381.314 2.68801 380.724 1.63874 379.676C0.589473 378.627 0 377.205 0 375.722H0Z" fill="#182F43"/>
<path d="M102.402 209.575C102.406 212.8 102.239 216.023 101.903 219.23C99.5179 242.33 88.6476 263.725 71.3937 279.28C54.1398 294.836 31.7278 303.446 8.49023 303.447V283.942C26.3443 283.946 43.5651 277.331 56.8193 265.377C70.0735 253.423 78.4184 236.979 80.2387 219.23C80.4875 216.796 80.6105 214.351 80.6073 211.905C80.6087 202.441 78.7447 193.07 75.1217 184.326C71.4986 175.582 66.1876 167.637 59.4917 160.945C52.7959 154.252 44.8465 148.944 36.0975 145.322C27.3484 141.7 17.9711 139.836 8.50108 139.836V115.715C33.4071 115.721 57.2911 125.612 74.9003 143.214C92.5095 160.815 102.402 184.686 102.402 209.575Z" fill="#182F43" fill-opacity="0.8"/>
<path d="M168.82 57.2047L124.972 92.8926L126.287 94.506L170.135 58.8182L168.82 57.2047Z" fill="#182F43"/>
<path d="M62.5837 1.44403L60.8043 0.364274L46.5496 23.8213L32.2949 47.2783L34.0743 48.3581L62.5837 1.44403Z" fill="#182F43"/>
<path d="M127.282 102.397C125.444 102.395 123.649 101.848 122.122 100.827C120.595 99.8049 119.406 98.3539 118.704 96.6568C118.003 94.9598 117.82 93.0929 118.18 91.2923C118.54 89.4916 119.426 87.8379 120.726 86.5403C122.026 85.2427 123.681 84.3593 125.484 84.0019C127.286 83.6444 129.154 83.829 130.851 84.5321C132.548 85.2353 133.999 86.4256 135.02 87.9525C136.04 89.4794 136.585 91.2744 136.585 93.1106C136.582 95.5745 135.601 97.9365 133.856 99.6777C132.112 101.419 129.747 102.397 127.282 102.397Z" fill="#182F43"/>
<path d="M37.2817 51.7622C35.4442 51.76 33.6487 51.2136 32.122 50.1919C30.5953 49.1702 29.4059 47.7191 28.7042 46.022C28.0026 44.325 27.8201 42.4582 28.1799 40.6575C28.5397 38.8568 29.4255 37.2032 30.7255 35.9055C32.0256 34.6079 33.6813 33.7245 35.4836 33.3671C37.2859 33.0097 39.1537 33.1942 40.8511 33.8974C42.5484 34.6006 43.9991 35.7908 45.0197 37.3177C46.0403 38.8446 46.585 40.6396 46.585 42.4758C46.5821 44.9397 45.6007 47.3017 43.8563 49.0429C42.1119 50.7841 39.7472 51.7622 37.2817 51.7622Z" fill="#182F43"/>
<path d="M31.9033 42.4756C31.9033 41.404 32.2213 40.3565 32.817 39.4655C33.4127 38.5745 34.2595 37.8801 35.2501 37.47C36.2408 37.06 37.3309 36.9527 38.3825 37.1617C39.4342 37.3708 40.4002 37.8868 41.1584 38.6445C41.9167 39.4022 42.433 40.3676 42.6422 41.4186C42.8514 42.4696 42.744 43.5589 42.3337 44.5489C41.9233 45.5389 41.2284 46.3851 40.3369 46.9804C39.4453 47.5758 38.3971 47.8935 37.3248 47.8935C35.887 47.8935 34.508 47.3227 33.4912 46.3066C32.4745 45.2906 31.9033 43.9125 31.9033 42.4756Z" fill="#F6F8FF"/>
<path d="M161.914 162.241C166.464 159.867 168.226 154.257 165.851 149.711C163.475 145.165 157.862 143.403 153.312 145.777C148.763 148.151 147.001 153.761 149.376 158.307C151.751 162.853 157.365 164.615 161.914 162.241Z" fill="#182F43"/>
<path d="M226.273 204.979H167.243V207.06H226.273V204.979Z" fill="#182F43"/>
<path d="M170.008 215.469C168.17 215.469 166.374 214.925 164.846 213.904C163.318 212.884 162.126 211.433 161.423 209.737C160.72 208.04 160.536 206.173 160.894 204.371C161.253 202.57 162.138 200.915 163.438 199.616C164.737 198.318 166.393 197.433 168.195 197.075C169.998 196.717 171.866 196.901 173.564 197.603C175.262 198.306 176.714 199.496 177.735 201.024C178.756 202.551 179.301 204.346 179.301 206.183C179.298 208.645 178.318 211.005 176.576 212.746C174.834 214.487 172.472 215.466 170.008 215.469Z" fill="#182F43"/>
<path d="M160.395 263L160 265.043L223.393 277.282L223.789 275.239L160.395 263Z" fill="#182F43"/>
<path d="M166.719 271.764C171.292 269.435 173.109 263.843 170.778 259.273C168.447 254.704 162.851 252.888 158.279 255.217C153.707 257.546 151.889 263.139 154.22 267.708C156.551 272.277 162.147 274.093 166.719 271.764Z" fill="#182F43"/>
<path d="M124.183 321L123 322.713L147.11 339.347L171.219 355.981L172.403 354.269L124.183 321Z" fill="#182F43"/>
<path d="M49.3182 373.607L47.4346 374.492L67.3938 416.889L69.2775 416.004L49.3182 373.607Z" fill="#182F43"/>
<path d="M131.576 332.764C136.175 330.488 138.056 324.917 135.779 320.321C133.501 315.725 127.926 313.845 123.327 316.121C118.728 318.398 116.847 323.969 119.125 328.565C121.402 333.161 126.977 335.041 131.576 332.764Z" fill="#182F43"/>
<path d="M41.6667 367.574C40.9061 368.712 40.5 370.049 40.5 371.418C40.5 373.253 41.2295 375.013 42.5276 376.31C43.8257 377.607 45.5861 378.336 47.4215 378.336C48.7902 378.336 50.1283 377.93 51.2665 377.17C52.4047 376.41 53.292 375.33 53.816 374.066C54.34 372.801 54.4772 371.41 54.21 370.068C53.9429 368.726 53.2835 367.493 52.3154 366.526C51.3474 365.558 50.1141 364.9 48.7717 364.633C47.4292 364.366 46.0377 364.503 44.7731 365.026C43.5085 365.55 42.4274 366.436 41.6667 367.574Z" fill="#F6F8FF" stroke="#182F43" stroke-width="3"/>
<path d="M102.402 209.575C102.405 212.8 102.239 216.023 101.903 219.23H80.2386C80.4874 216.796 80.6105 214.351 80.6072 211.905C80.6087 202.441 78.7446 193.07 75.1216 184.326C71.4986 175.582 66.1875 167.637 59.4916 160.945C52.7958 154.252 44.8464 148.944 36.0974 145.322C27.3483 141.7 17.971 139.836 8.50098 139.836V115.715C33.407 115.721 57.291 125.612 74.9002 143.214C92.5094 160.815 102.402 184.686 102.402 209.575Z" fill="#182F43"/>
</svg>
