<svg width="227" height="417" viewBox="0 0 227 417" fill="none" xmlns="http://www.w3.org/2000/svg">
<path d="M4.06641 43.7207H6.77717" stroke="#232323" stroke-width="1.92" stroke-linecap="round" stroke-linejoin="round"/>
<path d="M12.2304 43.9277C55.2266 46.0461 95.7381 64.696 125.291 95.9766C154.845 127.257 171.151 168.746 170.8 211.764C170.448 254.783 153.466 296 123.405 326.794C93.3447 357.588 52.5339 375.574 9.50879 376.99" stroke="#182F43" stroke-width="1.92" stroke-linecap="round" stroke-linejoin="round" stroke-dasharray="5.03 5.03"/>
<path d="M6.77717 377.055C5.87719 377.055 4.97722 377.055 4.06641 377.055" stroke="#232323" stroke-width="1.92" stroke-linecap="round" stroke-linejoin="round"/>
<path d="M5.59501 49.3125C8.68505 49.3125 11.19 46.8092 11.19 43.7212C11.19 40.6332 8.68505 38.1299 5.59501 38.1299C2.50497 38.1299 0 40.6332 0 43.7212C0 46.8092 2.50497 49.3125 5.59501 49.3125Z" fill="#182F43"/>
<path d="M0 375.722C0 374.616 0.328142 373.535 0.94293 372.616C1.55772 371.696 2.43154 370.98 3.45389 370.556C4.47625 370.133 5.60122 370.023 6.68654 370.238C7.77187 370.454 8.76881 370.987 9.55128 371.769C10.3338 372.55 10.8666 373.547 11.0825 374.631C11.2984 375.716 11.1876 376.84 10.7641 377.862C10.3407 378.884 9.62353 379.757 8.70343 380.371C7.78334 380.986 6.7016 381.314 5.59501 381.314C4.11112 381.314 2.68801 380.724 1.63874 379.676C0.589473 378.627 0 377.205 0 375.722H0Z" fill="#182F43"/>
<path d="M102.402 209.575C102.406 212.8 102.239 216.023 101.903 219.23C99.5179 242.33 88.6476 263.725 71.3937 279.28C54.1398 294.836 31.7278 303.446 8.49023 303.447V283.942C26.3443 283.946 43.5651 277.331 56.8193 265.377C70.0735 253.423 78.4184 236.979 80.2387 219.23C80.4875 216.796 80.6105 214.351 80.6073 211.905C80.6087 202.441 78.7447 193.07 75.1217 184.326C71.4986 175.582 66.1876 167.637 59.4917 160.945C52.7959 154.252 44.8465 148.944 36.0975 145.322C27.3484 141.7 17.9711 139.836 8.50108 139.836V115.715C33.4071 115.721 57.2911 125.612 74.9003 143.214C92.5095 160.815 102.402 184.686 102.402 209.575V209.575Z" fill="#182F43" fill-opacity="0.8"/>
<path d="M168.82 57.2047L124.972 92.8926L126.287 94.506L170.135 58.8182L168.82 57.2047Z" fill="#182F43"/>
<path d="M62.5837 1.44403L60.8043 0.364274L46.5496 23.8213L32.2949 47.2783L34.0743 48.3581L62.5837 1.44403Z" fill="#182F43"/>
<path d="M127.282 102.397C125.444 102.395 123.649 101.848 122.122 100.827C120.595 99.8049 119.406 98.3539 118.704 96.6568C118.003 94.9598 117.82 93.0929 118.18 91.2923C118.54 89.4916 119.426 87.8379 120.726 86.5403C122.026 85.2427 123.681 84.3593 125.484 84.0019C127.286 83.6444 129.154 83.829 130.851 84.5321C132.548 85.2353 133.999 86.4256 135.02 87.9525C136.04 89.4794 136.585 91.2744 136.585 93.1106C136.582 95.5745 135.601 97.9365 133.856 99.6777C132.112 101.419 129.747 102.397 127.282 102.397V102.397Z" fill="#182F43"/>
<path d="M37.2817 51.7622C35.4442 51.76 33.6487 51.2136 32.122 50.1919C30.5953 49.1702 29.4059 47.7191 28.7042 46.022C28.0026 44.325 27.8201 42.4582 28.1799 40.6575C28.5397 38.8568 29.4255 37.2032 30.7255 35.9055C32.0256 34.6079 33.6813 33.7245 35.4836 33.3671C37.2859 33.0097 39.1537 33.1942 40.8511 33.8974C42.5484 34.6006 43.9991 35.7908 45.0197 37.3177C46.0403 38.8446 46.585 40.6396 46.585 42.4758C46.5821 44.9397 45.6007 47.3017 43.8563 49.0429C42.1119 50.7841 39.7472 51.7622 37.2817 51.7622V51.7622Z" fill="#182F43"/>
<path d="M121.903 93.1103C121.903 92.0388 122.221 90.9913 122.817 90.1003C123.413 89.2093 124.259 88.5149 125.25 88.1048C126.241 87.6947 127.331 87.5874 128.383 87.7965C129.434 88.0055 130.4 88.5216 131.158 89.2793C131.917 90.037 132.433 91.0024 132.642 92.0533C132.851 93.1043 132.744 94.1937 132.334 95.1837C131.923 96.1737 131.228 97.0199 130.337 97.6152C129.445 98.2105 128.397 98.5283 127.325 98.5283C125.887 98.5283 124.508 97.9575 123.491 96.9414C122.475 95.9253 121.903 94.5473 121.903 93.1103Z" fill="#F6F8FF"/>
<path d="M31.9033 42.4756C31.9033 41.404 32.2213 40.3565 32.817 39.4655C33.4127 38.5745 34.2595 37.8801 35.2501 37.47C36.2408 37.06 37.3309 36.9527 38.3825 37.1617C39.4342 37.3708 40.4002 37.8868 41.1584 38.6445C41.9167 39.4022 42.433 40.3676 42.6422 41.4186C42.8514 42.4696 42.744 43.5589 42.3337 44.5489C41.9233 45.5389 41.2284 46.3851 40.3369 46.9804C39.4453 47.5758 38.3971 47.8935 37.3248 47.8935C35.887 47.8935 34.508 47.3227 33.4912 46.3066C32.4745 45.2906 31.9033 43.9125 31.9033 42.4756Z" fill="#F6F8FF"/>
<path d="M213.478 129.09L155.598 153.393L156.404 155.311L214.284 131.008L213.478 129.09Z" fill="#182F43"/>
<path d="M161.914 162.24C166.464 159.866 168.226 154.256 165.851 149.71C163.475 145.164 157.862 143.402 153.312 145.776C148.763 148.15 147.001 153.76 149.376 158.306C151.751 162.852 157.365 164.614 161.914 162.24Z" fill="#182F43"/>
<path d="M152.236 153.99C152.236 152.919 152.554 151.871 153.15 150.98C153.746 150.089 154.592 149.395 155.583 148.985C156.574 148.575 157.664 148.467 158.716 148.676C159.767 148.885 160.733 149.401 161.491 150.159C162.25 150.917 162.766 151.882 162.975 152.933C163.184 153.984 163.077 155.074 162.667 156.064C162.256 157.054 161.561 157.9 160.67 158.495C159.778 159.09 158.73 159.408 157.658 159.408C156.22 159.408 154.841 158.837 153.824 157.821C152.808 156.805 152.236 155.427 152.236 153.99V153.99Z" fill="#F6F8FF"/>
<path d="M226.273 204.979H167.243V207.059H226.273V204.979Z" fill="#182F43"/>
<path d="M170.008 215.469C168.17 215.469 166.374 214.925 164.846 213.904C163.318 212.884 162.126 211.433 161.423 209.737C160.72 208.04 160.536 206.173 160.894 204.371C161.253 202.57 162.138 200.915 163.438 199.616C164.737 198.318 166.393 197.433 168.195 197.075C169.998 196.717 171.866 196.901 173.564 197.603C175.262 198.306 176.714 199.496 177.735 201.024C178.756 202.551 179.301 204.346 179.301 206.183C179.298 208.645 178.318 211.005 176.576 212.746C174.834 214.487 172.472 215.466 170.008 215.469V215.469Z" fill="#182F43"/>
<path d="M164.63 206.182C164.63 205.11 164.948 204.063 165.544 203.172C166.139 202.281 166.986 201.586 167.977 201.176C168.967 200.766 170.057 200.659 171.109 200.868C172.161 201.077 173.127 201.593 173.885 202.351C174.643 203.108 175.16 204.074 175.369 205.125C175.578 206.176 175.471 207.265 175.06 208.255C174.65 209.245 173.955 210.091 173.063 210.686C172.172 211.282 171.124 211.6 170.051 211.6C169.339 211.6 168.634 211.459 167.977 211.187C167.319 210.915 166.721 210.516 166.218 210.013C165.714 209.51 165.315 208.912 165.043 208.255C164.77 207.598 164.63 206.893 164.63 206.182Z" fill="#F6F8FF"/>
<path d="M160.395 263L160 265.043L223.393 277.282L223.789 275.239L160.395 263Z" fill="#182F43"/>
<path d="M166.719 271.764C171.292 269.435 173.109 263.843 170.778 259.273C168.447 254.704 162.851 252.888 158.279 255.217C153.707 257.546 151.889 263.139 154.22 267.708C156.551 272.277 162.147 274.093 166.719 271.764Z" fill="#182F43"/>
<path d="M157 263.5C157 262.412 157.323 261.349 157.927 260.444C158.531 259.54 159.39 258.835 160.395 258.419C161.4 258.002 162.506 257.893 163.573 258.106C164.64 258.318 165.62 258.842 166.389 259.611C167.158 260.38 167.682 261.36 167.894 262.427C168.107 263.494 167.998 264.6 167.581 265.605C167.165 266.61 166.46 267.469 165.556 268.073C164.651 268.677 163.588 269 162.5 269C161.041 269 159.642 268.421 158.611 267.389C157.579 266.358 157 264.959 157 263.5Z" fill="#F6F8FF"/>
<path d="M124.183 321L123 322.713L147.11 339.347L171.219 355.981L172.403 354.269L124.183 321Z" fill="#182F43"/>
<path d="M49.3182 373.606L47.4346 374.491L67.3938 416.888L69.2775 416.003L49.3182 373.606Z" fill="#182F43"/>
<path d="M131.576 332.764C136.175 330.488 138.056 324.917 135.779 320.321C133.501 315.725 127.926 313.845 123.327 316.121C118.728 318.398 116.847 323.969 119.125 328.565C121.402 333.161 126.977 335.041 131.576 332.764Z" fill="#182F43"/>
<path d="M51.576 378.764C56.1749 376.488 58.0564 370.917 55.7785 366.321C53.5006 361.725 47.9259 359.845 43.327 362.121C38.7281 364.398 36.8466 369.969 39.1245 374.565C41.4024 379.161 46.9771 381.041 51.576 378.764Z" fill="#182F43"/>
<path d="M122 324.5C122 323.412 122.323 322.349 122.927 321.444C123.531 320.54 124.39 319.835 125.395 319.419C126.4 319.002 127.506 318.893 128.573 319.106C129.64 319.318 130.62 319.842 131.389 320.611C132.158 321.38 132.682 322.36 132.894 323.427C133.107 324.494 132.998 325.6 132.581 326.605C132.165 327.61 131.46 328.469 130.556 329.073C129.651 329.677 128.588 330 127.5 330C126.041 330 124.642 329.421 123.611 328.389C122.579 327.358 122 325.959 122 324.5Z" fill="#F6F8FF"/>
<path d="M42 370.5C42 369.412 42.3226 368.349 42.9269 367.444C43.5313 366.54 44.3903 365.835 45.3952 365.419C46.4002 365.002 47.5061 364.893 48.573 365.106C49.6399 365.318 50.6199 365.842 51.3891 366.611C52.1583 367.38 52.6821 368.36 52.8943 369.427C53.1065 370.494 52.9976 371.6 52.5813 372.605C52.1651 373.61 51.4601 374.469 50.5556 375.073C49.6512 375.677 48.5878 376 47.5 376C46.0413 376 44.6424 375.421 43.6109 374.389C42.5795 373.358 42 371.959 42 370.5Z" fill="#F6F8FF"/>
<path d="M102.402 209.575C102.405 212.8 102.239 216.023 101.903 219.23H80.2386C80.4874 216.796 80.6104 214.351 80.6072 211.905C80.6087 202.441 78.7446 193.07 75.1216 184.326C71.4985 175.582 66.1875 167.637 59.4916 160.945C52.7958 154.252 44.8464 148.944 36.0974 145.322C27.3483 141.7 17.971 139.836 8.50098 139.836V115.715C33.407 115.721 57.291 125.612 74.9002 143.214C92.5094 160.815 102.402 184.686 102.402 209.575V209.575Z" fill="#182F43"/>
</svg>
