<svg width="948" height="734" viewBox="0 0 948 734" fill="none" xmlns="http://www.w3.org/2000/svg">
<path d="M407.396 661.201C407.396 661.201 415.567 696.119 411.985 701.866C407.368 709.369 358.138 713.89 358.138 713.89H466.69C466.69 713.89 480.308 710.077 476.223 699.142C473.05 690.671 457.865 661.201 457.865 661.201H407.396Z" fill="white" stroke="#182F43" stroke-linecap="round" stroke-linejoin="round"/>
<path d="M405.026 661.201C405.026 661.201 413.687 696.418 409.615 701.866C405.544 707.313 358.138 711.466 358.138 711.466H467.194C467.194 711.466 476.373 707.762 473.826 699.142C471.279 690.521 455.482 661.201 455.482 661.201H405.026Z" fill="white" stroke="#182F43" stroke-linecap="round" stroke-linejoin="round"/>
<g style="mix-blend-mode:multiply">
<path d="M455.482 661.201H405.094C405.094 661.201 410.215 682.064 410.719 694.158H472.001C466.976 682.527 455.482 661.201 455.482 661.201Z" fill="#E5E3E3"/>
</g>
<path d="M466.69 711.644H358.138V713.891H466.69V711.644Z" fill="white" stroke="#182F43" stroke-linecap="round" stroke-linejoin="round"/>
<path d="M586.163 418.986H281.726C275.348 418.986 270.177 424.157 270.177 430.535V653.099C270.177 659.477 275.348 664.648 281.726 664.648H586.163C592.541 664.648 597.712 659.477 597.712 653.099V430.535C597.712 424.157 592.541 418.986 586.163 418.986Z" fill="#FFC100" stroke="#182F43" stroke-linecap="round" stroke-linejoin="round"/>
<path d="M578.442 418.986H274.004C267.626 418.986 262.456 424.157 262.456 430.535V653.099C262.456 659.477 267.626 664.648 274.004 664.648H578.442C584.82 664.648 589.99 659.477 589.99 653.099V430.535C589.99 424.157 584.82 418.986 578.442 418.986Z" fill="#182F43" stroke="#182F43" stroke-linecap="round" stroke-linejoin="round"/>
<path d="M262.456 626.448H589.99V653.072C589.99 656.135 588.773 659.072 586.608 661.238C584.442 663.404 581.505 664.62 578.442 664.62H274.004C270.941 664.62 268.004 663.404 265.838 661.238C263.672 659.072 262.456 656.135 262.456 653.072V626.448Z" fill="white" stroke="#182F43" stroke-linecap="round" stroke-linejoin="round"/>
<path d="M573.525 434.267H278.934V607.819H573.525V434.267Z" fill="#FFC100" stroke="#182F43" stroke-linecap="round" stroke-linejoin="round"/>
<path d="M432.263 645.541C432.263 644.344 431.908 643.175 431.243 642.18C430.578 641.185 429.633 640.41 428.527 639.953C427.422 639.496 426.205 639.377 425.032 639.611C423.859 639.846 422.781 640.423 421.936 641.27C421.091 642.117 420.516 643.196 420.284 644.369C420.053 645.543 420.174 646.759 420.634 647.864C421.094 648.969 421.871 649.912 422.867 650.575C423.863 651.238 425.034 651.59 426.23 651.587C427.023 651.587 427.809 651.431 428.542 651.127C429.275 650.823 429.94 650.377 430.501 649.815C431.061 649.254 431.505 648.587 431.808 647.854C432.11 647.12 432.265 646.334 432.263 645.541V645.541Z" fill="#182F43" stroke="#182F43" stroke-linecap="round" stroke-linejoin="round"/>
<path d="M571 439H281V462H571V439Z" fill="white" stroke="#182F43" stroke-linecap="round" stroke-linejoin="round"/>
<path d="M328.84 461.771L325.375 452H281V461.771V474.728V606H571V461.771H328.84Z" fill="white" stroke="#182F43" stroke-linecap="round" stroke-linejoin="round"/>
<path d="M597.451 712.768C597.451 712.768 595.586 717.276 585.304 718.842C575.022 720.408 505.677 712.292 505.677 712.292C505.677 712.292 501.319 711.202 501.006 709.023C500.693 706.844 512.228 700.457 533.568 697.802C552.138 695.67 570.95 697.803 588.572 704.039C601.809 708.873 597.451 712.768 597.451 712.768Z" fill="white" stroke="#182F43" stroke-linecap="round" stroke-linejoin="round"/>
<g style="mix-blend-mode:multiply">
<path d="M518.056 705C522.686 705 533.159 705.49 541.684 706.226C550.209 706.961 564.331 712.313 572.121 714.982C579.911 717.651 592.331 716.943 592.331 716.943C590.207 717.807 587.983 718.402 585.712 718.714C575.43 720.266 506.086 712.163 506.086 712.163C504.565 711.784 503.162 711.035 502 709.984C506.399 706.798 514.27 705 518.056 705Z" fill="#AA4337"/>
</g>
<path d="M594.985 708.602C595.592 708.92 596.17 709.289 596.715 709.705" stroke="#182F43" stroke-linecap="round" stroke-linejoin="round"/>
<path d="M591.821 717.477C584.595 717.692 577.398 716.474 570.644 713.895C556.32 708.256 541.096 705.244 525.704 705.003C516.757 704.935 511.282 706.16 508 707.4" stroke="#182F43" stroke-linecap="round" stroke-linejoin="round"/>
<path d="M552.679 502.941L542.04 490.421L540.833 491.446L544.711 496.008L504.877 524.371L496.3 514.749C496.085 514.507 495.815 514.311 495.509 514.174C495.204 514.037 494.869 513.962 494.53 513.955C494.191 513.949 493.854 514.01 493.544 514.134C493.234 514.259 492.958 514.445 492.735 514.678L472.103 536.205L475.625 539.049L494.439 519.409L502.714 528.693C503.102 529.128 503.658 529.408 504.265 529.473C504.872 529.538 505.481 529.383 505.962 529.04L547.594 499.402L551.472 503.966L552.679 502.941Z" fill="white" stroke="#182F43" stroke-linecap="round" stroke-linejoin="round"/>
<path d="M558.966 488.222L541.946 490.356L545.809 494.948L506.11 523.508L497.57 513.825C497.355 513.582 497.086 513.385 496.782 513.247C496.477 513.109 496.144 513.034 495.805 513.027C495.467 513.021 495.132 513.082 494.823 513.208C494.514 513.334 494.238 513.52 494.015 513.755L473.454 535.43L476.961 538.289L495.714 518.516L503.955 527.857C504.34 528.295 504.895 528.576 505.499 528.641C506.104 528.706 506.711 528.549 507.19 528.205L548.679 498.362L552.54 502.953L558.966 488.222Z" fill="#AA4337" stroke="#182F43" stroke-linecap="round" stroke-linejoin="round"/>
<path d="M561.445 542H471.183V596.936H561.023" stroke="#182F43" stroke-width="0.5" stroke-linecap="round" stroke-linejoin="round"/>
<path d="M471.591 557.662H561.853" stroke="#182F43" stroke-width="0.5" stroke-linecap="round" stroke-linejoin="round"/>
<path d="M471.591 573.281H561.853" stroke="#182F43" stroke-width="0.5" stroke-linecap="round" stroke-linejoin="round"/>
<path d="M471.591 588.902H561.853" stroke="#182F43" stroke-width="0.5" stroke-linecap="round" stroke-linejoin="round"/>
<path d="M468.704 542.368H465" stroke="#182F43" stroke-width="0.5" stroke-linecap="round" stroke-linejoin="round"/>
<path d="M468.704 550.103H465" stroke="#182F43" stroke-width="0.5" stroke-linecap="round" stroke-linejoin="round"/>
<path d="M461.542 549.941H457.837" stroke="#182F43" stroke-width="0.5" stroke-linecap="round" stroke-linejoin="round"/>
<path d="M468.704 565.601H465" stroke="#182F43" stroke-width="0.5" stroke-linecap="round" stroke-linejoin="round"/>
<path d="M468.704 573.336H465" stroke="#182F43" stroke-width="0.5" stroke-linecap="round" stroke-linejoin="round"/>
<path d="M468.704 581.085H465" stroke="#182F43" stroke-width="0.5" stroke-linecap="round" stroke-linejoin="round"/>
<path d="M468.704 588.834H465" stroke="#182F43" stroke-width="0.5" stroke-linecap="round" stroke-linejoin="round"/>
<path d="M468.704 596.567H465" stroke="#182F43" stroke-width="0.5" stroke-linecap="round" stroke-linejoin="round"/>
<path d="M478.618 563.993H474.464V596.718H478.618V563.993Z" fill="#182F43" stroke="#182F43" stroke-linecap="round" stroke-linejoin="round"/>
<path d="M485.986 548.333H481.832V596.719H485.986V548.333Z" fill="#FFC100" stroke="#182F43" stroke-linecap="round" stroke-linejoin="round"/>
<path d="M493.366 563.993H489.213V596.718H493.366V563.993Z" fill="white" stroke="#182F43" stroke-linecap="round" stroke-linejoin="round"/>
<path d="M509.954 553.398H505.801V596.718H509.954V553.398Z" fill="#182F43" stroke="#182F43" stroke-linecap="round" stroke-linejoin="round"/>
<path d="M517.322 559.854H513.168V596.719H517.322V559.854Z" fill="#FFC100" stroke="#182F43" stroke-linecap="round" stroke-linejoin="round"/>
<path d="M524.702 578.279H520.549V596.719H524.702V578.279Z" fill="white" stroke="#182F43" stroke-linecap="round" stroke-linejoin="round"/>
<path d="M541.289 563.993H537.136V596.718H541.289V563.993Z" fill="#182F43" stroke="#182F43" stroke-linecap="round" stroke-linejoin="round"/>
<path d="M548.657 548.333H544.504V596.719H548.657V548.333Z" fill="#FFC100" stroke="#182F43" stroke-linecap="round" stroke-linejoin="round"/>
<path d="M556.038 563.993H551.885V596.718H556.038V563.993Z" fill="white" stroke="#182F43" stroke-linecap="round" stroke-linejoin="round"/>
<path opacity="0.4" d="M437.818 482.38L483.876 516.848V468.721L437.818 289V482.38Z" fill="#FFC100" stroke="white" stroke-linecap="round" stroke-linejoin="round"/>
<path opacity="0.4" d="M483.875 516.849H334.074L91 482.381H437.818L483.875 516.849Z" fill="#FFC100" stroke="white" stroke-linecap="round" stroke-linejoin="round"/>
<path d="M437.818 289H91V463.315H437.818V289Z" fill="#182F43" stroke="#182F43" stroke-linecap="round" stroke-linejoin="round"/>
<path d="M104.373 298.043H170.653" stroke="white" stroke-width="2" stroke-linecap="round" stroke-linejoin="round"/>
<path d="M428.994 297.224C428.994 296.324 428.726 295.444 428.226 294.696C427.726 293.948 427.014 293.365 426.182 293.021C425.351 292.677 424.435 292.588 423.553 292.764C422.67 292.941 421.859 293.375 421.224 294.013C420.588 294.65 420.156 295.462 419.982 296.345C419.808 297.229 419.9 298.143 420.247 298.974C420.593 299.805 421.178 300.515 421.928 301.013C422.678 301.511 423.558 301.776 424.459 301.773C425.055 301.773 425.646 301.655 426.197 301.426C426.748 301.198 427.249 300.862 427.67 300.44C428.091 300.017 428.425 299.516 428.652 298.964C428.879 298.412 428.995 297.821 428.994 297.224V297.224Z" fill="white"/>
<path d="M411.07 297.225C411.067 296.329 410.799 295.454 410.299 294.71C409.799 293.966 409.09 293.387 408.261 293.045C407.432 292.704 406.521 292.616 405.642 292.793C404.763 292.969 403.956 293.402 403.323 294.037C402.691 294.672 402.26 295.48 402.086 296.359C401.912 297.239 402.003 298.15 402.346 298.978C402.69 299.805 403.271 300.513 404.017 301.011C404.762 301.508 405.639 301.774 406.535 301.774C407.132 301.774 407.722 301.656 408.273 301.427C408.825 301.199 409.325 300.863 409.746 300.441C410.168 300.018 410.501 299.517 410.728 298.965C410.956 298.413 411.072 297.822 411.07 297.225V297.225Z" fill="white"/>
<path d="M393.07 297.225C393.067 296.329 392.799 295.454 392.299 294.71C391.799 293.966 391.09 293.387 390.261 293.045C389.432 292.704 388.521 292.616 387.642 292.793C386.763 292.969 385.956 293.402 385.323 294.037C384.691 294.672 384.26 295.48 384.086 296.359C383.912 297.239 384.003 298.15 384.346 298.978C384.69 299.805 385.271 300.513 386.017 301.011C386.762 301.508 387.639 301.774 388.535 301.774C389.132 301.774 389.722 301.656 390.273 301.427C390.825 301.199 391.325 300.863 391.746 300.441C392.168 300.018 392.501 299.517 392.728 298.965C392.956 298.413 393.072 297.822 393.07 297.225V297.225Z" fill="white"/>
<path d="M437.818 308.064H91V482.379H437.818V308.064Z" fill="white" stroke="#182F43" stroke-linecap="round" stroke-linejoin="round"/>
<path d="M421.476 326.233H115.513V466.039H420.563" stroke="#182F43" stroke-width="0.5" stroke-linecap="round" stroke-linejoin="round"/>
<path d="M116.425 366.079H422.374" stroke="#182F43" stroke-width="0.5" stroke-linecap="round" stroke-linejoin="round"/>
<path d="M116.425 405.846H422.374" stroke="#182F43" stroke-width="0.5" stroke-linecap="round" stroke-linejoin="round"/>
<path d="M116.425 445.61H422.374" stroke="#182F43" stroke-width="0.5" stroke-linecap="round" stroke-linejoin="round"/>
<path d="M110.066 327.131H101.895" stroke="#182F43" stroke-width="0.5" stroke-linecap="round" stroke-linejoin="round"/>
<path d="M110.066 346.851H101.895" stroke="#182F43" stroke-width="0.5" stroke-linecap="round" stroke-linejoin="round"/>
<path d="M110.066 366.571H101.895" stroke="#182F43" stroke-width="0.5" stroke-linecap="round" stroke-linejoin="round"/>
<path d="M110.066 386.275H101.895" stroke="#182F43" stroke-width="0.5" stroke-linecap="round" stroke-linejoin="round"/>
<path d="M110.066 405.995H101.895" stroke="#182F43" stroke-width="0.5" stroke-linecap="round" stroke-linejoin="round"/>
<path d="M110.066 425.701H101.895" stroke="#182F43" stroke-width="0.5" stroke-linecap="round" stroke-linejoin="round"/>
<path d="M110.066 445.419H101.895" stroke="#182F43" stroke-width="0.5" stroke-linecap="round" stroke-linejoin="round"/>
<path d="M110.066 465.141H101.895" stroke="#182F43" stroke-width="0.5" stroke-linecap="round" stroke-linejoin="round"/>
<path d="M117.787 366.814C117.787 366.814 144.561 367.985 150.008 364.363C155.455 360.74 162.728 353.468 167.263 354.367C172.179 355.639 177.029 357.157 181.793 358.915C181.793 358.915 192.688 352.556 195.412 352.556C198.135 352.556 207.205 357.091 214.477 357.091H235.354L243.525 363.45L258.955 358.915L276.209 366.174L287.104 364.363L302.533 372.534H309.806L324.323 378.88H343.388L354.283 385.24L371.538 386.152L385.156 399.77L396.051 397.946L407.858 402.494L418.752 401.582" stroke="#FFC100" stroke-width="3" stroke-linecap="round" stroke-linejoin="round"/>
<path d="M117.324 371.623H150.921L170.899 374.346L187.241 375.259L201.758 385.241L222.648 378.881L248.06 387.965L276.209 383.43L286.192 387.965L308.893 362.539H331.595L345.213 348.022L359.731 354.368L368.814 346.197L380.621 352.557L387.88 343.474L392.415 344.386L404.222 340.75L409.669 344.386L418.752 342.575" stroke="#182F43" stroke-width="3" stroke-linecap="round" stroke-linejoin="round"/>
<path d="M118.236 460.592H153.644L180.881 445.162L200.859 454.245H215.376L222.648 456.969L238.99 448.798L260.779 435.18L268.038 445.162L281.656 443.351L288.915 445.162L307.082 446.074L327.046 429.732L337.042 441.526L349.748 440.627L357.007 445.162L367.901 442.438L382.432 447.886L402.41 445.162L413.305 446.973L419.651 445.162" stroke="#AA4337" stroke-width="3" stroke-linecap="round" stroke-linejoin="round"/>
<path opacity="0.4" d="M332.5 498L415.784 529.554V590.387L332.5 675.5V498Z" fill="#FFC100" stroke="white" stroke-linecap="round" stroke-linejoin="round"/>
<path d="M332 499H160V666H332V499Z" fill="#182F43" stroke="#182F43" stroke-width="2" stroke-linecap="round" stroke-linejoin="round"/>
<path d="M332 517H160V675H332V517Z" fill="white" stroke="#182F43" stroke-width="2" stroke-linecap="round" stroke-linejoin="round"/>
<path d="M245 606L181.005 605.939C180.896 597.344 182.58 588.821 185.948 580.912C189.317 573.003 194.298 565.881 200.573 560L245 606Z" fill="#AA4337" stroke="white" stroke-miterlimit="10"/>
<path d="M245 606.061L228.376 667C214.705 663.508 202.614 655.605 194.028 644.55C185.443 633.494 180.857 619.923 181.003 606L245 606.061Z" fill="#AA4337" stroke="white" stroke-miterlimit="10"/>
<path d="M247.572 607.271L277.475 551C291.216 558.396 301.768 570.599 307.127 585.288C312.486 599.977 312.277 616.129 306.541 630.674C300.805 645.219 289.94 657.143 276.013 664.18C262.086 671.217 246.067 672.876 231 668.842L247.572 607.271Z" fill="#FFC100" stroke="white" stroke-miterlimit="10"/>
<path d="M244.347 606L241 542.135C252.819 541.361 264.617 543.922 275 549.517L244.347 606Z" fill="#182F43" stroke="white" stroke-miterlimit="10"/>
<path d="M245 606L201 559.865C211.827 548.872 226.404 542.48 241.743 542L245 606Z" fill="#182F43" stroke="white" stroke-miterlimit="10"/>
<path d="M327.714 506.563C327.714 505.666 327.448 504.79 326.95 504.044C326.452 503.298 325.744 502.717 324.915 502.374C324.086 502.03 323.174 501.94 322.295 502.115C321.415 502.29 320.607 502.722 319.973 503.357C319.339 503.991 318.907 504.799 318.732 505.679C318.557 506.558 318.646 507.47 318.99 508.299C319.333 509.127 319.914 509.836 320.66 510.334C321.406 510.832 322.283 511.098 323.179 511.098C323.775 511.098 324.365 510.981 324.915 510.753C325.465 510.525 325.965 510.191 326.386 509.77C326.807 509.349 327.141 508.849 327.369 508.299C327.597 507.748 327.714 507.159 327.714 506.563V506.563Z" fill="white"/>
<path d="M311.097 506.562C311.1 505.662 310.835 504.781 310.337 504.031C309.839 503.282 309.13 502.697 308.299 502.35C307.468 502.004 306.553 501.912 305.67 502.086C304.786 502.26 303.975 502.692 303.337 503.327C302.7 503.963 302.265 504.773 302.088 505.656C301.912 506.539 302.001 507.454 302.345 508.286C302.689 509.118 303.272 509.829 304.02 510.33C304.768 510.83 305.648 511.097 306.549 511.097C307.752 511.097 308.907 510.62 309.76 509.77C310.613 508.92 311.093 507.766 311.097 506.562Z" fill="white"/>
<g style="mix-blend-mode:multiply">
<path d="M332 514H160V535H332V514Z" fill="#FFC100"/>
<path d="M332 514H160V535H332V514Z" stroke="white" stroke-linecap="round" stroke-linejoin="round"/>
</g>
<path opacity="0.2" d="M561.883 240.634H445.632C440.305 240.634 435.986 244.953 435.986 250.28V333.147C435.986 338.474 440.305 342.793 445.632 342.793H561.883C567.21 342.793 571.529 338.474 571.529 333.147V250.28C571.529 244.953 567.21 240.634 561.883 240.634Z" fill="#182F43"/>
<path d="M556.896 234H440.646C435.319 234 431 238.319 431 243.646V326.513C431 331.84 435.319 336.159 440.646 336.159H556.896C562.224 336.159 566.543 331.84 566.543 326.513V243.646C566.543 238.319 562.224 234 556.896 234Z" fill="white" stroke="#182F43" stroke-width="2" stroke-linecap="round" stroke-linejoin="round"/>
<path d="M437.295 326.592H564.556" stroke="#182F43" stroke-width="0.5" stroke-miterlimit="10"/>
<path d="M437.295 326.592V328.476" stroke="#182F43" stroke-width="0.5" stroke-miterlimit="10"/>
<path d="M445.779 326.592V328.476" stroke="#182F43" stroke-width="0.5" stroke-miterlimit="10"/>
<path d="M454.264 326.592V328.476" stroke="#182F43" stroke-width="0.5" stroke-miterlimit="10"/>
<path d="M462.747 326.592V328.476" stroke="#182F43" stroke-width="0.5" stroke-miterlimit="10"/>
<path d="M471.231 326.592V328.476" stroke="#182F43" stroke-width="0.5" stroke-miterlimit="10"/>
<path d="M479.716 326.592V328.476" stroke="#182F43" stroke-width="0.5" stroke-miterlimit="10"/>
<path d="M488.2 326.592V328.476" stroke="#182F43" stroke-width="0.5" stroke-miterlimit="10"/>
<path d="M496.684 326.592V328.476" stroke="#182F43" stroke-width="0.5" stroke-miterlimit="10"/>
<path d="M505.168 326.592V328.476" stroke="#182F43" stroke-width="0.5" stroke-miterlimit="10"/>
<path d="M513.652 326.592V328.476" stroke="#182F43" stroke-width="0.5" stroke-miterlimit="10"/>
<path d="M522.136 326.592V328.476" stroke="#182F43" stroke-width="0.5" stroke-miterlimit="10"/>
<path d="M530.62 326.592V328.476" stroke="#182F43" stroke-width="0.5" stroke-miterlimit="10"/>
<path d="M539.104 326.592V328.476" stroke="#182F43" stroke-width="0.5" stroke-miterlimit="10"/>
<path d="M547.589 326.592V328.476" stroke="#182F43" stroke-width="0.5" stroke-miterlimit="10"/>
<path d="M556.072 326.592V328.476" stroke="#182F43" stroke-width="0.5" stroke-miterlimit="10"/>
<path d="M564.557 326.592V328.476" stroke="#182F43" stroke-width="0.5" stroke-miterlimit="10"/>
<path d="M560.315 321.54H441.537V307.471L449.931 293.504C449.99 293.407 450.028 293.3 450.044 293.188L457.513 251.749C457.553 251.538 457.666 251.348 457.832 251.211C457.998 251.075 458.206 251 458.421 251C458.636 251 458.844 251.075 459.009 251.211C459.175 251.348 459.288 251.538 459.329 251.749L466.922 302.338C466.97 302.59 467.116 302.813 467.328 302.958L474.65 307.832C474.755 307.903 474.874 307.951 474.998 307.973C475.123 307.995 475.251 307.991 475.374 307.962C475.497 307.932 475.612 307.877 475.713 307.8C475.814 307.724 475.897 307.627 475.959 307.516L483.326 294.429C483.397 294.302 483.498 294.195 483.619 294.115C483.741 294.035 483.88 293.986 484.024 293.97C484.169 293.955 484.315 293.974 484.45 294.026C484.586 294.079 484.707 294.163 484.804 294.271L492.442 302.733L500.926 312.142L509.41 302.733L516.879 294.44C516.985 294.324 517.12 294.237 517.269 294.187C517.419 294.138 517.578 294.127 517.733 294.156C517.888 294.186 518.033 294.254 518.154 294.355C518.275 294.456 518.368 294.587 518.424 294.734L526.322 315.91H534.806L543.29 319.678L551.774 314.037L558.543 297.644C558.618 297.44 558.764 297.269 558.953 297.162C559.143 297.055 559.365 297.02 559.578 297.062C559.792 297.104 559.984 297.221 560.119 297.392C560.254 297.563 560.323 297.777 560.315 297.994V321.54Z" fill="#182F43"/>
<path d="M517.923 296.562C517.971 296.603 518.009 296.656 518.032 296.715C518.032 296.716 518.032 296.717 518.032 296.717L525.477 316.826L525.598 317.153H525.946H533.84L541.742 320.688L541.995 320.801L542.224 320.647L550.224 315.289L550.351 315.205L550.409 315.064L556.792 299.493L556.796 299.484L556.799 299.475C556.829 299.392 556.887 299.323 556.962 299.281C557.037 299.238 557.124 299.224 557.208 299.241C557.291 299.258 557.367 299.304 557.421 299.373C557.475 299.441 557.503 299.528 557.5 299.617L557.499 299.626V299.636V321.5H446.5V308.775L454.342 295.63C454.343 295.63 454.343 295.629 454.344 295.628C454.432 295.482 454.49 295.319 454.515 295.15L461.555 255.806C461.555 255.805 461.555 255.804 461.555 255.803C461.572 255.717 461.618 255.64 461.685 255.585C461.751 255.53 461.835 255.5 461.92 255.5C462.006 255.5 462.089 255.53 462.156 255.585C462.22 255.639 462.266 255.714 462.284 255.798L469.441 303.835L469.443 303.845L469.445 303.854C469.514 304.223 469.726 304.55 470.036 304.763L470.036 304.763L470.041 304.766L476.943 309.394C476.943 309.395 476.944 309.395 476.944 309.395C477.1 309.501 477.277 309.572 477.463 309.606C477.649 309.64 477.84 309.634 478.024 309.589C478.208 309.544 478.38 309.462 478.53 309.347C478.679 309.232 478.804 309.088 478.895 308.923C478.895 308.922 478.895 308.922 478.895 308.921L485.84 296.494C485.84 296.494 485.84 296.494 485.84 296.494C485.869 296.443 485.909 296.4 485.957 296.368C486.005 296.337 486.059 296.317 486.116 296.311C486.173 296.305 486.23 296.312 486.283 296.333C486.337 296.354 486.385 296.387 486.423 296.431L486.425 296.433L493.627 304.47L493.627 304.47L501.627 313.407L502 313.823L502.372 313.407L510.372 304.47L510.372 304.47L517.412 296.597C517.412 296.596 517.413 296.596 517.413 296.596C517.456 296.549 517.51 296.514 517.569 296.494C517.629 296.474 517.692 296.47 517.754 296.482C517.816 296.494 517.874 296.521 517.923 296.562Z" fill="#FFC100" stroke="black"/>
<path d="M505.856 247.617H532.144" stroke="#182F43" stroke-linecap="round" stroke-linejoin="round"/>
<path d="M505.856 253.777H532.144" stroke="#182F43" stroke-linecap="round" stroke-linejoin="round"/>
<path d="M505.856 259.927H532.144" stroke="#182F43" stroke-linecap="round" stroke-linejoin="round"/>
<path d="M505.856 266.086H532.144" stroke="#182F43" stroke-linecap="round" stroke-linejoin="round"/>
<path d="M505.856 272.235H532.144" stroke="#182F43" stroke-linecap="round" stroke-linejoin="round"/>
<path d="M505.856 278.396H532.144" stroke="#182F43" stroke-linecap="round" stroke-linejoin="round"/>
<path d="M499.877 247.617H503.171" stroke="#182F43" stroke-linecap="round" stroke-linejoin="round"/>
<path d="M499.877 253.777H503.171" stroke="#182F43" stroke-linecap="round" stroke-linejoin="round"/>
<path d="M499.877 259.927H503.171" stroke="#182F43" stroke-linecap="round" stroke-linejoin="round"/>
<path d="M499.877 266.086H503.171" stroke="#182F43" stroke-linecap="round" stroke-linejoin="round"/>
<path d="M499.877 272.235H503.171" stroke="#182F43" stroke-linecap="round" stroke-linejoin="round"/>
<path d="M499.877 278.396H503.171" stroke="#182F43" stroke-linecap="round" stroke-linejoin="round"/>
</svg>
