<svg width="509" height="487" viewBox="0 0 509 487" fill="none" xmlns="http://www.w3.org/2000/svg">
<path d="M317.396 428.201C317.396 428.201 325.567 463.119 321.985 468.866C317.368 476.369 268.138 480.89 268.138 480.89H376.69C376.69 480.89 390.308 477.077 386.223 466.142C383.05 457.671 367.865 428.201 367.865 428.201H317.396Z" fill="white" stroke="#182F43" stroke-linecap="round" stroke-linejoin="round"/>
<path d="M315.026 428.201C315.026 428.201 323.687 463.418 319.615 468.866C315.544 474.313 268.138 478.466 268.138 478.466H377.194C377.194 478.466 386.373 474.762 383.826 466.142C381.279 457.521 365.482 428.201 365.482 428.201H315.026Z" fill="white" stroke="#182F43" stroke-linecap="round" stroke-linejoin="round"/>
<g style="mix-blend-mode:multiply">
<path d="M365.482 428.201H315.094C315.094 428.201 320.215 449.064 320.719 461.158H382.001C376.976 449.527 365.482 428.201 365.482 428.201Z" fill="#E5E3E3"/>
</g>
<path d="M376.69 478.644H268.138V480.891H376.69V478.644Z" fill="white" stroke="#182F43" stroke-linecap="round" stroke-linejoin="round"/>
<path d="M496.163 185.986H191.726C185.348 185.986 180.177 191.157 180.177 197.535V420.099C180.177 426.477 185.348 431.648 191.726 431.648H496.163C502.541 431.648 507.712 426.477 507.712 420.099V197.535C507.712 191.157 502.541 185.986 496.163 185.986Z" fill="#FFC100" stroke="#182F43" stroke-linecap="round" stroke-linejoin="round"/>
<path d="M488.442 185.986H184.004C177.626 185.986 172.456 191.157 172.456 197.535V420.099C172.456 426.477 177.626 431.648 184.004 431.648H488.442C494.82 431.648 499.99 426.477 499.99 420.099V197.535C499.99 191.157 494.82 185.986 488.442 185.986Z" fill="#182F43" stroke="#182F43" stroke-linecap="round" stroke-linejoin="round"/>
<path d="M172.456 393.448H499.99V420.072C499.99 423.135 498.773 426.072 496.608 428.238C494.442 430.404 491.505 431.62 488.442 431.62H184.004C180.941 431.62 178.004 430.404 175.838 428.238C173.672 426.072 172.456 423.135 172.456 420.072V393.448Z" fill="white" stroke="#182F43" stroke-linecap="round" stroke-linejoin="round"/>
<path d="M483.525 201.267H188.934V374.819H483.525V201.267Z" fill="#FFC100" stroke="#182F43" stroke-linecap="round" stroke-linejoin="round"/>
<path d="M342.263 412.541C342.263 411.344 341.908 410.175 341.243 409.18C340.578 408.185 339.633 407.41 338.527 406.953C337.422 406.496 336.205 406.377 335.032 406.611C333.859 406.846 332.781 407.423 331.936 408.27C331.091 409.117 330.516 410.196 330.284 411.369C330.053 412.543 330.174 413.759 330.634 414.864C331.094 415.969 331.871 416.912 332.867 417.575C333.863 418.238 335.034 418.59 336.23 418.587C337.023 418.587 337.809 418.431 338.542 418.127C339.275 417.823 339.94 417.377 340.501 416.815C341.061 416.254 341.505 415.587 341.808 414.854C342.11 414.12 342.265 413.334 342.263 412.541Z" fill="#182F43" stroke="#182F43" stroke-linecap="round" stroke-linejoin="round"/>
<path d="M481 206H191V229H481V206Z" fill="white" stroke="#182F43" stroke-linecap="round" stroke-linejoin="round"/>
<path d="M238.84 228.771L235.375 219H191V228.771V241.728V373H481V228.771H238.84Z" fill="white" stroke="#182F43" stroke-linecap="round" stroke-linejoin="round"/>
<path d="M507.451 479.768C507.451 479.768 505.586 484.276 495.304 485.842C485.022 487.408 415.677 479.292 415.677 479.292C415.677 479.292 411.319 478.202 411.006 476.023C410.693 473.844 422.228 467.457 443.568 464.802C462.138 462.67 480.95 464.803 498.572 471.039C511.809 475.873 507.451 479.768 507.451 479.768Z" fill="white" stroke="#182F43" stroke-linecap="round" stroke-linejoin="round"/>
<g style="mix-blend-mode:multiply">
<path d="M428.056 472C432.686 472 443.159 472.49 451.684 473.226C460.209 473.961 474.331 479.313 482.121 481.982C489.911 484.651 502.331 483.943 502.331 483.943C500.207 484.807 497.983 485.402 495.712 485.714C485.43 487.266 416.086 479.163 416.086 479.163C414.565 478.784 413.162 478.035 412 476.984C416.399 473.798 424.27 472 428.056 472Z" fill="#AA4337"/>
</g>
<path d="M504.985 475.602C505.592 475.92 506.17 476.289 506.715 476.705" stroke="#182F43" stroke-linecap="round" stroke-linejoin="round"/>
<path d="M501.821 484.477C494.595 484.692 487.398 483.474 480.644 480.895C466.32 475.256 451.096 472.244 435.704 472.003C426.757 471.935 421.282 473.16 418 474.4" stroke="#182F43" stroke-linecap="round" stroke-linejoin="round"/>
<path d="M462.679 269.941L452.04 257.42L450.833 258.445L454.711 263.008L414.877 291.37L406.3 281.748C406.085 281.506 405.815 281.31 405.509 281.173C405.204 281.036 404.869 280.962 404.53 280.955C404.191 280.948 403.854 281.009 403.544 281.134C403.234 281.259 402.958 281.444 402.735 281.677L382.103 303.205L385.625 306.048L404.439 286.409L412.714 295.693C413.102 296.128 413.658 296.408 414.265 296.473C414.872 296.538 415.481 296.382 415.962 296.04L457.594 266.401L461.472 270.966L462.679 269.941Z" fill="white" stroke="#182F43" stroke-linecap="round" stroke-linejoin="round"/>
<path d="M468.966 255.222L451.946 257.355L455.809 261.948L416.11 290.507L407.57 280.825C407.355 280.582 407.086 280.384 406.782 280.246C406.477 280.109 406.144 280.034 405.805 280.027C405.467 280.02 405.132 280.082 404.823 280.208C404.514 280.333 404.238 280.52 404.015 280.755L383.454 302.43L386.961 305.288L405.714 285.516L413.955 294.856C414.34 295.294 414.895 295.576 415.499 295.641C416.104 295.706 416.711 295.549 417.19 295.204L458.679 265.362L462.54 269.952L468.966 255.222Z" fill="#AA4337" stroke="#182F43" stroke-linecap="round" stroke-linejoin="round"/>
<path d="M471.445 309H381.183V363.936H471.023" stroke="#182F43" stroke-width="0.5" stroke-linecap="round" stroke-linejoin="round"/>
<path d="M381.591 324.662H471.853" stroke="#182F43" stroke-width="0.5" stroke-linecap="round" stroke-linejoin="round"/>
<path d="M381.591 340.281H471.853" stroke="#182F43" stroke-width="0.5" stroke-linecap="round" stroke-linejoin="round"/>
<path d="M381.591 355.902H471.853" stroke="#182F43" stroke-width="0.5" stroke-linecap="round" stroke-linejoin="round"/>
<path d="M378.704 309.368H375" stroke="#182F43" stroke-width="0.5" stroke-linecap="round" stroke-linejoin="round"/>
<path d="M378.704 317.103H375" stroke="#182F43" stroke-width="0.5" stroke-linecap="round" stroke-linejoin="round"/>
<path d="M371.542 316.941H367.837" stroke="#182F43" stroke-width="0.5" stroke-linecap="round" stroke-linejoin="round"/>
<path d="M378.704 332.601H375" stroke="#182F43" stroke-width="0.5" stroke-linecap="round" stroke-linejoin="round"/>
<path d="M378.704 340.336H375" stroke="#182F43" stroke-width="0.5" stroke-linecap="round" stroke-linejoin="round"/>
<path d="M378.704 348.085H375" stroke="#182F43" stroke-width="0.5" stroke-linecap="round" stroke-linejoin="round"/>
<path d="M378.704 355.834H375" stroke="#182F43" stroke-width="0.5" stroke-linecap="round" stroke-linejoin="round"/>
<path d="M378.704 363.567H375" stroke="#182F43" stroke-width="0.5" stroke-linecap="round" stroke-linejoin="round"/>
<path d="M388.618 330.993H384.464V363.718H388.618V330.993Z" fill="#182F43" stroke="#182F43" stroke-linecap="round" stroke-linejoin="round"/>
<path d="M395.986 315.333H391.832V363.719H395.986V315.333Z" fill="#FFC100" stroke="#182F43" stroke-linecap="round" stroke-linejoin="round"/>
<path d="M403.366 330.993H399.213V363.718H403.366V330.993Z" fill="white" stroke="#182F43" stroke-linecap="round" stroke-linejoin="round"/>
<path d="M419.954 320.398H415.801V363.718H419.954V320.398Z" fill="#182F43" stroke="#182F43" stroke-linecap="round" stroke-linejoin="round"/>
<path d="M427.322 326.854H423.168V363.719H427.322V326.854Z" fill="#FFC100" stroke="#182F43" stroke-linecap="round" stroke-linejoin="round"/>
<path d="M434.702 345.279H430.549V363.719H434.702V345.279Z" fill="white" stroke="#182F43" stroke-linecap="round" stroke-linejoin="round"/>
<path d="M451.289 330.993H447.136V363.718H451.289V330.993Z" fill="#182F43" stroke="#182F43" stroke-linecap="round" stroke-linejoin="round"/>
<path d="M458.657 315.333H454.504V363.719H458.657V315.333Z" fill="#FFC100" stroke="#182F43" stroke-linecap="round" stroke-linejoin="round"/>
<path d="M466.038 330.993H461.885V363.718H466.038V330.993Z" fill="white" stroke="#182F43" stroke-linecap="round" stroke-linejoin="round"/>
<path opacity="0.4" d="M347.818 249.38L393.876 283.848V235.721L347.818 56V249.38Z" fill="#FFC100" stroke="white" stroke-linecap="round" stroke-linejoin="round"/>
<path opacity="0.4" d="M393.875 283.849H244.074L1 249.381H347.818L393.875 283.849Z" fill="#FFC100" stroke="white" stroke-linecap="round" stroke-linejoin="round"/>
<path d="M347.818 56H1V230.315H347.818V56Z" fill="#182F43" stroke="#182F43" stroke-linecap="round" stroke-linejoin="round"/>
<path d="M14.373 65.043H80.6535" stroke="white" stroke-width="2" stroke-linecap="round" stroke-linejoin="round"/>
<path d="M338.994 64.2243C338.994 63.3241 338.726 62.4441 338.226 61.6959C337.726 60.9476 337.014 60.3646 336.182 60.0207C335.351 59.6768 334.435 59.5876 333.553 59.7642C332.67 59.9408 331.859 60.3754 331.224 61.0128C330.588 61.6503 330.156 62.4621 329.982 63.3453C329.808 64.2285 329.9 65.1435 330.247 65.9744C330.593 66.8053 331.178 67.5147 331.928 68.0129C332.678 68.511 333.558 68.7755 334.459 68.7728C335.055 68.7728 335.646 68.6551 336.197 68.4263C336.748 68.1976 337.249 67.8623 337.67 67.4398C338.091 67.0172 338.425 66.5157 338.652 65.9639C338.879 65.4121 338.995 64.821 338.994 64.2243Z" fill="white"/>
<path d="M321.07 64.2254C321.067 63.3291 320.799 62.4536 320.299 61.7096C319.799 60.9657 319.09 60.3866 318.261 60.0454C317.432 59.7043 316.521 59.6164 315.642 59.7929C314.763 59.9694 313.956 60.4024 313.323 61.0372C312.691 61.6719 312.26 62.48 312.086 63.3593C311.912 64.2386 312.003 65.1497 312.346 65.9776C312.69 66.8054 313.271 67.5129 314.017 68.0106C314.762 68.5083 315.639 68.7739 316.535 68.7739C317.132 68.7739 317.722 68.6562 318.273 68.4274C318.825 68.1987 319.325 67.8634 319.746 67.4409C320.168 67.0183 320.501 66.5168 320.728 65.965C320.956 65.4132 321.072 64.8221 321.07 64.2254Z" fill="white"/>
<path d="M303.07 64.2254C303.067 63.3291 302.799 62.4536 302.299 61.7096C301.799 60.9657 301.09 60.3866 300.261 60.0454C299.432 59.7043 298.521 59.6164 297.642 59.7929C296.763 59.9694 295.956 60.4024 295.323 61.0372C294.691 61.6719 294.26 62.48 294.086 63.3593C293.912 64.2386 294.003 65.1497 294.346 65.9776C294.69 66.8054 295.271 67.5129 296.017 68.0106C296.762 68.5083 297.639 68.7739 298.535 68.7739C299.132 68.7739 299.722 68.6562 300.273 68.4274C300.825 68.1987 301.325 67.8634 301.746 67.4409C302.168 67.0183 302.501 66.5168 302.728 65.965C302.956 65.4132 303.072 64.8221 303.07 64.2254Z" fill="white"/>
<path d="M347.818 75.0645H1V249.379H347.818V75.0645Z" fill="white" stroke="#182F43" stroke-linecap="round" stroke-linejoin="round"/>
<path d="M331.476 93.2334H25.5127V233.039H330.563" stroke="#182F43" stroke-width="0.5" stroke-linecap="round" stroke-linejoin="round"/>
<path d="M26.4248 133.079H332.374" stroke="#182F43" stroke-width="0.5" stroke-linecap="round" stroke-linejoin="round"/>
<path d="M26.4248 172.846H332.374" stroke="#182F43" stroke-width="0.5" stroke-linecap="round" stroke-linejoin="round"/>
<path d="M26.4248 212.61H332.374" stroke="#182F43" stroke-width="0.5" stroke-linecap="round" stroke-linejoin="round"/>
<path d="M20.0655 94.1309H11.8945" stroke="#182F43" stroke-width="0.5" stroke-linecap="round" stroke-linejoin="round"/>
<path d="M20.0655 113.851H11.8945" stroke="#182F43" stroke-width="0.5" stroke-linecap="round" stroke-linejoin="round"/>
<path d="M20.0655 133.571H11.8945" stroke="#182F43" stroke-width="0.5" stroke-linecap="round" stroke-linejoin="round"/>
<path d="M20.0655 153.275H11.8945" stroke="#182F43" stroke-width="0.5" stroke-linecap="round" stroke-linejoin="round"/>
<path d="M20.0655 172.995H11.8945" stroke="#182F43" stroke-width="0.5" stroke-linecap="round" stroke-linejoin="round"/>
<path d="M20.0655 192.701H11.8945" stroke="#182F43" stroke-width="0.5" stroke-linecap="round" stroke-linejoin="round"/>
<path d="M20.0655 212.419H11.8945" stroke="#182F43" stroke-width="0.5" stroke-linecap="round" stroke-linejoin="round"/>
<path d="M20.0655 232.141H11.8945" stroke="#182F43" stroke-width="0.5" stroke-linecap="round" stroke-linejoin="round"/>
<path d="M27.7871 133.814C27.7871 133.814 54.5608 134.985 60.0081 131.363C65.4554 127.74 72.7276 120.468 77.2625 121.367C82.1793 122.639 87.029 124.157 91.7933 125.915C91.7933 125.915 102.688 119.556 105.412 119.556C108.135 119.556 117.205 124.091 124.477 124.091H145.354L153.525 130.45L168.955 125.915L186.209 133.174L197.104 131.363L212.533 139.534H219.806L234.323 145.88H253.388L264.283 152.24L281.538 153.152L295.156 166.77L306.051 164.946L317.858 169.494L328.752 168.582" stroke="#FFC100" stroke-width="3" stroke-linecap="round" stroke-linejoin="round"/>
<path d="M27.3242 138.623H60.9207L80.8988 141.346L97.2408 142.259L111.758 152.241L132.648 145.881L158.06 154.965L186.209 150.43L196.192 154.965L218.893 129.539H241.595L255.213 115.022L269.731 121.368L278.814 113.197L290.621 119.557L297.88 110.474L302.415 111.386L314.222 107.75L319.669 111.386L328.752 109.575" stroke="#182F43" stroke-width="3" stroke-linecap="round" stroke-linejoin="round"/>
<path d="M28.2363 227.592H63.644L90.8807 212.162L110.859 221.245H125.376L132.648 223.969L148.99 215.798L170.779 202.18L178.038 212.162L191.656 210.351L198.915 212.162L217.082 213.074L237.046 196.732L247.042 208.526L259.748 207.627L267.007 212.162L277.901 209.438L292.432 214.886L312.41 212.162L323.305 213.973L329.651 212.162" stroke="#AA4337" stroke-width="3" stroke-linecap="round" stroke-linejoin="round"/>
<path opacity="0.4" d="M242.5 265L325.784 296.554V357.387L242.5 442.5V265Z" fill="#FFC100" stroke="white" stroke-linecap="round" stroke-linejoin="round"/>
<path d="M242 266H70V433H242V266Z" fill="#182F43" stroke="#182F43" stroke-width="2" stroke-linecap="round" stroke-linejoin="round"/>
<path d="M242 284H70V442H242V284Z" fill="white" stroke="#182F43" stroke-width="2" stroke-linecap="round" stroke-linejoin="round"/>
<path d="M155 373L91.005 372.939C90.896 364.344 92.5795 355.821 95.9484 347.912C99.3173 340.003 104.298 332.881 110.573 327L155 373Z" fill="#AA4337" stroke="white" stroke-miterlimit="10"/>
<path d="M155 373.061L138.376 434C124.705 430.508 112.614 422.605 104.028 411.549C95.4426 400.494 90.8574 386.923 91.0034 373L155 373.061Z" fill="#AA4337" stroke="white" stroke-miterlimit="10"/>
<path d="M157.572 374.271L187.475 318C201.216 325.396 211.768 337.599 217.127 352.288C222.486 366.977 222.277 383.129 216.541 397.674C210.805 412.219 199.94 424.143 186.013 431.18C172.086 438.217 156.067 439.876 141 435.842L157.572 374.271Z" fill="#FFC100" stroke="white" stroke-miterlimit="10"/>
<path d="M154.347 373L151 309.135C162.819 308.361 174.617 310.922 185 316.517L154.347 373Z" fill="#182F43" stroke="white" stroke-miterlimit="10"/>
<path d="M155 373L111 326.865C121.827 315.872 136.404 309.48 151.743 309L155 373Z" fill="#182F43" stroke="white" stroke-miterlimit="10"/>
<path d="M237.714 273.563C237.714 272.666 237.448 271.79 236.95 271.044C236.452 270.298 235.744 269.717 234.915 269.374C234.086 269.03 233.174 268.94 232.295 269.115C231.415 269.29 230.607 269.722 229.973 270.357C229.339 270.991 228.907 271.799 228.732 272.679C228.557 273.558 228.646 274.47 228.99 275.299C229.333 276.127 229.914 276.836 230.66 277.334C231.406 277.832 232.283 278.098 233.179 278.098C233.775 278.098 234.365 277.981 234.915 277.753C235.465 277.525 235.965 277.191 236.386 276.77C236.807 276.349 237.141 275.849 237.369 275.299C237.597 274.748 237.714 274.159 237.714 273.563Z" fill="white"/>
<path d="M221.097 273.562C221.1 272.662 220.835 271.781 220.337 271.031C219.839 270.282 219.13 269.697 218.299 269.35C217.468 269.004 216.553 268.912 215.67 269.086C214.786 269.26 213.975 269.692 213.337 270.327C212.7 270.963 212.265 271.773 212.088 272.656C211.912 273.539 212.001 274.454 212.345 275.286C212.689 276.118 213.272 276.829 214.02 277.33C214.768 277.83 215.648 278.097 216.549 278.097C217.752 278.097 218.907 277.62 219.76 276.77C220.613 275.92 221.093 274.766 221.097 273.562Z" fill="white"/>
<g style="mix-blend-mode:multiply">
<path d="M242 281H70V302H242V281Z" fill="#FFC100"/>
<path d="M242 281H70V302H242V281Z" stroke="white" stroke-linecap="round" stroke-linejoin="round"/>
</g>
<path opacity="0.2" d="M471.883 7.63379H355.632C350.305 7.63379 345.986 11.9525 345.986 17.2799V100.147C345.986 105.474 350.305 109.793 355.632 109.793H471.883C477.21 109.793 481.529 105.474 481.529 100.147V17.2799C481.529 11.9525 477.21 7.63379 471.883 7.63379Z" fill="#182F43"/>
<path d="M466.896 1H350.646C345.319 1 341 5.31873 341 10.6462V93.5128C341 98.8403 345.319 103.159 350.646 103.159H466.896C472.224 103.159 476.543 98.8403 476.543 93.5128V10.6462C476.543 5.31873 472.224 1 466.896 1Z" fill="white" stroke="#182F43" stroke-width="2" stroke-linecap="round" stroke-linejoin="round"/>
<path d="M347.295 93.5918H474.556" stroke="#182F43" stroke-width="0.5" stroke-miterlimit="10"/>
<path d="M347.295 93.5918V95.4759" stroke="#182F43" stroke-width="0.5" stroke-miterlimit="10"/>
<path d="M355.779 93.5918V95.4759" stroke="#182F43" stroke-width="0.5" stroke-miterlimit="10"/>
<path d="M364.264 93.5918V95.4759" stroke="#182F43" stroke-width="0.5" stroke-miterlimit="10"/>
<path d="M372.747 93.5918V95.4759" stroke="#182F43" stroke-width="0.5" stroke-miterlimit="10"/>
<path d="M381.231 93.5918V95.4759" stroke="#182F43" stroke-width="0.5" stroke-miterlimit="10"/>
<path d="M389.716 93.5918V95.4759" stroke="#182F43" stroke-width="0.5" stroke-miterlimit="10"/>
<path d="M398.2 93.5918V95.4759" stroke="#182F43" stroke-width="0.5" stroke-miterlimit="10"/>
<path d="M406.684 93.5918V95.4759" stroke="#182F43" stroke-width="0.5" stroke-miterlimit="10"/>
<path d="M415.168 93.5918V95.4759" stroke="#182F43" stroke-width="0.5" stroke-miterlimit="10"/>
<path d="M423.652 93.5918V95.4759" stroke="#182F43" stroke-width="0.5" stroke-miterlimit="10"/>
<path d="M432.136 93.5918V95.4759" stroke="#182F43" stroke-width="0.5" stroke-miterlimit="10"/>
<path d="M440.62 93.5918V95.4759" stroke="#182F43" stroke-width="0.5" stroke-miterlimit="10"/>
<path d="M449.104 93.5918V95.4759" stroke="#182F43" stroke-width="0.5" stroke-miterlimit="10"/>
<path d="M457.589 93.5918V95.4759" stroke="#182F43" stroke-width="0.5" stroke-miterlimit="10"/>
<path d="M466.072 93.5918V95.4759" stroke="#182F43" stroke-width="0.5" stroke-miterlimit="10"/>
<path d="M474.557 93.5918V95.4759" stroke="#182F43" stroke-width="0.5" stroke-miterlimit="10"/>
<path d="M470.315 88.5398H351.537V74.4711L359.931 60.5039C359.99 60.4074 360.028 60.2999 360.044 60.188L367.513 18.749C367.553 18.5381 367.666 18.3481 367.832 18.2114C367.998 18.0747 368.206 18 368.421 18C368.636 18 368.844 18.0747 369.009 18.2114C369.175 18.3481 369.288 18.5381 369.329 18.749L376.922 69.3377C376.97 69.5902 377.116 69.8133 377.328 69.9582L384.65 74.8321C384.755 74.9026 384.874 74.9506 384.998 74.9729C385.123 74.9952 385.251 74.9914 385.374 74.9617C385.497 74.932 385.612 74.877 385.713 74.8004C385.814 74.7237 385.897 74.6269 385.959 74.5162L393.326 61.429C393.397 61.3025 393.498 61.1949 393.619 61.1151C393.741 61.0353 393.88 60.9856 394.024 60.9701C394.169 60.9547 394.315 60.9739 394.45 61.0263C394.586 61.0786 394.707 61.1625 394.804 61.2711L402.442 69.7326L410.926 79.1418L419.41 69.7326L426.879 61.4403C426.985 61.3241 427.12 61.2371 427.269 61.1874C427.419 61.1377 427.578 61.1271 427.733 61.1564C427.888 61.1858 428.033 61.2543 428.154 61.3553C428.275 61.4563 428.368 61.5865 428.424 61.7336L436.322 82.91H444.806L453.29 86.6782L461.774 81.0372L468.543 64.6444C468.618 64.4399 468.764 64.2689 468.953 64.1621C469.143 64.0554 469.365 64.0199 469.578 64.0621C469.792 64.1042 469.984 64.2213 470.119 64.3922C470.254 64.5631 470.323 64.7765 470.315 64.9941V88.5398Z" fill="#182F43"/>
<path d="M420.372 71.4699L427.412 63.5969C427.412 63.5965 427.413 63.5961 427.413 63.5957C427.456 63.5489 427.51 63.5142 427.569 63.4943C427.629 63.4744 427.692 63.4701 427.754 63.4819C427.816 63.4937 427.874 63.5212 427.923 63.5623C427.971 63.6029 428.009 63.6555 428.032 63.7152C428.032 63.7159 428.032 63.7165 428.032 63.7171L435.477 83.8264L435.598 84.1528H435.946H443.84L451.742 87.6883L451.995 87.8013L452.224 87.6473L460.224 82.2894L460.351 82.2046L460.409 82.0636L466.792 66.4934L466.796 66.484L466.799 66.4745C466.829 66.3916 466.887 66.3231 466.962 66.2807C467.037 66.2383 467.124 66.2244 467.208 66.241C467.291 66.2577 467.367 66.304 467.421 66.3727C467.475 66.4414 467.503 66.5279 467.5 66.6166L467.499 66.6263V66.6359V88.5H356.5V75.7751L364.342 62.6301C364.343 62.6295 364.343 62.6289 364.344 62.6283C364.432 62.4819 364.49 62.3194 364.515 62.1503L371.555 22.8059C371.555 22.8051 371.555 22.8042 371.555 22.8033C371.572 22.7172 371.618 22.6404 371.685 22.5854C371.751 22.5299 371.835 22.5 371.92 22.5C372.006 22.5 372.089 22.5299 372.156 22.5854L372.475 22.2008L372.156 22.5854C372.22 22.6392 372.266 22.7139 372.284 22.7977L379.441 70.8352L379.443 70.8447L379.445 70.854C379.514 71.2229 379.726 71.55 380.036 71.7629L380.036 71.7629L380.041 71.7662L386.943 76.3944C386.943 76.3945 386.943 76.3946 386.944 76.3947C387.1 76.5005 387.277 76.5724 387.463 76.606L387.552 76.1139L387.463 76.606C387.649 76.6395 387.84 76.6338 388.024 76.5891C388.208 76.5444 388.38 76.4618 388.53 76.3468C388.679 76.232 388.804 76.0876 388.895 75.9227C388.895 75.9221 388.895 75.9216 388.895 75.9211L395.84 63.4944C395.84 63.4944 395.84 63.4943 395.84 63.4942C395.869 63.4432 395.909 63.4002 395.957 63.3684C396.005 63.3367 396.059 63.3171 396.116 63.311C396.173 63.3049 396.23 63.3124 396.283 63.3332C396.337 63.3539 396.385 63.3872 396.423 63.4308L396.425 63.4333L403.627 71.4701L403.627 71.4703L411.627 80.4071L412 80.8233L412.372 80.4071L420.372 71.4701L420.372 71.4699Z" fill="#FFC100" stroke="black"/>
<path d="M415.856 14.6172H442.144" stroke="#182F43" stroke-linecap="round" stroke-linejoin="round"/>
<path d="M415.856 20.7773H442.144" stroke="#182F43" stroke-linecap="round" stroke-linejoin="round"/>
<path d="M415.856 26.9268H442.144" stroke="#182F43" stroke-linecap="round" stroke-linejoin="round"/>
<path d="M415.856 33.0859H442.144" stroke="#182F43" stroke-linecap="round" stroke-linejoin="round"/>
<path d="M415.856 39.2354H442.144" stroke="#182F43" stroke-linecap="round" stroke-linejoin="round"/>
<path d="M415.856 45.3955H442.144" stroke="#182F43" stroke-linecap="round" stroke-linejoin="round"/>
<path d="M409.877 14.6172H413.171" stroke="#182F43" stroke-linecap="round" stroke-linejoin="round"/>
<path d="M409.877 20.7773H413.171" stroke="#182F43" stroke-linecap="round" stroke-linejoin="round"/>
<path d="M409.877 26.9268H413.171" stroke="#182F43" stroke-linecap="round" stroke-linejoin="round"/>
<path d="M409.877 33.0859H413.171" stroke="#182F43" stroke-linecap="round" stroke-linejoin="round"/>
<path d="M409.877 39.2354H413.171" stroke="#182F43" stroke-linecap="round" stroke-linejoin="round"/>
<path d="M409.877 45.3955H413.171" stroke="#182F43" stroke-linecap="round" stroke-linejoin="round"/>
</svg>
