<svg width="67" height="67" viewBox="0 0 67 67" fill="none" xmlns="http://www.w3.org/2000/svg">
<path d="M33.5 66C51.4493 66 66 51.4493 66 33.5C66 15.5507 51.4493 1 33.5 1C15.5507 1 1 15.5507 1 33.5C1 51.4493 15.5507 66 33.5 66Z" fill="#FFC121"/>
<path d="M33.5 66C51.4493 66 66 51.4493 66 33.5C66 15.5507 51.4493 1 33.5 1C15.5507 1 1 15.5507 1 33.5C1 51.4493 15.5507 66 33.5 66Z" fill="white" fill-opacity="0.15"/>
<path d="M33.5 66C51.4493 66 66 51.4493 66 33.5C66 15.5507 51.4493 1 33.5 1C15.5507 1 1 15.5507 1 33.5C1 51.4493 15.5507 66 33.5 66Z" stroke="#182F43" stroke-width="2" stroke-miterlimit="10"/>
<path fill-rule="evenodd" clip-rule="evenodd" d="M36.5795 13.1598C36.6495 13.2478 36.9013 13.6074 37.139 13.9591C39.5875 17.5799 41.0307 21.391 41.4406 25.3188C41.5135 26.0165 41.5131 28.1644 41.44 28.8567C41.2866 30.3099 40.8991 31.9327 40.3985 33.218L40.3517 33.3381L40.2328 33.2561C40.1674 33.2109 39.9096 33.053 39.6599 32.9052C38.7828 32.3862 36.8726 31.1028 35.227 29.927C30.1027 26.2657 25.0061 22.0059 20.5122 17.628C19.8641 16.9966 19.3338 16.4938 19.3338 16.5106C19.3338 16.5533 19.7724 17.1944 20.3878 18.0511C23.5601 22.4678 27.4493 27.2453 30.7457 30.7748C31.0194 31.0679 31.3126 31.3823 31.3972 31.4736L31.551 31.6396L31.3615 31.5375C31.0774 31.3847 29.4758 30.3568 28.5789 29.7518C24.0321 26.6847 17.7258 21.8497 14.6073 19.0399C14.3744 18.8301 14.1751 18.667 14.1645 18.6775C14.1366 18.705 15.2932 20.3904 15.6425 20.8314C15.8046 21.0359 16.0557 21.3285 16.2007 21.4814C16.3456 21.6344 16.7539 22.124 17.1081 22.5694C20.6297 26.9984 23.6208 30.3605 27.0072 33.6967C29.0405 35.6998 30.2719 36.8255 32.07 38.3247C32.7886 38.9238 34.0267 39.9086 34.3071 40.104C34.3958 40.1658 34.4686 40.2356 34.4688 40.259C34.4694 40.3146 33.6529 40.7582 32.9133 41.104C31.2086 41.9013 29.2688 42.4033 27.1089 42.6062C26.1624 42.6951 23.9121 42.6715 23.0098 42.5632C21.143 42.3392 19.3694 41.9375 17.6255 41.3438C15.0684 40.4733 12.3481 39.089 10.5612 37.7489C10.3388 37.5822 10.1158 37.4169 10.0657 37.3818C9.95189 37.302 9.93766 37.2776 10.4265 37.9998C13.2765 42.2109 17.5631 45.8922 22.1136 48.037C25.1558 49.4708 28.0245 50.2829 31.1834 50.6046C31.897 50.6772 34.5361 50.6769 35.2054 50.6041C37.7996 50.3218 39.7154 49.768 41.9519 48.6535C42.9378 48.1623 43.6443 47.8967 44.6116 47.6534C45.5265 47.4234 46.0933 47.3463 46.8821 47.3441C47.6441 47.3421 48.0532 47.3952 48.6749 47.5768C50.1774 48.0157 51.2771 48.9361 52.2147 50.5391C52.5294 51.0771 52.5995 51.1123 52.7519 50.8088C52.9489 50.4166 53.0017 50.0172 53 48.9333C52.9988 48.2012 52.9777 47.7939 52.9216 47.4201C52.5277 44.7964 51.502 42.4186 49.7902 40.1604C49.5174 39.8006 49.4303 39.6546 49.447 39.585C49.4593 39.5337 49.5401 39.2232 49.6265 38.895C50.5113 35.5346 50.2914 31.7287 48.9936 27.9402C48.3106 25.9469 47.2461 23.8371 45.9609 21.93C43.842 18.7861 41.005 15.9669 37.8219 13.8423C37.0965 13.3581 36.5246 13 36.4768 13C36.4633 13 36.5095 13.072 36.5795 13.1598Z" fill="#182F43"/>
</svg>
