<svg width="55" height="55" viewBox="0 0 55 55" fill="none" xmlns="http://www.w3.org/2000/svg">
<path fill-rule="evenodd" clip-rule="evenodd" d="M33.4339 7.17246C33.5087 7.26734 33.7781 7.65537 34.0325 8.03479C36.6517 11.9415 38.1956 16.0535 38.6342 20.2913C38.7121 21.0441 38.7117 23.3616 38.6335 24.1085C38.4694 25.6764 38.0548 27.4274 37.5193 28.8141L37.4693 28.9437L37.3421 28.8552C37.2722 28.8065 36.9963 28.6362 36.7291 28.4767C35.7909 27.9166 33.7475 26.532 31.9871 25.2634C26.5052 21.313 21.053 16.7169 16.2457 11.9934C15.5523 11.3121 14.985 10.7696 14.985 10.7877C14.985 10.8338 15.4542 11.5255 16.1125 12.4499C19.5061 17.2153 23.6667 22.37 27.1931 26.1781C27.4859 26.4943 27.7995 26.8336 27.89 26.932L28.0546 27.1111L27.8518 27.001C27.548 26.8361 25.8346 25.7271 24.8751 25.0743C20.0111 21.765 13.2649 16.5483 9.92874 13.5167C9.67961 13.2904 9.46642 13.1144 9.45504 13.1258C9.4252 13.1554 10.6624 14.9739 11.0362 15.4496C11.2095 15.6703 11.4782 15.986 11.6333 16.151C11.7883 16.316 12.2251 16.8443 12.604 17.3249C16.3714 22.1036 19.571 25.7311 23.1938 29.3307C25.3689 31.4919 26.6862 32.7064 28.6098 34.324C29.3785 34.9704 30.703 36.0329 31.003 36.2438C31.0978 36.3105 31.1757 36.3857 31.176 36.411C31.1766 36.471 30.3031 36.9496 29.5119 37.3228C27.6883 38.1829 25.6132 38.7246 23.3026 38.9435C22.29 39.0394 19.8827 39.014 18.9174 38.8972C16.9204 38.6555 15.023 38.222 13.1575 37.5815C10.4221 36.6422 7.51194 35.1486 5.60031 33.7028C5.36242 33.5229 5.12388 33.3446 5.07026 33.3067C4.94854 33.2206 4.93331 33.1943 5.45624 33.9735C8.50515 38.517 13.0907 42.489 17.9588 44.8031C21.2131 46.3501 24.282 47.2263 27.6614 47.5734C28.4247 47.6517 31.2479 47.6514 31.9639 47.5728C34.7391 47.2683 36.7886 46.6707 39.1812 45.4683C40.2357 44.9383 40.9916 44.6517 42.0264 44.3892C43.0051 44.1411 43.6115 44.0578 44.4553 44.0555C45.2704 44.0533 45.7081 44.1106 46.3732 44.3065C47.9804 44.7801 49.1569 45.7731 50.1599 47.5027C50.4966 48.0832 50.5715 48.1212 50.7346 47.7937C50.9453 47.3705 51.0018 46.9396 51 45.7701C50.9987 44.9803 50.9761 44.5408 50.9161 44.1375C50.4947 41.3067 49.3975 38.7411 47.5662 36.3047C47.2744 35.9164 47.1813 35.7589 47.1991 35.6838C47.2123 35.6285 47.2987 35.2934 47.3911 34.9393C48.3377 31.3136 48.1024 27.2073 46.714 23.1197C45.9835 20.969 44.8446 18.6927 43.4698 16.635C41.2031 13.2429 38.1682 10.2012 34.7629 7.90882C33.9869 7.38641 33.3751 7 33.324 7C33.3096 7 33.359 7.07763 33.4339 7.17246Z" fill="#182F43"/>
</svg>
