<svg width="61" height="49" viewBox="0 0 61 49" fill="none" xmlns="http://www.w3.org/2000/svg">
<path d="M28.8348 43.8734C39.6802 41.3336 46.4133 30.4827 43.8735 19.6373C41.3337 8.79186 30.4828 2.0588 19.6374 4.59858C8.79197 7.13836 2.0589 17.9892 4.59868 28.8347C7.13846 39.6801 17.9893 46.4132 28.8348 43.8734Z" fill="#AA4337" stroke="#8E95A7" stroke-miterlimit="10"/>
<path d="M28.0216 40.3616C36.9339 38.2712 42.4642 29.3517 40.3738 20.4394C38.2834 11.5271 29.364 5.99675 20.4517 8.08712C11.5393 10.1775 6.00904 19.097 8.09941 28.0093C10.1898 36.9216 19.1092 42.4519 28.0216 40.3616Z" fill="white" stroke="#8E95A7" stroke-miterlimit="10"/>
<path d="M26.9884 35.9885C33.4789 34.4638 37.5045 27.9662 35.9798 21.4757C34.455 14.9852 27.9574 10.9596 21.4669 12.4844C14.9764 14.0091 10.9509 20.5067 12.4756 26.9972C14.0003 33.4877 20.4979 37.5133 26.9884 35.9885Z" fill="#AA4337" stroke="#8E95A7" stroke-miterlimit="10"/>
<path d="M24.2305 31.8653C28.4417 31.8653 31.8555 28.4514 31.8555 24.2403C31.8555 20.0291 28.4417 16.6152 24.2305 16.6152C20.0193 16.6152 16.6055 20.0291 16.6055 24.2403C16.6055 28.4514 20.0193 31.8653 24.2305 31.8653Z" fill="white" stroke="#8E95A7" stroke-miterlimit="10"/>
<path d="M27.7564 24.24C27.7586 23.5394 27.5527 22.8539 27.1649 22.2705C26.7771 21.6871 26.2247 21.2319 25.5779 20.9628C24.9311 20.6937 24.2189 20.6227 23.5317 20.7588C22.8444 20.895 22.2131 21.2321 21.7177 21.7275C21.2223 22.2229 20.8852 22.8542 20.7491 23.5414C20.6129 24.2287 20.6839 24.9408 20.9531 25.5877C21.2222 26.2345 21.6773 26.7869 22.2608 27.1747C22.8442 27.5625 23.5297 27.7684 24.2302 27.7661C25.1654 27.7661 26.0623 27.3946 26.7236 26.7334C27.3849 26.0721 27.7564 25.1752 27.7564 24.24Z" fill="#AA4337" stroke="#8E95A7" stroke-miterlimit="10"/>
<path d="M25.6771 18.7041L24.2285 24.2404L29.4504 25.3858L25.6771 18.7041Z" fill="white" stroke="#8E95A7" stroke-miterlimit="10"/>
<path d="M27.9121 21.7917L50.8545 9.29297" stroke="#8E95A7" stroke-miterlimit="10"/>
<path d="M43.4883 13.4041L43.8364 7.40736L54.617 1.24219V8.09236L43.4883 13.4041Z" fill="white" stroke="#8E95A7" stroke-miterlimit="10"/>
<path d="M59.2417 11.3469L54.5139 7.85449L43.4414 13.6827L48.7755 16.7709L59.2417 11.3469Z" fill="white" stroke="#8E95A7" stroke-miterlimit="10"/>
</svg>
