<svg width="60" height="60" viewBox="0 0 60 60" fill="none" xmlns="http://www.w3.org/2000/svg">
<path d="M38.4375 5.625H21.5625C18.9769 5.625 16.875 7.72875 16.875 10.3125V14.0625V44.0625V49.6875C16.875 52.2713 18.9769 54.375 21.5625 54.375H38.4375C41.0231 54.375 43.125 52.2713 43.125 49.6875V44.0625V14.0625V10.3125C43.125 7.72875 41.0231 5.625 38.4375 5.625ZM21.5625 7.5H38.4375C39.9881 7.5 41.25 8.76187 41.25 10.3125V13.125H18.75V10.3125C18.75 8.76187 20.0119 7.5 21.5625 7.5ZM41.25 43.125H18.75V15H41.25V43.125ZM38.4375 52.5H21.5625C20.0119 52.5 18.75 51.2381 18.75 49.6875V45H41.25V49.6875C41.25 51.2381 39.9881 52.5 38.4375 52.5Z" fill="#FBFBFF"/>
<path d="M28.125 11.25H31.875C32.3925 11.25 32.8125 10.83 32.8125 10.3125C32.8125 9.795 32.3925 9.375 31.875 9.375H28.125C27.6075 9.375 27.1875 9.795 27.1875 10.3125C27.1875 10.83 27.6075 11.25 28.125 11.25Z" fill="#FBFBFF"/>
<path d="M30 50.625C31.0355 50.625 31.875 49.7855 31.875 48.75C31.875 47.7145 31.0355 46.875 30 46.875C28.9645 46.875 28.125 47.7145 28.125 48.75C28.125 49.7855 28.9645 50.625 30 50.625Z" fill="#FBFBFF"/>
<path d="M13.4175 18.4072C12.9656 18.1484 12.3937 18.3022 12.1387 18.7503C10.3312 21.8815 9.375 25.4478 9.375 29.0628C9.375 32.6778 10.3312 36.244 12.1387 39.3753C12.3112 39.6753 12.6263 39.844 12.9506 39.844C13.11 39.844 13.2713 39.8047 13.4194 39.7184C13.8675 39.4597 14.0213 38.8859 13.7625 38.4378C12.1181 35.5897 11.25 32.3478 11.25 29.0628C11.25 25.7778 12.1181 22.5359 13.7606 19.6878C14.0213 19.2397 13.8675 18.6659 13.4175 18.4072ZM8.54813 15.5947C8.1 15.3378 7.52437 15.4897 7.2675 15.9378C4.965 19.924 3.75 24.4615 3.75 29.0628C3.75 33.664 4.965 38.2015 7.2675 42.1878C7.44 42.4878 7.75688 42.6565 8.07938 42.6565C8.23875 42.6565 8.4 42.6172 8.54813 42.5309C8.99625 42.2722 9.15 41.6984 8.88938 41.2503C6.75563 37.549 5.625 33.334 5.625 29.0628C5.625 24.7915 6.75563 20.5765 8.88938 16.8753C9.15 16.4272 8.99625 15.8534 8.54813 15.5947ZM46.5825 18.4072C46.1344 18.6659 45.9806 19.2397 46.2394 19.6878C47.8819 22.5359 48.75 25.7778 48.75 29.0628C48.75 32.3478 47.8819 35.5897 46.2394 38.4378C45.9787 38.8859 46.1325 39.4597 46.5825 39.7184C46.7306 39.8028 46.8919 39.844 47.0512 39.844C47.3756 39.844 47.6906 39.6753 47.8631 39.3753C49.6688 36.244 50.625 32.6778 50.625 29.0628C50.625 25.4478 49.6687 21.8815 47.8612 18.7503C47.6062 18.3022 47.0306 18.1484 46.5825 18.4072ZM52.7325 15.9378C52.4756 15.4878 51.9 15.334 51.4519 15.5947C51.0037 15.8534 50.85 16.4272 51.1106 16.8753C53.2444 20.5765 54.375 24.7915 54.375 29.0628C54.375 33.334 53.2444 37.549 51.1106 41.2503C50.85 41.6984 51.0037 42.2722 51.4537 42.5309C51.6019 42.6153 51.7631 42.6565 51.9225 42.6565C52.245 42.6565 52.5619 42.4878 52.7344 42.1878C55.0369 38.2015 56.2519 33.664 56.2519 29.0628C56.2519 24.4615 55.035 19.924 52.7325 15.9378Z" fill="#FFC100"/>
</svg>
