<svg width="60" height="60" viewBox="0 0 60 60" fill="none" xmlns="http://www.w3.org/2000/svg">
<g clip-path="url(#clip0_142_4241)">
<path d="M30.3119 17.9229C30.0772 17.9264 29.8524 18.0178 29.682 18.1792C28.4877 18.4893 27.5067 19.3953 27.5067 20.6768C27.5067 22.2012 28.7868 23.4343 30.3119 23.4343C30.8588 23.4343 31.2457 23.8254 31.2457 24.3169C31.2457 24.8083 30.8587 25.1995 30.3119 25.1995C29.765 25.1995 29.378 24.8082 29.378 24.3169C29.3834 24.1907 29.3632 24.0646 29.3185 23.9464C29.2739 23.8283 29.2059 23.7204 29.1185 23.6292C29.0311 23.538 28.9261 23.4654 28.8099 23.4158C28.6937 23.3662 28.5687 23.3407 28.4424 23.3407C28.316 23.3407 28.191 23.3662 28.0748 23.4158C27.9586 23.4654 27.8537 23.538 27.7663 23.6292C27.6789 23.7204 27.6108 23.8283 27.5662 23.9464C27.5216 24.0646 27.5013 24.1907 27.5067 24.3169C27.5067 25.5953 28.4844 26.4979 29.6747 26.8108C29.8464 26.9752 30.0742 27.0681 30.3119 27.0708C30.5465 27.0673 30.7713 26.9758 30.9418 26.8145C32.1361 26.5043 33.117 25.5982 33.117 24.3169C33.117 23.0343 32.134 22.1246 30.9381 21.8157C30.7686 21.6552 30.5453 21.5637 30.3119 21.5593C29.765 21.5593 29.378 21.1681 29.378 20.6768C29.378 20.1851 29.765 19.7942 30.3119 19.7942C30.8588 19.7942 31.2457 20.1851 31.2457 20.6768C31.2404 20.803 31.2606 20.929 31.3052 21.0472C31.3498 21.1654 31.4179 21.2732 31.5053 21.3644C31.5927 21.4556 31.6976 21.5283 31.8138 21.5779C31.93 21.6274 32.0551 21.6529 32.1814 21.6529C32.3077 21.6529 32.4327 21.6274 32.5489 21.5779C32.6651 21.5283 32.7701 21.4556 32.8575 21.3644C32.9449 21.2732 33.0129 21.1654 33.0576 21.0472C33.1022 20.929 33.1224 20.803 33.117 20.6768C33.117 19.1522 31.8369 17.9229 30.3119 17.9229Z" fill="#FFC100"/>
<path fill-rule="evenodd" clip-rule="evenodd" d="M30.297 25.1918C30.1738 25.1936 30.0522 25.2196 29.9392 25.2685C29.8261 25.3173 29.7238 25.388 29.638 25.4764C29.5523 25.5648 29.4849 25.6694 29.4396 25.7839C29.3943 25.8984 29.3721 26.0208 29.3742 26.1439V27.1766C29.3742 27.4253 29.4729 27.6638 29.6487 27.8396C29.8246 28.0154 30.063 28.1141 30.3117 28.1141C30.5603 28.1141 30.7988 28.0154 30.9746 27.8396C31.1504 27.6638 31.2492 27.4253 31.2492 27.1766V26.1439C31.2513 26.0183 31.2281 25.8935 31.181 25.777C31.1339 25.6606 31.0638 25.5548 30.975 25.466C30.8861 25.3771 30.7803 25.3071 30.6638 25.26C30.5474 25.2129 30.4226 25.1897 30.297 25.1918ZM30.297 16.8751C30.0489 16.8787 29.8124 16.9807 29.6394 17.1585C29.4663 17.3363 29.371 17.5755 29.3742 17.8236V18.8563C29.3742 19.105 29.4729 19.3435 29.6487 19.5193C29.8246 19.6951 30.063 19.7938 30.3117 19.7938C30.5603 19.7938 30.7988 19.6951 30.9746 19.5193C31.1504 19.3435 31.2492 19.105 31.2492 18.8563V17.8236C31.2508 17.6983 31.2272 17.5739 31.1799 17.4579C31.1326 17.3418 31.0624 17.2364 30.9737 17.148C30.8849 17.0595 30.7792 16.9899 30.663 16.943C30.5468 16.8961 30.4223 16.873 30.297 16.8751Z" fill="#FFC100"/>
<path d="M17.8033 3.65639C17.7191 3.65733 17.6353 3.66969 17.5543 3.69301L3.7738 7.38442C2.41852 7.74766 1.59791 9.16735 1.96106 10.5228L6.42883 27.1891C6.45652 27.3125 6.50888 27.429 6.58277 27.5316C6.65666 27.6343 6.75055 27.7209 6.85879 27.7863C6.96702 27.8517 7.08738 27.8945 7.21259 27.9121C7.33781 27.9298 7.46531 27.922 7.58742 27.8891C7.70953 27.8563 7.82373 27.7991 7.92314 27.7209C8.02256 27.6428 8.10515 27.5453 8.16592 27.4344C8.22669 27.3235 8.26439 27.2014 8.27677 27.0756C8.28914 26.9497 8.27593 26.8227 8.23793 26.702L3.7738 10.0394C3.67105 9.65605 3.87694 9.30005 4.26086 9.19716L18.0377 5.50576C18.2625 5.45203 18.4595 5.31724 18.5909 5.12719C18.7223 4.93714 18.7789 4.70514 18.7499 4.4759C18.7208 4.24667 18.6081 4.0363 18.4335 3.88505C18.2588 3.73379 18.0344 3.65236 17.8033 3.65639Z" fill="#FFC100"/>
<path d="M15.9186 11.898C14.9188 12.1659 14.3254 13.1974 14.5938 14.1991C14.8622 15.2007 15.889 15.7867 16.8888 15.5188C17.8881 15.2511 18.4845 14.2302 18.216 13.2284C17.9477 12.2269 16.9179 11.6303 15.9186 11.898Z" fill="#FFC100"/>
<path d="M17.5253 7.61506C17.4411 7.616 17.3573 7.62835 17.2763 7.65168L8.65204 9.96247C8.41233 10.0269 8.20796 10.1837 8.0837 10.3986C7.95945 10.6135 7.92546 10.8688 7.9892 11.1087C8.1362 11.6573 7.82964 12.1865 7.30074 12.3282C7.06103 12.3926 6.85665 12.5493 6.7324 12.7642C6.60814 12.9791 6.57415 13.2345 6.63788 13.4744L10.2707 27.0389C10.2984 27.1623 10.3507 27.2788 10.4246 27.3814C10.4985 27.4841 10.5924 27.5707 10.7006 27.6362C10.8089 27.7016 10.9292 27.7445 11.0545 27.7622C11.1797 27.7798 11.3072 27.772 11.4293 27.7392C11.5515 27.7063 11.6657 27.649 11.7651 27.5708C11.8645 27.4926 11.9471 27.3952 12.0079 27.2842C12.0686 27.1733 12.1063 27.0512 12.1187 26.9254C12.131 26.7995 12.1178 26.6724 12.0798 26.5518L8.58612 13.5147C9.22758 13.0377 9.57973 12.4257 9.66643 11.6287L17.7597 9.46076C17.9809 9.40394 18.1738 9.26828 18.3021 9.07933C18.4304 8.89037 18.4854 8.66104 18.4566 8.43445C18.4278 8.20787 18.3173 7.99963 18.1459 7.84875C17.9744 7.69786 17.7537 7.61478 17.5253 7.61506ZM42.1713 3.65632C41.9425 3.65867 41.7225 3.74459 41.5527 3.8979C41.3828 4.05122 41.275 4.26141 41.2493 4.48876C41.2236 4.71611 41.282 4.94495 41.4134 5.13226C41.5448 5.31958 41.7401 5.45239 41.9626 5.50568L55.7431 9.19709C56.127 9.30003 56.3329 9.65597 56.2302 10.0394L51.7624 26.7093C51.7244 26.8299 51.7111 26.9571 51.7235 27.0829C51.7358 27.2088 51.7735 27.3309 51.8343 27.4418C51.895 27.5528 51.9776 27.6502 52.077 27.7284C52.1765 27.8066 52.2907 27.8639 52.4128 27.8967C52.535 27.9296 52.6625 27.9374 52.7877 27.9197C52.913 27.902 53.0333 27.8592 53.1416 27.7937C53.2498 27.7283 53.3437 27.6417 53.4176 27.539C53.4915 27.4363 53.5438 27.3198 53.5715 27.1964L58.0392 10.5228C58.4024 9.16728 57.5855 7.74759 56.2302 7.38434L42.4497 3.69294C42.3592 3.66685 42.2654 3.65458 42.1713 3.65643V3.65632Z" fill="#FFC100"/>
<path d="M44.0844 11.898C45.0842 12.1659 45.6776 13.1974 45.4092 14.1991C45.1408 15.2007 44.1141 15.7867 43.1142 15.5188C42.1149 15.2511 41.5186 14.2302 41.787 13.2284C42.0553 12.2269 43.0851 11.6303 44.0844 11.898Z" fill="#FFC100"/>
<path d="M42.449 7.6153C42.223 7.62173 42.0069 7.70964 41.8405 7.86284C41.6742 8.01604 41.5688 8.22424 41.5438 8.449C41.5188 8.67376 41.576 8.9 41.7046 9.08598C41.8333 9.27196 42.0248 9.40511 42.2439 9.461L50.3372 11.629C50.4238 12.4259 50.776 13.0379 51.4175 13.515L47.8799 26.7132C47.8406 26.8343 47.8263 26.9621 47.838 27.0889C47.8497 27.2157 47.8871 27.3387 47.9479 27.4505C48.0087 27.5624 48.0916 27.6608 48.1916 27.7395C48.2916 27.8183 48.4066 27.8758 48.5296 27.9087C48.6526 27.9415 48.781 27.949 48.907 27.9306C49.033 27.9123 49.1538 27.8684 49.2623 27.8018C49.3708 27.7351 49.4646 27.6472 49.5379 27.5431C49.6113 27.4391 49.6627 27.3212 49.689 27.1966L53.3658 13.4747C53.4295 13.2348 53.3955 12.9794 53.2713 12.7646C53.147 12.5497 52.9426 12.3928 52.7029 12.3284C52.1741 12.1867 51.8674 11.6575 52.0144 11.109C52.0782 10.8691 52.0442 10.6137 51.92 10.3988C51.7957 10.184 51.5913 10.0271 51.3516 9.96271L42.7273 7.65192C42.6369 7.62584 42.5431 7.61357 42.449 7.61542V7.6153Z" fill="#FFC100"/>
<path d="M19.4405 -0.0419922C18.0373 -0.0419922 16.877 1.11455 16.877 2.51782V26.6145C16.8753 26.7387 16.8982 26.8621 16.9446 26.9774C16.9909 27.0927 17.0597 27.1976 17.1469 27.286C17.2341 27.3745 17.3381 27.4448 17.4527 27.4927C17.5673 27.5407 17.6903 27.5654 17.8145 27.5654C17.9388 27.5654 18.0618 27.5407 18.1764 27.4927C18.291 27.4448 18.395 27.3745 18.4822 27.286C18.5694 27.1976 18.6382 27.0927 18.6845 26.9774C18.7309 26.8621 18.7538 26.7387 18.752 26.6145V2.51782C18.752 2.12111 19.0433 1.83301 19.4405 1.83301H40.5636C40.9608 1.83301 41.2521 2.12113 41.2521 2.51782V26.6145C41.2503 26.7387 41.2733 26.8621 41.3196 26.9774C41.3659 27.0927 41.4347 27.1976 41.5219 27.286C41.6091 27.3745 41.7131 27.4448 41.8277 27.4927C41.9423 27.5407 42.0653 27.5654 42.1896 27.5654C42.3138 27.5654 42.4368 27.5407 42.5514 27.4927C42.666 27.4448 42.77 27.3745 42.8572 27.286C42.9444 27.1976 43.0132 27.0927 43.0595 26.9774C43.1059 26.8621 43.1288 26.7387 43.1271 26.6145V2.51782C43.1271 1.11453 41.9668 -0.0419922 40.5636 -0.0419922H19.4405Z" fill="#FFC100"/>
<path d="M30.0008 7.45801C31.0359 7.45801 31.876 8.30082 31.876 9.3377C31.876 10.3748 31.0359 11.2065 30.0008 11.2065C28.9662 11.2065 28.126 10.3748 28.126 9.3377C28.126 8.30082 28.9662 7.45801 30.0008 7.45801Z" fill="#FFC100"/>
<path d="M23.4835 3.70801C23.2349 3.70803 22.9964 3.80686 22.8206 3.98267C22.6448 4.15848 22.546 4.39687 22.546 4.64551C22.546 5.21343 22.112 5.6416 21.5645 5.6416C21.3159 5.64163 21.0775 5.74045 20.9017 5.91626C20.7259 6.09207 20.6271 6.33047 20.627 6.5791V26.8928C20.6253 27.0171 20.6482 27.1404 20.6946 27.2557C20.7409 27.371 20.8097 27.4759 20.8969 27.5644C20.9841 27.6528 21.0881 27.7231 21.2027 27.771C21.3173 27.819 21.4403 27.8437 21.5645 27.8437C21.6888 27.8437 21.8118 27.819 21.9264 27.771C22.041 27.7231 22.145 27.6528 22.2322 27.5644C22.3194 27.4759 22.3882 27.371 22.4345 27.2557C22.4809 27.1404 22.5038 27.0171 22.502 26.8928V7.12476C23.2443 6.83014 23.7426 6.32933 24.0328 5.58301H35.9713C36.2615 6.32933 36.7598 6.83016 37.502 7.12476V26.8928C37.5003 27.0171 37.5232 27.1404 37.5696 27.2557C37.6159 27.371 37.6847 27.4759 37.7719 27.5644C37.8591 27.6528 37.9631 27.7231 38.0777 27.771C38.1923 27.819 38.3153 27.8437 38.4395 27.8437C38.5638 27.8437 38.6868 27.819 38.8014 27.771C38.916 27.7231 39.02 27.6528 39.1072 27.5644C39.1944 27.4759 39.2632 27.371 39.3095 27.2557C39.3558 27.1404 39.3788 27.0171 39.3771 26.8928V6.5791C39.377 6.33047 39.2782 6.09207 39.1024 5.91626C38.9266 5.74045 38.6882 5.64163 38.4395 5.6416C37.8921 5.6416 37.4581 5.21335 37.4581 4.64551C37.4581 4.39687 37.3593 4.15848 37.1835 3.98267C37.0077 3.80686 36.7692 3.70803 36.5206 3.70801H23.4835Z" fill="#FFC100"/>
<path d="M8.37183 26.2061C6.06109 26.2061 4.14941 28.059 4.14941 30.3516V55.8948C4.14941 58.1873 6.06109 60.0439 8.37183 60.0439H52.0315C54.3422 60.0439 56.2502 58.1873 56.2502 55.8948V30.3516C56.2502 28.059 54.3422 26.2061 52.0315 26.2061H8.37183ZM8.37183 28.0811H52.0315C53.3588 28.0811 54.3752 29.0888 54.3752 30.3516V55.8948C54.3752 57.1576 53.3588 58.1689 52.0315 58.1689H8.37183C7.04451 58.1689 6.02441 57.1576 6.02441 55.8948V30.3516C6.02441 29.0888 7.04451 28.0811 8.37183 28.0811Z" fill="#FBFBFF"/>
<path fill-rule="evenodd" clip-rule="evenodd" d="M36.5186 37.46L33.75 40.1736V42.7407V47.8677L36.5186 50.5813H56.25V37.46H55.3125H36.5186ZM37.2839 39.335H54.375V48.7063H37.2839L35.625 47.0803V42.7407V40.9609L37.2839 39.335Z" fill="#FBFBFF"/>
<path d="M40.1807 41.4697C38.711 41.4697 37.5 42.6807 37.5 44.1504C37.5 45.6201 38.711 46.8311 40.1807 46.8311C41.6503 46.831 42.8613 45.62 42.8613 44.1504C42.8613 42.6807 41.6503 41.4697 40.1807 41.4697ZM40.1807 43.3447C40.6367 43.3447 40.9863 43.6938 40.9863 44.1504C40.9863 44.607 40.6367 44.956 40.1807 44.9561C39.7246 44.9561 39.375 44.607 39.375 44.1504C39.375 43.6938 39.7246 43.3447 40.1807 43.3447Z" fill="#FBFBFF"/>
</g>
<defs>
<clipPath id="clip0_142_4241">
<rect width="60" height="60" fill="white"/>
</clipPath>
</defs>
</svg>
