<svg width="60" height="60" viewBox="0 0 60 60" fill="none" xmlns="http://www.w3.org/2000/svg">
<g clip-path="url(#clip0_142_4267)">
<path d="M36.6018 -0.000976562C31.9242 -0.000976562 28.124 3.77664 28.124 8.43652V13.8088V14.7463H29.999V13.8088V8.43652C29.999 4.78865 32.9249 1.87402 36.6018 1.87402C40.2791 1.87402 43.2046 4.78865 43.2046 8.43652V13.8088V14.7463H45.0796V13.8088V8.43652C45.0796 3.77664 41.2797 -0.000976562 36.6018 -0.000976562Z" fill="#FBFBFF"/>
<path d="M25.3115 13.124C23.7695 13.124 22.499 14.3946 22.499 15.9365V25.3115V30.1602C22.4985 30.3473 22.5541 30.5303 22.6586 30.6857C22.763 30.841 22.9115 30.9615 23.085 31.0317C28.2343 33.1188 31.874 38.1534 31.874 44.0615C31.874 48.2719 30.0201 52.0286 27.0913 54.6084C26.9486 54.7343 26.8477 54.9007 26.8018 55.0854C26.7559 55.2701 26.7673 55.4643 26.8345 55.6424C26.9017 55.8204 27.0214 55.9738 27.1778 56.0822C27.3343 56.1906 27.5199 56.2487 27.7102 56.249H55.3115H57.1865C57.4352 56.249 57.6738 56.1502 57.8496 55.9744C58.0254 55.7986 58.124 55.5602 58.124 55.3115V15.9365C58.124 14.3946 56.8533 13.124 55.3115 13.124H25.3115ZM25.3115 14.999H55.3115C55.847 14.999 56.249 15.4009 56.249 15.9365V54.374H55.3115H29.5596C32.022 51.5714 33.749 48.0832 33.749 44.0615C33.749 37.6257 29.8768 32.1494 24.374 29.6365V25.3115V15.9365C24.374 15.4009 24.7758 14.999 25.3115 14.999Z" fill="#FFC100"/>
<path d="M32.8115 17.8115C31.2693 17.8115 29.999 19.0818 29.999 20.624C29.999 22.1662 31.2693 23.4365 32.8115 23.4365C34.3537 23.4365 35.624 22.1662 35.624 20.624C35.624 19.0818 34.3537 17.8115 32.8115 17.8115ZM32.8115 19.6865C33.3403 19.6865 33.749 20.0952 33.749 20.624C33.749 21.1529 33.3403 21.5615 32.8115 21.5615C32.2826 21.5615 31.874 21.1529 31.874 20.624C31.874 20.0952 32.2826 19.6865 32.8115 19.6865ZM47.8115 17.8115C46.2693 17.8115 44.999 19.0818 44.999 20.624C44.999 22.1662 46.2693 23.4365 47.8115 23.4365C49.3537 23.4365 50.624 22.1662 50.624 20.624C50.624 19.0818 49.3537 17.8115 47.8115 17.8115ZM47.8115 19.6865C48.3403 19.6865 48.749 20.0952 48.749 20.624C48.749 21.1529 48.3403 21.5615 47.8115 21.5615C47.2826 21.5615 46.874 21.1529 46.874 20.624C46.874 20.0952 47.2826 19.6865 47.8115 19.6865Z" fill="#FBFBFF"/>
<path d="M40.3518 1.87402C35.6742 1.87402 31.874 5.65164 31.874 10.3115V18.749V19.6865H33.749V18.749V10.3115C33.749 6.66365 36.6749 3.74902 40.3518 3.74902C44.0291 3.74902 46.9546 6.66365 46.9546 10.3115V18.749V19.6865H48.8296V18.749V10.3115C48.8296 5.65164 45.0297 1.87402 40.3518 1.87402Z" fill="#FBFBFF"/>
<path d="M19.6865 13.124C18.1445 13.124 16.874 14.3946 16.874 15.9365V15.9585C16.874 15.9597 16.874 15.961 16.874 15.9622C16.874 17.1865 17.6821 18.2553 18.8149 18.793C19.9546 19.334 21.2935 19.334 22.4331 18.793C23.566 18.2553 24.3648 17.1865 24.374 15.9622C24.374 15.961 24.374 15.9597 24.374 15.9585V15.9365C24.374 15.4009 24.7758 14.999 25.3115 14.999C25.5579 14.9955 25.7929 14.8952 25.9659 14.7198C26.1389 14.5444 26.236 14.3079 26.236 14.0615C26.236 13.8152 26.1389 13.5787 25.9659 13.4032C25.7929 13.2278 25.5579 13.1275 25.3115 13.124H19.6865ZM19.6865 14.999H22.8909C22.7615 15.3202 22.499 15.5717 22.499 15.9365V15.9515C22.499 16.3695 22.2244 16.8143 21.6274 17.0978C21.0267 17.3829 20.2214 17.3829 19.6206 17.0978C19.0236 16.8143 18.752 16.3695 18.749 15.9515V15.9365C18.749 15.4009 19.1508 14.999 19.6865 14.999Z" fill="#FFC100"/>
<path d="M19.6865 13.124C18.1445 13.124 16.874 14.3946 16.874 15.9365V25.3115V29.0579C16.874 29.3065 16.9729 29.545 17.1487 29.7208C17.3245 29.8966 17.5629 29.9953 17.8115 29.9954C19.6779 29.9954 21.4522 30.37 23.085 31.0317C23.2275 31.0894 23.3821 31.1111 23.5349 31.0949C23.6878 31.0788 23.8342 31.0253 23.9616 30.9392C24.0889 30.8531 24.1932 30.737 24.2651 30.6012C24.337 30.4653 24.3744 30.3139 24.374 30.1602V25.3115V15.9365C24.374 15.4009 24.7758 14.999 25.3115 14.999C25.5579 14.9955 25.7929 14.8952 25.9659 14.7198C26.1389 14.5444 26.236 14.3079 26.236 14.0615C26.236 13.8152 26.1389 13.5787 25.9659 13.4032C25.7929 13.2278 25.5579 13.1275 25.3115 13.124H19.6865ZM19.6865 14.999H22.8909C22.7615 15.3202 22.499 15.5717 22.499 15.9365V25.3115V29.0396C21.2971 28.6611 20.0559 28.3853 18.749 28.3035V25.3115V15.9365C18.749 15.4009 19.1508 14.999 19.6865 14.999Z" fill="#FFC100"/>
<path d="M17.8115 28.124C9.02021 28.124 1.87402 35.2699 1.87402 44.0615C1.87402 52.8534 9.02021 59.999 17.8115 59.999C26.6025 59.999 33.749 52.8534 33.749 44.0615C33.749 35.2698 26.6025 28.124 17.8115 28.124ZM16.874 30.1895V35.624H6.84717C9.22804 32.5301 12.7342 30.4762 16.874 30.1895ZM18.749 30.1895C22.8886 30.4762 26.3985 32.5301 28.7795 35.624H18.749V30.1895ZM5.58374 37.499H16.874V43.124H3.93945C4.08195 41.0776 4.66199 39.2099 5.58374 37.499ZM18.749 37.499H30.043C30.9645 39.2098 31.5418 41.0777 31.6836 43.124H18.749V37.499ZM3.93945 44.999H16.874V50.624H5.58374C4.66199 48.9132 4.0812 47.0455 3.93945 44.999ZM18.749 44.999H31.6836C31.5411 47.0454 30.9645 48.9132 30.043 50.624H18.749V44.999ZM6.84717 52.499H16.874V57.9336C12.7342 57.6469 9.22804 55.5929 6.84717 52.499ZM18.749 52.499H28.7795C26.3985 55.5929 22.8886 57.6469 18.749 57.9336V52.499Z" fill="#FBFBFF"/>
<path fill-rule="evenodd" clip-rule="evenodd" d="M11.7841 29.7461C7.91164 39.2826 7.27086 48.3721 11.4911 58.2666L13.216 57.5342C9.18227 48.0768 9.77385 39.6747 13.5199 30.4492L11.7841 29.7461ZM23.7299 29.7461L21.9904 30.4492C25.7366 39.6747 26.3319 48.0768 22.298 57.5342L24.0228 58.2666C28.2431 48.3721 27.6025 39.2826 23.7299 29.7461Z" fill="#FBFBFF"/>
</g>
<defs>
<clipPath id="clip0_142_4267">
<rect width="60" height="60" fill="white"/>
</clipPath>
</defs>
</svg>
