<svg width="60" height="60" viewBox="0 0 60 60" fill="none" xmlns="http://www.w3.org/2000/svg">
<path d="M9.375 3.125H18.75C22.2018 3.125 25 5.92322 25 9.375V18.75C25 22.2018 22.2018 25 18.75 25H9.375C5.92322 25 3.125 22.2018 3.125 18.75V9.375C3.125 5.92322 5.92322 3.125 9.375 3.125Z" stroke="#FBFBFF" stroke-width="2.5"/>
<path d="M50.625 1.875H41.25C37.1079 1.875 33.75 5.23286 33.75 9.375V18.75C33.75 22.8921 37.1079 26.25 41.25 26.25H50.625C54.7671 26.25 58.125 22.8921 58.125 18.75V9.375C58.125 5.23286 54.7671 1.875 50.625 1.875Z" fill="#FFC100"/>
<path d="M9.375 35H18.75C22.2018 35 25 37.7982 25 41.25V50.625C25 54.0768 22.2018 56.875 18.75 56.875H9.375C5.92322 56.875 3.125 54.0768 3.125 50.625V41.25C3.125 37.7982 5.92322 35 9.375 35Z" stroke="#FBFBFF" stroke-width="2.5"/>
<path d="M41.25 35H50.625C54.0768 35 56.875 37.7982 56.875 41.25V50.625C56.875 54.0768 54.0768 56.875 50.625 56.875H41.25C37.7982 56.875 35 54.0768 35 50.625V41.25C35 37.7982 37.7982 35 41.25 35Z" stroke="#FBFBFF" stroke-width="2.5"/>
</svg>
