<svg width="60" height="60" viewBox="0 0 60 60" fill="none" xmlns="http://www.w3.org/2000/svg">
<g clip-path="url(#clip0_142_4258)">
<path fill-rule="evenodd" clip-rule="evenodd" d="M30 -0.000976562C13.4426 -0.000976562 0 13.4416 0 29.999C0 46.5566 13.4426 59.999 30 59.999C46.5574 59.999 60 46.5566 60 29.999C60 13.4416 46.5574 -0.000976562 30 -0.000976562ZM30 1.87402C45.5441 1.87402 58.125 14.4549 58.125 29.999C58.125 45.5431 45.5441 58.124 30 58.124C14.4559 58.124 1.875 45.5431 1.875 29.999C1.875 14.4549 14.4559 1.87402 30 1.87402Z" fill="#FBFBFF"/>
<path fill-rule="evenodd" clip-rule="evenodd" d="M30 5.62402C16.5492 5.62402 5.625 16.5481 5.625 29.999C5.625 43.4499 16.5492 54.374 30 54.374C43.4508 54.374 54.375 43.4499 54.375 29.999C54.375 16.5481 43.4508 5.62402 30 5.62402ZM30 7.49902C42.4375 7.49902 52.5 17.5616 52.5 29.999C52.5 42.4366 42.4375 52.499 30 52.499C17.5625 52.499 7.5 42.4366 7.5 29.999C7.5 17.5616 17.5625 7.49902 30 7.49902Z" fill="#FBFBFF"/>
<path fill-rule="evenodd" clip-rule="evenodd" d="M29.0625 9.37402V13.124H30.9375V9.37402H29.0625ZM29.0625 46.874V50.624H30.9375V46.874H29.0625ZM46.875 29.0615V30.9365H50.625V29.0615H46.875ZM9.375 29.0615V30.9365H13.125V29.0615H9.375ZM42.594 41.271L41.2683 42.5967L43.9197 45.248L45.2454 43.9224L42.594 41.271ZM16.0803 14.7537L14.7546 16.0793L17.406 18.7307L18.7317 17.405L16.0803 14.7537ZM43.9197 14.7537L41.2683 17.405L42.594 18.7307L45.2454 16.0793L43.9197 14.7537ZM17.406 41.271L14.7546 43.9224L16.0803 45.248L18.7317 42.5967L17.406 41.271Z" fill="#FFC100"/>
<path d="M26.9781 26.5018C25.2352 28.2446 25.2352 31.0981 26.9781 32.8409C28.721 34.5837 31.5769 34.5864 33.3198 32.8409C35.0627 31.0979 35.0627 28.2394 33.3198 26.4966C31.5769 24.7537 28.721 24.7564 26.9781 26.4966V26.5018ZM28.3039 27.8277C29.3303 26.8014 30.9676 26.7987 31.994 27.8277C33.0204 28.8541 33.0204 30.4939 31.994 31.5203C30.9676 32.5467 29.3303 32.544 28.3039 31.5203C27.2776 30.4939 27.2776 28.8594 28.3039 27.833V27.8277Z" fill="#FFC100"/>
<path fill-rule="evenodd" clip-rule="evenodd" d="M18.75 18.7559L26.6785 32.4998L26.7663 32.5879L27.2937 33.1189L41.2573 41.2341L33.6804 26.8274L33.0945 26.2964L18.75 18.7559ZM23.6096 23.425L32.0142 27.8452L32.1753 27.9915L36.5625 36.3374L28.4473 31.6206L28.1836 31.3533L23.6096 23.4248L23.6096 23.425Z" fill="#FFC100"/>
</g>
<defs>
<clipPath id="clip0_142_4258">
<rect width="60" height="60" fill="white"/>
</clipPath>
</defs>
</svg>
