<svg width="195" height="195" viewBox="0 0 195 195" fill="none" xmlns="http://www.w3.org/2000/svg">
<path d="M169.707 104.481C169.869 102.58 170.63 101.061 171.991 99.9246C173.351 98.7998 174.946 98.3153 176.776 98.471C178.605 98.6266 180.095 99.3736 181.246 100.712C182.396 102.062 182.89 103.688 182.728 105.589C182.63 106.737 182.266 107.766 181.635 108.676C181.002 109.597 180.197 110.288 179.219 110.746L178.499 109.222C179.223 108.922 179.819 108.431 180.286 107.748C180.765 107.078 181.041 106.313 181.114 105.452C181.237 104.005 180.871 102.782 180.017 101.782C179.161 100.794 178.034 100.24 176.635 100.121C175.248 100.003 174.05 100.359 173.04 101.188C172.029 102.029 171.462 103.173 171.339 104.62C171.266 105.481 171.403 106.282 171.749 107.022C172.107 107.775 172.611 108.359 173.262 108.776L172.313 110.159C171.426 109.553 170.742 108.742 170.262 107.726C169.795 106.711 169.609 105.629 169.707 104.481Z" fill="#182F43"/>
<path d="M168.408 119.031C167.743 117.916 167.569 116.717 167.885 115.435C168.201 114.154 168.913 113.174 170.019 112.495C171.123 111.828 172.322 111.654 173.615 111.973C174.908 112.292 175.888 113.004 176.555 114.108C177.219 115.224 177.394 116.422 177.078 117.704C176.762 118.985 176.05 119.965 174.944 120.644C173.837 121.323 172.637 121.502 171.344 121.183C170.051 120.864 169.072 120.147 168.408 119.031ZM169.371 115.802C169.155 116.676 169.271 117.483 169.719 118.224C170.167 118.965 170.833 119.444 171.719 119.663C172.604 119.881 173.417 119.767 174.158 119.319C174.899 118.872 175.377 118.211 175.592 117.337C175.805 116.475 175.687 115.674 175.24 114.933C174.792 114.192 174.125 113.712 173.24 113.494C172.354 113.275 171.541 113.39 170.801 113.837C170.06 114.285 169.583 114.94 169.371 115.802Z" fill="#182F43"/>
<path d="M173.491 128.813C173.098 129.793 172.472 130.453 171.611 130.793C170.762 131.138 169.808 131.098 168.75 130.673L163.622 128.615L164.205 127.162L169.25 129.186C169.929 129.459 170.526 129.485 171.041 129.265C171.567 129.049 171.96 128.619 172.219 127.973C172.509 127.249 172.515 126.572 172.237 125.943C171.97 125.319 171.369 124.819 170.433 124.444L166.007 122.668L166.589 121.214L174.942 124.566L174.359 126.019L173.156 125.537C173.866 126.507 173.978 127.599 173.491 128.813Z" fill="#182F43"/>
<path d="M166.887 138.46L168.02 136.351L163.723 134.042C163.332 133.832 163.012 133.755 162.763 133.812C162.52 133.886 162.307 134.078 162.126 134.39C161.956 134.707 161.757 135.104 161.528 135.58L160.291 134.915C160.78 133.625 161.349 132.793 161.999 132.42C162.659 132.053 163.481 132.134 164.464 132.662L168.761 134.972L169.604 133.402L170.936 134.118L170.092 135.687L171.9 136.659L171.571 138.26L169.351 137.067L168.219 139.176L166.887 138.46Z" fill="#182F43"/>
<path d="M164.9 141.628C165.557 142.668 165.517 143.757 164.781 144.896L163.406 144.006C163.853 143.38 164.04 142.715 163.966 142.011C163.893 141.306 163.444 140.686 162.617 140.152L158.612 137.561L159.462 136.246L167.019 141.134L166.169 142.449L164.9 141.628Z" fill="#182F43"/>
<path d="M152.706 147.357C152.578 146.065 152.929 144.906 153.759 143.879C154.588 142.853 155.648 142.267 156.938 142.122C158.22 141.986 159.379 142.337 160.415 143.175C161.451 144.012 162.036 145.073 162.172 146.355C162.3 147.648 161.95 148.807 161.12 149.834C160.29 150.86 159.23 151.446 157.94 151.591C156.65 151.736 155.488 151.39 154.452 150.552C153.416 149.714 152.835 148.649 152.706 147.357ZM154.948 144.841C154.382 145.541 154.145 146.322 154.236 147.183C154.327 148.043 154.727 148.761 155.436 149.334C156.146 149.908 156.93 150.149 157.791 150.058C158.651 149.967 159.365 149.571 159.93 148.871C160.489 148.181 160.722 147.405 160.631 146.544C160.54 145.683 160.14 144.966 159.431 144.393C158.722 143.819 157.937 143.578 157.076 143.669C156.216 143.76 155.506 144.151 154.948 144.841Z" fill="#182F43"/>
<path d="M149.86 148.67L159.25 157.861L158.155 158.981L148.765 149.79L149.86 148.67Z" fill="#182F43"/>
<path d="M141.485 151.575L151.895 164.454L150.677 165.438L140.267 152.559L141.485 151.575Z" fill="#182F43"/>
<path d="M134.502 159.997C135.517 159.402 136.526 159.131 137.529 159.182C138.523 159.24 139.407 159.598 140.182 160.257L139.358 161.699C138.163 160.633 136.81 160.542 135.299 161.428C134.553 161.865 134.072 162.349 133.854 162.88C133.643 163.421 133.685 163.945 133.982 164.453C134.286 164.971 134.71 165.244 135.255 165.272C135.8 165.3 136.618 165.189 137.709 164.939C138.25 164.817 138.663 164.728 138.95 164.671C139.242 164.625 139.621 164.584 140.087 164.547C140.548 164.527 140.921 164.559 141.206 164.642C141.498 164.736 141.807 164.896 142.134 165.121C142.45 165.353 142.723 165.666 142.954 166.059C143.506 167.002 143.611 167.941 143.27 168.878C142.935 169.826 142.291 170.579 141.338 171.137C140.479 171.641 139.606 171.86 138.72 171.795C137.823 171.736 137.005 171.444 136.266 170.917L137.068 169.508C138.189 170.354 139.339 170.431 140.52 169.739C141.11 169.393 141.501 168.969 141.694 168.467C141.886 167.965 141.837 167.465 141.546 166.968C141.267 166.491 140.884 166.229 140.397 166.181C139.91 166.133 139.168 166.219 138.172 166.442C137.817 166.524 137.565 166.581 137.417 166.613C137.268 166.644 137.034 166.684 136.715 166.732C136.385 166.786 136.14 166.819 135.979 166.829C135.818 166.84 135.601 166.849 135.327 166.857C135.043 166.87 134.819 166.855 134.655 166.813C134.491 166.77 134.296 166.71 134.07 166.633C133.841 166.573 133.649 166.484 133.496 166.365C133.343 166.246 133.185 166.095 133.022 165.912C132.855 165.746 132.705 165.549 132.572 165.321C132.014 164.368 131.915 163.404 132.275 162.428C132.642 161.462 133.384 160.652 134.502 159.997Z" fill="#182F43"/>
<path d="M123.011 167.803C123.502 166.601 124.354 165.741 125.568 165.222C126.782 164.703 127.993 164.681 129.201 165.156C130.397 165.637 131.258 166.489 131.781 167.714C132.304 168.939 132.326 170.15 131.845 171.347C131.354 172.549 130.501 173.409 129.288 173.928C128.074 174.447 126.863 174.469 125.655 173.994C124.447 173.518 123.582 172.668 123.059 171.443C122.535 170.218 122.519 169.005 123.011 167.803ZM126.169 166.629C125.342 166.982 124.767 167.561 124.444 168.364C124.122 169.168 124.14 169.989 124.498 170.827C124.857 171.666 125.437 172.247 126.241 172.569C127.044 172.891 127.859 172.875 128.687 172.521C129.503 172.172 130.073 171.596 130.395 170.793C130.717 169.989 130.699 169.168 130.341 168.33C129.983 167.491 129.402 166.911 128.599 166.588C127.796 166.266 126.986 166.28 126.169 166.629Z" fill="#182F43"/>
<path d="M119.916 167.614L123.924 180.128L122.433 180.606L118.425 168.092L119.916 167.614Z" fill="#182F43"/>
<path d="M112.564 178.835L111.034 179.169L109.113 170.377L110.643 170.042L110.92 171.308C111.323 170.176 112.164 169.47 113.442 169.191C114.473 168.965 115.37 169.107 116.132 169.616C116.897 170.136 117.401 170.953 117.645 172.067L118.824 177.466L117.294 177.8L116.134 172.49C115.978 171.775 115.663 171.26 115.189 170.946C114.717 170.644 114.142 170.567 113.462 170.716C112.7 170.882 112.135 171.251 111.769 171.823C111.405 172.406 111.331 173.19 111.546 174.175L112.564 178.835Z" fill="#182F43"/>
<path d="M102.549 178.645L104.93 178.396L104.423 173.545C104.377 173.103 104.261 172.796 104.074 172.622C103.876 172.462 103.597 172.394 103.238 172.42C102.88 172.457 102.44 172.515 101.917 172.594L101.771 171.198C103.113 170.877 104.121 170.88 104.795 171.208C105.47 171.547 105.865 172.272 105.981 173.382L106.488 178.234L108.26 178.048L108.417 179.552L106.645 179.737L106.858 181.778L105.349 182.407L105.087 179.9L102.706 180.149L102.549 178.645Z" fill="#182F43"/>
<path d="M99.7024 181.896C100.002 181.885 100.258 181.978 100.469 182.175C100.68 182.372 100.79 182.614 100.8 182.902C100.81 183.19 100.717 183.439 100.52 183.65C100.323 183.873 100.075 183.99 99.7756 184C99.4877 184.01 99.2381 183.911 99.0268 183.702C98.8158 183.505 98.7053 183.263 98.6953 182.975C98.6853 182.687 98.7787 182.438 98.9755 182.227C99.1723 182.016 99.4146 181.906 99.7024 181.896ZM100.125 171.236L100.437 180.231L98.872 180.285L98.5596 171.291L100.125 171.236Z" fill="#182F43"/>
<path d="M88.789 172.084C89.7675 171.231 90.9154 170.845 92.2329 170.927C93.5504 171.008 94.6422 171.533 95.5082 172.5C96.3622 173.466 96.7481 174.614 96.666 175.944C96.5838 177.273 96.0595 178.365 95.093 179.219C94.1145 180.072 92.9665 180.458 91.649 180.377C90.3316 180.295 89.2398 179.771 88.3738 178.804C87.5078 177.836 87.1159 176.688 87.198 175.359C87.2802 174.029 87.8105 172.938 88.789 172.084ZM92.1386 172.454C91.2403 172.398 90.4669 172.657 89.8183 173.23C89.1697 173.803 88.8173 174.545 88.7611 175.455C88.7048 176.365 88.9632 177.145 89.5363 177.793C90.1094 178.442 90.8451 178.794 91.7434 178.85C92.6297 178.904 93.3972 178.645 94.0457 178.072C94.6943 177.499 95.0467 176.758 95.103 175.847C95.1592 174.937 94.9008 174.158 94.3277 173.509C93.7546 172.86 93.0249 172.509 92.1386 172.454Z" fill="#182F43"/>
<path d="M80.1484 178.846C79.1134 178.636 78.351 178.139 77.8611 177.354C77.3688 176.58 77.2358 175.635 77.4621 174.518L78.5592 169.102L80.094 169.413L79.0148 174.741C78.8695 175.458 78.9515 176.05 79.261 176.517C79.5681 176.996 80.0627 177.304 80.7449 177.442C81.5093 177.597 82.1756 177.481 82.7437 177.095C83.3094 176.72 83.6924 176.038 83.8925 175.05L84.8395 170.375L86.3743 170.686L84.5875 179.507L83.0527 179.196L83.31 177.926C82.4842 178.799 81.4303 179.106 80.1484 178.846Z" fill="#182F43"/>
<path d="M73.075 163.552L67.2012 179.036L65.7371 178.48L71.611 162.997L73.075 163.552Z" fill="#182F43"/>
<path d="M53.2475 172.027C52.2454 171.435 51.6121 170.607 51.3475 169.545C51.0666 168.487 51.2189 167.462 51.8047 166.47C52.3844 165.488 53.2083 164.86 54.2764 164.585C55.3342 164.304 56.3641 164.46 57.3662 165.052L59.8611 166.527L62.1493 162.652L63.5905 163.504L57.1836 174.353L53.2475 172.027ZM56.5699 166.401C55.9708 166.047 55.3559 165.955 54.7253 166.126C54.0887 166.307 53.5904 166.703 53.2304 167.312C52.8643 167.932 52.7585 168.56 52.9131 169.195C53.0677 169.83 53.4446 170.324 54.0438 170.679L56.5387 172.153L59.0649 167.875L56.5699 166.401Z" fill="#182F43"/>
<path d="M48.4585 162.7C47.3764 163.283 46.2929 163.168 45.2083 162.354L46.1908 161.043C46.7836 161.533 47.4339 161.766 48.1417 161.742C48.8496 161.718 49.4987 161.312 50.0889 160.525L52.9502 156.709L54.2029 157.648L48.8042 164.849L47.5516 163.91L48.4585 162.7Z" fill="#182F43"/>
<path d="M43.618 150.147C44.9154 150.108 46.0474 150.538 47.0139 151.438C47.9804 152.337 48.4915 153.435 48.5471 154.732C48.594 156.021 48.164 157.154 47.2572 158.129C46.3503 159.105 45.2526 159.616 43.9639 159.663C42.6664 159.702 41.5344 159.271 40.5679 158.372C39.6014 157.473 39.0904 156.375 39.0347 155.078C38.9791 153.781 39.4047 152.644 40.3115 151.668C41.2184 150.693 42.3205 150.186 43.618 150.147ZM45.9723 152.558C45.3133 151.945 44.5514 151.654 43.6866 151.686C42.8219 151.717 42.079 152.067 41.4581 152.735C40.8372 153.403 40.5425 154.17 40.574 155.035C40.6054 155.9 40.9506 156.639 41.6096 157.252C42.2598 157.857 43.0173 158.143 43.882 158.112C44.7468 158.08 45.4896 157.731 46.1105 157.063C46.7314 156.395 47.0262 155.628 46.9947 154.763C46.9633 153.898 46.6225 153.163 45.9723 152.558Z" fill="#182F43"/>
<path d="M31.6905 148.361L30.6126 147.057L39.8412 144.096L41.0108 145.511L36.3691 154.022L35.2912 152.718L39.1361 145.87L31.6905 148.361Z" fill="#182F43"/>
<path d="M27.6033 145.47C27.7735 145.717 27.8324 145.983 27.7802 146.267C27.7279 146.55 27.5832 146.774 27.3461 146.937C27.109 147.101 26.8486 147.156 26.5649 147.104C26.2713 147.059 26.0395 146.912 25.8693 146.665C25.7059 146.428 25.6553 146.164 25.7175 145.874C25.7697 145.59 25.9144 145.366 26.1515 145.203C26.3887 145.039 26.6491 144.984 26.9327 145.036C27.2164 145.088 27.4399 145.233 27.6033 145.47ZM36.8115 140.085L29.4012 145.193L28.5129 143.903L35.9232 138.796L36.8115 140.085Z" fill="#182F43"/>
<path d="M28.4755 139.369C28.777 139.195 28.9345 138.904 28.948 138.494C28.9512 138.091 28.8872 137.643 28.7561 137.151C28.6146 136.664 28.4939 136.166 28.394 135.656C28.2837 135.152 28.3133 134.65 28.4828 134.151C28.6418 133.657 28.9865 133.258 29.5168 132.952C30.2239 132.545 30.9492 132.494 31.6928 132.8C32.4305 133.095 33.0448 133.669 33.5357 134.522C33.9728 135.281 34.1806 136.027 34.1593 136.759C34.1379 137.492 33.9175 138.131 33.4981 138.677L32.1539 137.894C32.4564 137.553 32.618 137.149 32.6388 136.68C32.6595 136.211 32.5322 135.737 32.2568 135.258C31.9994 134.811 31.7036 134.49 31.3696 134.295C31.0252 134.105 30.6711 134.116 30.3071 134.325C30.0056 134.499 29.8533 134.787 29.8501 135.191C29.8366 135.6 29.9006 136.048 30.0421 136.534C30.1732 137.027 30.2887 137.528 30.3886 138.038C30.4885 138.549 30.4589 139.05 30.2998 139.544C30.1407 140.037 29.8013 140.433 29.2814 140.733C28.6055 141.122 27.8996 141.183 27.1635 140.914C26.4214 140.636 25.8229 140.101 25.3679 139.311C25.0026 138.676 24.8249 138.031 24.8346 137.374C24.828 136.713 25.0076 136.111 25.3733 135.568L26.6684 136.339C26.1646 137.003 26.1522 137.751 26.6312 138.583C26.8527 138.968 27.1349 139.241 27.4777 139.404C27.8102 139.572 28.1427 139.561 28.4755 139.369Z" fill="#182F43"/>
<path d="M20.8338 133.683C20.9618 133.954 20.9772 134.225 20.8798 134.497C20.7824 134.769 20.6035 134.966 20.3431 135.089C20.0827 135.212 19.8167 135.225 19.5452 135.127C19.2628 135.035 19.0576 134.853 18.9295 134.582C18.8066 134.322 18.7993 134.053 18.9075 133.776C19.0049 133.505 19.1838 133.307 19.4442 133.184C19.7046 133.061 19.9706 133.049 20.2421 133.146C20.5136 133.243 20.7109 133.422 20.8338 133.683ZM30.7908 129.855L22.6529 133.699L21.9845 132.283L30.1224 128.439L30.7908 129.855Z" fill="#182F43"/>
<path d="M25.6489 120.121C26.821 120.678 27.6319 121.578 28.0815 122.819C28.5311 124.06 28.4846 125.27 27.9419 126.45C27.3952 127.618 26.4957 128.429 25.2435 128.883C23.9912 129.337 22.7811 129.291 21.6131 128.745C20.441 128.187 19.6301 127.287 19.1805 126.046C18.7308 124.805 18.7773 123.595 19.32 122.415C19.8626 121.236 20.7601 120.419 22.0123 119.965C23.2646 119.511 24.4767 119.563 25.6489 120.121ZM26.6431 123.34C26.3365 122.494 25.7914 121.888 25.0075 121.521C24.2237 121.154 23.4031 121.126 22.5457 121.437C21.6884 121.748 21.0762 122.295 20.7093 123.079C20.3424 123.863 20.3123 124.678 20.6188 125.525C20.9213 126.36 21.4645 126.96 22.2483 127.327C23.0321 127.694 23.8527 127.722 24.7101 127.411C25.5675 127.1 26.1796 126.553 26.5465 125.769C26.9134 124.985 26.9456 124.175 26.6431 123.34Z" fill="#182F43"/>
<path d="M15.9966 114.813C15.7791 113.78 15.9336 112.883 16.4601 112.122C16.9749 111.364 17.7901 110.867 18.9056 110.632L24.3129 109.493L24.6355 111.025L19.3162 112.146C18.6 112.297 18.0889 112.607 17.783 113.076C17.4653 113.547 17.3782 114.124 17.5215 114.805C17.6822 115.568 18.0527 116.134 18.633 116.502C19.2016 116.873 19.9791 116.954 20.9654 116.747L25.633 115.763L25.9556 117.296L17.1489 119.151L16.8263 117.619L18.0944 117.351C16.9653 116.939 16.2661 116.093 15.9966 114.813Z" fill="#182F43"/>
<path d="M27.2278 102.332L10.6855 103.099L10.6131 101.534L27.1553 100.767L27.2278 102.332Z" fill="#182F43"/>
<path d="M24.6765 91.1636C24.5498 92.3328 24.1669 93.3052 23.5276 94.0808C22.8897 94.8445 22.0754 95.3417 21.0848 95.5722L20.4167 94.0514C21.9848 93.7265 22.8632 92.6931 23.0519 90.9513C23.1449 90.0924 23.043 89.4174 22.7462 88.9266C22.4374 88.4344 21.9907 88.1567 21.4061 88.0933C20.8096 88.0287 20.3377 88.2068 19.9903 88.6278C19.6429 89.0489 19.2447 89.7722 18.7957 90.7977C18.5718 91.3046 18.3973 91.69 18.2721 91.954C18.135 92.2168 17.9424 92.546 17.6944 92.9415C17.4357 93.3239 17.188 93.6048 16.9513 93.7844C16.7027 93.9626 16.3904 94.1158 16.0144 94.2441C15.6397 94.3604 15.2256 94.3939 14.7723 94.3448C13.6867 94.2271 12.869 93.7522 12.3195 92.9202C11.7579 92.0868 11.5366 91.1213 11.6555 90.0237C11.7628 89.0335 12.1063 88.2017 12.6862 87.5283C13.2674 86.8429 13.9896 86.3599 14.8529 86.0793L15.507 87.5625C14.1604 87.9597 13.4134 88.8383 13.2661 90.1983C13.1924 90.8783 13.3 91.4452 13.5888 91.899C13.8776 92.3528 14.3083 92.6107 14.881 92.6728C15.4298 92.7323 15.8687 92.5807 16.1976 92.218C16.5266 91.8554 16.8985 91.2077 17.3134 90.2749C17.4582 89.9406 17.5622 89.7044 17.6255 89.5665C17.6887 89.4285 17.7961 89.2168 17.9477 88.9315C18.1006 88.6342 18.2206 88.4179 18.3077 88.2825C18.3948 88.1471 18.5169 87.9672 18.674 87.7428C18.8323 87.5065 18.9776 87.3352 19.1098 87.2288C19.2421 87.1224 19.4061 87.0014 19.6018 86.8657C19.7869 86.7168 19.9728 86.6162 20.1595 86.5641C20.3462 86.5119 20.5615 86.4749 20.8053 86.453C21.0384 86.4179 21.2862 86.4146 21.5486 86.4431C22.6462 86.562 23.4798 87.0568 24.0494 87.9272C24.607 88.7964 24.816 89.8752 24.6765 91.1636Z" fill="#182F43"/>
<path d="M18.2767 78.6362L17.7835 80.9789L22.5568 81.9845C22.9912 82.076 23.3197 82.0594 23.5422 81.9346C23.7554 81.7955 23.905 81.5511 23.9909 81.2013C24.065 80.849 24.1447 80.4121 24.23 79.8905L25.6039 80.1799C25.4982 81.5557 25.1861 82.5139 24.6676 83.0546C24.1373 83.5929 23.3262 83.747 22.2341 83.5169L17.4609 82.5113L17.0938 84.255L15.6143 83.9433L15.9814 82.1996L13.9735 81.7765L13.8381 80.1476L16.304 80.6672L16.7972 78.3245L18.2767 78.6362Z" fill="#182F43"/>
<path d="M19.6167 69.1339L20.1168 67.6499L28.645 70.5257L28.1449 72.0098L26.6781 71.5151C27.5547 72.6339 27.7555 73.8983 27.2803 75.3084C26.878 76.5025 26.1029 77.3745 24.9552 77.9246C23.7961 78.4709 22.5911 78.5331 21.3403 78.1113C20.0895 77.6895 19.1738 76.9122 18.5932 75.7792C18.0012 74.6425 17.9063 73.4771 18.3087 72.283C18.7838 70.873 19.7088 69.9881 21.0836 69.6286L19.6167 69.1339ZM25.9108 74.6376C26.202 73.7734 26.1554 72.9535 25.7709 72.178C25.375 71.3986 24.745 70.8633 23.8808 70.5718C23.0166 70.2804 22.1969 70.3269 21.4215 70.7113C20.6348 71.0919 20.0959 71.7143 19.8046 72.5786C19.5172 73.4314 19.5715 74.2476 19.9673 75.0269C20.3518 75.8024 20.9762 76.3359 21.8404 76.6273C22.7046 76.9187 23.53 76.8741 24.3167 76.4936C25.092 76.1092 25.6234 75.4905 25.9108 74.6376Z" fill="#182F43"/>
<path d="M23.5452 59.8108C24.1249 58.6921 25.0291 57.9512 26.258 57.5881C27.4761 57.2195 28.6711 57.339 29.8429 57.9466C31.0148 58.5543 31.8065 59.465 32.2183 60.6788C32.6194 61.887 32.5301 63.0505 31.9504 64.1693C31.2658 65.4905 30.2168 66.2239 28.8033 66.3696L30.1775 67.0822L29.4571 68.4726L18.2715 62.6724L18.9919 61.2819L23.5621 63.6517C22.8663 62.4123 22.8607 61.132 23.5452 59.8108ZM30.517 63.6491C30.9311 62.85 31.0072 62.0379 30.7455 61.2127C30.4731 60.3821 29.9321 59.7569 29.1225 59.3371C28.3129 58.9172 27.4956 58.8381 26.6708 59.0998C25.8352 59.3559 25.2105 59.8836 24.7964 60.6827C24.3768 61.4924 24.3032 62.3126 24.5756 63.1432C24.8374 63.9684 25.3731 64.5908 26.1827 65.0106C26.9923 65.4305 27.8149 65.5123 28.6504 65.2562C29.4752 64.9945 30.0975 64.4588 30.517 63.6491Z" fill="#182F43"/>
<path d="M26.3956 52.1404C26.2318 52.3918 26.0088 52.5472 25.7266 52.6067C25.4443 52.6662 25.1826 52.6173 24.9413 52.46C24.7001 52.3027 24.5497 52.0828 24.4902 51.8005C24.4206 51.5116 24.4678 51.2415 24.6315 50.9901C24.7888 50.7488 25.0135 50.6017 25.3058 50.5488C25.5881 50.4893 25.8498 50.5382 26.0911 50.6955C26.3323 50.8528 26.4827 51.0726 26.5422 51.355C26.6017 51.6373 26.5528 51.8991 26.3956 52.1404ZM34.8741 58.6146L27.3353 53.6987L28.1902 52.3866L35.729 57.3026L34.8741 58.6146Z" fill="#182F43"/>
<path d="M37.0085 55.4385L26.3838 47.707L27.3048 46.4405L37.9294 54.172L37.0085 55.4385Z" fill="#182F43"/>
<path d="M31.2238 45.4535C31.036 45.6875 30.7988 45.8202 30.5121 45.8516C30.2253 45.883 29.9697 45.8086 29.7451 45.6283C29.5205 45.4479 29.3925 45.2144 29.3611 44.9275C29.3204 44.6332 29.3938 44.369 29.5816 44.135C29.7618 43.9104 29.9999 43.7861 30.296 43.7622C30.5828 43.7308 30.8384 43.8053 31.063 43.9856C31.2876 44.1659 31.4156 44.3994 31.447 44.6863C31.4784 44.9731 31.404 45.2289 31.2238 45.4535ZM39.0234 52.7313L32.0054 47.0967L32.9854 45.8753L40.0034 51.5098L39.0234 52.7313Z" fill="#182F43"/>
<path d="M39.1266 41.2225L37.5031 42.9819L41.0869 46.2913C41.4131 46.5925 41.7036 46.7465 41.9586 46.7533C42.2129 46.7431 42.4666 46.6098 42.7195 46.3534C42.9637 46.0888 43.2559 45.7544 43.5964 45.35L44.6278 46.3025C43.8324 47.43 43.0735 48.0932 42.3513 48.2919C41.6202 48.4825 40.8448 48.1993 40.0249 47.4422L36.4412 44.1328L35.2327 45.4424L34.1219 44.4167L35.3303 43.107L33.8228 41.7149L34.541 40.2465L36.3923 41.9561L38.0158 40.1967L39.1266 41.2225Z" fill="#182F43"/>
<path d="M44.3468 34.3779L45.6051 33.2739L49.1458 42.8827C49.5296 43.9029 49.6339 44.841 49.4588 45.6971C49.3006 46.5542 48.8635 47.257 48.1474 47.8055L47.1862 46.7091C48.0715 46.0442 48.2769 45.0498 47.8025 43.726L47.6988 43.362L38.8398 39.2095L40.0982 38.1055L47.0499 41.3931L44.3468 34.3779Z" fill="#182F43"/>
<path d="M58.6729 39.4651L49.8369 25.4595L51.1611 24.6234L59.9971 38.6291L58.6729 39.4651Z" fill="#182F43"/>
<path d="M65.2794 31.3266C63.5278 32.0832 61.8295 32.1305 60.1845 31.4685C58.5505 30.8018 57.3697 29.6256 56.6421 27.9399C55.9145 26.2543 55.8684 24.5879 56.5037 22.941C57.1501 21.2893 58.3491 20.0851 60.1006 19.3285C61.1582 18.8717 62.237 18.7063 63.337 18.8325C64.4481 18.9538 65.437 19.3371 66.3036 19.9824L65.3004 21.3372C64.6941 20.841 63.9796 20.5483 63.157 20.4592C62.3406 20.3544 61.5358 20.4732 60.7426 20.8159C59.4097 21.3916 58.5045 22.2924 58.0272 23.5182C57.5609 24.7392 57.6059 25.9942 58.1623 27.2833C58.714 28.5613 59.5939 29.4492 60.802 29.9469C62.0212 30.4399 63.2973 30.3984 64.6302 29.8227C65.4234 29.4801 66.0641 28.9811 66.5524 28.3257C67.0469 27.6546 67.3239 26.9337 67.3833 26.1629L69.0499 26.345C68.9361 27.4137 68.5448 28.3997 67.876 29.303C67.2025 30.1952 66.3369 30.8697 65.2794 31.3266Z" fill="#182F43"/>
<path d="M79.4862 25.3369C78.8456 26.4663 77.8903 27.2109 76.6203 27.5708C75.3503 27.9307 74.1466 27.7978 73.0092 27.1722C71.8832 26.5433 71.1389 25.588 70.776 24.3064C70.4131 23.0248 70.5462 21.8209 71.1752 20.6948C71.8157 19.5654 72.771 18.8208 74.041 18.4609C75.311 18.1011 76.5148 18.2339 77.6522 18.8595C78.7897 19.4852 79.5398 20.4388 79.9027 21.7204C80.2656 23.002 80.1267 24.2075 79.4862 25.3369ZM76.2035 26.0987C77.0694 25.8533 77.7134 25.3528 78.1355 24.5971C78.5576 23.8414 78.6445 23.0248 78.396 22.1473C78.1476 21.2698 77.6456 20.62 76.89 20.198C76.1345 19.776 75.3237 19.6877 74.4578 19.933C73.6035 20.1751 72.9652 20.674 72.5431 21.4297C72.121 22.1854 72.0342 23.002 72.2827 23.8795C72.5311 24.757 73.0331 25.4068 73.7887 25.8288C74.5442 26.2508 75.3492 26.3408 76.2035 26.0987Z" fill="#182F43"/>
<path d="M85.2446 16.077C86.2905 15.931 87.1748 16.1467 87.8975 16.7244C88.6186 17.2901 89.0579 18.1375 89.2154 19.2665L89.979 24.7395L88.4281 24.9561L87.6769 19.5722C87.5758 18.8472 87.3017 18.316 86.8548 17.9786C86.4062 17.6293 85.8373 17.5027 85.148 17.599C84.3755 17.7068 83.7855 18.0376 83.3781 18.5912C82.9691 19.133 82.8342 19.9031 82.9735 20.9014L83.6326 25.6256L82.0816 25.8422L80.838 16.9285L82.389 16.712L82.568 17.9955C83.057 16.8974 83.9492 16.2579 85.2446 16.077Z" fill="#182F43"/>
<path d="M96.9396 16.9794L94.5465 17.0441L94.6782 21.9203C94.6902 22.3641 94.7828 22.6797 94.9559 22.8671C95.1407 23.0422 95.4132 23.1309 95.7734 23.1331C96.1332 23.1234 96.5767 23.0994 97.1039 23.0611L97.1418 24.4646C95.7792 24.6815 94.7746 24.6006 94.1282 24.222C93.4814 23.8313 93.1429 23.0782 93.1128 21.9626L92.9811 17.0864L91.1997 17.1345L91.1589 15.6231L92.9402 15.5749L92.8848 13.5237L94.4376 13.0135L94.5056 15.5326L96.8988 15.4679L96.9396 16.9794Z" fill="#182F43"/>
<path d="M101.176 17.1231C101.755 16.0389 102.722 15.536 104.076 15.6144L103.981 17.2497C103.216 17.1693 102.546 17.3348 101.969 17.7461C101.392 18.1574 101.075 18.8542 101.018 19.8366L100.743 24.5986L99.1792 24.508L99.6996 15.5231L101.263 15.6137L101.176 17.1231Z" fill="#182F43"/>
<path d="M112.423 24.9201C111.361 25.6674 110.179 25.9322 108.877 25.7147C107.576 25.4971 106.544 24.8624 105.783 23.8106C105.033 22.7607 104.769 21.5789 104.988 20.2651C105.207 18.9512 105.842 17.9197 106.892 17.1705C107.953 16.4232 109.135 16.1584 110.437 16.376C111.739 16.5935 112.77 17.2282 113.531 18.2801C114.293 19.3319 114.564 20.5147 114.344 21.8285C114.125 23.1424 113.484 24.1729 112.423 24.9201ZM109.129 24.2056C110.017 24.3539 110.813 24.1767 111.518 23.6739C112.222 23.1711 112.649 22.47 112.8 21.5704C112.95 20.6709 112.773 19.8689 112.271 19.1644C111.768 18.4598 111.073 18.0334 110.185 17.8851C109.309 17.7387 108.519 17.9169 107.814 18.4197C107.11 18.9225 106.683 19.6236 106.532 20.5232C106.382 21.4227 106.559 22.2247 107.061 22.9293C107.564 23.6338 108.254 24.0592 109.129 24.2056Z" fill="#182F43"/>
<path d="M114.528 26.631L117.867 13.9224L119.382 14.3206L116.042 27.0292L114.528 26.631Z" fill="#182F43"/>
<path d="M121.342 32.4995L127.447 17.106L128.903 17.6837L122.798 33.0772L121.342 32.4995Z" fill="#182F43"/>
<path d="M132.095 34.6519C131.08 34.0574 130.35 33.3096 129.904 32.4085C129.469 31.5135 129.349 30.5669 129.544 29.5686L131.205 29.5821C130.859 31.146 131.442 32.3708 132.954 33.2566C133.699 33.6935 134.357 33.877 134.926 33.8073C135.501 33.7272 135.937 33.4334 136.235 32.926C136.538 32.4082 136.568 31.9046 136.327 31.4152C136.085 30.9258 135.588 30.2661 134.836 29.4362C134.466 29.0242 134.186 28.7071 133.996 28.4847C133.812 28.252 133.591 27.9414 133.332 27.553C133.089 27.1603 132.934 26.8192 132.867 26.5297C132.806 26.2298 132.794 25.8821 132.831 25.4865C132.879 25.0969 133.018 24.7054 133.248 24.3119C133.8 23.3696 134.568 22.8182 135.552 22.6576C136.542 22.4867 137.513 22.6804 138.465 23.2385C139.325 23.7421 139.943 24.3964 140.32 25.2014C140.707 26.0125 140.852 26.8693 140.754 27.7719L139.134 27.7611C139.323 26.3697 138.827 25.3281 137.647 24.6365C137.057 24.2907 136.496 24.1566 135.963 24.2342C135.431 24.3118 135.02 24.5991 134.729 25.0961C134.45 25.5725 134.408 26.035 134.604 26.4838C134.801 26.9325 135.239 27.5372 135.92 28.2979C136.166 28.567 136.339 28.7587 136.439 28.8729C136.539 28.9872 136.688 29.1719 136.886 29.4271C137.094 29.6884 137.243 29.8865 137.33 30.0215C137.418 30.1564 137.532 30.3415 137.673 30.5768C137.823 30.8181 137.92 31.0208 137.963 31.1851C138.006 31.3493 138.049 31.5485 138.093 31.7827C138.153 32.0126 138.169 32.2234 138.14 32.4152C138.111 32.6069 138.057 32.8185 137.977 33.0498C137.913 33.2769 137.815 33.5044 137.682 33.7322C137.124 34.6849 136.331 35.2427 135.304 35.4058C134.283 35.5585 133.213 35.3072 132.095 34.6519Z" fill="#182F43"/>
<path d="M144.724 40.6867C143.436 40.8478 142.268 40.5265 141.221 39.7228C140.174 38.9191 139.561 37.8742 139.383 36.5879C139.215 35.309 139.536 34.141 140.347 33.0841C141.157 32.0271 142.202 31.4145 143.48 31.2461C144.768 31.085 145.936 31.4063 146.983 32.21C148.03 33.0137 148.643 34.0586 148.821 35.3449C148.999 36.6312 148.682 37.8028 147.872 38.8597C147.061 39.9166 146.012 40.5257 144.724 40.6867ZM142.152 38.5088C142.866 39.0567 143.652 39.2742 144.51 39.1612C145.368 39.0482 146.074 38.6299 146.629 37.9062C147.184 37.1826 147.405 36.3916 147.292 35.5334C147.179 34.6751 146.766 33.972 146.052 33.424C145.347 32.8834 144.566 32.6695 143.708 32.7825C142.85 32.8955 142.144 33.3139 141.589 34.0375C141.034 34.7612 140.813 35.5522 140.926 36.4104C141.039 37.2687 141.448 37.9681 142.152 38.5088Z" fill="#182F43"/>
<path d="M145.872 43.2668L154.783 33.6099L155.934 34.6723L147.023 44.3292L145.872 43.2668Z" fill="#182F43"/>
<path d="M159.408 44.2491L160.453 45.4153L153.753 51.4244L152.707 50.2582L153.672 49.3929C152.488 49.6003 151.46 49.2169 150.587 48.2428C149.882 47.4564 149.563 46.6061 149.63 45.6918C149.706 44.7695 150.168 43.9277 151.017 43.1666L155.131 39.4771L156.176 40.6433L152.129 44.2727C151.584 44.7615 151.292 45.2895 151.253 45.8568C151.222 46.4161 151.439 46.9549 151.904 47.4732C152.424 48.0541 153.023 48.363 153.701 48.4C154.388 48.429 155.106 48.1069 155.856 47.4339L159.408 44.2491Z" fill="#182F43"/>
<path d="M164.281 53.1569L162.894 51.2054L158.919 54.0322C158.557 54.2895 158.347 54.5422 158.287 54.7904C158.245 55.0415 158.323 55.3172 158.522 55.6176C158.73 55.9111 158.997 56.2661 159.323 56.6826L158.178 57.4962C157.239 56.4853 156.747 55.6059 156.701 54.858C156.666 54.1031 157.102 53.4023 158.012 52.7556L161.987 49.9288L160.955 48.4762L162.187 47.6L163.22 49.0526L164.892 47.8635L166.18 48.8689L164.127 50.3292L165.513 52.2807L164.281 53.1569Z" fill="#182F43"/>
<path d="M168.592 54.1358C168.436 53.8797 168.392 53.6115 168.459 53.331C168.527 53.0505 168.684 52.8352 168.93 52.6851C169.175 52.5349 169.439 52.4937 169.719 52.5614C170.01 52.6229 170.233 52.7817 170.389 53.0378C170.539 53.2836 170.575 53.5498 170.497 53.8366C170.43 54.117 170.273 54.3324 170.027 54.4825C169.781 54.6327 169.518 54.6739 169.238 54.6061C168.958 54.5384 168.742 54.3816 168.592 54.1358ZM159.102 59.0062L166.782 54.3138L167.598 55.6504L159.918 60.3428L159.102 59.0062Z" fill="#182F43"/>
<path d="M165.217 68.0254C163.991 67.5974 163.088 66.7909 162.507 65.6056C161.926 64.4204 161.841 63.2121 162.253 61.9808C162.67 60.7602 163.477 59.8565 164.673 59.2698C165.869 58.6831 167.077 58.5983 168.297 59.0155C169.522 59.4434 170.426 60.25 171.007 61.4352C171.588 62.6204 171.672 63.8287 171.26 65.0601C170.848 66.2915 170.045 67.2005 168.849 67.7872C167.653 68.3739 166.442 68.4533 165.217 68.0254ZM163.88 64.9317C164.277 65.7398 164.884 66.2838 165.703 66.5638C166.522 66.8437 167.341 66.7828 168.159 66.3811C168.978 65.9794 169.527 65.369 169.807 64.5499C170.088 63.7308 170.029 62.9172 169.633 62.1091C169.242 61.3118 168.637 60.7732 167.819 60.4932C167 60.2133 166.181 60.2742 165.362 60.6759C164.543 61.0776 163.994 61.688 163.714 62.5071C163.434 63.3262 163.489 64.1344 163.88 64.9317Z" fill="#182F43"/>
<path d="M175.391 72.2024C175.721 73.2056 175.666 74.1143 175.226 74.9284C174.798 75.7388 174.042 76.322 172.959 76.6782L167.71 78.4044L167.221 76.9166L172.385 75.2185C173.08 74.9899 173.554 74.6256 173.807 74.1257C174.07 73.622 174.094 73.0396 173.877 72.3783C173.633 71.6373 173.203 71.1157 172.586 70.8133C171.98 70.5073 171.198 70.5117 170.24 70.8265L165.709 72.3166L165.22 70.8289L173.77 68.0174L174.259 69.5052L173.028 69.91C174.195 70.1956 174.983 70.9597 175.391 72.2024Z" fill="#182F43"/>
<path d="M165.623 85.9404L181.987 83.3989L182.227 84.9464L165.864 87.4878L165.623 85.9404Z" fill="#182F43"/>
</svg>
