<svg width="195" height="195" viewBox="0 0 195 195" fill="none" xmlns="http://www.w3.org/2000/svg">
<path d="M192.881 104.535C192.762 106.247 192.052 107.623 190.753 108.664C189.465 109.717 187.941 110.182 186.181 110.06C184.422 109.938 182.971 109.265 181.829 108.043C180.698 106.834 180.192 105.373 180.311 103.661L180.652 98.7591L193.222 99.6333L192.881 104.535ZM181.891 103.771C181.802 105.052 182.178 106.131 183.019 107.007C183.861 107.884 184.952 108.369 186.292 108.462C187.633 108.555 188.781 108.226 189.735 107.474C190.69 106.723 191.211 105.706 191.301 104.426L191.525 101.193L182.116 100.539L181.891 103.771Z" fill="#182F43"/>
<path d="M183.121 112.621C182.302 112.611 181.617 112.843 181.065 113.318C180.512 113.804 180.148 114.464 179.976 115.298C179.736 116.462 179.99 117.396 180.738 118.102L179.729 119.254C178.578 118.122 178.181 116.692 178.538 114.964C178.827 113.566 179.497 112.516 180.549 111.814C181.61 111.126 182.81 110.921 184.15 111.198C185.478 111.472 186.494 112.129 187.198 113.169C187.902 114.209 188.114 115.411 187.832 116.774C187.565 118.067 186.889 119.024 185.805 119.645C184.73 120.281 183.552 120.467 182.271 120.202C182.048 120.156 181.822 120.091 181.595 120.007L183.121 112.621ZM186.386 116.476C186.556 115.653 186.462 114.923 186.104 114.285C185.757 113.65 185.209 113.187 184.46 112.898L183.244 118.785C184.105 118.829 184.808 118.631 185.352 118.192C185.896 117.753 186.241 117.181 186.386 116.476Z" fill="#182F43"/>
<path d="M183.272 124.032C182.941 123.924 182.619 124.003 182.306 124.267C182.004 124.535 181.715 124.883 181.437 125.31C181.171 125.741 180.883 126.164 180.571 126.58C180.271 127 179.879 127.314 179.394 127.523C178.922 127.736 178.394 127.747 177.812 127.559C177.036 127.307 176.512 126.802 176.241 126.045C175.965 125.3 175.979 124.459 176.283 123.523C176.554 122.69 176.968 122.036 177.526 121.561C178.083 121.086 178.706 120.821 179.392 120.766L179.712 122.289C179.256 122.293 178.848 122.444 178.486 122.743C178.124 123.042 177.858 123.454 177.687 123.979C177.528 124.47 177.488 124.905 177.567 125.284C177.657 125.666 177.902 125.922 178.301 126.052C178.632 126.159 178.948 126.079 179.25 125.811C179.563 125.547 179.852 125.199 180.118 124.768C180.396 124.341 180.69 123.919 181.002 123.503C181.314 123.087 181.706 122.773 182.178 122.56C182.651 122.348 183.173 122.334 183.743 122.519C184.485 122.76 185.003 123.244 185.298 123.97C185.588 124.708 185.593 125.51 185.311 126.378C185.085 127.074 184.725 127.638 184.232 128.071C183.746 128.519 183.178 128.789 182.53 128.882L182.234 127.404C183.064 127.333 183.628 126.841 183.924 125.928C184.061 125.505 184.075 125.112 183.966 124.749C183.868 124.389 183.637 124.15 183.272 124.032Z" fill="#182F43"/>
<path d="M184.146 133.666C184.259 133.388 184.449 133.193 184.715 133.082C184.982 132.971 185.248 132.97 185.514 133.079C185.781 133.188 185.97 133.376 186.081 133.642C186.204 133.912 186.208 134.187 186.094 134.464C185.985 134.731 185.792 134.917 185.515 135.024C185.249 135.136 184.982 135.137 184.716 135.027C184.449 134.918 184.26 134.731 184.149 134.464C184.038 134.198 184.036 133.932 184.146 133.666ZM174.602 128.899L182.93 132.312L182.336 133.761L174.009 130.348L174.602 128.899Z" fill="#182F43"/>
<path d="M177.945 142.881L177.233 144.256L169.578 140.288C168.395 139.675 167.686 138.801 167.45 137.665C167.204 136.523 167.371 135.393 167.951 134.274C168.414 133.38 168.985 132.696 169.663 132.222C170.33 131.744 171.064 131.502 171.863 131.498L171.921 133.068C170.8 133.041 169.902 133.678 169.228 134.977C168.798 135.808 168.679 136.572 168.873 137.267C169.061 137.973 169.534 138.522 170.29 138.914L171.425 139.502C170.724 138.246 170.71 136.969 171.384 135.669C171.975 134.529 172.88 133.775 174.098 133.406C175.316 133.037 176.506 133.154 177.667 133.756C178.829 134.358 179.604 135.26 179.995 136.463C180.396 137.671 180.301 138.845 179.71 139.985C179.031 141.295 177.984 142.023 176.571 142.169L177.945 142.881ZM174.495 134.909C173.67 135.171 173.047 135.707 172.628 136.516C172.208 137.326 172.129 138.143 172.391 138.968C172.652 139.793 173.188 140.416 173.998 140.835C174.797 141.25 175.609 141.326 176.434 141.064C177.259 140.802 177.881 140.267 178.301 139.457C178.72 138.647 178.799 137.83 178.538 137.005C178.276 136.18 177.746 135.56 176.947 135.146C176.137 134.727 175.32 134.648 174.495 134.909Z" fill="#182F43"/>
<path d="M173.231 150.821C172.631 151.69 171.875 152.196 170.96 152.339C170.056 152.488 169.135 152.239 168.196 151.592L163.645 148.457L164.534 147.168L169.01 150.252C169.613 150.667 170.19 150.824 170.741 150.723C171.301 150.628 171.779 150.294 172.174 149.721C172.616 149.079 172.771 148.42 172.638 147.746C172.516 147.078 172.039 146.459 171.209 145.887L167.281 143.18L168.17 141.891L175.581 146.997L174.692 148.287L173.625 147.551C174.104 148.654 173.973 149.744 173.231 150.821Z" fill="#182F43"/>
<path d="M161.945 153.398L159.333 149.699L160.197 148.662L163.097 152.015L161.945 153.398Z" fill="#182F43"/>
<path d="M158.871 171.584L157.701 172.625L149.325 163.213L150.495 162.171L151.524 163.328C151.317 161.922 151.769 160.724 152.88 159.735C153.822 158.897 154.927 158.524 156.197 158.615C157.474 158.715 158.552 159.258 159.429 160.244C160.307 161.23 160.717 162.359 160.66 163.63C160.611 164.911 160.116 165.97 159.175 166.808C158.063 167.797 156.821 168.107 155.449 167.738L158.871 171.584ZM153.738 160.996C153.056 161.602 152.691 162.338 152.64 163.202C152.598 164.075 152.88 164.852 153.486 165.533C154.093 166.214 154.828 166.58 155.692 166.63C156.564 166.69 157.34 166.416 158.022 165.81C158.694 165.211 159.051 164.476 159.094 163.603C159.144 162.739 158.866 161.966 158.26 161.285C157.653 160.604 156.914 160.233 156.042 160.174C155.178 160.124 154.41 160.398 153.738 160.996Z" fill="#182F43"/>
<path d="M148.844 168.294C148.261 167.718 147.607 167.41 146.881 167.368C146.145 167.334 145.425 167.557 144.722 168.038C143.741 168.708 143.275 169.557 143.324 170.585L141.797 170.713C141.755 169.099 142.462 167.794 143.919 166.799C145.097 165.993 146.309 165.703 147.553 165.928C148.794 166.17 149.8 166.855 150.573 167.984C151.338 169.104 151.613 170.282 151.398 171.52C151.182 172.757 150.5 173.768 149.351 174.554C148.261 175.299 147.11 175.519 145.899 175.213C144.684 174.925 143.707 174.24 142.969 173.161C142.84 172.972 142.723 172.769 142.617 172.551L148.844 168.294ZM148.518 173.336C149.211 172.862 149.651 172.271 149.835 171.563C150.027 170.865 149.954 170.152 149.616 169.424L144.653 172.816C145.242 173.445 145.885 173.791 146.582 173.852C147.278 173.914 147.924 173.742 148.518 173.336Z" fill="#182F43"/>
<path d="M137.681 181.122L136.179 181.901L135.233 172.253L136.863 171.409L144.201 177.742L142.699 178.521L136.819 173.317L137.681 181.122Z" fill="#182F43"/>
<path d="M130.303 178.763C129.877 178.064 129.317 177.606 128.623 177.39C127.917 177.178 127.165 177.221 126.366 177.517C125.252 177.93 124.594 178.641 124.393 179.65L122.881 179.405C123.231 177.829 124.233 176.734 125.886 176.121C127.225 175.624 128.471 175.635 129.624 176.155C130.769 176.69 131.58 177.599 132.056 178.881C132.527 180.153 132.509 181.363 132.001 182.511C131.492 183.66 130.586 184.476 129.281 184.96C128.043 185.419 126.873 185.354 125.771 184.764C124.662 184.19 123.881 183.29 123.426 182.063C123.346 181.85 123.282 181.624 123.232 181.386L130.303 178.763ZM128.767 183.576C129.555 183.284 130.124 182.817 130.474 182.175C130.829 181.544 130.931 180.835 130.779 180.046L125.142 182.137C125.562 182.89 126.103 183.381 126.764 183.609C127.424 183.838 128.092 183.827 128.767 183.576Z" fill="#182F43"/>
<path d="M120.137 178.257L123.67 190.913L122.162 191.334L118.629 178.678L120.137 178.257Z" fill="#182F43"/>
<path d="M109.566 181.779C110.303 180.71 111.319 180.052 112.616 179.805C113.913 179.558 115.1 179.795 116.179 180.518C117.245 181.243 117.904 182.26 118.153 183.568C118.403 184.877 118.165 186.064 117.44 187.131C116.703 188.2 115.686 188.858 114.39 189.105C113.093 189.353 111.906 189.115 110.827 188.392C109.749 187.669 109.085 186.654 108.835 185.345C108.586 184.037 108.829 182.848 109.566 181.779ZM112.903 181.308C112.019 181.476 111.333 181.919 110.847 182.634C110.36 183.35 110.202 184.156 110.373 185.052C110.544 185.948 110.988 186.639 111.703 187.126C112.419 187.612 113.219 187.771 114.103 187.602C114.975 187.436 115.655 186.995 116.141 186.279C116.628 185.563 116.786 184.757 116.615 183.861C116.444 182.966 116.001 182.274 115.285 181.788C114.569 181.301 113.775 181.141 112.903 181.308Z" fill="#182F43"/>
<path d="M102.402 190.579C101.144 190.657 100.044 190.262 99.1004 189.395C98.1579 188.539 97.6459 187.453 97.5644 186.135C97.483 184.818 97.8569 183.671 98.6862 182.694C99.5163 181.729 100.56 181.207 101.818 181.129C103.303 181.038 104.471 181.561 105.323 182.698L105.006 177.56L106.569 177.463L107.346 190.039L105.783 190.136L105.687 188.591C104.982 189.825 103.887 190.488 102.402 190.579ZM102.109 182.626C101.21 182.682 100.475 183.034 99.9016 183.683C99.3292 184.343 99.0712 185.129 99.1275 186.039C99.1837 186.949 99.5361 187.691 100.185 188.264C100.834 188.849 101.608 189.114 102.506 189.058C103.416 189.002 104.158 188.643 104.73 187.983C105.303 187.334 105.562 186.555 105.505 185.645C105.449 184.734 105.096 183.987 104.447 183.402C103.798 182.829 103.019 182.57 102.109 182.626Z" fill="#182F43"/>
<path d="M84.8945 190.002C83.8911 189.905 83.1107 189.498 82.5531 188.781C81.9944 188.076 81.7687 187.168 81.8761 186.057L82.4149 180.485L83.9737 180.636L83.4401 186.154C83.3731 186.847 83.5003 187.402 83.8216 187.819C84.143 188.235 84.6023 188.473 85.1995 188.53C85.8684 188.595 86.4278 188.42 86.8778 188.006C87.3147 187.602 87.5776 186.94 87.6666 186.02L88.1482 181.04L89.7069 181.19L89.1733 186.709C89.1063 187.401 89.2275 187.956 89.537 188.371C89.8345 188.786 90.2758 189.021 90.8611 189.078C91.518 189.141 92.0894 188.968 92.5752 188.557C93.0491 188.144 93.33 187.484 93.4177 186.576L93.8994 181.596L95.4581 181.746L94.5919 190.705L93.0331 190.554L93.1492 189.353C92.4476 190.25 91.5116 190.642 90.3411 190.529C89.1347 190.412 88.3059 189.819 87.8546 188.751C87.1353 189.706 86.1486 190.123 84.8945 190.002Z" fill="#182F43"/>
<path d="M78.5537 183.378C78.5979 182.56 78.3946 181.866 77.9439 181.295C77.4815 180.721 76.8371 180.331 76.0107 180.124C74.8584 179.835 73.9138 180.049 73.177 180.768L72.0688 179.711C73.2483 178.608 74.6935 178.272 76.4046 178.701C77.7897 179.048 78.8108 179.762 79.4678 180.842C80.1103 181.931 80.2652 183.139 79.9325 184.466C79.6027 185.781 78.9036 186.769 77.835 187.429C76.7664 188.089 75.557 188.249 74.2068 187.911C72.9265 187.59 71.9985 186.875 71.423 185.765C70.8329 184.665 70.6969 183.48 71.015 182.211C71.0705 181.99 71.1448 181.768 71.2381 181.544L78.5537 183.378ZM74.5658 186.479C75.3806 186.683 76.114 186.62 76.7662 186.288C77.4154 185.969 77.9004 185.441 78.221 184.705L72.3895 183.243C72.3103 184.101 72.4787 184.811 72.8945 185.373C73.3103 185.935 73.8674 186.304 74.5658 186.479Z" fill="#182F43"/>
<path d="M63.1605 184.366C62.1761 183.984 61.509 183.364 61.1592 182.508C60.8051 181.662 60.8343 180.708 61.2467 179.645L63.2461 174.494L64.706 175.06L62.7392 180.128C62.4743 180.811 62.4549 181.408 62.6808 181.92C62.9023 182.444 63.3375 182.832 63.9864 183.084C64.7135 183.366 65.3898 183.364 66.0153 183.079C66.6365 182.806 67.1294 182.199 67.4941 181.259L69.22 176.812L70.6799 177.379L67.4235 185.769L65.9636 185.203L66.4325 183.994C65.4706 184.715 64.3799 184.839 63.1605 184.366Z" fill="#182F43"/>
<path d="M53.3562 177.904L55.4898 178.99L57.7025 174.642C57.9039 174.247 57.9733 173.925 57.9106 173.678C57.8319 173.436 57.6348 173.228 57.3194 173.054C56.9986 172.89 56.5974 172.7 56.116 172.482L56.7529 171.23C58.0537 171.69 58.8977 172.241 59.2848 172.883C59.6666 173.535 59.6043 174.358 59.0981 175.353L56.8854 179.7L58.4735 180.508L57.7876 181.856L56.1995 181.047L55.2687 182.876L53.6608 182.583L54.8039 180.337L52.6704 179.251L53.3562 177.904Z" fill="#182F43"/>
<path d="M53.2531 164.879L44.0078 178.618L42.7086 177.743L51.9538 164.004L53.2531 164.879Z" fill="#182F43"/>
<path d="M37.6124 158.39C38.9096 158.337 40.0464 158.755 41.0228 159.643C41.9992 160.532 42.5223 161.624 42.5921 162.92C42.653 164.209 42.2353 165.345 41.339 166.331C40.4426 167.316 39.3503 167.839 38.062 167.9C36.7648 167.953 35.628 167.535 34.6515 166.647C33.6751 165.759 33.152 164.666 33.0822 163.37C33.0125 162.073 33.4257 160.933 34.3221 159.947C35.2184 158.962 36.3152 158.443 37.6124 158.39ZM39.9932 160.775C39.3275 160.169 38.5624 159.887 37.6978 159.928C36.8333 159.969 36.0942 160.327 35.4805 161.001C34.8668 161.676 34.5803 162.445 34.6212 163.31C34.6621 164.174 35.0154 164.909 35.6811 165.515C36.338 166.113 37.0987 166.391 37.9632 166.35C38.8277 166.309 39.5669 165.952 40.1806 165.277C40.7943 164.602 41.0807 163.833 41.0398 162.968C40.999 162.104 40.6501 161.373 39.9932 160.775Z" fill="#182F43"/>
<path d="M26.2565 157.961C25.4395 157.002 25.0949 155.885 25.2227 154.61C25.3413 153.342 25.903 152.281 26.908 151.425C27.913 150.569 29.055 150.18 30.3343 150.257C31.6043 150.341 32.6478 150.863 33.4648 151.823C34.4295 152.956 34.7126 154.204 34.3138 155.568L38.2332 152.23L39.2485 153.423L29.6557 161.592L28.6404 160.4L29.8189 159.396C28.4087 159.572 27.2212 159.094 26.2565 157.961ZM32.442 152.954C31.8585 152.269 31.1354 151.891 30.2726 151.822C29.4008 151.761 28.6177 152.026 27.9233 152.617C27.229 153.208 26.8473 153.935 26.7781 154.798C26.6998 155.669 26.9525 156.447 27.536 157.132C28.1273 157.826 28.8589 158.204 29.7308 158.265C30.5935 158.334 31.372 158.073 32.0664 157.482C32.7607 156.891 33.147 156.16 33.2253 155.289C33.2944 154.427 33.0333 153.648 32.442 152.954Z" fill="#182F43"/>
<path d="M20.4599 147.295L21.8181 149.266L25.835 146.498C26.2006 146.246 26.4148 145.997 26.4776 145.75C26.5237 145.499 26.4496 145.222 26.2552 144.919C26.051 144.623 25.7892 144.264 25.4698 143.843L26.626 143.046C27.5504 144.071 28.0299 144.957 28.0647 145.705C28.0895 146.461 27.6425 147.155 26.7235 147.788L22.7066 150.556L23.7177 152.023L22.4726 152.881L21.4616 151.413L19.7718 152.578L18.4979 151.554L20.5731 150.124L19.2148 148.152L20.4599 147.295Z" fill="#182F43"/>
<path d="M16.2096 146.347C16.3641 146.604 16.4064 146.873 16.3366 147.153C16.2668 147.433 16.1084 147.647 15.8615 147.795C15.6147 147.943 15.3513 147.982 15.0713 147.913C14.7811 147.849 14.5588 147.689 14.4043 147.431C14.256 147.185 14.2219 146.918 14.302 146.632C14.3718 146.352 14.5302 146.138 14.7771 145.99C15.0239 145.841 15.2874 145.802 15.5673 145.872C15.8472 145.942 16.0613 146.1 16.2096 146.347ZM25.7366 141.548L18.0216 146.182L17.2152 144.84L24.9302 140.205L25.7366 141.548Z" fill="#182F43"/>
<path d="M11.4131 133.887C10.993 132.971 10.9528 132.092 11.2926 131.25C11.6215 130.412 12.2932 129.761 13.3076 129.296L18.396 126.962L19.0488 128.386L14.0094 130.697C13.3768 130.987 12.961 131.376 12.762 131.863C12.563 132.35 12.5886 132.866 12.8387 133.412C13.1188 134.023 13.5511 134.419 14.1357 134.599C14.7044 134.774 15.4086 134.669 16.2485 134.284L20.7971 132.198L21.4498 133.621L16.4105 135.932C15.7778 136.223 15.3595 136.606 15.1555 137.082C14.9465 137.548 14.9646 138.048 15.2097 138.582C15.4848 139.182 15.9221 139.589 16.5217 139.802C17.1163 140.005 17.8281 139.916 18.657 139.536L23.2056 137.45L23.8584 138.874L15.6775 142.625L15.0248 141.202L16.121 140.699C14.9933 140.543 14.1843 139.93 13.6941 138.861C13.1889 137.76 13.2848 136.745 13.9819 135.818C12.7946 135.676 11.9384 135.033 11.4131 133.887Z" fill="#182F43"/>
<path d="M7.54112 127.387C7.6348 127.672 7.61659 127.943 7.4865 128.2C7.35641 128.458 7.15456 128.632 6.88096 128.722C6.60736 128.812 6.34181 128.791 6.08431 128.661C5.81541 128.535 5.63412 128.329 5.54043 128.044C5.4505 127.771 5.47628 127.503 5.61777 127.242C5.74786 126.985 5.94971 126.811 6.22331 126.721C6.49691 126.631 6.76246 126.651 7.01996 126.781C7.27746 126.911 7.45118 127.113 7.54112 127.387ZM17.8944 124.817L9.34452 127.628L8.8555 126.14L17.4054 123.329L17.8944 124.817Z" fill="#182F43"/>
<path d="M14.9014 120.13L13.737 115.486L15.1861 115.123L16.8714 121.845L15.8588 122.098L8.47451 119.218L9.54698 123.495L8.09783 123.859L6.50008 117.486L7.51273 117.232L14.9014 120.13Z" fill="#182F43"/>
<path d="M4.91457 107.209L4.71598 105.656L13.6433 104.514L13.8419 106.068L12.3064 106.264C13.5837 106.887 14.3167 107.936 14.5054 109.412C14.6652 110.662 14.3491 111.785 13.5571 112.782C12.7532 113.78 11.6965 114.363 10.3872 114.53C9.07784 114.697 7.91455 114.399 6.8973 113.633C5.86815 112.87 5.27367 111.863 5.11389 110.613C4.92518 109.137 5.37058 107.937 6.45007 107.013L4.91457 107.209ZM12.9805 109.408C12.8649 108.503 12.4647 107.786 11.7801 107.257C11.0835 106.729 10.2829 106.523 9.37824 106.638C8.4736 106.754 7.75656 107.154 7.22711 107.839C6.68576 108.525 6.47291 109.32 6.58857 110.225C6.7027 111.118 7.10806 111.828 7.80463 112.356C8.4893 112.885 9.28395 113.092 10.1886 112.977C11.0932 112.861 11.8162 112.46 12.3576 111.774C12.887 111.089 13.0947 110.301 12.9805 109.408Z" fill="#182F43"/>
<path d="M5.97705 97.5592L6.03249 99.9526L10.9092 99.8396C11.3531 99.8294 11.669 99.738 11.8571 99.5656C12.0329 99.3815 12.1226 99.1093 12.1263 98.7492C12.1179 98.3893 12.0956 97.9457 12.0594 97.4183L13.463 97.3858C13.6747 98.7493 13.5899 99.7535 13.2087 100.399C12.8156 101.044 12.0611 101.379 10.9454 101.405L6.06875 101.518L6.11002 103.3L4.59843 103.335L4.55716 101.553L2.50571 101.601L2.00157 100.046L4.5209 99.9876L4.46546 97.5943L5.97705 97.5592Z" fill="#182F43"/>
<path d="M2.94702 93.9605C2.93429 94.2602 2.82169 94.5076 2.60922 94.7028C2.39674 94.898 2.14664 94.9894 1.85889 94.9772C1.57115 94.965 1.3297 94.8526 1.13455 94.6402C0.927398 94.4272 0.830189 94.1708 0.842921 93.8711C0.855143 93.5833 0.973485 93.3421 1.19795 93.1475C1.41042 92.9523 1.66053 92.8609 1.94827 92.8731C2.23601 92.8853 2.47746 92.9977 2.67262 93.2101C2.86778 93.4226 2.95925 93.6727 2.94702 93.9605ZM13.5418 95.2032L4.54994 94.8213L4.6164 93.2567L13.6083 93.6386L13.5418 95.2032Z" fill="#182F43"/>
<path d="M13.4137 84.2435C14.2051 85.2727 14.5197 86.4422 14.3573 87.7522C14.1949 89.0622 13.6044 90.1196 12.5857 90.9244C11.5684 91.7173 10.3988 92.0318 9.07696 91.8679C7.75507 91.7041 6.69768 91.1136 5.90479 90.0963C5.11337 89.0671 4.79884 87.8976 4.96121 86.5876C5.12357 85.2776 5.71412 84.2202 6.73285 83.4154C7.75158 82.6106 8.92189 82.2901 10.2438 82.454C11.5657 82.6178 12.6223 83.2143 13.4137 84.2435ZM12.8389 87.564C12.9496 86.6708 12.7389 85.8829 12.2069 85.2003C11.6748 84.5177 10.9562 84.1203 10.0512 84.0081C9.14608 83.8959 8.35222 84.1059 7.66959 84.6379C6.98696 85.17 6.59029 85.8826 6.47959 86.7758C6.37036 87.657 6.58179 88.439 7.11386 89.1216C7.64593 89.8043 8.36451 90.2017 9.26958 90.3138C10.1747 90.426 10.9685 90.2161 11.6511 89.684C12.3338 89.1519 12.7297 88.4453 12.8389 87.564Z" fill="#182F43"/>
<path d="M7.07239 75.2712C7.3292 74.2469 7.86085 73.508 8.66735 73.0545C9.4622 72.5981 10.4125 72.5085 11.5183 72.7858L16.8784 74.1296L16.4976 75.6486L11.2248 74.3267C10.5147 74.1486 9.91951 74.2035 9.4391 74.4914C8.94704 74.7762 8.61639 75.2562 8.44713 75.9313C8.25744 76.6879 8.34285 77.3588 8.70334 77.9441C9.0522 78.5264 9.7155 78.9401 10.6932 79.1853L15.32 80.3453L14.9392 81.8643L6.2094 79.6756L6.59023 78.1566L7.84732 78.4717C7.01261 77.6068 6.7543 76.5399 7.07239 75.2712Z" fill="#182F43"/>
<path d="M22.6883 68.5527L7.38867 62.2158L7.98792 60.769L23.2875 67.1058L22.6883 68.5527Z" fill="#182F43"/>
<path d="M15.8401 46.4573L16.6465 45.1149L27.4475 51.6032L26.6411 52.9456L25.3141 52.1484C25.9308 53.4288 25.8561 54.7068 25.0898 55.9824C24.441 57.0625 23.4971 57.7483 22.258 58.0399C21.0086 58.3253 19.8182 58.1281 18.6867 57.4484C17.5551 56.7687 16.8271 55.8134 16.5026 54.5825C16.1678 53.3455 16.3248 52.187 16.9736 51.1069C17.7399 49.8313 18.833 49.1651 20.2531 49.1082L15.8401 46.4573ZM23.8957 55.034C24.3653 54.2522 24.4954 53.4415 24.2859 52.6017C24.0661 51.7557 23.5654 51.098 22.7836 50.6283C22.0018 50.1587 21.191 50.0286 20.3512 50.2381C19.5012 50.4414 18.8413 50.9339 18.3717 51.7157C17.9083 52.4872 17.7864 53.2959 18.0062 54.1419C18.2157 54.9817 18.7113 55.6364 19.4931 56.106C20.2749 56.5756 21.0908 56.7088 21.9408 56.5055C22.7806 56.296 23.4322 55.8055 23.8957 55.034Z" fill="#182F43"/>
<path d="M20.9944 42.4462C20.817 42.6881 20.5858 42.8311 20.3006 42.875C20.0155 42.9189 19.7568 42.8557 19.5245 42.6855C19.2922 42.5152 19.1541 42.2875 19.1102 42.0024C19.0566 41.7101 19.1185 41.443 19.2958 41.2011C19.4661 40.9688 19.6986 40.8343 19.9934 40.7974C20.2786 40.7535 20.5373 40.8167 20.7696 40.9869C21.0018 41.1572 21.1399 41.3849 21.1839 41.67C21.2278 41.9552 21.1646 42.2139 20.9944 42.4462ZM29.106 49.3741L21.8472 44.0533L22.773 42.7903L30.0318 48.1111L29.106 49.3741Z" fill="#182F43"/>
<path d="M29.1173 35.1129L30.138 33.9491L36.6202 39.6342C37.6216 40.5124 38.1008 41.5312 38.0577 42.6905C38.0236 43.8577 37.5912 44.915 36.7604 45.8623C36.0957 46.6201 35.3777 47.1476 34.6064 47.4447C33.844 47.7498 33.0741 47.8087 32.2965 47.6216L32.6166 46.0827C33.6989 46.3775 34.7226 45.9745 35.688 44.8739C36.3051 44.1702 36.6028 43.4576 36.5811 42.7362C36.5673 42.0059 36.2401 41.3598 35.5995 40.798L34.6387 39.9553C35.0187 41.342 34.726 42.5857 33.7607 43.6863C32.914 44.6517 31.8551 45.1675 30.5839 45.2337C29.3128 45.3 28.1855 44.9019 27.2021 44.0395C26.2187 43.177 25.6815 42.1153 25.5904 40.8542C25.4902 39.5852 25.8635 38.4681 26.7101 37.5028C27.6833 36.3931 28.8737 35.9367 30.2811 36.1336L29.1173 35.1129ZM30.5586 43.6793C31.4223 43.6227 32.1548 43.2516 32.7561 42.5659C33.3575 41.8802 33.6299 41.1056 33.5733 40.2419C33.5167 39.3783 33.1456 38.6458 32.4599 38.0445C31.7833 37.451 31.0131 37.1826 30.1495 37.2392C29.2858 37.2958 28.5533 37.6669 27.952 38.3525C27.3507 39.0382 27.0783 39.8128 27.1349 40.6765C27.1914 41.5401 27.558 42.2687 28.2347 42.8621C28.9203 43.4635 29.695 43.7358 30.5586 43.6793Z" fill="#182F43"/>
<path d="M31.7616 30.1326C31.5449 30.34 31.2923 30.4406 31.0039 30.4343C30.7154 30.428 30.4716 30.3209 30.2725 30.1128C30.0733 29.9048 29.9769 29.6566 29.9832 29.3681C29.9812 29.071 30.0885 28.8188 30.3052 28.6113C30.5133 28.4121 30.7656 28.32 31.0624 28.335C31.3508 28.3413 31.5946 28.4485 31.7938 28.6565C31.9929 28.8645 32.0894 29.1128 32.0831 29.4012C32.0768 29.6896 31.9696 29.9334 31.7616 30.1326ZM38.5459 38.3647L32.3222 31.8635L33.4534 30.7806L39.6771 37.2817L38.5459 38.3647Z" fill="#182F43"/>
<path d="M40.1717 26.8942L38.3434 28.4397L41.4926 32.165C41.7792 32.5041 42.0487 32.6927 42.3009 32.7309C42.5546 32.7521 42.8228 32.6511 43.1055 32.4279C43.3804 32.1955 43.7117 31.8997 44.0994 31.5405L45.0058 32.6127C44.0773 33.6333 43.2424 34.1977 42.501 34.3059C41.7519 34.4049 41.0171 34.0283 40.2967 33.176L37.1475 29.4507L35.7866 30.6012L34.8105 29.4465L36.1714 28.296L34.8466 26.7289L35.7404 25.3605L37.3673 27.285L39.1956 25.7395L40.1717 26.8942Z" fill="#182F43"/>
<path d="M47.2548 19.9592L48.5508 19.0802L53.6027 26.5286L52.3067 27.4076L51.4378 26.1265C51.4591 27.5475 50.854 28.6756 49.6225 29.5109C48.5798 30.2181 47.435 30.4436 46.1881 30.1873C44.9346 29.9211 43.9373 29.2417 43.1964 28.1493C42.4554 27.0569 42.1964 25.884 42.4194 24.6308C42.6357 23.3677 43.2652 22.3824 44.3079 21.6752C45.5394 20.8399 46.8113 20.695 48.1237 21.2403L47.2548 19.9592ZM48.9377 28.1484C49.6925 27.6365 50.1513 26.9555 50.3143 26.1055C50.4705 25.2455 50.2927 24.4382 49.7807 23.6834C49.2688 22.9286 48.5878 22.4698 47.7378 22.3068C46.8811 22.1339 46.0753 22.3034 45.3205 22.8154C44.5757 23.3206 44.1252 24.0031 43.9689 24.8631C43.806 25.7131 43.9805 26.5155 44.4924 27.2703C45.0043 28.025 45.6886 28.4889 46.5454 28.6617C47.3954 28.8247 48.1929 28.6536 48.9377 28.1484Z" fill="#182F43"/>
<path d="M55.6285 25.4454L49.2393 13.9634L50.6077 13.2019L56.9969 24.684L55.6285 25.4454Z" fill="#182F43"/>
<path d="M61.9669 14.9732C62.0952 15.2967 62.361 15.4947 62.7641 15.5671C63.1628 15.6284 63.6152 15.6297 64.1212 15.5709C64.6227 15.501 65.1332 15.4534 65.6524 15.4281C66.1673 15.3917 66.6595 15.4933 67.129 15.7331C67.5941 15.9617 67.9395 16.3604 68.1652 16.9293C68.4661 17.6877 68.4117 18.4129 68.002 19.1048C67.6034 19.7922 66.9468 20.3174 66.0322 20.6803C65.2179 21.0034 64.45 21.1015 63.7283 20.9747C63.0067 20.8479 62.4059 20.5376 61.926 20.0438L62.8954 18.8264C63.1885 19.1749 63.5656 19.3932 64.0267 19.4814C64.4877 19.5696 64.9747 19.5119 65.4878 19.3083C65.9675 19.118 66.328 18.8717 66.5695 18.5693C66.8066 18.2558 66.8477 17.9038 66.6928 17.5134C66.5645 17.19 66.301 16.9976 65.9023 16.9363C65.4991 16.8639 65.0468 16.8626 64.5452 16.9325C64.0392 16.9912 63.5266 17.0333 63.0073 17.0586C62.488 17.0838 61.9958 16.9822 61.5307 16.7536C61.0657 16.525 60.7225 16.1319 60.5012 15.5741C60.2135 14.8491 60.2556 14.1417 60.6275 13.452C61.0105 12.7578 61.6258 12.2426 62.4735 11.9062C63.1539 11.6363 63.8182 11.5534 64.4664 11.6578C65.1213 11.7465 65.691 12.011 66.1755 12.4514L65.2263 13.622C64.6419 13.0276 63.9036 12.9074 63.0112 13.2615C62.5985 13.4252 62.287 13.665 62.0766 13.9808C61.8619 14.2855 61.8253 14.6163 61.9669 14.9732Z" fill="#182F43"/>
<path d="M73.0611 10.1628L70.7678 10.85L72.1681 15.5227C72.2955 15.948 72.4673 16.2285 72.6833 16.3642C72.9074 16.4849 73.1936 16.4994 73.5419 16.4076C73.8868 16.3042 74.3086 16.1653 74.8075 15.9907L75.2105 17.3356C73.9518 17.9007 72.961 18.0849 72.2381 17.8881C71.5117 17.6799 70.9883 17.0412 70.668 15.9722L69.2677 11.2995L67.5607 11.811L67.1267 10.3627L68.8337 9.85114L68.2447 7.8855L69.6104 6.98767L70.3338 9.40161L72.627 8.7144L73.0611 10.1628Z" fill="#182F43"/>
<path d="M76.5886 9.30843C76.8498 8.10698 77.6422 7.35895 78.9658 7.06434L79.3217 8.66322C78.5642 8.79493 77.9643 9.13745 77.5219 9.69078C77.0796 10.2441 76.9653 11.001 77.1791 11.9615L78.2154 16.6176L76.6868 16.9578L74.7315 8.17278L76.2601 7.83255L76.5886 9.30843Z" fill="#182F43"/>
<path d="M88.7844 5.82381L90.3399 5.64313L91.3783 14.583L89.8227 14.7637L89.6441 13.226C89.0064 14.4961 87.9485 15.217 86.4704 15.3886C85.2188 15.534 84.0994 15.205 83.1121 14.4015C82.1234 13.5861 81.553 12.5229 81.4007 11.2117C81.2484 9.90048 81.5607 8.74071 82.3375 7.73235C83.113 6.71207 84.1265 6.12924 85.3781 5.98387C86.8561 5.81219 88.0511 6.2714 88.963 7.36147L88.7844 5.82381ZM86.4927 13.8639C87.3986 13.7587 88.1202 13.3668 88.6575 12.6883C89.1934 11.9978 89.4088 11.1997 89.3035 10.2938C89.1983 9.38785 88.8064 8.66624 88.1279 8.12894C87.448 7.57971 86.6551 7.35771 85.7492 7.46293C84.8552 7.56676 84.1403 7.9639 83.6043 8.65435C83.067 9.33287 82.851 10.1251 82.9562 11.031C83.0614 11.9369 83.454 12.6645 84.1339 13.2137C84.8124 13.751 85.5987 13.9677 86.4927 13.8639Z" fill="#182F43"/>
<path d="M98.4094 6.98916L96.0156 7.01688L96.072 11.8946C96.0772 12.3385 96.1649 12.6555 96.3351 12.8456C96.5172 13.0235 96.7882 13.1163 97.1484 13.1242C97.5083 13.12 97.9522 13.1029 98.4799 13.0728L98.4961 14.4767C97.1303 14.6725 96.1271 14.5761 95.4866 14.1875C94.8459 13.7869 94.5191 13.0286 94.5062 11.9127L94.4497 7.03502L92.6678 7.05566L92.6503 5.54376L94.4322 5.52312L94.4084 3.47126L95.9689 2.98516L95.9981 5.50499L98.3919 5.47726L98.4094 6.98916Z" fill="#182F43"/>
<path d="M101.332 10.7546C101.416 11.5693 101.726 12.2233 102.26 12.7166C102.807 13.2109 103.504 13.4958 104.353 13.5713C105.536 13.6765 106.435 13.3168 107.051 12.492L108.311 13.3631C107.318 14.6361 105.943 15.1945 104.186 15.0383C102.764 14.9118 101.644 14.3664 100.826 13.4022C100.021 12.4271 99.6792 11.2582 99.8004 9.89557C99.9205 8.5449 100.457 7.46013 101.409 6.64127C102.361 5.8224 103.531 5.47463 104.917 5.59794C106.232 5.71487 107.26 6.27617 108.002 7.28183C108.757 8.27661 109.076 9.42543 108.961 10.7283C108.94 10.9554 108.902 11.1869 108.845 11.4227L101.332 10.7546ZM104.786 7.06813C103.95 6.99372 103.235 7.17113 102.643 7.60034C102.052 8.0176 101.655 8.61483 101.453 9.39202L107.442 9.92459C107.386 9.06424 107.109 8.38903 106.61 7.89894C106.111 7.40885 105.504 7.13191 104.786 7.06813Z" fill="#182F43"/>
<path d="M119.689 8.26652L121.2 8.60284L119.327 17.0189C119.037 18.3191 118.374 19.2287 117.336 19.7476C116.296 20.2783 115.161 20.4068 113.931 20.133C112.947 19.914 112.14 19.5376 111.509 19.0038C110.875 18.4816 110.453 17.8346 110.244 17.0627L111.748 16.6044C112.009 17.6952 112.854 18.3996 114.283 18.7177C115.197 18.9211 115.965 18.84 116.587 18.4744C117.221 18.1115 117.63 17.5142 117.816 16.6826L118.093 15.4351C117.059 16.4344 115.828 16.775 114.399 16.4569C113.146 16.1779 112.185 15.4969 111.516 14.4137C110.847 13.3306 110.655 12.1506 110.939 10.8739C111.223 9.59712 111.897 8.61595 112.959 7.93038C114.024 7.23309 115.183 7.02393 116.436 7.3029C117.877 7.62357 118.849 8.44846 119.352 9.77755L119.689 8.26652ZM112.867 13.6449C113.332 14.3753 114.009 14.8395 114.899 15.0377C115.789 15.2358 116.6 15.1027 117.33 14.6383C118.06 14.1739 118.525 13.4965 118.723 12.6063C118.918 11.7278 118.784 10.9234 118.319 10.193C117.855 9.4627 117.178 8.99846 116.288 8.80032C115.397 8.60217 114.587 8.73531 113.857 9.19973C113.126 9.66414 112.663 10.3356 112.468 11.2141C112.27 12.1043 112.403 12.9146 112.867 13.6449Z" fill="#182F43"/>
<path d="M129.96 11.5162L131.538 12.0747L124.887 19.8598C124.185 20.6932 123.418 21.2427 122.585 21.5082C121.76 21.789 120.934 21.751 120.105 21.3942L120.592 20.0197C121.604 20.4673 122.572 20.1606 123.495 19.0997L123.762 18.8314L123.054 9.07178L124.632 9.63032L125.162 17.303L129.96 11.5162Z" fill="#182F43"/>
<path d="M132.887 26.5802L140.562 11.9062L141.95 12.6321L134.275 27.306L132.887 26.5802Z" fill="#182F43"/>
<path d="M150.578 24.4115L148.607 23.0533L145.839 27.0701C145.588 27.4357 145.476 27.7453 145.506 27.9987C145.552 28.249 145.72 28.4813 146.009 28.6954C146.306 28.8997 146.678 29.1417 147.127 29.4215L146.33 30.5776C145.101 29.9497 144.338 29.2923 144.038 28.6053C143.746 27.9085 143.917 27.1006 144.55 26.1816L147.317 22.1648L145.85 21.1537L146.708 19.9086L148.175 20.9197L149.34 19.2299L150.895 19.733L149.465 21.8082L151.436 23.1664L150.578 24.4115Z" fill="#182F43"/>
<path d="M150.705 29.1095C150.305 29.8243 150.182 30.5371 150.335 31.248C150.498 31.9667 150.904 32.6011 151.555 33.1511C152.462 33.9181 153.405 34.1413 154.383 33.821L154.912 35.2582C153.367 35.7283 151.922 35.3939 150.575 34.2551C149.484 33.3332 148.882 32.2426 148.768 30.9834C148.671 29.7228 149.064 28.5702 149.947 27.5255C150.822 26.4899 151.885 25.9112 153.135 25.7894C154.385 25.6677 155.541 26.0561 156.604 26.9547C157.613 27.8069 158.131 28.8577 158.159 30.107C158.204 31.355 157.804 32.4784 156.959 33.4773C156.812 33.6514 156.647 33.8185 156.465 33.9785L150.705 29.1095ZM155.652 28.0819C155.01 27.5397 154.324 27.2736 153.592 27.2838C152.869 27.2849 152.201 27.5452 151.588 28.0648L156.18 31.9461C156.629 31.2102 156.791 30.4984 156.665 29.8107C156.539 29.123 156.201 28.5468 155.652 28.0819Z" fill="#182F43"/>
<path d="M161.149 34.7424C160.896 34.9812 160.81 35.3013 160.892 35.7026C160.982 36.0957 161.148 36.5165 161.39 36.965C161.64 37.4052 161.873 37.8619 162.089 38.335C162.313 38.7999 162.4 39.2948 162.351 39.8197C162.311 40.3363 162.068 40.8047 161.623 41.2246C161.029 41.7846 160.335 42.0021 159.541 41.8772C158.755 41.7609 158.024 41.345 157.349 40.6292C156.748 39.9921 156.373 39.3148 156.224 38.5974C156.075 37.88 156.141 37.2071 156.423 36.5786L157.912 37.0294C157.697 37.4306 157.633 37.8617 157.722 38.3226C157.81 38.7836 158.044 39.2148 158.422 39.6163C158.777 39.9917 159.139 40.2356 159.509 40.3483C159.888 40.4527 160.23 40.3607 160.536 40.0725C160.789 39.8337 160.87 39.5177 160.78 39.1246C160.698 38.7233 160.532 38.3025 160.282 37.8623C160.04 37.4138 159.811 36.953 159.596 36.4799C159.381 36.0067 159.293 35.5118 159.334 34.9952C159.374 34.4785 159.612 34.0143 160.049 33.6026C160.616 33.0673 161.289 32.8449 162.067 32.9355C162.854 33.0347 163.56 33.416 164.186 34.0794C164.688 34.6118 165.011 35.1984 165.154 35.8393C165.313 36.4806 165.278 37.1077 165.048 37.7207L163.609 37.2714C163.946 36.5087 163.784 35.7782 163.126 35.08C162.821 34.757 162.483 34.5562 162.112 34.4775C161.749 34.3905 161.428 34.4788 161.149 34.7424Z" fill="#182F43"/>
<path d="M169.954 43.5606L168.469 41.6827L164.643 44.7081C164.295 44.9835 164.097 45.2466 164.051 45.4974C164.021 45.7503 164.113 46.0216 164.327 46.3114C164.551 46.5938 164.835 46.9347 165.182 47.334L164.08 48.2048C163.091 47.2433 162.554 46.3903 162.47 45.6458C162.396 44.8939 162.796 44.1718 163.672 43.4797L167.498 40.4542L166.393 39.0564L167.579 38.1186L168.684 39.5165L170.294 38.2438L171.632 39.1819L169.655 40.7449L171.14 42.6228L169.954 43.5606Z" fill="#182F43"/>
<path d="M174.346 44.324C174.175 44.0776 174.115 43.8124 174.166 43.5285C174.217 43.2446 174.361 43.0205 174.597 42.8562C174.834 42.692 175.094 42.6354 175.378 42.6866C175.672 42.731 175.904 42.8764 176.075 43.1228C176.24 43.3594 176.291 43.623 176.23 43.9138C176.179 44.1977 176.035 44.4218 175.799 44.5861C175.562 44.7503 175.302 44.8069 175.018 44.7557C174.734 44.7044 174.51 44.5606 174.346 44.324ZM165.156 49.7411L172.548 44.6077L173.442 45.894L166.049 51.0274L165.156 49.7411Z" fill="#182F43"/>
<path d="M177.257 51.5124C177.787 52.4255 177.922 53.3258 177.66 54.2133C177.409 55.0947 176.79 55.8218 175.805 56.3943L171.026 59.1699L170.24 57.8157L174.94 55.0854C175.573 54.7177 175.961 54.2633 176.105 53.7219C176.259 53.1746 176.161 52.6 175.811 51.9981C175.42 51.3237 174.891 50.9025 174.224 50.7345C173.568 50.5605 172.804 50.7267 171.932 51.233L167.808 53.6288L167.021 52.2747L174.804 47.7542L175.59 49.1084L174.469 49.7593C175.671 49.797 176.6 50.3813 177.257 51.5124Z" fill="#182F43"/>
<path d="M183.368 64.7111L183.966 66.1391L176.012 69.4681C174.783 69.9824 173.658 69.9658 172.635 69.4182C171.601 68.8753 170.841 68.0226 170.355 66.8603C169.965 65.9305 169.807 65.0538 169.878 64.2303C169.939 63.4115 170.224 62.6938 170.733 62.0773L171.975 63.0403C171.235 63.8834 171.148 64.9801 171.713 66.3306C172.075 67.194 172.584 67.7743 173.242 68.0714C173.904 68.3795 174.629 68.3691 175.414 68.0402L176.593 67.5467C175.181 67.2795 174.192 66.4706 173.626 65.1201C173.131 63.9357 173.132 62.7578 173.63 61.5866C174.129 60.4153 174.981 59.5772 176.188 59.0721C177.394 58.5671 178.584 58.5504 179.757 59.022C180.941 59.489 181.781 60.3148 182.277 61.4992C182.847 62.8607 182.735 64.1306 181.94 65.3088L183.368 64.7111ZM175.038 62.2461C174.71 63.047 174.722 63.868 175.074 64.7093C175.426 65.5506 176.003 66.1354 176.803 66.4636C177.604 66.7918 178.425 66.7799 179.267 66.4278C180.097 66.0803 180.676 65.5061 181.004 64.7053C181.333 63.9044 181.321 63.0834 180.968 62.2421C180.616 61.4008 180.04 60.816 179.239 60.4878C178.438 60.1596 177.623 60.1692 176.792 60.5167C175.951 60.8688 175.366 61.4453 175.038 62.2461Z" fill="#182F43"/>
<path d="M174.215 77.3412L190.278 73.314L190.659 74.833L174.596 78.8602L174.215 77.3412Z" fill="#182F43"/>
</svg>
