<svg width="210" height="210" viewBox="0 0 210 210" fill="none" xmlns="http://www.w3.org/2000/svg">
<path d="M188.228 111.508C188.383 109.606 189.138 108.084 190.495 106.942C191.851 105.812 193.444 105.321 195.274 105.47C197.104 105.618 198.597 106.36 199.753 107.694C200.908 109.039 201.408 110.663 201.253 112.565C201.16 113.713 200.8 114.743 200.172 115.656C199.543 116.58 198.74 117.273 197.764 117.736L197.038 116.214C197.761 115.911 198.355 115.418 198.82 114.733C199.296 114.062 199.569 113.295 199.639 112.434C199.756 110.987 199.386 109.765 198.528 108.768C197.669 107.783 196.539 107.234 195.14 107.12C193.753 107.008 192.555 107.368 191.549 108.201C190.541 109.047 189.978 110.193 189.861 111.64C189.791 112.501 189.931 113.301 190.28 114.04C190.641 114.792 191.147 115.374 191.8 115.789L190.856 117.175C189.966 116.573 189.279 115.765 188.796 114.75C188.324 113.737 188.135 112.656 188.228 111.508Z" fill="#182F43"/>
<path d="M186.876 127.559C186.203 126.449 186.02 125.251 186.326 123.967C186.633 122.684 187.337 121.698 188.438 121.011C189.537 120.336 190.734 120.152 192.03 120.462C193.326 120.771 194.311 121.475 194.987 122.573C195.659 123.684 195.842 124.881 195.536 126.165C195.23 127.449 194.526 128.435 193.424 129.122C192.322 129.809 191.124 129.998 189.828 129.688C188.533 129.379 187.548 128.67 186.876 127.559ZM187.815 124.323C187.606 125.198 187.728 126.004 188.181 126.742C188.634 127.479 189.305 127.954 190.192 128.165C191.079 128.377 191.891 128.256 192.628 127.803C193.366 127.35 193.839 126.685 194.048 125.81C194.254 124.946 194.13 124.146 193.677 123.408C193.224 122.671 192.554 122.196 191.667 121.985C190.779 121.773 189.967 121.894 189.23 122.347C188.493 122.8 188.021 123.459 187.815 124.323Z" fill="#182F43"/>
<path d="M186.971 138.095C186.284 138.823 185.469 139.008 184.527 138.65C183.831 138.386 183.349 137.934 183.079 137.292C182.816 136.666 182.848 135.921 183.176 135.057L184.773 130.85L193.187 134.043L191.718 137.914C191.399 138.755 190.939 139.325 190.338 139.623C189.748 139.926 189.111 139.947 188.427 139.688C187.619 139.381 187.134 138.85 186.971 138.095ZM190.431 137.348L191.331 134.976L189.127 134.139L188.226 136.512C187.903 137.364 188.117 137.933 188.869 138.219C189.587 138.491 190.107 138.201 190.431 137.348ZM184.537 135.478C184.376 135.904 184.353 136.268 184.47 136.569C184.582 136.881 184.824 137.107 185.194 137.248C185.542 137.38 185.856 137.364 186.136 137.201C186.423 137.053 186.647 136.766 186.809 136.34L187.831 133.647L185.559 132.785L184.537 135.478Z" fill="#182F43"/>
<path d="M186.784 149.264C186.179 150.369 185.259 151.09 184.022 151.426C182.796 151.767 181.604 151.622 180.445 150.988C179.287 150.355 178.516 149.427 178.131 148.205C177.757 146.988 177.872 145.827 178.477 144.721C179.191 143.416 180.256 142.706 181.672 142.591L177.156 140.122L177.907 138.748L188.962 144.793L188.211 146.167L186.853 145.424C187.521 146.678 187.498 147.958 186.784 149.264ZM179.898 145.273C179.467 146.063 179.372 146.873 179.616 147.703C179.87 148.54 180.397 149.177 181.197 149.614C181.997 150.052 182.812 150.149 183.643 149.906C184.484 149.668 185.12 149.154 185.552 148.365C185.99 147.565 186.082 146.746 185.828 145.91C185.584 145.079 185.063 144.445 184.262 144.008C183.462 143.57 182.642 143.47 181.801 143.708C180.97 143.951 180.336 144.473 179.898 145.273Z" fill="#182F43"/>
<path d="M177.407 154.333C176.669 153.978 175.95 153.899 175.25 154.096C174.543 154.302 173.935 154.747 173.426 155.431C172.717 156.384 172.552 157.338 172.932 158.294L171.531 158.912C170.966 157.399 171.21 155.936 172.263 154.521C173.116 153.375 174.167 152.706 175.417 152.515C176.669 152.34 177.844 152.66 178.941 153.477C180.029 154.287 180.672 155.312 180.871 156.552C181.07 157.792 180.754 158.97 179.923 160.087C179.135 161.146 178.118 161.728 176.873 161.833C175.63 161.955 174.484 161.626 173.435 160.845C173.252 160.709 173.075 160.555 172.904 160.383L177.407 154.333ZM178.739 159.206C179.24 158.532 179.464 157.83 179.408 157.101C179.362 156.379 179.061 155.728 178.505 155.149L174.915 159.972C175.677 160.375 176.398 160.492 177.076 160.324C177.755 160.156 178.309 159.783 178.739 159.206Z" fill="#182F43"/>
<path d="M168.365 172.869L161.955 166.551L163.029 165.462L167.683 170.048L166.41 164.775L166.549 164.634L171.84 165.83L167.186 161.244L168.273 160.141L174.683 166.459L173.508 167.651L168.28 166.467L169.54 171.677L168.365 172.869Z" fill="#182F43"/>
<path d="M160.931 172.465C160.318 171.922 159.648 171.649 158.92 171.648C158.184 171.654 157.477 171.916 156.801 172.434C155.859 173.157 155.44 174.031 155.545 175.055L154.028 175.266C153.897 173.657 154.532 172.315 155.931 171.241C157.064 170.372 158.258 170.016 159.513 170.172C160.765 170.346 161.808 170.975 162.64 172.061C163.466 173.137 163.805 174.298 163.658 175.545C163.51 176.793 162.885 177.84 161.78 178.687C160.733 179.491 159.596 179.773 158.369 179.535C157.14 179.313 156.128 178.683 155.332 177.645C155.193 177.465 155.065 177.268 154.947 177.056L160.931 172.465ZM160.882 177.516C161.548 177.005 161.954 176.391 162.1 175.674C162.253 174.967 162.141 174.259 161.764 173.55L156.994 177.21C157.617 177.805 158.278 178.115 158.977 178.138C159.676 178.162 160.311 177.955 160.882 177.516Z" fill="#182F43"/>
<path d="M149.516 186.468L148.156 187.244L143.693 179.429L145.053 178.652L146.918 181.919L150.967 179.607L149.101 176.34L150.461 175.564L154.924 183.379L153.564 184.156L151.707 180.905L147.659 183.216L149.516 186.468Z" fill="#182F43"/>
<path d="M138.226 191.716L136.775 192.304L133.393 183.963L134.845 183.375L136.258 186.861L140.579 185.11L139.165 181.623L140.616 181.035L143.998 189.375L142.547 189.964L141.14 186.494L136.82 188.246L138.226 191.716Z" fill="#182F43"/>
<path d="M127.883 191.674C127.008 191.886 126.222 191.799 125.523 191.413C124.815 191.042 124.361 190.442 124.16 189.614C123.959 188.786 124.087 188.039 124.542 187.372C124.989 186.721 125.65 186.289 126.525 186.077L130.216 185.181L132.338 193.927L130.816 194.296L130.052 191.148L127.883 191.674ZM124.466 195.837L122.944 196.206L120.822 187.46L122.344 187.091L124.466 195.837ZM126.869 187.493C126.437 187.598 126.105 187.808 125.873 188.124C125.632 188.454 125.563 188.829 125.665 189.249C125.766 189.669 126 189.97 126.365 190.153C126.719 190.339 127.112 190.379 127.543 190.275L129.712 189.748L129.038 186.967L126.869 187.493Z" fill="#182F43"/>
<path d="M116.625 198.559L116.746 199.921L111.905 200.352L111.784 198.989L116.625 198.559ZM111.467 197.662L110.212 197.773L109.415 188.809L110.957 188.672L111.516 194.965L115.923 188.23L117.178 188.118L117.975 197.083L116.433 197.22L115.874 190.927L111.467 197.662Z" fill="#182F43"/>
<path d="M93.0246 197.145L91.772 197.009L92.7416 188.062L94.2805 188.229L93.5999 194.51L99.2375 188.766L100.49 188.901L99.5206 197.849L97.9816 197.682L98.6623 191.401L93.0246 197.145Z" fill="#182F43"/>
<path d="M75.6585 193.218L74.0568 192.731L80.3485 184.653C81.0125 183.789 81.7541 183.205 82.5735 182.903C83.3965 182.588 84.224 182.589 85.0562 182.904L84.6324 184.299C83.6005 183.898 82.6511 184.237 81.7841 185.315L81.5522 185.583L82.6682 195.347L81.0837 194.866L80.1896 187.22L75.6585 193.218Z" fill="#182F43"/>
<path d="M66.9055 181.545L65.7746 181.032L67.3896 177.475L68.7991 178.115L67.8018 180.311L73.9479 183.102L74.9451 180.906L76.3546 181.546L74.7397 185.102L73.7399 184.648C72.888 185.131 72.1668 186.023 71.5764 187.323L69.8498 191.126L63.8021 188.379L66.9055 181.545ZM72.1174 183.912L68.315 182.185L65.8144 187.692L69.0431 189.158L70.1669 186.683C70.7226 185.459 71.3727 184.536 72.1174 183.912Z" fill="#182F43"/>
<path d="M57.3493 175.558C58.6164 175.275 59.8094 175.484 60.9282 176.184C62.0471 176.885 62.7562 177.867 63.0554 179.13C63.3445 180.387 63.1357 181.58 62.4289 182.709C61.7222 183.838 60.7403 184.547 59.4834 184.836C58.2163 185.119 57.0233 184.91 55.9044 184.21C54.7856 183.509 54.0765 182.527 53.7772 181.264C53.4779 180.001 53.6817 178.805 54.3885 177.676C55.0952 176.547 56.0822 175.841 57.3493 175.558ZM60.1164 177.481C59.3535 177.004 58.5504 176.862 57.7069 177.056C56.8634 177.25 56.1997 177.734 55.7158 178.507C55.2319 179.28 55.087 180.088 55.281 180.931C55.475 181.775 55.9534 182.435 56.7163 182.913C57.4689 183.384 58.267 183.523 59.1105 183.329C59.954 183.135 60.6177 182.651 61.1016 181.878C61.5855 181.105 61.7304 180.297 61.5364 179.453C61.3424 178.61 60.8691 177.953 60.1164 177.481Z" fill="#182F43"/>
<path d="M51.9192 169.751C52.9426 170.603 53.506 171.642 53.6092 172.868C53.7124 174.094 53.3224 175.238 52.4392 176.298C51.4561 177.478 50.5291 178.244 49.658 178.596C48.7777 178.941 47.5877 178.926 46.088 178.551C45.8176 178.482 45.455 178.383 45.0002 178.254C44.5361 178.117 44.195 178.021 43.9768 177.964C43.751 177.916 43.4875 177.876 43.1863 177.844C42.8775 177.821 42.6117 177.85 42.3889 177.93C42.1493 178.011 41.918 178.139 41.6953 178.312L41.188 176.953C41.3385 176.828 41.4906 176.721 41.6442 176.63C41.7902 176.548 41.9592 176.486 42.1512 176.443C42.3264 176.402 42.4808 176.366 42.6144 176.337C42.7481 176.308 42.9355 176.308 43.1768 176.337C43.4011 176.368 43.5693 176.391 43.6815 176.406C43.7844 176.414 43.9757 176.456 44.2554 176.533C44.5258 176.602 44.7133 176.648 44.8178 176.673C44.9053 176.699 45.1112 176.761 45.4354 176.86C45.752 176.967 45.9494 177.03 46.0278 177.048C46.8775 177.303 47.5651 177.415 48.0905 177.384C48.6068 177.346 49.1061 177.168 49.5884 176.852C48.9862 176.975 48.3908 176.94 47.8023 176.746C47.2138 176.553 46.6983 176.272 46.2557 175.903C45.389 175.181 44.9017 174.275 44.7939 173.186C44.6769 172.089 45.0062 171.075 45.7819 170.144C46.5653 169.203 47.537 168.693 48.697 168.613C49.8493 168.542 50.9234 168.921 51.9192 169.751ZM52.0628 172.869C51.9673 172.102 51.5969 171.45 50.9515 170.912C50.306 170.375 49.6107 170.131 48.8656 170.182C48.1112 170.225 47.4844 170.547 46.9852 171.146C46.4706 171.764 46.2549 172.435 46.338 173.16C46.4043 173.887 46.7647 174.523 47.4194 175.068C48.0095 175.56 48.7017 175.816 49.496 175.838C50.2735 175.861 50.9156 175.568 51.4225 174.959C51.9448 174.332 52.1582 173.635 52.0628 172.869Z" fill="#182F43"/>
<path d="M35.5448 166.82L34.4826 165.67L41.0958 159.565L42.158 160.716L39.3937 163.268L42.5559 166.693L45.3202 164.142L46.3824 165.292L39.7692 171.397L38.707 170.246L41.4581 167.707L38.2959 164.281L35.5448 166.82Z" fill="#182F43"/>
<path d="M31.9534 157.168C31.4455 156.425 31.2485 155.658 31.3625 154.868C31.4598 154.075 31.8601 153.438 32.5634 152.957C33.2668 152.476 34.0107 152.331 34.7951 152.522C35.5628 152.709 36.2006 153.174 36.7085 153.917L38.8519 157.053L31.4221 162.132L30.5383 160.839L33.2131 159.011L31.9534 157.168ZM26.8509 155.445L25.9671 154.152L33.3969 149.073L34.2807 150.366L26.8509 155.445ZM35.5049 154.74C35.2543 154.374 34.9404 154.138 34.563 154.032C34.169 153.924 33.7937 153.991 33.4371 154.235C33.0804 154.479 32.8812 154.804 32.8393 155.211C32.7907 155.607 32.8916 155.989 33.1422 156.355L34.4018 158.198L36.7645 156.583L35.5049 154.74Z" fill="#182F43"/>
<path d="M21.5234 149.089L20.2929 149.687L18.169 145.316L19.3995 144.718L21.5234 149.089ZM20.5272 143.95L19.9766 142.817L28.0717 138.884L28.7482 140.276L23.0654 143.037L30.9271 144.761L31.4778 145.894L23.3827 149.827L22.7062 148.435L28.3889 145.674L20.5272 143.95Z" fill="#182F43"/>
<path d="M21.5173 123.681L21.2061 122.479L24.9875 121.5L25.3754 122.999L23.0403 123.603L24.7316 130.138L27.0666 129.534L27.4545 131.032L23.6731 132.011L23.398 130.948C22.4869 130.589 21.3401 130.588 19.9577 130.946L15.9149 131.992L14.2507 125.562L21.5173 123.681ZM22.9515 129.223L21.9052 125.18L16.0501 126.695L16.9385 130.128L19.5698 129.447C20.871 129.111 21.9982 129.036 22.9515 129.223Z" fill="#182F43"/>
<path d="M12.4837 114.529L12.3335 113.278L21.2694 112.205L21.4539 113.742L15.1809 114.495L22.0481 118.692L22.1983 119.943L13.2625 121.016L13.078 119.479L19.3509 118.726L12.4837 114.529Z" fill="#182F43"/>
<path d="M16.4152 103.576C16.8271 102.581 17.543 102.086 18.563 102.09C19.319 102.093 19.9598 102.396 20.4855 102.998C20.9992 103.6 21.2539 104.453 21.2496 105.557C21.2427 107.357 20.518 108.56 19.0757 109.166L18.3067 107.849C19.2921 107.505 19.7871 106.733 19.7917 105.533C19.794 104.933 19.6698 104.47 19.419 104.145C19.1563 103.808 18.821 103.639 18.413 103.638C18.053 103.636 17.7585 103.773 17.5294 104.048C17.3004 104.311 17.185 104.671 17.1832 105.127L17.1782 106.441L15.7562 106.435L15.7599 105.463C15.7617 105.007 15.6551 104.653 15.44 104.4C15.213 104.147 14.9075 104.02 14.5235 104.019C14.1395 104.017 13.8269 104.166 13.5858 104.465C13.3447 104.752 13.2231 105.154 13.2211 105.67C13.2172 106.678 13.6406 107.363 14.4912 107.726L13.7483 109.002C12.4307 108.361 11.775 107.248 11.7811 105.664C11.7849 104.68 12.0399 103.907 12.5461 103.345C13.0523 102.771 13.6714 102.485 14.4034 102.488C15.3154 102.492 15.986 102.854 16.4152 103.576Z" fill="#182F43"/>
<path d="M13.0839 90.7759L13.2884 89.2234L22.2113 90.399L22.0068 91.9516L20.472 91.7494C21.548 92.6778 21.9888 93.8797 21.7944 95.355C21.6298 96.6042 21.0374 97.6094 20.0172 98.3707C18.9852 99.1304 17.8148 99.424 16.5061 99.2516C15.1974 99.0792 14.1489 98.4932 13.3608 97.4937C12.5607 96.4926 12.2429 95.3674 12.4075 94.1182C12.6019 92.643 13.3389 91.5963 14.6186 90.9781L13.0839 90.7759ZM20.3212 94.9612C20.4403 94.057 20.2365 93.2615 19.7097 92.5748C19.171 91.8866 18.4495 91.4829 17.5453 91.3637C16.6411 91.2446 15.8457 91.4485 15.159 91.9753C14.4604 92.5005 14.0515 93.2152 13.9324 94.1194C13.8149 95.0117 14.0254 95.802 14.5641 96.4903C15.091 97.177 15.8065 97.5799 16.7106 97.699C17.6148 97.8181 18.4162 97.6151 19.1148 97.0898C19.8015 96.563 20.2036 95.8535 20.3212 94.9612Z" fill="#182F43"/>
<path d="M13.2101 82.9382L11.8924 82.5704L13.1992 77.8894L14.5168 78.2572L13.2101 82.9382ZM15.8703 78.4294L16.2091 77.2158L24.8777 79.6357L24.4615 81.1267L18.3761 79.4279L23.1209 85.9291L22.7821 87.1427L14.1135 84.7228L14.5297 83.2318L20.6151 84.9306L15.8703 78.4294Z" fill="#182F43"/>
<path d="M20.114 67.0355L20.7348 65.5978L28.9974 69.1656L28.3767 70.6033L24.9229 69.1119L23.0748 73.392L26.5286 74.8833L25.9078 76.321L17.6451 72.7533L18.2659 71.3156L21.7032 72.7997L23.5513 68.5197L20.114 67.0355Z" fill="#182F43"/>
<path d="M29.9932 50.0399L37.4044 55.1462L36.5159 56.4358L30.3349 52.1771L27.6899 56.0161L33.8708 60.2748L32.9823 61.5643L25.5711 56.458L29.9932 50.0399Z" fill="#182F43"/>
<path d="M35.838 42.5826C36.6893 41.6536 37.7555 41.1739 39.0367 41.1435C40.309 41.105 41.4318 41.5316 42.405 42.4234C43.3781 43.3152 43.9054 44.4006 43.9866 45.6796C44.0591 46.9504 43.6697 48.0503 42.8184 48.9792C41.8131 50.0763 40.609 50.511 39.2062 50.2835L43.0016 53.7615L41.9436 54.9161L32.6541 46.4033L33.7121 45.2488L34.8534 46.2946C34.5045 44.917 34.8327 43.6796 35.838 42.5826ZM41.5699 48.1037C42.1779 47.4402 42.4631 46.6761 42.4254 45.8114C42.3788 44.9386 42.0193 44.1941 41.3469 43.578C40.6746 42.9618 39.906 42.6726 39.0414 42.7103C38.1678 42.7399 37.427 43.0865 36.819 43.7501C36.2028 44.4224 35.9181 45.195 35.9646 46.0678C36.0024 46.9325 36.3574 47.6729 37.0298 48.2891C37.7022 48.9052 38.4751 49.1985 39.3486 49.1689C40.2133 49.1311 40.9537 48.7761 41.5699 48.1037Z" fill="#182F43"/>
<path d="M52.677 37.9125C52.5461 39.2041 51.9719 40.2705 50.9546 41.1117C49.9373 41.9528 48.782 42.3163 47.4887 42.2022C46.2047 42.0805 45.1384 41.5063 44.2896 40.4798C43.4408 39.4532 43.0773 38.2979 43.199 37.0139C43.33 35.7223 43.9042 34.6559 44.9215 33.8148C45.9388 32.9736 47.0941 32.6101 48.3873 32.7242C49.6806 32.8383 50.7516 33.4086 51.6004 34.4352C52.4491 35.4617 52.808 36.6208 52.677 37.9125ZM49.9797 39.9325C50.6733 39.359 51.0609 38.6414 51.1426 37.7798C51.2243 36.9182 50.9746 36.1359 50.3935 35.4331C49.8123 34.7302 49.0909 34.3379 48.2293 34.2562C47.3677 34.1745 46.59 34.4204 45.8964 34.9939C45.212 35.5598 44.829 36.2735 44.7473 37.1351C44.6656 37.9968 44.9154 38.779 45.4965 39.4819C46.0776 40.1848 46.799 40.577 47.6606 40.6587C48.5223 40.7404 49.2953 40.4983 49.9797 39.9325Z" fill="#182F43"/>
<path d="M62.2353 31.0349L63.2904 30.3798L65.3508 33.6981L64.0357 34.5147L62.7634 32.4656L57.0289 36.0261L58.3012 38.0753L56.9861 38.8918L54.9257 35.5735L55.8585 34.9943C55.9301 34.0176 55.5892 32.9227 54.836 31.7095L52.6331 28.1617L58.2759 24.6581L62.2353 31.0349ZM57.3724 34.0543L60.9202 31.8515L57.7299 26.7133L54.7174 28.5838L56.1511 30.8929C56.86 32.0347 57.2671 33.0885 57.3724 34.0543Z" fill="#182F43"/>
<path d="M68.241 19.6669L69.7652 18.9747L70.3736 29.1957C70.4457 30.2832 70.274 31.2113 69.8586 31.9798C69.4481 32.7592 68.8262 33.3052 67.9929 33.6177L67.39 32.2902C68.43 31.9102 68.9194 31.029 68.8584 29.6465L68.8556 29.292L61.5705 22.6959L63.0783 22.0112L68.7983 27.1632L68.241 19.6669Z" fill="#182F43"/>
<path d="M83.0064 23.9928L81.1507 24.5719L75.9622 21.7222L77.233 25.7945L75.7381 26.261L73.057 17.6696L74.5519 17.2031L75.7369 21.0005L78.2634 16.0449L80.1878 15.4443L77.3788 20.8841L83.0064 23.9928Z" fill="#182F43"/>
<path d="M90.0212 13.325L90.3045 14.8102L87.2987 15.3836L88.7016 22.7389L87.1634 23.0324L85.7604 15.677L82.7369 16.2536L82.4536 14.7684L90.0212 13.325Z" fill="#182F43"/>
<path d="M100.752 12.2566L102.315 12.16L102.87 21.1429L101.307 21.2395L101.212 19.6944C100.507 20.9283 99.4115 21.5911 97.9263 21.6829C96.6687 21.7606 95.5686 21.3718 94.626 20.5163C93.6827 19.6488 93.1704 18.5564 93.0889 17.2389C93.0075 15.9214 93.3818 14.7801 94.2118 13.8151C95.0412 12.8381 96.0846 12.3107 97.3422 12.2329C98.8274 12.1411 99.9959 12.6641 100.848 13.8017L100.752 12.2566ZM98.0307 20.1616C98.9409 20.1053 99.6826 19.7529 100.256 19.1043C100.828 18.4437 101.086 17.6583 101.03 16.748C100.974 15.8378 100.621 15.0961 99.9725 14.523C99.3232 13.938 98.5434 13.6736 97.6331 13.7298C96.7348 13.7854 95.9995 14.1434 95.4272 14.804C94.8541 15.4526 94.5957 16.232 94.6519 17.1423C94.7082 18.0525 95.061 18.8002 95.7103 19.3852C96.3589 19.9583 97.1324 20.2171 98.0307 20.1616Z" fill="#182F43"/>
<path d="M119.538 21.2745C118.494 22.046 117.319 22.3381 116.012 22.1506C114.705 21.9631 113.66 21.3523 112.874 20.3184C112.101 19.2861 111.809 18.1107 111.998 16.7922C112.188 15.4737 112.798 14.4278 113.831 13.6546C114.875 12.8831 116.05 12.5911 117.357 12.7786C118.663 12.966 119.709 13.5768 120.494 14.6108C121.28 15.6448 121.577 16.821 121.388 18.1395C121.199 19.458 120.582 20.503 119.538 21.2745ZM116.229 20.6361C117.12 20.7639 117.912 20.5684 118.605 20.0495C119.297 19.5306 119.709 18.8198 119.838 17.9171C119.968 17.0143 119.773 16.2166 119.254 15.5239C118.735 14.8311 118.03 14.4209 117.14 14.293C116.261 14.1669 115.475 14.3633 114.782 14.8822C114.089 15.401 113.678 16.1118 113.549 17.0146C113.419 17.9174 113.614 18.7151 114.133 19.4078C114.651 20.1005 115.35 20.51 116.229 20.6361Z" fill="#182F43"/>
<path d="M131.795 16.1092L131.399 17.5686L128.446 16.7682L126.487 23.9955L124.976 23.5859L126.934 16.3586L123.963 15.5535L124.359 14.0942L131.795 16.1092Z" fill="#182F43"/>
<path d="M139.287 26.7769L144.567 29.2942L143.886 30.7241L137.094 27.4864L142.516 16.1126L149.227 19.3116L148.545 20.7415L143.346 18.2628L141.68 21.7562L146.473 24.0412L145.8 25.4548L141.006 23.1698L139.287 26.7769Z" fill="#182F43"/>
<path d="M151.196 26.2988C152.213 25.6079 153.303 25.6115 154.465 26.3098L153.621 27.7139C152.982 27.2876 152.311 27.1226 151.609 27.2189C150.907 27.3153 150.303 27.7852 149.796 28.6287L147.34 32.7177L145.998 31.9113L150.632 24.1963L151.974 25.0027L151.196 26.2988Z" fill="#182F43"/>
<path d="M162.565 32.262L163.811 33.2107L158.358 40.3711L157.113 39.4224L158.05 38.1908C156.71 38.6635 155.448 38.4491 154.264 37.5476C153.262 36.7843 152.683 35.7708 152.529 34.5073C152.383 33.2342 152.709 32.0725 153.509 31.0223C154.309 29.9721 155.338 29.3532 156.597 29.1656C157.863 28.9684 158.998 29.2515 160 30.0148C161.184 30.9163 161.726 32.0759 161.627 33.4936L162.565 32.262ZM155.338 36.4646C156.063 37.0171 156.855 37.2353 157.713 37.1191C158.578 36.9934 159.286 36.5678 159.839 35.8422C160.391 35.1166 160.609 34.325 160.493 33.4673C160.384 32.6001 159.967 31.8902 159.242 31.3377C158.526 30.7925 157.735 30.5827 156.87 30.7084C156.012 30.8246 155.307 31.2454 154.755 31.971C154.202 32.6966 153.981 33.493 154.089 34.3602C154.206 35.2179 154.622 35.9194 155.338 36.4646Z" fill="#182F43"/>
<path d="M170.286 52.5009L171.753 49.8768L168.045 45.5869L165.236 46.6585L164.071 45.3102L176.676 40.6258L177.912 42.0557L171.451 53.8492L170.286 52.5009ZM169.607 44.9987L172.561 48.417L175.777 42.6404L169.607 44.9987Z" fill="#182F43"/>
<path d="M183.196 54.7288C183.872 55.7918 184.059 56.946 183.756 58.1912C183.464 59.43 182.76 60.4037 181.647 61.1123C180.533 61.8209 179.348 62.0486 178.092 61.7954C176.846 61.5358 175.884 60.8744 175.208 59.8113C174.409 58.5559 174.301 57.2803 174.885 55.9845L170.542 58.748L169.701 57.4268L180.332 50.6629L181.172 51.9841L179.866 52.8151C181.287 52.8354 182.397 53.4733 183.196 54.7288ZM176.377 58.8326C176.86 59.592 177.524 60.0655 178.369 60.2533C179.224 60.4347 180.036 60.2806 180.806 59.791C181.575 59.3014 182.054 58.6342 182.242 57.7893C182.44 56.938 182.297 56.1327 181.814 55.3734C181.324 54.6039 180.652 54.1285 179.797 53.9471C178.952 53.7593 178.145 53.9102 177.376 54.3998C176.606 54.8894 176.123 55.5598 175.925 56.4111C175.737 57.256 175.888 58.0632 176.377 58.8326Z" fill="#182F43"/>
<path d="M189.571 66.3906C190.088 67.5398 190.107 68.7088 189.628 69.8976C189.16 71.0815 188.325 71.9441 187.121 72.4853C185.917 73.0266 184.711 73.0818 183.504 72.6508C182.308 72.2148 181.452 71.4223 180.935 70.2731C180.325 68.9159 180.402 67.6381 181.166 66.4395L176.47 68.5505L175.828 67.1222L187.32 61.9554L187.962 63.3837L186.551 64.0185C187.954 64.2428 188.961 65.0335 189.571 66.3906ZM182.233 69.4725C182.602 70.2933 183.191 70.8574 184.001 71.1646C184.821 71.4669 185.647 71.431 186.478 71.0571C187.31 70.6831 187.88 70.0915 188.187 69.2824C188.505 68.4683 188.48 67.6509 188.111 66.83C187.737 65.9982 187.14 65.4312 186.32 65.1289C185.51 64.8217 184.69 64.855 183.858 65.229C183.026 65.603 182.451 66.197 182.133 67.0111C181.826 67.8202 181.859 68.6407 182.233 69.4725Z" fill="#182F43"/>
</svg>
