<svg width="210" height="210" viewBox="0 0 210 210" fill="none" xmlns="http://www.w3.org/2000/svg">
<path d="M199.067 112.987C198.754 113.618 198.323 114.098 197.775 114.426C197.227 114.755 196.594 114.899 195.875 114.857C194.797 114.795 193.94 114.336 193.304 113.482C192.668 112.64 192.388 111.554 192.465 110.224C192.535 109.014 192.862 108.053 193.444 107.342C194.025 106.642 194.75 106.168 195.618 105.917L196.344 107.384C194.909 107.673 194.143 108.651 194.047 110.316C193.996 111.19 194.148 111.878 194.504 112.38C194.872 112.882 195.379 113.152 196.026 113.189C196.673 113.227 197.207 113.029 197.629 112.597C198.05 112.177 198.284 111.565 198.33 110.762L198.415 109.289L199.943 109.377L199.881 110.438C199.837 111.204 199.987 111.826 200.332 112.303C200.689 112.78 201.173 113.037 201.784 113.072C202.383 113.107 202.881 112.919 203.277 112.51C203.685 112.112 203.911 111.537 203.954 110.782C204.035 109.392 203.472 108.428 202.265 107.889L203.155 106.534C204.848 107.39 205.636 108.836 205.518 110.872C205.448 112.082 205.056 113.039 204.342 113.743C203.627 114.459 202.755 114.787 201.724 114.727C200.526 114.658 199.64 114.078 199.067 112.987Z" fill="#182F43"/>
<path d="M199.656 125.855L199.368 127.395L190.521 125.742L190.809 124.203L192.33 124.487C191.306 123.502 190.93 122.278 191.203 120.815C191.434 119.577 192.08 118.605 193.139 117.899C194.21 117.196 195.395 116.966 196.692 117.208C197.99 117.451 199.005 118.092 199.739 119.132C200.484 120.175 200.741 121.316 200.51 122.554C200.237 124.017 199.445 125.023 198.134 125.571L199.656 125.855ZM192.653 121.288C192.486 122.184 192.646 122.989 193.136 123.703C193.637 124.42 194.336 124.862 195.232 125.029C196.129 125.197 196.934 125.036 197.648 124.546C198.373 124.059 198.82 123.368 198.987 122.471C199.153 121.586 198.985 120.786 198.484 120.07C197.994 119.356 197.301 118.915 196.405 118.748C195.508 118.58 194.697 118.74 193.972 119.227C193.258 119.716 192.818 120.403 192.653 121.288Z" fill="#182F43"/>
<path d="M187.481 135.677L188.067 133.823L193.371 131.196L189.304 129.91L189.776 128.417L198.357 131.131L197.885 132.624L194.092 131.424L196.713 136.331L196.105 138.253L193.249 132.838L187.481 135.677Z" fill="#182F43"/>
<path d="M191.962 147.851L191.315 149.277L183.12 145.555L183.768 144.129L185.177 144.769C184.418 143.567 184.346 142.289 184.961 140.934C185.482 139.787 186.341 138.997 187.538 138.566C188.747 138.139 189.952 138.199 191.154 138.745C192.355 139.291 193.188 140.157 193.651 141.343C194.125 142.533 194.102 143.702 193.581 144.85C192.966 146.204 191.957 146.991 190.553 147.21L191.962 147.851ZM186.256 141.74C185.879 142.57 185.842 143.39 186.147 144.201C186.462 145.016 187.034 145.612 187.865 145.99C188.695 146.367 189.515 146.403 190.326 146.099C191.147 145.8 191.746 145.235 192.123 144.405C192.495 143.585 192.523 142.768 192.208 141.952C191.904 141.142 191.337 140.548 190.506 140.171C189.676 139.794 188.85 139.755 188.029 140.054C187.219 140.358 186.628 140.92 186.256 141.74Z" fill="#182F43"/>
<path d="M175.963 157.209L176.948 155.66L182.354 155.11L178.755 152.82L179.586 151.513L183.185 153.804L181.392 148.673L182.368 147.139L184.267 152.807L189.864 152.124L188.888 153.658L183.822 154.21L187.178 156.346L186.347 157.652L182.992 155.516L184.638 160.34L183.652 161.889L181.909 156.513L175.963 157.209Z" fill="#182F43"/>
<path d="M177.521 169.319L176.711 170.285L169.818 164.499L170.813 163.313L175.652 167.375L174.017 159.493L174.827 158.527L181.721 164.314L180.726 165.5L175.886 161.438L177.521 169.319Z" fill="#182F43"/>
<path d="M158.55 174.869L160.03 173.608L165.92 174.195L163.154 170.947L164.346 169.931L170.181 176.784L168.988 177.8L166.41 174.771L166.029 180.321L164.494 181.628L164.945 175.522L158.55 174.869Z" fill="#182F43"/>
<path d="M158.004 186.436C156.954 187.132 155.804 187.34 154.553 187.06C153.309 186.79 152.323 186.105 151.594 185.004C150.866 183.904 150.616 182.723 150.846 181.462C151.083 180.211 151.727 179.238 152.777 178.542C154.018 177.72 155.291 177.589 156.597 178.149L153.755 173.856L155.06 172.991L162.017 183.497L160.711 184.362L159.857 183.071C159.862 184.493 159.245 185.614 158.004 186.436ZM153.777 179.693C153.027 180.19 152.565 180.863 152.393 181.711C152.227 182.569 152.396 183.379 152.9 184.139C153.403 184.9 154.079 185.366 154.927 185.538C155.782 185.721 156.584 185.563 157.335 185.066C158.095 184.562 158.558 183.881 158.724 183.023C158.896 182.175 158.73 181.37 158.227 180.61C157.723 179.85 157.044 179.378 156.19 179.196C155.341 179.024 154.537 179.189 153.777 179.693Z" fill="#182F43"/>
<path d="M147.982 186.075C147.485 185.423 146.88 185.026 146.167 184.884C145.443 184.747 144.7 184.868 143.936 185.246C142.872 185.773 142.292 186.549 142.196 187.574L140.667 187.487C140.851 185.883 141.733 184.69 143.314 183.907C144.593 183.273 145.833 183.155 147.034 183.551C148.229 183.964 149.13 184.783 149.737 186.009C150.338 187.224 150.446 188.43 150.06 189.625C149.674 190.82 148.858 191.727 147.61 192.345C146.427 192.93 145.257 192.988 144.1 192.516C142.937 192.061 142.066 191.247 141.486 190.075C141.385 189.87 141.297 189.653 141.223 189.422L147.982 186.075ZM146.956 191.022C147.708 190.649 148.226 190.125 148.507 189.45C148.794 188.786 148.821 188.069 148.588 187.301L143.201 189.969C143.697 190.674 144.286 191.105 144.966 191.264C145.647 191.422 146.31 191.341 146.956 191.022Z" fill="#182F43"/>
<path d="M133.543 197.724L132.063 198.236L129.125 189.729L130.605 189.217L131.11 190.68C131.46 189.303 132.337 188.371 133.744 187.885C134.935 187.473 136.099 187.554 137.236 188.126C138.377 188.709 139.163 189.624 139.594 190.872C140.024 192.12 139.969 193.32 139.428 194.472C138.89 195.635 138.026 196.423 136.835 196.834C135.428 197.32 134.163 197.129 133.038 196.261L133.543 197.724ZM134.05 189.379C133.188 189.677 132.568 190.215 132.189 190.993C131.815 191.783 131.776 192.609 132.074 193.471C132.372 194.333 132.91 194.953 133.688 195.332C134.47 195.722 135.292 195.768 136.154 195.47C137.005 195.176 137.617 194.634 137.992 193.844C138.371 193.066 138.411 192.246 138.113 191.384C137.816 190.521 137.276 189.896 136.494 189.506C135.715 189.127 134.901 189.085 134.05 189.379Z" fill="#182F43"/>
<path d="M121.784 200.583L121.461 199.106L124.45 198.452L122.852 191.137L124.381 190.802L125.98 198.118L128.987 197.46L129.31 198.937L121.784 200.583Z" fill="#182F43"/>
<path d="M112.409 201.709L111.155 201.84L110.22 192.889L111.76 192.728L112.416 199.012L116.719 192.21L117.972 192.079L118.907 201.03L117.368 201.191L116.711 194.907L112.409 201.709Z" fill="#182F43"/>
<path d="M100.899 197.536C99.9794 197.142 99.5255 196.44 99.5371 195.432C99.5457 194.688 99.8048 194.079 100.314 193.605C100.812 193.143 101.522 192.917 102.446 192.928L106.946 192.98L106.842 201.979L102.702 201.932C101.802 201.921 101.109 201.685 100.622 201.223C100.135 200.774 99.8962 200.183 99.9046 199.451C99.9146 198.587 100.246 197.949 100.899 197.536ZM102.79 200.528L105.328 200.558L105.355 198.2L102.818 198.171C101.906 198.16 101.445 198.557 101.436 199.361C101.427 200.129 101.878 200.518 102.79 200.528ZM102.52 194.351C102.064 194.346 101.715 194.45 101.472 194.663C101.218 194.876 101.088 195.18 101.084 195.576C101.079 195.948 101.202 196.238 101.452 196.445C101.689 196.663 102.036 196.775 102.492 196.781L105.372 196.814L105.4 194.384L102.52 194.351Z" fill="#182F43"/>
<path d="M90.0443 200.841L88.491 200.643L89.632 191.715L91.1853 191.914L90.7084 195.646L95.3327 196.237L95.8097 192.505L97.363 192.704L96.222 201.631L94.6686 201.433L95.1433 197.719L90.519 197.128L90.0443 200.841Z" fill="#182F43"/>
<path d="M81.6697 195.793C80.8002 195.561 80.151 195.108 79.7221 194.434C79.2786 193.769 79.1666 193.025 79.3863 192.202C79.606 191.379 80.0752 190.784 80.7942 190.417C81.4984 190.058 82.2853 189.995 83.1548 190.227L86.8243 191.207L84.5038 199.903L82.9908 199.499L83.8262 196.369L81.6697 195.793ZM76.678 197.813L75.165 197.409L77.4854 188.714L78.9984 189.118L76.678 197.813ZM82.7789 191.636C82.3499 191.522 81.958 191.547 81.6032 191.714C81.2337 191.888 80.9933 192.184 80.8819 192.602C80.7705 193.019 80.8315 193.395 81.0649 193.731C81.2867 194.063 81.612 194.287 82.041 194.401L84.1975 194.977L84.9354 192.212L82.7789 191.636Z" fill="#182F43"/>
<path d="M69.4771 196.717L68.9538 197.981L64.4638 196.121L64.9872 194.857L69.4771 196.717ZM65.3207 193.534L64.1567 193.052L67.5998 184.736L69.0299 185.329L66.6129 191.166L73.6362 187.237L74.8003 187.719L71.3572 196.035L69.9271 195.442L72.3441 189.605L65.3207 193.534Z" fill="#182F43"/>
<path d="M43.9981 185.16L51.0312 174.705L52.405 175.63L46.9091 183.799L54.1566 180.411L54.3358 180.532L53.9374 188.509L59.4231 180.354L60.8119 181.289L53.7788 191.743L52.2109 190.688L52.5985 182.921L45.566 186.215L43.9981 185.16Z" fill="#182F43"/>
<path d="M42.7889 168.849C44.0857 168.791 45.2239 169.205 46.2034 170.09C47.1829 170.975 47.7099 172.065 47.7844 173.362C47.85 174.65 47.4365 175.788 46.5439 176.777C45.6513 177.766 44.561 178.293 43.2731 178.358C41.9763 178.416 40.8381 178.002 39.8586 177.117C38.8791 176.233 38.3521 175.142 38.2776 173.846C38.2031 172.549 38.6121 171.407 39.5047 170.418C40.3974 169.429 41.4921 168.906 42.7889 168.849ZM45.1781 171.225C44.5102 170.622 43.7442 170.342 42.8799 170.386C42.0157 170.43 41.278 170.791 40.6668 171.468C40.0556 172.145 39.7721 172.916 39.8161 173.78C39.8601 174.645 40.2161 175.378 40.8839 175.982C41.5428 176.577 42.3045 176.853 43.1687 176.809C44.033 176.765 44.7707 176.404 45.3818 175.727C45.993 175.05 46.2766 174.28 46.2325 173.415C46.1885 172.551 45.837 171.821 45.1781 171.225Z" fill="#182F43"/>
<path d="M32.5603 167.187L34.171 168.958L37.7789 165.675C38.1073 165.376 38.2859 165.1 38.3149 164.846C38.3269 164.592 38.2163 164.327 37.9829 164.053C37.7407 163.787 37.4331 163.466 37.0601 163.092L38.0985 162.147C39.1521 163.038 39.7464 163.852 39.8814 164.589C40.0076 165.334 39.6579 166.082 38.8325 166.833L35.2247 170.116L36.4237 171.435L35.3054 172.452L34.1064 171.134L32.5887 172.515L31.1889 171.671L33.0527 169.975L31.442 168.204L32.5603 167.187Z" fill="#182F43"/>
<path d="M28.216 166.825C28.4046 167.059 28.4837 167.319 28.4533 167.606C28.4229 167.893 28.2958 168.127 28.0719 168.308C27.8479 168.489 27.5925 168.564 27.3057 168.534C27.0095 168.511 26.7671 168.383 26.5785 168.15C26.3975 167.926 26.3268 167.667 26.3665 167.372C26.3969 167.085 26.524 166.851 26.7479 166.67C26.9719 166.489 27.2272 166.414 27.5141 166.444C27.801 166.474 28.0349 166.601 28.216 166.825ZM36.9851 160.751L29.9874 166.411L29.003 165.193L36.0006 159.534L36.9851 160.751Z" fill="#182F43"/>
<path d="M29.3255 152.123C30.5988 152.376 31.6058 153.048 32.3466 154.141C33.0874 155.233 33.3398 156.418 33.1036 157.695C32.8608 158.962 32.1882 159.969 31.0859 160.717C29.9837 161.465 28.7993 161.717 27.5327 161.474C26.2595 161.222 25.2524 160.549 24.5116 159.456C23.7708 158.364 23.5185 157.179 23.7546 155.902C23.9908 154.626 24.66 153.613 25.7622 152.866C26.8645 152.118 28.0523 151.87 29.3255 152.123ZM31.0805 155C30.5754 154.255 29.8979 153.801 29.048 153.638C28.1981 153.475 27.3958 153.65 26.6411 154.162C25.8864 154.674 25.4276 155.355 25.2646 156.205C25.1016 157.055 25.2727 157.853 25.7777 158.597C26.2761 159.332 26.9502 159.781 27.8001 159.944C28.6501 160.107 29.4524 159.933 30.2071 159.421C30.9618 158.909 31.4206 158.228 31.5836 157.377C31.7466 156.527 31.5789 155.735 31.0805 155Z" fill="#182F43"/>
<path d="M18.2543 148.824C17.7719 147.884 17.6843 146.978 17.9915 146.105C18.288 145.238 18.9433 144.544 19.9573 144.023L24.8724 141.497L25.5878 142.89L20.7527 145.375C20.1016 145.709 19.6904 146.143 19.5191 146.676C19.3371 147.215 19.405 147.794 19.723 148.413C20.0793 149.107 20.5859 149.555 21.2427 149.757C21.889 149.965 22.6603 149.838 23.5569 149.377L27.7997 147.198L28.515 148.591L20.5099 152.704L19.7945 151.311L20.9472 150.718C19.7495 150.619 18.8518 149.987 18.2543 148.824Z" fill="#182F43"/>
<path d="M7.93391 131.392L7.47882 129.894L19.5345 126.23L19.9896 127.729L18.5084 128.179C19.8718 128.58 20.7697 129.492 21.2021 130.916C21.5682 132.122 21.444 133.282 20.8295 134.397C20.2035 135.515 19.259 136.266 17.996 136.65C16.733 137.034 15.5362 136.933 14.4056 136.349C13.2634 135.768 12.5093 134.874 12.1431 133.669C11.7107 132.245 11.9495 130.987 12.8595 129.895L7.93391 131.392ZM19.6979 131.166C19.4328 130.293 18.9186 129.653 18.1552 129.246C17.3803 128.841 16.5566 128.772 15.684 129.037C14.8114 129.302 14.1712 129.817 13.7635 130.58C13.3443 131.347 13.2672 132.167 13.5323 133.04C13.7938 133.901 14.312 134.534 15.0869 134.938C15.8503 135.345 16.6683 135.417 17.5409 135.151C18.4135 134.886 19.0594 134.37 19.4786 133.603C19.8863 132.84 19.9594 132.027 19.6979 131.166Z" fill="#182F43"/>
<path d="M15.0535 123.166C15.8208 122.88 16.376 122.416 16.719 121.775C17.0601 121.121 17.1605 120.375 17.0202 119.534C16.8245 118.363 16.2501 117.583 15.2972 117.194L15.8234 115.756C17.3052 116.396 18.1913 117.587 18.4819 119.327C18.7171 120.735 18.4709 121.956 17.7433 122.99C17.0019 124.015 15.9565 124.639 14.6072 124.865C13.2698 125.088 12.085 124.842 11.0531 124.127C10.0211 123.411 9.39044 122.367 9.16116 120.994C8.94373 119.692 9.22843 118.555 10.0152 117.584C10.7883 116.603 11.8198 116.005 13.1099 115.79C13.3348 115.752 13.5686 115.731 13.8112 115.727L15.0535 123.166ZM10.617 120.75C10.7553 121.579 11.1067 122.226 11.6711 122.691C12.2236 123.158 12.9013 123.392 13.7042 123.392L12.7139 117.462C11.8953 117.732 11.3115 118.171 10.9626 118.776C10.6136 119.382 10.4984 120.04 10.617 120.75Z" fill="#182F43"/>
<path d="M10.7733 112.159C11.1207 112.139 11.3921 111.949 11.5876 111.589C11.7712 111.23 11.9146 110.801 12.0179 110.302C12.1093 109.804 12.2246 109.304 12.3639 108.803C12.4911 108.303 12.7424 107.868 13.1176 107.497C13.4808 107.128 13.9679 106.925 14.5789 106.89C15.3936 106.843 16.0648 107.122 16.5928 107.729C17.1201 108.323 17.4121 109.112 17.469 110.094C17.5197 110.968 17.3714 111.728 17.0241 112.374C16.6769 113.019 16.1934 113.491 15.5737 113.792L14.7229 112.489C15.1459 112.32 15.4717 112.031 15.7004 111.621C15.9291 111.211 16.0274 110.73 15.9955 110.179C15.9657 109.664 15.8452 109.244 15.6341 108.92C15.411 108.597 15.0898 108.447 14.6705 108.471C14.3231 108.491 14.0576 108.681 13.8741 109.04C13.6786 109.4 13.5352 109.829 13.4438 110.327C13.3405 110.826 13.2192 111.326 13.0799 111.827C12.9406 112.328 12.6894 112.763 12.3262 113.133C11.9629 113.502 11.4818 113.704 10.8828 113.739C10.1041 113.784 9.44586 113.522 8.908 112.952C8.36946 112.37 8.07381 111.624 8.02107 110.714C7.97874 109.983 8.10899 109.326 8.41181 108.744C8.70196 108.15 9.13221 107.692 9.70258 107.371L10.5153 108.64C9.76735 109.008 9.42112 109.671 9.47663 110.629C9.50231 111.073 9.63199 111.444 9.86567 111.743C10.0874 112.042 10.3899 112.181 10.7733 112.159Z" fill="#182F43"/>
<path d="M6.47301 103.103C6.46722 103.403 6.36038 103.653 6.15248 103.853C5.94458 104.053 5.69666 104.151 5.40871 104.145C5.12077 104.139 4.87678 104.033 4.67676 103.825C4.46473 103.617 4.36161 103.363 4.3674 103.063C4.37296 102.775 4.48568 102.531 4.70558 102.331C4.91348 102.131 5.1614 102.034 5.44935 102.039C5.73729 102.045 5.98128 102.152 6.1813 102.36C6.38133 102.568 6.47857 102.815 6.47301 103.103ZM17.0937 104.101L8.09542 103.927L8.12564 102.361L17.124 102.535L17.0937 104.101Z" fill="#182F43"/>
<path d="M8.92619 91.9357L9.087 90.396L17.6623 91.2922C18.9871 91.4306 19.9668 91.9854 20.6013 92.9566C21.2478 93.9291 21.5056 95.0419 21.3747 96.2951C21.27 97.2977 20.9887 98.143 20.5307 98.8311C20.0847 99.5205 19.4903 100.013 18.7474 100.31L18.1197 98.8687C19.1734 98.4842 19.7763 97.5639 19.9283 96.1078C20.0256 95.1768 19.8569 94.4232 19.4224 93.8469C18.9892 93.2587 18.3489 92.9203 17.5015 92.8318L16.2304 92.699C17.3417 93.6114 17.8212 94.7957 17.6692 96.2517C17.5358 97.5288 16.9694 98.5615 15.9701 99.3499C14.9708 100.138 13.8207 100.465 12.5198 100.329C11.2189 100.193 10.167 99.6363 9.3641 98.6596C8.54928 97.6816 8.20856 96.5541 8.34194 95.277C8.49526 93.809 9.20322 92.7489 10.4658 92.0966L8.92619 91.9357ZM15.0515 98.0957C15.7237 97.5506 16.1072 96.8245 16.2019 95.9174C16.2967 95.0104 16.0715 94.2207 15.5264 93.5484C14.9813 92.8761 14.2552 92.4926 13.3481 92.3978C12.453 92.3042 11.6693 92.53 10.997 93.0751C10.3248 93.6202 9.94128 94.3462 9.84655 95.2533C9.75181 96.1604 9.977 96.95 10.5221 97.6223C11.0672 98.2946 11.7873 98.6776 12.6825 98.7711C13.5895 98.8659 14.3792 98.6407 15.0515 98.0957Z" fill="#182F43"/>
<path d="M10.5441 82.2544C10.7852 81.2263 11.3055 80.4794 12.105 80.0137C12.8928 79.5453 13.8416 79.4413 14.9514 79.7018L20.3313 80.9642L19.9737 82.4889L14.6815 81.2469C13.9688 81.0797 13.3745 81.1436 12.8986 81.4387C12.4109 81.731 12.0877 82.216 11.9287 82.8936C11.7506 83.653 11.8463 84.3225 12.2157 84.9023C12.5734 85.4793 13.2429 85.8829 14.2242 86.1132L18.8681 87.2029L18.5105 88.7276L9.74851 86.6714L10.1061 85.1468L11.3678 85.4429C10.52 84.5906 10.2455 83.5278 10.5441 82.2544Z" fill="#182F43"/>
<path d="M24.5065 66.776C24.9775 67.9859 24.9514 69.1969 24.4283 70.4088C23.9051 71.6207 23.0419 72.47 21.8384 72.9567C20.6397 73.4324 19.429 73.4062 18.2061 72.878C16.9833 72.3499 16.134 71.4863 15.6582 70.2874C15.1872 69.0774 15.2132 67.8665 15.7364 66.6546C16.2595 65.4427 17.1228 64.5934 18.3263 64.1067C19.5297 63.62 20.7429 63.6407 21.9657 64.1688C23.1885 64.697 24.0354 65.566 24.5065 66.776ZM23.0237 69.8021C23.3804 68.9758 23.3991 68.1604 23.0798 67.3558C22.7605 66.5513 22.1823 65.9682 21.345 65.6066C20.5078 65.245 19.687 65.2238 18.8826 65.543C18.0782 65.8622 17.4977 66.435 17.141 67.2613C16.789 68.0765 16.7727 68.8865 17.092 69.691C17.4113 70.4956 17.9895 71.0786 18.8268 71.4403C19.664 71.8019 20.4848 71.8231 21.2892 71.5039C22.0936 71.1846 22.6718 70.6174 23.0237 69.8021Z" fill="#182F43"/>
<path d="M22.6542 53.7818L23.9671 54.5318L22.45 57.1892L28.9521 60.9032L28.1757 62.2632L21.6737 58.5492L20.1477 61.2223L18.8347 60.4724L22.6542 53.7818Z" fill="#182F43"/>
<path d="M38.9439 46.8875L37.7273 48.4038L31.8323 48.9342L35.159 51.6048L34.1789 52.8262L27.1607 47.192L28.1407 45.9706L31.2428 48.4609L30.5739 42.938L31.8355 41.3656L32.5401 47.448L38.9439 46.8875Z" fill="#182F43"/>
<path d="M44.8125 39.3332C44.7946 40.6316 44.3156 41.7441 43.3756 42.6708C42.4356 43.5975 41.3165 44.0604 40.0185 44.0594C38.7289 44.0501 37.6167 43.571 36.6818 42.6221C35.747 41.6733 35.2842 40.554 35.2936 39.264C35.3115 37.9657 35.7905 36.8532 36.7305 35.9265C37.6705 34.9998 38.7896 34.5369 40.0876 34.5378C41.3857 34.5388 42.5022 35.0137 43.4371 35.9625C44.3719 36.9113 44.8304 38.0349 44.8125 39.3332ZM42.3018 41.5809C42.9427 40.9491 43.2663 40.2004 43.2726 39.3348C43.2789 38.4692 42.962 37.7115 42.3219 37.0619C41.6818 36.4123 40.9291 36.0843 40.0637 36.078C39.1984 36.0717 38.4452 36.3845 37.8043 37.0163C37.172 37.6398 36.8526 38.3843 36.8463 39.2499C36.84 40.1155 37.1569 40.8731 37.797 41.5227C38.4371 42.1724 39.1898 42.5003 40.0552 42.5066C40.9205 42.5129 41.6694 42.2043 42.3018 41.5809Z" fill="#182F43"/>
<path d="M49.4005 25.5407L54.878 32.682L53.6642 33.6135L49.6876 28.4289L50.2216 33.8277L50.0646 33.9483L44.9897 32.0344L48.9663 37.2189L47.7382 38.1614L42.2608 31.0201L43.5888 30.001L48.6023 31.8939L48.0726 26.5599L49.4005 25.5407Z" fill="#182F43"/>
<path d="M59.0027 19.6766L60.3596 18.8948L64.8504 26.6944L63.4934 27.4761L62.721 26.1346C62.6379 27.5535 61.9517 28.6343 60.6624 29.3771C59.5706 30.0061 58.4124 30.1471 57.1879 29.8C55.9574 29.4425 55.0129 28.6918 54.3542 27.5479C53.6956 26.4039 53.5234 25.2151 53.8378 23.9815C54.1462 22.7375 54.8463 21.801 55.9381 21.172C57.2274 20.4292 58.5064 20.3779 59.7751 21.0181L59.0027 19.6766ZM60.0795 27.968C60.8697 27.5127 61.3773 26.8671 61.6022 26.0313C61.8212 25.185 61.7031 24.3667 61.248 23.5763C60.793 22.786 60.1476 22.2784 59.312 22.0535C58.4703 21.8182 57.6543 21.9282 56.8641 22.3835C56.0843 22.8328 55.5849 23.4805 55.3659 24.3268C55.141 25.1627 55.2561 25.9758 55.7111 26.7661C56.1662 27.5565 56.8146 28.0693 57.6562 28.3046C58.4919 28.5294 59.2996 28.4172 60.0795 27.968Z" fill="#182F43"/>
<path d="M70.043 14.5959L71.4898 13.9965L74.9329 22.3119L73.4861 22.9113L72.0469 19.4355L67.7399 21.2198L69.1791 24.6957L67.7324 25.295L64.2893 16.9797L65.736 16.3803L67.1684 19.8395L71.4754 18.0551L70.043 14.5959Z" fill="#182F43"/>
<path d="M84.1962 17.9991L85.3925 17.6651L86.4424 21.4274L84.9515 21.8437L84.3031 19.5204L77.8018 21.3358L78.4502 23.659L76.9592 24.0754L75.9092 20.3131L76.9668 20.0178C77.3087 19.1001 77.2877 17.9535 76.9039 16.578L75.7813 12.5557L82.1786 10.7694L84.1962 17.9991ZM78.6831 19.5386L82.7053 18.4155L81.0796 12.5901L77.6642 13.5437L78.3948 16.1617C78.7561 17.4562 78.8522 18.5818 78.6831 19.5386Z" fill="#182F43"/>
<path d="M90.8086 12.4327C91.7 12.3082 92.4742 12.4728 93.1311 12.9263C93.7983 13.3663 94.1908 14.0082 94.3086 14.852C94.4263 15.6958 94.2254 16.4266 93.7058 17.0444C93.1964 17.6486 92.496 18.013 91.6046 18.1374L87.8431 18.6626L86.5994 9.74893L88.1503 9.5324L88.5981 12.7413L90.8086 12.4327ZM94.6216 8.62893L96.1725 8.4124L97.4163 17.326L95.8653 17.5426L94.6216 8.62893ZM91.4032 16.6934C91.8429 16.632 92.1939 16.4558 92.4562 16.1647C92.7287 15.8601 92.8351 15.4939 92.7754 15.066C92.7157 14.6382 92.5131 14.3151 92.1676 14.0968C91.834 13.8768 91.4474 13.7975 91.0076 13.8589L88.7971 14.1675L89.1926 17.002L91.4032 16.6934Z" fill="#182F43"/>
<path d="M106.822 15.5472L112.667 15.7955L112.6 17.3781L105.083 17.0587L105.617 4.47007L113.045 4.78564L112.977 6.36822L107.223 6.1237L107.058 9.99022L112.364 10.2156L112.297 11.7802L106.992 11.5548L106.822 15.5472Z" fill="#182F43"/>
<path d="M117.194 10.4228C117.852 9.38382 118.852 8.9529 120.197 9.13007L119.983 10.754C119.226 10.618 118.545 10.734 117.94 11.1021C117.335 11.4702 116.968 12.142 116.839 13.1176L116.216 17.8467L114.664 17.6421L115.839 8.71917L117.392 8.92379L117.194 10.4228Z" fill="#182F43"/>
<path d="M129.913 11.3349L131.437 11.6926L129.382 20.4549L127.858 20.0971L128.211 18.59C127.181 19.5684 125.941 19.8876 124.492 19.5477C123.266 19.2598 122.324 18.5705 121.668 17.4797C121.014 16.3772 120.838 15.1835 121.14 13.8983C121.441 12.6132 122.128 11.6281 123.201 10.9431C124.276 10.2464 125.428 10.0419 126.654 10.3298C128.103 10.6698 129.071 11.5072 129.559 12.842L129.913 11.3349ZM125.03 18.1209C125.918 18.3292 126.73 18.2054 127.465 17.7494C128.204 17.2817 128.677 16.6039 128.885 15.716C129.094 14.8281 128.97 14.0163 128.514 13.2806C128.06 12.5333 127.39 12.0555 126.502 11.8471C125.626 11.6415 124.818 11.7725 124.08 12.2402C123.344 12.6962 122.873 13.3682 122.664 14.2561C122.456 15.144 122.579 15.9616 123.032 16.709C123.488 17.4446 124.154 17.9152 125.03 18.1209Z" fill="#182F43"/>
<path d="M144.096 26.2153L144.308 23.2161L139.128 20.9098L137.042 23.0744L135.414 22.3495L144.829 12.7488L146.555 13.5176L145.724 26.9402L144.096 26.2153ZM140.291 19.7134L144.419 21.5511L144.871 14.955L140.291 19.7134Z" fill="#182F43"/>
<path d="M156.19 22.4944C157.262 23.1552 157.935 24.1119 158.206 25.3645C158.484 26.6068 158.277 27.79 157.585 28.9141C156.893 30.0382 155.927 30.7607 154.686 31.0818C153.452 31.3927 152.299 31.2178 151.226 30.5569C149.959 29.7765 149.305 28.6759 149.264 27.2552L146.565 31.639L145.231 30.8177L151.837 20.088L153.17 20.9094L152.359 22.2276C153.646 21.625 154.923 21.7139 156.19 22.4944ZM151.85 29.1655C152.616 29.6375 153.42 29.7735 154.262 29.5733C155.111 29.3629 155.774 28.8694 156.252 28.0928C156.73 27.3162 156.869 26.5068 156.669 25.6646C156.475 24.8123 155.995 24.1501 155.228 23.6781C154.452 23.1998 153.64 23.0658 152.791 23.2762C151.949 23.4764 151.289 23.9648 150.811 24.7414C150.333 25.518 150.191 26.3325 150.385 27.1848C150.585 28.027 151.074 28.6872 151.85 29.1655Z" fill="#182F43"/>
<path d="M166.606 29.9697C167.582 30.7656 168.123 31.8023 168.228 33.0797C168.341 34.3478 167.98 35.4936 167.146 36.5171C166.313 37.5407 165.26 38.1302 163.988 38.2857C162.724 38.432 161.603 38.1071 160.627 37.3112C159.473 36.3712 158.969 35.1943 159.115 33.7804L155.864 37.7722L154.65 36.7829L162.606 27.0129L163.82 28.0022L162.843 29.2025C164.198 28.774 165.452 29.0298 166.606 29.9697ZM161.428 36.0137C162.126 36.5822 162.905 36.8225 163.766 36.7346C164.634 36.6373 165.357 36.2351 165.932 35.5279C166.508 34.8208 166.752 34.0366 166.664 33.1755C166.584 32.305 166.195 31.5856 165.497 31.017C164.79 30.4409 164.002 30.2015 163.134 30.2988C162.273 30.3867 161.555 30.7843 160.979 31.4914C160.403 32.1986 160.155 32.9874 160.236 33.8578C160.324 34.719 160.721 35.4376 161.428 36.0137Z" fill="#182F43"/>
</svg>
