<svg width="195" height="195" viewBox="0 0 195 195" fill="none" xmlns="http://www.w3.org/2000/svg">
<path d="M174.961 107.386L173.525 107.291L174.093 98.6341L186.846 99.4717L186.288 107.967L184.851 107.873L185.303 100.994L181.172 100.722L180.779 106.704L179.432 106.615L179.824 100.634L175.424 100.345L174.961 107.386Z" fill="#182F43"/>
<path d="M173.316 108.709L185.832 111.295L184.725 116.654C184.611 117.206 184.389 117.687 184.059 118.097C183.739 118.521 183.351 118.857 182.895 119.106C182.448 119.369 181.965 119.545 181.444 119.634C180.935 119.724 180.434 119.719 179.94 119.617C179.505 119.527 179.096 119.375 178.711 119.161C178.336 118.961 178.008 118.709 177.727 118.406C177.445 118.115 177.22 117.78 177.053 117.403C176.883 117.037 176.787 116.643 176.763 116.222L171.342 118.263L171.714 116.465L176.799 114.538L177.484 111.224L172.989 110.295L173.316 108.709ZM178.894 111.516L178.111 115.306C178.043 115.635 178.053 115.943 178.14 116.231C178.225 116.53 178.366 116.798 178.562 117.035C178.77 117.274 179.022 117.479 179.317 117.65C179.613 117.821 179.931 117.942 180.272 118.013C180.624 118.086 180.967 118.089 181.299 118.023C181.64 117.971 181.951 117.863 182.229 117.7C182.517 117.552 182.755 117.35 182.943 117.094C183.14 116.853 183.27 116.58 183.333 116.274L184.094 112.59L178.894 111.516Z" fill="#182F43"/>
<path d="M181.545 127.693L181.074 128.977L167.279 129.478L167.873 127.856L171.909 127.725L173.756 122.689L170.755 119.998L171.35 118.375L181.545 127.693ZM173.216 127.821L179.552 127.69L174.827 123.427L173.216 127.821Z" fill="#182F43"/>
<path d="M173.642 144.142L172.921 145.305L159.31 142.998L160.221 141.53L164.2 142.22L167.029 137.663L164.636 134.419L165.548 132.951L173.642 144.142ZM165.46 142.579L171.691 143.736L167.929 138.603L165.46 142.579Z" fill="#182F43"/>
<path d="M158.754 143.494L168.573 151.674L165.163 155.768C164.802 156.201 164.38 156.521 163.896 156.727C163.414 156.95 162.913 157.063 162.393 157.068C161.876 157.09 161.366 157.017 160.865 156.85C160.374 156.69 159.934 156.449 159.547 156.126C159.141 155.788 158.807 155.393 158.544 154.939C158.281 154.486 158.11 154.008 158.03 153.504C157.942 153.009 157.96 152.509 158.085 152.003C158.201 151.507 158.44 151.042 158.801 150.609L161.244 147.677L157.717 144.739L158.754 143.494ZM162.35 148.599L159.965 151.461C159.75 151.72 159.609 151.992 159.541 152.28C159.475 152.584 159.473 152.887 159.535 153.188C159.605 153.497 159.731 153.796 159.911 154.086C160.09 154.377 160.319 154.637 160.595 154.868C160.881 155.106 161.191 155.278 161.524 155.384C161.85 155.499 162.174 155.55 162.497 155.538C162.812 155.535 163.112 155.465 163.398 155.328C163.676 155.2 163.915 155.017 164.114 154.777L166.43 151.997L162.35 148.599Z" fill="#182F43"/>
<path d="M152.054 151.271L160.688 160.693L156.76 164.293C156.345 164.674 155.883 164.934 155.376 165.073C154.868 165.23 154.356 165.275 153.841 165.21C153.325 165.162 152.83 165.022 152.356 164.789C151.89 164.565 151.487 164.267 151.147 163.895C150.79 163.506 150.512 163.069 150.312 162.585C150.112 162.1 150.007 161.603 149.995 161.093C149.974 160.591 150.06 160.098 150.251 159.614C150.433 159.137 150.732 158.709 151.147 158.328L153.961 155.75L150.86 152.366L152.054 151.271ZM154.934 156.811L152.187 159.329C151.939 159.556 151.762 159.807 151.657 160.083C151.551 160.375 151.508 160.675 151.529 160.982C151.557 161.297 151.641 161.611 151.781 161.923C151.92 162.235 152.111 162.523 152.354 162.789C152.606 163.063 152.889 163.275 153.206 163.424C153.513 163.582 153.827 163.677 154.149 163.708C154.461 163.747 154.768 163.718 155.07 163.62C155.362 163.531 155.624 163.381 155.854 163.171L158.521 160.726L154.934 156.811Z" fill="#182F43"/>
<path d="M139.186 158.852L148.182 172.433L147.041 173.189L138.046 159.607L139.186 158.852Z" fill="#182F43"/>
<path d="M125.392 170.456L124.797 169.145L132.696 165.557L137.98 177.194L130.228 180.714L129.633 179.403L135.91 176.552L134.198 172.783L128.741 175.261L128.182 174.032L133.64 171.554L131.817 167.538L125.392 170.456Z" fill="#182F43"/>
<path d="M123.383 169.644L127.005 181.9L121.757 183.451C121.216 183.611 120.688 183.642 120.171 183.544C119.646 183.462 119.166 183.278 118.732 182.994C118.289 182.724 117.906 182.381 117.582 181.963C117.262 181.557 117.031 181.113 116.888 180.629C116.762 180.203 116.703 179.77 116.71 179.33C116.71 178.905 116.777 178.497 116.912 178.107C117.035 177.72 117.224 177.364 117.478 177.039C117.721 176.717 118.023 176.446 118.383 176.227L114.027 172.409L115.787 171.889L119.885 175.464L123.13 174.505L121.829 170.103L123.383 169.644ZM123.538 175.886L119.827 176.983C119.505 177.078 119.237 177.232 119.025 177.445C118.801 177.661 118.631 177.912 118.515 178.196C118.402 178.492 118.34 178.811 118.328 179.152C118.317 179.494 118.36 179.831 118.459 180.165C118.561 180.51 118.719 180.814 118.934 181.076C119.141 181.352 119.382 181.575 119.657 181.744C119.924 181.928 120.215 182.042 120.528 182.087C120.834 182.147 121.136 182.133 121.435 182.044L125.043 180.978L123.538 175.886Z" fill="#182F43"/>
<path d="M110.613 185.823L109.259 186.017L102.277 174.108L103.987 173.863L106.015 177.354L111.325 176.592L112.272 172.674L113.983 172.429L110.613 185.823ZM106.551 178.55L109.67 184.067L111.183 177.886L106.551 178.55Z" fill="#182F43"/>
<path d="M91.9246 186.609L90.5596 186.519L86.1884 173.425L87.9127 173.538L89.176 177.373L94.5285 177.724L96.2647 174.086L97.989 174.2L91.9246 186.609ZM89.4527 178.654L91.3648 184.696L94.1226 178.96L89.4527 178.654Z" fill="#182F43"/>
<path d="M85.5273 173.174L82.8936 185.68L77.6799 184.582C77.128 184.465 76.6478 184.242 76.2393 183.91C75.8166 183.588 75.4817 183.199 75.2345 182.742C74.9731 182.295 74.7992 181.811 74.7127 181.29C74.6237 180.78 74.6312 180.279 74.735 179.786C74.8438 179.269 75.037 178.789 75.3145 178.344C75.5921 177.9 75.9348 177.525 76.3427 177.218C76.7389 176.909 77.1895 176.691 77.6944 176.565C78.1876 176.435 78.7101 176.429 79.262 176.545L82.9961 177.332L83.942 172.84L85.5273 173.174ZM82.6994 178.741L79.0534 177.973C78.7246 177.904 78.4174 177.906 78.1319 177.981C77.8321 178.065 77.5636 178.205 77.3262 178.4C77.0864 178.607 76.8803 178.858 76.7078 179.153C76.5354 179.448 76.4121 179.771 76.3379 180.123C76.2612 180.487 76.2541 180.842 76.3165 181.186C76.3671 181.528 76.4734 181.838 76.6353 182.118C76.7855 182.394 76.9879 182.627 77.2425 182.816C77.4854 183.002 77.7594 183.127 78.0647 183.191L81.6051 183.937L82.6994 178.741Z" fill="#182F43"/>
<path d="M75.5796 170.915L71.3154 182.963L66.2928 181.185C65.7611 180.997 65.3147 180.712 64.9536 180.329C64.5772 179.954 64.2966 179.524 64.112 179.039C63.9121 178.56 63.8037 178.057 63.7869 177.53C63.766 177.013 63.8397 176.517 64.0079 176.042C64.184 175.544 64.439 175.094 64.7729 174.69C65.1067 174.286 65.4961 173.959 65.941 173.709C66.3745 173.455 66.8499 173.299 67.3672 173.24C67.8731 173.178 68.3919 173.24 68.9236 173.428L72.5209 174.702L74.0524 170.375L75.5796 170.915ZM72.0405 176.059L68.528 174.816C68.2112 174.704 67.9064 174.666 67.6135 174.702C67.3053 174.746 67.0206 174.849 66.7595 175.011C66.4945 175.185 66.257 175.406 66.047 175.675C65.8371 175.945 65.6721 176.249 65.552 176.589C65.4279 176.939 65.374 177.289 65.3903 177.639C65.3953 177.984 65.4596 178.306 65.5832 178.604C65.6954 178.899 65.8652 179.156 66.0927 179.377C66.3088 179.593 66.5639 179.754 66.8581 179.858L70.2687 181.065L72.0405 176.059Z" fill="#182F43"/>
<path d="M62.8829 163.107L55.1201 177.429L53.9174 176.777L61.6802 162.455L62.8829 163.107Z" fill="#182F43"/>
<path d="M46.1942 156.378L47.0707 155.236L53.9542 160.517L46.1748 170.656L39.4199 165.474L40.2964 164.331L45.7661 168.528L48.2861 165.243L43.5306 161.594L44.3523 160.523L49.1079 164.172L51.7923 160.673L46.1942 156.378Z" fill="#182F43"/>
<path d="M45.9385 154.188L36.8037 163.126L32.9768 159.215C32.5824 158.812 32.3073 158.359 32.1515 157.857C31.9788 157.354 31.9165 156.844 31.9645 156.327C31.9956 155.81 32.1199 155.31 32.3373 154.829C32.5461 154.356 32.8306 153.943 33.1909 153.591C33.5082 153.28 33.8632 153.026 34.2557 152.826C34.6312 152.627 35.023 152.495 35.431 152.432C35.8306 152.36 36.2337 152.36 36.6402 152.432C37.0384 152.496 37.4187 152.636 37.7813 152.852L39.1156 147.215L40.3996 148.527L39.1581 153.822L41.5247 156.24L44.8055 153.03L45.9385 154.188ZM40.4955 157.247L37.7889 154.481C37.554 154.241 37.2927 154.077 37.0051 153.989C36.7092 153.892 36.4083 153.859 36.1025 153.89C35.7881 153.929 35.4773 154.023 35.1702 154.173C34.8631 154.322 34.5852 154.518 34.3364 154.762C34.0791 155.014 33.8851 155.296 33.7544 155.608C33.6067 155.921 33.5227 156.238 33.5022 156.56C33.4647 156.882 33.4995 157.192 33.6066 157.491C33.6967 157.788 33.8508 158.049 34.069 158.272L36.7 160.961L40.4955 157.247Z" fill="#182F43"/>
<path d="M25.7119 150.589L24.9031 149.486L32.1245 137.72L33.1461 139.114L31.0203 142.547L34.1915 146.873L38.0944 145.864L39.116 147.258L25.7119 150.589ZM30.2169 143.582L26.8173 148.931L32.9837 147.356L30.2169 143.582Z" fill="#182F43"/>
<path d="M16.3714 134.82L15.8058 133.574L25.2841 123.538L25.9985 125.111L23.2147 128.036L25.4324 132.92L29.4592 132.732L30.1736 134.305L16.3714 134.82ZM22.2163 128.884L17.7931 133.423L24.1512 133.146L22.2163 128.884Z" fill="#182F43"/>
<path d="M25.1533 122.746L12.8838 126.322L11.393 121.207C11.2352 120.665 11.206 120.136 11.3055 119.62C11.3901 119.095 11.5755 118.616 11.8617 118.183C12.1329 117.741 12.4779 117.359 12.8965 117.037C13.3036 116.719 13.7491 116.489 14.233 116.348C14.7399 116.2 15.2547 116.144 15.7774 116.179C16.3001 116.214 16.7928 116.339 17.2555 116.554C17.7148 116.758 18.1194 117.053 18.4692 117.438C18.8157 117.812 19.0679 118.27 19.2257 118.811L20.2934 122.475L24.7001 121.191L25.1533 122.746ZM18.9109 122.878L17.8684 119.301C17.7744 118.978 17.6271 118.709 17.4265 118.492C17.211 118.267 16.9612 118.096 16.6771 117.979C16.3814 117.865 16.0629 117.802 15.7217 117.789C15.3804 117.776 15.0369 117.82 14.6913 117.92C14.3342 118.025 14.0185 118.185 13.7444 118.403C13.4669 118.609 13.2432 118.849 13.0732 119.123C12.8999 119.386 12.7901 119.674 12.744 119.988C12.6945 120.29 12.7134 120.591 12.8007 120.89L13.813 124.364L18.9109 122.878Z" fill="#182F43"/>
<path d="M22.4574 112.959L9.82129 114.872L9.0241 109.604C8.93971 109.046 8.98116 108.518 9.14843 108.019C9.30205 107.51 9.54949 107.06 9.89076 106.669C10.2184 106.267 10.611 105.935 11.0688 105.671C11.5146 105.41 11.9867 105.241 12.4851 105.166C13.0071 105.087 13.5249 105.099 14.0382 105.204C14.5516 105.308 15.0233 105.498 15.4533 105.772C15.8814 106.035 16.2432 106.381 16.5387 106.81C16.8323 107.227 17.0214 107.714 17.1058 108.271L17.6767 112.044L22.215 111.358L22.4574 112.959ZM16.2529 112.26L15.6954 108.576C15.6452 108.244 15.535 107.957 15.365 107.716C15.1813 107.464 14.9565 107.262 14.6904 107.108C14.4126 106.956 14.1054 106.85 13.7688 106.792C13.4323 106.734 13.0861 106.731 12.7302 106.785C12.3623 106.841 12.0281 106.958 11.7275 107.137C11.4251 107.304 11.1714 107.513 10.9665 107.762C10.7597 108 10.6126 108.271 10.5252 108.575C10.4359 108.868 10.4147 109.169 10.4614 109.477L11.0027 113.054L16.2529 112.26Z" fill="#182F43"/>
<path d="M23.3344 97.9402L7.04492 97.8145L7.05548 96.4465L23.345 96.5723L23.3344 97.9402Z" fill="#182F43"/>
<path d="M21.3996 79.9457L22.82 80.183L21.3905 88.7404L8.78516 86.6348L10.1879 78.2371L11.6083 78.4744L10.4724 85.2742L14.5558 85.9563L15.5434 80.0442L16.8749 80.2666L15.8874 86.1787L20.2371 86.9053L21.3996 79.9457Z" fill="#182F43"/>
<path d="M23.1853 78.7096L11 74.8564L12.6498 69.6391C12.8199 69.1013 13.0899 68.6455 13.4598 68.2717C13.8219 67.8827 14.2424 67.5878 14.7213 67.3868C15.1923 67.1708 15.6914 67.0454 16.2183 67.0107C16.7339 66.9723 17.2319 67.0292 17.7125 67.1811C18.1358 67.315 18.5278 67.5082 18.8885 67.7606C19.2413 67.9981 19.5417 68.2819 19.7897 68.612C20.0414 68.9307 20.2309 69.2864 20.3585 69.6791C20.4896 70.0604 20.5452 70.4618 20.5251 70.8834L26.1267 69.4076L25.5732 71.1582L20.3176 72.5546L19.2973 75.7811L23.6737 77.165L23.1853 78.7096ZM17.9243 75.347L19.0911 71.6571C19.1924 71.3367 19.2142 71.0289 19.1565 70.7338C19.1025 70.4272 18.9899 70.1462 18.819 69.8908C18.6366 69.6318 18.4072 69.4019 18.1309 69.2013C17.8545 69.0006 17.5504 68.8478 17.2186 68.7429C16.8754 68.6343 16.5351 68.596 16.1978 68.6278C15.8527 68.6445 15.5332 68.7196 15.2393 68.8532C14.9375 68.9718 14.6802 69.1484 14.4676 69.3832C14.247 69.603 14.0897 69.8616 13.9957 70.1591L12.8614 73.746L17.9243 75.347Z" fill="#182F43"/>
<path d="M16.8652 59.1217L17.4631 57.8912L31.2393 58.781L30.4842 60.3353L26.4558 60.0591L24.1117 64.8838L26.8264 67.8637L26.0712 69.418L16.8652 59.1217ZM25.1652 59.8323L18.8479 59.3245L23.12 64.0417L25.1652 59.8323Z" fill="#182F43"/>
<path d="M26.3989 43.4926L27.2356 42.4103L40.5392 46.0967L39.4824 47.4638L35.5955 46.3702L32.3149 50.614L34.3632 54.0859L33.3064 55.453L26.3989 43.4926ZM34.3785 45.8844L28.2983 44.0964L31.5162 49.5871L34.3785 45.8844Z" fill="#182F43"/>
<path d="M41.0511 45.7041L32.1133 36.5693L35.9216 32.8432C36.3247 32.4487 36.7775 32.1736 37.2798 32.0179C37.7824 31.8451 38.2922 31.7828 38.8093 31.8309C39.3266 31.862 39.8259 31.9862 40.3072 32.2036C40.7802 32.4124 41.1929 32.697 41.5453 33.0572C41.9146 33.4346 42.2069 33.8621 42.4224 34.3396C42.6378 34.8172 42.7597 35.3107 42.7881 35.8201C42.825 36.3212 42.756 36.8169 42.5809 37.3071C42.4145 37.789 42.1297 38.2272 41.7265 38.6216L38.999 41.2904L42.209 44.5712L41.0511 45.7041ZM37.9919 40.2611L40.6551 37.6553C40.8953 37.4203 41.0636 37.1633 41.1599 36.8843C41.2565 36.5884 41.2895 36.2875 41.2589 35.9817C41.2199 35.6673 41.1257 35.3565 40.9763 35.0494C40.8269 34.7423 40.6263 34.4601 40.3745 34.2027C40.1144 33.9369 39.8238 33.7343 39.5029 33.595C39.1905 33.4473 38.8732 33.3633 38.551 33.3428C38.2373 33.3139 37.9314 33.353 37.6332 33.4601C37.3436 33.5587 37.0873 33.7172 36.8643 33.9354L34.2783 36.4656L37.9919 40.2611Z" fill="#182F43"/>
<path d="M48.6521 38.4868L41.0215 28.2349L45.2955 25.0537C45.748 24.7169 46.2336 24.5051 46.7523 24.4182C47.2735 24.3145 47.787 24.3212 48.293 24.4382C48.8014 24.5385 49.2796 24.7286 49.7273 25.0087C50.168 25.2791 50.5387 25.6164 50.8396 26.0207C51.1549 26.4443 51.3872 26.9071 51.5366 27.4093C51.6859 27.9114 51.7405 28.4168 51.7002 28.9255C51.6696 29.427 51.5346 29.9089 51.2953 30.3712C51.0657 30.8264 50.7246 31.2224 50.2722 31.5591L47.211 33.8375L49.9516 37.5196L48.6521 38.4868ZM46.3513 32.6824L49.3402 30.4577C49.6098 30.2571 49.811 30.025 49.944 29.7615C50.0794 29.4812 50.1525 29.1874 50.1632 28.8803C50.1667 28.5635 50.1151 28.2429 50.0083 27.9185C49.9015 27.5941 49.7406 27.2875 49.5257 26.9987C49.3035 26.7003 49.0428 26.4606 48.7435 26.2795C48.4538 26.0912 48.1506 25.9653 47.8341 25.9018C47.5271 25.831 47.2187 25.8287 46.9089 25.8948C46.6087 25.9537 46.3334 26.0763 46.0831 26.2626L43.1808 28.4228L46.3513 32.6824Z" fill="#182F43"/>
<path d="M62.2591 32.2223L54.709 17.7876L55.9212 17.1536L63.4713 31.5882L62.2591 32.2223Z" fill="#182F43"/>
<path d="M76.9034 22.1699L77.3633 23.5344L69.1419 26.3058L65.0596 14.1953L73.1275 11.4757L73.5875 12.8403L67.0547 15.0424L68.3771 18.9655L74.0571 17.0509L74.4883 18.3301L68.8083 20.2448L70.217 24.4237L76.9034 22.1699Z" fill="#182F43"/>
<path d="M78.8191 23.1511L76.4727 10.5884L81.8516 9.58371C82.406 9.48015 82.9353 9.50338 83.4394 9.65337C83.9531 9.78936 84.4115 10.0212 84.8145 10.3487C85.2271 10.6623 85.5729 11.0433 85.8519 11.4917C86.1288 11.9283 86.3135 12.3943 86.406 12.8897C86.4876 13.3262 86.502 13.7629 86.4494 14.2C86.4063 14.6231 86.2977 15.0218 86.1234 15.3962C85.961 15.7684 85.7367 16.1032 85.4505 16.4008C85.176 16.6962 84.8482 16.9345 84.467 17.1156L88.4093 21.3599L86.6045 21.697L82.8953 17.7204L79.5688 18.3417L80.4116 22.8537L78.8191 23.1511ZM79.3044 16.9262L83.1086 16.2157C83.4389 16.154 83.7206 16.0281 83.9537 15.8381C84.1986 15.6459 84.3933 15.4142 84.538 15.143C84.6805 14.86 84.775 14.5494 84.8217 14.2111C84.8684 13.8727 84.8598 13.5325 84.7959 13.1904C84.7298 12.8366 84.6032 12.5184 84.4162 12.2359C84.2387 11.9395 84.0218 11.6931 83.7654 11.4969C83.5186 11.2866 83.2416 11.143 82.9342 11.0661C82.6365 10.9753 82.3342 10.9585 82.0276 11.0158L78.3295 11.7065L79.3044 16.9262Z" fill="#182F43"/>
<path d="M93.3532 8.31206L94.7202 8.25928L100.429 20.8284L98.7027 20.895L97.0474 17.2122L91.6874 17.4191L90.339 21.218L88.6122 21.2846L93.3532 8.31206ZM96.639 15.967L94.109 10.1563L91.9625 16.1476L96.639 15.967Z" fill="#182F43"/>
<path d="M111.995 9.38914L113.344 9.6197L116.335 23.0967L114.632 22.8054L113.772 18.8601L108.485 17.9561L106.381 21.3948L104.678 21.1035L111.995 9.38914ZM113.63 17.5575L112.354 11.3496L109.017 16.7687L113.63 17.5575Z" fill="#182F43"/>
<path d="M117.041 23.407L120.94 11.2363L126.014 12.8619C126.552 13.034 127.006 13.3057 127.379 13.677C127.766 14.0406 128.06 14.4622 128.259 14.9418C128.473 15.4137 128.597 15.9132 128.629 16.4403C128.666 16.956 128.607 17.4538 128.453 17.9338C128.292 18.4366 128.051 18.8949 127.729 19.3085C127.408 19.7221 127.028 20.0605 126.591 20.3237C126.166 20.5905 125.695 20.7611 125.18 20.8355C124.676 20.9135 124.156 20.8664 123.618 20.6944L119.984 19.5301L118.584 23.9012L117.041 23.407ZM120.424 18.1588L123.972 19.2956C124.292 19.3981 124.598 19.4267 124.89 19.3816C125.196 19.3287 125.478 19.2172 125.734 19.0472C125.994 18.8658 126.224 18.6373 126.426 18.3617C126.628 18.0861 126.784 17.7769 126.893 17.4341C127.007 17.0798 127.05 16.7283 127.023 16.3794C127.008 16.0343 126.934 15.7145 126.801 15.42C126.68 15.1292 126.503 14.877 126.269 14.6634C126.046 14.4535 125.786 14.301 125.489 14.2058L122.044 13.1019L120.424 18.1588Z" fill="#182F43"/>
<path d="M126.792 26.6944L132.291 15.1582L137.1 17.4509C137.61 17.6936 138.024 18.024 138.343 18.442C138.678 18.8544 138.912 19.3116 139.045 19.8136C139.194 20.31 139.249 20.8216 139.211 21.3483C139.178 21.8642 139.052 22.3496 138.836 22.8046C138.608 23.2812 138.308 23.7028 137.933 24.0695C137.559 24.4362 137.138 24.7205 136.669 24.9226C136.212 25.1298 135.723 25.2356 135.202 25.24C134.692 25.2496 134.183 25.133 133.674 24.8903L130.229 23.2483L128.254 27.3915L126.792 26.6944ZM130.849 21.9484L134.212 23.5518C134.515 23.6963 134.815 23.7659 135.11 23.7603C135.421 23.7491 135.715 23.6765 135.991 23.5424C136.273 23.3976 136.532 23.2022 136.769 22.9562C137.006 22.7102 137.202 22.4247 137.357 22.0997C137.517 21.7639 137.607 21.4214 137.628 21.0721C137.659 20.728 137.628 20.4012 137.537 20.0916C137.456 19.7872 137.314 19.5134 137.111 19.2703C136.918 19.0324 136.681 18.8463 136.4 18.7121L133.134 17.1552L130.849 21.9484Z" fill="#182F43"/>
<path d="M138.283 35.5378L147.477 22.0898L148.606 22.8619L139.413 36.3099L138.283 35.5378Z" fill="#182F43"/>
</svg>
