<svg width="212" height="212" viewBox="0 0 212 212" fill="none" xmlns="http://www.w3.org/2000/svg">
<path d="M187.354 114.481C186.616 113.548 186.298 112.388 186.4 111C186.502 109.611 186.986 108.504 187.853 107.677C188.731 106.863 189.846 106.506 191.199 106.605L199.546 107.218L199.424 108.888L191.148 108.28C190.262 108.215 189.537 108.426 188.972 108.914C188.418 109.403 188.106 110.138 188.034 111.12C187.962 112.101 188.164 112.874 188.64 113.438C189.127 114.003 189.814 114.319 190.7 114.384L198.976 114.991L198.854 116.643L190.507 116.03C189.154 115.931 188.103 115.414 187.354 114.481Z" fill="#182F43"/>
<path d="M184.262 126.134L184.647 124.339L188.502 122.589L185.708 119.394L186.094 117.599L189.891 121.948L194.852 119.681L194.463 121.493L190.913 123.107L193.488 126.034L193.103 127.829L189.524 123.747L184.262 126.134Z" fill="#182F43"/>
<path d="M181.788 128.335L182.1 127.453L194.97 139.645L194.657 140.528L181.788 128.335Z" fill="#182F43"/>
<path d="M177.351 145.668C177.041 144.52 177.206 143.328 177.846 142.092C178.487 140.856 179.368 140.029 180.491 139.611C181.618 139.209 182.784 139.32 183.988 139.944L191.419 143.796L190.649 145.282L183.282 141.463C182.493 141.054 181.743 140.963 181.031 141.189C180.33 141.42 179.753 141.972 179.3 142.846C178.848 143.72 178.729 144.51 178.944 145.216C179.17 145.928 179.677 146.488 180.465 146.896L187.832 150.715L187.07 152.185L179.639 148.334C178.435 147.709 177.673 146.821 177.351 145.668Z" fill="#182F43"/>
<path d="M182.595 155.53C182.76 155.279 182.984 155.124 183.266 155.066C183.549 155.008 183.81 155.057 184.051 155.216C184.292 155.374 184.441 155.594 184.5 155.877C184.568 156.166 184.52 156.436 184.356 156.686C184.197 156.927 183.972 157.073 183.679 157.125C183.397 157.184 183.135 157.134 182.895 156.976C182.654 156.817 182.504 156.597 182.446 156.315C182.387 156.032 182.437 155.77 182.595 155.53ZM174.14 149.026L181.661 153.968L180.802 155.277L173.28 150.335L174.14 149.026Z" fill="#182F43"/>
<path d="M174.824 168.687C173.651 169.939 172.232 170.559 170.568 170.545C168.904 170.549 167.428 169.948 166.141 168.742C164.853 167.536 164.153 166.098 164.039 164.43C163.925 162.778 164.455 161.326 165.628 160.073L168.987 156.487L178.183 165.1L174.824 168.687ZM166.784 161.156C165.906 162.093 165.517 163.167 165.616 164.378C165.715 165.589 166.255 166.654 167.236 167.572C168.217 168.491 169.315 168.96 170.529 168.98C171.744 169 172.79 168.541 173.668 167.604L175.883 165.239L168.999 158.791L166.784 161.156Z" fill="#182F43"/>
<path d="M161.331 169.589C160.71 169.055 160.036 168.792 159.309 168.801C158.572 168.818 157.869 169.09 157.201 169.618C156.269 170.355 155.863 171.235 155.983 172.257L154.469 172.49C154.315 170.883 154.93 169.532 156.314 168.438C157.434 167.553 158.623 167.179 159.879 167.317C161.134 167.473 162.186 168.087 163.034 169.16C163.875 170.224 164.231 171.38 164.102 172.629C163.973 173.879 163.363 174.935 162.271 175.798C161.235 176.617 160.103 176.916 158.873 176.695C157.641 176.491 156.619 175.877 155.808 174.85C155.666 174.672 155.535 174.477 155.415 174.266L161.331 169.589ZM161.355 174.64C162.014 174.119 162.411 173.5 162.547 172.781C162.69 172.071 162.567 171.365 162.179 170.662L157.463 174.39C158.095 174.977 158.761 175.277 159.46 175.29C160.159 175.304 160.791 175.087 161.355 174.64Z" fill="#182F43"/>
<path d="M153.082 179.137C152.903 178.839 152.608 178.687 152.199 178.681C151.796 178.685 151.349 178.757 150.859 178.898C150.376 179.048 149.88 179.178 149.372 179.287C148.869 179.407 148.367 179.387 147.865 179.226C147.369 179.076 146.963 178.739 146.648 178.214C146.228 177.515 146.164 176.791 146.456 176.041C146.737 175.298 147.3 174.673 148.143 174.167C148.894 173.716 149.636 173.494 150.369 173.502C151.101 173.51 151.745 173.718 152.298 174.127L151.54 175.486C151.194 175.19 150.786 175.036 150.317 175.024C149.848 175.012 149.377 175.148 148.903 175.432C148.461 175.698 148.145 175.999 147.956 176.337C147.773 176.685 147.79 177.039 148.006 177.399C148.185 177.697 148.477 177.844 148.88 177.84C149.289 177.846 149.736 177.773 150.22 177.623C150.709 177.483 151.208 177.358 151.717 177.249C152.225 177.139 152.727 177.16 153.223 177.31C153.719 177.46 154.122 177.792 154.431 178.306C154.832 178.975 154.906 179.68 154.651 180.421C154.386 181.168 153.862 181.776 153.081 182.246C152.453 182.623 151.811 182.812 151.155 182.815C150.494 182.834 149.889 182.665 149.339 182.309L150.086 181C150.759 181.492 151.507 181.49 152.33 180.996C152.71 180.767 152.979 180.48 153.135 180.134C153.297 179.799 153.28 179.466 153.082 179.137Z" fill="#182F43"/>
<path d="M146.751 187.339C147.02 187.206 147.291 187.186 147.564 187.278C147.838 187.371 148.038 187.546 148.166 187.804C148.294 188.062 148.311 188.328 148.219 188.601C148.132 188.885 147.954 189.094 147.685 189.227C147.427 189.355 147.159 189.367 146.88 189.264C146.607 189.172 146.406 188.996 146.279 188.738C146.151 188.48 146.133 188.214 146.225 187.941C146.318 187.668 146.493 187.467 146.751 187.339ZM142.741 177.454L146.734 185.52L145.331 186.215L141.338 178.149L142.741 177.454Z" fill="#182F43"/>
<path d="M135.558 190.288L134.109 190.832L131.08 182.759C130.612 181.512 130.671 180.388 131.256 179.386C131.837 178.374 132.718 177.646 133.898 177.203C134.841 176.849 135.723 176.723 136.544 176.826C137.36 176.917 138.066 177.229 138.663 177.761L137.654 178.966C136.839 178.195 135.747 178.067 134.376 178.581C133.5 178.91 132.901 179.397 132.579 180.044C132.247 180.694 132.23 181.418 132.529 182.216L132.978 183.412C133.298 182.01 134.143 181.052 135.514 180.538C136.716 180.087 137.893 180.132 139.045 180.674C140.197 181.216 141.002 182.099 141.462 183.324C141.921 184.549 141.894 185.738 141.378 186.893C140.867 188.059 140.011 188.867 138.809 189.318C137.427 189.837 136.162 189.677 135.014 188.839L135.558 190.288ZM138.333 182.056C137.545 181.698 136.724 181.68 135.87 182C135.017 182.32 134.411 182.875 134.053 183.663C133.695 184.451 133.676 185.272 133.996 186.125C134.312 186.968 134.864 187.568 135.652 187.926C136.44 188.284 137.261 188.303 138.115 187.983C138.969 187.662 139.575 187.108 139.933 186.32C140.291 185.532 140.312 184.717 139.996 183.874C139.675 183.02 139.121 182.414 138.333 182.056Z" fill="#182F43"/>
<path d="M125.391 193.343C124.359 193.564 123.461 193.413 122.698 192.89C121.938 192.378 121.438 191.565 121.199 190.45L120.04 185.047L121.571 184.719L122.711 190.034C122.865 190.749 123.177 191.259 123.647 191.563C124.12 191.879 124.697 191.964 125.377 191.818C126.14 191.654 126.704 191.282 127.07 190.7C127.439 190.13 127.517 189.352 127.306 188.366L126.305 183.703L127.836 183.374L129.725 192.174L128.193 192.502L127.922 191.235C127.514 192.366 126.67 193.068 125.391 193.343Z" fill="#182F43"/>
<path d="M116.013 189.438C115.798 188.648 115.388 188.052 114.781 187.651C114.162 187.252 113.428 187.083 112.578 187.145C111.393 187.232 110.563 187.732 110.089 188.646L108.705 187.989C109.48 186.573 110.746 185.8 112.506 185.671C113.93 185.566 115.123 185.924 116.086 186.743C117.037 187.576 117.563 188.674 117.663 190.039C117.763 191.391 117.408 192.548 116.601 193.51C115.793 194.472 114.695 195.003 113.307 195.105C111.99 195.202 110.885 194.814 109.991 193.941C109.085 193.081 108.585 191.999 108.489 190.694C108.472 190.467 108.473 190.232 108.491 189.99L116.013 189.438ZM113.199 193.633C114.036 193.572 114.713 193.281 115.228 192.762C115.744 192.255 116.039 191.602 116.113 190.802L110.117 191.243C110.311 192.083 110.694 192.704 111.265 193.108C111.836 193.511 112.481 193.686 113.199 193.633Z" fill="#182F43"/>
<path d="M103.285 193.578C102.726 194.674 101.77 195.195 100.415 195.143L100.478 193.506C101.244 193.572 101.911 193.393 102.48 192.971C103.049 192.548 103.352 191.846 103.39 190.862L103.574 186.096L105.139 186.156L104.792 195.15L103.227 195.089L103.285 193.578Z" fill="#182F43"/>
<path d="M80.7789 195.192C79.1315 194.712 77.9375 193.727 77.197 192.236C76.4417 190.753 76.3108 189.165 76.8044 187.472C77.2979 185.778 78.2632 184.503 79.7001 183.647C81.1222 182.799 82.6569 182.615 84.3044 183.095L89.0221 184.47L85.4967 196.567L80.7789 195.192ZM83.8612 184.616C82.6285 184.257 81.4945 184.395 80.4593 185.031C79.4241 185.667 78.7184 186.63 78.3424 187.92C77.9663 189.21 78.0441 190.402 78.5757 191.494C79.1073 192.586 79.9894 193.312 81.2221 193.671L84.3327 194.578L86.9718 185.523L83.8612 184.616Z" fill="#182F43"/>
<path d="M73.873 183.528C74.0722 182.734 74.005 182.014 73.6713 181.367C73.3267 180.716 72.7686 180.21 71.9968 179.849C70.9206 179.346 69.9524 179.377 69.0922 179.941L68.2059 178.692C69.5738 177.835 71.0567 177.78 72.6546 178.527C73.9482 179.132 74.8145 180.027 75.2536 181.213C75.6768 182.405 75.5986 183.62 75.0192 184.859C74.4448 186.087 73.5702 186.924 72.3954 187.368C71.2207 187.812 70.0028 187.739 68.7419 187.15C67.5461 186.591 66.7715 185.712 66.4179 184.513C66.0484 183.32 66.1407 182.131 66.6948 180.947C66.7913 180.74 66.9068 180.536 67.041 180.333L73.873 183.528ZM69.3671 185.813C70.128 186.168 70.8601 186.246 71.5635 186.045C72.2618 185.855 72.8384 185.429 73.2935 184.767L67.8475 182.221C67.6062 183.048 67.6361 183.778 67.9371 184.409C68.2382 185.04 68.7149 185.508 69.3671 185.813Z" fill="#182F43"/>
<path d="M56.2049 179.833L54.7807 178.92L62.6701 173.288L64.2155 174.279L62.3865 183.798L60.9623 182.885L62.539 175.193L56.2049 179.833Z" fill="#182F43"/>
<path d="M54.554 172.253C54.9565 171.54 55.0824 170.827 54.9317 170.116C54.7719 169.397 54.3677 168.761 53.7191 168.208C52.8146 167.438 51.8728 167.211 50.8937 167.528L50.3698 166.089C51.9159 165.625 53.3605 165.964 54.7035 167.108C55.7906 168.034 56.389 169.127 56.4984 170.386C56.591 171.647 56.1937 172.798 55.3068 173.84C54.4276 174.872 53.3628 175.447 52.1123 175.564C50.8619 175.681 49.7068 175.289 48.647 174.386C47.642 173.53 47.1278 172.478 47.1043 171.228C47.0638 169.98 47.4677 168.858 48.3157 167.862C48.4635 167.689 48.629 167.522 48.812 167.363L54.554 172.253ZM49.604 173.263C50.2435 173.807 50.929 174.076 51.6605 174.068C52.3842 174.07 53.053 173.812 53.667 173.294L49.0899 169.397C48.638 170.131 48.4736 170.842 48.5969 171.53C48.7201 172.218 49.0558 172.796 49.604 173.263Z" fill="#182F43"/>
<path d="M49.3373 162.499L39.9452 171.689L38.85 170.569L48.2421 161.38L49.3373 162.499Z" fill="#182F43"/>
<path d="M40.9611 154.636C42.2513 154.781 43.3113 155.367 44.1413 156.394C44.9712 157.42 45.3221 158.579 45.1939 159.871C45.0581 161.154 44.4724 162.214 43.4366 163.051C42.4008 163.889 41.2417 164.24 39.9591 164.104C38.6689 163.959 37.6089 163.373 36.7789 162.347C35.949 161.32 35.5981 160.161 35.7263 158.869C35.8545 157.577 36.4365 156.512 37.4723 155.675C38.508 154.837 39.671 154.491 40.9611 154.636ZM42.9515 157.356C42.3857 156.656 41.6724 156.26 40.8117 156.169C39.951 156.078 39.1661 156.319 38.4569 156.893C37.7477 157.466 37.3476 158.183 37.2565 159.044C37.1654 159.905 37.4028 160.685 37.9686 161.385C38.527 162.075 39.2365 162.466 40.0972 162.557C40.9579 162.648 41.7428 162.407 42.452 161.834C43.1612 161.26 43.5613 160.543 43.6524 159.682C43.7435 158.822 43.5099 158.046 42.9515 157.356Z" fill="#182F43"/>
<path d="M29.1757 151.487C28.5348 150.403 28.3864 149.243 28.7303 148.008C29.0638 146.78 29.7989 145.83 30.9354 145.159C32.0719 144.487 33.2637 144.299 34.5109 144.593C35.7478 144.894 36.6867 145.587 37.3276 146.672C38.0844 147.953 38.1497 149.231 37.5236 150.507L41.956 147.889L42.7525 149.237L31.904 155.646L31.1075 154.298L32.4403 153.51C31.0207 153.443 29.9325 152.769 29.1757 151.487ZM36.1264 147.611C35.6687 146.836 35.0207 146.341 34.1825 146.126C33.334 145.916 32.5171 146.043 31.7319 146.507C30.9466 146.971 30.4462 147.622 30.2306 148.46C30.0046 149.304 30.1205 150.114 30.5782 150.889C31.0421 151.674 31.6983 152.171 32.5468 152.381C33.385 152.597 34.1967 152.473 34.982 152.009C35.7672 151.545 36.2728 150.891 36.4988 150.046C36.7144 149.208 36.5903 148.397 36.1264 147.611Z" fill="#182F43"/>
<path d="M29.6843 140.924C30.3691 140.475 30.8077 139.899 31.0001 139.198C31.188 138.486 31.1204 137.735 30.7973 136.947C30.3468 135.848 29.6139 135.214 28.5986 135.047L28.793 133.528C30.3799 133.824 31.5078 134.788 32.1767 136.421C32.7182 137.742 32.7488 138.987 32.2684 140.157C31.7723 141.32 30.8914 142.161 29.6256 142.679C28.3708 143.194 27.161 143.216 25.996 142.747C24.8311 142.277 23.9847 141.399 23.4568 140.111C22.9563 138.889 22.9821 137.718 23.5342 136.597C24.0706 135.469 24.944 134.658 26.1543 134.162C26.3653 134.075 26.5886 134.003 26.8244 133.945L29.6843 140.924ZM24.8226 139.551C25.1411 140.328 25.6271 140.881 26.2806 141.21C26.9229 141.543 27.6356 141.621 28.4185 141.443L26.1387 135.88C25.4004 136.325 24.9282 136.882 24.7221 137.55C24.5161 138.218 24.5496 138.885 24.8226 139.551Z" fill="#182F43"/>
<path d="M21.8849 130.435C20.6698 130.247 19.875 129.502 19.5005 128.198L21.0748 127.746C21.2523 128.494 21.6306 129.072 22.2098 129.48C22.789 129.888 23.5514 129.956 24.4972 129.684L29.0817 128.367L29.5142 129.872L20.8642 132.358L20.4317 130.852L21.8849 130.435Z" fill="#182F43"/>
<path d="M26.1688 109.719C26.2187 110.894 25.9858 111.913 25.4699 112.776C24.9536 113.626 24.2229 114.24 23.2781 114.616L22.3897 113.213C23.8914 112.656 24.6051 111.503 24.5308 109.753C24.4941 108.889 24.2923 108.237 23.9252 107.797C23.5462 107.356 23.063 107.149 22.4755 107.174C21.876 107.199 21.4361 107.446 21.1557 107.914C20.8753 108.383 20.59 109.157 20.2996 110.239C20.1542 110.773 20.0393 111.181 19.9551 111.46C19.8589 111.741 19.7179 112.095 19.5319 112.523C19.3334 112.94 19.1306 113.255 18.9234 113.468C18.7043 113.681 18.4184 113.88 18.0659 114.063C17.7128 114.234 17.3085 114.329 16.8529 114.349C15.7619 114.395 14.8824 114.048 14.2144 113.308C13.5343 112.568 13.1709 111.646 13.1241 110.543C13.0818 109.548 13.2969 108.674 13.7694 107.922C14.2414 107.157 14.8831 106.571 15.6945 106.164L16.5634 107.533C15.2915 108.127 14.6846 109.108 14.7426 110.475C14.7716 111.158 14.9629 111.702 15.3164 112.108C15.67 112.513 16.1345 112.704 16.7099 112.679C17.2614 112.656 17.6727 112.44 17.9436 112.032C18.2145 111.624 18.4852 110.928 18.7557 109.944C18.8488 109.592 18.9163 109.343 18.9582 109.197C19 109.051 19.0745 108.825 19.1817 108.521C19.2883 108.204 19.3746 107.972 19.4404 107.825C19.5062 107.678 19.6 107.482 19.7217 107.236C19.8429 106.979 19.9608 106.788 20.0756 106.663C20.1904 106.538 20.3345 106.394 20.5077 106.23C20.6684 106.055 20.8371 105.928 21.0139 105.848C21.1907 105.769 21.398 105.7 21.6357 105.642C21.861 105.572 22.1055 105.532 22.3692 105.521C23.4722 105.474 24.3705 105.838 25.064 106.613C25.7456 107.389 26.1138 108.424 26.1688 109.719Z" fill="#182F43"/>
<path d="M25.3507 94.9582C26.1695 95.9657 26.5154 97.1263 26.3883 98.4402C26.2613 99.7541 25.6994 100.827 24.7027 101.659C23.7072 102.479 22.5465 102.825 21.2207 102.697C19.8948 102.568 18.8219 102.007 18.002 101.011C17.1831 100.003 16.8372 98.8428 16.9643 97.5289C17.0913 96.215 17.6532 95.1421 18.6499 94.3102C19.6466 93.4783 20.8079 93.1264 22.1337 93.2546C23.4595 93.3828 24.5318 93.9507 25.3507 94.9582ZM24.8654 98.2929C24.9521 97.3971 24.7202 96.6152 24.17 95.9471C23.6197 95.2791 22.8907 94.9011 21.983 94.8134C21.0752 94.7256 20.2873 94.9568 19.6192 95.5071C18.9511 96.0573 18.5738 96.7804 18.4872 97.6762C18.4017 98.5601 18.6341 99.336 19.1844 100.004C19.7346 100.672 20.4636 101.05 21.3714 101.138C22.2792 101.226 23.0671 100.994 23.7351 100.444C24.4032 99.8939 24.78 99.1768 24.8654 98.2929Z" fill="#182F43"/>
<path d="M16.9182 84.5544C16.4684 86.0789 16.978 86.993 18.447 87.2965L18.7114 87.3511L19.1921 85.0243L20.6729 85.3302L20.1921 87.657L27.5252 89.1722L27.2083 90.7058L19.8752 89.1907L19.5838 90.6009L18.1031 90.2949L18.3945 88.8847L18.1301 88.8301C16.9432 88.5848 16.1121 88.07 15.637 87.2857C15.1643 86.4896 15.0978 85.4772 15.4375 84.2485L16.9182 84.5544Z" fill="#182F43"/>
<path d="M22.571 78.5625L21.8925 80.8583L26.5704 82.2409C26.9962 82.3668 27.325 82.3763 27.5567 82.2696C27.7804 82.148 27.949 81.9163 28.0625 81.5745C28.1645 81.2292 28.2789 80.8001 28.4055 80.2869L29.7519 80.6848C29.5368 82.0478 29.1493 82.9781 28.5892 83.4757C28.0177 83.97 27.1968 84.059 26.1266 83.7427L21.4486 82.3601L20.9436 84.0691L19.4936 83.6405L19.9986 81.9316L18.0308 81.35L18.0258 79.7156L20.4425 80.4298L21.121 78.134L22.571 78.5625Z" fill="#182F43"/>
<path d="M26.3514 65.2493L27.0231 63.7553L34.0875 69.9905L33.4306 71.4516L26.4927 70.6414L31.7034 75.2932L31.0465 76.7543L21.6939 75.6084L22.3656 74.1145L29.416 75.1134L24.0485 70.3714L24.6685 68.9923L31.7943 69.8673L26.3514 65.2493Z" fill="#182F43"/>
<path d="M32.7295 54.6963L33.5943 53.3907L41.0977 58.3605L40.233 59.6661L38.9424 58.8113C39.5021 60.1176 39.3712 61.391 38.5495 62.6316C37.8537 63.682 36.8805 64.3257 35.6298 64.5624C34.3691 64.7925 33.1885 64.5431 32.088 63.8142C30.9875 63.0853 30.3022 62.0989 30.0322 60.8549C29.7522 59.6044 29.9601 58.4539 30.6559 57.4034C31.4776 56.1628 32.599 55.5454 34.0201 55.5511L32.7295 54.6963ZM37.3983 61.6316C37.9019 60.8712 38.0675 60.067 37.8952 59.2188C37.7129 58.364 37.2416 57.6848 36.4813 57.1812C35.7209 56.6776 34.9166 56.5119 34.0685 56.6842C33.2103 56.8499 32.5294 57.3129 32.0258 58.0732C31.5288 58.8236 31.3715 59.6261 31.5538 60.4809C31.7261 61.3291 32.1924 62.005 32.9527 62.5086C33.7131 63.0122 34.5223 63.1812 35.3805 63.0155C36.2287 62.8432 36.9013 62.3819 37.3983 61.6316Z" fill="#182F43"/>
<path d="M38.437 49.694C37.9138 48.5814 38.088 47.5057 38.9596 46.4669L40.2144 47.5198C39.6931 48.085 39.4252 48.7217 39.4104 49.43C39.3957 50.1382 39.7653 50.8086 40.519 51.4411L44.173 54.5073L43.1664 55.7069L36.2721 49.9217L37.2787 48.7221L38.437 49.694Z" fill="#182F43"/>
<path d="M45.302 47.4194C45.9707 47.8923 46.6666 48.0899 47.3897 48.0123C48.1215 47.9264 48.7951 47.5889 49.4105 46.9997C50.2687 46.1782 50.5899 45.2643 50.3742 44.2581L51.8592 43.8831C52.1641 45.4684 51.6795 46.8709 50.4052 48.0908C49.3737 49.0783 48.2258 49.5625 46.9617 49.5434C45.6978 49.5074 44.5929 48.9953 43.6469 48.0071C42.7092 47.0276 42.2456 45.9099 42.256 44.654C42.2664 43.3981 42.7743 42.2889 43.7798 41.3262C44.7334 40.4134 45.8328 40.0088 47.0782 40.1123C48.3239 40.1989 49.399 40.7146 50.3036 41.6595C50.4612 41.8241 50.61 42.0056 50.75 42.2039L45.302 47.4194ZM44.8005 42.3924C44.1938 42.9733 43.857 43.628 43.7902 44.3564C43.7151 45.0762 43.9037 45.7678 44.356 46.4312L48.6988 42.2737C48.0143 41.7496 47.3235 41.5138 46.6263 41.5665C45.9292 41.6192 45.3206 41.8945 44.8005 42.3924Z" fill="#182F43"/>
<path d="M59.8012 37.9833L64.7253 34.8249L65.5805 36.1582L59.2474 40.2204L52.4445 29.6147L58.7019 25.601L59.5571 26.9343L54.7088 30.0442L56.7982 33.3017L61.2678 30.4348L62.1133 31.7529L57.6437 34.6198L59.8012 37.9833Z" fill="#182F43"/>
<path d="M68.3426 24.3495C69.3008 23.9058 70.2097 23.8552 71.0692 24.1977C71.9237 24.5293 72.5904 25.2124 73.0695 26.2468L75.3916 31.2612L73.9706 31.9193L71.6863 26.9866C71.3787 26.3223 70.962 25.8937 70.4362 25.7008C69.9055 25.497 69.3243 25.5413 68.6927 25.8338C67.9849 26.1616 67.5166 26.6495 67.2878 27.2977C67.0539 27.935 67.1488 28.7109 67.5724 29.6256L69.5769 33.954L68.1558 34.6121L64.3738 26.4453L65.7949 25.7872L66.3395 26.9632C66.488 25.7704 67.1557 24.8992 68.3426 24.3495Z" fill="#182F43"/>
<path d="M82.9003 19.2435L84.3849 18.8047L86.8286 27.0731C87.2061 28.3505 87.0671 29.4677 86.4115 30.4248C85.7592 31.3934 84.829 32.0562 83.6206 32.4134C82.654 32.6991 81.7652 32.7615 80.9544 32.6007C80.147 32.4515 79.4646 32.0901 78.9072 31.5165L79.9997 30.3865C80.7572 31.2138 81.838 31.4199 83.2419 31.005C84.1395 30.7397 84.7718 30.2963 85.1387 29.6748C85.5171 29.0499 85.5856 28.329 85.3441 27.5119L84.9819 26.2863C84.5625 27.6616 83.6508 28.5567 82.2468 28.9716C81.0155 29.3355 79.8447 29.206 78.7347 28.5831C77.6246 27.9602 76.8842 27.0216 76.5135 25.7672C76.1427 24.5129 76.2556 23.3283 76.8521 22.2135C77.4452 21.0872 78.3574 20.3421 79.5888 19.9782C81.0043 19.5598 82.2544 19.8098 83.3391 20.728L82.9003 19.2435ZM79.5435 27.2554C80.3039 27.6689 81.1214 27.7464 81.996 27.4879C82.8706 27.2294 83.5146 26.72 83.928 25.9596C84.3415 25.1992 84.419 24.3817 84.1605 23.5071C83.9054 22.644 83.3977 22.0058 82.6373 21.5923C81.8769 21.1789 81.0595 21.1014 80.1849 21.3599C79.3103 21.6184 78.6662 22.1278 78.2528 22.8882C77.8393 23.6485 77.7602 24.4603 78.0153 25.3234C78.2737 26.198 78.7832 26.842 79.5435 27.2554Z" fill="#182F43"/>
<path d="M88.6631 16.2406C88.3684 16.2968 88.1018 16.2438 87.8632 16.0817C87.6246 15.9195 87.4783 15.697 87.4243 15.4141C87.3704 15.1312 87.4245 14.8704 87.5866 14.6318C87.7466 14.3814 87.9739 14.2281 88.2686 14.1719C88.5515 14.1179 88.8133 14.1779 89.0542 14.3519C89.2928 14.5141 89.4391 14.7366 89.493 15.0195C89.547 15.3024 89.4929 15.5631 89.3307 15.8018C89.1686 16.0404 88.946 16.1866 88.6631 16.2406ZM89.8783 26.8386L88.1921 17.998L89.7303 17.7046L91.4166 26.5452L89.8783 26.8386Z" fill="#182F43"/>
<path d="M97.3762 16.3757C98.4277 16.2781 99.3011 16.5345 99.9965 17.1448C100.691 17.7432 101.091 18.61 101.196 19.7451L101.707 25.2475L100.147 25.3922L99.645 19.9794C99.5773 19.2506 99.3281 18.7073 98.8972 18.3496C98.4651 17.9799 97.9026 17.8273 97.2096 17.8916C96.4329 17.9637 95.8284 18.2668 95.3959 18.8011C94.9623 19.3234 94.7921 20.0864 94.8853 21.0901L95.3261 25.8397L93.7668 25.9844L92.935 17.0229L94.4943 16.8782L94.6141 18.1686C95.1531 17.0942 96.0738 16.4966 97.3762 16.3757Z" fill="#182F43"/>
<path d="M106.815 21.3079C106.93 22.1187 107.265 22.7603 107.818 23.2326C108.383 23.7056 109.09 23.9634 109.941 24.0061C111.128 24.0657 112.013 23.6716 112.596 22.8237L113.888 23.6456C112.946 24.9559 111.593 25.5669 109.831 25.4784C108.405 25.4068 107.265 24.905 106.411 23.973C105.569 23.0296 105.182 21.8748 105.251 20.5085C105.319 19.1542 105.813 18.0496 106.733 17.1947C107.653 16.3397 108.808 15.9471 110.198 16.0169C111.517 16.0831 112.566 16.6044 113.346 17.5807C114.139 18.5457 114.502 19.6814 114.436 20.9877C114.425 21.2154 114.395 21.4482 114.347 21.6861L106.815 21.3079ZM110.124 17.4911C109.285 17.449 108.578 17.6538 108.003 18.1055C107.428 18.5452 107.055 19.1573 106.883 19.9417L112.888 20.2431C112.799 19.3856 112.496 18.7215 111.979 18.251C111.462 17.7805 110.843 17.5272 110.124 17.4911Z" fill="#182F43"/>
<path d="M118.414 22.1632C118.417 22.9821 118.659 23.6637 119.142 24.2077C119.637 24.754 120.302 25.107 121.139 25.2666C122.306 25.4892 123.237 25.2208 123.931 24.4615L125.098 25.4537C123.984 26.6216 122.56 27.0402 120.827 26.7097C119.424 26.4422 118.364 25.788 117.647 24.7471C116.943 23.6966 116.719 22.4995 116.976 21.1558C117.23 19.8238 117.871 18.7978 118.9 18.0779C119.929 17.3579 121.128 17.1284 122.495 17.3892C123.792 17.6365 124.759 18.2974 125.397 19.372C126.049 20.437 126.252 21.6119 126.007 22.8968C125.965 23.1207 125.903 23.3472 125.823 23.5762L118.414 22.1632ZM122.218 18.839C121.393 18.6817 120.665 18.787 120.033 19.1551C119.403 19.5114 118.949 20.0661 118.671 20.8194L124.576 21.9458C124.606 21.0841 124.397 20.3847 123.95 19.8473C123.503 19.31 122.926 18.9739 122.218 18.839Z" fill="#182F43"/>
<path d="M131.154 21.2322C131.972 20.3143 133.03 20.0525 134.327 20.4467L133.851 22.0139C133.127 21.7562 132.436 21.7596 131.779 22.024C131.122 22.2883 130.65 22.8913 130.364 23.8328L128.978 28.3968L127.479 27.9416L130.095 19.3302L131.594 19.7854L131.154 21.2322Z" fill="#182F43"/>
<path d="M159.341 28.9931L152.695 39.6976L151.288 38.8241L156.481 30.4593L149.362 34.1113L149.179 33.9973L149.285 26.012L144.101 34.3615L142.678 33.4785L149.325 22.774L150.93 23.771L150.827 31.5464L157.735 27.9962L159.341 28.9931Z" fill="#182F43"/>
<path d="M167.241 40.0809L168.411 41.122L162.427 47.845L161.257 46.8039L162.287 45.6475C160.914 46.0164 159.672 45.7062 158.561 44.717C157.619 43.8793 157.12 42.8247 157.063 41.553C157.014 40.2724 157.428 39.1391 158.306 38.1531C159.184 37.167 160.257 36.6286 161.527 36.5377C162.804 36.4378 163.914 36.8067 164.855 37.6444C165.967 38.6336 166.419 39.8312 166.212 41.2372L167.241 40.0809ZM159.714 43.7192C160.395 44.3255 161.168 44.6035 162.032 44.5532C162.904 44.4939 163.643 44.1237 164.249 43.4424C164.855 42.7611 165.133 41.9885 165.083 41.1244C165.041 40.2514 164.679 39.5118 163.998 38.9055C163.325 38.3071 162.553 38.0376 161.681 38.0968C160.817 38.1471 160.082 38.5129 159.476 39.1942C158.869 39.8755 158.587 40.6526 158.63 41.5256C158.68 42.3896 159.041 43.1208 159.714 43.7192Z" fill="#182F43"/>
<path d="M174.808 47.6927C175.486 48.5016 175.773 49.3657 175.667 50.2848C175.57 51.1963 175.085 52.0184 174.212 52.7512L169.979 56.3033L168.972 55.1037L173.136 51.6094C173.697 51.1389 174.002 50.6247 174.051 50.0668C174.109 49.5012 173.914 48.9518 173.467 48.4186C172.965 47.8211 172.372 47.4966 171.686 47.4452C171.01 47.3861 170.286 47.6805 169.514 48.3284L165.86 51.3946L164.853 50.195L171.747 44.4097L172.754 45.6093L171.761 46.4424C172.951 46.274 173.967 46.6907 174.808 47.6927Z" fill="#182F43"/>
<path d="M183.652 60.5534L184.473 61.8869L176.81 66.6062L175.988 65.2727L177.306 64.461C175.886 64.4198 174.785 63.7657 174.005 62.4987C173.345 61.4258 173.17 60.2722 173.481 59.0378C173.802 57.7972 174.524 56.8308 175.648 56.1386C176.772 55.4464 177.955 55.2393 179.197 55.5172C180.45 55.7888 181.406 56.4611 182.067 57.5339C182.847 58.801 182.936 60.078 182.334 61.3651L183.652 60.5534ZM175.396 61.8744C175.875 62.651 176.535 63.1393 177.377 63.3395C178.229 63.5335 179.044 63.3913 179.82 62.9131C180.597 62.4348 181.085 61.7747 181.285 60.9327C181.496 60.0844 181.362 59.2719 180.884 58.4954C180.412 57.729 179.749 57.2489 178.897 57.055C178.055 56.8548 177.246 56.9938 176.469 57.472C175.693 57.9503 175.199 58.6135 174.989 59.4619C174.789 60.3039 174.925 61.1081 175.396 61.8744Z" fill="#182F43"/>
<path d="M189.578 72.7264L190.181 74.1521L182.24 77.5109C181.013 78.0297 179.888 78.0173 178.863 77.4736C177.827 76.9345 177.064 76.0847 176.573 74.9242C176.18 73.9959 176.018 73.1198 176.087 72.296C176.144 71.4769 176.426 70.7582 176.934 70.1398L178.179 71.0982C177.443 71.944 177.359 73.0411 177.93 74.3894C178.294 75.2515 178.806 75.8298 179.465 76.1245C180.128 76.4301 180.852 76.417 181.637 76.0851L182.814 75.5873C181.4 75.3253 180.408 74.5202 179.838 73.1718C179.338 71.9892 179.335 70.8114 179.829 69.6383C180.323 68.4651 181.172 67.6238 182.377 67.1143C183.582 66.6047 184.771 66.5836 185.946 67.0509C187.132 67.5134 187.975 68.336 188.475 69.5186C189.05 70.878 188.943 72.1483 188.152 73.3294L189.578 72.7264ZM181.239 70.2926C180.914 71.0946 180.929 71.9156 181.284 72.7556C181.64 73.5956 182.218 74.1782 183.02 74.5034C183.822 74.8287 184.643 74.8136 185.483 74.4584C186.312 74.1078 186.889 73.5314 187.215 72.7294C187.54 71.9273 187.525 71.1063 187.169 70.2664C186.814 69.4264 186.236 68.8438 185.433 68.5186C184.631 68.1933 183.816 68.206 182.987 68.5566C182.147 68.9118 181.564 69.4905 181.239 70.2926Z" fill="#182F43"/>
<path d="M186.966 80.8579C186.227 81.2104 185.714 81.7211 185.429 82.3899C185.146 83.0704 185.112 83.8231 185.325 84.6479C185.623 85.798 186.264 86.5247 187.247 86.828L186.849 88.3069C185.317 87.7986 184.329 86.6906 183.887 84.9829C183.53 83.6004 183.668 82.3623 184.302 81.2685C184.951 80.1834 185.937 79.4694 187.262 79.1266C188.575 78.7869 189.776 78.9283 190.867 79.5509C191.958 80.1734 192.678 81.1585 193.026 82.5061C193.357 83.784 193.173 84.941 192.474 85.9771C191.79 87.0218 190.815 87.708 189.549 88.0358C189.328 88.0929 189.097 88.1341 188.856 88.1594L186.966 80.8579ZM191.597 82.8759C191.387 82.0627 190.98 81.449 190.377 81.0349C189.786 80.6178 189.09 80.4445 188.291 80.5152L189.797 86.3354C190.589 85.9942 191.132 85.5065 191.426 84.8725C191.721 84.2385 191.778 83.5729 191.597 82.8759Z" fill="#182F43"/>
<path d="M193.269 92.1748C194.449 92.5225 195.137 93.3672 195.335 94.7087L193.714 94.9475C193.638 94.1825 193.34 93.5593 192.82 93.0779C192.3 92.5966 191.554 92.4277 190.58 92.5712L185.861 93.2668L185.633 91.7175L194.537 90.405L194.765 91.9543L193.269 92.1748Z" fill="#182F43"/>
</svg>
