<svg width="210" height="210" viewBox="0 0 210 210" fill="none" xmlns="http://www.w3.org/2000/svg">
<path d="M189.234 114.255L192.121 113.416L192.493 107.759L189.74 106.55L189.857 104.771L202.122 110.285L201.998 112.171L189.117 116.033L189.234 114.255ZM194.018 108.436L193.721 112.944L200.067 111.088L194.018 108.436Z" fill="#182F43"/>
<path d="M197 123.919C196.75 125.154 196.083 126.114 195.001 126.801C193.931 127.49 192.749 127.704 191.456 127.442C190.162 127.18 189.15 126.522 188.421 125.468C187.704 124.416 187.47 123.273 187.72 122.038C188.016 120.58 188.823 119.586 190.143 119.058L185.097 118.036L185.408 116.501L197.757 119.003L197.446 120.538L195.929 120.23C196.938 121.231 197.295 122.46 197 123.919ZM189.242 122.144C189.063 123.027 189.213 123.828 189.691 124.55C190.181 125.273 190.873 125.726 191.767 125.907C192.66 126.088 193.468 125.939 194.189 125.461C194.923 124.985 195.378 124.306 195.557 123.424C195.738 122.53 195.584 121.722 195.094 120.998C194.616 120.277 193.93 119.825 193.036 119.644C192.142 119.463 191.328 119.61 190.595 120.086C189.874 120.565 189.423 121.251 189.242 122.144Z" fill="#182F43"/>
<path d="M193.617 136.207C193.201 137.396 192.41 138.258 191.245 138.791C190.091 139.328 188.891 139.379 187.645 138.943C186.399 138.507 185.486 137.718 184.907 136.575C184.34 135.435 184.264 134.271 184.68 133.082C185.171 131.677 186.106 130.803 187.485 130.459L182.625 128.759L183.142 127.281L195.036 131.44L194.519 132.919L193.058 132.408C193.922 133.536 194.108 134.803 193.617 136.207ZM186.172 133.394C185.875 134.243 185.914 135.058 186.29 135.838C186.677 136.621 187.301 137.164 188.162 137.465C189.023 137.766 189.843 137.729 190.623 137.353C191.414 136.981 191.958 136.371 192.255 135.521C192.556 134.66 192.513 133.838 192.126 133.054C191.75 132.275 191.132 131.734 190.271 131.433C189.41 131.132 188.584 131.167 187.793 131.539C187.014 131.915 186.473 132.533 186.172 133.394Z" fill="#182F43"/>
<path d="M178.244 147.143C178.83 146.123 179.573 145.388 180.47 144.935C181.362 144.493 182.307 144.366 183.307 144.554L183.306 146.215C181.74 145.881 180.519 146.473 179.645 147.991C179.214 148.74 179.035 149.399 179.109 149.968C179.194 150.542 179.49 150.976 180 151.27C180.52 151.569 181.024 151.596 181.511 151.351C181.999 151.106 182.655 150.604 183.479 149.846C183.888 149.472 184.203 149.19 184.424 148.999C184.655 148.813 184.964 148.59 185.35 148.328C185.741 148.082 186.081 147.924 186.37 147.855C186.67 147.793 187.017 147.778 187.413 147.812C187.803 147.857 188.195 147.993 188.59 148.22C189.537 148.765 190.094 149.529 190.262 150.512C190.44 151.501 190.253 152.474 189.702 153.431C189.205 154.294 188.556 154.917 187.754 155.299C186.946 155.693 186.09 155.844 185.187 155.753L185.186 154.132C186.578 154.311 187.616 153.807 188.299 152.622C188.64 152.029 188.77 151.467 188.688 150.935C188.607 150.404 188.316 149.994 187.817 149.707C187.339 149.431 186.876 149.393 186.429 149.593C185.982 149.792 185.38 150.235 184.625 150.922C184.358 151.169 184.167 151.344 184.054 151.444C183.94 151.545 183.757 151.696 183.503 151.896C183.243 152.106 183.046 152.256 182.912 152.345C182.778 152.434 182.594 152.549 182.36 152.691C182.119 152.844 181.917 152.942 181.754 152.986C181.59 153.03 181.391 153.075 181.157 153.12C180.928 153.182 180.717 153.199 180.525 153.172C180.333 153.144 180.121 153.091 179.889 153.013C179.662 152.951 179.434 152.855 179.205 152.723C178.248 152.172 177.684 151.383 177.514 150.357C177.353 149.337 177.597 148.266 178.244 147.143Z" fill="#182F43"/>
<path d="M178.239 161.124L179.64 159.182L175.685 156.327C175.325 156.068 175.018 155.95 174.764 155.973C174.513 156.014 174.277 156.177 174.056 156.462C173.846 156.753 173.595 157.12 173.306 157.563L172.167 156.741C172.822 155.526 173.496 154.777 174.19 154.493C174.893 154.216 175.697 154.404 176.601 155.058L180.557 157.913L181.6 156.468L182.826 157.353L181.783 158.798L183.446 159.999L182.909 161.542L180.866 160.067L179.465 162.009L178.239 161.124Z" fill="#182F43"/>
<path d="M167.051 164.488C166.979 163.192 167.38 162.049 168.254 161.06C169.128 160.071 170.213 159.532 171.508 159.443C172.795 159.363 173.938 159.765 174.936 160.647C175.934 161.528 176.473 162.613 176.553 163.9C176.625 165.197 176.223 166.339 175.349 167.329C174.475 168.318 173.391 168.857 172.096 168.945C170.8 169.034 169.654 168.637 168.655 167.756C167.657 166.874 167.122 165.784 167.051 164.488ZM169.401 162.073C168.805 162.747 168.533 163.517 168.587 164.38C168.64 165.244 169.009 165.978 169.692 166.582C170.376 167.186 171.149 167.461 172.013 167.408C172.877 167.354 173.607 166.99 174.203 166.316C174.791 165.65 175.058 164.886 175.005 164.022C174.951 163.158 174.583 162.424 173.899 161.82C173.216 161.216 172.442 160.941 171.578 160.995C170.714 161.048 169.988 161.407 169.401 162.073Z" fill="#182F43"/>
<path d="M167.886 172.505C168.268 173.674 167.963 174.72 166.969 175.643L165.854 174.444C166.441 173.947 166.785 173.348 166.887 172.647C166.989 171.946 166.705 171.236 166.035 170.515L162.787 167.022L163.934 165.955L170.062 172.546L168.916 173.613L167.886 172.505Z" fill="#182F43"/>
<path d="M161.309 173.435C160.695 172.892 160.025 172.62 159.298 172.618C158.561 172.624 157.855 172.886 157.179 173.404C156.236 174.128 155.817 175.001 155.922 176.025L154.405 176.236C154.275 174.627 154.909 173.285 156.309 172.211C157.442 171.342 158.636 170.986 159.89 171.143C161.143 171.316 162.185 171.946 163.018 173.031C163.843 174.107 164.182 175.268 164.035 176.516C163.888 177.763 163.262 178.81 162.158 179.658C161.111 180.461 159.974 180.743 158.747 180.505C157.518 180.283 156.506 179.653 155.709 178.616C155.571 178.435 155.442 178.238 155.325 178.026L161.309 173.435ZM161.259 178.486C161.926 177.975 162.332 177.361 162.478 176.644C162.631 175.937 162.519 175.229 162.141 174.52L157.371 178.18C157.995 178.775 158.656 179.085 159.355 179.109C160.053 179.132 160.688 178.925 161.259 178.486Z" fill="#182F43"/>
<path d="M138.728 184.798C139.306 183.103 140.415 181.857 142.055 181.06C143.696 180.263 145.361 180.161 147.05 180.755C148.739 181.348 149.98 182.46 150.772 184.09C151.569 185.73 151.676 187.393 151.093 189.076C150.516 190.771 149.407 192.017 147.766 192.814C146.126 193.611 144.461 193.713 142.772 193.12C141.077 192.542 139.831 191.433 139.034 189.793C138.242 188.163 138.14 186.498 138.728 184.798ZM146.51 182.278C145.259 181.845 144.013 181.93 142.771 182.533C141.53 183.137 140.698 184.061 140.276 185.307C139.849 186.568 139.936 187.82 140.54 189.061C141.148 190.313 142.077 191.156 143.328 191.588C144.574 192.037 145.817 191.96 147.058 191.357C148.3 190.754 149.134 189.822 149.562 188.56C149.984 187.314 149.891 186.065 149.282 184.813C148.679 183.572 147.755 182.727 146.51 182.278Z" fill="#182F43"/>
<path d="M132.431 195.016C131.226 195.386 130.064 195.261 128.943 194.639C127.826 194.029 127.074 193.093 126.685 191.831C126.297 190.57 126.391 189.367 126.968 188.222C127.548 187.09 128.44 186.338 129.644 185.967C131.066 185.529 132.325 185.763 133.42 186.669L131.905 181.749L133.402 181.288L137.11 193.33L135.613 193.791L135.158 192.311C134.762 193.676 133.853 194.578 132.431 195.016ZM130.279 187.354C129.418 187.618 128.786 188.133 128.381 188.898C127.98 189.675 127.913 190.499 128.182 191.371C128.45 192.242 128.967 192.88 129.732 193.285C130.5 193.701 131.315 193.777 132.175 193.512C133.047 193.244 133.683 192.721 134.084 191.945C134.489 191.18 134.557 190.362 134.289 189.49C134.02 188.618 133.502 187.974 132.733 187.558C131.968 187.153 131.15 187.085 130.279 187.354Z" fill="#182F43"/>
<path d="M119.888 196.2L122.238 195.742L121.306 190.954C121.221 190.518 121.078 190.222 120.876 190.066C120.665 189.924 120.382 189.881 120.026 189.938C119.673 190.007 119.239 190.103 118.726 190.228L118.457 188.85C119.766 188.412 120.77 188.326 121.47 188.593C122.172 188.872 122.63 189.559 122.843 190.655L123.775 195.443L125.525 195.102L125.814 196.586L124.064 196.927L124.457 198.941L123.009 199.7L122.527 197.226L120.177 197.684L119.888 196.2Z" fill="#182F43"/>
<path d="M117.151 199.742C117.449 199.704 117.712 199.773 117.94 199.95C118.168 200.126 118.301 200.357 118.337 200.643C118.374 200.929 118.304 201.186 118.127 201.414C117.952 201.654 117.716 201.793 117.419 201.831C117.133 201.868 116.875 201.792 116.645 201.603C116.417 201.427 116.285 201.196 116.248 200.91C116.212 200.624 116.282 200.367 116.458 200.139C116.635 199.911 116.866 199.779 117.151 199.742ZM116.588 189.089L117.729 198.017L116.176 198.215L115.035 189.288L116.588 189.089Z" fill="#182F43"/>
<path d="M103.636 199.151C102.628 199.166 101.807 198.849 101.173 198.199C100.539 197.56 100.213 196.683 100.196 195.567L100.109 189.97L101.675 189.946L101.761 195.489C101.772 196.185 101.96 196.722 102.326 197.101C102.692 197.479 103.175 197.664 103.774 197.654C104.446 197.644 104.983 197.408 105.384 196.946C105.773 196.495 105.96 195.808 105.946 194.885L105.869 189.881L107.435 189.857L107.52 195.4C107.531 196.096 107.713 196.634 108.067 197.012C108.409 197.391 108.874 197.576 109.462 197.567C110.122 197.556 110.67 197.32 111.107 196.857C111.532 196.395 111.737 195.707 111.723 194.795L111.646 189.792L113.212 189.768L113.351 198.767L111.785 198.791L111.766 197.585C111.169 198.554 110.283 199.048 109.107 199.066C107.895 199.085 107.005 198.589 106.438 197.577C105.829 198.607 104.895 199.131 103.636 199.151Z" fill="#182F43"/>
<path d="M95.3439 200.053C95.6425 200.082 95.8835 200.208 96.0669 200.431C96.2503 200.653 96.3282 200.908 96.3004 201.195C96.2727 201.481 96.1475 201.716 95.9248 201.9C95.701 202.095 95.4398 202.178 95.1412 202.15C94.8545 202.122 94.62 201.991 94.4378 201.756C94.2543 201.533 94.1765 201.279 94.2042 200.992C94.2319 200.705 94.3571 200.47 94.5798 200.287C94.8025 200.104 95.0572 200.026 95.3439 200.053ZM97.1561 189.541L96.2898 198.499L94.7311 198.348L95.5973 189.39L97.1561 189.541Z" fill="#182F43"/>
<path d="M91.4797 190.357L86.7602 189.55L87.012 188.077L93.8428 189.245L93.6669 190.274L88.0534 195.87L92.4004 196.613L92.1486 198.086L85.6726 196.979L85.8485 195.95L91.4797 190.357Z" fill="#182F43"/>
<path d="M75.4428 194.212L73.9427 193.763L76.5262 185.142L78.0263 185.591L77.5819 187.074C78.6701 186.16 79.9269 185.916 81.3523 186.343C82.5592 186.705 83.4571 187.45 84.046 188.579C84.6314 189.719 84.7346 190.921 84.3557 192.185C83.9768 193.45 83.2311 194.392 82.1187 195.01C81.0028 195.64 79.8414 195.775 78.6344 195.413C77.209 194.986 76.2933 194.091 75.8871 192.729L75.4428 194.212ZM80.7286 187.735C79.855 187.473 79.0372 187.548 78.2753 187.958C77.5099 188.38 76.9963 189.028 76.7345 189.902C76.4727 190.775 76.5471 191.593 76.9577 192.355C77.3648 193.128 78.0052 193.646 78.8788 193.908C79.7409 194.166 80.5546 194.084 81.32 193.662C82.0819 193.252 82.5938 192.61 82.8556 191.736C83.1174 190.862 83.0447 190.039 82.6376 189.265C82.227 188.503 81.5907 187.993 80.7286 187.735Z" fill="#182F43"/>
<path d="M66.6929 189.175L68.9013 190.099L70.7847 185.599C70.9561 185.19 71.0014 184.864 70.9206 184.622C70.8241 184.386 70.6121 184.194 70.2846 184.043C69.9525 183.904 69.5383 183.744 69.042 183.562L69.5841 182.267C70.9155 182.629 71.7981 183.116 72.2319 183.727C72.661 184.349 72.6602 185.174 72.2293 186.204L70.3458 190.704L71.9896 191.392L71.4058 192.786L69.762 192.098L68.9697 193.991L67.3445 193.818L68.3175 191.494L66.1091 190.569L66.6929 189.175Z" fill="#182F43"/>
<path d="M62.4637 190.603C62.7325 190.737 62.9131 190.94 63.0054 191.213C63.0977 191.486 63.08 191.752 62.9522 192.01C62.8245 192.268 62.6239 192.444 62.3506 192.536C62.0719 192.639 61.7982 192.624 61.5293 192.491C61.2712 192.363 61.0987 192.157 61.0117 191.873C60.9194 191.6 60.9371 191.334 61.0649 191.076C61.1926 190.818 61.3932 190.643 61.6665 190.55C61.9399 190.458 62.2056 190.476 62.4637 190.603ZM67.8932 181.421L63.9002 189.487L62.4968 188.792L66.4898 180.726L67.8932 181.421Z" fill="#182F43"/>
<path d="M57.5786 176.919C58.8414 176.618 60.0373 176.809 61.1664 177.493C62.2954 178.177 63.0188 179.148 63.3366 180.407C63.6442 181.659 63.4529 182.855 62.7628 183.995C62.0727 185.134 61.1014 185.857 59.8488 186.165C58.586 186.466 57.3901 186.275 56.261 185.591C55.132 184.907 54.4086 183.936 54.0908 182.677C53.773 181.418 53.9591 180.219 54.6492 179.08C55.3393 177.941 56.3158 177.22 57.5786 176.919ZM60.3737 178.801C59.6039 178.335 58.7987 178.205 57.9582 178.412C57.1177 178.618 56.4611 179.111 55.9886 179.891C55.5161 180.671 55.3831 181.482 55.5895 182.322C55.7958 183.163 56.2839 183.816 57.0537 184.282C57.8132 184.742 58.6133 184.869 59.4538 184.663C60.2943 184.456 60.9509 183.963 61.4234 183.183C61.8959 182.403 62.0289 181.593 61.8225 180.752C61.6162 179.912 61.1332 179.262 60.3737 178.801Z" fill="#182F43"/>
<path d="M46.4913 178.799C45.6629 178.144 45.2077 177.356 45.1256 176.434C45.036 175.522 45.3448 174.619 46.0518 173.724L49.4791 169.39L50.7075 170.361L47.336 174.625C46.882 175.199 46.6876 175.765 46.7526 176.321C46.8102 176.886 47.1119 177.385 47.6579 177.817C48.2698 178.301 48.9165 178.498 49.5982 178.41C50.2724 178.331 50.9221 177.897 51.5473 177.106L54.5058 173.364L55.7342 174.335L50.1522 181.395L48.9238 180.424L49.7276 179.407C48.5961 179.813 47.5173 179.61 46.4913 178.799Z" fill="#182F43"/>
<path d="M32.4409 164.728L31.4126 163.547L38.2005 157.638L39.2288 158.819L38.0613 159.835C39.4695 159.643 40.6621 160.109 41.6392 161.231C42.4665 162.181 42.8278 163.291 42.7231 164.559C42.6093 165.836 42.0546 166.907 41.059 167.774C40.0635 168.641 38.9302 169.039 37.6593 168.968C36.3793 168.905 35.3256 168.398 34.4983 167.448C33.5212 166.326 33.2246 165.08 33.6084 163.712L32.4409 164.728ZM40.3688 162.074C39.7699 161.387 39.0388 161.013 38.1754 160.953C37.3029 160.901 36.5227 161.175 35.8349 161.774C35.147 162.372 34.7732 163.104 34.7135 163.967C34.6448 164.838 34.9098 165.618 35.5086 166.306C36.0996 166.985 36.8313 167.35 37.7038 167.402C38.5673 167.461 39.3429 167.192 40.0307 166.593C40.7186 165.994 41.0969 165.259 41.1657 164.388C41.2254 163.524 40.9598 162.753 40.3688 162.074Z" fill="#182F43"/>
<path d="M26.543 157.11C25.9566 156.232 25.7664 155.342 25.9721 154.44C26.1679 153.544 26.7398 152.78 27.688 152.147L32.2839 149.079L33.1534 150.381L28.6323 153.4C28.0235 153.806 27.6644 154.284 27.5549 154.833C27.4355 155.389 27.569 155.956 27.9554 156.535C28.3885 157.184 28.9429 157.571 29.6186 157.697C30.2844 157.83 31.0364 157.617 31.8747 157.057L35.8419 154.408L36.7114 155.711L29.2262 160.708L28.3567 159.406L29.4346 158.686C28.2331 158.723 27.2692 158.198 26.543 157.11Z" fill="#182F43"/>
<path d="M16.3937 145.907L15.6989 144.504L26.9909 138.914L27.6857 140.317L26.2984 141.004C27.7091 141.176 28.7446 141.929 29.4048 143.262C29.9638 144.391 30.0316 145.556 29.6083 146.757C29.1742 147.962 28.3656 148.858 27.1827 149.444C25.9997 150.029 24.8026 150.127 23.5913 149.735C22.3692 149.35 21.4787 148.592 20.9196 147.463C20.2594 146.129 20.2887 144.849 21.0073 143.623L16.3937 145.907ZM27.9619 143.755C27.5572 142.938 26.9449 142.391 26.1249 142.114C25.2942 141.842 24.4701 141.909 23.6528 142.314C22.8355 142.718 22.2884 143.331 22.0114 144.151C21.7237 144.976 21.7822 145.797 22.1868 146.615C22.5861 147.421 23.2012 147.96 24.0319 148.232C24.8519 148.509 25.6706 148.445 26.4879 148.04C27.3052 147.636 27.8577 147.021 28.1454 146.195C28.4224 145.375 28.3612 144.562 27.9619 143.755Z" fill="#182F43"/>
<path d="M23.4755 128.034C23.7917 129.166 23.7969 130.211 23.4911 131.169C23.182 132.115 22.6103 132.879 21.776 133.46L20.5914 132.296C21.927 131.412 22.3592 130.127 21.8882 128.439C21.6558 127.607 21.3108 127.018 20.853 126.673C20.3837 126.33 19.8658 126.238 19.2995 126.396C18.7216 126.557 18.3494 126.898 18.1831 127.418C18.0167 127.938 17.9153 128.757 17.8789 129.876C17.859 130.43 17.84 130.853 17.8217 131.144C17.7919 131.439 17.7352 131.816 17.6516 132.276C17.5533 132.727 17.4275 133.079 17.2743 133.334C17.1096 133.592 16.8764 133.85 16.5748 134.109C16.27 134.356 15.898 134.541 15.4588 134.663C14.407 134.957 13.4716 134.819 12.6525 134.25C11.8219 133.685 11.2582 132.871 10.9613 131.807C10.6935 130.848 10.7039 129.948 10.9926 129.107C11.278 128.255 11.7694 127.539 12.4669 126.958L13.6246 128.092C12.5215 128.961 12.1539 130.054 12.5217 131.372C12.7056 132.03 13.0158 132.517 13.4524 132.831C13.8889 133.145 14.3846 133.225 14.9394 133.07C15.4711 132.922 15.8223 132.618 15.9933 132.159C16.1642 131.7 16.2692 130.961 16.3084 129.941C16.3189 129.577 16.3278 129.319 16.3354 129.167C16.3429 129.015 16.3641 128.779 16.399 128.458C16.4307 128.125 16.4619 127.88 16.4925 127.722C16.5231 127.564 16.5698 127.351 16.6324 127.085C16.6917 126.806 16.7631 126.593 16.8464 126.445C16.9297 126.298 17.0371 126.124 17.1685 125.926C17.2852 125.719 17.4205 125.556 17.5745 125.439C17.7285 125.321 17.9147 125.207 18.1329 125.096C18.3364 124.977 18.5653 124.882 18.8195 124.811C19.8829 124.514 20.8405 124.664 21.6924 125.261C22.5327 125.861 23.1271 126.785 23.4755 128.034Z" fill="#182F43"/>
<path d="M17.7552 121.43C18.5279 121.158 19.0918 120.705 19.4471 120.07C19.8006 119.424 19.9152 118.679 19.791 117.836C19.6177 116.661 19.0584 115.87 18.113 115.464L18.6667 114.036C20.136 114.705 20.9992 115.912 21.2565 117.657C21.4647 119.07 21.1952 120.286 20.4479 121.306C19.6871 122.315 18.6299 122.92 17.2765 123.12C15.935 123.317 14.7552 123.049 13.7371 122.313C12.719 121.578 12.1084 120.521 11.9054 119.144C11.7129 117.838 12.0193 116.708 12.8246 115.752C13.6162 114.786 14.659 114.208 15.953 114.017C16.1786 113.984 16.4127 113.968 16.6554 113.968L17.7552 121.43ZM13.3656 118.929C13.4881 119.76 13.8271 120.414 14.3824 120.89C14.9259 121.368 15.5991 121.614 16.4019 121.629L15.5251 115.681C14.7015 115.936 14.1094 116.363 13.7489 116.962C13.3884 117.561 13.2606 118.217 13.3656 118.929Z" fill="#182F43"/>
<path d="M11.0685 104.46L11.0383 102.894L20.0366 102.72L20.0668 104.286L18.5191 104.316C19.722 105.073 20.3377 106.195 20.3665 107.683C20.3908 108.943 19.9556 110.025 19.0609 110.931C18.1542 111.837 17.041 112.302 15.7212 112.328C14.4015 112.353 13.2771 111.931 12.3481 111.06C11.4072 110.19 10.9245 109.126 10.9002 107.866C10.8715 106.378 11.4435 105.233 12.6162 104.43L11.0685 104.46ZM18.8509 107.514C18.8333 106.602 18.5127 105.846 17.889 105.246C17.2533 104.647 16.4795 104.355 15.5677 104.373C14.6558 104.391 13.8999 104.711 13.2998 105.335C12.6877 105.959 12.3905 106.727 12.4081 107.639C12.4255 108.538 12.752 109.288 13.3877 109.888C14.0114 110.488 14.7792 110.779 15.691 110.762C16.6028 110.744 17.3648 110.423 17.9769 109.8C18.5769 109.176 18.8683 108.414 18.8509 107.514Z" fill="#182F43"/>
<path d="M12.9172 97.535C11.8489 96.9263 11.3723 95.9464 11.4872 94.5953L13.1193 94.7341C13.0183 95.4963 13.1657 96.1712 13.5613 96.7588C13.9569 97.3465 14.6449 97.682 15.6254 97.7654L20.3782 98.1696L20.2455 99.73L11.2779 98.9672L11.4106 97.4069L12.9172 97.535Z" fill="#182F43"/>
<path d="M21.7054 89.8505C21.4666 91.1853 20.825 92.2164 19.7806 92.9439C18.7244 93.6693 17.5348 93.9136 16.2118 93.677C14.8888 93.4403 13.8635 92.7998 13.1361 91.7554C12.3968 90.7089 12.1465 89.5182 12.3853 88.1834C12.5416 87.3093 12.8948 86.5618 13.4447 85.9409C13.9828 85.3179 14.6368 84.8985 15.4069 84.6827L15.9197 86.1093C15.4071 86.2492 14.9667 86.5301 14.5987 86.9519C14.2328 87.3619 13.997 87.8622 13.8914 88.4528C13.7329 89.3387 13.901 90.1368 14.3957 90.847C14.8925 91.5454 15.5898 91.9749 16.4875 92.1354C17.3734 92.2939 18.1705 92.1317 18.8785 91.6488C19.5887 91.1542 20.0231 90.4639 20.1815 89.5779C20.2872 88.9873 20.2464 88.4314 20.0593 87.9103C19.8603 87.3871 19.5467 86.9592 19.1186 86.6266L20.115 85.4517C20.7444 85.9544 21.2083 86.5981 21.5067 87.383C21.7934 88.1657 21.8596 88.9882 21.7054 89.8505Z" fill="#182F43"/>
<path d="M14.9009 77.7785C15.2079 76.7681 15.7753 76.0563 16.6031 75.6431C17.4195 75.2264 18.3731 75.1837 19.4639 75.5151L24.7513 77.1213L24.2961 78.6197L19.0948 77.0396C18.3944 76.8268 17.7972 76.8523 17.3032 77.1161C16.7977 77.3764 16.4438 77.8396 16.2415 78.5055C16.0148 79.2518 16.067 79.9261 16.3982 80.5284C16.718 81.1272 17.3601 81.5731 18.3246 81.8661L22.8886 83.2527L22.4334 84.751L10.3775 81.0885L10.8327 79.5901L15.5173 81.0133C14.7262 80.1083 14.5207 79.03 14.9009 77.7785Z" fill="#182F43"/>
<path d="M26.8622 67.9556L29.5158 62.7421L30.9275 63.4606L27.5145 70.166L16.2854 64.4505L19.6575 57.8253L21.0692 58.5438L18.4564 63.6771L21.9053 65.4326L24.314 60.7003L25.7096 61.4107L23.3009 66.143L26.8622 67.9556Z" fill="#182F43"/>
<path d="M26.567 53.0766C27.1534 52.1983 27.9025 51.6813 28.8146 51.5254C29.7166 51.363 30.6417 51.5982 31.5898 52.2312L36.1857 55.2995L35.3162 56.6019L30.7952 53.5836C30.1864 53.1771 29.6074 53.0286 29.0581 53.1381C28.4989 53.2409 28.0261 53.5818 27.6397 54.1606C27.2066 54.8093 27.0614 55.4699 27.204 56.1423C27.3367 56.808 27.8222 57.4207 28.6606 57.9804L32.6277 60.6289L31.7582 61.9313L24.273 56.9341L25.1425 55.6317L26.2204 56.3513C25.7252 55.256 25.8408 54.1644 26.567 53.0766Z" fill="#182F43"/>
<path d="M35.9705 41.4548L36.9912 40.2909L43.4734 45.976C44.4748 46.8543 44.954 47.8731 44.9109 49.0324C44.8768 50.1996 44.4444 51.2568 43.6136 52.2041C42.9489 52.962 42.2309 53.4895 41.4596 53.7866C40.6972 54.0916 39.9273 54.1506 39.1497 53.9634L39.4698 52.4246C40.5521 52.7193 41.5758 52.3164 42.5412 51.2157C43.1583 50.512 43.456 49.7995 43.4343 49.0781C43.4205 48.3477 43.0933 47.7016 42.4527 47.1398L41.4919 46.2972C41.8719 47.6838 41.5792 48.9275 40.6139 50.0282C39.7672 50.9935 38.7083 51.5093 37.4371 51.5756C36.166 51.6419 35.0387 51.2438 34.0553 50.3813C33.0719 49.5189 32.5347 48.4571 32.4436 47.1961C32.3434 45.9271 32.7167 44.81 33.5633 43.8446C34.5365 42.7349 35.7269 42.2785 37.1343 42.4755L35.9705 41.4548ZM37.4118 50.0211C38.2755 49.9645 39.008 49.5934 39.6093 48.9078C40.2107 48.2221 40.4831 47.4474 40.4265 46.5838C40.3699 45.7201 39.9988 44.9877 39.3131 44.3863C38.6365 43.7929 37.8663 43.5244 37.0027 43.581C36.139 43.6376 35.4065 44.0087 34.8052 44.6944C34.2039 45.38 33.9315 46.1547 33.9881 47.0183C34.0446 47.882 34.4112 48.6105 35.0879 49.204C35.7735 49.8053 36.5482 50.0777 37.4118 50.0211Z" fill="#182F43"/>
<path d="M38.7002 36.3739C38.4835 36.5814 38.2309 36.682 37.9425 36.6757C37.6541 36.6694 37.4103 36.5622 37.2111 36.3542C37.012 36.1461 36.9155 35.8979 36.9218 35.6095C36.9198 35.3124 37.0272 35.0601 37.2439 34.8526C37.4519 34.6535 37.7043 34.5614 38.001 34.5763C38.2894 34.5826 38.5332 34.6898 38.7324 34.8978C38.9316 35.1059 39.028 35.3541 39.0217 35.6425C39.0154 35.931 38.9083 36.1748 38.7002 36.3739ZM45.4846 44.606L39.2608 38.1048L40.392 37.0219L46.6158 43.5231L45.4846 44.606Z" fill="#182F43"/>
<path d="M45.6342 32.1113C46.4554 31.4474 47.3245 31.1767 48.2416 31.2994C49.1511 31.4127 49.9643 31.9126 50.681 32.7991L54.1555 37.0961L52.9378 38.0808L49.5199 33.8537C49.0597 33.2845 48.5511 32.9704 47.9942 32.9115C47.4297 32.8432 46.8769 33.0279 46.3356 33.4655C45.7291 33.9559 45.3939 34.5433 45.33 35.2277C45.2585 35.9028 45.5397 36.6322 46.1735 37.416L49.1726 41.1252L47.9549 42.1098L42.2961 35.1114L43.5139 34.1268L44.3287 35.1345C44.182 33.9415 44.6171 32.9338 45.6342 32.1113Z" fill="#182F43"/>
<path d="M55.1899 31.7098C55.7466 32.3105 56.3866 32.6476 57.1102 32.7209C57.8439 32.788 58.5727 32.5968 59.2966 32.1474C60.3058 31.5207 60.8088 30.6928 60.8055 29.6638L62.3359 29.6034C62.307 31.2175 61.5432 32.4898 60.0446 33.4203C58.8314 34.1736 57.6083 34.4104 56.3753 34.1307C55.1461 33.8345 54.1707 33.1053 53.4491 31.9431C52.7338 30.7911 52.5109 29.6018 52.7804 28.3751C53.0499 27.1484 53.7759 26.1679 54.9585 25.4336C56.0799 24.7374 57.2392 24.5684 58.4364 24.9268C59.6374 25.2687 60.5829 25.9953 61.2729 27.1065C61.3931 27.3002 61.5013 27.5085 61.5973 27.7314L55.1899 31.7098ZM55.7371 26.6876C55.0235 27.1307 54.5588 27.7017 54.343 28.4007C54.1209 29.0894 54.1627 29.8051 54.4683 30.5476L59.5759 27.3763C59.0143 26.7221 58.387 26.3488 57.6941 26.2564C57.0011 26.1641 56.3488 26.3078 55.7371 26.6876Z" fill="#182F43"/>
<path d="M78.8042 22.5671C78.0592 24.1951 76.8304 25.3231 75.1179 25.951C73.4054 26.579 71.7387 26.5127 70.1178 25.7522C68.4969 24.9918 67.3745 23.7609 66.7507 22.0597C66.1228 20.3472 66.1834 18.6826 66.9326 17.0658C67.6777 15.4378 68.9065 14.3098 70.619 13.6818C72.3315 13.0539 73.9982 13.1202 75.6191 13.8806C77.2471 14.6257 78.3751 15.8545 79.003 17.567C79.6268 19.2682 79.5606 20.9349 78.8042 22.5671ZM70.809 24.291C72.01 24.8475 73.2583 24.8882 74.554 24.4132C75.8496 23.9381 76.7701 23.1021 77.3153 21.9052C77.8678 20.6929 77.9064 19.4389 77.4313 18.1433C76.9521 16.8364 76.112 15.9047 74.911 15.3481C73.7171 14.7762 72.4723 14.7277 71.1767 15.2028C69.8811 15.6779 68.957 16.5216 68.4046 17.7339C67.8593 18.9308 67.8263 20.1827 68.3055 21.4896C68.7806 22.7852 69.6151 23.719 70.809 24.291Z" fill="#182F43"/>
<path d="M86.4313 12.9128C87.6671 12.6673 88.8106 12.9111 89.8616 13.6444C90.9103 14.3659 91.5632 15.374 91.8204 16.6687C92.0777 17.9634 91.8608 19.1504 91.1699 20.2297C90.4766 21.2972 89.5121 21.9538 88.2762 22.1993C86.8167 22.4893 85.5887 22.1276 84.5922 21.1144L85.5953 26.1637L84.0593 26.4689L81.6041 14.1104L83.1401 13.8052L83.4417 15.3236C83.9753 14.0063 84.9718 13.2028 86.4313 12.9128ZM87.7874 20.7549C88.6701 20.5795 89.352 20.1321 89.833 19.4125C90.3117 18.6812 90.4622 17.8683 90.2845 16.9738C90.1068 16.0793 89.6581 15.3915 88.9386 14.9105C88.2168 14.4177 87.4144 14.259 86.5317 14.4344C85.6372 14.6121 84.9506 15.0666 84.4719 15.7979C83.9909 16.5174 83.8392 17.3245 84.017 18.219C84.1947 19.1135 84.6445 19.8071 85.3663 20.2999C86.0858 20.7809 86.8929 20.9326 87.7874 20.7549Z" fill="#182F43"/>
<path d="M99.0757 12.9952L96.6911 13.2072L97.1232 18.0661C97.1625 18.5083 97.2744 18.8176 97.4587 18.994C97.6539 19.1573 97.9314 19.229 98.291 19.2091C98.6496 19.1772 99.0908 19.1259 99.6146 19.0552L99.739 20.4537C98.3923 20.7542 97.3847 20.7354 96.7161 20.3973C96.0465 20.0472 95.6622 19.3164 95.5633 18.2048L95.1312 13.3459L93.3562 13.5038L93.2223 11.9977L94.9973 11.8399L94.8155 9.79596L96.3339 9.19108L96.5571 11.7012L98.9417 11.4891L99.0757 12.9952Z" fill="#182F43"/>
<path d="M101.474 9.75637C101.174 9.76563 100.919 9.67146 100.709 9.47386C100.498 9.27625 100.389 9.03352 100.38 8.74565C100.371 8.45779 100.465 8.20876 100.663 7.99856C100.86 7.77637 101.109 7.66064 101.409 7.65138C101.696 7.64248 101.946 7.74284 102.156 7.95244C102.366 8.15004 102.476 8.39278 102.485 8.68064C102.494 8.9685 102.399 9.21753 102.202 9.42773C102.004 9.63793 101.762 9.74748 101.474 9.75637ZM101.01 20.4138L100.733 11.418L102.298 11.3697L102.576 20.3654L101.01 20.4138Z" fill="#182F43"/>
<path d="M115.382 11.6517C116.386 11.7371 117.171 12.1351 117.737 12.8456C118.304 13.5441 118.54 14.4494 118.445 15.5614L117.971 21.1393L116.411 21.0065L116.88 15.4825C116.939 14.789 116.806 14.2357 116.48 13.8226C116.153 13.4094 115.691 13.1774 115.094 13.1266C114.424 13.0696 113.867 13.2511 113.421 13.6708C112.989 14.0797 112.734 14.7444 112.656 15.6651L112.232 20.6511L110.671 20.5184L111.141 14.9943C111.2 14.3008 111.072 13.748 110.758 13.3359C110.456 12.9248 110.012 12.6944 109.426 12.6445C108.768 12.5886 108.199 12.769 107.718 13.1857C107.249 13.6035 106.976 14.2667 106.899 15.1754L106.474 20.1614L104.914 20.0287L105.677 11.0611L107.237 11.1938L107.135 12.3955C107.826 11.4908 108.758 11.0883 109.929 11.188C111.137 11.2907 111.973 11.8736 112.436 12.9367C113.144 11.9732 114.126 11.5449 115.382 11.6517Z" fill="#182F43"/>
<path d="M123.802 11.5775C123.508 11.518 123.281 11.3679 123.122 11.1275C122.962 10.887 122.911 10.6257 122.968 10.3434C123.026 10.0611 123.174 9.84031 123.415 9.68088C123.658 9.5097 123.926 9.4539 124.22 9.51348C124.502 9.57068 124.722 9.72539 124.879 9.9776C125.039 10.2181 125.09 10.4794 125.032 10.7617C124.975 11.0439 124.826 11.2648 124.586 11.4242C124.346 11.5836 124.084 11.6347 123.802 11.5775ZM120.913 21.8463L122.7 13.0256L124.235 13.3366L122.448 22.1573L120.913 21.8463Z" fill="#182F43"/>
<path d="M126.404 21.5302L131.016 22.8176L130.614 24.2566L123.939 22.3933L124.22 21.3877L130.378 16.3978L126.131 15.2121L126.532 13.7731L132.86 15.5396L132.58 16.5451L126.404 21.5302Z" fill="#182F43"/>
<path d="M142.969 19.3645L144.416 19.9637L140.972 28.2787L139.526 27.6795L140.118 26.2493C138.943 27.0484 137.668 27.1633 136.293 26.5939C135.129 26.1117 134.311 25.2794 133.84 24.097C133.373 22.9036 133.392 21.6971 133.897 20.4775C134.402 19.258 135.239 18.3968 136.409 17.8941C137.583 17.3802 138.752 17.3643 139.916 17.8465C141.291 18.4159 142.111 19.3986 142.377 20.7946L142.969 19.3645ZM137.054 25.2727C137.897 25.6217 138.718 25.6306 139.518 25.2993C140.322 24.957 140.898 24.3646 141.247 23.522C141.596 22.6794 141.605 21.8583 141.274 21.0587C140.947 20.248 140.363 19.6681 139.52 19.3192C138.689 18.9748 137.871 18.9737 137.067 19.316C136.267 19.6473 135.693 20.2342 135.344 21.0768C134.995 21.9194 134.984 22.746 135.31 23.5567C135.642 24.3563 136.223 24.9283 137.054 25.2727Z" fill="#182F43"/>
<path d="M151.221 25.2807L149.121 24.1321L146.78 28.412C146.567 28.8015 146.489 29.1208 146.544 29.3699C146.615 29.6142 146.806 29.828 147.116 30.0112C147.432 30.1839 147.828 30.3864 148.302 30.6187L147.629 31.8506C146.342 31.3521 145.515 30.7766 145.147 30.1241C144.784 29.4609 144.871 28.6398 145.406 27.6606L147.747 23.3807L146.183 22.5258L146.909 21.1992L148.472 22.0541L149.457 20.2537L151.055 20.5944L149.846 22.8055L151.947 23.954L151.221 25.2807Z" fill="#182F43"/>
<path d="M155.665 24.3283C155.411 24.1682 155.253 23.9475 155.189 23.6661C155.125 23.3847 155.17 23.1222 155.324 22.8787C155.478 22.6351 155.695 22.4815 155.977 22.4179C156.265 22.3441 156.535 22.3873 156.789 22.5474C157.033 22.7011 157.183 22.9237 157.24 23.2153C157.304 23.4967 157.259 23.7591 157.105 24.0027C156.951 24.2462 156.734 24.3998 156.452 24.4635C156.171 24.5271 155.909 24.4821 155.665 24.3283ZM149.318 32.9018L154.121 25.2908L155.445 26.1266L150.642 33.7376L149.318 32.9018Z" fill="#182F43"/>
<path d="M159.112 38.4129C157.825 38.5834 156.655 38.2707 155.602 37.4749C154.549 36.679 153.928 35.6388 153.741 34.3541C153.563 33.0766 153.876 31.9065 154.679 30.8439C155.482 29.7812 156.522 29.161 157.8 28.9832C159.087 28.8127 160.257 29.1254 161.31 29.9212C162.363 30.7171 162.983 31.7573 163.171 33.042C163.358 34.3267 163.05 35.5004 162.247 36.5631C161.444 37.6257 160.399 38.2423 159.112 38.4129ZM156.524 36.2542C157.242 36.7968 158.03 37.0085 158.887 36.8892C159.744 36.77 160.448 36.3465 160.998 35.6189C161.548 34.8913 161.763 34.0989 161.644 33.2416C161.524 32.3844 161.106 31.6845 160.388 31.1419C159.679 30.6065 158.896 30.3984 158.039 30.5177C157.182 30.637 156.478 31.0604 155.928 31.788C155.379 32.5156 155.163 33.308 155.283 34.1653C155.402 35.0225 155.816 35.7188 156.524 36.2542Z" fill="#182F43"/>
<path d="M169.98 37.2959C170.74 38.0289 171.116 38.858 171.107 39.7832C171.107 40.6998 170.711 41.5684 169.92 42.389L166.084 46.3668L164.957 45.2798L168.73 41.3668C169.238 40.8398 169.487 40.2964 169.477 39.7365C169.475 39.1679 169.224 38.642 168.723 38.1589C168.161 37.6175 167.537 37.3573 166.85 37.3782C166.171 37.3906 165.482 37.7595 164.782 38.4851L161.471 41.9187L160.344 40.8317L166.591 34.3532L167.718 35.4402L166.819 36.3731C167.985 36.0804 169.038 36.388 169.98 37.2959Z" fill="#182F43"/>
</svg>
