<svg width="195" height="195" viewBox="0 0 195 195" fill="none" xmlns="http://www.w3.org/2000/svg">
<path d="M182.859 104.505C182.726 106.216 182.007 107.587 180.699 108.617C179.403 109.66 177.876 110.114 176.117 109.978C174.358 109.842 172.912 109.159 171.78 107.928C170.658 106.71 170.164 105.245 170.296 103.534L170.675 98.6349L183.237 99.606L182.859 104.505ZM171.875 103.656C171.776 104.937 172.144 106.018 172.979 106.901C173.813 107.784 174.9 108.277 176.24 108.381C177.58 108.484 178.73 108.164 179.691 107.42C180.651 106.676 181.18 105.663 181.279 104.383L181.529 101.153L172.125 100.426L171.875 103.656Z" fill="#182F43"/>
<path d="M173.013 112.371C172.195 112.342 171.504 112.559 170.942 113.02C170.377 113.493 169.999 114.145 169.808 114.975C169.541 116.133 169.774 117.073 170.506 117.796L169.47 118.924C168.345 117.766 167.981 116.327 168.378 114.608C168.699 113.217 169.393 112.182 170.46 111.505C171.537 110.842 172.742 110.664 174.075 110.971C175.396 111.276 176.397 111.956 177.077 113.012C177.757 114.068 177.941 115.274 177.628 116.631C177.331 117.917 176.634 118.858 175.536 119.455C174.447 120.066 173.265 120.224 171.99 119.93C171.768 119.879 171.544 119.809 171.318 119.72L173.013 112.371ZM176.19 116.299C176.378 115.48 176.301 114.748 175.957 114.103C175.625 113.459 175.088 112.985 174.346 112.678L172.995 118.536C173.855 118.599 174.562 118.417 175.116 117.991C175.67 117.565 176.028 117.001 176.19 116.299Z" fill="#182F43"/>
<path d="M172.475 127.554L173.273 125.297L168.675 123.67C168.256 123.521 167.929 123.494 167.692 123.589C167.462 123.698 167.281 123.921 167.15 124.256C167.03 124.596 166.893 125.018 166.739 125.524L165.416 125.056C165.702 123.706 166.139 122.797 166.724 122.33C167.321 121.866 168.145 121.821 169.197 122.193L173.796 123.821L174.39 122.141L175.816 122.646L175.221 124.325L177.156 125.01L177.074 126.642L174.699 125.802L173.9 128.058L172.475 127.554Z" fill="#182F43"/>
<path d="M167.827 129.128C167.037 128.915 166.316 128.968 165.663 129.29C165.006 129.622 164.489 130.171 164.114 130.936C163.591 132.003 163.604 132.971 164.153 133.842L162.887 134.705C162.056 133.321 162.028 131.838 162.805 130.254C163.434 128.972 164.345 128.122 165.538 127.705C166.737 127.304 167.951 127.405 169.179 128.007C170.397 128.604 171.217 129.494 171.639 130.677C172.061 131.86 171.966 133.076 171.353 134.326C170.772 135.511 169.879 136.269 168.674 136.601C167.474 136.948 166.287 136.833 165.113 136.258C164.908 136.157 164.706 136.038 164.506 135.9L167.827 129.128ZM170.028 133.676C170.398 132.922 170.489 132.191 170.301 131.484C170.124 130.783 169.709 130.198 169.056 129.731L166.408 135.129C167.231 135.385 167.961 135.369 168.598 135.08C169.234 134.79 169.711 134.322 170.028 133.676Z" fill="#182F43"/>
<path d="M157.819 138.871C158.568 137.741 159.566 137.049 160.814 136.796C162.071 136.549 163.26 136.797 164.38 137.539C165.501 138.281 166.188 139.276 166.441 140.523C166.705 141.777 166.462 142.969 165.713 144.1C165.223 144.84 164.602 145.386 163.851 145.738C163.11 146.096 162.343 146.222 161.551 146.114L161.646 144.601C162.172 144.676 162.688 144.593 163.193 144.352C163.691 144.121 164.106 143.755 164.437 143.255C164.934 142.504 165.097 141.705 164.924 140.857C164.746 140.019 164.276 139.348 163.516 138.844C162.765 138.347 161.969 138.18 161.128 138.342C160.28 138.515 159.607 138.976 159.11 139.726C158.779 140.226 158.596 140.753 158.561 141.305C158.536 141.865 158.654 142.382 158.915 142.857L157.534 143.54C157.156 142.829 156.985 142.054 157.023 141.215C157.07 140.383 157.336 139.602 157.819 138.871Z" fill="#182F43"/>
<path d="M157.693 151.695L159.218 149.85L155.459 146.742C155.117 146.459 154.818 146.321 154.563 146.328C154.31 146.352 154.063 146.499 153.825 146.769C153.595 147.047 153.322 147.396 153.004 147.819L151.922 146.924C152.655 145.755 153.376 145.052 154.087 144.814C154.807 144.584 155.597 144.824 156.457 145.535L160.216 148.643L161.352 147.27L162.517 148.234L161.381 149.607L162.963 150.915L162.326 152.42L160.383 150.814L158.858 152.659L157.693 151.695Z" fill="#182F43"/>
<path d="M157.913 156.042C158.119 155.825 158.367 155.712 158.655 155.705C158.944 155.698 159.192 155.793 159.401 155.992C159.61 156.19 159.718 156.433 159.725 156.722C159.741 157.018 159.646 157.275 159.439 157.493C159.241 157.702 158.993 157.806 158.696 157.805C158.408 157.812 158.159 157.716 157.95 157.518C157.742 157.32 157.633 157.076 157.626 156.788C157.619 156.499 157.714 156.251 157.913 156.042ZM150.747 148.14L157.271 154.34L156.192 155.475L149.668 149.275L150.747 148.14Z" fill="#182F43"/>
<path d="M143.448 156.52C143.546 155.225 144.093 154.144 145.089 153.278C146.084 152.411 147.23 152.018 148.526 152.099C149.812 152.188 150.893 152.735 151.767 153.74C152.642 154.744 153.035 155.89 152.946 157.177C152.848 158.471 152.301 159.552 151.306 160.419C150.31 161.285 149.164 161.678 147.869 161.597C146.573 161.516 145.488 160.973 144.613 159.968C143.738 158.964 143.35 157.814 143.448 156.52ZM146.093 154.432C145.414 155.023 145.045 155.75 144.985 156.613C144.926 157.477 145.195 158.252 145.794 158.94C146.393 159.628 147.124 160.002 147.988 160.061C148.851 160.121 149.622 159.856 150.301 159.265C150.971 158.682 151.335 157.958 151.395 157.095C151.455 156.231 151.185 155.456 150.586 154.768C149.988 154.08 149.256 153.706 148.393 153.647C147.53 153.587 146.763 153.849 146.093 154.432Z" fill="#182F43"/>
<path d="M142.052 167.404C141.17 167.984 140.278 168.168 139.377 167.955C138.484 167.753 137.724 167.176 137.098 166.223L134.063 161.605L135.372 160.745L138.357 165.288C138.759 165.899 139.234 166.262 139.782 166.375C140.337 166.499 140.906 166.37 141.487 165.987C142.139 165.559 142.531 165.008 142.662 164.333C142.799 163.668 142.591 162.915 142.038 162.072L139.418 158.086L140.727 157.226L145.669 164.747L144.361 165.607L143.649 164.524C143.678 165.726 143.145 166.686 142.052 167.404Z" fill="#182F43"/>
<path d="M126.207 161.533L132.941 176.662L131.511 177.298L124.776 162.17L126.207 161.533Z" fill="#182F43"/>
<path d="M119.896 175.707C119.713 176.922 118.971 177.72 117.669 178.099L117.211 176.527C117.958 176.346 118.535 175.966 118.94 175.385C119.346 174.804 119.411 174.042 119.136 173.097L117.801 168.518L119.305 168.079L121.823 176.72L120.319 177.158L119.896 175.707Z" fill="#182F43"/>
<path d="M113.795 173.516C113.5 172.752 113.029 172.203 112.384 171.867C111.727 171.533 110.979 171.442 110.141 171.592C108.971 171.801 108.198 172.384 107.821 173.341L106.376 172.832C107 171.343 108.18 170.443 109.916 170.132C111.322 169.881 112.546 170.113 113.588 170.829C114.621 171.558 115.258 172.596 115.498 173.943C115.737 175.278 115.505 176.465 114.801 177.505C114.097 178.546 113.06 179.188 111.69 179.433C110.39 179.666 109.251 179.394 108.271 178.619C107.281 177.857 106.671 176.832 106.441 175.545C106.401 175.32 106.377 175.087 106.371 174.844L113.795 173.516ZM111.43 177.98C112.257 177.833 112.9 177.474 113.358 176.904C113.819 176.346 114.045 175.666 114.036 174.863L108.118 175.922C108.397 176.737 108.842 177.316 109.452 177.658C110.062 178 110.721 178.107 111.43 177.98Z" fill="#182F43"/>
<path d="M103.143 177.856C103.125 177.509 102.936 177.237 102.576 177.04C102.218 176.855 101.789 176.71 101.291 176.605C100.793 176.511 100.294 176.394 99.7939 176.253C99.2942 176.124 98.8599 175.871 98.491 175.494C98.1228 175.13 97.9221 174.642 97.8891 174.031C97.845 173.216 98.1272 172.546 98.7358 172.02C99.3323 171.495 100.122 171.206 101.104 171.153C101.979 171.105 102.738 171.257 103.382 171.606C104.026 171.956 104.497 172.441 104.795 173.062L103.489 173.908C103.322 173.484 103.033 173.158 102.624 172.927C102.215 172.697 101.735 172.597 101.184 172.627C100.669 172.655 100.249 172.773 99.9235 172.983C99.599 173.205 99.4481 173.526 99.4708 173.945C99.4896 174.293 99.6782 174.559 100.037 174.744C100.396 174.941 100.824 175.086 101.322 175.179C101.821 175.284 102.32 175.407 102.82 175.549C103.321 175.69 103.755 175.943 104.123 176.307C104.491 176.672 104.692 177.154 104.724 177.753C104.766 178.532 104.501 179.189 103.929 179.725C103.345 180.261 102.598 180.554 101.688 180.603C100.957 180.643 100.3 180.51 99.7191 180.205C99.1265 179.912 98.6705 179.48 98.3512 178.909L99.6234 178.101C99.9884 178.85 100.65 179.199 101.609 179.147C102.052 179.123 102.424 178.995 102.724 178.762C103.024 178.542 103.164 178.24 103.143 177.856Z" fill="#182F43"/>
<path d="M94.2773 175.291C94.1806 174.478 93.8612 173.829 93.3193 173.344C92.7654 172.858 92.0636 172.584 91.2139 172.522C90.0291 172.435 89.1353 172.808 88.5326 173.642L87.2595 172.791C88.2325 171.503 89.5986 170.923 91.3579 171.052C92.782 171.157 93.9104 171.685 94.7429 172.636C95.5627 173.599 95.9224 174.763 95.8222 176.127C95.723 177.479 95.2035 178.572 94.264 179.406C93.3244 180.239 92.1605 180.605 90.7722 180.503C89.4558 180.406 88.4189 179.861 87.6617 178.867C86.8916 177.884 86.5545 176.74 86.6503 175.435C86.667 175.208 86.702 174.976 86.7555 174.739L94.2773 175.291ZM90.8803 179.031C91.7181 179.092 92.4298 178.904 93.0154 178.466C93.6002 178.039 93.9875 177.436 94.1771 176.656L88.1812 176.216C88.2505 177.075 88.5381 177.746 89.0442 178.228C89.5502 178.711 90.1623 178.978 90.8803 179.031Z" fill="#182F43"/>
<path d="M76.3874 177.948L74.8588 177.608L76.8142 168.823L78.3428 169.163L78.0065 170.674C79.0259 169.684 80.2619 169.351 81.7144 169.674C82.9443 169.948 83.8935 170.626 84.5622 171.709C85.2282 172.804 85.4178 173.996 85.1311 175.284C84.8443 176.573 84.1684 177.566 83.1035 178.263C82.0359 178.972 80.8872 179.19 79.6573 178.916C78.2049 178.593 77.227 177.766 76.7237 176.437L76.3874 177.948ZM81.1926 171.107C80.3024 170.909 79.4921 171.042 78.7617 171.506C78.0288 171.982 77.5632 172.666 77.3651 173.556C77.167 174.446 77.3001 175.256 77.7645 175.987C78.2263 176.729 78.9023 177.199 79.7925 177.397C80.6711 177.592 81.4768 177.452 82.2097 176.976C82.9401 176.512 83.4043 175.834 83.6025 174.944C83.8006 174.054 83.6688 173.238 83.207 172.496C82.7425 171.765 82.0711 171.302 81.1926 171.107Z" fill="#182F43"/>
<path d="M70.7628 174.644C69.9106 175.53 68.8437 175.752 67.5621 175.309L68.097 173.761C68.8111 174.046 69.5016 174.068 70.1683 173.829C70.835 173.589 71.329 173.005 71.6504 172.075L73.208 167.566L74.6882 168.078L71.7492 176.584L70.269 176.073L70.7628 174.644Z" fill="#182F43"/>
<path d="M65.6532 171.726C65.7971 171.409 65.7553 171.08 65.5277 170.74C65.2952 170.41 64.9822 170.084 64.5888 169.76C64.1905 169.447 63.802 169.113 63.4235 168.756C63.04 168.411 62.7717 167.986 62.6186 167.481C62.4605 166.988 62.508 166.463 62.761 165.905C63.0984 165.162 63.6583 164.698 64.4409 164.513C65.2124 164.323 66.0462 164.432 66.9422 164.839C67.7398 165.201 68.3433 165.686 68.7527 166.293C69.1621 166.901 69.3555 167.549 69.3329 168.237L67.7837 168.384C67.8312 167.931 67.7268 167.508 67.4704 167.115C67.214 166.721 66.8345 166.411 66.3319 166.183C65.8621 165.969 65.4345 165.88 65.0492 165.916C64.6589 165.963 64.3769 166.178 64.2033 166.56C64.0594 166.877 64.1037 167.2 64.3362 167.53C64.5638 167.871 64.8768 168.197 65.2751 168.51C65.6685 168.833 66.0545 169.173 66.433 169.53C66.8115 169.886 67.0798 170.311 67.2379 170.805C67.396 171.298 67.351 171.818 67.1029 172.364C66.7804 173.075 66.2419 173.535 65.4872 173.746C64.7215 173.952 63.9235 173.866 63.0931 173.489C62.4266 173.187 61.9061 172.766 61.5314 172.227C61.1409 171.693 60.9361 171.1 60.917 170.445L62.4186 170.316C62.3961 171.15 62.8218 171.765 63.6959 172.162C64.1002 172.345 64.489 172.403 64.8624 172.336C65.2309 172.279 65.4945 172.076 65.6532 171.726Z" fill="#182F43"/>
<path d="M53.4994 168.388C52.6002 167.834 52.0561 167.104 51.8669 166.199C51.6714 165.303 51.8726 164.37 52.4704 163.399L55.368 158.694L56.7015 159.515L53.851 164.144C53.4672 164.767 53.34 165.351 53.4695 165.896C53.5928 166.451 53.9507 166.911 54.5434 167.276C55.2075 167.685 55.873 167.806 56.5397 167.639C57.2001 167.482 57.7946 166.974 58.3231 166.116L60.8244 162.054L62.1578 162.875L55.5508 173.604L54.2173 172.783L56.7846 168.614C55.7082 169.149 54.6132 169.074 53.4994 168.388Z" fill="#182F43"/>
<path d="M52.1076 151.591L41.2793 164.12L40.0945 163.096L50.9228 150.567L52.1076 151.591Z" fill="#182F43"/>
<path d="M28.8561 150.704L27.8583 149.497L37.569 141.469L38.5668 142.675L37.3738 143.662C38.7864 143.506 39.9668 144.001 40.915 145.148C41.7178 146.119 42.0508 147.238 41.9138 148.503C41.7675 149.776 41.1857 150.833 40.1684 151.675C39.1511 152.516 38.008 152.885 36.7393 152.781C35.4614 152.686 34.421 152.152 33.6181 151.181C32.6699 150.035 32.4051 148.782 32.8237 147.424L28.8561 150.704ZM39.6235 145.959C39.0424 145.256 38.321 144.864 37.4594 144.782C36.5885 144.708 35.8016 144.962 35.0987 145.543C34.3959 146.124 34.0036 146.845 33.9219 147.707C33.831 148.576 34.0761 149.362 34.6572 150.065C35.2307 150.759 35.9529 151.143 36.8237 151.217C37.6854 151.298 38.4676 151.049 39.1705 150.468C39.8734 149.886 40.2703 149.161 40.3612 148.292C40.4429 147.43 40.197 146.653 39.6235 145.959Z" fill="#182F43"/>
<path d="M32.6066 140.854C33.2114 140.302 33.5532 139.665 33.6319 138.942C33.7043 138.208 33.5185 137.478 33.0744 136.751C32.4552 135.737 31.631 135.228 30.602 135.224L30.5529 133.693C32.1667 133.734 33.4333 134.507 34.3528 136.013C35.0971 137.231 35.3249 138.456 35.0362 139.687C34.731 140.914 33.9946 141.884 32.8272 142.597C31.6699 143.304 30.479 143.518 29.2543 143.239C28.0296 142.961 27.0545 142.228 26.329 141.04C25.6409 139.913 25.4805 138.753 25.8477 137.558C26.1985 136.36 26.9319 135.42 28.0482 134.738C28.2428 134.619 28.4519 134.512 28.6755 134.418L32.6066 140.854ZM27.5886 140.27C28.0264 140.987 28.594 141.456 29.2914 141.677C29.9785 141.904 30.6944 141.868 31.4391 141.568L28.3055 136.437C27.6472 136.994 27.2693 137.618 27.1718 138.31C27.0744 139.003 27.2133 139.656 27.5886 140.27Z" fill="#182F43"/>
<path d="M22.3669 129.611L23.3729 131.783L27.7993 129.733C28.2022 129.547 28.4555 129.337 28.5591 129.104C28.6468 128.865 28.6204 128.58 28.4801 128.248C28.3288 127.921 28.1313 127.523 27.8877 127.054L29.1617 126.464C29.8999 127.63 30.2229 128.585 30.1309 129.328C30.0279 130.077 29.4701 130.685 28.4574 131.154L24.031 133.204L24.7798 134.821L23.4078 135.457L22.659 133.84L20.7969 134.702L19.7142 133.478L22.0009 132.419L20.9949 130.246L22.3669 129.611Z" fill="#182F43"/>
<path d="M24.6571 125.424C25.3706 125.022 25.8471 124.478 26.0864 123.791C26.322 123.093 26.3052 122.339 26.0361 121.531C25.6609 120.404 24.9724 119.722 23.9707 119.487L24.2672 117.984C25.8305 118.387 26.8907 119.425 27.4479 121.099C27.8989 122.454 27.8453 123.698 27.2871 124.833C26.7136 125.96 25.7779 126.739 24.4799 127.171C23.1934 127.6 21.9848 127.54 20.8541 126.993C19.7235 126.446 18.9384 125.513 18.4987 124.192C18.0818 122.94 18.1866 121.773 18.8131 120.691C19.4245 119.603 20.3507 118.852 21.5918 118.438C21.8081 118.366 22.0358 118.31 22.2749 118.268L24.6571 125.424ZM19.8991 123.726C20.1645 124.523 20.612 125.107 21.2418 125.479C21.8602 125.855 22.566 125.981 23.3591 125.856L21.4602 120.152C20.6935 120.546 20.1848 121.07 19.9341 121.722C19.6834 122.375 19.6717 123.043 19.8991 123.726Z" fill="#182F43"/>
<path d="M17.9221 115.562C16.7216 115.296 15.9766 114.501 15.6871 113.176L17.2873 112.826C17.4161 113.584 17.7563 114.186 18.308 114.63C18.8596 115.074 19.6161 115.192 20.5774 114.981L25.2374 113.963L25.5718 115.493L16.7794 117.415L16.445 115.885L17.9221 115.562Z" fill="#182F43"/>
<path d="M14.2899 101.547C14.2123 100.542 14.4784 99.7032 15.0883 99.0302C15.6863 98.3581 16.5416 97.979 17.6543 97.893L23.2357 97.4616L23.3564 99.0229L17.8289 99.4502C17.1349 99.5039 16.6104 99.7249 16.2553 100.113C15.9002 100.502 15.7457 100.995 15.792 101.594C15.8438 102.264 16.1127 102.784 16.5988 103.156C17.072 103.517 17.7692 103.661 18.6905 103.59L23.6796 103.204L23.8003 104.766L18.2728 105.193C17.5788 105.247 17.0539 105.462 16.6978 105.838C16.3409 106.203 16.185 106.678 16.2304 107.265C16.2812 107.923 16.5511 108.455 17.04 108.863C17.5279 109.259 18.2265 109.421 19.1358 109.351L24.1249 108.965L24.2456 110.527L15.2724 111.22L15.1517 109.659L16.3541 109.566C15.3498 109.03 14.8023 108.175 14.7117 107.003C14.6183 105.795 15.0588 104.876 16.0332 104.247C14.9681 103.703 14.3871 102.803 14.2899 101.547Z" fill="#182F43"/>
<path d="M12.9681 93.7442C12.9531 94.0438 12.8386 94.2903 12.6246 94.4839C12.4106 94.6774 12.1598 94.7669 11.8722 94.7525C11.5845 94.738 11.344 94.6238 11.1505 94.4099C10.945 94.1953 10.8497 93.9382 10.8648 93.6386C10.8792 93.3509 10.9994 93.1106 11.2254 92.9177C11.4393 92.7242 11.6902 92.6347 11.9778 92.6491C12.2654 92.6636 12.506 92.7778 12.6995 92.9917C12.893 93.2057 12.9826 93.4565 12.9681 93.7442ZM23.553 95.0686L14.5644 94.6173L14.6429 93.0533L23.6316 93.5046L23.553 95.0686Z" fill="#182F43"/>
<path d="M15.1278 86.0175C15.2778 84.9722 15.7305 84.1825 16.4861 83.6484C17.2297 83.1126 18.1657 82.9257 19.2942 83.0876L24.7642 83.8725L24.5417 85.4226L19.1609 84.6505C18.4363 84.5465 17.8499 84.6624 17.4016 84.9982C16.9415 85.3322 16.662 85.8437 16.5632 86.5326C16.4524 87.3047 16.6064 87.9633 17.0253 88.5083C17.4322 89.0516 18.1346 89.3948 19.1324 89.538L23.854 90.2155L23.6316 91.7656L14.7228 90.4873L14.9453 88.9372L16.2281 89.1213C15.3088 88.3469 14.942 87.3123 15.1278 86.0175Z" fill="#182F43"/>
<path d="M18.6014 72.1128L19.0453 70.6111L27.6762 73.1619L27.2324 74.6637L25.7479 74.225C26.6661 75.3097 26.9143 76.5656 26.4926 77.9925C26.1354 79.2009 25.3937 80.1016 24.2674 80.6947C23.1296 81.2844 21.9278 81.3922 20.6619 81.018C19.3961 80.6439 18.4517 79.9018 17.8288 78.7917C17.1943 77.6783 17.0557 76.5173 17.4128 75.309C17.8346 73.882 18.7256 72.9629 20.086 72.5516L18.6014 72.1128ZM25.0987 77.3741C25.3572 76.4995 25.2797 75.682 24.8662 74.9217C24.4413 74.1579 23.7915 73.6468 22.9169 73.3883C22.0423 73.1298 21.2248 73.2073 20.4645 73.6207C19.6926 74.0308 19.1774 74.6731 18.9189 75.5477C18.6638 76.4108 18.7488 77.2242 19.1737 77.988C19.5872 78.7483 20.2312 79.2578 21.1058 79.5162C21.9804 79.7747 22.8036 79.699 23.5755 79.2889C24.3359 78.8755 24.8436 78.2372 25.0987 77.3741Z" fill="#182F43"/>
<path d="M23.6068 63.6207L22.6578 65.8186L27.1361 67.7523C27.5437 67.9283 27.869 67.9773 28.1119 67.8991C28.3485 67.8053 28.5436 67.5954 28.6974 67.2697C28.8401 66.9392 29.0051 66.5268 29.1923 66.0325L30.4813 66.5891C30.1043 67.9164 29.6079 68.7935 28.9922 69.2204C28.3655 69.6425 27.5399 69.6324 26.5153 69.19L22.037 67.2563L21.3306 68.8923L19.9424 68.2929L20.6489 66.6569L18.765 65.8435L18.9561 64.2202L21.2696 65.2192L22.2187 63.0214L23.6068 63.6207Z" fill="#182F43"/>
<path d="M22.2315 59.3779C22.0935 59.6442 21.8869 59.821 21.6119 59.9082C21.3369 59.9955 21.0716 59.9728 20.8159 59.8403C20.5602 59.7078 20.3888 59.504 20.3015 59.229C20.2036 58.9485 20.2237 58.675 20.3618 58.4087C20.4943 58.153 20.7034 57.9843 20.9891 57.9026C21.2641 57.8154 21.5294 57.838 21.7851 57.9706C22.0408 58.1031 22.2122 58.3069 22.2995 58.5819C22.3867 58.8568 22.3641 59.1222 22.2315 59.3779ZM31.3116 64.9766L23.3213 60.8348L24.042 59.4445L32.0323 63.5863L31.3116 64.9766Z" fill="#182F43"/>
<path d="M35.8416 55.0934C36.1104 56.3636 35.8884 57.5542 35.1758 58.6652C34.4631 59.7763 33.4735 60.4745 32.2069 60.7599C30.9469 61.0351 29.7563 60.8132 28.6351 60.094C27.5139 59.3749 26.8157 58.3853 26.5405 57.1252C26.2717 55.8551 26.4936 54.6644 27.2063 53.5534C27.919 52.4423 28.9086 51.7441 30.1751 51.4587C31.4417 51.1734 32.6355 51.3903 33.7567 52.1094C34.8779 52.8286 35.5728 53.8233 35.8416 55.0934ZM33.8879 57.8392C34.3738 57.0816 34.5244 56.2801 34.3397 55.4345C34.155 54.589 33.6788 53.92 32.9112 53.4276C32.1435 52.9352 31.3369 52.7813 30.4914 52.966C29.6458 53.1508 28.9801 53.6219 28.4942 54.3794C28.0147 55.1269 27.8674 55.9234 28.0521 56.7689C28.2368 57.6145 28.713 58.2835 29.4806 58.7759C30.2483 59.2683 31.0549 59.4221 31.9004 59.2374C32.746 59.0527 33.4085 58.5866 33.8879 57.8392Z" fill="#182F43"/>
<path d="M34.2631 44.0627C34.9507 43.2612 35.7565 42.8379 36.6807 42.7927C37.5957 42.7398 38.4858 43.0844 39.3511 43.8267L43.5451 47.4248L42.5255 48.6134L38.3997 45.0739C37.8441 44.5972 37.2872 44.3803 36.7288 44.423C36.1613 44.4579 35.6509 44.7394 35.1977 45.2677C34.6899 45.8597 34.4663 46.498 34.5272 47.1827C34.579 47.8595 34.9874 48.5261 35.7524 49.1824L39.3727 52.2883L38.353 53.4769L31.5223 47.6167L32.542 46.4282L33.5256 47.272C33.1656 46.1252 33.4114 45.0554 34.2631 44.0627Z" fill="#182F43"/>
<path d="M50.9087 45.4318L40.2178 32.7852L41.4137 31.7742L52.1046 44.4208L50.9087 45.4318Z" fill="#182F43"/>
<path d="M53.2745 30.8792C53.457 31.1755 53.753 31.3244 54.1626 31.3259C54.5659 31.3171 55.0116 31.2399 55.4997 31.0943C55.9816 30.9385 56.476 30.8031 56.9831 30.6882C57.4838 30.563 57.9862 30.5778 58.4901 30.7325C58.9878 30.877 59.3971 31.2098 59.718 31.7309C60.1459 32.4257 60.2181 33.1494 59.9345 33.9018C59.6612 34.6479 59.1056 35.279 58.2677 35.795C57.5218 36.2543 56.7825 36.4841 56.0498 36.4843C55.3171 36.4846 54.6716 36.2831 54.1133 35.88L54.857 34.5131C55.2061 34.8054 55.6154 34.955 56.0847 34.962C56.554 34.9689 57.0237 34.8276 57.4937 34.5382C57.9331 34.2676 58.2455 33.9625 58.4309 33.6228C58.61 33.2729 58.5895 32.9191 58.3693 32.5615C58.1868 32.2652 57.8939 32.1214 57.4906 32.1302C57.081 32.1288 56.6353 32.2059 56.1534 32.3618C55.6653 32.5073 55.1677 32.6376 54.6607 32.7525C54.1536 32.8675 53.6513 32.8527 53.1536 32.7082C52.6559 32.5637 52.2498 32.236 51.9352 31.7251C51.5262 31.061 51.445 30.357 51.6916 29.6132C51.9484 28.8632 52.4651 28.249 53.2417 27.7708C53.865 27.387 54.5048 27.1902 55.1612 27.1806C55.8216 27.1544 56.4286 27.3162 56.9821 27.6658L56.2502 28.9833C55.5716 28.4992 54.8236 28.5089 54.0062 29.0123C53.6281 29.2451 53.3629 29.5353 53.2105 29.8828C53.0518 30.2201 53.0731 30.5522 53.2745 30.8792Z" fill="#182F43"/>
<path d="M63.8007 24.069L61.6474 25.1152L63.7792 29.5027C63.9732 29.9021 64.1877 30.1514 64.4227 30.2507C64.6633 30.3339 64.9481 30.3023 65.2771 30.1557C65.6009 29.9984 65.9951 29.7936 66.4595 29.5413L67.0731 30.8041C65.9213 31.5638 64.9728 31.9046 64.2277 31.8263C63.4773 31.7373 62.8583 31.1909 62.3706 30.1871L60.2389 25.7995L58.636 26.5783L57.9753 25.2183L59.5781 24.4395L58.6814 22.5939L59.8854 21.4886L60.9867 23.7552L63.14 22.709L63.8007 24.069Z" fill="#182F43"/>
<path d="M67.3127 22.6253C67.3899 21.3982 68.0606 20.5394 69.3247 20.0488L69.9174 21.5758C69.1884 21.8201 68.6469 22.2491 68.293 22.8627C67.939 23.4764 67.94 24.2418 68.2961 25.1592L70.0219 29.606L68.562 30.1726L65.3057 21.7824L66.7656 21.2158L67.3127 22.6253Z" fill="#182F43"/>
<path d="M78.3303 17.5845L79.8448 17.1864L82.1329 25.8907L80.6183 26.2888L80.2248 24.7917C79.7724 26.139 78.8267 27.0017 77.3876 27.38C76.169 27.7004 75.0143 27.5324 73.9236 26.8761C72.8299 26.2082 72.1153 25.236 71.7797 23.9593C71.4441 22.6827 71.5898 21.4905 72.2168 20.3827C72.8407 19.2633 73.7619 18.5434 74.9805 18.2231C76.4197 17.8448 77.6674 18.131 78.7238 19.0817L78.3303 17.5845ZM77.1947 25.8674C78.0767 25.6355 78.7359 25.1459 79.1722 24.3984C79.6054 23.6393 79.7061 22.8187 79.4743 21.9367C79.2424 21.0547 78.7528 20.3955 78.0053 19.9592C77.2548 19.5113 76.4385 19.4032 75.5564 19.6351C74.686 19.8639 74.0342 20.3578 73.6009 21.1169C73.1646 21.8644 73.0624 22.6792 73.2942 23.5612C73.5261 24.4432 74.0173 25.1082 74.7678 25.5561C75.5153 25.9924 76.3242 26.0962 77.1947 25.8674Z" fill="#182F43"/>
<path d="M87.9864 17.4749L85.6154 17.8059L86.2897 22.637C86.3511 23.0768 86.4782 23.3801 86.6712 23.5471C86.8743 23.7004 87.155 23.7582 87.5132 23.7203C87.8697 23.6706 88.3078 23.5973 88.8274 23.5005L89.0215 24.8911C87.6915 25.2584 86.6842 25.29 85.9996 24.9857C85.3133 24.6695 84.893 23.9588 84.7387 22.8535L84.0644 18.0224L82.2995 18.2687L82.0905 16.7712L83.8554 16.5249L83.5718 14.4926L85.058 13.8126L85.4064 16.3084L87.7774 15.9775L87.9864 17.4749Z" fill="#182F43"/>
<path d="M91.3698 20.8428C91.5475 21.6423 91.9302 22.2562 92.518 22.6845C93.1178 23.1124 93.8435 23.3149 94.6952 23.2919C95.8828 23.2598 96.7346 22.7986 97.2508 21.9083L98.6027 22.6281C97.7637 24.0072 96.4625 24.7207 94.6991 24.7683C93.2716 24.8069 92.0961 24.3945 91.1724 23.5311C90.2604 22.6554 89.7859 21.5339 89.749 20.1664C89.7123 18.8108 90.1197 17.6714 90.9711 16.7481C91.8225 15.8248 92.9439 15.3443 94.3354 15.3067C95.6549 15.271 96.7411 15.7098 97.5941 16.6231C98.4588 17.5241 98.9088 18.6283 98.9441 19.9359C98.9503 20.1638 98.9386 20.3982 98.9091 20.6391L91.3698 20.8428ZM94.3752 16.7821C93.5356 16.8048 92.8463 17.0635 92.3075 17.5583C91.7683 18.041 91.4434 18.68 91.3329 19.4753L97.3427 19.3129C97.1877 18.4648 96.8343 17.8261 96.2825 17.3968C95.7308 16.9676 95.095 16.7627 94.3752 16.7821Z" fill="#182F43"/>
<path d="M109.333 16.38L110.87 16.5645L109.842 25.1251C109.683 26.4476 109.113 27.4186 108.133 28.0381C107.15 28.6695 106.034 28.9101 104.783 28.76C103.782 28.6398 102.941 28.3455 102.26 27.877C101.577 27.4204 101.094 26.8184 100.809 26.0711L102.259 25.4657C102.628 26.5252 103.539 27.1421 104.992 27.3166C105.921 27.4282 106.678 27.2712 107.26 26.8456C107.855 26.4215 108.203 25.7865 108.305 24.9406L108.457 23.6717C107.528 24.7687 106.336 25.23 104.883 25.0555C103.608 24.9025 102.584 24.3203 101.811 23.3089C101.038 22.2976 100.73 21.1426 100.886 19.8439C101.041 18.5452 101.614 17.502 102.603 16.7143C103.593 15.9146 104.726 15.5913 106.001 15.7443C107.466 15.9203 108.515 16.6445 109.148 17.917L109.333 16.38ZM103.079 22.4097C103.614 23.0903 104.334 23.4849 105.24 23.5936C106.145 23.7023 106.938 23.4893 107.619 22.9546C108.299 22.4199 108.694 21.6998 108.803 20.7943C108.91 19.9007 108.696 19.1137 108.162 18.4331C107.627 17.7525 106.907 17.3579 106.001 17.2492C105.096 17.1405 104.303 17.3534 103.622 17.8881C102.942 18.4228 102.548 19.137 102.44 20.0306C102.332 20.9361 102.545 21.7291 103.079 22.4097Z" fill="#182F43"/>
<path d="M120.155 18.7629L121.774 19.1884L115.792 27.4989C115.162 28.3877 114.443 28.999 113.635 29.3327C112.836 29.6811 112.009 29.7119 111.154 29.425L111.525 28.0149C112.571 28.3769 113.51 27.9909 114.342 26.857L114.586 26.5675L113.069 16.9004L114.688 17.326L115.854 24.9281L120.155 18.7629Z" fill="#182F43"/>
<path d="M123.908 33.4493L130.586 18.2954L132.019 18.9269L125.341 34.0808L123.908 33.4493Z" fill="#182F43"/>
</svg>
