<svg width="165" height="165" viewBox="0 0 165 165" fill="none" xmlns="http://www.w3.org/2000/svg">
<path d="M6.34185 80.1298L7.32244 69.9891L20.0431 71.2192L19.8872 72.8316L8.59983 71.7402L7.93109 78.6559L19.2184 79.7474L19.0625 81.3599L6.34185 80.1298Z" fill="#182F43"/>
<path d="M21.8823 64.8096C21.6868 65.4901 21.381 66.0764 20.9649 66.5687C20.5521 67.0494 20.0743 67.4302 19.5316 67.7113C18.9922 67.9808 18.4084 68.1439 17.7803 68.2007C17.1522 68.2574 16.5268 68.1963 15.904 68.0174C15.2696 67.8351 14.7014 67.5532 14.1992 67.1717C13.7004 66.7787 13.2939 66.3248 12.9799 65.81C12.6691 65.2837 12.4664 64.7073 12.3717 64.0808C12.2804 63.4428 12.3308 62.7893 12.523 62.1204C12.7152 61.4514 13.0194 60.8709 13.4355 60.3786C13.8516 59.8864 14.3294 59.5055 14.8688 59.236C15.4115 58.955 15.9969 58.7861 16.625 58.7293C17.2564 58.661 17.8893 58.718 18.5237 58.9003C19.1465 59.0792 19.7089 59.3595 20.2111 59.741C20.7133 60.1225 21.1197 60.5764 21.4305 61.1027C21.7412 61.629 21.9423 62.2111 22.0336 62.8492C22.1283 63.4757 22.0779 64.1292 21.8823 64.8096ZM16.3687 66.4654C16.8415 66.6012 17.3013 66.6522 17.7481 66.6182C18.1981 66.5728 18.6112 66.4605 18.9873 66.2814C19.3667 66.0907 19.6943 65.8415 19.97 65.5337C20.2491 65.2143 20.4482 64.847 20.5675 64.4318C20.6868 64.0166 20.7113 63.6054 20.6411 63.1982C20.5741 62.7794 20.4305 62.3885 20.2102 62.0256C19.9783 61.6593 19.6821 61.3432 19.3215 61.0773C18.9527 60.7965 18.5318 60.5882 18.059 60.4523C17.5976 60.3198 17.1419 60.2762 16.6919 60.3217C16.2336 60.3523 15.8148 60.463 15.4354 60.6536C15.0444 60.8409 14.7094 61.0943 14.4304 61.4136C14.1546 61.7214 13.9571 62.083 13.8378 62.4982C13.7185 62.9134 13.6981 63.332 13.7766 63.7541C13.8469 64.1613 13.9979 64.5481 14.2298 64.9144C14.4535 65.2658 14.7497 65.5819 15.1185 65.8627C15.4791 66.1286 15.8958 66.3295 16.3687 66.4654Z" fill="#182F43"/>
<path d="M15.7082 56.0203C15.3006 55.0771 15.3188 54.1066 15.7629 53.109C16.0996 52.3525 16.5623 51.8295 17.1509 51.5398C17.7286 51.2453 18.3354 51.2396 18.9713 51.5226C19.4756 51.7471 19.8421 52.0744 20.0709 52.5047C20.2937 52.9191 20.33 53.3687 20.1798 53.8535C20.5347 53.2628 20.9931 52.8823 21.5548 52.712C22.1106 52.5259 22.7008 52.572 23.3257 52.8501C23.7204 53.0258 24.048 53.2636 24.3086 53.5635C24.574 53.8524 24.7664 54.1876 24.8855 54.569C24.9938 54.9455 25.0283 55.355 24.989 55.7972C24.9547 56.2285 24.835 56.6744 24.63 57.1348C24.142 58.2311 23.3326 58.9282 22.2018 59.2261L21.5427 58.0067C22.0057 57.9107 22.3878 57.7458 22.6889 57.512C22.979 57.2734 23.2168 56.9458 23.4022 56.5292C23.6365 56.003 23.6964 55.5437 23.5821 55.1513C23.4568 54.754 23.164 54.4529 22.7035 54.2479C22.1773 54.0137 21.6942 54.0219 21.2542 54.2727C20.8033 54.5185 20.4192 54.9978 20.102 55.7103L19.8458 56.2859L18.744 55.7955L19.0002 55.2199C19.2393 54.6827 19.3121 54.2094 19.2185 53.8C19.1298 53.3796 18.8881 53.0815 18.4935 52.9058C18.1646 52.7594 17.8557 52.7599 17.5669 52.9071C17.2671 53.0495 17.0293 53.318 16.8536 53.7127C16.5999 54.2828 16.5971 54.9383 16.8452 55.6792L15.7082 56.0203Z" fill="#182F43"/>
<path d="M22.7284 48.1891L25.2351 44.152L21.9167 42.0916L22.7333 40.7765L30.7157 45.7328L29.8992 47.048L26.3514 44.8451L23.8448 48.8823L27.3925 51.0851L26.576 52.4002L18.5935 47.4439L19.4101 46.1287L22.7284 48.1891Z" fill="#182F43"/>
<path d="M33.7766 42.188C33.4875 42.525 33.1633 42.7923 32.8039 42.99C32.4355 43.1799 32.0573 43.2982 31.6695 43.3448C31.2894 43.3824 30.9126 43.3517 30.5391 43.2526C30.1643 43.1366 29.8175 42.9418 29.4987 42.6684C29.1708 42.3871 28.9373 42.0603 28.7982 41.688C28.65 41.3078 28.5936 40.9037 28.6289 40.4755C28.6721 40.0381 28.7953 39.5905 28.9985 39.1324C29.2096 38.6652 29.5026 38.213 29.8777 37.7759C30.1746 37.4298 30.5073 37.1065 30.8758 36.806C31.2443 36.5055 31.6003 36.2655 31.944 36.086L31.3703 35.5938C30.7874 35.0937 30.1913 34.867 29.5822 34.9136C28.9639 34.9523 28.3969 35.2723 27.8812 35.8734C27.264 36.5929 26.8932 37.5871 26.769 38.8561L25.6504 38.5842C25.8203 37.1331 26.3037 35.943 27.1007 35.014C27.9055 34.0759 28.781 33.5622 29.7273 33.4728C30.6814 33.3743 31.6138 33.7157 32.5246 34.4971L35.4345 36.9935C35.7168 37.2357 35.9719 37.2332 36.1998 36.986L37.2381 37.8767C37.1469 38.0199 37.0707 38.1363 37.0095 38.2261C36.9483 38.3159 36.8786 38.4063 36.8005 38.4974C36.5973 38.7342 36.3649 38.8669 36.1033 38.8954C35.8404 38.907 35.597 38.8405 35.3732 38.6959L34.8443 38.2896C34.9989 38.9756 34.9791 39.6622 34.7848 40.3493C34.5893 41.0196 34.2532 41.6324 33.7766 42.188ZM33.1445 41.1003C33.5117 40.6722 33.7742 40.2096 33.9319 39.7125C34.0883 39.1984 34.1165 38.7325 34.0165 38.3146C33.9919 37.9931 33.8885 37.7542 33.7064 37.598L32.6544 36.6955C31.9267 37.083 31.2932 37.591 30.7541 38.2195C30.2384 38.8206 29.944 39.4218 29.8708 40.0231C29.8055 40.6153 29.9777 41.0871 30.3876 41.4388C30.588 41.6107 30.8059 41.7344 31.0415 41.81C31.2848 41.8765 31.5289 41.8961 31.7736 41.8689C32.0261 41.8326 32.2708 41.75 32.5078 41.6213C32.7447 41.4925 32.957 41.3188 33.1445 41.1003Z" fill="#182F43"/>
<path d="M36.1872 26.2479L37.5092 25.08L37.7709 30.9495L43.9191 31.9546L42.6106 33.1107L37.4668 32.1549L36.644 32.8818L39.3731 35.9709L38.2131 36.9959L31.992 29.9543L33.1521 28.9294L35.8574 31.9915L36.5454 31.3837L36.1872 26.2479Z" fill="#182F43"/>
<path d="M47.8497 29.5739C47.258 29.9627 46.644 30.2082 46.0076 30.3105C45.3812 30.4061 44.7706 30.3838 44.1758 30.2433C43.591 30.0963 43.0419 29.8397 42.5284 29.4735C42.015 29.1073 41.5804 28.6534 41.2245 28.1118C40.8621 27.5603 40.6147 26.9762 40.4824 26.3596C40.36 25.7363 40.3475 25.1272 40.4446 24.5321C40.5518 23.9304 40.7736 23.3611 41.11 22.8241C41.4565 22.2806 41.9205 21.8177 42.5022 21.4355C43.0839 21.0533 43.6929 20.8111 44.3293 20.7088C44.9657 20.6066 45.5762 20.629 46.161 20.776C46.7559 20.9164 47.31 21.1697 47.8234 21.5359C48.3469 21.8956 48.7899 22.3512 49.1523 22.9027C49.5081 23.4443 49.7522 24.0234 49.8846 24.64C50.0169 25.2566 50.0295 25.8658 49.9223 26.4675C49.8151 27.0692 49.5883 27.6418 49.2419 28.1853C48.9054 28.7222 48.4414 29.1851 47.8497 29.5739ZM42.5883 27.2373C42.8585 27.6485 43.1741 27.9867 43.5351 28.2521C43.9061 28.5108 44.2926 28.6948 44.6946 28.804C45.1067 28.9066 45.5175 28.931 45.9273 28.8771C46.347 28.8167 46.7374 28.6678 47.0985 28.4306C47.4595 28.1934 47.7461 27.8974 47.9581 27.5427C48.1802 27.1814 48.3259 26.7913 48.3953 26.3724C48.458 25.9435 48.4393 25.5107 48.339 25.074C48.2422 24.6207 48.0587 24.1885 47.7885 23.7773C47.5249 23.3761 47.2076 23.0462 46.8366 22.7874C46.469 22.5121 46.0792 22.3231 45.6671 22.2205C45.2485 22.1079 44.8293 22.0818 44.4096 22.1422C43.9998 22.1961 43.6145 22.3416 43.2534 22.5788C42.8924 22.816 42.6041 23.1203 42.3886 23.4916C42.1766 23.8464 42.0392 24.2382 41.9764 24.6671C41.9171 25.0794 41.9358 25.5122 42.0326 25.9655C42.1329 26.4022 42.3181 26.8261 42.5883 27.2373Z" fill="#182F43"/>
<path d="M55.758 21.1916L56.3211 14.4588L57.7588 13.838L61.4836 22.4642L60.0624 23.0778L57.4365 16.9965L56.9275 22.7649L56.1012 23.1217L51.537 19.5439L54.1629 25.6252L52.7417 26.2389L49.017 17.6127L50.4712 16.9847L55.758 21.1916Z" fill="#182F43"/>
<path d="M61.6346 12.6485L63.1361 12.272L63.924 15.4147L65.6525 14.9814C66.0483 14.8822 66.4484 14.8499 66.853 14.8845C67.2663 14.9046 67.6505 15.0062 68.0057 15.1894C68.3697 15.3579 68.6929 15.6109 68.9754 15.9483C69.255 16.2741 69.4591 16.6931 69.5875 17.2052C69.7159 17.7174 69.7336 18.183 69.6408 18.6022C69.5479 19.0213 69.3808 19.3911 69.1395 19.7114C68.9069 20.0171 68.6131 20.2764 68.2581 20.4891C67.9032 20.7018 67.5279 20.8577 67.1321 20.957L63.9196 21.7624L61.6346 12.6485ZM66.8082 19.6649C67.3087 19.5395 67.6767 19.3049 67.9122 18.9613C68.1565 18.6032 68.2085 18.1448 68.0685 17.586C67.9255 17.0157 67.6487 16.6273 67.2382 16.421C66.8393 16.2117 66.4188 16.1625 65.9764 16.2734L64.2479 16.7068L65.0972 20.0939L66.8082 19.6649Z" fill="#182F43"/>
<path d="M75.6678 19.4633L74.1301 19.6419L73.2039 11.6675L70.0749 12.0309L69.9171 10.672L77.7127 9.76659L77.8705 11.1255L74.7416 11.4889L75.6678 19.4633Z" fill="#182F43"/>
<path d="M84.4043 19.3387C83.6966 19.3168 83.0528 19.1709 82.4729 18.9008C81.8933 18.6188 81.4005 18.2494 80.9944 17.7927C80.5883 17.3359 80.2744 16.81 80.0526 16.2148C79.8433 15.6081 79.7488 14.9749 79.7691 14.3152C79.7895 13.6555 79.9227 13.0353 80.1688 12.4546C80.4268 11.8743 80.7726 11.3688 81.2061 10.9379C81.6516 10.5075 82.1721 10.1754 82.7676 9.94167C83.3635 9.69595 84.0152 9.58402 84.7229 9.60587C85.4306 9.62773 86.0682 9.77949 86.6358 10.0611C87.2153 10.3432 87.7022 10.7124 88.0963 11.1688C88.4907 11.6132 88.7868 12.1325 88.9846 12.7269C89.1947 13.3097 89.2901 13.9129 89.2708 14.5366C89.2668 14.6686 89.2571 14.7883 89.2417 14.8959C89.2384 15.0038 89.2298 15.0876 89.216 15.1472L81.4257 14.9066C81.4472 15.3755 81.542 15.8046 81.7101 16.194C81.8781 16.5834 82.1018 16.9204 82.3812 17.2052C82.6605 17.49 82.9777 17.7159 83.3327 17.8829C83.6997 18.0503 84.0871 18.1403 84.4949 18.1529C84.7828 18.1618 85.0658 18.1345 85.3439 18.0711C85.6223 17.9956 85.8835 17.8957 86.1275 17.7711C86.3714 17.6466 86.5864 17.4912 86.7722 17.3048C86.97 17.1188 87.1206 16.9074 87.224 16.6705L88.5797 17.0905C88.413 17.4335 88.1873 17.7447 87.9025 18.024C87.6298 18.3038 87.3101 18.546 86.9436 18.7508C86.5895 18.944 86.1947 19.0938 85.7592 19.2004C85.3237 19.307 84.8721 19.3531 84.4043 19.3387ZM87.7948 13.9328C87.7725 13.4879 87.6712 13.0765 87.4907 12.6988C87.3227 12.3094 87.0988 11.9784 86.8191 11.7056C86.5514 11.4332 86.2338 11.2193 85.8664 11.0639C85.4994 10.8965 85.106 10.8063 84.6862 10.7933C84.2664 10.7803 83.8682 10.8461 83.4916 10.9905C83.1153 11.123 82.779 11.3227 82.4826 11.5897C82.1986 11.845 81.9609 12.1558 81.7695 12.5221C81.5901 12.8887 81.4755 13.2934 81.4258 13.7361L87.7948 13.9328Z" fill="#182F43"/>
<path d="M90.572 14.7715C90.6932 14.1227 90.9198 13.5302 91.2519 12.9941C91.584 12.458 91.9961 12.0161 92.4883 11.6686C92.9827 11.3092 93.5361 11.0586 94.1486 10.9166C94.7751 10.7651 95.4422 10.7554 96.1499 10.8876C97.07 11.0594 97.8218 11.4135 98.4053 11.9497C99.0027 12.4764 99.4086 13.1137 99.6229 13.8618L98.012 14.0553C97.8576 13.5748 97.5901 13.1769 97.2095 12.8617C96.8311 12.5346 96.3824 12.3227 95.8634 12.2257C95.4387 12.1464 95.0211 12.16 94.6106 12.2664C94.2023 12.361 93.8338 12.5364 93.5053 12.7924C93.1767 13.0484 92.8912 13.3674 92.649 13.7494C92.4185 14.1337 92.257 14.5735 92.1645 15.0689C92.0742 15.5526 92.0719 16.0221 92.1577 16.4776C92.2436 16.9331 92.3924 17.3455 92.6042 17.7146C92.83 18.0742 93.1092 18.3766 93.4419 18.6218C93.7863 18.8693 94.1708 19.0327 94.5955 19.112C94.8668 19.1627 95.1388 19.1768 95.4116 19.1545C95.6983 19.1226 95.9599 19.0616 96.1965 18.9715C96.4449 18.8837 96.667 18.7726 96.863 18.6383C97.0612 18.4922 97.2144 18.3255 97.3227 18.1381L98.7584 18.8824C98.553 19.1981 98.294 19.4732 97.9817 19.7078C97.6811 19.9447 97.341 20.1314 96.9615 20.268C96.5819 20.4047 96.1688 20.4923 95.7221 20.531C95.2872 20.5718 94.8398 20.5493 94.3797 20.4633C93.6837 20.3334 93.071 20.0846 92.5415 19.7172C92.0119 19.3497 91.5815 18.9092 91.2502 18.3956C90.9188 17.882 90.6892 17.3142 90.5612 16.6921C90.4472 16.0605 90.4508 15.4203 90.572 14.7715Z" fill="#182F43"/>
<path d="M102.313 12.4688L103.782 12.9577L102.759 16.0319L104.45 16.5947C104.837 16.7236 105.192 16.9113 105.514 17.1578C105.852 17.3968 106.122 17.6888 106.323 18.0341C106.539 18.3717 106.676 18.7587 106.733 19.1951C106.794 19.6201 106.741 20.0831 106.574 20.584C106.407 21.085 106.172 21.4874 105.869 21.791C105.565 22.0947 105.226 22.3169 104.85 22.4574C104.49 22.5904 104.103 22.6513 103.689 22.64C103.276 22.6288 102.875 22.5588 102.488 22.4299L99.3456 21.3838L102.313 12.4688ZM102.909 21.1661C103.398 21.3291 103.835 21.3289 104.218 21.1656C104.616 20.9946 104.906 20.6359 105.088 20.0894C105.274 19.5315 105.249 19.0553 105.014 18.6607C104.79 18.27 104.461 18.0026 104.029 17.8585L102.338 17.2957L101.235 20.6089L102.909 21.1661Z" fill="#182F43"/>
<path d="M117.664 29.87L116.337 29.0729L120.471 22.1911L116.629 19.8831L112.495 26.7649L111.168 25.9678L116.006 17.9133L122.502 21.8156L117.664 29.87Z" fill="#182F43"/>
<path d="M122.685 34.0134C122.143 33.5583 121.732 33.0406 121.451 32.4604C121.179 31.8879 121.025 31.2966 120.989 30.6865C120.962 30.0842 121.05 29.4845 121.253 28.8875C121.457 28.2905 121.767 27.7438 122.183 27.2474C122.607 26.7418 123.096 26.3371 123.648 26.0333C124.21 25.7371 124.79 25.5501 125.388 25.4722C125.995 25.4021 126.604 25.451 127.215 25.6191C127.835 25.7948 128.412 26.1064 128.945 26.5538C129.478 27.0012 129.885 27.5149 130.166 28.0952C130.447 28.6754 130.601 29.2666 130.628 29.869C130.664 30.4791 130.58 31.0827 130.377 31.6796C130.183 32.2843 129.874 32.8395 129.45 33.3451C129.033 33.8415 128.548 34.2416 127.996 34.5454C127.443 34.8493 126.863 35.0363 126.256 35.1065C125.649 35.1766 125.035 35.1238 124.415 34.9481C123.804 34.78 123.228 34.4685 122.685 34.0134ZM123.412 28.3026C123.096 28.6794 122.863 29.0789 122.712 29.5009C122.571 29.9306 122.506 30.3537 122.517 30.7701C122.537 31.1942 122.631 31.5948 122.801 31.9718C122.979 32.3565 123.234 32.6878 123.565 32.9654C123.896 33.2431 124.261 33.4326 124.662 33.5338C125.072 33.6428 125.488 33.6703 125.909 33.6165C126.338 33.5534 126.747 33.4111 127.136 33.1897C127.543 32.9667 127.904 32.6668 128.22 32.2899C128.529 31.9222 128.754 31.5235 128.895 31.0938C129.053 30.6626 129.122 30.2349 129.102 29.8108C129.09 29.3775 128.994 28.9685 128.816 28.5837C128.647 28.2067 128.397 27.8794 128.066 27.6017C127.735 27.324 127.361 27.1353 126.943 27.0355C126.542 26.9343 126.127 26.9152 125.699 26.9783C125.287 27.0399 124.877 27.1821 124.471 27.405C124.082 27.6265 123.729 27.9257 123.412 28.3026Z" fill="#182F43"/>
<path d="M138.77 33.896C137.976 33.3448 137.181 33.0571 136.383 33.033C135.585 33.009 134.713 33.2943 133.768 33.8891C134.424 33.8773 135.024 33.9933 135.568 34.2371C136.12 34.473 136.601 34.8271 137.009 35.2992C137.401 35.7531 137.671 36.2492 137.819 36.7875C137.984 37.327 138.029 37.8748 137.955 38.4308C137.88 38.9869 137.692 39.5305 137.39 40.0614C137.104 40.5937 136.712 41.0756 136.212 41.5071C135.704 41.9465 135.162 42.2644 134.586 42.4607C134.027 42.6582 133.468 42.7366 132.91 42.6959C132.351 42.6553 131.801 42.4961 131.26 42.2185C130.736 41.9421 130.25 41.5451 129.803 41.0276C128.861 39.9381 128.528 38.7823 128.804 37.5603C129.081 36.3383 129.95 35.0956 131.411 33.8323C132.891 32.5533 134.316 31.8531 135.686 31.7317C137.073 31.6115 138.418 32.0115 139.721 32.9316L142.208 34.7079L141.415 35.7732L138.77 33.896ZM131.504 35.8937C131.14 36.2075 130.852 36.5523 130.637 36.9281C130.423 37.3038 130.284 37.6851 130.222 38.0719C130.168 38.4678 130.191 38.8523 130.291 39.2255C130.399 39.6077 130.591 39.9577 130.866 40.2755C131.132 40.5842 131.438 40.8192 131.784 40.9805C132.13 41.1418 132.485 41.223 132.851 41.2241C133.234 41.2264 133.618 41.148 134.004 40.989C134.398 40.839 134.772 40.611 135.126 40.305C135.489 39.9911 135.773 39.6502 135.979 39.2823C136.193 38.9066 136.327 38.5293 136.38 38.1503C136.433 37.7713 136.401 37.3946 136.284 37.0202C136.166 36.6458 135.966 36.2952 135.684 35.9684C135.409 35.6506 135.099 35.4111 134.754 35.2498C134.425 35.0897 134.078 35.0092 133.712 35.008C133.346 35.0069 132.971 35.0774 132.586 35.2196C132.219 35.363 131.858 35.5877 131.504 35.8937Z" fill="#182F43"/>
<path d="M134.216 43.8827C134.45 44.1891 134.695 44.4108 134.951 44.548C135.223 44.689 135.566 44.7288 135.981 44.6675C136.412 44.6099 136.955 44.4474 137.608 44.1798C138.272 43.9058 139.114 43.5204 140.134 43.0236L142.514 41.8733L145.618 46.8319L137.654 51.8175L136.832 50.5054L143.744 46.1788L142.235 43.7681L140.368 44.6185C139.241 45.1256 138.291 45.5079 137.518 45.7654C136.761 46.0267 136.111 46.1645 135.568 46.1789C135.035 46.1869 134.585 46.0791 134.219 45.8555C133.852 45.6319 133.507 45.2957 133.184 44.8469L134.216 43.8827Z" fill="#182F43"/>
<path d="M141.17 53.8918L149.773 55.7451L150.28 56.9184L141.654 60.6431L141.04 59.2219L147.485 56.4391L139.049 54.6114L138.507 53.3555L147.133 49.6307L147.747 51.0519L141.17 53.8918Z" fill="#182F43"/>
<path d="M151.771 61.1844L148.228 64.4029L148.563 65.8587L152.632 64.9204L152.988 66.4639L148.919 67.4022L149.255 68.858L153.85 70.1999L154.242 71.9012L149.172 70.2625L145.147 74.2755L144.751 72.5566L148.158 69.3881L147.762 67.6692L143.833 68.5751L143.477 67.0316L147.406 66.1257L147.009 64.4068L142.559 63.0501L142.162 61.3312L147.534 63.1589L151.375 59.4656L151.771 61.1844Z" fill="#182F43"/>
<path d="M145.037 79.1071C145.004 78.3999 145.1 77.7467 145.324 77.1477C145.561 76.5481 145.891 76.0283 146.315 75.5882C146.739 75.148 147.239 74.7945 147.816 74.5276C148.404 74.272 149.028 74.129 149.688 74.0984C150.347 74.0679 150.976 74.1529 151.573 74.3534C152.172 74.5659 152.703 74.8717 153.166 75.2707C153.629 75.6817 154 76.175 154.279 76.7507C154.57 77.3259 154.732 77.9671 154.765 78.6743C154.798 79.3815 154.696 80.029 154.459 80.6166C154.222 81.2162 153.891 81.73 153.467 82.1581C153.054 82.5857 152.559 82.921 151.982 83.1639C151.417 83.4184 150.823 83.56 150.2 83.5889C150.068 83.595 149.948 83.5946 149.839 83.5876C149.731 83.5926 149.647 83.5905 149.587 83.5813L149.226 75.7956C148.76 75.8533 148.339 75.9809 147.964 76.1784C147.589 76.376 147.27 76.6251 147.008 76.9255C146.745 77.226 146.545 77.5596 146.405 77.9265C146.267 78.3053 146.207 78.6985 146.226 79.1061C146.239 79.3937 146.288 79.6738 146.373 79.9461C146.469 80.218 146.589 80.4707 146.732 80.7043C146.875 80.938 147.047 81.1402 147.247 81.3111C147.448 81.4941 147.67 81.6279 147.914 81.7127L147.6 83.0967C147.245 82.957 146.917 82.7559 146.617 82.4936C146.317 82.2432 146.051 81.9432 145.818 81.5936C145.599 81.2554 145.419 80.8733 145.279 80.4473C145.139 80.0213 145.058 79.5746 145.037 79.1071ZM150.688 82.0707C151.13 82.0142 151.532 81.8814 151.895 81.6724C152.27 81.4748 152.583 81.2261 152.833 80.9261C153.084 80.6382 153.273 80.3051 153.399 79.9269C153.538 79.548 153.598 79.1488 153.578 78.7293C153.559 78.3097 153.463 77.9178 153.289 77.5534C153.128 77.1885 152.903 76.8685 152.614 76.5936C152.338 76.3301 152.01 76.1171 151.63 75.9545C151.25 75.8039 150.838 75.7209 150.393 75.7055L150.688 82.0707Z" fill="#182F43"/>
<path d="M149.686 90.0686C150.335 90.1873 150.928 90.4116 151.466 90.7417C152.003 91.0717 152.447 91.4821 152.796 91.973C153.157 92.466 153.41 93.0184 153.554 93.6304C153.708 94.2563 153.721 94.9233 153.591 95.6316C153.423 96.5523 153.072 97.3055 152.538 97.891C152.013 98.4904 151.377 98.8988 150.63 99.1159L150.43 97.5057C150.91 97.3495 151.307 97.0805 151.621 96.6987C151.947 96.3191 152.157 95.8696 152.252 95.3502C152.33 94.9252 152.314 94.5077 152.206 94.0976C152.11 93.6896 151.933 93.3218 151.676 92.9942C151.419 92.6666 151.099 92.3824 150.716 92.1416C150.331 91.9126 149.89 91.7528 149.395 91.6622C148.911 91.5737 148.441 91.5732 147.986 91.6608C147.531 91.7484 147.119 91.8988 146.751 92.112C146.392 92.3392 146.09 92.6196 145.847 92.9531C145.6 93.2985 145.438 93.6837 145.361 94.1086C145.311 94.3801 145.298 94.6522 145.321 94.9248C145.354 95.2114 145.416 95.4728 145.507 95.7091C145.596 95.9571 145.708 96.1788 145.843 96.3743C145.99 96.5719 146.157 96.7245 146.345 96.832L145.606 98.2706C145.29 98.0664 145.014 97.8085 144.778 97.497C144.54 97.1973 144.352 96.858 144.214 96.479C144.076 96.1 143.986 95.6872 143.946 95.2407C143.904 94.8059 143.924 94.3584 144.009 93.898C144.136 93.2015 144.382 92.5879 144.748 92.0569C145.113 91.526 145.552 91.0939 146.064 90.7606C146.577 90.4273 147.144 90.1954 147.765 90.0651C148.396 89.9487 149.037 89.9499 149.686 90.0686Z" fill="#182F43"/>
<path d="M146.265 106.774L144.381 111.137L147.967 112.685L147.354 114.106L138.727 110.381L139.341 108.96L143.175 110.616L145.059 106.253L141.225 104.598L141.839 103.176L150.465 106.901L149.851 108.322L146.265 106.774Z" fill="#182F43"/>
<path d="M136.332 114.201C136.567 113.824 136.848 113.512 137.174 113.262C137.51 113.02 137.866 112.846 138.243 112.742C138.613 112.649 138.99 112.623 139.374 112.665C139.762 112.724 140.134 112.865 140.49 113.087C140.856 113.317 141.136 113.605 141.329 113.952C141.532 114.306 141.648 114.697 141.677 115.126C141.7 115.565 141.645 116.026 141.512 116.509C141.373 117.003 141.151 117.493 140.845 117.982C140.603 118.368 140.322 118.738 140.003 119.09C139.683 119.442 139.367 119.732 139.054 119.961L139.695 120.362C140.346 120.77 140.969 120.905 141.564 120.768C142.17 120.637 142.683 120.236 143.103 119.565C143.606 118.762 143.824 117.723 143.758 116.45L144.904 116.552C144.953 118.012 144.653 119.261 144.003 120.298C143.347 121.346 142.558 121.985 141.636 122.214C140.707 122.454 139.734 122.255 138.717 121.619L135.467 119.584C135.152 119.387 134.9 119.428 134.712 119.706L133.552 118.98C133.621 118.825 133.679 118.698 133.726 118.6C133.773 118.503 133.829 118.403 133.892 118.301C134.058 118.037 134.268 117.871 134.522 117.804C134.78 117.753 135.031 117.782 135.274 117.892L135.857 118.215C135.602 117.559 135.519 116.878 135.609 116.169C135.702 115.477 135.943 114.821 136.332 114.201ZM137.119 115.182C136.82 115.66 136.629 116.157 136.547 116.672C136.469 117.203 136.511 117.668 136.672 118.066C136.745 118.381 136.882 118.601 137.086 118.729L138.261 119.464C138.922 118.972 139.473 118.376 139.912 117.674C140.333 117.003 140.534 116.364 140.517 115.759C140.493 115.163 140.252 114.722 139.794 114.436C139.571 114.296 139.337 114.206 139.093 114.166C138.842 114.137 138.598 114.154 138.36 114.217C138.116 114.291 137.886 114.409 137.671 114.572C137.456 114.734 137.272 114.938 137.119 115.182Z" fill="#182F43"/>
<path d="M132.903 120.075L139.876 126.372L138.839 127.521L132.881 122.14L130.854 124.385L136.812 129.765L135.775 130.914L129.817 125.534L127.778 127.791L133.736 133.172L132.698 134.321L125.725 128.023L132.903 120.075Z" fill="#182F43"/>
<path d="M124.366 132.051L124.703 140.845L123.692 141.627L117.945 134.193L119.17 133.246L123.463 138.8L123.143 130.175L124.225 129.338L129.972 136.772L128.747 137.718L124.366 132.051Z" fill="#182F43"/>
<path d="M113.439 140.823L113.377 147.579L111.989 148.305L107.634 139.979L109.006 139.262L112.076 145.131L112.156 139.341L112.953 138.924L117.77 142.153L114.7 136.283L116.072 135.566L120.427 143.892L119.023 144.626L113.439 140.823Z" fill="#182F43"/>
<path d="M104.955 143.379L102.273 151.761L101.056 152.151L98.1891 143.203L99.6633 142.731L101.805 149.416L104.446 141.199L105.749 140.781L108.615 149.729L107.141 150.202L104.955 143.379Z" fill="#182F43"/>
<path d="M84.0759 145.175L85.6193 145.056L86.238 153.06L90.7067 152.715L90.0879 144.711L91.6313 144.591L92.3555 153.959L84.8 154.543L84.0759 145.175Z" fill="#182F43"/>
<path d="M76.1783 144.651C76.955 144.723 77.6243 144.978 78.1862 145.416C78.7362 145.853 79.1573 146.38 79.4495 146.997L79.9752 141.334L81.5524 141.48L80.3297 154.654L78.9317 154.524L79.0947 152.767C78.6711 153.307 78.1504 153.722 77.5328 154.014C76.9021 154.317 76.2283 154.436 75.5114 154.369C74.8661 154.309 74.2869 154.123 73.7736 153.81C73.2603 153.497 72.8276 153.096 72.4754 152.605C72.1221 152.126 71.8651 151.584 71.7044 150.979C71.5317 150.372 71.4748 149.752 71.5335 149.119C71.5956 148.45 71.756 147.826 72.0146 147.247C72.272 146.681 72.6065 146.194 73.0179 145.786C73.4283 145.39 73.9025 145.085 74.4407 144.869C74.9778 144.666 75.557 144.593 76.1783 144.651ZM76.5358 146.058C76.0698 146.015 75.6427 146.072 75.2546 146.228C74.8534 146.396 74.5064 146.629 74.2136 146.927C73.9077 147.236 73.6637 147.593 73.4815 147.998C73.2993 148.403 73.1876 148.827 73.1466 149.269C73.1034 149.735 73.146 150.185 73.2744 150.618C73.4018 151.064 73.5944 151.455 73.8524 151.793C74.1092 152.142 74.4264 152.424 74.8041 152.64C75.1687 152.867 75.578 153.001 76.0321 153.043C76.3189 153.07 76.6231 153.038 76.9449 152.947C77.2536 152.868 77.5542 152.745 77.8468 152.579C78.1263 152.424 78.3798 152.225 78.6073 151.981C78.8218 151.748 78.9722 151.491 79.0586 151.209L79.3064 148.539C79.2038 148.216 79.0637 147.908 78.8861 147.614C78.7074 147.332 78.496 147.078 78.252 146.85C78.0068 146.635 77.7405 146.453 77.4528 146.306C77.1641 146.171 76.8584 146.088 76.5358 146.058Z" fill="#182F43"/>
<path d="M66.2211 142.872C66.9052 143.054 67.4972 143.349 67.9972 143.756C68.4857 144.159 68.8755 144.63 69.1668 145.167C69.4465 145.701 69.6207 146.282 69.6893 146.909C69.758 147.536 69.7087 148.162 69.5416 148.788C69.3714 149.426 69.1003 149.999 68.7284 150.509C68.3449 151.015 67.8987 151.43 67.39 151.754C66.8697 152.074 66.2973 152.288 65.6727 152.395C65.0365 152.498 64.3822 152.46 63.7097 152.28C63.0373 152.101 62.451 151.808 61.951 151.401C61.451 150.994 61.0611 150.524 60.7814 149.99C60.4901 149.452 60.3102 148.87 60.2415 148.243C60.1613 147.613 60.2063 146.98 60.3765 146.342C60.5436 145.716 60.8131 145.148 61.1851 144.639C61.557 144.13 62.0031 143.715 62.5234 143.394C63.0437 143.073 63.6219 142.861 64.2581 142.758C64.8827 142.651 65.5371 142.689 66.2211 142.872ZM67.981 148.353C68.1079 147.878 68.1502 147.417 68.1078 146.971C68.0538 146.522 67.9337 146.111 67.7475 145.738C67.5497 145.363 67.2943 145.04 66.9813 144.77C66.6567 144.497 66.2857 144.305 65.8683 144.194C65.4509 144.082 65.0393 144.065 64.6335 144.143C64.216 144.218 63.828 144.369 63.4692 144.596C63.1074 144.835 62.797 145.137 62.538 145.503C62.2642 145.877 62.0639 146.302 61.937 146.777C61.8133 147.241 61.7784 147.697 61.8324 148.146C61.8717 148.604 61.9902 149.021 62.188 149.396C62.3827 149.784 62.6424 150.114 62.9669 150.387C63.2799 150.657 63.6451 150.847 64.0625 150.959C64.4799 151.07 64.8989 151.083 65.3194 150.996C65.7252 150.918 66.1091 150.76 66.4709 150.521C66.818 150.291 67.1284 149.989 67.4022 149.615C67.6612 149.249 67.8542 148.828 67.981 148.353Z" fill="#182F43"/>
<path d="M57.0382 139.665C57.685 139.953 58.2257 140.332 58.6604 140.801C59.0903 141.282 59.4067 141.81 59.6099 142.386C59.813 142.963 59.9047 143.568 59.8848 144.203C59.8491 144.844 59.6971 145.466 59.4287 146.069C59.1603 146.672 58.8024 147.196 58.355 147.64C57.8966 148.08 57.3853 148.417 56.821 148.652C56.2458 148.882 55.6383 148.992 54.9987 148.983C54.3541 148.985 53.7084 148.842 53.0616 148.554C52.4148 148.267 51.882 147.885 51.4631 147.409C51.0333 146.929 50.7223 146.403 50.5301 145.832C50.333 145.271 50.2554 144.678 50.2972 144.053C50.3231 143.434 50.463 142.84 50.7167 142.27C50.7704 142.149 50.8247 142.042 50.8796 141.948C50.9235 141.85 50.9631 141.775 50.9985 141.725L58.1189 144.895C58.2764 144.453 58.3509 144.02 58.3427 143.596C58.3344 143.172 58.2548 142.775 58.1039 142.406C57.953 142.036 57.7449 141.707 57.4794 141.418C57.203 141.125 56.8784 140.895 56.5057 140.729C56.2426 140.612 55.9703 140.53 55.6889 140.483C55.4026 140.448 55.123 140.442 54.85 140.465C54.5771 140.488 54.3194 140.55 54.0768 140.652C53.8234 140.75 53.604 140.889 53.4187 141.069L52.3226 140.167C52.6066 139.913 52.9333 139.71 53.3026 139.559C53.6609 139.403 54.0484 139.3 54.4651 139.249C54.866 139.204 55.2882 139.215 55.7316 139.281C56.1751 139.347 56.6106 139.475 57.0382 139.665ZM51.8547 143.387C51.707 143.807 51.6453 144.226 51.6694 144.644C51.6777 145.068 51.7597 145.46 51.9155 145.818C52.0602 146.171 52.2733 146.489 52.5546 146.772C52.831 147.066 53.161 147.298 53.5447 147.469C53.9285 147.64 54.3219 147.73 54.7252 147.738C55.1236 147.758 55.5105 147.701 55.8859 147.566C56.2454 147.437 56.583 147.239 56.8987 146.972C57.2035 146.701 57.4626 146.369 57.676 145.978L51.8547 143.387Z" fill="#182F43"/>
<path d="M41.4924 141.985L40.0041 141.039L45.5717 139.162L44.8355 132.976L46.3086 133.913L46.8142 139.12L47.7406 139.71L49.9533 136.232L51.2594 137.063L46.2154 144.991L44.9094 144.16L47.1028 140.712L46.3283 140.219L41.4924 141.985Z" fill="#182F43"/>
<path d="M41.6838 130.297L42.8732 131.288L37.7352 137.456L40.1556 139.472L39.2801 140.523L33.2499 135.5L34.1255 134.449L36.5458 136.465L41.6838 130.297Z" fill="#182F43"/>
<path d="M36.7485 125.418C37.0472 125.747 37.2726 126.102 37.4245 126.482C37.5675 126.872 37.6382 127.261 37.6368 127.652C37.6272 128.034 37.5502 128.404 37.4059 128.762C37.2446 129.12 37.0086 129.44 36.6979 129.723C36.3783 130.014 36.0252 130.205 35.6386 130.297C35.2431 130.397 34.8351 130.404 34.4145 130.316C33.9858 130.219 33.5567 130.042 33.1272 129.783C32.6896 129.516 32.277 129.17 31.8894 128.744C31.5826 128.406 31.3027 128.036 31.0499 127.634C30.7971 127.231 30.6029 126.848 30.4671 126.485L29.9079 126.994C29.3398 127.51 29.0413 128.074 29.0125 128.684C28.9748 129.303 29.2224 129.905 29.7553 130.49C30.3933 131.192 31.3343 131.682 32.5783 131.962L32.1706 133.038C30.7514 132.691 29.63 132.065 28.8063 131.159C27.9746 130.245 27.5727 129.313 27.6006 128.363C27.6204 127.404 28.0742 126.52 28.9618 125.713L31.7979 123.133C32.0731 122.883 32.102 122.629 31.8848 122.372L32.8967 121.452C33.0275 121.56 33.1337 121.65 33.2153 121.722C33.2968 121.794 33.378 121.874 33.4587 121.963C33.6687 122.193 33.7717 122.44 33.7677 122.704C33.7468 122.966 33.6508 123.199 33.4798 123.404L33.0114 123.878C33.7112 123.809 34.3901 123.914 35.0481 124.191C35.6891 124.468 36.2559 124.877 36.7485 125.418ZM35.5911 125.912C35.2116 125.494 34.7848 125.177 34.3109 124.959C33.8201 124.741 33.3612 124.655 32.9342 124.703C32.6121 124.688 32.3623 124.761 32.1847 124.922L31.1595 125.855C31.4544 126.625 31.8804 127.316 32.4376 127.929C32.9706 128.515 33.5309 128.881 34.1186 129.028C34.6982 129.165 35.1878 129.053 35.5872 128.689C35.7825 128.512 35.9322 128.311 36.0362 128.086C36.1322 127.853 36.1817 127.613 36.1849 127.367C36.18 127.112 36.1282 126.859 36.0296 126.608C35.9311 126.357 35.7849 126.125 35.5911 125.912Z" fill="#182F43"/>
<path d="M26.5504 118.297L19.8153 118.832L18.9698 117.514L26.8786 112.441L27.7144 113.744L22.1388 117.32L27.9135 116.888L28.3994 117.646L25.6083 122.729L31.1838 119.153L32.0196 120.456L24.1108 125.529L23.2556 124.196L26.5504 118.297Z" fill="#182F43"/>
<path d="M23.1117 109.739L14.5294 107.79L14.036 106.611L22.7034 102.983L23.301 104.411L16.8254 107.121L25.2401 109.043L25.7683 110.305L17.1009 113.933L16.5032 112.505L23.1117 109.739Z" fill="#182F43"/>
</svg>
