<svg width="195" height="195" viewBox="0 0 195 195" fill="none" xmlns="http://www.w3.org/2000/svg">
<path d="M173.678 103.507C173.751 102.61 173.997 101.805 174.416 101.092C174.846 100.393 175.381 99.8044 176.022 99.3266C176.675 98.8499 177.401 98.4995 178.202 98.2756C179.003 98.0516 179.81 97.9727 180.623 98.0387C181.472 98.1076 182.274 98.3232 183.027 98.6853C183.779 99.0594 184.432 99.5398 184.987 100.127C185.541 100.713 185.962 101.386 186.25 102.143C186.548 102.914 186.663 103.73 186.593 104.591C186.52 105.488 186.262 106.286 185.821 106.985C185.391 107.684 184.849 108.272 184.196 108.749C183.544 109.226 182.817 109.576 182.016 109.8C181.227 110.025 180.432 110.105 179.631 110.04C178.782 109.971 177.981 109.749 177.229 109.375C176.476 109.013 175.822 108.539 175.268 107.952C174.724 107.378 174.303 106.706 174.005 105.935C173.717 105.177 173.608 104.368 173.678 103.507ZM180.491 99.6713C179.845 99.6189 179.209 99.6696 178.582 99.8234C177.967 99.9901 177.41 100.246 176.913 100.591C176.415 100.936 176.007 101.366 175.688 101.882C175.369 102.398 175.183 102.985 175.13 103.643C175.075 104.324 175.169 104.946 175.412 105.508C175.667 106.07 176.013 106.556 176.449 106.964C176.897 107.386 177.412 107.717 177.994 107.956C178.576 108.208 179.171 108.359 179.781 108.409C180.427 108.461 181.058 108.404 181.674 108.237C182.3 108.083 182.857 107.827 183.343 107.47C183.841 107.125 184.249 106.694 184.568 106.179C184.885 105.675 185.071 105.1 185.123 104.454C185.178 103.772 185.084 103.15 184.841 102.589C184.598 102.027 184.258 101.536 183.823 101.116C183.386 100.707 182.877 100.377 182.296 100.125C181.714 99.873 181.113 99.7218 180.491 99.6713Z" fill="#182F43"/>
<path d="M172.94 116.875C172.753 117.595 172.738 118.23 172.893 118.778C173.049 119.327 173.311 119.797 173.681 120.19C174.058 120.598 174.517 120.934 175.056 121.197C175.607 121.464 176.179 121.674 176.771 121.827L183.027 123.446L182.621 125.014L176.365 123.395C175.529 123.179 174.759 122.874 174.055 122.481C173.359 122.103 172.781 121.631 172.32 121.065C171.859 120.5 171.547 119.837 171.385 119.076C171.231 118.329 171.277 117.48 171.524 116.527C171.779 115.54 172.168 114.754 172.691 114.171C173.214 113.587 173.814 113.16 174.492 112.889C175.178 112.632 175.917 112.508 176.708 112.514C177.509 112.535 178.304 112.648 179.094 112.853L185.35 114.472L184.944 116.04L178.688 114.421C178.072 114.262 177.459 114.165 176.848 114.131C176.246 114.111 175.688 114.184 175.174 114.348C174.657 114.524 174.2 114.809 173.8 115.201C173.41 115.608 173.123 116.166 172.94 116.875Z" fill="#182F43"/>
<path d="M169.426 123.997L181.14 129.107L178.952 134.122C178.726 134.639 178.41 135.064 178.003 135.397C177.602 135.746 177.153 135.995 176.655 136.145C176.164 136.311 175.655 136.383 175.127 136.362C174.61 136.346 174.121 136.237 173.659 136.036C173.252 135.858 172.883 135.625 172.55 135.336C172.224 135.063 171.955 134.749 171.743 134.395C171.527 134.052 171.375 133.678 171.29 133.274C171.199 132.881 171.186 132.476 171.25 132.059L165.525 132.939L166.259 131.256L171.632 130.419L172.985 127.317L168.778 125.482L169.426 123.997ZM174.305 127.893L172.758 131.44C172.623 131.748 172.569 132.052 172.596 132.351C172.617 132.662 172.7 132.953 172.843 133.225C172.997 133.502 173.201 133.755 173.455 133.983C173.709 134.212 173.995 134.395 174.314 134.535C174.644 134.679 174.978 134.752 175.317 134.756C175.662 134.776 175.988 134.734 176.294 134.632C176.607 134.546 176.881 134.397 177.117 134.186C177.36 133.991 177.543 133.75 177.668 133.464L179.172 130.016L174.305 127.893Z" fill="#182F43"/>
<path d="M162.438 138.143L172.908 145.471L169.853 149.836C169.53 150.298 169.136 150.652 168.671 150.898C168.209 151.161 167.719 151.316 167.202 151.364C166.688 151.429 166.174 151.399 165.661 151.275C165.158 151.157 164.7 150.953 164.287 150.664C163.854 150.361 163.488 149.995 163.188 149.566C162.888 149.136 162.677 148.674 162.555 148.178C162.426 147.693 162.403 147.193 162.484 146.679C162.559 146.174 162.758 145.691 163.081 145.229L165.269 142.103L161.509 139.471L162.438 138.143ZM166.449 142.928L164.313 145.981C164.12 146.256 164.002 146.54 163.959 146.832C163.919 147.14 163.942 147.442 164.028 147.737C164.125 148.039 164.275 148.327 164.478 148.601C164.682 148.875 164.931 149.116 165.226 149.322C165.531 149.536 165.854 149.681 166.195 149.759C166.529 149.846 166.856 149.87 167.177 149.831C167.49 149.801 167.784 149.706 168.057 149.546C168.324 149.396 168.546 149.193 168.725 148.937L170.8 145.973L166.449 142.928Z" fill="#182F43"/>
<path d="M156.482 146.412L165.841 155.114L162.115 159.122C161.731 159.535 161.291 159.831 160.797 160.01C160.303 160.206 159.797 160.293 159.278 160.269C158.76 160.262 158.255 160.162 157.764 159.967C157.282 159.781 156.856 159.516 156.487 159.173C156.162 158.871 155.89 158.528 155.673 158.146C155.456 157.78 155.306 157.395 155.223 156.99C155.132 156.595 155.114 156.192 155.167 155.782C155.211 155.382 155.333 154.995 155.532 154.623L149.838 153.556L151.089 152.212L156.436 153.202L158.74 150.724L155.379 147.598L156.482 146.412ZM159.794 151.704L157.159 154.538C156.93 154.784 156.779 155.053 156.705 155.344C156.622 155.645 156.603 155.947 156.648 156.251C156.702 156.563 156.811 156.869 156.975 157.169C157.138 157.468 157.348 157.737 157.602 157.974C157.866 158.219 158.157 158.399 158.475 158.515C158.794 158.648 159.115 158.717 159.438 158.722C159.762 158.744 160.07 158.695 160.363 158.574C160.656 158.47 160.909 158.304 161.121 158.075L163.683 155.32L159.794 151.704Z" fill="#182F43"/>
<path d="M144.708 157.586C145.416 157.031 146.174 156.665 146.981 156.489C147.787 156.33 148.582 156.323 149.368 156.469C150.161 156.625 150.912 156.92 151.62 157.356C152.328 157.792 152.934 158.331 153.438 158.973C153.964 159.643 154.35 160.377 154.595 161.176C154.831 161.982 154.922 162.788 154.868 163.594C154.813 164.399 154.606 165.165 154.245 165.89C153.882 166.633 153.36 167.271 152.681 167.804C151.973 168.36 151.212 168.712 150.399 168.862C149.594 169.021 148.794 169.023 148.001 168.868C147.208 168.712 146.457 168.417 145.749 167.981C145.049 167.555 144.45 167.025 143.954 166.393C143.428 165.722 143.047 164.984 142.811 164.178C142.565 163.379 142.469 162.577 142.524 161.772C142.576 160.983 142.784 160.218 143.147 159.475C143.508 158.749 144.028 158.12 144.708 157.586ZM152.149 159.984C151.749 159.474 151.28 159.041 150.742 158.686C150.202 158.347 149.636 158.112 149.045 157.981C148.454 157.85 147.861 157.843 147.266 157.959C146.67 158.075 146.113 158.337 145.594 158.745C145.056 159.167 144.663 159.658 144.416 160.218C144.177 160.787 144.055 161.371 144.051 161.969C144.046 162.583 144.152 163.186 144.372 163.776C144.582 164.374 144.876 164.914 145.253 165.396C145.653 165.905 146.124 166.33 146.664 166.668C147.202 167.024 147.768 167.259 148.361 167.373C148.952 167.504 149.545 167.511 150.14 167.395C150.726 167.286 151.274 167.032 151.784 166.632C152.322 166.21 152.714 165.718 152.961 165.159C153.208 164.599 153.338 164.016 153.351 163.411C153.355 162.813 153.252 162.215 153.042 161.617C152.832 161.019 152.535 160.475 152.149 159.984Z" fill="#182F43"/>
<path d="M139.992 163.509C139.7 163.484 139.344 163.517 138.925 163.608C138.506 163.699 138.074 163.874 137.627 164.133C137.098 164.44 136.732 164.778 136.529 165.145C136.327 165.513 136.253 165.924 136.308 166.377C136.359 166.847 136.515 167.367 136.777 167.937C137.038 168.506 137.374 169.144 137.784 169.85L141.048 175.469L139.647 176.282L136.383 170.663C135.895 169.823 135.49 169.031 135.17 168.288C134.844 167.56 134.675 166.875 134.662 166.23C134.638 165.592 134.797 164.993 135.138 164.434C135.469 163.881 136.055 163.36 136.895 162.872C137.829 162.33 138.761 162.094 139.69 162.165L139.992 163.509Z" fill="#182F43"/>
<path d="M123.624 171.118L123.058 169.794L131.036 166.384L136.059 178.136L128.23 181.482L127.664 180.158L134.003 177.448L132.376 173.641L126.864 175.997L126.334 174.756L131.846 172.4L130.112 168.345L123.624 171.118Z" fill="#182F43"/>
<path d="M124.116 176.323C124.312 177.066 124.378 177.836 124.315 178.635C124.243 179.448 124.034 180.21 123.687 180.921C123.332 181.647 122.836 182.287 122.2 182.839C121.563 183.39 120.781 183.788 119.852 184.033C118.75 184.322 117.738 184.321 116.818 184.03C115.897 183.738 115.141 183.242 114.547 182.542L115.573 181.417C115.862 181.762 116.175 182.034 116.512 182.23C116.838 182.43 117.179 182.57 117.535 182.65C117.879 182.733 118.223 182.767 118.566 182.751C118.91 182.736 119.238 182.687 119.551 182.604C120.236 182.424 120.807 182.119 121.265 181.688C121.714 181.273 122.057 180.785 122.295 180.227C122.536 179.679 122.673 179.091 122.706 178.462C122.73 177.848 122.666 177.25 122.514 176.67C122.343 176.02 122.075 175.427 121.711 174.89C121.338 174.367 120.9 173.93 120.398 173.578C119.896 173.226 119.349 172.985 118.757 172.856C118.164 172.726 117.561 172.742 116.946 172.904C116.621 172.989 116.3 173.117 115.985 173.287C115.658 173.459 115.361 173.674 115.094 173.93C114.829 174.198 114.598 174.501 114.402 174.838C114.196 175.19 114.057 175.58 113.984 176.009L112.49 175.638C112.566 175.122 112.736 174.637 113.001 174.183C113.258 173.743 113.58 173.342 113.969 172.979C114.346 172.619 114.767 172.31 115.232 172.051C115.698 171.793 116.169 171.601 116.644 171.475C117.492 171.253 118.318 171.234 119.124 171.419C119.929 171.605 120.671 171.925 121.349 172.379C122.018 172.848 122.597 173.422 123.085 174.1C123.565 174.793 123.909 175.534 124.116 176.323Z" fill="#182F43"/>
<path d="M101.974 185.397L106.357 184.905L105.092 173.636L106.702 173.455L107.967 184.724L112.349 184.232L112.51 185.663L102.135 186.828L101.974 185.397Z" fill="#182F43"/>
<path d="M91.654 183.986C91.7941 184.157 91.9823 184.323 92.2186 184.485C92.455 184.646 92.7217 184.791 93.0188 184.918C93.3157 185.056 93.6432 185.166 94.0015 185.246C94.3474 185.338 94.7124 185.389 95.0963 185.398C96.092 185.421 96.8281 185.252 97.3046 184.891C97.7691 184.529 98.0088 184.025 98.0238 183.377C98.0319 183.029 97.9726 182.74 97.8459 182.509C97.7192 182.278 97.5199 182.075 97.2478 181.901C96.9635 181.738 96.6128 181.592 96.1957 181.462C95.7786 181.332 95.2836 181.195 94.7108 181.05C94.0544 180.89 93.4644 180.709 92.941 180.505C92.4053 180.312 91.9547 180.074 91.5892 179.789C91.2117 179.504 90.9316 179.162 90.7488 178.761C90.554 178.361 90.4633 177.872 90.4766 177.297C90.4908 176.685 90.6231 176.154 90.8736 175.703C91.1238 175.265 91.4624 174.901 91.8892 174.611C92.3038 174.332 92.7946 174.127 93.3618 173.997C93.9287 173.878 94.5421 173.826 95.2019 173.841C96.1856 173.864 97.1179 174.036 97.9987 174.356C98.8673 174.688 99.6546 175.157 100.361 175.761L99.5554 177.111C99.3681 176.902 99.1269 176.693 98.8317 176.482C98.5245 176.271 98.1809 176.077 97.8009 175.9C97.4086 175.735 96.9918 175.593 96.5504 175.475C96.0968 175.368 95.624 175.309 95.1322 175.298C94.2204 175.277 93.5088 175.422 92.9975 175.735C92.4861 176.047 92.2229 176.527 92.2079 177.175C92.1996 177.535 92.2766 177.836 92.439 178.08C92.5891 178.336 92.8181 178.557 93.1258 178.744C93.4336 178.932 93.8198 179.097 94.2847 179.239C94.7372 179.394 95.2557 179.55 95.8402 179.707C96.4844 179.878 97.0504 180.06 97.5381 180.251C98.0258 180.442 98.4347 180.668 98.7648 180.928C99.0828 181.187 99.3217 181.499 99.4813 181.862C99.6409 182.226 99.7149 182.66 99.7032 183.164C99.6891 183.776 99.5626 184.313 99.3238 184.776C99.085 185.238 98.7579 185.627 98.3425 185.941C97.9272 186.256 97.4357 186.484 96.8683 186.627C96.3005 186.782 95.6867 186.852 95.0269 186.837C94.1632 186.817 93.3864 186.667 92.6967 186.386C92.007 186.106 91.3974 185.738 90.8678 185.282L91.654 183.986Z" fill="#182F43"/>
<path d="M84.8779 170.596L81.9482 186.621L80.6025 186.375L83.5322 170.35L84.8779 170.596Z" fill="#182F43"/>
<path d="M70.8323 169.129C71.675 169.446 72.3813 169.903 72.9515 170.501C73.5061 171.107 73.9252 171.783 74.2088 172.53C74.4881 173.289 74.6256 174.084 74.6212 174.915C74.6169 175.747 74.4713 176.545 74.1847 177.309C73.8854 178.106 73.4583 178.818 72.9034 179.442C72.3372 180.063 71.696 180.559 70.9796 180.931C70.2632 181.304 69.5013 181.524 68.6937 181.593C67.8706 181.668 67.0546 181.554 66.2457 181.251C65.4031 180.935 64.7065 180.468 64.1561 179.851C63.6014 179.246 63.1844 178.564 62.9051 177.806C62.6257 177.047 62.4883 176.252 62.4926 175.421C62.4928 174.6 62.6341 173.814 62.9165 173.061C63.2159 172.264 63.6486 171.554 64.2147 170.934C64.7696 170.309 65.4052 169.81 66.1216 169.438C66.8225 169.073 67.5845 168.853 68.4076 168.777C69.2151 168.709 70.0234 168.826 70.8323 169.129ZM72.6511 176.733C72.8787 176.126 73.0045 175.501 73.0286 174.856C73.0371 174.218 72.9438 173.613 72.7487 173.04C72.5536 172.467 72.2517 171.956 71.8431 171.508C71.4345 171.06 70.9212 170.72 70.3033 170.488C69.6629 170.248 69.0393 170.168 68.4325 170.248C67.8216 170.339 67.2597 170.538 66.747 170.846C66.2189 171.16 65.7595 171.565 65.369 172.059C64.9672 172.549 64.6588 173.081 64.4438 173.654C64.2162 174.26 64.0981 174.882 64.0895 175.52C64.0655 176.165 64.1588 176.77 64.3694 177.336C64.5645 177.909 64.8663 178.42 65.275 178.868C65.6723 179.312 66.1744 179.648 66.7811 179.875C67.4215 180.115 68.0451 180.196 68.6518 180.116C69.2586 180.036 69.8239 179.844 70.3479 179.541C70.8606 179.233 71.3178 178.835 71.7196 178.345C72.1214 177.854 72.4319 177.317 72.6511 176.733Z" fill="#182F43"/>
<path d="M58.3345 164.818C57.6926 164.442 57.0865 164.253 56.5164 164.253C55.9464 164.253 55.4218 164.377 54.9428 164.625C54.4474 164.877 53.9993 165.226 53.5986 165.673C53.1918 166.13 52.8337 166.623 52.5244 167.151L49.2582 172.727L47.8603 171.908L51.1265 166.332C51.5633 165.586 52.0667 164.929 52.637 164.359C53.1909 163.793 53.8028 163.366 54.4727 163.077C55.1427 162.788 55.8659 162.669 56.6423 162.721C57.4024 162.776 58.2069 163.053 59.056 163.55C59.9361 164.066 60.5854 164.655 61.004 165.317C61.4226 165.98 61.6697 166.674 61.7452 167.4C61.8043 168.13 61.7226 168.874 61.5001 169.634C61.2612 170.398 60.9355 171.132 60.5231 171.836L57.2568 177.412L55.859 176.593L59.1252 171.018C59.4467 170.469 59.7073 169.905 59.907 169.327C60.0903 168.753 60.173 168.196 60.1549 167.657C60.1266 167.112 59.9781 166.594 59.7095 166.103C59.4245 165.616 58.9661 165.188 58.3345 164.818Z" fill="#182F43"/>
<path d="M52.424 159.474L44.3164 169.353L40.0865 165.882C39.6505 165.524 39.3278 165.104 39.1183 164.621C38.8919 164.14 38.7744 163.64 38.7659 163.121C38.7405 162.604 38.8097 162.094 38.9734 161.592C39.1295 161.099 39.3674 160.658 39.6872 160.268C39.9688 159.925 40.2939 159.633 40.6624 159.392C41.014 159.153 41.3891 158.979 41.7878 158.872C42.1772 158.757 42.5779 158.713 42.9899 158.74C43.3926 158.761 43.7859 158.858 44.1698 159.034L44.8826 153.285L46.3018 154.45L45.644 159.848L48.2599 161.994L51.1718 158.446L52.424 159.474ZM47.3463 163.108L44.3548 160.652C44.0951 160.439 43.8175 160.305 43.5221 160.248C43.2174 160.185 42.9147 160.185 42.614 160.248C42.3057 160.321 42.0071 160.449 41.718 160.631C41.429 160.813 41.1741 161.038 40.9533 161.307C40.725 161.585 40.5628 161.887 40.4669 162.212C40.3541 162.538 40.3051 162.863 40.3198 163.186C40.3176 163.51 40.386 163.814 40.5249 164.099C40.6469 164.385 40.8285 164.628 41.0696 164.826L43.9777 167.212L47.3463 163.108Z" fill="#182F43"/>
<path d="M40.7452 148.935L30.8662 157.042L27.4861 152.924C27.1283 152.488 26.8937 152.013 26.7824 151.499C26.6541 150.983 26.6364 150.47 26.7294 149.959C26.8054 149.446 26.9727 148.96 27.2312 148.499C27.4805 148.046 27.7999 147.66 28.1895 147.34C28.5976 147.005 29.049 146.751 29.5435 146.578C30.038 146.405 30.5402 146.327 31.0502 146.343C31.5526 146.35 32.0404 146.462 32.5135 146.679C32.9791 146.887 33.3907 147.209 33.7485 147.645L36.1694 150.594L39.7175 147.683L40.7452 148.935ZM35.0563 151.508L32.6925 148.628C32.4793 148.368 32.238 148.178 31.9685 148.058C31.6821 147.936 31.3852 147.877 31.0779 147.88C30.7613 147.892 30.4435 147.959 30.1245 148.081C29.8056 148.203 29.5069 148.378 29.2286 148.606C28.9411 148.842 28.714 149.114 28.5472 149.422C28.3729 149.72 28.2615 150.029 28.213 150.348C28.1569 150.658 28.1692 150.966 28.2499 151.273C28.3229 151.57 28.4584 151.839 28.6564 152.08L30.9516 154.877L35.0563 151.508Z" fill="#182F43"/>
<path d="M34.4193 141.008L23.5127 147.669L20.6605 142.999C20.3665 142.518 20.2 142.015 20.1609 141.49C20.1052 140.962 20.1588 140.451 20.3217 139.958C20.468 139.461 20.701 139.002 21.0208 138.582C21.3304 138.168 21.7002 137.829 22.1304 137.567C22.5093 137.335 22.9124 137.166 23.3396 137.06C23.7503 136.95 24.1616 136.91 24.5735 136.939C24.9791 136.959 25.3718 137.049 25.7518 137.211C26.1255 137.362 26.4647 137.584 26.7696 137.876L29.3341 132.682L30.2911 134.249L27.8939 139.13L29.6577 142.018L33.5749 139.625L34.4193 141.008ZM28.4288 142.768L26.4117 139.465C26.2365 139.179 26.0187 138.96 25.7582 138.81C25.4915 138.649 25.2056 138.55 24.9007 138.511C24.5856 138.479 24.2616 138.501 23.9288 138.577C23.596 138.654 23.2811 138.783 22.9841 138.964C22.6769 139.152 22.4246 139.384 22.2271 139.659C22.0132 139.93 21.8601 140.221 21.7678 140.53C21.6591 140.835 21.6235 141.145 21.6609 141.46C21.6819 141.771 21.7737 142.059 21.9363 142.325L23.8972 145.536L28.4288 142.768Z" fill="#182F43"/>
<path d="M26.849 126.66C27.1903 127.493 27.3354 128.322 27.2845 129.147C27.2178 129.965 27.007 130.732 26.652 131.449C26.286 132.169 25.7967 132.811 25.1841 133.373C24.5716 133.935 23.8878 134.371 23.1328 134.68C22.3444 135.004 21.5324 135.174 20.6969 135.192C19.8569 135.199 19.0569 135.067 18.2969 134.795C17.537 134.523 16.8572 134.114 16.2576 133.568C15.6424 133.017 15.1709 132.341 14.8433 131.541C14.502 130.709 14.3702 129.881 14.448 129.058C14.5146 128.239 14.731 127.47 15.0971 126.749C15.4631 126.029 15.9524 125.387 16.565 124.825C17.1664 124.267 17.8391 123.836 18.5831 123.531C19.3714 123.208 20.1856 123.043 21.0257 123.036C21.8612 123.018 22.6589 123.145 23.4189 123.417C24.1632 123.682 24.843 124.091 25.4582 124.643C26.0578 125.188 26.5214 125.861 26.849 126.66ZM22.5116 133.165C23.1112 132.919 23.6555 132.586 24.1444 132.165C24.6177 131.738 24.9981 131.257 25.2855 130.725C25.5729 130.192 25.742 129.623 25.7926 129.019C25.8432 128.415 25.7434 127.807 25.4931 127.196C25.2337 126.564 24.8684 126.052 24.3971 125.661C23.9148 125.275 23.3865 124.999 22.8124 124.832C22.2227 124.659 21.6138 124.597 20.9858 124.647C20.3532 124.686 19.7538 124.821 19.1875 125.053C18.5879 125.299 18.0515 125.636 17.5782 126.063C17.0893 126.484 16.7089 126.964 16.4371 127.503C16.1497 128.036 15.9807 128.605 15.9301 129.209C15.8749 129.802 15.9702 130.399 16.2159 130.998C16.4753 131.631 16.8406 132.143 17.3118 132.533C17.7831 132.924 18.3081 133.208 18.8867 133.386C19.4608 133.553 20.0642 133.617 20.6967 133.578C21.3293 133.539 21.9342 133.401 22.5116 133.165Z" fill="#182F43"/>
<path d="M22.4548 120.61C22.5583 120.336 22.6237 119.985 22.6509 119.557C22.6781 119.129 22.628 118.665 22.5006 118.165C22.3495 117.572 22.1249 117.128 21.8267 116.832C21.5285 116.537 21.1537 116.354 20.7022 116.283C20.2362 116.203 19.6934 116.212 19.0739 116.308C18.4544 116.403 17.7493 116.552 16.9586 116.754L10.6617 118.358L10.2618 116.788L16.5586 115.184C17.5006 114.944 18.3729 114.771 19.1757 114.666C19.964 114.552 20.6699 114.576 21.2934 114.739C21.914 114.891 22.4466 115.207 22.8911 115.688C23.3327 116.158 23.6735 116.863 23.9135 117.805C24.1801 118.852 24.1524 119.812 23.8303 120.687L22.4548 120.61Z" fill="#182F43"/>
<path d="M19.5935 102.795L21.0219 102.612L22.1221 111.218L9.44531 112.839L8.3656 104.394L9.79398 104.211L10.6682 111.049L14.7748 110.524L14.0147 104.579L15.3538 104.408L16.1139 110.353L20.4883 109.794L19.5935 102.795Z" fill="#182F43"/>
<path d="M14.4235 101.67C13.6557 101.656 12.8964 101.509 12.1456 101.23C11.3831 100.94 10.7069 100.53 10.1169 100.003C9.51523 99.4632 9.03571 98.8118 8.67837 98.0488C8.32103 97.2857 8.15162 96.4243 8.17015 95.4645C8.19215 94.3247 8.46897 93.3519 9.00062 92.546C9.53228 91.7401 10.2158 91.1472 11.0513 90.7672L11.8545 92.061C11.4429 92.2451 11.0964 92.4724 10.8152 92.743C10.5341 93.0017 10.3065 93.2913 10.1323 93.612C9.95827 93.9207 9.83204 94.2423 9.75357 94.5769C9.6751 94.9114 9.63274 95.2407 9.62649 95.5646C9.61282 96.2725 9.75064 96.9053 10.0399 97.463C10.3175 98.0084 10.6926 98.4717 11.1653 98.8529C11.626 99.2339 12.1545 99.5261 12.7507 99.7297C13.3351 99.921 13.9273 100.022 14.5271 100.034C15.199 100.047 15.843 99.9514 16.459 99.7473C17.0633 99.5309 17.6032 99.2292 18.0788 98.8423C18.5544 98.4555 18.9353 97.9947 19.2217 97.4601C19.5081 96.9256 19.6574 96.3403 19.6697 95.7045C19.6761 95.3685 19.6408 95.0258 19.5635 94.6762C19.4864 94.3147 19.3611 93.9702 19.1874 93.6428C19.0016 93.3151 18.7735 93.0107 18.5029 92.7294C18.2205 92.4359 17.883 92.1953 17.4906 92.0077L18.2545 90.6722C18.7305 90.8854 19.1508 91.1816 19.5156 91.5607C19.8686 91.9276 20.1665 92.3474 20.4095 92.8202C20.6526 93.281 20.8352 93.7706 20.9572 94.289C21.0792 94.8075 21.1355 95.3127 21.126 95.8046C21.1091 96.6804 20.9016 97.4806 20.5036 98.205C20.1055 98.9295 19.5953 99.5557 18.973 100.084C18.3389 100.6 17.6291 101 16.8434 101.285C16.046 101.558 15.2394 101.686 14.4235 101.67Z" fill="#182F43"/>
<path d="M11.7234 77.7817L10.9968 82.1315L22.1819 83.9999L21.9149 85.5977L10.7299 83.7293L10.0033 88.0791L8.58301 87.8418L10.3031 77.5445L11.7234 77.7817Z" fill="#182F43"/>
<path d="M15.7418 68.6759C15.5388 68.7641 15.3275 68.8999 15.1078 69.0833C14.888 69.2668 14.6767 69.4842 14.4737 69.7356C14.2593 69.9835 14.0647 70.2689 13.8899 70.5917C13.7072 70.8996 13.5594 71.237 13.4464 71.604C13.1533 72.5559 13.1156 73.3103 13.3334 73.867C13.5547 74.4123 13.975 74.7803 14.5943 74.971C14.9269 75.0734 15.2216 75.0951 15.4784 75.036C15.7351 74.977 15.9844 74.8403 16.2262 74.6259C16.46 74.3966 16.6961 74.0989 16.9344 73.7328C17.1726 73.3667 17.4396 72.9278 17.7353 72.4162C18.0671 71.8278 18.4025 71.3095 18.7414 70.8614C19.0723 70.3983 19.4244 70.0296 19.7977 69.7553C20.1745 69.4695 20.5804 69.2932 21.0153 69.2262C21.4538 69.1478 21.9483 69.1933 22.4988 69.3628C23.0837 69.5429 23.5588 69.8148 23.9239 70.1784C24.2776 70.5384 24.536 70.9633 24.6992 71.4529C24.8543 71.9276 24.9177 72.4557 24.8894 73.0371C24.8496 73.6149 24.7325 74.2193 24.5383 74.85C24.2487 75.7905 23.8299 76.6409 23.2819 77.4013C22.7259 78.1466 22.061 78.7769 21.2871 79.292L20.2075 78.1496C20.4589 78.0262 20.7263 77.8511 21.0096 77.6244C21.2963 77.3863 21.5765 77.1084 21.8501 76.7909C22.1157 76.4583 22.3655 76.0958 22.5994 75.7032C22.8253 75.2957 23.0107 74.8568 23.1555 74.3866C23.4239 73.5149 23.4774 72.7906 23.3161 72.2136C23.1547 71.6366 22.7644 71.2527 22.1451 71.062C21.801 70.9561 21.4896 70.948 21.2108 71.038C20.9241 71.1129 20.6488 71.273 20.3849 71.5182C20.1211 71.7634 19.8572 72.0902 19.5933 72.4986C19.3215 72.8921 19.0302 73.3486 18.7196 73.8682C18.3798 74.4416 18.0515 74.9369 17.7347 75.3541C17.4178 75.7714 17.0896 76.1035 16.7498 76.3504C16.4137 76.5859 16.0488 76.731 15.6553 76.7856C15.2618 76.8402 14.8242 76.7933 14.3425 76.645C13.7576 76.4649 13.2751 76.197 12.8949 75.8414C12.5148 75.4858 12.2299 75.0653 12.0403 74.58C11.8507 74.0948 11.7644 73.5596 11.7813 72.9747C11.7867 72.3862 11.8865 71.7766 12.0807 71.1459C12.335 70.3201 12.6907 69.6135 13.1478 69.026C13.605 68.4385 14.1252 67.9521 14.7084 67.5667L15.7418 68.6759Z" fill="#182F43"/>
<path d="M30.5267 65.5887L15.9277 58.3613L16.5347 57.1353L31.1336 64.3628L30.5267 65.5887Z" fill="#182F43"/>
<path d="M35.8236 52.3833C35.2889 53.1072 34.6558 53.6614 33.9241 54.046C33.19 54.4138 32.4248 54.6318 31.6285 54.7C30.8225 54.7611 30.0202 54.6757 29.2217 54.444C28.4232 54.2122 27.6958 53.8539 27.0394 53.3691C26.3541 52.8629 25.7869 52.2574 25.3377 51.5527C24.8957 50.8383 24.5938 50.0856 24.432 49.2948C24.2702 48.504 24.2668 47.7108 24.4218 46.9152C24.5743 46.1029 24.9072 45.3492 25.4205 44.6543C25.9552 43.9303 26.5945 43.3881 27.3383 43.0274C28.0724 42.6596 28.8425 42.4452 29.6484 42.3841C30.4544 42.323 31.2567 42.4084 32.0552 42.6401C32.844 42.8648 33.5618 43.2159 34.2085 43.6936C34.8938 44.1998 35.4575 44.8101 35.8995 45.5245C36.3487 46.2293 36.6542 46.9771 36.816 47.7679C36.9752 48.542 36.9786 49.3351 36.8261 50.1475C36.6711 50.943 36.337 51.6883 35.8236 52.3833ZM28.0126 52.0515C28.5338 52.4365 29.1012 52.7288 29.7147 52.9283C30.3256 53.1111 30.9334 53.187 31.538 53.1562C32.1426 53.1254 32.7163 52.9748 33.2591 52.7044C33.802 52.434 34.2695 52.0334 34.6616 51.5025C35.068 50.9524 35.3158 50.3745 35.4049 49.7691C35.4845 49.1565 35.4465 48.5615 35.2911 47.9842C35.1332 47.3902 34.8699 46.8377 34.5014 46.3268C34.14 45.8062 33.7131 45.3641 33.2208 45.0005C32.6996 44.6155 32.1335 44.3316 31.5226 44.1489C30.9091 43.9493 30.3013 43.8734 29.6993 43.921C29.0947 43.9518 28.521 44.1024 27.9781 44.3728C27.4424 44.6335 26.9821 45.0245 26.597 45.5457C26.1907 46.0959 25.9429 46.6737 25.8537 47.2792C25.7645 47.8846 25.7941 48.4808 25.9424 49.0678C26.0978 49.645 26.3562 50.194 26.7176 50.7145C27.079 51.2351 27.5107 51.6808 28.0126 52.0515Z" fill="#182F43"/>
<path d="M43.2379 41.6499C43.7735 41.1334 44.1184 40.6008 44.2726 40.052C44.4269 39.5031 44.4494 38.9646 44.3402 38.4365C44.2313 37.8914 44.0159 37.3655 43.6941 36.859C43.364 36.3438 42.9866 35.8659 42.5618 35.4253L38.0762 30.7738L39.2423 29.6493L43.7279 34.3008C44.3276 34.9228 44.8248 35.5853 45.2194 36.2884C45.6143 36.9745 45.8603 37.6791 45.9575 38.4022C46.0547 39.1253 45.9736 39.8537 45.7141 40.5874C45.455 41.304 44.9713 42.0039 44.2629 42.6869C43.5287 43.3949 42.7862 43.8609 42.0353 44.0849C41.2844 44.3089 40.5493 44.3592 39.8302 44.2358C39.1114 44.0955 38.4163 43.8155 37.745 43.3959C37.074 42.9594 36.4553 42.4475 35.8889 41.8601L31.4033 37.2085L32.5695 36.084L37.055 40.7356C37.4965 41.1934 37.9687 41.5966 38.4715 41.9452C38.9747 42.2768 39.4882 42.5068 40.0121 42.6351C40.5445 42.7551 41.0835 42.7522 41.6289 42.6263C42.1747 42.4835 42.711 42.158 43.2379 41.6499Z" fill="#182F43"/>
<path d="M49.9371 37.4042L42.6094 26.9336L47.0925 23.7961C47.5546 23.4727 48.0462 23.2752 48.5672 23.2034C49.0912 23.115 49.6044 23.1367 50.1067 23.2685C50.612 23.3836 51.0844 23.5876 51.5238 23.8806C51.9563 24.1638 52.317 24.5118 52.606 24.9248C52.8606 25.2885 53.0542 25.6803 53.1869 26.1001C53.3225 26.5032 53.3883 26.9112 53.3844 27.324C53.3902 27.7301 53.3243 28.1277 53.1866 28.517C53.0588 28.8994 52.8587 29.2518 52.5864 29.5742L57.9301 31.8103L56.4259 32.863L51.4051 30.7744L48.6326 32.7147L51.2644 36.4753L49.9371 37.4042ZM47.8069 31.535L50.9776 29.316C51.2529 29.1233 51.4574 28.8923 51.5911 28.623C51.7346 28.3468 51.8163 28.0553 51.836 27.7486C51.8488 27.432 51.8065 27.1101 51.7093 26.7827C51.612 26.4553 51.4636 26.1491 51.264 25.8639C51.0576 25.569 50.8109 25.3316 50.5238 25.1516C50.2397 24.955 49.9404 24.8203 49.6258 24.7475C49.3142 24.658 49.0026 24.6417 48.6909 24.6987C48.3822 24.739 48.1001 24.8486 47.8445 25.0275L44.7623 27.1845L47.8069 31.535Z" fill="#182F43"/>
<path d="M63.1158 29.0143L58.0059 17.3003L62.8894 15.17C63.4064 14.9444 63.9273 14.8481 64.4522 14.881C64.9834 14.898 65.4821 15.0209 65.9484 15.2495C66.4209 15.4623 66.8435 15.7558 67.2162 16.13C67.5841 16.4932 67.8688 16.9058 68.0704 17.3677C68.2815 17.8517 68.4029 18.3551 68.4346 18.8781C68.4664 19.401 68.405 19.9056 68.2506 20.3919C68.1071 20.8735 67.8665 21.3123 67.5287 21.7084C67.2019 22.0997 66.7801 22.4081 66.2631 22.6336L62.7654 24.1594L64.6007 28.3665L63.1158 29.0143ZM62.1896 22.8395L65.6048 21.3497C65.9128 21.2154 66.1614 21.0349 66.3506 20.8084C66.546 20.566 66.6837 20.2965 66.7637 19.9997C66.839 19.692 66.8613 19.368 66.8307 19.0279C66.8002 18.6877 66.7129 18.3526 66.569 18.0227C66.4202 17.6817 66.2206 17.3891 65.9701 17.1449C65.7305 16.8959 65.4638 16.7046 65.1698 16.571C64.8869 16.4326 64.5871 16.3605 64.2703 16.3546C63.9645 16.344 63.6687 16.4011 63.3827 16.5258L60.0665 17.9724L62.1896 22.8395Z" fill="#182F43"/>
<path d="M72.8309 24.9229L69.4414 12.6006L74.7174 11.1493C75.2612 10.9997 75.7906 10.9786 76.3055 11.0859C76.8288 11.1784 77.3049 11.371 77.7339 11.6637C78.1713 11.9417 78.5478 12.2924 78.8634 12.7158C79.1758 13.1277 79.3989 13.5766 79.5325 14.0626C79.6503 14.4907 79.7012 14.9247 79.6854 15.3647C79.6779 15.7899 79.603 16.1963 79.4607 16.5839C79.33 16.9684 79.1344 17.3209 78.8741 17.6414C78.6254 17.9587 78.3186 18.2236 77.9539 18.4359L82.2375 22.3354L80.4673 22.8224L76.4383 19.1701L73.1755 20.0676L74.3929 24.4933L72.8309 24.9229ZM72.7936 18.6792L76.525 17.6528C76.849 17.5637 77.1192 17.4147 77.3355 17.2058C77.5634 16.9938 77.7381 16.7466 77.8596 16.4643C77.9779 16.1704 78.0461 15.8529 78.0643 15.5119C78.0825 15.1708 78.0455 14.8326 77.9532 14.497C77.8577 14.1499 77.705 13.8434 77.4949 13.5776C77.2933 13.2971 77.0565 13.0697 76.7846 12.8956C76.5211 12.7067 76.233 12.5868 75.9203 12.536C75.616 12.4703 75.3134 12.4789 75.0126 12.5616L71.3853 13.5594L72.7936 18.6792Z" fill="#182F43"/>
<path d="M88.4427 21.6191C87.5483 21.7195 86.7113 21.6323 85.9318 21.3576C85.1629 21.0695 84.4826 20.6568 83.891 20.1195C83.298 19.5702 82.8149 18.9241 82.4417 18.1811C82.0685 17.4381 81.8364 16.6611 81.7453 15.8502C81.6503 15.0035 81.7083 14.1759 81.9194 13.3673C82.1425 12.5573 82.4888 11.8241 82.9585 11.1676C83.4282 10.5111 84.0074 9.96915 84.696 9.54167C85.3952 9.10092 86.1741 8.83235 87.0327 8.73597C87.9271 8.63557 88.7594 8.73535 89.5297 9.03529C90.2986 9.32332 90.9796 9.74197 91.5725 10.2912C92.1655 10.8405 92.6486 11.4867 93.0218 12.2297C93.3937 12.9608 93.6245 13.7258 93.7142 14.5248C93.8092 15.3714 93.7452 16.1998 93.5222 17.0097C93.3111 17.8183 92.9707 18.5508 92.501 19.2073C92.0418 19.8506 91.4627 20.3926 90.7635 20.8333C90.0749 21.2608 89.3013 21.5227 88.4427 21.6191ZM83.3731 15.6675C83.4454 16.3114 83.617 16.9261 83.888 17.5115C84.1696 18.0837 84.5273 18.5809 84.9611 19.0031C85.3949 19.4254 85.8955 19.7435 86.463 19.9576C87.0304 20.1716 87.642 20.2418 88.2979 20.1682C88.9776 20.0919 89.5698 19.8805 90.0743 19.5341C90.5774 19.1757 90.9877 18.7432 91.3052 18.2367C91.6333 17.7168 91.8592 17.1481 91.9831 16.5304C92.1189 15.9114 92.1527 15.2978 92.0844 14.6896C92.0121 14.0456 91.8352 13.4376 91.5536 12.8654C91.2826 12.28 90.9249 11.7828 90.4805 11.3738C90.0467 10.9516 89.5461 10.6334 88.9787 10.4194C88.4232 10.204 87.8234 10.1325 87.1795 10.2048C86.4997 10.2811 85.9076 10.4924 85.4031 10.8389C84.8986 11.1853 84.4817 11.6125 84.1523 12.1204C83.8348 12.627 83.6082 13.1898 83.4724 13.8088C83.3366 14.4278 83.3035 15.0474 83.3731 15.6675Z" fill="#182F43"/>
<path d="M96.044 19.009C96.2787 19.1843 96.5979 19.3443 97.0016 19.4888C97.4054 19.6333 97.8651 19.7136 98.3809 19.7295C98.9926 19.7484 99.4817 19.6554 99.8482 19.4506C100.215 19.2459 100.494 18.9364 100.687 18.5221C100.892 18.0962 101.035 17.5724 101.114 16.9505C101.193 16.3287 101.245 15.61 101.271 14.7943L101.471 8.29944L103.09 8.34945L102.89 14.8444C102.86 15.8159 102.784 16.702 102.664 17.5026C102.555 18.2917 102.336 18.9632 102.007 19.5173C101.69 20.0718 101.239 20.4961 100.653 20.7901C100.08 21.0846 99.3074 21.2168 98.3358 21.1868C97.2564 21.1534 96.3409 20.861 95.5896 20.3096L96.044 19.009Z" fill="#182F43"/>
<path d="M113.765 21.1223L113.55 22.5461L104.972 21.248L106.884 8.61182L115.302 9.8857L115.086 11.3095L108.27 10.278L107.651 14.3714L113.577 15.2682L113.375 16.603L107.449 15.7062L106.789 20.0666L113.765 21.1223Z" fill="#182F43"/>
<path d="M115.847 16.3259C116.07 15.591 116.418 14.9003 116.89 14.2537C117.378 13.5991 117.955 13.0597 118.624 12.6356C119.307 12.2035 120.064 11.9194 120.895 11.7832C121.727 11.647 122.602 11.7184 123.521 11.9975C124.611 12.3289 125.472 12.86 126.103 13.5909C126.734 14.3218 127.118 15.1409 127.256 16.0483L125.793 16.4691C125.728 16.0229 125.603 15.6276 125.419 15.2833C125.247 14.9425 125.03 14.6446 124.769 14.3897C124.519 14.1383 124.244 13.9293 123.944 13.7627C123.643 13.5961 123.338 13.4658 123.028 13.3716C122.35 13.1658 121.704 13.1262 121.089 13.2528C120.488 13.3714 119.94 13.6063 119.445 13.9574C118.953 14.2971 118.528 14.726 118.17 15.2443C117.827 15.7546 117.568 16.2968 117.393 16.8709C117.198 17.5139 117.115 18.1595 117.144 18.8079C117.187 19.4483 117.331 20.0499 117.573 20.6128C117.816 21.1757 118.156 21.6677 118.592 22.0887C119.029 22.5098 119.551 22.8127 120.16 22.9976C120.481 23.0953 120.821 23.1545 121.178 23.1753C121.547 23.1996 121.913 23.1727 122.275 23.0946C122.641 23.0051 122.996 22.8684 123.34 22.6845C123.7 22.4927 124.023 22.2335 124.31 21.9069L125.387 23.0054C125.053 23.4054 124.653 23.7293 124.189 23.9771C123.74 24.2169 123.255 24.3894 122.734 24.4945C122.224 24.603 121.704 24.6455 121.172 24.6218C120.639 24.5981 120.138 24.5147 119.667 24.3717C118.829 24.1171 118.116 23.6997 117.527 23.1195C116.938 22.5393 116.474 21.8779 116.135 21.1354C115.812 20.3848 115.62 19.5928 115.559 18.7593C115.514 17.9178 115.61 17.1066 115.847 16.3259Z" fill="#182F43"/>
<path d="M139.99 20.4237L136.009 18.526L131.129 28.7624L129.667 28.0653L134.547 17.8289L130.566 15.9312L131.186 14.6313L140.61 19.1239L139.99 20.4237Z" fill="#182F43"/>
<path d="M147.648 26.8064C147.619 26.587 147.547 26.3465 147.431 26.0847C147.315 25.823 147.164 25.5599 146.978 25.2956C146.799 25.0212 146.578 24.7555 146.316 24.4986C146.071 24.2382 145.787 24.0032 145.465 23.7935C144.631 23.2496 143.916 23.0057 143.321 23.0618C142.736 23.1244 142.266 23.4272 141.912 23.97C141.722 24.2616 141.62 24.5389 141.606 24.8019C141.592 25.065 141.655 25.3423 141.795 25.6338C141.951 25.9217 142.172 26.2306 142.458 26.5605C142.745 26.8904 143.093 27.2679 143.503 27.693C143.978 28.174 144.384 28.6391 144.721 29.0883C145.075 29.534 145.333 29.974 145.494 30.4084C145.665 30.8493 145.722 31.288 145.667 31.7246C145.622 32.1677 145.442 32.6306 145.127 33.1131C144.793 33.6258 144.401 34.0076 143.951 34.2586C143.507 34.4995 143.028 34.6309 142.512 34.6529C142.013 34.6714 141.488 34.5869 140.937 34.3996C140.392 34.2022 139.843 33.9233 139.291 33.5629C138.466 33.0256 137.764 32.3888 137.184 31.6525C136.62 30.9128 136.198 30.1001 135.916 29.2143L137.311 28.4909C137.36 28.7667 137.455 29.0719 137.595 29.4066C137.745 29.7479 137.935 30.0937 138.165 30.4442C138.411 30.7911 138.691 31.131 139.004 31.464C139.334 31.7934 139.705 32.0924 140.117 32.3611C140.881 32.8591 141.562 33.11 142.162 33.1138C142.761 33.1176 143.237 32.8481 143.591 32.3052C143.788 32.0036 143.881 31.7065 143.871 31.4137C143.878 31.1174 143.8 30.8086 143.637 30.4875C143.474 30.1663 143.233 29.8226 142.913 29.4565C142.609 29.0869 142.251 28.6812 141.837 28.2394C141.379 27.7549 140.993 27.3029 140.679 26.8834C140.365 26.464 140.137 26.057 139.993 25.6624C139.859 25.2743 139.82 24.8837 139.876 24.4903C139.932 24.097 140.097 23.6892 140.372 23.267C140.706 22.7543 141.097 22.3642 141.543 22.0966C141.99 21.8291 142.473 21.671 142.991 21.6223C143.51 21.5737 144.048 21.638 144.606 21.8153C145.17 21.9826 145.729 22.2464 146.282 22.6068C147.005 23.0786 147.587 23.6151 148.026 24.2164C148.465 24.8176 148.789 25.4516 148.999 26.1184L147.648 26.8064Z" fill="#182F43"/>
<path d="M146.389 41.7239L157.307 29.6343L158.322 30.5512L147.404 42.6408L146.389 41.7239Z" fill="#182F43"/>
</svg>
