<svg width="195" height="195" viewBox="0 0 195 195" fill="none" xmlns="http://www.w3.org/2000/svg">
<path d="M185.249 111.069L172.698 109.953L172.845 108.303L182.652 109.175L176.186 104.462L176.205 104.247L183.384 100.747L173.594 99.8765L173.743 98.209L186.293 99.3252L186.126 101.208L179.136 104.616L185.416 109.186L185.249 111.069Z" fill="#182F43"/>
<path d="M171.514 119.548C170.854 118.43 170.685 117.231 171.006 115.951C171.327 114.67 172.042 113.693 173.151 113.018C174.258 112.355 175.457 112.186 176.749 112.51C178.041 112.834 179.018 113.549 179.681 114.655C180.341 115.773 180.511 116.973 180.19 118.253C179.869 119.533 179.153 120.511 178.044 121.185C176.935 121.86 175.734 122.035 174.442 121.711C173.15 121.387 172.174 120.666 171.514 119.548ZM172.49 116.323C172.271 117.196 172.384 118.003 172.829 118.746C173.274 119.488 173.938 119.97 174.823 120.192C175.708 120.414 176.521 120.302 177.264 119.858C178.006 119.413 178.487 118.754 178.705 117.881C178.921 117.02 178.807 116.218 178.362 115.475C177.917 114.733 177.253 114.251 176.368 114.029C175.483 113.807 174.67 113.919 173.927 114.363C173.185 114.808 172.706 115.461 172.49 116.323Z" fill="#182F43"/>
<path d="M176.426 129.737C175.953 130.905 175.121 131.727 173.931 132.202C172.752 132.683 171.551 132.675 170.328 132.179C169.105 131.683 168.232 130.85 167.709 129.68C167.197 128.514 167.178 127.347 167.652 126.18C168.211 124.801 169.188 123.973 170.582 123.697L169.147 123.115L169.735 121.664L181.412 126.398L180.824 127.849L176.053 125.915C176.861 127.084 176.985 128.358 176.426 129.737ZM169.127 126.564C168.789 127.398 168.789 128.214 169.126 129.011C169.474 129.813 170.071 130.385 170.916 130.727C171.761 131.07 172.583 131.073 173.38 130.736C174.188 130.403 174.761 129.82 175.099 128.986C175.442 128.14 175.439 127.317 175.091 126.515C174.754 125.718 174.162 125.148 173.317 124.806C172.472 124.463 171.645 124.458 170.837 124.791C170.04 125.128 169.47 125.719 169.127 126.564Z" fill="#182F43"/>
<path d="M174.262 137.708C174.401 137.442 174.608 137.266 174.883 137.18C175.159 137.094 175.424 137.117 175.679 137.251C175.934 137.384 176.105 137.589 176.191 137.864C176.288 138.145 176.267 138.418 176.128 138.684C175.994 138.939 175.785 139.107 175.499 139.188C175.223 139.274 174.958 139.251 174.703 139.117C174.448 138.984 174.277 138.779 174.191 138.504C174.105 138.229 174.128 137.963 174.262 137.708ZM165.202 132.076L173.177 136.247L172.452 137.635L164.477 133.463L165.202 132.076Z" fill="#182F43"/>
<path d="M163.387 135.417L174.7 142.101L173.904 143.449L162.59 136.766L163.387 135.417Z" fill="#182F43"/>
<path d="M164.18 141.425C163.436 141.083 162.715 141.017 162.019 141.227C161.316 141.447 160.716 141.903 160.22 142.595C159.528 143.561 159.381 144.519 159.778 145.468L158.388 146.11C157.796 144.609 158.013 143.141 159.041 141.707C159.872 140.546 160.911 139.858 162.157 139.643C163.406 139.446 164.586 139.745 165.698 140.542C166.801 141.331 167.463 142.344 167.684 143.58C167.906 144.817 167.611 146.001 166.801 147.132C166.032 148.205 165.026 148.806 163.783 148.934C162.543 149.079 161.391 148.77 160.327 148.009C160.142 147.876 159.962 147.725 159.788 147.556L164.18 141.425ZM165.601 146.273C166.09 145.59 166.3 144.884 166.231 144.156C166.172 143.435 165.859 142.79 165.292 142.221L161.791 147.109C162.561 147.498 163.283 147.602 163.959 147.421C164.634 147.241 165.181 146.858 165.601 146.273Z" fill="#182F43"/>
<path d="M155.79 164.284L154.643 165.35L146.063 156.123L147.21 155.057L148.264 156.19C148.026 154.789 148.452 153.582 149.542 152.569C150.465 151.711 151.562 151.313 152.833 151.376C154.112 151.448 155.202 151.968 156.1 152.934C156.999 153.901 157.434 155.021 157.405 156.293C157.384 157.575 156.912 158.644 155.989 159.502C154.899 160.516 153.664 160.853 152.284 160.514L155.79 164.284ZM150.426 153.811C149.759 154.432 149.409 155.175 149.377 156.04C149.354 156.913 149.653 157.684 150.274 158.352C150.895 159.02 151.638 159.37 152.503 159.401C153.376 159.441 154.147 159.151 154.815 158.53C155.474 157.917 155.815 157.174 155.838 156.3C155.869 155.435 155.575 154.669 154.954 154.001C154.333 153.333 153.586 152.979 152.712 152.939C151.848 152.907 151.086 153.198 150.426 153.811Z" fill="#182F43"/>
<path d="M145.685 161.163C145.097 160.594 144.439 160.292 143.712 160.259C142.976 160.232 142.259 160.463 141.561 160.952C140.588 161.633 140.131 162.487 140.191 163.514L138.666 163.659C138.606 162.046 139.299 160.733 140.744 159.722C141.914 158.903 143.122 158.599 144.369 158.811C145.612 159.039 146.626 159.714 147.411 160.834C148.188 161.945 148.476 163.121 148.274 164.36C148.073 165.6 147.402 166.619 146.261 167.417C145.18 168.174 144.031 168.406 142.816 168.114C141.598 167.839 140.614 167.165 139.864 166.094C139.734 165.907 139.614 165.705 139.506 165.487L145.685 161.163ZM145.415 166.208C146.103 165.726 146.536 165.13 146.713 164.421C146.897 163.721 146.816 163.008 146.47 162.284L141.544 165.731C142.141 166.353 142.788 166.692 143.485 166.746C144.182 166.8 144.825 166.62 145.415 166.208Z" fill="#182F43"/>
<path d="M137.834 169.587C137.671 169.28 137.385 169.113 136.976 169.086C136.573 169.07 136.123 169.119 135.627 169.233C135.136 169.359 134.634 169.463 134.121 169.546C133.613 169.639 133.113 169.593 132.62 169.407C132.132 169.232 131.744 168.874 131.457 168.334C131.073 167.614 131.046 166.887 131.377 166.154C131.696 165.426 132.29 164.831 133.159 164.369C133.932 163.957 134.684 163.774 135.415 163.82C136.147 163.865 136.778 164.107 137.31 164.544L136.482 165.862C136.152 165.548 135.753 165.373 135.285 165.337C134.817 165.3 134.34 165.412 133.852 165.671C133.397 165.914 133.066 166.199 132.86 166.526C132.659 166.864 132.657 167.219 132.855 167.589C133.018 167.897 133.302 168.058 133.705 168.075C134.113 168.102 134.563 168.053 135.054 167.928C135.55 167.813 136.055 167.714 136.568 167.631C137.081 167.548 137.582 167.594 138.069 167.77C138.557 167.945 138.942 168.297 139.224 168.827C139.591 169.515 139.628 170.223 139.335 170.95C139.032 171.683 138.477 172.263 137.672 172.692C137.026 173.036 136.375 173.192 135.72 173.161C135.059 173.145 134.463 172.946 133.933 172.562L134.746 171.293C135.393 171.819 136.14 171.856 136.987 171.405C137.379 171.196 137.662 170.923 137.836 170.586C138.015 170.259 138.015 169.926 137.834 169.587Z" fill="#182F43"/>
<path d="M131.886 177.045C132.161 176.925 132.432 176.918 132.701 177.023C132.97 177.129 133.161 177.313 133.277 177.577C133.392 177.841 133.397 178.108 133.291 178.376C133.191 178.656 133.003 178.855 132.728 178.975C132.464 179.091 132.195 179.09 131.922 178.974C131.653 178.868 131.461 178.683 131.346 178.419C131.231 178.155 131.226 177.889 131.332 177.621C131.437 177.352 131.622 177.16 131.886 177.045ZM128.358 166.978L131.957 175.227L130.521 175.853L126.923 167.604L128.358 166.978Z" fill="#182F43"/>
<path d="M120.96 179.273L119.488 179.751L116.826 171.55C116.415 170.283 116.525 169.163 117.155 168.189C117.781 167.203 118.694 166.516 119.892 166.127C120.851 165.816 121.738 165.73 122.552 165.869C123.364 165.997 124.055 166.34 124.628 166.899L123.565 168.057C122.786 167.25 121.7 167.073 120.308 167.525C119.418 167.814 118.797 168.274 118.447 168.905C118.085 169.539 118.036 170.262 118.299 171.072L118.693 172.288C119.076 170.902 119.964 169.983 121.356 169.531C122.578 169.135 123.751 169.233 124.878 169.827C126.004 170.42 126.769 171.339 127.173 172.583C127.576 173.827 127.495 175.014 126.928 176.144C126.365 177.286 125.473 178.055 124.251 178.451C122.847 178.907 121.591 178.69 120.483 177.801L120.96 179.273ZM124.104 171.175C123.333 170.782 122.514 170.726 121.646 171.008C120.779 171.289 120.149 171.815 119.755 172.587C119.362 173.358 119.306 174.177 119.588 175.044C119.866 175.9 120.39 176.525 121.161 176.918C121.932 177.311 122.751 177.367 123.619 177.086C124.486 176.804 125.117 176.278 125.51 175.507C125.903 174.736 125.961 173.922 125.683 173.066C125.401 172.199 124.875 171.568 124.104 171.175Z" fill="#182F43"/>
<path d="M111.85 181.532C110.809 181.714 109.918 181.528 109.176 180.976C108.436 180.435 107.967 179.604 107.771 178.481L106.819 173.037L108.361 172.768L109.298 178.122C109.424 178.843 109.716 179.365 110.175 179.687C110.635 180.02 111.208 180.127 111.894 180.007C112.662 179.873 113.24 179.522 113.628 178.955C114.018 178.399 114.127 177.625 113.953 176.632L113.131 171.933L114.674 171.663L116.224 180.529L114.682 180.799L114.458 179.522C114.008 180.636 113.138 181.306 111.85 181.532Z" fill="#182F43"/>
<path d="M99.6027 169.876L99.8584 186.434L98.2926 186.458L98.0369 169.9L99.6027 169.876Z" fill="#182F43"/>
<path d="M78.7188 180.572L77.1022 180.308L81.3047 171.875L82.8858 172.133L83.8922 179.045L87.0428 172.811L88.6239 173.069L89.9287 182.4L88.3121 182.137L87.459 175.067L84.2616 181.476L82.7693 181.233L81.777 174.122L78.7188 180.572Z" fill="#182F43"/>
<path d="M75.6305 174.301C75.7303 173.488 75.5748 172.782 75.164 172.182C74.7418 171.578 74.1255 171.144 73.3151 170.881C72.1851 170.515 71.2281 170.665 70.4441 171.331L69.4105 170.201C70.6623 169.182 72.1271 168.944 73.805 169.489C75.1632 169.929 76.1333 170.711 76.7153 171.834C77.2821 172.964 77.3543 174.179 76.932 175.481C76.5135 176.77 75.7486 177.708 74.6376 178.294C73.5266 178.879 72.309 178.957 70.985 178.528C69.7295 178.12 68.8524 177.343 68.3538 176.198C67.84 175.059 67.785 173.868 68.1888 172.624C68.2592 172.407 68.3485 172.19 68.4569 171.973L75.6305 174.301ZM71.4406 177.124C72.2396 177.383 72.9757 177.37 73.6489 177.083C74.3184 176.809 74.8382 176.315 75.2083 175.602L69.4899 173.747C69.3524 174.598 69.472 175.318 69.8485 175.907C70.2251 176.496 70.7558 176.901 71.4406 177.124Z" fill="#182F43"/>
<path d="M59.7523 173.94C58.621 173.385 57.8602 172.497 57.4698 171.277C57.0741 170.067 57.1669 168.869 57.7481 167.684C58.3294 166.499 59.2221 165.687 60.4262 165.248C61.6251 164.821 62.7902 164.884 63.9214 165.439C65.2574 166.094 66.014 167.127 66.1912 168.537L66.8728 167.147L68.2788 167.837L62.7305 179.149L61.3245 178.46L63.5914 173.838C62.3679 174.561 61.0882 174.595 59.7523 173.94ZM63.4334 166.884C62.6254 166.487 61.8119 166.429 60.9929 166.709C60.1686 167 59.5557 167.555 59.1541 168.374C58.7525 169.192 58.6917 170.011 58.9717 170.83C59.2464 171.66 59.7878 172.273 60.5958 172.669C61.4146 173.071 62.2362 173.126 63.0604 172.836C63.8794 172.556 64.4897 172.006 64.8913 171.187C65.2929 170.369 65.3563 169.544 65.0816 168.715C64.8016 167.896 64.2522 167.285 63.4334 166.884Z" fill="#182F43"/>
<path d="M40.9098 165.731L39.6743 164.769L47.4168 154.828L48.6523 155.791L47.7011 157.012C49.0464 156.554 50.3061 156.782 51.48 157.697C52.4741 158.471 53.0412 159.491 53.1813 160.756C53.3141 162.03 52.975 163.188 52.1638 164.23C51.3527 165.271 50.3167 165.879 49.0557 166.053C47.7873 166.236 46.6561 165.94 45.6621 165.166C44.4882 164.252 43.9585 163.086 44.0732 161.67L40.9098 165.731ZM50.3947 158.768C49.6752 158.207 48.886 157.981 48.0271 158.087C47.1609 158.204 46.4475 158.621 45.8871 159.341C45.3267 160.06 45.0999 160.85 45.2066 161.709C45.306 162.577 45.7155 163.291 46.435 163.852C47.145 164.405 47.9332 164.623 48.7994 164.507C49.6583 164.4 50.368 163.987 50.9284 163.268C51.4888 162.548 51.7193 161.754 51.6199 160.886C51.5131 160.027 51.1047 159.321 50.3947 158.768Z" fill="#182F43"/>
<path d="M42.4083 155.284C42.8763 154.612 43.0689 153.915 42.9861 153.192C42.8949 152.461 42.5524 151.79 41.9588 151.179C41.1311 150.327 40.2149 150.012 39.2103 150.235L38.8245 148.753C40.4075 148.436 41.8135 148.911 43.0426 150.176C44.0376 151.201 44.5301 152.345 44.5202 153.609C44.4934 154.873 43.9893 155.982 43.008 156.935C42.0354 157.88 40.9211 158.352 39.6651 158.35C38.4092 158.349 37.2963 157.849 36.3264 156.851C35.4067 155.904 34.9941 154.807 35.0886 153.561C35.1661 152.315 35.674 151.236 36.6122 150.325C36.7757 150.166 36.9561 150.016 37.1534 149.874L42.4083 155.284ZM37.3851 155.822C37.9704 156.425 38.6275 156.757 39.3564 156.818C40.0767 156.888 40.7669 156.694 41.427 156.237L37.2381 151.925C36.7189 152.613 36.4882 153.306 36.546 154.002C36.6038 154.699 36.8835 155.306 37.3851 155.822Z" fill="#182F43"/>
<path d="M32.865 148.918C33.1418 148.708 33.2608 148.398 33.2218 147.991C33.1733 147.59 33.0525 147.154 32.8595 146.683C32.6569 146.219 32.4734 145.74 32.309 145.247C32.135 144.761 32.1002 144.259 32.2044 143.743C32.2991 143.233 32.5899 142.793 33.0768 142.422C33.726 141.928 34.439 141.785 35.2157 141.993C35.9852 142.191 36.668 142.682 37.2641 143.465C37.7948 144.162 38.0964 144.875 38.1689 145.604C38.2415 146.333 38.1047 146.995 37.7586 147.59L36.325 146.985C36.5814 146.609 36.6899 146.187 36.6505 145.719C36.6111 145.251 36.4242 144.798 36.0898 144.359C35.7772 143.948 35.4427 143.667 35.0864 143.516C34.7206 143.373 34.3706 143.428 34.0364 143.683C33.7595 143.893 33.6454 144.199 33.6939 144.599C33.7329 145.007 33.8536 145.443 34.0562 145.907C34.2493 146.379 34.428 146.861 34.5924 147.354C34.7568 147.847 34.7917 148.349 34.697 148.858C34.6023 149.368 34.3163 149.804 33.8389 150.168C33.2183 150.64 32.5258 150.791 31.7613 150.618C30.9896 150.437 30.3275 149.983 29.775 149.258C29.3315 148.675 29.0726 148.058 28.9982 147.406C28.9071 146.751 29.0081 146.131 29.3015 145.546L30.6847 146.144C30.2699 146.867 30.3534 147.611 30.9349 148.374C31.2039 148.728 31.5188 148.963 31.8797 149.08C32.231 149.205 32.5594 149.151 32.865 148.918Z" fill="#182F43"/>
<path d="M24.5089 144.192C24.6708 144.445 24.721 144.712 24.6595 144.994C24.5979 145.276 24.4459 145.494 24.2035 145.65C23.9611 145.805 23.6989 145.852 23.4171 145.791C23.1251 145.736 22.8982 145.582 22.7362 145.329C22.5807 145.087 22.5388 144.821 22.6104 144.533C22.672 144.251 22.824 144.033 23.0664 143.877C23.3088 143.722 23.571 143.675 23.8528 143.736C24.1347 143.798 24.3534 143.95 24.5089 144.192ZM33.8907 139.115L26.3152 143.974L25.4697 142.656L33.0452 137.797L33.8907 139.115Z" fill="#182F43"/>
<path d="M20.5901 133.842L19.8829 132.465L27.5522 128.525C28.7371 127.917 29.8607 127.845 30.923 128.311C31.996 128.772 32.8204 129.563 33.3961 130.684C33.8566 131.58 34.0834 132.442 34.0763 133.268C34.0798 134.089 33.8517 134.827 33.3919 135.482L32.0783 134.618C32.7502 133.72 32.7516 132.62 32.0827 131.318C31.6551 130.485 31.1018 129.946 30.4229 129.702C29.7385 129.446 29.0174 129.513 28.2595 129.902L27.1227 130.486C28.552 130.642 29.6011 131.371 30.27 132.674C30.8567 133.816 30.9473 134.99 30.5418 136.197C30.1363 137.403 29.3518 138.306 28.1883 138.903C27.0248 139.501 25.8399 139.61 24.6336 139.232C23.4167 138.858 22.5149 138.101 21.9282 136.959C21.2538 135.646 21.2668 134.371 21.9671 133.134L20.5901 133.842ZM29.0868 135.649C29.3515 134.825 29.2756 134.007 28.8589 133.196C28.4422 132.385 27.8218 131.847 26.9978 131.582C26.1738 131.318 25.3562 131.393 24.5449 131.81C23.7444 132.221 23.2117 132.839 22.947 133.663C22.6822 134.487 22.7582 135.305 23.1749 136.116C23.5916 136.927 24.2119 137.465 25.0359 137.73C25.8599 137.995 26.6722 137.921 27.4728 137.51C28.284 137.093 28.822 136.473 29.0868 135.649Z" fill="#182F43"/>
<path d="M16.8577 125.166C16.5128 124.167 16.5541 123.258 16.9816 122.438C17.3977 121.621 18.1445 121.026 19.222 120.654L24.4451 118.85L24.9565 120.33L19.8185 122.105C19.1266 122.344 18.6582 122.715 18.4132 123.219C18.1569 123.726 18.1424 124.309 18.3697 124.967C18.6244 125.704 19.0626 126.219 19.6844 126.512C20.2949 126.809 21.0764 126.793 22.0292 126.464L26.5377 124.906L27.0491 126.386L18.5425 129.325L18.0311 127.845L19.256 127.422C18.0843 127.154 17.2848 126.402 16.8577 125.166Z" fill="#182F43"/>
<path d="M26.4273 111.424L10.126 114.339L9.85024 112.798L26.1515 109.882L26.4273 111.424Z" fill="#182F43"/>
<path d="M12.2706 98.3497C12.256 97.0898 12.7055 96.0105 13.6192 95.1119C14.5208 94.2134 15.6316 93.7565 16.9515 93.7412C18.2715 93.7259 19.3985 94.1569 20.3327 95.0341C21.255 95.9115 21.7234 96.9802 21.738 98.2401C21.7552 99.728 21.1744 100.869 19.9955 101.662L25.1431 101.603L25.1613 103.169L12.5621 103.315L12.544 101.749L14.0919 101.731C12.8949 100.965 12.2878 99.8376 12.2706 98.3497ZM20.2284 98.4556C20.2179 97.5556 19.9032 96.8032 19.2842 96.1984C18.6531 95.5936 17.8816 95.2965 16.9697 95.3071C16.0577 95.3177 15.2993 95.6325 14.6945 96.2515C14.0776 96.8707 13.7744 97.6303 13.7848 98.5302C13.7953 99.4421 14.1162 100.2 14.7472 100.805C15.3662 101.41 16.1317 101.707 17.0437 101.697C17.9556 101.686 18.72 101.371 19.3369 100.752C19.9418 100.133 20.2389 99.3675 20.2284 98.4556Z" fill="#182F43"/>
<path d="M14.4102 89.2959C13.3515 88.6708 12.8899 87.6837 13.0256 86.3345L14.6554 86.4984C14.5427 87.259 14.6797 87.9361 15.0662 88.5297C15.4527 89.1234 16.1355 89.4695 17.1146 89.5679L21.8606 90.0453L21.7039 91.6034L12.7491 90.7027L12.9058 89.1446L14.4102 89.2959Z" fill="#182F43"/>
<path d="M22.6261 78.5967C23.3323 79.6861 23.5518 80.8772 23.2847 82.1699C23.0176 83.4626 22.344 84.4691 21.2639 85.1894C20.1863 85.898 18.9952 86.1176 17.6908 85.848C16.3863 85.5785 15.3798 84.9049 14.6712 83.8272C13.965 82.7378 13.7455 81.5468 14.0126 80.2541C14.2797 78.9614 14.9533 77.9548 16.0334 77.2345C17.1135 76.5142 18.3058 76.2887 19.6102 76.5583C20.9147 76.8278 21.92 77.5073 22.6261 78.5967ZM21.7864 81.8603C21.9685 80.9789 21.8218 80.1766 21.3463 79.4534C20.8708 78.7303 20.1865 78.2764 19.2933 78.0919C18.4002 77.9073 17.592 78.0528 16.8689 78.5283C16.1457 79.0038 15.693 79.6823 15.5109 80.5636C15.3313 81.4333 15.4792 82.2297 15.9547 82.9529C16.4302 83.676 17.1145 84.1299 18.0076 84.3144C18.9008 84.499 19.7089 84.3535 20.4321 83.878C21.1553 83.4025 21.6067 82.7299 21.7864 81.8603Z" fill="#182F43"/>
<path d="M14.9513 65.1516L15.4794 63.6773L27.3414 67.926L26.8134 69.4003L25.356 68.8783C26.2114 70.0132 26.3883 71.2811 25.8865 72.682C25.4616 73.8682 24.6702 74.7255 23.5122 75.254C22.3429 75.7784 21.1368 75.818 19.8942 75.3729C18.6515 74.9278 17.7505 74.1335 17.1914 72.99C16.6209 71.8424 16.5482 70.6755 16.973 69.4893C17.4748 68.0885 18.4164 67.2212 19.7978 66.8875L14.9513 65.1516ZM24.5298 71.9857C24.8374 71.1271 24.8062 70.3066 24.4364 69.524C24.0554 68.7375 23.4355 68.1904 22.5769 67.8829C21.7183 67.5754 20.8978 67.6065 20.1153 67.9763C19.3214 68.342 18.7708 68.9542 18.4632 69.8128C18.1598 70.6601 18.1986 71.477 18.5797 72.2636C18.9494 73.0461 19.5636 73.5911 20.4222 73.8987C21.2808 74.2062 22.107 74.1771 22.9008 73.8113C23.6834 73.4415 24.2264 72.833 24.5298 71.9857Z" fill="#182F43"/>
<path d="M22.9632 56.5733L23.689 55.1856L31.6639 59.357L30.9381 60.7446L29.7897 60.144C30.3988 61.1803 30.4002 62.2779 29.7939 63.437C29.3045 64.3727 28.62 64.9694 27.7404 65.2271C26.8502 65.4792 25.9 65.341 24.8898 64.8127L19.9932 62.2515L20.719 60.8638L25.5359 63.3833C26.1845 63.7226 26.7813 63.8113 27.3264 63.6495C27.8608 63.4822 28.2893 63.0901 28.6119 62.4734C28.9734 61.7822 29.0528 61.1127 28.8499 60.4649C28.6364 59.8116 28.0831 59.2513 27.1899 58.7841L22.9632 56.5733Z" fill="#182F43"/>
<path d="M35.5788 53.8265C34.8013 54.9375 33.7859 55.6037 32.5325 55.825C31.2693 56.0394 30.0871 55.7613 28.986 54.9907C27.8848 54.2201 27.2236 53.2081 27.0023 51.9547C26.7711 50.6944 27.0443 49.5088 27.8218 48.3978C28.3309 47.6703 28.9655 47.1404 29.7253 46.808C30.4754 46.4687 31.2451 46.363 32.0346 46.4907L31.9005 48.0007C31.3765 47.9123 30.859 47.9822 30.3478 48.2103C29.8435 48.4286 29.4193 48.7835 29.0753 49.2751C28.5593 50.0125 28.3765 50.8073 28.527 51.6596C28.6844 52.5021 29.1367 53.1848 29.8839 53.7077C30.6212 54.2237 31.4126 54.4114 32.2581 54.2708C33.1104 54.1203 33.7945 53.6763 34.3106 52.939C34.6546 52.4474 34.8512 51.9258 34.9003 51.3743C34.9395 50.8159 34.8348 50.2959 34.586 49.8142L35.9839 49.1667C36.3438 49.8873 36.4942 50.6663 36.4354 51.5039C36.3666 52.3346 36.0811 53.1088 35.5788 53.8265Z" fill="#182F43"/>
<path d="M35.9292 41.0602L34.3638 42.8714L38.0545 46.0611C38.3904 46.3514 38.6859 46.4958 38.9411 46.4942C39.1949 46.4757 39.4441 46.3342 39.6886 46.0697C39.924 45.7973 40.2052 45.4536 40.5323 45.0384L41.5946 45.9564C40.8363 47.1092 40.0994 47.7966 39.3839 48.0189C38.6593 48.2333 37.8749 47.9756 37.0305 47.2459L33.3398 44.0563L32.1746 45.4045L31.0306 44.4159L32.1959 43.0676L30.6433 41.7258L31.3132 40.235L33.2198 41.8828L34.7852 40.0715L35.9292 41.0602Z" fill="#182F43"/>
<path d="M43.517 27.1954L44.7311 26.2063L52.6891 35.9752L51.4749 36.9643L50.4972 35.7641C50.6428 37.1778 50.1388 38.3545 48.9851 39.2943C48.0082 40.0901 46.8875 40.4149 45.6231 40.2686C44.351 40.1131 43.2981 39.5236 42.4644 38.5002C41.6308 37.4768 41.2701 36.3311 41.3826 35.0632C41.4875 33.786 42.0284 32.7495 43.0053 31.9537C44.159 31.0139 45.4133 30.7582 46.7684 31.1866L43.517 27.1954ZM48.1837 37.997C48.8908 37.421 49.2883 36.7025 49.3762 35.8415C49.4566 34.9711 49.2088 34.1824 48.6328 33.4754C48.0568 32.7683 47.3383 32.3708 46.4773 32.2828C45.6087 32.1855 44.8208 32.4249 44.1138 33.0009C43.416 33.5693 43.0269 34.2887 42.9465 35.159C42.8586 36.02 43.1026 36.8041 43.6786 37.5112C44.2546 38.2183 44.9769 38.6204 45.8455 38.7177C46.7065 38.8057 47.4859 38.5654 48.1837 37.997Z" fill="#182F43"/>
<path d="M53.3434 30.958C53.8934 31.5649 54.5297 31.909 55.2524 31.9903C55.9854 32.0654 56.7162 31.8823 57.4449 31.4409C58.4611 30.8254 58.9731 30.0031 58.9812 28.9741L60.5121 28.9306C60.4654 30.5443 59.6876 31.808 58.1789 32.722C56.9575 33.4618 55.7318 33.6851 54.502 33.3919C53.2762 33.0821 52.3089 32.3422 51.6001 31.1721C50.8976 30.0123 50.6878 28.8206 50.9708 27.597C51.2538 26.3733 51.9906 25.4009 53.1812 24.6797C54.3102 23.9958 55.4713 23.8397 56.6644 24.2113C57.8616 24.5664 58.799 25.3034 59.4767 26.4221C59.5948 26.6171 59.7007 26.8266 59.7942 27.0505L53.3434 30.958ZM53.9459 25.9422C53.2274 26.3774 52.7564 26.9432 52.533 27.6398C52.3033 28.3261 52.3372 29.0421 52.6346 29.7879L57.7768 26.6731C57.2225 26.0128 56.5994 25.6326 55.9075 25.5326C55.2156 25.4326 54.5617 25.5691 53.9459 25.9422Z" fill="#182F43"/>
<path d="M61.7701 23.0101C61.9128 23.3275 62.1871 23.5134 62.5931 23.5677C62.9942 23.611 63.4461 23.592 63.949 23.5107C64.4469 23.4184 64.9547 23.3479 65.4723 23.2994C65.985 23.2399 66.4813 23.3194 66.9611 23.5379C67.4359 23.7454 67.7988 24.1283 68.0498 24.6865C68.3844 25.4307 68.3625 26.1576 67.9842 26.8671C67.6168 27.5717 66.9844 28.1258 66.087 28.5293C65.288 28.8885 64.5252 29.021 63.7986 28.9266C63.0721 28.8323 62.458 28.5492 61.9564 28.0774L62.8703 26.8178C63.1788 27.1528 63.5653 27.354 64.0298 27.4215C64.4943 27.4889 64.9783 27.4095 65.4817 27.1831C65.9523 26.9715 66.3015 26.7093 66.5292 26.3964C66.752 26.0725 66.7773 25.7191 66.6051 25.336C66.4624 25.0186 66.1905 24.8382 65.7895 24.7949C65.3835 24.7406 64.9315 24.7596 64.4336 24.8519C63.9307 24.9333 63.4205 24.9982 62.9029 25.0467C62.3852 25.0952 61.889 25.0157 61.4141 24.8082C60.9393 24.6007 60.5788 24.2233 60.3328 23.6761C60.0129 22.9647 60.0233 22.2561 60.3639 21.5504C60.7154 20.8398 61.307 20.2974 62.1388 19.9235C62.8064 19.6233 63.4664 19.5108 64.1185 19.586C64.7767 19.6453 65.3577 19.884 65.8615 20.3022L64.9657 21.5142C64.3553 20.9466 63.6123 20.8596 62.7367 21.2533C62.3317 21.4353 62.0313 21.6888 61.8353 22.0138C61.6344 22.3278 61.6126 22.6599 61.7701 23.0101Z" fill="#182F43"/>
<path d="M68.084 15.9839C67.8015 16.0851 67.5299 16.074 67.2691 15.9508C67.0082 15.8275 66.8292 15.6303 66.7321 15.3592C66.635 15.088 66.6481 14.8221 66.7714 14.5612C66.8906 14.2891 67.0914 14.1024 67.3738 14.0013C67.645 13.9042 67.913 13.9229 68.1779 14.0574C68.4387 14.1807 68.6177 14.3779 68.7148 14.649C68.8119 14.9202 68.7988 15.1861 68.6756 15.447C68.5523 15.7078 68.3551 15.8868 68.084 15.9839ZM70.9255 26.2659L67.8907 17.7931L69.365 17.265L72.3998 25.7379L70.9255 26.2659Z" fill="#182F43"/>
<path d="M79.1968 14.4377L80.6983 14.0612L82.7951 22.4244C83.119 23.7164 82.9335 24.8269 82.2385 25.7558C81.5465 26.6963 80.5894 27.3198 79.3672 27.6262C78.3895 27.8713 77.4989 27.8967 76.6955 27.7022C75.895 27.5194 75.2282 27.1298 74.6952 26.5336L75.8339 25.4501C76.5563 26.3082 77.6275 26.5592 79.0476 26.2032C79.9555 25.9756 80.6057 25.5589 80.9982 24.9533C81.4023 24.3448 81.5008 23.6273 81.2936 22.8008L80.9828 21.5612C80.5064 22.9178 79.5582 23.7741 78.1381 24.1301C76.8926 24.4424 75.7284 24.2642 74.6452 23.5955C73.5621 22.9268 72.8615 21.9581 72.5434 20.6894C72.2253 19.4207 72.3875 18.2418 73.03 17.1529C73.6695 16.0523 74.612 15.3459 75.8575 15.0337C77.2892 14.6747 78.5278 14.9766 79.5732 15.9392L79.1968 14.4377ZM75.5088 22.3027C76.2512 22.7475 77.0648 22.859 77.9494 22.6372C78.834 22.4154 79.4987 21.9333 79.9435 21.1908C80.3883 20.4484 80.4998 19.6348 80.278 18.7502C80.0591 17.8772 79.5785 17.2183 78.836 16.7736C78.0936 16.3288 77.28 16.2173 76.3954 16.439C75.5108 16.6608 74.8461 17.143 74.4013 17.8854C73.9565 18.6279 73.8435 19.4356 74.0624 20.3086C74.2842 21.1932 74.7663 21.8579 75.5088 22.3027Z" fill="#182F43"/>
<path d="M88.6999 12.7145C89.7502 12.6047 90.6265 12.851 91.3289 13.4533C92.0301 14.0436 92.4399 14.9057 92.5583 16.0396L93.1325 21.5356L91.575 21.6984L91.0101 16.2918C90.9341 15.5637 90.6785 15.0234 90.2435 14.6707C89.8073 14.306 89.2431 14.1599 88.5508 14.2322C87.775 14.3132 87.174 14.6234 86.7477 15.1626C86.3202 15.6898 86.1588 16.4548 86.2635 17.4573L86.7592 22.2015L85.2017 22.3642L84.2665 13.4129L85.824 13.2502L85.9587 14.5392C86.4853 13.4586 87.399 12.8504 88.6999 12.7145Z" fill="#182F43"/>
<path d="M100.212 25.1384L101.106 8.60254L102.67 8.68709L101.776 25.2229L100.212 25.1384Z" fill="#182F43"/>
</svg>
