<svg width="195" height="195" viewBox="0 0 195 195" fill="none" xmlns="http://www.w3.org/2000/svg">
<path d="M170.033 107.109L172.926 106.292L173.342 100.637L170.598 99.4073L170.729 97.6301L182.951 103.238L182.812 105.123L169.902 108.886L170.033 107.109ZM174.861 101.327L174.53 105.832L180.89 104.025L174.861 101.327Z" fill="#182F43"/>
<path d="M177.65 116.531C177.372 117.76 176.684 118.705 175.586 119.367C174.501 120.032 173.314 120.218 172.027 119.927C170.74 119.635 169.743 118.954 169.038 117.884C168.345 116.816 168.138 115.668 168.416 114.439C168.745 112.988 169.575 112.013 170.906 111.515L165.885 110.377L166.231 108.85L178.52 111.634L178.174 113.162L176.664 112.82C177.65 113.843 177.979 115.08 177.65 116.531ZM169.935 114.58C169.736 115.458 169.867 116.263 170.329 116.995C170.802 117.73 171.484 118.198 172.373 118.399C173.262 118.601 174.073 118.471 174.805 118.009C175.549 117.55 176.02 116.882 176.219 116.004C176.421 115.115 176.285 114.302 175.812 113.568C175.35 112.836 174.674 112.369 173.785 112.167C172.896 111.966 172.079 112.094 171.335 112.553C170.603 113.015 170.136 113.691 169.935 114.58Z" fill="#182F43"/>
<path d="M173.974 128.391C173.514 129.564 172.692 130.395 171.507 130.884C170.334 131.377 169.133 131.383 167.904 130.901C166.675 130.418 165.793 129.595 165.257 128.431C164.732 127.271 164.7 126.105 165.161 124.932C165.704 123.547 166.671 122.708 168.062 122.416L163.27 120.536L163.842 119.078L175.571 123.681L174.999 125.138L173.558 124.573C174.379 125.733 174.518 127.006 173.974 128.391ZM166.64 125.3C166.312 126.138 166.32 126.953 166.666 127.747C167.024 128.544 167.627 129.11 168.476 129.443C169.325 129.776 170.146 129.77 170.939 129.423C171.744 129.082 172.31 128.492 172.639 127.654C172.972 126.805 172.96 125.982 172.603 125.184C172.257 124.391 171.659 123.828 170.81 123.495C169.961 123.161 169.134 123.166 168.33 123.507C167.537 123.854 166.974 124.451 166.64 125.3Z" fill="#182F43"/>
<path d="M158.307 138.135C158.953 137.152 159.737 136.461 160.659 136.062C161.576 135.674 162.527 135.602 163.514 135.849L163.415 137.507C161.871 137.081 160.618 137.6 159.656 139.065C159.182 139.787 158.965 140.434 159.005 141.006C159.055 141.585 159.326 142.036 159.818 142.359C160.319 142.688 160.821 142.745 161.322 142.528C161.823 142.312 162.507 141.85 163.374 141.142C163.805 140.793 164.136 140.529 164.368 140.351C164.609 140.18 164.931 139.975 165.332 139.736C165.737 139.513 166.085 139.376 166.378 139.324C166.68 139.279 167.028 139.285 167.421 139.342C167.808 139.41 168.191 139.568 168.573 139.819C169.485 140.419 169.996 141.214 170.106 142.205C170.226 143.203 169.983 144.163 169.377 145.086C168.83 145.918 168.145 146.502 167.321 146.837C166.492 147.182 165.629 147.282 164.732 147.138L164.826 145.52C166.206 145.781 167.271 145.339 168.023 144.196C168.398 143.624 168.561 143.071 168.511 142.535C168.461 142 168.195 141.574 167.713 141.257C167.252 140.954 166.792 140.889 166.334 141.062C165.876 141.235 165.25 141.642 164.455 142.283C164.174 142.514 163.974 142.677 163.854 142.771C163.735 142.865 163.543 143.004 163.278 143.189C163.007 143.384 162.801 143.522 162.662 143.603C162.523 143.683 162.332 143.788 162.09 143.916C161.841 144.054 161.634 144.14 161.467 144.175C161.301 144.209 161.1 144.242 160.864 144.274C160.631 144.322 160.42 144.327 160.23 144.288C160.04 144.249 159.832 144.184 159.605 144.092C159.381 144.017 159.159 143.907 158.939 143.762C158.016 143.156 157.5 142.336 157.389 141.301C157.289 140.274 157.595 139.218 158.307 138.135Z" fill="#182F43"/>
<path d="M157.693 151.695L159.218 149.85L155.459 146.742C155.117 146.459 154.818 146.321 154.563 146.328C154.31 146.352 154.063 146.499 153.825 146.769C153.595 147.047 153.322 147.396 153.004 147.819L151.922 146.924C152.655 145.755 153.376 145.052 154.087 144.814C154.807 144.584 155.597 144.824 156.457 145.535L160.216 148.643L161.352 147.27L162.517 148.234L161.381 149.607L162.963 150.915L162.326 152.42L160.383 150.814L158.858 152.659L157.693 151.695Z" fill="#182F43"/>
<path d="M146.335 154.108C146.367 152.81 146.858 151.703 147.808 150.787C148.758 149.871 149.883 149.42 151.181 149.435C152.47 149.459 153.577 149.95 154.502 150.909C155.427 151.868 155.877 152.992 155.854 154.281C155.822 155.579 155.331 156.686 154.38 157.602C153.43 158.519 152.306 158.969 151.008 158.954C149.71 158.939 148.598 158.452 147.674 157.493C146.749 156.535 146.303 155.406 146.335 154.108ZM148.87 151.888C148.222 152.513 147.891 153.258 147.875 154.124C147.859 154.989 148.168 155.75 148.801 156.406C149.434 157.063 150.183 157.399 151.049 157.415C151.914 157.43 152.67 157.126 153.318 156.501C153.958 155.885 154.285 155.144 154.301 154.279C154.316 153.413 154.008 152.652 153.375 151.996C152.742 151.339 151.992 151.003 151.127 150.987C150.262 150.972 149.509 151.272 148.87 151.888Z" fill="#182F43"/>
<path d="M146.788 161.881C147.066 163.079 146.671 164.094 145.601 164.927L144.594 163.635C145.222 163.192 145.618 162.625 145.78 161.936C145.943 161.246 145.722 160.513 145.117 159.737L142.186 155.974L143.422 155.012L148.952 162.112L147.717 163.074L146.788 161.881Z" fill="#182F43"/>
<path d="M140.29 162.099C139.734 161.498 139.094 161.161 138.37 161.088C137.636 161.021 136.908 161.212 136.184 161.661C135.174 162.288 134.671 163.116 134.675 164.145L133.144 164.205C133.173 162.591 133.937 161.319 135.436 160.388C136.649 159.635 137.872 159.398 139.105 159.678C140.334 159.974 141.31 160.703 142.031 161.865C142.746 163.017 142.969 164.207 142.7 165.433C142.43 166.66 141.704 167.641 140.522 168.375C139.4 169.071 138.241 169.24 137.044 168.882C135.843 168.54 134.897 167.813 134.207 166.702C134.087 166.508 133.979 166.3 133.883 166.077L140.29 162.099ZM139.743 167.121C140.457 166.678 140.922 166.107 141.137 165.408C141.359 164.719 141.318 164.003 141.012 163.261L135.904 166.432C136.466 167.086 137.093 167.46 137.786 167.552C138.479 167.644 139.132 167.501 139.743 167.121Z" fill="#182F43"/>
<path d="M117.074 170.603C117.856 168.993 119.11 167.893 120.836 167.303C122.562 166.714 124.227 166.818 125.83 167.615C127.434 168.412 128.528 169.668 129.113 171.383C129.702 173.109 129.604 174.772 128.819 176.371C128.037 177.982 126.783 179.082 125.057 179.671C123.331 180.26 121.666 180.156 120.063 179.359C118.452 178.578 117.352 177.324 116.763 175.598C116.177 173.883 116.281 172.218 117.074 170.603ZM125.106 169.06C123.918 168.477 122.671 168.408 121.365 168.854C120.059 169.299 119.12 170.114 118.548 171.299C117.968 172.498 117.901 173.751 118.347 175.057C118.797 176.374 119.615 177.325 120.804 177.908C121.984 178.507 123.228 178.584 124.534 178.138C125.84 177.692 126.782 176.87 127.362 175.67C127.934 174.486 127.996 173.235 127.546 171.918C127.1 170.611 126.287 169.659 125.106 169.06Z" fill="#182F43"/>
<path d="M109.906 179.733C108.662 179.931 107.529 179.644 106.506 178.871C105.486 178.11 104.872 177.077 104.665 175.774C104.457 174.47 104.719 173.292 105.451 172.24C106.185 171.2 107.174 170.581 108.418 170.383C109.887 170.149 111.101 170.557 112.058 171.608L111.248 166.524L112.795 166.278L114.776 178.721L113.229 178.967L112.986 177.438C112.402 178.734 111.376 179.499 109.906 179.733ZM108.851 171.845C107.962 171.986 107.264 172.407 106.756 173.108C106.249 173.82 106.068 174.627 106.211 175.528C106.355 176.428 106.777 177.133 107.477 177.641C108.18 178.161 108.975 178.35 109.864 178.209C110.765 178.065 111.468 177.638 111.975 176.925C112.483 176.224 112.665 175.424 112.522 174.523C112.378 173.623 111.956 172.912 111.253 172.392C110.552 171.884 109.752 171.702 108.851 171.845Z" fill="#182F43"/>
<path d="M97.6419 179.035L100.034 178.933L99.8267 174.059C99.8079 173.616 99.7104 173.302 99.5344 173.117C99.347 172.945 99.0731 172.86 98.7129 172.864C98.3533 172.879 97.9102 172.91 97.3837 172.956L97.3241 171.553C98.6832 171.316 99.6889 171.381 100.341 171.75C100.994 172.13 101.344 172.878 101.391 173.993L101.598 178.867L103.379 178.791L103.443 180.302L101.662 180.377L101.75 182.427L100.205 182.961L100.098 180.444L97.706 180.545L97.6419 179.035Z" fill="#182F43"/>
<path d="M94.2594 182.094C94.5592 182.103 94.808 182.213 95.0056 182.423C95.2032 182.634 95.2975 182.883 95.2886 183.17C95.2798 183.458 95.1702 183.701 94.96 183.899C94.7494 184.108 94.4942 184.208 94.1944 184.199C93.9065 184.19 93.664 184.075 93.4667 183.853C93.2691 183.642 93.1748 183.393 93.1836 183.105C93.1925 182.818 93.3021 182.575 93.5123 182.377C93.7225 182.18 93.9715 182.085 94.2594 182.094ZM95.3794 171.486L95.1016 180.481L93.5363 180.433L93.8142 171.437L95.3794 171.486Z" fill="#182F43"/>
<path d="M81.1275 179.272C80.1314 179.117 79.3757 178.666 78.8603 177.918C78.3431 177.182 78.1701 176.263 78.3413 175.16L79.2001 169.628L80.7476 169.868L79.8971 175.347C79.7903 176.035 79.8853 176.596 80.1822 177.03C80.479 177.465 80.9239 177.729 81.5168 177.821C82.1808 177.924 82.7494 177.781 83.2225 177.393C83.6819 177.015 83.9825 176.37 84.1243 175.457L84.892 170.512L86.4394 170.752L85.5889 176.23C85.4821 176.918 85.5712 177.479 85.8562 177.911C86.1293 178.342 86.5564 178.603 87.1374 178.693C87.7896 178.794 88.3701 178.654 88.8788 178.271C89.3756 177.887 89.694 177.244 89.8339 176.343L90.6016 171.398L92.149 171.638L90.7683 180.532L89.2209 180.292L89.4059 179.1C88.6538 179.955 87.6968 180.292 86.5347 180.111C85.3371 179.926 84.5437 179.286 84.1548 178.194C83.3817 179.106 82.3726 179.465 81.1275 179.272Z" fill="#182F43"/>
<path d="M73.5482 178.825C73.8365 178.908 74.0506 179.076 74.1903 179.328C74.33 179.58 74.3601 179.845 74.2806 180.122C74.2011 180.399 74.0351 180.607 73.7827 180.747C73.527 180.898 73.2549 180.932 72.9666 180.849C72.6898 180.77 72.4832 180.598 72.3468 180.334C72.2071 180.082 72.177 179.817 72.2565 179.54C72.336 179.263 72.502 179.055 72.7544 178.915C73.0068 178.776 73.2714 178.746 73.5482 178.825ZM77.2472 168.82L74.7618 177.47L73.2567 177.037L75.7421 168.387L77.2472 168.82Z" fill="#182F43"/>
<path d="M71.6831 168.628L67.2066 166.929L67.7367 165.532L74.2158 167.991L73.8454 168.967L67.2612 173.38L71.3843 174.945L70.8542 176.342L64.7116 174.011L65.0821 173.035L71.6831 168.628Z" fill="#182F43"/>
<path d="M55.485 169.365L54.1055 168.624L58.3651 160.696L59.7446 161.437L59.0119 162.801C60.2613 162.123 61.5414 162.137 62.8522 162.841C63.9621 163.437 64.6924 164.347 65.043 165.571C65.388 166.805 65.2481 168.004 64.6233 169.167C63.9986 170.329 63.0793 171.102 61.8654 171.486C60.6458 171.879 59.4811 171.778 58.3711 171.182C57.0604 170.477 56.3425 169.417 56.2177 168.002L55.485 169.365ZM61.9622 164.079C61.1588 163.648 60.3427 163.557 59.5139 163.806C58.6795 164.066 58.0464 164.598 57.6148 165.401C57.1832 166.205 57.0921 167.021 57.3416 167.849C57.5854 168.689 58.1089 169.324 58.9123 169.756C59.7051 170.182 60.5188 170.265 61.3532 170.005C62.182 169.755 62.8122 169.229 63.2438 168.426C63.6755 167.622 63.7694 166.801 63.5256 165.961C63.2761 165.133 62.755 164.505 61.9622 164.079Z" fill="#182F43"/>
<path d="M48.2273 162.714L50.1837 164.094L52.9952 160.108C53.2511 159.745 53.3657 159.436 53.3391 159.183C53.2957 158.932 53.1304 158.698 52.8432 158.48C52.549 158.273 52.1792 158.027 51.7339 157.742L52.5431 156.595C53.7648 157.236 54.5214 157.902 54.8129 158.592C55.0974 159.292 54.9181 160.098 54.2749 161.01L51.4634 164.996L52.9196 166.023L52.0481 167.259L50.5919 166.232L49.4092 167.909L47.8597 167.389L49.3122 165.329L47.3558 163.95L48.2273 162.714Z" fill="#182F43"/>
<path d="M43.9817 163.335C44.215 163.524 44.3468 163.762 44.3772 164.049C44.4076 164.335 44.3322 164.591 44.1511 164.815C43.9701 165.039 43.7361 165.166 43.4492 165.196C43.1547 165.236 42.8909 165.162 42.6576 164.973C42.4336 164.792 42.3102 164.553 42.2874 164.257C42.2571 163.97 42.3324 163.715 42.5135 163.491C42.6946 163.267 42.9286 163.14 43.2155 163.109C43.5024 163.079 43.7578 163.154 43.9817 163.335ZM51.2863 155.561L45.6275 162.56L44.4098 161.575L50.0686 154.576L51.2863 155.561Z" fill="#182F43"/>
<path d="M42.3742 148.968C43.6724 148.962 44.7933 149.421 45.7368 150.344C46.6803 151.267 47.1634 152.378 47.186 153.676C47.2001 154.966 46.7413 156.087 45.8098 157.039C44.8782 157.991 43.7676 158.474 42.4779 158.488C41.1797 158.493 40.0588 158.035 39.1153 157.112C38.1718 156.188 37.6887 155.078 37.6661 153.78C37.6435 152.482 38.0979 151.357 39.0295 150.405C39.961 149.452 41.0759 148.974 42.3742 148.968ZM44.6668 151.438C44.0235 150.808 43.2691 150.498 42.4037 150.508C41.5382 150.517 40.7866 150.848 40.1488 151.5C39.511 152.152 39.1968 152.91 39.2062 153.776C39.2157 154.641 39.542 155.389 40.1853 156.018C40.82 156.639 41.5701 156.945 42.4356 156.935C43.301 156.926 44.0526 156.595 44.6905 155.943C45.3283 155.292 45.6425 154.533 45.633 153.667C45.6236 152.802 45.3015 152.059 44.6668 151.438Z" fill="#182F43"/>
<path d="M31.3828 148.398C30.737 147.563 30.4854 146.688 30.6281 145.774C30.7613 144.867 31.2788 144.065 32.1807 143.368L36.5527 139.988L37.5105 141.227L33.2097 144.552C32.6306 144.999 32.3055 145.501 32.2344 146.056C32.1538 146.619 32.3263 147.176 32.752 147.727C33.229 148.344 33.809 148.692 34.4918 148.771C35.1651 148.857 35.9005 148.592 36.698 147.975L40.4719 145.058L41.4296 146.297L34.3092 151.801L33.3514 150.562L34.3767 149.77C33.1808 149.89 32.1828 149.433 31.3828 148.398Z" fill="#182F43"/>
<path d="M36.0198 132.213L21.4609 140.104L20.7147 138.728L35.2735 130.836L36.0198 132.213Z" fill="#182F43"/>
<path d="M27.7509 121.992C28.135 123.103 28.2033 124.146 27.9558 125.12C27.7045 126.083 27.18 126.88 26.3823 127.511L25.1295 126.42C26.4093 125.458 26.7631 124.148 26.191 122.493C25.9088 121.676 25.5289 121.109 25.051 120.792C24.5618 120.478 24.0394 120.417 23.4836 120.609C22.9165 120.805 22.5656 121.168 22.431 121.697C22.2963 122.226 22.2446 123.05 22.2758 124.169C22.2894 124.723 22.2959 125.146 22.2953 125.438C22.2834 125.734 22.2496 126.114 22.1939 126.578C22.123 127.034 22.0188 127.394 21.8812 127.657C21.7323 127.924 21.5152 128.196 21.2298 128.472C20.9405 128.737 20.5803 128.944 20.1493 129.093C19.1172 129.45 18.1751 129.369 17.3232 128.851C16.4599 128.337 15.848 127.558 15.4875 126.514C15.1623 125.573 15.1183 124.674 15.3557 123.818C15.5891 122.95 16.0363 122.205 16.6975 121.583L17.9215 122.645C16.8729 123.579 16.572 124.692 17.0187 125.985C17.2421 126.632 17.5811 127.099 18.0359 127.386C18.4906 127.673 18.9902 127.723 19.5346 127.535C20.0563 127.354 20.3887 127.03 20.5315 126.562C20.6744 126.093 20.7346 125.349 20.7121 124.328C20.7006 123.964 20.6939 123.706 20.6923 123.554C20.6906 123.403 20.6975 123.165 20.713 122.843C20.7245 122.508 20.7408 122.262 20.7618 122.102C20.7829 121.942 20.8166 121.728 20.863 121.458C20.9054 121.176 20.9638 120.959 21.038 120.807C21.1123 120.654 21.209 120.475 21.3282 120.269C21.4321 120.055 21.5574 119.885 21.704 119.758C21.8506 119.631 22.0295 119.506 22.2407 119.382C22.4366 119.251 22.6593 119.142 22.9088 119.056C23.9523 118.695 24.9172 118.787 25.8036 119.332C26.6786 119.88 27.3277 120.767 27.7509 121.992Z" fill="#182F43"/>
<path d="M21.8215 116.255C22.5797 115.945 23.1204 115.464 23.4436 114.813C23.7645 114.15 23.842 113.4 23.676 112.565C23.4445 111.399 22.8465 110.637 21.8821 110.278L22.364 108.824C23.8647 109.419 24.7869 110.582 25.1307 112.312C25.4089 113.713 25.2003 114.941 24.5047 115.997C23.795 117.043 22.7692 117.7 21.4274 117.966C20.0974 118.23 18.9057 118.021 17.8523 117.337C16.7988 116.653 16.1365 115.628 15.8652 114.263C15.608 112.968 15.8578 111.824 16.6145 110.829C17.3571 109.825 18.3698 109.196 19.6528 108.941C19.8764 108.897 20.1094 108.869 20.3518 108.857L21.8215 116.255ZM17.3129 113.975C17.4766 114.799 17.8476 115.435 18.426 115.883C18.9926 116.333 19.6771 116.546 20.4797 116.521L19.3082 110.624C18.4982 110.92 17.9281 111.376 17.5979 111.992C17.2676 112.608 17.1726 113.269 17.3129 113.975Z" fill="#182F43"/>
<path d="M14.4734 99.5652L14.3949 98.0012L23.3836 97.5499L23.4621 99.1139L21.9161 99.1916C23.1417 99.911 23.7918 101.014 23.8664 102.5C23.9296 103.758 23.528 104.854 22.6617 105.786C21.7834 106.72 20.6851 107.219 19.3667 107.286C18.0484 107.352 16.9115 106.964 15.9561 106.123C14.9888 105.283 14.4735 104.233 14.4103 102.975C14.3357 101.489 14.8721 100.326 16.0195 99.4876L14.4734 99.5652ZM22.3464 102.378C22.3007 101.467 21.9568 100.721 21.3149 100.141C20.661 99.561 19.8786 99.2938 18.9678 99.3396C18.0569 99.3853 17.3112 99.7291 16.7307 100.371C16.1382 101.014 15.8648 101.79 15.9105 102.701C15.9556 103.6 16.3051 104.339 16.959 104.919C17.601 105.5 18.3773 105.767 19.2882 105.722C20.199 105.676 20.9507 105.332 21.5433 104.689C22.1238 104.047 22.3915 103.277 22.3464 102.378Z" fill="#182F43"/>
<path d="M16.1522 93.1887C15.0701 92.6048 14.571 91.6362 14.6546 90.2828L16.2895 90.3838C16.2062 91.1481 16.3691 91.8195 16.7782 92.3978C17.1873 92.9761 17.8829 93.2957 18.865 93.3564L23.6259 93.6506L23.5293 95.2137L14.5465 94.6584L14.6431 93.0954L16.1522 93.1887Z" fill="#182F43"/>
<path d="M24.755 85.7328C24.5367 87.0711 23.911 88.1119 22.8779 88.8553C21.8329 89.5968 20.6472 89.8593 19.3207 89.6429C17.9942 89.4266 16.9593 88.8018 16.2159 87.7687C15.4607 86.7336 15.1922 85.5469 15.4105 84.2086C15.5535 83.3322 15.8951 82.5794 16.4355 81.9501C16.964 81.319 17.6115 80.8896 18.3782 80.6621L18.9128 82.0806C18.4023 82.2284 17.9663 82.516 17.6048 82.9433C17.2452 83.3589 17.0172 83.8627 16.9206 84.4549C16.7757 85.3432 16.956 86.1386 17.4615 86.8411C17.9689 87.5318 18.6727 87.9506 19.5728 88.0974C20.4611 88.2423 21.2555 88.0679 21.9561 87.5742C22.6586 87.0687 23.0823 86.3718 23.2272 85.4836C23.3238 84.8914 23.2745 84.3362 23.0794 83.8181C22.8724 83.298 22.5524 82.8749 22.1192 82.5489L23.0975 81.3589C23.7345 81.8519 24.2082 82.4884 24.5186 83.2686C24.8173 84.0468 24.8961 84.8682 24.755 85.7328Z" fill="#182F43"/>
<path d="M17.8643 73.7944C18.1712 72.784 18.7387 72.0722 19.5665 71.659C20.3829 71.2423 21.3365 71.1997 22.4272 71.531L27.7146 73.1373L27.2594 74.6357L22.0581 73.0556C21.3577 72.8428 20.7605 72.8683 20.2665 73.1321C19.761 73.3924 19.4071 73.8555 19.2048 74.5215C18.9781 75.2678 19.0304 75.9421 19.3616 76.5444C19.6813 77.1432 20.3235 77.5891 21.2879 77.8821L25.852 79.2686L25.3968 80.767L13.3408 77.1045L13.796 75.6061L18.4806 77.0293C17.6895 76.1242 17.4841 75.046 17.8643 73.7944Z" fill="#182F43"/>
<path d="M29.7113 64.5835L32.4609 59.42L33.8591 60.1645L30.3226 66.8056L19.2012 60.8833L22.6953 54.3217L24.0935 55.0662L21.3861 60.1503L24.802 61.9692L27.2978 57.2824L28.68 58.0184L26.1842 62.7053L29.7113 64.5835Z" fill="#182F43"/>
<path d="M29.7623 49.7826C30.3773 48.9241 31.1431 48.432 32.0597 48.3063C32.9666 48.1736 33.8835 48.4392 34.8102 49.103L39.3026 52.3209L38.3907 53.594L33.9715 50.4285C33.3764 50.0023 32.8026 49.8348 32.2501 49.9261C31.6878 50.0105 31.204 50.3355 30.7987 50.9014C30.3445 51.5355 30.1776 52.1909 30.2981 52.8676C30.4088 53.5373 30.8738 54.1657 31.6933 54.7527L35.5711 57.5304L34.6592 58.8035L27.3426 53.5625L28.2545 52.2894L29.3081 53.0441C28.8492 51.9331 29.0006 50.8459 29.7623 49.7826Z" fill="#182F43"/>
<path d="M39.1491 39.1283L40.2196 38.0101L46.4477 43.9725C47.4098 44.8936 47.8441 45.9323 47.7505 47.0886C47.6656 48.2532 47.1874 49.2906 46.3161 50.2008C45.6191 50.9289 44.8787 51.4246 44.0952 51.6878C43.3203 51.9593 42.5485 51.9846 41.7798 51.7637L42.1667 50.2403C43.2351 50.582 44.2754 50.224 45.2878 49.1665C45.9351 48.4904 46.2636 47.7915 46.2733 47.0699C46.2913 46.3396 45.9926 45.6798 45.3772 45.0907L44.454 44.2069C44.7732 45.6088 44.4265 46.8386 43.4141 47.8961C42.5262 48.8236 41.4458 49.2927 40.173 49.3035C38.9001 49.3143 37.7913 48.8674 36.8464 47.9629C35.9016 47.0584 35.4112 45.9742 35.3751 44.7104C35.3304 43.4383 35.752 42.3385 36.6399 41.411C37.6606 40.3448 38.8697 39.9407 40.2673 40.1988L39.1491 39.1283ZM40.2155 47.7494C41.0808 47.7305 41.8288 47.3917 42.4594 46.7329C43.0901 46.0741 43.396 45.3121 43.3771 44.4468C43.3583 43.5815 43.0194 42.8335 42.3607 42.2029C41.7105 41.5805 40.9528 41.2787 40.0875 41.2976C39.2222 41.3165 38.4743 41.6553 37.8436 42.3141C37.2129 42.9729 36.907 43.7349 36.9259 44.6002C36.9447 45.4655 37.2792 46.2093 37.9294 46.8317C38.5881 47.4624 39.3502 47.7683 40.2155 47.7494Z" fill="#182F43"/>
<path d="M42.064 34.2702C41.8363 34.4655 41.5787 34.5522 41.291 34.5302C41.0033 34.5082 40.7657 34.3879 40.5782 34.1693C40.3907 33.9507 40.3079 33.6976 40.3299 33.4099C40.3441 33.1132 40.4651 32.8671 40.6927 32.6718C40.9113 32.4843 41.1684 32.4061 41.4638 32.4372C41.7515 32.4592 41.9891 32.5794 42.1766 32.798C42.3641 33.0166 42.4469 33.2697 42.4249 33.5574C42.4029 33.8451 42.2826 34.0826 42.064 34.2702ZM48.3896 42.8598L42.5295 36.0291L43.718 35.0094L49.5781 41.8401L48.3896 42.8598Z" fill="#182F43"/>
<path d="M49.3941 30.3264C50.2571 29.7177 51.1421 29.5047 52.0491 29.6873C52.9492 29.8601 53.7278 30.4123 54.3849 31.3439L57.5699 35.8597L56.2902 36.7623L53.157 32.32C52.7351 31.7218 52.2483 31.375 51.6964 31.2797C51.1377 31.1745 50.5739 31.3225 50.0051 31.7236C49.3677 32.1732 48.9947 32.7373 48.886 33.4161C48.7704 34.085 49.0031 34.8313 49.5841 35.655L52.3333 39.553L51.0536 40.4556L45.8663 33.1009L47.146 32.1983L47.893 33.2574C47.8248 32.0573 48.3252 31.0803 49.3941 30.3264Z" fill="#182F43"/>
<path d="M58.4088 30.9394C58.9173 31.5814 59.5294 31.967 60.2451 32.0961C60.9714 32.2197 61.7128 32.0854 62.4693 31.6933C63.524 31.1466 64.0895 30.3601 64.1658 29.3339L65.6963 29.3921C65.5426 30.9991 64.6827 32.2085 63.1165 33.0203C61.8487 33.6775 60.611 33.819 59.4033 33.4448C58.2008 33.0544 57.2847 32.2519 56.6551 31.0374C56.0311 29.8335 55.9009 28.6305 56.2644 27.4283C56.628 26.2262 57.4277 25.3048 58.6635 24.6642C59.8354 24.0567 61.0043 23.978 62.1702 24.4279C63.3412 24.8617 64.2276 25.6592 64.8296 26.8205C64.9345 27.0229 65.0262 27.2389 65.1047 27.4686L58.4088 30.9394ZM59.3428 25.9746C58.597 26.3612 58.0895 26.8945 57.8203 27.5747C57.5456 28.2442 57.5319 28.961 57.7792 29.7248L63.1168 26.9581C62.6075 26.2625 62.011 25.8418 61.3272 25.6961C60.6435 25.5504 59.982 25.6432 59.3428 25.9746Z" fill="#182F43"/>
<path d="M82.4761 24.1049C81.5691 25.6486 80.2318 26.6456 78.4643 27.0959C76.6967 27.5462 75.0455 27.3106 73.5104 26.389C71.9754 25.4674 70.9842 24.1287 70.5369 22.3728C70.0866 20.6052 70.3164 18.9554 71.2264 17.4234C72.1333 15.8797 73.4706 14.8827 75.2381 14.4324C77.0057 13.9821 78.657 14.2177 80.192 15.1393C81.7357 16.0463 82.7327 17.3835 83.183 19.1511C83.6303 20.907 83.3947 22.5583 82.4761 24.1049ZM74.3468 25.0057C75.4849 25.6817 76.7226 25.8493 78.0599 25.5086C79.3972 25.1679 80.398 24.43 81.0623 23.2949C81.7353 22.1451 81.9015 20.9016 81.5608 19.5643C81.2171 18.2154 80.4763 17.203 79.3382 16.527C78.2087 15.8365 76.9754 15.6616 75.6381 16.0022C74.3008 16.3429 73.2957 17.0881 72.6227 18.2379C71.9583 19.373 71.798 20.615 72.1416 21.964C72.4823 23.3012 73.2174 24.3152 74.3468 25.0057Z" fill="#182F43"/>
<path d="M90.2193 15.5399C91.4752 15.438 92.583 15.8116 93.5429 16.6607C94.5017 17.4979 95.0346 18.5743 95.1414 19.89C95.2482 21.2056 94.8964 22.3599 94.0861 23.3527C93.2748 24.3335 92.2412 24.8749 90.9853 24.9769C89.5022 25.0973 88.3239 24.597 87.4503 23.476L87.8668 28.6071L86.306 28.7338L85.2865 16.1751L86.8474 16.0484L86.9726 17.5913C87.6539 16.3441 88.7362 15.6603 90.2193 15.5399ZM90.6657 23.4859C91.5627 23.4131 92.2915 23.0469 92.8519 22.3874C93.4115 21.7159 93.6543 20.9257 93.5805 20.0167C93.5067 19.1076 93.1401 18.3729 92.4806 17.8124C91.8201 17.24 91.0413 16.9902 90.1443 17.063C89.2353 17.1368 88.501 17.5094 87.9415 18.1809C87.381 18.8404 87.1377 19.6247 87.2115 20.5337C87.2853 21.4427 87.6524 22.1834 88.3129 22.7558C88.9724 23.3163 89.7566 23.5597 90.6657 23.4859Z" fill="#182F43"/>
<path d="M102.502 17.1627L100.11 17.0703L99.9216 21.9447C99.9045 22.3883 99.9762 22.7093 100.137 22.9077C100.31 23.0945 100.576 23.2008 100.935 23.2267C101.295 23.2406 101.739 23.2457 102.267 23.2421L102.213 24.6451C100.839 24.7722 99.8421 24.6256 99.2219 24.2053C98.6021 23.7731 98.3138 22.9994 98.3568 21.8842L98.545 17.0099L96.7644 16.9411L96.8227 15.4302L98.6034 15.499L98.6825 13.4485L100.265 13.0413L100.168 15.5594L102.56 15.6518L102.502 17.1627Z" fill="#182F43"/>
<path d="M105.976 14.3351C105.678 14.3028 105.439 14.1742 105.258 13.9494C105.077 13.7247 105.002 13.4691 105.033 13.1828C105.064 12.8964 105.192 12.6629 105.417 12.482C105.643 12.2893 105.905 12.209 106.203 12.2414C106.49 12.2724 106.723 12.4063 106.902 12.643C107.083 12.8678 107.158 13.1233 107.127 13.4097C107.096 13.696 106.968 13.9296 106.743 14.1104C106.518 14.2912 106.263 14.3661 105.976 14.3351ZM104.043 24.8259L105.013 15.8783L106.569 16.047L105.6 24.9946L104.043 24.8259Z" fill="#182F43"/>
<path d="M119.012 18.177C119.993 18.4109 120.71 18.9213 121.164 19.7081C121.62 20.4833 121.719 21.4136 121.46 22.4991L120.16 27.9442L118.637 27.5808L119.924 22.1882C120.086 21.5112 120.036 20.9441 119.775 20.4871C119.514 20.03 119.091 19.7318 118.508 19.5926C117.854 19.4366 117.276 19.533 116.773 19.8819C116.285 20.2218 115.934 20.8412 115.719 21.74L114.558 26.6073L113.035 26.2438L114.321 20.8512C114.483 20.1742 114.439 19.6086 114.19 19.1543C113.952 18.7028 113.547 18.4088 112.975 18.2723C112.333 18.1192 111.743 18.2128 111.206 18.5533C110.68 18.8966 110.311 19.5118 110.099 20.3989L108.938 25.2662L107.414 24.9027L109.503 16.1485L111.027 16.512L110.747 17.6851C111.565 16.8933 112.546 16.6339 113.69 16.9069C114.869 17.1882 115.608 17.889 115.908 19.0093C116.752 18.1619 117.787 17.8845 119.012 18.177Z" fill="#182F43"/>
<path d="M126.367 19.1295C126.086 19.0241 125.886 18.8401 125.766 18.5774C125.647 18.3148 125.638 18.0486 125.739 17.779C125.84 17.5093 126.022 17.3148 126.285 17.1955C126.552 17.065 126.826 17.0524 127.107 17.1578C127.376 17.2589 127.569 17.4465 127.684 17.7204C127.803 17.983 127.812 18.2492 127.711 18.5188C127.61 18.7885 127.428 18.983 127.165 19.1023C126.903 19.2216 126.636 19.2307 126.367 19.1295ZM121.888 28.8112L125.05 20.3849L126.516 20.935L123.354 29.3614L121.888 28.8112Z" fill="#182F43"/>
<path d="M127.497 29.4452L131.826 31.4894L131.189 32.8404L124.922 29.8816L125.368 28.9375L132.277 25.0539L128.29 23.171L128.927 21.82L134.868 24.6251L134.423 25.5692L127.497 29.4452Z" fill="#182F43"/>
<path d="M143.921 30.0839L145.236 30.9343L140.349 38.4919L139.034 37.6416L139.875 36.3417C138.575 36.9157 137.3 36.7988 136.05 35.9908C134.992 35.3066 134.338 34.3405 134.087 33.0925C133.844 31.8344 134.08 30.6511 134.797 29.5427C135.513 28.4342 136.492 27.7382 137.733 27.4545C138.981 27.1608 140.133 27.356 141.191 28.0402C142.441 28.8482 143.071 29.9627 143.081 31.3839L143.921 30.0839ZM137.038 34.8286C137.803 35.3238 138.609 35.4806 139.456 35.299C140.308 35.1074 140.982 34.6286 141.478 33.8628C141.973 33.0969 142.13 32.2909 141.948 31.4446C141.773 30.5883 141.302 29.9126 140.537 29.4174C139.781 28.9287 138.977 28.7802 138.124 28.9719C137.278 29.1535 136.607 29.6272 136.112 30.393C135.616 31.1589 135.456 31.9699 135.632 32.8262C135.813 33.6725 136.282 34.3399 137.038 34.8286Z" fill="#182F43"/>
<path d="M150.465 37.1169L148.62 35.5914L145.512 39.3508C145.229 39.693 145.091 39.9916 145.098 40.2466C145.122 40.5001 145.269 40.7461 145.539 40.9847C145.817 41.2141 146.166 41.4878 146.589 41.8057L145.694 42.8878C144.525 42.1548 143.822 41.4331 143.584 40.7226C143.354 40.0029 143.594 39.213 144.305 38.3529L147.414 34.5935L146.04 33.458L147.004 32.2927L148.377 33.4282L149.685 31.8468L151.19 32.484L149.584 34.4261L151.429 35.9516L150.465 37.1169Z" fill="#182F43"/>
<path d="M154.881 36.9344C154.664 36.7278 154.552 36.4802 154.544 36.1918C154.537 35.9034 154.632 35.6548 154.831 35.4461C155.029 35.2373 155.273 35.1293 155.561 35.1219C155.858 35.1059 156.115 35.2012 156.332 35.4079C156.541 35.6063 156.645 35.854 156.644 36.1511C156.651 36.4395 156.556 36.6881 156.357 36.8969C156.159 37.1056 155.916 37.2137 155.627 37.221C155.339 37.2284 155.09 37.1328 154.881 36.9344ZM146.979 44.0999L153.179 37.5761L154.314 38.655L148.114 45.1787L146.979 44.0999Z" fill="#182F43"/>
<path d="M155.468 51.4928C154.174 51.3947 153.093 50.8479 152.226 49.8524C151.36 48.8568 150.967 47.7112 151.048 46.4154C151.137 45.1287 151.684 44.0481 152.688 43.1734C153.693 42.2988 154.839 41.906 156.125 41.995C157.42 42.093 158.501 42.6398 159.367 43.6354C160.234 44.6309 160.627 45.7766 160.546 47.0723C160.465 48.3681 159.922 49.4533 158.917 50.3279C157.913 51.2025 156.763 51.5908 155.468 51.4928ZM153.38 48.8477C153.971 49.5265 154.699 49.8958 155.562 49.9555C156.425 50.0152 157.201 49.7456 157.889 49.1468C158.577 48.5479 158.95 47.8168 159.01 46.9534C159.07 46.0899 158.804 45.3188 158.213 44.64C157.63 43.9703 156.907 43.6056 156.044 43.5458C155.18 43.4861 154.404 43.7557 153.717 44.3545C153.029 44.9534 152.655 45.6845 152.595 46.548C152.536 47.4114 152.797 48.178 153.38 48.8477Z" fill="#182F43"/>
<path d="M166.238 52.693C166.817 53.5756 167.001 54.4671 166.789 55.3676C166.587 56.2616 166.009 57.0216 165.056 57.6476L160.438 60.6821L159.578 59.3734L164.121 56.3883C164.733 55.9863 165.096 55.5111 165.209 54.9627C165.333 54.4077 165.203 53.8394 164.821 53.2577C164.393 52.6058 163.841 52.2144 163.166 52.0834C162.502 51.9459 161.748 52.1538 160.906 52.7074L156.919 55.3268L156.059 54.018L163.581 49.0758L164.441 50.3845L163.358 51.0962C164.559 51.0676 165.519 51.5999 166.238 52.693Z" fill="#182F43"/>
<path d="M160.398 68.4873L175.526 61.7529L176.163 63.1836L161.034 69.9179L160.398 68.4873Z" fill="#182F43"/>
</svg>
