<svg width="195" height="195" viewBox="0 0 195 195" fill="none" xmlns="http://www.w3.org/2000/svg">
<path d="M185.249 111.069L172.698 109.953L172.845 108.304L182.652 109.176L176.186 104.463L176.205 104.247L183.384 100.748L173.594 99.8769L173.743 98.2095L186.293 99.3257L186.126 101.208L179.136 104.617L185.416 109.187L185.249 111.069Z" fill="#182F43"/>
<path d="M171.514 119.549C170.854 118.431 170.685 117.231 171.006 115.951C171.327 114.671 172.042 113.693 173.151 113.019C174.258 112.356 175.457 112.186 176.749 112.51C178.041 112.834 179.018 113.549 179.681 114.656C180.341 115.774 180.511 116.973 180.19 118.254C179.869 119.534 179.153 120.511 178.044 121.186C176.935 121.86 175.734 122.036 174.442 121.712C173.15 121.388 172.174 120.667 171.514 119.549ZM172.49 116.323C172.271 117.196 172.384 118.004 172.829 118.746C173.274 119.489 173.938 119.971 174.823 120.193C175.708 120.414 176.521 120.303 177.264 119.858C178.006 119.413 178.487 118.754 178.705 117.881C178.921 117.02 178.807 116.218 178.362 115.476C177.917 114.733 177.253 114.251 176.368 114.029C175.483 113.808 174.67 113.919 173.927 114.364C173.185 114.809 172.706 115.462 172.49 116.323Z" fill="#182F43"/>
<path d="M174.878 129.023L175.711 126.778L171.137 125.082C170.721 124.927 170.393 124.895 170.155 124.986C169.924 125.092 169.74 125.312 169.603 125.645C169.478 125.983 169.335 126.403 169.174 126.907L167.857 126.419C168.164 125.073 168.614 124.171 169.207 123.713C169.81 123.258 170.635 123.225 171.682 123.613L176.255 125.31L176.875 123.639L178.293 124.165L177.673 125.836L179.597 126.549L179.491 128.18L177.128 127.304L176.296 129.549L174.878 129.023Z" fill="#182F43"/>
<path d="M176.534 133.043C176.657 132.769 176.854 132.581 177.123 132.478C177.393 132.376 177.659 132.384 177.922 132.502C178.185 132.62 178.367 132.814 178.47 133.084C178.583 133.358 178.578 133.632 178.455 133.906C178.337 134.169 178.138 134.349 177.857 134.446C177.587 134.549 177.321 134.541 177.058 134.423C176.796 134.305 176.613 134.111 176.511 133.841C176.408 133.571 176.416 133.305 176.534 133.043ZM167.157 127.958L175.365 131.648L174.723 133.077L166.514 129.386L167.157 127.958Z" fill="#182F43"/>
<path d="M163.039 138.33C162.7 137.077 162.856 135.876 163.507 134.727C164.157 133.578 165.107 132.826 166.355 132.472C167.598 132.127 168.799 132.283 169.959 132.94C171.118 133.596 171.869 134.545 172.214 135.788C172.552 137.042 172.396 138.243 171.746 139.392C171.095 140.54 170.146 141.292 168.897 141.647C167.648 142.001 166.444 141.851 165.285 141.194C164.126 140.538 163.377 139.583 163.039 138.33ZM164.838 135.481C164.395 136.264 164.288 137.073 164.52 137.907C164.751 138.741 165.263 139.382 166.057 139.832C166.85 140.281 167.664 140.39 168.498 140.159C169.332 139.928 169.971 139.421 170.414 138.638C170.852 137.865 170.955 137.062 170.724 136.228C170.493 135.393 169.981 134.752 169.187 134.302C168.393 133.853 167.58 133.744 166.745 133.975C165.911 134.206 165.276 134.708 164.838 135.481Z" fill="#182F43"/>
<path d="M165.38 149.056C164.743 149.899 163.965 150.371 163.045 150.473C162.135 150.583 161.226 150.294 160.316 149.607L155.907 146.275L156.852 145.026L161.189 148.303C161.773 148.744 162.342 148.926 162.897 148.849C163.461 148.779 163.953 148.467 164.372 147.911C164.843 147.289 165.026 146.638 164.923 145.959C164.83 145.286 164.381 144.646 163.576 144.038L159.771 141.163L160.715 139.913L167.895 145.339L166.951 146.589L165.917 145.807C166.348 146.93 166.168 148.013 165.38 149.056Z" fill="#182F43"/>
<path d="M148.481 148.918L159.976 160.838L158.848 161.925L147.353 150.005L148.481 148.918Z" fill="#182F43"/>
<path d="M147.937 168.988C146.524 169.962 145.006 170.265 143.382 169.897C141.756 169.545 140.442 168.644 139.441 167.191C138.441 165.738 138.062 164.185 138.307 162.53C138.548 160.892 139.375 159.586 140.788 158.613L144.835 155.825L151.983 166.2L147.937 168.988ZM141.687 159.917C140.629 160.645 140.02 161.612 139.859 162.816C139.697 164.02 139.998 165.175 140.761 166.282C141.523 167.389 142.496 168.081 143.678 168.359C144.861 168.638 145.981 168.412 147.038 167.684L149.706 165.846L144.355 158.079L141.687 159.917Z" fill="#182F43"/>
<path d="M135.936 167.5C135.437 166.851 134.83 166.456 134.117 166.317C133.392 166.182 132.649 166.305 131.887 166.686C130.824 167.217 130.247 167.995 130.156 169.02L128.626 168.939C128.804 167.335 129.681 166.138 131.259 165.35C132.537 164.712 133.776 164.588 134.978 164.981C136.175 165.389 137.079 166.205 137.691 167.428C138.297 168.641 138.409 169.846 138.028 171.043C137.646 172.239 136.833 173.149 135.588 173.771C134.407 174.361 133.237 174.423 132.078 173.955C130.914 173.504 130.039 172.694 129.455 171.524C129.353 171.32 129.264 171.102 129.189 170.872L135.936 167.5ZM134.928 172.451C135.68 172.075 136.195 171.549 136.474 170.873C136.759 170.208 136.783 169.492 136.547 168.724L131.169 171.411C131.668 172.115 132.258 172.544 132.94 172.7C133.621 172.856 134.284 172.773 134.928 172.451Z" fill="#182F43"/>
<path d="M126.958 174.679C126.84 174.352 126.582 174.145 126.181 174.059C125.785 173.984 125.333 173.968 124.825 174.009C124.321 174.062 123.81 174.093 123.29 174.1C122.774 174.119 122.285 174.001 121.824 173.746C121.367 173.502 121.035 173.091 120.829 172.515C120.554 171.747 120.633 171.024 121.066 170.346C121.487 169.673 122.161 169.17 123.088 168.838C123.912 168.543 124.683 168.471 125.4 168.622C126.117 168.773 126.707 169.103 127.17 169.613L126.16 170.797C125.879 170.439 125.509 170.208 125.051 170.104C124.594 170.001 124.105 170.042 123.585 170.228C123.099 170.402 122.731 170.636 122.479 170.93C122.232 171.235 122.179 171.586 122.32 171.981C122.438 172.309 122.695 172.51 123.091 172.585C123.491 172.671 123.943 172.687 124.447 172.634C124.955 172.593 125.469 172.568 125.988 172.56C126.508 172.552 126.997 172.671 127.454 172.915C127.911 173.159 128.241 173.563 128.443 174.128C128.706 174.863 128.64 175.568 128.245 176.245C127.839 176.926 127.207 177.42 126.348 177.728C125.659 177.974 124.992 178.035 124.348 177.909C123.696 177.798 123.136 177.514 122.666 177.058L123.655 175.92C124.219 176.534 124.953 176.679 125.856 176.355C126.274 176.205 126.594 175.976 126.815 175.668C127.04 175.37 127.087 175.041 126.958 174.679Z" fill="#182F43"/>
<path d="M119.977 181.193C120.266 181.114 120.536 181.147 120.787 181.29C121.037 181.434 121.2 181.645 121.275 181.923C121.35 182.201 121.316 182.465 121.173 182.715C121.032 182.977 120.817 183.147 120.528 183.226C120.25 183.301 119.984 183.261 119.731 183.106C119.48 182.962 119.318 182.752 119.242 182.474C119.167 182.196 119.201 181.931 119.345 181.681C119.488 181.431 119.699 181.268 119.977 181.193ZM117.959 170.718L120.313 179.405L118.801 179.814L116.447 171.128L117.959 170.718Z" fill="#182F43"/>
<path d="M108.841 181.796L107.314 182.051L105.893 173.547C105.674 172.233 105.948 171.141 106.715 170.271C107.48 169.389 108.484 168.844 109.726 168.637C110.721 168.47 111.61 168.517 112.396 168.775C113.179 169.021 113.812 169.463 114.296 170.1L113.074 171.089C112.423 170.175 111.375 169.839 109.931 170.081C109.008 170.235 108.326 170.598 107.887 171.17C107.435 171.745 107.28 172.452 107.42 173.292L107.631 174.553C108.214 173.239 109.228 172.461 110.672 172.22C111.938 172.008 113.084 172.279 114.111 173.032C115.137 173.786 115.758 174.807 115.973 176.097C116.189 177.387 115.933 178.55 115.205 179.584C114.479 180.629 113.483 181.258 112.217 181.47C110.761 181.713 109.551 181.313 108.586 180.27L108.841 181.796ZM113.146 174.252C112.442 173.749 111.64 173.573 110.74 173.723C109.841 173.873 109.14 174.301 108.637 175.005C108.134 175.71 107.958 176.512 108.108 177.411C108.256 178.299 108.683 178.994 109.387 179.497C110.092 180 110.894 180.176 111.793 180.026C112.693 179.875 113.394 179.448 113.897 178.744C114.399 178.039 114.577 177.243 114.428 176.355C114.278 175.456 113.851 174.755 113.146 174.252Z" fill="#182F43"/>
<path d="M99.5128 182.711C98.4572 182.739 97.6024 182.426 96.9485 181.772C96.2949 181.129 95.9527 180.238 95.9219 179.099L95.7726 173.575L97.338 173.532L97.4849 178.966C97.5047 179.698 97.7178 180.257 98.1244 180.642C98.5313 181.039 99.0826 181.228 99.7783 181.209C100.558 181.188 101.181 180.925 101.648 180.42C102.115 179.928 102.334 179.177 102.307 178.17L102.178 173.402L103.744 173.359L103.987 182.356L102.421 182.398L102.386 181.103C101.778 182.14 100.82 182.676 99.5128 182.711Z" fill="#182F43"/>
<path d="M88.7794 169.386L86.6162 185.804L85.0636 185.599L87.2268 169.181L88.7794 169.386Z" fill="#182F43"/>
<path d="M64.4503 179.902L68.4301 167.947L70.0013 168.47L66.8914 177.812L72.9685 172.607L73.1734 172.675L74.924 180.467L78.0282 171.142L79.6165 171.671L75.6367 183.625L73.8435 183.029L72.1386 175.442L66.2435 180.499L64.4503 179.902Z" fill="#182F43"/>
<path d="M58.4785 164.142C59.7214 163.766 60.9265 163.887 62.0939 164.503C63.2613 165.119 64.0407 166.046 64.4322 167.284C64.8131 168.516 64.6927 169.721 64.071 170.899C63.4492 172.077 62.5223 172.857 61.29 173.238C60.0472 173.613 58.842 173.492 57.6746 172.876C56.5073 172.26 55.7278 171.333 55.3363 170.095C54.9448 168.858 55.0599 167.65 55.6817 166.472C56.3034 165.294 57.2357 164.517 58.4785 164.142ZM61.3798 165.856C60.5838 165.436 59.7724 165.354 58.9455 165.609C58.1186 165.865 57.4923 166.396 57.0666 167.203C56.6409 168.009 56.5559 168.826 56.8115 169.653C57.0671 170.48 57.5928 171.103 58.3888 171.523C59.1741 171.938 59.9802 172.017 60.8071 171.762C61.634 171.506 62.2603 170.975 62.686 170.168C63.1117 169.362 63.1967 168.545 62.9411 167.718C62.6856 166.891 62.1651 166.271 61.3798 165.856Z" fill="#182F43"/>
<path d="M48.477 165.14L50.4583 166.484L53.1964 162.447C53.4456 162.079 53.5546 161.769 53.5234 161.516C53.4754 161.266 53.3059 161.035 53.0147 160.823C52.7167 160.62 52.3425 160.381 51.8921 160.105L52.6802 158.943C53.9134 159.562 54.682 160.213 54.9861 160.898C55.2834 161.593 55.1189 162.402 54.4924 163.326L51.7543 167.363L53.2291 168.363L52.3804 169.614L50.9056 168.614L49.7537 170.312L48.195 169.82L49.6096 167.735L47.6283 166.391L48.477 165.14Z" fill="#182F43"/>
<path d="M44.2141 165.818C44.4508 166.003 44.5869 166.238 44.6225 166.524C44.6581 166.811 44.5874 167.067 44.4104 167.294C44.2334 167.522 44.0018 167.653 43.7155 167.689C43.4218 167.734 43.1566 167.664 42.92 167.48C42.6928 167.303 42.565 167.066 42.5368 166.771C42.5012 166.484 42.5719 166.228 42.7489 166C42.9259 165.773 43.1575 165.642 43.4438 165.606C43.7301 165.571 43.9869 165.641 44.2141 165.818ZM51.3758 157.912L45.8454 165.013L44.61 164.05L50.1403 156.95L51.3758 157.912Z" fill="#182F43"/>
<path d="M42.3188 151.5C43.6167 151.466 44.7473 151.9 45.7107 152.802C46.6741 153.705 47.1812 154.805 47.2322 156.102C47.2743 157.391 46.8401 158.521 45.9296 159.494C45.019 160.466 43.9192 160.973 42.6301 161.015C41.3323 161.049 40.2017 160.615 39.2383 159.713C38.2749 158.81 37.7677 157.71 37.7168 156.413C37.6658 155.116 38.0957 153.981 39.0062 153.009C39.9168 152.037 41.021 151.534 42.3188 151.5ZM44.6648 153.919C44.0079 153.304 43.2469 153.01 42.3819 153.039C41.5169 153.067 40.7726 153.414 40.1492 154.079C39.5257 154.745 39.2281 155.51 39.2564 156.375C39.2847 157.24 39.6273 157.981 40.2842 158.596C40.9323 159.203 41.6889 159.492 42.5539 159.464C43.4189 159.436 44.1632 159.089 44.7866 158.423C45.4101 157.757 45.7077 156.992 45.6794 156.127C45.6511 155.262 45.3129 154.526 44.6648 153.919Z" fill="#182F43"/>
<path d="M31.3676 151.276C30.6976 150.459 30.4207 149.592 30.5366 148.674C30.6433 147.764 31.1373 146.947 32.0185 146.224L36.2902 142.718L37.2836 143.929L33.0816 147.377C32.5157 147.842 32.2054 148.353 32.1505 148.91C32.0863 149.475 32.275 150.026 32.7166 150.564C33.2114 151.167 33.8012 151.498 34.486 151.557C35.1616 151.624 35.889 151.337 36.6682 150.698L40.3554 147.672L41.3489 148.882L34.3918 154.592L33.3984 153.381L34.4002 152.559C33.2082 152.715 32.1974 152.287 31.3676 151.276Z" fill="#182F43"/>
<path d="M35.495 134.915L21.2061 143.286L20.4145 141.934L34.7034 133.564L35.495 134.915Z" fill="#182F43"/>
<path d="M15.0484 129.672C14.4396 128.067 14.5072 126.521 15.2513 125.032C15.98 123.536 17.1689 122.475 18.8181 121.849C20.4674 121.223 22.0664 121.226 23.6153 121.858C25.1486 122.482 26.2197 123.597 26.8286 125.201L28.5722 129.795L16.792 134.266L15.0484 129.672ZM25.3477 125.763C24.8921 124.563 24.0988 123.741 22.9678 123.297C21.8369 122.854 20.6431 122.87 19.3865 123.347C18.13 123.824 17.2258 124.604 16.6739 125.686C16.1219 126.768 16.0738 127.909 16.5294 129.11L17.679 132.139L26.4973 128.792L25.3477 125.763Z" fill="#182F43"/>
<path d="M20.3988 118.327C21.1484 117.997 21.6761 117.502 21.9818 116.843C22.2849 116.171 22.3423 115.42 22.1541 114.589C21.8915 113.43 21.2734 112.684 20.2998 112.351L20.7427 110.885C22.2588 111.44 23.2117 112.577 23.6015 114.298C23.9171 115.69 23.7413 116.924 23.0741 117.998C22.3926 119.063 21.3847 119.746 20.0506 120.049C18.7281 120.348 17.5312 120.17 16.4599 119.515C15.3885 118.859 14.6991 117.853 14.3915 116.495C14.0998 115.208 14.3189 114.057 15.0487 113.043C15.7643 112.019 16.7599 111.363 18.0355 111.074C18.2579 111.024 18.4901 110.989 18.7321 110.972L20.3988 118.327ZM15.831 116.169C16.0166 116.988 16.4045 117.614 16.9946 118.046C17.573 118.481 18.263 118.676 19.0646 118.629L17.736 112.766C16.9343 113.083 16.3765 113.554 16.0628 114.179C15.7492 114.803 15.6719 115.467 15.831 116.169Z" fill="#182F43"/>
<path d="M15.5822 108.101C15.9283 108.065 16.1907 107.862 16.3694 107.494C16.5361 107.127 16.6596 106.691 16.7397 106.188C16.8079 105.686 16.9 105.182 17.016 104.675C17.12 104.17 17.3509 103.723 17.7086 103.336C18.0544 102.95 18.5316 102.725 19.1403 102.662C19.9519 102.577 20.6354 102.825 21.1908 103.407C21.745 103.976 22.0732 104.75 22.1754 105.729C22.2664 106.6 22.1534 107.366 21.8363 108.027C21.5192 108.687 21.0581 109.182 20.453 109.51L19.5429 108.248C19.9576 108.06 20.2697 107.756 20.4792 107.336C20.6887 106.916 20.7648 106.431 20.7074 105.882C20.6538 105.369 20.514 104.955 20.2882 104.641C20.0504 104.328 19.7226 104.194 19.3049 104.237C18.9588 104.273 18.7023 104.475 18.5356 104.842C18.3569 105.211 18.2335 105.646 18.1652 106.148C18.0851 106.651 17.987 107.156 17.871 107.663C17.7551 108.17 17.5242 108.616 17.1784 109.002C16.8327 109.388 16.3614 109.612 15.7647 109.674C14.9889 109.756 14.3192 109.524 13.7556 108.979C13.1907 108.423 12.8609 107.691 12.7661 106.784C12.6901 106.056 12.7898 105.394 13.0654 104.799C13.3278 104.192 13.7365 103.715 14.2914 103.367L15.1619 104.598C14.4317 105 14.1165 105.678 14.2163 106.633C14.2624 107.074 14.4091 107.439 14.6563 107.727C14.8916 108.016 15.2003 108.141 15.5822 108.101Z" fill="#182F43"/>
<path d="M10.8865 99.5619C10.8935 99.8618 10.7973 100.116 10.5981 100.325C10.3989 100.533 10.1553 100.641 9.86738 100.648C9.57946 100.654 9.33116 100.558 9.12249 100.359C8.90183 100.16 8.78802 99.9106 8.78107 99.6106C8.7744 99.3227 8.87668 99.0743 9.08789 98.8653C9.28712 98.6567 9.53069 98.549 9.81861 98.5423C10.1065 98.5357 10.3548 98.6319 10.5635 98.8312C10.7722 99.0304 10.8798 99.274 10.8865 99.5619ZM21.54 100.107L12.5424 100.316L12.5061 98.7502L21.5037 98.5417L21.54 100.107Z" fill="#182F43"/>
<path d="M12.9237 88.5601L13.0371 87.0163L21.6359 87.6477C22.9644 87.7452 23.9606 88.2696 24.6248 89.2208C25.3009 90.1728 25.5928 91.2772 25.5005 92.5338C25.4267 93.5391 25.1715 94.3927 24.7349 95.0946C24.3103 95.7974 23.7314 96.3084 22.998 96.6275L22.3263 95.2065C23.3676 94.7897 23.9419 93.8512 24.0491 92.3911C24.1176 91.4576 23.9259 90.7096 23.4739 90.147C23.0227 89.5724 22.3723 89.2539 21.5226 89.1915L20.248 89.0979C21.3868 89.9757 21.9026 91.1446 21.7954 92.6047C21.7014 93.8852 21.1671 94.9349 20.1925 95.7537C19.2179 96.5726 18.0784 96.9341 16.7739 96.8383C15.4694 96.7425 14.4009 96.2189 13.5683 95.2674C12.7238 94.315 12.3485 93.1985 12.4426 91.9179C12.5506 90.4459 13.2257 89.3644 14.4676 88.6735L12.9237 88.5601ZM19.2356 94.5284C19.8908 93.9628 20.2518 93.2253 20.3186 92.3157C20.3854 91.4062 20.136 90.6238 19.5704 89.9687C19.0049 89.3135 18.2674 88.9525 17.3578 88.8857C16.4602 88.8198 15.6838 89.0696 15.0287 89.6352C14.3735 90.2007 14.0125 90.9383 13.9457 91.8478C13.8789 92.7574 14.1283 93.5397 14.6939 94.1949C15.2594 94.8501 15.991 95.2106 16.8886 95.2765C17.7981 95.3433 18.5805 95.0939 19.2356 94.5284Z" fill="#182F43"/>
<path d="M14.2637 79.0726C14.4892 78.0409 14.9981 77.2862 15.7904 76.8083C16.571 76.3279 17.5182 76.2095 18.6319 76.4529L24.0304 77.6329L23.696 79.1628L18.3854 78.002C17.6703 77.8457 17.077 77.9187 16.6056 78.221C16.1224 78.5207 15.8065 79.0106 15.6579 79.6905C15.4914 80.4525 15.5972 81.1205 15.9753 81.6945C16.3417 82.2659 17.0173 82.6593 18.0021 82.8745L22.6621 83.8931L22.3277 85.423L13.5352 83.5011L13.8696 81.9713L15.1358 82.248C14.2751 81.4089 13.9844 80.3504 14.2637 79.0726Z" fill="#182F43"/>
<path d="M29.642 72.1677L14.2266 66.1182L14.7986 64.6604L30.2141 70.7099L29.642 72.1677Z" fill="#182F43"/>
<path d="M25.2515 45.952L35.9069 52.6768L35.023 54.0773L26.6966 48.8223L30.2962 55.9683L30.1809 56.151L22.1966 55.9862L30.5078 61.2316L29.6143 62.6472L18.959 55.9224L19.9677 54.3241L27.7422 54.4841L24.2428 47.5503L25.2515 45.952Z" fill="#182F43"/>
<path d="M41.735 44.1184C41.8067 45.4147 41.4056 46.5575 40.5316 47.5467C39.6576 48.5359 38.573 49.0749 37.2778 49.1635C35.9905 49.2431 34.8477 48.842 33.8495 47.9601C32.8513 47.0781 32.3123 45.9935 32.2327 44.7062C32.161 43.4099 32.5622 42.2672 33.4361 41.2779C34.3101 40.2887 35.3947 39.7498 36.69 39.6612C37.9852 39.5725 39.1319 39.9692 40.1302 40.8511C41.1284 41.733 41.6633 42.8221 41.735 44.1184ZM39.385 46.5337C39.9809 45.8592 40.2521 45.0901 40.1987 44.2262C40.1452 43.3624 39.7768 42.6285 39.0933 42.0247C38.4099 41.4208 37.6362 41.1457 36.7723 41.1991C35.9085 41.2525 35.1786 41.6165 34.5827 42.291C33.9948 42.9564 33.7275 43.7211 33.781 44.585C33.8344 45.4488 34.2029 46.1826 34.8863 46.7865C35.5698 47.3903 36.3435 47.6655 37.2073 47.6121C38.0712 47.5586 38.7971 47.1992 39.385 46.5337Z" fill="#182F43"/>
<path d="M43.1345 34.0907L41.3636 35.7017L44.6462 39.31C44.9449 39.6384 45.2211 39.8171 45.4745 39.8461C45.7288 39.8581 45.9931 39.7475 46.2675 39.5141C46.5338 39.2718 46.8542 38.9642 47.2286 38.5911L48.1734 39.6297C47.2826 40.6834 46.4687 41.2778 45.7318 41.4128C44.9868 41.539 44.2388 41.1893 43.4878 40.3638L40.2052 36.7555L38.8871 37.9547L37.8696 36.8362L39.1878 35.6371L37.8069 34.1192L38.6504 32.7192L40.3461 34.5833L42.117 32.9723L43.1345 34.0907Z" fill="#182F43"/>
<path d="M43.3743 29.8454C43.1396 30.0323 42.879 30.1096 42.5923 30.0771C42.3056 30.0446 42.0726 29.9158 41.8931 29.6905C41.7137 29.4653 41.6402 29.2093 41.6727 28.9226C41.6976 28.6266 41.8275 28.3851 42.0621 28.1982C42.2874 28.0187 42.5471 27.9499 42.8412 27.9918C43.1279 28.0242 43.3609 28.1531 43.5404 28.3783C43.7198 28.6036 43.7933 28.8596 43.7609 29.1462C43.7284 29.4329 43.5996 29.666 43.3743 29.8454ZM49.3831 38.6595L43.7754 31.6201L45.0003 30.6443L50.6079 37.6838L49.3831 38.6595Z" fill="#182F43"/>
<path d="M57.7956 31.2824C57.5242 32.552 56.8369 33.5492 55.7337 34.274C54.6305 34.9989 53.4424 35.2339 52.1694 34.9792C50.9064 34.7178 49.9092 34.0305 49.1777 32.9173C48.4463 31.8041 48.2113 30.616 48.4726 29.353C48.744 28.0834 49.4313 27.0862 50.5345 26.3613C51.6377 25.6365 52.8257 25.4014 54.0988 25.6562C55.3718 25.911 56.374 26.595 57.1055 27.7082C57.8369 28.8214 58.067 30.0128 57.7956 31.2824ZM54.8935 32.9954C55.6457 32.5011 56.1095 31.8303 56.2849 30.9827C56.4603 30.1352 56.2976 29.3303 55.7967 28.5681C55.2959 27.8059 54.6218 27.3372 53.7742 27.1618C52.9267 26.9864 52.1268 27.1458 51.3747 27.64C50.6325 28.1276 50.1738 28.7952 49.9984 29.6428C49.823 30.4903 49.9857 31.2952 50.4865 32.0573C50.9873 32.8195 51.6615 33.2883 52.509 33.4637C53.3566 33.6391 54.1514 33.483 54.8935 32.9954Z" fill="#182F43"/>
<path d="M60.5093 20.6901C61.4608 20.2321 62.3689 20.168 63.2334 20.4977C64.0927 20.8166 64.7695 21.4897 65.2639 22.5169L67.6603 27.4962L66.2493 28.1754L63.8918 23.2771C63.5744 22.6175 63.1514 22.1952 62.6228 22.0101C62.0891 21.8142 61.5086 21.8672 60.8815 22.169C60.1786 22.5073 59.7177 23.0021 59.4985 23.6536C59.2741 24.2943 59.3805 25.0688 59.8177 25.9771L61.8863 30.2752L60.4752 30.9543L56.5722 22.8446L57.9833 22.1655L58.5453 23.3333C58.676 22.1384 59.3307 21.2573 60.5093 20.6901Z" fill="#182F43"/>
<path d="M75.7737 28.4029L71.0801 12.522L72.5819 12.0781L77.2755 27.959L75.7737 28.4029Z" fill="#182F43"/>
<path d="M84.6189 10.1421C86.3218 9.93106 87.8083 10.3635 89.0783 11.4395C90.3587 12.502 91.1074 13.9086 91.3244 15.6592C91.5414 17.4098 91.1595 18.9626 90.1787 20.3175C89.2084 21.6591 87.8717 22.4354 86.1687 22.6465L81.292 23.2509L79.7422 10.7466L84.6189 10.1421ZM85.9739 21.0745C87.2481 20.9165 88.2348 20.3408 88.9339 19.3473C89.633 18.3537 89.8999 17.1901 89.7346 15.8563C89.5693 14.5225 89.0264 13.4592 88.1058 12.6664C87.1853 11.8736 86.088 11.5562 84.8137 11.7141L81.5983 12.1126L82.7585 21.473L85.9739 21.0745Z" fill="#182F43"/>
<path d="M95.8324 17.6729C95.9728 18.4797 96.3267 19.1107 96.8941 19.5657C97.4734 20.021 98.189 20.2568 99.0408 20.2733C100.229 20.2962 101.101 19.8749 101.658 19.0095L102.975 19.7911C102.073 21.1299 100.74 21.7823 98.9763 21.7483C97.5486 21.7207 96.3934 21.2544 95.5107 20.3492C94.6402 19.4322 94.2182 18.2898 94.2446 16.9221C94.2707 15.5663 94.7304 14.447 95.6236 13.5641C96.5168 12.6811 97.6593 12.2531 99.0511 12.28C100.371 12.3055 101.436 12.7941 102.245 13.7459C103.067 14.6859 103.466 15.8098 103.441 17.1176C103.436 17.3455 103.414 17.5792 103.373 17.8184L95.8324 17.6729ZM99.0226 13.7557C98.1827 13.7395 97.4822 13.966 96.9211 14.4353C96.3601 14.8925 96.006 15.5158 95.8588 16.3051L101.87 16.4211C101.754 15.5668 101.431 14.9124 100.899 14.4581C100.368 14.0037 99.7424 13.7696 99.0226 13.7557Z" fill="#182F43"/>
<path d="M106.973 15.4412C106.924 15.7859 107.058 16.0892 107.373 16.3513C107.689 16.6014 108.082 16.8259 108.551 17.0246C109.022 17.2115 109.489 17.4221 109.953 17.6565C110.419 17.879 110.797 18.2104 111.086 18.6507C111.378 19.0791 111.482 19.5964 111.397 20.2025C111.284 21.0107 110.879 21.6145 110.181 22.0138C109.495 22.4148 108.665 22.5473 107.69 22.4113C106.822 22.2902 106.106 21.9964 105.541 21.5298C104.976 21.0633 104.607 20.4968 104.434 19.8304L105.878 19.2504C105.96 19.6982 106.181 20.0742 106.538 20.3785C106.895 20.6829 107.347 20.8732 107.894 20.9495C108.405 21.0208 108.84 20.9846 109.2 20.8409C109.561 20.6853 109.77 20.3995 109.828 19.9836C109.876 19.6389 109.742 19.3415 109.426 19.0914C109.111 18.8293 108.718 18.6049 108.247 18.418C107.778 18.2193 107.312 18.0027 106.848 17.7683C106.384 17.5339 106.006 17.2025 105.714 16.7741C105.423 16.3457 105.318 15.8343 105.401 15.2401C105.509 14.4676 105.895 13.8732 106.559 13.457C107.235 13.0424 108.024 12.8982 108.927 13.0243C109.652 13.1254 110.271 13.3814 110.783 13.7921C111.309 14.1927 111.674 14.704 111.878 15.3262L110.474 15.8754C110.259 15.07 109.677 14.601 108.726 14.4683C108.286 14.4069 107.897 14.4616 107.558 14.6324C107.221 14.7913 107.026 15.0609 106.973 15.4412Z" fill="#182F43"/>
<path d="M116.381 12.9261C116.088 12.8609 115.864 12.7066 115.709 12.4631C115.555 12.2197 115.508 11.9574 115.571 11.6763C115.634 11.3952 115.787 11.1772 116.03 11.0224C116.276 10.8559 116.546 10.8052 116.838 10.8704C117.12 10.933 117.336 11.0918 117.488 11.347C117.643 11.5904 117.689 11.8527 117.627 12.1338C117.564 12.415 117.411 12.6329 117.168 12.7877C116.924 12.9425 116.662 12.9886 116.381 12.9261ZM113.297 23.1379L115.252 14.3529L116.78 14.6931L114.825 23.4781L113.297 23.1379Z" fill="#182F43"/>
<path d="M126.074 17.3852L127.546 17.8631L124.885 26.064C124.474 27.331 123.727 28.1737 122.645 28.5921C121.559 29.0219 120.417 29.0424 119.219 28.6534C118.26 28.3423 117.492 27.8911 116.914 27.2999C116.333 26.7201 115.974 26.0361 115.839 25.2478L117.379 24.9339C117.536 26.0445 118.31 26.8258 119.703 27.2777C120.593 27.5667 121.365 27.5587 122.02 27.2537C122.685 26.9524 123.149 26.3966 123.412 25.5862L123.807 24.3706C122.683 25.2675 121.425 25.49 120.032 25.0381C118.811 24.6417 117.919 23.8727 117.356 22.7312C116.793 21.5896 116.713 20.3967 117.117 19.1526C117.521 17.9085 118.284 16.9955 119.406 16.4135C120.532 15.8202 121.706 15.7217 122.927 16.1181C124.331 16.5737 125.221 17.4869 125.596 18.8576L126.074 17.3852ZM118.774 22.0938C119.167 22.8648 119.797 23.3911 120.665 23.6726C121.532 23.9541 122.352 23.8983 123.123 23.5051C123.894 23.1119 124.42 22.4816 124.701 21.6141C124.979 20.7581 124.922 19.9445 124.528 19.1735C124.135 18.4025 123.505 17.8762 122.637 17.5947C121.77 17.3131 120.951 17.369 120.18 17.7622C119.409 18.1554 118.884 18.78 118.606 19.636C118.325 20.5035 118.381 21.3227 118.774 22.0938Z" fill="#182F43"/>
<path d="M135.069 20.9717C136.017 21.4367 136.629 22.1109 136.904 22.9943C137.184 23.8669 137.073 24.815 136.571 25.8385L134.138 30.7999L132.732 30.1103L135.126 25.2297C135.448 24.5725 135.519 23.979 135.338 23.449C135.162 22.9083 134.761 22.4848 134.136 22.1783C133.436 21.8348 132.762 21.7783 132.115 22.0086C131.472 22.2282 130.929 22.7905 130.485 23.6955L128.385 27.9782L126.979 27.2886L130.942 19.2081L132.348 19.8977L131.777 21.0613C132.797 20.4256 133.895 20.3957 135.069 20.9717Z" fill="#182F43"/>
<path d="M137.368 35.333L146.913 21.8003L148.193 22.7029L138.648 36.2356L137.368 35.333Z" fill="#182F43"/>
<path d="M170.488 89.6817L186.988 88.2798L187.121 89.8402L170.62 91.242L170.488 89.6817Z" fill="#182F43"/>
</svg>
