<svg width="202" height="202" viewBox="0 0 202 202" fill="none" xmlns="http://www.w3.org/2000/svg">
<path d="M193.956 114.242L181.397 113.223L181.531 111.572L191.345 112.369L184.843 107.706L184.86 107.49L192.011 103.935L182.216 103.14L182.351 101.472L194.91 102.491L194.757 104.375L187.794 107.837L194.109 112.359L193.956 114.242Z" fill="#182F43"/>
<path d="M185.613 120.623C185.397 121.497 184.957 122.155 184.292 122.596C183.636 123.052 182.894 123.178 182.067 122.974C181.239 122.77 180.635 122.312 180.255 121.6C179.883 120.903 179.805 120.117 180.021 119.243L180.93 115.556L189.668 117.712L189.293 119.232L186.147 118.456L185.613 120.623ZM187.728 125.576L187.353 127.096L178.615 124.941L178.99 123.42L187.728 125.576ZM181.436 119.593C181.33 120.024 181.363 120.415 181.536 120.767C181.717 121.133 182.018 121.368 182.437 121.471C182.857 121.575 183.232 121.507 183.563 121.267C183.891 121.039 184.108 120.709 184.215 120.278L184.749 118.111L181.971 117.426L181.436 119.593Z" fill="#182F43"/>
<path d="M172.955 138.523L173.766 136.756L179.354 134.804L175.477 133.025L176.129 131.602L184.31 135.354L183.657 136.777L180.041 135.119L182.037 140.311L181.196 142.144L179.03 136.417L172.955 138.523Z" fill="#182F43"/>
<path d="M169.296 146.766C169.004 145.501 169.204 144.307 169.896 143.183C170.589 142.059 171.565 141.343 172.826 141.034C174.081 140.736 175.276 140.936 176.41 141.634C177.544 142.333 178.26 143.309 178.559 144.564C178.851 145.829 178.651 147.024 177.958 148.148C177.266 149.272 176.29 149.988 175.029 150.296C173.767 150.605 172.57 150.41 171.436 149.712C170.301 149.013 169.588 148.031 169.296 146.766ZM171.199 143.985C170.727 144.752 170.591 145.556 170.792 146.398C170.992 147.24 171.48 147.9 172.257 148.378C173.033 148.856 173.843 148.995 174.685 148.795C175.527 148.595 176.184 148.112 176.656 147.345C177.121 146.589 177.254 145.79 177.054 144.948C176.854 144.106 176.365 143.446 175.589 142.968C174.812 142.49 174.003 142.35 173.161 142.551C172.319 142.751 171.665 143.229 171.199 143.985Z" fill="#182F43"/>
<path d="M168.149 161.09L161.151 155.432L162.113 154.242L167.194 158.35L165.41 153.227L165.534 153.073L170.917 153.745L165.836 149.637L166.809 148.433L173.808 154.092L172.755 155.394L167.437 154.728L169.202 159.789L168.149 161.09Z" fill="#182F43"/>
<path d="M160.44 168.64L159.301 169.715L153.125 163.169L154.264 162.094L155.326 163.22C155.078 161.82 155.495 160.61 156.578 159.589C157.494 158.724 158.588 158.319 159.86 158.373C161.14 158.436 162.233 158.947 163.139 159.907C164.045 160.867 164.488 161.984 164.467 163.256C164.456 164.538 163.992 165.611 163.075 166.476C161.993 167.497 160.76 167.843 159.378 167.514L160.44 168.64ZM157.471 160.825C156.808 161.451 156.464 162.196 156.438 163.061C156.422 163.935 156.726 164.704 157.352 165.367C157.978 166.03 158.723 166.375 159.588 166.4C160.462 166.434 161.23 166.138 161.893 165.512C162.548 164.894 162.884 164.148 162.901 163.275C162.926 162.409 162.626 161.645 162 160.982C161.374 160.319 160.624 159.97 159.751 159.936C158.886 159.911 158.126 160.207 157.471 160.825Z" fill="#182F43"/>
<path d="M151.537 175.52L150.267 176.436L145 169.139L146.269 168.222L148.471 171.273L152.251 168.544L150.049 165.494L151.319 164.577L156.587 171.875L155.317 172.791L153.126 169.755L149.346 172.484L151.537 175.52Z" fill="#182F43"/>
<path d="M137.087 175.316L135.997 175.911L134.123 172.484L135.481 171.742L136.638 173.858L142.561 170.619L141.404 168.503L142.762 167.76L144.636 171.188L143.672 171.714C143.547 172.686 143.827 173.798 144.512 175.051L146.516 178.715L140.688 181.901L137.087 175.316ZM142.109 172.569L138.445 174.573L141.347 179.879L144.458 178.178L143.154 175.793C142.509 174.614 142.161 173.539 142.109 172.569Z" fill="#182F43"/>
<path d="M130.362 186.201L128.903 186.768L125.646 178.377L127.106 177.811L127.666 179.254C127.964 177.864 128.806 176.9 130.193 176.362C131.368 175.906 132.534 175.942 133.692 176.471C134.854 177.011 135.674 177.897 136.151 179.127C136.629 180.358 136.619 181.559 136.121 182.73C135.627 183.913 134.793 184.732 133.619 185.188C132.231 185.727 130.959 185.583 129.802 184.758L130.362 186.201ZM130.555 177.843C129.705 178.173 129.106 178.734 128.756 179.526C128.412 180.329 128.404 181.156 128.734 182.006C129.064 182.856 129.625 183.456 130.417 183.805C131.214 184.165 132.037 184.18 132.887 183.85C133.726 183.525 134.318 182.96 134.663 182.157C135.012 181.365 135.021 180.544 134.691 179.694C134.361 178.844 133.798 178.238 133.002 177.878C132.21 177.529 131.394 177.517 130.555 177.843Z" fill="#182F43"/>
<path d="M117.624 181.997L111.873 183.071L111.582 181.514L118.978 180.132L121.292 192.518L113.984 193.883L113.693 192.326L119.355 191.268L118.645 187.464L113.425 188.439L113.138 186.9L118.357 185.925L117.624 181.997Z" fill="#182F43"/>
<path d="M102.181 182.195L105.299 186.835L108.263 186.652L107.966 181.837L109.637 181.734L110.414 194.31L105.384 194.621C104.306 194.688 103.36 194.361 102.546 193.642C101.733 192.935 101.293 192.043 101.226 190.965C101.176 190.15 101.375 189.392 101.825 188.691C102.263 187.991 102.856 187.479 103.606 187.157L100.33 182.309L102.181 182.195ZM108.647 192.85L108.357 188.161L104.997 188.369C104.374 188.408 103.861 188.668 103.458 189.149C103.044 189.644 102.857 190.215 102.897 190.861C102.937 191.508 103.192 192.045 103.664 192.473C104.123 192.902 104.664 193.097 105.287 193.058L108.647 192.85Z" fill="#182F43"/>
<path d="M90.205 181.572L91.0102 184.468L96.6633 184.905L97.9041 182.167L99.6808 182.304L94.0257 194.505L92.1413 194.359L88.4283 181.434L90.205 181.572ZM95.9683 186.422L91.4638 186.074L93.2464 192.44L95.9683 186.422Z" fill="#182F43"/>
<path d="M74.8746 178.077L75.103 181.074L80.5642 182.599L82.3122 180.153L84.0286 180.632L76.1158 191.505L74.2954 190.997L73.1582 177.597L74.8746 178.077ZM79.5884 183.952L75.2367 182.738L75.7515 189.329L79.5884 183.952Z" fill="#182F43"/>
<path d="M63.0547 186.923C61.9844 186.466 61.2493 185.728 60.8497 184.709C60.4342 183.696 60.4529 182.66 60.9056 181.601C61.3536 180.552 62.0895 179.823 63.1133 179.412C64.126 178.997 65.1676 179.018 66.2379 179.475L68.9028 180.614L70.6712 176.476L72.2105 177.134L67.2589 188.72L63.0547 186.923ZM65.6225 180.915C64.9825 180.642 64.3609 180.63 63.7576 180.882C63.1497 181.144 62.7066 181.6 62.4284 182.251C62.1454 182.913 62.1216 183.549 62.357 184.159C62.5924 184.768 63.0301 185.21 63.6701 185.483L66.335 186.622L68.2873 182.054L65.6225 180.915Z" fill="#182F43"/>
<path d="M52.5888 181.552C51.5844 180.963 50.948 180.139 50.6796 179.077C50.3948 178.021 50.5435 176.995 51.1258 176.001C51.702 175.017 52.5237 174.386 53.591 174.107C54.6479 173.823 55.6786 173.974 56.6829 174.563L59.1835 176.027L61.458 172.145L62.9024 172.991L56.5338 183.863L52.5888 181.552ZM55.8914 175.914C55.2909 175.562 54.6756 175.473 54.0456 175.646C53.4095 175.83 52.9125 176.227 52.5547 176.838C52.1907 177.459 52.0872 178.087 52.2441 178.721C52.401 179.356 52.7798 179.849 53.3803 180.201L55.8809 181.665L58.392 177.379L55.8914 175.914Z" fill="#182F43"/>
<path d="M53.4213 166.82C53.6854 167.008 53.8443 167.26 53.8981 167.578C53.9518 167.896 53.8848 168.187 53.6971 168.451C53.5094 168.716 53.2566 168.874 52.9387 168.928C52.6207 168.982 52.3297 168.915 52.0657 168.727C51.7918 168.533 51.6329 168.28 51.5889 167.969C51.5352 167.651 51.6021 167.36 51.7898 167.096C51.9776 166.832 52.2304 166.673 52.5483 166.619C52.8565 166.558 53.1475 166.625 53.4213 166.82Z" fill="#182F43"/>
<path d="M29.6359 162.667L38.5778 153.789L39.7445 154.965L32.757 161.901L40.528 159.995L40.6802 160.148L38.7302 167.893L45.7048 160.968L46.8842 162.156L37.9423 171.034L36.6108 169.692L38.5092 162.151L30.9675 164.008L29.6359 162.667Z" fill="#182F43"/>
<path d="M30.3531 152.35C29.8263 151.62 29.6098 150.859 29.7035 150.066C29.7804 149.27 30.1643 148.623 30.8551 148.125C31.5459 147.626 32.2858 147.462 33.0749 147.632C33.8471 147.8 34.4966 148.249 35.0234 148.978L37.2463 152.058L29.9489 157.326L29.0324 156.056L31.6594 154.16L30.3531 152.35ZM25.2081 150.758L24.2915 149.488L31.5889 144.221L32.5055 145.49L25.2081 150.758ZM33.8412 149.832C33.5813 149.472 33.2615 149.244 32.8815 149.148C32.4849 149.05 32.1114 149.127 31.7611 149.38C31.4108 149.633 31.22 149.963 31.1885 150.37C31.1501 150.768 31.2608 151.147 31.5206 151.507L32.827 153.317L35.1476 151.642L33.8412 149.832Z" fill="#182F43"/>
<path d="M21.8534 135.477C21.7971 134.402 22.2301 133.647 23.1525 133.211C23.8361 132.888 24.5447 132.885 25.2784 133.203C26.0011 133.525 26.5982 134.185 27.0696 135.183C27.8381 136.811 27.7019 138.209 26.6611 139.377L25.4002 138.52C26.1414 137.785 26.2558 136.875 25.7435 135.79C25.4873 135.247 25.1761 134.883 24.8099 134.698C24.4277 134.507 24.0521 134.498 23.6832 134.672C23.3577 134.826 23.1507 135.076 23.0624 135.423C22.9689 135.759 23.0196 136.134 23.2142 136.546L23.7753 137.734L22.4894 138.341L22.0744 137.462C21.8797 137.05 21.6309 136.776 21.328 136.64C21.0142 136.51 20.6837 136.526 20.3365 136.69C19.9892 136.854 19.7711 137.123 19.6822 137.497C19.5881 137.86 19.6513 138.275 19.8716 138.741C20.3019 139.653 20.9792 140.089 21.9034 140.051L21.7817 141.522C20.3165 141.51 19.2457 140.788 18.5694 139.356C18.1493 138.466 18.0467 137.659 18.2617 136.934C18.4715 136.197 18.9074 135.673 19.5693 135.361C20.394 134.971 21.1554 135.01 21.8534 135.477Z" fill="#182F43"/>
<path d="M13.8171 126.398L13.3225 124.912L21.8618 122.069L22.3564 123.555L20.8877 124.044C22.2612 124.409 23.183 125.297 23.653 126.709C24.0509 127.904 23.9575 129.067 23.3727 130.198C22.7765 131.332 21.8521 132.108 20.5997 132.525C19.3473 132.942 18.1482 132.873 17.0024 132.319C15.8452 131.768 15.0676 130.895 14.6697 129.699C14.1997 128.288 14.4051 127.024 15.2859 125.909L13.8171 126.398ZM22.1558 126.999C21.8678 126.133 21.3368 125.507 20.5628 125.12C19.7774 124.736 18.9521 124.688 18.0868 124.976C17.2215 125.264 16.5951 125.795 16.2078 126.569C15.809 127.347 15.7537 128.169 16.0417 129.034C16.326 129.888 16.8608 130.507 17.6462 130.89C18.4201 131.278 19.2398 131.327 20.1051 131.039C20.9704 130.751 21.6024 130.218 22.0012 129.44C22.3886 128.666 22.4401 127.853 22.1558 126.999Z" fill="#182F43"/>
<path d="M20.8363 116.037C21.1005 117.367 20.879 118.561 20.1716 119.619C19.4525 120.68 18.4338 121.341 17.1155 121.603C15.7973 121.865 14.6091 121.642 13.551 120.935C12.4811 120.23 11.814 119.212 11.5498 117.882C11.3768 117.011 11.4331 116.186 11.7189 115.408C11.9929 114.631 12.4491 114.002 13.0875 113.521L14.085 114.662C13.6586 114.979 13.351 115.401 13.162 115.928C12.9707 116.444 12.9336 116.995 13.0505 117.584C13.2259 118.467 13.6733 119.148 14.3928 119.63C15.11 120.099 15.9159 120.245 16.8104 120.067C17.6931 119.891 18.3762 119.45 18.8595 118.742C19.3405 118.023 19.4934 117.221 19.318 116.339C19.2011 115.75 18.9605 115.247 18.5963 114.83C18.2202 114.416 17.7723 114.132 17.2524 113.978L17.752 112.521C18.5212 112.759 19.1879 113.19 19.7519 113.812C20.3041 114.436 20.6656 115.178 20.8363 116.037Z" fill="#182F43"/>
<path d="M10.1634 104.893L11.6695 104.759L11.9405 107.807L19.3991 107.144L19.5378 108.703L12.0793 109.367L12.3519 112.433L10.8459 112.567L10.1634 104.893Z" fill="#182F43"/>
<path d="M10.3046 94.4939L10.359 92.9289L19.3536 93.2414L19.2992 94.8065L17.7521 94.7527C18.9123 95.5735 19.4666 96.7275 19.4149 98.2146C19.3711 99.4738 18.8781 100.531 17.9358 101.387C16.9815 102.242 15.8448 102.647 14.5256 102.601C13.2064 102.556 12.1065 102.073 11.2259 101.154C10.3333 100.234 9.90884 99.145 9.9526 97.8857C10.0043 96.3986 10.6373 95.286 11.8517 94.5477L10.3046 94.4939ZM17.9107 97.9642C17.9423 97.0527 17.663 96.2805 17.0726 95.6477C16.4702 95.0144 15.7133 94.6819 14.8019 94.6502C13.8904 94.6185 13.1183 94.8979 12.4854 95.4883C11.8405 96.0782 11.5022 96.8289 11.4706 97.7404C11.4393 98.6398 11.7249 99.4062 12.3272 100.04C12.9176 100.672 13.6685 101.005 14.58 101.036C15.4914 101.068 16.2696 100.789 16.9145 100.199C17.5473 99.6085 17.8794 98.8636 17.9107 97.9642Z" fill="#182F43"/>
<path d="M16.0067 84.4012C16.5312 83.549 17.2912 83.2022 18.2867 83.3606C19.0214 83.4776 19.5862 83.8227 19.981 84.3958C20.3658 84.9553 20.4856 85.6913 20.3404 86.6038L19.633 91.0478L10.7449 89.6331L11.3957 85.5445C11.5372 84.6557 11.8717 84.0042 12.3994 83.59C12.9152 83.1739 13.5346 83.0234 14.2575 83.1385C15.1107 83.2743 15.6938 83.6952 16.0067 84.4012ZM12.7709 85.8363L12.3719 88.3428L14.7006 88.7135L15.0996 86.207C15.2429 85.3063 14.9176 84.7928 14.1236 84.6664C13.3652 84.5457 12.9143 84.9357 12.7709 85.8363ZM18.9219 86.4691C18.9936 86.0188 18.9416 85.6581 18.766 85.3872C18.5923 85.1044 18.31 84.9318 17.9189 84.8696C17.5515 84.8111 17.2473 84.8903 17.0062 85.1071C16.7552 85.3101 16.5938 85.6368 16.5221 86.0871L16.0694 88.9313L18.4692 89.3133L18.9219 86.4691Z" fill="#182F43"/>
<path d="M14.4671 72.6784L23.1356 75.0983L22.7146 76.6066L15.5023 74.5933L14.5489 78.0087L18.0857 78.996C19.5073 79.3929 20.4207 79.9593 20.8257 80.6953C21.2224 81.4165 21.2293 82.2843 20.8465 83.2987L19.4248 82.9019C19.6703 82.335 19.6657 81.8603 19.4112 81.4778C19.1484 81.0805 18.5546 80.7528 17.63 80.4947L12.6715 79.1105L14.4671 72.6784Z" fill="#182F43"/>
<path d="M17.9649 63.638L26.3054 67.0196L25.7238 68.4542L22.7212 67.2368L22.2274 68.4545L24.2832 72.0073L23.5663 73.7755L21.4677 70.0888C21.0595 70.6485 20.543 71.0282 19.9181 71.2281C19.2932 71.4279 18.6694 71.4016 18.0467 71.1491C17.2793 70.838 16.7504 70.3063 16.4597 69.5539C16.1691 68.8016 16.1906 68.014 16.5243 67.1911L17.9649 63.638ZM20.5814 68.7777L21.42 66.7093L18.7344 65.6204L17.8957 67.6888C17.7289 68.1003 17.7092 68.5002 17.8366 68.8885C17.9641 69.2769 18.2335 69.5545 18.645 69.7213C19.0453 69.8836 19.4264 69.8698 19.7883 69.6799C20.1502 69.4899 20.4146 69.1892 20.5814 68.7777Z" fill="#182F43"/>
<path d="M24.6152 61.85C25.3936 62.1046 26.1168 62.0882 26.7849 61.8008C27.4588 61.5029 28.0028 60.9817 28.4171 60.2372C28.9948 59.1991 29.0322 58.2311 28.5293 57.3333L29.8376 56.537C30.5965 57.9618 30.5471 59.4449 29.6894 60.9863C28.995 62.2342 28.0411 63.0354 26.8275 63.3901C25.6093 63.7284 24.4025 63.565 23.2071 62.8998C22.0222 62.2404 21.2495 61.3092 20.889 60.1061C20.5285 58.9031 20.6867 57.6933 21.3635 56.477C22.0054 55.3235 22.9365 54.6126 24.157 54.3442C25.3729 54.0595 26.5523 54.2351 27.6953 54.8711C27.8945 54.982 28.0902 55.1115 28.2824 55.2596L24.6152 61.85ZM22.6533 57.1947C22.2448 57.9287 22.1161 58.6536 22.2672 59.3693C22.4077 60.0792 22.7919 60.6844 23.4198 61.1848L26.3431 55.9314C25.5344 55.6325 24.8048 55.611 24.1542 55.867C23.5037 56.1229 23.0034 56.5655 22.6533 57.1947Z" fill="#182F43"/>
<path d="M30.3793 43.4312L37.6186 48.7784L36.7095 50.0091L31.4538 46.127L33.4599 51.1669L33.3423 51.3261L27.9353 50.8904L33.191 54.7725L32.2713 56.0177L25.032 50.6704L26.0266 49.3239L31.3687 49.7565L29.3847 44.7777L30.3793 43.4312Z" fill="#182F43"/>
<path d="M40.9346 32.5277L41.9762 33.6237L39.7581 35.7317L44.9166 41.1595L43.7814 42.2383L38.623 36.8105L36.3919 38.9309L35.3503 37.835L40.9346 32.5277Z" fill="#182F43"/>
<path d="M47.1514 34.1468C47.7586 34.6965 48.4258 34.9761 49.153 34.9857C49.8898 34.9881 50.599 34.7337 51.2806 34.2225C52.231 33.5097 52.6594 32.6409 52.5658 31.6161L54.085 31.4217C54.1978 33.0321 53.5486 34.3665 52.1374 35.4249C50.995 36.2817 49.7973 36.6249 48.5445 36.4545C47.2942 36.2672 46.2586 35.6264 45.4378 34.532C44.6242 33.4472 44.2978 32.282 44.4586 31.0364C44.6194 29.7908 45.2566 28.7504 46.3702 27.9152C47.4262 27.1232 48.5662 26.8533 49.7902 27.1053C51.0166 27.3405 52.0222 27.9813 52.807 29.0277C52.9438 29.2101 53.0698 29.4081 53.185 29.6217L47.1514 34.1468ZM47.2558 29.096C46.5838 29.6 46.171 30.2096 46.0174 30.9248C45.8566 31.6304 45.961 32.3396 46.3306 33.0524L51.1402 29.4453C50.5234 28.8429 49.8658 28.5261 49.1674 28.4949C48.469 28.4637 47.8318 28.6641 47.2558 29.096Z" fill="#182F43"/>
<path d="M63.4193 27.9859L61.8316 28.9081L57.9438 27.232L57.4579 31.4485L55.8703 32.3707L56.5353 26.6347L51.5211 24.4889L53.1243 23.5577L56.7053 25.0997L57.14 21.2251L58.7276 20.303L58.1138 25.697L63.4193 27.9859Z" fill="#182F43"/>
<path d="M66.7037 16.6873L68.1414 16.0665L71.7092 24.3291L70.2715 24.9499L68.7802 21.4961L64.5001 23.3442L65.9915 26.798L64.5538 27.4188L60.986 19.1562L62.4237 18.5354L63.9079 21.9726L68.1879 20.1245L66.7037 16.6873Z" fill="#182F43"/>
<path d="M80.913 20.2998C80.2768 21.4315 79.3244 22.1796 78.0557 22.5442C76.787 22.9087 75.5827 22.7803 74.4428 22.1589C73.3144 21.5342 72.5663 20.5818 72.1984 19.3016C71.8306 18.0214 71.959 16.8171 72.5837 15.6887C73.2199 14.557 74.1723 13.8089 75.441 13.4444C76.7097 13.0798 77.914 13.2082 79.0539 13.8296C80.1938 14.451 80.9477 15.4017 81.3155 16.6819C81.6834 17.9621 81.5492 19.1681 80.913 20.2998ZM77.6332 21.0737C78.4982 20.8251 79.1403 20.3222 79.5595 19.565C79.9786 18.8078 80.0623 17.9909 79.8104 17.1144C79.5586 16.2379 79.0541 15.59 78.2968 15.1708C77.5396 14.7516 76.7285 14.6663 75.8635 14.9149C75.0101 15.1601 74.3737 15.6613 73.9545 16.4185C73.5354 17.1757 73.4517 17.9926 73.7035 18.8691C73.9554 19.7457 74.4599 20.3935 75.2172 20.8127C75.9744 21.2319 76.7797 21.3189 77.6332 21.0737Z" fill="#182F43"/>
<path d="M89.4015 10.7571L90.8504 19.6397L89.3048 19.8918L88.0994 12.5015L84.5996 13.0723L85.1907 16.6965C85.4284 18.1532 85.2984 19.22 84.8009 19.897C84.3133 20.5601 83.5288 20.9312 82.4474 21.0103L82.2098 19.5536C82.8274 19.538 83.2562 19.3343 83.4962 18.9425C83.7462 18.537 83.7939 17.8605 83.6394 16.913L82.8106 11.8322L89.4015 10.7571Z" fill="#182F43"/>
<path d="M100.196 17.9403C99.3119 18.8907 98.2102 19.3939 96.8914 19.4499C95.5726 19.5059 94.4323 19.0979 93.4704 18.226C92.5205 17.3535 92.0173 16.2519 91.9608 14.9211C91.9042 13.5903 92.3122 12.4499 93.1847 11.5C94.0692 10.5496 95.1708 10.0464 96.4896 9.99042C97.8084 9.9344 98.9488 10.3424 99.9106 11.2143C100.872 12.0863 101.382 13.1877 101.438 14.5185C101.495 15.8493 101.081 16.9899 100.196 17.9403ZM96.8265 17.9213C97.7257 17.8831 98.468 17.5453 99.0535 16.9078C99.6389 16.2704 99.9123 15.4961 99.8736 14.5849C99.8349 13.6738 99.4969 12.9254 98.8594 12.34C98.222 11.7545 97.4537 11.4808 96.5545 11.519C95.6673 11.5567 94.931 11.8943 94.3455 12.5317C93.76 13.1691 93.4867 13.9434 93.5254 14.8546C93.5641 15.7658 93.9021 16.5141 94.5395 17.0996C95.177 17.6851 95.9393 17.959 96.8265 17.9213Z" fill="#182F43"/>
<path d="M110.369 10.5868L110.265 12.0952L105.937 11.7942L105.417 19.2641L103.855 19.1555L104.48 10.1771L110.369 10.5868Z" fill="#182F43"/>
<path d="M119.167 11.9926L120.407 12.2145L118.823 21.0739L117.299 20.8013L118.411 14.582L112.391 19.9234L111.151 19.7015L112.735 10.8421L114.259 11.1147L113.147 17.334L119.167 11.9926Z" fill="#182F43"/>
<path d="M130.021 14.9688L131.224 15.3442L128.543 23.9356L127.065 23.4744L128.947 17.4433L122.306 21.9891L121.103 21.6137L123.784 13.0224L125.262 13.4835L123.379 19.5146L130.021 14.9688Z" fill="#182F43"/>
<path d="M143.407 20.5864C144.519 21.1786 145.25 22.0912 145.6 23.3241C145.955 24.5465 145.822 25.7402 145.202 26.9053C144.581 28.0704 143.662 28.8521 142.444 29.2503C141.231 29.6379 140.069 29.5356 138.957 28.9433C137.644 28.2439 136.922 27.1866 136.792 25.7714L134.372 30.3153L132.99 29.5793L138.912 18.4578L140.294 19.1939L139.567 20.5602C140.814 19.8783 142.094 19.887 143.407 20.5864ZM139.493 27.5157C140.287 27.9387 141.098 28.024 141.926 27.7714C142.76 27.5083 143.391 26.9743 143.82 26.1693C144.248 25.3643 144.336 24.5479 144.084 23.72C143.837 22.8816 143.316 22.2509 142.522 21.8279C141.717 21.3992 140.898 21.3164 140.064 21.5796C139.236 21.8321 138.608 22.3608 138.179 23.1658C137.751 23.9708 137.66 24.7925 137.907 25.6309C138.159 26.4588 138.688 27.087 139.493 27.5157Z" fill="#182F43"/>
<path d="M156.201 29.1258L157.468 30.047L152.174 37.3252L150.907 36.404L151.818 35.1521C150.488 35.654 149.222 35.4673 148.018 34.592C147 33.8508 146.399 32.8502 146.218 31.5904C146.043 30.3208 146.344 29.1522 147.121 28.0848C147.897 27.0173 148.913 26.376 150.167 26.1609C151.429 25.936 152.569 26.1942 153.588 26.9354C154.791 27.8107 155.359 28.9581 155.291 30.3777L156.201 29.1258ZM149.068 33.4857C149.806 34.0222 150.602 34.223 151.457 34.0881C152.319 33.9435 153.018 33.5024 153.554 32.7649C154.091 32.0274 154.292 31.2312 154.157 30.3763C154.029 29.5116 153.596 28.8111 152.859 28.2746C152.131 27.7452 151.336 27.5528 150.474 27.6974C149.619 27.8323 148.923 28.2685 148.387 29.006C147.85 29.7435 147.646 30.5446 147.774 31.4092C147.909 32.2641 148.34 32.9563 149.068 33.4857Z" fill="#182F43"/>
<path d="M156.399 41.5044C155.431 40.5903 154.933 39.5182 154.905 38.2881C154.878 37.058 155.338 35.9411 156.285 34.9374C157.339 33.8201 158.312 33.1128 159.203 32.8152C160.103 32.5259 161.289 32.6145 162.763 33.0809C163.029 33.1666 163.385 33.2878 163.831 33.4446C164.285 33.6097 164.62 33.7273 164.834 33.7975C165.056 33.8589 165.317 33.915 165.616 33.9657C165.922 34.0078 166.189 33.9957 166.417 33.9297C166.661 33.8632 166.9 33.7501 167.133 33.5906L167.555 34.9789C167.397 35.0939 167.239 35.1919 167.08 35.2729C166.929 35.3452 166.757 35.3969 166.562 35.428C166.385 35.4586 166.229 35.4844 166.093 35.5053C165.958 35.5262 165.771 35.5147 165.532 35.4707C165.31 35.4262 165.144 35.3929 165.033 35.3706C164.93 35.3566 164.742 35.3027 164.468 35.2088C164.202 35.1231 164.018 35.0648 163.915 35.0339C163.829 35.0024 163.627 34.9276 163.31 34.8095C163.001 34.6827 162.807 34.6077 162.73 34.5844C161.898 34.2776 161.219 34.1233 160.692 34.1216C160.175 34.1282 159.665 34.2746 159.164 34.5608C159.773 34.4752 160.365 34.5471 160.941 34.7765C161.516 35.006 162.013 35.3183 162.432 35.7136C163.253 36.4877 163.683 37.4217 163.723 38.5156C163.772 39.6177 163.381 40.6096 162.549 41.4911C161.709 42.3814 160.708 42.8307 159.545 42.8391C158.391 42.8387 157.342 42.3938 156.399 41.5044ZM156.449 38.3833C156.497 39.1544 156.826 39.8282 157.437 40.4047C158.048 40.9811 158.727 41.267 159.474 41.2622C160.229 41.2657 160.875 40.9838 161.41 40.4165C161.962 39.8317 162.219 39.1748 162.181 38.4459C162.159 37.7164 161.839 37.0594 161.219 36.4747C160.661 35.9477 159.986 35.6489 159.194 35.5786C158.419 35.5077 157.76 35.7603 157.217 36.3364C156.657 36.9299 156.401 37.6122 156.449 38.3833Z" fill="#182F43"/>
<path d="M166.391 50.4626C165.099 50.3316 164.033 49.7574 163.192 48.7401C162.35 47.7228 161.987 46.5675 162.101 45.2743C162.223 43.9903 162.797 42.9239 163.823 42.0751C164.85 41.2264 166.005 40.8628 167.289 40.9846C168.581 41.1156 169.647 41.6897 170.488 42.707C171.33 43.7243 171.693 44.8796 171.579 46.1729C171.465 47.4661 170.895 48.5371 169.868 49.3859C168.841 50.2346 167.682 50.5935 166.391 50.4626ZM164.371 47.7652C164.944 48.4588 165.662 48.8465 166.523 48.9282C167.385 49.0098 168.167 48.7601 168.87 48.179C169.573 47.5978 169.965 46.8765 170.047 46.0148C170.129 45.1532 169.883 44.3756 169.309 43.6819C168.743 42.9976 168.03 42.6145 167.168 42.5328C166.306 42.4512 165.524 42.7009 164.821 43.282C164.118 43.8632 163.726 44.5845 163.644 45.4462C163.563 46.3078 163.805 47.0808 164.371 47.7652Z" fill="#182F43"/>
<path d="M178.528 54.3619L177.261 55.1876L175.59 52.6241L169.317 56.7131L168.462 55.4012L174.735 51.3122L173.054 48.7336L174.321 47.908L178.528 54.3619Z" fill="#182F43"/>
<path d="M183.222 63.4303L183.912 64.8363L175.831 68.7994L175.142 67.3934L176.532 66.7118C175.121 66.5346 174.089 65.778 173.434 64.4421C172.879 63.3108 172.815 62.1457 173.243 60.9469C173.682 59.7427 174.493 58.85 175.679 58.2688C176.864 57.6875 178.061 57.5947 179.271 57.9904C180.492 58.3808 181.379 59.1416 181.934 60.2729C182.589 61.6089 182.555 62.8886 181.832 64.112L183.222 63.4303ZM174.878 63.954C175.28 64.7729 175.89 65.3223 176.709 65.6022C177.539 65.8769 178.363 65.8135 179.182 65.4119C180.001 65.0103 180.55 64.4 180.83 63.5811C181.121 62.7568 181.065 61.9353 180.664 61.1165C180.268 60.3084 179.655 59.767 178.825 59.4923C178.006 59.2124 177.187 59.2732 176.368 59.6748C175.549 60.0764 174.995 60.6893 174.704 61.5135C174.424 62.3325 174.482 63.146 174.878 63.954Z" fill="#182F43"/>
<path d="M187.35 74.3313L185.923 74.8304L184.913 71.942L177.845 74.4138L177.328 72.9356L184.396 70.4637L183.38 67.5583L184.807 67.0592L187.35 74.3313Z" fill="#182F43"/>
<path d="M185.671 80.9118C185.88 81.7872 185.79 82.5736 185.402 83.2708C185.027 83.977 184.426 84.429 183.597 84.6267C182.768 84.8245 182.022 84.6942 181.357 84.2359C180.707 83.7865 180.278 83.1241 180.069 82.2487L179.187 78.5544L187.941 76.4655L188.305 77.9887L185.153 78.7407L185.671 80.9118ZM181.487 81.9103C181.59 82.3422 181.799 82.6748 182.114 82.9081C182.443 83.1503 182.817 83.2213 183.238 83.121C183.658 83.0207 183.96 82.7882 184.145 82.4234C184.332 82.0704 184.374 81.6779 184.271 81.246L183.753 79.075L180.969 79.7393L181.487 81.9103Z" fill="#182F43"/>
<path d="M180.976 88.0068C180.926 87.6867 180.996 87.3964 181.187 87.1362C181.377 86.8759 181.632 86.7209 181.952 86.6712C182.272 86.6215 182.563 86.6918 182.823 86.8821C183.083 87.0724 183.238 87.3277 183.288 87.6478C183.339 87.9799 183.269 88.2701 183.077 88.5185C182.887 88.7788 182.631 88.9338 182.311 88.9835C181.991 89.0332 181.701 88.9629 181.441 88.7726C181.182 88.5941 181.027 88.3388 180.976 88.0068Z" fill="#182F43"/>
</svg>
