<svg width="196" height="197" viewBox="0 0 196 197" fill="none" xmlns="http://www.w3.org/2000/svg">
<path d="M175.471 75.6845L175.896 76.9658L172.104 78.2242L171.577 76.6354L173.866 75.8758L171.247 67.983L168.958 68.7425L168.431 67.1537L172.223 65.8953L172.569 66.9374C173.737 67.3716 175.261 67.2769 177.14 66.6534L183.393 64.5787L185.927 72.2153L175.471 75.6845ZM173.164 68.7312L174.944 74.0957L183.913 71.1196L182.434 66.6607L177.633 68.2536C175.822 68.8544 174.333 69.0137 173.164 68.7312Z" fill="#182F43"/>
<path d="M184.484 82.8749L184.722 84.1123L175.883 85.811L175.591 84.2908L181.796 83.0983L174.65 79.3944L174.412 78.1571L183.251 76.4584L183.543 77.9786L177.338 79.1711L184.484 82.8749Z" fill="#182F43"/>
<path d="M181.011 91.8813C180.687 92.9078 180.017 93.4637 179.001 93.5488C178.247 93.6119 177.583 93.3665 177.006 92.8127C176.442 92.2578 176.114 91.4303 176.022 90.3302C175.872 88.5365 176.488 87.2746 177.872 86.5446L178.753 87.7894C177.802 88.2183 177.376 89.0306 177.476 90.2265C177.526 90.8244 177.69 91.2742 177.968 91.5761C178.26 91.8889 178.608 92.0282 179.015 91.9942C179.374 91.9642 179.655 91.8021 179.859 91.508C180.065 91.2259 180.148 90.8577 180.11 90.4033L180 89.0938L181.417 88.9752L181.499 89.9438C181.537 90.3982 181.674 90.7419 181.91 90.975C182.158 91.2071 182.474 91.3072 182.856 91.2751C183.239 91.2431 183.537 91.0676 183.752 90.7486C183.967 90.4416 184.053 90.0309 184.01 89.5167C183.926 88.5123 183.444 87.8662 182.565 87.5785L183.194 86.2434C184.562 86.767 185.313 87.8181 185.445 89.3966C185.527 90.3771 185.34 91.1695 184.885 91.7736C184.431 92.3896 183.839 92.7282 183.11 92.7893C182.201 92.8654 181.501 92.5627 181.011 91.8813Z" fill="#182F43"/>
<path d="M185.374 102.129L185.334 103.694L176.337 103.467L176.377 101.902L177.924 101.941C176.756 101.131 176.191 99.9823 176.229 98.4948C176.261 97.2352 176.744 96.1731 177.678 95.3084C178.624 94.444 179.757 94.0285 181.076 94.0618C182.396 94.0951 183.5 94.5672 184.39 95.4779C185.291 96.389 185.726 97.4743 185.694 98.7339C185.656 100.221 185.034 101.34 183.826 102.09L185.374 102.129ZM177.735 98.7309C177.712 99.6426 177.999 100.412 178.595 101.039C179.204 101.667 179.964 101.992 180.875 102.015C181.787 102.038 182.557 101.752 183.184 101.155C183.823 100.559 184.154 99.8054 184.177 98.8936C184.2 97.9939 183.907 97.2303 183.299 96.6027C182.702 95.9755 181.948 95.6503 181.037 95.6273C180.125 95.6043 179.349 95.8908 178.71 96.4868C178.083 97.0832 177.758 97.8312 177.735 98.7309Z" fill="#182F43"/>
<path d="M186.154 107.6L187.506 107.806L186.775 112.61L185.422 112.405L186.154 107.6ZM184.058 112.397L183.868 113.643L174.971 112.288L175.204 110.757L181.45 111.709L175.954 105.828L176.144 104.583L185.042 105.938L184.809 107.468L178.563 106.517L184.058 112.397Z" fill="#182F43"/>
<path d="M181.655 122.112L181.24 123.622L172.562 121.237L172.977 119.727L176.604 120.724L177.84 116.229L174.212 115.232L174.627 113.722L183.305 116.107L182.89 117.617L179.28 116.625L178.045 121.12L181.655 122.112Z" fill="#182F43"/>
<path d="M179.268 140.693C178.748 141.734 177.967 142.424 176.926 142.761C175.89 143.115 174.857 143.035 173.826 142.519C172.807 142.009 172.123 141.231 171.774 140.185C171.42 139.149 171.503 138.11 172.024 137.069L173.321 134.478L169.296 132.464L170.045 130.967L181.314 136.604L179.268 140.693ZM173.425 137.77C173.113 138.392 173.065 139.012 173.28 139.629C173.505 140.252 173.934 140.722 174.567 141.038C175.211 141.36 175.844 141.422 176.467 141.224C177.09 141.025 177.557 140.615 177.868 139.992L179.164 137.401L174.721 135.178L173.425 137.77Z" fill="#182F43"/>
<path d="M169.212 150.288L168.343 151.591L160.853 146.601L161.722 145.298L163.01 146.156C162.454 144.848 162.588 143.575 163.413 142.337C164.112 141.288 165.087 140.647 166.338 140.414C167.599 140.187 168.779 140.44 169.878 141.172C170.976 141.903 171.659 142.892 171.925 144.136C172.202 145.388 171.991 146.538 171.293 147.586C170.468 148.825 169.344 149.439 167.923 149.43L169.212 150.288ZM164.562 143.34C164.056 144.099 163.888 144.903 164.058 145.751C164.238 146.607 164.708 147.287 165.467 147.793C166.226 148.299 167.029 148.466 167.878 148.296C168.737 148.133 169.419 147.672 169.924 146.913C170.423 146.164 170.583 145.362 170.403 144.506C170.233 143.658 169.768 142.981 169.009 142.475C168.25 141.969 167.442 141.798 166.583 141.962C165.734 142.132 165.061 142.591 164.562 143.34Z" fill="#182F43"/>
<path d="M160.555 154.019C159.605 154.523 158.737 154.449 157.953 153.797C157.372 153.313 157.071 152.672 157.049 151.873C157.036 151.082 157.383 150.262 158.089 149.413C159.24 148.03 160.565 147.564 162.064 148.014L161.818 149.519C160.839 149.157 159.966 149.438 159.198 150.36C158.814 150.821 158.616 151.257 158.602 151.667C158.59 152.094 158.741 152.438 159.054 152.699C159.331 152.93 159.645 153.012 159.997 152.945C160.341 152.888 160.659 152.684 160.951 152.334L161.791 151.324L162.884 152.234L162.263 152.981C161.971 153.331 161.827 153.672 161.832 154.004C161.846 154.344 162.001 154.636 162.296 154.882C162.591 155.128 162.927 155.212 163.303 155.135C163.672 155.067 164.021 154.835 164.352 154.438C164.996 153.664 165.106 152.865 164.682 152.044L166.067 151.533C166.674 152.867 166.472 154.142 165.458 155.36C164.829 156.116 164.14 156.55 163.392 156.661C162.636 156.781 161.977 156.607 161.414 156.139C160.713 155.555 160.427 154.849 160.555 154.019Z" fill="#182F43"/>
<path d="M158.359 162.858C157.451 163.731 156.356 164.142 155.076 164.09C153.803 164.048 152.71 163.551 151.796 162.599C150.881 161.647 150.424 160.53 150.424 159.249C150.433 157.976 150.892 156.903 151.8 156.03C152.873 154.999 154.103 154.642 155.488 154.958L151.922 151.246L153.051 150.161L161.78 159.247L160.651 160.332L159.578 159.216C159.839 160.613 159.432 161.827 158.359 162.858ZM152.99 156.983C152.341 157.607 152.008 158.351 151.991 159.216C151.982 160.09 152.293 160.856 152.925 161.514C153.557 162.172 154.305 162.509 155.171 162.526C156.044 162.552 156.806 162.254 157.455 161.63C158.112 160.998 158.446 160.245 158.455 159.371C158.472 158.506 158.165 157.745 157.533 157.087C156.901 156.429 156.149 156.087 155.275 156.061C154.41 156.044 153.648 156.351 152.99 156.983Z" fill="#182F43"/>
<path d="M147.605 171.247L146.347 172.179L140.991 164.946L142.249 164.014L143.171 165.258C143.09 163.839 143.648 162.687 144.844 161.802C145.857 161.052 146.991 160.779 148.248 160.984C149.511 161.198 150.536 161.835 151.321 162.896C152.107 163.957 152.414 165.118 152.243 166.379C152.079 167.65 151.491 168.661 150.479 169.41C149.283 170.296 148.018 170.494 146.684 170.003L147.605 171.247ZM145.585 163.135C144.852 163.677 144.422 164.377 144.294 165.233C144.173 166.098 144.385 166.898 144.927 167.631C145.47 168.364 146.17 168.794 147.026 168.921C147.889 169.059 148.687 168.856 149.42 168.313C150.143 167.778 150.565 167.077 150.685 166.211C150.813 165.355 150.605 164.561 150.063 163.828C149.52 163.095 148.817 162.66 147.954 162.523C147.098 162.395 146.308 162.599 145.585 163.135Z" fill="#182F43"/>
<path d="M136.423 167.212C137.582 166.556 138.753 166.396 139.936 166.732C141.12 167.069 142.052 167.837 142.732 169.038C143.489 170.374 143.878 171.512 143.9 172.452C143.911 173.397 143.477 174.505 142.597 175.775C142.437 176.004 142.216 176.308 141.935 176.688C141.643 177.074 141.432 177.359 141.302 177.543C141.178 177.738 141.047 177.97 140.911 178.241C140.78 178.521 140.713 178.78 140.709 179.017C140.701 179.27 140.739 179.531 140.823 179.801L139.371 179.795C139.308 179.611 139.261 179.43 139.23 179.255C139.206 179.089 139.207 178.909 139.235 178.714C139.258 178.536 139.279 178.379 139.299 178.243C139.319 178.108 139.385 177.933 139.497 177.717C139.605 177.518 139.686 177.369 139.74 177.269C139.784 177.176 139.891 177.012 140.061 176.777C140.222 176.549 140.332 176.39 140.391 176.301C140.447 176.228 140.578 176.057 140.784 175.789C140.996 175.531 141.125 175.368 141.17 175.301C141.708 174.596 142.056 173.993 142.213 173.49C142.359 172.993 142.369 172.464 142.243 171.901C142.146 172.507 141.903 173.052 141.514 173.534C141.125 174.017 140.68 174.4 140.179 174.684C139.197 175.239 138.178 175.376 137.121 175.092C136.053 174.814 135.221 174.148 134.623 173.093C134.02 172.028 133.886 170.939 134.22 169.825C134.561 168.722 135.295 167.851 136.423 167.212ZM139.391 168.179C138.64 167.998 137.899 168.114 137.168 168.528C136.437 168.942 135.964 169.507 135.748 170.222C135.522 170.943 135.601 171.643 135.986 172.321C136.382 173.021 136.934 173.46 137.642 173.638C138.345 173.833 139.068 173.72 139.809 173.3C140.477 172.922 140.961 172.365 141.262 171.629C141.558 170.91 141.511 170.205 141.12 169.516C140.718 168.806 140.142 168.361 139.391 168.179Z" fill="#182F43"/>
<path d="M125.384 173.812C125.889 172.616 126.752 171.766 127.972 171.261C129.191 170.757 130.403 170.749 131.605 171.239C132.796 171.733 133.647 172.595 134.156 173.826C134.665 175.057 134.672 176.268 134.178 177.46C133.673 178.656 132.81 179.506 131.591 180.01C130.371 180.515 129.16 180.522 127.957 180.033C126.755 179.543 125.899 178.683 125.39 177.452C124.881 176.221 124.879 175.008 125.384 173.812ZM128.556 172.675C127.725 173.019 127.143 173.591 126.812 174.39C126.48 175.19 126.488 176.011 126.837 176.854C127.186 177.696 127.76 178.284 128.559 178.615C129.359 178.947 130.174 178.941 131.006 178.597C131.826 178.257 132.402 177.688 132.734 176.888C133.066 176.089 133.057 175.268 132.709 174.425C132.36 173.582 131.786 172.995 130.987 172.663C130.187 172.332 129.377 172.336 128.556 172.675Z" fill="#182F43"/>
<path d="M118.363 184.109L117.945 182.656L120.885 181.809L118.813 174.614L120.318 174.18L122.39 181.376L125.348 180.524L125.766 181.977L118.363 184.109Z" fill="#182F43"/>
<path d="M107.967 176.869L109.88 176.52L114.683 179.979L113.917 175.783L115.458 175.502L117.074 184.355L115.533 184.637L114.819 180.723L111.708 185.335L109.725 185.697L113.175 180.639L107.967 176.869Z" fill="#182F43"/>
<path d="M100.178 186.39L98.6152 186.488L98.0513 177.506L99.6142 177.408L99.7112 178.953C100.415 177.718 101.51 177.054 102.995 176.961C104.252 176.882 105.353 177.27 106.296 178.125C107.24 178.991 107.754 180.083 107.837 181.4C107.919 182.718 107.546 183.859 106.717 184.825C105.889 185.803 104.846 186.332 103.588 186.41C102.103 186.504 100.934 185.982 100.081 184.845L100.178 186.39ZM102.892 178.483C101.982 178.54 101.24 178.893 100.668 179.542C100.096 180.203 99.839 180.989 99.8962 181.899C99.9533 182.809 100.306 183.55 100.956 184.123C101.606 184.707 102.386 184.971 103.296 184.914C104.194 184.857 104.929 184.499 105.501 183.838C106.073 183.188 106.331 182.409 106.274 181.499C106.216 180.588 105.863 179.841 105.213 179.257C104.564 178.684 103.79 178.426 102.892 178.483Z" fill="#182F43"/>
<path d="M78.8558 177.436C80.3307 176.421 81.9642 176.083 83.7562 176.423C85.5483 176.762 86.9449 177.674 87.946 179.159C88.947 180.643 89.2788 182.276 88.9413 184.056C88.6016 185.848 87.6954 187.246 86.2228 188.249C84.748 189.264 83.1145 189.602 81.3224 189.262C79.5303 188.922 78.1337 188.01 77.1327 186.526C76.1176 185.051 75.7799 183.418 76.1196 181.625C76.4571 179.845 77.3692 178.449 78.8558 177.436ZM86.6029 180.058C85.8576 178.965 84.807 178.289 83.4512 178.032C82.0953 177.775 80.8763 178.02 79.7942 178.768C78.698 179.525 78.0214 180.581 77.7644 181.937C77.5051 183.305 77.7481 184.536 78.4934 185.63C79.2247 186.733 80.2683 187.413 81.6241 187.67C82.98 187.927 84.206 187.677 85.3022 186.92C86.3843 186.173 87.055 185.115 87.3143 183.748C87.5713 182.392 87.3342 181.162 86.6029 180.058Z" fill="#182F43"/>
<path d="M66.6736 181.07L69.5933 172.557L71.0746 173.065L68.6396 180.165L73.0495 181.678L75.4845 174.578L76.9658 175.086L74.0461 183.599L66.6736 181.07Z" fill="#182F43"/>
<path d="M58.3864 177.282L59.0199 175.909L61.7984 177.191L64.9356 170.392L66.3575 171.048L63.2203 177.847L66.0152 179.137L65.3817 180.51L58.3864 177.282Z" fill="#182F43"/>
<path d="M51.5771 173.265L50.4949 172.619L55.1044 164.889L56.4339 165.682L53.1981 171.109L60.7163 168.236L61.7985 168.881L57.1891 176.611L55.8596 175.818L59.0954 170.392L51.5771 173.265Z" fill="#182F43"/>
<path d="M41.3218 165.698L46.8261 158.578L48.0366 159.513L44.0405 164.683L49.123 162.787L49.2797 162.909L48.7259 168.305L52.722 163.135L53.9467 164.082L48.4425 171.202L47.118 170.179L47.6673 164.847L42.6463 166.722L41.3218 165.698Z" fill="#182F43"/>
<path d="M35.0855 159.558L34.1926 158.669L40.5428 152.291L41.6397 153.383L37.182 157.861L45.173 156.901L46.0659 157.79L39.7158 164.168L38.6188 163.076L43.0766 158.599L35.0855 159.558Z" fill="#182F43"/>
<path d="M32.9626 150.265C32.6503 149.235 32.8896 148.398 33.6807 147.754C34.267 147.277 34.9543 147.104 35.7425 147.236C36.5215 147.376 37.2595 147.874 37.9564 148.73C39.0927 150.126 39.2957 151.516 38.5653 152.899L37.1355 152.369C37.6789 151.478 37.5719 150.567 36.8143 149.636C36.4355 149.171 36.0462 148.892 35.6462 148.8C35.2293 148.706 34.8627 148.788 34.5463 149.045C34.2671 149.273 34.1262 149.565 34.1236 149.923C34.1134 150.272 34.2523 150.623 34.5402 150.977L35.3697 151.996L34.2669 152.894L33.6532 152.14C33.3654 151.786 33.0581 151.58 32.7315 151.521C32.3956 151.469 32.0788 151.565 31.7809 151.807C31.4831 152.049 31.3359 152.363 31.3391 152.747C31.3348 153.122 31.4955 153.509 31.8213 153.91C32.4576 154.691 33.2198 154.953 34.1078 154.694L34.3423 156.151C32.9171 156.491 31.7045 156.047 30.7045 154.819C30.0833 154.055 29.7901 153.296 29.8249 152.541C29.8522 151.776 30.1496 151.162 30.7173 150.7C31.4246 150.124 32.1731 149.979 32.9626 150.265Z" fill="#182F43"/>
<path d="M23.5785 144.275L22.7284 142.96L30.287 138.075L31.137 139.39L29.837 140.23C31.2581 140.24 32.3725 140.87 33.1803 142.12C33.8642 143.178 34.0643 144.328 33.7804 145.569C33.4864 146.816 32.7851 147.798 31.6765 148.514C30.5679 149.231 29.3897 149.464 28.1417 149.213C26.8836 148.969 25.9126 148.318 25.2287 147.26C24.4209 146.01 24.3042 144.735 24.8785 143.435L23.5785 144.275ZM31.803 142.775C31.3079 142.009 30.6373 141.535 29.7911 141.353C28.9348 141.178 28.1237 141.338 27.3578 141.833C26.5918 142.328 26.118 142.998 25.9362 143.845C25.7443 144.697 25.896 145.507 26.391 146.273C26.8796 147.028 27.552 147.494 28.4083 147.669C29.2544 147.851 30.0605 147.694 30.8264 147.199C31.5924 146.704 32.0713 146.03 32.2631 145.178C32.4449 144.331 32.2915 143.53 31.803 142.775Z" fill="#182F43"/>
<path d="M25.3152 131.138L24.6761 129.807L28.1971 128.116L28.8673 129.512L26.693 130.556L29.9349 137.306L21.8221 141.202L21.1441 139.791L27.9102 136.541L25.9931 132.549L19.2271 135.799L18.5491 134.387L25.3152 131.138Z" fill="#182F43"/>
<path d="M15.0847 124.806L14.683 123.612L23.2133 120.743L23.7068 122.21L17.7185 124.224L25.2964 126.936L25.6981 128.13L17.1678 130.999L16.6743 129.532L22.6626 127.518L15.0847 124.806Z" fill="#182F43"/>
<path d="M12.5931 114.315L21.3976 112.449L21.7185 113.963L18.5489 114.635L18.8213 115.921L22.5133 117.714L22.9088 119.581L19.1064 117.7C19.0813 118.392 18.8658 118.996 18.4598 119.511C18.0538 120.027 17.5221 120.354 16.8647 120.493C16.0547 120.665 15.3188 120.521 14.6569 120.06C13.995 119.599 13.572 118.934 13.3879 118.065L12.5931 114.315ZM17.6381 117.11L17.1754 114.926L14.3403 115.527L14.803 117.71C14.8951 118.145 15.1025 118.487 15.4255 118.738C15.7484 118.988 16.1271 119.067 16.5614 118.975C16.9841 118.886 17.2922 118.661 17.4857 118.301C17.6793 117.941 17.7301 117.544 17.6381 117.11Z" fill="#182F43"/>
<path d="M6.3921 94.2143L7.97607 94.2045L7.99924 97.9304L19.015 97.8619L19.0253 99.5179L8.00954 99.5864L8.03261 103.294L6.44864 103.304L6.3921 94.2143Z" fill="#182F43"/>
<path d="M15.4238 92.503C16.2398 92.4335 16.8993 92.1361 17.4021 91.6107C17.9063 91.0734 18.2037 90.3811 18.2945 89.534C18.4211 88.3527 18.0776 87.447 17.2642 86.8167L18.1578 85.5728C19.4127 86.5883 19.9462 87.9731 19.7583 89.727C19.6061 91.1469 19.0406 92.257 18.0618 93.0572C17.0723 93.8443 15.8974 94.1649 14.5372 94.0192C13.1889 93.8747 12.114 93.319 11.3125 92.3521C10.5109 91.3852 10.1843 90.2097 10.3326 88.8256C10.4733 87.5131 11.0531 86.4951 12.072 85.7715C13.0802 85.0348 14.2346 84.7361 15.5352 84.8754C15.7619 84.8997 15.9926 84.9426 16.2274 85.0039L15.4238 92.503ZM11.8002 88.9829C11.7107 89.8181 11.8752 90.5357 12.2937 91.1357C12.7002 91.7344 13.2902 92.1416 14.0636 92.3572L14.7042 86.3795C13.843 86.4199 13.1628 86.685 12.6638 87.1746C12.1648 87.6642 11.877 88.267 11.8002 88.9829Z" fill="#182F43"/>
<path d="M21.3287 80.722C21.0253 82.0437 20.3344 83.0424 19.2558 83.7182C18.1656 84.3913 16.9655 84.5775 15.6556 84.2768C14.3456 83.9761 13.3528 83.2865 12.6769 82.2079C11.9894 81.1267 11.7974 79.9253 12.1008 78.6036C12.2995 77.7382 12.6885 77.0087 13.268 76.4153C13.8357 75.8192 14.5094 75.4322 15.289 75.2541L15.7319 76.7039C15.213 76.8187 14.7596 77.0779 14.3715 77.4812C13.9861 77.8729 13.7262 78.3612 13.592 78.946C13.3906 79.8232 13.5197 80.6285 13.9793 81.3619C14.4415 82.0836 15.1171 82.5465 16.0059 82.7505C16.8831 82.9519 17.6871 82.8287 18.4178 82.3808C19.1512 81.9212 19.6186 81.2529 19.82 80.3757C19.9542 79.7909 19.9406 79.2337 19.7789 78.7041C19.6056 78.1719 19.3133 77.7292 18.9018 77.3762L19.9542 76.2512C20.5584 76.7838 20.9904 77.4494 21.2504 78.2478C21.4986 79.0435 21.5247 79.8683 21.3287 80.722Z" fill="#182F43"/>
<path d="M16.1288 66.2562L17.5582 66.7493L16.5603 69.642L23.639 72.0839L23.1283 73.5643L16.0496 71.1224L15.0459 74.0322L13.6165 73.5391L16.1288 66.2562Z" fill="#182F43"/>
<path d="M19.2837 59.3662L19.8138 58.2232L27.9784 62.0099L27.3271 63.4142L21.5955 60.7559L25.2293 67.9374L24.6992 69.0804L16.5345 65.2938L17.1858 63.8894L22.9174 66.5477L19.2837 59.3662Z" fill="#182F43"/>
<path d="M23.5598 51.4312C24.2268 50.3622 25.1873 49.6956 26.4413 49.4313C27.6851 49.1607 28.8669 49.3747 29.9868 50.0735C31.1067 50.7722 31.8236 51.7428 32.1375 52.9853C32.4411 54.2215 32.2595 55.3741 31.5925 56.4431C30.8048 57.7055 29.7006 58.3531 28.2798 58.386L32.6474 61.1111L31.8184 62.4397L21.1285 55.7699L21.9575 54.4413L23.2708 55.2608C22.6758 53.9701 22.7721 52.6936 23.5598 51.4312ZM30.2049 55.8107C30.6813 55.0471 30.8219 54.2437 30.6266 53.4005C30.4212 52.551 29.9316 51.8849 29.1579 51.4021C28.3841 50.9193 27.5756 50.7756 26.7325 50.9708C25.8791 51.1597 25.2142 51.636 24.7378 52.3996C24.255 53.1733 24.1164 53.9849 24.3218 54.8345C24.5171 55.6777 25.0016 56.3406 25.7753 56.8234C26.5491 57.3062 27.3626 57.4531 28.216 57.2642C29.0592 57.0689 29.7221 56.5844 30.2049 55.8107Z" fill="#182F43"/>
<path d="M38.1473 45.4196C38.2684 46.7122 37.9113 47.8695 37.0757 48.8914C36.2402 49.9133 35.177 50.4932 33.8861 50.6313C32.6027 50.7601 31.4455 50.4029 30.4143 49.5598C29.3831 48.7166 28.8031 47.6534 28.6743 46.3701C28.5532 45.0775 28.9103 43.9202 29.7459 42.8983C30.5814 41.8764 31.6446 41.2964 32.9355 41.1584C34.2265 41.0203 35.3875 41.3729 36.4187 42.216C37.4499 43.0591 38.0261 44.127 38.1473 45.4196ZM35.8912 47.9229C36.4609 47.2262 36.7026 46.4472 36.6161 45.586C36.5297 44.7248 36.1335 44.0056 35.4275 43.4283C34.7214 42.8511 33.9378 42.6056 33.0766 42.692C32.2155 42.7785 31.5 43.17 30.9304 43.8668C30.3683 44.5542 30.1304 45.3286 30.2168 46.1897C30.3033 47.0509 30.6995 47.7701 31.4055 48.3474C32.1116 48.9247 32.8952 49.1701 33.7564 49.0837C34.6175 48.9973 35.3292 48.6104 35.8912 47.9229Z" fill="#182F43"/>
<path d="M41.7197 36.9258C42.6511 36.5604 43.4669 36.7402 44.167 37.4655C44.6837 38.0008 44.9275 38.6161 44.8982 39.3115C44.8693 39.9899 44.5224 40.65 43.8576 41.2917L40.62 44.4171L34.3693 37.9419L37.3479 35.0665C37.9954 34.4415 38.6545 34.1221 39.3252 34.1085C39.9876 34.0862 40.5729 34.3384 41.0813 34.8651C41.6814 35.4867 41.8942 36.1736 41.7197 36.9258ZM38.2712 36.1267L36.4452 37.8894L38.0829 39.5859L39.9089 37.8232C40.5651 37.1898 40.6139 36.5838 40.0556 36.0054C39.5222 35.4528 38.9274 35.4933 38.2712 36.1267ZM42.8053 40.3311C43.1334 40.0144 43.3087 39.695 43.3314 39.3729C43.3627 39.0425 43.2408 38.7349 42.9658 38.4499C42.7074 38.1823 42.4167 38.0626 42.0937 38.0908C41.771 38.1021 41.4457 38.2661 41.1176 38.5828L39.0455 40.5831L40.7332 42.3314L42.8053 40.3311Z" fill="#182F43"/>
<path d="M47.3375 26.8304L48.5854 25.8844L54.0225 33.0564L52.7745 34.0025L51.8394 32.7689C51.9355 34.1868 51.3907 35.3452 50.2049 36.2442C49.2008 37.0053 48.0694 37.2908 46.8108 37.1005C45.545 36.9006 44.5134 36.2747 43.7159 35.2228C42.9185 34.1709 42.5981 33.0133 42.7548 31.7501C42.9042 30.4773 43.481 29.4603 44.4851 28.6992C45.6709 27.8002 46.9334 27.5885 48.2727 28.064L47.3375 26.8304ZM49.4492 34.9196C50.176 34.3687 50.5984 33.6645 50.7164 32.8071C50.8271 31.9401 50.607 31.1432 50.056 30.4164C49.5051 29.6897 48.8009 29.2673 47.9435 29.1493C47.0788 29.0218 46.2831 29.2335 45.5563 29.7844C44.8391 30.3282 44.4251 31.0335 44.3144 31.9005C44.1964 32.7579 44.4129 33.55 44.9639 34.2768C45.5148 35.0035 46.2226 35.4307 47.0873 35.5582C47.9447 35.6762 48.732 35.4633 49.4492 34.9196Z" fill="#182F43"/>
<path d="M55.8936 21.5882L57.2495 20.8045L61.7533 28.5965L60.3975 29.3802L58.5149 26.1231L54.4786 28.4561L56.3612 31.7132L55.0054 32.4969L50.5016 24.7049L51.8574 23.9212L53.731 27.1627L57.7673 24.8297L55.8936 21.5882Z" fill="#182F43"/>
<path d="M65.5226 17.1193L66.6804 16.6222L70.2315 24.892L68.8091 25.5028L66.3162 19.6974L64.2277 27.4701L63.0699 27.9672L59.5188 19.6974L60.9412 19.0867L63.4341 24.892L65.5226 17.1193Z" fill="#182F43"/>
<path d="M71.3741 20.5459C71.7535 21.2717 72.2827 21.765 72.9616 22.0257C73.652 22.283 74.4054 22.2898 75.2218 22.0462C76.3602 21.7064 77.0629 21.0397 77.3298 20.0458L78.8224 20.3893C78.3708 21.9392 77.2998 22.9664 75.6094 23.4708C74.2411 23.8792 72.9987 23.7866 71.8824 23.1931C70.7741 22.5846 70.0243 21.6249 69.6331 20.3141C69.2453 19.0147 69.3425 17.8086 69.9245 16.6956C70.5065 15.5827 71.4645 14.8272 72.7984 14.4291C74.0632 14.0516 75.2262 14.193 76.2873 14.8531C77.3565 15.4983 78.0781 16.4476 78.4521 17.7009C78.5173 17.9194 78.567 18.1488 78.6011 18.3891L71.3741 20.5459ZM73.2205 15.8435C72.4155 16.0837 71.8172 16.5127 71.4256 17.1305C71.0304 17.7368 70.8829 18.4383 70.9829 19.235L76.7438 17.5157C76.3737 16.7371 75.8664 16.2122 75.222 15.9412C74.5776 15.6701 73.9104 15.6376 73.2205 15.8435Z" fill="#182F43"/>
<path d="M97.5448 7.36452L98.1973 19.9476L96.5256 20.0343L95.9551 9.03309L90.1668 9.33327L90.7374 20.3345L89.0656 20.4212L88.413 7.83809L97.5448 7.36452Z" fill="#182F43"/>
<path d="M107.215 19.4737C106.221 20.3084 105.066 20.6726 103.75 20.5665C102.434 20.4603 101.352 19.9155 100.505 18.9322C99.6691 17.9497 99.3048 16.7947 99.4119 15.467C99.5191 14.1393 100.064 13.0576 101.046 12.222C102.041 11.3872 103.196 11.023 104.511 11.1291C105.827 11.2353 106.909 11.7801 107.756 12.7635C108.604 13.7468 108.974 14.9024 108.867 16.23C108.76 17.5577 108.209 18.6389 107.215 19.4737ZM103.873 19.0414C104.77 19.1138 105.548 18.8696 106.207 18.3088C106.867 17.748 107.233 17.0131 107.306 16.1041C107.38 15.195 107.136 14.4109 106.575 13.7517C106.014 13.0924 105.285 12.7266 104.388 12.6542C103.503 12.5828 102.731 12.8274 102.072 13.3882C101.413 13.949 101.046 14.6839 100.973 15.593C100.899 16.502 101.143 17.2862 101.704 17.9454C102.265 18.6047 102.988 18.97 103.873 19.0414Z" fill="#182F43"/>
<path d="M117.762 21.1149L118.977 21.3749L118.159 25.1944L116.645 24.8703L117.15 22.5118L110.55 21.0989L110.045 23.4575L108.531 23.1334L109.349 19.314L110.423 19.5438C111.152 18.8899 111.665 17.8648 111.964 16.4684L112.838 12.3849L119.333 13.7752L117.762 21.1149ZM112.165 19.9168L116.249 20.7909L117.514 14.8769L114.047 14.1346L113.478 16.7924C113.197 18.1066 112.759 19.1481 112.165 19.9168Z" fill="#182F43"/>
<path d="M127.118 24.2018L128.291 24.6111L127.003 28.2989L125.542 27.7887L126.337 25.5115L119.964 23.287L119.169 25.5642L117.707 25.0541L118.995 21.3663L120.031 21.7281C120.836 21.1702 121.474 20.2171 121.945 18.8689L123.321 14.9262L129.592 17.1151L127.118 24.2018ZM121.714 22.3154L125.657 23.6916L127.65 17.9815L124.302 16.8129L123.406 19.379C122.963 20.648 122.399 21.6267 121.714 22.3154Z" fill="#182F43"/>
<path d="M131.634 23.6785C131.417 24.4683 131.468 25.1899 131.787 25.8434C132.117 26.5021 132.664 27.0206 133.427 27.3986C134.492 27.9257 135.46 27.9165 136.333 27.3711L137.191 28.6396C135.805 29.4661 134.321 29.4881 132.74 28.7054C131.46 28.0718 130.614 27.1574 130.202 25.9623C129.805 24.7617 129.91 23.5485 130.517 22.3225C131.119 21.1073 132.012 20.2907 133.196 19.8728C134.381 19.4549 135.597 19.5548 136.844 20.1724C138.027 20.7581 138.782 21.6541 139.109 22.8603C139.451 24.061 139.333 25.2475 138.752 26.4197C138.651 26.624 138.531 26.8258 138.393 27.0249L131.634 23.6785ZM136.189 21.4952C135.436 21.1225 134.706 21.0288 133.999 21.214C133.296 21.3885 132.71 21.8014 132.241 22.4526L137.628 25.12C137.888 24.2979 137.874 23.5681 137.588 22.9306C137.301 22.2931 136.834 21.8147 136.189 21.4952Z" fill="#182F43"/>
<path d="M146.663 25.9139C147.714 26.6078 148.356 27.585 148.589 28.8453C148.827 30.0956 148.583 31.2716 147.856 32.3733C147.129 33.4751 146.141 34.167 144.891 34.4492C143.647 34.7213 142.5 34.5104 141.448 33.8164C140.206 32.9969 139.587 31.8765 139.59 30.4553L136.755 34.7521L135.447 33.8896L142.387 23.373L143.694 24.2355L142.842 25.5275C144.147 24.9655 145.421 25.0943 146.663 25.9139ZM142.115 32.4454C142.867 32.941 143.666 33.102 144.514 32.9283C145.369 32.7445 146.047 32.272 146.549 31.5108C147.052 30.7496 147.216 29.9451 147.042 29.0972C146.875 28.2393 146.416 27.5625 145.665 27.0668C144.903 26.5645 144.096 26.4052 143.241 26.589C142.393 26.7627 141.718 27.2302 141.216 27.9914C140.714 28.7526 140.546 29.5622 140.713 30.4201C140.887 31.268 141.354 31.943 142.115 32.4454Z" fill="#182F43"/>
<path d="M153.967 43.6684L152.585 42.46L152.858 37.0329L150.051 40.2447L148.885 39.2259L151.693 36.014L146.351 37.0105L144.982 35.814L150.871 34.7936L151.041 29.1565L152.41 30.353L152.19 35.4449L154.809 32.4499L155.974 33.4687L153.356 36.4637L158.373 35.5655L159.755 36.7739L154.178 37.6841L153.967 43.6684Z" fill="#182F43"/>
<path d="M159.041 49.6196L157.748 48.1671L158.208 42.2654L155.021 45.1007L153.98 43.9307L160.705 37.949L161.745 39.1191L158.773 41.763L164.329 42.0241L165.669 43.5304L159.555 43.2112L159.041 49.6196Z" fill="#182F43"/>
<path d="M171.31 51.4179L172.203 52.7039L164.813 57.84L163.919 56.5541L165.19 55.6707C163.77 55.7081 162.635 55.1159 161.786 53.894C161.067 52.8593 160.828 51.7171 161.07 50.4675C161.322 49.211 161.99 48.2061 163.074 47.4528C164.158 46.6995 165.328 46.4272 166.584 46.6359C167.849 46.8378 168.841 47.4561 169.56 48.4908C170.41 49.7127 170.569 50.9829 170.039 52.3014L171.31 51.4179ZM163.14 53.1937C163.661 53.9426 164.347 54.3937 165.199 54.547C166.06 54.6935 166.866 54.5065 167.615 53.986C168.363 53.4655 168.815 52.7794 168.968 51.9276C169.131 51.0689 168.952 50.2651 168.432 49.5162C167.918 48.7772 167.231 48.3344 166.369 48.188C165.517 48.0347 164.717 48.2183 163.968 48.7387C163.219 49.2592 162.763 49.9487 162.6 50.8074C162.446 51.6592 162.627 52.4547 163.14 53.1937Z" fill="#182F43"/>
</svg>
