<svg width="609" height="612" viewBox="0 0 609 612" fill="none" xmlns="http://www.w3.org/2000/svg">
<path d="M557.674 246.263C566.623 245.384 573.187 237.585 573.187 237.585C573.187 237.585 565.236 231.207 556.27 232.087C555.181 232.189 554.104 232.399 553.056 232.713C554.617 230.167 555.448 227.241 555.458 224.254C553.714 224.399 552.002 224.809 550.383 225.472C553.157 200.791 544.394 175.737 524.196 154.421C524.995 154.569 525.803 154.665 526.615 154.709C535.953 155.115 543.836 148.044 543.836 148.044C543.836 148.044 537.069 140.888 528.222 140.008C530.247 138.876 532.147 137.532 533.889 135.999C545.917 125.29 547.186 107.071 547.186 107.071C547.186 107.071 528.949 106.225 516.921 116.934C515.464 118.242 514.123 119.674 512.912 121.214C512.485 115.874 510.601 110.754 507.465 106.411C506.43 107.296 505.463 108.258 504.572 109.287C492.409 69.6 455.784 42.4483 407.063 38.033C408.055 36.5422 408.883 34.9484 409.533 33.2794C409.533 33.2794 401.751 30.708 394.917 33.6008C395.957 31.9666 396.819 30.2255 397.488 28.4073C402.039 15.8042 395.796 2 395.796 2C395.796 2 382.127 8.59759 377.577 21.1838C377.031 22.719 376.618 24.298 376.342 25.9036C373.919 22.1656 370.512 19.1685 366.496 17.2421C365.763 19.1648 365.268 21.1704 365.024 23.2138C343.681 9.95183 318.794 3.53006 293.699 4.80901C268.603 6.08797 244.498 15.0066 224.614 30.3697C224.586 26.6588 223.748 22.9987 222.161 19.6443C222.161 19.6443 214.954 23.6029 212.434 30.5558C211.942 28.6848 211.256 26.8705 210.387 25.1423C204.263 13.3005 189.883 8.4115 189.883 8.4115C189.883 8.4115 185.384 22.9093 191.575 34.8188C192.316 36.266 193.188 37.6421 194.18 38.9296C189.795 38.164 185.284 38.6145 181.137 40.2322C181.671 41.3409 182.293 42.4045 182.998 43.4126C139.776 51.1098 108.175 77.0434 97.2802 112.992C95.8693 111.843 94.3575 110.824 92.7634 109.947C92.7634 109.947 88.5173 118.828 90.8856 127.405C89.1015 125.92 87.1616 124.632 85.1 123.565C70.7883 116.189 53.3301 121.569 53.3301 121.569C53.3301 121.569 59.0988 138.892 73.4274 146.251C75.173 147.147 76.9962 147.883 78.8746 148.45C74.0472 150.765 69.9503 154.365 67.0328 158.854C70.9354 160.943 75.2493 162.15 79.6697 162.389C42.0803 205.206 48.2212 260.372 97.3479 298.232C97.3479 301.616 97.3479 304.813 97.6862 308.027C93.582 307.653 89.4445 308.113 85.523 309.38C85.523 309.38 89.0586 318.566 96.9419 322.694C94.6371 322.996 92.3695 323.534 90.1751 324.301C74.9499 329.681 66.9651 346.056 66.9651 346.056C66.9651 346.056 83.5268 353.72 98.7013 348.34C100.549 347.688 102.333 346.867 104.03 345.887C103.448 347.472 103.051 349.118 102.846 350.793C102.837 350.979 102.837 351.165 102.846 351.351C102.512 354.801 102.752 358.282 103.556 361.654C107.434 360.343 111.011 358.272 114.079 355.564H114.366C114.637 355.953 114.925 356.325 115.212 356.697C114.215 357.602 113.288 358.58 112.438 359.624C104.081 370.095 105.586 385.185 105.586 385.185C105.586 385.185 120.524 383.307 128.983 372.819L129.321 372.345C131.571 374.341 133.77 375.965 136.223 377.775C137.289 378.655 137.915 379.23 138.574 379.653C160.194 394.879 189.004 402.897 221.941 401.222C272.793 446.391 345.705 444.919 394.104 397.754C424.284 398.076 450.607 390.379 470.789 376.794C472.076 379.482 474.078 381.765 476.574 383.392C478.188 380.446 478.816 377.061 478.368 373.732C479.298 374.642 480.325 375.447 481.43 376.135C489.076 380.854 499.023 378.604 499.023 378.604C499.023 378.604 496.553 368.725 488.873 364.005C488.325 363.672 487.76 363.367 487.181 363.092C487.892 362.347 488.585 361.603 489.262 360.859C490.687 359.851 491.952 358.637 493.018 357.255L492.578 356.985C507.093 338.985 514.688 315.86 512.997 289.808C528.222 277.001 538.71 262.588 544.783 247.515C545.559 249.372 546.772 251.015 548.319 252.303C551.231 254.305 554.744 255.243 558.266 254.959C557.767 251.641 556.22 248.571 553.851 246.196C555.12 246.349 556.401 246.372 557.674 246.263V246.263Z" fill="#F4B513" stroke="#182F43" stroke-width="2" stroke-miterlimit="10"/>
<path d="M430.614 595.973C403.953 591.71 367.159 573.033 367.159 538.455C367.159 503.877 361.83 304.562 367.159 291.231C372.488 277.901 384.228 282.773 395.918 286.968C401.422 289.105 406.143 292.87 409.451 297.761C409.824 298.32 410.317 298.788 410.893 299.133C411.47 299.478 412.115 299.691 412.784 299.756C413.453 299.82 414.127 299.736 414.759 299.508C415.391 299.28 415.964 298.914 416.438 298.438C416.89 297.938 417.222 297.341 417.406 296.692C417.59 296.044 417.622 295.361 417.499 294.698C417.376 294.035 417.102 293.41 416.698 292.87C416.294 292.33 415.771 291.891 415.169 291.587C410.365 289.218 403.835 285.192 402.853 280.574C401.162 273.113 403.378 273.638 406.575 271.506C410.013 268.772 413.283 265.834 416.37 262.709C416.86 262.295 417.256 261.782 417.533 261.203C417.809 260.624 417.96 259.994 417.975 259.352C417.989 258.711 417.868 258.074 417.618 257.483C417.369 256.892 416.996 256.361 416.526 255.925C416.056 255.489 415.499 255.157 414.891 254.952C414.284 254.747 413.639 254.673 413.001 254.736C412.362 254.798 411.745 254.995 411.188 255.314C410.632 255.633 410.149 256.066 409.772 256.585C405.932 261.762 397.271 271.185 386.326 268.85C371.388 265.653 361.255 253.388 366.025 228.25C369.409 210.876 383.196 191.963 391.401 181.999C392.016 181.354 392.465 180.57 392.71 179.714C392.955 178.857 392.988 177.954 392.807 177.082C392.626 176.21 392.235 175.395 391.669 174.707C391.103 174.02 390.378 173.48 389.557 173.134C388.244 172.539 386.753 172.474 385.394 172.954C384.035 173.433 382.914 174.419 382.266 175.706C377.444 185.298 364.435 208.947 353.794 208.524C344.439 208.152 333.494 202.011 327.827 198.374C327.452 198.121 327.029 197.949 326.584 197.869C326.138 197.789 325.681 197.802 325.242 197.909C324.802 198.016 324.39 198.213 324.031 198.488C323.672 198.764 323.375 199.111 323.158 199.508C322.781 200.243 322.708 201.096 322.955 201.884C323.202 202.672 323.749 203.332 324.477 203.72C335.626 209.573 347.501 221.686 348.99 227.184C350.597 233.054 347.4 242.646 336.742 262.371C326.084 282.096 296.142 292.229 281.288 270.373C269.447 252.982 266.3 214.682 268.009 197.41C268.1 196.635 268.036 195.85 267.819 195.101C267.603 194.352 267.239 193.653 266.749 193.046C266.259 192.439 265.652 191.937 264.965 191.568C264.278 191.199 263.524 190.971 262.748 190.897C261.96 190.846 261.171 190.958 260.429 191.226C259.687 191.495 259.009 191.914 258.437 192.457C257.865 193.001 257.411 193.657 257.105 194.384C256.799 195.111 256.646 195.894 256.657 196.683C256.86 209.658 262.917 237.283 257.825 251.713C251.43 269.848 230.639 278.899 217.833 269.307C208.833 262.54 210.66 245.217 212.538 235.473C212.725 234.855 212.744 234.199 212.594 233.57C212.445 232.942 212.131 232.365 211.686 231.898C211.241 231.43 210.68 231.089 210.06 230.909C209.44 230.728 208.783 230.716 208.157 230.872C207.295 231.03 206.516 231.486 205.957 232.16C205.397 232.834 205.092 233.684 205.095 234.56C205.095 240.937 204.367 257.008 197.584 261.238C192.001 264.722 186.655 260.476 183.627 257.11C183.032 256.435 182.203 256.011 181.307 255.926C180.411 255.842 179.517 256.101 178.806 256.653C178.42 256.963 178.104 257.352 177.88 257.793C177.656 258.234 177.528 258.719 177.506 259.213C177.483 259.708 177.567 260.202 177.75 260.661C177.933 261.121 178.212 261.537 178.569 261.88C180.785 263.995 184.439 267.446 188.871 271.591C190.462 273.841 192.61 277.765 191.189 280.98C189.768 284.194 182.392 285.818 178.011 286.444C177.613 286.503 177.233 286.646 176.895 286.864C176.557 287.082 176.27 287.37 176.052 287.708C175.834 288.045 175.691 288.426 175.632 288.824C175.573 289.221 175.6 289.627 175.71 290.013V290.149C175.831 290.559 176.043 290.938 176.33 291.255C176.617 291.573 176.972 291.823 177.368 291.985C177.764 292.147 178.192 292.219 178.619 292.194C179.047 292.169 179.463 292.048 179.838 291.84C185.742 288.745 199.631 288.457 202.709 288.558C218.341 289.557 233.634 299.436 241.94 312.513C250.246 325.59 249.823 343.555 250.753 358.561C252.885 393.206 253.528 552.733 244.46 566.064C235.393 579.394 202.168 597.258 202.168 597.258" fill="#FBFBFF"/>
<path d="M430.614 595.973C403.953 591.71 367.159 573.033 367.159 538.455C367.159 503.877 361.83 304.562 367.159 291.231C372.488 277.901 384.228 282.773 395.918 286.968C401.422 289.105 406.143 292.87 409.451 297.761C409.824 298.32 410.317 298.788 410.893 299.133C411.47 299.478 412.115 299.691 412.784 299.756C413.453 299.82 414.127 299.736 414.759 299.508C415.391 299.28 415.964 298.914 416.438 298.438C416.89 297.938 417.222 297.341 417.406 296.692C417.59 296.044 417.622 295.361 417.499 294.698C417.376 294.035 417.102 293.41 416.698 292.87C416.294 292.33 415.771 291.891 415.169 291.587C410.365 289.218 403.835 285.192 402.853 280.574C401.162 273.113 403.378 273.638 406.575 271.506C410.013 268.772 413.283 265.834 416.37 262.709C416.86 262.295 417.256 261.782 417.533 261.203C417.809 260.624 417.96 259.994 417.975 259.352C417.989 258.711 417.868 258.074 417.618 257.483C417.369 256.892 416.996 256.361 416.526 255.925C416.056 255.489 415.499 255.157 414.891 254.952C414.284 254.747 413.639 254.673 413.001 254.736C412.363 254.798 411.745 254.995 411.188 255.314C410.632 255.633 410.149 256.066 409.772 256.585C405.932 261.762 397.271 271.185 386.326 268.85C371.388 265.653 361.255 253.388 366.025 228.25C369.409 210.876 383.196 191.963 391.401 181.999C392.016 181.354 392.465 180.57 392.71 179.714C392.955 178.857 392.988 177.954 392.807 177.082C392.626 176.21 392.235 175.395 391.669 174.707C391.103 174.02 390.378 173.48 389.557 173.134C388.244 172.539 386.753 172.474 385.394 172.954C384.035 173.433 382.914 174.419 382.266 175.706C377.444 185.298 364.435 208.947 353.794 208.524C344.439 208.152 333.494 202.011 327.827 198.374C327.452 198.121 327.029 197.949 326.584 197.869C326.138 197.789 325.681 197.802 325.242 197.909C324.802 198.016 324.39 198.213 324.031 198.488C323.672 198.764 323.375 199.111 323.158 199.508C322.781 200.243 322.708 201.096 322.955 201.884C323.202 202.672 323.749 203.332 324.477 203.72C335.626 209.573 347.501 221.686 348.99 227.184C350.597 233.054 347.4 242.646 336.742 262.371C326.084 282.096 296.142 292.229 281.288 270.373C269.447 252.982 266.3 214.682 268.009 197.41C268.1 196.635 268.036 195.85 267.819 195.101C267.603 194.352 267.239 193.653 266.749 193.046C266.259 192.439 265.652 191.937 264.965 191.568C264.278 191.199 263.524 190.971 262.748 190.897C261.96 190.846 261.171 190.958 260.429 191.226C259.687 191.495 259.009 191.914 258.437 192.457C257.865 193.001 257.411 193.657 257.105 194.384C256.799 195.111 256.646 195.894 256.657 196.683C256.86 209.658 262.917 237.283 257.825 251.713C251.43 269.848 230.639 278.899 217.833 269.307C208.833 262.54 210.66 245.217 212.538 235.473C212.725 234.855 212.744 234.199 212.594 233.57C212.445 232.942 212.131 232.365 211.686 231.898C211.241 231.43 210.68 231.089 210.06 230.909C209.44 230.728 208.783 230.716 208.157 230.872C207.295 231.03 206.516 231.486 205.957 232.16C205.397 232.834 205.092 233.684 205.095 234.56C205.095 240.937 204.367 257.008 197.584 261.238C192.001 264.722 186.655 260.476 183.627 257.11C183.032 256.435 182.203 256.011 181.307 255.926C180.411 255.842 179.517 256.101 178.806 256.653C178.42 256.963 178.104 257.352 177.88 257.793C177.656 258.234 177.528 258.719 177.506 259.213C177.483 259.708 177.567 260.202 177.75 260.661C177.933 261.121 178.212 261.537 178.569 261.88C180.785 263.995 184.439 267.446 188.871 271.591C190.462 273.841 192.61 277.765 191.189 280.98C189.768 284.194 182.392 285.818 178.011 286.444C177.613 286.503 177.233 286.646 176.895 286.864C176.557 287.082 176.27 287.37 176.052 287.708C175.834 288.045 175.691 288.426 175.632 288.823C175.573 289.221 175.6 289.627 175.71 290.013V290.149C175.831 290.559 176.043 290.938 176.33 291.255C176.617 291.573 176.972 291.823 177.368 291.985C177.764 292.147 178.192 292.219 178.619 292.194C179.047 292.169 179.463 292.048 179.838 291.84C185.742 288.745 199.631 288.457 202.709 288.558C218.341 289.557 233.634 299.436 241.94 312.513C250.246 325.59 249.823 343.555 250.753 358.561C252.885 393.206 253.528 552.733 244.46 566.064C235.393 579.394 202.168 597.258 202.168 597.258" stroke="#182F43" stroke-width="0.75" stroke-linecap="round" stroke-linejoin="round"/>
<g style="mix-blend-mode:multiply">
<path d="M422.702 596.004C418.061 594.681 413.535 592.984 409.168 590.929C409.168 590.929 406.411 589.474 402.266 586.818C389.731 580.576 378.278 571.373 372.035 559.091C371.613 558.448 371.207 557.823 370.817 557.18L370.631 556.063C368.294 550.457 367.097 544.442 367.113 538.368C367.113 534.883 367.113 529.724 366.96 523.295C366.334 514.667 365.962 505.346 366.216 496.566C366.216 494.046 366.318 490.409 366.351 485.926C365.489 437.154 364.304 368.725 364.913 327.11C364.761 316.57 364.677 310.108 364.677 310.108C364.677 310.108 364.913 309.245 365.404 307.926C365.776 299.078 366.335 293.107 367.096 291.144C372.425 277.814 384.165 282.686 395.855 286.881C401.359 289.018 406.08 292.783 409.388 297.674C410.037 298.61 411.008 299.275 412.114 299.543C413.221 299.811 414.388 299.664 415.394 299.129C412.755 296.896 409.354 293.919 404.516 290.163C390.712 279.421 375.368 271.757 362.325 282.5C349.282 293.242 339.301 320.089 339.301 336.194V475.843C339.301 475.843 341.602 487.347 333.939 482.745C326.275 478.144 337.001 443.616 327.798 427.511C318.595 411.407 320.134 436.731 321.826 453.614C323.518 470.497 321.826 511.132 318.747 514.989C315.668 518.846 313.385 495.044 311.845 502.724C310.306 510.404 313.385 542.614 313.385 547.994C313.385 553.373 316.446 557.197 324.127 558.736C331.807 560.275 331.807 572.54 335.63 582.521C338.219 589.288 343.92 595.581 346.914 596.461H348.081C348.758 596.156 349.028 595.158 348.673 593.28C347.151 584.822 331.655 575.822 339.403 566.129C347.151 556.435 360.955 567.178 362.494 569.512C364.034 571.847 388.631 585.448 392.048 588.222C395.465 590.997 400.794 589.677 396.074 596.207L422.702 596.004Z" fill="#F0F0F0"/>
</g>
<g style="mix-blend-mode:multiply">
<path d="M252.688 398.61C252.688 398.61 258.66 452.913 261.045 443.372C263.431 433.831 259.252 347.893 265.224 359.82C271.196 371.746 266.408 483.939 266.408 494.089C266.408 504.239 270.587 493.497 270.587 474.99C270.587 456.483 271.196 394.432 273.581 417.117C275.966 439.803 272.972 528.109 272.972 541.829C272.972 555.548 268.793 572.279 262.822 574.648C256.85 577.016 256.258 572.854 250.878 572.854C245.499 572.854 223.439 591.361 218.06 594.339C212.68 597.316 204.34 602.696 214.473 591.954C224.606 581.211 246.108 574.648 247.901 556.749C249.694 538.851 252.079 433.256 252.079 433.256L252.688 398.61Z" fill="#F0F0F0"/>
</g>
<path d="M430.614 595.973C403.953 591.71 367.159 573.033 367.159 538.455C367.159 503.877 361.83 304.562 367.159 291.231C372.488 277.901 384.228 282.773 395.918 286.968C401.422 289.105 406.143 292.87 409.451 297.761C409.824 298.32 410.317 298.788 410.893 299.133C411.47 299.478 412.115 299.691 412.784 299.756C413.453 299.82 414.127 299.736 414.759 299.508C415.391 299.28 415.964 298.914 416.438 298.438C416.89 297.938 417.222 297.341 417.406 296.692C417.59 296.044 417.622 295.361 417.499 294.698C417.376 294.035 417.102 293.41 416.698 292.87C416.294 292.33 415.771 291.891 415.169 291.587C410.365 289.218 403.835 285.192 402.853 280.574C401.162 273.113 403.378 273.638 406.575 271.506C410.013 268.772 413.283 265.834 416.37 262.709C416.86 262.295 417.256 261.782 417.533 261.203C417.809 260.624 417.96 259.994 417.975 259.352C417.989 258.711 417.868 258.074 417.618 257.483C417.369 256.892 416.996 256.361 416.526 255.925C416.056 255.489 415.499 255.157 414.891 254.952C414.284 254.747 413.639 254.673 413.001 254.736C412.363 254.798 411.745 254.995 411.188 255.314C410.632 255.633 410.149 256.066 409.772 256.585C405.932 261.762 397.271 271.185 386.326 268.85C371.388 265.653 361.255 253.388 366.025 228.25C369.409 210.876 383.196 191.963 391.401 181.999C392.016 181.354 392.465 180.57 392.71 179.714C392.955 178.857 392.988 177.954 392.807 177.082C392.626 176.21 392.235 175.395 391.669 174.707C391.103 174.02 390.378 173.48 389.557 173.134C388.244 172.539 386.753 172.474 385.394 172.954C384.035 173.433 382.914 174.419 382.266 175.706C377.444 185.298 364.435 208.947 353.794 208.524C344.439 208.152 333.494 202.011 327.827 198.374C327.452 198.121 327.029 197.949 326.584 197.869C326.138 197.789 325.681 197.802 325.242 197.909C324.802 198.016 324.39 198.213 324.031 198.488C323.672 198.764 323.375 199.111 323.158 199.508C322.781 200.243 322.708 201.096 322.955 201.884C323.202 202.672 323.749 203.332 324.477 203.72C335.626 209.573 347.501 221.686 348.99 227.184C350.597 233.054 347.4 242.646 336.742 262.371C326.084 282.096 296.142 292.229 281.288 270.373C269.447 252.982 266.3 214.682 268.009 197.41C268.1 196.635 268.036 195.85 267.819 195.101C267.603 194.352 267.239 193.653 266.749 193.046C266.259 192.439 265.652 191.937 264.965 191.568C264.278 191.199 263.524 190.971 262.748 190.897C261.96 190.846 261.171 190.958 260.429 191.226C259.687 191.495 259.009 191.914 258.437 192.457C257.865 193.001 257.411 193.657 257.105 194.384C256.799 195.111 256.646 195.894 256.657 196.683C256.86 209.658 262.917 237.283 257.825 251.713C251.43 269.848 230.639 278.899 217.833 269.307C208.833 262.54 210.66 245.217 212.538 235.473C212.725 234.855 212.744 234.199 212.594 233.57C212.445 232.942 212.131 232.365 211.686 231.898C211.241 231.43 210.68 231.089 210.06 230.909C209.44 230.728 208.783 230.716 208.157 230.872C207.295 231.03 206.516 231.486 205.957 232.16C205.397 232.834 205.092 233.684 205.095 234.56C205.095 240.937 204.367 257.008 197.584 261.238C192.001 264.722 186.655 260.476 183.627 257.11C183.032 256.435 182.203 256.011 181.307 255.926C180.411 255.842 179.517 256.101 178.806 256.653C178.42 256.963 178.104 257.352 177.88 257.793C177.656 258.234 177.528 258.719 177.506 259.213C177.483 259.708 177.567 260.202 177.75 260.661C177.933 261.121 178.212 261.537 178.569 261.88C180.785 263.995 184.439 267.446 188.871 271.591C190.462 273.841 192.61 277.765 191.189 280.98C189.768 284.194 182.392 285.818 178.011 286.444C177.613 286.503 177.233 286.646 176.895 286.864C176.557 287.082 176.27 287.37 176.052 287.708C175.834 288.045 175.691 288.426 175.632 288.823C175.573 289.221 175.6 289.627 175.71 290.013V290.149C175.831 290.559 176.043 290.938 176.33 291.255C176.617 291.573 176.972 291.823 177.368 291.985C177.764 292.147 178.192 292.219 178.619 292.194C179.047 292.169 179.463 292.048 179.838 291.84C185.742 288.745 199.631 288.457 202.709 288.558C218.341 289.557 233.634 299.436 241.94 312.513C250.246 325.59 249.823 343.555 250.753 358.561C252.885 393.206 253.528 552.733 244.46 566.064C235.393 579.394 202.168 597.258 202.168 597.258" stroke="#182F43" stroke-width="2" stroke-linecap="round" stroke-linejoin="round"/>
<g style="mix-blend-mode:multiply" opacity="0.5">
<path d="M330.749 270.551C317.435 284.423 293.989 288.923 281.318 270.365C269.476 252.974 266.329 214.674 268.038 197.402C268.129 196.627 268.065 195.842 267.849 195.093C267.632 194.344 267.268 193.645 266.778 193.038C266.288 192.431 265.682 191.929 264.995 191.56C264.307 191.191 263.553 190.963 262.777 190.889C261.989 190.838 261.2 190.95 260.458 191.218C259.716 191.487 259.038 191.906 258.466 192.449C257.894 192.993 257.44 193.649 257.134 194.376C256.828 195.103 256.676 195.886 256.687 196.675C256.89 209.65 262.946 237.275 257.854 251.705C251.459 269.84 230.668 278.891 217.862 269.299C208.863 262.532 210.69 245.209 212.567 235.465C212.754 234.847 212.773 234.191 212.624 233.563C212.474 232.934 212.161 232.357 211.715 231.89C211.27 231.422 210.709 231.081 210.089 230.901C209.469 230.72 208.812 230.708 208.186 230.864C207.324 231.022 206.546 231.478 205.986 232.152C205.427 232.826 205.121 233.676 205.124 234.552C205.124 240.929 204.397 257 197.613 261.23C192.03 264.715 186.685 260.468 183.656 257.102C183.062 256.427 182.232 256.003 181.336 255.918C180.44 255.834 179.546 256.093 178.835 256.645C178.449 256.955 178.133 257.344 177.909 257.785C177.685 258.227 177.557 258.711 177.535 259.205C177.513 259.7 177.596 260.194 177.779 260.653C177.962 261.113 178.242 261.529 178.598 261.872C180.814 263.987 184.468 267.438 188.901 271.583C190.491 273.833 192.639 277.757 191.218 280.972C189.797 284.186 182.421 285.81 178.04 286.436C177.642 286.495 177.262 286.638 176.924 286.856C176.587 287.074 176.299 287.362 176.081 287.7C175.864 288.037 175.72 288.418 175.661 288.816C175.602 289.213 175.629 289.619 175.739 290.005V290.141C175.86 290.551 176.072 290.93 176.359 291.247C176.646 291.565 177.001 291.815 177.397 291.977C177.793 292.139 178.221 292.211 178.649 292.186C179.076 292.161 179.492 292.04 179.867 291.832C185.771 288.737 199.66 288.449 202.739 288.55C203.669 288.55 204.616 288.72 205.547 288.838C201.335 283.881 192.25 271.718 205.09 271.718C221.195 271.718 241.918 287.823 251.121 284.761C260.324 281.699 265.703 265.577 269.544 271.718C273.384 277.859 277.207 294.725 295.629 297.804C312.343 300.629 326.52 286.385 330.749 270.551Z" fill="#ECECF0"/>
</g>
<g style="mix-blend-mode:multiply" opacity="0.5">
<path d="M324.505 203.652C335.653 209.506 347.529 221.618 349.018 227.116C350.287 231.768 348.527 238.755 342.471 251.24C342.606 269.679 344.433 246.334 354.736 227.201C356.922 223.319 359.551 219.703 362.568 216.425C361.904 218.19 361.339 219.992 360.876 221.821C355.514 244.084 355.514 257.127 363.177 265.568C370.841 274.01 380.822 274.771 390.041 273.232C393.611 272.64 397.417 269.256 401.054 265.179C398.988 266.764 396.611 267.898 394.079 268.507C391.547 269.116 388.915 269.187 386.353 268.715C371.416 265.518 361.283 253.253 366.053 228.114C367.745 219.656 371.822 210.757 376.592 202.739C380.53 196.217 384.893 189.961 389.652 184.012L389.771 183.86C390.329 183.166 390.87 182.489 391.462 181.863C391.755 181.507 392.01 181.121 392.224 180.713C392.308 180.561 392.359 180.409 392.427 180.256C392.494 180.104 392.63 179.766 392.697 179.529C392.758 179.318 392.804 179.103 392.833 178.886C392.833 178.7 392.833 178.531 392.917 178.345C392.934 178.091 392.934 177.837 392.917 177.583C392.926 177.454 392.926 177.324 392.917 177.194C392.865 176.909 392.798 176.626 392.714 176.348V176.129C392.604 175.821 392.462 175.527 392.291 175.249L392.207 175.13C392.02 174.819 391.793 174.535 391.53 174.285V174.285C391.024 173.757 390.421 173.332 389.754 173.033C388.441 172.437 386.95 172.373 385.591 172.852C384.232 173.331 383.111 174.317 382.462 175.604C377.641 185.196 364.632 208.846 353.991 208.423C344.636 208.051 333.691 201.91 328.024 198.273C327.649 198.019 327.226 197.847 326.78 197.767C326.335 197.687 325.878 197.701 325.439 197.807C324.999 197.914 324.587 198.111 324.228 198.387C323.869 198.662 323.572 199.009 323.355 199.406C322.954 200.124 322.85 200.97 323.065 201.764C323.28 202.557 323.797 203.235 324.505 203.652V203.652Z" fill="#ECECF0"/>
</g>
<g style="mix-blend-mode:multiply" opacity="0.5">
<path d="M308.01 565.139C308.01 565.139 303.036 555.598 289.283 563.989C275.529 572.38 274.057 583.866 264.449 586.928C254.84 589.99 248.784 586.539 246.872 594.558C244.96 602.576 243.049 605.638 244.571 606.789C246.094 607.939 245.722 598.33 251.067 596.097C256.413 593.864 265.971 593.424 273.229 587.639C280.486 581.853 296.929 562.855 308.01 565.139Z" fill="#F0F0F0"/>
</g>
<path d="M231.221 294.254C240.265 299.313 246.996 307.681 249.998 317.599" stroke="#182F43" stroke-width="0.75" stroke-linecap="round" stroke-linejoin="round"/>
<path d="M251.305 321.371C251.951 325.243 252.402 329.144 252.658 333.061" stroke="#182F43" stroke-width="0.75" stroke-linecap="round" stroke-linejoin="round"/>
<path d="M254.844 349.945C254.844 349.945 258.65 460.683 255.656 502.587" stroke="#182F43" stroke-linecap="round" stroke-linejoin="round"/>
<path d="M255.662 508.31C255.662 508.31 254.308 535.8 253.75 540.147" stroke="#182F43" stroke-linecap="round" stroke-linejoin="round"/>
<path d="M266.27 373.077L266.828 393.479" stroke="#182F43" stroke-width="0.75" stroke-linecap="round" stroke-linejoin="round"/>
<path d="M267.086 400.268C267.086 400.268 268.439 476.732 267.357 502.04" stroke="#182F43" stroke-linecap="round" stroke-linejoin="round"/>
<path d="M276.061 469.125L276.889 514.293" stroke="#182F43" stroke-width="2" stroke-linecap="round" stroke-linejoin="round"/>
<path d="M277.428 518.934L277.698 529.541" stroke="#182F43" stroke-width="0.75" stroke-linecap="round" stroke-linejoin="round"/>
<path d="M351.981 223.95C351.981 223.95 353.673 226.944 353.081 233.474C352.505 238.089 351.215 242.586 349.258 246.805" stroke="#182F43" stroke-width="0.75" stroke-linecap="round" stroke-linejoin="round"/>
<path d="M347.904 250.878C347.904 250.878 341.374 263.667 339.445 265.849" stroke="#182F43" stroke-width="0.75" stroke-linecap="round" stroke-linejoin="round"/>
<path d="M250.201 270.76C247.097 273.61 243.337 275.649 239.255 276.694C235.173 277.738 230.896 277.757 226.805 276.748" stroke="#182F43" stroke-width="0.75" stroke-linecap="round" stroke-linejoin="round"/>
<path d="M265.724 519.475V570.09C265.724 570.09 263.541 577.161 249.669 582.321C245.749 583.174 242.26 585.392 239.824 588.58C235.578 593.994 233.632 598.646 228.219 602.909" stroke="#182F43" stroke-linecap="round" stroke-linejoin="round"/>
<path d="M276.62 463.912L274.285 341.958" stroke="#182F43" stroke-width="2" stroke-linecap="round" stroke-linejoin="round"/>
<path d="M262.291 592.452C262.291 592.452 265.776 593.213 274.674 585.871C283.572 578.529 293.655 564.962 306.427 564.962C319.2 564.962 325.391 572.71 325.391 572.71" stroke="#182F43" stroke-width="2" stroke-linecap="round" stroke-linejoin="round"/>
<path d="M326.906 575.418C328.312 578.344 329.226 581.482 329.613 584.705" stroke="#182F43" stroke-width="0.75" stroke-linecap="round" stroke-linejoin="round"/>
<path d="M345.517 588.576C345.517 588.576 332.355 575.803 339.325 566.11C346.295 556.417 361.774 567.277 369.911 575.025" stroke="#182F43" stroke-width="0.75" stroke-linecap="round" stroke-linejoin="round"/>
<path d="M375.723 578.905C375.723 578.905 376.112 581.612 391.98 588.193C391.98 588.193 399.339 591.678 394.703 597.869C391.231 602.243 387.338 606.266 383.082 609.88" stroke="#182F43" stroke-width="0.75" stroke-linecap="round" stroke-linejoin="round"/>
<path d="M259.245 593.212C256.025 594.367 253.384 596.735 251.886 599.81C249.568 604.885 249.568 606.39 249.568 606.39" stroke="#182F43" stroke-width="0.75" stroke-linecap="round" stroke-linejoin="round"/>
<path d="M424.117 605.606C424.117 605.606 412.884 599.804 405.508 599.804C398.132 599.804 393.125 610.631 393.125 610.631" stroke="#182F43" stroke-width="0.75" stroke-linecap="round" stroke-linejoin="round"/>
<path d="M355.055 365.625V509.351" stroke="#182F43" stroke-width="2" stroke-linecap="round" stroke-linejoin="round"/>
<path d="M361.061 535.877L360.57 463.777" stroke="#182F43" stroke-width="2" stroke-linecap="round" stroke-linejoin="round"/>
<path d="M355.064 518.303C355.064 518.303 354.573 532.327 355.064 542.342C355.554 552.356 364.588 558.379 364.588 558.379" stroke="#182F43" stroke-width="0.75" stroke-linecap="round" stroke-linejoin="round"/>
<path d="M346.047 355.609V405.683" stroke="#182F43" stroke-width="2" stroke-linecap="round" stroke-linejoin="round"/>
<path d="M285.461 281.47C285.461 281.47 296.474 290.487 310.498 289.489C324.522 288.491 335.027 275.465 335.027 275.465" stroke="#182F43" stroke-width="0.75" stroke-linecap="round" stroke-linejoin="round"/>
<path d="M266.917 365.632L266.003 329.582C266.513 319.692 263.518 309.94 257.545 302.041" stroke="#182F43" stroke-width="0.75" stroke-linecap="round" stroke-linejoin="round"/>
<path d="M259.924 576.95C259.924 576.95 258.419 570.944 248.404 575.444C238.389 579.944 220.356 595.981 216.363 600.481" stroke="#182F43" stroke-width="0.75" stroke-linecap="round" stroke-linejoin="round"/>
<path d="M233.227 186.36C233.227 186.36 259.16 208.961 289.052 183.704Z" fill="#FFC121"/>
<path d="M233.227 186.36C233.227 186.36 259.16 208.961 289.052 183.704" stroke="#182F43" stroke-width="0.75" stroke-linecap="round" stroke-linejoin="round"/>
<path d="M195.312 230.24C195.312 230.24 206.63 244.213 221.246 227.584Z" fill="#FFC121"/>
<path d="M195.312 230.24C195.312 230.24 206.63 244.213 221.246 227.584" stroke="#182F43" stroke-width="0.75" stroke-linecap="round" stroke-linejoin="round"/>
<path d="M183.352 249.531C183.352 249.531 190 266.82 168.719 264.756Z" fill="#FFC121"/>
<path d="M183.352 249.531C183.352 249.531 190 266.82 168.719 264.756" stroke="#182F43" stroke-width="0.75" stroke-linecap="round" stroke-linejoin="round"/>
<path d="M170.055 282.107C170.055 282.107 183.351 285.491 178.023 298.077Z" fill="#FFC121"/>
<path d="M170.055 282.107C170.055 282.107 183.351 285.491 178.023 298.077" stroke="#182F43" stroke-width="0.75" stroke-linecap="round" stroke-linejoin="round"/>
<path d="M306.371 199.001C306.371 199.001 306.371 205.65 319.668 205.65C332.964 205.65 329.649 191.017 329.649 191.017" fill="#FFC121"/>
<path d="M306.371 199.001C306.371 199.001 306.371 205.65 319.668 205.65C332.964 205.65 329.649 191.017 329.649 191.017" stroke="#182F43" stroke-width="0.75" stroke-linecap="round" stroke-linejoin="round"/>
<path d="M372.196 166.429C372.196 166.429 370.2 181.062 386.829 185.714C403.458 190.366 413.422 174.397 413.422 174.397" fill="#FFC121"/>
<path d="M372.196 166.429C372.196 166.429 370.2 181.062 386.829 185.714C403.458 190.366 413.422 174.397 413.422 174.397" stroke="#182F43" stroke-width="0.75" stroke-linecap="round" stroke-linejoin="round"/>
<path d="M411.5 245.541C411.5 245.541 402.855 252.866 409.504 261.511C416.152 270.155 424.12 266.823 424.12 266.823" fill="#FFC121"/>
<path d="M411.5 245.541C411.5 245.541 402.855 252.866 409.504 261.511C416.152 270.155 424.12 266.823 424.12 266.823" stroke="#182F43" stroke-width="0.75" stroke-linecap="round" stroke-linejoin="round"/>
<path d="M430.108 291.428C430.108 291.428 419.518 281.718 410.822 294.812C402.127 307.905 418.147 317.429 418.147 317.429" fill="#FFC121"/>
<path d="M430.108 291.428C430.108 291.428 419.518 281.718 410.822 294.812C402.127 307.905 418.147 317.429 418.147 317.429" stroke="#182F43" stroke-width="0.75" stroke-linecap="round" stroke-linejoin="round"/>
<path opacity="0.1" d="M233.227 186.36C233.227 186.36 259.16 208.961 289.052 183.704Z" fill="#182F43"/>
<path opacity="0.1" d="M195.312 230.24C195.312 230.24 206.63 244.213 221.246 227.584Z" fill="#182F43"/>
<path opacity="0.1" d="M183.352 249.531C183.352 249.531 190 266.82 168.719 264.756Z" fill="#182F43"/>
<path opacity="0.1" d="M170.055 282.107C170.055 282.107 183.351 285.491 178.023 298.077Z" fill="#182F43"/>
<path opacity="0.1" d="M306.371 199.001C306.371 199.001 306.371 205.65 319.668 205.65C332.964 205.65 329.649 191.017 329.649 191.017" fill="#182F43"/>
<path opacity="0.1" d="M372.196 166.429C372.196 166.429 370.2 181.062 386.829 185.714C403.458 190.366 413.422 174.397 413.422 174.397" fill="#182F43"/>
<path opacity="0.1" d="M411.5 245.541C411.5 245.541 402.855 252.866 409.504 261.511C416.152 270.155 424.12 266.823 424.12 266.823" fill="#182F43"/>
<path opacity="0.1" d="M430.108 291.428C430.108 291.428 419.518 281.718 410.822 294.812C402.127 307.905 418.147 317.429 418.147 317.429" fill="#182F43"/>
<path d="M277.751 305.848C319.958 292.066 347.039 281.626 377.863 281.263C377.863 281.263 421.766 286.918 439.933 281.263C493.053 264.694 497.68 204.356 469 159.81C439.303 113.679 385.856 126.844 385.856 126.844C321.884 138.591 279.204 125.632 256.883 114.841C238.994 106.218 217.376 109.427 203.593 123.695C200.489 126.773 198.059 130.465 196.46 134.534C176.827 188.296 199.439 240.835 207.505 272.918C210.484 284.811 235.531 319.631 277.751 305.848Z" stroke="#C63C29" stroke-width="2" stroke-linecap="round" stroke-linejoin="round" stroke-dasharray="5 5"/>
<path d="M297.298 83.4493C295.59 103.578 293.798 123.986 294.246 144.103C295.3 192.839 300.193 241.417 303.293 290.044C305.146 319.026 310.875 349.656 305.037 378.456C299.575 405.452 278.077 427.737 249.919 429.735C218.926 431.94 196.532 403.006 199.911 373.902C202.442 352.102 215.547 331.961 216.322 309.991C217.351 280.415 182.786 284.23 160.319 265.179C133.88 242.798 107.78 213.04 100.102 178.353C97.8855 168.386 97.3163 157.764 101.01 148.184C117.736 104.923 188.732 94.0588 216.322 130.829C244.747 168.737 233.544 223.868 280.064 229.039C326.583 234.211 372.243 214.397 417.042 203.194C461.842 191.991 511.801 219.568 504.05 278.138C496.299 336.709 423.934 335.061 390.337 294.513C356.74 253.964 372.243 171.317 379.134 138.531C382.925 120.558 392.662 104.426 401.201 88.3908C407.923 75.7466 416.4 62.5452 414.22 47.612C407.789 3.58748 334.286 -8.86293 311.941 29.1302C311.916 29.1786 300.568 44.7901 297.298 83.4493Z" stroke="#C63C29" stroke-width="2" stroke-linecap="round" stroke-linejoin="round" stroke-dasharray="5 5"/>
</svg>
