<svg width="55" height="55" viewBox="0 0 55 55" fill="none" xmlns="http://www.w3.org/2000/svg">
<path fill-rule="evenodd" clip-rule="evenodd" d="M10 15C10 12.2386 12.2386 10 15 10H40C42.7614 10 45 12.2386 45 15V40C45 42.7614 42.7614 45 40 45H36.7977C38.9338 45 40.6635 44.478 41.9868 43.4341C43.3289 42.3901 44 40.9799 44 39.2033C44 38.6538 43.9244 38.1502 43.7732 37.6923C43.6408 37.2161 43.4707 36.8132 43.2628 36.4835C43.0737 36.1538 42.7902 35.8333 42.4121 35.522C42.034 35.2106 41.6938 34.9634 41.3913 34.7802C41.1078 34.5971 40.6919 34.4048 40.1437 34.2033C39.6144 33.9835 39.189 33.8278 38.8677 33.7363C38.5652 33.6264 38.1115 33.4799 37.5066 33.2967C36.0321 32.8571 35.0302 32.4542 34.5009 32.0879C33.9905 31.7033 33.7353 31.2088 33.7353 30.6044C33.7353 30.0366 33.9622 29.5788 34.4159 29.2308C34.8885 28.8645 35.5312 28.6813 36.344 28.6813C38.0832 28.6813 39.3497 29.5055 40.1437 31.1538L43.4329 29.3132C42.7524 27.9579 41.7977 26.9048 40.569 26.1538C39.3592 25.3846 37.9509 25 36.344 25C34.5482 25 33.0076 25.522 31.7221 26.5659C30.4556 27.5916 29.8223 28.9744 29.8223 30.7143C29.8223 31.5934 29.983 32.3626 30.3043 33.022C30.6257 33.6813 31.0888 34.2308 31.6938 34.6703C32.3176 35.0916 32.9319 35.4304 33.5369 35.6868C34.1607 35.9432 34.9168 36.1996 35.8053 36.456C37.4121 36.8956 38.5274 37.3077 39.1512 37.6923C39.775 38.0586 40.087 38.5806 40.087 39.2582C40.087 39.8443 39.8318 40.3297 39.3214 40.7143C38.811 41.0989 38.0076 41.2912 36.9112 41.2912C34.6427 41.2912 33.121 40.3114 32.3459 38.3516L29 40.2473C29.5482 41.7125 30.4934 42.8755 31.8355 43.7363C33.1777 44.5788 34.8318 45 36.7977 45H23.8621V29.5829H29V26H15V29.5829H20.1107V45H15C12.2386 45 10 42.7614 10 40V15Z" fill="#182F43"/>
</svg>
