<svg width="27" height="27" viewBox="0 0 27 27" fill="none" xmlns="http://www.w3.org/2000/svg">
<path d="M13.5 0C6.04423 0 0 6.04423 0 13.5C0 20.9558 6.04423 27 13.5 27C20.9558 27 27 20.9558 27 13.5C27 6.04423 20.9558 0 13.5 0ZM20.9946 10.2789V10.7475C20.9946 15.4342 17.4797 20.7455 10.9967 20.7455C8.96587 20.7455 7.16941 20.1988 5.60702 19.1834C5.91939 19.2614 6.15374 19.2614 6.4661 19.2614C8.10651 19.2614 9.66863 18.7147 10.8404 17.7773C9.27824 17.7773 8.02849 16.7619 7.5598 15.3559C7.71612 15.4339 7.95047 15.4339 8.18481 15.4339C8.49718 15.4339 8.80955 15.3559 9.12219 15.2776C7.48178 14.9652 6.31033 13.5591 6.31033 11.8407V11.7627C6.77902 12.075 7.32573 12.2314 7.87244 12.2314C6.93507 11.6064 6.31033 10.591 6.31033 9.3412C6.31033 8.63817 6.46665 8.09146 6.77902 7.54475C8.57548 9.65357 11.1533 11.0596 14.0432 11.216C13.9651 10.9816 13.9651 10.7473 13.9651 10.4349C13.9651 8.48212 15.5272 6.92001 17.48 6.92001C18.4954 6.92001 19.4328 7.31067 20.0575 8.01343C20.9166 7.85711 21.6197 7.54475 22.3227 7.15435C22.0103 8.01343 21.4636 8.63844 20.7606 9.10713C21.4636 9.02911 22.1666 8.87279 22.7914 8.56042C22.3227 9.26345 21.7757 9.88819 20.9946 10.2789Z" fill="#FBFBFF"/>
</svg>
