<svg width="120" height="120" viewBox="0 0 120 120" fill="none" xmlns="http://www.w3.org/2000/svg">
<g clip-path="url(#clip0_199_3591)">
<path d="M64.3573 32.7959C64.7812 32.7959 65.1955 32.6702 65.5479 32.4347C65.9002 32.1993 66.1749 31.8646 66.3371 31.473C66.4993 31.0815 66.5417 30.6506 66.459 30.2349C66.3763 29.8193 66.1723 29.4375 65.8726 29.1378C65.5729 28.8381 65.1911 28.634 64.7754 28.5513C64.3597 28.4686 63.9289 28.5111 63.5373 28.6733C63.1458 28.8354 62.8111 29.1101 62.5756 29.4625C62.3402 29.8149 62.2145 30.2292 62.2145 30.653C62.2151 31.2211 62.4411 31.7658 62.8428 32.1675C63.2446 32.5692 63.7892 32.7952 64.3573 32.7959ZM64.3573 29.5816C64.5693 29.5816 64.7764 29.6444 64.9526 29.7621C65.1288 29.8799 65.2661 30.0472 65.3472 30.243C65.4283 30.4388 65.4495 30.6542 65.4082 30.862C65.3668 31.0699 65.2648 31.2608 65.115 31.4106C64.9651 31.5605 64.7742 31.6625 64.5664 31.7038C64.3585 31.7452 64.1431 31.724 63.9473 31.6429C63.7515 31.5618 63.5842 31.4245 63.4665 31.2483C63.3488 31.0721 63.2859 30.8649 63.2859 30.653C63.2862 30.3689 63.3992 30.0966 63.6 29.8957C63.8009 29.6948 64.0733 29.5819 64.3573 29.5816ZM113.075 48.2148C112.793 48.2148 112.517 48.2986 112.282 48.4556C112.047 48.6126 111.864 48.8357 111.756 49.0967C111.647 49.3578 111.619 49.645 111.674 49.9221C111.729 50.1992 111.865 50.4538 112.065 50.6536C112.265 50.8534 112.52 50.9894 112.797 51.0445C113.074 51.0997 113.361 51.0714 113.622 50.9632C113.883 50.8551 114.106 50.672 114.263 50.4371C114.42 50.2022 114.504 49.926 114.504 49.6434C114.503 49.2647 114.353 48.9016 114.085 48.6337C113.817 48.3659 113.454 48.2153 113.075 48.2148ZM113.075 50.3577C112.934 50.3577 112.796 50.3158 112.679 50.2373C112.561 50.1588 112.469 50.0473 112.415 49.9168C112.361 49.7862 112.347 49.6426 112.375 49.5041C112.402 49.3655 112.47 49.2382 112.57 49.1383C112.67 49.0384 112.797 48.9704 112.936 48.9429C113.075 48.9153 113.218 48.9294 113.349 48.9835C113.479 49.0376 113.591 49.1291 113.669 49.2466C113.748 49.364 113.79 49.5021 113.79 49.6434C113.789 49.8328 113.714 50.0144 113.58 50.1483C113.446 50.2822 113.265 50.3575 113.075 50.3577ZM45.7148 3.21484C45.4323 3.21484 45.1561 3.29863 44.9212 3.4556C44.6862 3.61257 44.5031 3.83569 44.395 4.09672C44.2869 4.35776 44.2586 4.645 44.3137 4.92212C44.3688 5.19923 44.5049 5.45378 44.7047 5.65357C44.9045 5.85336 45.159 5.98942 45.4361 6.04454C45.7132 6.09966 46.0005 6.07137 46.2615 5.96324C46.5226 5.85512 46.7457 5.67201 46.9026 5.43709C47.0596 5.20216 47.1434 4.92596 47.1434 4.64342C47.143 4.26467 46.9923 3.90156 46.7245 3.63374C46.4567 3.36593 46.0936 3.21528 45.7148 3.21484ZM45.7148 5.3577C45.5736 5.3577 45.4355 5.31581 45.318 5.23732C45.2005 5.15884 45.109 5.04728 45.0549 4.91676C45.0009 4.78624 44.9867 4.64262 45.0143 4.50407C45.0418 4.36551 45.1099 4.23823 45.2097 4.13834C45.3096 4.03844 45.4369 3.97042 45.5755 3.94285C45.714 3.91529 45.8577 3.92944 45.9882 3.9835C46.1187 4.03756 46.2302 4.12912 46.3087 4.24658C46.3872 4.36404 46.4291 4.50214 46.4291 4.64342C46.4289 4.8328 46.3536 5.01437 46.2197 5.14828C46.0858 5.2822 45.9042 5.35751 45.7148 5.3577ZM113.075 6.07199C112.793 6.07199 112.517 6.15577 112.282 6.31274C112.047 6.46972 111.864 6.69283 111.756 6.95387C111.647 7.21491 111.619 7.50214 111.674 7.77926C111.729 8.05637 111.865 8.31092 112.065 8.51071C112.265 8.7105 112.52 8.84656 112.797 8.90168C113.074 8.9568 113.361 8.92851 113.622 8.82039C113.883 8.71226 114.106 8.52916 114.263 8.29423C114.42 8.0593 114.504 7.7831 114.504 7.50056C114.503 7.12181 114.353 6.7587 114.085 6.49088C113.817 6.22307 113.454 6.07242 113.075 6.07199ZM113.075 8.21484C112.934 8.21484 112.796 8.17295 112.679 8.09446C112.561 8.01598 112.469 7.90442 112.415 7.7739C112.361 7.64338 112.347 7.49977 112.375 7.36121C112.402 7.22265 112.47 7.09538 112.57 6.99548C112.67 6.89559 112.797 6.82756 112.936 6.8C113.075 6.77244 113.218 6.78658 113.349 6.84064C113.479 6.89471 113.591 6.98626 113.669 7.10372C113.748 7.22119 113.79 7.35929 113.79 7.50056C113.789 7.68994 113.714 7.87151 113.58 8.00543C113.446 8.13934 113.265 8.21465 113.075 8.21484ZM12.361 18.9291C12.361 18.6466 12.2773 18.3704 12.1203 18.1355C11.9633 17.9005 11.7402 17.7174 11.4792 17.6093C11.2181 17.5012 10.9309 17.4729 10.6538 17.528C10.3767 17.5831 10.1221 17.7192 9.92233 17.919C9.72254 18.1188 9.58648 18.3733 9.53136 18.6504C9.47623 18.9275 9.50453 19.2148 9.61265 19.4758C9.72078 19.7369 9.90388 19.96 10.1388 20.1169C10.3737 20.2739 10.6499 20.3577 10.9325 20.3577C11.3112 20.3573 11.6743 20.2066 11.9422 19.9388C12.21 19.671 12.3606 19.3079 12.361 18.9291ZM10.2182 18.9291C10.2182 18.7879 10.2601 18.6498 10.3386 18.5323C10.4171 18.4148 10.5286 18.3233 10.6591 18.2692C10.7897 18.2152 10.9333 18.201 11.0718 18.2286C11.2104 18.2561 11.3377 18.3242 11.4376 18.4241C11.5374 18.5239 11.6055 18.6512 11.633 18.7898C11.6606 18.9283 11.6465 19.072 11.5924 19.2025C11.5383 19.333 11.4468 19.4446 11.3293 19.523C11.2119 19.6015 11.0738 19.6434 10.9325 19.6434C10.7431 19.6432 10.5615 19.5679 10.4276 19.434C10.2937 19.3001 10.2184 19.1185 10.2182 18.9291Z" fill="#FBFBFF"/>
<path d="M7.77681 48.2217L8.83895 46.8253L8.16824 46.4453L7.48609 48.0096H7.46395L6.77109 46.456L6.08895 46.8475L7.13967 48.211V48.2332L5.49609 48.021V48.781L7.15038 48.5689V48.591L6.08895 49.9539L6.72538 50.3567L7.45252 48.781H7.47467L8.14538 50.3453L8.84967 49.9432L7.77681 48.6017V48.5796L9.46395 48.781V48.021L7.77681 48.2439V48.2217Z" fill="#FFC100"/>
<path d="M31.2419 21.8412L30.6298 22.6262L30.9969 22.8583L31.4155 21.9505H31.4283L31.8141 22.8519L32.2198 22.6205L31.6019 21.8476V21.8348L32.5733 21.9505V21.5133L31.6019 21.6419V21.629L32.2133 20.8248L31.8276 20.6055L31.4348 21.5069H31.4219L31.0233 20.6119L30.6298 20.8376L31.2355 21.6226V21.6355L30.2891 21.5133V21.9505L31.2419 21.8283V21.8412Z" fill="#FFC100"/>
<path d="M110.931 33.0095V32.2645L109.276 32.4838V32.4616L110.318 31.0916L109.66 30.7188L108.991 32.253H108.969L108.29 30.7295L107.62 31.1137L108.651 32.4509V32.473L107.039 32.2645V33.0095L108.662 32.8016V32.8238L107.62 34.1609L108.245 34.5559L108.958 33.0095H108.98L109.638 34.5445L110.328 34.1502L109.276 32.8345V32.8123L110.931 33.0095Z" fill="#FFC100"/>
<path d="M86.7464 16.2275L87.645 15.046L87.0771 14.7246L86.5007 16.0482H86.4814L85.8957 14.7339L85.3178 15.0646L86.2071 16.2182V16.2375L84.8164 16.0575V16.7003L86.2164 16.521V16.5396L85.3178 17.6932L85.8571 18.0339L86.4721 16.7003H86.4907L87.0578 18.0246L87.6535 17.6839L86.7464 16.5489V16.5303L88.1735 16.7003V16.0575L86.7464 16.2468V16.2275Z" fill="#FFC100"/>
<path d="M1.42857 106.787C2.21755 106.787 2.85714 106.147 2.85714 105.358C2.85714 104.569 2.21755 103.93 1.42857 103.93C0.639593 103.93 0 104.569 0 105.358C0 106.147 0.639593 106.787 1.42857 106.787Z" fill="#FBFBFF"/>
<path d="M7.85658 103.93H5.71373C5.33485 103.93 4.97148 104.08 4.70358 104.348C4.43567 104.616 4.28516 104.979 4.28516 105.358C4.28516 105.737 4.43567 106.101 4.70358 106.368C4.97148 106.636 5.33485 106.787 5.71373 106.787H7.85658C8.23547 106.787 8.59883 106.636 8.86674 106.368C9.13465 106.101 9.28516 105.737 9.28516 105.358C9.28516 104.979 9.13465 104.616 8.86674 104.348C8.59883 104.08 8.23547 103.93 7.85658 103.93ZM114.285 103.93H112.142C111.763 103.93 111.4 104.08 111.132 104.348C110.864 104.616 110.714 104.979 110.714 105.358C110.714 105.737 110.864 106.101 111.132 106.368C111.4 106.636 111.763 106.787 112.142 106.787H114.285C114.664 106.787 115.027 106.636 115.295 106.368C115.563 106.101 115.714 105.737 115.714 105.358C115.714 104.979 115.563 104.616 115.295 104.348C115.027 104.08 114.664 103.93 114.285 103.93Z" fill="#FBFBFF"/>
<path d="M118.573 106.787C119.362 106.787 120.002 106.147 120.002 105.358C120.002 104.569 119.362 103.93 118.573 103.93C117.784 103.93 117.145 104.569 117.145 105.358C117.145 106.147 117.784 106.787 118.573 106.787Z" fill="#FBFBFF"/>
<path d="M84.3951 109.643H78.461C78.1019 109.671 77.7667 109.834 77.5224 110.099C77.278 110.364 77.1423 110.711 77.1423 111.071C77.1423 111.431 77.278 111.778 77.5224 112.043C77.7667 112.308 78.1019 112.471 78.461 112.5H84.3951C84.7542 112.471 85.0893 112.308 85.3337 112.043C85.5781 111.778 85.7138 111.431 85.7138 111.071C85.7138 110.711 85.5781 110.364 85.3337 110.099C85.0893 109.834 84.7542 109.671 84.3951 109.643ZM41.5379 109.643H35.6038C35.2447 109.671 34.9096 109.834 34.6652 110.099C34.4209 110.364 34.2852 110.711 34.2852 111.071C34.2852 111.431 34.4209 111.778 34.6652 112.043C34.9096 112.308 35.2447 112.471 35.6038 112.5H41.5379C41.8971 112.471 42.2322 112.308 42.4766 112.043C42.7209 111.778 42.8566 111.431 42.8566 111.071C42.8566 110.711 42.7209 110.364 42.4766 110.099C42.2322 109.834 41.8971 109.671 41.5379 109.643ZM74.2852 109.643H45.7137C45.3349 109.643 44.9715 109.793 44.7036 110.061C44.4357 110.329 44.2852 110.692 44.2852 111.071C44.2852 111.45 44.4357 111.813 44.7036 112.081C44.9715 112.349 45.3349 112.5 45.7137 112.5H57.0995V113.928H51.428C51.0492 113.928 50.6858 114.079 50.4179 114.347C50.15 114.615 49.9995 114.978 49.9995 115.357C49.9995 115.736 50.15 116.099 50.4179 116.367C50.6858 116.635 51.0492 116.785 51.428 116.785H69.2852C69.6641 116.785 70.0274 116.635 70.2953 116.367C70.5632 116.099 70.7137 115.736 70.7137 115.357C70.7137 114.978 70.5632 114.615 70.2953 114.347C70.0274 114.079 69.6641 113.928 69.2852 113.928H62.8995V112.5H74.2852C74.6641 112.5 75.0274 112.349 75.2953 112.081C75.5632 111.813 75.7137 111.45 75.7137 111.071C75.7137 110.692 75.5632 110.329 75.2953 110.061C75.0274 109.793 74.6641 109.643 74.2852 109.643Z" fill="#FFC100"/>
<path d="M1.42857 106.787C2.21755 106.787 2.85714 106.147 2.85714 105.358C2.85714 104.569 2.21755 103.93 1.42857 103.93C0.639593 103.93 0 104.569 0 105.358C0 106.147 0.639593 106.787 1.42857 106.787Z" fill="#FBFBFF"/>
<path d="M7.85658 103.93H5.71373C5.33485 103.93 4.97148 104.08 4.70358 104.348C4.43567 104.616 4.28516 104.979 4.28516 105.358C4.28516 105.737 4.43567 106.101 4.70358 106.368C4.97148 106.636 5.33485 106.787 5.71373 106.787H7.85658C8.23547 106.787 8.59883 106.636 8.86674 106.368C9.13465 106.101 9.28516 105.737 9.28516 105.358C9.28516 104.979 9.13465 104.616 8.86674 104.348C8.59883 104.08 8.23547 103.93 7.85658 103.93ZM114.285 103.93H112.142C111.763 103.93 111.4 104.08 111.132 104.348C110.864 104.616 110.714 104.979 110.714 105.358C110.714 105.737 110.864 106.101 111.132 106.368C111.4 106.636 111.763 106.787 112.142 106.787H114.285C114.664 106.787 115.027 106.636 115.295 106.368C115.563 106.101 115.714 105.737 115.714 105.358C115.714 104.979 115.563 104.616 115.295 104.348C115.027 104.08 114.664 103.93 114.285 103.93Z" fill="#FBFBFF"/>
<path d="M118.573 106.787C119.362 106.787 120.002 106.147 120.002 105.358C120.002 104.569 119.362 103.93 118.573 103.93C117.784 103.93 117.145 104.569 117.145 105.358C117.145 106.147 117.784 106.787 118.573 106.787Z" fill="#FBFBFF"/>
<path d="M84.3951 109.643H78.461C78.1019 109.671 77.7667 109.834 77.5224 110.099C77.278 110.364 77.1423 110.711 77.1423 111.071C77.1423 111.431 77.278 111.778 77.5224 112.043C77.7667 112.308 78.1019 112.471 78.461 112.5H84.3951C84.7542 112.471 85.0893 112.308 85.3337 112.043C85.5781 111.778 85.7138 111.431 85.7138 111.071C85.7138 110.711 85.5781 110.364 85.3337 110.099C85.0893 109.834 84.7542 109.671 84.3951 109.643ZM41.5379 109.643H35.6038C35.2447 109.671 34.9096 109.834 34.6652 110.099C34.4209 110.364 34.2852 110.711 34.2852 111.071C34.2852 111.431 34.4209 111.778 34.6652 112.043C34.9096 112.308 35.2447 112.471 35.6038 112.5H41.5379C41.8971 112.471 42.2322 112.308 42.4766 112.043C42.7209 111.778 42.8566 111.431 42.8566 111.071C42.8566 110.711 42.7209 110.364 42.4766 110.099C42.2322 109.834 41.8971 109.671 41.5379 109.643ZM74.2852 109.643H45.7137C45.3349 109.643 44.9715 109.793 44.7036 110.061C44.4357 110.329 44.2852 110.692 44.2852 111.071C44.2852 111.45 44.4357 111.813 44.7036 112.081C44.9715 112.349 45.3349 112.5 45.7137 112.5H57.0995V113.928H51.428C51.0492 113.928 50.6858 114.079 50.4179 114.347C50.15 114.615 49.9995 114.978 49.9995 115.357C49.9995 115.736 50.15 116.099 50.4179 116.367C50.6858 116.635 51.0492 116.785 51.428 116.785H69.2852C69.6641 116.785 70.0274 116.635 70.2953 116.367C70.5632 116.099 70.7137 115.736 70.7137 115.357C70.7137 114.978 70.5632 114.615 70.2953 114.347C70.0274 114.079 69.6641 113.928 69.2852 113.928H62.8995V112.5H74.2852C74.6641 112.5 75.0274 112.349 75.2953 112.081C75.5632 111.813 75.7137 111.45 75.7137 111.071C75.7137 110.692 75.5632 110.329 75.2953 110.061C75.0274 109.793 74.6641 109.643 74.2852 109.643Z" fill="#FFC100"/>
<path d="M1.42857 106.787C2.21755 106.787 2.85714 106.147 2.85714 105.358C2.85714 104.569 2.21755 103.93 1.42857 103.93C0.639593 103.93 0 104.569 0 105.358C0 106.147 0.639593 106.787 1.42857 106.787Z" fill="#FBFBFF"/>
<path d="M7.85658 103.93H5.71373C5.33485 103.93 4.97148 104.08 4.70358 104.348C4.43567 104.616 4.28516 104.979 4.28516 105.358C4.28516 105.737 4.43567 106.101 4.70358 106.368C4.97148 106.636 5.33485 106.787 5.71373 106.787H7.85658C8.23547 106.787 8.59883 106.636 8.86674 106.368C9.13465 106.101 9.28516 105.737 9.28516 105.358C9.28516 104.979 9.13465 104.616 8.86674 104.348C8.59883 104.08 8.23547 103.93 7.85658 103.93ZM114.285 103.93H112.142C111.763 103.93 111.4 104.08 111.132 104.348C110.864 104.616 110.714 104.979 110.714 105.358C110.714 105.737 110.864 106.101 111.132 106.368C111.4 106.636 111.763 106.787 112.142 106.787H114.285C114.664 106.787 115.027 106.636 115.295 106.368C115.563 106.101 115.714 105.737 115.714 105.358C115.714 104.979 115.563 104.616 115.295 104.348C115.027 104.08 114.664 103.93 114.285 103.93Z" fill="#FBFBFF"/>
<path d="M118.573 106.787C119.362 106.787 120.002 106.147 120.002 105.358C120.002 104.569 119.362 103.93 118.573 103.93C117.784 103.93 117.145 104.569 117.145 105.358C117.145 106.147 117.784 106.787 118.573 106.787Z" fill="#FBFBFF"/>
<path d="M84.3951 109.643H78.461C78.1019 109.671 77.7667 109.834 77.5224 110.099C77.278 110.364 77.1423 110.711 77.1423 111.071C77.1423 111.431 77.278 111.778 77.5224 112.043C77.7667 112.308 78.1019 112.471 78.461 112.5H84.3951C84.7542 112.471 85.0893 112.308 85.3337 112.043C85.5781 111.778 85.7138 111.431 85.7138 111.071C85.7138 110.711 85.5781 110.364 85.3337 110.099C85.0893 109.834 84.7542 109.671 84.3951 109.643ZM41.5379 109.643H35.6038C35.2447 109.671 34.9096 109.834 34.6652 110.099C34.4209 110.364 34.2852 110.711 34.2852 111.071C34.2852 111.431 34.4209 111.778 34.6652 112.043C34.9096 112.308 35.2447 112.471 35.6038 112.5H41.5379C41.8971 112.471 42.2322 112.308 42.4766 112.043C42.7209 111.778 42.8566 111.431 42.8566 111.071C42.8566 110.711 42.7209 110.364 42.4766 110.099C42.2322 109.834 41.8971 109.671 41.5379 109.643ZM74.2852 109.643H45.7137C45.3349 109.643 44.9715 109.793 44.7036 110.061C44.4357 110.329 44.2852 110.692 44.2852 111.071C44.2852 111.45 44.4357 111.813 44.7036 112.081C44.9715 112.349 45.3349 112.5 45.7137 112.5H57.0995V113.928H51.428C51.0492 113.928 50.6858 114.079 50.4179 114.347C50.15 114.615 49.9995 114.978 49.9995 115.357C49.9995 115.736 50.15 116.099 50.4179 116.367C50.6858 116.635 51.0492 116.785 51.428 116.785H69.2852C69.6641 116.785 70.0274 116.635 70.2953 116.367C70.5632 116.099 70.7137 115.736 70.7137 115.357C70.7137 114.978 70.5632 114.615 70.2953 114.347C70.0274 114.079 69.6641 113.928 69.2852 113.928H62.8995V112.5H74.2852C74.6641 112.5 75.0274 112.349 75.2953 112.081C75.5632 111.813 75.7137 111.45 75.7137 111.071C75.7137 110.692 75.5632 110.329 75.2953 110.061C75.0274 109.793 74.6641 109.643 74.2852 109.643Z" fill="#FFC100"/>
<path d="M1.42857 106.787C2.21755 106.787 2.85714 106.147 2.85714 105.358C2.85714 104.569 2.21755 103.93 1.42857 103.93C0.639593 103.93 0 104.569 0 105.358C0 106.147 0.639593 106.787 1.42857 106.787Z" fill="#FBFBFF"/>
<path d="M7.85658 103.93H5.71373C5.33485 103.93 4.97148 104.08 4.70358 104.348C4.43567 104.616 4.28516 104.979 4.28516 105.358C4.28516 105.737 4.43567 106.101 4.70358 106.368C4.97148 106.636 5.33485 106.787 5.71373 106.787H7.85658C8.23547 106.787 8.59883 106.636 8.86674 106.368C9.13465 106.101 9.28516 105.737 9.28516 105.358C9.28516 104.979 9.13465 104.616 8.86674 104.348C8.59883 104.08 8.23547 103.93 7.85658 103.93ZM114.285 103.93H112.142C111.763 103.93 111.4 104.08 111.132 104.348C110.864 104.616 110.714 104.979 110.714 105.358C110.714 105.737 110.864 106.101 111.132 106.368C111.4 106.636 111.763 106.787 112.142 106.787H114.285C114.664 106.787 115.027 106.636 115.295 106.368C115.563 106.101 115.714 105.737 115.714 105.358C115.714 104.979 115.563 104.616 115.295 104.348C115.027 104.08 114.664 103.93 114.285 103.93Z" fill="#FBFBFF"/>
<path d="M118.573 106.787C119.362 106.787 120.002 106.147 120.002 105.358C120.002 104.569 119.362 103.93 118.573 103.93C117.784 103.93 117.145 104.569 117.145 105.358C117.145 106.147 117.784 106.787 118.573 106.787Z" fill="#FBFBFF"/>
<path d="M84.3951 109.643H78.461C78.1019 109.671 77.7667 109.834 77.5224 110.099C77.278 110.364 77.1423 110.711 77.1423 111.071C77.1423 111.431 77.278 111.779 77.5224 112.043C77.7667 112.308 78.1019 112.471 78.461 112.5H84.3951C84.7542 112.471 85.0893 112.308 85.3337 112.043C85.5781 111.779 85.7138 111.431 85.7138 111.071C85.7138 110.711 85.5781 110.364 85.3337 110.099C85.0893 109.834 84.7542 109.671 84.3951 109.643ZM41.5379 109.643H35.6038C35.2447 109.671 34.9096 109.834 34.6652 110.099C34.4209 110.364 34.2852 110.711 34.2852 111.071C34.2852 111.431 34.4209 111.779 34.6652 112.043C34.9096 112.308 35.2447 112.471 35.6038 112.5H41.5379C41.8971 112.471 42.2322 112.308 42.4766 112.043C42.7209 111.779 42.8566 111.431 42.8566 111.071C42.8566 110.711 42.7209 110.364 42.4766 110.099C42.2322 109.834 41.8971 109.671 41.5379 109.643ZM74.2852 109.643H45.7137C45.3349 109.643 44.9715 109.793 44.7036 110.061C44.4357 110.329 44.2852 110.692 44.2852 111.071C44.2852 111.45 44.4357 111.813 44.7036 112.081C44.9715 112.349 45.3349 112.5 45.7137 112.5H57.0995V113.928H51.428C51.0492 113.928 50.6858 114.079 50.4179 114.347C50.15 114.615 49.9995 114.978 49.9995 115.357C49.9995 115.736 50.15 116.099 50.4179 116.367C50.6858 116.635 51.0492 116.785 51.428 116.785H69.2852C69.6641 116.785 70.0274 116.635 70.2953 116.367C70.5632 116.099 70.7137 115.736 70.7137 115.357C70.7137 114.978 70.5632 114.615 70.2953 114.347C70.0274 114.079 69.6641 113.928 69.2852 113.928H62.8995V112.5H74.2852C74.6641 112.5 75.0274 112.349 75.2953 112.081C75.5632 111.813 75.7137 111.45 75.7137 111.071C75.7137 110.692 75.5632 110.329 75.2953 110.061C75.0274 109.793 74.6641 109.643 74.2852 109.643ZM67.1423 89.6426H52.8566C52.4777 89.6426 52.1144 89.7931 51.8464 90.061C51.5785 90.3289 51.428 90.6923 51.428 91.0712C51.428 91.45 51.5785 91.8134 51.8464 92.0813C52.1144 92.3492 52.4777 92.4997 52.8566 92.4997H67.1423C67.5212 92.4997 67.8846 92.3492 68.1525 92.0813C68.4204 91.8134 68.5709 91.45 68.5709 91.0712C68.5709 90.6923 68.4204 90.3289 68.1525 90.061C67.8846 89.7931 67.5212 89.6426 67.1423 89.6426Z" fill="#FFC100"/>
<path d="M28.5731 92.4997C29.3621 92.4997 30.0017 91.8601 30.0017 91.0711C30.0017 90.2822 29.3621 89.6426 28.5731 89.6426C27.7841 89.6426 27.1445 90.2822 27.1445 91.0711C27.1445 91.8601 27.7841 92.4997 28.5731 92.4997Z" fill="#FFC100"/>
<path d="M22.8583 92.4997C23.6472 92.4997 24.2868 91.8601 24.2868 91.0711C24.2868 90.2822 23.6472 89.6426 22.8583 89.6426C22.0693 89.6426 21.4297 90.2822 21.4297 91.0711C21.4297 91.8601 22.0693 92.4997 22.8583 92.4997Z" fill="#FFC100"/>
<path d="M37.591 56.6693C37.482 56.5165 37.3441 56.3867 37.1849 56.2873C37.0258 56.1879 36.8486 56.1208 36.6635 56.0899C36.4784 56.059 36.2891 56.0649 36.1063 56.1072C35.9235 56.1495 35.7508 56.2275 35.5981 56.3365L25.5981 63.4794C25.4131 63.6117 25.2623 63.7862 25.1583 63.9884C25.0543 64.1906 25 64.4148 25 64.6422C25 64.8696 25.0543 65.0938 25.1583 65.296C25.2623 65.4983 25.4131 65.6728 25.5981 65.805L35.5981 72.9479C35.9066 73.1676 36.2896 73.2559 36.6631 73.1934C37.0366 73.1309 37.37 72.9227 37.59 72.6145C37.8101 72.3064 37.8989 71.9235 37.8368 71.5499C37.7747 71.1763 37.5669 70.8427 37.259 70.6223L28.8863 64.6422L37.259 58.6622C37.5673 58.4419 37.7755 58.1082 37.8377 57.7345C37.9 57.3607 37.8112 56.9776 37.591 56.6693ZM52.9733 63.4794L42.9733 56.3365C42.6648 56.1168 42.2818 56.0285 41.9083 56.091C41.5348 56.1535 41.2014 56.3617 40.9814 56.6699C40.7613 56.978 40.6725 57.361 40.7346 57.7345C40.7967 58.1081 41.0045 58.4417 41.3124 58.6622L49.685 64.6422L41.3124 70.6223C41.0045 70.8427 40.7967 71.1763 40.7346 71.5499C40.6725 71.9235 40.7613 72.3064 40.9814 72.6145C41.2014 72.9227 41.5348 73.1309 41.9083 73.1934C42.2818 73.2559 42.6648 73.1676 42.9733 72.9479L52.9733 65.805C53.1583 65.6728 53.3091 65.4983 53.4131 65.296C53.5171 65.0938 53.5714 64.8696 53.5714 64.6422C53.5714 64.4148 53.5171 64.1906 53.4131 63.9884C53.3091 63.7862 53.1583 63.6117 52.9733 63.4794ZM70.4485 56.6693C70.3395 56.5166 70.2015 56.3868 70.0423 56.2875C69.8832 56.1881 69.706 56.121 69.521 56.0901C69.3359 56.0592 69.1466 56.0651 68.9638 56.1074C68.781 56.1497 68.6083 56.2275 68.4556 56.3365L58.4556 63.4794C58.2705 63.6116 58.1196 63.7861 58.0155 63.9883C57.9114 64.1906 57.8571 64.4147 57.8571 64.6422C57.8571 64.8697 57.9114 65.0939 58.0155 65.2961C58.1196 65.4984 58.2705 65.6728 58.4556 65.805L68.4556 72.9479C68.6083 73.0569 68.781 73.1347 68.9638 73.177C69.1466 73.2193 69.3359 73.2251 69.521 73.1942C69.706 73.1633 69.8832 73.0963 70.0424 72.9969C70.2015 72.8976 70.3395 72.7678 70.4485 72.6151C70.5575 72.4624 70.6354 72.2898 70.6777 72.107C70.7199 71.9242 70.7258 71.7348 70.6949 71.5498C70.664 71.3647 70.597 71.1876 70.4976 71.0284C70.3982 70.8693 70.2685 70.7313 70.1158 70.6223L61.7438 64.6422L70.1158 58.6622C70.4241 58.442 70.6324 58.1084 70.6948 57.7346C70.7572 57.3609 70.6686 56.9777 70.4485 56.6693ZM94.4015 63.4794L84.4015 56.3365C84.0931 56.1164 83.7099 56.0278 83.3361 56.0902C82.9624 56.1526 82.6287 56.3609 82.4086 56.6693C82.1884 56.9777 82.0998 57.3609 82.1622 57.7346C82.2246 58.1084 82.4329 58.442 82.7413 58.6622L91.1133 64.6422L82.7413 70.6223C82.4329 70.8424 82.2246 71.1761 82.1622 71.5498C82.0998 71.9235 82.1884 72.3067 82.4086 72.6151C82.6287 72.9235 82.9624 73.1318 83.3361 73.1942C83.7099 73.2566 84.0931 73.168 84.4015 72.9479L94.4015 65.805C94.5866 65.6728 94.7375 65.4984 94.8416 65.2961C94.9457 65.0939 95 64.8697 95 64.6422C95 64.4147 94.9457 64.1906 94.8416 63.9883C94.7375 63.7861 94.5866 63.6116 94.4015 63.4794ZM79.8165 56.1726C79.6423 56.1029 79.456 56.0682 79.2684 56.0704C79.0807 56.0727 78.8954 56.1119 78.7229 56.1858C78.5504 56.2597 78.3941 56.3669 78.263 56.5012C78.132 56.6355 78.0286 56.7943 77.959 56.9685L72.2447 71.2542C72.1745 71.4286 72.1394 71.615 72.1414 71.8029C72.1434 71.9908 72.1824 72.1764 72.2562 72.3492C72.33 72.522 72.4372 72.6786 72.5716 72.8099C72.706 72.9412 72.865 73.0447 73.0395 73.1145C73.2139 73.1843 73.4004 73.219 73.5883 73.2167C73.7762 73.2143 73.9618 73.1749 74.1344 73.1007C74.3071 73.0265 74.4634 72.919 74.5944 72.7844C74.7255 72.6497 74.8287 72.4905 74.8981 72.3159L80.6124 58.0302C80.7531 57.6783 80.7482 57.285 80.599 56.9366C80.4498 56.5883 80.1683 56.3135 79.8165 56.1726Z" fill="#FFC100"/>
<path d="M107.658 103.928H67.1432V98.214H101.429C102.565 98.2128 103.654 97.7608 104.458 96.9574C105.261 96.1539 105.713 95.0645 105.715 93.9283V43.9283C105.713 42.792 105.261 41.7027 104.458 40.8992C103.654 40.0957 102.565 39.6438 101.429 39.6426H18.5717C17.4355 39.6438 16.3461 40.0957 15.5426 40.8992C14.7392 41.7027 14.2872 42.792 14.286 43.9283V93.9283C14.2872 95.0645 14.7392 96.1539 15.5426 96.9574C16.3461 97.7608 17.4355 98.2128 18.5717 98.214H52.8574V103.928H12.3422C12.139 103.902 11.9324 103.919 11.7363 103.978C11.5402 104.038 11.3591 104.139 11.2051 104.274C11.0511 104.409 10.9277 104.576 10.8431 104.763C10.7586 104.949 10.7148 105.152 10.7148 105.357C10.7148 105.562 10.7586 105.764 10.8431 105.951C10.9277 106.138 11.0511 106.304 11.2051 106.44C11.3591 106.575 11.5402 106.676 11.7363 106.735C11.9324 106.795 12.139 106.812 12.3422 106.785H107.658C107.862 106.812 108.068 106.795 108.264 106.735C108.46 106.676 108.641 106.575 108.795 106.44C108.95 106.304 109.073 106.138 109.157 105.951C109.242 105.764 109.286 105.562 109.286 105.357C109.286 105.152 109.242 104.949 109.157 104.763C109.073 104.576 108.95 104.409 108.795 104.274C108.641 104.139 108.46 104.038 108.264 103.978C108.068 103.919 107.862 103.902 107.658 103.928ZM17.1432 43.9283C17.1436 43.5495 17.2942 43.1864 17.562 42.9186C17.8299 42.6508 18.193 42.5002 18.5717 42.4997H101.429C101.808 42.5002 102.171 42.6509 102.438 42.9187C102.706 43.1865 102.857 43.5496 102.857 43.9283V83.9283H17.1432V43.9283ZM18.5717 95.3569C18.193 95.3564 17.8299 95.2058 17.562 94.938C17.2942 94.6701 17.1436 94.307 17.1432 93.9283V86.7854H102.857V93.9283C102.857 94.307 102.706 94.6701 102.438 94.9379C102.171 95.2057 101.808 95.3564 101.429 95.3569H18.5717ZM55.7146 103.928V98.214H64.286V103.928H55.7146Z" fill="#FBFBFF"/>
</g>
<defs>
<clipPath id="clip0_199_3591">
<rect width="120" height="120" fill="white"/>
</clipPath>
</defs>
</svg>
