<svg width="120" height="120" viewBox="0 0 120 120" fill="none" xmlns="http://www.w3.org/2000/svg">
<g clip-path="url(#clip0_206_4147)">
<path d="M104.285 40.1855H15.7137C15.3348 40.1855 14.9715 40.3361 14.7036 40.604C14.4357 40.8719 14.2852 41.2352 14.2852 41.6141C14.2852 41.993 14.4357 42.3564 14.7036 42.6243C14.9715 42.8922 15.3348 43.0427 15.7137 43.0427H104.285C104.664 43.0427 105.027 42.8922 105.295 42.6243C105.563 42.3564 105.714 41.993 105.714 41.6141C105.714 41.2352 105.563 40.8719 105.295 40.604C105.027 40.3361 104.664 40.1855 104.285 40.1855Z" fill="#FBFBFF"/>
<path d="M19.9994 45.8984H17.1423C16.3845 45.8984 15.6578 46.1995 15.122 46.7353C14.5862 47.2711 14.2852 47.9978 14.2852 48.7556V51.6127C14.2852 52.3705 14.5862 53.0972 15.122 53.633C15.6578 54.1688 16.3845 54.4699 17.1423 54.4699H19.9994C20.7572 54.4699 21.4839 54.1688 22.0197 53.633C22.5556 53.0972 22.8566 52.3705 22.8566 51.6127V48.7556C22.8566 47.9978 22.5556 47.2711 22.0197 46.7353C21.4839 46.1995 20.7572 45.8984 19.9994 45.8984ZM19.9994 51.6127H17.1423V48.7556H19.9994V51.6127Z" fill="#FFC100"/>
<path d="M32.8588 54.4699C33.6166 54.4699 34.3433 54.1688 34.8791 53.633C35.4149 53.0972 35.716 52.3705 35.716 51.6127V48.7556C35.716 47.9978 35.4149 47.2711 34.8791 46.7353C34.3433 46.1995 33.6166 45.8984 32.8588 45.8984H30.0017C29.2439 45.8984 28.5172 46.1995 27.9814 46.7353C27.4456 47.2711 27.1445 47.9978 27.1445 48.7556V51.6127C27.1445 52.3705 27.4456 53.0972 27.9814 53.633C28.5172 54.1688 29.2439 54.4699 30.0017 54.4699H32.8588ZM30.0017 48.7556H32.8588V51.6127H30.0017V48.7556Z" fill="#FBFBFF"/>
<path d="M45.7143 54.4699C46.472 54.4699 47.1988 54.1688 47.7346 53.633C48.2704 53.0972 48.5714 52.3705 48.5714 51.6127V48.7556C48.5714 47.9978 48.2704 47.2711 47.7346 46.7353C47.1988 46.1995 46.472 45.8984 45.7143 45.8984H42.8571C42.0994 45.8984 41.3727 46.1995 40.8368 46.7353C40.301 47.2711 40 47.9978 40 48.7556V51.6127C40 52.3705 40.301 53.0972 40.8368 53.633C41.3727 54.1688 42.0994 54.4699 42.8571 54.4699H45.7143ZM42.8571 48.7556H45.7143V51.6127H42.8571V48.7556Z" fill="#FFC100"/>
<path d="M58.5737 54.4699C59.3314 54.4699 60.0582 54.1688 60.594 53.633C61.1298 53.0972 61.4308 52.3705 61.4308 51.6127V48.7556C61.4308 47.9978 61.1298 47.2711 60.594 46.7353C60.0582 46.1995 59.3314 45.8984 58.5737 45.8984H55.7165C54.9588 45.8984 54.232 46.1995 53.6962 46.7353C53.1604 47.2711 52.8594 47.9978 52.8594 48.7556V51.6127C52.8594 52.3705 53.1604 53.0972 53.6962 53.633C54.232 54.1688 54.9588 54.4699 55.7165 54.4699H58.5737ZM55.7165 48.7556H58.5737V51.6127H55.7165V48.7556Z" fill="#FBFBFF"/>
<path d="M71.4252 54.4699C72.183 54.4699 72.9097 54.1688 73.4455 53.633C73.9814 53.0972 74.2824 52.3705 74.2824 51.6127V48.7556C74.2824 47.9978 73.9814 47.2711 73.4455 46.7353C72.9097 46.1995 72.183 45.8984 71.4252 45.8984H68.5681C67.8103 45.8984 67.0836 46.1995 66.5478 46.7353C66.012 47.2711 65.7109 47.9978 65.7109 48.7556V51.6127C65.7109 52.3705 66.012 53.0972 66.5478 53.633C67.0836 54.1688 67.8103 54.4699 68.5681 54.4699H71.4252ZM68.5681 48.7556H71.4252V51.6127H68.5681V48.7556Z" fill="#FFC100"/>
<path d="M84.2846 54.4699C85.0424 54.4699 85.7691 54.1688 86.3049 53.633C86.8407 53.0972 87.1417 52.3705 87.1417 51.6127V48.7556C87.1417 47.9978 86.8407 47.2711 86.3049 46.7353C85.7691 46.1995 85.0424 45.8984 84.2846 45.8984H81.4275C80.6697 45.8984 79.943 46.1995 79.4071 46.7353C78.8713 47.2711 78.5703 47.9978 78.5703 48.7556V51.6127C78.5703 52.3705 78.8713 53.0972 79.4071 53.633C79.943 54.1688 80.6697 54.4699 81.4275 54.4699H84.2846ZM81.4275 48.7556H84.2846V51.6127H81.4275V48.7556Z" fill="#FBFBFF"/>
<path d="M97.144 54.4699C97.9017 54.4699 98.6285 54.1688 99.1643 53.633C99.7001 53.0972 100.001 52.3705 100.001 51.6127V48.7556C100.001 47.9978 99.7001 47.2711 99.1643 46.7353C98.6285 46.1995 97.9017 45.8984 97.144 45.8984H94.2868C93.5291 45.8984 92.8023 46.1995 92.2665 46.7353C91.7307 47.2711 91.4297 47.9978 91.4297 48.7556V51.6127C91.4297 52.3705 91.7307 53.0972 92.2665 53.633C92.8023 54.1688 93.5291 54.4699 94.2868 54.4699H97.144ZM94.2868 48.7556H97.144V51.6127H94.2868V48.7556Z" fill="#FFC100"/>
<path d="M48.519 81.6138H15.7137C15.3348 81.6138 14.9715 81.7643 14.7036 82.0323C14.4357 82.3002 14.2852 82.6635 14.2852 83.0424C14.2852 83.4213 14.4357 83.7846 14.7036 84.0526C14.9715 84.3205 15.3348 84.471 15.7137 84.471H52.0923C50.769 83.6968 49.5653 82.7344 48.519 81.6138ZM104.285 81.6138H71.4799C70.4335 82.7344 69.2299 83.6968 67.9066 84.471H104.285C104.664 84.471 105.027 84.3205 105.295 84.0526C105.563 83.7846 105.714 83.4213 105.714 83.0424C105.714 82.6635 105.563 82.3002 105.295 82.0323C105.027 81.7643 104.664 81.6138 104.285 81.6138ZM14.2852 58.7567C14.2852 59.1356 14.4357 59.4989 14.7036 59.7668C14.9715 60.0347 15.3349 60.1852 15.7137 60.1853H48.519C49.5653 59.0647 50.769 58.1023 52.0923 57.3281H15.7137C15.3349 57.3281 14.9715 57.4787 14.7036 57.7466C14.4357 58.0145 14.2852 58.3778 14.2852 58.7567ZM104.285 57.3281H67.9066C69.2299 58.1023 70.4335 59.0647 71.4799 60.1853H104.285C104.664 60.1853 105.027 60.0348 105.295 59.7668C105.563 59.4989 105.714 59.1356 105.714 58.7567C105.714 58.3778 105.563 58.0145 105.295 57.7465C105.027 57.4786 104.664 57.3281 104.285 57.3281ZM47.1423 70.8996C47.1423 73.4425 47.8964 75.9282 49.3091 78.0426C50.7219 80.1569 52.7299 81.8049 55.0792 82.778C57.4286 83.7511 60.0137 84.0057 62.5077 83.5096C65.0018 83.0135 67.2927 81.789 69.0908 79.9909C70.8889 78.1928 72.1134 75.9019 72.6095 73.4079C73.1056 70.9138 72.851 68.3287 71.8779 65.9793C70.9048 63.63 69.2568 61.622 67.1425 60.2092C65.0281 58.7965 62.5423 58.0424 59.9994 58.0424C56.5907 58.0463 53.3227 59.4021 50.9124 61.8125C48.502 64.2228 47.1462 67.4908 47.1423 70.8996ZM59.9994 60.8996C61.9772 60.8996 63.9106 61.486 65.5551 62.5849C67.1996 63.6837 68.4813 65.2455 69.2382 67.0727C69.9951 68.9 70.1931 70.9106 69.8073 72.8505C69.4214 74.7903 68.469 76.5721 67.0705 77.9706C65.672 79.3691 63.8901 80.3216 61.9503 80.7074C60.0105 81.0933 57.9999 80.8952 56.1726 80.1383C54.3453 79.3815 52.7836 78.0997 51.6847 76.4553C50.5859 74.8108 49.9994 72.8774 49.9994 70.8996C50.0024 68.2483 51.0569 65.7065 52.9317 63.8318C54.8064 61.957 57.3482 60.9025 59.9994 60.8996Z" fill="#FBFBFF"/>
<path d="M55.6441 76.1874C56.0584 76.4434 56.5313 76.5893 57.0178 76.6112C57.5043 76.6331 57.9884 76.5303 58.424 76.3125L64.1383 73.4553C64.6128 73.218 65.012 72.8533 65.2909 72.4019C65.5699 71.9506 65.7176 71.4304 65.7176 70.8998C65.7176 70.3692 65.5699 69.8491 65.2909 69.3977C65.012 68.9464 64.6128 68.5816 64.1383 68.3443L58.424 65.4872C57.9884 65.2694 57.5043 65.1665 57.0178 65.1884C56.5313 65.2103 56.0584 65.3562 55.6441 65.6123C55.2298 65.8683 54.8879 66.226 54.6507 66.6514C54.4136 67.0767 54.2891 67.5557 54.2891 68.0427V73.757C54.2891 74.244 54.4136 74.7229 54.6507 75.1483C54.8879 75.5737 55.2298 75.9314 55.6441 76.1874ZM57.1462 68.0427L62.8605 70.8998L57.1462 73.757V68.0427Z" fill="#FFC100"/>
<path d="M113.076 12.6724C113.5 12.6724 113.914 12.5468 114.266 12.3113C114.619 12.0758 114.893 11.7412 115.056 11.3496C115.218 10.9581 115.26 10.5272 115.178 10.1115C115.095 9.69585 114.891 9.31403 114.591 9.01435C114.291 8.71466 113.91 8.51058 113.494 8.42789C113.078 8.34521 112.647 8.38765 112.256 8.54984C111.864 8.71202 111.53 8.98668 111.294 9.33907C111.059 9.69146 110.933 10.1058 110.933 10.5296C110.934 11.0977 111.16 11.6424 111.561 12.0441C111.963 12.4458 112.508 12.6718 113.076 12.6724ZM113.076 9.45815C113.288 9.45815 113.495 9.52099 113.671 9.63872C113.847 9.75645 113.985 9.92378 114.066 10.1196C114.147 10.3153 114.168 10.5308 114.127 10.7386C114.085 10.9464 113.983 11.1373 113.834 11.2872C113.684 11.437 113.493 11.5391 113.285 11.5804C113.077 11.6218 112.862 11.6005 112.666 11.5194C112.47 11.4384 112.303 11.301 112.185 11.1248C112.067 10.9486 112.004 10.7415 112.004 10.5296C112.005 10.2455 112.118 9.97314 112.319 9.77227C112.519 9.5714 112.792 9.45843 113.076 9.45815ZM113.076 46.6145C112.793 46.6145 112.517 46.6983 112.282 46.8552C112.047 47.0122 111.864 47.2353 111.756 47.4963C111.648 47.7574 111.62 48.0446 111.675 48.3217C111.73 48.5989 111.866 48.8534 112.066 49.0532C112.266 49.253 112.52 49.389 112.797 49.4442C113.074 49.4993 113.362 49.471 113.623 49.3629C113.884 49.2547 114.107 49.0716 114.264 48.8367C114.421 48.6018 114.504 48.3256 114.504 48.043C114.504 47.6643 114.353 47.3012 114.086 47.0334C113.818 46.7656 113.455 46.6149 113.076 46.6145ZM113.076 48.7573C112.935 48.7573 112.797 48.7154 112.679 48.6369C112.562 48.5585 112.47 48.4469 112.416 48.3164C112.362 48.1859 112.348 48.0422 112.375 47.9037C112.403 47.7651 112.471 47.6379 112.571 47.538C112.671 47.4381 112.798 47.37 112.937 47.3425C113.075 47.3149 113.219 47.3291 113.349 47.3831C113.48 47.4372 113.591 47.5287 113.67 47.6462C113.748 47.7637 113.79 47.9018 113.79 48.043C113.79 48.2324 113.715 48.414 113.581 48.5479C113.447 48.6818 113.265 48.7571 113.076 48.7573ZM70.2188 25.9002C69.9362 25.9002 69.66 25.984 69.4251 26.1409C69.1902 26.2979 69.0071 26.521 68.8989 26.7821C68.7908 27.0431 68.7625 27.3303 68.8176 27.6075C68.8728 27.8846 69.0088 28.1391 69.2086 28.3389C69.4084 28.5387 69.6629 28.6747 69.9401 28.7299C70.2172 28.785 70.5044 28.7567 70.7655 28.6486C71.0265 28.5405 71.2496 28.3573 71.4066 28.1224C71.5636 27.8875 71.6473 27.6113 71.6473 27.3287C71.6469 26.95 71.4963 26.5869 71.2284 26.3191C70.9606 26.0513 70.5975 25.9006 70.2188 25.9002ZM70.2188 28.043C70.0775 28.043 69.9394 28.0011 69.8219 27.9227C69.7045 27.8442 69.6129 27.7326 69.5589 27.6021C69.5048 27.4716 69.4906 27.328 69.5182 27.1894C69.5458 27.0508 69.6138 26.9236 69.7137 26.8237C69.8136 26.7238 69.9409 26.6557 70.0794 26.6282C70.218 26.6006 70.3616 26.6148 70.4921 26.6688C70.6226 26.7229 70.7342 26.8144 70.8127 26.9319C70.8912 27.0494 70.9331 27.1875 70.9331 27.3287C70.9329 27.5181 70.8576 27.6997 70.7236 27.8336C70.5897 27.9675 70.4081 28.0428 70.2188 28.043ZM48.5725 8.38672C48.29 8.38672 48.0138 8.4705 47.7789 8.62748C47.5439 8.78445 47.3608 9.00756 47.2527 9.2686C47.1446 9.52964 47.1163 9.81688 47.1714 10.094C47.2265 10.3711 47.3626 10.6257 47.5624 10.8254C47.7622 11.0252 48.0167 11.1613 48.2938 11.2164C48.571 11.2715 48.8582 11.2432 49.1192 11.1351C49.3803 11.027 49.6034 10.8439 49.7604 10.609C49.9173 10.374 50.0011 10.0978 50.0011 9.81529C50.0007 9.43654 49.85 9.07343 49.5822 8.80562C49.3144 8.5378 48.9513 8.38715 48.5725 8.38672ZM48.5725 10.5296C48.4313 10.5296 48.2932 10.4877 48.1757 10.4092C48.0582 10.3307 47.9667 10.2192 47.9126 10.0886C47.8586 9.95812 47.8444 9.8145 47.872 9.67594C47.8995 9.53738 47.9676 9.41011 48.0675 9.31021C48.1674 9.21032 48.2946 9.14229 48.4332 9.11473C48.5718 9.08717 48.7154 9.10131 48.8459 9.15538C48.9764 9.20944 49.088 9.30099 49.1665 9.41846C49.2449 9.53592 49.2868 9.67402 49.2868 9.81529C49.2866 10.0047 49.2113 10.1862 49.0774 10.3202C48.9435 10.4541 48.7619 10.5294 48.5725 10.5296ZM4.28683 38.7573C4.28683 38.4748 4.20305 38.1986 4.04607 37.9637C3.8891 37.7287 3.66599 37.5456 3.40495 37.4375C3.14391 37.3294 2.85667 37.3011 2.57956 37.3562C2.30244 37.4113 2.0479 37.5474 1.84811 37.7472C1.64832 37.947 1.51226 38.2015 1.45714 38.4786C1.40202 38.7557 1.43031 39.043 1.53843 39.304C1.64656 39.5651 1.82966 39.7882 2.06459 39.9451C2.29952 40.1021 2.57571 40.1859 2.85826 40.1859C3.23701 40.1855 3.60012 40.0348 3.86793 39.767C4.13575 39.4992 4.2864 39.1361 4.28683 38.7573ZM2.14397 38.7573C2.14397 38.6161 2.18587 38.478 2.26435 38.3605C2.34284 38.243 2.4544 38.1515 2.58491 38.0974C2.71543 38.0433 2.85905 38.0292 2.99761 38.0568C3.13617 38.0843 3.26344 38.1524 3.36334 38.2522C3.46323 38.3521 3.53126 38.4794 3.55882 38.618C3.58638 38.7565 3.57224 38.9002 3.51817 39.0307C3.46411 39.1612 3.37256 39.2727 3.2551 39.3512C3.13763 39.4297 2.99953 39.4716 2.85826 39.4716C2.66888 39.4714 2.48731 39.3961 2.35339 39.2622C2.21948 39.1283 2.14416 38.9467 2.14397 38.7573Z" fill="#FBFBFF"/>
<path d="M34.5847 27.4405L35.6468 26.0441L34.9761 25.6641L34.2947 27.2283H34.2718L33.5797 25.6748L32.8968 26.0662L33.9483 27.4298V27.4519L32.3047 27.2398V27.9991L33.959 27.7876V27.8098L32.8968 29.1726L33.534 29.5755L34.2611 27.9991H34.2825L34.9533 29.5641L35.6575 29.1619L34.5847 27.8205V27.7983L36.2718 27.9991V27.2398L34.5847 27.4626V27.4405Z" fill="#FFC100"/>
<path d="M9.31223 13.2338L8.7008 14.0188L9.06795 14.2509L9.48652 13.343H9.49866L9.88509 14.2445L10.2908 14.0123L9.67295 13.2402V13.2273L10.6444 13.343V12.9059L9.67295 13.0345V13.0216L10.2844 12.2173L9.89795 11.998L9.5058 12.8988H9.49295L9.09366 12.0045L8.7008 12.2295L9.3058 13.0152V13.028L8.35938 12.9059V13.343L9.31223 13.2209V13.2338Z" fill="#FFC100"/>
<path d="M110.931 31.4099V30.6641L109.276 30.8834V30.862L110.318 29.4913L109.66 29.1191L108.991 30.6534H108.969L108.29 29.1299L107.62 29.5134L108.651 30.8513V30.8727L107.039 30.6641V31.4099L108.662 31.202V31.2234L107.62 32.5606L108.245 32.9556L108.958 31.4099H108.98L109.638 32.9449L110.328 32.5499L109.276 31.2341V31.2127L110.931 31.4099Z" fill="#FFC100"/>
<path d="M83.3902 11.3173L84.2888 10.1359L83.7209 9.81445L83.1445 11.138H83.1252L82.5395 9.82374L81.9617 10.1545L82.8509 11.308V11.3273L81.4609 11.1473V11.7902L82.8602 11.6109V11.6295L81.9617 12.783L82.5009 13.1237L83.1159 11.7902H83.1345L83.7024 13.1145L84.2981 12.7737L83.3902 11.6387V11.6202L84.8174 11.7902V11.1473L83.3902 11.3366V11.3173Z" fill="#FFC100"/>
<path d="M84.3951 104.471H78.461C78.1019 104.499 77.7667 104.662 77.5224 104.927C77.278 105.192 77.1423 105.539 77.1423 105.899C77.1423 106.26 77.278 106.607 77.5224 106.871C77.7667 107.136 78.1019 107.299 78.461 107.328H84.3951C84.7542 107.299 85.0893 107.136 85.3337 106.871C85.5781 106.607 85.7138 106.26 85.7138 105.899C85.7138 105.539 85.5781 105.192 85.3337 104.927C85.0893 104.662 84.7542 104.499 84.3951 104.471ZM41.5379 104.471H35.6038C35.2447 104.499 34.9096 104.662 34.6652 104.927C34.4209 105.192 34.2852 105.539 34.2852 105.899C34.2852 106.26 34.4209 106.607 34.6652 106.871C34.9096 107.136 35.2447 107.299 35.6038 107.328H41.5379C41.8971 107.299 42.2322 107.136 42.4766 106.871C42.7209 106.607 42.8566 106.26 42.8566 105.899C42.8566 105.539 42.7209 105.192 42.4766 104.927C42.2322 104.662 41.8971 104.499 41.5379 104.471ZM74.2852 104.471H45.7137C45.3349 104.471 44.9715 104.621 44.7036 104.889C44.4357 105.157 44.2852 105.52 44.2852 105.899C44.2852 106.278 44.4357 106.642 44.7036 106.909C44.9715 107.177 45.3349 107.328 45.7137 107.328H57.0995V108.756H51.428C51.0492 108.756 50.6858 108.907 50.4179 109.175C50.15 109.443 49.9995 109.806 49.9995 110.185C49.9995 110.564 50.15 110.927 50.4179 111.195C50.6858 111.463 51.0492 111.614 51.428 111.614H69.2852C69.6641 111.614 70.0274 111.463 70.2953 111.195C70.5632 110.927 70.7137 110.564 70.7137 110.185C70.7137 109.806 70.5632 109.443 70.2953 109.175C70.0274 108.907 69.6641 108.756 69.2852 108.756H62.8995V107.328H74.2852C74.6641 107.328 75.0274 107.177 75.2953 106.909C75.5632 106.642 75.7137 106.278 75.7137 105.899C75.7137 105.52 75.5632 105.157 75.2953 104.889C75.0274 104.621 74.6641 104.471 74.2852 104.471Z" fill="#FFC100"/>
<path d="M84.3956 104.471H78.4615C78.1024 104.5 77.7673 104.663 77.5229 104.927C77.2785 105.192 77.1428 105.539 77.1428 105.9C77.1428 106.26 77.2785 106.607 77.5229 106.872C77.7673 107.136 78.1024 107.299 78.4615 107.328H84.3956C84.7548 107.299 85.0899 107.136 85.3342 106.872C85.5786 106.607 85.7143 106.26 85.7143 105.9C85.7143 105.539 85.5786 105.192 85.3342 104.927C85.0899 104.663 84.7548 104.5 84.3956 104.471ZM41.5385 104.471H35.6044C35.2452 104.5 34.9101 104.663 34.6658 104.927C34.4214 105.192 34.2857 105.539 34.2857 105.9C34.2857 106.26 34.4214 106.607 34.6658 106.872C34.9101 107.136 35.2452 107.299 35.6044 107.328H41.5385C41.8976 107.299 42.2327 107.136 42.4771 106.872C42.7215 106.607 42.8572 106.26 42.8572 105.9C42.8572 105.539 42.7215 105.192 42.4771 104.927C42.2327 104.663 41.8976 104.5 41.5385 104.471ZM74.2857 104.471H45.7143C45.3354 104.471 44.972 104.621 44.7041 104.889C44.4362 105.157 44.2857 105.521 44.2857 105.9C44.2857 106.278 44.4362 106.642 44.7041 106.91C44.972 107.178 45.3354 107.328 45.7143 107.328H57.1V108.757H51.4286C51.0497 108.757 50.6863 108.907 50.4184 109.175C50.1505 109.443 50 109.806 50 110.185C50 110.564 50.1505 110.928 50.4184 111.195C50.6863 111.463 51.0497 111.614 51.4286 111.614H69.2857C69.6646 111.614 70.028 111.463 70.2959 111.195C70.5638 110.928 70.7143 110.564 70.7143 110.185C70.7143 109.806 70.5638 109.443 70.2959 109.175C70.028 108.907 69.6646 108.757 69.2857 108.757H62.9V107.328H74.2857C74.6646 107.328 75.028 107.178 75.2959 106.91C75.5638 106.642 75.7143 106.278 75.7143 105.9C75.7143 105.521 75.5638 105.157 75.2959 104.889C75.028 104.621 74.6646 104.471 74.2857 104.471ZM22.8571 95.8995H25.7143C26.472 95.8995 27.1988 95.5985 27.7346 95.0627C28.2704 94.5269 28.5714 93.8002 28.5714 93.0424V90.1853C28.5714 89.4275 28.2704 88.7008 27.7346 88.165C27.1988 87.6291 26.472 87.3281 25.7143 87.3281H22.8571C22.0994 87.3281 21.3727 87.6291 20.8368 88.165C20.301 88.7008 20 89.4275 20 90.1853V93.0424C20 93.8002 20.301 94.5269 20.8368 95.0627C21.3727 95.5985 22.0994 95.8995 22.8571 95.8995ZM22.8571 90.1853H25.7143V93.0424H22.8571V90.1853Z" fill="#FFC100"/>
<path d="M35.7126 95.8996H38.5698C39.3275 95.8996 40.0542 95.5985 40.5901 95.0627C41.1259 94.5269 41.4269 93.8002 41.4269 93.0424V90.1853C41.4269 89.4275 41.1259 88.7008 40.5901 88.165C40.0542 87.6291 39.3275 87.3281 38.5698 87.3281H35.7126C34.9548 87.3281 34.2281 87.6291 33.6923 88.165C33.1565 88.7008 32.8555 89.4275 32.8555 90.1853V93.0424C32.8555 93.8002 33.1565 94.5269 33.6923 95.0627C34.2281 95.5985 34.9548 95.8996 35.7126 95.8996ZM35.7126 90.1853H38.5698V93.0424H35.7126V90.1853Z" fill="#FBFBFF"/>
<path d="M48.572 95.8996H51.4291C52.1869 95.8996 52.9136 95.5985 53.4494 95.0627C53.9852 94.5269 54.2863 93.8002 54.2863 93.0424V90.1853C54.2863 89.4275 53.9852 88.7008 53.4494 88.165C52.9136 87.6291 52.1869 87.3281 51.4291 87.3281H48.572C47.8142 87.3281 47.0875 87.6291 46.5517 88.165C46.0159 88.7008 45.7148 89.4275 45.7148 90.1853V93.0424C45.7148 93.8002 46.0159 94.5269 46.5517 95.0627C47.0875 95.5985 47.8142 95.8996 48.572 95.8996ZM48.572 90.1853H51.4291V93.0424H48.572V90.1853Z" fill="#FFC100"/>
<path d="M61.4275 95.8996H64.2846C65.0424 95.8996 65.7691 95.5985 66.3049 95.0627C66.8407 94.5269 67.1417 93.8002 67.1417 93.0424V90.1853C67.1417 89.4275 66.8407 88.7008 66.3049 88.165C65.7691 87.6291 65.0424 87.3281 64.2846 87.3281H61.4275C60.6697 87.3281 59.943 87.6291 59.4071 88.165C58.8713 88.7008 58.5703 89.4275 58.5703 90.1853V93.0424C58.5703 93.8002 58.8713 94.5269 59.4071 95.0627C59.943 95.5985 60.6697 95.8996 61.4275 95.8996ZM61.4275 90.1853H64.2846V93.0424H61.4275V90.1853Z" fill="#FBFBFF"/>
<path d="M74.2868 95.8996H77.144C77.9017 95.8996 78.6285 95.5985 79.1643 95.0627C79.7001 94.5269 80.0011 93.8002 80.0011 93.0424V90.1853C80.0011 89.4275 79.7001 88.7008 79.1643 88.165C78.6285 87.6291 77.9017 87.3281 77.144 87.3281H74.2868C73.5291 87.3281 72.8023 87.6291 72.2665 88.165C71.7307 88.7008 71.4297 89.4275 71.4297 90.1853V93.0424C71.4297 93.8002 71.7307 94.5269 72.2665 95.0627C72.8023 95.5985 73.5291 95.8996 74.2868 95.8996ZM74.2868 90.1853H77.144V93.0424H74.2868V90.1853Z" fill="#FFC100"/>
<path d="M87.1462 95.8996H90.0034C90.7611 95.8996 91.4878 95.5985 92.0237 95.0627C92.5595 94.5269 92.8605 93.8002 92.8605 93.0424V90.1853C92.8605 89.4275 92.5595 88.7008 92.0237 88.165C91.4878 87.6291 90.7611 87.3281 90.0034 87.3281H87.1462C86.3884 87.3281 85.6617 87.6291 85.1259 88.165C84.5901 88.7008 84.2891 89.4275 84.2891 90.1853V93.0424C84.2891 93.8002 84.5901 94.5269 85.1259 95.0627C85.6617 95.5985 86.3884 95.8996 87.1462 95.8996ZM87.1462 90.1853H90.0034V93.0424H87.1462V90.1853Z" fill="#FBFBFF"/>
<path d="M99.9978 95.8996H102.855C103.613 95.8996 104.339 95.5985 104.875 95.0627C105.411 94.5269 105.712 93.8002 105.712 93.0424V90.1853C105.712 89.4275 105.411 88.7008 104.875 88.165C104.339 87.6291 103.613 87.3281 102.855 87.3281H99.9978C99.24 87.3281 98.5133 87.6291 97.9775 88.165C97.4416 88.7008 97.1406 89.4275 97.1406 90.1853V93.0424C97.1406 93.8002 97.4416 94.5269 97.9775 95.0627C98.5133 95.5985 99.24 95.8996 99.9978 95.8996ZM99.9978 90.1853H102.855V93.0424H99.9978V90.1853Z" fill="#FFC100"/>
<path d="M1.42857 101.615C2.21755 101.615 2.85714 100.975 2.85714 100.186C2.85714 99.3974 2.21755 98.7578 1.42857 98.7578C0.639593 98.7578 0 99.3974 0 100.186C0 100.975 0.639593 101.615 1.42857 101.615Z" fill="#FBFBFF"/>
<path d="M7.85658 98.7578H5.71373C5.33485 98.7578 4.97148 98.9083 4.70358 99.1762C4.43567 99.4441 4.28516 99.8075 4.28516 100.186C4.28516 100.565 4.43567 100.929 4.70358 101.197C4.97148 101.464 5.33485 101.615 5.71373 101.615H7.85658C8.23547 101.615 8.59883 101.464 8.86674 101.197C9.13465 100.929 9.28516 100.565 9.28516 100.186C9.28516 99.8075 9.13465 99.4441 8.86674 99.1762C8.59883 98.9083 8.23547 98.7578 7.85658 98.7578ZM114.285 98.7578H112.142C111.763 98.7578 111.4 98.9083 111.132 99.1762C110.864 99.4441 110.714 99.8075 110.714 100.186C110.714 100.565 110.864 100.929 111.132 101.197C111.4 101.464 111.763 101.615 112.142 101.615H114.285C114.664 101.615 115.027 101.464 115.295 101.197C115.563 100.929 115.714 100.565 115.714 100.186C115.714 99.8075 115.563 99.4441 115.295 99.1762C115.027 98.9083 114.664 98.7578 114.285 98.7578Z" fill="#FBFBFF"/>
<path d="M118.573 101.613C119.362 101.613 120.002 100.973 120.002 100.184C120.002 99.3955 119.362 98.7559 118.573 98.7559C117.784 98.7559 117.145 99.3955 117.145 100.184C117.145 100.973 117.784 101.613 118.573 101.613Z" fill="#FBFBFF"/>
<path d="M107.658 98.7563H12.3422C12.139 98.7297 11.9324 98.7468 11.7363 98.8065C11.5402 98.8661 11.3591 98.9669 11.2051 99.1021C11.0511 99.2373 10.9277 99.4039 10.8431 99.5906C10.7586 99.7773 10.7148 99.9799 10.7148 100.185C10.7148 100.39 10.7586 100.592 10.8431 100.779C10.9277 100.966 11.0511 101.132 11.2051 101.268C11.3591 101.403 11.5402 101.504 11.7363 101.563C11.9324 101.623 12.139 101.64 12.3422 101.613H107.658C107.862 101.64 108.068 101.623 108.264 101.563C108.46 101.504 108.641 101.403 108.795 101.268C108.95 101.132 109.073 100.966 109.157 100.779C109.242 100.592 109.286 100.39 109.286 100.185C109.286 99.9799 109.242 99.7773 109.157 99.5906C109.073 99.4039 108.95 99.2373 108.795 99.1021C108.641 98.9669 108.46 98.8661 108.264 98.8065C108.068 98.7468 107.862 98.7297 107.658 98.7563Z" fill="#FBFBFF"/>
</g>
<defs>
<clipPath id="clip0_206_4147">
<rect width="120" height="120" fill="white"/>
</clipPath>
</defs>
</svg>
