<svg width="120" height="120" viewBox="0 0 120 120" fill="none" xmlns="http://www.w3.org/2000/svg">
<g clip-path="url(#clip0_206_4345)">
<path d="M1.42857 107.142C2.21755 107.142 2.85714 106.503 2.85714 105.714C2.85714 104.925 2.21755 104.285 1.42857 104.285C0.639593 104.285 0 104.925 0 105.714C0 106.503 0.639593 107.142 1.42857 107.142Z" fill="#FBFBFF"/>
<path d="M7.85658 104.285H5.71373C5.33485 104.285 4.97148 104.436 4.70358 104.704C4.43567 104.971 4.28516 105.335 4.28516 105.714C4.28516 106.093 4.43567 106.456 4.70358 106.724C4.97148 106.992 5.33485 107.142 5.71373 107.142H7.85658C8.23547 107.142 8.59883 106.992 8.86674 106.724C9.13465 106.456 9.28516 106.093 9.28516 105.714C9.28516 105.335 9.13465 104.971 8.86674 104.704C8.59883 104.436 8.23547 104.285 7.85658 104.285ZM114.285 104.285H112.142C111.763 104.285 111.4 104.436 111.132 104.704C110.864 104.971 110.714 105.335 110.714 105.714C110.714 106.093 110.864 106.456 111.132 106.724C111.4 106.992 111.763 107.142 112.142 107.142H114.285C114.664 107.142 115.027 106.992 115.295 106.724C115.563 106.456 115.714 106.093 115.714 105.714C115.714 105.335 115.563 104.971 115.295 104.704C115.027 104.436 114.664 104.285 114.285 104.285Z" fill="#FBFBFF"/>
<path d="M118.573 107.142C119.362 107.142 120.002 106.503 120.002 105.714C120.002 104.925 119.362 104.285 118.573 104.285C117.784 104.285 117.145 104.925 117.145 105.714C117.145 106.503 117.784 107.142 118.573 107.142Z" fill="#FBFBFF"/>
<path d="M84.3951 110H78.461C78.1019 110.029 77.7667 110.192 77.5224 110.456C77.278 110.721 77.1423 111.068 77.1423 111.429C77.1423 111.789 77.278 112.136 77.5224 112.401C77.7667 112.665 78.1019 112.828 78.461 112.857H84.3951C84.7542 112.828 85.0893 112.665 85.3337 112.401C85.5781 112.136 85.7138 111.789 85.7138 111.429C85.7138 111.068 85.5781 110.721 85.3337 110.456C85.0893 110.192 84.7542 110.029 84.3951 110ZM41.5379 110H35.6038C35.2447 110.029 34.9096 110.192 34.6652 110.456C34.4209 110.721 34.2852 111.068 34.2852 111.429C34.2852 111.789 34.4209 112.136 34.6652 112.401C34.9096 112.665 35.2447 112.828 35.6038 112.857H41.5379C41.8971 112.828 42.2322 112.665 42.4766 112.401C42.7209 112.136 42.8566 111.789 42.8566 111.429C42.8566 111.068 42.7209 110.721 42.4766 110.456C42.2322 110.192 41.8971 110.029 41.5379 110ZM74.2852 110H45.7137C45.3349 110 44.9715 110.151 44.7036 110.418C44.4357 110.686 44.2852 111.05 44.2852 111.429C44.2852 111.807 44.4357 112.171 44.7036 112.439C44.9715 112.707 45.3349 112.857 45.7137 112.857H57.0995V114.286H51.428C51.0492 114.286 50.6858 114.436 50.4179 114.704C50.15 114.972 49.9995 115.335 49.9995 115.714C49.9995 116.093 50.15 116.457 50.4179 116.724C50.6858 116.992 51.0492 117.143 51.428 117.143H69.2852C69.6641 117.143 70.0274 116.992 70.2953 116.724C70.5632 116.457 70.7137 116.093 70.7137 115.714C70.7137 115.335 70.5632 114.972 70.2953 114.704C70.0274 114.436 69.6641 114.286 69.2852 114.286H62.8995V112.857H74.2852C74.6641 112.857 75.0274 112.707 75.2953 112.439C75.5632 112.171 75.7137 111.807 75.7137 111.429C75.7137 111.05 75.5632 110.686 75.2953 110.418C75.0274 110.151 74.6641 110 74.2852 110Z" fill="#FFC100"/>
<path d="M85.3215 36.236L85.6573 34.886L86.343 32.1146L83.5501 31.4289L77.9715 30.0646L75.1787 29.3789L74.4858 32.1575L68.293 57.1432H71.2573L75.493 40.036L76.1858 37.2646L77.2787 32.836L82.8644 34.2003L81.7715 38.6218L81.0787 41.4003L77.1787 57.1432H79.993C80.043 57.1432 80.093 57.1503 80.1358 57.1503L84.6358 39.0146L86.4644 39.4075L83.9644 48.9289L86.7501 49.6432L90.0001 37.2575L85.3215 36.236Z" fill="#FBFBFF"/>
<path d="M81.7708 38.6228L81.0779 41.4013L75.4922 40.0371L76.185 37.2656L81.7708 38.6228Z" fill="#FFC100"/>
<path d="M45.9566 30.5421C45.9495 30.5064 45.9352 30.4779 45.9281 30.4421L46.7281 25.7064C46.7667 25.479 46.7492 25.2455 46.677 25.0264C46.6048 24.8073 46.4801 24.6092 46.3138 24.4493L37.7352 16.1207C37.5734 15.964 37.3771 15.8474 37.162 15.7803C36.947 15.7132 36.7192 15.6974 36.497 15.7342C36.2747 15.771 36.0642 15.8594 35.8823 15.9923C35.7004 16.1251 35.5522 16.2988 35.4495 16.4993L30.1495 26.9636C30.0465 27.1709 29.9954 27.4 30.0003 27.6314C30.0053 27.8628 30.0663 28.0895 30.1781 28.2921L32.7352 32.8707L36.9852 57.1422H39.9066L36.7781 39.3064L36.2852 36.4922L35.7781 33.585L43.3638 32.4136L43.8781 35.3207L44.3709 38.135L47.6995 57.1422H50.6209L45.9566 30.5421ZM43.1638 29.5564L34.8852 30.8279L33.0638 27.5707L37.1352 19.5279L43.7638 25.9707L43.1638 29.5564Z" fill="#FBFBFF"/>
<path d="M44.3748 38.1346L36.7819 39.306L36.2891 36.4917L43.8819 35.3203L44.3748 38.1346Z" fill="#FFC100"/>
<path d="M56.6 32.1434H62.3513V57.1434H65.2269V29.2863H65.2213C65.2233 28.8606 65.1294 28.44 64.9465 28.0556L62.2016 22.3413C61.9661 21.8534 61.5975 21.4418 61.1384 21.1541C60.6793 20.8663 60.1482 20.7141 59.6064 20.7148H59.3449C58.8031 20.7141 58.272 20.8663 57.8129 21.1541C57.3538 21.4418 56.9852 21.8534 56.7497 22.3413L54.0048 28.0556C53.8219 28.44 53.728 28.8606 53.73 29.2863H53.7244V57.1434H56.6V32.1434ZM59.345 23.572H59.6064L62.3513 29.2863H56.6L59.345 23.572ZM107.658 104.286H77.8292L82.8506 63.2006C82.8994 62.7996 82.8622 62.3928 82.7415 62.0073C82.6208 61.6218 82.4194 61.2664 82.1506 60.9648C81.879 60.6616 81.5465 60.4189 81.1748 60.2528C80.8031 60.0866 80.4006 60.0007 79.9935 60.0006H36.8006C36.3944 60 35.9927 60.0857 35.6221 60.2519C35.2515 60.4181 34.9203 60.6611 34.6506 60.9648C34.3794 61.265 34.1759 61.6201 34.0539 62.0058C33.9319 62.3915 33.8942 62.799 33.9435 63.2006L38.9649 104.286H12.3435C12.1401 104.26 11.9334 104.277 11.7372 104.336C11.541 104.396 11.3597 104.496 11.2056 104.632C11.0514 104.767 10.9279 104.933 10.8432 105.12C10.7586 105.307 10.7148 105.51 10.7148 105.715C10.7148 105.92 10.7586 106.123 10.8432 106.309C10.9279 106.496 11.0514 106.663 11.2056 106.798C11.3597 106.933 11.541 107.034 11.7372 107.094C11.9334 107.153 12.1401 107.17 12.3435 107.143H107.658C107.861 107.17 108.068 107.153 108.264 107.094C108.46 107.034 108.641 106.933 108.796 106.798C108.95 106.663 109.073 106.496 109.158 106.309C109.243 106.123 109.286 105.92 109.286 105.715C109.286 105.51 109.243 105.307 109.158 105.12C109.073 104.933 108.95 104.767 108.796 104.632C108.641 104.496 108.46 104.396 108.264 104.336C108.068 104.277 107.861 104.26 107.658 104.286ZM74.9292 104.286H41.8649L41.1649 98.572L37.5006 68.572L36.8006 62.8577H79.9935L79.2935 68.572L75.6292 98.572L74.9292 104.286Z" fill="#FBFBFF"/>
<path d="M79.6452 65.7148L79.2952 68.572H37.5023L37.1523 65.7148H79.6452Z" fill="#FFC100"/>
<path d="M75.6283 98.5703L75.2784 101.427H41.5141L41.1641 98.5703H75.6283Z" fill="#FFC100"/>
<path d="M90.0011 7.55514C90.4249 7.55514 90.8392 7.42947 91.1916 7.19401C91.544 6.95855 91.8187 6.62388 91.9809 6.23232C92.143 5.84077 92.1855 5.40991 92.1028 4.99424C92.0201 4.57856 91.816 4.19674 91.5163 3.89706C91.2167 3.59737 90.8348 3.39329 90.4192 3.3106C90.0035 3.22792 89.5726 3.27036 89.1811 3.43254C88.7895 3.59473 88.4548 3.86939 88.2194 4.22178C87.9839 4.57417 87.8583 4.98847 87.8583 5.41229C87.8589 5.98041 88.0849 6.52507 88.4866 6.9268C88.8883 7.32852 89.433 7.55449 90.0011 7.55514ZM90.0011 4.34086C90.213 4.34086 90.4202 4.4037 90.5964 4.52143C90.7726 4.63916 90.9099 4.80649 90.991 5.00227C91.0721 5.19805 91.0933 5.41347 91.0519 5.62131C91.0106 5.82915 90.9086 6.02006 90.7587 6.1699C90.6089 6.31974 90.418 6.42179 90.2101 6.46313C90.0023 6.50447 89.7869 6.48325 89.5911 6.40216C89.3953 6.32106 89.228 6.18374 89.1103 6.00754C88.9925 5.83134 88.9297 5.62419 88.9297 5.41229C88.93 5.12821 89.0429 4.85585 89.2438 4.65498C89.4447 4.45411 89.717 4.34114 90.0011 4.34086ZM113.79 37.5003C113.508 37.5003 113.231 37.5841 112.997 37.741C112.762 37.898 112.578 38.1211 112.47 38.3822C112.362 38.6432 112.334 38.9304 112.389 39.2076C112.444 39.4847 112.58 39.7392 112.78 39.939C112.98 40.1388 113.234 40.2749 113.511 40.33C113.789 40.3851 114.076 40.3568 114.337 40.2487C114.598 40.1406 114.821 39.9575 114.978 39.7225C115.135 39.4876 115.219 39.2114 115.219 38.9289C115.218 38.5501 115.068 38.187 114.8 37.9192C114.532 37.6514 114.169 37.5007 113.79 37.5003ZM113.79 39.6431C113.649 39.6431 113.511 39.6012 113.393 39.5228C113.276 39.4443 113.184 39.3327 113.13 39.2022C113.076 39.0717 113.062 38.9281 113.09 38.7895C113.117 38.6509 113.185 38.5237 113.285 38.4238C113.385 38.3239 113.512 38.2559 113.651 38.2283C113.789 38.2007 113.933 38.2149 114.064 38.2689C114.194 38.323 114.306 38.4146 114.384 38.532C114.463 38.6495 114.504 38.7876 114.504 38.9289C114.504 39.1182 114.429 39.2998 114.295 39.4337C114.161 39.5676 113.98 39.6429 113.79 39.6431ZM44.3725 2.85742C44.09 2.85742 43.8138 2.94121 43.5789 3.09818C43.3439 3.25515 43.1608 3.47827 43.0527 3.7393C42.9446 4.00034 42.9163 4.28758 42.9714 4.56469C43.0265 4.84181 43.1626 5.09636 43.3624 5.29615C43.5622 5.49594 43.8167 5.63199 44.0938 5.68712C44.371 5.74224 44.6582 5.71395 44.9192 5.60582C45.1803 5.4977 45.4034 5.31459 45.5604 5.07966C45.7173 4.84474 45.8011 4.56854 45.8011 4.28599C45.8007 3.90725 45.65 3.54413 45.3822 3.27632C45.1144 3.0085 44.7513 2.85785 44.3725 2.85742ZM44.3725 5.00028C44.2313 5.00028 44.0932 4.95839 43.9757 4.8799C43.8582 4.80141 43.7667 4.68986 43.7126 4.55934C43.6586 4.42882 43.6444 4.2852 43.672 4.14664C43.6995 4.00809 43.7676 3.88081 43.8675 3.78092C43.9674 3.68102 44.0946 3.61299 44.2332 3.58543C44.3718 3.55787 44.5154 3.57202 44.6459 3.62608C44.7764 3.68014 44.888 3.77169 44.9664 3.88916C45.0449 4.00662 45.0868 4.14472 45.0868 4.28599C45.0866 4.47538 45.0113 4.65695 44.8774 4.79086C44.7435 4.92477 44.5619 5.00009 44.3725 5.00028ZM98.5412 32.7701C98.2587 32.7701 97.9824 32.8538 97.7475 33.0108C97.5126 33.1678 97.3295 33.3909 97.2214 33.6519C97.1132 33.913 97.0849 34.2002 97.1401 34.4773C97.1952 34.7545 97.3313 35.009 97.531 35.2088C97.7308 35.4086 97.9854 35.5446 98.2625 35.5998C98.5396 35.6549 98.8268 35.6266 99.0879 35.5185C99.3489 35.4103 99.572 35.2272 99.729 34.9923C99.886 34.7574 99.9698 34.4812 99.9698 34.1986C99.9693 33.8199 99.8187 33.4568 99.5509 33.189C99.2831 32.9211 98.9199 32.7705 98.5412 32.7701ZM98.5412 34.9129C98.3999 34.9129 98.2618 34.871 98.1444 34.7925C98.0269 34.7141 97.9353 34.6025 97.8813 34.472C97.8272 34.3415 97.8131 34.1978 97.8406 34.0593C97.8682 33.9207 97.9362 33.7935 98.0361 33.6936C98.136 33.5937 98.2633 33.5256 98.4018 33.4981C98.5404 33.4705 98.684 33.4847 98.8145 33.5387C98.9451 33.5928 99.0566 33.6843 99.1351 33.8018C99.2136 33.9193 99.2555 34.0574 99.2555 34.1986C99.2553 34.388 99.18 34.5696 99.0461 34.7035C98.9121 34.8374 98.7306 34.9127 98.5412 34.9129ZM20.5368 25.1789C20.5368 24.8963 20.453 24.6201 20.2961 24.3852C20.1391 24.1503 19.916 23.9671 19.655 23.859C19.3939 23.7509 19.1067 23.7226 18.8296 23.7777C18.5524 23.8329 18.2979 23.9689 18.0981 24.1687C17.8983 24.3685 17.7623 24.623 17.7071 24.9001C17.652 25.1773 17.6803 25.4645 17.7884 25.7255C17.8966 25.9866 18.0797 26.2097 18.3146 26.3667C18.5495 26.5236 18.8257 26.6074 19.1083 26.6074C19.487 26.607 19.8501 26.4563 20.1179 26.1885C20.3857 25.9207 20.5364 25.5576 20.5368 25.1789ZM18.394 25.1789C18.394 25.0376 18.4359 24.8995 18.5144 24.782C18.5928 24.6646 18.7044 24.573 18.8349 24.5189C18.9654 24.4649 19.1091 24.4507 19.2476 24.4783C19.3862 24.5059 19.5134 24.5739 19.6133 24.6738C19.7132 24.7737 19.7813 24.9009 19.8088 25.0395C19.8364 25.1781 19.8222 25.3217 19.7682 25.4522C19.7141 25.5827 19.6226 25.6943 19.5051 25.7728C19.3876 25.8512 19.2495 25.8931 19.1083 25.8931C18.9189 25.8929 18.7373 25.8176 18.6034 25.6837C18.4695 25.5498 18.3942 25.3682 18.394 25.1789Z" fill="#FBFBFF"/>
<path d="M7.77681 47.8663L8.83895 46.4698L8.16824 46.0898L7.48609 47.6541H7.46395L6.77109 46.1006L6.08895 46.492L7.13967 47.8556V47.8777L5.49609 47.6656V48.4256L7.15038 48.2134V48.2356L6.08895 49.5984L6.72538 50.0013L7.45252 48.4256H7.47467L8.14538 49.9898L8.84967 49.5877L7.77681 48.2463V48.2241L9.46395 48.4256V47.6656L7.77681 47.8884V47.8663Z" fill="#FFC100"/>
<path d="M12.1716 4.39587L11.5602 5.18087L11.9273 5.41301L12.3459 4.50516H12.358L12.7445 5.40658L13.1502 5.17444L12.5323 4.4023V4.38944L13.5038 4.50516V4.06801L12.5323 4.19658V4.18373L13.1438 3.37944L12.7573 3.16016L12.3652 4.06087H12.3523L11.953 3.16659L11.5602 3.39159L12.1652 4.1773V4.19016L11.2188 4.06801V4.50516L12.1716 4.38301V4.39587Z" fill="#FFC100"/>
<path d="M117.661 11.0876V10.3426L116.006 10.5619V10.5397L117.048 9.16973L116.39 8.79688L115.722 10.3312H115.699L115.02 8.80759L114.35 9.19187L115.382 10.529V10.5512L113.77 10.3426V11.0876L115.392 10.8797V10.9019L114.35 12.239L114.975 12.634L115.689 11.0876H115.71L116.367 12.6226L117.059 12.2283L116.006 10.9126V10.8904L117.661 11.0876Z" fill="#FFC100"/>
<path d="M71.9644 17.7216L72.863 16.5402L72.2959 16.2188L71.7187 17.5416H71.6994L71.1137 16.2273L70.5359 16.5587L71.4252 17.7123V17.7316L70.0352 17.5516V18.1945L71.4344 18.0152V18.0337L70.5359 19.1873L71.0751 19.528L71.6901 18.1945H71.7087L72.2766 19.518L72.8723 19.178L71.9644 18.043V18.0245L73.3916 18.1945V17.5516L71.9644 17.7409V17.7216Z" fill="#FFC100"/>
</g>
<defs>
<clipPath id="clip0_206_4345">
<rect width="120" height="120" fill="white"/>
</clipPath>
</defs>
</svg>
