<svg width="120" height="120" viewBox="0 0 120 120" fill="none" xmlns="http://www.w3.org/2000/svg">
<g clip-path="url(#clip0_199_3570)">
<path d="M30.2938 72.8161C31.0989 72.8161 31.7517 72.1765 31.7517 71.3876C31.7517 70.5986 31.0989 69.959 30.2938 69.959C29.4886 69.959 28.8359 70.5986 28.8359 71.3876C28.8359 72.1765 29.4886 72.8161 30.2938 72.8161Z" fill="#FFC100"/>
<path d="M88.5731 74.9587C89.3621 74.9587 90.0017 74.3191 90.0017 73.5301C90.0017 72.7412 89.3621 72.1016 88.5731 72.1016C87.7841 72.1016 87.1445 72.7412 87.1445 73.5301C87.1445 74.3191 87.7841 74.9587 88.5731 74.9587Z" fill="#FFC100"/>
<path d="M4.28348 8.61189C4.7073 8.61189 5.1216 8.48621 5.47399 8.25075C5.82638 8.01529 6.10104 7.68062 6.26322 7.28907C6.42541 6.89751 6.46785 6.46665 6.38516 6.05098C6.30248 5.63531 6.09839 5.25349 5.79871 4.9538C5.49903 4.65412 5.11721 4.45003 4.70153 4.36735C4.28586 4.28466 3.855 4.3271 3.46345 4.48929C3.07189 4.65148 2.73722 4.92613 2.50176 5.27852C2.2663 5.63091 2.14063 6.04521 2.14062 6.46903C2.14128 7.03715 2.36725 7.58182 2.76897 7.98354C3.17069 8.38526 3.71536 8.61124 4.28348 8.61189ZM4.28348 5.3976C4.49539 5.3976 4.70254 5.46044 4.87874 5.57817C5.05493 5.6959 5.19226 5.86323 5.27335 6.05901C5.35445 6.25479 5.37566 6.47022 5.33432 6.67806C5.29298 6.88589 5.19094 7.0768 5.0411 7.22664C4.89125 7.37649 4.70034 7.47853 4.49251 7.51987C4.28467 7.56121 4.06924 7.53999 3.87346 7.4589C3.67769 7.37781 3.51035 7.24048 3.39262 7.06428C3.27489 6.88809 3.21205 6.68094 3.21205 6.46903C3.21233 6.18496 3.32531 5.9126 3.52618 5.71172C3.72705 5.51085 3.99941 5.39788 4.28348 5.3976ZM42.5192 23.4891C42.2366 23.4891 41.9604 23.5729 41.7255 23.7299C41.4906 23.8869 41.3075 24.11 41.1994 24.371C41.0912 24.632 41.063 24.9193 41.1181 25.1964C41.1732 25.4735 41.3093 25.7281 41.509 25.9278C41.7088 26.1276 41.9634 26.2637 42.2405 26.3188C42.5176 26.3739 42.8048 26.3456 43.0659 26.2375C43.3269 26.1294 43.55 25.9463 43.707 25.7114C43.864 25.4764 43.9478 25.2002 43.9478 24.9177C43.9473 24.5389 43.7967 24.1758 43.5289 23.908C43.2611 23.6402 42.8979 23.4896 42.5192 23.4891ZM42.5192 25.632C42.3779 25.632 42.2398 25.5901 42.1224 25.5116C42.0049 25.4331 41.9133 25.3216 41.8593 25.191C41.8052 25.0605 41.7911 24.9169 41.8186 24.7783C41.8462 24.6398 41.9142 24.5125 42.0141 24.4126C42.114 24.3127 42.2413 24.2447 42.3798 24.2171C42.5184 24.1896 42.662 24.2037 42.7925 24.2578C42.9231 24.3118 43.0346 24.4034 43.1131 24.5209C43.1916 24.6383 43.2335 24.7764 43.2335 24.9177C43.2333 25.1071 43.158 25.2887 43.0241 25.4226C42.8901 25.5565 42.7086 25.6318 42.5192 25.632ZM115.93 14.0445C115.647 14.0445 115.371 14.1283 115.136 14.2853C114.901 14.4423 114.718 14.6654 114.61 14.9264C114.502 15.1874 114.473 15.4747 114.529 15.7518C114.584 16.0289 114.72 16.2835 114.92 16.4833C115.119 16.683 115.374 16.8191 115.651 16.8742C115.928 16.9293 116.215 16.9011 116.476 16.7929C116.737 16.6848 116.961 16.5017 117.118 16.2668C117.274 16.0318 117.358 15.7556 117.358 15.4731C117.358 15.0944 117.207 14.7312 116.939 14.4634C116.672 14.1956 116.308 14.045 115.93 14.0445ZM115.93 16.1874C115.788 16.1874 115.65 16.1455 115.533 16.067C115.415 15.9885 115.324 15.877 115.27 15.7464C115.216 15.6159 115.202 15.4723 115.229 15.3338C115.257 15.1952 115.325 15.0679 115.425 14.968C115.525 14.8681 115.652 14.8001 115.79 14.7725C115.929 14.745 116.073 14.7591 116.203 14.8132C116.334 14.8673 116.445 14.9588 116.524 15.0763C116.602 15.1937 116.644 15.3318 116.644 15.4731C116.644 15.6625 116.568 15.8441 116.435 15.978C116.301 16.1119 116.119 16.1872 115.93 16.1874ZM93.8153 35.6724C93.5328 35.6724 93.2566 35.7562 93.0217 35.9131C92.7867 36.0701 92.6036 36.2932 92.4955 36.5542C92.3874 36.8153 92.3591 37.1025 92.4142 37.3796C92.4693 37.6568 92.6054 37.9113 92.8052 38.1111C93.005 38.3109 93.2595 38.4469 93.5366 38.5021C93.8138 38.5572 94.101 38.5289 94.362 38.4208C94.6231 38.3126 94.8462 38.1295 95.0031 37.8946C95.1601 37.6597 95.2439 37.3835 95.2439 37.1009C95.2435 36.7222 95.0928 36.3591 94.825 36.0913C94.5572 35.8234 94.1941 35.6728 93.8153 35.6724ZM93.8153 37.8152C93.6741 37.8152 93.536 37.7733 93.4185 37.6948C93.301 37.6164 93.2095 37.5048 93.1554 37.3743C93.1014 37.2438 93.0872 37.1001 93.1148 36.9616C93.1423 36.823 93.2104 36.6958 93.3103 36.5959C93.4102 36.496 93.5374 36.4279 93.676 36.4004C93.8145 36.3728 93.9582 36.387 94.0887 36.441C94.2192 36.4951 94.3308 36.5866 94.4092 36.7041C94.4877 36.8216 94.5296 36.9597 94.5296 37.1009C94.5294 37.2903 94.4541 37.4719 94.3202 37.6058C94.1863 37.7397 94.0047 37.815 93.8153 37.8152ZM58.078 7.18332C58.078 6.90077 57.9942 6.62457 57.8372 6.38964C57.6802 6.15472 57.4571 5.97161 57.1961 5.86349C56.935 5.75536 56.6478 5.72707 56.3707 5.78219C56.0936 5.83732 55.839 5.97337 55.6392 6.17316C55.4394 6.37295 55.3034 6.6275 55.2483 6.90462C55.1931 7.18173 55.2214 7.46897 55.3296 7.73001C55.4377 7.99104 55.6208 8.21416 55.8557 8.37113C56.0906 8.5281 56.3668 8.61189 56.6494 8.61189C57.0281 8.61145 57.3913 8.46081 57.6591 8.19299C57.9269 7.92517 58.0775 7.56206 58.078 7.18332ZM55.9351 7.18332C55.9351 7.04204 55.977 6.90394 56.0555 6.78648C56.134 6.66902 56.2455 6.57746 56.376 6.5234C56.5066 6.46934 56.6502 6.45519 56.7887 6.48276C56.9273 6.51032 57.0546 6.57834 57.1545 6.67824C57.2544 6.77813 57.3224 6.90541 57.35 7.04397C57.3775 7.18252 57.3634 7.32614 57.3093 7.45666C57.2552 7.58718 57.1637 7.69874 57.0462 7.77722C56.9288 7.85571 56.7907 7.8976 56.6494 7.8976C56.46 7.89741 56.2784 7.8221 56.1445 7.68818C56.0106 7.55427 55.9353 7.3727 55.9351 7.18332Z" fill="#FBFBFF"/>
<path d="M50.405 46.0096L51.4671 44.6124L50.7964 44.2324L50.115 45.7967H50.0921L49.4 44.2439L48.7171 44.6346L49.7686 45.9981V46.021L48.125 45.8081V46.5681L49.7793 46.356V46.3781L48.7171 47.7417L49.3543 48.1438L50.0814 46.5681H50.1029L50.7736 48.1324L51.4779 47.7303L50.405 46.3896V46.3667L52.0921 46.5681V45.8081L50.405 46.0317V46.0096Z" fill="#FFC100"/>
<path d="M22.0036 29.8568L21.3922 30.6418L21.7586 30.8732L22.1772 29.9661H22.1901L22.5765 30.8668L22.9815 30.6354L22.3636 29.8632V29.8504L23.3358 29.9661V29.5282L22.3636 29.6568V29.6439L22.9758 28.8397L22.5894 28.6211L22.1965 29.5218H22.1836L21.7851 28.6275L21.3922 28.8525L21.9972 29.6375V29.6504L21.0508 29.5282V29.9661L22.0036 29.8439V29.8568Z" fill="#FFC100"/>
<path d="M91.9461 8.18915V7.44344L90.2911 7.66272V7.64129L91.3333 6.27058L90.6754 5.89844L90.0068 7.43272H89.984L89.3047 5.90915L88.6354 6.29272L89.6661 7.63058V7.65201L88.0547 7.44344V8.18915L89.6768 7.98129V8.00272L88.6354 9.33987L89.2604 9.73487L89.9733 8.18915H89.9947L90.6525 9.72344L91.3433 9.32915L90.2911 8.01344V7.99201L91.9461 8.18915Z" fill="#FFC100"/>
<path d="M73.3987 29.8212L74.2973 28.6398L73.7295 28.3184L73.153 29.6419H73.1337L72.5473 28.3276L71.9702 28.6584L72.8595 29.8119V29.8312L71.4688 29.6512V30.2941L72.8687 30.1148V30.1334L71.9702 31.2869L72.5095 31.6276L73.1245 30.2941H73.143L73.7102 31.6176L74.3059 31.2776L73.3987 30.1426V30.1241L74.8259 30.2941V29.6512L73.3987 29.8405V29.8212Z" fill="#FFC100"/>
<path d="M1.42857 105.674C2.21755 105.674 2.85714 105.034 2.85714 104.245C2.85714 103.456 2.21755 102.816 1.42857 102.816C0.639593 102.816 0 103.456 0 104.245C0 105.034 0.639593 105.674 1.42857 105.674Z" fill="#FBFBFF"/>
<path d="M7.85659 102.816H5.71373C5.33485 102.816 4.97148 102.967 4.70358 103.235C4.43567 103.503 4.28516 103.866 4.28516 104.245C4.28516 104.624 4.43567 104.987 4.70358 105.255C4.97148 105.523 5.33485 105.674 5.71373 105.674H7.85659C8.23547 105.674 8.59883 105.523 8.86674 105.255C9.13465 104.987 9.28516 104.624 9.28516 104.245C9.28516 103.866 9.13465 103.503 8.86674 103.235C8.59883 102.967 8.23547 102.816 7.85659 102.816ZM114.285 102.816H112.142C111.763 102.816 111.4 102.967 111.132 103.235C110.864 103.503 110.714 103.866 110.714 104.245C110.714 104.624 110.864 104.987 111.132 105.255C111.4 105.523 111.763 105.674 112.142 105.674H114.285C114.664 105.674 115.027 105.523 115.295 105.255C115.563 104.987 115.714 104.624 115.714 104.245C115.714 103.866 115.563 103.503 115.295 103.235C115.027 102.967 114.664 102.816 114.285 102.816Z" fill="#FBFBFF"/>
<path d="M118.573 105.674C119.362 105.674 120.002 105.034 120.002 104.245C120.002 103.456 119.362 102.816 118.573 102.816C117.784 102.816 117.145 103.456 117.145 104.245C117.145 105.034 117.784 105.674 118.573 105.674Z" fill="#FBFBFF"/>
<path d="M84.3951 108.531H78.461C78.1019 108.56 77.7667 108.723 77.5224 108.988C77.278 109.252 77.1423 109.6 77.1423 109.96C77.1423 110.32 77.278 110.667 77.5224 110.932C77.7667 111.197 78.1019 111.36 78.461 111.388H84.3951C84.7542 111.36 85.0893 111.197 85.3337 110.932C85.5781 110.667 85.7138 110.32 85.7138 109.96C85.7138 109.6 85.5781 109.252 85.3337 108.988C85.0893 108.723 84.7542 108.56 84.3951 108.531ZM41.5379 108.531H35.6038C35.2447 108.56 34.9096 108.723 34.6652 108.988C34.4209 109.252 34.2852 109.6 34.2852 109.96C34.2852 110.32 34.4209 110.667 34.6652 110.932C34.9096 111.197 35.2447 111.36 35.6038 111.388H41.5379C41.8971 111.36 42.2322 111.197 42.4766 110.932C42.7209 110.667 42.8566 110.32 42.8566 109.96C42.8566 109.6 42.7209 109.252 42.4766 108.988C42.2322 108.723 41.8971 108.56 41.5379 108.531ZM74.2852 108.531H45.7137C45.3349 108.531 44.9715 108.682 44.7036 108.95C44.4357 109.218 44.2852 109.581 44.2852 109.96C44.2852 110.339 44.4357 110.702 44.7036 110.97C44.9715 111.238 45.3349 111.388 45.7137 111.388H57.0995V112.817H51.428C51.0492 112.817 50.6858 112.967 50.4179 113.235C50.15 113.503 49.9995 113.867 49.9995 114.246C49.9995 114.624 50.15 114.988 50.4179 115.256C50.6858 115.524 51.0492 115.674 51.428 115.674H69.2852C69.6641 115.674 70.0274 115.524 70.2953 115.256C70.5632 114.988 70.7137 114.624 70.7137 114.246C70.7137 113.867 70.5632 113.503 70.2953 113.235C70.0274 112.967 69.6641 112.817 69.2852 112.817H62.8995V111.388H74.2852C74.6641 111.388 75.0274 111.238 75.2953 110.97C75.5632 110.702 75.7137 110.339 75.7137 109.96C75.7137 109.581 75.5632 109.218 75.2953 108.95C75.0274 108.682 74.6641 108.531 74.2852 108.531Z" fill="#FFC100"/>
<path d="M107.658 102.816H68.9701C69.7043 102.813 70.4257 102.624 71.0664 102.265C71.7072 101.907 72.246 101.391 72.6322 100.767C72.9649 100.234 73.1829 99.6374 73.2724 99.0157L74.8856 100.092C75.3668 100.427 75.9111 100.66 76.4854 100.778C77.0597 100.895 77.6519 100.894 78.2258 100.775C78.7998 100.656 79.3435 100.421 79.8237 100.085C80.3038 99.7488 80.7105 99.3183 81.0187 98.8197C81.352 98.285 81.5778 97.6905 81.6834 97.0694L81.7358 97.1055C82.2169 97.4404 82.7613 97.6737 83.3357 97.7912C83.91 97.9086 84.5023 97.9078 85.0763 97.7887C85.6503 97.6696 86.194 97.4347 86.6742 97.0984C87.1544 96.7621 87.5611 96.3315 87.8693 95.8328C88.4741 94.8549 88.6945 93.6873 88.4877 92.5561C88.2809 91.425 87.6617 90.4108 86.75 89.7101C87.1953 89.3822 87.575 88.9735 87.8693 88.5052C88.4671 87.5373 88.689 86.3836 88.4928 85.2629C88.2966 84.1422 87.696 83.1325 86.8049 82.4252L88.0224 80.8122L105.099 68.9902C105.254 68.8837 105.386 68.7477 105.489 68.59C105.591 68.4322 105.661 68.2558 105.695 68.0708C105.729 67.8859 105.726 67.696 105.687 67.5122C105.647 67.3283 105.572 67.1541 105.465 66.9995C105.358 66.8448 105.221 66.7129 105.063 66.6111C104.905 66.5093 104.728 66.4398 104.543 66.4065C104.358 66.3732 104.168 66.3767 103.985 66.4169C103.801 66.4571 103.627 66.5332 103.473 66.6408L94.7364 72.6891L84.0908 54.0591L105.034 41.1754C105.357 40.9769 105.588 40.6583 105.676 40.2898C105.763 39.9212 105.701 39.5328 105.503 39.2101C105.304 38.8873 104.986 38.6567 104.617 38.5688C104.248 38.481 103.86 38.5432 103.537 38.7417L81.7094 52.1698C81.6138 52.2 81.5217 52.2402 81.4344 52.2897C81.3271 52.3529 81.2287 52.4301 81.1416 52.5191L74.2222 56.7757L60.7845 54.5079C57.8996 53.9086 54.8981 54.2645 52.2334 55.5218C52.1301 55.4448 52.0165 55.3826 51.8961 55.3369L45.9063 53.2647C45.7828 53.1326 45.6351 53.0253 45.4714 52.9485C41.2007 50.9647 36.245 48.1153 31.4525 45.36C26.2925 42.3937 20.9567 39.3259 16.302 37.2277C15.9566 37.0721 15.5635 37.06 15.2092 37.1941C14.8549 37.3283 14.5684 37.5977 14.4127 37.943C14.257 38.2884 14.2449 38.6815 14.3791 39.0358C14.5132 39.3901 14.7826 39.6766 15.128 39.8323C19.6543 41.873 24.9281 44.9048 30.0285 47.837C31.5532 48.7135 33.0933 49.5972 34.626 50.4633L23.4429 72.3825C21.0952 71.5725 18.6928 70.7195 16.2629 69.7104C16.0896 69.6384 15.9039 69.6013 15.7163 69.6011C15.5287 69.6009 15.3429 69.6377 15.1695 69.7094C14.9961 69.781 14.8385 69.8861 14.7057 70.0186C14.5729 70.1512 14.4675 70.3086 14.3956 70.4818C14.2503 70.8318 14.2499 71.2251 14.3946 71.5753C14.5393 71.9255 14.8171 72.2039 15.1671 72.3492C18.193 73.6062 21.1443 74.6172 23.9983 75.5955C26.5401 76.4667 29.1621 77.3738 31.8159 78.4411L39.0058 83.4492L37.337 85.8113C36.6079 86.8555 36.3022 88.1375 36.4816 89.3983C36.6611 90.6592 37.3123 91.805 38.3038 92.6043L38.9507 93.1097C39.7561 93.7452 40.7519 94.0913 41.7779 94.0922C42.0051 94.0922 42.2321 94.0755 42.4569 94.0423C42.5361 94.0306 42.6127 94.0112 42.6907 93.9956C42.9093 95.1516 43.5376 96.1899 44.4602 96.92L45.3315 97.6004C46.1369 98.236 47.1327 98.5821 48.1586 98.5829C48.3719 98.5819 48.5849 98.5663 48.7961 98.5361C48.9669 99.7959 49.6195 100.94 50.6167 101.729C51.422 102.365 52.4179 102.711 53.4439 102.711C54.1974 102.712 54.9395 102.527 55.6051 102.174C55.6978 102.396 55.8061 102.61 55.9294 102.816H12.3422C12.139 102.789 11.9324 102.806 11.7363 102.866C11.5402 102.926 11.3591 103.026 11.2051 103.162C11.0511 103.297 10.9277 103.463 10.8431 103.65C10.7586 103.837 10.7148 104.039 10.7148 104.244C10.7148 104.449 10.7586 104.652 10.8431 104.839C10.9277 105.025 11.0511 105.192 11.2051 105.327C11.3591 105.462 11.5402 105.563 11.7363 105.623C11.9324 105.682 12.139 105.7 12.3422 105.673H107.658C107.862 105.7 108.068 105.682 108.264 105.623C108.46 105.563 108.641 105.462 108.796 105.327C108.95 105.192 109.073 105.025 109.158 104.839C109.242 104.652 109.286 104.449 109.286 104.244C109.286 104.039 109.242 103.837 109.158 103.65C109.073 103.463 108.95 103.297 108.796 103.162C108.641 103.026 108.46 102.926 108.264 102.866C108.068 102.806 107.862 102.789 107.658 102.816V102.816ZM70.2127 99.2466C70.1071 99.4199 69.9673 99.5697 69.8018 99.687C69.6363 99.8043 69.4485 99.8866 69.2501 99.9288C69.0553 99.968 68.8546 99.967 68.6602 99.9259C68.4658 99.8847 68.2819 99.8043 68.1197 99.6895L67.5322 99.2836L68.3782 98.0862C68.7235 97.5947 68.9756 97.0439 69.1221 96.4614L69.7418 96.8829C70.1017 97.1467 70.3497 97.5357 70.4369 97.9732C70.524 98.4108 70.4441 98.8651 70.2127 99.2466H70.2127ZM81.6561 55.5568L92.3313 74.2384C92.3476 74.2668 92.3715 74.2872 92.3893 74.314L87.6349 77.6056L76.643 58.6408L81.6561 55.5568ZM60.1839 57.3015C60.2118 57.3078 60.24 57.3134 60.2683 57.3182L73.9083 59.6204L85.4317 79.5021L84.3861 80.887L63.6332 67.2644C61.602 65.7323 59.736 65.1059 58.0951 65.3999C57.1145 65.5648 56.2335 66.0968 55.631 66.8878L51.8298 71.6527C50.2568 73.3003 48.8359 74.1276 47.707 74.0393C47.2957 73.9752 46.9041 73.8197 46.5609 73.5842C46.2177 73.3488 45.9317 73.0394 45.7238 72.6788C46.4037 71.5023 46.9517 70.2544 47.3578 68.9577L49.562 62.2199C52.5573 55.6672 59.8762 57.2321 60.1839 57.3015ZM31.804 75.3601C29.8911 74.6182 28.0133 73.9562 26.1713 73.3219L37.1217 51.8586C38.969 52.8768 40.7839 53.8421 42.5218 54.701L31.804 75.3601ZM34.4734 76.8102C34.4419 76.7468 34.4057 76.6859 34.365 76.6279L45.0678 55.9978L49.4247 57.5052C48.37 58.5395 47.5218 59.7652 46.9254 61.1167C46.9048 61.1625 46.8867 61.2095 46.871 61.2572L44.6319 68.1022C44.293 69.1802 43.8394 70.2187 43.279 71.2C42.9916 71.6697 42.8459 72.2126 42.8595 72.7631C42.8731 73.3137 43.0454 73.8487 43.3558 74.3037C43.8054 75.0181 44.4106 75.6216 45.1263 76.0691C45.842 76.5166 46.6496 76.7966 47.4887 76.888C49.5384 77.0474 51.7113 75.931 53.9448 73.5751C53.9727 73.5454 53.9992 73.5148 54.0247 73.483L57.8883 68.6397C57.9201 68.5999 57.9496 68.5585 57.9769 68.5155C58.1498 68.3552 58.3663 68.2497 58.5991 68.2124C59.0692 68.1273 60.1305 68.1925 61.9452 69.5701C61.971 69.59 61.9978 69.6088 62.0251 69.6266L83.9365 84.0096C84.0616 84.0906 84.1987 84.1514 84.3427 84.1898L84.9808 84.6213C85.341 84.8844 85.5892 85.2732 85.6764 85.7107C85.7635 86.1482 85.6832 86.6025 85.4513 86.9835C85.3454 87.1567 85.2054 87.3064 85.0397 87.4236C84.874 87.5408 84.6861 87.6229 84.4876 87.665C84.2312 87.716 83.9656 87.6954 83.7201 87.6054L69.7639 77.9626L69.7443 77.949L69.7438 77.9488L69.7401 77.9462C69.694 77.9172 69.6463 77.8908 69.5971 77.8672C69.5611 77.848 69.5267 77.8238 69.4897 77.8079C69.4111 77.7749 69.3298 77.7492 69.2465 77.7309C69.2386 77.729 69.231 77.7252 69.223 77.7235C69.0473 77.6869 68.8663 77.6837 68.6895 77.7143L68.6754 77.7155C68.6046 77.7296 68.535 77.7491 68.4671 77.7738C68.4486 77.78 68.4291 77.7827 68.4108 77.7898C68.3579 77.8125 68.3065 77.8383 68.2567 77.8672C68.2259 77.8836 68.1932 77.8956 68.1636 77.9144C68.127 77.9376 68.0949 77.9683 68.0602 77.995C68.0191 78.0238 67.9796 78.0548 67.9419 78.0879C67.9155 78.1132 67.8941 78.145 67.8694 78.1726C67.8287 78.2145 67.7908 78.2589 67.7557 78.3055L67.7542 78.3081L67.7533 78.3091C67.7306 78.3419 67.7167 78.377 67.6974 78.4103C67.6667 78.4589 67.6389 78.5093 67.6141 78.5612C67.5984 78.598 67.5908 78.6365 67.5783 78.6741C67.5593 78.7247 67.5431 78.7763 67.5299 78.8288C67.5211 78.8708 67.5207 78.9133 67.5158 78.9557C67.5079 79.0045 67.5027 79.0536 67.4999 79.103C67.4994 79.146 67.507 79.1883 67.5104 79.2311C67.5121 79.2796 67.5162 79.328 67.5228 79.3762C67.5301 79.4161 67.545 79.4543 67.5556 79.4936C67.5669 79.5431 67.5808 79.592 67.5972 79.64C67.6115 79.6768 67.633 79.7104 67.6503 79.7458C67.6714 79.794 67.6952 79.841 67.7216 79.8865C67.7426 79.9197 67.7706 79.9486 67.7945 79.9801C67.8253 80.0245 67.8588 80.0671 67.8946 80.1077C67.922 80.1364 67.9562 80.1597 67.9863 80.1863C68.0261 80.2247 68.0681 80.2607 68.1121 80.2941L81.7357 89.7779C81.9296 89.9108 82.1337 90.0281 82.3461 90.1288L84.9804 91.949C85.3449 92.2087 85.5966 92.5978 85.6841 93.0367C85.7716 93.4757 85.6883 93.9315 85.4512 94.3112C85.3454 94.4844 85.2054 94.6342 85.0397 94.7513C84.874 94.8685 84.6861 94.9506 84.4875 94.9927C84.2932 95.0323 84.0928 95.0315 83.8987 94.9906C83.7046 94.9496 83.521 94.8692 83.3593 94.7545L80.2669 92.6182C80.1504 92.5138 80.0276 92.4167 79.8991 92.3274C79.8185 92.2718 79.7324 92.2246 79.6421 92.1866L65.5891 82.4785C65.2773 82.2663 64.8942 82.186 64.5235 82.2552C64.1527 82.3243 63.8244 82.5373 63.61 82.8476C63.3957 83.1579 63.3127 83.5403 63.3792 83.9116C63.4458 84.2828 63.6564 84.6126 63.9652 84.8292L78.435 94.8252C78.7101 95.1719 78.8732 95.594 78.9028 96.0356C78.9324 96.4772 78.827 96.9174 78.6007 97.2977C78.4967 97.4718 78.3575 97.6223 78.1921 97.7396C78.0267 97.8568 77.8386 97.9383 77.6399 97.9788C77.4411 98.0193 77.2362 98.0178 77.038 97.9746C76.8399 97.9314 76.653 97.8473 76.4892 97.7277L68.3826 92.3189C68.1118 91.9306 67.7846 91.5849 67.4118 91.2932L66.7244 90.7565C66.2344 90.37 65.6705 90.0878 65.0674 89.9275C64.4642 89.7671 63.8347 89.7318 63.2175 89.8239C63.0653 89.8463 62.9158 89.8769 62.7685 89.9136C62.5152 88.8425 61.907 87.8886 61.0429 87.2071C60.5585 86.825 60.0018 86.5451 59.4063 86.3841C58.8107 86.2232 58.1888 86.1845 57.5779 86.2704C57.407 85.0112 56.7546 83.8673 55.758 83.079L54.8868 82.3985C54.3971 82.0114 53.8333 81.7289 53.23 81.5685C52.6268 81.4081 51.9971 81.3732 51.3799 81.4659C51.3008 81.4776 51.2243 81.497 51.1465 81.5125C50.9278 80.3564 50.2995 79.318 49.3769 78.5879L48.7303 78.0829C48.2403 77.6963 47.6764 77.4142 47.0733 77.2538C46.4702 77.0934 45.8406 77.0582 45.2234 77.1503C44.5939 77.243 43.9901 77.4638 43.4492 77.799C42.9084 78.1342 42.442 78.5767 42.0789 79.0992L40.6544 81.1156L34.4734 76.8102ZM66.045 96.4376L62.0969 102.026C61.9558 102.231 61.7741 102.406 61.5629 102.539C61.3518 102.671 61.1157 102.759 60.8692 102.797C60.6346 102.831 60.3954 102.817 60.1664 102.755C59.9374 102.694 59.7234 102.586 59.5376 102.439L58.8509 101.902C58.4514 101.567 58.1866 101.099 58.1051 100.584C58.0236 100.069 58.131 99.5419 58.4075 99.0998L62.0104 94.0001C62.051 93.9426 62.0845 93.8821 62.1223 93.8235L62.4066 93.4211C62.5477 93.2155 62.7294 93.0411 62.9406 92.9085C63.1517 92.776 63.3878 92.6881 63.6343 92.6503C63.7185 92.6381 63.8035 92.6319 63.8885 92.6318C64.2796 92.6328 64.659 92.7654 64.9655 93.0082L65.653 93.5449C66.067 93.8915 66.3367 94.3803 66.4092 94.9153C66.4817 95.4504 66.3518 95.9933 66.0449 96.4376H66.045ZM43.4927 90.1273L43.49 90.1316L43.2688 90.4447C43.1276 90.6503 42.9458 90.8248 42.7345 90.9575C42.5233 91.0901 42.2871 91.178 42.0405 91.2158C41.8059 91.2498 41.5669 91.2355 41.338 91.174C41.1091 91.1125 40.8952 91.005 40.7092 90.858L40.0623 90.3526C39.6482 90.006 39.3785 89.5173 39.306 88.9822C39.2335 88.4471 39.3634 87.9042 39.6702 87.4599L44.4125 80.7475C44.5535 80.5419 44.7352 80.3675 44.9464 80.235C45.1576 80.1025 45.3937 80.0147 45.6401 79.9771C45.8747 79.9427 46.1139 79.9567 46.3429 80.0182C46.5719 80.0797 46.7859 80.1873 46.9718 80.3345L47.6184 80.8396C48.0321 81.1861 48.3017 81.6745 48.3745 82.2093C48.4472 82.744 48.3178 83.2867 48.0116 83.7311L43.4927 90.1273ZM49.6496 94.9355C49.5084 95.1411 49.3265 95.3156 49.1153 95.4482C48.904 95.5809 48.6678 95.6688 48.4212 95.7066C48.1867 95.7407 47.9476 95.7266 47.7187 95.6651C47.4898 95.6035 47.2758 95.4959 47.09 95.3487L46.2188 94.6683C45.805 94.3218 45.5354 93.8335 45.4627 93.2988C45.39 92.764 45.5194 92.2214 45.8255 91.7771L50.3443 85.3809L50.347 85.3766L50.5682 85.0635C50.7094 84.8579 50.8913 84.6833 51.1026 84.5507C51.3138 84.4181 51.55 84.3302 51.7966 84.2924C52.0312 84.2586 52.2702 84.273 52.499 84.3345C52.7279 84.396 52.9418 84.5034 53.1279 84.6502L53.9991 85.3307C54.4131 85.6773 54.6828 86.166 54.7554 86.701C54.828 87.2361 54.6982 87.779 54.3915 88.2234L49.6496 94.9355ZM54.9349 99.0638C54.7937 99.2695 54.6118 99.444 54.4006 99.5766C54.1893 99.7093 53.9531 99.7972 53.7065 99.835C53.4719 99.8693 53.2328 99.8552 53.0039 99.7937C52.7749 99.7322 52.561 99.6244 52.3752 99.4771C51.9611 99.1305 51.6913 98.6418 51.6187 98.1066C51.5461 97.5714 51.676 97.0285 51.9829 96.5841L56.7251 89.8717C56.8662 89.6661 57.0479 89.4917 57.2591 89.3591C57.4702 89.2265 57.7063 89.1386 57.9528 89.1009C58.037 89.0887 58.122 89.0825 58.207 89.0824C58.5981 89.0834 58.9775 89.2159 59.2841 89.4587C59.6835 89.7939 59.9484 90.2622 60.0299 90.7772C60.1114 91.2923 60.0041 91.8194 59.7276 92.2616L56.1252 97.3608C56.0845 97.4184 56.0508 97.4791 56.0128 97.5379L54.9349 99.0638ZM65.8821 101.619L66.4962 102.041C67.2147 102.542 68.0686 102.812 68.9445 102.816H65.0369L65.8821 101.619Z" fill="#FBFBFF"/>
</g>
<defs>
<clipPath id="clip0_199_3570">
<rect width="120" height="120" fill="white"/>
</clipPath>
</defs>
</svg>
