<svg width="120" height="120" viewBox="0 0 120 120" fill="none" xmlns="http://www.w3.org/2000/svg">
<g clip-path="url(#clip0_199_3542)">
<path d="M31.4297 80H24.2868C23.5291 80 22.8023 80.301 22.2665 80.8368C21.7307 81.3727 21.4297 82.0994 21.4297 82.8571V90C21.4297 90.7578 21.7307 91.4845 22.2665 92.0203C22.8023 92.5561 23.5291 92.8571 24.2868 92.8571H31.4297C32.1874 92.8571 32.9142 92.5561 33.45 92.0203C33.9858 91.4845 34.2868 90.7578 34.2868 90V82.8571C34.2868 82.0994 33.9858 81.3727 33.45 80.8368C32.9142 80.301 32.1874 80 31.4297 80ZM31.4297 90H24.2868V82.8571H31.4297V90Z" fill="#FBFBFF"/>
<path d="M47.1406 80H39.9978C39.24 80 38.5133 80.301 37.9775 80.8368C37.4416 81.3727 37.1406 82.0994 37.1406 82.8571V90C37.1406 90.7578 37.4416 91.4845 37.9775 92.0203C38.5133 92.5561 39.24 92.8571 39.9978 92.8571H47.1406C47.8984 92.8571 48.6251 92.5561 49.1609 92.0203C49.6967 91.4845 49.9978 90.7578 49.9978 90V82.8571C49.9978 82.0994 49.6967 81.3727 49.1609 80.8368C48.6251 80.301 47.8984 80 47.1406 80ZM47.1406 90H39.9978V82.8571H47.1406V90Z" fill="#FFC100"/>
<path d="M52.8594 90C52.8594 90.7578 53.1604 91.4845 53.6962 92.0203C54.232 92.5561 54.9588 92.8571 55.7165 92.8571H62.8594C63.6171 92.8571 64.3439 92.5561 64.8797 92.0203C65.4155 91.4845 65.7165 90.7578 65.7165 90V82.8571C65.7165 82.0994 65.4155 81.3727 64.8797 80.8368C64.3439 80.301 63.6171 80 62.8594 80H55.7165C54.9588 80 54.232 80.301 53.6962 80.8368C53.1604 81.3727 52.8594 82.0994 52.8594 82.8571V90ZM55.7165 82.8571H62.8594V90H55.7165V82.8571Z" fill="#FBFBFF"/>
<path d="M34.2868 67.1423C34.2868 66.3845 33.9858 65.6578 33.45 65.122C32.9142 64.5862 32.1874 64.2852 31.4297 64.2852H24.2868C23.5291 64.2852 22.8023 64.5862 22.2665 65.122C21.7307 65.6578 21.4297 66.3845 21.4297 67.1423V74.2852C21.4297 75.0429 21.7307 75.7696 22.2665 76.3055C22.8023 76.8413 23.5291 77.1423 24.2868 77.1423H31.4297C32.1874 77.1423 32.9142 76.8413 33.45 76.3055C33.9858 75.7696 34.2868 75.0429 34.2868 74.2852V67.1423ZM31.4297 74.2852H24.2868V67.1423H31.4297V74.2852Z" fill="#FFC100"/>
<path d="M50.0011 67.1417C50.0011 66.384 49.7001 65.6572 49.1643 65.1214C48.6285 64.5856 47.9017 64.2846 47.144 64.2846H40.0011C39.2434 64.2846 38.5166 64.5856 37.9808 65.1214C37.445 65.6572 37.144 66.384 37.144 67.1417V74.2846C37.144 75.0424 37.445 75.7691 37.9808 76.3049C38.5166 76.8407 39.2434 77.1417 40.0011 77.1417H47.144C47.9017 77.1417 48.6285 76.8407 49.1643 76.3049C49.7001 75.7691 50.0011 75.0424 50.0011 74.2846V67.1417ZM47.144 74.2846H40.0011V67.1417H47.144V74.2846ZM34.2868 51.4275C34.2868 50.6697 33.9858 49.943 33.45 49.4071C32.9142 48.8713 32.1874 48.5703 31.4297 48.5703H24.2868C23.5291 48.5703 22.8023 48.8713 22.2665 49.4071C21.7307 49.943 21.4297 50.6697 21.4297 51.4275V58.5703C21.4297 59.3281 21.7307 60.0548 22.2665 60.5906C22.8023 61.1264 23.5291 61.4275 24.2868 61.4275H31.4297C32.1874 61.4275 32.9142 61.1264 33.45 60.5906C33.9858 60.0548 34.2868 59.3281 34.2868 58.5703V51.4275ZM31.4297 58.5703H24.2868V51.4275H31.4297V58.5703Z" fill="#FBFBFF"/>
<path d="M34.2868 35.7146C34.2868 34.9568 33.9858 34.2301 33.45 33.6943C32.9142 33.1584 32.1874 32.8574 31.4297 32.8574H24.2868C23.5291 32.8574 22.8023 33.1584 22.2665 33.6943C21.7307 34.2301 21.4297 34.9568 21.4297 35.7146V42.8574C21.4297 43.6152 21.7307 44.3419 22.2665 44.8777C22.8023 45.4135 23.5291 45.7146 24.2868 45.7146H31.4297C32.1874 45.7146 32.9142 45.4135 33.45 44.8777C33.9858 44.3419 34.2868 43.6152 34.2868 42.8574V35.7146ZM31.4297 42.8574H24.2868V35.7146H31.4297V42.8574Z" fill="#FFC100"/>
<path d="M49.9978 35.7146C49.9978 34.9568 49.6967 34.2301 49.1609 33.6943C48.6251 33.1584 47.8984 32.8574 47.1406 32.8574H39.9978C39.24 32.8574 38.5133 33.1584 37.9775 33.6943C37.4416 34.2301 37.1406 34.9568 37.1406 35.7146V42.8574C37.1406 43.6152 37.4416 44.3419 37.9775 44.8777C38.5133 45.4135 39.24 45.7146 39.9978 45.7146H47.1406C47.5392 45.7138 47.9331 45.6291 48.2967 45.4661C48.6604 45.303 48.9857 45.0652 49.2513 44.7681C48.4733 43.1123 48.3649 41.22 48.949 39.4862L49.8453 36.853C49.8881 36.7275 49.9486 36.6127 49.9977 36.4909L49.9978 35.7146ZM47.1406 42.8574H39.9978V35.7146H47.1406V42.8574Z" fill="#FBFBFF"/>
<path d="M49.9978 51.4275C49.9978 50.6697 49.6967 49.943 49.1609 49.4071C48.6251 48.8713 47.8984 48.5703 47.1406 48.5703H39.9978C39.24 48.5703 38.5133 48.8713 37.9775 49.4071C37.4416 49.943 37.1406 50.6697 37.1406 51.4275V58.5703C37.1406 59.3281 37.4416 60.0548 37.9775 60.5906C38.5133 61.1264 39.24 61.4275 39.9978 61.4275H47.1406C47.8079 61.4269 48.454 61.1926 48.9664 60.7652C49.4789 60.3377 49.8253 59.7443 49.9456 59.0879C49.3975 57.5183 49.4159 55.8064 49.9978 54.249V51.4275ZM47.1406 58.5703H39.9978V51.4275H47.1406V58.5703ZM58.5737 67.1417C58.3136 66.8815 58.0541 66.6207 57.8043 66.3497C56.362 66.333 54.9586 65.8796 53.7792 65.0492C53.4885 65.3149 53.2562 65.6381 53.0971 65.9983C52.938 66.3586 52.8555 66.7479 52.8549 67.1417V74.2846C52.8549 75.0424 53.1559 75.7691 53.6917 76.3049C54.2276 76.8407 54.9543 77.1417 55.7121 77.1417H62.8549C63.4432 77.1406 64.0167 76.9574 64.4966 76.6172C64.9766 76.2771 65.3395 75.7967 65.5355 75.2421C64.3959 74.5672 63.4675 73.5873 62.8549 72.4129V74.2846H55.7121V67.1417H58.5737Z" fill="#FFC100"/>
<path d="M67.0938 22.833L64.5978 24.0611C63.715 24.497 63.0103 25.225 62.6035 26.1215C62.1967 27.0181 62.1127 28.0278 62.366 28.9792C60.3121 30.6636 58.5472 32.6723 57.1411 34.926C56.1651 34.7974 55.1746 35.0107 54.338 35.5296C53.5014 36.0485 52.8703 36.8411 52.5518 37.7726L51.6553 40.406C51.3392 41.3384 51.3557 42.3514 51.7019 43.273C52.0481 44.1946 52.7027 44.9679 53.5545 45.4616C53.2933 48.105 53.466 50.7733 54.0655 53.3611C53.2844 53.9603 52.7348 54.8115 52.5101 55.77C52.2854 56.7285 52.3994 57.7353 52.8329 58.6192L54.0611 61.1153C54.4963 61.9989 55.2243 62.7043 56.1211 63.1114C57.018 63.5185 58.0282 63.602 58.9798 63.3478C60.6641 65.4014 62.6727 67.1661 64.926 68.572C64.7974 69.5481 65.0107 70.5385 65.5296 71.3751C66.0486 72.2117 66.8411 72.8429 67.7726 73.1613L70.406 74.0578C71.3384 74.3739 72.3514 74.3574 73.273 74.0112C74.1946 73.665 74.9679 73.0104 75.4615 72.1587C76.1653 72.2283 76.8711 72.2647 77.577 72.2728L76.4348 69.3663C75.483 69.3029 74.5365 69.1762 73.6016 68.987L73.0938 70.4785C73.035 70.6514 72.9426 70.8111 72.8221 70.9483C72.7015 71.0855 72.5551 71.1977 72.3912 71.2783C72.2273 71.3589 72.0492 71.4065 71.8669 71.4183C71.6846 71.4301 71.5018 71.4058 71.3289 71.347L68.6955 70.4505C68.3463 70.3316 68.0586 70.0788 67.8957 69.7478C67.7329 69.4168 67.7082 69.0347 67.827 68.6855L68.3348 67.194C64.918 65.5175 62.0089 62.9618 59.9062 59.7894L58.4927 60.4849C58.1617 60.6478 57.7795 60.6725 57.4303 60.5536C57.0811 60.4347 56.7935 60.182 56.6306 59.851L55.4024 57.355C55.2396 57.024 55.2149 56.6419 55.3338 56.2927C55.4527 55.9435 55.7054 55.6558 56.0364 55.4929L57.4499 54.7974C56.2194 51.1958 55.9696 47.3316 56.7261 43.6016L55.2346 43.0938C54.8854 42.9749 54.5977 42.7222 54.4348 42.3912C54.272 42.0602 54.2473 41.6781 54.3661 41.3289L55.2626 38.6955C55.3215 38.5225 55.4139 38.3629 55.5344 38.2257C55.655 38.0885 55.8014 37.9763 55.9653 37.8957C56.1291 37.8151 56.3073 37.7675 56.4896 37.7557C56.6718 37.7439 56.8547 37.7681 57.0276 37.827L58.5191 38.3348C60.1956 34.9179 62.7513 32.0088 65.9237 29.9062L65.2282 28.4926C65.0653 28.1616 65.0406 27.7795 65.1595 27.4303C65.2784 27.0811 65.5311 26.7934 65.8621 26.6305L68.3581 25.4024C68.522 25.3217 68.7001 25.2742 68.8824 25.2624C69.0647 25.2506 69.2475 25.2748 69.4204 25.3337C69.5933 25.3925 69.753 25.4849 69.8902 25.6054C70.0274 25.726 70.1395 25.8724 70.2202 26.0363L70.9157 27.4498C74.5173 26.2193 78.3815 25.9695 82.1116 26.7261L82.6193 25.2346C82.6782 25.0617 82.7705 24.902 82.8911 24.7648C83.0116 24.6276 83.158 24.5155 83.3219 24.4348C83.4858 24.3542 83.664 24.3066 83.8462 24.2948C84.0285 24.283 84.2113 24.3073 84.3842 24.3661L87.0177 25.2627C87.1906 25.3215 87.3502 25.4139 87.4874 25.5344C87.6246 25.655 87.7368 25.8014 87.8174 25.9652C87.8981 26.1291 87.9456 26.3073 87.9574 26.4896C87.9692 26.6719 87.945 26.8547 87.8861 27.0276L87.3783 28.5191C90.7952 30.1956 93.7043 32.7512 95.807 35.9237L97.2205 35.2282C97.5515 35.0653 97.9336 35.0406 98.2828 35.1595C98.632 35.2783 98.9197 35.5311 99.0826 35.8621L100.311 38.3581C100.474 38.6891 100.498 39.0712 100.379 39.4204C100.261 39.7696 100.008 40.0573 99.6768 40.2202L98.2633 40.9157C99.4938 44.5173 99.7436 48.3815 98.987 52.1115L100.479 52.6193C100.828 52.7382 101.115 52.9909 101.278 53.3219C101.441 53.6529 101.466 54.035 101.347 54.3842L100.45 57.0176C100.332 57.3668 100.079 57.6545 99.7479 57.8174C99.4169 57.9802 99.0348 58.0049 98.6856 57.8861L97.194 57.3783C96.2644 59.2658 95.0615 61.0059 93.6242 62.5424L94.7723 65.4643C96.2275 64.0684 97.5038 62.4974 98.572 60.7871C99.5481 60.9157 100.539 60.7024 101.375 60.1835C102.212 59.6646 102.843 58.872 103.161 57.9405L104.058 55.3071C104.374 54.3747 104.357 53.3617 104.011 52.4401C103.665 51.5185 103.01 50.7452 102.159 50.2516C102.42 47.6084 102.247 44.9404 101.648 42.3529C102.43 41.7541 102.98 40.9027 103.205 39.9438C103.429 38.9848 103.315 37.9776 102.88 37.0938L101.652 34.5978C101.217 33.7142 100.489 33.0088 99.592 32.6017C98.6952 32.1946 97.6849 32.1111 96.7334 32.3652C95.049 30.3116 93.0405 28.547 90.7871 27.1411C90.9157 26.165 90.7024 25.1746 90.1835 24.338C89.6646 23.5014 88.872 22.8703 87.9405 22.5518L85.3071 21.6553C84.3748 21.3392 83.3617 21.3557 82.4401 21.7019C81.5186 22.0481 80.7452 22.7027 80.2515 23.5544C77.6084 23.2934 74.9404 23.466 72.3529 24.0653C71.7541 23.2833 70.9027 22.7331 69.9438 22.5084C68.9848 22.2837 67.9776 22.3984 67.0938 22.833Z" fill="#FBFBFF"/>
<path d="M98.7931 100.99C99.5744 100.686 100.288 100.232 100.893 99.6525C101.499 99.0729 101.984 98.3796 102.321 97.6123C102.657 96.845 102.84 96.0187 102.857 95.1809C102.874 94.3431 102.725 93.5101 102.42 92.7297L89.1133 58.8676C91.2107 56.8241 92.7131 54.2488 93.4596 51.4173C94.2062 48.5858 94.1689 45.6046 93.3517 42.7927C92.5346 39.9807 90.9683 37.4439 88.8204 35.4535C86.6726 33.4631 84.024 32.0942 81.1581 31.4931C80.653 31.3849 80.1281 31.4156 79.6391 31.582C79.1501 31.7484 78.7154 32.0443 78.3812 32.4381C78.047 32.8319 77.8258 33.309 77.7411 33.8185C77.6564 34.3281 77.7115 34.851 77.9004 35.3318L81.5054 44.5057L78.2177 48.5964L73.0045 47.8174L69.3972 38.6374C69.2086 38.1573 68.8935 37.7373 68.4855 37.4219C68.0774 37.1064 67.5916 36.9073 67.0795 36.8456C66.5674 36.784 66.0482 36.8621 65.577 37.0717C65.1057 37.2813 64.7 37.6146 64.4028 38.0361C62.7113 40.4282 61.702 43.2351 61.4828 46.1565C61.2636 49.078 61.8428 52.0041 63.1584 54.6217C64.474 57.2394 66.4765 59.4501 68.9517 61.0174C71.4269 62.5847 74.2816 63.4495 77.2104 63.5195L90.5196 97.3889C91.1417 98.9617 92.3617 100.224 93.9124 100.899C95.4632 101.574 97.2183 101.606 98.7931 100.99V100.99ZM93.1789 96.344L79.1294 60.591C76.213 60.9066 73.2735 60.2588 70.76 58.7463C68.2465 57.2339 66.2973 54.9401 65.2103 52.2154C64.4045 50.1638 64.1221 47.9437 64.3888 45.7557C64.6556 43.5676 65.4629 41.4804 66.738 39.6823L70.9492 50.399L79.4174 51.6646L84.7708 45.0035L80.5596 34.2868C83.0742 34.8123 85.3827 36.0549 87.2062 37.8643C89.0297 39.6738 90.29 41.9726 90.8349 44.4831C91.3798 46.9935 91.1858 49.608 90.2766 52.0106C89.3673 54.4132 87.7816 56.501 85.7111 58.0216L99.7605 93.7747C100.094 94.646 100.07 95.6141 99.6927 96.4676C99.3154 97.321 98.6157 97.9905 97.7464 98.3298C96.8771 98.6692 95.9089 98.6508 95.0531 98.2787C94.1973 97.9066 93.5235 97.2111 93.1788 96.3439L93.1789 96.344Z" fill="#FFC100"/>
<path d="M1.42857 108.572C2.21755 108.572 2.85714 107.932 2.85714 107.143C2.85714 106.354 2.21755 105.715 1.42857 105.715C0.639593 105.715 0 106.354 0 107.143C0 107.932 0.639593 108.572 1.42857 108.572Z" fill="#FBFBFF"/>
<path d="M7.85659 105.715H5.71373C5.33485 105.715 4.97148 105.865 4.70358 106.133C4.43567 106.401 4.28516 106.765 4.28516 107.143C4.28516 107.522 4.43567 107.886 4.70358 108.154C4.97148 108.421 5.33485 108.572 5.71373 108.572H7.85659C8.23547 108.572 8.59883 108.421 8.86674 108.154C9.13465 107.886 9.28516 107.522 9.28516 107.143C9.28516 106.765 9.13465 106.401 8.86674 106.133C8.59883 105.865 8.23547 105.715 7.85659 105.715ZM114.285 105.715H112.142C111.763 105.715 111.4 105.865 111.132 106.133C110.864 106.401 110.714 106.765 110.714 107.143C110.714 107.522 110.864 107.886 111.132 108.154C111.4 108.421 111.763 108.572 112.142 108.572H114.285C114.664 108.572 115.027 108.421 115.295 108.154C115.563 107.886 115.714 107.522 115.714 107.143C115.714 106.765 115.563 106.401 115.295 106.133C115.027 105.865 114.664 105.715 114.285 105.715Z" fill="#FBFBFF"/>
<path d="M118.573 108.572C119.362 108.572 120.002 107.932 120.002 107.143C120.002 106.354 119.362 105.715 118.573 105.715C117.784 105.715 117.145 106.354 117.145 107.143C117.145 107.932 117.784 108.572 118.573 108.572Z" fill="#FBFBFF"/>
<path d="M84.3951 111.43H78.461C78.1019 111.458 77.7667 111.621 77.5224 111.886C77.278 112.151 77.1423 112.498 77.1423 112.858C77.1423 113.219 77.278 113.566 77.5224 113.83C77.7667 114.095 78.1019 114.258 78.461 114.287H84.3951C84.7542 114.258 85.0893 114.095 85.3337 113.83C85.5781 113.566 85.7138 113.219 85.7138 112.858C85.7138 112.498 85.5781 112.151 85.3337 111.886C85.0893 111.621 84.7542 111.458 84.3951 111.43ZM41.5379 111.43H35.6038C35.2447 111.458 34.9096 111.621 34.6652 111.886C34.4209 112.151 34.2852 112.498 34.2852 112.858C34.2852 113.219 34.4209 113.566 34.6652 113.83C34.9096 114.095 35.2447 114.258 35.6038 114.287H41.5379C41.8971 114.258 42.2322 114.095 42.4766 113.83C42.7209 113.566 42.8566 113.219 42.8566 112.858C42.8566 112.498 42.7209 112.151 42.4766 111.886C42.2322 111.621 41.8971 111.458 41.5379 111.43ZM74.2852 111.43H45.7137C45.3349 111.43 44.9715 111.58 44.7036 111.848C44.4357 112.116 44.2852 112.479 44.2852 112.858C44.2852 113.237 44.4357 113.601 44.7036 113.868C44.9715 114.136 45.3349 114.287 45.7137 114.287H57.0995V115.715H51.428C51.0492 115.715 50.6858 115.866 50.4179 116.134C50.15 116.402 49.9995 116.765 49.9995 117.144C49.9995 117.523 50.15 117.886 50.4179 118.154C50.6858 118.422 51.0492 118.573 51.428 118.573H69.2852C69.6641 118.573 70.0274 118.422 70.2953 118.154C70.5632 117.886 70.7137 117.523 70.7137 117.144C70.7137 116.765 70.5632 116.402 70.2953 116.134C70.0274 115.866 69.6641 115.715 69.2852 115.715H62.8995V114.287H74.2852C74.6641 114.287 75.0274 114.136 75.2953 113.868C75.5632 113.601 75.7137 113.237 75.7137 112.858C75.7137 112.479 75.5632 112.116 75.2953 111.848C75.0274 111.58 74.6641 111.43 74.2852 111.43Z" fill="#FFC100"/>
<path d="M107.658 105.715H70.6582C71.163 104.848 71.4289 103.862 71.4289 102.858V77.1298C70.7674 77.0992 70.1135 76.9761 69.4862 76.7642L68.5717 76.4529V100.001H18.5717V25.7154H59.7173C60.065 24.6379 60.664 23.6586 61.4648 22.8583H18.5717C18.5726 22.1008 18.8739 21.3745 19.4095 20.8389C19.9451 20.3033 20.6714 20.002 21.4289 20.0011H65.7146C65.9166 20.0018 66.1181 20.024 66.3154 20.0673C67.6327 19.5192 69.0876 19.3933 70.4795 19.707C69.9593 18.9189 69.2517 18.2723 68.4201 17.8249C67.5885 17.3776 66.6589 17.1436 65.7146 17.144H21.4289C19.9133 17.144 18.4599 17.746 17.3883 18.8177C16.3166 19.8893 15.7146 21.3427 15.7146 22.8583V102.858C15.7145 103.862 15.9805 104.848 16.4853 105.715H12.3422C12.139 105.689 11.9324 105.706 11.7363 105.766C11.5402 105.825 11.3591 105.926 11.2051 106.061C11.0511 106.196 10.9277 106.363 10.8431 106.55C10.7586 106.736 10.7148 106.939 10.7148 107.144C10.7148 107.349 10.7586 107.552 10.8431 107.738C10.9277 107.925 11.0511 108.091 11.2051 108.227C11.3591 108.362 11.5402 108.463 11.7363 108.522C11.9324 108.582 12.139 108.599 12.3422 108.573H107.658C107.862 108.599 108.068 108.582 108.264 108.522C108.46 108.463 108.641 108.362 108.795 108.227C108.95 108.091 109.073 107.925 109.157 107.738C109.242 107.552 109.286 107.349 109.286 107.144C109.286 106.939 109.242 106.736 109.157 106.55C109.073 106.363 108.95 106.196 108.795 106.061C108.641 105.926 108.46 105.825 108.264 105.766C108.068 105.706 107.862 105.689 107.658 105.715ZM21.4289 105.715C20.6714 105.715 19.9451 105.413 19.4095 104.878C18.8739 104.342 18.5726 103.616 18.5717 102.858H68.5717C68.5709 103.616 68.2696 104.342 67.7339 104.878C67.1983 105.413 66.4721 105.715 65.7146 105.715H21.4289ZM48.7894 5.7154C49.2132 5.7154 49.6275 5.58973 49.9799 5.35427C50.3323 5.11881 50.6069 4.78414 50.7691 4.39258C50.9313 4.00103 50.9737 3.57017 50.8911 3.1545C50.8084 2.73882 50.6043 2.357 50.3046 2.05732C50.0049 1.75763 49.6231 1.55355 49.2074 1.47086C48.7918 1.38818 48.3609 1.43062 47.9693 1.5928C47.5778 1.75499 47.2431 2.02965 47.0077 2.38204C46.7722 2.73443 46.6465 3.14873 46.6465 3.57255C46.6472 4.14067 46.8731 4.68533 47.2749 5.08706C47.6766 5.48878 48.2213 5.71475 48.7894 5.7154ZM48.7894 2.50112C49.0013 2.50112 49.2084 2.56396 49.3846 2.68169C49.5608 2.79942 49.6982 2.96675 49.7792 3.16253C49.8603 3.35831 49.8816 3.57373 49.8402 3.78157C49.7989 3.98941 49.6968 4.18032 49.547 4.33016C49.3971 4.48 49.2062 4.58205 48.9984 4.62339C48.7906 4.66473 48.5751 4.64351 48.3794 4.56242C48.1836 4.48132 48.0162 4.344 47.8985 4.1678C47.7808 3.9916 47.7179 3.78445 47.7179 3.57255C47.7182 3.28847 47.8312 3.01611 48.0321 2.81524C48.2329 2.61437 48.5053 2.5014 48.7894 2.50112ZM104.286 24.661C104.003 24.661 103.727 24.7448 103.492 24.9018C103.257 25.0587 103.074 25.2819 102.966 25.5429C102.858 25.8039 102.83 26.0912 102.885 26.3683C102.94 26.6454 103.076 26.9 103.276 27.0997C103.476 27.2995 103.73 27.4356 104.007 27.4907C104.284 27.5458 104.572 27.5175 104.833 27.4094C105.094 27.3013 105.317 27.1182 105.474 26.8833C105.631 26.6483 105.715 26.3721 105.715 26.0896C105.714 25.7108 105.563 25.3477 105.296 25.0799C105.028 24.8121 104.665 24.6615 104.286 24.661ZM104.286 26.8039C104.145 26.8039 104.007 26.762 103.889 26.6835C103.772 26.605 103.68 26.4935 103.626 26.3629C103.572 26.2324 103.558 26.0888 103.585 25.9502C103.613 25.8117 103.681 25.6844 103.781 25.5845C103.881 25.4846 104.008 25.4166 104.147 25.389C104.285 25.3615 104.429 25.3756 104.559 25.4297C104.69 25.4837 104.801 25.5753 104.88 25.6928C104.958 25.8102 105 25.9483 105 26.0896C105 26.279 104.925 26.4605 104.791 26.5945C104.657 26.7284 104.475 26.8037 104.286 26.8039ZM104.286 3.2154C104.003 3.2154 103.727 3.29919 103.492 3.45616C103.257 3.61313 103.074 3.83625 102.966 4.09728C102.858 4.35832 102.83 4.64556 102.885 4.92268C102.94 5.19979 103.076 5.45434 103.276 5.65413C103.476 5.85392 103.73 5.98997 104.007 6.0451C104.284 6.10022 104.572 6.07193 104.833 5.9638C105.094 5.85568 105.317 5.67257 105.474 5.43765C105.631 5.20272 105.715 4.92652 105.715 4.64397C105.714 4.26523 105.563 3.90212 105.296 3.6343C105.028 3.36648 104.665 3.21584 104.286 3.2154ZM104.286 5.35826C104.145 5.35826 104.007 5.31637 103.889 5.23788C103.772 5.15939 103.68 5.04784 103.626 4.91732C103.572 4.7868 103.558 4.64318 103.585 4.50462C103.613 4.36607 103.681 4.23879 103.781 4.1389C103.881 4.039 104.008 3.97097 104.147 3.94341C104.285 3.91585 104.429 3.93 104.559 3.98406C104.69 4.03812 104.801 4.12968 104.88 4.24714C104.958 4.3646 105 4.5027 105 4.64397C105 4.83336 104.925 5.01493 104.791 5.14884C104.657 5.28276 104.475 5.35807 104.286 5.35826ZM114.643 40.0011C114.361 40.0011 114.084 40.0849 113.849 40.2419C113.615 40.3988 113.431 40.622 113.323 40.883C113.215 41.144 113.187 41.4313 113.242 41.7084C113.297 41.9855 113.433 42.2401 113.633 42.4398C113.833 42.6396 114.087 42.7757 114.364 42.8308C114.642 42.8859 114.929 42.8576 115.19 42.7495C115.451 42.6414 115.674 42.4583 115.831 42.2234C115.988 41.9884 116.072 41.7122 116.072 41.4297C116.071 41.0509 115.921 40.6878 115.653 40.42C115.385 40.1522 115.022 40.0016 114.643 40.0011ZM114.643 42.144C114.502 42.144 114.364 42.1021 114.246 42.0236C114.129 41.9451 114.037 41.8336 113.983 41.703C113.929 41.5725 113.915 41.4289 113.943 41.2903C113.97 41.1518 114.038 41.0245 114.138 40.9246C114.238 40.8247 114.365 40.7567 114.504 40.7291C114.642 40.7016 114.786 40.7157 114.917 40.7698C115.047 40.8238 115.159 40.9154 115.237 41.0329C115.316 41.1503 115.357 41.2884 115.357 41.4297C115.357 41.6191 115.282 41.8006 115.148 41.9346C115.014 42.0685 114.833 42.1438 114.643 42.144ZM29.286 12.4877C29.286 12.2051 29.2022 11.9289 29.0453 11.694C28.8883 11.4591 28.6652 11.276 28.4041 11.1678C28.1431 11.0597 27.8559 11.0314 27.5787 11.0865C27.3016 11.1417 27.0471 11.2777 26.8473 11.4775C26.6475 11.6773 26.5114 11.9318 26.4563 12.209C26.4012 12.4861 26.4295 12.7733 26.5376 13.0344C26.6457 13.2954 26.8288 13.5185 27.0638 13.6755C27.2987 13.8324 27.5749 13.9162 27.8574 13.9162C28.2362 13.9158 28.5993 13.7652 28.8671 13.4973C29.1349 13.2295 29.2856 12.8664 29.286 12.4877ZM27.1432 12.4877C27.1432 12.3464 27.185 12.2083 27.2635 12.0908C27.342 11.9734 27.4536 11.8818 27.5841 11.8277C27.7146 11.7737 27.8582 11.7595 27.9968 11.7871C28.1353 11.8147 28.2626 11.8827 28.3625 11.9826C28.4624 12.0825 28.5304 12.2098 28.558 12.3483C28.5856 12.4869 28.5714 12.6305 28.5174 12.761C28.4633 12.8915 28.3717 13.0031 28.2543 13.0816C28.1368 13.1601 27.9987 13.2019 27.8574 13.2019C27.6681 13.2018 27.4865 13.1264 27.3526 12.9925C27.2187 12.8586 27.1433 12.677 27.1432 12.4877Z" fill="#FBFBFF"/>
<path d="M7.08078 29.294L8.14292 27.8976L7.47221 27.5176L6.79078 29.0819H6.76792L6.07578 27.5283L5.39292 27.9197L6.44435 29.2833V29.3054L4.80078 29.0933V29.8533L6.45507 29.6412V29.6633L5.39292 31.0261L6.03007 31.429L6.75721 29.8533H6.77864L7.44935 31.4176L8.15364 31.0154L7.08078 29.674V29.6519L8.76792 29.8533V29.0933L7.08078 29.3161V29.294Z" fill="#FFC100"/>
<path d="M4.09667 7.30603L3.48525 8.09103L3.85239 8.32317L4.27096 7.41531H4.28382L4.66953 8.31603L5.07525 8.0846L4.45739 7.31245V7.2996L5.42882 7.41531V6.97746L4.45739 7.10603V7.09317L5.06882 6.28888L4.6831 6.07031L4.29025 6.97103H4.27739L3.87882 6.07674L3.48525 6.30174L4.09096 7.08745V7.10031L3.14453 6.97746V7.41531L4.09667 7.29317V7.30603Z" fill="#FFC100"/>
<path d="M117.661 18.9431V18.1981L116.006 18.4173V18.3952L117.048 17.0252L116.39 16.6523L115.722 18.1866H115.699L115.02 16.6631L114.35 17.0473L115.382 18.3845V18.4066L113.77 18.1981V18.9431L115.392 18.7352V18.7573L114.35 20.0945L114.975 20.4895L115.689 18.9431H115.71L116.367 20.4781L117.059 20.0838L116.006 18.7681V18.7459L117.661 18.9431Z" fill="#FFC100"/>
<path d="M83.3902 13.9899L84.2888 12.8078L83.7209 12.4863L83.1445 13.8099H83.1252L82.5395 12.4956L81.9617 12.827L82.8509 13.9806V13.9992L81.4609 13.8199V14.4628L82.8602 14.2828V14.302L81.9617 15.4556L82.5009 15.7963L83.1159 14.4628H83.1345L83.7024 15.7863L84.2981 15.4463L83.3902 14.3113V14.292L84.8174 14.4628V13.8199L83.3902 14.0085V13.9899Z" fill="#FFC100"/>
</g>
<defs>
<clipPath id="clip0_199_3542">
<rect width="120" height="120" fill="white"/>
</clipPath>
</defs>
</svg>
