<svg width="120" height="120" viewBox="0 0 120 120" fill="none" xmlns="http://www.w3.org/2000/svg">
<g clip-path="url(#clip0_199_3513)">
<path d="M1.42857 108.506C2.21755 108.506 2.85714 107.866 2.85714 107.077C2.85714 106.288 2.21755 105.648 1.42857 105.648C0.639593 105.648 0 106.288 0 107.077C0 107.866 0.639593 108.506 1.42857 108.506Z" fill="#FBFBFF"/>
<path d="M7.85658 105.648H5.71373C5.33485 105.648 4.97148 105.799 4.70358 106.067C4.43567 106.335 4.28516 106.698 4.28516 107.077C4.28516 107.456 4.43567 107.819 4.70358 108.087C4.97148 108.355 5.33485 108.506 5.71373 108.506H7.85658C8.23547 108.506 8.59883 108.355 8.86674 108.087C9.13465 107.819 9.28516 107.456 9.28516 107.077C9.28516 106.698 9.13465 106.335 8.86674 106.067C8.59883 105.799 8.23547 105.648 7.85658 105.648ZM114.285 105.648H112.142C111.763 105.648 111.4 105.799 111.132 106.067C110.864 106.335 110.714 106.698 110.714 107.077C110.714 107.456 110.864 107.819 111.132 108.087C111.4 108.355 111.763 108.506 112.142 108.506H114.285C114.664 108.506 115.027 108.355 115.295 108.087C115.563 107.819 115.714 107.456 115.714 107.077C115.714 106.698 115.563 106.335 115.295 106.067C115.027 105.799 114.664 105.648 114.285 105.648Z" fill="#FBFBFF"/>
<path d="M118.573 108.506C119.362 108.506 120.002 107.866 120.002 107.077C120.002 106.288 119.362 105.648 118.573 105.648C117.784 105.648 117.145 106.288 117.145 107.077C117.145 107.866 117.784 108.506 118.573 108.506Z" fill="#FBFBFF"/>
<path d="M84.3951 111.363H78.461C78.1019 111.392 77.7667 111.555 77.5224 111.82C77.278 112.085 77.1423 112.432 77.1423 112.792C77.1423 113.152 77.278 113.499 77.5224 113.764C77.7667 114.029 78.1019 114.192 78.461 114.22H84.3951C84.7542 114.192 85.0893 114.029 85.3337 113.764C85.5781 113.499 85.7138 113.152 85.7138 112.792C85.7138 112.432 85.5781 112.085 85.3337 111.82C85.0893 111.555 84.7542 111.392 84.3951 111.363ZM41.5379 111.363H35.6038C35.2447 111.392 34.9096 111.555 34.6652 111.82C34.4209 112.085 34.2852 112.432 34.2852 112.792C34.2852 113.152 34.4209 113.499 34.6652 113.764C34.9096 114.029 35.2447 114.192 35.6038 114.22H41.5379C41.8971 114.192 42.2322 114.029 42.4766 113.764C42.7209 113.499 42.8566 113.152 42.8566 112.792C42.8566 112.432 42.7209 112.085 42.4766 111.82C42.2322 111.555 41.8971 111.392 41.5379 111.363ZM74.2852 111.363H45.7137C45.3349 111.363 44.9715 111.514 44.7036 111.782C44.4357 112.05 44.2852 112.413 44.2852 112.792C44.2852 113.171 44.4357 113.534 44.7036 113.802C44.9715 114.07 45.3349 114.22 45.7137 114.22H57.0995V115.649H51.428C51.0492 115.649 50.6858 115.8 50.4179 116.067C50.15 116.335 49.9995 116.699 49.9995 117.078C49.9995 117.456 50.15 117.82 50.4179 118.088C50.6858 118.356 51.0492 118.506 51.428 118.506H69.2852C69.6641 118.506 70.0274 118.356 70.2953 118.088C70.5632 117.82 70.7137 117.456 70.7137 117.078C70.7137 116.699 70.5632 116.335 70.2953 116.067C70.0274 115.8 69.6641 115.649 69.2852 115.649H62.8995V114.22H74.2852C74.6641 114.22 75.0274 114.07 75.2953 113.802C75.5632 113.534 75.7137 113.171 75.7137 112.792C75.7137 112.413 75.5632 112.05 75.2953 111.782C75.0274 111.514 74.6641 111.363 74.2852 111.363Z" fill="#FFC100"/>
<path d="M40.7161 52.0815C39.6105 52.0529 38.5387 52.4636 37.7353 53.2236C36.9319 53.9837 36.4624 55.0311 36.4297 56.1366V59.4538C36.4904 60.5496 36.9685 61.5805 37.7657 62.3347C38.5629 63.089 39.6187 63.5093 40.7161 63.5093C41.8136 63.5093 42.8693 63.089 43.6665 62.3347C44.4637 61.5805 44.9418 60.5496 45.0025 59.4538V56.1366C44.9698 55.0311 44.5004 53.9837 43.697 53.2236C42.8936 52.4636 41.8217 52.0529 40.7161 52.0815ZM42.145 59.4538C42.0856 59.7896 41.9098 60.0937 41.6485 60.3129C41.3872 60.532 41.0571 60.6521 40.7161 60.6521C40.3751 60.6521 40.045 60.532 39.7838 60.3129C39.5225 60.0937 39.3467 59.7896 39.2873 59.4538V56.1366C39.3467 55.8008 39.5225 55.4967 39.7838 55.2776C40.045 55.0584 40.3751 54.9383 40.7161 54.9383C41.0571 54.9383 41.3873 55.0584 41.6485 55.2776C41.9098 55.4967 42.0856 55.8008 42.145 56.1366V59.4538ZM63.577 52.0815C62.4714 52.0529 61.3996 52.4636 60.5962 53.2236C59.7927 53.9837 59.3233 55.0311 59.2906 56.1366V59.4538C59.3513 60.5496 59.8294 61.5805 60.6266 62.3347C61.4238 63.089 62.4796 63.5093 63.577 63.5093C64.6745 63.5093 65.7302 63.089 66.5274 62.3347C67.3246 61.5805 67.8027 60.5496 67.8634 59.4538V56.1366C67.8307 55.0311 67.3613 53.9837 66.5579 53.2236C65.7545 52.4636 64.6826 52.0529 63.577 52.0815ZM65.0058 59.4538C64.9464 59.7896 64.7707 60.0938 64.5094 60.3129C64.2481 60.532 63.918 60.6521 63.577 60.6521C63.236 60.6521 62.9059 60.532 62.6446 60.3129C62.3834 60.0938 62.2076 59.7896 62.1482 59.4538V56.1366C62.2076 55.8008 62.3834 55.4967 62.6446 55.2776C62.9059 55.0584 63.236 54.9383 63.577 54.9383C63.918 54.9383 64.2481 55.0584 64.5094 55.2776C64.7707 55.4967 64.9464 55.8008 65.0058 56.1366V59.4538Z" fill="#FBFBFF"/>
<path d="M75.0091 63.5098C76.1147 63.5384 77.1865 63.1277 77.9899 62.3677C78.7933 61.6076 79.2628 60.5602 79.2955 59.4547V56.1375C79.2348 55.0417 78.7567 54.0108 77.9595 53.2566C77.1623 52.5023 76.1065 52.082 75.0091 52.082C73.9116 52.082 72.8559 52.5023 72.0587 53.2566C71.2615 54.0108 70.7834 55.0417 70.7227 56.1375V59.4547C70.7554 60.5602 71.2248 61.6076 72.0282 62.3677C72.8316 63.1277 73.9035 63.5384 75.0091 63.5098ZM73.5803 56.1375C73.6396 55.8017 73.8154 55.4975 74.0767 55.2784C74.338 55.0593 74.6681 54.9392 75.0091 54.9392C75.3501 54.9392 75.6802 55.0593 75.9415 55.2784C76.2027 55.4975 76.3785 55.8017 76.4379 56.1375V59.4547C76.3785 59.7905 76.2027 60.0946 75.9414 60.3137C75.6802 60.5328 75.3501 60.6529 75.0091 60.6529C74.6681 60.6529 74.338 60.5328 74.0767 60.3137C73.8154 60.0946 73.6397 59.7905 73.5803 59.4547V56.1375Z" fill="#FFC100"/>
<path d="M52.1458 49.2247C53.2514 49.2533 54.3233 48.8426 55.1267 48.0825C55.9301 47.3225 56.3995 46.275 56.4322 45.1695V41.8523C56.3715 40.7565 55.8934 39.7256 55.0962 38.9714C54.299 38.2172 53.2433 37.7969 52.1458 37.7969C51.0484 37.7969 49.9926 38.2172 49.1954 38.9714C48.3982 39.7256 47.9201 40.7565 47.8594 41.8523V45.1695C47.8921 46.275 48.3615 47.3225 49.1649 48.0825C49.9684 48.8426 51.0402 49.2533 52.1458 49.2247ZM50.717 41.8523C50.7764 41.5165 50.9521 41.2124 51.2134 40.9933C51.4747 40.7741 51.8048 40.654 52.1458 40.654C52.4868 40.654 52.8169 40.7741 53.0782 40.9933C53.3395 41.2124 53.5152 41.5165 53.5746 41.8523V45.1695C53.5152 45.5053 53.3394 45.8095 53.0782 46.0286C52.8169 46.2477 52.4868 46.3678 52.1458 46.3678C51.8048 46.3678 51.4747 46.2477 51.2134 46.0286C50.9522 45.8095 50.7764 45.5053 50.717 45.1695V41.8523ZM75.0067 49.2247C76.1123 49.2533 77.1841 48.8426 77.9875 48.0825C78.7909 47.3225 79.2604 46.275 79.2931 45.1695V41.8523C79.2324 40.7565 78.7543 39.7256 77.9571 38.9714C77.1599 38.2172 76.1041 37.7969 75.0067 37.7969C73.9092 37.7969 72.8535 38.2172 72.0563 38.9714C71.2591 39.7256 70.781 40.7565 70.7203 41.8523V45.1695C70.753 46.275 71.2224 47.3225 72.0258 48.0825C72.8292 48.8426 73.9011 49.2533 75.0067 49.2247ZM73.5779 41.8523C73.6372 41.5165 73.813 41.2124 74.0743 40.9933C74.3356 40.7741 74.6657 40.654 75.0067 40.654C75.3477 40.654 75.6778 40.7741 75.9391 40.9933C76.2003 41.2124 76.3761 41.5165 76.4355 41.8523V45.1695C76.3761 45.5053 76.2003 45.8095 75.939 46.0286C75.6778 46.2477 75.3477 46.3678 75.0067 46.3678C74.6657 46.3678 74.3356 46.2477 74.0743 46.0286C73.813 45.8095 73.6373 45.5053 73.5779 45.1695V41.8523Z" fill="#FBFBFF"/>
<path d="M86.4381 49.2243C87.5437 49.2529 88.6155 48.8422 89.4189 48.0821C90.2223 47.3221 90.6918 46.2746 90.7245 45.1692V41.8519C90.6637 40.7562 90.1856 39.7254 89.3884 38.9713C88.5912 38.2171 87.5355 37.7969 86.4381 37.7969C85.3407 37.7969 84.285 38.2171 83.4878 38.9713C82.6906 39.7254 82.2125 40.7562 82.1516 41.8519V45.1692C82.1844 46.2746 82.6538 47.3221 83.4572 48.0821C84.2606 48.8422 85.3325 49.2529 86.4381 49.2243ZM85.0093 41.8519C85.0687 41.5162 85.2444 41.212 85.5057 40.9929C85.767 40.7738 86.0971 40.6537 86.4381 40.6537C86.7791 40.6537 87.1092 40.7738 87.3705 40.9929C87.6318 41.212 87.8075 41.5162 87.8669 41.8519V45.1692C87.8075 45.5049 87.6317 45.8091 87.3705 46.0282C87.1092 46.2473 86.7791 46.3674 86.4381 46.3674C86.0971 46.3674 85.767 46.2473 85.5057 46.0282C85.2444 45.8091 85.0687 45.5049 85.0093 45.1692V41.8519ZM63.5772 49.2243C63.9561 49.2243 64.3195 49.0738 64.5874 48.806C64.8554 48.5381 65.006 48.1747 65.006 47.7958V39.2252C65.0052 38.8468 64.8543 38.4842 64.5864 38.217C64.3185 37.9497 63.9556 37.7996 63.5772 37.7996C63.1988 37.7996 62.8359 37.9497 62.568 38.217C62.3002 38.4842 62.1493 38.8468 62.1484 39.2252V47.7959C62.1485 48.1747 62.2991 48.5381 62.567 48.806C62.835 49.0738 63.1983 49.2243 63.5772 49.2243Z" fill="#FFC100"/>
<path d="M86.4405 52.082C86.0616 52.082 85.6982 52.2325 85.4303 52.5004C85.1623 52.7682 85.0118 53.1316 85.0117 53.5105V62.0811C85.0126 62.4595 85.1635 62.8221 85.4313 63.0893C85.6992 63.3566 86.0621 63.5067 86.4405 63.5067C86.8189 63.5067 87.1819 63.3566 87.4497 63.0893C87.7176 62.8221 87.8685 62.4595 87.8693 62.0811V53.5105C87.8693 53.1316 87.7187 52.7682 87.4507 52.5004C87.1828 52.2325 86.8194 52.082 86.4405 52.082Z" fill="#FBFBFF"/>
<path d="M40.7178 49.2239C41.0967 49.2239 41.4601 49.0734 41.7281 48.8055C41.996 48.5377 42.1466 48.1743 42.1467 47.7954V39.2248C42.1458 38.8464 41.9949 38.4838 41.7271 38.2165C41.4592 37.9493 41.0963 37.7992 40.7179 37.7992C40.3395 37.7992 39.9765 37.9493 39.7087 38.2165C39.4408 38.4838 39.2899 38.8464 39.2891 39.2248V47.7954C39.2891 48.1743 39.4397 48.5377 39.7076 48.8055C39.9756 49.0734 40.339 49.2239 40.7178 49.2239ZM50.7195 53.5092V62.0798C50.7203 62.4582 50.8713 62.8208 51.1391 63.088C51.407 63.3553 51.7699 63.5054 52.1483 63.5054C52.5267 63.5054 52.8896 63.3553 53.1575 63.088C53.4253 62.8208 53.5762 62.4582 53.5771 62.0798V53.5092C53.5762 53.1308 53.4253 52.7682 53.1575 52.5009C52.8896 52.2337 52.5267 52.0836 52.1483 52.0836C51.7699 52.0836 51.407 52.2337 51.1391 52.5009C50.8713 52.7682 50.7203 53.1308 50.7195 53.5092ZM52.1483 34.9395C53.2539 34.9681 54.3257 34.5574 55.1291 33.7974C55.9326 33.0373 56.402 31.9898 56.4347 30.8844V27.5672C56.374 26.4714 55.8959 25.4405 55.0987 24.6862C54.3015 23.932 53.2457 23.5117 52.1483 23.5117C51.0508 23.5117 49.9951 23.932 49.1979 24.6862C48.4007 25.4405 47.9226 26.4714 47.8619 27.5672V30.8844C47.8946 31.9898 48.364 33.0373 49.1674 33.7974C49.9708 34.5574 51.0427 34.9681 52.1483 34.9395ZM50.7195 27.5672C50.7789 27.2314 50.9546 26.9272 51.2159 26.7081C51.4772 26.489 51.8073 26.3689 52.1483 26.3689C52.4893 26.3689 52.8194 26.489 53.0807 26.7081C53.3419 26.9272 53.5177 27.2314 53.5771 27.5672V30.8844C53.5177 31.2202 53.3419 31.5243 53.0807 31.7434C52.8194 31.9625 52.4893 32.0826 52.1483 32.0826C51.8073 32.0826 51.4772 31.9625 51.2159 31.7434C50.9546 31.5243 50.7789 31.2202 50.7195 30.8844V27.5672ZM75.0092 34.9395C76.1148 34.9681 77.1866 34.5574 77.99 33.7974C78.7934 33.0373 79.2629 31.9898 79.2956 30.8844V27.5672C79.2349 26.4714 78.7568 25.4405 77.9596 24.6862C77.1624 23.932 76.1066 23.5117 75.0092 23.5117C73.9117 23.5117 72.8559 23.932 72.0588 24.6862C71.2616 25.4405 70.7835 26.4714 70.7227 27.5672V30.8844C70.7555 31.9898 71.2249 33.0373 72.0283 33.7974C72.8317 34.5574 73.9036 34.9681 75.0092 34.9395ZM73.5803 27.5672C73.6397 27.2314 73.8155 26.9272 74.0768 26.7081C74.338 26.489 74.6682 26.3689 75.0092 26.3689C75.3502 26.3689 75.6803 26.489 75.9415 26.7081C76.2028 26.9272 76.3786 27.2314 76.438 27.5672V30.8844C76.3786 31.2202 76.2028 31.5243 75.9415 31.7434C75.6803 31.9625 75.3502 32.0826 75.0092 32.0826C74.6682 32.0826 74.3381 31.9625 74.0768 31.7434C73.8155 31.5243 73.6397 31.2202 73.5803 30.8844V27.5672Z" fill="#FFC100"/>
<path d="M63.5772 34.9403C63.9561 34.9403 64.3195 34.7899 64.5874 34.522C64.8554 34.2541 65.0059 33.8908 65.006 33.5119V24.9412C65.0052 24.5628 64.8543 24.2002 64.5864 23.933C64.3185 23.6657 63.9556 23.5156 63.5772 23.5156C63.1988 23.5156 62.8359 23.6657 62.568 23.933C62.3002 24.2002 62.1493 24.5628 62.1484 24.9412V33.5119C62.1485 33.8908 62.2991 34.2541 62.567 34.522C62.835 34.7899 63.1983 34.9403 63.5772 34.9403Z" fill="#FBFBFF"/>
<path d="M58.5057 67.9437L56.6702 67.6264C56.4451 67.5875 56.2141 67.6031 55.9963 67.6719C55.7785 67.7407 55.5804 67.8607 55.4186 68.0218C54.5102 68.9258 53.0891 68.9976 51.3261 68.9976C49.8701 68.9976 48.4678 68.4478 47.3997 67.4583C47.2619 67.3306 47.1003 67.2313 46.9241 67.1662C46.7479 67.101 46.5606 67.0713 46.3729 67.0786C46.1852 67.0859 46.0008 67.1302 45.8303 67.2088C45.6597 67.2875 45.5063 67.3991 45.3789 67.5371C45.2515 67.6751 45.1525 67.8369 45.0877 68.0132C45.0229 68.1895 44.9935 68.3769 45.0012 68.5645C45.0089 68.7522 45.0535 68.9365 45.1325 69.107C45.2115 69.2774 45.3233 69.4306 45.4616 69.5577C47.057 71.0352 49.1516 71.8555 51.3261 71.8545C53.3319 71.8545 55.2651 71.7457 56.8467 70.5565L58.0571 70.7657C58.0836 70.7706 58.1101 70.7741 58.1367 70.7776C59.9516 70.8981 61.666 71.654 62.9791 72.9126C63.5484 73.5026 63.5763 74.3145 63.5763 75.7039V84.2208C63.5772 84.5992 63.7281 84.9618 63.9959 85.229C64.2638 85.4963 64.6267 85.6464 65.0051 85.6464C65.3835 85.6464 65.7465 85.4963 66.0143 85.229C66.2822 84.9618 66.4331 84.5992 66.4339 84.2208V75.6976C66.4339 74.1422 66.4339 72.3783 65.0358 70.9289C63.2779 69.1968 60.9658 68.1398 58.5057 67.9437ZM87.0797 67.3076C87.1822 66.9428 87.1355 66.5521 86.95 66.2216C86.7645 65.8912 86.4552 65.6479 86.0904 65.5454C85.7255 65.4429 85.3348 65.4896 85.0044 65.6751C84.6739 65.8607 84.4306 66.1699 84.3282 66.5348C82.9112 71.5789 79.5039 73.0946 78.105 73.5117C77.2897 73.7573 76.5394 74.1817 75.9088 74.7539C73.4483 76.9221 71.8607 79.9114 71.4424 83.1641C71.4375 83.2129 71.4347 83.2624 71.4347 83.3119V92.0772C71.4355 92.4555 71.5864 92.8181 71.8543 93.0854C72.1222 93.3527 72.4851 93.5028 72.8635 93.5028C73.2419 93.5028 73.6048 93.3527 73.8727 93.0854C74.1406 92.8181 74.2915 92.4555 74.2923 92.0772V83.3887C74.6546 80.8624 75.9096 78.5494 77.8301 76.8687C78.1434 76.5836 78.5164 76.3722 78.922 76.25C80.7743 75.6969 85.2784 73.7196 87.0797 67.3076Z" fill="#FFC100"/>
<path d="M107.658 105.649H90.2188C90.2051 105.625 90.1964 105.6 90.1812 105.577C87.779 101.32 86.3494 96.5832 85.9953 91.7076C85.6411 86.8321 86.3712 81.9386 88.1329 77.3788C90.4973 75.3386 104.865 61.8707 99.5382 40.4169C99.2732 38.6764 95.5783 19.0151 65.18 16.4627C64.587 16.4017 50.5508 15.0779 39.3819 24.2623C31.9868 30.3443 27.6739 39.55 26.5645 51.6237C26.5463 51.8193 26.5689 52.0165 26.6308 52.2029L27.2852 54.1831L19.6354 67.2779C19.6105 67.3195 19.5881 67.3626 19.5684 67.4069C19.3823 67.8438 19.2872 68.3142 19.2892 68.7891C19.2911 69.264 19.3899 69.7336 19.5796 70.169C19.8354 70.6702 20.1969 71.1099 20.6392 71.4578C21.0815 71.8057 21.594 72.0535 22.1414 72.184L24.9313 73.5887L24.0753 76.7517C24.0111 77.03 24.0095 77.319 24.0708 77.598C24.1321 77.8769 24.2547 78.1386 24.4297 78.3643C24.638 78.6397 24.8994 78.8705 25.1985 79.0429C24.9232 79.3703 24.7498 79.7711 24.6997 80.1959C24.6867 80.3297 24.6925 80.4647 24.7171 80.5969C25.0584 81.8494 25.8732 82.9201 26.9894 83.5829C27.0885 83.7126 27.1485 83.9372 26.9776 84.3194C25.6883 87.2746 24.593 92.7784 28.564 94.8381C29.3761 95.4114 32.9111 97.4055 40.7207 95.4798C40.7514 95.4728 40.7814 95.4637 40.8114 95.4546C41.1658 95.3409 42.6735 95.0341 43.5811 95.5872C43.8232 95.7562 44.0257 95.9756 44.1748 96.2304C44.3239 96.4852 44.416 96.7692 44.4448 97.063L44.8858 105.649H12.3413C12.1381 105.622 11.9316 105.64 11.7355 105.699C11.5394 105.759 11.3583 105.86 11.2042 105.995C11.0502 106.13 10.9268 106.297 10.8423 106.483C10.7577 106.67 10.714 106.873 10.714 107.078C10.714 107.282 10.7577 107.485 10.8423 107.672C10.9268 107.859 11.0502 108.025 11.2042 108.16C11.3583 108.295 11.5394 108.396 11.7355 108.456C11.9316 108.516 12.1381 108.533 12.3413 108.506H107.658C107.861 108.533 108.067 108.516 108.263 108.456C108.459 108.396 108.641 108.295 108.795 108.16C108.949 108.025 109.072 107.859 109.157 107.672C109.241 107.485 109.285 107.282 109.285 107.078C109.285 106.873 109.241 106.67 109.157 106.483C109.072 106.297 108.949 106.13 108.795 105.995C108.641 105.86 108.459 105.759 108.263 105.699C108.067 105.64 107.861 105.622 107.658 105.649V105.649ZM47.2941 96.828C47.2915 96.7728 47.2855 96.7178 47.2759 96.6634C47.1917 95.9505 46.9499 95.2653 46.5683 94.6573C46.1866 94.0494 45.6746 93.5338 45.0693 93.1481C43.0223 91.8996 40.4772 92.5726 39.998 92.7156C32.9404 94.4447 30.2245 92.5134 30.2224 92.5134C30.1364 92.4427 30.0425 92.3824 29.9426 92.3334C27.2762 91.034 29.5736 85.5149 29.5917 85.4737C29.9259 84.798 30.0304 84.0317 29.8895 83.2911C29.7486 82.5506 29.37 81.8762 28.811 81.3704C28.7653 81.3326 28.7173 81.2977 28.6673 81.2658C28.3401 81.0654 28.0481 80.8125 27.8029 80.5174C28.2967 80.203 28.8179 79.9336 29.3601 79.7125C29.6631 79.5895 29.9147 79.3662 30.0729 79.08C30.2311 78.7937 30.2863 78.4619 30.2293 78.1398C30.1723 77.8178 30.0066 77.525 29.7597 77.3105C29.5129 77.0959 29.1999 76.9726 28.8731 76.961C28.2556 76.9559 27.6409 76.8793 27.041 76.7329L27.994 73.2106C28.08 72.8931 28.0537 72.5556 27.9196 72.2552C27.7855 71.9548 27.5518 71.7099 27.258 71.5618C27.258 71.5618 22.2104 69.0439 22.1763 68.9755C22.1335 68.8588 22.1296 68.7313 22.1651 68.6122L30.078 55.0671C30.1804 54.8922 30.2443 54.6974 30.2655 54.4959C30.2866 54.2943 30.2646 54.0905 30.2008 53.8982L29.4375 51.5902C30.5154 40.4637 34.4628 32.0196 41.1735 26.4886C51.4026 18.0578 64.7544 19.2906 64.9142 19.3074C94.1467 21.7618 96.6242 40.0776 96.7148 40.8515C96.722 40.9154 96.7334 40.9788 96.749 41.0412C102.107 62.4719 86.7062 74.8818 86.0497 75.3986C85.8469 75.5572 85.6907 75.7676 85.5976 76.0075C83.6972 80.7586 82.8333 85.8607 83.0637 90.9726C83.2941 96.0845 84.6136 101.088 86.9338 105.649H47.7468L47.2941 96.828ZM72.8643 12.7918C73.2881 12.7918 73.7024 12.6661 74.0548 12.4307C74.4072 12.1952 74.6819 11.8605 74.844 11.469C75.0062 11.0774 75.0487 10.6466 74.966 10.2309C74.8833 9.81522 74.6792 9.4334 74.3795 9.13371C74.0798 8.83403 73.698 8.62994 73.2823 8.54726C72.8667 8.46458 72.4358 8.50701 72.0443 8.6692C71.6527 8.83139 71.318 9.10604 71.0826 9.45843C70.8471 9.81082 70.7214 10.2251 70.7214 10.6489C70.7221 11.2171 70.9481 11.7617 71.3498 12.1635C71.7515 12.5652 72.2962 12.7911 72.8643 12.7918ZM72.8643 9.57751C73.0762 9.57751 73.2834 9.64035 73.4596 9.75808C73.6357 9.87581 73.7731 10.0431 73.8542 10.2389C73.9353 10.4347 73.9565 10.6501 73.9151 10.858C73.8738 11.0658 73.7718 11.2567 73.6219 11.4066C73.4721 11.5564 73.2812 11.6584 73.0733 11.6998C72.8655 11.7411 72.6501 11.7199 72.4543 11.6388C72.2585 11.5577 72.0912 11.4204 71.9734 11.2442C71.8557 11.068 71.7929 10.8608 71.7929 10.6489C71.7932 10.3649 71.9061 10.0925 72.107 9.89164C72.3079 9.69077 72.5802 9.57779 72.8643 9.57751ZM105.476 29.7541C105.193 29.7541 104.917 29.8379 104.682 29.9949C104.447 30.1518 104.264 30.375 104.156 30.636C104.048 30.897 104.019 31.1843 104.074 31.4614C104.13 31.7385 104.266 31.993 104.465 32.1928C104.665 32.3926 104.92 32.5287 105.197 32.5838C105.474 32.6389 105.761 32.6106 106.022 32.5025C106.283 32.3944 106.506 32.2113 106.663 31.9764C106.82 31.7414 106.904 31.4652 106.904 31.1827C106.904 30.8039 106.753 30.4408 106.485 30.173C106.217 29.9052 105.854 29.7545 105.476 29.7541ZM105.476 31.897C105.334 31.897 105.196 31.8551 105.079 31.7766C104.961 31.6981 104.87 31.5865 104.816 31.456C104.762 31.3255 104.747 31.1819 104.775 31.0433C104.803 30.9048 104.871 30.7775 104.971 30.6776C105.07 30.5777 105.198 30.5097 105.336 30.4821C105.475 30.4546 105.618 30.4687 105.749 30.5228C105.879 30.5768 105.991 30.6684 106.07 30.7858C106.148 30.9033 106.19 31.0414 106.19 31.1827C106.19 31.3721 106.114 31.5536 105.98 31.6875C105.847 31.8215 105.665 31.8968 105.476 31.897ZM9.50279 7.7918C9.22025 7.7918 8.94405 7.87558 8.70912 8.03256C8.47419 8.18953 8.29109 8.41264 8.18296 8.67368C8.07484 8.93472 8.04655 9.22196 8.10167 9.49907C8.15679 9.77619 8.29285 10.0307 8.49264 10.2305C8.69243 10.4303 8.94697 10.5664 9.22409 10.6215C9.50121 10.6766 9.78844 10.6483 10.0495 10.5402C10.3105 10.4321 10.5336 10.249 10.6906 10.014C10.8476 9.77911 10.9314 9.50291 10.9314 9.22037C10.9309 8.84162 10.7803 8.47851 10.5125 8.2107C10.2446 7.94288 9.88154 7.79223 9.50279 7.7918ZM9.50279 9.93466C9.36152 9.93466 9.22342 9.89276 9.10595 9.81428C8.98849 9.73579 8.89694 9.62423 8.84288 9.49372C8.78881 9.3632 8.77467 9.21958 8.80223 9.08102C8.82979 8.94246 8.89782 8.81519 8.99771 8.71529C9.09761 8.6154 9.22488 8.54737 9.36344 8.51981C9.502 8.49225 9.64562 8.50639 9.77614 8.56046C9.90665 8.61452 10.0182 8.70607 10.0967 8.82353C10.1752 8.941 10.2171 9.0791 10.2171 9.22037C10.2169 9.40975 10.1416 9.59132 10.0077 9.72524C9.87374 9.85915 9.69217 9.93447 9.50279 9.93466ZM95.7361 1.49414C95.4535 1.49414 95.1773 1.57792 94.9424 1.7349C94.7075 1.89187 94.5244 2.11498 94.4163 2.37602C94.3081 2.63706 94.2798 2.9243 94.335 3.20141C94.3901 3.47853 94.5261 3.73308 94.7259 3.93286C94.9257 4.13265 95.1803 4.26871 95.4574 4.32383C95.7345 4.37896 96.0217 4.35067 96.2828 4.24254C96.5438 4.13442 96.7669 3.95131 96.9239 3.71638C97.0809 3.48146 97.1646 3.20526 97.1646 2.92271C97.1642 2.54396 97.0136 2.18085 96.7458 1.91304C96.4779 1.64522 96.1148 1.49457 95.7361 1.49414ZM95.7361 3.637C95.5948 3.637 95.4567 3.59511 95.3392 3.51662C95.2218 3.43813 95.1302 3.32658 95.0762 3.19606C95.0221 3.06554 95.008 2.92192 95.0355 2.78336C95.0631 2.6448 95.1311 2.51753 95.231 2.41764C95.3309 2.31774 95.4582 2.24971 95.5967 2.22215C95.7353 2.19459 95.8789 2.20874 96.0094 2.2628C96.14 2.31686 96.2515 2.40841 96.33 2.52588C96.4085 2.64334 96.4504 2.78144 96.4504 2.92271C96.4502 3.11209 96.3749 3.29367 96.241 3.42758C96.107 3.56149 95.9255 3.63681 95.7361 3.637ZM20.7119 42.0775C20.7119 41.795 20.6281 41.5188 20.4712 41.2838C20.3142 41.0489 20.0911 40.8658 19.83 40.7577C19.569 40.6496 19.2818 40.6213 19.0046 40.6764C18.7275 40.7315 18.473 40.8676 18.2732 41.0674C18.0734 41.2672 17.9373 41.5217 17.8822 41.7988C17.8271 42.0759 17.8554 42.3632 17.9635 42.6242C18.0716 42.8852 18.2547 43.1084 18.4897 43.2653C18.7246 43.4223 19.0008 43.5061 19.2833 43.5061C19.6621 43.5057 20.0252 43.355 20.293 43.0872C20.5608 42.8194 20.7115 42.4563 20.7119 42.0775ZM18.5691 42.0775C18.5691 41.9362 18.611 41.7981 18.6894 41.6807C18.7679 41.5632 18.8795 41.4717 19.01 41.4176C19.1405 41.3635 19.2841 41.3494 19.4227 41.377C19.5613 41.4045 19.6885 41.4725 19.7884 41.5724C19.8883 41.6723 19.9563 41.7996 19.9839 41.9382C20.0115 42.0767 19.9973 42.2203 19.9433 42.3509C19.8892 42.4814 19.7976 42.5929 19.6802 42.6714C19.5627 42.7499 19.4246 42.7918 19.2833 42.7918C19.094 42.7916 18.9124 42.7163 18.7785 42.5824C18.6446 42.4485 18.5693 42.2669 18.5691 42.0775Z" fill="#FBFBFF"/>
<path d="M3.155 29.0467L4.21714 27.6495L3.54643 27.2695L2.865 28.8338H2.84214L2.15 27.281L1.46714 27.6724L2.51857 29.036V29.0581L0.875 28.8452V29.6052L2.52929 29.3931V29.4152L1.46714 30.7788L2.10429 31.1817L2.83143 29.6052H2.85286L3.52357 31.1702L4.22786 30.7681L3.155 29.4267V29.4045L4.84214 29.6052V28.8452L3.155 29.0688V29.0467Z" fill="#FFC100"/>
<path d="M31.8044 12.4896L31.193 13.2746L31.5594 13.506L31.978 12.5989H31.9909L32.3773 13.4996L32.783 13.2682L32.1651 12.496V12.4832L33.1366 12.5989V12.161L32.1651 12.2896V12.2768L32.7766 11.4725L32.3901 11.2539L31.998 12.1546H31.9844L31.5858 11.2603L31.193 11.4853L31.798 12.2703V12.2832L30.8516 12.161V12.5989L31.8044 12.4768V12.4896Z" fill="#FFC100"/>
<path d="M119.091 12.2243V11.4793L117.436 11.6986V11.6765L118.478 10.3065L117.82 9.93359L117.151 11.4679H117.129L116.45 9.94431L115.78 10.3286L116.811 11.6657V11.6879L115.199 11.4793V12.2243L116.822 12.0165V12.0386L115.78 13.3757L116.405 13.7707L117.118 12.2243H117.139L117.797 13.7593L118.488 13.365L117.436 12.0493V12.0272L119.091 12.2243Z" fill="#FFC100"/>
<path d="M50.9691 4.42473L51.8676 3.2433L51.2998 2.92188L50.7234 4.24545H50.7041L50.1183 2.93116L49.5405 3.26187L50.4298 4.41545V4.43473L49.0391 4.25473V4.89759L50.4391 4.7183V4.73687L49.5405 5.89045L50.0798 6.23116L50.6948 4.89759H50.7134L51.2805 6.22187L51.8769 5.88116L50.9691 4.74616V4.72759L52.3962 4.89759V4.25473L50.9691 4.44402V4.42473Z" fill="#FFC100"/>
</g>
<defs>
<clipPath id="clip0_199_3513">
<rect width="120" height="120" fill="white"/>
</clipPath>
</defs>
</svg>
